<?xml version="1.0" encoding="UTF-8" standalone="no"?>
<!DOCTYPE svg PUBLIC "-//W3C//DTD SVG 1.1//EN"
 "http://www.w3.org/Graphics/SVG/1.1/DTD/svg11.dtd">
<!-- Generated by graphviz version 2.38.0 (20140413.2041)
 -->
<!-- Title: G Pages: 1 -->
<svg width="620pt" height="392pt"
 viewBox="0.00 0.00 619.79 392.00" xmlns="http://www.w3.org/2000/svg" xmlns:xlink="http://www.w3.org/1999/xlink">
<g id="graph0" class="graph" transform="scale(1 1) rotate(0) translate(4 388)">
<title>G</title>
<polygon fill="white" stroke="none" points="-4,4 -4,-388 615.792,-388 615.792,4 -4,4"/>
<!-- OreBar_A_Steel_A_Large -->
<g id="node1" class="node"><title>OreBar_A_Steel_A_Large</title>
<ellipse fill="none" stroke="black" cx="184.897" cy="-105" rx="107.482" ry="18"/>
<text text-anchor="middle" x="184.897" y="-101.3" font-family="Times New Roman,serif" font-size="14.00">OreBar_A_Steel_A_Large</text>
</g>
<!-- 2H_Axe_B -->
<g id="node8" class="node"><title>2H_Axe_B</title>
<ellipse fill="none" stroke="black" cx="87.8973" cy="-18" rx="51.9908" ry="18"/>
<text text-anchor="middle" x="87.8973" y="-14.3" font-family="Times New Roman,serif" font-size="14.00">2H_Axe_B</text>
</g>
<!-- OreBar_A_Steel_A_Large&#45;&gt;2H_Axe_B -->
<g id="edge1" class="edge"><title>OreBar_A_Steel_A_Large&#45;&gt;2H_Axe_B</title>
<path fill="none" stroke="black" d="M165.733,-87.2067C150.835,-74.1511 130.02,-55.9114 113.663,-41.5784"/>
<polygon fill="black" stroke="black" points="115.865,-38.8541 106.037,-34.8959 111.252,-44.1188 115.865,-38.8541"/>
<text text-anchor="middle" x="170.897" y="-57.8" font-family="Times New Roman,serif" font-size="14.00">Crafting 4</text>
</g>
<!-- Sword -->
<g id="node2" class="node"><title>Sword</title>
<ellipse fill="none" stroke="black" cx="306.897" cy="-366" rx="35.194" ry="18"/>
<text text-anchor="middle" x="306.897" y="-362.3" font-family="Times New Roman,serif" font-size="14.00">Sword</text>
</g>
<!-- OreBar_A_Iron -->
<g id="node6" class="node"><title>OreBar_A_Iron</title>
<ellipse fill="none" stroke="black" cx="350.897" cy="-279" rx="68.4888" ry="18"/>
<text text-anchor="middle" x="350.897" y="-275.3" font-family="Times New Roman,serif" font-size="14.00">OreBar_A_Iron</text>
</g>
<!-- Sword&#45;&gt;OreBar_A_Iron -->
<g id="edge7" class="edge"><title>Sword&#45;&gt;OreBar_A_Iron</title>
<path fill="none" stroke="black" d="M315.59,-348.207C321.817,-336.178 330.322,-319.748 337.424,-306.028"/>
<polygon fill="black" stroke="black" points="340.583,-307.539 342.072,-297.049 334.366,-304.321 340.583,-307.539"/>
<text text-anchor="middle" x="358.897" y="-318.8" font-family="Times New Roman,serif" font-size="14.00">Crafting 1</text>
</g>
<!-- TwoHandedSword -->
<g id="node3" class="node"><title>TwoHandedSword</title>
<ellipse fill="none" stroke="black" cx="517.897" cy="-279" rx="80.6858" ry="18"/>
<text text-anchor="middle" x="517.897" y="-275.3" font-family="Times New Roman,serif" font-size="14.00">TwoHandedSword</text>
</g>
<!-- OreBar_A_Iron_A_Large -->
<g id="node10" class="node"><title>OreBar_A_Iron_A_Large</title>
<ellipse fill="none" stroke="black" cx="290.897" cy="-192" rx="104.782" ry="18"/>
<text text-anchor="middle" x="290.897" y="-188.3" font-family="Times New Roman,serif" font-size="14.00">OreBar_A_Iron_A_Large</text>
</g>
<!-- TwoHandedSword&#45;&gt;OreBar_A_Iron_A_Large -->
<g id="edge4" class="edge"><title>TwoHandedSword&#45;&gt;OreBar_A_Iron_A_Large</title>
<path fill="none" stroke="black" d="M478.357,-263.194C440.608,-249.059 383.527,-227.685 342.272,-212.237"/>
<polygon fill="black" stroke="black" points="343.265,-208.872 332.673,-208.643 340.811,-215.427 343.265,-208.872"/>
<text text-anchor="middle" x="445.897" y="-231.8" font-family="Times New Roman,serif" font-size="14.00">Crafting 1</text>
</g>
<!-- Anvil -->
<g id="node4" class="node"><title>Anvil</title>
<ellipse fill="none" stroke="black" cx="29.8973" cy="-105" rx="29.795" ry="18"/>
<text text-anchor="middle" x="29.8973" y="-101.3" font-family="Times New Roman,serif" font-size="14.00">Anvil</text>
</g>
<!-- Anvil&#45;&gt;2H_Axe_B -->
<g id="edge2" class="edge"><title>Anvil&#45;&gt;2H_Axe_B</title>
<path fill="none" stroke="black" d="M40.8067,-88.0122C49.2309,-75.6664 61.0461,-58.351 70.7339,-44.1533"/>
<polygon fill="black" stroke="black" points="73.6963,-46.0215 76.4417,-35.7885 67.9142,-42.076 73.6963,-46.0215"/>
<text text-anchor="middle" x="90.8973" y="-57.8" font-family="Times New Roman,serif" font-size="14.00">Crafting 4</text>
</g>
<!-- Bone_A_Iron -->
<g id="node5" class="node"><title>Bone_A_Iron</title>
<ellipse fill="none" stroke="black" cx="420.897" cy="-366" rx="61.1893" ry="18"/>
<text text-anchor="middle" x="420.897" y="-362.3" font-family="Times New Roman,serif" font-size="14.00">Bone_A_Iron</text>
</g>
<!-- Bone_A_Iron&#45;&gt;OreBar_A_Iron -->
<g id="edge5" class="edge"><title>Bone_A_Iron&#45;&gt;OreBar_A_Iron</title>
<path fill="none" stroke="black" d="M412.382,-347.924C406.941,-337.834 399.337,-325.098 390.897,-315 387.508,-310.944 383.632,-306.951 379.658,-303.196"/>
<polygon fill="black" stroke="black" points="381.774,-300.392 371.996,-296.313 377.096,-305.6 381.774,-300.392"/>
<text text-anchor="middle" x="428.897" y="-318.8" font-family="Times New Roman,serif" font-size="14.00">Crafting 0</text>
</g>
<!-- OreBar_A_Iron&#45;&gt;OreBar_A_Iron_A_Large -->
<g id="edge6" class="edge"><title>OreBar_A_Iron&#45;&gt;OreBar_A_Iron_A_Large</title>
<path fill="none" stroke="black" d="M339.043,-261.207C330.389,-248.946 318.507,-232.114 308.713,-218.239"/>
<polygon fill="black" stroke="black" points="311.558,-216.201 302.932,-210.049 305.84,-220.237 311.558,-216.201"/>
<text text-anchor="middle" x="351.897" y="-231.8" font-family="Times New Roman,serif" font-size="14.00">Crafting 0</text>
</g>
<!-- Oven -->
<g id="node7" class="node"><title>Oven</title>
<ellipse fill="none" stroke="black" cx="208.897" cy="-366" rx="30.5947" ry="18"/>
<text text-anchor="middle" x="208.897" y="-362.3" font-family="Times New Roman,serif" font-size="14.00">Oven</text>
</g>
<!-- Oven&#45;&gt;OreBar_A_Steel_A_Large -->
<g id="edge9" class="edge"><title>Oven&#45;&gt;OreBar_A_Steel_A_Large</title>
<path fill="none" stroke="black" d="M201.78,-348.426C192.284,-325.323 175.962,-281.888 169.897,-243 163.98,-205.057 171.378,-160.842 177.722,-133.132"/>
<polygon fill="black" stroke="black" points="181.134,-133.91 180.071,-123.368 174.329,-132.272 181.134,-133.91"/>
<text text-anchor="middle" x="197.897" y="-231.8" font-family="Times New Roman,serif" font-size="14.00">Crafting 1</text>
</g>
<!-- Oven&#45;&gt;OreBar_A_Iron -->
<g id="edge8" class="edge"><title>Oven&#45;&gt;OreBar_A_Iron</title>
<path fill="none" stroke="black" d="M223.291,-349.948C234.214,-339.161 250.014,-324.855 265.897,-315 276.705,-308.294 289.021,-302.372 300.859,-297.395"/>
<polygon fill="black" stroke="black" points="302.256,-300.605 310.212,-293.609 299.63,-294.116 302.256,-300.605"/>
<text text-anchor="middle" x="293.897" y="-318.8" font-family="Times New Roman,serif" font-size="14.00">Crafting 1</text>
</g>
<!-- Oven&#45;&gt;OreBar_A_Iron_A_Large -->
<g id="edge10" class="edge"><title>Oven&#45;&gt;OreBar_A_Iron_A_Large</title>
<path fill="none" stroke="black" d="M206.757,-347.807C204.871,-326.335 204.238,-289.02 217.897,-261 226.67,-243.003 242.404,-227.395 257.024,-215.687"/>
<polygon fill="black" stroke="black" points="259.17,-218.452 264.981,-209.593 254.914,-212.895 259.17,-218.452"/>
<text text-anchor="middle" x="245.897" y="-275.3" font-family="Times New Roman,serif" font-size="14.00">Crafting 1</text>
</g>
<!-- Ore_A_Iron -->
<g id="node9" class="node"><title>Ore_A_Iron</title>
<ellipse fill="none" stroke="black" cx="555.897" cy="-366" rx="55.7903" ry="18"/>
<text text-anchor="middle" x="555.897" y="-362.3" font-family="Times New Roman,serif" font-size="14.00">Ore_A_Iron</text>
</g>
<!-- Ore_A_Iron&#45;&gt;OreBar_A_Iron -->
<g id="edge11" class="edge"><title>Ore_A_Iron&#45;&gt;OreBar_A_Iron</title>
<path fill="none" stroke="black" d="M530.285,-349.936C511.497,-339.281 485.14,-325.143 460.897,-315 443.349,-307.658 423.69,-300.948 405.9,-295.412"/>
<polygon fill="black" stroke="black" points="406.819,-292.033 396.233,-292.46 404.775,-298.728 406.819,-292.033"/>
<text text-anchor="middle" x="520.897" y="-318.8" font-family="Times New Roman,serif" font-size="14.00">Crafting 0</text>
</g>
<!-- OreBar_A_Iron_A_Large&#45;&gt;OreBar_A_Steel_A_Large -->
<g id="edge3" class="edge"><title>OreBar_A_Iron_A_Large&#45;&gt;OreBar_A_Steel_A_Large</title>
<path fill="none" stroke="black" d="M269.955,-174.207C253.84,-161.284 231.391,-143.283 213.602,-129.018"/>
<polygon fill="black" stroke="black" points="215.787,-126.284 205.796,-122.758 211.408,-131.745 215.787,-126.284"/>
<text text-anchor="middle" x="271.897" y="-144.8" font-family="Times New Roman,serif" font-size="14.00">Crafting 1</text>
</g>
</g>
</svg>
