<?xml version="1.0" encoding="UTF-8" standalone="no"?>
<!DOCTYPE svg PUBLIC "-//W3C//DTD SVG 1.1//EN"
 "http://www.w3.org/Graphics/SVG/1.1/DTD/svg11.dtd">
<!-- Generated by graphviz version 2.38.0 (20140413.2041)
 -->
<!-- Title: G Pages: 1 -->
<svg width="890pt" height="479pt"
 viewBox="0.00 0.00 889.84 479.00" xmlns="http://www.w3.org/2000/svg" xmlns:xlink="http://www.w3.org/1999/xlink">
<g id="graph0" class="graph" transform="scale(1 1) rotate(0) translate(4 475)">
<title>G</title>
<polygon fill="white" stroke="none" points="-4,4 -4,-475 885.84,-475 885.84,4 -4,4"/>
<!-- Potion_Armor_Boost -->
<g id="node1" class="node"><title>Potion_Armor_Boost</title>
<ellipse fill="none" stroke="black" cx="604.397" cy="-279" rx="90.1842" ry="18"/>
<text text-anchor="middle" x="604.397" y="-275.3" font-family="Times New Roman,serif" font-size="14.00">Potion_Armor_Boost</text>
</g>
<!-- Potion_Fire_Res -->
<g id="node5" class="node"><title>Potion_Fire_Res</title>
<ellipse fill="none" stroke="black" cx="414.397" cy="-192" rx="72.5877" ry="18"/>
<text text-anchor="middle" x="414.397" y="-188.3" font-family="Times New Roman,serif" font-size="14.00">Potion_Fire_Res</text>
</g>
<!-- Potion_Armor_Boost&#45;&gt;Potion_Fire_Res -->
<g id="edge1" class="edge"><title>Potion_Armor_Boost&#45;&gt;Potion_Fire_Res</title>
<path fill="none" stroke="black" d="M569.105,-262.211C537.42,-248.037 490.833,-227.195 457.067,-212.089"/>
<polygon fill="black" stroke="black" points="458.464,-208.88 447.906,-207.991 455.605,-215.27 458.464,-208.88"/>
<text text-anchor="middle" x="549.397" y="-231.8" font-family="Times New Roman,serif" font-size="14.00">Crafting 2</text>
</g>
<!-- ArrowHead -->
<g id="node2" class="node"><title>ArrowHead</title>
<ellipse fill="none" stroke="black" cx="270.397" cy="-192" rx="53.0913" ry="18"/>
<text text-anchor="middle" x="270.397" y="-188.3" font-family="Times New Roman,serif" font-size="14.00">ArrowHead</text>
</g>
<!-- ArrowHead_Explosive -->
<g id="node3" class="node"><title>ArrowHead_Explosive</title>
<ellipse fill="none" stroke="black" cx="276.397" cy="-105" rx="93.6835" ry="18"/>
<text text-anchor="middle" x="276.397" y="-101.3" font-family="Times New Roman,serif" font-size="14.00">ArrowHead_Explosive</text>
</g>
<!-- ArrowHead&#45;&gt;ArrowHead_Explosive -->
<g id="edge2" class="edge"><title>ArrowHead&#45;&gt;ArrowHead_Explosive</title>
<path fill="none" stroke="black" d="M271.611,-173.799C272.432,-162.163 273.535,-146.548 274.474,-133.237"/>
<polygon fill="black" stroke="black" points="277.971,-133.397 275.184,-123.175 270.989,-132.904 277.971,-133.397"/>
<text text-anchor="middle" x="302.397" y="-144.8" font-family="Times New Roman,serif" font-size="14.00">Crafting 3</text>
</g>
<!-- Arrow_Explosive -->
<g id="node9" class="node"><title>Arrow_Explosive</title>
<ellipse fill="none" stroke="black" cx="158.397" cy="-18" rx="74.9875" ry="18"/>
<text text-anchor="middle" x="158.397" y="-14.3" font-family="Times New Roman,serif" font-size="14.00">Arrow_Explosive</text>
</g>
<!-- ArrowHead_Explosive&#45;&gt;Arrow_Explosive -->
<g id="edge3" class="edge"><title>ArrowHead_Explosive&#45;&gt;Arrow_Explosive</title>
<path fill="none" stroke="black" d="M253.365,-87.4094C235.055,-74.2198 209.271,-55.6465 189.189,-41.1806"/>
<polygon fill="black" stroke="black" points="191.129,-38.265 180.97,-35.26 187.038,-43.9449 191.129,-38.265"/>
<text text-anchor="middle" x="253.397" y="-57.8" font-family="Times New Roman,serif" font-size="14.00">Crafting 3</text>
</g>
<!-- Potion_Empty -->
<g id="node4" class="node"><title>Potion_Empty</title>
<ellipse fill="none" stroke="black" cx="653.397" cy="-453" rx="63.8893" ry="18"/>
<text text-anchor="middle" x="653.397" y="-449.3" font-family="Times New Roman,serif" font-size="14.00">Potion_Empty</text>
</g>
<!-- Minor_Healing_Potion -->
<g id="node10" class="node"><title>Minor_Healing_Potion</title>
<ellipse fill="none" stroke="black" cx="731.397" cy="-366" rx="92.8835" ry="18"/>
<text text-anchor="middle" x="731.397" y="-362.3" font-family="Times New Roman,serif" font-size="14.00">Minor_Healing_Potion</text>
</g>
<!-- Potion_Empty&#45;&gt;Minor_Healing_Potion -->
<g id="edge4" class="edge"><title>Potion_Empty&#45;&gt;Minor_Healing_Potion</title>
<path fill="none" stroke="black" d="M668.807,-435.207C680.345,-422.633 696.295,-405.252 709.206,-391.182"/>
<polygon fill="black" stroke="black" points="711.836,-393.493 716.018,-383.758 706.679,-388.76 711.836,-393.493"/>
<text text-anchor="middle" x="724.397" y="-405.8" font-family="Times New Roman,serif" font-size="14.00">Crafting 1</text>
</g>
<!-- Potion_Fire_Res&#45;&gt;ArrowHead_Explosive -->
<g id="edge5" class="edge"><title>Potion_Fire_Res&#45;&gt;ArrowHead_Explosive</title>
<path fill="none" stroke="black" d="M388.88,-174.91C373.2,-165.058 352.68,-152.229 334.397,-141 327.35,-136.672 319.799,-132.082 312.552,-127.699"/>
<polygon fill="black" stroke="black" points="313.967,-124.464 303.596,-122.294 310.35,-130.457 313.967,-124.464"/>
<text text-anchor="middle" x="385.397" y="-144.8" font-family="Times New Roman,serif" font-size="14.00">Crafting 3</text>
</g>
<!-- Herb_Whisperwood -->
<g id="node6" class="node"><title>Herb_Whisperwood</title>
<ellipse fill="none" stroke="black" cx="535.397" cy="-366" rx="85.2851" ry="18"/>
<text text-anchor="middle" x="535.397" y="-362.3" font-family="Times New Roman,serif" font-size="14.00">Herb_Whisperwood</text>
</g>
<!-- Herb_Whisperwood&#45;&gt;Potion_Armor_Boost -->
<g id="edge6" class="edge"><title>Herb_Whisperwood&#45;&gt;Potion_Armor_Boost</title>
<path fill="none" stroke="black" d="M549.029,-348.207C559.075,-335.831 572.903,-318.796 584.227,-304.847"/>
<polygon fill="black" stroke="black" points="586.972,-307.019 590.557,-297.049 581.537,-302.607 586.972,-307.019"/>
<text text-anchor="middle" x="602.397" y="-318.8" font-family="Times New Roman,serif" font-size="14.00">Crafting 2</text>
</g>
<!-- Tooth -->
<g id="node7" class="node"><title>Tooth</title>
<ellipse fill="none" stroke="black" cx="273.397" cy="-279" rx="33.2948" ry="18"/>
<text text-anchor="middle" x="273.397" y="-275.3" font-family="Times New Roman,serif" font-size="14.00">Tooth</text>
</g>
<!-- Tooth&#45;&gt;ArrowHead -->
<g id="edge7" class="edge"><title>Tooth&#45;&gt;ArrowHead</title>
<path fill="none" stroke="black" d="M272.79,-260.799C272.379,-249.163 271.828,-233.548 271.358,-220.237"/>
<polygon fill="black" stroke="black" points="274.854,-220.046 271.003,-210.175 267.858,-220.293 274.854,-220.046"/>
<text text-anchor="middle" x="300.397" y="-231.8" font-family="Times New Roman,serif" font-size="14.00">Crafting 1</text>
</g>
<!-- ArrowShaft -->
<g id="node8" class="node"><title>ArrowShaft</title>
<ellipse fill="none" stroke="black" cx="108.397" cy="-192" rx="53.0913" ry="18"/>
<text text-anchor="middle" x="108.397" y="-188.3" font-family="Times New Roman,serif" font-size="14.00">ArrowShaft</text>
</g>
<!-- ArrowShaft&#45;&gt;Arrow_Explosive -->
<g id="edge8" class="edge"><title>ArrowShaft&#45;&gt;Arrow_Explosive</title>
<path fill="none" stroke="black" d="M107.544,-173.964C107.016,-152.973 107.812,-116.471 117.397,-87 122.337,-71.8094 131.205,-56.4386 139.433,-44.163"/>
<polygon fill="black" stroke="black" points="142.402,-46.0243 145.246,-35.8183 136.658,-42.0233 142.402,-46.0243"/>
<text text-anchor="middle" x="145.397" y="-101.3" font-family="Times New Roman,serif" font-size="14.00">Crafting 3</text>
</g>
<!-- Minor_Healing_Potion&#45;&gt;Potion_Armor_Boost -->
<g id="edge14" class="edge"><title>Minor_Healing_Potion&#45;&gt;Potion_Armor_Boost</title>
<path fill="none" stroke="black" d="M706.91,-348.611C687.144,-335.382 659.145,-316.643 637.402,-302.09"/>
<polygon fill="black" stroke="black" points="639.066,-298.992 628.808,-296.339 635.172,-304.809 639.066,-298.992"/>
<text text-anchor="middle" x="703.397" y="-318.8" font-family="Times New Roman,serif" font-size="14.00">Crafting 2</text>
</g>
<!-- Branch -->
<g id="node11" class="node"><title>Branch</title>
<ellipse fill="none" stroke="black" cx="36.3968" cy="-279" rx="36.2938" ry="18"/>
<text text-anchor="middle" x="36.3968" y="-275.3" font-family="Times New Roman,serif" font-size="14.00">Branch</text>
</g>
<!-- Branch&#45;&gt;ArrowShaft -->
<g id="edge11" class="edge"><title>Branch&#45;&gt;ArrowShaft</title>
<path fill="none" stroke="black" d="M38.4108,-260.845C40.3419,-250.479 44.102,-237.481 51.3968,-228 56.0216,-221.989 61.9967,-216.767 68.3321,-212.322"/>
<polygon fill="black" stroke="black" points="70.5433,-215.064 77.1016,-206.743 66.7857,-209.158 70.5433,-215.064"/>
<text text-anchor="middle" x="79.3968" y="-231.8" font-family="Times New Roman,serif" font-size="14.00">Crafting 0</text>
</g>
<!-- Herb_Mushroom -->
<g id="node12" class="node"><title>Herb_Mushroom</title>
<ellipse fill="none" stroke="black" cx="808.397" cy="-453" rx="73.387" ry="18"/>
<text text-anchor="middle" x="808.397" y="-449.3" font-family="Times New Roman,serif" font-size="14.00">Herb_Mushroom</text>
</g>
<!-- Herb_Mushroom&#45;&gt;Minor_Healing_Potion -->
<g id="edge12" class="edge"><title>Herb_Mushroom&#45;&gt;Minor_Healing_Potion</title>
<path fill="none" stroke="black" d="M793.184,-435.207C781.794,-422.633 766.049,-405.252 753.303,-391.182"/>
<polygon fill="black" stroke="black" points="755.886,-388.82 746.578,-383.758 750.698,-393.519 755.886,-388.82"/>
<text text-anchor="middle" x="802.397" y="-405.8" font-family="Times New Roman,serif" font-size="14.00">Crafting 1</text>
</g>
<!-- Herb_Mushroom_E -->
<g id="node13" class="node"><title>Herb_Mushroom_E</title>
<ellipse fill="none" stroke="black" cx="412.397" cy="-279" rx="83.6854" ry="18"/>
<text text-anchor="middle" x="412.397" y="-275.3" font-family="Times New Roman,serif" font-size="14.00">Herb_Mushroom_E</text>
</g>
<!-- Herb_Mushroom_E&#45;&gt;Potion_Fire_Res -->
<g id="edge13" class="edge"><title>Herb_Mushroom_E&#45;&gt;Potion_Fire_Res</title>
<path fill="none" stroke="black" d="M412.802,-260.799C413.075,-249.163 413.443,-233.548 413.756,-220.237"/>
<polygon fill="black" stroke="black" points="417.256,-220.255 413.993,-210.175 410.258,-220.09 417.256,-220.255"/>
<text text-anchor="middle" x="442.397" y="-231.8" font-family="Times New Roman,serif" font-size="14.00">Crafting 2</text>
</g>
<!-- Knife -->
<g id="node14" class="node"><title>Knife</title>
<ellipse fill="none" stroke="black" cx="156.397" cy="-279" rx="30.5947" ry="18"/>
<text text-anchor="middle" x="156.397" y="-275.3" font-family="Times New Roman,serif" font-size="14.00">Knife</text>
</g>
<!-- Knife&#45;&gt;ArrowHead -->
<g id="edge10" class="edge"><title>Knife&#45;&gt;ArrowHead</title>
<path fill="none" stroke="black" d="M171.428,-263.181C182.345,-252.775 197.716,-238.837 212.397,-228 219.47,-222.779 227.357,-217.623 234.98,-212.939"/>
<polygon fill="black" stroke="black" points="236.969,-215.827 243.744,-207.681 233.368,-209.825 236.969,-215.827"/>
<text text-anchor="middle" x="240.397" y="-231.8" font-family="Times New Roman,serif" font-size="14.00">Crafting 1</text>
</g>
<!-- Knife&#45;&gt;ArrowShaft -->
<g id="edge9" class="edge"><title>Knife&#45;&gt;ArrowShaft</title>
<path fill="none" stroke="black" d="M136.585,-265.176C129.094,-259.312 121.221,-251.72 116.397,-243 112.593,-236.125 110.471,-227.956 109.319,-220.235"/>
<polygon fill="black" stroke="black" points="112.786,-219.737 108.283,-210.147 105.823,-220.452 112.786,-219.737"/>
<text text-anchor="middle" x="144.397" y="-231.8" font-family="Times New Roman,serif" font-size="14.00">Crafting 0</text>
</g>
</g>
</svg>
