<?xml version="1.0" encoding="UTF-8" standalone="no"?>
<!DOCTYPE svg PUBLIC "-//W3C//DTD SVG 1.1//EN"
 "http://www.w3.org/Graphics/SVG/1.1/DTD/svg11.dtd">
<!-- Generated by graphviz version 2.38.0 (20140413.2041)
 -->
<!-- Title: G Pages: 1 -->
<svg width="1857pt" height="392pt"
 viewBox="0.00 0.00 1857.44 392.00" xmlns="http://www.w3.org/2000/svg" xmlns:xlink="http://www.w3.org/1999/xlink">
<g id="graph0" class="graph" transform="scale(1 1) rotate(0) translate(4 388)">
<title>G</title>
<polygon fill="white" stroke="none" points="-4,4 -4,-388 1853.44,-388 1853.44,4 -4,4"/>
<!-- Eye -->
<g id="node1" class="node"><title>Eye</title>
<ellipse fill="none" stroke="black" cx="1018.44" cy="-279" rx="27" ry="18"/>
<text text-anchor="middle" x="1018.44" y="-275.3" font-family="Times New Roman,serif" font-size="14.00">Eye</text>
</g>
<!-- Potion_Debuf_Perception -->
<g id="node25" class="node"><title>Potion_Debuf_Perception</title>
<ellipse fill="none" stroke="black" cx="993.441" cy="-192" rx="105.881" ry="18"/>
<text text-anchor="middle" x="993.441" y="-188.3" font-family="Times New Roman,serif" font-size="14.00">Potion_Debuf_Perception</text>
</g>
<!-- Eye&#45;&gt;Potion_Debuf_Perception -->
<g id="edge1" class="edge"><title>Eye&#45;&gt;Potion_Debuf_Perception</title>
<path fill="none" stroke="black" d="M1013.5,-261.207C1010.03,-249.409 1005.32,-233.378 1001.33,-219.822"/>
<polygon fill="black" stroke="black" points="1004.64,-218.655 998.456,-210.049 997.92,-220.631 1004.64,-218.655"/>
<text text-anchor="middle" x="1035.44" y="-231.8" font-family="Times New Roman,serif" font-size="14.00">Crafting 2</text>
</g>
<!-- Potion_Empty -->
<g id="node2" class="node"><title>Potion_Empty</title>
<ellipse fill="none" stroke="black" cx="362.441" cy="-366" rx="63.8893" ry="18"/>
<text text-anchor="middle" x="362.441" y="-362.3" font-family="Times New Roman,serif" font-size="14.00">Potion_Empty</text>
</g>
<!-- Potion_Poison -->
<g id="node27" class="node"><title>Potion_Poison</title>
<ellipse fill="none" stroke="black" cx="623.441" cy="-279" rx="64.9885" ry="18"/>
<text text-anchor="middle" x="623.441" y="-275.3" font-family="Times New Roman,serif" font-size="14.00">Potion_Poison</text>
</g>
<!-- Potion_Empty&#45;&gt;Potion_Poison -->
<g id="edge2" class="edge"><title>Potion_Empty&#45;&gt;Potion_Poison</title>
<path fill="none" stroke="black" d="M401.27,-351.723C431.295,-341.516 473.933,-327.153 511.441,-315 531.163,-308.61 552.902,-301.77 571.94,-295.847"/>
<polygon fill="black" stroke="black" points="573.111,-299.148 581.624,-292.841 571.036,-292.463 573.111,-299.148"/>
<text text-anchor="middle" x="539.441" y="-318.8" font-family="Times New Roman,serif" font-size="14.00">Crafting 0</text>
</g>
<!-- Pouch_Dust_Bone -->
<g id="node3" class="node"><title>Pouch_Dust_Bone</title>
<ellipse fill="none" stroke="black" cx="877.441" cy="-279" rx="79.8859" ry="18"/>
<text text-anchor="middle" x="877.441" y="-275.3" font-family="Times New Roman,serif" font-size="14.00">Pouch_Dust_Bone</text>
</g>
<!-- Potion_Debuf_Constitution -->
<g id="node12" class="node"><title>Potion_Debuf_Constitution</title>
<ellipse fill="none" stroke="black" cx="758.441" cy="-192" rx="111.28" ry="18"/>
<text text-anchor="middle" x="758.441" y="-188.3" font-family="Times New Roman,serif" font-size="14.00">Potion_Debuf_Constitution</text>
</g>
<!-- Pouch_Dust_Bone&#45;&gt;Potion_Debuf_Constitution -->
<g id="edge3" class="edge"><title>Pouch_Dust_Bone&#45;&gt;Potion_Debuf_Constitution</title>
<path fill="none" stroke="black" d="M867.249,-260.922C860.231,-250.324 850.092,-237.049 838.441,-228 830.888,-222.133 822.199,-217.033 813.394,-212.677"/>
<polygon fill="black" stroke="black" points="814.76,-209.452 804.217,-208.406 811.807,-215.799 814.76,-209.452"/>
<text text-anchor="middle" x="881.441" y="-231.8" font-family="Times New Roman,serif" font-size="14.00">Crafting 2</text>
</g>
<!-- Potion_Debuf_Intelligence -->
<g id="node4" class="node"><title>Potion_Debuf_Intelligence</title>
<ellipse fill="none" stroke="black" cx="324.441" cy="-192" rx="107.482" ry="18"/>
<text text-anchor="middle" x="324.441" y="-188.3" font-family="Times New Roman,serif" font-size="14.00">Potion_Debuf_Intelligence</text>
</g>
<!-- Potion_Debuf_All -->
<g id="node16" class="node"><title>Potion_Debuf_All</title>
<ellipse fill="none" stroke="black" cx="875.441" cy="-105" rx="77.1866" ry="18"/>
<text text-anchor="middle" x="875.441" y="-101.3" font-family="Times New Roman,serif" font-size="14.00">Potion_Debuf_All</text>
</g>
<!-- Potion_Debuf_Intelligence&#45;&gt;Potion_Debuf_All -->
<g id="edge4" class="edge"><title>Potion_Debuf_Intelligence&#45;&gt;Potion_Debuf_All</title>
<path fill="none" stroke="black" d="M396.607,-178.605C457.949,-168.186 548.388,-153.099 627.441,-141 685.446,-132.122 751.214,-122.878 800.44,-116.121"/>
<polygon fill="black" stroke="black" points="800.939,-119.585 810.371,-114.761 799.989,-112.65 800.939,-119.585"/>
<text text-anchor="middle" x="655.441" y="-144.8" font-family="Times New Roman,serif" font-size="14.00">Crafting 3</text>
</g>
<!-- Potion_Debuf_Dexterity -->
<g id="node5" class="node"><title>Potion_Debuf_Dexterity</title>
<ellipse fill="none" stroke="black" cx="99.4412" cy="-192" rx="99.3824" ry="18"/>
<text text-anchor="middle" x="99.4412" y="-188.3" font-family="Times New Roman,serif" font-size="14.00">Potion_Debuf_Dexterity</text>
</g>
<!-- Potion_Debuf_Dexterity&#45;&gt;Potion_Debuf_All -->
<g id="edge5" class="edge"><title>Potion_Debuf_Dexterity&#45;&gt;Potion_Debuf_All</title>
<path fill="none" stroke="black" d="M171.217,-179.47C183.62,-177.573 196.396,-175.68 208.441,-174 327.301,-157.418 357.092,-153.579 476.441,-141 585.865,-129.467 712.455,-118.82 793.186,-112.369"/>
<polygon fill="black" stroke="black" points="793.597,-115.848 803.288,-111.565 793.041,-108.87 793.597,-115.848"/>
<text text-anchor="middle" x="504.441" y="-144.8" font-family="Times New Roman,serif" font-size="14.00">Crafting 3</text>
</g>
<!-- Soul_Tormented -->
<g id="node6" class="node"><title>Soul_Tormented</title>
<ellipse fill="none" stroke="black" cx="299.441" cy="-279" rx="72.2875" ry="18"/>
<text text-anchor="middle" x="299.441" y="-275.3" font-family="Times New Roman,serif" font-size="14.00">Soul_Tormented</text>
</g>
<!-- Soul_Tormented&#45;&gt;Potion_Debuf_Intelligence -->
<g id="edge6" class="edge"><title>Soul_Tormented&#45;&gt;Potion_Debuf_Intelligence</title>
<path fill="none" stroke="black" d="M299.391,-260.977C299.791,-251.136 301.041,-238.636 304.441,-228 305.391,-225.029 306.616,-222.032 307.992,-219.108"/>
<polygon fill="black" stroke="black" points="311.156,-220.612 312.747,-210.137 304.971,-217.333 311.156,-220.612"/>
<text text-anchor="middle" x="332.441" y="-231.8" font-family="Times New Roman,serif" font-size="14.00">Crafting 2</text>
</g>
<!-- Essence_Shadow -->
<g id="node7" class="node"><title>Essence_Shadow</title>
<ellipse fill="none" stroke="black" cx="465.441" cy="-279" rx="75.2868" ry="18"/>
<text text-anchor="middle" x="465.441" y="-275.3" font-family="Times New Roman,serif" font-size="14.00">Essence_Shadow</text>
</g>
<!-- Potion_Debuf_Speed -->
<g id="node15" class="node"><title>Potion_Debuf_Speed</title>
<ellipse fill="none" stroke="black" cx="539.441" cy="-192" rx="89.8845" ry="18"/>
<text text-anchor="middle" x="539.441" y="-188.3" font-family="Times New Roman,serif" font-size="14.00">Potion_Debuf_Speed</text>
</g>
<!-- Essence_Shadow&#45;&gt;Potion_Debuf_Speed -->
<g id="edge7" class="edge"><title>Essence_Shadow&#45;&gt;Potion_Debuf_Speed</title>
<path fill="none" stroke="black" d="M461.552,-260.955C460.167,-250.629 460.239,-237.637 466.441,-228 470.416,-221.825 475.809,-216.712 481.876,-212.486"/>
<polygon fill="black" stroke="black" points="483.763,-215.435 490.497,-207.255 480.132,-209.45 483.763,-215.435"/>
<text text-anchor="middle" x="494.441" y="-231.8" font-family="Times New Roman,serif" font-size="14.00">Crafting 2</text>
</g>
<!-- Branch -->
<g id="node8" class="node"><title>Branch</title>
<ellipse fill="none" stroke="black" cx="1570.44" cy="-279" rx="36.2938" ry="18"/>
<text text-anchor="middle" x="1570.44" y="-275.3" font-family="Times New Roman,serif" font-size="14.00">Branch</text>
</g>
<!-- ArrowShaft -->
<g id="node26" class="node"><title>ArrowShaft</title>
<ellipse fill="none" stroke="black" cx="1613.44" cy="-192" rx="53.0913" ry="18"/>
<text text-anchor="middle" x="1613.44" y="-188.3" font-family="Times New Roman,serif" font-size="14.00">ArrowShaft</text>
</g>
<!-- Branch&#45;&gt;ArrowShaft -->
<g id="edge8" class="edge"><title>Branch&#45;&gt;ArrowShaft</title>
<path fill="none" stroke="black" d="M1567.38,-260.979C1566.37,-250.908 1566.55,-238.173 1571.44,-228 1573.75,-223.204 1577.06,-218.83 1580.82,-214.923"/>
<polygon fill="black" stroke="black" points="1583.41,-217.303 1588.47,-207.998 1578.71,-212.113 1583.41,-217.303"/>
<text text-anchor="middle" x="1599.44" y="-231.8" font-family="Times New Roman,serif" font-size="14.00">Crafting 0</text>
</g>
<!-- ArrowHead_Antler -->
<g id="node9" class="node"><title>ArrowHead_Antler</title>
<ellipse fill="none" stroke="black" cx="1764.44" cy="-192" rx="79.8859" ry="18"/>
<text text-anchor="middle" x="1764.44" y="-188.3" font-family="Times New Roman,serif" font-size="14.00">ArrowHead_Antler</text>
</g>
<!-- Arrow_KO -->
<g id="node24" class="node"><title>Arrow_KO</title>
<ellipse fill="none" stroke="black" cx="1613.44" cy="-105" rx="51.9908" ry="18"/>
<text text-anchor="middle" x="1613.44" y="-101.3" font-family="Times New Roman,serif" font-size="14.00">Arrow_KO</text>
</g>
<!-- ArrowHead_Antler&#45;&gt;Arrow_KO -->
<g id="edge9" class="edge"><title>ArrowHead_Antler&#45;&gt;Arrow_KO</title>
<path fill="none" stroke="black" d="M1736.04,-175.012C1711.28,-161.074 1675.27,-140.802 1648.67,-125.833"/>
<polygon fill="black" stroke="black" points="1650.13,-122.634 1639.69,-120.779 1646.69,-128.734 1650.13,-122.634"/>
<text text-anchor="middle" x="1726.44" y="-144.8" font-family="Times New Roman,serif" font-size="14.00">Crafting 1</text>
</g>
<!-- Antler -->
<g id="node10" class="node"><title>Antler</title>
<ellipse fill="none" stroke="black" cx="1807.44" cy="-279" rx="32.4942" ry="18"/>
<text text-anchor="middle" x="1807.44" y="-275.3" font-family="Times New Roman,serif" font-size="14.00">Antler</text>
</g>
<!-- Antler&#45;&gt;ArrowHead_Antler -->
<g id="edge10" class="edge"><title>Antler&#45;&gt;ArrowHead_Antler</title>
<path fill="none" stroke="black" d="M1800.62,-261.086C1796.52,-251.282 1791.02,-238.782 1785.44,-228 1783.83,-224.885 1782.06,-221.665 1780.24,-218.499"/>
<polygon fill="black" stroke="black" points="1783.23,-216.677 1775.13,-209.845 1777.2,-220.236 1783.23,-216.677"/>
<text text-anchor="middle" x="1821.44" y="-231.8" font-family="Times New Roman,serif" font-size="14.00">Crafting 1</text>
</g>
<!-- Knife -->
<g id="node11" class="node"><title>Knife</title>
<ellipse fill="none" stroke="black" cx="1691.44" cy="-279" rx="30.5947" ry="18"/>
<text text-anchor="middle" x="1691.44" y="-275.3" font-family="Times New Roman,serif" font-size="14.00">Knife</text>
</g>
<!-- Knife&#45;&gt;ArrowHead_Antler -->
<g id="edge12" class="edge"><title>Knife&#45;&gt;ArrowHead_Antler</title>
<path fill="none" stroke="black" d="M1701.23,-261.515C1707.57,-251.4 1716.32,-238.433 1725.44,-228 1728.87,-224.076 1732.72,-220.156 1736.62,-216.434"/>
<polygon fill="black" stroke="black" points="1739.11,-218.909 1744.12,-209.573 1734.38,-213.747 1739.11,-218.909"/>
<text text-anchor="middle" x="1753.44" y="-231.8" font-family="Times New Roman,serif" font-size="14.00">Crafting 1</text>
</g>
<!-- Knife&#45;&gt;ArrowShaft -->
<g id="edge11" class="edge"><title>Knife&#45;&gt;ArrowShaft</title>
<path fill="none" stroke="black" d="M1675.17,-263.438C1668.55,-257.308 1660.95,-249.987 1654.44,-243 1646.98,-234.991 1639.26,-225.831 1632.55,-217.557"/>
<polygon fill="black" stroke="black" points="1635.21,-215.279 1626.23,-209.654 1629.74,-219.65 1635.21,-215.279"/>
<text text-anchor="middle" x="1682.44" y="-231.8" font-family="Times New Roman,serif" font-size="14.00">Crafting 0</text>
</g>
<!-- Potion_Debuf_Constitution&#45;&gt;Potion_Debuf_All -->
<g id="edge13" class="edge"><title>Potion_Debuf_Constitution&#45;&gt;Potion_Debuf_All</title>
<path fill="none" stroke="black" d="M781.557,-174.207C799.621,-161.083 824.896,-142.721 844.671,-128.355"/>
<polygon fill="black" stroke="black" points="846.739,-131.178 852.772,-122.469 842.624,-125.515 846.739,-131.178"/>
<text text-anchor="middle" x="852.441" y="-144.8" font-family="Times New Roman,serif" font-size="14.00">Crafting 3</text>
</g>
<!-- Herb_Mushroom_C -->
<g id="node13" class="node"><title>Herb_Mushroom_C</title>
<ellipse fill="none" stroke="black" cx="529.441" cy="-366" rx="85.2851" ry="18"/>
<text text-anchor="middle" x="529.441" y="-362.3" font-family="Times New Roman,serif" font-size="14.00">Herb_Mushroom_C</text>
</g>
<!-- Herb_Mushroom_C&#45;&gt;Potion_Poison -->
<g id="edge14" class="edge"><title>Herb_Mushroom_C&#45;&gt;Potion_Poison</title>
<path fill="none" stroke="black" d="M548.013,-348.207C562.137,-335.435 581.748,-317.701 597.434,-303.518"/>
<polygon fill="black" stroke="black" points="600.158,-305.772 605.228,-296.469 595.463,-300.58 600.158,-305.772"/>
<text text-anchor="middle" x="610.441" y="-318.8" font-family="Times New Roman,serif" font-size="14.00">Crafting 1</text>
</g>
<!-- Skull_Human -->
<g id="node14" class="node"><title>Skull_Human</title>
<ellipse fill="none" stroke="black" cx="823.441" cy="-366" rx="59.5901" ry="18"/>
<text text-anchor="middle" x="823.441" y="-362.3" font-family="Times New Roman,serif" font-size="14.00">Skull_Human</text>
</g>
<!-- Skull_Human&#45;&gt;Pouch_Dust_Bone -->
<g id="edge15" class="edge"><title>Skull_Human&#45;&gt;Pouch_Dust_Bone</title>
<path fill="none" stroke="black" d="M833.191,-348.178C838.941,-338.404 846.441,-325.904 853.441,-315 855.471,-311.838 857.645,-308.547 859.825,-305.303"/>
<polygon fill="black" stroke="black" points="862.777,-307.186 865.513,-296.951 856.991,-303.246 862.777,-307.186"/>
<text text-anchor="middle" x="881.441" y="-318.8" font-family="Times New Roman,serif" font-size="14.00">Crafting 0</text>
</g>
<!-- Potion_Debuf_Speed&#45;&gt;Potion_Debuf_All -->
<g id="edge16" class="edge"><title>Potion_Debuf_Speed&#45;&gt;Potion_Debuf_All</title>
<path fill="none" stroke="black" d="M593.053,-177.438C653.64,-162.111 752.026,-137.221 815.213,-121.236"/>
<polygon fill="black" stroke="black" points="816.205,-124.596 825.041,-118.75 814.488,-117.81 816.205,-124.596"/>
<text text-anchor="middle" x="756.441" y="-144.8" font-family="Times New Roman,serif" font-size="14.00">Crafting 3</text>
</g>
<!-- Arrow_Debuff_All -->
<g id="node19" class="node"><title>Arrow_Debuff_All</title>
<ellipse fill="none" stroke="black" cx="1350.44" cy="-18" rx="79.0865" ry="18"/>
<text text-anchor="middle" x="1350.44" y="-14.3" font-family="Times New Roman,serif" font-size="14.00">Arrow_Debuff_All</text>
</g>
<!-- Potion_Debuf_All&#45;&gt;Arrow_Debuff_All -->
<g id="edge17" class="edge"><title>Potion_Debuf_All&#45;&gt;Arrow_Debuff_All</title>
<path fill="none" stroke="black" d="M934.64,-93.4066C1022.34,-77.7124 1186.49,-48.3388 1280.17,-31.5751"/>
<polygon fill="black" stroke="black" points="1280.89,-35.001 1290.12,-29.7941 1279.66,-28.1104 1280.89,-35.001"/>
<text text-anchor="middle" x="1169.44" y="-57.8" font-family="Times New Roman,serif" font-size="14.00">Crafting 3</text>
</g>
<!-- Potion_Debuf_Strength -->
<g id="node17" class="node"><title>Potion_Debuf_Strength</title>
<ellipse fill="none" stroke="black" cx="1214.44" cy="-192" rx="96.6831" ry="18"/>
<text text-anchor="middle" x="1214.44" y="-188.3" font-family="Times New Roman,serif" font-size="14.00">Potion_Debuf_Strength</text>
</g>
<!-- Potion_Debuf_Strength&#45;&gt;Potion_Debuf_All -->
<g id="edge18" class="edge"><title>Potion_Debuf_Strength&#45;&gt;Potion_Debuf_All</title>
<path fill="none" stroke="black" d="M1159.22,-177.154C1097.87,-161.771 999.127,-137.013 935.783,-121.13"/>
<polygon fill="black" stroke="black" points="936.483,-117.697 925.932,-118.66 934.78,-124.487 936.483,-117.697"/>
<text text-anchor="middle" x="1093.44" y="-144.8" font-family="Times New Roman,serif" font-size="14.00">Crafting 3</text>
</g>
<!-- Tooth -->
<g id="node18" class="node"><title>Tooth</title>
<ellipse fill="none" stroke="black" cx="1214.44" cy="-279" rx="33.2948" ry="18"/>
<text text-anchor="middle" x="1214.44" y="-275.3" font-family="Times New Roman,serif" font-size="14.00">Tooth</text>
</g>
<!-- Tooth&#45;&gt;Potion_Debuf_Strength -->
<g id="edge19" class="edge"><title>Tooth&#45;&gt;Potion_Debuf_Strength</title>
<path fill="none" stroke="black" d="M1214.44,-260.799C1214.44,-249.163 1214.44,-233.548 1214.44,-220.237"/>
<polygon fill="black" stroke="black" points="1217.94,-220.175 1214.44,-210.175 1210.94,-220.175 1217.94,-220.175"/>
<text text-anchor="middle" x="1242.44" y="-231.8" font-family="Times New Roman,serif" font-size="14.00">Crafting 2</text>
</g>
<!-- Barrel_Ooze -->
<g id="node20" class="node"><title>Barrel_Ooze</title>
<ellipse fill="none" stroke="black" cx="689.441" cy="-366" rx="56.59" ry="18"/>
<text text-anchor="middle" x="689.441" y="-362.3" font-family="Times New Roman,serif" font-size="14.00">Barrel_Ooze</text>
</g>
<!-- Barrel_Ooze&#45;&gt;Potion_Poison -->
<g id="edge20" class="edge"><title>Barrel_Ooze&#45;&gt;Potion_Poison</title>
<path fill="none" stroke="black" d="M676.402,-348.207C666.82,-335.866 653.641,-318.894 642.828,-304.967"/>
<polygon fill="black" stroke="black" points="645.351,-302.51 636.454,-296.758 639.822,-306.803 645.351,-302.51"/>
<text text-anchor="middle" x="688.441" y="-318.8" font-family="Times New Roman,serif" font-size="14.00">Crafting 0</text>
</g>
<!-- Sinew -->
<g id="node21" class="node"><title>Sinew</title>
<ellipse fill="none" stroke="black" cx="99.4412" cy="-279" rx="32.4942" ry="18"/>
<text text-anchor="middle" x="99.4412" y="-275.3" font-family="Times New Roman,serif" font-size="14.00">Sinew</text>
</g>
<!-- Sinew&#45;&gt;Potion_Debuf_Dexterity -->
<g id="edge21" class="edge"><title>Sinew&#45;&gt;Potion_Debuf_Dexterity</title>
<path fill="none" stroke="black" d="M99.4412,-260.799C99.4412,-249.163 99.4412,-233.548 99.4412,-220.237"/>
<polygon fill="black" stroke="black" points="102.941,-220.175 99.4412,-210.175 95.9413,-220.175 102.941,-220.175"/>
<text text-anchor="middle" x="127.441" y="-231.8" font-family="Times New Roman,serif" font-size="14.00">Crafting 2</text>
</g>
<!-- Bone -->
<g id="node22" class="node"><title>Bone</title>
<ellipse fill="none" stroke="black" cx="931.441" cy="-366" rx="29.795" ry="18"/>
<text text-anchor="middle" x="931.441" y="-362.3" font-family="Times New Roman,serif" font-size="14.00">Bone</text>
</g>
<!-- Bone&#45;&gt;Pouch_Dust_Bone -->
<g id="edge22" class="edge"><title>Bone&#45;&gt;Pouch_Dust_Bone</title>
<path fill="none" stroke="black" d="M925.591,-348.092C921.741,-338.061 916.173,-325.329 909.441,-315 907.115,-311.43 904.421,-307.874 901.604,-304.471"/>
<polygon fill="black" stroke="black" points="904.155,-302.071 894.921,-296.875 898.899,-306.695 904.155,-302.071"/>
<text text-anchor="middle" x="946.441" y="-318.8" font-family="Times New Roman,serif" font-size="14.00">Crafting 0</text>
</g>
<!-- Potion_Debuf_Constitutio -->
<g id="node23" class="node"><title>Potion_Debuf_Constitutio</title>
<ellipse fill="none" stroke="black" cx="1435.44" cy="-192" rx="106.681" ry="18"/>
<text text-anchor="middle" x="1435.44" y="-188.3" font-family="Times New Roman,serif" font-size="14.00">Potion_Debuf_Constitutio</text>
</g>
<!-- Potion_Debuf_Constitutio&#45;&gt;Potion_Debuf_All -->
<g id="edge23" class="edge"><title>Potion_Debuf_Constitutio&#45;&gt;Potion_Debuf_All</title>
<path fill="none" stroke="black" d="M1362.54,-178.802C1299.76,-168.403 1206.71,-153.241 1125.44,-141 1066.86,-132.175 1000.43,-122.911 950.781,-116.132"/>
<polygon fill="black" stroke="black" points="951.148,-112.649 940.767,-114.767 950.202,-119.585 951.148,-112.649"/>
<text text-anchor="middle" x="1247.44" y="-144.8" font-family="Times New Roman,serif" font-size="14.00">Crafting 3</text>
</g>
<!-- Arrow_KO&#45;&gt;Arrow_Debuff_All -->
<g id="edge24" class="edge"><title>Arrow_KO&#45;&gt;Arrow_Debuff_All</title>
<path fill="none" stroke="black" d="M1576.87,-92.1811C1531.92,-77.6534 1455.28,-52.8843 1403.77,-36.2354"/>
<polygon fill="black" stroke="black" points="1404.73,-32.8675 1394.14,-33.1225 1402.58,-39.5282 1404.73,-32.8675"/>
<text text-anchor="middle" x="1526.44" y="-57.8" font-family="Times New Roman,serif" font-size="14.00">Crafting 3</text>
</g>
<!-- Potion_Debuf_Perception&#45;&gt;Potion_Debuf_All -->
<g id="edge25" class="edge"><title>Potion_Debuf_Perception&#45;&gt;Potion_Debuf_All</title>
<path fill="none" stroke="black" d="M970.409,-174.409C952.099,-161.22 926.315,-142.646 906.233,-128.181"/>
<polygon fill="black" stroke="black" points="908.174,-125.265 898.014,-122.26 904.082,-130.945 908.174,-125.265"/>
<text text-anchor="middle" x="970.441" y="-144.8" font-family="Times New Roman,serif" font-size="14.00">Crafting 3</text>
</g>
<!-- ArrowShaft&#45;&gt;Arrow_KO -->
<g id="edge26" class="edge"><title>ArrowShaft&#45;&gt;Arrow_KO</title>
<path fill="none" stroke="black" d="M1613.44,-173.799C1613.44,-162.163 1613.44,-146.548 1613.44,-133.237"/>
<polygon fill="black" stroke="black" points="1616.94,-133.175 1613.44,-123.175 1609.94,-133.175 1616.94,-133.175"/>
<text text-anchor="middle" x="1641.44" y="-144.8" font-family="Times New Roman,serif" font-size="14.00">Crafting 1</text>
</g>
<!-- Potion_Poison&#45;&gt;Potion_Debuf_Intelligence -->
<g id="edge29" class="edge"><title>Potion_Poison&#45;&gt;Potion_Debuf_Intelligence</title>
<path fill="none" stroke="black" d="M585.684,-264.329C571.411,-258.537 555.283,-251.219 541.441,-243 532.19,-237.507 532.258,-232.403 522.441,-228 511.882,-223.264 459.129,-214.042 410.732,-206.254"/>
<polygon fill="black" stroke="black" points="411.233,-202.789 400.806,-204.666 410.128,-209.701 411.233,-202.789"/>
<text text-anchor="middle" x="569.441" y="-231.8" font-family="Times New Roman,serif" font-size="14.00">Crafting 2</text>
</g>
<!-- Potion_Poison&#45;&gt;Potion_Debuf_Dexterity -->
<g id="edge31" class="edge"><title>Potion_Poison&#45;&gt;Potion_Debuf_Dexterity</title>
<path fill="none" stroke="black" d="M576.615,-266.469C567.629,-264.476 558.27,-262.55 549.441,-261 484.612,-249.616 466.492,-258.162 402.441,-243 383.153,-238.434 379.739,-232.527 360.441,-228 294.212,-212.462 275.838,-219.243 208.441,-210 199.523,-208.777 190.205,-207.43 180.936,-206.046"/>
<polygon fill="black" stroke="black" points="181.328,-202.565 170.917,-204.533 180.283,-209.487 181.328,-202.565"/>
<text text-anchor="middle" x="430.441" y="-231.8" font-family="Times New Roman,serif" font-size="14.00">Crafting 2</text>
</g>
<!-- Potion_Poison&#45;&gt;Potion_Debuf_Constitution -->
<g id="edge32" class="edge"><title>Potion_Poison&#45;&gt;Potion_Debuf_Constitution</title>
<path fill="none" stroke="black" d="M648.517,-262.211C669.613,-248.929 700.005,-229.793 723.488,-215.007"/>
<polygon fill="black" stroke="black" points="725.519,-217.865 732.116,-209.575 721.789,-211.941 725.519,-217.865"/>
<text text-anchor="middle" x="727.441" y="-231.8" font-family="Times New Roman,serif" font-size="14.00">Crafting 2</text>
</g>
<!-- Potion_Poison&#45;&gt;Potion_Debuf_Speed -->
<g id="edge27" class="edge"><title>Potion_Poison&#45;&gt;Potion_Debuf_Speed</title>
<path fill="none" stroke="black" d="M618.87,-260.704C615.429,-250.284 609.842,-237.281 601.441,-228 596.594,-222.645 590.729,-217.911 584.563,-213.793"/>
<polygon fill="black" stroke="black" points="586.39,-210.808 576.037,-208.56 582.729,-216.774 586.39,-210.808"/>
<text text-anchor="middle" x="639.441" y="-231.8" font-family="Times New Roman,serif" font-size="14.00">Crafting 2</text>
</g>
<!-- Potion_Poison&#45;&gt;Potion_Debuf_Strength -->
<g id="edge28" class="edge"><title>Potion_Poison&#45;&gt;Potion_Debuf_Strength</title>
<path fill="none" stroke="black" d="M683.084,-271.825C761.495,-263.549 891.87,-249.185 913.441,-243 928.54,-238.671 930.321,-232.253 945.441,-228 1015.6,-208.267 1036.21,-219.774 1108.44,-210 1117.1,-208.829 1126.14,-207.517 1135.13,-206.154"/>
<polygon fill="black" stroke="black" points="1135.88,-209.579 1145.24,-204.6 1134.82,-202.661 1135.88,-209.579"/>
<text text-anchor="middle" x="973.441" y="-231.8" font-family="Times New Roman,serif" font-size="14.00">Crafting 2</text>
</g>
<!-- Potion_Poison&#45;&gt;Potion_Debuf_Perception -->
<g id="edge30" class="edge"><title>Potion_Poison&#45;&gt;Potion_Debuf_Perception</title>
<path fill="none" stroke="black" d="M678.24,-269.313C703.801,-263.921 734.101,-255.558 759.441,-243 769.081,-238.223 768.595,-232.336 778.441,-228 784.573,-225.3 849.824,-214.86 906.848,-206.079"/>
<polygon fill="black" stroke="black" points="907.663,-209.495 917.016,-204.518 906.601,-202.576 907.663,-209.495"/>
<text text-anchor="middle" x="806.441" y="-231.8" font-family="Times New Roman,serif" font-size="14.00">Crafting 2</text>
</g>
<!-- MortarPestle -->
<g id="node28" class="node"><title>MortarPestle</title>
<ellipse fill="none" stroke="black" cx="1036.44" cy="-366" rx="57.3905" ry="18"/>
<text text-anchor="middle" x="1036.44" y="-362.3" font-family="Times New Roman,serif" font-size="14.00">MortarPestle</text>
</g>
<!-- MortarPestle&#45;&gt;Pouch_Dust_Bone -->
<g id="edge33" class="edge"><title>MortarPestle&#45;&gt;Pouch_Dust_Bone</title>
<path fill="none" stroke="black" d="M1020.48,-348.289C1009.5,-337.571 994.109,-324.023 978.441,-315 965.636,-307.625 951.026,-301.452 936.972,-296.447"/>
<polygon fill="black" stroke="black" points="937.955,-293.084 927.36,-293.168 935.694,-299.709 937.955,-293.084"/>
<text text-anchor="middle" x="1027.44" y="-318.8" font-family="Times New Roman,serif" font-size="14.00">Crafting 0</text>
</g>
</g>
</svg>
