<?xml version="1.0" encoding="UTF-8" standalone="no"?>
<!DOCTYPE svg PUBLIC "-//W3C//DTD SVG 1.1//EN"
 "http://www.w3.org/Graphics/SVG/1.1/DTD/svg11.dtd">
<!-- Generated by graphviz version 2.38.0 (20140413.2041)
 -->
<!-- Title: G Pages: 1 -->
<svg width="779pt" height="305pt"
 viewBox="0.00 0.00 779.19 305.00" xmlns="http://www.w3.org/2000/svg" xmlns:xlink="http://www.w3.org/1999/xlink">
<g id="graph0" class="graph" transform="scale(1 1) rotate(0) translate(4 301)">
<title>G</title>
<polygon fill="white" stroke="none" points="-4,4 -4,-301 775.191,-301 775.191,4 -4,4"/>
<!-- ArrowHead_Antler -->
<g id="node1" class="node"><title>ArrowHead_Antler</title>
<ellipse fill="none" stroke="black" cx="659.694" cy="-192" rx="79.8859" ry="18"/>
<text text-anchor="middle" x="659.694" y="-188.3" font-family="Times New Roman,serif" font-size="14.00">ArrowHead_Antler</text>
</g>
<!-- Arrow_KO -->
<g id="node5" class="node"><title>Arrow_KO</title>
<ellipse fill="none" stroke="black" cx="505.694" cy="-105" rx="51.9908" ry="18"/>
<text text-anchor="middle" x="505.694" y="-101.3" font-family="Times New Roman,serif" font-size="14.00">Arrow_KO</text>
</g>
<!-- ArrowHead_Antler&#45;&gt;Arrow_KO -->
<g id="edge2" class="edge"><title>ArrowHead_Antler&#45;&gt;Arrow_KO</title>
<path fill="none" stroke="black" d="M630.728,-175.012C605.287,-160.97 568.198,-140.499 541.021,-125.499"/>
<polygon fill="black" stroke="black" points="542.662,-122.407 532.216,-120.638 539.279,-128.535 542.662,-122.407"/>
<text text-anchor="middle" x="619.694" y="-144.8" font-family="Times New Roman,serif" font-size="14.00">Crafting 1</text>
</g>
<!-- Potion_Empty -->
<g id="node2" class="node"><title>Potion_Empty</title>
<ellipse fill="none" stroke="black" cx="63.6943" cy="-279" rx="63.8893" ry="18"/>
<text text-anchor="middle" x="63.6943" y="-275.3" font-family="Times New Roman,serif" font-size="14.00">Potion_Empty</text>
</g>
<!-- Potion_Poison -->
<g id="node9" class="node"><title>Potion_Poison</title>
<ellipse fill="none" stroke="black" cx="269.694" cy="-192" rx="64.9885" ry="18"/>
<text text-anchor="middle" x="269.694" y="-188.3" font-family="Times New Roman,serif" font-size="14.00">Potion_Poison</text>
</g>
<!-- Potion_Empty&#45;&gt;Potion_Poison -->
<g id="edge3" class="edge"><title>Potion_Empty&#45;&gt;Potion_Poison</title>
<path fill="none" stroke="black" d="M94.0934,-263.029C115.557,-252.68 145.112,-238.874 171.694,-228 187.342,-221.599 204.645,-215.201 220.301,-209.659"/>
<polygon fill="black" stroke="black" points="221.529,-212.938 229.808,-206.327 219.213,-206.332 221.529,-212.938"/>
<text text-anchor="middle" x="199.694" y="-231.8" font-family="Times New Roman,serif" font-size="14.00">Crafting 0</text>
</g>
<!-- Sinew -->
<g id="node3" class="node"><title>Sinew</title>
<ellipse fill="none" stroke="black" cx="154.694" cy="-192" rx="32.4942" ry="18"/>
<text text-anchor="middle" x="154.694" y="-188.3" font-family="Times New Roman,serif" font-size="14.00">Sinew</text>
</g>
<!-- Potion_Debuf_Dexterity -->
<g id="node6" class="node"><title>Potion_Debuf_Dexterity</title>
<ellipse fill="none" stroke="black" cx="269.694" cy="-105" rx="99.3824" ry="18"/>
<text text-anchor="middle" x="269.694" y="-101.3" font-family="Times New Roman,serif" font-size="14.00">Potion_Debuf_Dexterity</text>
</g>
<!-- Sinew&#45;&gt;Potion_Debuf_Dexterity -->
<g id="edge11" class="edge"><title>Sinew&#45;&gt;Potion_Debuf_Dexterity</title>
<path fill="none" stroke="black" d="M169.826,-175.638C180.475,-165.24 195.336,-151.534 209.694,-141 216.121,-136.285 223.228,-131.672 230.237,-127.422"/>
<polygon fill="black" stroke="black" points="232.167,-130.348 239.003,-122.253 228.611,-124.318 232.167,-130.348"/>
<text text-anchor="middle" x="237.694" y="-144.8" font-family="Times New Roman,serif" font-size="14.00">Crafting 2</text>
</g>
<!-- Arrow_Debuff_Dexterity -->
<g id="node4" class="node"><title>Arrow_Debuff_Dexterity</title>
<ellipse fill="none" stroke="black" cx="406.694" cy="-18" rx="102.082" ry="18"/>
<text text-anchor="middle" x="406.694" y="-14.3" font-family="Times New Roman,serif" font-size="14.00">Arrow_Debuff_Dexterity</text>
</g>
<!-- Arrow_KO&#45;&gt;Arrow_Debuff_Dexterity -->
<g id="edge4" class="edge"><title>Arrow_KO&#45;&gt;Arrow_Debuff_Dexterity</title>
<path fill="none" stroke="black" d="M487.073,-88.0122C472.151,-75.2005 450.996,-57.0371 434.135,-42.5598"/>
<polygon fill="black" stroke="black" points="436.115,-39.6473 426.248,-35.7885 431.555,-44.9583 436.115,-39.6473"/>
<text text-anchor="middle" x="490.694" y="-57.8" font-family="Times New Roman,serif" font-size="14.00">Crafting 2</text>
</g>
<!-- Potion_Debuf_Dexterity&#45;&gt;Arrow_Debuff_Dexterity -->
<g id="edge5" class="edge"><title>Potion_Debuf_Dexterity&#45;&gt;Arrow_Debuff_Dexterity</title>
<path fill="none" stroke="black" d="M296.109,-87.6111C317.483,-74.3502 347.781,-55.5518 371.261,-40.9842"/>
<polygon fill="black" stroke="black" points="373.241,-43.8748 379.893,-35.6286 369.55,-37.9266 373.241,-43.8748"/>
<text text-anchor="middle" x="374.694" y="-57.8" font-family="Times New Roman,serif" font-size="14.00">Crafting 2</text>
</g>
<!-- Barrel_Ooze -->
<g id="node7" class="node"><title>Barrel_Ooze</title>
<ellipse fill="none" stroke="black" cx="201.694" cy="-279" rx="56.59" ry="18"/>
<text text-anchor="middle" x="201.694" y="-275.3" font-family="Times New Roman,serif" font-size="14.00">Barrel_Ooze</text>
</g>
<!-- Barrel_Ooze&#45;&gt;Potion_Poison -->
<g id="edge6" class="edge"><title>Barrel_Ooze&#45;&gt;Potion_Poison</title>
<path fill="none" stroke="black" d="M215.129,-261.207C225.094,-248.75 238.836,-231.573 250.035,-217.574"/>
<polygon fill="black" stroke="black" points="252.774,-219.754 256.288,-209.758 247.308,-215.381 252.774,-219.754"/>
<text text-anchor="middle" x="268.694" y="-231.8" font-family="Times New Roman,serif" font-size="14.00">Crafting 0</text>
</g>
<!-- ArrowShaft -->
<g id="node8" class="node"><title>ArrowShaft</title>
<ellipse fill="none" stroke="black" cx="505.694" cy="-192" rx="53.0913" ry="18"/>
<text text-anchor="middle" x="505.694" y="-188.3" font-family="Times New Roman,serif" font-size="14.00">ArrowShaft</text>
</g>
<!-- ArrowShaft&#45;&gt;Arrow_KO -->
<g id="edge7" class="edge"><title>ArrowShaft&#45;&gt;Arrow_KO</title>
<path fill="none" stroke="black" d="M505.694,-173.799C505.694,-162.163 505.694,-146.548 505.694,-133.237"/>
<polygon fill="black" stroke="black" points="509.194,-133.175 505.694,-123.175 502.194,-133.175 509.194,-133.175"/>
<text text-anchor="middle" x="533.694" y="-144.8" font-family="Times New Roman,serif" font-size="14.00">Crafting 1</text>
</g>
<!-- Potion_Poison&#45;&gt;Potion_Debuf_Dexterity -->
<g id="edge8" class="edge"><title>Potion_Poison&#45;&gt;Potion_Debuf_Dexterity</title>
<path fill="none" stroke="black" d="M269.694,-173.799C269.694,-162.163 269.694,-146.548 269.694,-133.237"/>
<polygon fill="black" stroke="black" points="273.194,-133.175 269.694,-123.175 266.194,-133.175 273.194,-133.175"/>
<text text-anchor="middle" x="297.694" y="-144.8" font-family="Times New Roman,serif" font-size="14.00">Crafting 2</text>
</g>
<!-- Branch -->
<g id="node10" class="node"><title>Branch</title>
<ellipse fill="none" stroke="black" cx="501.694" cy="-279" rx="36.2938" ry="18"/>
<text text-anchor="middle" x="501.694" y="-275.3" font-family="Times New Roman,serif" font-size="14.00">Branch</text>
</g>
<!-- Branch&#45;&gt;ArrowShaft -->
<g id="edge9" class="edge"><title>Branch&#45;&gt;ArrowShaft</title>
<path fill="none" stroke="black" d="M501.76,-260.866C501.866,-251.208 502.118,-238.924 502.694,-228 502.829,-225.442 503.001,-222.781 503.193,-220.121"/>
<polygon fill="black" stroke="black" points="506.688,-220.324 504.005,-210.074 499.711,-219.76 506.688,-220.324"/>
<text text-anchor="middle" x="530.694" y="-231.8" font-family="Times New Roman,serif" font-size="14.00">Crafting 0</text>
</g>
<!-- Antler -->
<g id="node11" class="node"><title>Antler</title>
<ellipse fill="none" stroke="black" cx="738.694" cy="-279" rx="32.4942" ry="18"/>
<text text-anchor="middle" x="738.694" y="-275.3" font-family="Times New Roman,serif" font-size="14.00">Antler</text>
</g>
<!-- Antler&#45;&gt;ArrowHead_Antler -->
<g id="edge10" class="edge"><title>Antler&#45;&gt;ArrowHead_Antler</title>
<path fill="none" stroke="black" d="M728.657,-261.863C721.928,-251.641 712.525,-238.431 702.694,-228 698.816,-223.885 694.453,-219.815 690.032,-215.987"/>
<polygon fill="black" stroke="black" points="692.032,-213.098 682.104,-209.398 687.558,-218.482 692.032,-213.098"/>
<text text-anchor="middle" x="742.694" y="-231.8" font-family="Times New Roman,serif" font-size="14.00">Crafting 1</text>
</g>
<!-- Herb_Mushroom_C -->
<g id="node12" class="node"><title>Herb_Mushroom_C</title>
<ellipse fill="none" stroke="black" cx="361.694" cy="-279" rx="85.2851" ry="18"/>
<text text-anchor="middle" x="361.694" y="-275.3" font-family="Times New Roman,serif" font-size="14.00">Herb_Mushroom_C</text>
</g>
<!-- Herb_Mushroom_C&#45;&gt;Potion_Poison -->
<g id="edge1" class="edge"><title>Herb_Mushroom_C&#45;&gt;Potion_Poison</title>
<path fill="none" stroke="black" d="M343.518,-261.207C329.694,-248.435 310.5,-230.701 295.149,-216.518"/>
<polygon fill="black" stroke="black" points="297.24,-213.685 287.52,-209.469 292.49,-218.826 297.24,-213.685"/>
<text text-anchor="middle" x="349.694" y="-231.8" font-family="Times New Roman,serif" font-size="14.00">Crafting 1</text>
</g>
<!-- Knife -->
<g id="node13" class="node"><title>Knife</title>
<ellipse fill="none" stroke="black" cx="622.694" cy="-279" rx="30.5947" ry="18"/>
<text text-anchor="middle" x="622.694" y="-275.3" font-family="Times New Roman,serif" font-size="14.00">Knife</text>
</g>
<!-- Knife&#45;&gt;ArrowHead_Antler -->
<g id="edge13" class="edge"><title>Knife&#45;&gt;ArrowHead_Antler</title>
<path fill="none" stroke="black" d="M630.004,-261.207C635.19,-249.293 642.255,-233.063 648.192,-219.424"/>
<polygon fill="black" stroke="black" points="651.491,-220.615 652.273,-210.049 645.072,-217.821 651.491,-220.615"/>
<text text-anchor="middle" x="670.694" y="-231.8" font-family="Times New Roman,serif" font-size="14.00">Crafting 1</text>
</g>
<!-- Knife&#45;&gt;ArrowShaft -->
<g id="edge12" class="edge"><title>Knife&#45;&gt;ArrowShaft</title>
<path fill="none" stroke="black" d="M605.114,-264.011C589.436,-251.583 567.623,-234.421 558.694,-228 552.148,-223.293 545.017,-218.419 538.17,-213.858"/>
<polygon fill="black" stroke="black" points="539.989,-210.865 529.713,-208.283 536.136,-216.709 539.989,-210.865"/>
<text text-anchor="middle" x="604.694" y="-231.8" font-family="Times New Roman,serif" font-size="14.00">Crafting 0</text>
</g>
</g>
</svg>
