<?xml version="1.0" encoding="UTF-8" standalone="no"?>
<!DOCTYPE svg PUBLIC "-//W3C//DTD SVG 1.1//EN"
 "http://www.w3.org/Graphics/SVG/1.1/DTD/svg11.dtd">
<!-- Generated by graphviz version 2.38.0 (20140413.2041)
 -->
<!-- Title: G Pages: 1 -->
<svg width="704pt" height="479pt"
 viewBox="0.00 0.00 703.89 479.00" xmlns="http://www.w3.org/2000/svg" xmlns:xlink="http://www.w3.org/1999/xlink">
<g id="graph0" class="graph" transform="scale(1 1) rotate(0) translate(4 475)">
<title>G</title>
<polygon fill="white" stroke="none" points="-4,4 -4,-475 699.889,-475 699.889,4 -4,4"/>
<!-- Arrow_Cloud_Steam -->
<g id="node1" class="node"><title>Arrow_Cloud_Steam</title>
<ellipse fill="none" stroke="black" cx="161.397" cy="-18" rx="89.0842" ry="18"/>
<text text-anchor="middle" x="161.397" y="-14.3" font-family="Times New Roman,serif" font-size="14.00">Arrow_Cloud_Steam</text>
</g>
<!-- Potion_Armor_Boost -->
<g id="node2" class="node"><title>Potion_Armor_Boost</title>
<ellipse fill="none" stroke="black" cx="418.397" cy="-279" rx="90.1842" ry="18"/>
<text text-anchor="middle" x="418.397" y="-275.3" font-family="Times New Roman,serif" font-size="14.00">Potion_Armor_Boost</text>
</g>
<!-- Potion_Water_Res -->
<g id="node6" class="node"><title>Potion_Water_Res</title>
<ellipse fill="none" stroke="black" cx="419.397" cy="-192" rx="80.6858" ry="18"/>
<text text-anchor="middle" x="419.397" y="-188.3" font-family="Times New Roman,serif" font-size="14.00">Potion_Water_Res</text>
</g>
<!-- Potion_Armor_Boost&#45;&gt;Potion_Water_Res -->
<g id="edge1" class="edge"><title>Potion_Armor_Boost&#45;&gt;Potion_Water_Res</title>
<path fill="none" stroke="black" d="M418.599,-260.799C418.736,-249.163 418.92,-233.548 419.076,-220.237"/>
<polygon fill="black" stroke="black" points="422.577,-220.216 419.195,-210.175 415.577,-220.134 422.577,-220.216"/>
<text text-anchor="middle" x="447.397" y="-231.8" font-family="Times New Roman,serif" font-size="14.00">Crafting 2</text>
</g>
<!-- ArrowHead -->
<g id="node3" class="node"><title>ArrowHead</title>
<ellipse fill="none" stroke="black" cx="267.397" cy="-192" rx="53.0913" ry="18"/>
<text text-anchor="middle" x="267.397" y="-188.3" font-family="Times New Roman,serif" font-size="14.00">ArrowHead</text>
</g>
<!-- ArrowHead_Steam -->
<g id="node14" class="node"><title>ArrowHead_Steam</title>
<ellipse fill="none" stroke="black" cx="269.397" cy="-105" rx="80.6858" ry="18"/>
<text text-anchor="middle" x="269.397" y="-101.3" font-family="Times New Roman,serif" font-size="14.00">ArrowHead_Steam</text>
</g>
<!-- ArrowHead&#45;&gt;ArrowHead_Steam -->
<g id="edge2" class="edge"><title>ArrowHead&#45;&gt;ArrowHead_Steam</title>
<path fill="none" stroke="black" d="M267.802,-173.799C268.075,-162.163 268.443,-146.548 268.756,-133.237"/>
<polygon fill="black" stroke="black" points="272.256,-133.255 268.993,-123.175 265.258,-133.09 272.256,-133.255"/>
<text text-anchor="middle" x="297.397" y="-144.8" font-family="Times New Roman,serif" font-size="14.00">Crafting 2</text>
</g>
<!-- Potion_Empty -->
<g id="node4" class="node"><title>Potion_Empty</title>
<ellipse fill="none" stroke="black" cx="438.397" cy="-453" rx="63.8893" ry="18"/>
<text text-anchor="middle" x="438.397" y="-449.3" font-family="Times New Roman,serif" font-size="14.00">Potion_Empty</text>
</g>
<!-- Minor_Healing_Potion -->
<g id="node9" class="node"><title>Minor_Healing_Potion</title>
<ellipse fill="none" stroke="black" cx="516.397" cy="-366" rx="92.8835" ry="18"/>
<text text-anchor="middle" x="516.397" y="-362.3" font-family="Times New Roman,serif" font-size="14.00">Minor_Healing_Potion</text>
</g>
<!-- Potion_Empty&#45;&gt;Minor_Healing_Potion -->
<g id="edge3" class="edge"><title>Potion_Empty&#45;&gt;Minor_Healing_Potion</title>
<path fill="none" stroke="black" d="M453.807,-435.207C465.345,-422.633 481.295,-405.252 494.206,-391.182"/>
<polygon fill="black" stroke="black" points="496.836,-393.493 501.018,-383.758 491.679,-388.76 496.836,-393.493"/>
<text text-anchor="middle" x="510.397" y="-405.8" font-family="Times New Roman,serif" font-size="14.00">Crafting 1</text>
</g>
<!-- Herb_Whisperwood -->
<g id="node5" class="node"><title>Herb_Whisperwood</title>
<ellipse fill="none" stroke="black" cx="320.397" cy="-366" rx="85.2851" ry="18"/>
<text text-anchor="middle" x="320.397" y="-362.3" font-family="Times New Roman,serif" font-size="14.00">Herb_Whisperwood</text>
</g>
<!-- Herb_Whisperwood&#45;&gt;Potion_Armor_Boost -->
<g id="edge4" class="edge"><title>Herb_Whisperwood&#45;&gt;Potion_Armor_Boost</title>
<path fill="none" stroke="black" d="M339.758,-348.207C354.523,-335.401 375.039,-317.607 391.413,-303.404"/>
<polygon fill="black" stroke="black" points="393.814,-305.955 399.075,-296.758 389.228,-300.667 393.814,-305.955"/>
<text text-anchor="middle" x="403.397" y="-318.8" font-family="Times New Roman,serif" font-size="14.00">Crafting 2</text>
</g>
<!-- Potion_Water_Res&#45;&gt;ArrowHead_Steam -->
<g id="edge5" class="edge"><title>Potion_Water_Res&#45;&gt;ArrowHead_Steam</title>
<path fill="none" stroke="black" d="M391.183,-175.012C367.194,-161.418 332.572,-141.799 306.37,-126.951"/>
<polygon fill="black" stroke="black" points="307.91,-123.801 297.484,-121.916 304.459,-129.891 307.91,-123.801"/>
<text text-anchor="middle" x="381.397" y="-144.8" font-family="Times New Roman,serif" font-size="14.00">Crafting 2</text>
</g>
<!-- Tooth -->
<g id="node7" class="node"><title>Tooth</title>
<ellipse fill="none" stroke="black" cx="273.397" cy="-279" rx="33.2948" ry="18"/>
<text text-anchor="middle" x="273.397" y="-275.3" font-family="Times New Roman,serif" font-size="14.00">Tooth</text>
</g>
<!-- Tooth&#45;&gt;ArrowHead -->
<g id="edge6" class="edge"><title>Tooth&#45;&gt;ArrowHead</title>
<path fill="none" stroke="black" d="M272.183,-260.799C271.361,-249.163 270.259,-233.548 269.319,-220.237"/>
<polygon fill="black" stroke="black" points="272.805,-219.904 268.609,-210.175 265.822,-220.397 272.805,-219.904"/>
<text text-anchor="middle" x="299.397" y="-231.8" font-family="Times New Roman,serif" font-size="14.00">Crafting 1</text>
</g>
<!-- ArrowShaft -->
<g id="node8" class="node"><title>ArrowShaft</title>
<ellipse fill="none" stroke="black" cx="114.397" cy="-192" rx="53.0913" ry="18"/>
<text text-anchor="middle" x="114.397" y="-188.3" font-family="Times New Roman,serif" font-size="14.00">ArrowShaft</text>
</g>
<!-- ArrowShaft&#45;&gt;Arrow_Cloud_Steam -->
<g id="edge7" class="edge"><title>ArrowShaft&#45;&gt;Arrow_Cloud_Steam</title>
<path fill="none" stroke="black" d="M113.699,-173.646C113.351,-152.65 114.352,-116.452 123.397,-87 127.953,-72.1652 136.059,-56.9669 143.618,-44.7116"/>
<polygon fill="black" stroke="black" points="146.773,-46.2759 149.224,-35.9684 140.88,-42.4977 146.773,-46.2759"/>
<text text-anchor="middle" x="151.397" y="-101.3" font-family="Times New Roman,serif" font-size="14.00">Crafting 2</text>
</g>
<!-- Minor_Healing_Potion&#45;&gt;Potion_Armor_Boost -->
<g id="edge13" class="edge"><title>Minor_Healing_Potion&#45;&gt;Potion_Armor_Boost</title>
<path fill="none" stroke="black" d="M497.035,-348.207C482.27,-335.401 461.755,-317.607 445.381,-303.404"/>
<polygon fill="black" stroke="black" points="447.566,-300.667 437.718,-296.758 442.979,-305.955 447.566,-300.667"/>
<text text-anchor="middle" x="501.397" y="-318.8" font-family="Times New Roman,serif" font-size="14.00">Crafting 2</text>
</g>
<!-- Branch -->
<g id="node10" class="node"><title>Branch</title>
<ellipse fill="none" stroke="black" cx="36.3968" cy="-279" rx="36.2938" ry="18"/>
<text text-anchor="middle" x="36.3968" y="-275.3" font-family="Times New Roman,serif" font-size="14.00">Branch</text>
</g>
<!-- Branch&#45;&gt;ArrowShaft -->
<g id="edge10" class="edge"><title>Branch&#45;&gt;ArrowShaft</title>
<path fill="none" stroke="black" d="M38.6757,-260.738C40.7847,-250.332 44.8012,-237.33 52.3968,-228 57.7814,-221.386 64.7675,-215.795 72.1006,-211.155"/>
<polygon fill="black" stroke="black" points="73.8792,-214.17 80.7933,-206.142 70.382,-208.106 73.8792,-214.17"/>
<text text-anchor="middle" x="80.3968" y="-231.8" font-family="Times New Roman,serif" font-size="14.00">Crafting 0</text>
</g>
<!-- Herb_Mushroom_B -->
<g id="node11" class="node"><title>Herb_Mushroom_B</title>
<ellipse fill="none" stroke="black" cx="611.397" cy="-279" rx="84.485" ry="18"/>
<text text-anchor="middle" x="611.397" y="-275.3" font-family="Times New Roman,serif" font-size="14.00">Herb_Mushroom_B</text>
</g>
<!-- Herb_Mushroom_B&#45;&gt;Potion_Water_Res -->
<g id="edge11" class="edge"><title>Herb_Mushroom_B&#45;&gt;Potion_Water_Res</title>
<path fill="none" stroke="black" d="M576.181,-262.41C544.416,-248.347 497.568,-227.607 463.357,-212.462"/>
<polygon fill="black" stroke="black" points="464.627,-209.196 454.066,-208.348 461.793,-215.597 464.627,-209.196"/>
<text text-anchor="middle" x="554.397" y="-231.8" font-family="Times New Roman,serif" font-size="14.00">Crafting 2</text>
</g>
<!-- Herb_Mushroom -->
<g id="node12" class="node"><title>Herb_Mushroom</title>
<ellipse fill="none" stroke="black" cx="593.397" cy="-453" rx="73.387" ry="18"/>
<text text-anchor="middle" x="593.397" y="-449.3" font-family="Times New Roman,serif" font-size="14.00">Herb_Mushroom</text>
</g>
<!-- Herb_Mushroom&#45;&gt;Minor_Healing_Potion -->
<g id="edge12" class="edge"><title>Herb_Mushroom&#45;&gt;Minor_Healing_Potion</title>
<path fill="none" stroke="black" d="M578.184,-435.207C566.794,-422.633 551.049,-405.252 538.303,-391.182"/>
<polygon fill="black" stroke="black" points="540.886,-388.82 531.578,-383.758 535.698,-393.519 540.886,-388.82"/>
<text text-anchor="middle" x="587.397" y="-405.8" font-family="Times New Roman,serif" font-size="14.00">Crafting 1</text>
</g>
<!-- Knife -->
<g id="node13" class="node"><title>Knife</title>
<ellipse fill="none" stroke="black" cx="156.397" cy="-279" rx="30.5947" ry="18"/>
<text text-anchor="middle" x="156.397" y="-275.3" font-family="Times New Roman,serif" font-size="14.00">Knife</text>
</g>
<!-- Knife&#45;&gt;ArrowHead -->
<g id="edge9" class="edge"><title>Knife&#45;&gt;ArrowHead</title>
<path fill="none" stroke="black" d="M171.284,-262.714C181.754,-252.351 196.348,-238.654 210.397,-228 217.247,-222.805 224.902,-217.688 232.323,-213.038"/>
<polygon fill="black" stroke="black" points="234.158,-216.018 240.866,-207.817 230.508,-210.046 234.158,-216.018"/>
<text text-anchor="middle" x="238.397" y="-231.8" font-family="Times New Roman,serif" font-size="14.00">Crafting 1</text>
</g>
<!-- Knife&#45;&gt;ArrowShaft -->
<g id="edge8" class="edge"><title>Knife&#45;&gt;ArrowShaft</title>
<path fill="none" stroke="black" d="M136.058,-265.447C128.486,-259.625 120.695,-251.991 116.397,-243 113.048,-235.995 111.793,-227.787 111.579,-220.07"/>
<polygon fill="black" stroke="black" points="115.08,-220.094 111.833,-210.009 108.082,-219.918 115.08,-220.094"/>
<text text-anchor="middle" x="144.397" y="-231.8" font-family="Times New Roman,serif" font-size="14.00">Crafting 0</text>
</g>
<!-- ArrowHead_Steam&#45;&gt;Arrow_Cloud_Steam -->
<g id="edge14" class="edge"><title>ArrowHead_Steam&#45;&gt;Arrow_Cloud_Steam</title>
<path fill="none" stroke="black" d="M248.573,-87.6111C232.095,-74.6423 208.888,-56.3772 190.56,-41.9529"/>
<polygon fill="black" stroke="black" points="192.548,-39.0629 182.525,-35.6286 188.218,-44.5636 192.548,-39.0629"/>
<text text-anchor="middle" x="250.397" y="-57.8" font-family="Times New Roman,serif" font-size="14.00">Crafting 2</text>
</g>
</g>
</svg>
