<?xml version="1.0" encoding="UTF-8" standalone="no"?>
<!DOCTYPE svg PUBLIC "-//W3C//DTD SVG 1.1//EN"
 "http://www.w3.org/Graphics/SVG/1.1/DTD/svg11.dtd">
<!-- Generated by graphviz version 2.38.0 (20140413.2041)
 -->
<!-- Title: G Pages: 1 -->
<svg width="409pt" height="305pt"
 viewBox="0.00 0.00 409.29 305.00" xmlns="http://www.w3.org/2000/svg" xmlns:xlink="http://www.w3.org/1999/xlink">
<g id="graph0" class="graph" transform="scale(1 1) rotate(0) translate(4 301)">
<title>G</title>
<polygon fill="white" stroke="none" points="-4,4 -4,-301 405.294,-301 405.294,4 -4,4"/>
<!-- ArrowHead_Silver -->
<g id="node1" class="node"><title>ArrowHead_Silver</title>
<ellipse fill="none" stroke="black" cx="267.397" cy="-105" rx="78.7863" ry="18"/>
<text text-anchor="middle" x="267.397" y="-101.3" font-family="Times New Roman,serif" font-size="14.00">ArrowHead_Silver</text>
</g>
<!-- Arrow_Silver -->
<g id="node5" class="node"><title>Arrow_Silver</title>
<ellipse fill="none" stroke="black" cx="200.397" cy="-18" rx="59.5901" ry="18"/>
<text text-anchor="middle" x="200.397" y="-14.3" font-family="Times New Roman,serif" font-size="14.00">Arrow_Silver</text>
</g>
<!-- ArrowHead_Silver&#45;&gt;Arrow_Silver -->
<g id="edge1" class="edge"><title>ArrowHead_Silver&#45;&gt;Arrow_Silver</title>
<path fill="none" stroke="black" d="M254.16,-87.2067C244.433,-74.8663 231.054,-57.8941 220.077,-43.9675"/>
<polygon fill="black" stroke="black" points="222.546,-41.4453 213.606,-35.7584 217.048,-45.7786 222.546,-41.4453"/>
<text text-anchor="middle" x="266.397" y="-57.8" font-family="Times New Roman,serif" font-size="14.00">Crafting 2</text>
</g>
<!-- OreBar_A_Silver -->
<g id="node2" class="node"><title>OreBar_A_Silver</title>
<ellipse fill="none" stroke="black" cx="250.397" cy="-192" rx="73.387" ry="18"/>
<text text-anchor="middle" x="250.397" y="-188.3" font-family="Times New Roman,serif" font-size="14.00">OreBar_A_Silver</text>
</g>
<!-- OreBar_A_Silver&#45;&gt;ArrowHead_Silver -->
<g id="edge2" class="edge"><title>OreBar_A_Silver&#45;&gt;ArrowHead_Silver</title>
<path fill="none" stroke="black" d="M253.837,-173.799C256.164,-162.163 259.287,-146.548 261.949,-133.237"/>
<polygon fill="black" stroke="black" points="265.432,-133.668 263.962,-123.175 258.568,-132.295 265.432,-133.668"/>
<text text-anchor="middle" x="288.397" y="-144.8" font-family="Times New Roman,serif" font-size="14.00">Crafting 2</text>
</g>
<!-- Anvil -->
<g id="node3" class="node"><title>Anvil</title>
<ellipse fill="none" stroke="black" cx="371.397" cy="-192" rx="29.795" ry="18"/>
<text text-anchor="middle" x="371.397" y="-188.3" font-family="Times New Roman,serif" font-size="14.00">Anvil</text>
</g>
<!-- Anvil&#45;&gt;ArrowHead_Silver -->
<g id="edge3" class="edge"><title>Anvil&#45;&gt;ArrowHead_Silver</title>
<path fill="none" stroke="black" d="M357.363,-175.778C347.487,-165.443 333.707,-151.754 320.397,-141 314.865,-136.53 308.756,-132.091 302.712,-127.951"/>
<polygon fill="black" stroke="black" points="304.24,-124.763 293.978,-122.13 300.358,-130.588 304.24,-124.763"/>
<text text-anchor="middle" x="365.397" y="-144.8" font-family="Times New Roman,serif" font-size="14.00">Crafting 2</text>
</g>
<!-- Branch -->
<g id="node4" class="node"><title>Branch</title>
<ellipse fill="none" stroke="black" cx="36.3968" cy="-192" rx="36.2938" ry="18"/>
<text text-anchor="middle" x="36.3968" y="-188.3" font-family="Times New Roman,serif" font-size="14.00">Branch</text>
</g>
<!-- ArrowShaft -->
<g id="node6" class="node"><title>ArrowShaft</title>
<ellipse fill="none" stroke="black" cx="117.397" cy="-105" rx="53.0913" ry="18"/>
<text text-anchor="middle" x="117.397" y="-101.3" font-family="Times New Roman,serif" font-size="14.00">ArrowShaft</text>
</g>
<!-- Branch&#45;&gt;ArrowShaft -->
<g id="edge5" class="edge"><title>Branch&#45;&gt;ArrowShaft</title>
<path fill="none" stroke="black" d="M41.4412,-173.79C45.1384,-163.402 50.9907,-150.403 59.3968,-141 64.7428,-135.02 71.3571,-129.742 78.1844,-125.217"/>
<polygon fill="black" stroke="black" points="80.1728,-128.103 86.8667,-119.891 76.5125,-122.136 80.1728,-128.103"/>
<text text-anchor="middle" x="87.3968" y="-144.8" font-family="Times New Roman,serif" font-size="14.00">Crafting 0</text>
</g>
<!-- ArrowShaft&#45;&gt;Arrow_Silver -->
<g id="edge4" class="edge"><title>ArrowShaft&#45;&gt;Arrow_Silver</title>
<path fill="none" stroke="black" d="M133.4,-87.6111C145.721,-74.9928 162.939,-57.3607 176.834,-43.1307"/>
<polygon fill="black" stroke="black" points="179.677,-45.2286 184.159,-35.6286 174.669,-40.3381 179.677,-45.2286"/>
<text text-anchor="middle" x="192.397" y="-57.8" font-family="Times New Roman,serif" font-size="14.00">Crafting 2</text>
</g>
<!-- Oven -->
<g id="node7" class="node"><title>Oven</title>
<ellipse fill="none" stroke="black" cx="195.397" cy="-279" rx="30.5947" ry="18"/>
<text text-anchor="middle" x="195.397" y="-275.3" font-family="Times New Roman,serif" font-size="14.00">Oven</text>
</g>
<!-- Oven&#45;&gt;OreBar_A_Silver -->
<g id="edge7" class="edge"><title>Oven&#45;&gt;OreBar_A_Silver</title>
<path fill="none" stroke="black" d="M200.3,-260.96C203.653,-250.882 208.706,-238.147 215.397,-228 217.913,-224.184 220.894,-220.443 224.039,-216.911"/>
<polygon fill="black" stroke="black" points="226.685,-219.208 231.067,-209.562 221.626,-214.37 226.685,-219.208"/>
<text text-anchor="middle" x="243.397" y="-231.8" font-family="Times New Roman,serif" font-size="14.00">Crafting 2</text>
</g>
<!-- Ore_A_Silver -->
<g id="node8" class="node"><title>Ore_A_Silver</title>
<ellipse fill="none" stroke="black" cx="305.397" cy="-279" rx="61.1893" ry="18"/>
<text text-anchor="middle" x="305.397" y="-275.3" font-family="Times New Roman,serif" font-size="14.00">Ore_A_Silver</text>
</g>
<!-- Ore_A_Silver&#45;&gt;OreBar_A_Silver -->
<g id="edge6" class="edge"><title>Ore_A_Silver&#45;&gt;OreBar_A_Silver</title>
<path fill="none" stroke="black" d="M294.531,-261.207C286.672,-249.062 275.911,-232.431 266.983,-218.633"/>
<polygon fill="black" stroke="black" points="269.8,-216.544 261.429,-210.049 263.923,-220.346 269.8,-216.544"/>
<text text-anchor="middle" x="309.397" y="-231.8" font-family="Times New Roman,serif" font-size="14.00">Crafting 2</text>
</g>
<!-- Knife -->
<g id="node9" class="node"><title>Knife</title>
<ellipse fill="none" stroke="black" cx="121.397" cy="-192" rx="30.5947" ry="18"/>
<text text-anchor="middle" x="121.397" y="-188.3" font-family="Times New Roman,serif" font-size="14.00">Knife</text>
</g>
<!-- Knife&#45;&gt;ArrowShaft -->
<g id="edge8" class="edge"><title>Knife&#45;&gt;ArrowShaft</title>
<path fill="none" stroke="black" d="M120.587,-173.799C120.04,-162.163 119.305,-146.548 118.679,-133.237"/>
<polygon fill="black" stroke="black" points="122.171,-133 118.205,-123.175 115.179,-133.329 122.171,-133"/>
<text text-anchor="middle" x="148.397" y="-144.8" font-family="Times New Roman,serif" font-size="14.00">Crafting 0</text>
</g>
</g>
</svg>
