<?xml version="1.0" encoding="UTF-8" standalone="no"?>
<!DOCTYPE svg PUBLIC "-//W3C//DTD SVG 1.1//EN"
 "http://www.w3.org/Graphics/SVG/1.1/DTD/svg11.dtd">
<!-- Generated by graphviz version 2.38.0 (20140413.2041)
 -->
<!-- Title: G Pages: 1 -->
<svg width="1127pt" height="305pt"
 viewBox="0.00 0.00 1126.90 305.00" xmlns="http://www.w3.org/2000/svg" xmlns:xlink="http://www.w3.org/1999/xlink">
<g id="graph0" class="graph" transform="scale(1 1) rotate(0) translate(4 301)">
<title>G</title>
<polygon fill="white" stroke="none" points="-4,4 -4,-301 1122.9,-301 1122.9,4 -4,4"/>
<!-- ArrowHead_Antler -->
<g id="node1" class="node"><title>ArrowHead_Antler</title>
<ellipse fill="none" stroke="black" cx="1006.9" cy="-192" rx="79.8859" ry="18"/>
<text text-anchor="middle" x="1006.9" y="-188.3" font-family="Times New Roman,serif" font-size="14.00">ArrowHead_Antler</text>
</g>
<!-- Arrow_KO -->
<g id="node6" class="node"><title>Arrow_KO</title>
<ellipse fill="none" stroke="black" cx="851.897" cy="-105" rx="51.9908" ry="18"/>
<text text-anchor="middle" x="851.897" y="-101.3" font-family="Times New Roman,serif" font-size="14.00">Arrow_KO</text>
</g>
<!-- ArrowHead_Antler&#45;&gt;Arrow_KO -->
<g id="edge1" class="edge"><title>ArrowHead_Antler&#45;&gt;Arrow_KO</title>
<path fill="none" stroke="black" d="M977.743,-175.012C952.137,-160.97 914.807,-140.499 887.454,-125.499"/>
<polygon fill="black" stroke="black" points="889.042,-122.378 878.591,-120.638 885.676,-128.516 889.042,-122.378"/>
<text text-anchor="middle" x="966.897" y="-144.8" font-family="Times New Roman,serif" font-size="14.00">Crafting 1</text>
</g>
<!-- Potion_Empty -->
<g id="node2" class="node"><title>Potion_Empty</title>
<ellipse fill="none" stroke="black" cx="410.897" cy="-279" rx="63.8893" ry="18"/>
<text text-anchor="middle" x="410.897" y="-275.3" font-family="Times New Roman,serif" font-size="14.00">Potion_Empty</text>
</g>
<!-- Potion_Poison -->
<g id="node7" class="node"><title>Potion_Poison</title>
<ellipse fill="none" stroke="black" cx="548.897" cy="-192" rx="64.9885" ry="18"/>
<text text-anchor="middle" x="548.897" y="-188.3" font-family="Times New Roman,serif" font-size="14.00">Potion_Poison</text>
</g>
<!-- Potion_Empty&#45;&gt;Potion_Poison -->
<g id="edge3" class="edge"><title>Potion_Empty&#45;&gt;Potion_Poison</title>
<path fill="none" stroke="black" d="M434.975,-262.196C450.308,-252.224 470.649,-239.165 488.897,-228 496.67,-223.244 505.082,-218.247 513.078,-213.565"/>
<polygon fill="black" stroke="black" points="514.994,-216.499 521.873,-208.442 511.471,-210.45 514.994,-216.499"/>
<text text-anchor="middle" x="516.897" y="-231.8" font-family="Times New Roman,serif" font-size="14.00">Crafting 0</text>
</g>
<!-- Bone -->
<g id="node3" class="node"><title>Bone</title>
<ellipse fill="none" stroke="black" cx="29.8973" cy="-279" rx="29.795" ry="18"/>
<text text-anchor="middle" x="29.8973" y="-275.3" font-family="Times New Roman,serif" font-size="14.00">Bone</text>
</g>
<!-- Pouch_Dust_Bone -->
<g id="node4" class="node"><title>Pouch_Dust_Bone</title>
<ellipse fill="none" stroke="black" cx="202.897" cy="-192" rx="79.8859" ry="18"/>
<text text-anchor="middle" x="202.897" y="-188.3" font-family="Times New Roman,serif" font-size="14.00">Pouch_Dust_Bone</text>
</g>
<!-- Bone&#45;&gt;Pouch_Dust_Bone -->
<g id="edge15" class="edge"><title>Bone&#45;&gt;Pouch_Dust_Bone</title>
<path fill="none" stroke="black" d="M47.0945,-264.039C61.1747,-253.119 81.9548,-238.137 101.897,-228 115.671,-220.998 131.17,-214.849 145.813,-209.738"/>
<polygon fill="black" stroke="black" points="146.937,-213.052 155.286,-206.53 144.692,-206.422 146.937,-213.052"/>
<text text-anchor="middle" x="129.897" y="-231.8" font-family="Times New Roman,serif" font-size="14.00">Crafting 0</text>
</g>
<!-- Potion_Debuf_Constitution -->
<g id="node16" class="node"><title>Potion_Debuf_Constitution</title>
<ellipse fill="none" stroke="black" cx="548.897" cy="-105" rx="111.28" ry="18"/>
<text text-anchor="middle" x="548.897" y="-101.3" font-family="Times New Roman,serif" font-size="14.00">Potion_Debuf_Constitution</text>
</g>
<!-- Pouch_Dust_Bone&#45;&gt;Potion_Debuf_Constitution -->
<g id="edge2" class="edge"><title>Pouch_Dust_Bone&#45;&gt;Potion_Debuf_Constitution</title>
<path fill="none" stroke="black" d="M254.697,-178.275C314.768,-163.517 414.018,-139.135 480.414,-122.824"/>
<polygon fill="black" stroke="black" points="481.494,-126.163 490.37,-120.378 479.824,-119.365 481.494,-126.163"/>
<text text-anchor="middle" x="424.897" y="-144.8" font-family="Times New Roman,serif" font-size="14.00">Crafting 2</text>
</g>
<!-- Arrow_Debuff_Constitution -->
<g id="node5" class="node"><title>Arrow_Debuff_Constitution</title>
<ellipse fill="none" stroke="black" cx="727.897" cy="-18" rx="113.98" ry="18"/>
<text text-anchor="middle" x="727.897" y="-14.3" font-family="Times New Roman,serif" font-size="14.00">Arrow_Debuff_Constitution</text>
</g>
<!-- Arrow_KO&#45;&gt;Arrow_Debuff_Constitution -->
<g id="edge4" class="edge"><title>Arrow_KO&#45;&gt;Arrow_Debuff_Constitution</title>
<path fill="none" stroke="black" d="M829.442,-88.6071C810.219,-75.4299 782.291,-56.2858 760.587,-41.4082"/>
<polygon fill="black" stroke="black" points="762.535,-38.5002 752.308,-35.733 758.577,-44.2739 762.535,-38.5002"/>
<text text-anchor="middle" x="825.897" y="-57.8" font-family="Times New Roman,serif" font-size="14.00">Crafting 2</text>
</g>
<!-- Potion_Poison&#45;&gt;Potion_Debuf_Constitution -->
<g id="edge9" class="edge"><title>Potion_Poison&#45;&gt;Potion_Debuf_Constitution</title>
<path fill="none" stroke="black" d="M548.897,-173.799C548.897,-162.163 548.897,-146.548 548.897,-133.237"/>
<polygon fill="black" stroke="black" points="552.397,-133.175 548.897,-123.175 545.397,-133.175 552.397,-133.175"/>
<text text-anchor="middle" x="576.897" y="-144.8" font-family="Times New Roman,serif" font-size="14.00">Crafting 2</text>
</g>
<!-- Barrel_Ooze -->
<g id="node8" class="node"><title>Barrel_Ooze</title>
<ellipse fill="none" stroke="black" cx="548.897" cy="-279" rx="56.59" ry="18"/>
<text text-anchor="middle" x="548.897" y="-275.3" font-family="Times New Roman,serif" font-size="14.00">Barrel_Ooze</text>
</g>
<!-- Barrel_Ooze&#45;&gt;Potion_Poison -->
<g id="edge7" class="edge"><title>Barrel_Ooze&#45;&gt;Potion_Poison</title>
<path fill="none" stroke="black" d="M548.897,-260.799C548.897,-249.163 548.897,-233.548 548.897,-220.237"/>
<polygon fill="black" stroke="black" points="552.397,-220.175 548.897,-210.175 545.397,-220.175 552.397,-220.175"/>
<text text-anchor="middle" x="576.897" y="-231.8" font-family="Times New Roman,serif" font-size="14.00">Crafting 0</text>
</g>
<!-- ArrowShaft -->
<g id="node9" class="node"><title>ArrowShaft</title>
<ellipse fill="none" stroke="black" cx="851.897" cy="-192" rx="53.0913" ry="18"/>
<text text-anchor="middle" x="851.897" y="-188.3" font-family="Times New Roman,serif" font-size="14.00">ArrowShaft</text>
</g>
<!-- ArrowShaft&#45;&gt;Arrow_KO -->
<g id="edge8" class="edge"><title>ArrowShaft&#45;&gt;Arrow_KO</title>
<path fill="none" stroke="black" d="M851.897,-173.799C851.897,-162.163 851.897,-146.548 851.897,-133.237"/>
<polygon fill="black" stroke="black" points="855.397,-133.175 851.897,-123.175 848.397,-133.175 855.397,-133.175"/>
<text text-anchor="middle" x="879.897" y="-144.8" font-family="Times New Roman,serif" font-size="14.00">Crafting 1</text>
</g>
<!-- MortarPestle -->
<g id="node10" class="node"><title>MortarPestle</title>
<ellipse fill="none" stroke="black" cx="134.897" cy="-279" rx="57.3905" ry="18"/>
<text text-anchor="middle" x="134.897" y="-275.3" font-family="Times New Roman,serif" font-size="14.00">MortarPestle</text>
</g>
<!-- MortarPestle&#45;&gt;Pouch_Dust_Bone -->
<g id="edge11" class="edge"><title>MortarPestle&#45;&gt;Pouch_Dust_Bone</title>
<path fill="none" stroke="black" d="M147.322,-261.144C154.63,-251.358 164.13,-238.858 172.897,-228 175.612,-224.638 178.517,-221.136 181.41,-217.704"/>
<polygon fill="black" stroke="black" points="184.221,-219.801 188.046,-209.921 178.894,-215.26 184.221,-219.801"/>
<text text-anchor="middle" x="200.897" y="-231.8" font-family="Times New Roman,serif" font-size="14.00">Crafting 0</text>
</g>
<!-- Branch -->
<g id="node11" class="node"><title>Branch</title>
<ellipse fill="none" stroke="black" cx="848.897" cy="-279" rx="36.2938" ry="18"/>
<text text-anchor="middle" x="848.897" y="-275.3" font-family="Times New Roman,serif" font-size="14.00">Branch</text>
</g>
<!-- Branch&#45;&gt;ArrowShaft -->
<g id="edge10" class="edge"><title>Branch&#45;&gt;ArrowShaft</title>
<path fill="none" stroke="black" d="M849.083,-260.871C849.227,-251.215 849.476,-238.932 849.897,-228 849.996,-225.446 850.116,-222.787 850.248,-220.128"/>
<polygon fill="black" stroke="black" points="853.746,-220.259 850.794,-210.084 846.756,-219.879 853.746,-220.259"/>
<text text-anchor="middle" x="877.897" y="-231.8" font-family="Times New Roman,serif" font-size="14.00">Crafting 0</text>
</g>
<!-- Antler -->
<g id="node12" class="node"><title>Antler</title>
<ellipse fill="none" stroke="black" cx="1085.9" cy="-279" rx="32.4942" ry="18"/>
<text text-anchor="middle" x="1085.9" y="-275.3" font-family="Times New Roman,serif" font-size="14.00">Antler</text>
</g>
<!-- Antler&#45;&gt;ArrowHead_Antler -->
<g id="edge12" class="edge"><title>Antler&#45;&gt;ArrowHead_Antler</title>
<path fill="none" stroke="black" d="M1076.25,-261.803C1069.76,-251.557 1060.63,-238.343 1050.9,-228 1046.87,-223.718 1042.3,-219.514 1037.67,-215.589"/>
<polygon fill="black" stroke="black" points="1039.87,-212.867 1029.9,-209.279 1035.46,-218.301 1039.87,-212.867"/>
<text text-anchor="middle" x="1090.9" y="-231.8" font-family="Times New Roman,serif" font-size="14.00">Crafting 1</text>
</g>
<!-- Herb_Mushroom_C -->
<g id="node13" class="node"><title>Herb_Mushroom_C</title>
<ellipse fill="none" stroke="black" cx="708.897" cy="-279" rx="85.2851" ry="18"/>
<text text-anchor="middle" x="708.897" y="-275.3" font-family="Times New Roman,serif" font-size="14.00">Herb_Mushroom_C</text>
</g>
<!-- Herb_Mushroom_C&#45;&gt;Potion_Poison -->
<g id="edge13" class="edge"><title>Herb_Mushroom_C&#45;&gt;Potion_Poison</title>
<path fill="none" stroke="black" d="M678.803,-262.012C652.696,-248.143 614.783,-228.002 586.648,-213.055"/>
<polygon fill="black" stroke="black" points="587.985,-209.802 577.512,-208.202 584.701,-215.984 587.985,-209.802"/>
<text text-anchor="middle" x="666.897" y="-231.8" font-family="Times New Roman,serif" font-size="14.00">Crafting 1</text>
</g>
<!-- Skull_Human -->
<g id="node14" class="node"><title>Skull_Human</title>
<ellipse fill="none" stroke="black" cx="269.897" cy="-279" rx="59.5901" ry="18"/>
<text text-anchor="middle" x="269.897" y="-275.3" font-family="Times New Roman,serif" font-size="14.00">Skull_Human</text>
</g>
<!-- Skull_Human&#45;&gt;Pouch_Dust_Bone -->
<g id="edge14" class="edge"><title>Skull_Human&#45;&gt;Pouch_Dust_Bone</title>
<path fill="none" stroke="black" d="M256.66,-261.207C246.933,-248.866 233.555,-231.894 222.578,-217.967"/>
<polygon fill="black" stroke="black" points="225.046,-215.445 216.107,-209.758 219.549,-219.779 225.046,-215.445"/>
<text text-anchor="middle" x="268.897" y="-231.8" font-family="Times New Roman,serif" font-size="14.00">Crafting 0</text>
</g>
<!-- Knife -->
<g id="node15" class="node"><title>Knife</title>
<ellipse fill="none" stroke="black" cx="969.897" cy="-279" rx="30.5947" ry="18"/>
<text text-anchor="middle" x="969.897" y="-275.3" font-family="Times New Roman,serif" font-size="14.00">Knife</text>
</g>
<!-- Knife&#45;&gt;ArrowHead_Antler -->
<g id="edge6" class="edge"><title>Knife&#45;&gt;ArrowHead_Antler</title>
<path fill="none" stroke="black" d="M977.207,-261.207C982.393,-249.293 989.458,-233.063 995.395,-219.424"/>
<polygon fill="black" stroke="black" points="998.694,-220.615 999.476,-210.049 992.275,-217.821 998.694,-220.615"/>
<text text-anchor="middle" x="1018.9" y="-231.8" font-family="Times New Roman,serif" font-size="14.00">Crafting 1</text>
</g>
<!-- Knife&#45;&gt;ArrowShaft -->
<g id="edge5" class="edge"><title>Knife&#45;&gt;ArrowShaft</title>
<path fill="none" stroke="black" d="M952.827,-263.998C940.111,-253.732 922.203,-239.619 905.897,-228 899.18,-223.213 891.846,-218.277 884.81,-213.675"/>
<polygon fill="black" stroke="black" points="886.424,-210.55 876.125,-208.061 882.623,-216.429 886.424,-210.55"/>
<text text-anchor="middle" x="953.897" y="-231.8" font-family="Times New Roman,serif" font-size="14.00">Crafting 0</text>
</g>
<!-- Potion_Debuf_Constitution&#45;&gt;Arrow_Debuff_Constitution -->
<g id="edge16" class="edge"><title>Potion_Debuf_Constitution&#45;&gt;Arrow_Debuff_Constitution</title>
<path fill="none" stroke="black" d="M582.987,-87.8121C611.76,-74.1489 653.13,-54.5042 684.307,-39.6994"/>
<polygon fill="black" stroke="black" points="686.098,-42.7234 693.63,-35.2722 683.095,-36.4001 686.098,-42.7234"/>
<text text-anchor="middle" x="677.897" y="-57.8" font-family="Times New Roman,serif" font-size="14.00">Crafting 2</text>
</g>
</g>
</svg>
