<?xml version="1.0" encoding="UTF-8" standalone="no"?>
<!DOCTYPE svg PUBLIC "-//W3C//DTD SVG 1.1//EN"
 "http://www.w3.org/Graphics/SVG/1.1/DTD/svg11.dtd">
<!-- Generated by graphviz version 2.38.0 (20140413.2041)
 -->
<!-- Title: G Pages: 1 -->
<svg width="771pt" height="392pt"
 viewBox="0.00 0.00 770.84 392.00" xmlns="http://www.w3.org/2000/svg" xmlns:xlink="http://www.w3.org/1999/xlink">
<g id="graph0" class="graph" transform="scale(1 1) rotate(0) translate(4 388)">
<title>G</title>
<polygon fill="white" stroke="none" points="-4,4 -4,-388 766.84,-388 766.84,4 -4,4"/>
<!-- ArrowHead -->
<g id="node1" class="node"><title>ArrowHead</title>
<ellipse fill="none" stroke="black" cx="273.397" cy="-192" rx="53.0913" ry="18"/>
<text text-anchor="middle" x="273.397" y="-188.3" font-family="Times New Roman,serif" font-size="14.00">ArrowHead</text>
</g>
<!-- ArrowHead_Charming -->
<g id="node4" class="node"><title>ArrowHead_Charming</title>
<ellipse fill="none" stroke="black" cx="278.397" cy="-105" rx="92.8835" ry="18"/>
<text text-anchor="middle" x="278.397" y="-101.3" font-family="Times New Roman,serif" font-size="14.00">ArrowHead_Charming</text>
</g>
<!-- ArrowHead&#45;&gt;ArrowHead_Charming -->
<g id="edge1" class="edge"><title>ArrowHead&#45;&gt;ArrowHead_Charming</title>
<path fill="none" stroke="black" d="M274.409,-173.799C275.093,-162.163 276.012,-146.548 276.795,-133.237"/>
<polygon fill="black" stroke="black" points="280.293,-133.364 277.386,-123.175 273.305,-132.953 280.293,-133.364"/>
<text text-anchor="middle" x="304.397" y="-144.8" font-family="Times New Roman,serif" font-size="14.00">Crafting 4</text>
</g>
<!-- Potion_Empty -->
<g id="node2" class="node"><title>Potion_Empty</title>
<ellipse fill="none" stroke="black" cx="534.397" cy="-366" rx="63.8893" ry="18"/>
<text text-anchor="middle" x="534.397" y="-362.3" font-family="Times New Roman,serif" font-size="14.00">Potion_Empty</text>
</g>
<!-- Minor_Healing_Potion -->
<g id="node8" class="node"><title>Minor_Healing_Potion</title>
<ellipse fill="none" stroke="black" cx="612.397" cy="-279" rx="92.8835" ry="18"/>
<text text-anchor="middle" x="612.397" y="-275.3" font-family="Times New Roman,serif" font-size="14.00">Minor_Healing_Potion</text>
</g>
<!-- Potion_Empty&#45;&gt;Minor_Healing_Potion -->
<g id="edge2" class="edge"><title>Potion_Empty&#45;&gt;Minor_Healing_Potion</title>
<path fill="none" stroke="black" d="M549.807,-348.207C561.345,-335.633 577.295,-318.252 590.206,-304.182"/>
<polygon fill="black" stroke="black" points="592.836,-306.493 597.018,-296.758 587.679,-301.76 592.836,-306.493"/>
<text text-anchor="middle" x="605.397" y="-318.8" font-family="Times New Roman,serif" font-size="14.00">Crafting 1</text>
</g>
<!-- Arrow_Charming -->
<g id="node3" class="node"><title>Arrow_Charming</title>
<ellipse fill="none" stroke="black" cx="161.397" cy="-18" rx="74.187" ry="18"/>
<text text-anchor="middle" x="161.397" y="-14.3" font-family="Times New Roman,serif" font-size="14.00">Arrow_Charming</text>
</g>
<!-- ArrowHead_Charming&#45;&gt;Arrow_Charming -->
<g id="edge3" class="edge"><title>ArrowHead_Charming&#45;&gt;Arrow_Charming</title>
<path fill="none" stroke="black" d="M255.56,-87.4094C237.405,-74.2198 211.84,-55.6465 191.928,-41.1806"/>
<polygon fill="black" stroke="black" points="193.926,-38.3061 183.778,-35.26 189.811,-43.9693 193.926,-38.3061"/>
<text text-anchor="middle" x="255.397" y="-57.8" font-family="Times New Roman,serif" font-size="14.00">Crafting 4</text>
</g>
<!-- Herb_FannyBlossom -->
<g id="node5" class="node"><title>Herb_FannyBlossom</title>
<ellipse fill="none" stroke="black" cx="413.397" cy="-279" rx="88.2844" ry="18"/>
<text text-anchor="middle" x="413.397" y="-275.3" font-family="Times New Roman,serif" font-size="14.00">Herb_FannyBlossom</text>
</g>
<!-- Potion_Charm -->
<g id="node11" class="node"><title>Potion_Charm</title>
<ellipse fill="none" stroke="black" cx="413.397" cy="-192" rx="63.8893" ry="18"/>
<text text-anchor="middle" x="413.397" y="-188.3" font-family="Times New Roman,serif" font-size="14.00">Potion_Charm</text>
</g>
<!-- Herb_FannyBlossom&#45;&gt;Potion_Charm -->
<g id="edge4" class="edge"><title>Herb_FannyBlossom&#45;&gt;Potion_Charm</title>
<path fill="none" stroke="black" d="M413.397,-260.799C413.397,-249.163 413.397,-233.548 413.397,-220.237"/>
<polygon fill="black" stroke="black" points="416.897,-220.175 413.397,-210.175 409.897,-220.175 416.897,-220.175"/>
<text text-anchor="middle" x="441.397" y="-231.8" font-family="Times New Roman,serif" font-size="14.00">Crafting 2</text>
</g>
<!-- Tooth -->
<g id="node6" class="node"><title>Tooth</title>
<ellipse fill="none" stroke="black" cx="273.397" cy="-279" rx="33.2948" ry="18"/>
<text text-anchor="middle" x="273.397" y="-275.3" font-family="Times New Roman,serif" font-size="14.00">Tooth</text>
</g>
<!-- Tooth&#45;&gt;ArrowHead -->
<g id="edge5" class="edge"><title>Tooth&#45;&gt;ArrowHead</title>
<path fill="none" stroke="black" d="M273.397,-260.799C273.397,-249.163 273.397,-233.548 273.397,-220.237"/>
<polygon fill="black" stroke="black" points="276.897,-220.175 273.397,-210.175 269.897,-220.175 276.897,-220.175"/>
<text text-anchor="middle" x="301.397" y="-231.8" font-family="Times New Roman,serif" font-size="14.00">Crafting 1</text>
</g>
<!-- ArrowShaft -->
<g id="node7" class="node"><title>ArrowShaft</title>
<ellipse fill="none" stroke="black" cx="111.397" cy="-192" rx="53.0913" ry="18"/>
<text text-anchor="middle" x="111.397" y="-188.3" font-family="Times New Roman,serif" font-size="14.00">ArrowShaft</text>
</g>
<!-- ArrowShaft&#45;&gt;Arrow_Charming -->
<g id="edge6" class="edge"><title>ArrowShaft&#45;&gt;Arrow_Charming</title>
<path fill="none" stroke="black" d="M110.544,-173.964C110.016,-152.973 110.812,-116.471 120.397,-87 125.337,-71.8094 134.205,-56.4386 142.433,-44.163"/>
<polygon fill="black" stroke="black" points="145.402,-46.0243 148.246,-35.8183 139.658,-42.0233 145.402,-46.0243"/>
<text text-anchor="middle" x="148.397" y="-101.3" font-family="Times New Roman,serif" font-size="14.00">Crafting 4</text>
</g>
<!-- Minor_Healing_Potion&#45;&gt;Potion_Charm -->
<g id="edge12" class="edge"><title>Minor_Healing_Potion&#45;&gt;Potion_Charm</title>
<path fill="none" stroke="black" d="M575.897,-262.41C542.256,-248.04 492.293,-226.7 456.659,-211.479"/>
<polygon fill="black" stroke="black" points="457.585,-208.068 447.014,-207.359 454.835,-214.506 457.585,-208.068"/>
<text text-anchor="middle" x="552.397" y="-231.8" font-family="Times New Roman,serif" font-size="14.00">Crafting 2</text>
</g>
<!-- Branch -->
<g id="node9" class="node"><title>Branch</title>
<ellipse fill="none" stroke="black" cx="36.3968" cy="-279" rx="36.2938" ry="18"/>
<text text-anchor="middle" x="36.3968" y="-275.3" font-family="Times New Roman,serif" font-size="14.00">Branch</text>
</g>
<!-- Branch&#45;&gt;ArrowShaft -->
<g id="edge9" class="edge"><title>Branch&#45;&gt;ArrowShaft</title>
<path fill="none" stroke="black" d="M38.7466,-260.795C40.8823,-250.41 44.9019,-237.411 52.3968,-228 57.4049,-221.711 63.8739,-216.306 70.6852,-211.755"/>
<polygon fill="black" stroke="black" points="72.6882,-214.633 79.4117,-206.445 69.0495,-208.653 72.6882,-214.633"/>
<text text-anchor="middle" x="80.3968" y="-231.8" font-family="Times New Roman,serif" font-size="14.00">Crafting 0</text>
</g>
<!-- Herb_Mushroom -->
<g id="node10" class="node"><title>Herb_Mushroom</title>
<ellipse fill="none" stroke="black" cx="689.397" cy="-366" rx="73.387" ry="18"/>
<text text-anchor="middle" x="689.397" y="-362.3" font-family="Times New Roman,serif" font-size="14.00">Herb_Mushroom</text>
</g>
<!-- Herb_Mushroom&#45;&gt;Minor_Healing_Potion -->
<g id="edge10" class="edge"><title>Herb_Mushroom&#45;&gt;Minor_Healing_Potion</title>
<path fill="none" stroke="black" d="M674.184,-348.207C662.794,-335.633 647.049,-318.252 634.303,-304.182"/>
<polygon fill="black" stroke="black" points="636.886,-301.82 627.578,-296.758 631.698,-306.519 636.886,-301.82"/>
<text text-anchor="middle" x="683.397" y="-318.8" font-family="Times New Roman,serif" font-size="14.00">Crafting 1</text>
</g>
<!-- Potion_Charm&#45;&gt;ArrowHead_Charming -->
<g id="edge11" class="edge"><title>Potion_Charm&#45;&gt;ArrowHead_Charming</title>
<path fill="none" stroke="black" d="M389.595,-175.256C374.446,-165.307 354.364,-152.251 336.397,-141 329.458,-136.655 322.005,-132.086 314.829,-127.734"/>
<polygon fill="black" stroke="black" points="316.319,-124.545 305.949,-122.373 312.701,-130.538 316.319,-124.545"/>
<text text-anchor="middle" x="388.397" y="-144.8" font-family="Times New Roman,serif" font-size="14.00">Crafting 4</text>
</g>
<!-- Knife -->
<g id="node12" class="node"><title>Knife</title>
<ellipse fill="none" stroke="black" cx="156.397" cy="-279" rx="30.5947" ry="18"/>
<text text-anchor="middle" x="156.397" y="-275.3" font-family="Times New Roman,serif" font-size="14.00">Knife</text>
</g>
<!-- Knife&#45;&gt;ArrowHead -->
<g id="edge8" class="edge"><title>Knife&#45;&gt;ArrowHead</title>
<path fill="none" stroke="black" d="M171.689,-263.139C182.796,-252.713 198.442,-238.769 213.397,-228 220.792,-222.675 229.048,-217.445 237.014,-212.716"/>
<polygon fill="black" stroke="black" points="238.924,-215.655 245.822,-207.613 235.415,-209.598 238.924,-215.655"/>
<text text-anchor="middle" x="241.397" y="-231.8" font-family="Times New Roman,serif" font-size="14.00">Crafting 1</text>
</g>
<!-- Knife&#45;&gt;ArrowShaft -->
<g id="edge7" class="edge"><title>Knife&#45;&gt;ArrowShaft</title>
<path fill="none" stroke="black" d="M136.325,-265.314C128.794,-259.472 120.962,-251.859 116.397,-243 112.825,-236.069 111.138,-227.883 110.455,-220.164"/>
<polygon fill="black" stroke="black" points="113.949,-219.944 110.063,-210.088 106.954,-220.216 113.949,-219.944"/>
<text text-anchor="middle" x="144.397" y="-231.8" font-family="Times New Roman,serif" font-size="14.00">Crafting 0</text>
</g>
</g>
</svg>
