<?xml version="1.0" encoding="UTF-8" standalone="no"?>
<!DOCTYPE svg PUBLIC "-//W3C//DTD SVG 1.1//EN"
 "http://www.w3.org/Graphics/SVG/1.1/DTD/svg11.dtd">
<!-- Generated by graphviz version 2.38.0 (20140413.2041)
 -->
<!-- Title: G Pages: 1 -->
<svg width="780pt" height="392pt"
 viewBox="0.00 0.00 779.54 392.00" xmlns="http://www.w3.org/2000/svg" xmlns:xlink="http://www.w3.org/1999/xlink">
<g id="graph0" class="graph" transform="scale(1 1) rotate(0) translate(4 388)">
<title>G</title>
<polygon fill="white" stroke="none" points="-4,4 -4,-388 775.539,-388 775.539,4 -4,4"/>
<!-- ArrowHead -->
<g id="node1" class="node"><title>ArrowHead</title>
<ellipse fill="none" stroke="black" cx="271.397" cy="-279" rx="53.0913" ry="18"/>
<text text-anchor="middle" x="271.397" y="-275.3" font-family="Times New Roman,serif" font-size="14.00">ArrowHead</text>
</g>
<!-- ArrowHead_Poison -->
<g id="node5" class="node"><title>ArrowHead_Poison</title>
<ellipse fill="none" stroke="black" cx="271.397" cy="-192" rx="83.3857" ry="18"/>
<text text-anchor="middle" x="271.397" y="-188.3" font-family="Times New Roman,serif" font-size="14.00">ArrowHead_Poison</text>
</g>
<!-- ArrowHead&#45;&gt;ArrowHead_Poison -->
<g id="edge1" class="edge"><title>ArrowHead&#45;&gt;ArrowHead_Poison</title>
<path fill="none" stroke="black" d="M271.397,-260.799C271.397,-249.163 271.397,-233.548 271.397,-220.237"/>
<polygon fill="black" stroke="black" points="274.897,-220.175 271.397,-210.175 267.897,-220.175 274.897,-220.175"/>
<text text-anchor="middle" x="299.397" y="-231.8" font-family="Times New Roman,serif" font-size="14.00">Crafting 2</text>
</g>
<!-- Arrow_Poison_Cloud -->
<g id="node2" class="node"><title>Arrow_Poison_Cloud</title>
<ellipse fill="none" stroke="black" cx="168.397" cy="-18" rx="91.784" ry="18"/>
<text text-anchor="middle" x="168.397" y="-14.3" font-family="Times New Roman,serif" font-size="14.00">Arrow_Poison_Cloud</text>
</g>
<!-- Potion_Empty -->
<g id="node3" class="node"><title>Potion_Empty</title>
<ellipse fill="none" stroke="black" cx="388.397" cy="-366" rx="63.8893" ry="18"/>
<text text-anchor="middle" x="388.397" y="-362.3" font-family="Times New Roman,serif" font-size="14.00">Potion_Empty</text>
</g>
<!-- Potion_Poison -->
<g id="node8" class="node"><title>Potion_Poison</title>
<ellipse fill="none" stroke="black" cx="475.397" cy="-279" rx="64.9885" ry="18"/>
<text text-anchor="middle" x="475.397" y="-275.3" font-family="Times New Roman,serif" font-size="14.00">Potion_Poison</text>
</g>
<!-- Potion_Empty&#45;&gt;Potion_Poison -->
<g id="edge3" class="edge"><title>Potion_Empty&#45;&gt;Potion_Poison</title>
<path fill="none" stroke="black" d="M404.949,-348.217C414.632,-338.456 427.132,-325.956 438.397,-315 442.182,-311.318 446.215,-307.45 450.174,-303.682"/>
<polygon fill="black" stroke="black" points="452.759,-306.054 457.611,-296.635 447.944,-300.973 452.759,-306.054"/>
<text text-anchor="middle" x="466.397" y="-318.8" font-family="Times New Roman,serif" font-size="14.00">Crafting 0</text>
</g>
<!-- Tooth -->
<g id="node4" class="node"><title>Tooth</title>
<ellipse fill="none" stroke="black" cx="273.397" cy="-366" rx="33.2948" ry="18"/>
<text text-anchor="middle" x="273.397" y="-362.3" font-family="Times New Roman,serif" font-size="14.00">Tooth</text>
</g>
<!-- Tooth&#45;&gt;ArrowHead -->
<g id="edge4" class="edge"><title>Tooth&#45;&gt;ArrowHead</title>
<path fill="none" stroke="black" d="M272.992,-347.799C272.718,-336.163 272.351,-320.548 272.038,-307.237"/>
<polygon fill="black" stroke="black" points="275.535,-307.09 271.801,-297.175 268.537,-307.255 275.535,-307.09"/>
<text text-anchor="middle" x="301.397" y="-318.8" font-family="Times New Roman,serif" font-size="14.00">Crafting 1</text>
</g>
<!-- ArrowHead_Poison_Cloud -->
<g id="node10" class="node"><title>ArrowHead_Poison_Cloud</title>
<ellipse fill="none" stroke="black" cx="264.397" cy="-105" rx="110.48" ry="18"/>
<text text-anchor="middle" x="264.397" y="-101.3" font-family="Times New Roman,serif" font-size="14.00">ArrowHead_Poison_Cloud</text>
</g>
<!-- ArrowHead_Poison&#45;&gt;ArrowHead_Poison_Cloud -->
<g id="edge5" class="edge"><title>ArrowHead_Poison&#45;&gt;ArrowHead_Poison_Cloud</title>
<path fill="none" stroke="black" d="M269.98,-173.799C269.022,-162.163 267.736,-146.548 266.64,-133.237"/>
<polygon fill="black" stroke="black" points="270.12,-132.854 265.811,-123.175 263.144,-133.429 270.12,-132.854"/>
<text text-anchor="middle" x="296.397" y="-144.8" font-family="Times New Roman,serif" font-size="14.00">Crafting 3</text>
</g>
<!-- Barrel_Ooze -->
<g id="node6" class="node"><title>Barrel_Ooze</title>
<ellipse fill="none" stroke="black" cx="526.397" cy="-366" rx="56.59" ry="18"/>
<text text-anchor="middle" x="526.397" y="-362.3" font-family="Times New Roman,serif" font-size="14.00">Barrel_Ooze</text>
</g>
<!-- Barrel_Ooze&#45;&gt;Potion_Poison -->
<g id="edge6" class="edge"><title>Barrel_Ooze&#45;&gt;Potion_Poison</title>
<path fill="none" stroke="black" d="M516.321,-348.207C509.034,-336.062 499.056,-319.431 490.776,-305.633"/>
<polygon fill="black" stroke="black" points="493.773,-303.824 485.626,-297.049 487.77,-307.425 493.773,-303.824"/>
<text text-anchor="middle" x="532.397" y="-318.8" font-family="Times New Roman,serif" font-size="14.00">Crafting 0</text>
</g>
<!-- ArrowShaft -->
<g id="node7" class="node"><title>ArrowShaft</title>
<ellipse fill="none" stroke="black" cx="115.397" cy="-279" rx="53.0913" ry="18"/>
<text text-anchor="middle" x="115.397" y="-275.3" font-family="Times New Roman,serif" font-size="14.00">ArrowShaft</text>
</g>
<!-- ArrowShaft&#45;&gt;Arrow_Poison_Cloud -->
<g id="edge7" class="edge"><title>ArrowShaft&#45;&gt;Arrow_Poison_Cloud</title>
<path fill="none" stroke="black" d="M117.089,-260.945C120.641,-227.318 129.856,-150.237 145.397,-87 148.789,-73.1956 153.725,-58.1931 158.154,-45.8006"/>
<polygon fill="black" stroke="black" points="161.559,-46.682 161.712,-36.0883 154.986,-44.2745 161.559,-46.682"/>
<text text-anchor="middle" x="162.397" y="-144.8" font-family="Times New Roman,serif" font-size="14.00">Crafting 3</text>
</g>
<!-- Potion_Poison&#45;&gt;ArrowHead_Poison -->
<g id="edge8" class="edge"><title>Potion_Poison&#45;&gt;ArrowHead_Poison</title>
<path fill="none" stroke="black" d="M440.791,-263.581C406.877,-249.45 354.971,-227.823 317.556,-212.233"/>
<polygon fill="black" stroke="black" points="318.472,-208.823 307.895,-208.208 315.78,-215.285 318.472,-208.823"/>
<text text-anchor="middle" x="414.397" y="-231.8" font-family="Times New Roman,serif" font-size="14.00">Crafting 2</text>
</g>
<!-- Branch -->
<g id="node9" class="node"><title>Branch</title>
<ellipse fill="none" stroke="black" cx="36.3968" cy="-366" rx="36.2938" ry="18"/>
<text text-anchor="middle" x="36.3968" y="-362.3" font-family="Times New Roman,serif" font-size="14.00">Branch</text>
</g>
<!-- Branch&#45;&gt;ArrowShaft -->
<g id="edge2" class="edge"><title>Branch&#45;&gt;ArrowShaft</title>
<path fill="none" stroke="black" d="M39.061,-347.729C41.3932,-337.319 45.6715,-324.316 53.3968,-315 58.8408,-308.435 65.8543,-302.866 73.1957,-298.233"/>
<polygon fill="black" stroke="black" points="74.9744,-301.248 81.8901,-293.222 71.4785,-295.183 74.9744,-301.248"/>
<text text-anchor="middle" x="81.3968" y="-318.8" font-family="Times New Roman,serif" font-size="14.00">Crafting 0</text>
</g>
<!-- ArrowHead_Poison_Cloud&#45;&gt;Arrow_Poison_Cloud -->
<g id="edge9" class="edge"><title>ArrowHead_Poison_Cloud&#45;&gt;Arrow_Poison_Cloud</title>
<path fill="none" stroke="black" d="M245.43,-87.2067C230.967,-74.4006 210.87,-56.6066 194.83,-42.4043"/>
<polygon fill="black" stroke="black" points="197.131,-39.7671 187.324,-35.7584 192.491,-45.008 197.131,-39.7671"/>
<text text-anchor="middle" x="250.397" y="-57.8" font-family="Times New Roman,serif" font-size="14.00">Crafting 3</text>
</g>
<!-- Herb_Mushroom_C -->
<g id="node11" class="node"><title>Herb_Mushroom_C</title>
<ellipse fill="none" stroke="black" cx="686.397" cy="-366" rx="85.2851" ry="18"/>
<text text-anchor="middle" x="686.397" y="-362.3" font-family="Times New Roman,serif" font-size="14.00">Herb_Mushroom_C</text>
</g>
<!-- Herb_Mushroom_C&#45;&gt;Potion_Poison -->
<g id="edge10" class="edge"><title>Herb_Mushroom_C&#45;&gt;Potion_Poison</title>
<path fill="none" stroke="black" d="M649.615,-349.766C625.432,-339.789 593.073,-326.514 564.397,-315 550.251,-309.32 534.804,-303.212 520.809,-297.714"/>
<polygon fill="black" stroke="black" points="521.973,-294.411 511.385,-294.018 519.417,-300.928 521.973,-294.411"/>
<text text-anchor="middle" x="628.397" y="-318.8" font-family="Times New Roman,serif" font-size="14.00">Crafting 1</text>
</g>
<!-- Knife -->
<g id="node12" class="node"><title>Knife</title>
<ellipse fill="none" stroke="black" cx="156.397" cy="-366" rx="30.5947" ry="18"/>
<text text-anchor="middle" x="156.397" y="-362.3" font-family="Times New Roman,serif" font-size="14.00">Knife</text>
</g>
<!-- Knife&#45;&gt;ArrowHead -->
<g id="edge12" class="edge"><title>Knife&#45;&gt;ArrowHead</title>
<path fill="none" stroke="black" d="M171.403,-350.146C182.308,-339.724 197.676,-325.782 212.397,-315 219.657,-309.683 227.772,-304.455 235.604,-299.727"/>
<polygon fill="black" stroke="black" points="237.426,-302.716 244.266,-294.624 233.873,-296.685 237.426,-302.716"/>
<text text-anchor="middle" x="240.397" y="-318.8" font-family="Times New Roman,serif" font-size="14.00">Crafting 1</text>
</g>
<!-- Knife&#45;&gt;ArrowShaft -->
<g id="edge11" class="edge"><title>Knife&#45;&gt;ArrowShaft</title>
<path fill="none" stroke="black" d="M135.967,-352.49C128.382,-346.674 120.605,-339.034 116.397,-330 113.12,-322.966 112.009,-314.749 111.951,-307.033"/>
<polygon fill="black" stroke="black" points="115.451,-307.131 112.421,-296.979 108.458,-306.804 115.451,-307.131"/>
<text text-anchor="middle" x="144.397" y="-318.8" font-family="Times New Roman,serif" font-size="14.00">Crafting 0</text>
</g>
</g>
</svg>
