<?xml version="1.0" encoding="UTF-8" standalone="no"?>
<!DOCTYPE svg PUBLIC "-//W3C//DTD SVG 1.1//EN"
 "http://www.w3.org/Graphics/SVG/1.1/DTD/svg11.dtd">
<!-- Generated by graphviz version 2.38.0 (20140413.2041)
 -->
<!-- Title: G Pages: 1 -->
<svg width="810pt" height="479pt"
 viewBox="0.00 0.00 809.54 479.00" xmlns="http://www.w3.org/2000/svg" xmlns:xlink="http://www.w3.org/1999/xlink">
<g id="graph0" class="graph" transform="scale(1 1) rotate(0) translate(4 475)">
<title>G</title>
<polygon fill="white" stroke="none" points="-4,4 -4,-475 805.539,-475 805.539,4 -4,4"/>
<!-- Potion_Armor_Boost -->
<g id="node1" class="node"><title>Potion_Armor_Boost</title>
<ellipse fill="none" stroke="black" cx="647.397" cy="-279" rx="90.1842" ry="18"/>
<text text-anchor="middle" x="647.397" y="-275.3" font-family="Times New Roman,serif" font-size="14.00">Potion_Armor_Boost</text>
</g>
<!-- Potion_Air_Res -->
<g id="node5" class="node"><title>Potion_Air_Res</title>
<ellipse fill="none" stroke="black" cx="431.397" cy="-192" rx="69.5877" ry="18"/>
<text text-anchor="middle" x="431.397" y="-188.3" font-family="Times New Roman,serif" font-size="14.00">Potion_Air_Res</text>
</g>
<!-- Potion_Armor_Boost&#45;&gt;Potion_Air_Res -->
<g id="edge1" class="edge"><title>Potion_Armor_Boost&#45;&gt;Potion_Air_Res</title>
<path fill="none" stroke="black" d="M608.281,-262.607C571.52,-248.141 516.486,-226.484 477.583,-211.175"/>
<polygon fill="black" stroke="black" points="478.648,-207.833 468.061,-207.428 476.085,-214.347 478.648,-207.833"/>
<text text-anchor="middle" x="580.397" y="-231.8" font-family="Times New Roman,serif" font-size="14.00">Crafting 2</text>
</g>
<!-- ArrowHead -->
<g id="node2" class="node"><title>ArrowHead</title>
<ellipse fill="none" stroke="black" cx="273.397" cy="-192" rx="53.0913" ry="18"/>
<text text-anchor="middle" x="273.397" y="-188.3" font-family="Times New Roman,serif" font-size="14.00">ArrowHead</text>
</g>
<!-- ArrowHead_Static_Could -->
<g id="node6" class="node"><title>ArrowHead_Static_Could</title>
<ellipse fill="none" stroke="black" cx="284.397" cy="-105" rx="105.881" ry="18"/>
<text text-anchor="middle" x="284.397" y="-101.3" font-family="Times New Roman,serif" font-size="14.00">ArrowHead_Static_Could</text>
</g>
<!-- ArrowHead&#45;&gt;ArrowHead_Static_Could -->
<g id="edge2" class="edge"><title>ArrowHead&#45;&gt;ArrowHead_Static_Could</title>
<path fill="none" stroke="black" d="M275.623,-173.799C277.129,-162.163 279.149,-146.548 280.872,-133.237"/>
<polygon fill="black" stroke="black" points="284.362,-133.542 282.174,-123.175 277.42,-132.644 284.362,-133.542"/>
<text text-anchor="middle" x="308.397" y="-144.8" font-family="Times New Roman,serif" font-size="14.00">Crafting 3</text>
</g>
<!-- Potion_Empty -->
<g id="node3" class="node"><title>Potion_Empty</title>
<ellipse fill="none" stroke="black" cx="443.397" cy="-453" rx="63.8893" ry="18"/>
<text text-anchor="middle" x="443.397" y="-449.3" font-family="Times New Roman,serif" font-size="14.00">Potion_Empty</text>
</g>
<!-- Minor_Healing_Potion -->
<g id="node10" class="node"><title>Minor_Healing_Potion</title>
<ellipse fill="none" stroke="black" cx="520.397" cy="-366" rx="92.8835" ry="18"/>
<text text-anchor="middle" x="520.397" y="-362.3" font-family="Times New Roman,serif" font-size="14.00">Minor_Healing_Potion</text>
</g>
<!-- Potion_Empty&#45;&gt;Minor_Healing_Potion -->
<g id="edge3" class="edge"><title>Potion_Empty&#45;&gt;Minor_Healing_Potion</title>
<path fill="none" stroke="black" d="M458.609,-435.207C469.999,-422.633 485.745,-405.252 498.49,-391.182"/>
<polygon fill="black" stroke="black" points="501.096,-393.519 505.216,-383.758 495.908,-388.82 501.096,-393.519"/>
<text text-anchor="middle" x="515.397" y="-405.8" font-family="Times New Roman,serif" font-size="14.00">Crafting 1</text>
</g>
<!-- Arrow_Cloud_Static -->
<g id="node4" class="node"><title>Arrow_Cloud_Static</title>
<ellipse fill="none" stroke="black" cx="157.397" cy="-18" rx="87.1846" ry="18"/>
<text text-anchor="middle" x="157.397" y="-14.3" font-family="Times New Roman,serif" font-size="14.00">Arrow_Cloud_Static</text>
</g>
<!-- Potion_Air_Res&#45;&gt;ArrowHead_Static_Could -->
<g id="edge4" class="edge"><title>Potion_Air_Res&#45;&gt;ArrowHead_Static_Could</title>
<path fill="none" stroke="black" d="M404.092,-175.211C380.844,-161.769 347.228,-142.331 321.536,-127.475"/>
<polygon fill="black" stroke="black" points="323.218,-124.404 312.809,-122.429 319.714,-130.464 323.218,-124.404"/>
<text text-anchor="middle" x="395.397" y="-144.8" font-family="Times New Roman,serif" font-size="14.00">Crafting 3</text>
</g>
<!-- ArrowHead_Static_Could&#45;&gt;Arrow_Cloud_Static -->
<g id="edge5" class="edge"><title>ArrowHead_Static_Could&#45;&gt;Arrow_Cloud_Static</title>
<path fill="none" stroke="black" d="M259.608,-87.4094C239.94,-74.2458 212.26,-55.7198 190.665,-41.2663"/>
<polygon fill="black" stroke="black" points="192.38,-38.2023 182.123,-35.5488 188.486,-44.0196 192.38,-38.2023"/>
<text text-anchor="middle" x="257.397" y="-57.8" font-family="Times New Roman,serif" font-size="14.00">Crafting 3</text>
</g>
<!-- Tooth -->
<g id="node7" class="node"><title>Tooth</title>
<ellipse fill="none" stroke="black" cx="273.397" cy="-279" rx="33.2948" ry="18"/>
<text text-anchor="middle" x="273.397" y="-275.3" font-family="Times New Roman,serif" font-size="14.00">Tooth</text>
</g>
<!-- Tooth&#45;&gt;ArrowHead -->
<g id="edge6" class="edge"><title>Tooth&#45;&gt;ArrowHead</title>
<path fill="none" stroke="black" d="M273.397,-260.799C273.397,-249.163 273.397,-233.548 273.397,-220.237"/>
<polygon fill="black" stroke="black" points="276.897,-220.175 273.397,-210.175 269.897,-220.175 276.897,-220.175"/>
<text text-anchor="middle" x="301.397" y="-231.8" font-family="Times New Roman,serif" font-size="14.00">Crafting 1</text>
</g>
<!-- Herb_Mushroom_Jellyfish -->
<g id="node8" class="node"><title>Herb_Mushroom_Jellyfish</title>
<ellipse fill="none" stroke="black" cx="431.397" cy="-279" rx="107.482" ry="18"/>
<text text-anchor="middle" x="431.397" y="-275.3" font-family="Times New Roman,serif" font-size="14.00">Herb_Mushroom_Jellyfish</text>
</g>
<!-- Herb_Mushroom_Jellyfish&#45;&gt;Potion_Air_Res -->
<g id="edge8" class="edge"><title>Herb_Mushroom_Jellyfish&#45;&gt;Potion_Air_Res</title>
<path fill="none" stroke="black" d="M431.397,-260.799C431.397,-249.163 431.397,-233.548 431.397,-220.237"/>
<polygon fill="black" stroke="black" points="434.897,-220.175 431.397,-210.175 427.897,-220.175 434.897,-220.175"/>
<text text-anchor="middle" x="459.397" y="-231.8" font-family="Times New Roman,serif" font-size="14.00">Crafting 2</text>
</g>
<!-- ArrowShaft -->
<g id="node9" class="node"><title>ArrowShaft</title>
<ellipse fill="none" stroke="black" cx="104.397" cy="-192" rx="53.0913" ry="18"/>
<text text-anchor="middle" x="104.397" y="-188.3" font-family="Times New Roman,serif" font-size="14.00">ArrowShaft</text>
</g>
<!-- ArrowShaft&#45;&gt;Arrow_Cloud_Static -->
<g id="edge7" class="edge"><title>ArrowShaft&#45;&gt;Arrow_Cloud_Static</title>
<path fill="none" stroke="black" d="M103.39,-173.913C102.706,-152.87 103.345,-116.315 113.397,-87 118.645,-71.6942 128.065,-56.4091 136.846,-44.2185"/>
<polygon fill="black" stroke="black" points="139.86,-46.0333 143.058,-35.9328 134.259,-41.8341 139.86,-46.0333"/>
<text text-anchor="middle" x="141.397" y="-101.3" font-family="Times New Roman,serif" font-size="14.00">Crafting 3</text>
</g>
<!-- Minor_Healing_Potion&#45;&gt;Potion_Armor_Boost -->
<g id="edge14" class="edge"><title>Minor_Healing_Potion&#45;&gt;Potion_Armor_Boost</title>
<path fill="none" stroke="black" d="M544.884,-348.611C564.649,-335.382 592.648,-316.643 614.392,-302.09"/>
<polygon fill="black" stroke="black" points="616.621,-304.809 622.985,-296.339 612.728,-298.992 616.621,-304.809"/>
<text text-anchor="middle" x="619.397" y="-318.8" font-family="Times New Roman,serif" font-size="14.00">Crafting 2</text>
</g>
<!-- Branch -->
<g id="node11" class="node"><title>Branch</title>
<ellipse fill="none" stroke="black" cx="36.3968" cy="-279" rx="36.2938" ry="18"/>
<text text-anchor="middle" x="36.3968" y="-275.3" font-family="Times New Roman,serif" font-size="14.00">Branch</text>
</g>
<!-- Branch&#45;&gt;ArrowShaft -->
<g id="edge9" class="edge"><title>Branch&#45;&gt;ArrowShaft</title>
<path fill="none" stroke="black" d="M38.105,-260.917C39.8428,-250.578 43.3446,-237.584 50.3968,-228 54.7213,-222.123 60.354,-216.966 66.346,-212.546"/>
<polygon fill="black" stroke="black" points="68.2961,-215.452 74.6505,-206.974 64.3962,-209.639 68.2961,-215.452"/>
<text text-anchor="middle" x="78.3968" y="-231.8" font-family="Times New Roman,serif" font-size="14.00">Crafting 0</text>
</g>
<!-- Herb_Whisperwood -->
<g id="node12" class="node"><title>Herb_Whisperwood</title>
<ellipse fill="none" stroke="black" cx="716.397" cy="-366" rx="85.2851" ry="18"/>
<text text-anchor="middle" x="716.397" y="-362.3" font-family="Times New Roman,serif" font-size="14.00">Herb_Whisperwood</text>
</g>
<!-- Herb_Whisperwood&#45;&gt;Potion_Armor_Boost -->
<g id="edge10" class="edge"><title>Herb_Whisperwood&#45;&gt;Potion_Armor_Boost</title>
<path fill="none" stroke="black" d="M702.765,-348.207C692.718,-335.831 678.89,-318.796 667.567,-304.847"/>
<polygon fill="black" stroke="black" points="670.257,-302.607 661.237,-297.049 664.822,-307.019 670.257,-302.607"/>
<text text-anchor="middle" x="713.397" y="-318.8" font-family="Times New Roman,serif" font-size="14.00">Crafting 2</text>
</g>
<!-- Herb_Mushroom -->
<g id="node13" class="node"><title>Herb_Mushroom</title>
<ellipse fill="none" stroke="black" cx="598.397" cy="-453" rx="73.387" ry="18"/>
<text text-anchor="middle" x="598.397" y="-449.3" font-family="Times New Roman,serif" font-size="14.00">Herb_Mushroom</text>
</g>
<!-- Herb_Mushroom&#45;&gt;Minor_Healing_Potion -->
<g id="edge13" class="edge"><title>Herb_Mushroom&#45;&gt;Minor_Healing_Potion</title>
<path fill="none" stroke="black" d="M582.986,-435.207C571.449,-422.633 555.499,-405.252 542.588,-391.182"/>
<polygon fill="black" stroke="black" points="545.115,-388.76 535.775,-383.758 539.957,-393.493 545.115,-388.76"/>
<text text-anchor="middle" x="592.397" y="-405.8" font-family="Times New Roman,serif" font-size="14.00">Crafting 1</text>
</g>
<!-- Knife -->
<g id="node14" class="node"><title>Knife</title>
<ellipse fill="none" stroke="black" cx="156.397" cy="-279" rx="30.5947" ry="18"/>
<text text-anchor="middle" x="156.397" y="-275.3" font-family="Times New Roman,serif" font-size="14.00">Knife</text>
</g>
<!-- Knife&#45;&gt;ArrowHead -->
<g id="edge12" class="edge"><title>Knife&#45;&gt;ArrowHead</title>
<path fill="none" stroke="black" d="M171.689,-263.139C182.796,-252.713 198.442,-238.769 213.397,-228 220.792,-222.675 229.048,-217.445 237.014,-212.716"/>
<polygon fill="black" stroke="black" points="238.924,-215.655 245.822,-207.613 235.415,-209.598 238.924,-215.655"/>
<text text-anchor="middle" x="241.397" y="-231.8" font-family="Times New Roman,serif" font-size="14.00">Crafting 1</text>
</g>
<!-- Knife&#45;&gt;ArrowShaft -->
<g id="edge11" class="edge"><title>Knife&#45;&gt;ArrowShaft</title>
<path fill="none" stroke="black" d="M136.917,-264.983C129.477,-259.09 121.553,-251.528 116.397,-243 112.222,-236.095 109.499,-227.832 107.724,-220.032"/>
<polygon fill="black" stroke="black" points="111.164,-219.387 105.893,-210.197 104.282,-220.668 111.164,-219.387"/>
<text text-anchor="middle" x="144.397" y="-231.8" font-family="Times New Roman,serif" font-size="14.00">Crafting 0</text>
</g>
</g>
</svg>
