<?xml version="1.0" encoding="UTF-8" standalone="no"?>
<!DOCTYPE svg PUBLIC "-//W3C//DTD SVG 1.1//EN"
 "http://www.w3.org/Graphics/SVG/1.1/DTD/svg11.dtd">
<!-- Generated by graphviz version 2.38.0 (20140413.2041)
 -->
<!-- Title: G Pages: 1 -->
<svg width="387pt" height="218pt"
 viewBox="0.00 0.00 386.79 218.00" xmlns="http://www.w3.org/2000/svg" xmlns:xlink="http://www.w3.org/1999/xlink">
<g id="graph0" class="graph" transform="scale(1 1) rotate(0) translate(4 214)">
<title>G</title>
<polygon fill="white" stroke="none" points="-4,4 -4,-214 382.792,-214 382.792,4 -4,4"/>
<!-- Wooden_Stake -->
<g id="node1" class="node"><title>Wooden_Stake</title>
<ellipse fill="none" stroke="black" cx="256.792" cy="-105" rx="67.6881" ry="18"/>
<text text-anchor="middle" x="256.792" y="-101.3" font-family="Times New Roman,serif" font-size="14.00">Wooden_Stake</text>
</g>
<!-- ASH_Ophelia -->
<g id="node5" class="node"><title>ASH_Ophelia</title>
<ellipse fill="none" stroke="black" cx="147.792" cy="-18" rx="61.99" ry="18"/>
<text text-anchor="middle" x="147.792" y="-14.3" font-family="Times New Roman,serif" font-size="14.00">ASH_Ophelia</text>
</g>
<!-- Wooden_Stake&#45;&gt;ASH_Ophelia -->
<g id="edge1" class="edge"><title>Wooden_Stake&#45;&gt;ASH_Ophelia</title>
<path fill="none" stroke="black" d="M236.034,-87.8121C219.139,-74.637 195.111,-55.9001 176.394,-41.304"/>
<polygon fill="black" stroke="black" points="178.512,-38.5171 168.474,-35.1277 174.207,-44.0371 178.512,-38.5171"/>
<text text-anchor="middle" x="237.792" y="-57.8" font-family="Times New Roman,serif" font-size="14.00">Crafting 0</text>
</g>
<!-- Dagger -->
<g id="node2" class="node"><title>Dagger</title>
<ellipse fill="none" stroke="black" cx="175.792" cy="-192" rx="36.2938" ry="18"/>
<text text-anchor="middle" x="175.792" y="-188.3" font-family="Times New Roman,serif" font-size="14.00">Dagger</text>
</g>
<!-- Dagger&#45;&gt;Wooden_Stake -->
<g id="edge2" class="edge"><title>Dagger&#45;&gt;Wooden_Stake</title>
<path fill="none" stroke="black" d="M180.031,-173.747C183.269,-163.343 188.596,-150.342 196.792,-141 201.714,-135.391 207.761,-130.449 214.103,-126.179"/>
<polygon fill="black" stroke="black" points="216.186,-129.006 222.855,-120.773 212.508,-123.05 216.186,-129.006"/>
<text text-anchor="middle" x="224.792" y="-144.8" font-family="Times New Roman,serif" font-size="14.00">Crafting 0</text>
</g>
<!-- Log -->
<g id="node3" class="node"><title>Log</title>
<ellipse fill="none" stroke="black" cx="256.792" cy="-192" rx="27" ry="18"/>
<text text-anchor="middle" x="256.792" y="-188.3" font-family="Times New Roman,serif" font-size="14.00">Log</text>
</g>
<!-- Log&#45;&gt;Wooden_Stake -->
<g id="edge3" class="edge"><title>Log&#45;&gt;Wooden_Stake</title>
<path fill="none" stroke="black" d="M256.792,-173.799C256.792,-162.163 256.792,-146.548 256.792,-133.237"/>
<polygon fill="black" stroke="black" points="260.292,-133.175 256.792,-123.175 253.292,-133.175 260.292,-133.175"/>
<text text-anchor="middle" x="284.792" y="-144.8" font-family="Times New Roman,serif" font-size="14.00">Crafting 0</text>
</g>
<!-- DAF_COR_Ophelia -->
<g id="node4" class="node"><title>DAF_COR_Ophelia</title>
<ellipse fill="none" stroke="black" cx="85.7924" cy="-105" rx="85.5853" ry="18"/>
<text text-anchor="middle" x="85.7924" y="-101.3" font-family="Times New Roman,serif" font-size="14.00">DAF_COR_Ophelia</text>
</g>
<!-- DAF_COR_Ophelia&#45;&gt;ASH_Ophelia -->
<g id="edge4" class="edge"><title>DAF_COR_Ophelia&#45;&gt;ASH_Ophelia</title>
<path fill="none" stroke="black" d="M98.339,-86.799C107.306,-74.5062 119.51,-57.7736 129.552,-44.0073"/>
<polygon fill="black" stroke="black" points="132.411,-46.0271 135.476,-35.8854 126.755,-41.9019 132.411,-46.0271"/>
<text text-anchor="middle" x="148.792" y="-57.8" font-family="Times New Roman,serif" font-size="14.00">Crafting 0</text>
</g>
<!-- Knife -->
<g id="node6" class="node"><title>Knife</title>
<ellipse fill="none" stroke="black" cx="335.792" cy="-192" rx="30.5947" ry="18"/>
<text text-anchor="middle" x="335.792" y="-188.3" font-family="Times New Roman,serif" font-size="14.00">Knife</text>
</g>
<!-- Knife&#45;&gt;Wooden_Stake -->
<g id="edge5" class="edge"><title>Knife&#45;&gt;Wooden_Stake</title>
<path fill="none" stroke="black" d="M331.1,-173.811C327.614,-163.432 322.022,-150.434 313.792,-141 309.017,-135.525 303.171,-130.636 297.063,-126.373"/>
<polygon fill="black" stroke="black" points="298.95,-123.426 288.648,-120.952 295.159,-129.31 298.95,-123.426"/>
<text text-anchor="middle" x="350.792" y="-144.8" font-family="Times New Roman,serif" font-size="14.00">Crafting 0</text>
</g>
</g>
</svg>
