<?xml version="1.0" encoding="UTF-8" standalone="no"?>
<!DOCTYPE svg PUBLIC "-//W3C//DTD SVG 1.1//EN"
 "http://www.w3.org/Graphics/SVG/1.1/DTD/svg11.dtd">
<!-- Generated by graphviz version 2.38.0 (20140413.2041)
 -->
<!-- Title: G Pages: 1 -->
<svg width="428pt" height="305pt"
 viewBox="0.00 0.00 427.64 305.00" xmlns="http://www.w3.org/2000/svg" xmlns:xlink="http://www.w3.org/1999/xlink">
<g id="graph0" class="graph" transform="scale(1 1) rotate(0) translate(4 301)">
<title>G</title>
<polygon fill="white" stroke="none" points="-4,4 -4,-301 423.644,-301 423.644,4 -4,4"/>
<!-- OreBar_A_Steel -->
<g id="node1" class="node"><title>OreBar_A_Steel</title>
<ellipse fill="none" stroke="black" cx="171.547" cy="-105" rx="70.6878" ry="18"/>
<text text-anchor="middle" x="171.547" y="-101.3" font-family="Times New Roman,serif" font-size="14.00">OreBar_A_Steel</text>
</g>
<!-- Axe_A_1_Axe_B -->
<g id="node6" class="node"><title>Axe_A_1_Axe_B</title>
<ellipse fill="none" stroke="black" cx="101.547" cy="-18" rx="76.0865" ry="18"/>
<text text-anchor="middle" x="101.547" y="-14.3" font-family="Times New Roman,serif" font-size="14.00">Axe_A_1_Axe_B</text>
</g>
<!-- OreBar_A_Steel&#45;&gt;Axe_A_1_Axe_B -->
<g id="edge1" class="edge"><title>OreBar_A_Steel&#45;&gt;Axe_A_1_Axe_B</title>
<path fill="none" stroke="black" d="M157.718,-87.2067C147.459,-74.7499 133.314,-57.5734 121.785,-43.5741"/>
<polygon fill="black" stroke="black" points="124.407,-41.2527 115.348,-35.7584 119.004,-45.7027 124.407,-41.2527"/>
<text text-anchor="middle" x="169.547" y="-57.8" font-family="Times New Roman,serif" font-size="14.00">Crafting 4</text>
</g>
<!-- Sword -->
<g id="node2" class="node"><title>Sword</title>
<ellipse fill="none" stroke="black" cx="384.547" cy="-279" rx="35.194" ry="18"/>
<text text-anchor="middle" x="384.547" y="-275.3" font-family="Times New Roman,serif" font-size="14.00">Sword</text>
</g>
<!-- OreBar_A_Iron -->
<g id="node5" class="node"><title>OreBar_A_Iron</title>
<ellipse fill="none" stroke="black" cx="171.547" cy="-192" rx="68.4888" ry="18"/>
<text text-anchor="middle" x="171.547" y="-188.3" font-family="Times New Roman,serif" font-size="14.00">OreBar_A_Iron</text>
</g>
<!-- Sword&#45;&gt;OreBar_A_Iron -->
<g id="edge7" class="edge"><title>Sword&#45;&gt;OreBar_A_Iron</title>
<path fill="none" stroke="black" d="M363.944,-264.375C346.56,-253.357 320.714,-238.071 296.547,-228 275.985,-219.431 252.666,-212.261 231.785,-206.688"/>
<polygon fill="black" stroke="black" points="232.627,-203.29 222.068,-204.161 230.865,-210.065 232.627,-203.29"/>
<text text-anchor="middle" x="354.547" y="-231.8" font-family="Times New Roman,serif" font-size="14.00">Crafting 1</text>
</g>
<!-- Anvil -->
<g id="node3" class="node"><title>Anvil</title>
<ellipse fill="none" stroke="black" cx="52.5473" cy="-105" rx="29.795" ry="18"/>
<text text-anchor="middle" x="52.5473" y="-101.3" font-family="Times New Roman,serif" font-size="14.00">Anvil</text>
</g>
<!-- Anvil&#45;&gt;Axe_A_1_Axe_B -->
<g id="edge4" class="edge"><title>Anvil&#45;&gt;Axe_A_1_Axe_B</title>
<path fill="none" stroke="black" d="M58.2571,-87.2327C61.9769,-77.2512 67.2946,-64.522 73.5473,-54 75.5908,-50.5612 77.9427,-47.0921 80.3967,-43.7436"/>
<polygon fill="black" stroke="black" points="83.2293,-45.8022 86.5895,-35.7543 77.6968,-41.5137 83.2293,-45.8022"/>
<text text-anchor="middle" x="101.547" y="-57.8" font-family="Times New Roman,serif" font-size="14.00">Crafting 4</text>
</g>
<!-- Bone_A_Iron -->
<g id="node4" class="node"><title>Bone_A_Iron</title>
<ellipse fill="none" stroke="black" cx="140.547" cy="-279" rx="61.1893" ry="18"/>
<text text-anchor="middle" x="140.547" y="-275.3" font-family="Times New Roman,serif" font-size="14.00">Bone_A_Iron</text>
</g>
<!-- Bone_A_Iron&#45;&gt;OreBar_A_Iron -->
<g id="edge5" class="edge"><title>Bone_A_Iron&#45;&gt;OreBar_A_Iron</title>
<path fill="none" stroke="black" d="M146.821,-260.799C151.106,-249.047 156.872,-233.238 161.758,-219.842"/>
<polygon fill="black" stroke="black" points="165.145,-220.769 165.283,-210.175 158.569,-218.371 165.145,-220.769"/>
<text text-anchor="middle" x="186.547" y="-231.8" font-family="Times New Roman,serif" font-size="14.00">Crafting 0</text>
</g>
<!-- OreBar_A_Iron&#45;&gt;OreBar_A_Steel -->
<g id="edge6" class="edge"><title>OreBar_A_Iron&#45;&gt;OreBar_A_Steel</title>
<path fill="none" stroke="black" d="M171.547,-173.799C171.547,-162.163 171.547,-146.548 171.547,-133.237"/>
<polygon fill="black" stroke="black" points="175.047,-133.175 171.547,-123.175 168.047,-133.175 175.047,-133.175"/>
<text text-anchor="middle" x="199.547" y="-144.8" font-family="Times New Roman,serif" font-size="14.00">Crafting 1</text>
</g>
<!-- Oven -->
<g id="node7" class="node"><title>Oven</title>
<ellipse fill="none" stroke="black" cx="30.5473" cy="-279" rx="30.5947" ry="18"/>
<text text-anchor="middle" x="30.5473" y="-275.3" font-family="Times New Roman,serif" font-size="14.00">Oven</text>
</g>
<!-- Oven&#45;&gt;OreBar_A_Steel -->
<g id="edge2" class="edge"><title>Oven&#45;&gt;OreBar_A_Steel</title>
<path fill="none" stroke="black" d="M27.1083,-260.897C23.6634,-238.847 21.083,-200.227 38.5473,-174 55.7123,-148.223 85.8047,-131.698 113.028,-121.402"/>
<polygon fill="black" stroke="black" points="114.272,-124.674 122.512,-118.015 111.918,-118.082 114.272,-124.674"/>
<text text-anchor="middle" x="66.5473" y="-188.3" font-family="Times New Roman,serif" font-size="14.00">Crafting 1</text>
</g>
<!-- Oven&#45;&gt;OreBar_A_Iron -->
<g id="edge3" class="edge"><title>Oven&#45;&gt;OreBar_A_Iron</title>
<path fill="none" stroke="black" d="M46.8693,-263.483C59.3554,-252.828 77.3045,-238.451 94.5473,-228 104.454,-221.995 115.567,-216.368 126.203,-211.455"/>
<polygon fill="black" stroke="black" points="127.696,-214.621 135.384,-207.33 124.828,-208.236 127.696,-214.621"/>
<text text-anchor="middle" x="122.547" y="-231.8" font-family="Times New Roman,serif" font-size="14.00">Crafting 1</text>
</g>
<!-- Axe -->
<g id="node8" class="node"><title>Axe</title>
<ellipse fill="none" stroke="black" cx="284.547" cy="-192" rx="27" ry="18"/>
<text text-anchor="middle" x="284.547" y="-188.3" font-family="Times New Roman,serif" font-size="14.00">Axe</text>
</g>
<!-- Axe&#45;&gt;OreBar_A_Steel -->
<g id="edge8" class="edge"><title>Axe&#45;&gt;OreBar_A_Steel</title>
<path fill="none" stroke="black" d="M270.498,-176.039C260.25,-165.566 245.729,-151.607 231.547,-141 224.893,-136.023 217.474,-131.19 210.184,-126.783"/>
<polygon fill="black" stroke="black" points="211.483,-123.488 201.086,-121.451 207.944,-129.527 211.483,-123.488"/>
<text text-anchor="middle" x="275.547" y="-144.8" font-family="Times New Roman,serif" font-size="14.00">Crafting 1</text>
</g>
<!-- Ore_A_Iron -->
<g id="node9" class="node"><title>Ore_A_Iron</title>
<ellipse fill="none" stroke="black" cx="275.547" cy="-279" rx="55.7903" ry="18"/>
<text text-anchor="middle" x="275.547" y="-275.3" font-family="Times New Roman,serif" font-size="14.00">Ore_A_Iron</text>
</g>
<!-- Ore_A_Iron&#45;&gt;OreBar_A_Iron -->
<g id="edge9" class="edge"><title>Ore_A_Iron&#45;&gt;OreBar_A_Iron</title>
<path fill="none" stroke="black" d="M257.892,-261.862C246.79,-251.879 232.057,-238.927 218.547,-228 213.233,-223.702 207.47,-219.248 201.861,-215.018"/>
<polygon fill="black" stroke="black" points="203.932,-212.196 193.823,-209.023 199.747,-217.807 203.932,-212.196"/>
<text text-anchor="middle" x="264.547" y="-231.8" font-family="Times New Roman,serif" font-size="14.00">Crafting 0</text>
</g>
</g>
</svg>
