<?xml version="1.0" encoding="UTF-8" standalone="no"?>
<!DOCTYPE svg PUBLIC "-//W3C//DTD SVG 1.1//EN"
 "http://www.w3.org/Graphics/SVG/1.1/DTD/svg11.dtd">
<!-- Generated by graphviz version 2.38.0 (20140413.2041)
 -->
<!-- Title: G Pages: 1 -->
<svg width="169pt" height="131pt"
 viewBox="0.00 0.00 169.10 131.00" xmlns="http://www.w3.org/2000/svg" xmlns:xlink="http://www.w3.org/1999/xlink">
<g id="graph0" class="graph" transform="scale(1 1) rotate(0) translate(4 127)">
<title>G</title>
<polygon fill="white" stroke="none" points="-4,4 -4,-127 165.097,-127 165.097,4 -4,4"/>
<!-- Dough -->
<g id="node1" class="node"><title>Dough</title>
<ellipse fill="none" stroke="black" cx="35.0969" cy="-105" rx="35.194" ry="18"/>
<text text-anchor="middle" x="35.0969" y="-101.3" font-family="Times New Roman,serif" font-size="14.00">Dough</text>
</g>
<!-- Bread -->
<g id="node3" class="node"><title>Bread</title>
<ellipse fill="none" stroke="black" cx="77.0969" cy="-18" rx="32.4942" ry="18"/>
<text text-anchor="middle" x="77.0969" y="-14.3" font-family="Times New Roman,serif" font-size="14.00">Bread</text>
</g>
<!-- Dough&#45;&gt;Bread -->
<g id="edge1" class="edge"><title>Dough&#45;&gt;Bread</title>
<path fill="none" stroke="black" d="M34.3636,-86.9892C34.5882,-76.9215 36.0567,-64.187 41.0969,-54 43.6095,-48.9216 47.1671,-44.1657 51.077,-39.8959"/>
<polygon fill="black" stroke="black" points="53.6545,-42.2703 58.3456,-32.7706 48.7543,-37.2715 53.6545,-42.2703"/>
<text text-anchor="middle" x="69.0969" y="-57.8" font-family="Times New Roman,serif" font-size="14.00">Crafting 0</text>
</g>
<!-- Oven -->
<g id="node2" class="node"><title>Oven</title>
<ellipse fill="none" stroke="black" cx="119.097" cy="-105" rx="30.5947" ry="18"/>
<text text-anchor="middle" x="119.097" y="-101.3" font-family="Times New Roman,serif" font-size="14.00">Oven</text>
</g>
<!-- Oven&#45;&gt;Bread -->
<g id="edge2" class="edge"><title>Oven&#45;&gt;Bread</title>
<path fill="none" stroke="black" d="M112.194,-87.1302C108.06,-77.3402 102.56,-64.8402 97.0969,-54 95.4728,-50.7775 93.6916,-47.4333 91.8825,-44.147"/>
<polygon fill="black" stroke="black" points="94.7857,-42.1705 86.817,-35.1884 88.6923,-45.616 94.7857,-42.1705"/>
<text text-anchor="middle" x="133.097" y="-57.8" font-family="Times New Roman,serif" font-size="14.00">Crafting 0</text>
</g>
</g>
</svg>
