<?xml version="1.0" encoding="UTF-8" standalone="no"?>
<!DOCTYPE svg PUBLIC "-//W3C//DTD SVG 1.1//EN"
 "http://www.w3.org/Graphics/SVG/1.1/DTD/svg11.dtd">
<!-- Generated by graphviz version 2.38.0 (20140413.2041)
 -->
<!-- Title: G Pages: 1 -->
<svg width="596pt" height="305pt"
 viewBox="0.00 0.00 595.79 305.00" xmlns="http://www.w3.org/2000/svg" xmlns:xlink="http://www.w3.org/1999/xlink">
<g id="graph0" class="graph" transform="scale(1 1) rotate(0) translate(4 301)">
<title>G</title>
<polygon fill="white" stroke="none" points="-4,4 -4,-301 591.788,-301 591.788,4 -4,4"/>
<!-- OreBar_A_Iron_A_Large -->
<g id="node1" class="node"><title>OreBar_A_Iron_A_Large</title>
<ellipse fill="none" stroke="black" cx="197.691" cy="-105" rx="104.782" ry="18"/>
<text text-anchor="middle" x="197.691" y="-101.3" font-family="Times New Roman,serif" font-size="14.00">OreBar_A_Iron_A_Large</text>
</g>
<!-- CeremonialSword_2H_B -->
<g id="node7" class="node"><title>CeremonialSword_2H_B</title>
<ellipse fill="none" stroke="black" cx="102.691" cy="-18" rx="102.882" ry="18"/>
<text text-anchor="middle" x="102.691" y="-14.3" font-family="Times New Roman,serif" font-size="14.00">CeremonialSword_2H_B</text>
</g>
<!-- OreBar_A_Iron_A_Large&#45;&gt;CeremonialSword_2H_B -->
<g id="edge1" class="edge"><title>OreBar_A_Iron_A_Large&#45;&gt;CeremonialSword_2H_B</title>
<path fill="none" stroke="black" d="M178.922,-87.2067C164.739,-74.517 145.083,-56.9297 129.283,-42.7925"/>
<polygon fill="black" stroke="black" points="131.207,-39.818 121.421,-35.7584 126.539,-45.0347 131.207,-39.818"/>
<text text-anchor="middle" x="184.691" y="-57.8" font-family="Times New Roman,serif" font-size="14.00">Crafting 2</text>
</g>
<!-- Sword -->
<g id="node2" class="node"><title>Sword</title>
<ellipse fill="none" stroke="black" cx="552.691" cy="-279" rx="35.194" ry="18"/>
<text text-anchor="middle" x="552.691" y="-275.3" font-family="Times New Roman,serif" font-size="14.00">Sword</text>
</g>
<!-- OreBar_A_Iron -->
<g id="node6" class="node"><title>OreBar_A_Iron</title>
<ellipse fill="none" stroke="black" cx="339.691" cy="-192" rx="68.4888" ry="18"/>
<text text-anchor="middle" x="339.691" y="-188.3" font-family="Times New Roman,serif" font-size="14.00">OreBar_A_Iron</text>
</g>
<!-- Sword&#45;&gt;OreBar_A_Iron -->
<g id="edge6" class="edge"><title>Sword&#45;&gt;OreBar_A_Iron</title>
<path fill="none" stroke="black" d="M531.564,-264.432C513.753,-253.447 487.302,-238.179 462.691,-228 442.503,-219.651 419.662,-212.549 399.191,-206.969"/>
<polygon fill="black" stroke="black" points="399.917,-203.541 389.353,-204.353 398.118,-210.306 399.917,-203.541"/>
<text text-anchor="middle" x="520.691" y="-231.8" font-family="Times New Roman,serif" font-size="14.00">Crafting 1</text>
</g>
<!-- TwoHandedSword -->
<g id="node3" class="node"><title>TwoHandedSword</title>
<ellipse fill="none" stroke="black" cx="80.6909" cy="-192" rx="80.6858" ry="18"/>
<text text-anchor="middle" x="80.6909" y="-188.3" font-family="Times New Roman,serif" font-size="14.00">TwoHandedSword</text>
</g>
<!-- TwoHandedSword&#45;&gt;OreBar_A_Iron_A_Large -->
<g id="edge3" class="edge"><title>TwoHandedSword&#45;&gt;OreBar_A_Iron_A_Large</title>
<path fill="none" stroke="black" d="M94.2113,-173.782C102.975,-163.391 115.077,-150.391 127.691,-141 134.817,-135.694 142.87,-130.815 150.912,-126.491"/>
<polygon fill="black" stroke="black" points="152.642,-129.537 159.935,-121.852 149.442,-123.312 152.642,-129.537"/>
<text text-anchor="middle" x="155.691" y="-144.8" font-family="Times New Roman,serif" font-size="14.00">Crafting 1</text>
</g>
<!-- Anvil -->
<g id="node4" class="node"><title>Anvil</title>
<ellipse fill="none" stroke="black" cx="44.6909" cy="-105" rx="29.795" ry="18"/>
<text text-anchor="middle" x="44.6909" y="-101.3" font-family="Times New Roman,serif" font-size="14.00">Anvil</text>
</g>
<!-- Anvil&#45;&gt;CeremonialSword_2H_B -->
<g id="edge2" class="edge"><title>Anvil&#45;&gt;CeremonialSword_2H_B</title>
<path fill="none" stroke="black" d="M55.6002,-88.0122C63.9701,-75.746 75.6873,-58.5742 85.3397,-44.4285"/>
<polygon fill="black" stroke="black" points="88.289,-46.3158 91.0344,-36.0828 82.5069,-42.3703 88.289,-46.3158"/>
<text text-anchor="middle" x="105.691" y="-57.8" font-family="Times New Roman,serif" font-size="14.00">Crafting 2</text>
</g>
<!-- Bone_A_Iron -->
<g id="node5" class="node"><title>Bone_A_Iron</title>
<ellipse fill="none" stroke="black" cx="308.691" cy="-279" rx="61.1893" ry="18"/>
<text text-anchor="middle" x="308.691" y="-275.3" font-family="Times New Roman,serif" font-size="14.00">Bone_A_Iron</text>
</g>
<!-- Bone_A_Iron&#45;&gt;OreBar_A_Iron -->
<g id="edge4" class="edge"><title>Bone_A_Iron&#45;&gt;OreBar_A_Iron</title>
<path fill="none" stroke="black" d="M314.964,-260.799C319.25,-249.047 325.016,-233.238 329.901,-219.842"/>
<polygon fill="black" stroke="black" points="333.289,-220.769 333.427,-210.175 326.712,-218.371 333.289,-220.769"/>
<text text-anchor="middle" x="353.691" y="-231.8" font-family="Times New Roman,serif" font-size="14.00">Crafting 0</text>
</g>
<!-- OreBar_A_Iron&#45;&gt;OreBar_A_Iron_A_Large -->
<g id="edge5" class="edge"><title>OreBar_A_Iron&#45;&gt;OreBar_A_Iron_A_Large</title>
<path fill="none" stroke="black" d="M313.315,-175.211C291.027,-161.87 258.875,-142.624 234.13,-127.812"/>
<polygon fill="black" stroke="black" points="235.759,-124.708 225.381,-122.575 232.163,-130.714 235.759,-124.708"/>
<text text-anchor="middle" x="305.691" y="-144.8" font-family="Times New Roman,serif" font-size="14.00">Crafting 0</text>
</g>
<!-- Oven -->
<g id="node8" class="node"><title>Oven</title>
<ellipse fill="none" stroke="black" cx="198.691" cy="-279" rx="30.5947" ry="18"/>
<text text-anchor="middle" x="198.691" y="-275.3" font-family="Times New Roman,serif" font-size="14.00">Oven</text>
</g>
<!-- Oven&#45;&gt;OreBar_A_Iron_A_Large -->
<g id="edge7" class="edge"><title>Oven&#45;&gt;OreBar_A_Iron_A_Large</title>
<path fill="none" stroke="black" d="M198.591,-260.879C198.418,-231.001 198.058,-169.113 197.849,-133.274"/>
<polygon fill="black" stroke="black" points="201.348,-133.031 197.79,-123.052 194.348,-133.072 201.348,-133.031"/>
<text text-anchor="middle" x="226.691" y="-188.3" font-family="Times New Roman,serif" font-size="14.00">Crafting 1</text>
</g>
<!-- Oven&#45;&gt;OreBar_A_Iron -->
<g id="edge8" class="edge"><title>Oven&#45;&gt;OreBar_A_Iron</title>
<path fill="none" stroke="black" d="M214.706,-263.438C226.971,-252.76 244.63,-238.374 261.691,-228 271.696,-221.916 282.942,-216.259 293.714,-211.342"/>
<polygon fill="black" stroke="black" points="295.291,-214.471 303.015,-207.22 292.454,-208.072 295.291,-214.471"/>
<text text-anchor="middle" x="289.691" y="-231.8" font-family="Times New Roman,serif" font-size="14.00">Crafting 1</text>
</g>
<!-- Ore_A_Iron -->
<g id="node9" class="node"><title>Ore_A_Iron</title>
<ellipse fill="none" stroke="black" cx="443.691" cy="-279" rx="55.7903" ry="18"/>
<text text-anchor="middle" x="443.691" y="-275.3" font-family="Times New Roman,serif" font-size="14.00">Ore_A_Iron</text>
</g>
<!-- Ore_A_Iron&#45;&gt;OreBar_A_Iron -->
<g id="edge9" class="edge"><title>Ore_A_Iron&#45;&gt;OreBar_A_Iron</title>
<path fill="none" stroke="black" d="M425.647,-261.947C414.32,-251.996 399.326,-239.047 385.691,-228 380.574,-223.854 375.058,-219.534 369.683,-215.401"/>
<polygon fill="black" stroke="black" points="371.507,-212.39 361.431,-209.113 367.264,-217.958 371.507,-212.39"/>
<text text-anchor="middle" x="430.691" y="-231.8" font-family="Times New Roman,serif" font-size="14.00">Crafting 0</text>
</g>
</g>
</svg>
