<?xml version="1.0" encoding="UTF-8" standalone="no"?>
<!DOCTYPE svg PUBLIC "-//W3C//DTD SVG 1.1//EN"
 "http://www.w3.org/Graphics/SVG/1.1/DTD/svg11.dtd">
<!-- Generated by graphviz version 2.38.0 (20140413.2041)
 -->
<!-- Title: G Pages: 1 -->
<svg width="687pt" height="392pt"
 viewBox="0.00 0.00 686.90 392.00" xmlns="http://www.w3.org/2000/svg" xmlns:xlink="http://www.w3.org/1999/xlink">
<g id="graph0" class="graph" transform="scale(1 1) rotate(0) translate(4 388)">
<title>G</title>
<polygon fill="white" stroke="none" points="-4,4 -4,-388 682.897,-388 682.897,4 -4,4"/>
<!-- Pouch_Dust_Pixie -->
<g id="node1" class="node"><title>Pouch_Dust_Pixie</title>
<ellipse fill="none" stroke="black" cx="408.897" cy="-192" rx="78.7863" ry="18"/>
<text text-anchor="middle" x="408.897" y="-188.3" font-family="Times New Roman,serif" font-size="14.00">Pouch_Dust_Pixie</text>
</g>
<!-- Foot_Chicken_A_Magic -->
<g id="node2" class="node"><title>Foot_Chicken_A_Magic</title>
<ellipse fill="none" stroke="black" cx="408.897" cy="-105" rx="101.282" ry="18"/>
<text text-anchor="middle" x="408.897" y="-101.3" font-family="Times New Roman,serif" font-size="14.00">Foot_Chicken_A_Magic</text>
</g>
<!-- Pouch_Dust_Pixie&#45;&gt;Foot_Chicken_A_Magic -->
<g id="edge1" class="edge"><title>Pouch_Dust_Pixie&#45;&gt;Foot_Chicken_A_Magic</title>
<path fill="none" stroke="black" d="M408.897,-173.799C408.897,-162.163 408.897,-146.548 408.897,-133.237"/>
<polygon fill="black" stroke="black" points="412.397,-133.175 408.897,-123.175 405.397,-133.175 412.397,-133.175"/>
<text text-anchor="middle" x="436.897" y="-144.8" font-family="Times New Roman,serif" font-size="14.00">Crafting 1</text>
</g>
<!-- Chicken_Claw_MagicBelt -->
<g id="node10" class="node"><title>Chicken_Claw_MagicBelt</title>
<ellipse fill="none" stroke="black" cx="498.897" cy="-18" rx="105.082" ry="18"/>
<text text-anchor="middle" x="498.897" y="-14.3" font-family="Times New Roman,serif" font-size="14.00">Chicken_Claw_MagicBelt</text>
</g>
<!-- Foot_Chicken_A_Magic&#45;&gt;Chicken_Claw_MagicBelt -->
<g id="edge2" class="edge"><title>Foot_Chicken_A_Magic&#45;&gt;Chicken_Claw_MagicBelt</title>
<path fill="none" stroke="black" d="M426.678,-87.2067C440.115,-74.517 458.737,-56.9297 473.705,-42.7925"/>
<polygon fill="black" stroke="black" points="476.286,-45.1692 481.153,-35.7584 471.48,-40.0801 476.286,-45.1692"/>
<text text-anchor="middle" x="486.897" y="-57.8" font-family="Times New Roman,serif" font-size="14.00">Crafting 2</text>
</g>
<!-- Pouch_Dust_Bone -->
<g id="node3" class="node"><title>Pouch_Dust_Bone</title>
<ellipse fill="none" stroke="black" cx="141.897" cy="-279" rx="79.8859" ry="18"/>
<text text-anchor="middle" x="141.897" y="-275.3" font-family="Times New Roman,serif" font-size="14.00">Pouch_Dust_Bone</text>
</g>
<!-- Pouch_Dust_Bone&#45;&gt;Pouch_Dust_Pixie -->
<g id="edge3" class="edge"><title>Pouch_Dust_Bone&#45;&gt;Pouch_Dust_Pixie</title>
<path fill="none" stroke="black" d="M183.515,-263.595C213.326,-253.384 254.473,-239.51 290.897,-228 310.855,-221.694 332.816,-215.089 352.324,-209.338"/>
<polygon fill="black" stroke="black" points="353.372,-212.678 361.981,-206.502 351.4,-205.962 353.372,-212.678"/>
<text text-anchor="middle" x="318.897" y="-231.8" font-family="Times New Roman,serif" font-size="14.00">Crafting 0</text>
</g>
<!-- Foot_Chicken -->
<g id="node4" class="node"><title>Foot_Chicken</title>
<ellipse fill="none" stroke="black" cx="248.897" cy="-192" rx="63.0888" ry="18"/>
<text text-anchor="middle" x="248.897" y="-188.3" font-family="Times New Roman,serif" font-size="14.00">Foot_Chicken</text>
</g>
<!-- Foot_Chicken&#45;&gt;Foot_Chicken_A_Magic -->
<g id="edge4" class="edge"><title>Foot_Chicken&#45;&gt;Foot_Chicken_A_Magic</title>
<path fill="none" stroke="black" d="M277.502,-175.804C303.132,-162.188 340.968,-142.088 369.464,-126.949"/>
<polygon fill="black" stroke="black" points="371.172,-130.005 378.361,-122.222 367.888,-123.823 371.172,-130.005"/>
<text text-anchor="middle" x="365.897" y="-144.8" font-family="Times New Roman,serif" font-size="14.00">Crafting 1</text>
</g>
<!-- Rope -->
<g id="node5" class="node"><title>Rope</title>
<ellipse fill="none" stroke="black" cx="569.897" cy="-105" rx="30.5947" ry="18"/>
<text text-anchor="middle" x="569.897" y="-101.3" font-family="Times New Roman,serif" font-size="14.00">Rope</text>
</g>
<!-- Rope&#45;&gt;Chicken_Claw_MagicBelt -->
<g id="edge6" class="edge"><title>Rope&#45;&gt;Chicken_Claw_MagicBelt</title>
<path fill="none" stroke="black" d="M556.875,-88.4097C546.501,-75.9898 531.776,-58.3614 519.762,-43.9785"/>
<polygon fill="black" stroke="black" points="522.152,-41.38 513.055,-35.949 516.779,-45.8676 522.152,-41.38"/>
<text text-anchor="middle" x="565.897" y="-57.8" font-family="Times New Roman,serif" font-size="14.00">Crafting 2</text>
</g>
<!-- Moonstone -->
<g id="node6" class="node"><title>Moonstone</title>
<ellipse fill="none" stroke="black" cx="584.897" cy="-366" rx="51.9908" ry="18"/>
<text text-anchor="middle" x="584.897" y="-362.3" font-family="Times New Roman,serif" font-size="14.00">Moonstone</text>
</g>
<!-- Pouch_Dust_Moon -->
<g id="node15" class="node"><title>Pouch_Dust_Moon</title>
<ellipse fill="none" stroke="black" cx="505.897" cy="-279" rx="83.3857" ry="18"/>
<text text-anchor="middle" x="505.897" y="-275.3" font-family="Times New Roman,serif" font-size="14.00">Pouch_Dust_Moon</text>
</g>
<!-- Moonstone&#45;&gt;Pouch_Dust_Moon -->
<g id="edge7" class="edge"><title>Moonstone&#45;&gt;Pouch_Dust_Moon</title>
<path fill="none" stroke="black" d="M580.205,-347.811C576.718,-337.432 571.127,-324.434 562.897,-315 558.435,-309.885 553.039,-305.281 547.368,-301.221"/>
<polygon fill="black" stroke="black" points="549.215,-298.247 538.939,-295.667 545.364,-304.092 549.215,-298.247"/>
<text text-anchor="middle" x="599.897" y="-318.8" font-family="Times New Roman,serif" font-size="14.00">Crafting 0</text>
</g>
<!-- Pouch_Dust_Star -->
<g id="node7" class="node"><title>Pouch_Dust_Star</title>
<ellipse fill="none" stroke="black" cx="328.897" cy="-279" rx="75.2868" ry="18"/>
<text text-anchor="middle" x="328.897" y="-275.3" font-family="Times New Roman,serif" font-size="14.00">Pouch_Dust_Star</text>
</g>
<!-- Pouch_Dust_Star&#45;&gt;Pouch_Dust_Pixie -->
<g id="edge8" class="edge"><title>Pouch_Dust_Star&#45;&gt;Pouch_Dust_Pixie</title>
<path fill="none" stroke="black" d="M338.675,-260.783C344.887,-250.642 353.508,-237.903 362.897,-228 366.967,-223.708 371.6,-219.537 376.323,-215.659"/>
<polygon fill="black" stroke="black" points="378.552,-218.359 384.271,-209.44 374.238,-212.846 378.552,-218.359"/>
<text text-anchor="middle" x="390.897" y="-231.8" font-family="Times New Roman,serif" font-size="14.00">Crafting 0</text>
</g>
<!-- Bone -->
<g id="node8" class="node"><title>Bone</title>
<ellipse fill="none" stroke="black" cx="29.8973" cy="-366" rx="29.795" ry="18"/>
<text text-anchor="middle" x="29.8973" y="-362.3" font-family="Times New Roman,serif" font-size="14.00">Bone</text>
</g>
<!-- Bone&#45;&gt;Pouch_Dust_Bone -->
<g id="edge15" class="edge"><title>Bone&#45;&gt;Pouch_Dust_Bone</title>
<path fill="none" stroke="black" d="M43.3752,-349.456C52.9318,-338.977 66.4073,-325.248 79.8973,-315 86.4719,-310.006 93.8366,-305.235 101.132,-300.91"/>
<polygon fill="black" stroke="black" points="103.323,-303.689 110.27,-295.689 99.8506,-297.611 103.323,-303.689"/>
<text text-anchor="middle" x="107.897" y="-318.8" font-family="Times New Roman,serif" font-size="14.00">Crafting 0</text>
</g>
<!-- Skull_Human -->
<g id="node9" class="node"><title>Skull_Human</title>
<ellipse fill="none" stroke="black" cx="137.897" cy="-366" rx="59.5901" ry="18"/>
<text text-anchor="middle" x="137.897" y="-362.3" font-family="Times New Roman,serif" font-size="14.00">Skull_Human</text>
</g>
<!-- Skull_Human&#45;&gt;Pouch_Dust_Bone -->
<g id="edge14" class="edge"><title>Skull_Human&#45;&gt;Pouch_Dust_Bone</title>
<path fill="none" stroke="black" d="M138.707,-347.799C139.254,-336.163 139.989,-320.548 140.616,-307.237"/>
<polygon fill="black" stroke="black" points="144.115,-307.329 141.089,-297.175 137.123,-307 144.115,-307.329"/>
<text text-anchor="middle" x="168.897" y="-318.8" font-family="Times New Roman,serif" font-size="14.00">Crafting 0</text>
</g>
<!-- Herb_Stardust -->
<g id="node11" class="node"><title>Herb_Stardust</title>
<ellipse fill="none" stroke="black" cx="278.897" cy="-366" rx="63.8893" ry="18"/>
<text text-anchor="middle" x="278.897" y="-362.3" font-family="Times New Roman,serif" font-size="14.00">Herb_Stardust</text>
</g>
<!-- Herb_Stardust&#45;&gt;Pouch_Dust_Star -->
<g id="edge12" class="edge"><title>Herb_Stardust&#45;&gt;Pouch_Dust_Star</title>
<path fill="none" stroke="black" d="M270.379,-347.827C266.633,-337.702 264.223,-324.964 269.897,-315 273.069,-309.431 277.514,-304.657 282.557,-300.589"/>
<polygon fill="black" stroke="black" points="284.692,-303.367 290.878,-294.766 280.678,-297.632 284.692,-303.367"/>
<text text-anchor="middle" x="297.897" y="-318.8" font-family="Times New Roman,serif" font-size="14.00">Crafting 0</text>
</g>
<!-- Wool -->
<g id="node12" class="node"><title>Wool</title>
<ellipse fill="none" stroke="black" cx="637.897" cy="-279" rx="31.3957" ry="18"/>
<text text-anchor="middle" x="637.897" y="-275.3" font-family="Times New Roman,serif" font-size="14.00">Wool</text>
</g>
<!-- Yarn_A_Wool -->
<g id="node13" class="node"><title>Yarn_A_Wool</title>
<ellipse fill="none" stroke="black" cx="603.897" cy="-192" rx="64.9885" ry="18"/>
<text text-anchor="middle" x="603.897" y="-188.3" font-family="Times New Roman,serif" font-size="14.00">Yarn_A_Wool</text>
</g>
<!-- Wool&#45;&gt;Yarn_A_Wool -->
<g id="edge13" class="edge"><title>Wool&#45;&gt;Yarn_A_Wool</title>
<path fill="none" stroke="black" d="M631.18,-261.207C626.415,-249.293 619.923,-233.063 614.467,-219.424"/>
<polygon fill="black" stroke="black" points="617.681,-218.034 610.717,-210.049 611.181,-220.634 617.681,-218.034"/>
<text text-anchor="middle" x="650.897" y="-231.8" font-family="Times New Roman,serif" font-size="14.00">Crafting 0</text>
</g>
<!-- Yarn_A_Wool&#45;&gt;Rope -->
<g id="edge5" class="edge"><title>Yarn_A_Wool&#45;&gt;Rope</title>
<path fill="none" stroke="black" d="M597.017,-173.799C592.208,-161.776 585.7,-145.506 580.265,-131.918"/>
<polygon fill="black" stroke="black" points="583.5,-130.582 576.536,-122.597 577,-133.182 583.5,-130.582"/>
<text text-anchor="middle" x="616.897" y="-144.8" font-family="Times New Roman,serif" font-size="14.00">Crafting 0</text>
</g>
<!-- MortarPestle -->
<g id="node14" class="node"><title>MortarPestle</title>
<ellipse fill="none" stroke="black" cx="426.897" cy="-366" rx="57.3905" ry="18"/>
<text text-anchor="middle" x="426.897" y="-362.3" font-family="Times New Roman,serif" font-size="14.00">MortarPestle</text>
</g>
<!-- MortarPestle&#45;&gt;Pouch_Dust_Bone -->
<g id="edge9" class="edge"><title>MortarPestle&#45;&gt;Pouch_Dust_Bone</title>
<path fill="none" stroke="black" d="M390.779,-351.99C376.111,-346.098 359.271,-338.535 344.897,-330 335.647,-324.507 335.685,-319.467 325.897,-315 315.506,-310.258 261.094,-300.178 214.112,-292.048"/>
<polygon fill="black" stroke="black" points="214.667,-288.592 204.218,-290.345 213.48,-295.491 214.667,-288.592"/>
<text text-anchor="middle" x="372.897" y="-318.8" font-family="Times New Roman,serif" font-size="14.00">Crafting 0</text>
</g>
<!-- MortarPestle&#45;&gt;Pouch_Dust_Star -->
<g id="edge10" class="edge"><title>MortarPestle&#45;&gt;Pouch_Dust_Star</title>
<path fill="none" stroke="black" d="M422.74,-347.931C419.416,-337.337 413.806,-324.062 404.897,-315 398.391,-308.382 390.398,-302.887 382.067,-298.367"/>
<polygon fill="black" stroke="black" points="383.46,-295.151 372.947,-293.838 380.347,-301.42 383.46,-295.151"/>
<text text-anchor="middle" x="442.897" y="-318.8" font-family="Times New Roman,serif" font-size="14.00">Crafting 0</text>
</g>
<!-- MortarPestle&#45;&gt;Pouch_Dust_Moon -->
<g id="edge11" class="edge"><title>MortarPestle&#45;&gt;Pouch_Dust_Moon</title>
<path fill="none" stroke="black" d="M457.57,-350.747C466.926,-345.276 476.645,-338.313 483.897,-330 489.748,-323.293 494.265,-314.785 497.641,-306.697"/>
<polygon fill="black" stroke="black" points="500.972,-307.781 501.205,-297.189 494.418,-305.324 500.972,-307.781"/>
<text text-anchor="middle" x="520.897" y="-318.8" font-family="Times New Roman,serif" font-size="14.00">Crafting 0</text>
</g>
<!-- Pouch_Dust_Moon&#45;&gt;Pouch_Dust_Pixie -->
<g id="edge16" class="edge"><title>Pouch_Dust_Moon&#45;&gt;Pouch_Dust_Pixie</title>
<path fill="none" stroke="black" d="M486.733,-261.207C472.119,-248.401 451.813,-230.607 435.606,-216.404"/>
<polygon fill="black" stroke="black" points="437.849,-213.717 428.022,-209.758 433.236,-218.981 437.849,-213.717"/>
<text text-anchor="middle" x="490.897" y="-231.8" font-family="Times New Roman,serif" font-size="14.00">Crafting 0</text>
</g>
</g>
</svg>
