<?xml version="1.0" encoding="UTF-8" standalone="no"?>
<!DOCTYPE svg PUBLIC "-//W3C//DTD SVG 1.1//EN"
 "http://www.w3.org/Graphics/SVG/1.1/DTD/svg11.dtd">
<!-- Generated by graphviz version 2.38.0 (20140413.2041)
 -->
<!-- Title: G Pages: 1 -->
<svg width="221pt" height="131pt"
 viewBox="0.00 0.00 221.09 131.00" xmlns="http://www.w3.org/2000/svg" xmlns:xlink="http://www.w3.org/1999/xlink">
<g id="graph0" class="graph" transform="scale(1 1) rotate(0) translate(4 127)">
<title>G</title>
<polygon fill="white" stroke="none" points="-4,4 -4,-127 217.095,-127 217.095,4 -4,4"/>
<!-- Cloth_B_Boots -->
<g id="node1" class="node"><title>Cloth_B_Boots</title>
<ellipse fill="none" stroke="black" cx="115.095" cy="-18" rx="68.4888" ry="18"/>
<text text-anchor="middle" x="115.095" y="-14.3" font-family="Times New Roman,serif" font-size="14.00">Cloth_B_Boots</text>
</g>
<!-- Scraps_Cloth -->
<g id="node2" class="node"><title>Scraps_Cloth</title>
<ellipse fill="none" stroke="black" cx="61.0946" cy="-105" rx="61.1893" ry="18"/>
<text text-anchor="middle" x="61.0946" y="-101.3" font-family="Times New Roman,serif" font-size="14.00">Scraps_Cloth</text>
</g>
<!-- Scraps_Cloth&#45;&gt;Cloth_B_Boots -->
<g id="edge2" class="edge"><title>Scraps_Cloth&#45;&gt;Cloth_B_Boots</title>
<path fill="none" stroke="black" d="M71.6006,-86.8056C77.5517,-77.129 85.1696,-64.8471 92.0946,-54 94.0313,-50.9664 96.079,-47.7973 98.1223,-44.6587"/>
<polygon fill="black" stroke="black" points="101.222,-46.3142 103.774,-36.0312 95.3663,-42.4785 101.222,-46.3142"/>
<text text-anchor="middle" x="120.095" y="-57.8" font-family="Times New Roman,serif" font-size="14.00">Crafting 1</text>
</g>
<!-- Anvil -->
<g id="node3" class="node"><title>Anvil</title>
<ellipse fill="none" stroke="black" cx="170.095" cy="-105" rx="29.795" ry="18"/>
<text text-anchor="middle" x="170.095" y="-101.3" font-family="Times New Roman,serif" font-size="14.00">Anvil</text>
</g>
<!-- Anvil&#45;&gt;Cloth_B_Boots -->
<g id="edge1" class="edge"><title>Anvil&#45;&gt;Cloth_B_Boots</title>
<path fill="none" stroke="black" d="M164.302,-87.0546C160.472,-77.01 154.905,-64.2769 148.095,-54 145.587,-50.2169 142.658,-46.4627 139.598,-42.8957"/>
<polygon fill="black" stroke="black" points="142.129,-40.4772 132.804,-35.4472 136.957,-45.1943 142.129,-40.4772"/>
<text text-anchor="middle" x="185.095" y="-57.8" font-family="Times New Roman,serif" font-size="14.00">Crafting 1</text>
</g>
</g>
</svg>
