<?xml version="1.0" encoding="UTF-8" standalone="no"?>
<!DOCTYPE svg PUBLIC "-//W3C//DTD SVG 1.1//EN"
 "http://www.w3.org/Graphics/SVG/1.1/DTD/svg11.dtd">
<!-- Generated by graphviz version 2.38.0 (20140413.2041)
 -->
<!-- Title: G Pages: 1 -->
<svg width="293pt" height="305pt"
 viewBox="0.00 0.00 293.09 305.00" xmlns="http://www.w3.org/2000/svg" xmlns:xlink="http://www.w3.org/1999/xlink">
<g id="graph0" class="graph" transform="scale(1 1) rotate(0) translate(4 301)">
<title>G</title>
<polygon fill="white" stroke="none" points="-4,4 -4,-301 289.095,-301 289.095,4 -4,4"/>
<!-- Needle_Thread -->
<g id="node1" class="node"><title>Needle_Thread</title>
<ellipse fill="none" stroke="black" cx="206.095" cy="-105" rx="66.0889" ry="18"/>
<text text-anchor="middle" x="206.095" y="-101.3" font-family="Times New Roman,serif" font-size="14.00">Needle_Thread</text>
</g>
<!-- Cloth_D_Torso -->
<g id="node4" class="node"><title>Cloth_D_Torso</title>
<ellipse fill="none" stroke="black" cx="117.095" cy="-18" rx="69.5877" ry="18"/>
<text text-anchor="middle" x="117.095" y="-14.3" font-family="Times New Roman,serif" font-size="14.00">Cloth_D_Torso</text>
</g>
<!-- Needle_Thread&#45;&gt;Cloth_D_Torso -->
<g id="edge1" class="edge"><title>Needle_Thread&#45;&gt;Cloth_D_Torso</title>
<path fill="none" stroke="black" d="M188.934,-87.6111C175.6,-74.876 156.918,-57.0337 141.948,-42.7363"/>
<polygon fill="black" stroke="black" points="144.155,-40.0042 134.506,-35.6286 139.32,-45.0664 144.155,-40.0042"/>
<text text-anchor="middle" x="194.095" y="-57.8" font-family="Times New Roman,serif" font-size="14.00">Crafting 3</text>
</g>
<!-- Thread -->
<g id="node2" class="node"><title>Thread</title>
<ellipse fill="none" stroke="black" cx="158.095" cy="-192" rx="36.2938" ry="18"/>
<text text-anchor="middle" x="158.095" y="-188.3" font-family="Times New Roman,serif" font-size="14.00">Thread</text>
</g>
<!-- Thread&#45;&gt;Needle_Thread -->
<g id="edge2" class="edge"><title>Thread&#45;&gt;Needle_Thread</title>
<path fill="none" stroke="black" d="M157.081,-173.844C157.206,-163.724 158.668,-150.987 164.095,-141 166.462,-136.642 169.613,-132.606 173.129,-128.94"/>
<polygon fill="black" stroke="black" points="175.733,-131.3 180.724,-121.954 170.994,-126.148 175.733,-131.3"/>
<text text-anchor="middle" x="192.095" y="-144.8" font-family="Times New Roman,serif" font-size="14.00">Crafting 0</text>
</g>
<!-- Needle -->
<g id="node3" class="node"><title>Needle</title>
<ellipse fill="none" stroke="black" cx="248.095" cy="-192" rx="35.9954" ry="18"/>
<text text-anchor="middle" x="248.095" y="-188.3" font-family="Times New Roman,serif" font-size="14.00">Needle</text>
</g>
<!-- Needle&#45;&gt;Needle_Thread -->
<g id="edge3" class="edge"><title>Needle&#45;&gt;Needle_Thread</title>
<path fill="none" stroke="black" d="M239.797,-174.207C233.853,-162.178 225.735,-145.748 218.955,-132.028"/>
<polygon fill="black" stroke="black" points="222.087,-130.464 214.519,-123.049 215.811,-133.565 222.087,-130.464"/>
<text text-anchor="middle" x="257.095" y="-144.8" font-family="Times New Roman,serif" font-size="14.00">Crafting 0</text>
</g>
<!-- Hair -->
<g id="node5" class="node"><title>Hair</title>
<ellipse fill="none" stroke="black" cx="158.095" cy="-279" rx="27" ry="18"/>
<text text-anchor="middle" x="158.095" y="-275.3" font-family="Times New Roman,serif" font-size="14.00">Hair</text>
</g>
<!-- Hair&#45;&gt;Thread -->
<g id="edge4" class="edge"><title>Hair&#45;&gt;Thread</title>
<path fill="none" stroke="black" d="M158.095,-260.799C158.095,-249.163 158.095,-233.548 158.095,-220.237"/>
<polygon fill="black" stroke="black" points="161.595,-220.175 158.095,-210.175 154.595,-220.175 161.595,-220.175"/>
<text text-anchor="middle" x="186.095" y="-231.8" font-family="Times New Roman,serif" font-size="14.00">Crafting 0</text>
</g>
<!-- Scraps_Cloth -->
<g id="node6" class="node"><title>Scraps_Cloth</title>
<ellipse fill="none" stroke="black" cx="61.0946" cy="-105" rx="61.1893" ry="18"/>
<text text-anchor="middle" x="61.0946" y="-101.3" font-family="Times New Roman,serif" font-size="14.00">Scraps_Cloth</text>
</g>
<!-- Scraps_Cloth&#45;&gt;Cloth_D_Torso -->
<g id="edge5" class="edge"><title>Scraps_Cloth&#45;&gt;Cloth_D_Torso</title>
<path fill="none" stroke="black" d="M72.1584,-87.2067C80.1596,-75.0621 91.1162,-58.4315 100.207,-44.6326"/>
<polygon fill="black" stroke="black" points="103.283,-46.3255 105.862,-36.0493 97.4377,-42.4744 103.283,-46.3255"/>
<text text-anchor="middle" x="121.095" y="-57.8" font-family="Times New Roman,serif" font-size="14.00">Crafting 3</text>
</g>
</g>
</svg>
