<?xml version="1.0" encoding="UTF-8" standalone="no"?>
<!DOCTYPE svg PUBLIC "-//W3C//DTD SVG 1.1//EN"
 "http://www.w3.org/Graphics/SVG/1.1/DTD/svg11.dtd">
<!-- Generated by graphviz version 2.38.0 (20140413.2041)
 -->
<!-- Title: G Pages: 1 -->
<svg width="411pt" height="131pt"
 viewBox="0.00 0.00 411.39 131.00" xmlns="http://www.w3.org/2000/svg" xmlns:xlink="http://www.w3.org/1999/xlink">
<g id="graph0" class="graph" transform="scale(1 1) rotate(0) translate(4 127)">
<title>G</title>
<polygon fill="white" stroke="none" points="-4,4 -4,-127 407.39,-127 407.39,4 -4,4"/>
<!-- Well_A_Snow -->
<g id="node1" class="node"><title>Well_A_Snow</title>
<ellipse fill="none" stroke="black" cx="64.3443" cy="-105" rx="64.189" ry="18"/>
<text text-anchor="middle" x="64.3443" y="-101.3" font-family="Times New Roman,serif" font-size="14.00">Well_A_Snow</text>
</g>
<!-- Cup_A_Water -->
<g id="node3" class="node"><title>Cup_A_Water</title>
<ellipse fill="none" stroke="black" cx="218.344" cy="-18" rx="64.189" ry="18"/>
<text text-anchor="middle" x="218.344" y="-14.3" font-family="Times New Roman,serif" font-size="14.00">Cup_A_Water</text>
</g>
<!-- Well_A_Snow&#45;&gt;Cup_A_Water -->
<g id="edge1" class="edge"><title>Well_A_Snow&#45;&gt;Cup_A_Water</title>
<path fill="none" stroke="black" d="M78.6653,-87.2191C88.5938,-76.4717 102.632,-62.9177 117.344,-54 131.079,-45.6749 147.069,-38.9787 162.222,-33.7613"/>
<polygon fill="black" stroke="black" points="163.615,-36.9877 172.026,-30.5441 161.433,-30.3366 163.615,-36.9877"/>
<text text-anchor="middle" x="145.344" y="-57.8" font-family="Times New Roman,serif" font-size="14.00">Crafting 0</text>
</g>
<!-- Barrel -->
<g id="node2" class="node"><title>Barrel</title>
<ellipse fill="none" stroke="black" cx="179.344" cy="-105" rx="32.4942" ry="18"/>
<text text-anchor="middle" x="179.344" y="-101.3" font-family="Times New Roman,serif" font-size="14.00">Barrel</text>
</g>
<!-- Barrel&#45;&gt;Cup_A_Water -->
<g id="edge2" class="edge"><title>Barrel&#45;&gt;Cup_A_Water</title>
<path fill="none" stroke="black" d="M176.464,-87.0649C175.523,-77.024 175.709,-64.2911 180.344,-54 182.218,-49.8396 184.848,-45.9504 187.86,-42.3891"/>
<polygon fill="black" stroke="black" points="190.45,-44.7459 194.916,-35.1384 185.434,-39.8638 190.45,-44.7459"/>
<text text-anchor="middle" x="208.344" y="-57.8" font-family="Times New Roman,serif" font-size="14.00">Crafting 0</text>
</g>
<!-- Well -->
<g id="node4" class="node"><title>Well</title>
<ellipse fill="none" stroke="black" cx="258.344" cy="-105" rx="27.0966" ry="18"/>
<text text-anchor="middle" x="258.344" y="-101.3" font-family="Times New Roman,serif" font-size="14.00">Well</text>
</g>
<!-- Well&#45;&gt;Cup_A_Water -->
<g id="edge3" class="edge"><title>Well&#45;&gt;Cup_A_Water</title>
<path fill="none" stroke="black" d="M251.261,-87.2186C247.067,-77.4582 241.567,-64.9582 236.344,-54 234.933,-51.0393 233.418,-47.9584 231.889,-44.9064"/>
<polygon fill="black" stroke="black" points="235.001,-43.3064 227.342,-35.9866 228.765,-46.4855 235.001,-43.3064"/>
<text text-anchor="middle" x="271.344" y="-57.8" font-family="Times New Roman,serif" font-size="14.00">Crafting 0</text>
</g>
<!-- CupEmpty -->
<g id="node5" class="node"><title>CupEmpty</title>
<ellipse fill="none" stroke="black" cx="353.344" cy="-105" rx="50.0912" ry="18"/>
<text text-anchor="middle" x="353.344" y="-101.3" font-family="Times New Roman,serif" font-size="14.00">CupEmpty</text>
</g>
<!-- CupEmpty&#45;&gt;Cup_A_Water -->
<g id="edge4" class="edge"><title>CupEmpty&#45;&gt;Cup_A_Water</title>
<path fill="none" stroke="black" d="M339.842,-87.4454C330.479,-76.7936 317.236,-63.261 303.344,-54 292.762,-46.945 280.53,-40.8906 268.703,-35.8975"/>
<polygon fill="black" stroke="black" points="269.926,-32.617 259.342,-32.1219 267.307,-39.1087 269.926,-32.617"/>
<text text-anchor="middle" x="350.344" y="-57.8" font-family="Times New Roman,serif" font-size="14.00">Crafting 0</text>
</g>
</g>
</svg>
