<?xml version="1.0" encoding="UTF-8" standalone="no"?>
<!DOCTYPE svg PUBLIC "-//W3C//DTD SVG 1.1//EN"
 "http://www.w3.org/Graphics/SVG/1.1/DTD/svg11.dtd">
<!-- Generated by graphviz version 2.38.0 (20140413.2041)
 -->
<!-- Title: G Pages: 1 -->
<svg width="186pt" height="131pt"
 viewBox="0.00 0.00 186.08 131.00" xmlns="http://www.w3.org/2000/svg" xmlns:xlink="http://www.w3.org/1999/xlink">
<g id="graph0" class="graph" transform="scale(1 1) rotate(0) translate(4 127)">
<title>G</title>
<polygon fill="white" stroke="none" points="-4,4 -4,-127 182.084,-127 182.084,4 -4,4"/>
<!-- Dagger_A_Dagger_B -->
<g id="node1" class="node"><title>Dagger_A_Dagger_B</title>
<ellipse fill="none" stroke="black" cx="89.0421" cy="-18" rx="89.0842" ry="18"/>
<text text-anchor="middle" x="89.0421" y="-14.3" font-family="Times New Roman,serif" font-size="14.00">Dagger_A_Dagger_B</text>
</g>
<!-- Knife -->
<g id="node2" class="node"><title>Knife</title>
<ellipse fill="none" stroke="black" cx="50.0421" cy="-105" rx="30.5947" ry="18"/>
<text text-anchor="middle" x="50.0421" y="-101.3" font-family="Times New Roman,serif" font-size="14.00">Knife</text>
</g>
<!-- Knife&#45;&gt;Dagger_A_Dagger_B -->
<g id="edge1" class="edge"><title>Knife&#45;&gt;Dagger_A_Dagger_B</title>
<path fill="none" stroke="black" d="M47.1614,-87.0649C46.221,-77.024 46.4064,-64.2911 51.0421,-54 52.8241,-50.044 55.2895,-46.3333 58.1165,-42.9165"/>
<polygon fill="black" stroke="black" points="60.8296,-45.1437 65.2172,-35.5001 55.7734,-40.3027 60.8296,-45.1437"/>
<text text-anchor="middle" x="79.0421" y="-57.8" font-family="Times New Roman,serif" font-size="14.00">Crafting 2</text>
</g>
<!-- Anvil -->
<g id="node3" class="node"><title>Anvil</title>
<ellipse fill="none" stroke="black" cx="129.042" cy="-105" rx="29.795" ry="18"/>
<text text-anchor="middle" x="129.042" y="-101.3" font-family="Times New Roman,serif" font-size="14.00">Anvil</text>
</g>
<!-- Anvil&#45;&gt;Dagger_A_Dagger_B -->
<g id="edge2" class="edge"><title>Anvil&#45;&gt;Dagger_A_Dagger_B</title>
<path fill="none" stroke="black" d="M121.959,-87.2186C117.765,-77.4582 112.265,-64.9582 107.042,-54 105.631,-51.0393 104.116,-47.9584 102.586,-44.9064"/>
<polygon fill="black" stroke="black" points="105.699,-43.3064 98.0395,-35.9866 99.4628,-46.4855 105.699,-43.3064"/>
<text text-anchor="middle" x="141.042" y="-57.8" font-family="Times New Roman,serif" font-size="14.00">Crafting 2</text>
</g>
</g>
</svg>
