<?xml version="1.0" encoding="UTF-8" standalone="no"?>
<!DOCTYPE svg PUBLIC "-//W3C//DTD SVG 1.1//EN"
 "http://www.w3.org/Graphics/SVG/1.1/DTD/svg11.dtd">
<!-- Generated by graphviz version 2.38.0 (20140413.2041)
 -->
<!-- Title: G Pages: 1 -->
<svg width="426pt" height="131pt"
 viewBox="0.00 0.00 425.53 131.00" xmlns="http://www.w3.org/2000/svg" xmlns:xlink="http://www.w3.org/1999/xlink">
<g id="graph0" class="graph" transform="scale(1 1) rotate(0) translate(4 127)">
<title>G</title>
<polygon fill="white" stroke="none" points="-4,4 -4,-127 421.532,-127 421.532,4 -4,4"/>
<!-- Trolls_2H_Staff_IceKing -->
<g id="node1" class="node"><title>Trolls_2H_Staff_IceKing</title>
<ellipse fill="none" stroke="black" cx="103.341" cy="-105" rx="103.182" ry="18"/>
<text text-anchor="middle" x="103.341" y="-101.3" font-family="Times New Roman,serif" font-size="14.00">Trolls_2H_Staff_IceKing</text>
</g>
<!-- DestroyBoth -->
<g id="node2" class="node"><title>DestroyBoth</title>
<ellipse fill="none" stroke="black" cx="212.341" cy="-18" rx="57.3905" ry="18"/>
<text text-anchor="middle" x="212.341" y="-14.3" font-family="Times New Roman,serif" font-size="14.00">DestroyBoth</text>
</g>
<!-- Trolls_2H_Staff_IceKing&#45;&gt;DestroyBoth -->
<g id="edge1" class="edge"><title>Trolls_2H_Staff_IceKing&#45;&gt;DestroyBoth</title>
<path fill="none" stroke="black" d="M124.876,-87.2067C141.77,-74.0325 165.433,-55.5793 183.887,-41.1885"/>
<polygon fill="black" stroke="black" points="186.223,-43.8054 191.957,-34.8959 181.919,-38.2854 186.223,-43.8054"/>
<text text-anchor="middle" x="193.341" y="-57.8" font-family="Times New Roman,serif" font-size="14.00">Crafting 0</text>
</g>
<!-- Quest_Stone_Blood_B -->
<g id="node3" class="node"><title>Quest_Stone_Blood_B</title>
<ellipse fill="none" stroke="black" cx="321.341" cy="-105" rx="96.3833" ry="18"/>
<text text-anchor="middle" x="321.341" y="-101.3" font-family="Times New Roman,serif" font-size="14.00">Quest_Stone_Blood_B</text>
</g>
<!-- Quest_Stone_Blood_B&#45;&gt;DestroyBoth -->
<g id="edge2" class="edge"><title>Quest_Stone_Blood_B&#45;&gt;DestroyBoth</title>
<path fill="none" stroke="black" d="M300.066,-87.4094C283.196,-74.2537 259.457,-55.7421 240.928,-41.2924"/>
<polygon fill="black" stroke="black" points="242.862,-38.3625 232.824,-34.973 238.557,-43.8825 242.862,-38.3625"/>
<text text-anchor="middle" x="302.341" y="-57.8" font-family="Times New Roman,serif" font-size="14.00">Crafting 0</text>
</g>
</g>
</svg>
