<?xml version="1.0" encoding="UTF-8" standalone="no"?>
<!DOCTYPE svg PUBLIC "-//W3C//DTD SVG 1.1//EN"
 "http://www.w3.org/Graphics/SVG/1.1/DTD/svg11.dtd">
<!-- Generated by graphviz version 2.38.0 (20140413.2041)
 -->
<!-- Title: G Pages: 1 -->
<svg width="417pt" height="218pt"
 viewBox="0.00 0.00 416.94 218.00" xmlns="http://www.w3.org/2000/svg" xmlns:xlink="http://www.w3.org/1999/xlink">
<g id="graph0" class="graph" transform="scale(1 1) rotate(0) translate(4 214)">
<title>G</title>
<polygon fill="white" stroke="none" points="-4,4 -4,-214 412.944,-214 412.944,4 -4,4"/>
<!-- Wheat -->
<g id="node1" class="node"><title>Wheat</title>
<ellipse fill="none" stroke="black" cx="34.4469" cy="-192" rx="34.394" ry="18"/>
<text text-anchor="middle" x="34.4469" y="-188.3" font-family="Times New Roman,serif" font-size="14.00">Wheat</text>
</g>
<!-- Flour -->
<g id="node3" class="node"><title>Flour</title>
<ellipse fill="none" stroke="black" cx="140.447" cy="-105" rx="30.5947" ry="18"/>
<text text-anchor="middle" x="140.447" y="-101.3" font-family="Times New Roman,serif" font-size="14.00">Flour</text>
</g>
<!-- Wheat&#45;&gt;Flour -->
<g id="edge1" class="edge"><title>Wheat&#45;&gt;Flour</title>
<path fill="none" stroke="black" d="M47.7738,-175.077C56.9163,-164.691 69.6643,-151.219 82.4469,-141 90.7835,-134.336 100.498,-127.998 109.566,-122.593"/>
<polygon fill="black" stroke="black" points="111.436,-125.555 118.344,-117.521 107.934,-119.494 111.436,-125.555"/>
<text text-anchor="middle" x="110.447" y="-144.8" font-family="Times New Roman,serif" font-size="14.00">Crafting 0</text>
</g>
<!-- Dough. _Drink_Cup_A_Empty -->
<g id="node2" class="node"><title>Dough. _Drink_Cup_A_Empty</title>
<ellipse fill="none" stroke="black" cx="216.447" cy="-18" rx="125.378" ry="18"/>
<text text-anchor="middle" x="216.447" y="-14.3" font-family="Times New Roman,serif" font-size="14.00">Dough. _Drink_Cup_A_Empty</text>
</g>
<!-- Flour&#45;&gt;Dough. _Drink_Cup_A_Empty -->
<g id="edge2" class="edge"><title>Flour&#45;&gt;Dough. _Drink_Cup_A_Empty</title>
<path fill="none" stroke="black" d="M153.852,-88.6152C162.53,-78.6929 174.101,-65.5342 184.447,-54 187.498,-50.5985 190.73,-47.0268 193.922,-43.5186"/>
<polygon fill="black" stroke="black" points="196.6,-45.7761 200.757,-36.0308 191.43,-41.0569 196.6,-45.7761"/>
<text text-anchor="middle" x="212.447" y="-57.8" font-family="Times New Roman,serif" font-size="14.00">Crafting 0</text>
</g>
<!-- MortarPestle -->
<g id="node4" class="node"><title>MortarPestle</title>
<ellipse fill="none" stroke="black" cx="144.447" cy="-192" rx="57.3905" ry="18"/>
<text text-anchor="middle" x="144.447" y="-188.3" font-family="Times New Roman,serif" font-size="14.00">MortarPestle</text>
</g>
<!-- MortarPestle&#45;&gt;Flour -->
<g id="edge6" class="edge"><title>MortarPestle&#45;&gt;Flour</title>
<path fill="none" stroke="black" d="M143.637,-173.799C143.09,-162.163 142.355,-146.548 141.729,-133.237"/>
<polygon fill="black" stroke="black" points="145.221,-133 141.255,-123.175 138.229,-133.329 145.221,-133"/>
<text text-anchor="middle" x="171.447" y="-144.8" font-family="Times New Roman,serif" font-size="14.00">Crafting 0</text>
</g>
<!-- CupEmpty -->
<g id="node5" class="node"><title>CupEmpty</title>
<ellipse fill="none" stroke="black" cx="275.447" cy="-192" rx="50.0912" ry="18"/>
<text text-anchor="middle" x="275.447" y="-188.3" font-family="Times New Roman,serif" font-size="14.00">CupEmpty</text>
</g>
<!-- Drink_Cup_A_Water -->
<g id="node7" class="node"><title>Drink_Cup_A_Water</title>
<ellipse fill="none" stroke="black" cx="278.447" cy="-105" rx="89.0842" ry="18"/>
<text text-anchor="middle" x="278.447" y="-101.3" font-family="Times New Roman,serif" font-size="14.00">Drink_Cup_A_Water</text>
</g>
<!-- CupEmpty&#45;&gt;Drink_Cup_A_Water -->
<g id="edge4" class="edge"><title>CupEmpty&#45;&gt;Drink_Cup_A_Water</title>
<path fill="none" stroke="black" d="M276.054,-173.799C276.465,-162.163 277.016,-146.548 277.486,-133.237"/>
<polygon fill="black" stroke="black" points="280.986,-133.293 277.841,-123.175 273.99,-133.046 280.986,-133.293"/>
<text text-anchor="middle" x="305.447" y="-144.8" font-family="Times New Roman,serif" font-size="14.00">Crafting 0</text>
</g>
<!-- Barrel -->
<g id="node6" class="node"><title>Barrel</title>
<ellipse fill="none" stroke="black" cx="376.447" cy="-192" rx="32.4942" ry="18"/>
<text text-anchor="middle" x="376.447" y="-188.3" font-family="Times New Roman,serif" font-size="14.00">Barrel</text>
</g>
<!-- Barrel&#45;&gt;Drink_Cup_A_Water -->
<g id="edge5" class="edge"><title>Barrel&#45;&gt;Drink_Cup_A_Water</title>
<path fill="none" stroke="black" d="M366.18,-174.862C358.989,-164.387 348.684,-150.894 337.447,-141 331.855,-136.076 325.472,-131.469 319.019,-127.317"/>
<polygon fill="black" stroke="black" points="320.601,-124.182 310.244,-121.951 316.949,-130.154 320.601,-124.182"/>
<text text-anchor="middle" x="378.447" y="-144.8" font-family="Times New Roman,serif" font-size="14.00">Crafting 0</text>
</g>
<!-- Drink_Cup_A_Water&#45;&gt;Dough. _Drink_Cup_A_Empty -->
<g id="edge3" class="edge"><title>Drink_Cup_A_Water&#45;&gt;Dough. _Drink_Cup_A_Empty</title>
<path fill="none" stroke="black" d="M265.9,-86.799C256.992,-74.5865 244.888,-57.9921 234.885,-44.2776"/>
<polygon fill="black" stroke="black" points="237.696,-42.192 228.975,-36.1754 232.04,-46.3172 237.696,-42.192"/>
<text text-anchor="middle" x="279.447" y="-57.8" font-family="Times New Roman,serif" font-size="14.00">Crafting 0</text>
</g>
</g>
</svg>
