<?xml version="1.0" encoding="UTF-8" standalone="no"?>
<!DOCTYPE svg PUBLIC "-//W3C//DTD SVG 1.1//EN"
 "http://www.w3.org/Graphics/SVG/1.1/DTD/svg11.dtd">
<!-- Generated by graphviz version 2.38.0 (20140413.2041)
 -->
<!-- Title: G Pages: 1 -->
<svg width="323pt" height="218pt"
 viewBox="0.00 0.00 323.19 218.00" xmlns="http://www.w3.org/2000/svg" xmlns:xlink="http://www.w3.org/1999/xlink">
<g id="graph0" class="graph" transform="scale(1 1) rotate(0) translate(4 214)">
<title>G</title>
<polygon fill="white" stroke="none" points="-4,4 -4,-214 319.189,-214 319.189,4 -4,4"/>
<!-- Beehive -->
<g id="node1" class="node"><title>Beehive</title>
<ellipse fill="none" stroke="black" cx="38.9965" cy="-192" rx="38.9931" ry="18"/>
<text text-anchor="middle" x="38.9965" y="-188.3" font-family="Times New Roman,serif" font-size="14.00">Beehive</text>
</g>
<!-- Honey_Jar -->
<g id="node5" class="node"><title>Honey_Jar</title>
<ellipse fill="none" stroke="black" cx="80.9965" cy="-105" rx="50.0912" ry="18"/>
<text text-anchor="middle" x="80.9965" y="-101.3" font-family="Times New Roman,serif" font-size="14.00">Honey_Jar</text>
</g>
<!-- Beehive&#45;&gt;Honey_Jar -->
<g id="edge1" class="edge"><title>Beehive&#45;&gt;Honey_Jar</title>
<path fill="none" stroke="black" d="M38.2633,-173.989C38.4878,-163.921 39.9563,-151.187 44.9965,-141 47.154,-136.639 50.0819,-132.517 53.3417,-128.735"/>
<polygon fill="black" stroke="black" points="55.9186,-131.105 60.3587,-121.486 50.8888,-126.237 55.9186,-131.105"/>
<text text-anchor="middle" x="72.9965" y="-144.8" font-family="Times New Roman,serif" font-size="14.00">Crafting 0</text>
</g>
<!-- Drink_Cup_A_Milk -->
<g id="node2" class="node"><title>Drink_Cup_A_Milk</title>
<ellipse fill="none" stroke="black" cx="231.997" cy="-105" rx="83.3857" ry="18"/>
<text text-anchor="middle" x="231.997" y="-101.3" font-family="Times New Roman,serif" font-size="14.00">Drink_Cup_A_Milk</text>
</g>
<!-- Drink_Cup_A_MilkHoney -->
<g id="node4" class="node"><title>Drink_Cup_A_MilkHoney</title>
<ellipse fill="none" stroke="black" cx="173.997" cy="-18" rx="107.482" ry="18"/>
<text text-anchor="middle" x="173.997" y="-14.3" font-family="Times New Roman,serif" font-size="14.00">Drink_Cup_A_MilkHoney</text>
</g>
<!-- Drink_Cup_A_Milk&#45;&gt;Drink_Cup_A_MilkHoney -->
<g id="edge2" class="edge"><title>Drink_Cup_A_Milk&#45;&gt;Drink_Cup_A_MilkHoney</title>
<path fill="none" stroke="black" d="M220.259,-86.799C212.005,-74.7017 200.816,-58.3049 191.51,-44.6665"/>
<polygon fill="black" stroke="black" points="194.244,-42.4629 185.716,-36.1754 188.462,-46.4084 194.244,-42.4629"/>
<text text-anchor="middle" x="233.997" y="-57.8" font-family="Times New Roman,serif" font-size="14.00">Crafting 0</text>
</g>
<!-- Jar -->
<g id="node3" class="node"><title>Jar</title>
<ellipse fill="none" stroke="black" cx="122.997" cy="-192" rx="27" ry="18"/>
<text text-anchor="middle" x="122.997" y="-188.3" font-family="Times New Roman,serif" font-size="14.00">Jar</text>
</g>
<!-- Jar&#45;&gt;Honey_Jar -->
<g id="edge3" class="edge"><title>Jar&#45;&gt;Honey_Jar</title>
<path fill="none" stroke="black" d="M116.094,-174.13C111.96,-164.34 106.46,-151.84 100.997,-141 99.4847,-138 97.8366,-134.895 96.1567,-131.829"/>
<polygon fill="black" stroke="black" points="99.0819,-129.891 91.125,-122.895 92.9827,-133.326 99.0819,-129.891"/>
<text text-anchor="middle" x="136.997" y="-144.8" font-family="Times New Roman,serif" font-size="14.00">Crafting 0</text>
</g>
<!-- Honey_Jar&#45;&gt;Drink_Cup_A_MilkHoney -->
<g id="edge4" class="edge"><title>Honey_Jar&#45;&gt;Drink_Cup_A_MilkHoney</title>
<path fill="none" stroke="black" d="M98.4891,-88.0122C112.507,-75.2005 132.379,-57.0371 148.219,-42.5598"/>
<polygon fill="black" stroke="black" points="150.608,-45.1185 155.628,-35.7885 145.885,-39.9515 150.608,-45.1185"/>
<text text-anchor="middle" x="160.997" y="-57.8" font-family="Times New Roman,serif" font-size="14.00">Crafting 0</text>
</g>
</g>
</svg>
