<?xml version="1.0" encoding="UTF-8" standalone="no"?>
<!DOCTYPE svg PUBLIC "-//W3C//DTD SVG 1.1//EN"
 "http://www.w3.org/Graphics/SVG/1.1/DTD/svg11.dtd">
<!-- Generated by graphviz version 2.38.0 (20140413.2041)
 -->
<!-- Title: G Pages: 1 -->
<svg width="222pt" height="131pt"
 viewBox="0.00 0.00 222.14 131.00" xmlns="http://www.w3.org/2000/svg" xmlns:xlink="http://www.w3.org/1999/xlink">
<g id="graph0" class="graph" transform="scale(1 1) rotate(0) translate(4 127)">
<title>G</title>
<polygon fill="white" stroke="none" points="-4,4 -4,-127 218.141,-127 218.141,4 -4,4"/>
<!-- Drink_Cup_A_Oil -->
<g id="node1" class="node"><title>Drink_Cup_A_Oil</title>
<ellipse fill="none" stroke="black" cx="108.046" cy="-18" rx="77.9862" ry="18"/>
<text text-anchor="middle" x="108.046" y="-14.3" font-family="Times New Roman,serif" font-size="14.00">Drink_Cup_A_Oil</text>
</g>
<!-- CupEmpty -->
<g id="node2" class="node"><title>CupEmpty</title>
<ellipse fill="none" stroke="black" cx="50.0456" cy="-105" rx="50.0912" ry="18"/>
<text text-anchor="middle" x="50.0456" y="-101.3" font-family="Times New Roman,serif" font-size="14.00">CupEmpty</text>
</g>
<!-- CupEmpty&#45;&gt;Drink_Cup_A_Oil -->
<g id="edge2" class="edge"><title>CupEmpty&#45;&gt;Drink_Cup_A_Oil</title>
<path fill="none" stroke="black" d="M56.1175,-86.994C60.1272,-76.9279 65.9474,-64.1935 73.0456,-54 75.6574,-50.2492 78.6947,-46.5462 81.8681,-43.033"/>
<polygon fill="black" stroke="black" points="84.5108,-45.3342 88.9197,-35.7003 79.4653,-40.4821 84.5108,-45.3342"/>
<text text-anchor="middle" x="101.046" y="-57.8" font-family="Times New Roman,serif" font-size="14.00">Crafting 0</text>
</g>
<!-- Barrel_Oil -->
<g id="node3" class="node"><title>Barrel_Oil</title>
<ellipse fill="none" stroke="black" cx="166.046" cy="-105" rx="48.1917" ry="18"/>
<text text-anchor="middle" x="166.046" y="-101.3" font-family="Times New Roman,serif" font-size="14.00">Barrel_Oil</text>
</g>
<!-- Barrel_Oil&#45;&gt;Drink_Cup_A_Oil -->
<g id="edge1" class="edge"><title>Barrel_Oil&#45;&gt;Drink_Cup_A_Oil</title>
<path fill="none" stroke="black" d="M154.587,-87.2067C146.3,-75.0621 134.952,-58.4315 125.536,-44.6326"/>
<polygon fill="black" stroke="black" points="128.207,-42.3368 119.679,-36.0493 122.425,-46.2823 128.207,-42.3368"/>
<text text-anchor="middle" x="168.046" y="-57.8" font-family="Times New Roman,serif" font-size="14.00">Crafting 0</text>
</g>
</g>
</svg>
