<?xml version="1.0" encoding="UTF-8" standalone="no"?>
<!DOCTYPE svg PUBLIC "-//W3C//DTD SVG 1.1//EN"
 "http://www.w3.org/Graphics/SVG/1.1/DTD/svg11.dtd">
<!-- Generated by graphviz version 2.38.0 (20140413.2041)
 -->
<!-- Title: G Pages: 1 -->
<svg width="224pt" height="131pt"
 viewBox="0.00 0.00 223.79 131.00" xmlns="http://www.w3.org/2000/svg" xmlns:xlink="http://www.w3.org/1999/xlink">
<g id="graph0" class="graph" transform="scale(1 1) rotate(0) translate(4 127)">
<title>G</title>
<polygon fill="white" stroke="none" points="-4,4 -4,-127 219.791,-127 219.791,4 -4,4"/>
<!-- Campfire -->
<g id="node1" class="node"><title>Campfire</title>
<ellipse fill="none" stroke="black" cx="44.1961" cy="-105" rx="44.393" ry="18"/>
<text text-anchor="middle" x="44.1961" y="-101.3" font-family="Times New Roman,serif" font-size="14.00">Campfire</text>
</g>
<!-- FUR_BoilingPot -->
<g id="node2" class="node"><title>FUR_BoilingPot</title>
<ellipse fill="none" stroke="black" cx="102.196" cy="-18" rx="71.4873" ry="18"/>
<text text-anchor="middle" x="102.196" y="-14.3" font-family="Times New Roman,serif" font-size="14.00">FUR_BoilingPot</text>
</g>
<!-- Campfire&#45;&gt;FUR_BoilingPot -->
<g id="edge1" class="edge"><title>Campfire&#45;&gt;FUR_BoilingPot</title>
<path fill="none" stroke="black" d="M55.655,-87.2067C63.9419,-75.0621 75.2899,-58.4315 84.7056,-44.6326"/>
<polygon fill="black" stroke="black" points="87.8171,-46.2823 90.5624,-36.0493 82.0349,-42.3368 87.8171,-46.2823"/>
<text text-anchor="middle" x="105.196" y="-57.8" font-family="Times New Roman,serif" font-size="14.00">Crafting 0</text>
</g>
<!-- CookingPot -->
<g id="node3" class="node"><title>CookingPot</title>
<ellipse fill="none" stroke="black" cx="161.196" cy="-105" rx="54.6905" ry="18"/>
<text text-anchor="middle" x="161.196" y="-101.3" font-family="Times New Roman,serif" font-size="14.00">CookingPot</text>
</g>
<!-- CookingPot&#45;&gt;FUR_BoilingPot -->
<g id="edge2" class="edge"><title>CookingPot&#45;&gt;FUR_BoilingPot</title>
<path fill="none" stroke="black" d="M154.737,-87.0084C150.509,-76.9474 144.433,-64.2133 137.196,-54 134.496,-50.1897 131.365,-46.4198 128.108,-42.845"/>
<polygon fill="black" stroke="black" points="130.364,-40.1427 120.894,-35.3907 125.333,-45.0107 130.364,-40.1427"/>
<text text-anchor="middle" x="174.196" y="-57.8" font-family="Times New Roman,serif" font-size="14.00">Crafting 0</text>
</g>
</g>
</svg>
