<?xml version="1.0" encoding="UTF-8" standalone="no"?>
<!DOCTYPE svg PUBLIC "-//W3C//DTD SVG 1.1//EN"
 "http://www.w3.org/Graphics/SVG/1.1/DTD/svg11.dtd">
<!-- Generated by graphviz version 2.38.0 (20140413.2041)
 -->
<!-- Title: G Pages: 1 -->
<svg width="391pt" height="131pt"
 viewBox="0.00 0.00 390.64 131.00" xmlns="http://www.w3.org/2000/svg" xmlns:xlink="http://www.w3.org/1999/xlink">
<g id="graph0" class="graph" transform="scale(1 1) rotate(0) translate(4 127)">
<title>G</title>
<polygon fill="white" stroke="none" points="-4,4 -4,-127 386.64,-127 386.64,4 -4,4"/>
<!-- Glass_A_Wine -->
<g id="node1" class="node"><title>Glass_A_Wine</title>
<ellipse fill="none" stroke="black" cx="208.594" cy="-18" rx="66.0889" ry="18"/>
<text text-anchor="middle" x="208.594" y="-14.3" font-family="Times New Roman,serif" font-size="14.00">Glass_A_Wine</text>
</g>
<!-- Barrel_A_Wine -->
<g id="node2" class="node"><title>Barrel_A_Wine</title>
<ellipse fill="none" stroke="black" cx="67.594" cy="-105" rx="67.6881" ry="18"/>
<text text-anchor="middle" x="67.594" y="-101.3" font-family="Times New Roman,serif" font-size="14.00">Barrel_A_Wine</text>
</g>
<!-- Barrel_A_Wine&#45;&gt;Glass_A_Wine -->
<g id="edge1" class="edge"><title>Barrel_A_Wine&#45;&gt;Glass_A_Wine</title>
<path fill="none" stroke="black" d="M93.0312,-88.0729C108.939,-78.1685 129.89,-65.2258 148.594,-54 156.407,-49.3107 164.835,-44.3403 172.835,-39.6633"/>
<polygon fill="black" stroke="black" points="174.751,-42.5975 181.629,-34.5382 171.226,-36.5497 174.751,-42.5975"/>
<text text-anchor="middle" x="176.594" y="-57.8" font-family="Times New Roman,serif" font-size="14.00">Crafting 0</text>
</g>
<!-- Bottle_Wine -->
<g id="node3" class="node"><title>Bottle_Wine</title>
<ellipse fill="none" stroke="black" cx="208.594" cy="-105" rx="55.7903" ry="18"/>
<text text-anchor="middle" x="208.594" y="-101.3" font-family="Times New Roman,serif" font-size="14.00">Bottle_Wine</text>
</g>
<!-- Bottle_Wine&#45;&gt;Glass_A_Wine -->
<g id="edge3" class="edge"><title>Bottle_Wine&#45;&gt;Glass_A_Wine</title>
<path fill="none" stroke="black" d="M208.594,-86.799C208.594,-75.1626 208.594,-59.5479 208.594,-46.2368"/>
<polygon fill="black" stroke="black" points="212.094,-46.1754 208.594,-36.1754 205.094,-46.1755 212.094,-46.1754"/>
<text text-anchor="middle" x="236.594" y="-57.8" font-family="Times New Roman,serif" font-size="14.00">Crafting 0</text>
</g>
<!-- CupEmpty -->
<g id="node4" class="node"><title>CupEmpty</title>
<ellipse fill="none" stroke="black" cx="332.594" cy="-105" rx="50.0912" ry="18"/>
<text text-anchor="middle" x="332.594" y="-101.3" font-family="Times New Roman,serif" font-size="14.00">CupEmpty</text>
</g>
<!-- CupEmpty&#45;&gt;Glass_A_Wine -->
<g id="edge2" class="edge"><title>CupEmpty&#45;&gt;Glass_A_Wine</title>
<path fill="none" stroke="black" d="M313.777,-88.2061C301.287,-77.9999 284.351,-64.6793 268.594,-54 261.347,-49.0885 253.386,-44.148 245.697,-39.5901"/>
<polygon fill="black" stroke="black" points="247.259,-36.4494 236.857,-34.4397 243.736,-42.4979 247.259,-36.4494"/>
<text text-anchor="middle" x="316.594" y="-57.8" font-family="Times New Roman,serif" font-size="14.00">Crafting 0</text>
</g>
</g>
</svg>
