<?xml version="1.0" encoding="UTF-8" standalone="no"?>
<!DOCTYPE svg PUBLIC "-//W3C//DTD SVG 1.1//EN"
 "http://www.w3.org/Graphics/SVG/1.1/DTD/svg11.dtd">
<!-- Generated by graphviz version 2.38.0 (20140413.2041)
 -->
<!-- Title: G Pages: 1 -->
<svg width="1134pt" height="323pt"
 viewBox="0.00 0.00 1133.93 322.74" xmlns="http://www.w3.org/2000/svg" xmlns:xlink="http://www.w3.org/1999/xlink">
<g id="graph0" class="graph" transform="scale(1 1) rotate(0) translate(4 318.74)">
<title>G</title>
<polygon fill="white" stroke="none" points="-4,4 -4,-318.74 1129.93,-318.74 1129.93,4 -4,4"/>
<!-- PracticeSword2H
+ Large_Damage -->
<g id="node1" class="node"><title>PracticeSword2H
+ Large_Damage</title>
<ellipse fill="none" stroke="black" cx="82.0244" cy="-26.8701" rx="82.0488" ry="26.7407"/>
<text text-anchor="middle" x="82.0244" y="-30.6701" font-family="Times New Roman,serif" font-size="14.00">PracticeSword2H</text>
<text text-anchor="middle" x="82.0244" y="-15.6701" font-family="Times New Roman,serif" font-size="14.00">+ Large_Damage</text>
</g>
<!-- OreBar_A_Iron_A_Large -->
<g id="node2" class="node"><title>OreBar_A_Iron_A_Large</title>
<ellipse fill="none" stroke="black" cx="457.024" cy="-122.74" rx="104.782" ry="18"/>
<text text-anchor="middle" x="457.024" y="-119.04" font-family="Times New Roman,serif" font-size="14.00">OreBar_A_Iron_A_Large</text>
</g>
<!-- OreBar_A_Iron_A_Large&#45;&gt;PracticeSword2H
+ Large_Damage -->
<g id="edge1" class="edge"><title>OreBar_A_Iron_A_Large&#45;&gt;PracticeSword2H
+ Large_Damage</title>
<path fill="none" stroke="black" d="M359.558,-116.093C286.288,-110.783 192.659,-101.422 157.024,-86.7401 141.582,-80.3778 126.662,-69.8857 114.251,-59.5075"/>
<polygon fill="black" stroke="black" points="116.32,-56.6687 106.477,-52.7486 111.727,-61.9512 116.32,-56.6687"/>
<text text-anchor="middle" x="185.024" y="-75.5401" font-family="Times New Roman,serif" font-size="14.00">Crafting 5</text>
</g>
<!-- HeadingSword2H -->
<g id="node7" class="node"><title>HeadingSword2H</title>
<ellipse fill="none" stroke="black" cx="671.024" cy="-26.8701" rx="75.2868" ry="18"/>
<text text-anchor="middle" x="671.024" y="-23.1701" font-family="Times New Roman,serif" font-size="14.00">HeadingSword2H</text>
</g>
<!-- OreBar_A_Iron_A_Large&#45;&gt;HeadingSword2H -->
<g id="edge2" class="edge"><title>OreBar_A_Iron_A_Large&#45;&gt;HeadingSword2H</title>
<path fill="none" stroke="black" d="M484.083,-105.332C493.585,-99.5158 504.31,-92.8885 514.024,-86.7401 524.336,-80.2132 526.02,-77.0171 537.024,-71.7401 544.683,-68.0673 583.428,-55.481 617.299,-44.7264"/>
<polygon fill="black" stroke="black" points="618.676,-47.9617 627.152,-41.6054 616.562,-41.2884 618.676,-47.9617"/>
<text text-anchor="middle" x="566.024" y="-75.5401" font-family="Times New Roman,serif" font-size="14.00">Crafting 3</text>
</g>
<!-- HeadingSword2H_B -->
<g id="node8" class="node"><title>HeadingSword2H_B</title>
<ellipse fill="none" stroke="black" cx="268.024" cy="-26.8701" rx="86.3847" ry="18"/>
<text text-anchor="middle" x="268.024" y="-23.1701" font-family="Times New Roman,serif" font-size="14.00">HeadingSword2H_B</text>
</g>
<!-- OreBar_A_Iron_A_Large&#45;&gt;HeadingSword2H_B -->
<g id="edge3" class="edge"><title>OreBar_A_Iron_A_Large&#45;&gt;HeadingSword2H_B</title>
<path fill="none" stroke="black" d="M353.931,-119.424C298.728,-115.766 238.543,-107.048 221.024,-86.7401 210.884,-74.9852 220.253,-61.4742 233.219,-50.3629"/>
<polygon fill="black" stroke="black" points="235.449,-53.0613 241.148,-44.1295 231.123,-47.5581 235.449,-53.0613"/>
<text text-anchor="middle" x="249.024" y="-75.5401" font-family="Times New Roman,serif" font-size="14.00">Crafting 4</text>
</g>
<!-- CeremonialSword_2H -->
<g id="node9" class="node"><title>CeremonialSword_2H</title>
<ellipse fill="none" stroke="black" cx="856.024" cy="-26.8701" rx="91.784" ry="18"/>
<text text-anchor="middle" x="856.024" y="-23.1701" font-family="Times New Roman,serif" font-size="14.00">CeremonialSword_2H</text>
</g>
<!-- OreBar_A_Iron_A_Large&#45;&gt;CeremonialSword_2H -->
<g id="edge4" class="edge"><title>OreBar_A_Iron_A_Large&#45;&gt;CeremonialSword_2H</title>
<path fill="none" stroke="black" d="M554.987,-116.312C592.781,-111.55 635.597,-102.782 672.024,-86.7401 681.871,-82.4039 681.403,-76.5558 691.024,-71.7401 695.83,-69.3349 748.148,-55.5746 792.602,-44.0972"/>
<polygon fill="black" stroke="black" points="793.719,-47.4236 802.529,-41.5382 791.972,-40.6452 793.719,-47.4236"/>
<text text-anchor="middle" x="721.024" y="-75.5401" font-family="Times New Roman,serif" font-size="14.00">Crafting 1</text>
</g>
<!-- CeremonialSword_2H_B -->
<g id="node10" class="node"><title>CeremonialSword_2H_B</title>
<ellipse fill="none" stroke="black" cx="475.024" cy="-26.8701" rx="102.882" ry="18"/>
<text text-anchor="middle" x="475.024" y="-23.1701" font-family="Times New Roman,serif" font-size="14.00">CeremonialSword_2H_B</text>
</g>
<!-- OreBar_A_Iron_A_Large&#45;&gt;CeremonialSword_2H_B -->
<g id="edge5" class="edge"><title>OreBar_A_Iron_A_Large&#45;&gt;CeremonialSword_2H_B</title>
<path fill="none" stroke="black" d="M403.255,-107.214C383.879,-99.0745 368.982,-87.3703 379.024,-71.7401 386.128,-60.6834 396.786,-52.3787 408.45,-46.1518"/>
<polygon fill="black" stroke="black" points="410.03,-49.2753 417.522,-41.7839 406.994,-42.9682 410.03,-49.2753"/>
<text text-anchor="middle" x="407.024" y="-75.5401" font-family="Times New Roman,serif" font-size="14.00">Crafting 2</text>
</g>
<!-- Flammenschwert
+ Small_Strength -->
<g id="node12" class="node"><title>Flammenschwert
+ Small_Strength</title>
<ellipse fill="none" stroke="black" cx="1046.02" cy="-26.8701" rx="79.8063" ry="26.7407"/>
<text text-anchor="middle" x="1046.02" y="-30.6701" font-family="Times New Roman,serif" font-size="14.00">Flammenschwert</text>
<text text-anchor="middle" x="1046.02" y="-15.6701" font-family="Times New Roman,serif" font-size="14.00">+ Small_Strength</text>
</g>
<!-- OreBar_A_Iron_A_Large&#45;&gt;Flammenschwert
+ Small_Strength -->
<g id="edge6" class="edge"><title>OreBar_A_Iron_A_Large&#45;&gt;Flammenschwert
+ Small_Strength</title>
<path fill="none" stroke="black" d="M547.379,-113.576C648.883,-104.301 801.244,-90.0213 814.024,-86.7401 830.417,-82.5316 832.783,-76.4987 849.024,-71.7401 895.723,-58.0575 909.578,-64.5502 957.024,-53.7401 964.035,-52.1428 971.311,-50.3148 978.544,-48.3853"/>
<polygon fill="black" stroke="black" points="979.631,-51.7168 988.354,-45.7036 977.785,-44.9646 979.631,-51.7168"/>
<text text-anchor="middle" x="877.024" y="-75.5401" font-family="Times New Roman,serif" font-size="14.00">Crafting 5</text>
</g>
<!-- TwoHandedSword -->
<g id="node3" class="node"><title>TwoHandedSword</title>
<ellipse fill="none" stroke="black" cx="290.024" cy="-209.74" rx="80.6858" ry="18"/>
<text text-anchor="middle" x="290.024" y="-206.04" font-family="Times New Roman,serif" font-size="14.00">TwoHandedSword</text>
</g>
<!-- TwoHandedSword&#45;&gt;OreBar_A_Iron_A_Large -->
<g id="edge13" class="edge"><title>TwoHandedSword&#45;&gt;OreBar_A_Iron_A_Large</title>
<path fill="none" stroke="black" d="M321.044,-192.951C347.771,-179.348 386.559,-159.606 415.875,-144.684"/>
<polygon fill="black" stroke="black" points="417.709,-147.678 425.033,-140.023 414.534,-141.44 417.709,-147.678"/>
<text text-anchor="middle" x="417.024" y="-162.54" font-family="Times New Roman,serif" font-size="14.00">Crafting 1</text>
</g>
<!-- Anvil -->
<g id="node4" class="node"><title>Anvil</title>
<ellipse fill="none" stroke="black" cx="694.024" cy="-122.74" rx="29.795" ry="18"/>
<text text-anchor="middle" x="694.024" y="-119.04" font-family="Times New Roman,serif" font-size="14.00">Anvil</text>
</g>
<!-- Anvil&#45;&gt;PracticeSword2H
+ Large_Damage -->
<g id="edge7" class="edge"><title>Anvil&#45;&gt;PracticeSword2H
+ Large_Damage</title>
<path fill="none" stroke="black" d="M665.262,-117.21C640.376,-113.424 603.4,-108.116 571.024,-104.74 458.022,-92.956 426.93,-111.404 316.024,-86.7401 297.896,-82.7087 294.926,-76.6807 277.024,-71.7401 231.805,-59.2606 218.76,-64.1684 173.024,-53.7401 165.787,-52.0899 158.269,-50.216 150.794,-48.2489"/>
<polygon fill="black" stroke="black" points="151.587,-44.8378 141.021,-45.6202 149.769,-51.5976 151.587,-44.8378"/>
<text text-anchor="middle" x="344.024" y="-75.5401" font-family="Times New Roman,serif" font-size="14.00">Crafting 5</text>
</g>
<!-- Anvil&#45;&gt;HeadingSword2H -->
<g id="edge8" class="edge"><title>Anvil&#45;&gt;HeadingSword2H</title>
<path fill="none" stroke="black" d="M718.879,-112.56C738.628,-103.734 761.353,-89.1835 751.024,-71.7401 744.719,-61.0917 734.812,-52.8568 724.088,-46.5541"/>
<polygon fill="black" stroke="black" points="725.423,-43.3003 714.949,-41.7037 722.142,-49.4834 725.423,-43.3003"/>
<text text-anchor="middle" x="782.024" y="-75.5401" font-family="Times New Roman,serif" font-size="14.00">Crafting 3</text>
</g>
<!-- Anvil&#45;&gt;HeadingSword2H_B -->
<g id="edge9" class="edge"><title>Anvil&#45;&gt;HeadingSword2H_B</title>
<path fill="none" stroke="black" d="M665.29,-117.747C602.624,-109.013 458.859,-88.8215 454.024,-86.7401 444.142,-82.4856 444.681,-76.484 435.024,-71.7401 405.419,-57.1961 394.939,-62.0739 363.024,-53.7401 351.525,-50.7372 339.263,-47.4571 327.503,-44.2718"/>
<polygon fill="black" stroke="black" points="328.337,-40.8717 317.769,-41.6267 326.502,-47.6267 328.337,-40.8717"/>
<text text-anchor="middle" x="482.024" y="-75.5401" font-family="Times New Roman,serif" font-size="14.00">Crafting 4</text>
</g>
<!-- Anvil&#45;&gt;CeremonialSword_2H -->
<g id="edge10" class="edge"><title>Anvil&#45;&gt;CeremonialSword_2H</title>
<path fill="none" stroke="black" d="M724.043,-121.438C777.462,-120.195 885.628,-114.253 909.024,-86.7401 919.623,-74.2764 908.925,-60.6831 894.435,-49.7018"/>
<polygon fill="black" stroke="black" points="896.31,-46.7428 886.106,-43.8935 892.306,-52.4845 896.31,-46.7428"/>
<text text-anchor="middle" x="942.024" y="-75.5401" font-family="Times New Roman,serif" font-size="14.00">Crafting 1</text>
</g>
<!-- Anvil&#45;&gt;CeremonialSword_2H_B -->
<g id="edge11" class="edge"><title>Anvil&#45;&gt;CeremonialSword_2H_B</title>
<path fill="none" stroke="black" d="M669.658,-111.965C654.033,-105.415 633.48,-96.2727 616.024,-86.7401 605.313,-80.8909 603.922,-77.2336 593.024,-71.7401 573.737,-62.0171 551.755,-53.2631 532.034,-46.179"/>
<polygon fill="black" stroke="black" points="533.151,-42.8616 522.556,-42.8385 530.824,-49.4636 533.151,-42.8616"/>
<text text-anchor="middle" x="644.024" y="-75.5401" font-family="Times New Roman,serif" font-size="14.00">Crafting 2</text>
</g>
<!-- Anvil&#45;&gt;Flammenschwert
+ Small_Strength -->
<g id="edge12" class="edge"><title>Anvil&#45;&gt;Flammenschwert
+ Small_Strength</title>
<path fill="none" stroke="black" d="M723.765,-120.106C786.327,-116.334 929.446,-105.844 974.024,-86.7401 988.999,-80.3227 1003.35,-69.819 1015.25,-59.4469"/>
<polygon fill="black" stroke="black" points="1017.64,-62.0049 1022.7,-52.6943 1012.94,-56.8197 1017.64,-62.0049"/>
<text text-anchor="middle" x="1029.02" y="-75.5401" font-family="Times New Roman,serif" font-size="14.00">Crafting 5</text>
</g>
<!-- Bone_A_Iron -->
<g id="node5" class="node"><title>Bone_A_Iron</title>
<ellipse fill="none" stroke="black" cx="475.024" cy="-296.74" rx="61.1893" ry="18"/>
<text text-anchor="middle" x="475.024" y="-293.04" font-family="Times New Roman,serif" font-size="14.00">Bone_A_Iron</text>
</g>
<!-- OreBar_A_Iron -->
<g id="node6" class="node"><title>OreBar_A_Iron</title>
<ellipse fill="none" stroke="black" cx="457.024" cy="-209.74" rx="68.4888" ry="18"/>
<text text-anchor="middle" x="457.024" y="-206.04" font-family="Times New Roman,serif" font-size="14.00">OreBar_A_Iron</text>
</g>
<!-- Bone_A_Iron&#45;&gt;OreBar_A_Iron -->
<g id="edge14" class="edge"><title>Bone_A_Iron&#45;&gt;OreBar_A_Iron</title>
<path fill="none" stroke="black" d="M465.002,-278.848C462.196,-273.273 459.51,-266.914 458.024,-260.74 456.305,-253.594 455.614,-245.706 455.458,-238.349"/>
<polygon fill="black" stroke="black" points="458.96,-238.131 455.557,-228.098 451.961,-238.063 458.96,-238.131"/>
<text text-anchor="middle" x="486.024" y="-249.54" font-family="Times New Roman,serif" font-size="14.00">Crafting 0</text>
</g>
<!-- OreBar_A_Iron&#45;&gt;OreBar_A_Iron_A_Large -->
<g id="edge15" class="edge"><title>OreBar_A_Iron&#45;&gt;OreBar_A_Iron_A_Large</title>
<path fill="none" stroke="black" d="M457.024,-191.539C457.024,-179.903 457.024,-164.288 457.024,-150.977"/>
<polygon fill="black" stroke="black" points="460.524,-150.916 457.024,-140.916 453.524,-150.916 460.524,-150.916"/>
<text text-anchor="middle" x="485.024" y="-162.54" font-family="Times New Roman,serif" font-size="14.00">Crafting 0</text>
</g>
<!-- Sword -->
<g id="node11" class="node"><title>Sword</title>
<ellipse fill="none" stroke="black" cx="361.024" cy="-296.74" rx="35.194" ry="18"/>
<text text-anchor="middle" x="361.024" y="-293.04" font-family="Times New Roman,serif" font-size="14.00">Sword</text>
</g>
<!-- Sword&#45;&gt;OreBar_A_Iron -->
<g id="edge16" class="edge"><title>Sword&#45;&gt;OreBar_A_Iron</title>
<path fill="none" stroke="black" d="M370.154,-279.023C376.446,-268.57 385.544,-255.319 396.024,-245.74 401.981,-240.296 408.928,-235.33 415.957,-230.958"/>
<polygon fill="black" stroke="black" points="417.983,-233.827 424.835,-225.747 414.439,-227.79 417.983,-233.827"/>
<text text-anchor="middle" x="424.024" y="-249.54" font-family="Times New Roman,serif" font-size="14.00">Crafting 1</text>
</g>
<!-- Oven -->
<g id="node13" class="node"><title>Oven</title>
<ellipse fill="none" stroke="black" cx="596.024" cy="-296.74" rx="30.5947" ry="18"/>
<text text-anchor="middle" x="596.024" y="-293.04" font-family="Times New Roman,serif" font-size="14.00">Oven</text>
</g>
<!-- Oven&#45;&gt;OreBar_A_Iron_A_Large -->
<g id="edge18" class="edge"><title>Oven&#45;&gt;OreBar_A_Iron_A_Large</title>
<path fill="none" stroke="black" d="M597.69,-278.465C597.996,-268.54 597.246,-256.04 593.024,-245.74 573.553,-198.233 556.608,-191.438 517.024,-158.74 511.208,-153.935 504.651,-149.388 498.062,-145.261"/>
<polygon fill="black" stroke="black" points="499.503,-142.044 489.126,-139.907 495.905,-148.048 499.503,-142.044"/>
<text text-anchor="middle" x="613.024" y="-206.04" font-family="Times New Roman,serif" font-size="14.00">Crafting 1</text>
</g>
<!-- Oven&#45;&gt;OreBar_A_Iron -->
<g id="edge19" class="edge"><title>Oven&#45;&gt;OreBar_A_Iron</title>
<path fill="none" stroke="black" d="M574.868,-283.483C563.568,-276.862 549.462,-268.48 537.024,-260.74 526.663,-254.292 524.336,-252.267 514.024,-245.74 506.76,-241.142 498.931,-236.277 491.47,-231.683"/>
<polygon fill="black" stroke="black" points="493.292,-228.694 482.938,-226.447 489.631,-234.66 493.292,-228.694"/>
<text text-anchor="middle" x="565.024" y="-249.54" font-family="Times New Roman,serif" font-size="14.00">Crafting 1</text>
</g>
<!-- Ore_A_Iron -->
<g id="node14" class="node"><title>Ore_A_Iron</title>
<ellipse fill="none" stroke="black" cx="252.024" cy="-296.74" rx="55.7903" ry="18"/>
<text text-anchor="middle" x="252.024" y="-293.04" font-family="Times New Roman,serif" font-size="14.00">Ore_A_Iron</text>
</g>
<!-- Ore_A_Iron&#45;&gt;OreBar_A_Iron -->
<g id="edge17" class="edge"><title>Ore_A_Iron&#45;&gt;OreBar_A_Iron</title>
<path fill="none" stroke="black" d="M270.754,-279.719C284.44,-268.746 303.879,-254.626 323.024,-245.74 336.34,-239.56 367.438,-231.313 396.326,-224.377"/>
<polygon fill="black" stroke="black" points="397.496,-227.696 406.419,-221.984 395.881,-220.885 397.496,-227.696"/>
<text text-anchor="middle" x="351.024" y="-249.54" font-family="Times New Roman,serif" font-size="14.00">Crafting 0</text>
</g>
</g>
</svg>
