<?xml version="1.0" encoding="UTF-8" standalone="no"?>
<!DOCTYPE svg PUBLIC "-//W3C//DTD SVG 1.1//EN"
 "http://www.w3.org/Graphics/SVG/1.1/DTD/svg11.dtd">
<!-- Generated by graphviz version 2.38.0 (20140413.2041)
 -->
<!-- Title: G Pages: 1 -->
<svg width="774pt" height="305pt"
 viewBox="0.00 0.00 774.08 305.00" xmlns="http://www.w3.org/2000/svg" xmlns:xlink="http://www.w3.org/1999/xlink">
<g id="graph0" class="graph" transform="scale(1 1) rotate(0) translate(4 301)">
<title>G</title>
<polygon fill="white" stroke="none" points="-4,4 -4,-301 770.084,-301 770.084,4 -4,4"/>
<!-- OreBar_A_Iron_A_Large -->
<g id="node1" class="node"><title>OreBar_A_Iron_A_Large</title>
<ellipse fill="none" stroke="black" cx="265.442" cy="-105" rx="104.782" ry="18"/>
<text text-anchor="middle" x="265.442" y="-101.3" font-family="Times New Roman,serif" font-size="14.00">OreBar_A_Iron_A_Large</text>
</g>
<!-- HeadingSword2H -->
<g id="node6" class="node"><title>HeadingSword2H</title>
<ellipse fill="none" stroke="black" cx="266.442" cy="-18" rx="75.2868" ry="18"/>
<text text-anchor="middle" x="266.442" y="-14.3" font-family="Times New Roman,serif" font-size="14.00">HeadingSword2H</text>
</g>
<!-- OreBar_A_Iron_A_Large&#45;&gt;HeadingSword2H -->
<g id="edge4" class="edge"><title>OreBar_A_Iron_A_Large&#45;&gt;HeadingSword2H</title>
<path fill="none" stroke="black" d="M211.843,-89.5264C192.327,-81.3714 177.266,-69.6392 187.442,-54 192.206,-46.6799 198.888,-40.8791 206.371,-36.2851"/>
<polygon fill="black" stroke="black" points="208.287,-39.2296 215.455,-31.4278 204.986,-33.0566 208.287,-39.2296"/>
<text text-anchor="middle" x="215.442" y="-57.8" font-family="Times New Roman,serif" font-size="14.00">Crafting 3</text>
</g>
<!-- HeadingSword2H_B -->
<g id="node7" class="node"><title>HeadingSword2H_B</title>
<ellipse fill="none" stroke="black" cx="86.4423" cy="-18" rx="86.3847" ry="18"/>
<text text-anchor="middle" x="86.4423" y="-14.3" font-family="Times New Roman,serif" font-size="14.00">HeadingSword2H_B</text>
</g>
<!-- OreBar_A_Iron_A_Large&#45;&gt;HeadingSword2H_B -->
<g id="edge1" class="edge"><title>OreBar_A_Iron_A_Large&#45;&gt;HeadingSword2H_B</title>
<path fill="none" stroke="black" d="M183.989,-93.6066C163.404,-88.4206 142.139,-80.6482 124.442,-69 115.153,-62.8857 107.233,-53.7061 101.067,-44.8746"/>
<polygon fill="black" stroke="black" points="103.875,-42.7726 95.4989,-36.2854 98.0016,-46.5804 103.875,-42.7726"/>
<text text-anchor="middle" x="152.442" y="-57.8" font-family="Times New Roman,serif" font-size="14.00">Crafting 4</text>
</g>
<!-- CeremonialSword_2H -->
<g id="node8" class="node"><title>CeremonialSword_2H</title>
<ellipse fill="none" stroke="black" cx="674.442" cy="-18" rx="91.784" ry="18"/>
<text text-anchor="middle" x="674.442" y="-14.3" font-family="Times New Roman,serif" font-size="14.00">CeremonialSword_2H</text>
</g>
<!-- OreBar_A_Iron_A_Large&#45;&gt;CeremonialSword_2H -->
<g id="edge2" class="edge"><title>OreBar_A_Iron_A_Large&#45;&gt;CeremonialSword_2H</title>
<path fill="none" stroke="black" d="M363.405,-98.5721C401.199,-93.8094 444.015,-85.0421 480.442,-69 490.289,-64.6638 489.676,-58.5128 499.442,-54 508.803,-49.6746 555.755,-40.3825 598.669,-32.4593"/>
<polygon fill="black" stroke="black" points="599.4,-35.8836 608.604,-30.6356 598.136,-28.9986 599.4,-35.8836"/>
<text text-anchor="middle" x="527.442" y="-57.8" font-family="Times New Roman,serif" font-size="14.00">Crafting 1</text>
</g>
<!-- CeremonialSword_2H_B -->
<g id="node9" class="node"><title>CeremonialSword_2H_B</title>
<ellipse fill="none" stroke="black" cx="462.442" cy="-18" rx="102.882" ry="18"/>
<text text-anchor="middle" x="462.442" y="-14.3" font-family="Times New Roman,serif" font-size="14.00">CeremonialSword_2H_B</text>
</g>
<!-- OreBar_A_Iron_A_Large&#45;&gt;CeremonialSword_2H_B -->
<g id="edge3" class="edge"><title>OreBar_A_Iron_A_Large&#45;&gt;CeremonialSword_2H_B</title>
<path fill="none" stroke="black" d="M292.501,-87.592C302.003,-81.7757 312.728,-75.1484 322.442,-69 332.754,-62.4731 334.371,-59.135 345.442,-54 360.733,-46.9078 377.81,-40.8452 394.09,-35.8566"/>
<polygon fill="black" stroke="black" points="395.507,-39.0872 404.1,-32.8897 393.517,-32.3758 395.507,-39.0872"/>
<text text-anchor="middle" x="373.442" y="-57.8" font-family="Times New Roman,serif" font-size="14.00">Crafting 2</text>
</g>
<!-- TwoHandedSword -->
<g id="node2" class="node"><title>TwoHandedSword</title>
<ellipse fill="none" stroke="black" cx="98.4423" cy="-192" rx="80.6858" ry="18"/>
<text text-anchor="middle" x="98.4423" y="-188.3" font-family="Times New Roman,serif" font-size="14.00">TwoHandedSword</text>
</g>
<!-- TwoHandedSword&#45;&gt;OreBar_A_Iron_A_Large -->
<g id="edge9" class="edge"><title>TwoHandedSword&#45;&gt;OreBar_A_Iron_A_Large</title>
<path fill="none" stroke="black" d="M129.462,-175.211C156.188,-161.608 194.977,-141.865 224.293,-126.944"/>
<polygon fill="black" stroke="black" points="226.127,-129.938 233.451,-122.283 222.952,-123.7 226.127,-129.938"/>
<text text-anchor="middle" x="220.442" y="-144.8" font-family="Times New Roman,serif" font-size="14.00">Crafting 1</text>
</g>
<!-- Anvil -->
<g id="node3" class="node"><title>Anvil</title>
<ellipse fill="none" stroke="black" cx="502.442" cy="-105" rx="29.795" ry="18"/>
<text text-anchor="middle" x="502.442" y="-101.3" font-family="Times New Roman,serif" font-size="14.00">Anvil</text>
</g>
<!-- Anvil&#45;&gt;HeadingSword2H -->
<g id="edge8" class="edge"><title>Anvil&#45;&gt;HeadingSword2H</title>
<path fill="none" stroke="black" d="M478.076,-94.2244C462.451,-87.6752 441.898,-78.5325 424.442,-69 413.731,-63.1507 412.607,-58.9293 401.442,-54 380.314,-44.6711 356.187,-37.4349 334.23,-32.0271"/>
<polygon fill="black" stroke="black" points="334.851,-28.5773 324.313,-29.6701 333.232,-35.3876 334.851,-28.5773"/>
<text text-anchor="middle" x="452.442" y="-57.8" font-family="Times New Roman,serif" font-size="14.00">Crafting 3</text>
</g>
<!-- Anvil&#45;&gt;HeadingSword2H_B -->
<g id="edge5" class="edge"><title>Anvil&#45;&gt;HeadingSword2H_B</title>
<path fill="none" stroke="black" d="M473.708,-100.007C411.042,-91.2729 267.277,-71.0814 262.442,-69 252.56,-64.7455 253.159,-58.6197 243.442,-54 228.472,-46.8821 193.622,-38.8389 160.55,-32.2594"/>
<polygon fill="black" stroke="black" points="160.853,-28.7525 150.367,-30.2671 159.509,-35.6222 160.853,-28.7525"/>
<text text-anchor="middle" x="290.442" y="-57.8" font-family="Times New Roman,serif" font-size="14.00">Crafting 4</text>
</g>
<!-- Anvil&#45;&gt;CeremonialSword_2H -->
<g id="edge6" class="edge"><title>Anvil&#45;&gt;CeremonialSword_2H</title>
<path fill="none" stroke="black" d="M531.412,-99.7555C556.972,-95.0784 594.55,-85.8719 623.442,-69 634.819,-62.3565 645.537,-52.6148 654.184,-43.491"/>
<polygon fill="black" stroke="black" points="656.804,-45.8125 660.929,-36.0539 651.618,-41.11 656.804,-45.8125"/>
<text text-anchor="middle" x="670.442" y="-57.8" font-family="Times New Roman,serif" font-size="14.00">Crafting 1</text>
</g>
<!-- Anvil&#45;&gt;CeremonialSword_2H_B -->
<g id="edge7" class="edge"><title>Anvil&#45;&gt;CeremonialSword_2H_B</title>
<path fill="none" stroke="black" d="M527.142,-94.765C547.496,-85.6958 571.244,-70.805 559.442,-54 554.34,-46.734 547.574,-40.9697 539.98,-36.398"/>
<polygon fill="black" stroke="black" points="541.219,-33.0961 530.736,-31.5604 537.973,-39.2982 541.219,-33.0961"/>
<text text-anchor="middle" x="591.442" y="-57.8" font-family="Times New Roman,serif" font-size="14.00">Crafting 2</text>
</g>
<!-- Bone_A_Iron -->
<g id="node4" class="node"><title>Bone_A_Iron</title>
<ellipse fill="none" stroke="black" cx="283.442" cy="-279" rx="61.1893" ry="18"/>
<text text-anchor="middle" x="283.442" y="-275.3" font-family="Times New Roman,serif" font-size="14.00">Bone_A_Iron</text>
</g>
<!-- OreBar_A_Iron -->
<g id="node5" class="node"><title>OreBar_A_Iron</title>
<ellipse fill="none" stroke="black" cx="265.442" cy="-192" rx="68.4888" ry="18"/>
<text text-anchor="middle" x="265.442" y="-188.3" font-family="Times New Roman,serif" font-size="14.00">OreBar_A_Iron</text>
</g>
<!-- Bone_A_Iron&#45;&gt;OreBar_A_Iron -->
<g id="edge10" class="edge"><title>Bone_A_Iron&#45;&gt;OreBar_A_Iron</title>
<path fill="none" stroke="black" d="M273.419,-261.108C270.614,-255.533 267.928,-249.174 266.442,-243 264.723,-235.854 264.032,-227.966 263.876,-220.609"/>
<polygon fill="black" stroke="black" points="267.378,-220.391 263.975,-210.357 260.379,-220.323 267.378,-220.391"/>
<text text-anchor="middle" x="294.442" y="-231.8" font-family="Times New Roman,serif" font-size="14.00">Crafting 0</text>
</g>
<!-- OreBar_A_Iron&#45;&gt;OreBar_A_Iron_A_Large -->
<g id="edge11" class="edge"><title>OreBar_A_Iron&#45;&gt;OreBar_A_Iron_A_Large</title>
<path fill="none" stroke="black" d="M265.442,-173.799C265.442,-162.163 265.442,-146.548 265.442,-133.237"/>
<polygon fill="black" stroke="black" points="268.942,-133.175 265.442,-123.175 261.942,-133.175 268.942,-133.175"/>
<text text-anchor="middle" x="293.442" y="-144.8" font-family="Times New Roman,serif" font-size="14.00">Crafting 0</text>
</g>
<!-- Sword -->
<g id="node10" class="node"><title>Sword</title>
<ellipse fill="none" stroke="black" cx="169.442" cy="-279" rx="35.194" ry="18"/>
<text text-anchor="middle" x="169.442" y="-275.3" font-family="Times New Roman,serif" font-size="14.00">Sword</text>
</g>
<!-- Sword&#45;&gt;OreBar_A_Iron -->
<g id="edge12" class="edge"><title>Sword&#45;&gt;OreBar_A_Iron</title>
<path fill="none" stroke="black" d="M178.572,-261.283C184.864,-250.829 193.962,-237.579 204.442,-228 210.399,-222.556 217.346,-217.59 224.375,-213.218"/>
<polygon fill="black" stroke="black" points="226.401,-216.087 233.253,-208.007 222.857,-210.05 226.401,-216.087"/>
<text text-anchor="middle" x="232.442" y="-231.8" font-family="Times New Roman,serif" font-size="14.00">Crafting 1</text>
</g>
<!-- Oven -->
<g id="node11" class="node"><title>Oven</title>
<ellipse fill="none" stroke="black" cx="404.442" cy="-279" rx="30.5947" ry="18"/>
<text text-anchor="middle" x="404.442" y="-275.3" font-family="Times New Roman,serif" font-size="14.00">Oven</text>
</g>
<!-- Oven&#45;&gt;OreBar_A_Iron_A_Large -->
<g id="edge13" class="edge"><title>Oven&#45;&gt;OreBar_A_Iron_A_Large</title>
<path fill="none" stroke="black" d="M406.108,-260.725C406.414,-250.8 405.664,-238.3 401.442,-228 381.971,-180.493 365.026,-173.698 325.442,-141 319.626,-136.195 313.068,-131.648 306.48,-127.52"/>
<polygon fill="black" stroke="black" points="307.921,-124.303 297.544,-122.166 304.323,-130.308 307.921,-124.303"/>
<text text-anchor="middle" x="421.442" y="-188.3" font-family="Times New Roman,serif" font-size="14.00">Crafting 1</text>
</g>
<!-- Oven&#45;&gt;OreBar_A_Iron -->
<g id="edge14" class="edge"><title>Oven&#45;&gt;OreBar_A_Iron</title>
<path fill="none" stroke="black" d="M383.286,-265.742C371.986,-259.122 357.88,-250.74 345.442,-243 335.081,-236.552 332.754,-234.527 322.442,-228 315.178,-223.402 307.349,-218.537 299.888,-213.943"/>
<polygon fill="black" stroke="black" points="301.71,-210.954 291.356,-208.707 298.048,-216.92 301.71,-210.954"/>
<text text-anchor="middle" x="373.442" y="-231.8" font-family="Times New Roman,serif" font-size="14.00">Crafting 1</text>
</g>
<!-- Ore_A_Iron -->
<g id="node12" class="node"><title>Ore_A_Iron</title>
<ellipse fill="none" stroke="black" cx="60.4423" cy="-279" rx="55.7903" ry="18"/>
<text text-anchor="middle" x="60.4423" y="-275.3" font-family="Times New Roman,serif" font-size="14.00">Ore_A_Iron</text>
</g>
<!-- Ore_A_Iron&#45;&gt;OreBar_A_Iron -->
<g id="edge15" class="edge"><title>Ore_A_Iron&#45;&gt;OreBar_A_Iron</title>
<path fill="none" stroke="black" d="M79.1719,-261.978C92.8578,-251.006 112.297,-236.885 131.442,-228 144.758,-221.82 175.856,-213.573 204.744,-206.637"/>
<polygon fill="black" stroke="black" points="205.914,-209.956 214.837,-204.243 204.299,-203.145 205.914,-209.956"/>
<text text-anchor="middle" x="159.442" y="-231.8" font-family="Times New Roman,serif" font-size="14.00">Crafting 0</text>
</g>
</g>
</svg>
