<?xml version="1.0" encoding="UTF-8" standalone="no"?>
<!DOCTYPE svg PUBLIC "-//W3C//DTD SVG 1.1//EN"
 "http://www.w3.org/Graphics/SVG/1.1/DTD/svg11.dtd">
<!-- Generated by graphviz version 2.38.0 (20140413.2041)
 -->
<!-- Title: G Pages: 1 -->
<svg width="317pt" height="131pt"
 viewBox="0.00 0.00 316.54 131.00" xmlns="http://www.w3.org/2000/svg" xmlns:xlink="http://www.w3.org/1999/xlink">
<g id="graph0" class="graph" transform="scale(1 1) rotate(0) translate(4 127)">
<title>G</title>
<polygon fill="white" stroke="none" points="-4,4 -4,-127 312.538,-127 312.538,4 -4,4"/>
<!-- Scraps_Metal -->
<g id="node1" class="node"><title>Scraps_Metal</title>
<ellipse fill="none" stroke="black" cx="73.2941" cy="-105" rx="61.1893" ry="18"/>
<text text-anchor="middle" x="73.2941" y="-101.3" font-family="Times New Roman,serif" font-size="14.00">Scraps_Metal</text>
</g>
<!-- Metal_J_Torso -->
<g id="node2" class="node"><title>Metal_J_Torso</title>
<ellipse fill="none" stroke="black" cx="66.2941" cy="-18" rx="66.0889" ry="18"/>
<text text-anchor="middle" x="66.2941" y="-14.3" font-family="Times New Roman,serif" font-size="14.00">Metal_J_Torso</text>
</g>
<!-- Scraps_Metal&#45;&gt;Metal_J_Torso -->
<g id="edge1" class="edge"><title>Scraps_Metal&#45;&gt;Metal_J_Torso</title>
<path fill="none" stroke="black" d="M43.9759,-89.1952C36.5233,-83.9053 29.4543,-77.1821 25.2941,-69 20.347,-59.2701 25.0728,-49.7182 32.8372,-41.6128"/>
<polygon fill="black" stroke="black" points="35.5307,-43.8982 40.6317,-34.6121 30.8532,-38.6903 35.5307,-43.8982"/>
<text text-anchor="middle" x="53.2941" y="-57.8" font-family="Times New Roman,serif" font-size="14.00">Crafting 4</text>
</g>
<!-- Metal_F_Torso -->
<g id="node4" class="node"><title>Metal_F_Torso</title>
<ellipse fill="none" stroke="black" cx="240.294" cy="-18" rx="68.4888" ry="18"/>
<text text-anchor="middle" x="240.294" y="-14.3" font-family="Times New Roman,serif" font-size="14.00">Metal_F_Torso</text>
</g>
<!-- Scraps_Metal&#45;&gt;Metal_F_Torso -->
<g id="edge2" class="edge"><title>Scraps_Metal&#45;&gt;Metal_F_Torso</title>
<path fill="none" stroke="black" d="M78.5451,-86.7654C82.7397,-75.8265 89.6976,-62.2295 100.294,-54 112.161,-44.7842 143.639,-36.5211 173.748,-30.3409"/>
<polygon fill="black" stroke="black" points="174.751,-33.7101 183.876,-28.3265 173.385,-26.8446 174.751,-33.7101"/>
<text text-anchor="middle" x="128.294" y="-57.8" font-family="Times New Roman,serif" font-size="14.00">Crafting 3</text>
</g>
<!-- Hammer -->
<g id="node3" class="node"><title>Hammer</title>
<ellipse fill="none" stroke="black" cx="212.294" cy="-105" rx="41.6928" ry="18"/>
<text text-anchor="middle" x="212.294" y="-101.3" font-family="Times New Roman,serif" font-size="14.00">Hammer</text>
</g>
<!-- Hammer&#45;&gt;Metal_J_Torso -->
<g id="edge3" class="edge"><title>Hammer&#45;&gt;Metal_J_Torso</title>
<path fill="none" stroke="black" d="M197.267,-88.2052C184.953,-75.5233 168.3,-59.0317 160.294,-54 148.193,-46.3942 134.188,-40.0677 120.745,-34.9819"/>
<polygon fill="black" stroke="black" points="121.685,-31.6003 111.091,-31.4975 119.309,-38.1846 121.685,-31.6003"/>
<text text-anchor="middle" x="205.294" y="-57.8" font-family="Times New Roman,serif" font-size="14.00">Crafting 4</text>
</g>
<!-- Hammer&#45;&gt;Metal_F_Torso -->
<g id="edge4" class="edge"><title>Hammer&#45;&gt;Metal_F_Torso</title>
<path fill="none" stroke="black" d="M227.884,-88.2178C232.439,-82.6084 236.847,-75.9492 239.294,-69 241.803,-61.8751 242.722,-53.8183 242.842,-46.2857"/>
<polygon fill="black" stroke="black" points="246.336,-46.0378 242.562,-36.1381 239.339,-46.2307 246.336,-46.0378"/>
<text text-anchor="middle" x="270.294" y="-57.8" font-family="Times New Roman,serif" font-size="14.00">Crafting 3</text>
</g>
</g>
</svg>
