<?xml version="1.0" encoding="UTF-8" standalone="no"?>
<!DOCTYPE svg PUBLIC "-//W3C//DTD SVG 1.1//EN"
 "http://www.w3.org/Graphics/SVG/1.1/DTD/svg11.dtd">
<!-- Generated by graphviz version 2.38.0 (20140413.2041)
 -->
<!-- Title: G Pages: 1 -->
<svg width="259pt" height="236pt"
 viewBox="0.00 0.00 259.19 235.74" xmlns="http://www.w3.org/2000/svg" xmlns:xlink="http://www.w3.org/1999/xlink">
<g id="graph0" class="graph" transform="scale(1 1) rotate(0) translate(4 231.74)">
<title>G</title>
<polygon fill="white" stroke="none" points="-4,4 -4,-231.74 255.191,-231.74 255.191,4 -4,4"/>
<!-- Spear
+ Small_FireDamage -->
<g id="node1" class="node"><title>Spear
+ Small_FireDamage</title>
<ellipse fill="none" stroke="black" cx="106.795" cy="-26.8701" rx="94.5053" ry="26.7407"/>
<text text-anchor="middle" x="106.795" y="-30.6701" font-family="Times New Roman,serif" font-size="14.00">Spear</text>
<text text-anchor="middle" x="106.795" y="-15.6701" font-family="Times New Roman,serif" font-size="14.00">+ Small_FireDamage</text>
</g>
<!-- Branch -->
<g id="node2" class="node"><title>Branch</title>
<ellipse fill="none" stroke="black" cx="123.795" cy="-209.74" rx="36.2938" ry="18"/>
<text text-anchor="middle" x="123.795" y="-206.04" font-family="Times New Roman,serif" font-size="14.00">Branch</text>
</g>
<!-- Spear -->
<g id="node5" class="node"><title>Spear</title>
<ellipse fill="none" stroke="black" cx="169.795" cy="-122.74" rx="31.6951" ry="18"/>
<text text-anchor="middle" x="169.795" y="-119.04" font-family="Times New Roman,serif" font-size="14.00">Spear</text>
</g>
<!-- Branch&#45;&gt;Spear -->
<g id="edge4" class="edge"><title>Branch&#45;&gt;Spear</title>
<path fill="none" stroke="black" d="M121.964,-191.631C121.638,-181.529 122.588,-168.792 127.795,-158.74 130.832,-152.877 135.319,-147.617 140.245,-143.063"/>
<polygon fill="black" stroke="black" points="142.71,-145.567 148.2,-136.506 138.258,-140.166 142.71,-145.567"/>
<text text-anchor="middle" x="155.795" y="-162.54" font-family="Times New Roman,serif" font-size="14.00">Crafting 2</text>
</g>
<!-- Dagger -->
<g id="node3" class="node"><title>Dagger</title>
<ellipse fill="none" stroke="black" cx="214.795" cy="-209.74" rx="36.2938" ry="18"/>
<text text-anchor="middle" x="214.795" y="-206.04" font-family="Times New Roman,serif" font-size="14.00">Dagger</text>
</g>
<!-- Dagger&#45;&gt;Spear -->
<g id="edge2" class="edge"><title>Dagger&#45;&gt;Spear</title>
<path fill="none" stroke="black" d="M205.904,-191.947C199.453,-179.761 190.61,-163.058 183.29,-149.231"/>
<polygon fill="black" stroke="black" points="186.286,-147.41 178.514,-140.209 180.099,-150.685 186.286,-147.41"/>
<text text-anchor="middle" x="222.795" y="-162.54" font-family="Times New Roman,serif" font-size="14.00">Crafting 2</text>
</g>
<!-- Essence_Fire -->
<g id="node4" class="node"><title>Essence_Fire</title>
<ellipse fill="none" stroke="black" cx="59.7947" cy="-122.74" rx="59.5901" ry="18"/>
<text text-anchor="middle" x="59.7947" y="-119.04" font-family="Times New Roman,serif" font-size="14.00">Essence_Fire</text>
</g>
<!-- Essence_Fire&#45;&gt;Spear
+ Small_FireDamage -->
<g id="edge3" class="edge"><title>Essence_Fire&#45;&gt;Spear
+ Small_FireDamage</title>
<path fill="none" stroke="black" d="M63.8913,-104.571C66.5901,-94.681 70.5901,-82.181 75.7947,-71.7401 77.4303,-68.4589 79.2946,-65.1509 81.2788,-61.9017"/>
<polygon fill="black" stroke="black" points="84.2257,-63.7902 86.7364,-53.4971 78.3549,-59.9779 84.2257,-63.7902"/>
<text text-anchor="middle" x="103.795" y="-75.5401" font-family="Times New Roman,serif" font-size="14.00">Crafting 5</text>
</g>
<!-- Spear&#45;&gt;Spear
+ Small_FireDamage -->
<g id="edge1" class="edge"><title>Spear&#45;&gt;Spear
+ Small_FireDamage</title>
<path fill="none" stroke="black" d="M158.821,-105.389C150.805,-93.4456 139.648,-76.822 129.721,-62.0306"/>
<polygon fill="black" stroke="black" points="132.53,-59.9354 124.051,-53.5825 126.718,-63.8363 132.53,-59.9354"/>
<text text-anchor="middle" x="173.795" y="-75.5401" font-family="Times New Roman,serif" font-size="14.00">Crafting 5</text>
</g>
</g>
</svg>
