<?xml version="1.0" encoding="UTF-8" standalone="no"?>
<!DOCTYPE svg PUBLIC "-//W3C//DTD SVG 1.1//EN"
 "http://www.w3.org/Graphics/SVG/1.1/DTD/svg11.dtd">
<!-- Generated by graphviz version 2.38.0 (20140413.2041)
 -->
<!-- Title: G Pages: 1 -->
<svg width="208pt" height="149pt"
 viewBox="0.00 0.00 207.76 148.74" xmlns="http://www.w3.org/2000/svg" xmlns:xlink="http://www.w3.org/1999/xlink">
<g id="graph0" class="graph" transform="scale(1 1) rotate(0) translate(4 144.74)">
<title>G</title>
<polygon fill="white" stroke="none" points="-4,4 -4,-144.74 203.762,-144.74 203.762,4 -4,4"/>
<!-- Club -->
<g id="node1" class="node"><title>Club</title>
<ellipse fill="none" stroke="black" cx="40.2168" cy="-122.74" rx="28.6953" ry="18"/>
<text text-anchor="middle" x="40.2168" y="-119.04" font-family="Times New Roman,serif" font-size="14.00">Club</text>
</g>
<!-- Club
+ Small_AirDamage -->
<g id="node3" class="node"><title>Club
+ Small_AirDamage</title>
<ellipse fill="none" stroke="black" cx="91.2168" cy="-26.8701" rx="91.4341" ry="26.7407"/>
<text text-anchor="middle" x="91.2168" y="-30.6701" font-family="Times New Roman,serif" font-size="14.00">Club</text>
<text text-anchor="middle" x="91.2168" y="-15.6701" font-family="Times New Roman,serif" font-size="14.00">+ Small_AirDamage</text>
</g>
<!-- Club&#45;&gt;Club
+ Small_AirDamage -->
<g id="edge1" class="edge"><title>Club&#45;&gt;Club
+ Small_AirDamage</title>
<path fill="none" stroke="black" d="M48.0333,-105.376C52.823,-95.537 59.1755,-82.8164 65.2168,-71.7401 66.8781,-68.6943 68.64,-65.5529 70.4328,-62.4167"/>
<polygon fill="black" stroke="black" points="73.5139,-64.0805 75.5093,-53.6753 67.4606,-60.5651 73.5139,-64.0805"/>
<text text-anchor="middle" x="93.2168" y="-75.5401" font-family="Times New Roman,serif" font-size="14.00">Crafting 5</text>
</g>
<!-- Essence_Air -->
<g id="node2" class="node"><title>Essence_Air</title>
<ellipse fill="none" stroke="black" cx="143.217" cy="-122.74" rx="56.59" ry="18"/>
<text text-anchor="middle" x="143.217" y="-119.04" font-family="Times New Roman,serif" font-size="14.00">Essence_Air</text>
</g>
<!-- Essence_Air&#45;&gt;Club
+ Small_AirDamage -->
<g id="edge2" class="edge"><title>Essence_Air&#45;&gt;Club
+ Small_AirDamage</title>
<path fill="none" stroke="black" d="M136.639,-104.699C132.613,-94.8513 127.113,-82.3513 121.217,-71.7401 119.407,-68.4837 117.423,-65.1632 115.363,-61.8799"/>
<polygon fill="black" stroke="black" points="118.194,-59.8138 109.803,-53.345 112.328,-63.6345 118.194,-59.8138"/>
<text text-anchor="middle" x="156.217" y="-75.5401" font-family="Times New Roman,serif" font-size="14.00">Crafting 5</text>
</g>
</g>
</svg>
