<?xml version="1.0" encoding="UTF-8" standalone="no"?>
<!DOCTYPE svg PUBLIC "-//W3C//DTD SVG 1.1//EN"
 "http://www.w3.org/Graphics/SVG/1.1/DTD/svg11.dtd">
<!-- Generated by graphviz version 2.38.0 (20140413.2041)
 -->
<!-- Title: G Pages: 1 -->
<svg width="513pt" height="479pt"
 viewBox="0.00 0.00 513.28 479.00" xmlns="http://www.w3.org/2000/svg" xmlns:xlink="http://www.w3.org/1999/xlink">
<g id="graph0" class="graph" transform="scale(1 1) rotate(0) translate(4 475)">
<title>G</title>
<polygon fill="white" stroke="none" points="-4,4 -4,-475 509.281,-475 509.281,4 -4,4"/>
<!-- Herb_Augmentor -->
<g id="node1" class="node"><title>Herb_Augmentor</title>
<ellipse fill="none" stroke="black" cx="80.8379" cy="-192" rx="74.187" ry="18"/>
<text text-anchor="middle" x="80.8379" y="-188.3" font-family="Times New Roman,serif" font-size="14.00">Herb_Augmentor</text>
</g>
<!-- Potion_Speed_TempBoost_Medium -->
<g id="node3" class="node"><title>Potion_Speed_TempBoost_Medium</title>
<ellipse fill="none" stroke="black" cx="292.838" cy="-105" rx="145.674" ry="18"/>
<text text-anchor="middle" x="292.838" y="-101.3" font-family="Times New Roman,serif" font-size="14.00">Potion_Speed_TempBoost_Medium</text>
</g>
<!-- Herb_Augmentor&#45;&gt;Potion_Speed_TempBoost_Medium -->
<g id="edge2" class="edge"><title>Herb_Augmentor&#45;&gt;Potion_Speed_TempBoost_Medium</title>
<path fill="none" stroke="black" d="M117.766,-176.194C152.324,-162.338 204.233,-141.526 242.561,-126.158"/>
<polygon fill="black" stroke="black" points="244.014,-129.346 251.994,-122.376 241.409,-122.849 244.014,-129.346"/>
<text text-anchor="middle" x="227.838" y="-144.8" font-family="Times New Roman,serif" font-size="14.00">Crafting 4</text>
</g>
<!-- Potion_Speed_TempBoost_Large -->
<g id="node8" class="node"><title>Potion_Speed_TempBoost_Large</title>
<ellipse fill="none" stroke="black" cx="135.838" cy="-18" rx="135.676" ry="18"/>
<text text-anchor="middle" x="135.838" y="-14.3" font-family="Times New Roman,serif" font-size="14.00">Potion_Speed_TempBoost_Large</text>
</g>
<!-- Herb_Augmentor&#45;&gt;Potion_Speed_TempBoost_Large -->
<g id="edge1" class="edge"><title>Herb_Augmentor&#45;&gt;Potion_Speed_TempBoost_Large</title>
<path fill="none" stroke="black" d="M77.6863,-173.843C74.5467,-152.73 71.53,-116.105 81.8379,-87 87.6178,-70.6803 99.0793,-55.318 109.962,-43.3384"/>
<polygon fill="black" stroke="black" points="112.607,-45.6359 116.964,-35.9784 107.535,-40.811 112.607,-45.6359"/>
<text text-anchor="middle" x="109.838" y="-101.3" font-family="Times New Roman,serif" font-size="14.00">Crafting 5</text>
</g>
<!-- Potion_Speed_TempBoost -->
<g id="node2" class="node"><title>Potion_Speed_TempBoost</title>
<ellipse fill="none" stroke="black" cx="292.838" cy="-192" rx="110.48" ry="18"/>
<text text-anchor="middle" x="292.838" y="-188.3" font-family="Times New Roman,serif" font-size="14.00">Potion_Speed_TempBoost</text>
</g>
<!-- Potion_Speed_TempBoost&#45;&gt;Potion_Speed_TempBoost_Medium -->
<g id="edge3" class="edge"><title>Potion_Speed_TempBoost&#45;&gt;Potion_Speed_TempBoost_Medium</title>
<path fill="none" stroke="black" d="M292.838,-173.799C292.838,-162.163 292.838,-146.548 292.838,-133.237"/>
<polygon fill="black" stroke="black" points="296.338,-133.175 292.838,-123.175 289.338,-133.175 296.338,-133.175"/>
<text text-anchor="middle" x="320.838" y="-144.8" font-family="Times New Roman,serif" font-size="14.00">Crafting 4</text>
</g>
<!-- Potion_Speed_TempBoost_Medium&#45;&gt;Potion_Speed_TempBoost_Large -->
<g id="edge4" class="edge"><title>Potion_Speed_TempBoost_Medium&#45;&gt;Potion_Speed_TempBoost_Large</title>
<path fill="none" stroke="black" d="M261.82,-87.2067C237.119,-73.8335 202.37,-55.0206 175.622,-40.5392"/>
<polygon fill="black" stroke="black" points="176.984,-37.2968 166.524,-35.6135 173.652,-43.4525 176.984,-37.2968"/>
<text text-anchor="middle" x="251.838" y="-57.8" font-family="Times New Roman,serif" font-size="14.00">Crafting 5</text>
</g>
<!-- Potion_Empty -->
<g id="node4" class="node"><title>Potion_Empty</title>
<ellipse fill="none" stroke="black" cx="276.838" cy="-453" rx="63.8893" ry="18"/>
<text text-anchor="middle" x="276.838" y="-449.3" font-family="Times New Roman,serif" font-size="14.00">Potion_Empty</text>
</g>
<!-- Minor_Healing_Potion -->
<g id="node10" class="node"><title>Minor_Healing_Potion</title>
<ellipse fill="none" stroke="black" cx="354.838" cy="-366" rx="92.8835" ry="18"/>
<text text-anchor="middle" x="354.838" y="-362.3" font-family="Times New Roman,serif" font-size="14.00">Minor_Healing_Potion</text>
</g>
<!-- Potion_Empty&#45;&gt;Minor_Healing_Potion -->
<g id="edge5" class="edge"><title>Potion_Empty&#45;&gt;Minor_Healing_Potion</title>
<path fill="none" stroke="black" d="M292.248,-435.207C303.786,-422.633 319.736,-405.252 332.647,-391.182"/>
<polygon fill="black" stroke="black" points="335.277,-393.493 339.46,-383.758 330.12,-388.76 335.277,-393.493"/>
<text text-anchor="middle" x="347.838" y="-405.8" font-family="Times New Roman,serif" font-size="14.00">Crafting 1</text>
</g>
<!-- Potion_Charm -->
<g id="node5" class="node"><title>Potion_Charm</title>
<ellipse fill="none" stroke="black" cx="194.838" cy="-279" rx="63.8893" ry="18"/>
<text text-anchor="middle" x="194.838" y="-275.3" font-family="Times New Roman,serif" font-size="14.00">Potion_Charm</text>
</g>
<!-- Potion_Charm&#45;&gt;Potion_Speed_TempBoost -->
<g id="edge6" class="edge"><title>Potion_Charm&#45;&gt;Potion_Speed_TempBoost</title>
<path fill="none" stroke="black" d="M213.733,-261.611C228.455,-248.842 249.097,-230.939 265.603,-216.622"/>
<polygon fill="black" stroke="black" points="268.069,-219.117 273.33,-209.92 263.482,-213.829 268.069,-219.117"/>
<text text-anchor="middle" x="277.838" y="-231.8" font-family="Times New Roman,serif" font-size="14.00">Crafting 5</text>
</g>
<!-- Herb_FannyBlossom -->
<g id="node6" class="node"><title>Herb_FannyBlossom</title>
<ellipse fill="none" stroke="black" cx="155.838" cy="-366" rx="88.2844" ry="18"/>
<text text-anchor="middle" x="155.838" y="-362.3" font-family="Times New Roman,serif" font-size="14.00">Herb_FannyBlossom</text>
</g>
<!-- Herb_FannyBlossom&#45;&gt;Potion_Charm -->
<g id="edge7" class="edge"><title>Herb_FannyBlossom&#45;&gt;Potion_Charm</title>
<path fill="none" stroke="black" d="M163.73,-347.799C169.211,-335.854 176.615,-319.717 182.825,-306.183"/>
<polygon fill="black" stroke="black" points="186.101,-307.434 187.091,-296.885 179.739,-304.515 186.101,-307.434"/>
<text text-anchor="middle" x="205.838" y="-318.8" font-family="Times New Roman,serif" font-size="14.00">Crafting 2</text>
</g>
<!-- Essence_Shadow -->
<g id="node7" class="node"><title>Essence_Shadow</title>
<ellipse fill="none" stroke="black" cx="351.838" cy="-279" rx="75.2868" ry="18"/>
<text text-anchor="middle" x="351.838" y="-275.3" font-family="Times New Roman,serif" font-size="14.00">Essence_Shadow</text>
</g>
<!-- Essence_Shadow&#45;&gt;Potion_Speed_TempBoost -->
<g id="edge8" class="edge"><title>Essence_Shadow&#45;&gt;Potion_Speed_TempBoost</title>
<path fill="none" stroke="black" d="M340.181,-261.207C331.752,-249.062 320.208,-232.431 310.63,-218.633"/>
<polygon fill="black" stroke="black" points="313.25,-216.269 304.672,-210.049 307.499,-220.26 313.25,-216.269"/>
<text text-anchor="middle" x="353.838" y="-231.8" font-family="Times New Roman,serif" font-size="14.00">Crafting 5</text>
</g>
<!-- Herb_Mushroom -->
<g id="node9" class="node"><title>Herb_Mushroom</title>
<ellipse fill="none" stroke="black" cx="431.838" cy="-453" rx="73.387" ry="18"/>
<text text-anchor="middle" x="431.838" y="-449.3" font-family="Times New Roman,serif" font-size="14.00">Herb_Mushroom</text>
</g>
<!-- Herb_Mushroom&#45;&gt;Minor_Healing_Potion -->
<g id="edge9" class="edge"><title>Herb_Mushroom&#45;&gt;Minor_Healing_Potion</title>
<path fill="none" stroke="black" d="M416.625,-435.207C405.235,-422.633 389.49,-405.252 376.744,-391.182"/>
<polygon fill="black" stroke="black" points="379.327,-388.82 370.019,-383.758 374.139,-393.519 379.327,-388.82"/>
<text text-anchor="middle" x="425.838" y="-405.8" font-family="Times New Roman,serif" font-size="14.00">Crafting 1</text>
</g>
<!-- Minor_Healing_Potion&#45;&gt;Potion_Charm -->
<g id="edge10" class="edge"><title>Minor_Healing_Potion&#45;&gt;Potion_Charm</title>
<path fill="none" stroke="black" d="M324.367,-348.812C298.218,-334.921 260.43,-314.846 232.412,-299.961"/>
<polygon fill="black" stroke="black" points="233.788,-296.729 223.315,-295.129 230.504,-302.911 233.788,-296.729"/>
<text text-anchor="middle" x="311.838" y="-318.8" font-family="Times New Roman,serif" font-size="14.00">Crafting 2</text>
</g>
</g>
</svg>
