<?xml version="1.0" encoding="UTF-8" standalone="no"?>
<!DOCTYPE svg PUBLIC "-//W3C//DTD SVG 1.1//EN"
 "http://www.w3.org/Graphics/SVG/1.1/DTD/svg11.dtd">
<!-- Generated by graphviz version 2.38.0 (20140413.2041)
 -->
<!-- Title: G Pages: 1 -->
<svg width="271pt" height="218pt"
 viewBox="0.00 0.00 271.49 218.00" xmlns="http://www.w3.org/2000/svg" xmlns:xlink="http://www.w3.org/1999/xlink">
<g id="graph0" class="graph" transform="scale(1 1) rotate(0) translate(4 214)">
<title>G</title>
<polygon fill="white" stroke="none" points="-4,4 -4,-214 267.493,-214 267.493,4 -4,4"/>
<!-- Porridge -->
<g id="node1" class="node"><title>Porridge</title>
<ellipse fill="none" stroke="black" cx="81.4469" cy="-18" rx="42.4939" ry="18"/>
<text text-anchor="middle" x="81.4469" y="-14.3" font-family="Times New Roman,serif" font-size="14.00">Porridge</text>
</g>
<!-- Bucket_A_Milk -->
<g id="node2" class="node"><title>Bucket_A_Milk</title>
<ellipse fill="none" stroke="black" cx="77.4469" cy="-192" rx="68.4888" ry="18"/>
<text text-anchor="middle" x="77.4469" y="-188.3" font-family="Times New Roman,serif" font-size="14.00">Bucket_A_Milk</text>
</g>
<!-- Cup_A_Milk -->
<g id="node4" class="node"><title>Cup_A_Milk</title>
<ellipse fill="none" stroke="black" cx="145.447" cy="-105" rx="58.4896" ry="18"/>
<text text-anchor="middle" x="145.447" y="-101.3" font-family="Times New Roman,serif" font-size="14.00">Cup_A_Milk</text>
</g>
<!-- Bucket_A_Milk&#45;&gt;Cup_A_Milk -->
<g id="edge1" class="edge"><title>Bucket_A_Milk&#45;&gt;Cup_A_Milk</title>
<path fill="none" stroke="black" d="M90.8816,-174.207C100.847,-161.75 114.588,-144.573 125.788,-130.574"/>
<polygon fill="black" stroke="black" points="128.526,-132.754 132.04,-122.758 123.06,-128.381 128.526,-132.754"/>
<text text-anchor="middle" x="144.447" y="-144.8" font-family="Times New Roman,serif" font-size="14.00">Crafting 0</text>
</g>
<!-- Wheat -->
<g id="node3" class="node"><title>Wheat</title>
<ellipse fill="none" stroke="black" cx="34.4469" cy="-105" rx="34.394" ry="18"/>
<text text-anchor="middle" x="34.4469" y="-101.3" font-family="Times New Roman,serif" font-size="14.00">Wheat</text>
</g>
<!-- Wheat&#45;&gt;Porridge -->
<g id="edge2" class="edge"><title>Wheat&#45;&gt;Porridge</title>
<path fill="none" stroke="black" d="M38.4573,-87.1109C41.2518,-77.0863 45.5434,-64.3544 51.4469,-54 53.6928,-50.061 56.4139,-46.1512 59.29,-42.4507"/>
<polygon fill="black" stroke="black" points="61.9923,-44.6751 65.7093,-34.7536 56.6165,-40.1916 61.9923,-44.6751"/>
<text text-anchor="middle" x="79.4469" y="-57.8" font-family="Times New Roman,serif" font-size="14.00">Crafting 0</text>
</g>
<!-- Cup_A_Milk&#45;&gt;Porridge -->
<g id="edge3" class="edge"><title>Cup_A_Milk&#45;&gt;Porridge</title>
<path fill="none" stroke="black" d="M132.803,-87.2067C123.451,-74.7862 110.566,-57.6735 100.042,-43.6965"/>
<polygon fill="black" stroke="black" points="102.658,-41.3526 93.8472,-35.4692 97.0663,-45.5632 102.658,-41.3526"/>
<text text-anchor="middle" x="145.447" y="-57.8" font-family="Times New Roman,serif" font-size="14.00">Crafting 0</text>
</g>
<!-- CupEmpty -->
<g id="node5" class="node"><title>CupEmpty</title>
<ellipse fill="none" stroke="black" cx="213.447" cy="-192" rx="50.0912" ry="18"/>
<text text-anchor="middle" x="213.447" y="-188.3" font-family="Times New Roman,serif" font-size="14.00">CupEmpty</text>
</g>
<!-- CupEmpty&#45;&gt;Cup_A_Milk -->
<g id="edge4" class="edge"><title>CupEmpty&#45;&gt;Cup_A_Milk</title>
<path fill="none" stroke="black" d="M201.473,-174.055C194.399,-164.24 185.149,-151.74 176.447,-141 173.552,-137.427 170.42,-133.721 167.297,-130.116"/>
<polygon fill="black" stroke="black" points="169.808,-127.671 160.574,-122.477 164.553,-132.296 169.808,-127.671"/>
<text text-anchor="middle" x="215.447" y="-144.8" font-family="Times New Roman,serif" font-size="14.00">Crafting 0</text>
</g>
</g>
</svg>
