<?xml version="1.0" encoding="UTF-8" standalone="no"?>
<!DOCTYPE svg PUBLIC "-//W3C//DTD SVG 1.1//EN"
 "http://www.w3.org/Graphics/SVG/1.1/DTD/svg11.dtd">
<!-- Generated by graphviz version 2.38.0 (20140413.2041)
 -->
<!-- Title: G Pages: 1 -->
<svg width="215pt" height="149pt"
 viewBox="0.00 0.00 214.74 148.74" xmlns="http://www.w3.org/2000/svg" xmlns:xlink="http://www.w3.org/1999/xlink">
<g id="graph0" class="graph" transform="scale(1 1) rotate(0) translate(4 144.74)">
<title>G</title>
<polygon fill="white" stroke="none" points="-4,4 -4,-144.74 210.745,-144.74 210.745,4 -4,4"/>
<!-- ArmorLeather
+ Small_AllResist -->
<g id="node1" class="node"><title>ArmorLeather
+ Small_AllResist</title>
<ellipse fill="none" stroke="black" cx="116.745" cy="-26.8701" rx="82.9636" ry="26.7407"/>
<text text-anchor="middle" x="116.745" y="-30.6701" font-family="Times New Roman,serif" font-size="14.00">ArmorLeather</text>
<text text-anchor="middle" x="116.745" y="-15.6701" font-family="Times New Roman,serif" font-size="14.00">+ Small_AllResist</text>
</g>
<!-- ArmorLeather -->
<g id="node2" class="node"><title>ArmorLeather</title>
<ellipse fill="none" stroke="black" cx="61.7445" cy="-122.74" rx="61.99" ry="18"/>
<text text-anchor="middle" x="61.7445" y="-119.04" font-family="Times New Roman,serif" font-size="14.00">ArmorLeather</text>
</g>
<!-- ArmorLeather&#45;&gt;ArmorLeather
+ Small_AllResist -->
<g id="edge2" class="edge"><title>ArmorLeather&#45;&gt;ArmorLeather
+ Small_AllResist</title>
<path fill="none" stroke="black" d="M67.2308,-104.498C70.7263,-94.5837 75.7263,-82.0837 81.7445,-71.7401 83.8392,-68.1399 86.2104,-64.5188 88.7072,-60.984"/>
<polygon fill="black" stroke="black" points="91.5283,-63.0557 94.6903,-52.9437 85.9125,-58.8768 91.5283,-63.0557"/>
<text text-anchor="middle" x="109.745" y="-75.5401" font-family="Times New Roman,serif" font-size="14.00">Crafting 5</text>
</g>
<!-- Ruby -->
<g id="node3" class="node"><title>Ruby</title>
<ellipse fill="none" stroke="black" cx="171.745" cy="-122.74" rx="30.5947" ry="18"/>
<text text-anchor="middle" x="171.745" y="-119.04" font-family="Times New Roman,serif" font-size="14.00">Ruby</text>
</g>
<!-- Ruby&#45;&gt;ArmorLeather
+ Small_AllResist -->
<g id="edge1" class="edge"><title>Ruby&#45;&gt;ArmorLeather
+ Small_AllResist</title>
<path fill="none" stroke="black" d="M162.164,-105.389C155.232,-93.5572 145.608,-77.1323 137.003,-62.4457"/>
<polygon fill="black" stroke="black" points="139.885,-60.4412 131.81,-53.5825 133.845,-63.98 139.885,-60.4412"/>
<text text-anchor="middle" x="178.745" y="-75.5401" font-family="Times New Roman,serif" font-size="14.00">Crafting 5</text>
</g>
</g>
</svg>
