<?xml version="1.0" encoding="UTF-8" standalone="no"?>
<!DOCTYPE svg PUBLIC "-//W3C//DTD SVG 1.1//EN"
 "http://www.w3.org/Graphics/SVG/1.1/DTD/svg11.dtd">
<!-- Generated by graphviz version 2.38.0 (20140413.2041)
 -->
<!-- Title: G Pages: 1 -->
<svg width="235pt" height="131pt"
 viewBox="0.00 0.00 235.48 131.00" xmlns="http://www.w3.org/2000/svg" xmlns:xlink="http://www.w3.org/1999/xlink">
<g id="graph0" class="graph" transform="scale(1 1) rotate(0) translate(4 127)">
<title>G</title>
<polygon fill="white" stroke="none" points="-4,4 -4,-127 231.48,-127 231.48,4 -4,4"/>
<!-- FUR_CookingPot_A_Open -->
<g id="node1" class="node"><title>FUR_CookingPot_A_Open</title>
<ellipse fill="none" stroke="black" cx="113.74" cy="-18" rx="113.98" ry="18"/>
<text text-anchor="middle" x="113.74" y="-14.3" font-family="Times New Roman,serif" font-size="14.00">FUR_CookingPot_A_Open</text>
</g>
<!-- Hammer -->
<g id="node2" class="node"><title>Hammer</title>
<ellipse fill="none" stroke="black" cx="56.7399" cy="-105" rx="41.6928" ry="18"/>
<text text-anchor="middle" x="56.7399" y="-101.3" font-family="Times New Roman,serif" font-size="14.00">Hammer</text>
</g>
<!-- Hammer&#45;&gt;FUR_CookingPot_A_Open -->
<g id="edge1" class="edge"><title>Hammer&#45;&gt;FUR_CookingPot_A_Open</title>
<path fill="none" stroke="black" d="M67.7301,-87.6111C75.9037,-75.4224 87.2144,-58.5556 96.5757,-44.5958"/>
<polygon fill="black" stroke="black" points="99.7307,-46.1751 102.393,-35.9203 93.9169,-42.2764 99.7307,-46.1751"/>
<text text-anchor="middle" x="116.74" y="-57.8" font-family="Times New Roman,serif" font-size="14.00">Crafting 0</text>
</g>
<!-- CookingPot -->
<g id="node3" class="node"><title>CookingPot</title>
<ellipse fill="none" stroke="black" cx="170.74" cy="-105" rx="54.6905" ry="18"/>
<text text-anchor="middle" x="170.74" y="-101.3" font-family="Times New Roman,serif" font-size="14.00">CookingPot</text>
</g>
<!-- CookingPot&#45;&gt;FUR_CookingPot_A_Open -->
<g id="edge2" class="edge"><title>CookingPot&#45;&gt;FUR_CookingPot_A_Open</title>
<path fill="none" stroke="black" d="M165.056,-86.981C161.265,-76.9104 155.701,-64.1757 148.74,-54 146.284,-50.4094 143.43,-46.8701 140.433,-43.5024"/>
<polygon fill="black" stroke="black" points="142.728,-40.8376 133.296,-36.012 137.66,-45.6663 142.728,-40.8376"/>
<text text-anchor="middle" x="184.74" y="-57.8" font-family="Times New Roman,serif" font-size="14.00">Crafting 0</text>
</g>
</g>
</svg>
