<?xml version="1.0" encoding="UTF-8" standalone="no"?>
<!DOCTYPE svg PUBLIC "-//W3C//DTD SVG 1.1//EN"
 "http://www.w3.org/Graphics/SVG/1.1/DTD/svg11.dtd">
<!-- Generated by graphviz version 2.38.0 (20140413.2041)
 -->
<!-- Title: G Pages: 1 -->
<svg width="288pt" height="149pt"
 viewBox="0.00 0.00 287.64 148.74" xmlns="http://www.w3.org/2000/svg" xmlns:xlink="http://www.w3.org/1999/xlink">
<g id="graph0" class="graph" transform="scale(1 1) rotate(0) translate(4 144.74)">
<title>G</title>
<polygon fill="white" stroke="none" points="-4,4 -4,-144.74 283.638,-144.74 283.638,4 -4,4"/>
<!-- LeatherHelmet -->
<g id="node1" class="node"><title>LeatherHelmet</title>
<ellipse fill="none" stroke="black" cx="63.0444" cy="-122.74" rx="63.0888" ry="18"/>
<text text-anchor="middle" x="63.0444" y="-119.04" font-family="Times New Roman,serif" font-size="14.00">LeatherHelmet</text>
</g>
<!-- LeatherHelmet
+ Small_WaterResistance -->
<g id="node2" class="node"><title>LeatherHelmet
+ Small_WaterResistance</title>
<ellipse fill="none" stroke="black" cx="137.044" cy="-26.8701" rx="113.689" ry="26.7407"/>
<text text-anchor="middle" x="137.044" y="-30.6701" font-family="Times New Roman,serif" font-size="14.00">LeatherHelmet</text>
<text text-anchor="middle" x="137.044" y="-15.6701" font-family="Times New Roman,serif" font-size="14.00">+ Small_WaterResistance</text>
</g>
<!-- LeatherHelmet&#45;&gt;LeatherHelmet
+ Small_WaterResistance -->
<g id="edge1" class="edge"><title>LeatherHelmet&#45;&gt;LeatherHelmet
+ Small_WaterResistance</title>
<path fill="none" stroke="black" d="M76.2741,-104.958C85.815,-92.8553 99.0126,-76.1139 110.672,-61.324"/>
<polygon fill="black" stroke="black" points="113.516,-63.3701 116.958,-53.35 108.018,-59.0364 113.516,-63.3701"/>
<text text-anchor="middle" x="131.044" y="-75.5401" font-family="Times New Roman,serif" font-size="14.00">Crafting 3</text>
</g>
<!-- Essence_Water -->
<g id="node3" class="node"><title>Essence_Water</title>
<ellipse fill="none" stroke="black" cx="212.044" cy="-122.74" rx="67.6881" ry="18"/>
<text text-anchor="middle" x="212.044" y="-119.04" font-family="Times New Roman,serif" font-size="14.00">Essence_Water</text>
</g>
<!-- Essence_Water&#45;&gt;LeatherHelmet
+ Small_WaterResistance -->
<g id="edge2" class="edge"><title>Essence_Water&#45;&gt;LeatherHelmet
+ Small_WaterResistance</title>
<path fill="none" stroke="black" d="M198.636,-104.958C188.966,-92.8553 175.59,-76.1139 163.773,-61.324"/>
<polygon fill="black" stroke="black" points="166.379,-58.9779 157.402,-53.35 160.91,-63.3474 166.379,-58.9779"/>
<text text-anchor="middle" x="212.044" y="-75.5401" font-family="Times New Roman,serif" font-size="14.00">Crafting 3</text>
</g>
</g>
</svg>
