<?xml version="1.0" encoding="UTF-8" standalone="no"?>
<!DOCTYPE svg PUBLIC "-//W3C//DTD SVG 1.1//EN"
 "http://www.w3.org/Graphics/SVG/1.1/DTD/svg11.dtd">
<!-- Generated by graphviz version 2.38.0 (20140413.2041)
 -->
<!-- Title: G Pages: 1 -->
<svg width="669pt" height="392pt"
 viewBox="0.00 0.00 668.99 392.00" xmlns="http://www.w3.org/2000/svg" xmlns:xlink="http://www.w3.org/1999/xlink">
<g id="graph0" class="graph" transform="scale(1 1) rotate(0) translate(4 388)">
<title>G</title>
<polygon fill="white" stroke="none" points="-4,4 -4,-388 664.99,-388 664.99,4 -4,4"/>
<!-- Pouch_Dust_Pixie -->
<g id="node1" class="node"><title>Pouch_Dust_Pixie</title>
<ellipse fill="none" stroke="black" cx="326.994" cy="-192" rx="78.7863" ry="18"/>
<text text-anchor="middle" x="326.994" y="-188.3" font-family="Times New Roman,serif" font-size="14.00">Pouch_Dust_Pixie</text>
</g>
<!-- Tooth_A_Magic -->
<g id="node10" class="node"><title>Tooth_A_Magic</title>
<ellipse fill="none" stroke="black" cx="190.994" cy="-105" rx="71.4873" ry="18"/>
<text text-anchor="middle" x="190.994" y="-101.3" font-family="Times New Roman,serif" font-size="14.00">Tooth_A_Magic</text>
</g>
<!-- Pouch_Dust_Pixie&#45;&gt;Tooth_A_Magic -->
<g id="edge1" class="edge"><title>Pouch_Dust_Pixie&#45;&gt;Tooth_A_Magic</title>
<path fill="none" stroke="black" d="M302.907,-174.677C288.068,-164.74 268.579,-151.902 250.994,-141 243.398,-136.291 235.172,-131.375 227.317,-126.767"/>
<polygon fill="black" stroke="black" points="229.062,-123.733 218.66,-121.722 225.538,-129.781 229.062,-123.733"/>
<text text-anchor="middle" x="302.994" y="-144.8" font-family="Times New Roman,serif" font-size="14.00">Crafting 2</text>
</g>
<!-- Pouch_Dust_Bone -->
<g id="node2" class="node"><title>Pouch_Dust_Bone</title>
<ellipse fill="none" stroke="black" cx="180.994" cy="-279" rx="79.8859" ry="18"/>
<text text-anchor="middle" x="180.994" y="-275.3" font-family="Times New Roman,serif" font-size="14.00">Pouch_Dust_Bone</text>
</g>
<!-- Pouch_Dust_Bone&#45;&gt;Pouch_Dust_Pixie -->
<g id="edge3" class="edge"><title>Pouch_Dust_Bone&#45;&gt;Pouch_Dust_Pixie</title>
<path fill="none" stroke="black" d="M208.456,-262.012C231.805,-248.418 265.504,-228.799 291.007,-213.951"/>
<polygon fill="black" stroke="black" points="292.775,-216.972 299.656,-208.916 289.253,-210.923 292.775,-216.972"/>
<text text-anchor="middle" x="290.994" y="-231.8" font-family="Times New Roman,serif" font-size="14.00">Crafting 0</text>
</g>
<!-- Tooth_MagicBelt -->
<g id="node3" class="node"><title>Tooth_MagicBelt</title>
<ellipse fill="none" stroke="black" cx="134.994" cy="-18" rx="74.9875" ry="18"/>
<text text-anchor="middle" x="134.994" y="-14.3" font-family="Times New Roman,serif" font-size="14.00">Tooth_MagicBelt</text>
</g>
<!-- Tooth -->
<g id="node4" class="node"><title>Tooth</title>
<ellipse fill="none" stroke="black" cx="190.994" cy="-192" rx="33.2948" ry="18"/>
<text text-anchor="middle" x="190.994" y="-188.3" font-family="Times New Roman,serif" font-size="14.00">Tooth</text>
</g>
<!-- Tooth&#45;&gt;Tooth_A_Magic -->
<g id="edge4" class="edge"><title>Tooth&#45;&gt;Tooth_A_Magic</title>
<path fill="none" stroke="black" d="M190.994,-173.799C190.994,-162.163 190.994,-146.548 190.994,-133.237"/>
<polygon fill="black" stroke="black" points="194.494,-133.175 190.994,-123.175 187.494,-133.175 194.494,-133.175"/>
<text text-anchor="middle" x="218.994" y="-144.8" font-family="Times New Roman,serif" font-size="14.00">Crafting 2</text>
</g>
<!-- Rope -->
<g id="node5" class="node"><title>Rope</title>
<ellipse fill="none" stroke="black" cx="69.9942" cy="-105" rx="30.5947" ry="18"/>
<text text-anchor="middle" x="69.9942" y="-101.3" font-family="Times New Roman,serif" font-size="14.00">Rope</text>
</g>
<!-- Rope&#45;&gt;Tooth_MagicBelt -->
<g id="edge5" class="edge"><title>Rope&#45;&gt;Tooth_MagicBelt</title>
<path fill="none" stroke="black" d="M78.5032,-87.5849C84.0516,-77.4968 91.7707,-64.5325 99.9942,-54 102.868,-50.3191 106.099,-46.6238 109.406,-43.0861"/>
<polygon fill="black" stroke="black" points="112.175,-45.2598 116.658,-35.6598 107.167,-40.3693 112.175,-45.2598"/>
<text text-anchor="middle" x="127.994" y="-57.8" font-family="Times New Roman,serif" font-size="14.00">Crafting 2</text>
</g>
<!-- Moonstone -->
<g id="node6" class="node"><title>Moonstone</title>
<ellipse fill="none" stroke="black" cx="608.994" cy="-366" rx="51.9908" ry="18"/>
<text text-anchor="middle" x="608.994" y="-362.3" font-family="Times New Roman,serif" font-size="14.00">Moonstone</text>
</g>
<!-- Pouch_Dust_Moon -->
<g id="node15" class="node"><title>Pouch_Dust_Moon</title>
<ellipse fill="none" stroke="black" cx="530.994" cy="-279" rx="83.3857" ry="18"/>
<text text-anchor="middle" x="530.994" y="-275.3" font-family="Times New Roman,serif" font-size="14.00">Pouch_Dust_Moon</text>
</g>
<!-- Moonstone&#45;&gt;Pouch_Dust_Moon -->
<g id="edge6" class="edge"><title>Moonstone&#45;&gt;Pouch_Dust_Moon</title>
<path fill="none" stroke="black" d="M604.276,-347.834C600.779,-337.464 595.186,-324.466 586.994,-315 582.711,-310.05 577.553,-305.568 572.123,-301.59"/>
<polygon fill="black" stroke="black" points="573.705,-298.436 563.454,-295.76 569.799,-304.244 573.705,-298.436"/>
<text text-anchor="middle" x="623.994" y="-318.8" font-family="Times New Roman,serif" font-size="14.00">Crafting 0</text>
</g>
<!-- Pouch_Dust_Star -->
<g id="node7" class="node"><title>Pouch_Dust_Star</title>
<ellipse fill="none" stroke="black" cx="353.994" cy="-279" rx="75.2868" ry="18"/>
<text text-anchor="middle" x="353.994" y="-275.3" font-family="Times New Roman,serif" font-size="14.00">Pouch_Dust_Star</text>
</g>
<!-- Pouch_Dust_Star&#45;&gt;Pouch_Dust_Pixie -->
<g id="edge7" class="edge"><title>Pouch_Dust_Star&#45;&gt;Pouch_Dust_Pixie</title>
<path fill="none" stroke="black" d="M348.53,-260.799C344.798,-249.047 339.776,-233.238 335.521,-219.842"/>
<polygon fill="black" stroke="black" points="338.813,-218.647 332.45,-210.175 332.142,-220.766 338.813,-218.647"/>
<text text-anchor="middle" x="370.994" y="-231.8" font-family="Times New Roman,serif" font-size="14.00">Crafting 0</text>
</g>
<!-- MortarPestle -->
<g id="node8" class="node"><title>MortarPestle</title>
<ellipse fill="none" stroke="black" cx="450.994" cy="-366" rx="57.3905" ry="18"/>
<text text-anchor="middle" x="450.994" y="-362.3" font-family="Times New Roman,serif" font-size="14.00">MortarPestle</text>
</g>
<!-- MortarPestle&#45;&gt;Pouch_Dust_Bone -->
<g id="edge13" class="edge"><title>MortarPestle&#45;&gt;Pouch_Dust_Bone</title>
<path fill="none" stroke="black" d="M414.875,-351.99C400.208,-346.098 383.368,-338.535 368.994,-330 359.743,-324.507 359.745,-319.546 349.994,-315 345.197,-312.764 294.201,-302.331 249.471,-293.433"/>
<polygon fill="black" stroke="black" points="249.942,-289.959 239.452,-291.445 248.58,-296.825 249.942,-289.959"/>
<text text-anchor="middle" x="396.994" y="-318.8" font-family="Times New Roman,serif" font-size="14.00">Crafting 0</text>
</g>
<!-- MortarPestle&#45;&gt;Pouch_Dust_Star -->
<g id="edge14" class="edge"><title>MortarPestle&#45;&gt;Pouch_Dust_Star</title>
<path fill="none" stroke="black" d="M446.822,-347.946C443.491,-337.358 437.88,-324.085 428.994,-315 422.575,-308.437 414.688,-302.97 406.467,-298.461"/>
<polygon fill="black" stroke="black" points="407.974,-295.301 397.467,-293.937 404.83,-301.555 407.974,-295.301"/>
<text text-anchor="middle" x="467.994" y="-318.8" font-family="Times New Roman,serif" font-size="14.00">Crafting 0</text>
</g>
<!-- MortarPestle&#45;&gt;Pouch_Dust_Moon -->
<g id="edge15" class="edge"><title>MortarPestle&#45;&gt;Pouch_Dust_Moon</title>
<path fill="none" stroke="black" d="M481.585,-350.675C490.937,-345.2 500.673,-338.253 507.994,-330 513.945,-323.292 518.623,-314.783 522.163,-306.695"/>
<polygon fill="black" stroke="black" points="525.5,-307.774 525.924,-297.187 518.991,-305.199 525.5,-307.774"/>
<text text-anchor="middle" x="545.994" y="-318.8" font-family="Times New Roman,serif" font-size="14.00">Crafting 0</text>
</g>
<!-- Skull_Human -->
<g id="node9" class="node"><title>Skull_Human</title>
<ellipse fill="none" stroke="black" cx="72.9942" cy="-366" rx="59.5901" ry="18"/>
<text text-anchor="middle" x="72.9942" y="-362.3" font-family="Times New Roman,serif" font-size="14.00">Skull_Human</text>
</g>
<!-- Skull_Human&#45;&gt;Pouch_Dust_Bone -->
<g id="edge12" class="edge"><title>Skull_Human&#45;&gt;Pouch_Dust_Bone</title>
<path fill="none" stroke="black" d="M87.0853,-348.087C96.1424,-337.812 108.514,-324.825 120.994,-315 127.323,-310.017 134.435,-305.252 141.489,-300.929"/>
<polygon fill="black" stroke="black" points="143.499,-303.807 150.331,-295.709 139.94,-297.779 143.499,-303.807"/>
<text text-anchor="middle" x="148.994" y="-318.8" font-family="Times New Roman,serif" font-size="14.00">Crafting 0</text>
</g>
<!-- Tooth_A_Magic&#45;&gt;Tooth_MagicBelt -->
<g id="edge9" class="edge"><title>Tooth_A_Magic&#45;&gt;Tooth_MagicBelt</title>
<path fill="none" stroke="black" d="M179.93,-87.2067C171.929,-75.0621 160.973,-58.4315 151.882,-44.6326"/>
<polygon fill="black" stroke="black" points="154.651,-42.4744 146.227,-36.0493 148.806,-46.3255 154.651,-42.4744"/>
<text text-anchor="middle" x="194.994" y="-57.8" font-family="Times New Roman,serif" font-size="14.00">Crafting 2</text>
</g>
<!-- Herb_Stardust -->
<g id="node11" class="node"><title>Herb_Stardust</title>
<ellipse fill="none" stroke="black" cx="292.994" cy="-366" rx="63.8893" ry="18"/>
<text text-anchor="middle" x="292.994" y="-362.3" font-family="Times New Roman,serif" font-size="14.00">Herb_Stardust</text>
</g>
<!-- Herb_Stardust&#45;&gt;Pouch_Dust_Star -->
<g id="edge10" class="edge"><title>Herb_Stardust&#45;&gt;Pouch_Dust_Star</title>
<path fill="none" stroke="black" d="M289.326,-347.658C288.107,-337.472 288.275,-324.731 293.994,-315 297.323,-309.337 301.951,-304.499 307.175,-300.392"/>
<polygon fill="black" stroke="black" points="309.486,-303.053 315.774,-294.526 305.541,-297.27 309.486,-303.053"/>
<text text-anchor="middle" x="321.994" y="-318.8" font-family="Times New Roman,serif" font-size="14.00">Crafting 0</text>
</g>
<!-- Wool -->
<g id="node12" class="node"><title>Wool</title>
<ellipse fill="none" stroke="black" cx="51.9942" cy="-279" rx="31.3957" ry="18"/>
<text text-anchor="middle" x="51.9942" y="-275.3" font-family="Times New Roman,serif" font-size="14.00">Wool</text>
</g>
<!-- Yarn_A_Wool -->
<g id="node13" class="node"><title>Yarn_A_Wool</title>
<ellipse fill="none" stroke="black" cx="64.9942" cy="-192" rx="64.9885" ry="18"/>
<text text-anchor="middle" x="64.9942" y="-188.3" font-family="Times New Roman,serif" font-size="14.00">Yarn_A_Wool</text>
</g>
<!-- Wool&#45;&gt;Yarn_A_Wool -->
<g id="edge11" class="edge"><title>Wool&#45;&gt;Yarn_A_Wool</title>
<path fill="none" stroke="black" d="M54.625,-260.799C56.4047,-249.163 58.7928,-233.548 60.8286,-220.237"/>
<polygon fill="black" stroke="black" points="64.3153,-220.59 62.3674,-210.175 57.3957,-219.531 64.3153,-220.59"/>
<text text-anchor="middle" x="87.9942" y="-231.8" font-family="Times New Roman,serif" font-size="14.00">Crafting 0</text>
</g>
<!-- Yarn_A_Wool&#45;&gt;Rope -->
<g id="edge16" class="edge"><title>Yarn_A_Wool&#45;&gt;Rope</title>
<path fill="none" stroke="black" d="M66.0061,-173.799C66.6906,-162.163 67.6091,-146.548 68.3921,-133.237"/>
<polygon fill="black" stroke="black" points="71.8906,-133.364 68.9839,-123.175 64.9026,-132.953 71.8906,-133.364"/>
<text text-anchor="middle" x="95.9942" y="-144.8" font-family="Times New Roman,serif" font-size="14.00">Crafting 0</text>
</g>
<!-- Bone -->
<g id="node14" class="node"><title>Bone</title>
<ellipse fill="none" stroke="black" cx="180.994" cy="-366" rx="29.795" ry="18"/>
<text text-anchor="middle" x="180.994" y="-362.3" font-family="Times New Roman,serif" font-size="14.00">Bone</text>
</g>
<!-- Bone&#45;&gt;Pouch_Dust_Bone -->
<g id="edge8" class="edge"><title>Bone&#45;&gt;Pouch_Dust_Bone</title>
<path fill="none" stroke="black" d="M180.994,-347.799C180.994,-336.163 180.994,-320.548 180.994,-307.237"/>
<polygon fill="black" stroke="black" points="184.494,-307.175 180.994,-297.175 177.494,-307.175 184.494,-307.175"/>
<text text-anchor="middle" x="208.994" y="-318.8" font-family="Times New Roman,serif" font-size="14.00">Crafting 0</text>
</g>
<!-- Pouch_Dust_Moon&#45;&gt;Pouch_Dust_Pixie -->
<g id="edge2" class="edge"><title>Pouch_Dust_Moon&#45;&gt;Pouch_Dust_Pixie</title>
<path fill="none" stroke="black" d="M494.523,-262.804C460.437,-248.601 409.42,-227.344 372.645,-212.021"/>
<polygon fill="black" stroke="black" points="373.727,-208.68 363.15,-208.065 371.034,-215.142 373.727,-208.68"/>
<text text-anchor="middle" x="469.994" y="-231.8" font-family="Times New Roman,serif" font-size="14.00">Crafting 0</text>
</g>
</g>
</svg>
