<?xml version="1.0" encoding="UTF-8" standalone="no"?>
<!DOCTYPE svg PUBLIC "-//W3C//DTD SVG 1.1//EN"
 "http://www.w3.org/Graphics/SVG/1.1/DTD/svg11.dtd">
<!-- Generated by graphviz version 2.38.0 (20140413.2041)
 -->
<!-- Title: G Pages: 1 -->
<svg width="249pt" height="149pt"
 viewBox="0.00 0.00 249.04 148.74" xmlns="http://www.w3.org/2000/svg" xmlns:xlink="http://www.w3.org/1999/xlink">
<g id="graph0" class="graph" transform="scale(1 1) rotate(0) translate(4 144.74)">
<title>G</title>
<polygon fill="white" stroke="none" points="-4,4 -4,-144.74 245.038,-144.74 245.038,4 -4,4"/>
<!-- Soul_Tormented -->
<g id="node1" class="node"><title>Soul_Tormented</title>
<ellipse fill="none" stroke="black" cx="72.1436" cy="-122.74" rx="72.2875" ry="18"/>
<text text-anchor="middle" x="72.1436" y="-119.04" font-family="Times New Roman,serif" font-size="14.00">Soul_Tormented</text>
</g>
<!-- Knife
+ Small_TormentedSoul -->
<g id="node2" class="node"><title>Knife
+ Small_TormentedSoul</title>
<ellipse fill="none" stroke="black" cx="132.144" cy="-26.8701" rx="108.789" ry="26.7407"/>
<text text-anchor="middle" x="132.144" y="-30.6701" font-family="Times New Roman,serif" font-size="14.00">Knife</text>
<text text-anchor="middle" x="132.144" y="-15.6701" font-family="Times New Roman,serif" font-size="14.00">+ Small_TormentedSoul</text>
</g>
<!-- Soul_Tormented&#45;&gt;Knife
+ Small_TormentedSoul -->
<g id="edge1" class="edge"><title>Soul_Tormented&#45;&gt;Knife
+ Small_TormentedSoul</title>
<path fill="none" stroke="black" d="M83.1485,-104.523C90.7129,-92.6884 101.014,-76.5716 110.22,-62.1698"/>
<polygon fill="black" stroke="black" points="113.339,-63.7887 115.776,-53.4778 107.441,-60.0187 113.339,-63.7887"/>
<text text-anchor="middle" x="132.144" y="-75.5401" font-family="Times New Roman,serif" font-size="14.00">Crafting 5</text>
</g>
<!-- Knife -->
<g id="node3" class="node"><title>Knife</title>
<ellipse fill="none" stroke="black" cx="193.144" cy="-122.74" rx="30.5947" ry="18"/>
<text text-anchor="middle" x="193.144" y="-119.04" font-family="Times New Roman,serif" font-size="14.00">Knife</text>
</g>
<!-- Knife&#45;&gt;Knife
+ Small_TormentedSoul -->
<g id="edge2" class="edge"><title>Knife&#45;&gt;Knife
+ Small_TormentedSoul</title>
<path fill="none" stroke="black" d="M184.162,-105.267C178.637,-95.3901 171.27,-82.6672 164.144,-71.7401 162.003,-68.4582 159.714,-65.0856 157.382,-61.7382"/>
<polygon fill="black" stroke="black" points="160.198,-59.6594 151.552,-53.5356 154.492,-63.7144 160.198,-59.6594"/>
<text text-anchor="middle" x="202.144" y="-75.5401" font-family="Times New Roman,serif" font-size="14.00">Crafting 5</text>
</g>
</g>
</svg>
