<?xml version="1.0" encoding="UTF-8" standalone="no"?>
<!DOCTYPE svg PUBLIC "-//W3C//DTD SVG 1.1//EN"
 "http://www.w3.org/Graphics/SVG/1.1/DTD/svg11.dtd">
<!-- Generated by graphviz version 2.38.0 (20140413.2041)
 -->
<!-- Title: G Pages: 1 -->
<svg width="201pt" height="149pt"
 viewBox="0.00 0.00 201.00 148.74" xmlns="http://www.w3.org/2000/svg" xmlns:xlink="http://www.w3.org/1999/xlink">
<g id="graph0" class="graph" transform="scale(1 1) rotate(0) translate(4 144.74)">
<title>G</title>
<polygon fill="white" stroke="none" points="-4,4 -4,-144.74 196.995,-144.74 196.995,4 -4,4"/>
<!-- Moonstone -->
<g id="node1" class="node"><title>Moonstone</title>
<ellipse fill="none" stroke="black" cx="51.9954" cy="-122.74" rx="51.9908" ry="18"/>
<text text-anchor="middle" x="51.9954" y="-119.04" font-family="Times New Roman,serif" font-size="14.00">Moonstone</text>
</g>
<!-- Staff
+ Medium_Damage -->
<g id="node2" class="node"><title>Staff
+ Medium_Damage</title>
<ellipse fill="none" stroke="black" cx="100.995" cy="-26.8701" rx="89.6056" ry="26.7407"/>
<text text-anchor="middle" x="100.995" y="-30.6701" font-family="Times New Roman,serif" font-size="14.00">Staff</text>
<text text-anchor="middle" x="100.995" y="-15.6701" font-family="Times New Roman,serif" font-size="14.00">+ Medium_Damage</text>
</g>
<!-- Moonstone&#45;&gt;Staff
+ Medium_Damage -->
<g id="edge1" class="edge"><title>Moonstone&#45;&gt;Staff
+ Medium_Damage</title>
<path fill="none" stroke="black" d="M58.2988,-104.745C62.1499,-94.9137 67.3999,-82.4137 72.9954,-71.7401 74.6394,-68.6042 76.4362,-65.4003 78.3004,-62.2228"/>
<polygon fill="black" stroke="black" points="81.4514,-63.7777 83.6623,-53.4161 75.4724,-60.1374 81.4514,-63.7777"/>
<text text-anchor="middle" x="100.995" y="-75.5401" font-family="Times New Roman,serif" font-size="14.00">Crafting 3</text>
</g>
<!-- Staff -->
<g id="node3" class="node"><title>Staff</title>
<ellipse fill="none" stroke="black" cx="150.995" cy="-122.74" rx="28.6953" ry="18"/>
<text text-anchor="middle" x="150.995" y="-119.04" font-family="Times New Roman,serif" font-size="14.00">Staff</text>
</g>
<!-- Staff&#45;&gt;Staff
+ Medium_Damage -->
<g id="edge2" class="edge"><title>Staff&#45;&gt;Staff
+ Medium_Damage</title>
<path fill="none" stroke="black" d="M144.29,-104.768C140.222,-94.9435 134.722,-82.4435 128.995,-71.7401 127.325,-68.6181 125.51,-65.424 123.634,-62.2529"/>
<polygon fill="black" stroke="black" points="126.457,-60.1605 118.253,-53.4563 120.485,-63.8132 126.457,-60.1605"/>
<text text-anchor="middle" x="164.995" y="-75.5401" font-family="Times New Roman,serif" font-size="14.00">Crafting 3</text>
</g>
</g>
</svg>
