<?xml version="1.0" encoding="UTF-8" standalone="no"?>
<!DOCTYPE svg PUBLIC "-//W3C//DTD SVG 1.1//EN"
 "http://www.w3.org/Graphics/SVG/1.1/DTD/svg11.dtd">
<!-- Generated by graphviz version 2.38.0 (20140413.2041)
 -->
<!-- Title: G Pages: 1 -->
<svg width="812pt" height="392pt"
 viewBox="0.00 0.00 812.04 392.00" xmlns="http://www.w3.org/2000/svg" xmlns:xlink="http://www.w3.org/1999/xlink">
<g id="graph0" class="graph" transform="scale(1 1) rotate(0) translate(4 388)">
<title>G</title>
<polygon fill="white" stroke="none" points="-4,4 -4,-388 808.044,-388 808.044,4 -4,4"/>
<!-- Pouch_Dust_Pixie -->
<g id="node1" class="node"><title>Pouch_Dust_Pixie</title>
<ellipse fill="none" stroke="black" cx="363.147" cy="-192" rx="78.7863" ry="18"/>
<text text-anchor="middle" x="363.147" y="-188.3" font-family="Times New Roman,serif" font-size="14.00">Pouch_Dust_Pixie</text>
</g>
<!-- Tusk_A_Magic -->
<g id="node17" class="node"><title>Tusk_A_Magic</title>
<ellipse fill="none" stroke="black" cx="363.147" cy="-105" rx="67.6881" ry="18"/>
<text text-anchor="middle" x="363.147" y="-101.3" font-family="Times New Roman,serif" font-size="14.00">Tusk_A_Magic</text>
</g>
<!-- Pouch_Dust_Pixie&#45;&gt;Tusk_A_Magic -->
<g id="edge1" class="edge"><title>Pouch_Dust_Pixie&#45;&gt;Tusk_A_Magic</title>
<path fill="none" stroke="black" d="M363.147,-173.799C363.147,-162.163 363.147,-146.548 363.147,-133.237"/>
<polygon fill="black" stroke="black" points="366.647,-133.175 363.147,-123.175 359.647,-133.175 366.647,-133.175"/>
<text text-anchor="middle" x="391.147" y="-144.8" font-family="Times New Roman,serif" font-size="14.00">Crafting 1</text>
</g>
<!-- Sheep -->
<g id="node2" class="node"><title>Sheep</title>
<ellipse fill="none" stroke="black" cx="33.1471" cy="-366" rx="33.2948" ry="18"/>
<text text-anchor="middle" x="33.1471" y="-362.3" font-family="Times New Roman,serif" font-size="14.00">Sheep</text>
</g>
<!-- Wool -->
<g id="node14" class="node"><title>Wool</title>
<ellipse fill="none" stroke="black" cx="119.147" cy="-279" rx="31.3957" ry="18"/>
<text text-anchor="middle" x="119.147" y="-275.3" font-family="Times New Roman,serif" font-size="14.00">Wool</text>
</g>
<!-- Sheep&#45;&gt;Wool -->
<g id="edge2" class="edge"><title>Sheep&#45;&gt;Wool</title>
<path fill="none" stroke="black" d="M39.0725,-348.224C43.4045,-337.747 50.1042,-324.493 59.1471,-315 66.711,-307.06 76.4723,-300.344 85.9153,-294.985"/>
<polygon fill="black" stroke="black" points="87.6027,-298.052 94.7892,-290.267 84.3165,-291.871 87.6027,-298.052"/>
<text text-anchor="middle" x="87.1471" y="-318.8" font-family="Times New Roman,serif" font-size="14.00">Crafting 0</text>
</g>
<!-- Shears -->
<g id="node3" class="node"><title>Shears</title>
<ellipse fill="none" stroke="black" cx="119.147" cy="-366" rx="35.194" ry="18"/>
<text text-anchor="middle" x="119.147" y="-362.3" font-family="Times New Roman,serif" font-size="14.00">Shears</text>
</g>
<!-- Shears&#45;&gt;Wool -->
<g id="edge3" class="edge"><title>Shears&#45;&gt;Wool</title>
<path fill="none" stroke="black" d="M119.147,-347.799C119.147,-336.163 119.147,-320.548 119.147,-307.237"/>
<polygon fill="black" stroke="black" points="122.647,-307.175 119.147,-297.175 115.647,-307.175 122.647,-307.175"/>
<text text-anchor="middle" x="147.147" y="-318.8" font-family="Times New Roman,serif" font-size="14.00">Crafting 0</text>
</g>
<!-- Pouch_Dust_Moon -->
<g id="node4" class="node"><title>Pouch_Dust_Moon</title>
<ellipse fill="none" stroke="black" cx="445.147" cy="-279" rx="83.3857" ry="18"/>
<text text-anchor="middle" x="445.147" y="-275.3" font-family="Times New Roman,serif" font-size="14.00">Pouch_Dust_Moon</text>
</g>
<!-- Pouch_Dust_Moon&#45;&gt;Pouch_Dust_Pixie -->
<g id="edge18" class="edge"><title>Pouch_Dust_Moon&#45;&gt;Pouch_Dust_Pixie</title>
<path fill="none" stroke="black" d="M428.946,-261.207C416.817,-248.633 400.049,-231.252 386.476,-217.182"/>
<polygon fill="black" stroke="black" points="388.776,-214.525 379.314,-209.758 383.738,-219.385 388.776,-214.525"/>
<text text-anchor="middle" x="437.147" y="-231.8" font-family="Times New Roman,serif" font-size="14.00">Crafting 0</text>
</g>
<!-- Pouch_Dust_Bone -->
<g id="node5" class="node"><title>Pouch_Dust_Bone</title>
<ellipse fill="none" stroke="black" cx="638.147" cy="-279" rx="79.8859" ry="18"/>
<text text-anchor="middle" x="638.147" y="-275.3" font-family="Times New Roman,serif" font-size="14.00">Pouch_Dust_Bone</text>
</g>
<!-- Pouch_Dust_Bone&#45;&gt;Pouch_Dust_Pixie -->
<g id="edge5" class="edge"><title>Pouch_Dust_Bone&#45;&gt;Pouch_Dust_Pixie</title>
<path fill="none" stroke="black" d="M593.044,-264.059C545.089,-249.237 469.225,-225.788 417.882,-209.918"/>
<polygon fill="black" stroke="black" points="418.862,-206.558 408.274,-206.948 416.795,-213.245 418.862,-206.558"/>
<text text-anchor="middle" x="545.147" y="-231.8" font-family="Times New Roman,serif" font-size="14.00">Crafting 0</text>
</g>
<!-- Tusk_MagicBelt -->
<g id="node6" class="node"><title>Tusk_MagicBelt</title>
<ellipse fill="none" stroke="black" cx="303.147" cy="-18" rx="70.6878" ry="18"/>
<text text-anchor="middle" x="303.147" y="-14.3" font-family="Times New Roman,serif" font-size="14.00">Tusk_MagicBelt</text>
</g>
<!-- Rope -->
<g id="node7" class="node"><title>Rope</title>
<ellipse fill="none" stroke="black" cx="231.147" cy="-105" rx="30.5947" ry="18"/>
<text text-anchor="middle" x="231.147" y="-101.3" font-family="Times New Roman,serif" font-size="14.00">Rope</text>
</g>
<!-- Rope&#45;&gt;Tusk_MagicBelt -->
<g id="edge7" class="edge"><title>Rope&#45;&gt;Tusk_MagicBelt</title>
<path fill="none" stroke="black" d="M243.072,-87.9335C250.61,-77.9767 260.683,-65.0278 270.147,-54 273.166,-50.4826 276.426,-46.8453 279.682,-43.3054"/>
<polygon fill="black" stroke="black" points="282.432,-45.4898 286.707,-35.7959 277.32,-40.7078 282.432,-45.4898"/>
<text text-anchor="middle" x="298.147" y="-57.8" font-family="Times New Roman,serif" font-size="14.00">Crafting 1</text>
</g>
<!-- Moonstone -->
<g id="node8" class="node"><title>Moonstone</title>
<ellipse fill="none" stroke="black" cx="536.147" cy="-366" rx="51.9908" ry="18"/>
<text text-anchor="middle" x="536.147" y="-362.3" font-family="Times New Roman,serif" font-size="14.00">Moonstone</text>
</g>
<!-- Moonstone&#45;&gt;Pouch_Dust_Moon -->
<g id="edge8" class="edge"><title>Moonstone&#45;&gt;Pouch_Dust_Moon</title>
<path fill="none" stroke="black" d="M538.202,-347.639C538.506,-337.195 537.129,-324.189 530.147,-315 524.545,-307.628 517.117,-301.8 508.978,-297.195"/>
<polygon fill="black" stroke="black" points="510.429,-294.007 499.92,-292.662 507.296,-300.267 510.429,-294.007"/>
<text text-anchor="middle" x="565.147" y="-318.8" font-family="Times New Roman,serif" font-size="14.00">Crafting 0</text>
</g>
<!-- Pouch_Dust_Star -->
<g id="node9" class="node"><title>Pouch_Dust_Star</title>
<ellipse fill="none" stroke="black" cx="268.147" cy="-279" rx="75.2868" ry="18"/>
<text text-anchor="middle" x="268.147" y="-275.3" font-family="Times New Roman,serif" font-size="14.00">Pouch_Dust_Star</text>
</g>
<!-- Pouch_Dust_Star&#45;&gt;Pouch_Dust_Pixie -->
<g id="edge9" class="edge"><title>Pouch_Dust_Star&#45;&gt;Pouch_Dust_Pixie</title>
<path fill="none" stroke="black" d="M286.916,-261.207C301.099,-248.517 320.755,-230.93 336.555,-216.793"/>
<polygon fill="black" stroke="black" points="339.298,-219.035 344.417,-209.758 334.631,-213.818 339.298,-219.035"/>
<text text-anchor="middle" x="350.147" y="-231.8" font-family="Times New Roman,serif" font-size="14.00">Crafting 0</text>
</g>
<!-- MortarPestle -->
<g id="node10" class="node"><title>MortarPestle</title>
<ellipse fill="none" stroke="black" cx="394.147" cy="-366" rx="57.3905" ry="18"/>
<text text-anchor="middle" x="394.147" y="-362.3" font-family="Times New Roman,serif" font-size="14.00">MortarPestle</text>
</g>
<!-- MortarPestle&#45;&gt;Pouch_Dust_Moon -->
<g id="edge17" class="edge"><title>MortarPestle&#45;&gt;Pouch_Dust_Moon</title>
<path fill="none" stroke="black" d="M390.775,-347.823C389.66,-337.697 389.835,-324.959 395.147,-315 397.734,-310.15 401.326,-305.829 405.409,-302.021"/>
<polygon fill="black" stroke="black" points="407.617,-304.736 413.178,-295.717 403.207,-299.3 407.617,-304.736"/>
<text text-anchor="middle" x="423.147" y="-318.8" font-family="Times New Roman,serif" font-size="14.00">Crafting 0</text>
</g>
<!-- MortarPestle&#45;&gt;Pouch_Dust_Bone -->
<g id="edge15" class="edge"><title>MortarPestle&#45;&gt;Pouch_Dust_Bone</title>
<path fill="none" stroke="black" d="M420.096,-349.948C429.981,-343.986 441.245,-336.913 451.147,-330 459.969,-323.841 460.399,-319.552 470.147,-315 487.122,-307.074 527.963,-298.489 565.124,-291.805"/>
<polygon fill="black" stroke="black" points="565.742,-295.25 574.979,-290.06 564.522,-288.357 565.742,-295.25"/>
<text text-anchor="middle" x="498.147" y="-318.8" font-family="Times New Roman,serif" font-size="14.00">Crafting 0</text>
</g>
<!-- MortarPestle&#45;&gt;Pouch_Dust_Star -->
<g id="edge16" class="edge"><title>MortarPestle&#45;&gt;Pouch_Dust_Star</title>
<path fill="none" stroke="black" d="M365.335,-350.281C354.393,-344.36 341.967,-337.229 331.147,-330 318.934,-321.841 306.121,-311.945 295.263,-303.117"/>
<polygon fill="black" stroke="black" points="297.326,-300.282 287.383,-296.622 292.873,-305.683 297.326,-300.282"/>
<text text-anchor="middle" x="359.147" y="-318.8" font-family="Times New Roman,serif" font-size="14.00">Crafting 0</text>
</g>
<!-- Skull_Human -->
<g id="node11" class="node"><title>Skull_Human</title>
<ellipse fill="none" stroke="black" cx="666.147" cy="-366" rx="59.5901" ry="18"/>
<text text-anchor="middle" x="666.147" y="-362.3" font-family="Times New Roman,serif" font-size="14.00">Skull_Human</text>
</g>
<!-- Skull_Human&#45;&gt;Pouch_Dust_Bone -->
<g id="edge11" class="edge"><title>Skull_Human&#45;&gt;Pouch_Dust_Bone</title>
<path fill="none" stroke="black" d="M660.481,-347.799C656.61,-336.047 651.402,-320.238 646.989,-306.842"/>
<polygon fill="black" stroke="black" points="650.258,-305.578 643.805,-297.175 643.609,-307.768 650.258,-305.578"/>
<text text-anchor="middle" x="682.147" y="-318.8" font-family="Times New Roman,serif" font-size="14.00">Crafting 0</text>
</g>
<!-- Tusk -->
<g id="node12" class="node"><title>Tusk</title>
<ellipse fill="none" stroke="black" cx="489.147" cy="-192" rx="29.4969" ry="18"/>
<text text-anchor="middle" x="489.147" y="-188.3" font-family="Times New Roman,serif" font-size="14.00">Tusk</text>
</g>
<!-- Tusk&#45;&gt;Tusk_A_Magic -->
<g id="edge12" class="edge"><title>Tusk&#45;&gt;Tusk_A_Magic</title>
<path fill="none" stroke="black" d="M472.191,-177.258C459.099,-166.87 440.368,-152.486 423.147,-141 415.864,-136.142 407.887,-131.225 400.195,-126.673"/>
<polygon fill="black" stroke="black" points="401.757,-123.533 391.354,-121.522 398.233,-129.581 401.757,-123.533"/>
<text text-anchor="middle" x="472.147" y="-144.8" font-family="Times New Roman,serif" font-size="14.00">Crafting 1</text>
</g>
<!-- Herb_Stardust -->
<g id="node13" class="node"><title>Herb_Stardust</title>
<ellipse fill="none" stroke="black" cx="236.147" cy="-366" rx="63.8893" ry="18"/>
<text text-anchor="middle" x="236.147" y="-362.3" font-family="Times New Roman,serif" font-size="14.00">Herb_Stardust</text>
</g>
<!-- Herb_Stardust&#45;&gt;Pouch_Dust_Star -->
<g id="edge13" class="edge"><title>Herb_Stardust&#45;&gt;Pouch_Dust_Star</title>
<path fill="none" stroke="black" d="M233.614,-347.764C232.853,-337.851 233.103,-325.351 237.147,-315 238.601,-311.279 240.641,-307.695 242.99,-304.332"/>
<polygon fill="black" stroke="black" points="245.764,-306.468 249.301,-296.481 240.308,-302.082 245.764,-306.468"/>
<text text-anchor="middle" x="265.147" y="-318.8" font-family="Times New Roman,serif" font-size="14.00">Crafting 0</text>
</g>
<!-- Yarn_A_Wool -->
<g id="node15" class="node"><title>Yarn_A_Wool</title>
<ellipse fill="none" stroke="black" cx="181.147" cy="-192" rx="64.9885" ry="18"/>
<text text-anchor="middle" x="181.147" y="-188.3" font-family="Times New Roman,serif" font-size="14.00">Yarn_A_Wool</text>
</g>
<!-- Wool&#45;&gt;Yarn_A_Wool -->
<g id="edge14" class="edge"><title>Wool&#45;&gt;Yarn_A_Wool</title>
<path fill="none" stroke="black" d="M130.809,-262.012C139.814,-249.666 152.444,-232.351 162.8,-218.153"/>
<polygon fill="black" stroke="black" points="165.836,-219.93 168.901,-209.789 160.181,-215.805 165.836,-219.93"/>
<text text-anchor="middle" x="182.147" y="-231.8" font-family="Times New Roman,serif" font-size="14.00">Crafting 0</text>
</g>
<!-- Yarn_A_Wool&#45;&gt;Rope -->
<g id="edge6" class="edge"><title>Yarn_A_Wool&#45;&gt;Rope</title>
<path fill="none" stroke="black" d="M191.025,-174.207C198.309,-161.824 208.337,-144.778 216.545,-130.824"/>
<polygon fill="black" stroke="black" points="219.575,-132.576 221.628,-122.182 213.541,-129.026 219.575,-132.576"/>
<text text-anchor="middle" x="237.147" y="-144.8" font-family="Times New Roman,serif" font-size="14.00">Crafting 0</text>
</g>
<!-- Bone -->
<g id="node16" class="node"><title>Bone</title>
<ellipse fill="none" stroke="black" cx="774.147" cy="-366" rx="29.795" ry="18"/>
<text text-anchor="middle" x="774.147" y="-362.3" font-family="Times New Roman,serif" font-size="14.00">Bone</text>
</g>
<!-- Bone&#45;&gt;Pouch_Dust_Bone -->
<g id="edge10" class="edge"><title>Bone&#45;&gt;Pouch_Dust_Bone</title>
<path fill="none" stroke="black" d="M758.735,-350.2C747.108,-339.539 730.428,-325.279 714.147,-315 705.118,-309.299 695.008,-303.987 685.182,-299.31"/>
<polygon fill="black" stroke="black" points="686.44,-296.035 675.893,-295.028 683.51,-302.393 686.44,-296.035"/>
<text text-anchor="middle" x="762.147" y="-318.8" font-family="Times New Roman,serif" font-size="14.00">Crafting 0</text>
</g>
<!-- Tusk_A_Magic&#45;&gt;Tusk_MagicBelt -->
<g id="edge4" class="edge"><title>Tusk_A_Magic&#45;&gt;Tusk_MagicBelt</title>
<path fill="none" stroke="black" d="M351.293,-87.2067C342.582,-74.8663 330.602,-57.8941 320.771,-43.9675"/>
<polygon fill="black" stroke="black" points="323.603,-41.9097 314.977,-35.7584 317.884,-45.9465 323.603,-41.9097"/>
<text text-anchor="middle" x="365.147" y="-57.8" font-family="Times New Roman,serif" font-size="14.00">Crafting 1</text>
</g>
</g>
</svg>
