<?xml version="1.0" encoding="UTF-8" standalone="no"?>
<!DOCTYPE svg PUBLIC "-//W3C//DTD SVG 1.1//EN"
 "http://www.w3.org/Graphics/SVG/1.1/DTD/svg11.dtd">
<!-- Generated by graphviz version 2.38.0 (20140413.2041)
 -->
<!-- Title: G Pages: 1 -->
<svg width="225pt" height="149pt"
 viewBox="0.00 0.00 225.04 148.74" xmlns="http://www.w3.org/2000/svg" xmlns:xlink="http://www.w3.org/1999/xlink">
<g id="graph0" class="graph" transform="scale(1 1) rotate(0) translate(4 144.74)">
<title>G</title>
<polygon fill="white" stroke="none" points="-4,4 -4,-144.74 221.039,-144.74 221.039,4 -4,4"/>
<!-- Pearl -->
<g id="node1" class="node"><title>Pearl</title>
<ellipse fill="none" stroke="black" cx="43.9949" cy="-122.74" rx="28.6953" ry="18"/>
<text text-anchor="middle" x="43.9949" y="-119.04" font-family="Times New Roman,serif" font-size="14.00">Pearl</text>
</g>
<!-- LeatherHelmet
+ Body_Boost_Value -->
<g id="node3" class="node"><title>LeatherHelmet
+ Body_Boost_Value</title>
<ellipse fill="none" stroke="black" cx="98.9949" cy="-26.8701" rx="98.9899" ry="26.7407"/>
<text text-anchor="middle" x="98.9949" y="-30.6701" font-family="Times New Roman,serif" font-size="14.00">LeatherHelmet</text>
<text text-anchor="middle" x="98.9949" y="-15.6701" font-family="Times New Roman,serif" font-size="14.00">+ Body_Boost_Value</text>
</g>
<!-- Pearl&#45;&gt;LeatherHelmet
+ Body_Boost_Value -->
<g id="edge1" class="edge"><title>Pearl&#45;&gt;LeatherHelmet
+ Body_Boost_Value</title>
<path fill="none" stroke="black" d="M53.5752,-105.389C60.5078,-93.5572 70.1314,-77.1323 78.7365,-62.4457"/>
<polygon fill="black" stroke="black" points="81.894,-63.98 83.9296,-53.5825 75.8544,-60.4412 81.894,-63.98"/>
<text text-anchor="middle" x="101.995" y="-75.5401" font-family="Times New Roman,serif" font-size="14.00">Crafting 1</text>
</g>
<!-- LeatherHelmet -->
<g id="node2" class="node"><title>LeatherHelmet</title>
<ellipse fill="none" stroke="black" cx="153.995" cy="-122.74" rx="63.0888" ry="18"/>
<text text-anchor="middle" x="153.995" y="-119.04" font-family="Times New Roman,serif" font-size="14.00">LeatherHelmet</text>
</g>
<!-- LeatherHelmet&#45;&gt;LeatherHelmet
+ Body_Boost_Value -->
<g id="edge2" class="edge"><title>LeatherHelmet&#45;&gt;LeatherHelmet
+ Body_Boost_Value</title>
<path fill="none" stroke="black" d="M147.595,-104.597C143.629,-94.7156 138.129,-82.2156 131.995,-71.7401 129.993,-68.3218 127.772,-64.8571 125.455,-61.4512"/>
<polygon fill="black" stroke="black" points="128.213,-59.2908 119.568,-53.1659 122.507,-63.345 128.213,-59.2908"/>
<text text-anchor="middle" x="167.995" y="-75.5401" font-family="Times New Roman,serif" font-size="14.00">Crafting 1</text>
</g>
</g>
</svg>
