<?xml version="1.0" encoding="UTF-8" standalone="no"?>
<!DOCTYPE svg PUBLIC "-//W3C//DTD SVG 1.1//EN"
 "http://www.w3.org/Graphics/SVG/1.1/DTD/svg11.dtd">
<!-- Generated by graphviz version 2.38.0 (20140413.2041)
 -->
<!-- Title: G Pages: 1 -->
<svg width="264pt" height="218pt"
 viewBox="0.00 0.00 263.74 218.00" xmlns="http://www.w3.org/2000/svg" xmlns:xlink="http://www.w3.org/1999/xlink">
<g id="graph0" class="graph" transform="scale(1 1) rotate(0) translate(4 214)">
<title>G</title>
<polygon fill="white" stroke="none" points="-4,4 -4,-214 259.742,-214 259.742,4 -4,4"/>
<!-- Cheese -->
<g id="node1" class="node"><title>Cheese</title>
<ellipse fill="none" stroke="black" cx="42.7422" cy="-192" rx="37.0935" ry="18"/>
<text text-anchor="middle" x="42.7422" y="-188.3" font-family="Times New Roman,serif" font-size="14.00">Cheese</text>
</g>
<!-- Dough_CheeseBread -->
<g id="node2" class="node"><title>Dough_CheeseBread</title>
<ellipse fill="none" stroke="black" cx="87.7422" cy="-105" rx="87.9851" ry="18"/>
<text text-anchor="middle" x="87.7422" y="-101.3" font-family="Times New Roman,serif" font-size="14.00">Dough_CheeseBread</text>
</g>
<!-- Cheese&#45;&gt;Dough_CheeseBread -->
<g id="edge1" class="edge"><title>Cheese&#45;&gt;Dough_CheeseBread</title>
<path fill="none" stroke="black" d="M44.5895,-174.004C46.2133,-163.942 49.2215,-151.208 54.7422,-141 56.7535,-137.281 59.2598,-133.664 61.9867,-130.255"/>
<polygon fill="black" stroke="black" points="64.6365,-132.542 68.6207,-122.724 59.384,-127.914 64.6365,-132.542"/>
<text text-anchor="middle" x="82.7422" y="-144.8" font-family="Times New Roman,serif" font-size="14.00">Crafting 0</text>
</g>
<!-- Bread_Cheese -->
<g id="node4" class="node"><title>Bread_Cheese</title>
<ellipse fill="none" stroke="black" cx="169.742" cy="-18" rx="63.8893" ry="18"/>
<text text-anchor="middle" x="169.742" y="-14.3" font-family="Times New Roman,serif" font-size="14.00">Bread_Cheese</text>
</g>
<!-- Dough_CheeseBread&#45;&gt;Bread_Cheese -->
<g id="edge2" class="edge"><title>Dough_CheeseBread&#45;&gt;Bread_Cheese</title>
<path fill="none" stroke="black" d="M102.414,-87.0254C111.054,-77.2005 122.304,-64.7005 132.742,-54 136.429,-50.2201 140.41,-46.2991 144.346,-42.5085"/>
<polygon fill="black" stroke="black" points="146.934,-44.8771 151.772,-35.4512 142.112,-39.803 146.934,-44.8771"/>
<text text-anchor="middle" x="160.742" y="-57.8" font-family="Times New Roman,serif" font-size="14.00">Crafting 0</text>
</g>
<!-- Dough -->
<g id="node3" class="node"><title>Dough</title>
<ellipse fill="none" stroke="black" cx="132.742" cy="-192" rx="35.194" ry="18"/>
<text text-anchor="middle" x="132.742" y="-188.3" font-family="Times New Roman,serif" font-size="14.00">Dough</text>
</g>
<!-- Dough&#45;&gt;Dough_CheeseBread -->
<g id="edge3" class="edge"><title>Dough&#45;&gt;Dough_CheeseBread</title>
<path fill="none" stroke="black" d="M126.091,-173.999C122.04,-164.165 116.54,-151.665 110.742,-141 109.059,-137.904 107.189,-134.725 105.262,-131.607"/>
<polygon fill="black" stroke="black" points="108.144,-129.617 99.7948,-123.095 102.255,-133.4 108.144,-129.617"/>
<text text-anchor="middle" x="145.742" y="-144.8" font-family="Times New Roman,serif" font-size="14.00">Crafting 0</text>
</g>
<!-- Oven -->
<g id="node5" class="node"><title>Oven</title>
<ellipse fill="none" stroke="black" cx="223.742" cy="-105" rx="30.5947" ry="18"/>
<text text-anchor="middle" x="223.742" y="-101.3" font-family="Times New Roman,serif" font-size="14.00">Oven</text>
</g>
<!-- Oven&#45;&gt;Bread_Cheese -->
<g id="edge4" class="edge"><title>Oven&#45;&gt;Bread_Cheese</title>
<path fill="none" stroke="black" d="M213.585,-88.0122C205.816,-75.7828 194.949,-58.6772 185.978,-44.556"/>
<polygon fill="black" stroke="black" points="188.724,-42.3524 180.408,-35.7885 182.816,-46.1061 188.724,-42.3524"/>
<text text-anchor="middle" x="227.742" y="-57.8" font-family="Times New Roman,serif" font-size="14.00">Crafting 0</text>
</g>
</g>
</svg>
