<?xml version="1.0" encoding="UTF-8" standalone="no"?>
<!DOCTYPE svg PUBLIC "-//W3C//DTD SVG 1.1//EN"
 "http://www.w3.org/Graphics/SVG/1.1/DTD/svg11.dtd">
<!-- Generated by graphviz version 2.38.0 (20140413.2041)
 -->
<!-- Title: G Pages: 1 -->
<svg width="270pt" height="149pt"
 viewBox="0.00 0.00 269.54 148.74" xmlns="http://www.w3.org/2000/svg" xmlns:xlink="http://www.w3.org/1999/xlink">
<g id="graph0" class="graph" transform="scale(1 1) rotate(0) translate(4 144.74)">
<title>G</title>
<polygon fill="white" stroke="none" points="-4,4 -4,-144.74 265.539,-144.74 265.539,4 -4,4"/>
<!-- ArmorLeather
+ Small_FireResistance -->
<g id="node1" class="node"><title>ArmorLeather
+ Small_FireResistance</title>
<ellipse fill="none" stroke="black" cx="131.745" cy="-26.8701" rx="105.218" ry="26.7407"/>
<text text-anchor="middle" x="131.745" y="-30.6701" font-family="Times New Roman,serif" font-size="14.00">ArmorLeather</text>
<text text-anchor="middle" x="131.745" y="-15.6701" font-family="Times New Roman,serif" font-size="14.00">+ Small_FireResistance</text>
</g>
<!-- ArmorLeather -->
<g id="node2" class="node"><title>ArmorLeather</title>
<ellipse fill="none" stroke="black" cx="61.7445" cy="-122.74" rx="61.99" ry="18"/>
<text text-anchor="middle" x="61.7445" y="-119.04" font-family="Times New Roman,serif" font-size="14.00">ArmorLeather</text>
</g>
<!-- ArmorLeather&#45;&gt;ArmorLeather
+ Small_FireResistance -->
<g id="edge1" class="edge"><title>ArmorLeather&#45;&gt;ArmorLeather
+ Small_FireResistance</title>
<path fill="none" stroke="black" d="M74.2591,-104.958C83.2007,-92.9674 95.5376,-76.4235 106.491,-61.7353"/>
<polygon fill="black" stroke="black" points="109.572,-63.4588 112.744,-53.35 103.96,-59.2742 109.572,-63.4588"/>
<text text-anchor="middle" x="127.745" y="-75.5401" font-family="Times New Roman,serif" font-size="14.00">Crafting 3</text>
</g>
<!-- Essence_Fire -->
<g id="node3" class="node"><title>Essence_Fire</title>
<ellipse fill="none" stroke="black" cx="201.745" cy="-122.74" rx="59.5901" ry="18"/>
<text text-anchor="middle" x="201.745" y="-119.04" font-family="Times New Roman,serif" font-size="14.00">Essence_Fire</text>
</g>
<!-- Essence_Fire&#45;&gt;ArmorLeather
+ Small_FireResistance -->
<g id="edge2" class="edge"><title>Essence_Fire&#45;&gt;ArmorLeather
+ Small_FireResistance</title>
<path fill="none" stroke="black" d="M189.23,-104.958C180.288,-92.9674 167.951,-76.4235 156.998,-61.7353"/>
<polygon fill="black" stroke="black" points="159.529,-59.2742 150.745,-53.35 153.917,-63.4588 159.529,-59.2742"/>
<text text-anchor="middle" x="203.745" y="-75.5401" font-family="Times New Roman,serif" font-size="14.00">Crafting 3</text>
</g>
</g>
</svg>
