<?xml version="1.0" encoding="UTF-8" standalone="no"?>
<!DOCTYPE svg PUBLIC "-//W3C//DTD SVG 1.1//EN"
 "http://www.w3.org/Graphics/SVG/1.1/DTD/svg11.dtd">
<!-- Generated by graphviz version 2.38.0 (20140413.2041)
 -->
<!-- Title: G Pages: 1 -->
<svg width="276pt" height="149pt"
 viewBox="0.00 0.00 275.79 148.74" xmlns="http://www.w3.org/2000/svg" xmlns:xlink="http://www.w3.org/1999/xlink">
<g id="graph0" class="graph" transform="scale(1 1) rotate(0) translate(4 144.74)">
<title>G</title>
<polygon fill="white" stroke="none" points="-4,4 -4,-144.74 271.789,-144.74 271.789,4 -4,4"/>
<!-- ArmorGloves -->
<g id="node1" class="node"><title>ArmorGloves</title>
<ellipse fill="none" stroke="black" cx="60.4446" cy="-122.74" rx="60.3893" ry="18"/>
<text text-anchor="middle" x="60.4446" y="-119.04" font-family="Times New Roman,serif" font-size="14.00">ArmorGloves</text>
</g>
<!-- ArmorGloves
+ Small_EarthResistance -->
<g id="node2" class="node"><title>ArmorGloves
+ Small_EarthResistance</title>
<ellipse fill="none" stroke="black" cx="131.445" cy="-26.8701" rx="110.118" ry="26.7407"/>
<text text-anchor="middle" x="131.445" y="-30.6701" font-family="Times New Roman,serif" font-size="14.00">ArmorGloves</text>
<text text-anchor="middle" x="131.445" y="-15.6701" font-family="Times New Roman,serif" font-size="14.00">+ Small_EarthResistance</text>
</g>
<!-- ArmorGloves&#45;&gt;ArmorGloves
+ Small_EarthResistance -->
<g id="edge1" class="edge"><title>ArmorGloves&#45;&gt;ArmorGloves
+ Small_EarthResistance</title>
<path fill="none" stroke="black" d="M73.138,-104.958C82.2073,-92.9674 94.7205,-76.4235 105.83,-61.7353"/>
<polygon fill="black" stroke="black" points="108.931,-63.437 112.172,-53.35 103.349,-59.2142 108.931,-63.437"/>
<text text-anchor="middle" x="126.445" y="-75.5401" font-family="Times New Roman,serif" font-size="14.00">Crafting 3</text>
</g>
<!-- Essence_Earth -->
<g id="node3" class="node"><title>Essence_Earth</title>
<ellipse fill="none" stroke="black" cx="203.445" cy="-122.74" rx="64.189" ry="18"/>
<text text-anchor="middle" x="203.445" y="-119.04" font-family="Times New Roman,serif" font-size="14.00">Essence_Earth</text>
</g>
<!-- Essence_Earth&#45;&gt;ArmorGloves
+ Small_EarthResistance -->
<g id="edge2" class="edge"><title>Essence_Earth&#45;&gt;ArmorGloves
+ Small_EarthResistance</title>
<path fill="none" stroke="black" d="M190.572,-104.958C181.289,-92.8553 168.449,-76.1139 157.104,-61.324"/>
<polygon fill="black" stroke="black" points="159.851,-59.1546 150.988,-53.35 154.297,-63.4149 159.851,-59.1546"/>
<text text-anchor="middle" x="204.445" y="-75.5401" font-family="Times New Roman,serif" font-size="14.00">Crafting 3</text>
</g>
</g>
</svg>
