<?xml version="1.0" encoding="UTF-8" standalone="no"?>
<!DOCTYPE svg PUBLIC "-//W3C//DTD SVG 1.1//EN"
 "http://www.w3.org/Graphics/SVG/1.1/DTD/svg11.dtd">
<!-- Generated by graphviz version 2.38.0 (20140413.2041)
 -->
<!-- Title: G Pages: 1 -->
<svg width="248pt" height="149pt"
 viewBox="0.00 0.00 248.04 148.74" xmlns="http://www.w3.org/2000/svg" xmlns:xlink="http://www.w3.org/1999/xlink">
<g id="graph0" class="graph" transform="scale(1 1) rotate(0) translate(4 144.74)">
<title>G</title>
<polygon fill="white" stroke="none" points="-4,4 -4,-144.74 244.038,-144.74 244.038,4 -4,4"/>
<!-- Soul_Tormented -->
<g id="node1" class="node"><title>Soul_Tormented</title>
<ellipse fill="none" stroke="black" cx="72.1436" cy="-122.74" rx="72.2875" ry="18"/>
<text text-anchor="middle" x="72.1436" y="-119.04" font-family="Times New Roman,serif" font-size="14.00">Soul_Tormented</text>
</g>
<!-- Staff
+ Small_TormentedSoul -->
<g id="node2" class="node"><title>Staff
+ Small_TormentedSoul</title>
<ellipse fill="none" stroke="black" cx="131.144" cy="-26.8701" rx="108.789" ry="26.7407"/>
<text text-anchor="middle" x="131.144" y="-30.6701" font-family="Times New Roman,serif" font-size="14.00">Staff</text>
<text text-anchor="middle" x="131.144" y="-15.6701" font-family="Times New Roman,serif" font-size="14.00">+ Small_TormentedSoul</text>
</g>
<!-- Soul_Tormented&#45;&gt;Staff
+ Small_TormentedSoul -->
<g id="edge1" class="edge"><title>Soul_Tormented&#45;&gt;Staff
+ Small_TormentedSoul</title>
<path fill="none" stroke="black" d="M82.9651,-104.523C90.4034,-92.6884 100.533,-76.5716 109.585,-62.1698"/>
<polygon fill="black" stroke="black" points="112.69,-63.8069 115.048,-53.4778 106.764,-60.0818 112.69,-63.8069"/>
<text text-anchor="middle" x="132.144" y="-75.5401" font-family="Times New Roman,serif" font-size="14.00">Crafting 5</text>
</g>
<!-- Staff -->
<g id="node3" class="node"><title>Staff</title>
<ellipse fill="none" stroke="black" cx="191.144" cy="-122.74" rx="28.6953" ry="18"/>
<text text-anchor="middle" x="191.144" y="-119.04" font-family="Times New Roman,serif" font-size="14.00">Staff</text>
</g>
<!-- Staff&#45;&gt;Staff
+ Small_TormentedSoul -->
<g id="edge2" class="edge"><title>Staff&#45;&gt;Staff
+ Small_TormentedSoul</title>
<path fill="none" stroke="black" d="M182.99,-105.173C177.919,-95.2622 171.065,-82.5372 164.144,-71.7401 162.006,-68.4053 159.693,-64.9969 157.317,-61.6269"/>
<polygon fill="black" stroke="black" points="160.051,-59.4346 151.348,-53.3922 154.383,-63.5429 160.051,-59.4346"/>
<text text-anchor="middle" x="201.144" y="-75.5401" font-family="Times New Roman,serif" font-size="14.00">Crafting 5</text>
</g>
</g>
</svg>
