<?xml version="1.0" encoding="UTF-8" standalone="no"?>
<!DOCTYPE svg PUBLIC "-//W3C//DTD SVG 1.1//EN"
 "http://www.w3.org/Graphics/SVG/1.1/DTD/svg11.dtd">
<!-- Generated by graphviz version 2.38.0 (20140413.2041)
 -->
<!-- Title: G Pages: 1 -->
<svg width="251pt" height="149pt"
 viewBox="0.00 0.00 251.04 148.74" xmlns="http://www.w3.org/2000/svg" xmlns:xlink="http://www.w3.org/1999/xlink">
<g id="graph0" class="graph" transform="scale(1 1) rotate(0) translate(4 144.74)">
<title>G</title>
<polygon fill="white" stroke="none" points="-4,4 -4,-144.74 247.038,-144.74 247.038,4 -4,4"/>
<!-- Soul_Tormented -->
<g id="node1" class="node"><title>Soul_Tormented</title>
<ellipse fill="none" stroke="black" cx="72.1436" cy="-122.74" rx="72.2875" ry="18"/>
<text text-anchor="middle" x="72.1436" y="-119.04" font-family="Times New Roman,serif" font-size="14.00">Soul_Tormented</text>
</g>
<!-- Sword
+ Small_TormentedSoul -->
<g id="node2" class="node"><title>Sword
+ Small_TormentedSoul</title>
<ellipse fill="none" stroke="black" cx="134.144" cy="-26.8701" rx="108.789" ry="26.7407"/>
<text text-anchor="middle" x="134.144" y="-30.6701" font-family="Times New Roman,serif" font-size="14.00">Sword</text>
<text text-anchor="middle" x="134.144" y="-15.6701" font-family="Times New Roman,serif" font-size="14.00">+ Small_TormentedSoul</text>
</g>
<!-- Soul_Tormented&#45;&gt;Sword
+ Small_TormentedSoul -->
<g id="edge1" class="edge"><title>Soul_Tormented&#45;&gt;Sword
+ Small_TormentedSoul</title>
<path fill="none" stroke="black" d="M83.5154,-104.523C91.3319,-92.6884 101.977,-76.5716 111.489,-62.1698"/>
<polygon fill="black" stroke="black" points="114.639,-63.751 117.23,-53.4778 108.798,-59.8931 114.639,-63.751"/>
<text text-anchor="middle" x="133.144" y="-75.5401" font-family="Times New Roman,serif" font-size="14.00">Crafting 5</text>
</g>
<!-- Sword -->
<g id="node3" class="node"><title>Sword</title>
<ellipse fill="none" stroke="black" cx="197.144" cy="-122.74" rx="35.194" ry="18"/>
<text text-anchor="middle" x="197.144" y="-119.04" font-family="Times New Roman,serif" font-size="14.00">Sword</text>
</g>
<!-- Sword&#45;&gt;Sword
+ Small_TormentedSoul -->
<g id="edge2" class="edge"><title>Sword&#45;&gt;Sword
+ Small_TormentedSoul</title>
<path fill="none" stroke="black" d="M186.954,-105.405C180.758,-95.5763 172.623,-82.8563 165.144,-71.7401 163.042,-68.616 160.832,-65.3861 158.6,-62.1615"/>
<polygon fill="black" stroke="black" points="161.296,-59.9093 152.701,-53.7145 155.557,-63.9172 161.296,-59.9093"/>
<text text-anchor="middle" x="202.144" y="-75.5401" font-family="Times New Roman,serif" font-size="14.00">Crafting 5</text>
</g>
</g>
</svg>
