<?xml version="1.0" encoding="UTF-8" standalone="no"?>
<!DOCTYPE svg PUBLIC "-//W3C//DTD SVG 1.1//EN"
 "http://www.w3.org/Graphics/SVG/1.1/DTD/svg11.dtd">
<!-- Generated by graphviz version 2.38.0 (20140413.2041)
 -->
<!-- Title: G Pages: 1 -->
<svg width="215pt" height="149pt"
 viewBox="0.00 0.00 214.79 148.74" xmlns="http://www.w3.org/2000/svg" xmlns:xlink="http://www.w3.org/1999/xlink">
<g id="graph0" class="graph" transform="scale(1 1) rotate(0) translate(4 144.74)">
<title>G</title>
<polygon fill="white" stroke="none" points="-4,4 -4,-144.74 210.795,-144.74 210.795,4 -4,4"/>
<!-- Axe
+ Small_FireDamage -->
<g id="node1" class="node"><title>Axe
+ Small_FireDamage</title>
<ellipse fill="none" stroke="black" cx="111.795" cy="-26.8701" rx="94.5053" ry="26.7407"/>
<text text-anchor="middle" x="111.795" y="-30.6701" font-family="Times New Roman,serif" font-size="14.00">Axe</text>
<text text-anchor="middle" x="111.795" y="-15.6701" font-family="Times New Roman,serif" font-size="14.00">+ Small_FireDamage</text>
</g>
<!-- Essence_Fire -->
<g id="node2" class="node"><title>Essence_Fire</title>
<ellipse fill="none" stroke="black" cx="59.7947" cy="-122.74" rx="59.5901" ry="18"/>
<text text-anchor="middle" x="59.7947" y="-119.04" font-family="Times New Roman,serif" font-size="14.00">Essence_Fire</text>
</g>
<!-- Essence_Fire&#45;&gt;Axe
+ Small_FireDamage -->
<g id="edge1" class="edge"><title>Essence_Fire&#45;&gt;Axe
+ Small_FireDamage</title>
<path fill="none" stroke="black" d="M68.9456,-104.563C74.129,-94.8917 80.764,-82.6095 86.7947,-71.7401 88.4614,-68.7362 90.2036,-65.624 91.9592,-62.5071"/>
<polygon fill="black" stroke="black" points="95.0099,-64.2226 96.8906,-53.796 88.9183,-60.774 95.0099,-64.2226"/>
<text text-anchor="middle" x="114.795" y="-75.5401" font-family="Times New Roman,serif" font-size="14.00">Crafting 5</text>
</g>
<!-- Axe -->
<g id="node3" class="node"><title>Axe</title>
<ellipse fill="none" stroke="black" cx="164.795" cy="-122.74" rx="27" ry="18"/>
<text text-anchor="middle" x="164.795" y="-119.04" font-family="Times New Roman,serif" font-size="14.00">Axe</text>
</g>
<!-- Axe&#45;&gt;Axe
+ Small_FireDamage -->
<g id="edge2" class="edge"><title>Axe&#45;&gt;Axe
+ Small_FireDamage</title>
<path fill="none" stroke="black" d="M158.464,-105.124C154.444,-95.1968 148.865,-82.4708 142.795,-71.7401 140.941,-68.4628 138.9,-65.1281 136.779,-61.8355"/>
<polygon fill="black" stroke="black" points="139.522,-59.6418 131.044,-53.2868 133.708,-63.5413 139.522,-59.6418"/>
<text text-anchor="middle" x="178.795" y="-75.5401" font-family="Times New Roman,serif" font-size="14.00">Crafting 5</text>
</g>
</g>
</svg>
