<?xml version="1.0" encoding="UTF-8" standalone="no"?>
<!DOCTYPE svg PUBLIC "-//W3C//DTD SVG 1.1//EN"
 "http://www.w3.org/Graphics/SVG/1.1/DTD/svg11.dtd">
<!-- Generated by graphviz version 2.38.0 (20140413.2041)
 -->
<!-- Title: G Pages: 1 -->
<svg width="776pt" height="149pt"
 viewBox="0.00 0.00 776.20 148.74" xmlns="http://www.w3.org/2000/svg" xmlns:xlink="http://www.w3.org/1999/xlink">
<g id="graph0" class="graph" transform="scale(1 1) rotate(0) translate(4 144.74)">
<title>G</title>
<polygon fill="white" stroke="none" points="-4,4 -4,-144.74 772.203,-144.74 772.203,4 -4,4"/>
<!-- Anvil -->
<g id="node1" class="node"><title>Anvil</title>
<ellipse fill="none" stroke="black" cx="268.844" cy="-122.74" rx="29.795" ry="18"/>
<text text-anchor="middle" x="268.844" y="-119.04" font-family="Times New Roman,serif" font-size="14.00">Anvil</text>
</g>
<!-- Cloth_A_Boots -->
<g id="node2" class="node"><title>Cloth_A_Boots</title>
<ellipse fill="none" stroke="black" cx="470.844" cy="-26.8701" rx="68.7879" ry="18"/>
<text text-anchor="middle" x="470.844" y="-23.1701" font-family="Times New Roman,serif" font-size="14.00">Cloth_A_Boots</text>
</g>
<!-- Anvil&#45;&gt;Cloth_A_Boots -->
<g id="edge3" class="edge"><title>Anvil&#45;&gt;Cloth_A_Boots</title>
<path fill="none" stroke="black" d="M289.798,-109.677C300.738,-103.179 314.228,-94.8501 325.844,-86.7401 334.666,-80.5813 335.411,-76.9139 344.844,-71.7401 351.884,-67.8789 388.261,-55.3307 420.131,-44.6384"/>
<polygon fill="black" stroke="black" points="421.466,-47.8826 429.839,-41.3914 419.245,-41.2441 421.466,-47.8826"/>
<text text-anchor="middle" x="373.844" y="-75.5401" font-family="Times New Roman,serif" font-size="14.00">Crafting 2</text>
</g>
<!-- Cloth_B_Boots -->
<g id="node3" class="node"><title>Cloth_B_Boots</title>
<ellipse fill="none" stroke="black" cx="314.844" cy="-26.8701" rx="68.4888" ry="18"/>
<text text-anchor="middle" x="314.844" y="-23.1701" font-family="Times New Roman,serif" font-size="14.00">Cloth_B_Boots</text>
</g>
<!-- Anvil&#45;&gt;Cloth_B_Boots -->
<g id="edge1" class="edge"><title>Anvil&#45;&gt;Cloth_B_Boots</title>
<path fill="none" stroke="black" d="M241.24,-115.698C213.029,-108.182 175.384,-93.6088 190.844,-71.7401 192.025,-70.0695 230.764,-56.5142 264.629,-44.9079"/>
<polygon fill="black" stroke="black" points="266.145,-48.0886 274.475,-41.5411 263.88,-41.4652 266.145,-48.0886"/>
<text text-anchor="middle" x="219.844" y="-75.5401" font-family="Times New Roman,serif" font-size="14.00">Crafting 1</text>
</g>
<!-- Cloth_A_Boots
+ Small_Movement_Mod -->
<g id="node4" class="node"><title>Cloth_A_Boots
+ Small_Movement_Mod</title>
<ellipse fill="none" stroke="black" cx="113.844" cy="-26.8701" rx="113.689" ry="26.7407"/>
<text text-anchor="middle" x="113.844" y="-30.6701" font-family="Times New Roman,serif" font-size="14.00">Cloth_A_Boots</text>
<text text-anchor="middle" x="113.844" y="-15.6701" font-family="Times New Roman,serif" font-size="14.00">+ Small_Movement_Mod</text>
</g>
<!-- Anvil&#45;&gt;Cloth_A_Boots
+ Small_Movement_Mod -->
<g id="edge2" class="edge"><title>Anvil&#45;&gt;Cloth_A_Boots
+ Small_Movement_Mod</title>
<path fill="none" stroke="black" d="M239.779,-118.111C203.217,-112.959 143.328,-102.377 127.844,-86.7401 121.734,-80.5699 118.11,-72.2469 116.004,-63.8046"/>
<polygon fill="black" stroke="black" points="119.443,-63.1511 114.171,-53.9611 112.561,-64.433 119.443,-63.1511"/>
<text text-anchor="middle" x="155.844" y="-75.5401" font-family="Times New Roman,serif" font-size="14.00">Crafting 3</text>
</g>
<!-- Cloth_A_Boots
+ Small_ArmorDefense -->
<g id="node5" class="node"><title>Cloth_A_Boots
+ Small_ArmorDefense</title>
<ellipse fill="none" stroke="black" cx="662.844" cy="-26.8701" rx="105.218" ry="26.7407"/>
<text text-anchor="middle" x="662.844" y="-30.6701" font-family="Times New Roman,serif" font-size="14.00">Cloth_A_Boots</text>
<text text-anchor="middle" x="662.844" y="-15.6701" font-family="Times New Roman,serif" font-size="14.00">+ Small_ArmorDefense</text>
</g>
<!-- Anvil&#45;&gt;Cloth_A_Boots
+ Small_ArmorDefense -->
<g id="edge4" class="edge"><title>Anvil&#45;&gt;Cloth_A_Boots
+ Small_ArmorDefense</title>
<path fill="none" stroke="black" d="M298.682,-121.55C341.461,-120.264 421.892,-114.023 483.844,-86.7401 493.691,-82.4039 493.242,-76.593 502.844,-71.7401 516.588,-64.7942 546.764,-55.997 577.248,-48.1069"/>
<polygon fill="black" stroke="black" points="578.314,-51.4472 587.136,-45.5806 576.581,-44.6651 578.314,-51.4472"/>
<text text-anchor="middle" x="530.844" y="-75.5401" font-family="Times New Roman,serif" font-size="14.00">Crafting 3</text>
</g>
<!-- Scraps_Cloth -->
<g id="node6" class="node"><title>Scraps_Cloth</title>
<ellipse fill="none" stroke="black" cx="505.844" cy="-122.74" rx="61.1893" ry="18"/>
<text text-anchor="middle" x="505.844" y="-119.04" font-family="Times New Roman,serif" font-size="14.00">Scraps_Cloth</text>
</g>
<!-- Scraps_Cloth&#45;&gt;Cloth_A_Boots -->
<g id="edge7" class="edge"><title>Scraps_Cloth&#45;&gt;Cloth_A_Boots</title>
<path fill="none" stroke="black" d="M540.313,-107.844C557.135,-98.8798 571.976,-86.2123 562.844,-71.7401 554.941,-59.2164 542.374,-50.1926 529.036,-43.7187"/>
<polygon fill="black" stroke="black" points="530.29,-40.447 519.727,-39.6326 527.477,-46.8567 530.29,-40.447"/>
<text text-anchor="middle" x="593.844" y="-75.5401" font-family="Times New Roman,serif" font-size="14.00">Crafting 2</text>
</g>
<!-- Scraps_Cloth&#45;&gt;Cloth_B_Boots -->
<g id="edge5" class="edge"><title>Scraps_Cloth&#45;&gt;Cloth_B_Boots</title>
<path fill="none" stroke="black" d="M471.498,-107.708C457.696,-101.715 441.783,-94.3519 427.844,-86.7401 417.133,-80.8909 415.461,-77.7588 404.844,-71.7401 389.567,-63.0793 372.33,-54.4216 357.06,-47.1137"/>
<polygon fill="black" stroke="black" points="358.378,-43.8651 347.842,-42.7499 355.383,-50.192 358.378,-43.8651"/>
<text text-anchor="middle" x="455.844" y="-75.5401" font-family="Times New Roman,serif" font-size="14.00">Crafting 1</text>
</g>
<!-- Scraps_Cloth&#45;&gt;Cloth_A_Boots
+ Small_Movement_Mod -->
<g id="edge6" class="edge"><title>Scraps_Cloth&#45;&gt;Cloth_A_Boots
+ Small_Movement_Mod</title>
<path fill="none" stroke="black" d="M444.808,-121.489C394.836,-119.284 323.277,-111.467 265.844,-86.7401 255.962,-82.4856 256.32,-76.8362 246.844,-71.7401 231.629,-63.5569 214.614,-56.5367 197.97,-50.6642"/>
<polygon fill="black" stroke="black" points="198.824,-47.2576 188.23,-47.3391 196.563,-53.8822 198.824,-47.2576"/>
<text text-anchor="middle" x="293.844" y="-75.5401" font-family="Times New Roman,serif" font-size="14.00">Crafting 3</text>
</g>
<!-- Scraps_Cloth&#45;&gt;Cloth_A_Boots
+ Small_ArmorDefense -->
<g id="edge8" class="edge"><title>Scraps_Cloth&#45;&gt;Cloth_A_Boots
+ Small_ArmorDefense</title>
<path fill="none" stroke="black" d="M560.432,-114.472C582.41,-109.455 606.967,-100.994 625.844,-86.7401 634.226,-80.4116 641.183,-71.5854 646.717,-62.69"/>
<polygon fill="black" stroke="black" points="649.841,-64.2781 651.777,-53.8616 643.768,-60.7976 649.841,-64.2781"/>
<text text-anchor="middle" x="668.844" y="-75.5401" font-family="Times New Roman,serif" font-size="14.00">Crafting 3</text>
</g>
</g>
</svg>
