<?xml version="1.0" encoding="UTF-8" standalone="no"?>
<!DOCTYPE svg PUBLIC "-//W3C//DTD SVG 1.1//EN"
 "http://www.w3.org/Graphics/SVG/1.1/DTD/svg11.dtd">
<!-- Generated by graphviz version 2.38.0 (20140413.2041)
 -->
<!-- Title: G Pages: 1 -->
<svg width="236pt" height="149pt"
 viewBox="0.00 0.00 236.29 148.74" xmlns="http://www.w3.org/2000/svg" xmlns:xlink="http://www.w3.org/1999/xlink">
<g id="graph0" class="graph" transform="scale(1 1) rotate(0) translate(4 144.74)">
<title>G</title>
<polygon fill="white" stroke="none" points="-4,4 -4,-144.74 232.291,-144.74 232.291,4 -4,4"/>
<!-- Essence_Air -->
<g id="node1" class="node"><title>Essence_Air</title>
<ellipse fill="none" stroke="black" cx="56.545" cy="-122.74" rx="56.59" ry="18"/>
<text text-anchor="middle" x="56.545" y="-119.04" font-family="Times New Roman,serif" font-size="14.00">Essence_Air</text>
</g>
<!-- Crossbow
+ Small_AirDamage -->
<g id="node2" class="node"><title>Crossbow
+ Small_AirDamage</title>
<ellipse fill="none" stroke="black" cx="117.545" cy="-26.8701" rx="91.4341" ry="26.7407"/>
<text text-anchor="middle" x="117.545" y="-30.6701" font-family="Times New Roman,serif" font-size="14.00">Crossbow</text>
<text text-anchor="middle" x="117.545" y="-15.6701" font-family="Times New Roman,serif" font-size="14.00">+ Small_AirDamage</text>
</g>
<!-- Essence_Air&#45;&gt;Crossbow
+ Small_AirDamage -->
<g id="edge1" class="edge"><title>Essence_Air&#45;&gt;Crossbow
+ Small_AirDamage</title>
<path fill="none" stroke="black" d="M67.4506,-104.958C75.2425,-92.9674 85.9933,-76.4235 95.5382,-61.7353"/>
<polygon fill="black" stroke="black" points="98.4731,-63.6422 100.987,-53.35 92.6035,-59.828 98.4731,-63.6422"/>
<text text-anchor="middle" x="117.545" y="-75.5401" font-family="Times New Roman,serif" font-size="14.00">Crafting 5</text>
</g>
<!-- Crossbow -->
<g id="node3" class="node"><title>Crossbow</title>
<ellipse fill="none" stroke="black" cx="179.545" cy="-122.74" rx="48.9926" ry="18"/>
<text text-anchor="middle" x="179.545" y="-119.04" font-family="Times New Roman,serif" font-size="14.00">Crossbow</text>
</g>
<!-- Crossbow&#45;&gt;Crossbow
+ Small_AirDamage -->
<g id="edge2" class="edge"><title>Crossbow&#45;&gt;Crossbow
+ Small_AirDamage</title>
<path fill="none" stroke="black" d="M169.914,-104.841C164.204,-95.0409 156.704,-82.5409 149.545,-71.7401 147.38,-68.4741 145.075,-65.1123 142.732,-61.7718"/>
<polygon fill="black" stroke="black" points="145.544,-59.6876 136.888,-53.5789 139.846,-63.7526 145.544,-59.6876"/>
<text text-anchor="middle" x="186.545" y="-75.5401" font-family="Times New Roman,serif" font-size="14.00">Crafting 5</text>
</g>
</g>
</svg>
