<?xml version="1.0" encoding="UTF-8" standalone="no"?>
<!DOCTYPE svg PUBLIC "-//W3C//DTD SVG 1.1//EN"
 "http://www.w3.org/Graphics/SVG/1.1/DTD/svg11.dtd">
<!-- Generated by graphviz version 2.38.0 (20140413.2041)
 -->
<!-- Title: G Pages: 1 -->
<svg width="1857pt" height="392pt"
 viewBox="0.00 0.00 1857.44 392.00" xmlns="http://www.w3.org/2000/svg" xmlns:xlink="http://www.w3.org/1999/xlink">
<g id="graph0" class="graph" transform="scale(1 1) rotate(0) translate(4 388)">
<title>G</title>
<polygon fill="white" stroke="none" points="-4,4 -4,-388 1853.44,-388 1853.44,4 -4,4"/>
<!-- ArrowHead_Antler -->
<g id="node1" class="node"><title>ArrowHead_Antler</title>
<ellipse fill="none" stroke="black" cx="1764.44" cy="-192" rx="79.8859" ry="18"/>
<text text-anchor="middle" x="1764.44" y="-188.3" font-family="Times New Roman,serif" font-size="14.00">ArrowHead_Antler</text>
</g>
<!-- Arrow_KO -->
<g id="node24" class="node"><title>Arrow_KO</title>
<ellipse fill="none" stroke="black" cx="1613.44" cy="-105" rx="51.9908" ry="18"/>
<text text-anchor="middle" x="1613.44" y="-101.3" font-family="Times New Roman,serif" font-size="14.00">Arrow_KO</text>
</g>
<!-- ArrowHead_Antler&#45;&gt;Arrow_KO -->
<g id="edge1" class="edge"><title>ArrowHead_Antler&#45;&gt;Arrow_KO</title>
<path fill="none" stroke="black" d="M1736.04,-175.012C1711.28,-161.074 1675.27,-140.802 1648.67,-125.833"/>
<polygon fill="black" stroke="black" points="1650.13,-122.634 1639.69,-120.779 1646.69,-128.734 1650.13,-122.634"/>
<text text-anchor="middle" x="1726.44" y="-144.8" font-family="Times New Roman,serif" font-size="14.00">Crafting 1</text>
</g>
<!-- Potion_Empty -->
<g id="node2" class="node"><title>Potion_Empty</title>
<ellipse fill="none" stroke="black" cx="371.441" cy="-366" rx="63.8893" ry="18"/>
<text text-anchor="middle" x="371.441" y="-362.3" font-family="Times New Roman,serif" font-size="14.00">Potion_Empty</text>
</g>
<!-- Potion_Poison -->
<g id="node27" class="node"><title>Potion_Poison</title>
<ellipse fill="none" stroke="black" cx="623.441" cy="-279" rx="64.9885" ry="18"/>
<text text-anchor="middle" x="623.441" y="-275.3" font-family="Times New Roman,serif" font-size="14.00">Potion_Poison</text>
</g>
<!-- Potion_Empty&#45;&gt;Potion_Poison -->
<g id="edge2" class="edge"><title>Potion_Empty&#45;&gt;Potion_Poison</title>
<path fill="none" stroke="black" d="M405.62,-350.757C431.44,-340.24 467.875,-325.919 500.441,-315 522.339,-307.658 546.75,-300.504 568.016,-294.597"/>
<polygon fill="black" stroke="black" points="569.148,-297.916 577.861,-291.889 567.291,-291.167 569.148,-297.916"/>
<text text-anchor="middle" x="528.441" y="-318.8" font-family="Times New Roman,serif" font-size="14.00">Crafting 0</text>
</g>
<!-- Pouch_Dust_Bone -->
<g id="node3" class="node"><title>Pouch_Dust_Bone</title>
<ellipse fill="none" stroke="black" cx="877.441" cy="-279" rx="79.8859" ry="18"/>
<text text-anchor="middle" x="877.441" y="-275.3" font-family="Times New Roman,serif" font-size="14.00">Pouch_Dust_Bone</text>
</g>
<!-- Potion_Debuf_Constitution -->
<g id="node12" class="node"><title>Potion_Debuf_Constitution</title>
<ellipse fill="none" stroke="black" cx="758.441" cy="-192" rx="111.28" ry="18"/>
<text text-anchor="middle" x="758.441" y="-188.3" font-family="Times New Roman,serif" font-size="14.00">Potion_Debuf_Constitution</text>
</g>
<!-- Pouch_Dust_Bone&#45;&gt;Potion_Debuf_Constitution -->
<g id="edge3" class="edge"><title>Pouch_Dust_Bone&#45;&gt;Potion_Debuf_Constitution</title>
<path fill="none" stroke="black" d="M867.249,-260.922C860.231,-250.324 850.092,-237.049 838.441,-228 830.888,-222.133 822.199,-217.033 813.394,-212.677"/>
<polygon fill="black" stroke="black" points="814.76,-209.452 804.217,-208.406 811.807,-215.799 814.76,-209.452"/>
<text text-anchor="middle" x="881.441" y="-231.8" font-family="Times New Roman,serif" font-size="14.00">Crafting 2</text>
</g>
<!-- Potion_Debuf_Intelligence -->
<g id="node4" class="node"><title>Potion_Debuf_Intelligence</title>
<ellipse fill="none" stroke="black" cx="324.441" cy="-192" rx="107.482" ry="18"/>
<text text-anchor="middle" x="324.441" y="-188.3" font-family="Times New Roman,serif" font-size="14.00">Potion_Debuf_Intelligence</text>
</g>
<!-- Potion_Debuf_All -->
<g id="node16" class="node"><title>Potion_Debuf_All</title>
<ellipse fill="none" stroke="black" cx="917.441" cy="-105" rx="77.1866" ry="18"/>
<text text-anchor="middle" x="917.441" y="-101.3" font-family="Times New Roman,serif" font-size="14.00">Potion_Debuf_All</text>
</g>
<!-- Potion_Debuf_Intelligence&#45;&gt;Potion_Debuf_All -->
<g id="edge4" class="edge"><title>Potion_Debuf_Intelligence&#45;&gt;Potion_Debuf_All</title>
<path fill="none" stroke="black" d="M398.539,-178.942C463.752,-168.463 561.307,-153.105 646.441,-141 711.744,-131.715 786.052,-122.191 840.32,-115.427"/>
<polygon fill="black" stroke="black" points="841.063,-118.862 850.555,-114.154 840.2,-111.915 841.063,-118.862"/>
<text text-anchor="middle" x="674.441" y="-144.8" font-family="Times New Roman,serif" font-size="14.00">Crafting 3</text>
</g>
<!-- Potion_Debuf_Dexterity -->
<g id="node5" class="node"><title>Potion_Debuf_Dexterity</title>
<ellipse fill="none" stroke="black" cx="99.4412" cy="-192" rx="99.3824" ry="18"/>
<text text-anchor="middle" x="99.4412" y="-188.3" font-family="Times New Roman,serif" font-size="14.00">Potion_Debuf_Dexterity</text>
</g>
<!-- Potion_Debuf_Dexterity&#45;&gt;Potion_Debuf_All -->
<g id="edge5" class="edge"><title>Potion_Debuf_Dexterity&#45;&gt;Potion_Debuf_All</title>
<path fill="none" stroke="black" d="M170.916,-179.457C183.412,-177.552 196.297,-175.66 208.441,-174 333.03,-156.975 364.313,-153.46 489.441,-141 609.328,-129.062 748.408,-118.249 834.676,-111.898"/>
<polygon fill="black" stroke="black" points="834.953,-115.387 844.67,-111.164 834.441,-108.406 834.953,-115.387"/>
<text text-anchor="middle" x="517.441" y="-144.8" font-family="Times New Roman,serif" font-size="14.00">Crafting 3</text>
</g>
<!-- Soul_Tormented -->
<g id="node6" class="node"><title>Soul_Tormented</title>
<ellipse fill="none" stroke="black" cx="299.441" cy="-279" rx="72.2875" ry="18"/>
<text text-anchor="middle" x="299.441" y="-275.3" font-family="Times New Roman,serif" font-size="14.00">Soul_Tormented</text>
</g>
<!-- Soul_Tormented&#45;&gt;Potion_Debuf_Intelligence -->
<g id="edge6" class="edge"><title>Soul_Tormented&#45;&gt;Potion_Debuf_Intelligence</title>
<path fill="none" stroke="black" d="M299.391,-260.977C299.791,-251.136 301.041,-238.636 304.441,-228 305.391,-225.029 306.616,-222.032 307.992,-219.108"/>
<polygon fill="black" stroke="black" points="311.156,-220.612 312.747,-210.137 304.971,-217.333 311.156,-220.612"/>
<text text-anchor="middle" x="332.441" y="-231.8" font-family="Times New Roman,serif" font-size="14.00">Crafting 2</text>
</g>
<!-- ArrowShaft -->
<g id="node7" class="node"><title>ArrowShaft</title>
<ellipse fill="none" stroke="black" cx="1613.44" cy="-192" rx="53.0913" ry="18"/>
<text text-anchor="middle" x="1613.44" y="-188.3" font-family="Times New Roman,serif" font-size="14.00">ArrowShaft</text>
</g>
<!-- ArrowShaft&#45;&gt;Arrow_KO -->
<g id="edge7" class="edge"><title>ArrowShaft&#45;&gt;Arrow_KO</title>
<path fill="none" stroke="black" d="M1613.44,-173.799C1613.44,-162.163 1613.44,-146.548 1613.44,-133.237"/>
<polygon fill="black" stroke="black" points="1616.94,-133.175 1613.44,-123.175 1609.94,-133.175 1616.94,-133.175"/>
<text text-anchor="middle" x="1641.44" y="-144.8" font-family="Times New Roman,serif" font-size="14.00">Crafting 1</text>
</g>
<!-- Branch -->
<g id="node8" class="node"><title>Branch</title>
<ellipse fill="none" stroke="black" cx="1570.44" cy="-279" rx="36.2938" ry="18"/>
<text text-anchor="middle" x="1570.44" y="-275.3" font-family="Times New Roman,serif" font-size="14.00">Branch</text>
</g>
<!-- Branch&#45;&gt;ArrowShaft -->
<g id="edge8" class="edge"><title>Branch&#45;&gt;ArrowShaft</title>
<path fill="none" stroke="black" d="M1567.38,-260.979C1566.37,-250.908 1566.55,-238.173 1571.44,-228 1573.75,-223.204 1577.06,-218.83 1580.82,-214.923"/>
<polygon fill="black" stroke="black" points="1583.41,-217.303 1588.47,-207.998 1578.71,-212.113 1583.41,-217.303"/>
<text text-anchor="middle" x="1599.44" y="-231.8" font-family="Times New Roman,serif" font-size="14.00">Crafting 0</text>
</g>
<!-- Eye -->
<g id="node9" class="node"><title>Eye</title>
<ellipse fill="none" stroke="black" cx="1018.44" cy="-279" rx="27" ry="18"/>
<text text-anchor="middle" x="1018.44" y="-275.3" font-family="Times New Roman,serif" font-size="14.00">Eye</text>
</g>
<!-- Potion_Debuf_Perception -->
<g id="node25" class="node"><title>Potion_Debuf_Perception</title>
<ellipse fill="none" stroke="black" cx="993.441" cy="-192" rx="105.881" ry="18"/>
<text text-anchor="middle" x="993.441" y="-188.3" font-family="Times New Roman,serif" font-size="14.00">Potion_Debuf_Perception</text>
</g>
<!-- Eye&#45;&gt;Potion_Debuf_Perception -->
<g id="edge9" class="edge"><title>Eye&#45;&gt;Potion_Debuf_Perception</title>
<path fill="none" stroke="black" d="M1013.5,-261.207C1010.03,-249.409 1005.32,-233.378 1001.33,-219.822"/>
<polygon fill="black" stroke="black" points="1004.64,-218.655 998.456,-210.049 997.92,-220.631 1004.64,-218.655"/>
<text text-anchor="middle" x="1035.44" y="-231.8" font-family="Times New Roman,serif" font-size="14.00">Crafting 2</text>
</g>
<!-- Antler -->
<g id="node10" class="node"><title>Antler</title>
<ellipse fill="none" stroke="black" cx="1807.44" cy="-279" rx="32.4942" ry="18"/>
<text text-anchor="middle" x="1807.44" y="-275.3" font-family="Times New Roman,serif" font-size="14.00">Antler</text>
</g>
<!-- Antler&#45;&gt;ArrowHead_Antler -->
<g id="edge10" class="edge"><title>Antler&#45;&gt;ArrowHead_Antler</title>
<path fill="none" stroke="black" d="M1800.62,-261.086C1796.52,-251.282 1791.02,-238.782 1785.44,-228 1783.83,-224.885 1782.06,-221.665 1780.24,-218.499"/>
<polygon fill="black" stroke="black" points="1783.23,-216.677 1775.13,-209.845 1777.2,-220.236 1783.23,-216.677"/>
<text text-anchor="middle" x="1821.44" y="-231.8" font-family="Times New Roman,serif" font-size="14.00">Crafting 1</text>
</g>
<!-- Knife -->
<g id="node11" class="node"><title>Knife</title>
<ellipse fill="none" stroke="black" cx="1690.44" cy="-279" rx="30.5947" ry="18"/>
<text text-anchor="middle" x="1690.44" y="-275.3" font-family="Times New Roman,serif" font-size="14.00">Knife</text>
</g>
<!-- Knife&#45;&gt;ArrowHead_Antler -->
<g id="edge12" class="edge"><title>Knife&#45;&gt;ArrowHead_Antler</title>
<path fill="none" stroke="black" d="M1700.59,-261.54C1707.15,-251.435 1716.17,-238.468 1725.44,-228 1728.9,-224.1 1732.76,-220.192 1736.67,-216.477"/>
<polygon fill="black" stroke="black" points="1739.15,-218.952 1744.17,-209.619 1734.43,-213.787 1739.15,-218.952"/>
<text text-anchor="middle" x="1753.44" y="-231.8" font-family="Times New Roman,serif" font-size="14.00">Crafting 1</text>
</g>
<!-- Knife&#45;&gt;ArrowShaft -->
<g id="edge11" class="edge"><title>Knife&#45;&gt;ArrowShaft</title>
<path fill="none" stroke="black" d="M1674.64,-263.383C1668.21,-257.245 1660.81,-249.932 1654.44,-243 1647.04,-234.941 1639.32,-225.768 1632.61,-217.498"/>
<polygon fill="black" stroke="black" points="1635.27,-215.217 1626.28,-209.605 1629.81,-219.596 1635.27,-215.217"/>
<text text-anchor="middle" x="1682.44" y="-231.8" font-family="Times New Roman,serif" font-size="14.00">Crafting 0</text>
</g>
<!-- Potion_Debuf_Constitution&#45;&gt;Potion_Debuf_All -->
<g id="edge13" class="edge"><title>Potion_Debuf_Constitution&#45;&gt;Potion_Debuf_All</title>
<path fill="none" stroke="black" d="M789.098,-174.611C814.718,-160.915 851.388,-141.312 878.975,-126.564"/>
<polygon fill="black" stroke="black" points="880.785,-129.565 887.954,-121.764 877.485,-123.392 880.785,-129.565"/>
<text text-anchor="middle" x="876.441" y="-144.8" font-family="Times New Roman,serif" font-size="14.00">Crafting 3</text>
</g>
<!-- Sinew -->
<g id="node13" class="node"><title>Sinew</title>
<ellipse fill="none" stroke="black" cx="99.4412" cy="-279" rx="32.4942" ry="18"/>
<text text-anchor="middle" x="99.4412" y="-275.3" font-family="Times New Roman,serif" font-size="14.00">Sinew</text>
</g>
<!-- Sinew&#45;&gt;Potion_Debuf_Dexterity -->
<g id="edge14" class="edge"><title>Sinew&#45;&gt;Potion_Debuf_Dexterity</title>
<path fill="none" stroke="black" d="M99.4412,-260.799C99.4412,-249.163 99.4412,-233.548 99.4412,-220.237"/>
<polygon fill="black" stroke="black" points="102.941,-220.175 99.4412,-210.175 95.9413,-220.175 102.941,-220.175"/>
<text text-anchor="middle" x="127.441" y="-231.8" font-family="Times New Roman,serif" font-size="14.00">Crafting 2</text>
</g>
<!-- Skull_Human -->
<g id="node14" class="node"><title>Skull_Human</title>
<ellipse fill="none" stroke="black" cx="832.441" cy="-366" rx="59.5901" ry="18"/>
<text text-anchor="middle" x="832.441" y="-362.3" font-family="Times New Roman,serif" font-size="14.00">Skull_Human</text>
</g>
<!-- Skull_Human&#45;&gt;Pouch_Dust_Bone -->
<g id="edge15" class="edge"><title>Skull_Human&#45;&gt;Pouch_Dust_Bone</title>
<path fill="none" stroke="black" d="M841.548,-347.799C847.891,-335.817 856.468,-319.617 863.646,-306.057"/>
<polygon fill="black" stroke="black" points="866.763,-307.651 868.348,-297.175 860.576,-304.376 866.763,-307.651"/>
<text text-anchor="middle" x="886.441" y="-318.8" font-family="Times New Roman,serif" font-size="14.00">Crafting 0</text>
</g>
<!-- Potion_Debuf_Speed -->
<g id="node15" class="node"><title>Potion_Debuf_Speed</title>
<ellipse fill="none" stroke="black" cx="539.441" cy="-192" rx="89.8845" ry="18"/>
<text text-anchor="middle" x="539.441" y="-188.3" font-family="Times New Roman,serif" font-size="14.00">Potion_Debuf_Speed</text>
</g>
<!-- Potion_Debuf_Speed&#45;&gt;Potion_Debuf_All -->
<g id="edge16" class="edge"><title>Potion_Debuf_Speed&#45;&gt;Potion_Debuf_All</title>
<path fill="none" stroke="black" d="M596.851,-178.09C666.087,-162.521 782.095,-136.435 853.946,-120.278"/>
<polygon fill="black" stroke="black" points="854.793,-123.675 863.781,-118.066 853.257,-116.846 854.793,-123.675"/>
<text text-anchor="middle" x="779.441" y="-144.8" font-family="Times New Roman,serif" font-size="14.00">Crafting 3</text>
</g>
<!-- Arrow_Debuff_All -->
<g id="node19" class="node"><title>Arrow_Debuff_All</title>
<ellipse fill="none" stroke="black" cx="1377.44" cy="-18" rx="79.0865" ry="18"/>
<text text-anchor="middle" x="1377.44" y="-14.3" font-family="Times New Roman,serif" font-size="14.00">Arrow_Debuff_All</text>
</g>
<!-- Potion_Debuf_All&#45;&gt;Arrow_Debuff_All -->
<g id="edge17" class="edge"><title>Potion_Debuf_All&#45;&gt;Arrow_Debuff_All</title>
<path fill="none" stroke="black" d="M976.168,-93.1484C1061.03,-77.4675 1217.66,-48.5257 1308.09,-31.8151"/>
<polygon fill="black" stroke="black" points="1308.78,-35.2476 1317.97,-29.9887 1307.5,-28.3641 1308.78,-35.2476"/>
<text text-anchor="middle" x="1203.44" y="-57.8" font-family="Times New Roman,serif" font-size="14.00">Crafting 3</text>
</g>
<!-- Potion_Debuf_Strength -->
<g id="node17" class="node"><title>Potion_Debuf_Strength</title>
<ellipse fill="none" stroke="black" cx="1214.44" cy="-192" rx="96.6831" ry="18"/>
<text text-anchor="middle" x="1214.44" y="-188.3" font-family="Times New Roman,serif" font-size="14.00">Potion_Debuf_Strength</text>
</g>
<!-- Potion_Debuf_Strength&#45;&gt;Potion_Debuf_All -->
<g id="edge18" class="edge"><title>Potion_Debuf_Strength&#45;&gt;Potion_Debuf_All</title>
<path fill="none" stroke="black" d="M1164.06,-176.581C1111.4,-161.51 1028.94,-137.911 974.061,-122.204"/>
<polygon fill="black" stroke="black" points="974.726,-118.754 964.149,-119.367 972.8,-125.484 974.726,-118.754"/>
<text text-anchor="middle" x="1112.44" y="-144.8" font-family="Times New Roman,serif" font-size="14.00">Crafting 3</text>
</g>
<!-- Tooth -->
<g id="node18" class="node"><title>Tooth</title>
<ellipse fill="none" stroke="black" cx="1214.44" cy="-279" rx="33.2948" ry="18"/>
<text text-anchor="middle" x="1214.44" y="-275.3" font-family="Times New Roman,serif" font-size="14.00">Tooth</text>
</g>
<!-- Tooth&#45;&gt;Potion_Debuf_Strength -->
<g id="edge19" class="edge"><title>Tooth&#45;&gt;Potion_Debuf_Strength</title>
<path fill="none" stroke="black" d="M1214.44,-260.799C1214.44,-249.163 1214.44,-233.548 1214.44,-220.237"/>
<polygon fill="black" stroke="black" points="1217.94,-220.175 1214.44,-210.175 1210.94,-220.175 1217.94,-220.175"/>
<text text-anchor="middle" x="1242.44" y="-231.8" font-family="Times New Roman,serif" font-size="14.00">Crafting 2</text>
</g>
<!-- Barrel_Ooze -->
<g id="node20" class="node"><title>Barrel_Ooze</title>
<ellipse fill="none" stroke="black" cx="509.441" cy="-366" rx="56.59" ry="18"/>
<text text-anchor="middle" x="509.441" y="-362.3" font-family="Times New Roman,serif" font-size="14.00">Barrel_Ooze</text>
</g>
<!-- Barrel_Ooze&#45;&gt;Potion_Poison -->
<g id="edge20" class="edge"><title>Barrel_Ooze&#45;&gt;Potion_Poison</title>
<path fill="none" stroke="black" d="M530.617,-349.211C548.421,-335.936 574.066,-316.815 593.892,-302.032"/>
<polygon fill="black" stroke="black" points="596.068,-304.776 601.992,-295.993 591.883,-299.164 596.068,-304.776"/>
<text text-anchor="middle" x="601.441" y="-318.8" font-family="Times New Roman,serif" font-size="14.00">Crafting 0</text>
</g>
<!-- Herb_Mushroom_C -->
<g id="node21" class="node"><title>Herb_Mushroom_C</title>
<ellipse fill="none" stroke="black" cx="669.441" cy="-366" rx="85.2851" ry="18"/>
<text text-anchor="middle" x="669.441" y="-362.3" font-family="Times New Roman,serif" font-size="14.00">Herb_Mushroom_C</text>
</g>
<!-- Herb_Mushroom_C&#45;&gt;Potion_Poison -->
<g id="edge21" class="edge"><title>Herb_Mushroom_C&#45;&gt;Potion_Poison</title>
<path fill="none" stroke="black" d="M660.132,-347.799C653.605,-335.738 644.765,-319.403 637.398,-305.79"/>
<polygon fill="black" stroke="black" points="640.417,-304.014 632.579,-296.885 634.261,-307.346 640.417,-304.014"/>
<text text-anchor="middle" x="677.441" y="-318.8" font-family="Times New Roman,serif" font-size="14.00">Crafting 1</text>
</g>
<!-- Bone -->
<g id="node22" class="node"><title>Bone</title>
<ellipse fill="none" stroke="black" cx="940.441" cy="-366" rx="29.795" ry="18"/>
<text text-anchor="middle" x="940.441" y="-362.3" font-family="Times New Roman,serif" font-size="14.00">Bone</text>
</g>
<!-- Bone&#45;&gt;Pouch_Dust_Bone -->
<g id="edge22" class="edge"><title>Bone&#45;&gt;Pouch_Dust_Bone</title>
<path fill="none" stroke="black" d="M935.214,-348.242C931.526,-338.025 925.911,-325.046 918.441,-315 915.379,-310.881 911.747,-306.921 907.929,-303.24"/>
<polygon fill="black" stroke="black" points="910.242,-300.612 900.462,-296.538 905.567,-305.822 910.242,-300.612"/>
<text text-anchor="middle" x="955.441" y="-318.8" font-family="Times New Roman,serif" font-size="14.00">Crafting 0</text>
</g>
<!-- Potion_Debuf_Constitutio -->
<g id="node23" class="node"><title>Potion_Debuf_Constitutio</title>
<ellipse fill="none" stroke="black" cx="1435.44" cy="-192" rx="106.681" ry="18"/>
<text text-anchor="middle" x="1435.44" y="-188.3" font-family="Times New Roman,serif" font-size="14.00">Potion_Debuf_Constitutio</text>
</g>
<!-- Potion_Debuf_Constitutio&#45;&gt;Potion_Debuf_All -->
<g id="edge23" class="edge"><title>Potion_Debuf_Constitutio&#45;&gt;Potion_Debuf_All</title>
<path fill="none" stroke="black" d="M1364.64,-178.485C1305.75,-168.159 1219.7,-153.266 1144.44,-141 1093.14,-132.639 1035.23,-123.718 990.744,-116.976"/>
<polygon fill="black" stroke="black" points="991.012,-113.477 980.601,-115.441 989.965,-120.398 991.012,-113.477"/>
<text text-anchor="middle" x="1261.44" y="-144.8" font-family="Times New Roman,serif" font-size="14.00">Crafting 3</text>
</g>
<!-- Arrow_KO&#45;&gt;Arrow_Debuff_All -->
<g id="edge24" class="edge"><title>Arrow_KO&#45;&gt;Arrow_Debuff_All</title>
<path fill="none" stroke="black" d="M1578.87,-91.5492C1539.03,-77.2005 1473.22,-53.4959 1427.72,-37.1073"/>
<polygon fill="black" stroke="black" points="1428.64,-33.7202 1418.05,-33.6245 1426.27,-40.3061 1428.64,-33.7202"/>
<text text-anchor="middle" x="1538.44" y="-57.8" font-family="Times New Roman,serif" font-size="14.00">Crafting 3</text>
</g>
<!-- Potion_Debuf_Perception&#45;&gt;Potion_Debuf_All -->
<g id="edge25" class="edge"><title>Potion_Debuf_Perception&#45;&gt;Potion_Debuf_All</title>
<path fill="none" stroke="black" d="M978.061,-173.799C966.967,-161.39 951.827,-144.458 939.453,-130.618"/>
<polygon fill="black" stroke="black" points="941.813,-128.007 932.539,-122.885 936.595,-132.673 941.813,-128.007"/>
<text text-anchor="middle" x="988.441" y="-144.8" font-family="Times New Roman,serif" font-size="14.00">Crafting 3</text>
</g>
<!-- Essence_Shadow -->
<g id="node26" class="node"><title>Essence_Shadow</title>
<ellipse fill="none" stroke="black" cx="465.441" cy="-279" rx="75.2868" ry="18"/>
<text text-anchor="middle" x="465.441" y="-275.3" font-family="Times New Roman,serif" font-size="14.00">Essence_Shadow</text>
</g>
<!-- Essence_Shadow&#45;&gt;Potion_Debuf_Speed -->
<g id="edge26" class="edge"><title>Essence_Shadow&#45;&gt;Potion_Debuf_Speed</title>
<path fill="none" stroke="black" d="M461.552,-260.955C460.167,-250.629 460.239,-237.637 466.441,-228 470.416,-221.825 475.809,-216.712 481.876,-212.486"/>
<polygon fill="black" stroke="black" points="483.763,-215.435 490.497,-207.255 480.132,-209.45 483.763,-215.435"/>
<text text-anchor="middle" x="494.441" y="-231.8" font-family="Times New Roman,serif" font-size="14.00">Crafting 2</text>
</g>
<!-- Potion_Poison&#45;&gt;Potion_Debuf_Intelligence -->
<g id="edge29" class="edge"><title>Potion_Poison&#45;&gt;Potion_Debuf_Intelligence</title>
<path fill="none" stroke="black" d="M585.684,-264.329C571.411,-258.537 555.283,-251.219 541.441,-243 532.19,-237.507 532.258,-232.403 522.441,-228 511.882,-223.264 459.129,-214.042 410.732,-206.254"/>
<polygon fill="black" stroke="black" points="411.233,-202.789 400.806,-204.666 410.128,-209.701 411.233,-202.789"/>
<text text-anchor="middle" x="569.441" y="-231.8" font-family="Times New Roman,serif" font-size="14.00">Crafting 2</text>
</g>
<!-- Potion_Poison&#45;&gt;Potion_Debuf_Dexterity -->
<g id="edge31" class="edge"><title>Potion_Poison&#45;&gt;Potion_Debuf_Dexterity</title>
<path fill="none" stroke="black" d="M576.615,-266.469C567.629,-264.476 558.27,-262.55 549.441,-261 484.612,-249.616 466.492,-258.162 402.441,-243 383.153,-238.434 379.739,-232.527 360.441,-228 294.212,-212.462 275.838,-219.243 208.441,-210 199.523,-208.777 190.205,-207.43 180.936,-206.046"/>
<polygon fill="black" stroke="black" points="181.328,-202.565 170.917,-204.533 180.283,-209.487 181.328,-202.565"/>
<text text-anchor="middle" x="430.441" y="-231.8" font-family="Times New Roman,serif" font-size="14.00">Crafting 2</text>
</g>
<!-- Potion_Poison&#45;&gt;Potion_Debuf_Constitution -->
<g id="edge32" class="edge"><title>Potion_Poison&#45;&gt;Potion_Debuf_Constitution</title>
<path fill="none" stroke="black" d="M648.517,-262.211C669.613,-248.929 700.005,-229.793 723.488,-215.007"/>
<polygon fill="black" stroke="black" points="725.519,-217.865 732.116,-209.575 721.789,-211.941 725.519,-217.865"/>
<text text-anchor="middle" x="727.441" y="-231.8" font-family="Times New Roman,serif" font-size="14.00">Crafting 2</text>
</g>
<!-- Potion_Poison&#45;&gt;Potion_Debuf_Speed -->
<g id="edge27" class="edge"><title>Potion_Poison&#45;&gt;Potion_Debuf_Speed</title>
<path fill="none" stroke="black" d="M618.87,-260.704C615.429,-250.284 609.842,-237.281 601.441,-228 596.594,-222.645 590.729,-217.911 584.563,-213.793"/>
<polygon fill="black" stroke="black" points="586.39,-210.808 576.037,-208.56 582.729,-216.774 586.39,-210.808"/>
<text text-anchor="middle" x="639.441" y="-231.8" font-family="Times New Roman,serif" font-size="14.00">Crafting 2</text>
</g>
<!-- Potion_Poison&#45;&gt;Potion_Debuf_Strength -->
<g id="edge28" class="edge"><title>Potion_Poison&#45;&gt;Potion_Debuf_Strength</title>
<path fill="none" stroke="black" d="M683.084,-271.825C761.495,-263.549 891.87,-249.185 913.441,-243 928.54,-238.671 930.321,-232.253 945.441,-228 1015.6,-208.267 1036.21,-219.774 1108.44,-210 1117.1,-208.829 1126.14,-207.517 1135.13,-206.154"/>
<polygon fill="black" stroke="black" points="1135.88,-209.579 1145.24,-204.6 1134.82,-202.661 1135.88,-209.579"/>
<text text-anchor="middle" x="973.441" y="-231.8" font-family="Times New Roman,serif" font-size="14.00">Crafting 2</text>
</g>
<!-- Potion_Poison&#45;&gt;Potion_Debuf_Perception -->
<g id="edge30" class="edge"><title>Potion_Poison&#45;&gt;Potion_Debuf_Perception</title>
<path fill="none" stroke="black" d="M678.24,-269.313C703.801,-263.921 734.101,-255.558 759.441,-243 769.081,-238.223 768.595,-232.336 778.441,-228 784.573,-225.3 849.824,-214.86 906.848,-206.079"/>
<polygon fill="black" stroke="black" points="907.663,-209.495 917.016,-204.518 906.601,-202.576 907.663,-209.495"/>
<text text-anchor="middle" x="806.441" y="-231.8" font-family="Times New Roman,serif" font-size="14.00">Crafting 2</text>
</g>
<!-- MortarPestle -->
<g id="node28" class="node"><title>MortarPestle</title>
<ellipse fill="none" stroke="black" cx="1045.44" cy="-366" rx="57.3905" ry="18"/>
<text text-anchor="middle" x="1045.44" y="-362.3" font-family="Times New Roman,serif" font-size="14.00">MortarPestle</text>
</g>
<!-- MortarPestle&#45;&gt;Pouch_Dust_Bone -->
<g id="edge33" class="edge"><title>MortarPestle&#45;&gt;Pouch_Dust_Bone</title>
<path fill="none" stroke="black" d="M1030.04,-348.63C1019.06,-337.782 1003.46,-323.952 987.441,-315 973.1,-306.983 956.663,-300.511 940.942,-295.417"/>
<polygon fill="black" stroke="black" points="941.86,-292.037 931.272,-292.422 939.789,-298.724 941.86,-292.037"/>
<text text-anchor="middle" x="1036.44" y="-318.8" font-family="Times New Roman,serif" font-size="14.00">Crafting 0</text>
</g>
</g>
</svg>
