<?xml version="1.0" encoding="UTF-8" standalone="no"?>
<!DOCTYPE svg PUBLIC "-//W3C//DTD SVG 1.1//EN"
 "http://www.w3.org/Graphics/SVG/1.1/DTD/svg11.dtd">
<!-- Generated by graphviz version 2.38.0 (20140413.2041)
 -->
<!-- Title: G Pages: 1 -->
<svg width="322pt" height="149pt"
 viewBox="0.00 0.00 322.19 148.74" xmlns="http://www.w3.org/2000/svg" xmlns:xlink="http://www.w3.org/1999/xlink">
<g id="graph0" class="graph" transform="scale(1 1) rotate(0) translate(4 144.74)">
<title>G</title>
<polygon fill="white" stroke="none" points="-4,4 -4,-144.74 318.187,-144.74 318.187,4 -4,4"/>
<!-- TwoHandedSword
+ Small_WaterDamage -->
<g id="node1" class="node"><title>TwoHandedSword
+ Small_WaterDamage</title>
<ellipse fill="none" stroke="black" cx="150.594" cy="-26.8701" rx="103.476" ry="26.7407"/>
<text text-anchor="middle" x="150.594" y="-30.6701" font-family="Times New Roman,serif" font-size="14.00">TwoHandedSword</text>
<text text-anchor="middle" x="150.594" y="-15.6701" font-family="Times New Roman,serif" font-size="14.00">+ Small_WaterDamage</text>
</g>
<!-- Essence_Water -->
<g id="node2" class="node"><title>Essence_Water</title>
<ellipse fill="none" stroke="black" cx="67.594" cy="-122.74" rx="67.6881" ry="18"/>
<text text-anchor="middle" x="67.594" y="-119.04" font-family="Times New Roman,serif" font-size="14.00">Essence_Water</text>
</g>
<!-- Essence_Water&#45;&gt;TwoHandedSword
+ Small_WaterDamage -->
<g id="edge2" class="edge"><title>Essence_Water&#45;&gt;TwoHandedSword
+ Small_WaterDamage</title>
<path fill="none" stroke="black" d="M82.4327,-104.958C93.233,-92.7433 108.211,-75.8035 121.377,-60.9137"/>
<polygon fill="black" stroke="black" points="124.063,-63.16 128.065,-53.35 118.819,-58.5231 124.063,-63.16"/>
<text text-anchor="middle" x="139.594" y="-75.5401" font-family="Times New Roman,serif" font-size="14.00">Crafting 5</text>
</g>
<!-- TwoHandedSword -->
<g id="node3" class="node"><title>TwoHandedSword</title>
<ellipse fill="none" stroke="black" cx="233.594" cy="-122.74" rx="80.6858" ry="18"/>
<text text-anchor="middle" x="233.594" y="-119.04" font-family="Times New Roman,serif" font-size="14.00">TwoHandedSword</text>
</g>
<!-- TwoHandedSword&#45;&gt;TwoHandedSword
+ Small_WaterDamage -->
<g id="edge1" class="edge"><title>TwoHandedSword&#45;&gt;TwoHandedSword
+ Small_WaterDamage</title>
<path fill="none" stroke="black" d="M218.755,-104.958C207.955,-92.7433 192.977,-75.8035 179.811,-60.9137"/>
<polygon fill="black" stroke="black" points="182.369,-58.5231 173.123,-53.35 177.125,-63.16 182.369,-58.5231"/>
<text text-anchor="middle" x="229.594" y="-75.5401" font-family="Times New Roman,serif" font-size="14.00">Crafting 5</text>
</g>
</g>
</svg>
