<?xml version="1.0" encoding="UTF-8" standalone="no"?>
<!DOCTYPE svg PUBLIC "-//W3C//DTD SVG 1.1//EN"
 "http://www.w3.org/Graphics/SVG/1.1/DTD/svg11.dtd">
<!-- Generated by graphviz version 2.38.0 (20140413.2041)
 -->
<!-- Title: G Pages: 1 -->
<svg width="301pt" height="218pt"
 viewBox="0.00 0.00 301.14 218.00" xmlns="http://www.w3.org/2000/svg" xmlns:xlink="http://www.w3.org/1999/xlink">
<g id="graph0" class="graph" transform="scale(1 1) rotate(0) translate(4 214)">
<title>G</title>
<polygon fill="white" stroke="none" points="-4,4 -4,-214 297.142,-214 297.142,4 -4,4"/>
<!-- Dagger -->
<g id="node1" class="node"><title>Dagger</title>
<ellipse fill="none" stroke="black" cx="36.3968" cy="-192" rx="36.2938" ry="18"/>
<text text-anchor="middle" x="36.3968" y="-188.3" font-family="Times New Roman,serif" font-size="14.00">Dagger</text>
</g>
<!-- Fries_Cold -->
<g id="node3" class="node"><title>Fries_Cold</title>
<ellipse fill="none" stroke="black" cx="125.397" cy="-105" rx="51.9908" ry="18"/>
<text text-anchor="middle" x="125.397" y="-101.3" font-family="Times New Roman,serif" font-size="14.00">Fries_Cold</text>
</g>
<!-- Dagger&#45;&gt;Fries_Cold -->
<g id="edge1" class="edge"><title>Dagger&#45;&gt;Fries_Cold</title>
<path fill="none" stroke="black" d="M43.4077,-174.243C48.3998,-163.773 55.9003,-150.52 65.3968,-141 71.4569,-134.925 78.7837,-129.523 86.2047,-124.889"/>
<polygon fill="black" stroke="black" points="88.0255,-127.879 94.8895,-119.808 84.4907,-121.837 88.0255,-127.879"/>
<text text-anchor="middle" x="93.3968" y="-144.8" font-family="Times New Roman,serif" font-size="14.00">Crafting 0</text>
</g>
<!-- Potato -->
<g id="node2" class="node"><title>Potato</title>
<ellipse fill="none" stroke="black" cx="125.397" cy="-192" rx="34.394" ry="18"/>
<text text-anchor="middle" x="125.397" y="-188.3" font-family="Times New Roman,serif" font-size="14.00">Potato</text>
</g>
<!-- Potato&#45;&gt;Fries_Cold -->
<g id="edge2" class="edge"><title>Potato&#45;&gt;Fries_Cold</title>
<path fill="none" stroke="black" d="M125.397,-173.799C125.397,-162.163 125.397,-146.548 125.397,-133.237"/>
<polygon fill="black" stroke="black" points="128.897,-133.175 125.397,-123.175 121.897,-133.175 128.897,-133.175"/>
<text text-anchor="middle" x="153.397" y="-144.8" font-family="Times New Roman,serif" font-size="14.00">Crafting 0</text>
</g>
<!-- Fries_Rivellon -->
<g id="node5" class="node"><title>Fries_Rivellon</title>
<ellipse fill="none" stroke="black" cx="194.397" cy="-18" rx="63.8893" ry="18"/>
<text text-anchor="middle" x="194.397" y="-14.3" font-family="Times New Roman,serif" font-size="14.00">Fries_Rivellon</text>
</g>
<!-- Fries_Cold&#45;&gt;Fries_Rivellon -->
<g id="edge3" class="edge"><title>Fries_Cold&#45;&gt;Fries_Rivellon</title>
<path fill="none" stroke="black" d="M134.386,-87.0235C140.076,-76.9679 147.938,-64.2341 156.397,-54 159.74,-49.9558 163.539,-45.9322 167.412,-42.131"/>
<polygon fill="black" stroke="black" points="169.954,-44.5449 174.849,-35.1484 165.163,-39.4417 169.954,-44.5449"/>
<text text-anchor="middle" x="184.397" y="-57.8" font-family="Times New Roman,serif" font-size="14.00">Crafting 0</text>
</g>
<!-- BoilingPot -->
<g id="node4" class="node"><title>BoilingPot</title>
<ellipse fill="none" stroke="black" cx="244.397" cy="-105" rx="48.9926" ry="18"/>
<text text-anchor="middle" x="244.397" y="-101.3" font-family="Times New Roman,serif" font-size="14.00">BoilingPot</text>
</g>
<!-- BoilingPot&#45;&gt;Fries_Rivellon -->
<g id="edge4" class="edge"><title>BoilingPot&#45;&gt;Fries_Rivellon</title>
<path fill="none" stroke="black" d="M234.518,-87.2067C227.443,-75.1778 217.778,-58.7478 209.707,-45.0276"/>
<polygon fill="black" stroke="black" points="212.513,-42.8941 204.426,-36.0493 206.479,-46.4433 212.513,-42.8941"/>
<text text-anchor="middle" x="249.397" y="-57.8" font-family="Times New Roman,serif" font-size="14.00">Crafting 0</text>
</g>
<!-- Knife -->
<g id="node6" class="node"><title>Knife</title>
<ellipse fill="none" stroke="black" cx="208.397" cy="-192" rx="30.5947" ry="18"/>
<text text-anchor="middle" x="208.397" y="-188.3" font-family="Times New Roman,serif" font-size="14.00">Knife</text>
</g>
<!-- Knife&#45;&gt;Fries_Cold -->
<g id="edge5" class="edge"><title>Knife&#45;&gt;Fries_Cold</title>
<path fill="none" stroke="black" d="M203.567,-174.217C199.899,-163.736 194.001,-150.482 185.397,-141 179.813,-134.846 172.887,-129.47 165.748,-124.898"/>
<polygon fill="black" stroke="black" points="167.065,-121.611 156.675,-119.538 163.505,-127.638 167.065,-121.611"/>
<text text-anchor="middle" x="224.397" y="-144.8" font-family="Times New Roman,serif" font-size="14.00">Crafting 0</text>
</g>
</g>
</svg>
