<?xml version="1.0" encoding="UTF-8" standalone="no"?>
<!DOCTYPE svg PUBLIC "-//W3C//DTD SVG 1.1//EN"
 "http://www.w3.org/Graphics/SVG/1.1/DTD/svg11.dtd">
<!-- Generated by graphviz version 2.38.0 (20140413.2041)
 -->
<!-- Title: G Pages: 1 -->
<svg width="252pt" height="149pt"
 viewBox="0.00 0.00 252.09 148.74" xmlns="http://www.w3.org/2000/svg" xmlns:xlink="http://www.w3.org/1999/xlink">
<g id="graph0" class="graph" transform="scale(1 1) rotate(0) translate(4 144.74)">
<title>G</title>
<polygon fill="white" stroke="none" points="-4,4 -4,-144.74 248.09,-144.74 248.09,4 -4,4"/>
<!-- Crossbow -->
<g id="node1" class="node"><title>Crossbow</title>
<ellipse fill="none" stroke="black" cx="48.7457" cy="-122.74" rx="48.9926" ry="18"/>
<text text-anchor="middle" x="48.7457" y="-119.04" font-family="Times New Roman,serif" font-size="14.00">Crossbow</text>
</g>
<!-- Crossbow
+ Small_EarthDamage -->
<g id="node2" class="node"><title>Crossbow
+ Small_EarthDamage</title>
<ellipse fill="none" stroke="black" cx="113.746" cy="-26.8701" rx="99.9045" ry="26.7407"/>
<text text-anchor="middle" x="113.746" y="-30.6701" font-family="Times New Roman,serif" font-size="14.00">Crossbow</text>
<text text-anchor="middle" x="113.746" y="-15.6701" font-family="Times New Roman,serif" font-size="14.00">+ Small_EarthDamage</text>
</g>
<!-- Crossbow&#45;&gt;Crossbow
+ Small_EarthDamage -->
<g id="edge1" class="edge"><title>Crossbow&#45;&gt;Crossbow
+ Small_EarthDamage</title>
<path fill="none" stroke="black" d="M60.3664,-104.958C68.6692,-92.9674 80.125,-76.4235 90.2958,-61.7353"/>
<polygon fill="black" stroke="black" points="93.2867,-63.5639 96.1022,-53.35 87.5318,-59.5789 93.2867,-63.5639"/>
<text text-anchor="middle" x="111.746" y="-75.5401" font-family="Times New Roman,serif" font-size="14.00">Crafting 5</text>
</g>
<!-- Essence_Earth -->
<g id="node3" class="node"><title>Essence_Earth</title>
<ellipse fill="none" stroke="black" cx="179.746" cy="-122.74" rx="64.189" ry="18"/>
<text text-anchor="middle" x="179.746" y="-119.04" font-family="Times New Roman,serif" font-size="14.00">Essence_Earth</text>
</g>
<!-- Essence_Earth&#45;&gt;Crossbow
+ Small_EarthDamage -->
<g id="edge2" class="edge"><title>Essence_Earth&#45;&gt;Crossbow
+ Small_EarthDamage</title>
<path fill="none" stroke="black" d="M167.946,-104.958C159.516,-92.9674 147.884,-76.4235 137.556,-61.7353"/>
<polygon fill="black" stroke="black" points="140.275,-59.5173 131.661,-53.35 134.549,-63.5435 140.275,-59.5173"/>
<text text-anchor="middle" x="181.746" y="-75.5401" font-family="Times New Roman,serif" font-size="14.00">Crafting 5</text>
</g>
</g>
</svg>
