<?xml version="1.0" encoding="UTF-8" standalone="no"?>
<!DOCTYPE svg PUBLIC "-//W3C//DTD SVG 1.1//EN"
 "http://www.w3.org/Graphics/SVG/1.1/DTD/svg11.dtd">
<!-- Generated by graphviz version 2.38.0 (20140413.2041)
 -->
<!-- Title: G Pages: 1 -->
<svg width="199pt" height="131pt"
 viewBox="0.00 0.00 198.75 131.00" xmlns="http://www.w3.org/2000/svg" xmlns:xlink="http://www.w3.org/1999/xlink">
<g id="graph0" class="graph" transform="scale(1 1) rotate(0) translate(4 127)">
<title>G</title>
<polygon fill="white" stroke="none" points="-4,4 -4,-127 194.746,-127 194.746,4 -4,4"/>
<!-- Potato_Boiled -->
<g id="node1" class="node"><title>Potato_Boiled</title>
<ellipse fill="none" stroke="black" cx="98.7457" cy="-18" rx="63.0888" ry="18"/>
<text text-anchor="middle" x="98.7457" y="-14.3" font-family="Times New Roman,serif" font-size="14.00">Potato_Boiled</text>
</g>
<!-- BoilingPot -->
<g id="node2" class="node"><title>BoilingPot</title>
<ellipse fill="none" stroke="black" cx="48.7457" cy="-105" rx="48.9926" ry="18"/>
<text text-anchor="middle" x="48.7457" y="-101.3" font-family="Times New Roman,serif" font-size="14.00">BoilingPot</text>
</g>
<!-- BoilingPot&#45;&gt;Potato_Boiled -->
<g id="edge1" class="edge"><title>BoilingPot&#45;&gt;Potato_Boiled</title>
<path fill="none" stroke="black" d="M55.4974,-86.8481C59.6646,-76.9641 65.4146,-64.4641 71.7457,-54 73.7295,-50.7211 75.9668,-47.3896 78.2831,-44.1508"/>
<polygon fill="black" stroke="black" points="81.2766,-45.9929 84.4795,-35.8938 75.6778,-41.7913 81.2766,-45.9929"/>
<text text-anchor="middle" x="99.7457" y="-57.8" font-family="Times New Roman,serif" font-size="14.00">Crafting 0</text>
</g>
<!-- Potato -->
<g id="node3" class="node"><title>Potato</title>
<ellipse fill="none" stroke="black" cx="149.746" cy="-105" rx="34.394" ry="18"/>
<text text-anchor="middle" x="149.746" y="-101.3" font-family="Times New Roman,serif" font-size="14.00">Potato</text>
</g>
<!-- Potato&#45;&gt;Potato_Boiled -->
<g id="edge2" class="edge"><title>Potato&#45;&gt;Potato_Boiled</title>
<path fill="none" stroke="black" d="M143.711,-87.2093C139.796,-77.2196 134.224,-64.4898 127.746,-54 125.614,-50.5485 123.169,-47.0719 120.623,-43.7194"/>
<polygon fill="black" stroke="black" points="123.195,-41.3324 114.205,-35.7266 117.737,-45.7153 123.195,-41.3324"/>
<text text-anchor="middle" x="162.746" y="-57.8" font-family="Times New Roman,serif" font-size="14.00">Crafting 0</text>
</g>
</g>
</svg>
