<?xml version="1.0" encoding="UTF-8" standalone="no"?>
<!DOCTYPE svg PUBLIC "-//W3C//DTD SVG 1.1//EN"
 "http://www.w3.org/Graphics/SVG/1.1/DTD/svg11.dtd">
<!-- Generated by graphviz version 2.38.0 (20140413.2041)
 -->
<!-- Title: G Pages: 1 -->
<svg width="867pt" height="305pt"
 viewBox="0.00 0.00 866.59 305.00" xmlns="http://www.w3.org/2000/svg" xmlns:xlink="http://www.w3.org/1999/xlink">
<g id="graph0" class="graph" transform="scale(1 1) rotate(0) translate(4 301)">
<title>G</title>
<polygon fill="white" stroke="none" points="-4,4 -4,-301 862.592,-301 862.592,4 -4,4"/>
<!-- Wheat -->
<g id="node1" class="node"><title>Wheat</title>
<ellipse fill="none" stroke="black" cx="691.397" cy="-279" rx="34.394" ry="18"/>
<text text-anchor="middle" x="691.397" y="-275.3" font-family="Times New Roman,serif" font-size="14.00">Wheat</text>
</g>
<!-- Flour -->
<g id="node9" class="node"><title>Flour</title>
<ellipse fill="none" stroke="black" cx="691.397" cy="-192" rx="30.5947" ry="18"/>
<text text-anchor="middle" x="691.397" y="-188.3" font-family="Times New Roman,serif" font-size="14.00">Flour</text>
</g>
<!-- Wheat&#45;&gt;Flour -->
<g id="edge1" class="edge"><title>Wheat&#45;&gt;Flour</title>
<path fill="none" stroke="black" d="M691.397,-260.799C691.397,-249.163 691.397,-233.548 691.397,-220.237"/>
<polygon fill="black" stroke="black" points="694.897,-220.175 691.397,-210.175 687.897,-220.175 694.897,-220.175"/>
<text text-anchor="middle" x="719.397" y="-231.8" font-family="Times New Roman,serif" font-size="14.00">Crafting 0</text>
</g>
<!-- Well -->
<g id="node2" class="node"><title>Well</title>
<ellipse fill="none" stroke="black" cx="462.397" cy="-279" rx="27.0966" ry="18"/>
<text text-anchor="middle" x="462.397" y="-275.3" font-family="Times New Roman,serif" font-size="14.00">Well</text>
</g>
<!-- Bucket_A_Water -->
<g id="node5" class="node"><title>Bucket_A_Water</title>
<ellipse fill="none" stroke="black" cx="194.397" cy="-192" rx="74.187" ry="18"/>
<text text-anchor="middle" x="194.397" y="-188.3" font-family="Times New Roman,serif" font-size="14.00">Bucket_A_Water</text>
</g>
<!-- Well&#45;&gt;Bucket_A_Water -->
<g id="edge3" class="edge"><title>Well&#45;&gt;Bucket_A_Water</title>
<path fill="none" stroke="black" d="M448.743,-263.324C436.217,-250.207 418.3,-232.398 409.397,-228 385.596,-216.243 323.24,-206.855 271.774,-200.773"/>
<polygon fill="black" stroke="black" points="271.977,-197.274 261.641,-199.602 271.173,-204.227 271.977,-197.274"/>
<text text-anchor="middle" x="455.397" y="-231.8" font-family="Times New Roman,serif" font-size="14.00">Crafting 0</text>
</g>
<!-- Cup_A_Water -->
<g id="node11" class="node"><title>Cup_A_Water</title>
<ellipse fill="none" stroke="black" cx="431.397" cy="-192" rx="64.189" ry="18"/>
<text text-anchor="middle" x="431.397" y="-188.3" font-family="Times New Roman,serif" font-size="14.00">Cup_A_Water</text>
</g>
<!-- Well&#45;&gt;Cup_A_Water -->
<g id="edge4" class="edge"><title>Well&#45;&gt;Cup_A_Water</title>
<path fill="none" stroke="black" d="M477.693,-263.869C486.682,-253.787 495.084,-239.954 488.397,-228 485.083,-222.076 480.31,-217.033 474.918,-212.777"/>
<polygon fill="black" stroke="black" points="476.893,-209.887 466.673,-207.093 472.92,-215.65 476.893,-209.887"/>
<text text-anchor="middle" x="519.397" y="-231.8" font-family="Times New Roman,serif" font-size="14.00">Crafting 0</text>
</g>
<!-- CupEmpty -->
<g id="node3" class="node"><title>CupEmpty</title>
<ellipse fill="none" stroke="black" cx="589.397" cy="-279" rx="50.0912" ry="18"/>
<text text-anchor="middle" x="589.397" y="-275.3" font-family="Times New Roman,serif" font-size="14.00">CupEmpty</text>
</g>
<!-- CupEmpty&#45;&gt;Cup_A_Water -->
<g id="edge11" class="edge"><title>CupEmpty&#45;&gt;Cup_A_Water</title>
<path fill="none" stroke="black" d="M580.23,-260.879C573.576,-249.988 563.615,-236.401 551.397,-228 535.103,-216.796 515.206,-209.134 496.335,-203.912"/>
<polygon fill="black" stroke="black" points="497.142,-200.505 486.585,-201.397 495.394,-207.284 497.142,-200.505"/>
<text text-anchor="middle" x="595.397" y="-231.8" font-family="Times New Roman,serif" font-size="14.00">Crafting 0</text>
</g>
<!-- Bucket -->
<g id="node4" class="node"><title>Bucket</title>
<ellipse fill="none" stroke="black" cx="36.3968" cy="-279" rx="36.2938" ry="18"/>
<text text-anchor="middle" x="36.3968" y="-275.3" font-family="Times New Roman,serif" font-size="14.00">Bucket</text>
</g>
<!-- Bucket&#45;&gt;Bucket_A_Water -->
<g id="edge5" class="edge"><title>Bucket&#45;&gt;Bucket_A_Water</title>
<path fill="none" stroke="black" d="M38.4191,-260.888C40.5914,-250 45.0898,-236.415 54.3968,-228 70.6001,-213.35 92.0064,-204.619 113.192,-199.474"/>
<polygon fill="black" stroke="black" points="114.193,-202.839 123.219,-197.291 112.703,-195.999 114.193,-202.839"/>
<text text-anchor="middle" x="82.3968" y="-231.8" font-family="Times New Roman,serif" font-size="14.00">Crafting 0</text>
</g>
<!-- Dough -->
<g id="node7" class="node"><title>Dough</title>
<ellipse fill="none" stroke="black" cx="431.397" cy="-105" rx="35.194" ry="18"/>
<text text-anchor="middle" x="431.397" y="-101.3" font-family="Times New Roman,serif" font-size="14.00">Dough</text>
</g>
<!-- Bucket_A_Water&#45;&gt;Dough -->
<g id="edge6" class="edge"><title>Bucket_A_Water&#45;&gt;Dough</title>
<path fill="none" stroke="black" d="M234.065,-176.773C278.565,-160.813 350.207,-135.119 393.83,-119.473"/>
<polygon fill="black" stroke="black" points="395.256,-122.68 403.487,-116.01 392.893,-116.091 395.256,-122.68"/>
<text text-anchor="middle" x="355.397" y="-144.8" font-family="Times New Roman,serif" font-size="14.00">Crafting 0</text>
</g>
<!-- Well_A_Snow -->
<g id="node6" class="node"><title>Well_A_Snow</title>
<ellipse fill="none" stroke="black" cx="175.397" cy="-279" rx="64.189" ry="18"/>
<text text-anchor="middle" x="175.397" y="-275.3" font-family="Times New Roman,serif" font-size="14.00">Well_A_Snow</text>
</g>
<!-- Well_A_Snow&#45;&gt;Bucket_A_Water -->
<g id="edge7" class="edge"><title>Well_A_Snow&#45;&gt;Bucket_A_Water</title>
<path fill="none" stroke="black" d="M139.293,-264.028C122.04,-255.122 106.985,-242.54 116.397,-228 121.15,-220.657 127.85,-214.839 135.346,-210.235"/>
<polygon fill="black" stroke="black" points="137.278,-213.171 144.445,-205.368 133.976,-206.998 137.278,-213.171"/>
<text text-anchor="middle" x="144.397" y="-231.8" font-family="Times New Roman,serif" font-size="14.00">Crafting 0</text>
</g>
<!-- Well_A_Snow&#45;&gt;Cup_A_Water -->
<g id="edge8" class="edge"><title>Well_A_Snow&#45;&gt;Cup_A_Water</title>
<path fill="none" stroke="black" d="M207.591,-263.232C221.128,-257.007 237.037,-249.672 251.397,-243 265.641,-236.381 268.564,-233.168 283.397,-228 311.032,-218.371 342.482,-210.519 369.262,-204.71"/>
<polygon fill="black" stroke="black" points="370.223,-208.084 379.279,-202.584 368.77,-201.236 370.223,-208.084"/>
<text text-anchor="middle" x="311.397" y="-231.8" font-family="Times New Roman,serif" font-size="14.00">Crafting 0</text>
</g>
<!-- Bread -->
<g id="node13" class="node"><title>Bread</title>
<ellipse fill="none" stroke="black" cx="474.397" cy="-18" rx="32.4942" ry="18"/>
<text text-anchor="middle" x="474.397" y="-14.3" font-family="Times New Roman,serif" font-size="14.00">Bread</text>
</g>
<!-- Dough&#45;&gt;Bread -->
<g id="edge9" class="edge"><title>Dough&#45;&gt;Bread</title>
<path fill="none" stroke="black" d="M428.788,-86.969C428.025,-76.8941 428.463,-64.1592 433.397,-54 436.241,-48.1437 440.566,-42.8858 445.359,-38.3335"/>
<polygon fill="black" stroke="black" points="447.743,-40.9009 453.127,-31.776 443.228,-35.5517 447.743,-40.9009"/>
<text text-anchor="middle" x="461.397" y="-57.8" font-family="Times New Roman,serif" font-size="14.00">Crafting 0</text>
</g>
<!-- Oven -->
<g id="node8" class="node"><title>Oven</title>
<ellipse fill="none" stroke="black" cx="515.397" cy="-105" rx="30.5947" ry="18"/>
<text text-anchor="middle" x="515.397" y="-101.3" font-family="Times New Roman,serif" font-size="14.00">Oven</text>
</g>
<!-- Oven&#45;&gt;Bread -->
<g id="edge10" class="edge"><title>Oven&#45;&gt;Bread</title>
<path fill="none" stroke="black" d="M508.405,-87.1744C504.242,-77.3992 498.742,-64.8992 493.397,-54 491.905,-50.9582 490.288,-47.7986 488.649,-44.6776"/>
<polygon fill="black" stroke="black" points="491.582,-42.7408 483.766,-35.5876 485.415,-46.0533 491.582,-42.7408"/>
<text text-anchor="middle" x="529.397" y="-57.8" font-family="Times New Roman,serif" font-size="14.00">Crafting 0</text>
</g>
<!-- Flour&#45;&gt;Dough -->
<g id="edge2" class="edge"><title>Flour&#45;&gt;Dough</title>
<path fill="none" stroke="black" d="M664.614,-183.167C623.612,-171.041 542.928,-146.649 475.397,-123 472.875,-122.117 470.282,-121.183 467.676,-120.225"/>
<polygon fill="black" stroke="black" points="468.881,-116.939 458.289,-116.702 466.421,-123.493 468.881,-116.939"/>
<text text-anchor="middle" x="598.397" y="-144.8" font-family="Times New Roman,serif" font-size="14.00">Crafting 0</text>
</g>
<!-- Barrel -->
<g id="node10" class="node"><title>Barrel</title>
<ellipse fill="none" stroke="black" cx="331.397" cy="-279" rx="32.4942" ry="18"/>
<text text-anchor="middle" x="331.397" y="-275.3" font-family="Times New Roman,serif" font-size="14.00">Barrel</text>
</g>
<!-- Barrel&#45;&gt;Bucket_A_Water -->
<g id="edge12" class="edge"><title>Barrel&#45;&gt;Bucket_A_Water</title>
<path fill="none" stroke="black" d="M301.155,-272.218C263.138,-264.648 202.016,-251.364 195.397,-243 190.377,-236.657 188.878,-228.307 189.003,-220.253"/>
<polygon fill="black" stroke="black" points="192.513,-220.306 189.943,-210.028 185.542,-219.665 192.513,-220.306"/>
<text text-anchor="middle" x="223.397" y="-231.8" font-family="Times New Roman,serif" font-size="14.00">Crafting 0</text>
</g>
<!-- Barrel&#45;&gt;Cup_A_Water -->
<g id="edge13" class="edge"><title>Barrel&#45;&gt;Cup_A_Water</title>
<path fill="none" stroke="black" d="M335.524,-260.901C338.836,-250.295 344.444,-237.019 353.397,-228 360.766,-220.576 369.99,-214.588 379.488,-209.806"/>
<polygon fill="black" stroke="black" points="381.017,-212.956 388.627,-205.585 378.081,-206.601 381.017,-212.956"/>
<text text-anchor="middle" x="381.397" y="-231.8" font-family="Times New Roman,serif" font-size="14.00">Crafting 0</text>
</g>
<!-- Cup_A_Water&#45;&gt;Dough -->
<g id="edge14" class="edge"><title>Cup_A_Water&#45;&gt;Dough</title>
<path fill="none" stroke="black" d="M431.397,-173.799C431.397,-162.163 431.397,-146.548 431.397,-133.237"/>
<polygon fill="black" stroke="black" points="434.897,-133.175 431.397,-123.175 427.897,-133.175 434.897,-133.175"/>
<text text-anchor="middle" x="459.397" y="-144.8" font-family="Times New Roman,serif" font-size="14.00">Crafting 0</text>
</g>
<!-- MortarPestle -->
<g id="node12" class="node"><title>MortarPestle</title>
<ellipse fill="none" stroke="black" cx="801.397" cy="-279" rx="57.3905" ry="18"/>
<text text-anchor="middle" x="801.397" y="-275.3" font-family="Times New Roman,serif" font-size="14.00">MortarPestle</text>
</g>
<!-- MortarPestle&#45;&gt;Flour -->
<g id="edge15" class="edge"><title>MortarPestle&#45;&gt;Flour</title>
<path fill="none" stroke="black" d="M786.601,-261.135C777.123,-250.878 764.231,-237.893 751.397,-228 742.567,-221.193 732.289,-214.738 722.761,-209.268"/>
<polygon fill="black" stroke="black" points="724.366,-206.156 713.927,-204.346 720.959,-212.271 724.366,-206.156"/>
<text text-anchor="middle" x="796.397" y="-231.8" font-family="Times New Roman,serif" font-size="14.00">Crafting 0</text>
</g>
</g>
</svg>
