<?xml version="1.0" encoding="UTF-8" standalone="no"?>
<!DOCTYPE svg PUBLIC "-//W3C//DTD SVG 1.1//EN"
 "http://www.w3.org/Graphics/SVG/1.1/DTD/svg11.dtd">
<!-- Generated by graphviz version 2.38.0 (20140413.2041)
 -->
<!-- Title: G Pages: 1 -->
<svg width="478pt" height="236pt"
 viewBox="0.00 0.00 477.99 235.74" xmlns="http://www.w3.org/2000/svg" xmlns:xlink="http://www.w3.org/1999/xlink">
<g id="graph0" class="graph" transform="scale(1 1) rotate(0) translate(4 231.74)">
<title>G</title>
<polygon fill="white" stroke="none" points="-4,4 -4,-231.74 473.986,-231.74 473.986,4 -4,4"/>
<!-- TwoHandedAxe -->
<g id="node1" class="node"><title>TwoHandedAxe</title>
<ellipse fill="none" stroke="black" cx="70.8437" cy="-122.74" rx="70.6878" ry="18"/>
<text text-anchor="middle" x="70.8437" y="-119.04" font-family="Times New Roman,serif" font-size="14.00">TwoHandedAxe</text>
</g>
<!-- TwoHandedAxe
+ Small_PoisonDamage -->
<g id="node3" class="node"><title>TwoHandedAxe
+ Small_PoisonDamage</title>
<ellipse fill="none" stroke="black" cx="128.844" cy="-26.8701" rx="106.547" ry="26.7407"/>
<text text-anchor="middle" x="128.844" y="-30.6701" font-family="Times New Roman,serif" font-size="14.00">TwoHandedAxe</text>
<text text-anchor="middle" x="128.844" y="-15.6701" font-family="Times New Roman,serif" font-size="14.00">+ Small_PoisonDamage</text>
</g>
<!-- TwoHandedAxe&#45;&gt;TwoHandedAxe
+ Small_PoisonDamage -->
<g id="edge1" class="edge"><title>TwoHandedAxe&#45;&gt;TwoHandedAxe
+ Small_PoisonDamage</title>
<path fill="none" stroke="black" d="M81.4818,-104.523C88.7941,-92.6884 98.7522,-76.5716 107.651,-62.1698"/>
<polygon fill="black" stroke="black" points="110.742,-63.8247 113.021,-53.4778 104.787,-60.1452 110.742,-63.8247"/>
<text text-anchor="middle" x="129.844" y="-75.5401" font-family="Times New Roman,serif" font-size="14.00">Crafting 1</text>
</g>
<!-- Potion_Empty -->
<g id="node2" class="node"><title>Potion_Empty</title>
<ellipse fill="none" stroke="black" cx="86.8437" cy="-209.74" rx="63.8893" ry="18"/>
<text text-anchor="middle" x="86.8437" y="-206.04" font-family="Times New Roman,serif" font-size="14.00">Potion_Empty</text>
</g>
<!-- Potion_Poison -->
<g id="node5" class="node"><title>Potion_Poison</title>
<ellipse fill="none" stroke="black" cx="224.844" cy="-122.74" rx="64.9885" ry="18"/>
<text text-anchor="middle" x="224.844" y="-119.04" font-family="Times New Roman,serif" font-size="14.00">Potion_Poison</text>
</g>
<!-- Potion_Empty&#45;&gt;Potion_Poison -->
<g id="edge2" class="edge"><title>Potion_Empty&#45;&gt;Potion_Poison</title>
<path fill="none" stroke="black" d="M110.922,-192.936C126.255,-182.964 146.595,-169.905 164.844,-158.74 172.617,-153.985 181.028,-148.987 189.025,-144.305"/>
<polygon fill="black" stroke="black" points="190.94,-147.239 197.82,-139.182 187.417,-141.191 190.94,-147.239"/>
<text text-anchor="middle" x="192.844" y="-162.54" font-family="Times New Roman,serif" font-size="14.00">Crafting 0</text>
</g>
<!-- Barrel_Ooze -->
<g id="node4" class="node"><title>Barrel_Ooze</title>
<ellipse fill="none" stroke="black" cx="224.844" cy="-209.74" rx="56.59" ry="18"/>
<text text-anchor="middle" x="224.844" y="-206.04" font-family="Times New Roman,serif" font-size="14.00">Barrel_Ooze</text>
</g>
<!-- Barrel_Ooze&#45;&gt;Potion_Poison -->
<g id="edge3" class="edge"><title>Barrel_Ooze&#45;&gt;Potion_Poison</title>
<path fill="none" stroke="black" d="M224.844,-191.539C224.844,-179.903 224.844,-164.288 224.844,-150.977"/>
<polygon fill="black" stroke="black" points="228.344,-150.916 224.844,-140.916 221.344,-150.916 228.344,-150.916"/>
<text text-anchor="middle" x="252.844" y="-162.54" font-family="Times New Roman,serif" font-size="14.00">Crafting 0</text>
</g>
<!-- Potion_Poison&#45;&gt;TwoHandedAxe
+ Small_PoisonDamage -->
<g id="edge4" class="edge"><title>Potion_Poison&#45;&gt;TwoHandedAxe
+ Small_PoisonDamage</title>
<path fill="none" stroke="black" d="M207.681,-104.958C194.982,-92.5406 177.288,-75.24 161.881,-60.1741"/>
<polygon fill="black" stroke="black" points="164.129,-57.4777 154.532,-52.9889 159.235,-62.4827 164.129,-57.4777"/>
<text text-anchor="middle" x="216.844" y="-75.5401" font-family="Times New Roman,serif" font-size="14.00">Crafting 1</text>
</g>
<!-- Herb_Mushroom_C -->
<g id="node6" class="node"><title>Herb_Mushroom_C</title>
<ellipse fill="none" stroke="black" cx="384.844" cy="-209.74" rx="85.2851" ry="18"/>
<text text-anchor="middle" x="384.844" y="-206.04" font-family="Times New Roman,serif" font-size="14.00">Herb_Mushroom_C</text>
</g>
<!-- Herb_Mushroom_C&#45;&gt;Potion_Poison -->
<g id="edge5" class="edge"><title>Herb_Mushroom_C&#45;&gt;Potion_Poison</title>
<path fill="none" stroke="black" d="M354.749,-192.752C328.642,-178.883 290.729,-158.742 262.594,-143.795"/>
<polygon fill="black" stroke="black" points="263.932,-140.542 253.459,-138.942 260.648,-146.724 263.932,-140.542"/>
<text text-anchor="middle" x="341.844" y="-162.54" font-family="Times New Roman,serif" font-size="14.00">Crafting 1</text>
</g>
</g>
</svg>
