<?xml version="1.0" encoding="UTF-8" standalone="no"?>
<!DOCTYPE svg PUBLIC "-//W3C//DTD SVG 1.1//EN"
 "http://www.w3.org/Graphics/SVG/1.1/DTD/svg11.dtd">
<!-- Generated by graphviz version 2.38.0 (20140413.2041)
 -->
<!-- Title: G Pages: 1 -->
<svg width="606pt" height="149pt"
 viewBox="0.00 0.00 605.98 148.74" xmlns="http://www.w3.org/2000/svg" xmlns:xlink="http://www.w3.org/1999/xlink">
<g id="graph0" class="graph" transform="scale(1 1) rotate(0) translate(4 144.74)">
<title>G</title>
<polygon fill="white" stroke="none" points="-4,4 -4,-144.74 601.979,-144.74 601.979,4 -4,4"/>
<!-- Menaulion
+ Large_Damage -->
<g id="node1" class="node"><title>Menaulion
+ Large_Damage</title>
<ellipse fill="none" stroke="black" cx="368.047" cy="-26.8701" rx="79.8062" ry="26.7407"/>
<text text-anchor="middle" x="368.047" y="-30.6701" font-family="Times New Roman,serif" font-size="14.00">Menaulion</text>
<text text-anchor="middle" x="368.047" y="-15.6701" font-family="Times New Roman,serif" font-size="14.00">+ Large_Damage</text>
</g>
<!-- Imps_2H_Spear -->
<g id="node2" class="node"><title>Imps_2H_Spear</title>
<ellipse fill="none" stroke="black" cx="187.047" cy="-26.8701" rx="70.6878" ry="18"/>
<text text-anchor="middle" x="187.047" y="-23.1701" font-family="Times New Roman,serif" font-size="14.00">Imps_2H_Spear</text>
</g>
<!-- Dagger -->
<g id="node3" class="node"><title>Dagger</title>
<ellipse fill="none" stroke="black" cx="147.047" cy="-122.74" rx="36.2938" ry="18"/>
<text text-anchor="middle" x="147.047" y="-119.04" font-family="Times New Roman,serif" font-size="14.00">Dagger</text>
</g>
<!-- Dagger&#45;&gt;Menaulion
+ Large_Damage -->
<g id="edge1" class="edge"><title>Dagger&#45;&gt;Menaulion
+ Large_Damage</title>
<path fill="none" stroke="black" d="M169.908,-108.54C180.482,-102.224 193.097,-94.3847 204.047,-86.7401 212.868,-80.5813 213.509,-76.7183 223.047,-71.7401 236.401,-64.7701 266.837,-55.2539 296.393,-46.8657"/>
<polygon fill="black" stroke="black" points="297.675,-50.1414 306.357,-44.0696 295.783,-43.4017 297.675,-50.1414"/>
<text text-anchor="middle" x="251.047" y="-75.5401" font-family="Times New Roman,serif" font-size="14.00">Crafting 5</text>
</g>
<!-- Dagger&#45;&gt;Imps_2H_Spear -->
<g id="edge2" class="edge"><title>Dagger&#45;&gt;Imps_2H_Spear</title>
<path fill="none" stroke="black" d="M114.607,-114.394C87.2356,-106.584 54.6331,-92.4763 69.0467,-71.7401 80.1475,-55.7698 97.7892,-45.6015 116.083,-39.1312"/>
<polygon fill="black" stroke="black" points="117.212,-42.4447 125.678,-36.0736 115.087,-35.7752 117.212,-42.4447"/>
<text text-anchor="middle" x="97.0467" y="-75.5401" font-family="Times New Roman,serif" font-size="14.00">Crafting 3</text>
</g>
<!-- Trident -->
<g id="node4" class="node"><title>Trident</title>
<ellipse fill="none" stroke="black" cx="37.0467" cy="-26.8701" rx="37.0935" ry="18"/>
<text text-anchor="middle" x="37.0467" y="-23.1701" font-family="Times New Roman,serif" font-size="14.00">Trident</text>
</g>
<!-- Dagger&#45;&gt;Trident -->
<g id="edge3" class="edge"><title>Dagger&#45;&gt;Trident</title>
<path fill="none" stroke="black" d="M111.801,-117.918C74.4014,-113.051 18.9437,-103.23 6.04671,-86.7401 -2.56831,-75.7252 3.89744,-61.9628 13.1072,-50.5148"/>
<polygon fill="black" stroke="black" points="15.7409,-52.8201 19.7699,-43.0212 10.5096,-48.1688 15.7409,-52.8201"/>
<text text-anchor="middle" x="34.0467" y="-75.5401" font-family="Times New Roman,serif" font-size="14.00">Crafting 4</text>
</g>
<!-- Spear_B
+ Large_Crit -->
<g id="node6" class="node"><title>Spear_B
+ Large_Crit</title>
<ellipse fill="none" stroke="black" cx="535.047" cy="-26.8701" rx="62.8651" ry="26.7407"/>
<text text-anchor="middle" x="535.047" y="-30.6701" font-family="Times New Roman,serif" font-size="14.00">Spear_B</text>
<text text-anchor="middle" x="535.047" y="-15.6701" font-family="Times New Roman,serif" font-size="14.00">+ Large_Crit</text>
</g>
<!-- Dagger&#45;&gt;Spear_B
+ Large_Crit -->
<g id="edge4" class="edge"><title>Dagger&#45;&gt;Spear_B
+ Large_Crit</title>
<path fill="none" stroke="black" d="M183.615,-121.317C227.705,-119.584 303.209,-112.651 362.047,-86.7401 371.893,-82.4039 371.361,-76.4239 381.047,-71.7401 412.297,-56.6283 423.652,-63.213 457.047,-53.7401 463.594,-51.8828 470.41,-49.8194 477.167,-47.6912"/>
<polygon fill="black" stroke="black" points="478.532,-50.9292 486.986,-44.5433 476.394,-44.2634 478.532,-50.9292"/>
<text text-anchor="middle" x="409.047" y="-75.5401" font-family="Times New Roman,serif" font-size="14.00">Crafting 5</text>
</g>
<!-- Branch -->
<g id="node5" class="node"><title>Branch</title>
<ellipse fill="none" stroke="black" cx="384.047" cy="-122.74" rx="36.2938" ry="18"/>
<text text-anchor="middle" x="384.047" y="-119.04" font-family="Times New Roman,serif" font-size="14.00">Branch</text>
</g>
<!-- Branch&#45;&gt;Menaulion
+ Large_Damage -->
<g id="edge5" class="edge"><title>Branch&#45;&gt;Menaulion
+ Large_Damage</title>
<path fill="none" stroke="black" d="M412.203,-111.061C430.91,-102.187 450.445,-88.3531 441.047,-71.7401 437.293,-65.1043 432.089,-59.3619 426.173,-54.4222"/>
<polygon fill="black" stroke="black" points="427.852,-51.3108 417.732,-48.1752 423.688,-56.9375 427.852,-51.3108"/>
<text text-anchor="middle" x="472.047" y="-75.5401" font-family="Times New Roman,serif" font-size="14.00">Crafting 5</text>
</g>
<!-- Branch&#45;&gt;Imps_2H_Spear -->
<g id="edge6" class="edge"><title>Branch&#45;&gt;Imps_2H_Spear</title>
<path fill="none" stroke="black" d="M356.831,-110.764C341.612,-104.322 322.46,-95.7036 306.047,-86.7401 295.336,-80.8909 293.738,-77.6261 283.047,-71.7401 266.676,-62.7269 248.113,-53.9327 231.703,-46.6134"/>
<polygon fill="black" stroke="black" points="232.885,-43.3096 222.322,-42.4838 230.064,-49.7163 232.885,-43.3096"/>
<text text-anchor="middle" x="334.047" y="-75.5401" font-family="Times New Roman,serif" font-size="14.00">Crafting 3</text>
</g>
<!-- Branch&#45;&gt;Trident -->
<g id="edge7" class="edge"><title>Branch&#45;&gt;Trident</title>
<path fill="none" stroke="black" d="M347.497,-122.197C299.029,-121.535 211.728,-115.88 144.047,-86.7401 134.165,-82.4856 134.131,-77.504 125.047,-71.7401 108.659,-61.3428 89.4717,-51.5283 73.203,-43.8294"/>
<polygon fill="black" stroke="black" points="74.5481,-40.5951 64.0047,-39.5525 71.5967,-46.9425 74.5481,-40.5951"/>
<text text-anchor="middle" x="172.047" y="-75.5401" font-family="Times New Roman,serif" font-size="14.00">Crafting 4</text>
</g>
<!-- Branch&#45;&gt;Spear_B
+ Large_Crit -->
<g id="edge8" class="edge"><title>Branch&#45;&gt;Spear_B
+ Large_Crit</title>
<path fill="none" stroke="black" d="M419.772,-118.738C445.628,-114.933 480.097,-106.304 504.047,-86.7401 511.815,-80.3946 517.88,-71.5804 522.503,-62.7024"/>
<polygon fill="black" stroke="black" points="525.729,-64.0677 526.811,-53.5283 519.392,-61.0927 525.729,-64.0677"/>
<text text-anchor="middle" x="545.047" y="-75.5401" font-family="Times New Roman,serif" font-size="14.00">Crafting 5</text>
</g>
</g>
</svg>
