<?xml version="1.0" encoding="UTF-8" standalone="no"?>
<!DOCTYPE svg PUBLIC "-//W3C//DTD SVG 1.1//EN"
 "http://www.w3.org/Graphics/SVG/1.1/DTD/svg11.dtd">
<!-- Generated by graphviz version 2.38.0 (20140413.2041)
 -->
<!-- Title: G Pages: 1 -->
<svg width="637pt" height="236pt"
 viewBox="0.00 0.00 636.94 235.74" xmlns="http://www.w3.org/2000/svg" xmlns:xlink="http://www.w3.org/1999/xlink">
<g id="graph0" class="graph" transform="scale(1 1) rotate(0) translate(4 231.74)">
<title>G</title>
<polygon fill="white" stroke="none" points="-4,4 -4,-231.74 632.942,-231.74 632.942,4 -4,4"/>
<!-- Dagger -->
<g id="node1" class="node"><title>Dagger</title>
<ellipse fill="none" stroke="black" cx="36.3968" cy="-209.74" rx="36.2938" ry="18"/>
<text text-anchor="middle" x="36.3968" y="-206.04" font-family="Times New Roman,serif" font-size="14.00">Dagger</text>
</g>
<!-- Spear -->
<g id="node2" class="node"><title>Spear</title>
<ellipse fill="none" stroke="black" cx="127.397" cy="-122.74" rx="31.6951" ry="18"/>
<text text-anchor="middle" x="127.397" y="-119.04" font-family="Times New Roman,serif" font-size="14.00">Spear</text>
</g>
<!-- Dagger&#45;&gt;Spear -->
<g id="edge1" class="edge"><title>Dagger&#45;&gt;Spear</title>
<path fill="none" stroke="black" d="M44.1259,-192.001C49.5559,-181.538 57.5898,-168.287 67.3968,-158.74 75.1091,-151.233 84.7366,-144.706 94.0065,-139.388"/>
<polygon fill="black" stroke="black" points="95.9436,-142.32 103.073,-134.482 92.6123,-136.163 95.9436,-142.32"/>
<text text-anchor="middle" x="95.3968" y="-162.54" font-family="Times New Roman,serif" font-size="14.00">Crafting 2</text>
</g>
<!-- Spear
+ Small_PoisonDamage -->
<g id="node8" class="node"><title>Spear
+ Small_PoisonDamage</title>
<ellipse fill="none" stroke="black" cx="256.397" cy="-26.8701" rx="106.547" ry="26.7407"/>
<text text-anchor="middle" x="256.397" y="-30.6701" font-family="Times New Roman,serif" font-size="14.00">Spear</text>
<text text-anchor="middle" x="256.397" y="-15.6701" font-family="Times New Roman,serif" font-size="14.00">+ Small_PoisonDamage</text>
</g>
<!-- Spear&#45;&gt;Spear
+ Small_PoisonDamage -->
<g id="edge2" class="edge"><title>Spear&#45;&gt;Spear
+ Small_PoisonDamage</title>
<path fill="none" stroke="black" d="M146.154,-108.091C163.954,-95.1384 191.328,-75.2187 214.345,-58.4698"/>
<polygon fill="black" stroke="black" points="216.576,-61.1754 222.602,-52.4614 212.457,-55.5153 216.576,-61.1754"/>
<text text-anchor="middle" x="224.397" y="-75.5401" font-family="Times New Roman,serif" font-size="14.00">Crafting 1</text>
</g>
<!-- Potion_Empty -->
<g id="node3" class="node"><title>Potion_Empty</title>
<ellipse fill="none" stroke="black" cx="434.397" cy="-209.74" rx="63.8893" ry="18"/>
<text text-anchor="middle" x="434.397" y="-206.04" font-family="Times New Roman,serif" font-size="14.00">Potion_Empty</text>
</g>
<!-- Potion_Poison -->
<g id="node5" class="node"><title>Potion_Poison</title>
<ellipse fill="none" stroke="black" cx="350.397" cy="-122.74" rx="64.9885" ry="18"/>
<text text-anchor="middle" x="350.397" y="-119.04" font-family="Times New Roman,serif" font-size="14.00">Potion_Poison</text>
</g>
<!-- Potion_Empty&#45;&gt;Potion_Poison -->
<g id="edge3" class="edge"><title>Potion_Empty&#45;&gt;Potion_Poison</title>
<path fill="none" stroke="black" d="M417.801,-191.947C405.295,-179.292 387.975,-161.766 374.024,-147.649"/>
<polygon fill="black" stroke="black" points="376.191,-144.862 366.672,-140.209 371.212,-149.782 376.191,-144.862"/>
<text text-anchor="middle" x="425.397" y="-162.54" font-family="Times New Roman,serif" font-size="14.00">Crafting 0</text>
</g>
<!-- Barrel_Ooze -->
<g id="node4" class="node"><title>Barrel_Ooze</title>
<ellipse fill="none" stroke="black" cx="572.397" cy="-209.74" rx="56.59" ry="18"/>
<text text-anchor="middle" x="572.397" y="-206.04" font-family="Times New Roman,serif" font-size="14.00">Barrel_Ooze</text>
</g>
<!-- Barrel_Ooze&#45;&gt;Potion_Poison -->
<g id="edge4" class="edge"><title>Barrel_Ooze&#45;&gt;Potion_Poison</title>
<path fill="none" stroke="black" d="M541.485,-194.358C518.517,-183.904 486.295,-169.721 457.397,-158.74 439.592,-151.975 419.837,-145.288 402.197,-139.601"/>
<polygon fill="black" stroke="black" points="403.231,-136.257 392.64,-136.55 401.102,-142.925 403.231,-136.257"/>
<text text-anchor="middle" x="520.397" y="-162.54" font-family="Times New Roman,serif" font-size="14.00">Crafting 0</text>
</g>
<!-- Potion_Poison&#45;&gt;Spear
+ Small_PoisonDamage -->
<g id="edge5" class="edge"><title>Potion_Poison&#45;&gt;Spear
+ Small_PoisonDamage</title>
<path fill="none" stroke="black" d="M333.591,-104.958C321.157,-92.5406 303.832,-75.24 288.746,-60.1741"/>
<polygon fill="black" stroke="black" points="291.1,-57.5785 281.55,-52.9889 286.153,-62.5317 291.1,-57.5785"/>
<text text-anchor="middle" x="343.397" y="-75.5401" font-family="Times New Roman,serif" font-size="14.00">Crafting 1</text>
</g>
<!-- Branch -->
<g id="node6" class="node"><title>Branch</title>
<ellipse fill="none" stroke="black" cx="127.397" cy="-209.74" rx="36.2938" ry="18"/>
<text text-anchor="middle" x="127.397" y="-206.04" font-family="Times New Roman,serif" font-size="14.00">Branch</text>
</g>
<!-- Branch&#45;&gt;Spear -->
<g id="edge6" class="edge"><title>Branch&#45;&gt;Spear</title>
<path fill="none" stroke="black" d="M127.397,-191.539C127.397,-179.903 127.397,-164.288 127.397,-150.977"/>
<polygon fill="black" stroke="black" points="130.897,-150.916 127.397,-140.916 123.897,-150.916 130.897,-150.916"/>
<text text-anchor="middle" x="155.397" y="-162.54" font-family="Times New Roman,serif" font-size="14.00">Crafting 2</text>
</g>
<!-- Herb_Mushroom_C -->
<g id="node7" class="node"><title>Herb_Mushroom_C</title>
<ellipse fill="none" stroke="black" cx="267.397" cy="-209.74" rx="85.2851" ry="18"/>
<text text-anchor="middle" x="267.397" y="-206.04" font-family="Times New Roman,serif" font-size="14.00">Herb_Mushroom_C</text>
</g>
<!-- Herb_Mushroom_C&#45;&gt;Potion_Poison -->
<g id="edge7" class="edge"><title>Herb_Mushroom_C&#45;&gt;Potion_Poison</title>
<path fill="none" stroke="black" d="M283.795,-191.947C296.152,-179.292 313.265,-161.766 327.051,-147.649"/>
<polygon fill="black" stroke="black" points="329.833,-149.809 334.315,-140.209 324.825,-144.919 329.833,-149.809"/>
<text text-anchor="middle" x="344.397" y="-162.54" font-family="Times New Roman,serif" font-size="14.00">Crafting 1</text>
</g>
</g>
</svg>
