<?xml version="1.0" encoding="UTF-8" standalone="no"?>
<!DOCTYPE svg PUBLIC "-//W3C//DTD SVG 1.1//EN"
 "http://www.w3.org/Graphics/SVG/1.1/DTD/svg11.dtd">
<!-- Generated by graphviz version 2.38.0 (20140413.2041)
 -->
<!-- Title: G Pages: 1 -->
<svg width="1101pt" height="410pt"
 viewBox="0.00 0.00 1100.89 409.74" xmlns="http://www.w3.org/2000/svg" xmlns:xlink="http://www.w3.org/1999/xlink">
<g id="graph0" class="graph" transform="scale(1 1) rotate(0) translate(4 405.74)">
<title>G</title>
<polygon fill="white" stroke="none" points="-4,4 -4,-405.74 1096.89,-405.74 1096.89,4 -4,4"/>
<!-- Pouch_Dust_Pixie -->
<g id="node1" class="node"><title>Pouch_Dust_Pixie</title>
<ellipse fill="none" stroke="black" cx="391.897" cy="-209.74" rx="78.7863" ry="18"/>
<text text-anchor="middle" x="391.897" y="-206.04" font-family="Times New Roman,serif" font-size="14.00">Pouch_Dust_Pixie</text>
</g>
<!-- Needle_Thread_A_Magic -->
<g id="node7" class="node"><title>Needle_Thread_A_Magic</title>
<ellipse fill="none" stroke="black" cx="574.897" cy="-122.74" rx="104.782" ry="18"/>
<text text-anchor="middle" x="574.897" y="-119.04" font-family="Times New Roman,serif" font-size="14.00">Needle_Thread_A_Magic</text>
</g>
<!-- Pouch_Dust_Pixie&#45;&gt;Needle_Thread_A_Magic -->
<g id="edge1" class="edge"><title>Pouch_Dust_Pixie&#45;&gt;Needle_Thread_A_Magic</title>
<path fill="none" stroke="black" d="M425.037,-193.347C454.755,-179.544 498.567,-159.194 531.153,-144.058"/>
<polygon fill="black" stroke="black" points="532.855,-147.127 540.45,-139.74 529.907,-140.778 532.855,-147.127"/>
<text text-anchor="middle" x="527.897" y="-162.54" font-family="Times New Roman,serif" font-size="14.00">Crafting 1</text>
</g>
<!-- Needle_Thread -->
<g id="node2" class="node"><title>Needle_Thread</title>
<ellipse fill="none" stroke="black" cx="671.897" cy="-209.74" rx="66.0889" ry="18"/>
<text text-anchor="middle" x="671.897" y="-206.04" font-family="Times New Roman,serif" font-size="14.00">Needle_Thread</text>
</g>
<!-- Needle_Thread&#45;&gt;Needle_Thread_A_Magic -->
<g id="edge2" class="edge"><title>Needle_Thread&#45;&gt;Needle_Thread_A_Magic</title>
<path fill="none" stroke="black" d="M653.195,-192.351C638.623,-179.582 618.192,-161.679 601.854,-147.362"/>
<polygon fill="black" stroke="black" points="604.034,-144.619 594.206,-140.66 599.421,-149.883 604.034,-144.619"/>
<text text-anchor="middle" x="656.897" y="-162.54" font-family="Times New Roman,serif" font-size="14.00">Crafting 1</text>
</g>
<!-- Thread -->
<g id="node3" class="node"><title>Thread</title>
<ellipse fill="none" stroke="black" cx="671.897" cy="-296.74" rx="36.2938" ry="18"/>
<text text-anchor="middle" x="671.897" y="-293.04" font-family="Times New Roman,serif" font-size="14.00">Thread</text>
</g>
<!-- Thread&#45;&gt;Needle_Thread -->
<g id="edge3" class="edge"><title>Thread&#45;&gt;Needle_Thread</title>
<path fill="none" stroke="black" d="M671.897,-278.539C671.897,-266.903 671.897,-251.288 671.897,-237.977"/>
<polygon fill="black" stroke="black" points="675.397,-237.916 671.897,-227.916 668.397,-237.916 675.397,-237.916"/>
<text text-anchor="middle" x="699.897" y="-249.54" font-family="Times New Roman,serif" font-size="14.00">Crafting 0</text>
</g>
<!-- Robe_G_Torso
+ Small_Vitality_Mod -->
<g id="node4" class="node"><title>Robe_G_Torso
+ Small_Vitality_Mod</title>
<ellipse fill="none" stroke="black" cx="993.897" cy="-26.8701" rx="98.9899" ry="26.7407"/>
<text text-anchor="middle" x="993.897" y="-30.6701" font-family="Times New Roman,serif" font-size="14.00">Robe_G_Torso</text>
<text text-anchor="middle" x="993.897" y="-15.6701" font-family="Times New Roman,serif" font-size="14.00">+ Small_Vitality_Mod</text>
</g>
<!-- Pouch_Dust_Bone -->
<g id="node5" class="node"><title>Pouch_Dust_Bone</title>
<ellipse fill="none" stroke="black" cx="150.897" cy="-296.74" rx="79.8859" ry="18"/>
<text text-anchor="middle" x="150.897" y="-293.04" font-family="Times New Roman,serif" font-size="14.00">Pouch_Dust_Bone</text>
</g>
<!-- Pouch_Dust_Bone&#45;&gt;Pouch_Dust_Pixie -->
<g id="edge4" class="edge"><title>Pouch_Dust_Bone&#45;&gt;Pouch_Dust_Pixie</title>
<path fill="none" stroke="black" d="M192.053,-281.225C233.385,-266.647 297.137,-244.162 341.48,-228.522"/>
<polygon fill="black" stroke="black" points="342.645,-231.823 350.912,-225.196 340.317,-225.221 342.645,-231.823"/>
<text text-anchor="middle" x="321.897" y="-249.54" font-family="Times New Roman,serif" font-size="14.00">Crafting 0</text>
</g>
<!-- Needle -->
<g id="node6" class="node"><title>Needle</title>
<ellipse fill="none" stroke="black" cx="761.897" cy="-296.74" rx="35.9954" ry="18"/>
<text text-anchor="middle" x="761.897" y="-293.04" font-family="Times New Roman,serif" font-size="14.00">Needle</text>
</g>
<!-- Needle&#45;&gt;Needle_Thread -->
<g id="edge5" class="edge"><title>Needle&#45;&gt;Needle_Thread</title>
<path fill="none" stroke="black" d="M754.527,-278.992C749.316,-268.525 741.548,-255.273 731.897,-245.74 726.287,-240.199 719.628,-235.204 712.822,-230.84"/>
<polygon fill="black" stroke="black" points="714.565,-227.804 704.191,-225.653 710.96,-233.804 714.565,-227.804"/>
<text text-anchor="middle" x="771.897" y="-249.54" font-family="Times New Roman,serif" font-size="14.00">Crafting 0</text>
</g>
<!-- Needle_Thread_A_Magic&#45;&gt;Robe_G_Torso
+ Small_Vitality_Mod -->
<g id="edge8" class="edge"><title>Needle_Thread_A_Magic&#45;&gt;Robe_G_Torso
+ Small_Vitality_Mod</title>
<path fill="none" stroke="black" d="M675.348,-117.502C716.244,-112.959 763.145,-104.032 802.897,-86.7401 812.763,-82.4485 812.252,-76.507 821.897,-71.7401 826.351,-69.5392 869.962,-58.4238 912.15,-47.9334"/>
<polygon fill="black" stroke="black" points="913.101,-51.3036 921.964,-45.4979 911.415,-44.5097 913.101,-51.3036"/>
<text text-anchor="middle" x="850.897" y="-75.5401" font-family="Times New Roman,serif" font-size="14.00">Crafting 5</text>
</g>
<!-- Robe_G_Torso
+ Small_Intelligence -->
<g id="node8" class="node"><title>Robe_G_Torso
+ Small_Intelligence</title>
<ellipse fill="none" stroke="black" cx="413.897" cy="-26.8701" rx="91.4341" ry="26.7407"/>
<text text-anchor="middle" x="413.897" y="-30.6701" font-family="Times New Roman,serif" font-size="14.00">Robe_G_Torso</text>
<text text-anchor="middle" x="413.897" y="-15.6701" font-family="Times New Roman,serif" font-size="14.00">+ Small_Intelligence</text>
</g>
<!-- Needle_Thread_A_Magic&#45;&gt;Robe_G_Torso
+ Small_Intelligence -->
<g id="edge9" class="edge"><title>Needle_Thread_A_Magic&#45;&gt;Robe_G_Torso
+ Small_Intelligence</title>
<path fill="none" stroke="black" d="M497.217,-110.528C479.76,-105.352 462.193,-97.789 447.897,-86.7401 439.703,-80.4067 433.131,-71.4983 428.033,-62.5243"/>
<polygon fill="black" stroke="black" points="431.128,-60.8901 423.42,-53.6214 424.913,-64.1105 431.128,-60.8901"/>
<text text-anchor="middle" x="475.897" y="-75.5401" font-family="Times New Roman,serif" font-size="14.00">Crafting 5</text>
</g>
<!-- Robe_G_Torso
+ Small_Speed -->
<g id="node10" class="node"><title>Robe_G_Torso
+ Small_Speed</title>
<ellipse fill="none" stroke="black" cx="598.897" cy="-26.8701" rx="75.8212" ry="26.7407"/>
<text text-anchor="middle" x="598.897" y="-30.6701" font-family="Times New Roman,serif" font-size="14.00">Robe_G_Torso</text>
<text text-anchor="middle" x="598.897" y="-15.6701" font-family="Times New Roman,serif" font-size="14.00">+ Small_Speed</text>
</g>
<!-- Needle_Thread_A_Magic&#45;&gt;Robe_G_Torso
+ Small_Speed -->
<g id="edge6" class="edge"><title>Needle_Thread_A_Magic&#45;&gt;Robe_G_Torso
+ Small_Speed</title>
<path fill="none" stroke="black" d="M530.862,-106.253C514.142,-97.7435 501.025,-86.0058 509.897,-71.7401 515.551,-62.6502 523.704,-55.3883 532.81,-49.6026"/>
<polygon fill="black" stroke="black" points="534.822,-52.4846 541.781,-44.4963 531.359,-46.401 534.822,-52.4846"/>
<text text-anchor="middle" x="537.897" y="-75.5401" font-family="Times New Roman,serif" font-size="14.00">Crafting 5</text>
</g>
<!-- Robe_G_Torso
+ Small_Luck_Mod -->
<g id="node16" class="node"><title>Robe_G_Torso
+ Small_Luck_Mod</title>
<ellipse fill="none" stroke="black" cx="784.897" cy="-26.8701" rx="91.8478" ry="26.7407"/>
<text text-anchor="middle" x="784.897" y="-30.6701" font-family="Times New Roman,serif" font-size="14.00">Robe_G_Torso</text>
<text text-anchor="middle" x="784.897" y="-15.6701" font-family="Times New Roman,serif" font-size="14.00">+ Small_Luck_Mod</text>
</g>
<!-- Needle_Thread_A_Magic&#45;&gt;Robe_G_Torso
+ Small_Luck_Mod -->
<g id="edge7" class="edge"><title>Needle_Thread_A_Magic&#45;&gt;Robe_G_Torso
+ Small_Luck_Mod</title>
<path fill="none" stroke="black" d="M609.133,-105.596C620.646,-99.9108 633.465,-93.2977 644.897,-86.7401 655.484,-80.668 657.007,-77.2488 667.897,-71.7401 682.886,-64.1581 699.511,-57.1493 715.411,-51.0605"/>
<polygon fill="black" stroke="black" points="717.062,-54.1795 725.197,-47.3914 714.605,-47.6251 717.062,-54.1795"/>
<text text-anchor="middle" x="695.897" y="-75.5401" font-family="Times New Roman,serif" font-size="14.00">Crafting 5</text>
</g>
<!-- Hair -->
<g id="node9" class="node"><title>Hair</title>
<ellipse fill="none" stroke="black" cx="681.897" cy="-383.74" rx="27" ry="18"/>
<text text-anchor="middle" x="681.897" y="-380.04" font-family="Times New Roman,serif" font-size="14.00">Hair</text>
</g>
<!-- Hair&#45;&gt;Thread -->
<g id="edge10" class="edge"><title>Hair&#45;&gt;Thread</title>
<path fill="none" stroke="black" d="M679.874,-365.539C678.505,-353.903 676.668,-338.288 675.102,-324.977"/>
<polygon fill="black" stroke="black" points="678.563,-324.438 673.918,-314.916 671.61,-325.256 678.563,-324.438"/>
<text text-anchor="middle" x="704.897" y="-336.54" font-family="Times New Roman,serif" font-size="14.00">Crafting 0</text>
</g>
<!-- Moonstone -->
<g id="node11" class="node"><title>Moonstone</title>
<ellipse fill="none" stroke="black" cx="584.897" cy="-383.74" rx="51.9908" ry="18"/>
<text text-anchor="middle" x="584.897" y="-380.04" font-family="Times New Roman,serif" font-size="14.00">Moonstone</text>
</g>
<!-- Pouch_Dust_Moon -->
<g id="node19" class="node"><title>Pouch_Dust_Moon</title>
<ellipse fill="none" stroke="black" cx="514.897" cy="-296.74" rx="83.3857" ry="18"/>
<text text-anchor="middle" x="514.897" y="-293.04" font-family="Times New Roman,serif" font-size="14.00">Pouch_Dust_Moon</text>
</g>
<!-- Moonstone&#45;&gt;Pouch_Dust_Moon -->
<g id="edge11" class="edge"><title>Moonstone&#45;&gt;Pouch_Dust_Moon</title>
<path fill="none" stroke="black" d="M579.937,-365.776C576.35,-355.481 570.746,-342.493 562.897,-332.74 559.341,-328.321 555.097,-324.185 550.626,-320.415"/>
<polygon fill="black" stroke="black" points="552.472,-317.417 542.43,-314.041 548.175,-322.943 552.472,-317.417"/>
<text text-anchor="middle" x="599.897" y="-336.54" font-family="Times New Roman,serif" font-size="14.00">Crafting 0</text>
</g>
<!-- Pouch_Dust_Star -->
<g id="node12" class="node"><title>Pouch_Dust_Star</title>
<ellipse fill="none" stroke="black" cx="337.897" cy="-296.74" rx="75.2868" ry="18"/>
<text text-anchor="middle" x="337.897" y="-293.04" font-family="Times New Roman,serif" font-size="14.00">Pouch_Dust_Star</text>
</g>
<!-- Pouch_Dust_Star&#45;&gt;Pouch_Dust_Pixie -->
<g id="edge12" class="edge"><title>Pouch_Dust_Star&#45;&gt;Pouch_Dust_Pixie</title>
<path fill="none" stroke="black" d="M348.825,-278.539C356.561,-266.362 367.064,-249.829 375.762,-236.138"/>
<polygon fill="black" stroke="black" points="378.762,-237.943 381.17,-227.625 372.854,-234.189 378.762,-237.943"/>
<text text-anchor="middle" x="397.897" y="-249.54" font-family="Times New Roman,serif" font-size="14.00">Crafting 0</text>
</g>
<!-- MortarPestle -->
<g id="node13" class="node"><title>MortarPestle</title>
<ellipse fill="none" stroke="black" cx="426.897" cy="-383.74" rx="57.3905" ry="18"/>
<text text-anchor="middle" x="426.897" y="-380.04" font-family="Times New Roman,serif" font-size="14.00">MortarPestle</text>
</g>
<!-- MortarPestle&#45;&gt;Pouch_Dust_Bone -->
<g id="edge20" class="edge"><title>MortarPestle&#45;&gt;Pouch_Dust_Bone</title>
<path fill="none" stroke="black" d="M390.779,-369.73C376.111,-363.838 359.271,-356.275 344.897,-347.74 335.647,-342.247 335.664,-337.253 325.897,-332.74 316.19,-328.255 266.056,-318.428 221.923,-310.325"/>
<polygon fill="black" stroke="black" points="222.499,-306.873 212.033,-308.52 221.242,-313.759 222.499,-306.873"/>
<text text-anchor="middle" x="372.897" y="-336.54" font-family="Times New Roman,serif" font-size="14.00">Crafting 0</text>
</g>
<!-- MortarPestle&#45;&gt;Pouch_Dust_Star -->
<g id="edge21" class="edge"><title>MortarPestle&#45;&gt;Pouch_Dust_Star</title>
<path fill="none" stroke="black" d="M422.431,-365.347C419.03,-354.891 413.448,-341.883 404.897,-332.74 399.351,-326.81 392.571,-321.701 385.479,-317.364"/>
<polygon fill="black" stroke="black" points="386.833,-314.111 376.397,-312.279 383.413,-320.218 386.833,-314.111"/>
<text text-anchor="middle" x="443.897" y="-336.54" font-family="Times New Roman,serif" font-size="14.00">Crafting 0</text>
</g>
<!-- MortarPestle&#45;&gt;Pouch_Dust_Moon -->
<g id="edge22" class="edge"><title>MortarPestle&#45;&gt;Pouch_Dust_Moon</title>
<path fill="none" stroke="black" d="M456.311,-368.205C465.799,-362.638 475.915,-355.688 483.897,-347.74 490.839,-340.829 496.93,-332.078 501.834,-323.837"/>
<polygon fill="black" stroke="black" points="505.021,-325.309 506.848,-314.873 498.911,-321.892 505.021,-325.309"/>
<text text-anchor="middle" x="524.897" y="-336.54" font-family="Times New Roman,serif" font-size="14.00">Crafting 0</text>
</g>
<!-- Scraps_Cloth -->
<g id="node14" class="node"><title>Scraps_Cloth</title>
<ellipse fill="none" stroke="black" cx="824.897" cy="-122.74" rx="61.1893" ry="18"/>
<text text-anchor="middle" x="824.897" y="-119.04" font-family="Times New Roman,serif" font-size="14.00">Scraps_Cloth</text>
</g>
<!-- Scraps_Cloth&#45;&gt;Robe_G_Torso
+ Small_Vitality_Mod -->
<g id="edge16" class="edge"><title>Scraps_Cloth&#45;&gt;Robe_G_Torso
+ Small_Vitality_Mod</title>
<path fill="none" stroke="black" d="M877.188,-113.241C899.047,-108.003 923.946,-99.7086 943.897,-86.7401 954.071,-80.127 963.3,-70.8333 970.981,-61.5803"/>
<polygon fill="black" stroke="black" points="973.884,-63.5511 977.317,-53.5279 968.383,-59.2225 973.884,-63.5511"/>
<text text-anchor="middle" x="988.897" y="-75.5401" font-family="Times New Roman,serif" font-size="14.00">Crafting 5</text>
</g>
<!-- Scraps_Cloth&#45;&gt;Robe_G_Torso
+ Small_Intelligence -->
<g id="edge17" class="edge"><title>Scraps_Cloth&#45;&gt;Robe_G_Torso
+ Small_Intelligence</title>
<path fill="none" stroke="black" d="M770.269,-114.5C702.092,-105.358 593.345,-90.3773 584.897,-86.7401 575.015,-82.4856 575.467,-76.6571 565.897,-71.7401 558.472,-67.9251 523.821,-57.8401 489.477,-48.3005"/>
<polygon fill="black" stroke="black" points="490.392,-44.9224 479.821,-45.63 488.526,-51.6691 490.392,-44.9224"/>
<text text-anchor="middle" x="612.897" y="-75.5401" font-family="Times New Roman,serif" font-size="14.00">Crafting 5</text>
</g>
<!-- Scraps_Cloth&#45;&gt;Robe_G_Torso
+ Small_Speed -->
<g id="edge14" class="edge"><title>Scraps_Cloth&#45;&gt;Robe_G_Torso
+ Small_Speed</title>
<path fill="none" stroke="black" d="M790.551,-107.708C776.749,-101.715 760.836,-94.3519 746.897,-86.7401 736.186,-80.8909 734.845,-77.1331 723.897,-71.7401 705.453,-62.6545 684.648,-54.5646 665.379,-47.8831"/>
<polygon fill="black" stroke="black" points="666.358,-44.5191 655.763,-44.6191 664.108,-51.1477 666.358,-44.5191"/>
<text text-anchor="middle" x="774.897" y="-75.5401" font-family="Times New Roman,serif" font-size="14.00">Crafting 5</text>
</g>
<!-- Scraps_Cloth&#45;&gt;Robe_G_Torso
+ Small_Luck_Mod -->
<g id="edge15" class="edge"><title>Scraps_Cloth&#45;&gt;Robe_G_Torso
+ Small_Luck_Mod</title>
<path fill="none" stroke="black" d="M859.472,-107.776C876.332,-98.7882 891.175,-86.1192 881.897,-71.7401 876.411,-63.2373 868.835,-56.3649 860.313,-50.8144"/>
<polygon fill="black" stroke="black" points="861.922,-47.7011 851.519,-45.6931 858.399,-53.7501 861.922,-47.7011"/>
<text text-anchor="middle" x="911.897" y="-75.5401" font-family="Times New Roman,serif" font-size="14.00">Crafting 5</text>
</g>
<!-- Herb_Stardust -->
<g id="node15" class="node"><title>Herb_Stardust</title>
<ellipse fill="none" stroke="black" cx="278.897" cy="-383.74" rx="63.8893" ry="18"/>
<text text-anchor="middle" x="278.897" y="-380.04" font-family="Times New Roman,serif" font-size="14.00">Herb_Stardust</text>
</g>
<!-- Herb_Stardust&#45;&gt;Pouch_Dust_Star -->
<g id="edge18" class="edge"><title>Herb_Stardust&#45;&gt;Pouch_Dust_Star</title>
<path fill="none" stroke="black" d="M270.163,-365.44C266.341,-355.27 263.926,-342.529 269.897,-332.74 273.748,-326.428 279.141,-321.206 285.223,-316.898"/>
<polygon fill="black" stroke="black" points="287.186,-319.799 293.864,-311.574 283.514,-313.84 287.186,-319.799"/>
<text text-anchor="middle" x="297.897" y="-336.54" font-family="Times New Roman,serif" font-size="14.00">Crafting 0</text>
</g>
<!-- Skull_Human -->
<g id="node17" class="node"><title>Skull_Human</title>
<ellipse fill="none" stroke="black" cx="137.897" cy="-383.74" rx="59.5901" ry="18"/>
<text text-anchor="middle" x="137.897" y="-380.04" font-family="Times New Roman,serif" font-size="14.00">Skull_Human</text>
</g>
<!-- Skull_Human&#45;&gt;Pouch_Dust_Bone -->
<g id="edge19" class="edge"><title>Skull_Human&#45;&gt;Pouch_Dust_Bone</title>
<path fill="none" stroke="black" d="M140.528,-365.539C142.308,-353.903 144.696,-338.288 146.732,-324.977"/>
<polygon fill="black" stroke="black" points="150.218,-325.33 148.271,-314.916 143.299,-324.271 150.218,-325.33"/>
<text text-anchor="middle" x="173.897" y="-336.54" font-family="Times New Roman,serif" font-size="14.00">Crafting 0</text>
</g>
<!-- Bone -->
<g id="node18" class="node"><title>Bone</title>
<ellipse fill="none" stroke="black" cx="29.8973" cy="-383.74" rx="29.795" ry="18"/>
<text text-anchor="middle" x="29.8973" y="-380.04" font-family="Times New Roman,serif" font-size="14.00">Bone</text>
</g>
<!-- Bone&#45;&gt;Pouch_Dust_Bone -->
<g id="edge13" class="edge"><title>Bone&#45;&gt;Pouch_Dust_Bone</title>
<path fill="none" stroke="black" d="M44.1072,-367.595C54.4995,-357.036 69.279,-343.048 83.8973,-332.74 91.4585,-327.408 99.9365,-322.359 108.253,-317.84"/>
<polygon fill="black" stroke="black" points="109.939,-320.908 117.162,-313.158 106.682,-314.712 109.939,-320.908"/>
<text text-anchor="middle" x="111.897" y="-336.54" font-family="Times New Roman,serif" font-size="14.00">Crafting 0</text>
</g>
<!-- Pouch_Dust_Moon&#45;&gt;Pouch_Dust_Pixie -->
<g id="edge23" class="edge"><title>Pouch_Dust_Moon&#45;&gt;Pouch_Dust_Pixie</title>
<path fill="none" stroke="black" d="M491.182,-279.351C472.039,-266.122 444.921,-247.383 423.863,-232.83"/>
<polygon fill="black" stroke="black" points="425.757,-229.884 415.54,-227.079 421.777,-235.643 425.757,-229.884"/>
<text text-anchor="middle" x="488.897" y="-249.54" font-family="Times New Roman,serif" font-size="14.00">Crafting 0</text>
</g>
</g>
</svg>
