<?xml version="1.0" encoding="UTF-8" standalone="no"?>
<!DOCTYPE svg PUBLIC "-//W3C//DTD SVG 1.1//EN"
 "http://www.w3.org/Graphics/SVG/1.1/DTD/svg11.dtd">
<!-- Generated by graphviz version 2.38.0 (20140413.2041)
 -->
<!-- Title: G Pages: 1 -->
<svg width="433pt" height="218pt"
 viewBox="0.00 0.00 433.04 218.00" xmlns="http://www.w3.org/2000/svg" xmlns:xlink="http://www.w3.org/1999/xlink">
<g id="graph0" class="graph" transform="scale(1 1) rotate(0) translate(4 214)">
<title>G</title>
<polygon fill="white" stroke="none" points="-4,4 -4,-214 429.042,-214 429.042,4 -4,4"/>
<!-- Cup_A_MilkHoney -->
<g id="node1" class="node"><title>Cup_A_MilkHoney</title>
<ellipse fill="none" stroke="black" cx="187.997" cy="-18" rx="82.5854" ry="18"/>
<text text-anchor="middle" x="187.997" y="-14.3" font-family="Times New Roman,serif" font-size="14.00">Cup_A_MilkHoney</text>
</g>
<!-- Honey_Jar -->
<g id="node2" class="node"><title>Honey_Jar</title>
<ellipse fill="none" stroke="black" cx="118.997" cy="-105" rx="50.0912" ry="18"/>
<text text-anchor="middle" x="118.997" y="-101.3" font-family="Times New Roman,serif" font-size="14.00">Honey_Jar</text>
</g>
<!-- Honey_Jar&#45;&gt;Cup_A_MilkHoney -->
<g id="edge1" class="edge"><title>Honey_Jar&#45;&gt;Cup_A_MilkHoney</title>
<path fill="none" stroke="black" d="M129.708,-87.3014C136.331,-77.3444 145.22,-64.6166 153.997,-54 156.93,-50.4518 160.15,-46.8328 163.403,-43.333"/>
<polygon fill="black" stroke="black" points="166.096,-45.5815 170.478,-35.9355 161.037,-40.7432 166.096,-45.5815"/>
<text text-anchor="middle" x="181.997" y="-57.8" font-family="Times New Roman,serif" font-size="14.00">Crafting 0</text>
</g>
<!-- Beehive -->
<g id="node3" class="node"><title>Beehive</title>
<ellipse fill="none" stroke="black" cx="38.9965" cy="-192" rx="38.9931" ry="18"/>
<text text-anchor="middle" x="38.9965" y="-188.3" font-family="Times New Roman,serif" font-size="14.00">Beehive</text>
</g>
<!-- Beehive&#45;&gt;Honey_Jar -->
<g id="edge4" class="edge"><title>Beehive&#45;&gt;Honey_Jar</title>
<path fill="none" stroke="black" d="M43.6633,-173.789C47.1402,-163.401 52.731,-150.402 60.9965,-141 66.4019,-134.852 73.156,-129.459 80.1257,-124.866"/>
<polygon fill="black" stroke="black" points="82.2585,-127.665 88.984,-119.479 78.6213,-121.685 82.2585,-127.665"/>
<text text-anchor="middle" x="88.9965" y="-144.8" font-family="Times New Roman,serif" font-size="14.00">Crafting 0</text>
</g>
<!-- Jar -->
<g id="node4" class="node"><title>Jar</title>
<ellipse fill="none" stroke="black" cx="122.997" cy="-192" rx="27" ry="18"/>
<text text-anchor="middle" x="122.997" y="-188.3" font-family="Times New Roman,serif" font-size="14.00">Jar</text>
</g>
<!-- Jar&#45;&gt;Honey_Jar -->
<g id="edge3" class="edge"><title>Jar&#45;&gt;Honey_Jar</title>
<path fill="none" stroke="black" d="M122.187,-173.799C121.639,-162.163 120.905,-146.548 120.278,-133.237"/>
<polygon fill="black" stroke="black" points="123.771,-133 119.805,-123.175 116.779,-133.329 123.771,-133"/>
<text text-anchor="middle" x="149.997" y="-144.8" font-family="Times New Roman,serif" font-size="14.00">Crafting 0</text>
</g>
<!-- Bucket_A_Milk -->
<g id="node5" class="node"><title>Bucket_A_Milk</title>
<ellipse fill="none" stroke="black" cx="238.997" cy="-192" rx="68.4888" ry="18"/>
<text text-anchor="middle" x="238.997" y="-188.3" font-family="Times New Roman,serif" font-size="14.00">Bucket_A_Milk</text>
</g>
<!-- Cup_A_Milk -->
<g id="node7" class="node"><title>Cup_A_Milk</title>
<ellipse fill="none" stroke="black" cx="245.997" cy="-105" rx="58.4896" ry="18"/>
<text text-anchor="middle" x="245.997" y="-101.3" font-family="Times New Roman,serif" font-size="14.00">Cup_A_Milk</text>
</g>
<!-- Bucket_A_Milk&#45;&gt;Cup_A_Milk -->
<g id="edge2" class="edge"><title>Bucket_A_Milk&#45;&gt;Cup_A_Milk</title>
<path fill="none" stroke="black" d="M240.413,-173.799C241.371,-162.163 242.657,-146.548 243.754,-133.237"/>
<polygon fill="black" stroke="black" points="247.249,-133.429 244.582,-123.175 240.273,-132.854 247.249,-133.429"/>
<text text-anchor="middle" x="270.997" y="-144.8" font-family="Times New Roman,serif" font-size="14.00">Crafting 0</text>
</g>
<!-- CupEmpty -->
<g id="node6" class="node"><title>CupEmpty</title>
<ellipse fill="none" stroke="black" cx="374.997" cy="-192" rx="50.0912" ry="18"/>
<text text-anchor="middle" x="374.997" y="-188.3" font-family="Times New Roman,serif" font-size="14.00">CupEmpty</text>
</g>
<!-- CupEmpty&#45;&gt;Cup_A_Milk -->
<g id="edge5" class="edge"><title>CupEmpty&#45;&gt;Cup_A_Milk</title>
<path fill="none" stroke="black" d="M353.473,-175.581C339.277,-165.529 320.195,-152.239 302.997,-141 295.73,-136.251 287.848,-131.292 280.328,-126.649"/>
<polygon fill="black" stroke="black" points="282.081,-123.619 271.726,-121.377 278.423,-129.587 282.081,-123.619"/>
<text text-anchor="middle" x="353.997" y="-144.8" font-family="Times New Roman,serif" font-size="14.00">Crafting 0</text>
</g>
<!-- Cup_A_Milk&#45;&gt;Cup_A_MilkHoney -->
<g id="edge6" class="edge"><title>Cup_A_Milk&#45;&gt;Cup_A_MilkHoney</title>
<path fill="none" stroke="black" d="M234.538,-87.2067C226.251,-75.0621 214.903,-58.4315 205.487,-44.6326"/>
<polygon fill="black" stroke="black" points="208.158,-42.3368 199.63,-36.0493 202.376,-46.2823 208.158,-42.3368"/>
<text text-anchor="middle" x="248.997" y="-57.8" font-family="Times New Roman,serif" font-size="14.00">Crafting 0</text>
</g>
</g>
</svg>
