<?xml version="1.0" encoding="UTF-8" standalone="no"?>
<!DOCTYPE svg PUBLIC "-//W3C//DTD SVG 1.1//EN"
 "http://www.w3.org/Graphics/SVG/1.1/DTD/svg11.dtd">
<!-- Generated by graphviz version 2.38.0 (20140413.2041)
 -->
<!-- Title: G Pages: 1 -->
<svg width="306pt" height="149pt"
 viewBox="0.00 0.00 306.39 148.74" xmlns="http://www.w3.org/2000/svg" xmlns:xlink="http://www.w3.org/1999/xlink">
<g id="graph0" class="graph" transform="scale(1 1) rotate(0) translate(4 144.74)">
<title>G</title>
<polygon fill="white" stroke="none" points="-4,4 -4,-144.74 302.388,-144.74 302.388,4 -4,4"/>
<!-- Essence_Fire -->
<g id="node1" class="node"><title>Essence_Fire</title>
<ellipse fill="none" stroke="black" cx="59.7947" cy="-122.74" rx="59.5901" ry="18"/>
<text text-anchor="middle" x="59.7947" y="-119.04" font-family="Times New Roman,serif" font-size="14.00">Essence_Fire</text>
</g>
<!-- TwoHandedSword
+ Small_FireDamage -->
<g id="node2" class="node"><title>TwoHandedSword
+ Small_FireDamage</title>
<ellipse fill="none" stroke="black" cx="138.795" cy="-26.8701" rx="94.5053" ry="26.7407"/>
<text text-anchor="middle" x="138.795" y="-30.6701" font-family="Times New Roman,serif" font-size="14.00">TwoHandedSword</text>
<text text-anchor="middle" x="138.795" y="-15.6701" font-family="Times New Roman,serif" font-size="14.00">+ Small_FireDamage</text>
</g>
<!-- Essence_Fire&#45;&gt;TwoHandedSword
+ Small_FireDamage -->
<g id="edge1" class="edge"><title>Essence_Fire&#45;&gt;TwoHandedSword
+ Small_FireDamage</title>
<path fill="none" stroke="black" d="M73.9183,-104.958C84.1038,-92.8553 98.1932,-76.1139 110.64,-61.324"/>
<polygon fill="black" stroke="black" points="113.59,-63.2548 117.351,-53.35 108.234,-58.7474 113.59,-63.2548"/>
<text text-anchor="middle" x="129.795" y="-75.5401" font-family="Times New Roman,serif" font-size="14.00">Crafting 5</text>
</g>
<!-- TwoHandedSword -->
<g id="node3" class="node"><title>TwoHandedSword</title>
<ellipse fill="none" stroke="black" cx="217.795" cy="-122.74" rx="80.6858" ry="18"/>
<text text-anchor="middle" x="217.795" y="-119.04" font-family="Times New Roman,serif" font-size="14.00">TwoHandedSword</text>
</g>
<!-- TwoHandedSword&#45;&gt;TwoHandedSword
+ Small_FireDamage -->
<g id="edge2" class="edge"><title>TwoHandedSword&#45;&gt;TwoHandedSword
+ Small_FireDamage</title>
<path fill="none" stroke="black" d="M203.671,-104.958C193.486,-92.8553 179.396,-76.1139 166.949,-61.324"/>
<polygon fill="black" stroke="black" points="169.355,-58.7474 160.238,-53.35 164,-63.2548 169.355,-58.7474"/>
<text text-anchor="middle" x="214.795" y="-75.5401" font-family="Times New Roman,serif" font-size="14.00">Crafting 5</text>
</g>
</g>
</svg>
