<?xml version="1.0" encoding="UTF-8" standalone="no"?>
<!DOCTYPE svg PUBLIC "-//W3C//DTD SVG 1.1//EN"
 "http://www.w3.org/Graphics/SVG/1.1/DTD/svg11.dtd">
<!-- Generated by graphviz version 2.38.0 (20140413.2041)
 -->
<!-- Title: G Pages: 1 -->
<svg width="192pt" height="131pt"
 viewBox="0.00 0.00 191.54 131.00" xmlns="http://www.w3.org/2000/svg" xmlns:xlink="http://www.w3.org/1999/xlink">
<g id="graph0" class="graph" transform="scale(1 1) rotate(0) translate(4 127)">
<title>G</title>
<polygon fill="white" stroke="none" points="-4,4 -4,-127 187.543,-127 187.543,4 -4,4"/>
<!-- Apple -->
<g id="node1" class="node"><title>Apple</title>
<ellipse fill="none" stroke="black" cx="32.4971" cy="-105" rx="32.4942" ry="18"/>
<text text-anchor="middle" x="32.4971" y="-101.3" font-family="Times New Roman,serif" font-size="14.00">Apple</text>
</g>
<!-- Cup_A_Apple -->
<g id="node2" class="node"><title>Cup_A_Apple</title>
<ellipse fill="none" stroke="black" cx="82.4971" cy="-18" rx="64.189" ry="18"/>
<text text-anchor="middle" x="82.4971" y="-14.3" font-family="Times New Roman,serif" font-size="14.00">Cup_A_Apple</text>
</g>
<!-- Apple&#45;&gt;Cup_A_Apple -->
<g id="edge1" class="edge"><title>Apple&#45;&gt;Cup_A_Apple</title>
<path fill="none" stroke="black" d="M39.0546,-87.3095C43.2365,-77.3552 49.0671,-64.6276 55.4971,-54 57.481,-50.7211 59.7182,-47.3896 62.0346,-44.1508"/>
<polygon fill="black" stroke="black" points="65.028,-45.9929 68.2309,-35.8938 59.4292,-41.7913 65.028,-45.9929"/>
<text text-anchor="middle" x="83.4971" y="-57.8" font-family="Times New Roman,serif" font-size="14.00">Crafting 0</text>
</g>
<!-- CupEmpty -->
<g id="node3" class="node"><title>CupEmpty</title>
<ellipse fill="none" stroke="black" cx="133.497" cy="-105" rx="50.0912" ry="18"/>
<text text-anchor="middle" x="133.497" y="-101.3" font-family="Times New Roman,serif" font-size="14.00">CupEmpty</text>
</g>
<!-- CupEmpty&#45;&gt;Cup_A_Apple -->
<g id="edge2" class="edge"><title>CupEmpty&#45;&gt;Cup_A_Apple</title>
<path fill="none" stroke="black" d="M127.281,-86.7463C123.375,-76.8284 117.875,-64.3284 111.497,-54 109.366,-50.5485 106.921,-47.0719 104.375,-43.7194"/>
<polygon fill="black" stroke="black" points="106.947,-41.3324 97.9564,-35.7266 101.489,-45.7153 106.947,-41.3324"/>
<text text-anchor="middle" x="147.497" y="-57.8" font-family="Times New Roman,serif" font-size="14.00">Crafting 0</text>
</g>
</g>
</svg>
