<?xml version="1.0" encoding="UTF-8" standalone="no"?>
<!DOCTYPE svg PUBLIC "-//W3C//DTD SVG 1.1//EN"
 "http://www.w3.org/Graphics/SVG/1.1/DTD/svg11.dtd">
<!-- Generated by graphviz version 2.38.0 (20140413.2041)
 -->
<!-- Title: G Pages: 1 -->
<svg width="475pt" height="131pt"
 viewBox="0.00 0.00 475.39 131.00" xmlns="http://www.w3.org/2000/svg" xmlns:xlink="http://www.w3.org/1999/xlink">
<g id="graph0" class="graph" transform="scale(1 1) rotate(0) translate(4 127)">
<title>G</title>
<polygon fill="white" stroke="none" points="-4,4 -4,-127 471.39,-127 471.39,4 -4,4"/>
<!-- PushDagger -->
<g id="node1" class="node"><title>PushDagger</title>
<ellipse fill="none" stroke="black" cx="54.5952" cy="-18" rx="54.6905" ry="18"/>
<text text-anchor="middle" x="54.5952" y="-14.3" font-family="Times New Roman,serif" font-size="14.00">PushDagger</text>
</g>
<!-- FightingKnife -->
<g id="node2" class="node"><title>FightingKnife</title>
<ellipse fill="none" stroke="black" cx="407.595" cy="-18" rx="59.5901" ry="18"/>
<text text-anchor="middle" x="407.595" y="-14.3" font-family="Times New Roman,serif" font-size="14.00">FightingKnife</text>
</g>
<!-- Dagger_A_Dagger_B -->
<g id="node3" class="node"><title>Dagger_A_Dagger_B</title>
<ellipse fill="none" stroke="black" cx="232.595" cy="-18" rx="89.0842" ry="18"/>
<text text-anchor="middle" x="232.595" y="-14.3" font-family="Times New Roman,serif" font-size="14.00">Dagger_A_Dagger_B</text>
</g>
<!-- Knife -->
<g id="node4" class="node"><title>Knife</title>
<ellipse fill="none" stroke="black" cx="100.595" cy="-105" rx="30.5947" ry="18"/>
<text text-anchor="middle" x="100.595" y="-101.3" font-family="Times New Roman,serif" font-size="14.00">Knife</text>
</g>
<!-- Knife&#45;&gt;PushDagger -->
<g id="edge1" class="edge"><title>Knife&#45;&gt;PushDagger</title>
<path fill="none" stroke="black" d="M71.6992,-99.1051C54.2675,-94.5029 33.4032,-85.696 22.5952,-69 16.9929,-60.3457 20.6546,-50.8205 27.1959,-42.4264"/>
<polygon fill="black" stroke="black" points="30.0019,-44.5431 34.1415,-34.7904 24.8236,-39.833 30.0019,-44.5431"/>
<text text-anchor="middle" x="50.5952" y="-57.8" font-family="Times New Roman,serif" font-size="14.00">Crafting 3</text>
</g>
<!-- Knife&#45;&gt;FightingKnife -->
<g id="edge2" class="edge"><title>Knife&#45;&gt;FightingKnife</title>
<path fill="none" stroke="black" d="M130.223,-100.015C158.641,-95.3687 202.189,-86.0503 236.595,-69 246.235,-64.2228 245.895,-58.6536 255.595,-54 257.863,-52.9123 308.705,-41.2961 350.971,-31.7398"/>
<polygon fill="black" stroke="black" points="351.958,-35.1051 360.941,-29.4877 350.416,-28.2771 351.958,-35.1051"/>
<text text-anchor="middle" x="283.595" y="-57.8" font-family="Times New Roman,serif" font-size="14.00">Crafting 1</text>
</g>
<!-- Knife&#45;&gt;Dagger_A_Dagger_B -->
<g id="edge3" class="edge"><title>Knife&#45;&gt;Dagger_A_Dagger_B</title>
<path fill="none" stroke="black" d="M96.1696,-86.995C94.4799,-76.4264 94.4174,-63.1562 101.595,-54 108.871,-44.7186 130.519,-37.3409 154.174,-31.7987"/>
<polygon fill="black" stroke="black" points="155.028,-35.1943 164.033,-29.6122 153.513,-28.3603 155.028,-35.1943"/>
<text text-anchor="middle" x="129.595" y="-57.8" font-family="Times New Roman,serif" font-size="14.00">Crafting 2</text>
</g>
<!-- Anvil -->
<g id="node5" class="node"><title>Anvil</title>
<ellipse fill="none" stroke="black" cx="337.595" cy="-105" rx="29.795" ry="18"/>
<text text-anchor="middle" x="337.595" y="-101.3" font-family="Times New Roman,serif" font-size="14.00">Anvil</text>
</g>
<!-- Anvil&#45;&gt;PushDagger -->
<g id="edge4" class="edge"><title>Anvil&#45;&gt;PushDagger</title>
<path fill="none" stroke="black" d="M308.282,-100.656C276.006,-96.2549 223.06,-86.8851 180.595,-69 169.348,-64.263 168.57,-59.3383 157.595,-54 140.985,-45.9201 122.032,-38.9054 104.952,-33.3213"/>
<polygon fill="black" stroke="black" points="105.733,-29.8973 95.143,-30.2015 103.612,-36.568 105.733,-29.8973"/>
<text text-anchor="middle" x="208.595" y="-57.8" font-family="Times New Roman,serif" font-size="14.00">Crafting 3</text>
</g>
<!-- Anvil&#45;&gt;FightingKnife -->
<g id="edge5" class="edge"><title>Anvil&#45;&gt;FightingKnife</title>
<path fill="none" stroke="black" d="M361.744,-94.3444C373.261,-88.5905 386.304,-80.2001 394.595,-69 399.493,-62.3836 402.55,-54.0846 404.456,-46.1599"/>
<polygon fill="black" stroke="black" points="407.934,-46.6078 406.358,-36.1308 401.056,-45.3038 407.934,-46.6078"/>
<text text-anchor="middle" x="429.595" y="-57.8" font-family="Times New Roman,serif" font-size="14.00">Crafting 1</text>
</g>
<!-- Anvil&#45;&gt;Dagger_A_Dagger_B -->
<g id="edge6" class="edge"><title>Anvil&#45;&gt;Dagger_A_Dagger_B</title>
<path fill="none" stroke="black" d="M333.538,-86.8315C330.254,-76.1977 324.65,-62.9163 315.595,-54 308.813,-47.3223 300.565,-41.8415 291.931,-37.366"/>
<polygon fill="black" stroke="black" points="293.375,-34.177 282.839,-33.0578 290.378,-40.5028 293.375,-34.177"/>
<text text-anchor="middle" x="354.595" y="-57.8" font-family="Times New Roman,serif" font-size="14.00">Crafting 2</text>
</g>
</g>
</svg>
