<?xml version="1.0" encoding="UTF-8" standalone="no"?>
<!DOCTYPE svg PUBLIC "-//W3C//DTD SVG 1.1//EN"
 "http://www.w3.org/Graphics/SVG/1.1/DTD/svg11.dtd">
<!-- Generated by graphviz version 2.38.0 (20140413.2041)
 -->
<!-- Title: G Pages: 1 -->
<svg width="777pt" height="479pt"
 viewBox="0.00 0.00 776.90 479.00" xmlns="http://www.w3.org/2000/svg" xmlns:xlink="http://www.w3.org/1999/xlink">
<g id="graph0" class="graph" transform="scale(1 1) rotate(0) translate(4 475)">
<title>G</title>
<polygon fill="white" stroke="none" points="-4,4 -4,-475 772.897,-475 772.897,4 -4,4"/>
<!-- Pouch_Dust_Pixie -->
<g id="node1" class="node"><title>Pouch_Dust_Pixie</title>
<ellipse fill="none" stroke="black" cx="326.897" cy="-279" rx="78.7863" ry="18"/>
<text text-anchor="middle" x="326.897" y="-275.3" font-family="Times New Roman,serif" font-size="14.00">Pouch_Dust_Pixie</text>
</g>
<!-- Paw_A_Rabbit_A_Magic -->
<g id="node3" class="node"><title>Paw_A_Rabbit_A_Magic</title>
<ellipse fill="none" stroke="black" cx="326.897" cy="-192" rx="105.082" ry="18"/>
<text text-anchor="middle" x="326.897" y="-188.3" font-family="Times New Roman,serif" font-size="14.00">Paw_A_Rabbit_A_Magic</text>
</g>
<!-- Pouch_Dust_Pixie&#45;&gt;Paw_A_Rabbit_A_Magic -->
<g id="edge1" class="edge"><title>Pouch_Dust_Pixie&#45;&gt;Paw_A_Rabbit_A_Magic</title>
<path fill="none" stroke="black" d="M326.897,-260.799C326.897,-249.163 326.897,-233.548 326.897,-220.237"/>
<polygon fill="black" stroke="black" points="330.397,-220.175 326.897,-210.175 323.397,-220.175 330.397,-220.175"/>
<text text-anchor="middle" x="354.897" y="-231.8" font-family="Times New Roman,serif" font-size="14.00">Crafting 1</text>
</g>
<!-- Hair -->
<g id="node2" class="node"><title>Hair</title>
<ellipse fill="none" stroke="black" cx="486.897" cy="-279" rx="27" ry="18"/>
<text text-anchor="middle" x="486.897" y="-275.3" font-family="Times New Roman,serif" font-size="14.00">Hair</text>
</g>
<!-- Thread -->
<g id="node5" class="node"><title>Thread</title>
<ellipse fill="none" stroke="black" cx="486.897" cy="-192" rx="36.2938" ry="18"/>
<text text-anchor="middle" x="486.897" y="-188.3" font-family="Times New Roman,serif" font-size="14.00">Thread</text>
</g>
<!-- Hair&#45;&gt;Thread -->
<g id="edge9" class="edge"><title>Hair&#45;&gt;Thread</title>
<path fill="none" stroke="black" d="M486.897,-260.799C486.897,-249.163 486.897,-233.548 486.897,-220.237"/>
<polygon fill="black" stroke="black" points="490.397,-220.175 486.897,-210.175 483.397,-220.175 490.397,-220.175"/>
<text text-anchor="middle" x="514.897" y="-231.8" font-family="Times New Roman,serif" font-size="14.00">Crafting 0</text>
</g>
<!-- Rabbit_Paw_MagicAmulet -->
<g id="node6" class="node"><title>Rabbit_Paw_MagicAmulet</title>
<ellipse fill="none" stroke="black" cx="485.897" cy="-105" rx="108.581" ry="18"/>
<text text-anchor="middle" x="485.897" y="-101.3" font-family="Times New Roman,serif" font-size="14.00">Rabbit_Paw_MagicAmulet</text>
</g>
<!-- Paw_A_Rabbit_A_Magic&#45;&gt;Rabbit_Paw_MagicAmulet -->
<g id="edge3" class="edge"><title>Paw_A_Rabbit_A_Magic&#45;&gt;Rabbit_Paw_MagicAmulet</title>
<path fill="none" stroke="black" d="M357.554,-174.611C382.85,-161.088 418.917,-141.807 446.379,-127.126"/>
<polygon fill="black" stroke="black" points="448.166,-130.14 455.335,-122.339 444.866,-123.966 448.166,-130.14"/>
<text text-anchor="middle" x="443.897" y="-144.8" font-family="Times New Roman,serif" font-size="14.00">Crafting 1</text>
</g>
<!-- Shears -->
<g id="node4" class="node"><title>Shears</title>
<ellipse fill="none" stroke="black" cx="642.897" cy="-366" rx="35.194" ry="18"/>
<text text-anchor="middle" x="642.897" y="-362.3" font-family="Times New Roman,serif" font-size="14.00">Shears</text>
</g>
<!-- Wool -->
<g id="node17" class="node"><title>Wool</title>
<ellipse fill="none" stroke="black" cx="642.897" cy="-279" rx="31.3957" ry="18"/>
<text text-anchor="middle" x="642.897" y="-275.3" font-family="Times New Roman,serif" font-size="14.00">Wool</text>
</g>
<!-- Shears&#45;&gt;Wool -->
<g id="edge4" class="edge"><title>Shears&#45;&gt;Wool</title>
<path fill="none" stroke="black" d="M642.897,-347.799C642.897,-336.163 642.897,-320.548 642.897,-307.237"/>
<polygon fill="black" stroke="black" points="646.397,-307.175 642.897,-297.175 639.397,-307.175 646.397,-307.175"/>
<text text-anchor="middle" x="670.897" y="-318.8" font-family="Times New Roman,serif" font-size="14.00">Crafting 0</text>
</g>
<!-- Thread&#45;&gt;Rabbit_Paw_MagicAmulet -->
<g id="edge5" class="edge"><title>Thread&#45;&gt;Rabbit_Paw_MagicAmulet</title>
<path fill="none" stroke="black" d="M486.695,-173.799C486.558,-162.163 486.374,-146.548 486.218,-133.237"/>
<polygon fill="black" stroke="black" points="489.717,-133.134 486.099,-123.175 482.717,-133.216 489.717,-133.134"/>
<text text-anchor="middle" x="513.897" y="-144.8" font-family="Times New Roman,serif" font-size="14.00">Crafting 1</text>
</g>
<!-- Rabbit_Paw_MagicBelt -->
<g id="node16" class="node"><title>Rabbit_Paw_MagicBelt</title>
<ellipse fill="none" stroke="black" cx="573.897" cy="-18" rx="96.6831" ry="18"/>
<text text-anchor="middle" x="573.897" y="-14.3" font-family="Times New Roman,serif" font-size="14.00">Rabbit_Paw_MagicBelt</text>
</g>
<!-- Rabbit_Paw_MagicAmulet&#45;&gt;Rabbit_Paw_MagicBelt -->
<g id="edge17" class="edge"><title>Rabbit_Paw_MagicAmulet&#45;&gt;Rabbit_Paw_MagicBelt</title>
<path fill="none" stroke="black" d="M503.283,-87.2067C516.421,-74.517 534.629,-56.9297 549.265,-42.7925"/>
<polygon fill="black" stroke="black" points="551.786,-45.2232 556.547,-35.7584 546.923,-40.1884 551.786,-45.2232"/>
<text text-anchor="middle" x="562.897" y="-57.8" font-family="Times New Roman,serif" font-size="14.00">Crafting 1</text>
</g>
<!-- Skull_Human -->
<g id="node7" class="node"><title>Skull_Human</title>
<ellipse fill="none" stroke="black" cx="137.897" cy="-453" rx="59.5901" ry="18"/>
<text text-anchor="middle" x="137.897" y="-449.3" font-family="Times New Roman,serif" font-size="14.00">Skull_Human</text>
</g>
<!-- Pouch_Dust_Bone -->
<g id="node18" class="node"><title>Pouch_Dust_Bone</title>
<ellipse fill="none" stroke="black" cx="140.897" cy="-366" rx="79.8859" ry="18"/>
<text text-anchor="middle" x="140.897" y="-362.3" font-family="Times New Roman,serif" font-size="14.00">Pouch_Dust_Bone</text>
</g>
<!-- Skull_Human&#45;&gt;Pouch_Dust_Bone -->
<g id="edge6" class="edge"><title>Skull_Human&#45;&gt;Pouch_Dust_Bone</title>
<path fill="none" stroke="black" d="M138.504,-434.799C138.915,-423.163 139.466,-407.548 139.936,-394.237"/>
<polygon fill="black" stroke="black" points="143.436,-394.293 140.291,-384.175 136.441,-394.046 143.436,-394.293"/>
<text text-anchor="middle" x="167.897" y="-405.8" font-family="Times New Roman,serif" font-size="14.00">Crafting 0</text>
</g>
<!-- Paw_A_Rabbit -->
<g id="node8" class="node"><title>Paw_A_Rabbit</title>
<ellipse fill="none" stroke="black" cx="162.897" cy="-279" rx="66.8882" ry="18"/>
<text text-anchor="middle" x="162.897" y="-275.3" font-family="Times New Roman,serif" font-size="14.00">Paw_A_Rabbit</text>
</g>
<!-- Paw_A_Rabbit&#45;&gt;Paw_A_Rabbit_A_Magic -->
<g id="edge7" class="edge"><title>Paw_A_Rabbit&#45;&gt;Paw_A_Rabbit_A_Magic</title>
<path fill="none" stroke="black" d="M192.217,-262.804C218.488,-249.188 257.269,-229.088 286.479,-213.949"/>
<polygon fill="black" stroke="black" points="288.33,-216.931 295.598,-209.222 285.109,-210.717 288.33,-216.931"/>
<text text-anchor="middle" x="282.897" y="-231.8" font-family="Times New Roman,serif" font-size="14.00">Crafting 1</text>
</g>
<!-- Yarn_A_Wool -->
<g id="node9" class="node"><title>Yarn_A_Wool</title>
<ellipse fill="none" stroke="black" cx="642.897" cy="-192" rx="64.9885" ry="18"/>
<text text-anchor="middle" x="642.897" y="-188.3" font-family="Times New Roman,serif" font-size="14.00">Yarn_A_Wool</text>
</g>
<!-- Rope -->
<g id="node10" class="node"><title>Rope</title>
<ellipse fill="none" stroke="black" cx="642.897" cy="-105" rx="30.5947" ry="18"/>
<text text-anchor="middle" x="642.897" y="-101.3" font-family="Times New Roman,serif" font-size="14.00">Rope</text>
</g>
<!-- Yarn_A_Wool&#45;&gt;Rope -->
<g id="edge8" class="edge"><title>Yarn_A_Wool&#45;&gt;Rope</title>
<path fill="none" stroke="black" d="M642.897,-173.799C642.897,-162.163 642.897,-146.548 642.897,-133.237"/>
<polygon fill="black" stroke="black" points="646.397,-133.175 642.897,-123.175 639.397,-133.175 646.397,-133.175"/>
<text text-anchor="middle" x="670.897" y="-144.8" font-family="Times New Roman,serif" font-size="14.00">Crafting 0</text>
</g>
<!-- Rope&#45;&gt;Rabbit_Paw_MagicBelt -->
<g id="edge2" class="edge"><title>Rope&#45;&gt;Rabbit_Paw_MagicBelt</title>
<path fill="none" stroke="black" d="M630.242,-88.4097C620.16,-75.9898 605.85,-58.3614 594.174,-43.9785"/>
<polygon fill="black" stroke="black" points="596.676,-41.507 587.656,-35.949 591.241,-45.9188 596.676,-41.507"/>
<text text-anchor="middle" x="639.897" y="-57.8" font-family="Times New Roman,serif" font-size="14.00">Crafting 1</text>
</g>
<!-- Moonstone -->
<g id="node11" class="node"><title>Moonstone</title>
<ellipse fill="none" stroke="black" cx="584.897" cy="-453" rx="51.9908" ry="18"/>
<text text-anchor="middle" x="584.897" y="-449.3" font-family="Times New Roman,serif" font-size="14.00">Moonstone</text>
</g>
<!-- Pouch_Dust_Moon -->
<g id="node20" class="node"><title>Pouch_Dust_Moon</title>
<ellipse fill="none" stroke="black" cx="505.897" cy="-366" rx="83.3857" ry="18"/>
<text text-anchor="middle" x="505.897" y="-362.3" font-family="Times New Roman,serif" font-size="14.00">Pouch_Dust_Moon</text>
</g>
<!-- Moonstone&#45;&gt;Pouch_Dust_Moon -->
<g id="edge11" class="edge"><title>Moonstone&#45;&gt;Pouch_Dust_Moon</title>
<path fill="none" stroke="black" d="M580.205,-434.811C576.718,-424.432 571.127,-411.434 562.897,-402 558.435,-396.885 553.039,-392.281 547.368,-388.221"/>
<polygon fill="black" stroke="black" points="549.215,-385.247 538.939,-382.667 545.364,-391.092 549.215,-385.247"/>
<text text-anchor="middle" x="599.897" y="-405.8" font-family="Times New Roman,serif" font-size="14.00">Crafting 0</text>
</g>
<!-- Pouch_Dust_Star -->
<g id="node12" class="node"><title>Pouch_Dust_Star</title>
<ellipse fill="none" stroke="black" cx="326.897" cy="-366" rx="75.2868" ry="18"/>
<text text-anchor="middle" x="326.897" y="-362.3" font-family="Times New Roman,serif" font-size="14.00">Pouch_Dust_Star</text>
</g>
<!-- Pouch_Dust_Star&#45;&gt;Pouch_Dust_Pixie -->
<g id="edge12" class="edge"><title>Pouch_Dust_Star&#45;&gt;Pouch_Dust_Pixie</title>
<path fill="none" stroke="black" d="M326.897,-347.799C326.897,-336.163 326.897,-320.548 326.897,-307.237"/>
<polygon fill="black" stroke="black" points="330.397,-307.175 326.897,-297.175 323.397,-307.175 330.397,-307.175"/>
<text text-anchor="middle" x="354.897" y="-318.8" font-family="Times New Roman,serif" font-size="14.00">Crafting 0</text>
</g>
<!-- MortarPestle -->
<g id="node13" class="node"><title>MortarPestle</title>
<ellipse fill="none" stroke="black" cx="426.897" cy="-453" rx="57.3905" ry="18"/>
<text text-anchor="middle" x="426.897" y="-449.3" font-family="Times New Roman,serif" font-size="14.00">MortarPestle</text>
</g>
<!-- MortarPestle&#45;&gt;Pouch_Dust_Star -->
<g id="edge19" class="edge"><title>MortarPestle&#45;&gt;Pouch_Dust_Star</title>
<path fill="none" stroke="black" d="M422.77,-434.901C419.459,-424.295 413.851,-411.019 404.897,-402 398.145,-395.199 389.837,-389.602 381.187,-385.034"/>
<polygon fill="black" stroke="black" points="382.627,-381.842 372.1,-380.639 379.579,-388.144 382.627,-381.842"/>
<text text-anchor="middle" x="442.897" y="-405.8" font-family="Times New Roman,serif" font-size="14.00">Crafting 0</text>
</g>
<!-- MortarPestle&#45;&gt;Pouch_Dust_Bone -->
<g id="edge18" class="edge"><title>MortarPestle&#45;&gt;Pouch_Dust_Bone</title>
<path fill="none" stroke="black" d="M390.779,-438.99C376.111,-433.098 359.271,-425.535 344.897,-417 335.647,-411.507 335.687,-406.462 325.897,-402 315.449,-397.238 260.741,-387.16 213.505,-379.036"/>
<polygon fill="black" stroke="black" points="214.004,-375.571 203.557,-377.335 212.824,-382.47 214.004,-375.571"/>
<text text-anchor="middle" x="372.897" y="-405.8" font-family="Times New Roman,serif" font-size="14.00">Crafting 0</text>
</g>
<!-- MortarPestle&#45;&gt;Pouch_Dust_Moon -->
<g id="edge20" class="edge"><title>MortarPestle&#45;&gt;Pouch_Dust_Moon</title>
<path fill="none" stroke="black" d="M457.57,-437.747C466.926,-432.276 476.645,-425.313 483.897,-417 489.748,-410.293 494.265,-401.785 497.641,-393.697"/>
<polygon fill="black" stroke="black" points="500.972,-394.781 501.205,-384.189 494.418,-392.324 500.972,-394.781"/>
<text text-anchor="middle" x="520.897" y="-405.8" font-family="Times New Roman,serif" font-size="14.00">Crafting 0</text>
</g>
<!-- Sheep -->
<g id="node14" class="node"><title>Sheep</title>
<ellipse fill="none" stroke="black" cx="728.897" cy="-366" rx="33.2948" ry="18"/>
<text text-anchor="middle" x="728.897" y="-362.3" font-family="Times New Roman,serif" font-size="14.00">Sheep</text>
</g>
<!-- Sheep&#45;&gt;Wool -->
<g id="edge14" class="edge"><title>Sheep&#45;&gt;Wool</title>
<path fill="none" stroke="black" d="M722.972,-348.224C718.64,-337.747 711.94,-324.493 702.897,-315 695.333,-307.06 685.572,-300.344 676.129,-294.985"/>
<polygon fill="black" stroke="black" points="677.728,-291.871 667.255,-290.267 674.442,-298.052 677.728,-291.871"/>
<text text-anchor="middle" x="740.897" y="-318.8" font-family="Times New Roman,serif" font-size="14.00">Crafting 0</text>
</g>
<!-- Herb_Stardust -->
<g id="node15" class="node"><title>Herb_Stardust</title>
<ellipse fill="none" stroke="black" cx="278.897" cy="-453" rx="63.8893" ry="18"/>
<text text-anchor="middle" x="278.897" y="-449.3" font-family="Times New Roman,serif" font-size="14.00">Herb_Stardust</text>
</g>
<!-- Herb_Stardust&#45;&gt;Pouch_Dust_Star -->
<g id="edge15" class="edge"><title>Herb_Stardust&#45;&gt;Pouch_Dust_Star</title>
<path fill="none" stroke="black" d="M270.434,-434.858C266.708,-424.744 264.299,-412.007 269.897,-402 272.985,-396.48 277.34,-391.724 282.282,-387.658"/>
<polygon fill="black" stroke="black" points="284.339,-390.49 290.434,-381.824 280.265,-384.797 284.339,-390.49"/>
<text text-anchor="middle" x="297.897" y="-405.8" font-family="Times New Roman,serif" font-size="14.00">Crafting 0</text>
</g>
<!-- Wool&#45;&gt;Yarn_A_Wool -->
<g id="edge16" class="edge"><title>Wool&#45;&gt;Yarn_A_Wool</title>
<path fill="none" stroke="black" d="M642.897,-260.799C642.897,-249.163 642.897,-233.548 642.897,-220.237"/>
<polygon fill="black" stroke="black" points="646.397,-220.175 642.897,-210.175 639.397,-220.175 646.397,-220.175"/>
<text text-anchor="middle" x="670.897" y="-231.8" font-family="Times New Roman,serif" font-size="14.00">Crafting 0</text>
</g>
<!-- Pouch_Dust_Bone&#45;&gt;Pouch_Dust_Pixie -->
<g id="edge10" class="edge"><title>Pouch_Dust_Bone&#45;&gt;Pouch_Dust_Pixie</title>
<path fill="none" stroke="black" d="M174.581,-349.607C205.166,-335.63 250.442,-314.939 283.684,-299.748"/>
<polygon fill="black" stroke="black" points="285.51,-302.762 293.151,-295.422 282.601,-296.395 285.51,-302.762"/>
<text text-anchor="middle" x="273.897" y="-318.8" font-family="Times New Roman,serif" font-size="14.00">Crafting 0</text>
</g>
<!-- Bone -->
<g id="node19" class="node"><title>Bone</title>
<ellipse fill="none" stroke="black" cx="29.8973" cy="-453" rx="29.795" ry="18"/>
<text text-anchor="middle" x="29.8973" y="-449.3" font-family="Times New Roman,serif" font-size="14.00">Bone</text>
</g>
<!-- Bone&#45;&gt;Pouch_Dust_Bone -->
<g id="edge13" class="edge"><title>Bone&#45;&gt;Pouch_Dust_Bone</title>
<path fill="none" stroke="black" d="M43.3981,-436.486C52.9649,-426.02 66.4432,-412.295 79.8973,-402 86.3744,-397.044 93.6243,-392.291 100.803,-387.973"/>
<polygon fill="black" stroke="black" points="102.903,-390.801 109.794,-382.754 99.3885,-384.747 102.903,-390.801"/>
<text text-anchor="middle" x="107.897" y="-405.8" font-family="Times New Roman,serif" font-size="14.00">Crafting 0</text>
</g>
<!-- Pouch_Dust_Moon&#45;&gt;Pouch_Dust_Pixie -->
<g id="edge21" class="edge"><title>Pouch_Dust_Moon&#45;&gt;Pouch_Dust_Pixie</title>
<path fill="none" stroke="black" d="M473.066,-349.41C443.67,-335.451 400.42,-314.913 368.589,-299.798"/>
<polygon fill="black" stroke="black" points="370.055,-296.619 359.521,-295.491 367.052,-302.943 370.055,-296.619"/>
<text text-anchor="middle" x="454.897" y="-318.8" font-family="Times New Roman,serif" font-size="14.00">Crafting 0</text>
</g>
</g>
</svg>
