<?xml version="1.0" encoding="UTF-8" standalone="no"?>
<!DOCTYPE svg PUBLIC "-//W3C//DTD SVG 1.1//EN"
 "http://www.w3.org/Graphics/SVG/1.1/DTD/svg11.dtd">
<!-- Generated by graphviz version 2.38.0 (20140413.2041)
 -->
<!-- Title: G Pages: 1 -->
<svg width="248pt" height="149pt"
 viewBox="0.00 0.00 248.14 148.74" xmlns="http://www.w3.org/2000/svg" xmlns:xlink="http://www.w3.org/1999/xlink">
<g id="graph0" class="graph" transform="scale(1 1) rotate(0) translate(4 144.74)">
<title>G</title>
<polygon fill="white" stroke="none" points="-4,4 -4,-144.74 244.14,-144.74 244.14,4 -4,4"/>
<!-- Essence_Air -->
<g id="node1" class="node"><title>Essence_Air</title>
<ellipse fill="none" stroke="black" cx="56.545" cy="-122.74" rx="56.59" ry="18"/>
<text text-anchor="middle" x="56.545" y="-119.04" font-family="Times New Roman,serif" font-size="14.00">Essence_Air</text>
</g>
<!-- RobeArmor
+ Small_AirResistance -->
<g id="node3" class="node"><title>RobeArmor
+ Small_AirResistance</title>
<ellipse fill="none" stroke="black" cx="120.545" cy="-26.8701" rx="101.647" ry="26.7407"/>
<text text-anchor="middle" x="120.545" y="-30.6701" font-family="Times New Roman,serif" font-size="14.00">RobeArmor</text>
<text text-anchor="middle" x="120.545" y="-15.6701" font-family="Times New Roman,serif" font-size="14.00">+ Small_AirResistance</text>
</g>
<!-- Essence_Air&#45;&gt;RobeArmor
+ Small_AirResistance -->
<g id="edge1" class="edge"><title>Essence_Air&#45;&gt;RobeArmor
+ Small_AirResistance</title>
<path fill="none" stroke="black" d="M67.9869,-104.958C76.162,-92.9674 87.4415,-76.4235 97.4559,-61.7353"/>
<polygon fill="black" stroke="black" points="100.431,-63.584 103.173,-53.35 94.6478,-59.6408 100.431,-63.584"/>
<text text-anchor="middle" x="118.545" y="-75.5401" font-family="Times New Roman,serif" font-size="14.00">Crafting 2</text>
</g>
<!-- RobeArmor -->
<g id="node2" class="node"><title>RobeArmor</title>
<ellipse fill="none" stroke="black" cx="185.545" cy="-122.74" rx="54.6905" ry="18"/>
<text text-anchor="middle" x="185.545" y="-119.04" font-family="Times New Roman,serif" font-size="14.00">RobeArmor</text>
</g>
<!-- RobeArmor&#45;&gt;RobeArmor
+ Small_AirResistance -->
<g id="edge2" class="edge"><title>RobeArmor&#45;&gt;RobeArmor
+ Small_AirResistance</title>
<path fill="none" stroke="black" d="M173.924,-104.958C165.621,-92.9674 154.166,-76.4235 143.995,-61.7353"/>
<polygon fill="black" stroke="black" points="146.759,-59.5789 138.188,-53.35 141.004,-63.5639 146.759,-59.5789"/>
<text text-anchor="middle" x="188.545" y="-75.5401" font-family="Times New Roman,serif" font-size="14.00">Crafting 2</text>
</g>
</g>
</svg>
