<?xml version="1.0" encoding="UTF-8" standalone="no"?>
<!DOCTYPE svg PUBLIC "-//W3C//DTD SVG 1.1//EN"
 "http://www.w3.org/Graphics/SVG/1.1/DTD/svg11.dtd">
<!-- Generated by graphviz version 2.38.0 (20140413.2041)
 -->
<!-- Title: G Pages: 1 -->
<svg width="274pt" height="236pt"
 viewBox="0.00 0.00 273.99 235.74" xmlns="http://www.w3.org/2000/svg" xmlns:xlink="http://www.w3.org/1999/xlink">
<g id="graph0" class="graph" transform="scale(1 1) rotate(0) translate(4 231.74)">
<title>G</title>
<polygon fill="white" stroke="none" points="-4,4 -4,-231.74 269.991,-231.74 269.991,4 -4,4"/>
<!-- Spear
+ Small_WaterDamage -->
<g id="node1" class="node"><title>Spear
+ Small_WaterDamage</title>
<ellipse fill="none" stroke="black" cx="158.397" cy="-26.8701" rx="103.476" ry="26.7407"/>
<text text-anchor="middle" x="158.397" y="-30.6701" font-family="Times New Roman,serif" font-size="14.00">Spear</text>
<text text-anchor="middle" x="158.397" y="-15.6701" font-family="Times New Roman,serif" font-size="14.00">+ Small_WaterDamage</text>
</g>
<!-- Dagger -->
<g id="node2" class="node"><title>Dagger</title>
<ellipse fill="none" stroke="black" cx="36.3968" cy="-209.74" rx="36.2938" ry="18"/>
<text text-anchor="middle" x="36.3968" y="-206.04" font-family="Times New Roman,serif" font-size="14.00">Dagger</text>
</g>
<!-- Spear -->
<g id="node4" class="node"><title>Spear</title>
<ellipse fill="none" stroke="black" cx="81.3968" cy="-122.74" rx="31.6951" ry="18"/>
<text text-anchor="middle" x="81.3968" y="-119.04" font-family="Times New Roman,serif" font-size="14.00">Spear</text>
</g>
<!-- Dagger&#45;&gt;Spear -->
<g id="edge1" class="edge"><title>Dagger&#45;&gt;Spear</title>
<path fill="none" stroke="black" d="M38.7004,-191.773C40.5668,-181.72 43.8322,-168.987 49.3968,-158.74 51.7764,-154.358 54.8211,-150.091 58.0829,-146.129"/>
<polygon fill="black" stroke="black" points="60.8665,-148.268 64.9398,-138.487 55.6563,-143.593 60.8665,-148.268"/>
<text text-anchor="middle" x="77.3968" y="-162.54" font-family="Times New Roman,serif" font-size="14.00">Crafting 2</text>
</g>
<!-- Branch -->
<g id="node3" class="node"><title>Branch</title>
<ellipse fill="none" stroke="black" cx="127.397" cy="-209.74" rx="36.2938" ry="18"/>
<text text-anchor="middle" x="127.397" y="-206.04" font-family="Times New Roman,serif" font-size="14.00">Branch</text>
</g>
<!-- Branch&#45;&gt;Spear -->
<g id="edge3" class="edge"><title>Branch&#45;&gt;Spear</title>
<path fill="none" stroke="black" d="M120.824,-191.696C116.799,-181.848 111.299,-169.348 105.397,-158.74 103.438,-155.219 101.22,-151.605 98.9443,-148.099"/>
<polygon fill="black" stroke="black" points="101.78,-146.044 93.2805,-139.719 95.9801,-149.964 101.78,-146.044"/>
<text text-anchor="middle" x="141.397" y="-162.54" font-family="Times New Roman,serif" font-size="14.00">Crafting 2</text>
</g>
<!-- Spear&#45;&gt;Spear
+ Small_WaterDamage -->
<g id="edge2" class="edge"><title>Spear&#45;&gt;Spear
+ Small_WaterDamage</title>
<path fill="none" stroke="black" d="M92.2442,-105.59C99.142,-95.6018 108.433,-82.6493 117.397,-71.7401 120.305,-68.2011 123.422,-64.5847 126.591,-61.0216"/>
<polygon fill="black" stroke="black" points="129.42,-63.1132 133.552,-53.3573 124.238,-58.4072 129.42,-63.1132"/>
<text text-anchor="middle" x="145.397" y="-75.5401" font-family="Times New Roman,serif" font-size="14.00">Crafting 5</text>
</g>
<!-- Essence_Water -->
<g id="node5" class="node"><title>Essence_Water</title>
<ellipse fill="none" stroke="black" cx="198.397" cy="-122.74" rx="67.6881" ry="18"/>
<text text-anchor="middle" x="198.397" y="-119.04" font-family="Times New Roman,serif" font-size="14.00">Essence_Water</text>
</g>
<!-- Essence_Water&#45;&gt;Spear
+ Small_WaterDamage -->
<g id="edge4" class="edge"><title>Essence_Water&#45;&gt;Spear
+ Small_WaterDamage</title>
<path fill="none" stroke="black" d="M191.06,-104.523C186.149,-92.9977 179.507,-77.4111 173.495,-63.3024"/>
<polygon fill="black" stroke="black" points="176.603,-61.6665 169.463,-53.839 170.163,-64.4106 176.603,-61.6665"/>
<text text-anchor="middle" x="211.397" y="-75.5401" font-family="Times New Roman,serif" font-size="14.00">Crafting 5</text>
</g>
</g>
</svg>
