<?xml version="1.0" encoding="UTF-8" standalone="no"?>
<!DOCTYPE svg PUBLIC "-//W3C//DTD SVG 1.1//EN"
 "http://www.w3.org/Graphics/SVG/1.1/DTD/svg11.dtd">
<!-- Generated by graphviz version 2.38.0 (20140413.2041)
 -->
<!-- Title: G Pages: 1 -->
<svg width="922pt" height="305pt"
 viewBox="0.00 0.00 921.94 305.00" xmlns="http://www.w3.org/2000/svg" xmlns:xlink="http://www.w3.org/1999/xlink">
<g id="graph0" class="graph" transform="scale(1 1) rotate(0) translate(4 301)">
<title>G</title>
<polygon fill="white" stroke="none" points="-4,4 -4,-301 917.938,-301 917.938,4 -4,4"/>
<!-- OreBar_A_Steel -->
<g id="node1" class="node"><title>OreBar_A_Steel</title>
<ellipse fill="none" stroke="black" cx="436.895" cy="-105" rx="70.6878" ry="18"/>
<text text-anchor="middle" x="436.895" y="-101.3" font-family="Times New Roman,serif" font-size="14.00">OreBar_A_Steel</text>
</g>
<!-- SmallHandAxeTool_1H -->
<g id="node3" class="node"><title>SmallHandAxeTool_1H</title>
<ellipse fill="none" stroke="black" cx="457.895" cy="-18" rx="98.2828" ry="18"/>
<text text-anchor="middle" x="457.895" y="-14.3" font-family="Times New Roman,serif" font-size="14.00">SmallHandAxeTool_1H</text>
</g>
<!-- OreBar_A_Steel&#45;&gt;SmallHandAxeTool_1H -->
<g id="edge3" class="edge"><title>OreBar_A_Steel&#45;&gt;SmallHandAxeTool_1H</title>
<path fill="none" stroke="black" d="M388.98,-91.608C366.508,-83.3106 347.008,-70.8106 358.895,-54 364.441,-46.1565 371.899,-40.059 380.246,-35.3212"/>
<polygon fill="black" stroke="black" points="381.826,-38.4443 389.224,-30.8598 378.711,-32.1757 381.826,-38.4443"/>
<text text-anchor="middle" x="386.895" y="-57.8" font-family="Times New Roman,serif" font-size="14.00">Crafting 1</text>
</g>
<!-- HatchetTool_1H -->
<g id="node5" class="node"><title>HatchetTool_1H</title>
<ellipse fill="none" stroke="black" cx="269.895" cy="-18" rx="71.4873" ry="18"/>
<text text-anchor="middle" x="269.895" y="-14.3" font-family="Times New Roman,serif" font-size="14.00">HatchetTool_1H</text>
</g>
<!-- OreBar_A_Steel&#45;&gt;HatchetTool_1H -->
<g id="edge1" class="edge"><title>OreBar_A_Steel&#45;&gt;HatchetTool_1H</title>
<path fill="none" stroke="black" d="M369.669,-99.0075C344.417,-94.3063 316.797,-85.4675 295.895,-69 288.301,-63.0169 282.696,-54.2034 278.675,-45.6357"/>
<polygon fill="black" stroke="black" points="281.843,-44.1358 274.788,-36.2311 275.373,-46.8098 281.843,-44.1358"/>
<text text-anchor="middle" x="323.895" y="-57.8" font-family="Times New Roman,serif" font-size="14.00">Crafting 2</text>
</g>
<!-- Axe_A_1_Axe_B -->
<g id="node8" class="node"><title>Axe_A_1_Axe_B</title>
<ellipse fill="none" stroke="black" cx="837.895" cy="-18" rx="76.0865" ry="18"/>
<text text-anchor="middle" x="837.895" y="-14.3" font-family="Times New Roman,serif" font-size="14.00">Axe_A_1_Axe_B</text>
</g>
<!-- OreBar_A_Steel&#45;&gt;Axe_A_1_Axe_B -->
<g id="edge2" class="edge"><title>OreBar_A_Steel&#45;&gt;Axe_A_1_Axe_B</title>
<path fill="none" stroke="black" d="M506.71,-101.523C550.053,-97.8616 606.037,-89.1956 651.895,-69 661.741,-64.6638 661.149,-58.5577 670.895,-54 673.325,-52.8638 726.485,-41.8051 772.181,-32.418"/>
<polygon fill="black" stroke="black" points="773.004,-35.8221 782.096,-30.3832 771.596,-28.965 773.004,-35.8221"/>
<text text-anchor="middle" x="698.895" y="-57.8" font-family="Times New Roman,serif" font-size="14.00">Crafting 4</text>
</g>
<!-- WoodMaulTool_1H -->
<g id="node11" class="node"><title>WoodMaulTool_1H</title>
<ellipse fill="none" stroke="black" cx="658.895" cy="-18" rx="85.2851" ry="18"/>
<text text-anchor="middle" x="658.895" y="-14.3" font-family="Times New Roman,serif" font-size="14.00">WoodMaulTool_1H</text>
</g>
<!-- OreBar_A_Steel&#45;&gt;WoodMaulTool_1H -->
<g id="edge4" class="edge"><title>OreBar_A_Steel&#45;&gt;WoodMaulTool_1H</title>
<path fill="none" stroke="black" d="M463.99,-88.2548C473.593,-82.4422 484.373,-75.6475 493.895,-69 502.717,-62.8412 503.216,-58.697 512.895,-54 526.537,-47.3801 557.936,-39.5481 588.133,-32.973"/>
<polygon fill="black" stroke="black" points="589.256,-36.3121 598.301,-30.795 587.79,-29.4674 589.256,-36.3121"/>
<text text-anchor="middle" x="540.895" y="-57.8" font-family="Times New Roman,serif" font-size="14.00">Crafting 2</text>
</g>
<!-- Sword -->
<g id="node2" class="node"><title>Sword</title>
<ellipse fill="none" stroke="black" cx="304.895" cy="-279" rx="35.194" ry="18"/>
<text text-anchor="middle" x="304.895" y="-275.3" font-family="Times New Roman,serif" font-size="14.00">Sword</text>
</g>
<!-- OreBar_A_Iron -->
<g id="node7" class="node"><title>OreBar_A_Iron</title>
<ellipse fill="none" stroke="black" cx="286.895" cy="-192" rx="68.4888" ry="18"/>
<text text-anchor="middle" x="286.895" y="-188.3" font-family="Times New Roman,serif" font-size="14.00">OreBar_A_Iron</text>
</g>
<!-- Sword&#45;&gt;OreBar_A_Iron -->
<g id="edge13" class="edge"><title>Sword&#45;&gt;OreBar_A_Iron</title>
<path fill="none" stroke="black" d="M295.051,-261.463C292.182,-255.803 289.412,-249.305 287.895,-243 286.176,-235.854 285.484,-227.966 285.329,-220.609"/>
<polygon fill="black" stroke="black" points="288.831,-220.391 285.427,-210.357 281.831,-220.323 288.831,-220.391"/>
<text text-anchor="middle" x="315.895" y="-231.8" font-family="Times New Roman,serif" font-size="14.00">Crafting 1</text>
</g>
<!-- Anvil -->
<g id="node4" class="node"><title>Anvil</title>
<ellipse fill="none" stroke="black" cx="673.895" cy="-105" rx="29.795" ry="18"/>
<text text-anchor="middle" x="673.895" y="-101.3" font-family="Times New Roman,serif" font-size="14.00">Anvil</text>
</g>
<!-- Anvil&#45;&gt;SmallHandAxeTool_1H -->
<g id="edge9" class="edge"><title>Anvil&#45;&gt;SmallHandAxeTool_1H</title>
<path fill="none" stroke="black" d="M649.528,-94.2244C633.903,-87.6752 613.351,-78.5325 595.895,-69 585.184,-63.1507 583.954,-59.1614 572.895,-54 557.626,-46.8735 540.548,-40.7607 524.323,-35.7311"/>
<polygon fill="black" stroke="black" points="524.938,-32.2615 514.354,-32.74 522.926,-38.9662 524.938,-32.2615"/>
<text text-anchor="middle" x="623.895" y="-57.8" font-family="Times New Roman,serif" font-size="14.00">Crafting 1</text>
</g>
<!-- Anvil&#45;&gt;HatchetTool_1H -->
<g id="edge8" class="edge"><title>Anvil&#45;&gt;HatchetTool_1H</title>
<path fill="none" stroke="black" d="M644.563,-100.587C584.798,-93.5062 452.943,-77.2007 433.895,-69 424.013,-64.7455 424.571,-58.7046 414.895,-54 407.098,-50.209 367.783,-40.8074 332.057,-32.7021"/>
<polygon fill="black" stroke="black" points="332.63,-29.2434 322.105,-30.4561 331.089,-36.0717 332.63,-29.2434"/>
<text text-anchor="middle" x="461.895" y="-57.8" font-family="Times New Roman,serif" font-size="14.00">Crafting 2</text>
</g>
<!-- Anvil&#45;&gt;Axe_A_1_Axe_B -->
<g id="edge10" class="edge"><title>Anvil&#45;&gt;Axe_A_1_Axe_B</title>
<path fill="none" stroke="black" d="M702.934,-100.215C728.487,-95.8402 765.878,-86.8186 793.895,-69 804.054,-62.5386 813.229,-53.0617 820.538,-44.0911"/>
<polygon fill="black" stroke="black" points="823.368,-46.153 826.702,-36.0963 817.824,-41.879 823.368,-46.153"/>
<text text-anchor="middle" x="838.895" y="-57.8" font-family="Times New Roman,serif" font-size="14.00">Crafting 4</text>
</g>
<!-- Anvil&#45;&gt;WoodMaulTool_1H -->
<g id="edge7" class="edge"><title>Anvil&#45;&gt;WoodMaulTool_1H</title>
<path fill="none" stroke="black" d="M698.952,-94.6967C718.837,-85.7878 741.649,-71.1845 730.895,-54 726.992,-47.763 721.624,-42.6088 715.565,-38.3563"/>
<polygon fill="black" stroke="black" points="717.305,-35.3182 706.945,-33.0993 713.66,-41.2944 717.305,-35.3182"/>
<text text-anchor="middle" x="761.895" y="-57.8" font-family="Times New Roman,serif" font-size="14.00">Crafting 2</text>
</g>
<!-- Bone_A_Iron -->
<g id="node6" class="node"><title>Bone_A_Iron</title>
<ellipse fill="none" stroke="black" cx="190.895" cy="-279" rx="61.1893" ry="18"/>
<text text-anchor="middle" x="190.895" y="-275.3" font-family="Times New Roman,serif" font-size="14.00">Bone_A_Iron</text>
</g>
<!-- Bone_A_Iron&#45;&gt;OreBar_A_Iron -->
<g id="edge11" class="edge"><title>Bone_A_Iron&#45;&gt;OreBar_A_Iron</title>
<path fill="none" stroke="black" d="M200.308,-260.813C206.588,-250.435 215.571,-237.436 225.895,-228 231.852,-222.556 238.799,-217.59 245.827,-213.218"/>
<polygon fill="black" stroke="black" points="247.853,-216.087 254.706,-208.007 244.31,-210.05 247.853,-216.087"/>
<text text-anchor="middle" x="253.895" y="-231.8" font-family="Times New Roman,serif" font-size="14.00">Crafting 0</text>
</g>
<!-- OreBar_A_Iron&#45;&gt;OreBar_A_Steel -->
<g id="edge12" class="edge"><title>OreBar_A_Iron&#45;&gt;OreBar_A_Steel</title>
<path fill="none" stroke="black" d="M311.042,-175.071C326.731,-164.932 347.753,-151.736 366.895,-141 376.145,-135.812 386.262,-130.534 395.857,-125.703"/>
<polygon fill="black" stroke="black" points="397.459,-128.816 404.851,-121.226 394.34,-122.549 397.459,-128.816"/>
<text text-anchor="middle" x="394.895" y="-144.8" font-family="Times New Roman,serif" font-size="14.00">Crafting 1</text>
</g>
<!-- Oven -->
<g id="node9" class="node"><title>Oven</title>
<ellipse fill="none" stroke="black" cx="412.895" cy="-279" rx="30.5947" ry="18"/>
<text text-anchor="middle" x="412.895" y="-275.3" font-family="Times New Roman,serif" font-size="14.00">Oven</text>
</g>
<!-- Oven&#45;&gt;OreBar_A_Steel -->
<g id="edge5" class="edge"><title>Oven&#45;&gt;OreBar_A_Steel</title>
<path fill="none" stroke="black" d="M418.388,-261.056C420.056,-255.369 421.749,-248.958 422.895,-243 430.153,-205.277 433.815,-160.94 435.536,-133.151"/>
<polygon fill="black" stroke="black" points="439.039,-133.198 436.123,-123.013 432.051,-132.794 439.039,-133.198"/>
<text text-anchor="middle" x="460.895" y="-188.3" font-family="Times New Roman,serif" font-size="14.00">Crafting 1</text>
</g>
<!-- Oven&#45;&gt;OreBar_A_Iron -->
<g id="edge6" class="edge"><title>Oven&#45;&gt;OreBar_A_Iron</title>
<path fill="none" stroke="black" d="M394.714,-264.242C380.955,-253.974 361.487,-239.75 343.895,-228 336.969,-223.374 329.451,-218.593 322.215,-214.107"/>
<polygon fill="black" stroke="black" points="323.62,-210.863 313.266,-208.616 319.959,-216.83 323.62,-210.863"/>
<text text-anchor="middle" x="393.895" y="-231.8" font-family="Times New Roman,serif" font-size="14.00">Crafting 1</text>
</g>
<!-- Axe -->
<g id="node10" class="node"><title>Axe</title>
<ellipse fill="none" stroke="black" cx="537.895" cy="-192" rx="27" ry="18"/>
<text text-anchor="middle" x="537.895" y="-188.3" font-family="Times New Roman,serif" font-size="14.00">Axe</text>
</g>
<!-- Axe&#45;&gt;OreBar_A_Steel -->
<g id="edge14" class="edge"><title>Axe&#45;&gt;OreBar_A_Steel</title>
<path fill="none" stroke="black" d="M521.668,-177.343C506.29,-164.402 482.885,-144.705 464.561,-129.283"/>
<polygon fill="black" stroke="black" points="466.451,-126.3 456.547,-122.539 461.944,-131.655 466.451,-126.3"/>
<text text-anchor="middle" x="521.895" y="-144.8" font-family="Times New Roman,serif" font-size="14.00">Crafting 1</text>
</g>
<!-- Ore_A_Iron -->
<g id="node12" class="node"><title>Ore_A_Iron</title>
<ellipse fill="none" stroke="black" cx="55.895" cy="-279" rx="55.7903" ry="18"/>
<text text-anchor="middle" x="55.895" y="-275.3" font-family="Times New Roman,serif" font-size="14.00">Ore_A_Iron</text>
</g>
<!-- Ore_A_Iron&#45;&gt;OreBar_A_Iron -->
<g id="edge15" class="edge"><title>Ore_A_Iron&#45;&gt;OreBar_A_Iron</title>
<path fill="none" stroke="black" d="M81.5232,-262.809C100.674,-251.953 127.771,-237.621 152.895,-228 175.878,-219.199 201.903,-211.841 224.864,-206.178"/>
<polygon fill="black" stroke="black" points="225.934,-209.521 234.837,-203.777 224.295,-202.715 225.934,-209.521"/>
<text text-anchor="middle" x="180.895" y="-231.8" font-family="Times New Roman,serif" font-size="14.00">Crafting 0</text>
</g>
</g>
</svg>
