<?xml version="1.0" encoding="UTF-8" standalone="no"?>
<!DOCTYPE svg PUBLIC "-//W3C//DTD SVG 1.1//EN"
 "http://www.w3.org/Graphics/SVG/1.1/DTD/svg11.dtd">
<!-- Generated by graphviz version 2.38.0 (20140413.2041)
 -->
<!-- Title: G Pages: 1 -->
<svg width="373pt" height="236pt"
 viewBox="0.00 0.00 372.99 235.74" xmlns="http://www.w3.org/2000/svg" xmlns:xlink="http://www.w3.org/1999/xlink">
<g id="graph0" class="graph" transform="scale(1 1) rotate(0) translate(4 231.74)">
<title>G</title>
<polygon fill="white" stroke="none" points="-4,4 -4,-231.74 368.991,-231.74 368.991,4 -4,4"/>
<!-- Cup_A_Oil -->
<g id="node1" class="node"><title>Cup_A_Oil</title>
<ellipse fill="none" stroke="black" cx="256.945" cy="-122.74" rx="53.0913" ry="18"/>
<text text-anchor="middle" x="256.945" y="-119.04" font-family="Times New Roman,serif" font-size="14.00">Cup_A_Oil</text>
</g>
<!-- Armor
+ Small_Movement_Mod -->
<g id="node6" class="node"><title>Armor
+ Small_Movement_Mod</title>
<ellipse fill="none" stroke="black" cx="155.945" cy="-26.8701" rx="113.689" ry="26.7407"/>
<text text-anchor="middle" x="155.945" y="-30.6701" font-family="Times New Roman,serif" font-size="14.00">Armor</text>
<text text-anchor="middle" x="155.945" y="-15.6701" font-family="Times New Roman,serif" font-size="14.00">+ Small_Movement_Mod</text>
</g>
<!-- Cup_A_Oil&#45;&gt;Armor
+ Small_Movement_Mod -->
<g id="edge1" class="edge"><title>Cup_A_Oil&#45;&gt;Armor
+ Small_Movement_Mod</title>
<path fill="none" stroke="black" d="M244.983,-105.079C237.274,-94.8987 226.71,-81.9234 215.945,-71.7401 211.27,-67.3172 206.139,-62.9525 200.907,-58.7913"/>
<polygon fill="black" stroke="black" points="202.714,-55.7652 192.654,-52.4404 198.445,-61.3128 202.714,-55.7652"/>
<text text-anchor="middle" x="257.945" y="-75.5401" font-family="Times New Roman,serif" font-size="14.00">Crafting 0</text>
</g>
<!-- ArmorScale -->
<g id="node2" class="node"><title>ArmorScale</title>
<ellipse fill="none" stroke="black" cx="53.9452" cy="-122.74" rx="53.8905" ry="18"/>
<text text-anchor="middle" x="53.9452" y="-119.04" font-family="Times New Roman,serif" font-size="14.00">ArmorScale</text>
</g>
<!-- ArmorScale&#45;&gt;Armor
+ Small_Movement_Mod -->
<g id="edge3" class="edge"><title>ArmorScale&#45;&gt;Armor
+ Small_Movement_Mod</title>
<path fill="none" stroke="black" d="M66.2669,-105.105C74.1888,-94.9336 85.0137,-81.9595 95.9452,-71.7401 100.647,-67.345 105.794,-62.9972 111.034,-58.8453"/>
<polygon fill="black" stroke="black" points="113.494,-61.3689 119.295,-52.5032 109.232,-55.8164 113.494,-61.3689"/>
<text text-anchor="middle" x="123.945" y="-75.5401" font-family="Times New Roman,serif" font-size="14.00">Crafting 0</text>
</g>
<!-- Anvil -->
<g id="node3" class="node"><title>Anvil</title>
<ellipse fill="none" stroke="black" cx="155.945" cy="-122.74" rx="29.795" ry="18"/>
<text text-anchor="middle" x="155.945" y="-119.04" font-family="Times New Roman,serif" font-size="14.00">Anvil</text>
</g>
<!-- Anvil&#45;&gt;Armor
+ Small_Movement_Mod -->
<g id="edge2" class="edge"><title>Anvil&#45;&gt;Armor
+ Small_Movement_Mod</title>
<path fill="none" stroke="black" d="M155.945,-104.523C155.945,-93.2193 155.945,-78.0091 155.945,-64.1179"/>
<polygon fill="black" stroke="black" points="159.445,-63.8389 155.945,-53.839 152.445,-63.839 159.445,-63.8389"/>
<text text-anchor="middle" x="183.945" y="-75.5401" font-family="Times New Roman,serif" font-size="14.00">Crafting 2</text>
</g>
<!-- Barrel_Oil -->
<g id="node4" class="node"><title>Barrel_Oil</title>
<ellipse fill="none" stroke="black" cx="198.945" cy="-209.74" rx="48.1917" ry="18"/>
<text text-anchor="middle" x="198.945" y="-206.04" font-family="Times New Roman,serif" font-size="14.00">Barrel_Oil</text>
</g>
<!-- Barrel_Oil&#45;&gt;Cup_A_Oil -->
<g id="edge4" class="edge"><title>Barrel_Oil&#45;&gt;Cup_A_Oil</title>
<path fill="none" stroke="black" d="M210.404,-191.947C218.745,-179.723 230.187,-162.954 239.639,-149.103"/>
<polygon fill="black" stroke="black" points="242.765,-150.731 245.51,-140.498 236.983,-146.786 242.765,-150.731"/>
<text text-anchor="middle" x="261.945" y="-162.54" font-family="Times New Roman,serif" font-size="14.00">Crafting 0</text>
</g>
<!-- CupEmpty -->
<g id="node5" class="node"><title>CupEmpty</title>
<ellipse fill="none" stroke="black" cx="314.945" cy="-209.74" rx="50.0912" ry="18"/>
<text text-anchor="middle" x="314.945" y="-206.04" font-family="Times New Roman,serif" font-size="14.00">CupEmpty</text>
</g>
<!-- CupEmpty&#45;&gt;Cup_A_Oil -->
<g id="edge5" class="edge"><title>CupEmpty&#45;&gt;Cup_A_Oil</title>
<path fill="none" stroke="black" d="M309.314,-191.685C305.541,-181.602 299.978,-168.867 292.945,-158.74 290.111,-154.659 286.754,-150.66 283.248,-146.909"/>
<polygon fill="black" stroke="black" points="285.503,-144.214 275.961,-139.611 280.55,-149.161 285.503,-144.214"/>
<text text-anchor="middle" x="328.945" y="-162.54" font-family="Times New Roman,serif" font-size="14.00">Crafting 0</text>
</g>
</g>
</svg>
