<?xml version="1.0" encoding="UTF-8" standalone="no"?>
<!DOCTYPE svg PUBLIC "-//W3C//DTD SVG 1.1//EN"
 "http://www.w3.org/Graphics/SVG/1.1/DTD/svg11.dtd">
<!-- Generated by graphviz version 2.38.0 (20140413.2041)
 -->
<!-- Title: G Pages: 1 -->
<svg width="222pt" height="131pt"
 viewBox="0.00 0.00 222.14 131.00" xmlns="http://www.w3.org/2000/svg" xmlns:xlink="http://www.w3.org/1999/xlink">
<g id="graph0" class="graph" transform="scale(1 1) rotate(0) translate(4 127)">
<title>G</title>
<polygon fill="white" stroke="none" points="-4,4 -4,-127 218.141,-127 218.141,4 -4,4"/>
<!-- Drink_Cup_A_Oil -->
<g id="node1" class="node"><title>Drink_Cup_A_Oil</title>
<ellipse fill="none" stroke="black" cx="106.096" cy="-18" rx="77.9862" ry="18"/>
<text text-anchor="middle" x="106.096" y="-14.3" font-family="Times New Roman,serif" font-size="14.00">Drink_Cup_A_Oil</text>
</g>
<!-- Barrel_Oil -->
<g id="node2" class="node"><title>Barrel_Oil</title>
<ellipse fill="none" stroke="black" cx="48.0957" cy="-105" rx="48.1917" ry="18"/>
<text text-anchor="middle" x="48.0957" y="-101.3" font-family="Times New Roman,serif" font-size="14.00">Barrel_Oil</text>
</g>
<!-- Barrel_Oil&#45;&gt;Drink_Cup_A_Oil -->
<g id="edge2" class="edge"><title>Barrel_Oil&#45;&gt;Drink_Cup_A_Oil</title>
<path fill="none" stroke="black" d="M54.1677,-86.994C58.1774,-76.9279 63.9976,-64.1935 71.0957,-54 73.7076,-50.2492 76.7449,-46.5462 79.9182,-43.033"/>
<polygon fill="black" stroke="black" points="82.561,-45.3342 86.9699,-35.7003 77.5155,-40.4821 82.561,-45.3342"/>
<text text-anchor="middle" x="99.0957" y="-57.8" font-family="Times New Roman,serif" font-size="14.00">Crafting 0</text>
</g>
<!-- CupEmpty -->
<g id="node3" class="node"><title>CupEmpty</title>
<ellipse fill="none" stroke="black" cx="164.096" cy="-105" rx="50.0912" ry="18"/>
<text text-anchor="middle" x="164.096" y="-101.3" font-family="Times New Roman,serif" font-size="14.00">CupEmpty</text>
</g>
<!-- CupEmpty&#45;&gt;Drink_Cup_A_Oil -->
<g id="edge1" class="edge"><title>CupEmpty&#45;&gt;Drink_Cup_A_Oil</title>
<path fill="none" stroke="black" d="M152.637,-87.2067C144.35,-75.0621 133.002,-58.4315 123.586,-44.6326"/>
<polygon fill="black" stroke="black" points="126.257,-42.3368 117.729,-36.0493 120.475,-46.2823 126.257,-42.3368"/>
<text text-anchor="middle" x="166.096" y="-57.8" font-family="Times New Roman,serif" font-size="14.00">Crafting 0</text>
</g>
</g>
</svg>
