<?xml version="1.0" encoding="UTF-8" standalone="no"?>
<!DOCTYPE svg PUBLIC "-//W3C//DTD SVG 1.1//EN"
 "http://www.w3.org/Graphics/SVG/1.1/DTD/svg11.dtd">
<!-- Generated by graphviz version 2.38.0 (20140413.2041)
 -->
<!-- Title: G Pages: 1 -->
<svg width="296pt" height="149pt"
 viewBox="0.00 0.00 296.19 148.74" xmlns="http://www.w3.org/2000/svg" xmlns:xlink="http://www.w3.org/1999/xlink">
<g id="graph0" class="graph" transform="scale(1 1) rotate(0) translate(4 144.74)">
<title>G</title>
<polygon fill="white" stroke="none" points="-4,4 -4,-144.74 292.188,-144.74 292.188,4 -4,4"/>
<!-- TwoHandedAxe
+ Small_EarthDamage -->
<g id="node1" class="node"><title>TwoHandedAxe
+ Small_EarthDamage</title>
<ellipse fill="none" stroke="black" cx="140.344" cy="-26.8701" rx="99.9045" ry="26.7407"/>
<text text-anchor="middle" x="140.344" y="-30.6701" font-family="Times New Roman,serif" font-size="14.00">TwoHandedAxe</text>
<text text-anchor="middle" x="140.344" y="-15.6701" font-family="Times New Roman,serif" font-size="14.00">+ Small_EarthDamage</text>
</g>
<!-- Essence_Earth -->
<g id="node2" class="node"><title>Essence_Earth</title>
<ellipse fill="none" stroke="black" cx="64.3443" cy="-122.74" rx="64.189" ry="18"/>
<text text-anchor="middle" x="64.3443" y="-119.04" font-family="Times New Roman,serif" font-size="14.00">Essence_Earth</text>
</g>
<!-- Essence_Earth&#45;&gt;TwoHandedAxe
+ Small_EarthDamage -->
<g id="edge2" class="edge"><title>Essence_Earth&#45;&gt;TwoHandedAxe
+ Small_EarthDamage</title>
<path fill="none" stroke="black" d="M77.9316,-104.958C87.7303,-92.8553 101.285,-76.1139 113.259,-61.324"/>
<polygon fill="black" stroke="black" points="116.143,-63.3245 119.715,-53.35 110.702,-58.9197 116.143,-63.3245"/>
<text text-anchor="middle" x="133.344" y="-75.5401" font-family="Times New Roman,serif" font-size="14.00">Crafting 5</text>
</g>
<!-- TwoHandedAxe -->
<g id="node3" class="node"><title>TwoHandedAxe</title>
<ellipse fill="none" stroke="black" cx="217.344" cy="-122.74" rx="70.6878" ry="18"/>
<text text-anchor="middle" x="217.344" y="-119.04" font-family="Times New Roman,serif" font-size="14.00">TwoHandedAxe</text>
</g>
<!-- TwoHandedAxe&#45;&gt;TwoHandedAxe
+ Small_EarthDamage -->
<g id="edge1" class="edge"><title>TwoHandedAxe&#45;&gt;TwoHandedAxe
+ Small_EarthDamage</title>
<path fill="none" stroke="black" d="M203.578,-104.958C193.651,-92.8553 179.918,-76.1139 167.786,-61.324"/>
<polygon fill="black" stroke="black" points="170.293,-58.8619 161.245,-53.35 164.881,-63.3014 170.293,-58.8619"/>
<text text-anchor="middle" x="215.344" y="-75.5401" font-family="Times New Roman,serif" font-size="14.00">Crafting 5</text>
</g>
</g>
</svg>
