<?xml version="1.0" encoding="UTF-8" standalone="no"?>
<!DOCTYPE svg PUBLIC "-//W3C//DTD SVG 1.1//EN"
 "http://www.w3.org/Graphics/SVG/1.1/DTD/svg11.dtd">
<!-- Generated by graphviz version 2.38.0 (20140413.2041)
 -->
<!-- Title: G Pages: 1 -->
<svg width="284pt" height="149pt"
 viewBox="0.00 0.00 284.34 148.74" xmlns="http://www.w3.org/2000/svg" xmlns:xlink="http://www.w3.org/1999/xlink">
<g id="graph0" class="graph" transform="scale(1 1) rotate(0) translate(4 144.74)">
<title>G</title>
<polygon fill="white" stroke="none" points="-4,4 -4,-144.74 280.339,-144.74 280.339,4 -4,4"/>
<!-- ArmorLeather
+ Small_WaterResistance -->
<g id="node1" class="node"><title>ArmorLeather
+ Small_WaterResistance</title>
<ellipse fill="none" stroke="black" cx="134.745" cy="-26.8701" rx="113.689" ry="26.7407"/>
<text text-anchor="middle" x="134.745" y="-30.6701" font-family="Times New Roman,serif" font-size="14.00">ArmorLeather</text>
<text text-anchor="middle" x="134.745" y="-15.6701" font-family="Times New Roman,serif" font-size="14.00">+ Small_WaterResistance</text>
</g>
<!-- ArmorLeather -->
<g id="node2" class="node"><title>ArmorLeather</title>
<ellipse fill="none" stroke="black" cx="61.7445" cy="-122.74" rx="61.99" ry="18"/>
<text text-anchor="middle" x="61.7445" y="-119.04" font-family="Times New Roman,serif" font-size="14.00">ArmorLeather</text>
</g>
<!-- ArmorLeather&#45;&gt;ArmorLeather
+ Small_WaterResistance -->
<g id="edge2" class="edge"><title>ArmorLeather&#45;&gt;ArmorLeather
+ Small_WaterResistance</title>
<path fill="none" stroke="black" d="M74.7955,-104.958C84.2074,-92.8553 97.2267,-76.1139 108.728,-61.324"/>
<polygon fill="black" stroke="black" points="111.553,-63.3926 114.93,-53.35 106.028,-59.0953 111.553,-63.3926"/>
<text text-anchor="middle" x="128.745" y="-75.5401" font-family="Times New Roman,serif" font-size="14.00">Crafting 3</text>
</g>
<!-- Essence_Water -->
<g id="node3" class="node"><title>Essence_Water</title>
<ellipse fill="none" stroke="black" cx="208.745" cy="-122.74" rx="67.6881" ry="18"/>
<text text-anchor="middle" x="208.745" y="-119.04" font-family="Times New Roman,serif" font-size="14.00">Essence_Water</text>
</g>
<!-- Essence_Water&#45;&gt;ArmorLeather
+ Small_WaterResistance -->
<g id="edge1" class="edge"><title>Essence_Water&#45;&gt;ArmorLeather
+ Small_WaterResistance</title>
<path fill="none" stroke="black" d="M195.515,-104.958C185.974,-92.8553 172.776,-76.1139 161.117,-61.324"/>
<polygon fill="black" stroke="black" points="163.771,-59.0364 154.831,-53.35 158.273,-63.3701 163.771,-59.0364"/>
<text text-anchor="middle" x="207.745" y="-75.5401" font-family="Times New Roman,serif" font-size="14.00">Crafting 3</text>
</g>
</g>
</svg>
