<?xml version="1.0" encoding="UTF-8" standalone="no"?>
<!DOCTYPE svg PUBLIC "-//W3C//DTD SVG 1.1//EN"
 "http://www.w3.org/Graphics/SVG/1.1/DTD/svg11.dtd">
<!-- Generated by graphviz version 2.38.0 (20140413.2041)
 -->
<!-- Title: G Pages: 1 -->
<svg width="284pt" height="236pt"
 viewBox="0.00 0.00 283.54 235.74" xmlns="http://www.w3.org/2000/svg" xmlns:xlink="http://www.w3.org/1999/xlink">
<g id="graph0" class="graph" transform="scale(1 1) rotate(0) translate(4 231.74)">
<title>G</title>
<polygon fill="white" stroke="none" points="-4,4 -4,-231.74 279.54,-231.74 279.54,4 -4,4"/>
<!-- Spear
+ Small_TormentedSoul -->
<g id="node1" class="node"><title>Spear
+ Small_TormentedSoul</title>
<ellipse fill="none" stroke="black" cx="122.144" cy="-26.8701" rx="108.789" ry="26.7407"/>
<text text-anchor="middle" x="122.144" y="-30.6701" font-family="Times New Roman,serif" font-size="14.00">Spear</text>
<text text-anchor="middle" x="122.144" y="-15.6701" font-family="Times New Roman,serif" font-size="14.00">+ Small_TormentedSoul</text>
</g>
<!-- Soul_Tormented -->
<g id="node2" class="node"><title>Soul_Tormented</title>
<ellipse fill="none" stroke="black" cx="72.1436" cy="-122.74" rx="72.2875" ry="18"/>
<text text-anchor="middle" x="72.1436" y="-119.04" font-family="Times New Roman,serif" font-size="14.00">Soul_Tormented</text>
</g>
<!-- Soul_Tormented&#45;&gt;Spear
+ Small_TormentedSoul -->
<g id="edge2" class="edge"><title>Soul_Tormented&#45;&gt;Spear
+ Small_TormentedSoul</title>
<path fill="none" stroke="black" d="M78.8485,-104.768C82.9168,-94.9435 88.4168,-82.4435 94.1436,-71.7401 95.814,-68.6181 97.6291,-65.424 99.5055,-62.2529"/>
<polygon fill="black" stroke="black" points="102.654,-63.8132 104.886,-53.4563 96.6825,-60.1605 102.654,-63.8132"/>
<text text-anchor="middle" x="122.144" y="-75.5401" font-family="Times New Roman,serif" font-size="14.00">Crafting 5</text>
</g>
<!-- Dagger -->
<g id="node3" class="node"><title>Dagger</title>
<ellipse fill="none" stroke="black" cx="148.144" cy="-209.74" rx="36.2938" ry="18"/>
<text text-anchor="middle" x="148.144" y="-206.04" font-family="Times New Roman,serif" font-size="14.00">Dagger</text>
</g>
<!-- Spear -->
<g id="node5" class="node"><title>Spear</title>
<ellipse fill="none" stroke="black" cx="194.144" cy="-122.74" rx="31.6951" ry="18"/>
<text text-anchor="middle" x="194.144" y="-119.04" font-family="Times New Roman,serif" font-size="14.00">Spear</text>
</g>
<!-- Dagger&#45;&gt;Spear -->
<g id="edge1" class="edge"><title>Dagger&#45;&gt;Spear</title>
<path fill="none" stroke="black" d="M146.313,-191.631C145.986,-181.529 146.937,-168.792 152.144,-158.74 155.18,-152.877 159.668,-147.617 164.594,-143.063"/>
<polygon fill="black" stroke="black" points="167.059,-145.567 172.549,-136.506 162.606,-140.166 167.059,-145.567"/>
<text text-anchor="middle" x="180.144" y="-162.54" font-family="Times New Roman,serif" font-size="14.00">Crafting 2</text>
</g>
<!-- Branch -->
<g id="node4" class="node"><title>Branch</title>
<ellipse fill="none" stroke="black" cx="239.144" cy="-209.74" rx="36.2938" ry="18"/>
<text text-anchor="middle" x="239.144" y="-206.04" font-family="Times New Roman,serif" font-size="14.00">Branch</text>
</g>
<!-- Branch&#45;&gt;Spear -->
<g id="edge4" class="edge"><title>Branch&#45;&gt;Spear</title>
<path fill="none" stroke="black" d="M230.253,-191.947C223.802,-179.761 214.959,-163.058 207.639,-149.231"/>
<polygon fill="black" stroke="black" points="210.635,-147.41 202.863,-140.209 204.448,-150.685 210.635,-147.41"/>
<text text-anchor="middle" x="247.144" y="-162.54" font-family="Times New Roman,serif" font-size="14.00">Crafting 2</text>
</g>
<!-- Spear&#45;&gt;Spear
+ Small_TormentedSoul -->
<g id="edge3" class="edge"><title>Spear&#45;&gt;Spear
+ Small_TormentedSoul</title>
<path fill="none" stroke="black" d="M181.93,-105.816C172.654,-93.7235 159.566,-76.6592 147.999,-61.5786"/>
<polygon fill="black" stroke="black" points="150.626,-59.2534 141.763,-53.4488 145.072,-63.5136 150.626,-59.2534"/>
<text text-anchor="middle" x="195.144" y="-75.5401" font-family="Times New Roman,serif" font-size="14.00">Crafting 5</text>
</g>
</g>
</svg>
