<?xml version="1.0" encoding="UTF-8" standalone="no"?>
<!DOCTYPE svg PUBLIC "-//W3C//DTD SVG 1.1//EN"
 "http://www.w3.org/Graphics/SVG/1.1/DTD/svg11.dtd">
<!-- Generated by graphviz version 2.38.0 (20140413.2041)
 -->
<!-- Title: G Pages: 1 -->
<svg width="233pt" height="149pt"
 viewBox="0.00 0.00 233.15 148.74" xmlns="http://www.w3.org/2000/svg" xmlns:xlink="http://www.w3.org/1999/xlink">
<g id="graph0" class="graph" transform="scale(1 1) rotate(0) translate(4 144.74)">
<title>G</title>
<polygon fill="white" stroke="none" points="-4,4 -4,-144.74 229.154,-144.74 229.154,4 -4,4"/>
<!-- Garment
+ Small_FireResistance -->
<g id="node1" class="node"><title>Garment
+ Small_FireResistance</title>
<ellipse fill="none" stroke="black" cx="105.359" cy="-26.8701" rx="105.218" ry="26.7407"/>
<text text-anchor="middle" x="105.359" y="-30.6701" font-family="Times New Roman,serif" font-size="14.00">Garment</text>
<text text-anchor="middle" x="105.359" y="-15.6701" font-family="Times New Roman,serif" font-size="14.00">+ Small_FireResistance</text>
</g>
<!-- Garment -->
<g id="node2" class="node"><title>Garment</title>
<ellipse fill="none" stroke="black" cx="45.3589" cy="-122.74" rx="42.4939" ry="18"/>
<text text-anchor="middle" x="45.3589" y="-119.04" font-family="Times New Roman,serif" font-size="14.00">Garment</text>
</g>
<!-- Garment&#45;&gt;Garment
+ Small_FireResistance -->
<g id="edge1" class="edge"><title>Garment&#45;&gt;Garment
+ Small_FireResistance</title>
<path fill="none" stroke="black" d="M56.0857,-104.958C63.6224,-93.1668 73.9735,-76.9725 83.2435,-62.4696"/>
<polygon fill="black" stroke="black" points="86.4042,-64.0234 88.8408,-53.7126 80.5061,-60.2535 86.4042,-64.0234"/>
<text text-anchor="middle" x="105.359" y="-75.5401" font-family="Times New Roman,serif" font-size="14.00">Crafting 2</text>
</g>
<!-- Essence_Fire -->
<g id="node3" class="node"><title>Essence_Fire</title>
<ellipse fill="none" stroke="black" cx="165.359" cy="-122.74" rx="59.5901" ry="18"/>
<text text-anchor="middle" x="165.359" y="-119.04" font-family="Times New Roman,serif" font-size="14.00">Essence_Fire</text>
</g>
<!-- Essence_Fire&#45;&gt;Garment
+ Small_FireResistance -->
<g id="edge2" class="edge"><title>Essence_Fire&#45;&gt;Garment
+ Small_FireResistance</title>
<path fill="none" stroke="black" d="M156.516,-104.779C151.235,-94.9591 144.235,-82.4591 137.359,-71.7401 135.243,-68.4421 132.971,-65.0586 130.649,-61.7044"/>
<polygon fill="black" stroke="black" points="133.47,-59.6313 124.835,-53.4921 127.757,-63.6761 133.47,-59.6313"/>
<text text-anchor="middle" x="173.359" y="-75.5401" font-family="Times New Roman,serif" font-size="14.00">Crafting 2</text>
</g>
</g>
</svg>
