<?xml version="1.0" encoding="UTF-8" standalone="no"?>
<!DOCTYPE svg PUBLIC "-//W3C//DTD SVG 1.1//EN"
 "http://www.w3.org/Graphics/SVG/1.1/DTD/svg11.dtd">
<!-- Generated by graphviz version 2.38.0 (20140413.2041)
 -->
<!-- Title: G Pages: 1 -->
<svg width="262pt" height="149pt"
 viewBox="0.00 0.00 261.64 148.74" xmlns="http://www.w3.org/2000/svg" xmlns:xlink="http://www.w3.org/1999/xlink">
<g id="graph0" class="graph" transform="scale(1 1) rotate(0) translate(4 144.74)">
<title>G</title>
<polygon fill="white" stroke="none" points="-4,4 -4,-144.74 257.64,-144.74 257.64,4 -4,4"/>
<!-- Garment -->
<g id="node1" class="node"><title>Garment</title>
<ellipse fill="none" stroke="black" cx="42.2463" cy="-122.74" rx="42.4939" ry="18"/>
<text text-anchor="middle" x="42.2463" y="-119.04" font-family="Times New Roman,serif" font-size="14.00">Garment</text>
</g>
<!-- Garment
+ Small_Sneaking -->
<g id="node3" class="node"><title>Garment
+ Small_Sneaking</title>
<ellipse fill="none" stroke="black" cx="110.246" cy="-26.8701" rx="82.9636" ry="26.7407"/>
<text text-anchor="middle" x="110.246" y="-30.6701" font-family="Times New Roman,serif" font-size="14.00">Garment</text>
<text text-anchor="middle" x="110.246" y="-15.6701" font-family="Times New Roman,serif" font-size="14.00">+ Small_Sneaking</text>
</g>
<!-- Garment&#45;&gt;Garment
+ Small_Sneaking -->
<g id="edge1" class="edge"><title>Garment&#45;&gt;Garment
+ Small_Sneaking</title>
<path fill="none" stroke="black" d="M54.0909,-105.389C62.8066,-93.3578 74.9625,-76.5773 85.7363,-61.7046"/>
<polygon fill="black" stroke="black" points="88.8516,-63.3702 91.8837,-53.2185 83.1827,-59.2636 88.8516,-63.3702"/>
<text text-anchor="middle" x="107.246" y="-75.5401" font-family="Times New Roman,serif" font-size="14.00">Crafting 4</text>
</g>
<!-- Essence_Shadow -->
<g id="node2" class="node"><title>Essence_Shadow</title>
<ellipse fill="none" stroke="black" cx="178.246" cy="-122.74" rx="75.2868" ry="18"/>
<text text-anchor="middle" x="178.246" y="-119.04" font-family="Times New Roman,serif" font-size="14.00">Essence_Shadow</text>
</g>
<!-- Essence_Shadow&#45;&gt;Garment
+ Small_Sneaking -->
<g id="edge2" class="edge"><title>Essence_Shadow&#45;&gt;Garment
+ Small_Sneaking</title>
<path fill="none" stroke="black" d="M166.089,-104.958C157.403,-92.9674 145.419,-76.4235 134.778,-61.7353"/>
<polygon fill="black" stroke="black" points="137.405,-59.3951 128.704,-53.35 131.736,-63.5017 137.405,-59.3951"/>
<text text-anchor="middle" x="181.246" y="-75.5401" font-family="Times New Roman,serif" font-size="14.00">Crafting 4</text>
</g>
</g>
</svg>
