<?xml version="1.0" encoding="UTF-8" standalone="no"?>
<!DOCTYPE svg PUBLIC "-//W3C//DTD SVG 1.1//EN"
 "http://www.w3.org/Graphics/SVG/1.1/DTD/svg11.dtd">
<!-- Generated by graphviz version 2.38.0 (20140413.2041)
 -->
<!-- Title: G Pages: 1 -->
<svg width="1541pt" height="131pt"
 viewBox="0.00 0.00 1541.14 131.00" xmlns="http://www.w3.org/2000/svg" xmlns:xlink="http://www.w3.org/1999/xlink">
<g id="graph0" class="graph" transform="scale(1 1) rotate(0) translate(4 127)">
<title>G</title>
<polygon fill="white" stroke="none" points="-4,4 -4,-127 1537.14,-127 1537.14,4 -4,4"/>
<!-- Scraps_Metal -->
<g id="node1" class="node"><title>Scraps_Metal</title>
<ellipse fill="none" stroke="black" cx="638.141" cy="-105" rx="61.1893" ry="18"/>
<text text-anchor="middle" x="638.141" y="-101.3" font-family="Times New Roman,serif" font-size="14.00">Scraps_Metal</text>
</g>
<!-- Shield_Small_Durability -->
<g id="node3" class="node"><title>Shield_Small_Durability</title>
<ellipse fill="none" stroke="black" cx="98.1413" cy="-18" rx="98.2828" ry="18"/>
<text text-anchor="middle" x="98.1413" y="-14.3" font-family="Times New Roman,serif" font-size="14.00">Shield_Small_Durability</text>
</g>
<!-- Scraps_Metal&#45;&gt;Shield_Small_Durability -->
<g id="edge2" class="edge"><title>Scraps_Metal&#45;&gt;Shield_Small_Durability</title>
<path fill="none" stroke="black" d="M595.087,-92.1083C586.237,-90.0703 576.936,-88.2196 568.141,-87 541.599,-83.3195 104.732,-88.2983 86.1413,-69 80.0214,-62.6473 80.4137,-53.7494 83.2027,-45.2176"/>
<polygon fill="black" stroke="black" points="86.4737,-46.4689 87.1507,-35.8957 80.0279,-43.739 86.4737,-46.4689"/>
<text text-anchor="middle" x="114.141" y="-57.8" font-family="Times New Roman,serif" font-size="14.00">Crafting 2</text>
</g>
<!-- Shield_Small_Blocking -->
<g id="node4" class="node"><title>Shield_Small_Blocking</title>
<ellipse fill="none" stroke="black" cx="361.141" cy="-18" rx="94.7833" ry="18"/>
<text text-anchor="middle" x="361.141" y="-14.3" font-family="Times New Roman,serif" font-size="14.00">Shield_Small_Blocking</text>
</g>
<!-- Scraps_Metal&#45;&gt;Shield_Small_Blocking -->
<g id="edge4" class="edge"><title>Scraps_Metal&#45;&gt;Shield_Small_Blocking</title>
<path fill="none" stroke="black" d="M594.676,-92.2692C585.942,-90.2449 576.789,-88.3583 568.141,-87 541.176,-82.7648 341.722,-88.9955 323.141,-69 315.488,-60.7634 320.167,-51.049 328.484,-42.3841"/>
<polygon fill="black" stroke="black" points="331.104,-44.7316 336.136,-35.4078 326.388,-39.5587 331.104,-44.7316"/>
<text text-anchor="middle" x="351.141" y="-57.8" font-family="Times New Roman,serif" font-size="14.00">Crafting 3</text>
</g>
<!-- Shield_Large_Blocking -->
<g id="node6" class="node"><title>Shield_Large_Blocking</title>
<ellipse fill="none" stroke="black" cx="1309.14" cy="-18" rx="95.5831" ry="18"/>
<text text-anchor="middle" x="1309.14" y="-14.3" font-family="Times New Roman,serif" font-size="14.00">Shield_Large_Blocking</text>
</g>
<!-- Scraps_Metal&#45;&gt;Shield_Large_Blocking -->
<g id="edge1" class="edge"><title>Scraps_Metal&#45;&gt;Shield_Large_Blocking</title>
<path fill="none" stroke="black" d="M681.192,-92.0807C690.042,-90.0448 699.344,-88.202 708.141,-87 767.622,-78.8735 1191.96,-90.1466 1248.14,-69 1249.21,-68.5995 1265.59,-55.1507 1281.11,-42.3036"/>
<polygon fill="black" stroke="black" points="1283.6,-44.789 1289.06,-35.7124 1279.13,-39.3999 1283.6,-44.789"/>
<text text-anchor="middle" x="1293.14" y="-57.8" font-family="Times New Roman,serif" font-size="14.00">Crafting 5</text>
</g>
<!-- Shield_Medium_Blocking -->
<g id="node7" class="node"><title>Shield_Medium_Blocking</title>
<ellipse fill="none" stroke="black" cx="676.141" cy="-18" rx="104.782" ry="18"/>
<text text-anchor="middle" x="676.141" y="-14.3" font-family="Times New Roman,serif" font-size="14.00">Shield_Medium_Blocking</text>
</g>
<!-- Scraps_Metal&#45;&gt;Shield_Medium_Blocking -->
<g id="edge3" class="edge"><title>Scraps_Metal&#45;&gt;Shield_Medium_Blocking</title>
<path fill="none" stroke="black" d="M635.269,-86.6222C634.394,-76.6629 634.644,-64.1629 639.141,-54 640.872,-50.0884 643.27,-46.4053 646.021,-43.0041"/>
<polygon fill="black" stroke="black" points="648.665,-45.3013 652.933,-35.6045 643.549,-40.5229 648.665,-45.3013"/>
<text text-anchor="middle" x="667.141" y="-57.8" font-family="Times New Roman,serif" font-size="14.00">Crafting 4</text>
</g>
<!-- Shield_Huge_Blocking_Mod -->
<g id="node8" class="node"><title>Shield_Huge_Blocking_Mod</title>
<ellipse fill="none" stroke="black" cx="993.141" cy="-18" rx="116.18" ry="18"/>
<text text-anchor="middle" x="993.141" y="-14.3" font-family="Times New Roman,serif" font-size="14.00">Shield_Huge_Blocking_Mod</text>
</g>
<!-- Scraps_Metal&#45;&gt;Shield_Huge_Blocking_Mod -->
<g id="edge5" class="edge"><title>Scraps_Metal&#45;&gt;Shield_Huge_Blocking_Mod</title>
<path fill="none" stroke="black" d="M681.614,-92.3161C690.347,-90.2879 699.498,-88.3879 708.141,-87 806.755,-71.1653 839.516,-106.362 932.141,-69 933.189,-68.5774 949.372,-55.2987 964.805,-42.5333"/>
<polygon fill="black" stroke="black" points="967.254,-45.0497 972.723,-35.9754 962.789,-39.6586 967.254,-45.0497"/>
<text text-anchor="middle" x="978.141" y="-57.8" font-family="Times New Roman,serif" font-size="14.00">Crafting 5</text>
</g>
<!-- ShieldMetal -->
<g id="node2" class="node"><title>ShieldMetal</title>
<ellipse fill="none" stroke="black" cx="770.141" cy="-105" rx="53.0913" ry="18"/>
<text text-anchor="middle" x="770.141" y="-101.3" font-family="Times New Roman,serif" font-size="14.00">ShieldMetal</text>
</g>
<!-- ShieldMetal&#45;&gt;Shield_Small_Durability -->
<g id="edge7" class="edge"><title>ShieldMetal&#45;&gt;Shield_Small_Durability</title>
<path fill="none" stroke="black" d="M732.408,-92.149C724.466,-90.0803 716.086,-88.2074 708.141,-87 591.853,-69.3278 291.734,-103.032 179.141,-69 160.231,-63.2844 141.32,-52.0045 126.532,-41.603"/>
<polygon fill="black" stroke="black" points="128.476,-38.6889 118.332,-35.629 124.353,-44.3465 128.476,-38.6889"/>
<text text-anchor="middle" x="207.141" y="-57.8" font-family="Times New Roman,serif" font-size="14.00">Crafting 2</text>
</g>
<!-- ShieldMetal&#45;&gt;Shield_Small_Blocking -->
<g id="edge9" class="edge"><title>ShieldMetal&#45;&gt;Shield_Small_Blocking</title>
<path fill="none" stroke="black" d="M732.053,-92.2146C724.211,-90.1684 715.96,-88.2874 708.141,-87 640.929,-75.9334 462.83,-99.9325 402.141,-69 391.421,-63.5359 382.49,-53.8819 375.729,-44.5046"/>
<polygon fill="black" stroke="black" points="378.593,-42.4892 370.142,-36.0987 372.763,-46.3642 378.593,-42.4892"/>
<text text-anchor="middle" x="430.141" y="-57.8" font-family="Times New Roman,serif" font-size="14.00">Crafting 3</text>
</g>
<!-- ShieldMetal&#45;&gt;Shield_Large_Blocking -->
<g id="edge6" class="edge"><title>ShieldMetal&#45;&gt;Shield_Large_Blocking</title>
<path fill="none" stroke="black" d="M822.311,-100.954C960.385,-92.8622 1324.99,-71.2899 1327.14,-69 1333.36,-62.382 1332.13,-53.4638 1328.27,-44.9916"/>
<polygon fill="black" stroke="black" points="1331.23,-43.1046 1323.28,-36.1035 1325.13,-46.5355 1331.23,-43.1046"/>
<text text-anchor="middle" x="1359.14" y="-57.8" font-family="Times New Roman,serif" font-size="14.00">Crafting 5</text>
</g>
<!-- ShieldMetal&#45;&gt;Shield_Medium_Blocking -->
<g id="edge8" class="edge"><title>ShieldMetal&#45;&gt;Shield_Medium_Blocking</title>
<path fill="none" stroke="black" d="M744.761,-88.9544C735.939,-83.2076 726.234,-76.2755 718.141,-69 709.922,-61.6101 701.871,-52.5966 695.052,-44.268"/>
<polygon fill="black" stroke="black" points="697.645,-41.9055 688.684,-36.2534 692.165,-46.2602 697.645,-41.9055"/>
<text text-anchor="middle" x="746.141" y="-57.8" font-family="Times New Roman,serif" font-size="14.00">Crafting 4</text>
</g>
<!-- ShieldMetal&#45;&gt;Shield_Huge_Blocking_Mod -->
<g id="edge10" class="edge"><title>ShieldMetal&#45;&gt;Shield_Huge_Blocking_Mod</title>
<path fill="none" stroke="black" d="M823.548,-104.044C887.029,-102.825 987.385,-96.4561 1011.14,-69 1017.08,-62.1344 1015.8,-53.1589 1011.96,-44.7101"/>
<polygon fill="black" stroke="black" points="1014.96,-42.8943 1007.02,-35.8738 1008.85,-46.3102 1014.96,-42.8943"/>
<text text-anchor="middle" x="1044.14" y="-57.8" font-family="Times New Roman,serif" font-size="14.00">Crafting 5</text>
</g>
<!-- Anvil -->
<g id="node5" class="node"><title>Anvil</title>
<ellipse fill="none" stroke="black" cx="1112.14" cy="-105" rx="29.795" ry="18"/>
<text text-anchor="middle" x="1112.14" y="-101.3" font-family="Times New Roman,serif" font-size="14.00">Anvil</text>
</g>
<!-- Anvil&#45;&gt;Shield_Small_Durability -->
<g id="edge12" class="edge"><title>Anvil&#45;&gt;Shield_Small_Durability</title>
<path fill="none" stroke="black" d="M1082.31,-102.111C1031.13,-98.8882 923.308,-92.1737 832.141,-87 756.38,-82.7006 564.855,-87.0142 491.141,-69 475.491,-65.1754 473.719,-58.1102 458.141,-54 371.418,-31.1182 346.403,-44.7679 257.141,-36 235.338,-33.8584 211.869,-31.4217 189.832,-29.0754"/>
<polygon fill="black" stroke="black" points="190.134,-25.5878 179.818,-28.0051 189.39,-32.5482 190.134,-25.5878"/>
<text text-anchor="middle" x="519.141" y="-57.8" font-family="Times New Roman,serif" font-size="14.00">Crafting 2</text>
</g>
<!-- Anvil&#45;&gt;Shield_Small_Blocking -->
<g id="edge13" class="edge"><title>Anvil&#45;&gt;Shield_Small_Blocking</title>
<path fill="none" stroke="black" d="M1082.24,-102.821C1013.31,-99.7671 845.149,-90.3041 793.141,-69 783.185,-64.9217 784.147,-57.9549 774.141,-54 774.141,-54 577.741,-37.3559 455.815,-27.0232"/>
<polygon fill="black" stroke="black" points="455.974,-23.5243 445.715,-26.1672 455.383,-30.4993 455.974,-23.5243"/>
<text text-anchor="middle" x="821.141" y="-57.8" font-family="Times New Roman,serif" font-size="14.00">Crafting 3</text>
</g>
<!-- Anvil&#45;&gt;Shield_Large_Blocking -->
<g id="edge11" class="edge"><title>Anvil&#45;&gt;Shield_Large_Blocking</title>
<path fill="none" stroke="black" d="M1141.99,-103.33C1224.02,-101.184 1448.25,-93.1402 1470.14,-69 1494.69,-41.9356 1457.01,-29.377 1411.95,-23.6127"/>
<polygon fill="black" stroke="black" points="1412.27,-20.1266 1401.94,-22.4505 1411.47,-27.0799 1412.27,-20.1266"/>
<text text-anchor="middle" x="1505.14" y="-57.8" font-family="Times New Roman,serif" font-size="14.00">Crafting 5</text>
</g>
<!-- Anvil&#45;&gt;Shield_Medium_Blocking -->
<g id="edge15" class="edge"><title>Anvil&#45;&gt;Shield_Medium_Blocking</title>
<path fill="none" stroke="black" d="M1104.69,-87.061C1098.71,-75.6562 1089.16,-61.3959 1076.14,-54 1035.8,-31.0864 914.36,-40.0459 868.141,-36 838.619,-33.4156 806.546,-30.5849 777.219,-27.9876"/>
<polygon fill="black" stroke="black" points="777.239,-24.4757 766.97,-27.0794 776.622,-31.4484 777.239,-24.4757"/>
<text text-anchor="middle" x="1121.14" y="-57.8" font-family="Times New Roman,serif" font-size="14.00">Crafting 4</text>
</g>
<!-- Anvil&#45;&gt;Shield_Huge_Blocking_Mod -->
<g id="edge14" class="edge"><title>Anvil&#45;&gt;Shield_Huge_Blocking_Mod</title>
<path fill="none" stroke="black" d="M1142.23,-103.586C1224.15,-101.935 1442.7,-93.7925 1406.14,-54 1404.86,-52.6028 1225.8,-37.8385 1103.9,-27.9375"/>
<polygon fill="black" stroke="black" points="1104.01,-24.4351 1093.76,-27.1144 1103.45,-31.4121 1104.01,-24.4351"/>
<text text-anchor="middle" x="1438.14" y="-57.8" font-family="Times New Roman,serif" font-size="14.00">Crafting 5</text>
</g>
<!-- ShieldWood -->
<g id="node9" class="node"><title>ShieldWood</title>
<ellipse fill="none" stroke="black" cx="502.141" cy="-105" rx="56.59" ry="18"/>
<text text-anchor="middle" x="502.141" y="-101.3" font-family="Times New Roman,serif" font-size="14.00">ShieldWood</text>
</g>
<!-- ShieldWood&#45;&gt;Shield_Small_Durability -->
<g id="edge17" class="edge"><title>ShieldWood&#45;&gt;Shield_Small_Durability</title>
<path fill="none" stroke="black" d="M445.196,-104.232C321.399,-104.141 36.4701,-100.476 7.14129,-69 -6.02549,-54.8694 7.76969,-43.8085 28.2643,-35.7231"/>
<polygon fill="black" stroke="black" points="29.504,-38.9969 37.7373,-32.3288 27.1427,-32.4071 29.504,-38.9969"/>
<text text-anchor="middle" x="35.1413" y="-57.8" font-family="Times New Roman,serif" font-size="14.00">Crafting 2</text>
</g>
<!-- ShieldWood&#45;&gt;Shield_Small_Blocking -->
<g id="edge19" class="edge"><title>ShieldWood&#45;&gt;Shield_Small_Blocking</title>
<path fill="none" stroke="black" d="M445.593,-104.627C377.702,-104.029 269.752,-98.3197 244.141,-69 228.087,-50.6209 247.678,-38.7931 275.138,-31.285"/>
<polygon fill="black" stroke="black" points="276.271,-34.6102 285.134,-28.8058 274.586,-27.8161 276.271,-34.6102"/>
<text text-anchor="middle" x="272.141" y="-57.8" font-family="Times New Roman,serif" font-size="14.00">Crafting 3</text>
</g>
<!-- ShieldWood&#45;&gt;Shield_Large_Blocking -->
<g id="edge16" class="edge"><title>ShieldWood&#45;&gt;Shield_Large_Blocking</title>
<path fill="none" stroke="black" d="M541.993,-92.2251C550.549,-90.123 559.59,-88.2175 568.141,-87 696.904,-68.6669 1026.15,-97.1072 1153.14,-69 1169.67,-65.3426 1172.2,-59.6954 1188.14,-54 1206.73,-47.3571 1227.25,-41.0473 1246.04,-35.6616"/>
<polygon fill="black" stroke="black" points="1247.01,-39.0233 1255.68,-32.9326 1245.1,-32.2877 1247.01,-39.0233"/>
<text text-anchor="middle" x="1216.14" y="-57.8" font-family="Times New Roman,serif" font-size="14.00">Crafting 5</text>
</g>
<!-- ShieldWood&#45;&gt;Shield_Medium_Blocking -->
<g id="edge18" class="edge"><title>ShieldWood&#45;&gt;Shield_Medium_Blocking</title>
<path fill="none" stroke="black" d="M522.627,-88.0448C537.011,-77.3825 557.021,-63.6033 576.141,-54 588.707,-47.6891 602.685,-42.0262 616.111,-37.1872"/>
<polygon fill="black" stroke="black" points="617.479,-40.417 625.762,-33.8117 615.167,-33.8094 617.479,-40.417"/>
<text text-anchor="middle" x="604.141" y="-57.8" font-family="Times New Roman,serif" font-size="14.00">Crafting 4</text>
</g>
<!-- ShieldWood&#45;&gt;Shield_Huge_Blocking_Mod -->
<g id="edge20" class="edge"><title>ShieldWood&#45;&gt;Shield_Huge_Blocking_Mod</title>
<path fill="none" stroke="black" d="M542.376,-92.3498C550.826,-90.2666 559.728,-88.337 568.141,-87 630.814,-77.0411 793.878,-91.6922 853.141,-69 863.189,-65.1528 862.573,-58.9198 872.141,-54 886.394,-46.6713 902.404,-40.6702 917.995,-35.8372"/>
<polygon fill="black" stroke="black" points="919.039,-39.1783 927.63,-32.9775 917.048,-32.4677 919.039,-39.1783"/>
<text text-anchor="middle" x="900.141" y="-57.8" font-family="Times New Roman,serif" font-size="14.00">Crafting 5</text>
</g>
</g>
</svg>
