<?xml version="1.0" encoding="UTF-8" standalone="no"?>
<!DOCTYPE svg PUBLIC "-//W3C//DTD SVG 1.1//EN"
 "http://www.w3.org/Graphics/SVG/1.1/DTD/svg11.dtd">
<!-- Generated by graphviz version 2.38.0 (20140413.2041)
 -->
<!-- Title: G Pages: 1 -->
<svg width="209pt" height="149pt"
 viewBox="0.00 0.00 208.54 148.74" xmlns="http://www.w3.org/2000/svg" xmlns:xlink="http://www.w3.org/1999/xlink">
<g id="graph0" class="graph" transform="scale(1 1) rotate(0) translate(4 144.74)">
<title>G</title>
<polygon fill="white" stroke="none" points="-4,4 -4,-144.74 204.545,-144.74 204.545,4 -4,4"/>
<!-- Essence_Air -->
<g id="node1" class="node"><title>Essence_Air</title>
<ellipse fill="none" stroke="black" cx="56.545" cy="-122.74" rx="56.59" ry="18"/>
<text text-anchor="middle" x="56.545" y="-119.04" font-family="Times New Roman,serif" font-size="14.00">Essence_Air</text>
</g>
<!-- Staff
+ Small_AirDamage -->
<g id="node2" class="node"><title>Staff
+ Small_AirDamage</title>
<ellipse fill="none" stroke="black" cx="107.545" cy="-26.8701" rx="91.4341" ry="26.7407"/>
<text text-anchor="middle" x="107.545" y="-30.6701" font-family="Times New Roman,serif" font-size="14.00">Staff</text>
<text text-anchor="middle" x="107.545" y="-15.6701" font-family="Times New Roman,serif" font-size="14.00">+ Small_AirDamage</text>
</g>
<!-- Essence_Air&#45;&gt;Staff
+ Small_AirDamage -->
<g id="edge1" class="edge"><title>Essence_Air&#45;&gt;Staff
+ Small_AirDamage</title>
<path fill="none" stroke="black" d="M64.5837,-104.92C69.3466,-95.146 75.5966,-82.646 81.545,-71.7401 83.2063,-68.6943 84.9682,-65.5529 86.761,-62.4167"/>
<polygon fill="black" stroke="black" points="89.8421,-64.0805 91.8375,-53.6753 83.7888,-60.5651 89.8421,-64.0805"/>
<text text-anchor="middle" x="109.545" y="-75.5401" font-family="Times New Roman,serif" font-size="14.00">Crafting 5</text>
</g>
<!-- Staff -->
<g id="node3" class="node"><title>Staff</title>
<ellipse fill="none" stroke="black" cx="159.545" cy="-122.74" rx="28.6953" ry="18"/>
<text text-anchor="middle" x="159.545" y="-119.04" font-family="Times New Roman,serif" font-size="14.00">Staff</text>
</g>
<!-- Staff&#45;&gt;Staff
+ Small_AirDamage -->
<g id="edge2" class="edge"><title>Staff&#45;&gt;Staff
+ Small_AirDamage</title>
<path fill="none" stroke="black" d="M153.154,-105.158C149.113,-95.2424 143.533,-82.5171 137.545,-71.7401 135.736,-68.4837 133.751,-65.1632 131.691,-61.8799"/>
<polygon fill="black" stroke="black" points="134.522,-59.8138 126.131,-53.345 128.657,-63.6345 134.522,-59.8138"/>
<text text-anchor="middle" x="172.545" y="-75.5401" font-family="Times New Roman,serif" font-size="14.00">Crafting 5</text>
</g>
</g>
</svg>
