<?xml version="1.0" encoding="UTF-8" standalone="no"?>
<!DOCTYPE svg PUBLIC "-//W3C//DTD SVG 1.1//EN"
 "http://www.w3.org/Graphics/SVG/1.1/DTD/svg11.dtd">
<!-- Generated by graphviz version 2.38.0 (20140413.2041)
 -->
<!-- Title: G Pages: 1 -->
<svg width="562pt" height="479pt"
 viewBox="0.00 0.00 562.03 479.00" xmlns="http://www.w3.org/2000/svg" xmlns:xlink="http://www.w3.org/1999/xlink">
<g id="graph0" class="graph" transform="scale(1 1) rotate(0) translate(4 475)">
<title>G</title>
<polygon fill="white" stroke="none" points="-4,4 -4,-475 558.031,-475 558.031,4 -4,4"/>
<!-- Herb_Augmentor -->
<g id="node1" class="node"><title>Herb_Augmentor</title>
<ellipse fill="none" stroke="black" cx="88.5871" cy="-192" rx="74.187" ry="18"/>
<text text-anchor="middle" x="88.5871" y="-188.3" font-family="Times New Roman,serif" font-size="14.00">Herb_Augmentor</text>
</g>
<!-- Potion_Dexterity_TempBoost_Medium -->
<g id="node7" class="node"><title>Potion_Dexterity_TempBoost_Medium</title>
<ellipse fill="none" stroke="black" cx="309.587" cy="-105" rx="155.173" ry="18"/>
<text text-anchor="middle" x="309.587" y="-101.3" font-family="Times New Roman,serif" font-size="14.00">Potion_Dexterity_TempBoost_Medium</text>
</g>
<!-- Herb_Augmentor&#45;&gt;Potion_Dexterity_TempBoost_Medium -->
<g id="edge1" class="edge"><title>Herb_Augmentor&#45;&gt;Potion_Dexterity_TempBoost_Medium</title>
<path fill="none" stroke="black" d="M126.327,-176.485C162.507,-162.569 217.42,-141.449 257.705,-125.955"/>
<polygon fill="black" stroke="black" points="259.017,-129.2 267.094,-122.343 256.504,-122.667 259.017,-129.2"/>
<text text-anchor="middle" x="239.587" y="-144.8" font-family="Times New Roman,serif" font-size="14.00">Crafting 4</text>
</g>
<!-- Potion_Dexterity_TempBoost_Large -->
<g id="node8" class="node"><title>Potion_Dexterity_TempBoost_Large</title>
<ellipse fill="none" stroke="black" cx="145.587" cy="-18" rx="145.674" ry="18"/>
<text text-anchor="middle" x="145.587" y="-14.3" font-family="Times New Roman,serif" font-size="14.00">Potion_Dexterity_TempBoost_Large</text>
</g>
<!-- Herb_Augmentor&#45;&gt;Potion_Dexterity_TempBoost_Large -->
<g id="edge2" class="edge"><title>Herb_Augmentor&#45;&gt;Potion_Dexterity_TempBoost_Large</title>
<path fill="none" stroke="black" d="M85.35,-173.813C82.1242,-152.669 79.0208,-116.012 89.5871,-87 95.5976,-70.4968 107.485,-55.1155 118.768,-43.1709"/>
<polygon fill="black" stroke="black" points="121.477,-45.409 126.026,-35.8406 116.503,-40.4836 121.477,-45.409"/>
<text text-anchor="middle" x="117.587" y="-101.3" font-family="Times New Roman,serif" font-size="14.00">Crafting 5</text>
</g>
<!-- Potion_Dexterity_TempBoost -->
<g id="node2" class="node"><title>Potion_Dexterity_TempBoost</title>
<ellipse fill="none" stroke="black" cx="309.587" cy="-192" rx="120.479" ry="18"/>
<text text-anchor="middle" x="309.587" y="-188.3" font-family="Times New Roman,serif" font-size="14.00">Potion_Dexterity_TempBoost</text>
</g>
<!-- Potion_Dexterity_TempBoost&#45;&gt;Potion_Dexterity_TempBoost_Medium -->
<g id="edge3" class="edge"><title>Potion_Dexterity_TempBoost&#45;&gt;Potion_Dexterity_TempBoost_Medium</title>
<path fill="none" stroke="black" d="M309.587,-173.799C309.587,-162.163 309.587,-146.548 309.587,-133.237"/>
<polygon fill="black" stroke="black" points="313.087,-133.175 309.587,-123.175 306.087,-133.175 313.087,-133.175"/>
<text text-anchor="middle" x="337.587" y="-144.8" font-family="Times New Roman,serif" font-size="14.00">Crafting 4</text>
</g>
<!-- Potion_Empty -->
<g id="node3" class="node"><title>Potion_Empty</title>
<ellipse fill="none" stroke="black" cx="325.587" cy="-453" rx="63.8893" ry="18"/>
<text text-anchor="middle" x="325.587" y="-449.3" font-family="Times New Roman,serif" font-size="14.00">Potion_Empty</text>
</g>
<!-- Minor_Healing_Potion -->
<g id="node10" class="node"><title>Minor_Healing_Potion</title>
<ellipse fill="none" stroke="black" cx="403.587" cy="-366" rx="92.8835" ry="18"/>
<text text-anchor="middle" x="403.587" y="-362.3" font-family="Times New Roman,serif" font-size="14.00">Minor_Healing_Potion</text>
</g>
<!-- Potion_Empty&#45;&gt;Minor_Healing_Potion -->
<g id="edge4" class="edge"><title>Potion_Empty&#45;&gt;Minor_Healing_Potion</title>
<path fill="none" stroke="black" d="M340.997,-435.207C352.535,-422.633 368.485,-405.252 381.396,-391.182"/>
<polygon fill="black" stroke="black" points="384.026,-393.493 388.209,-383.758 378.869,-388.76 384.026,-393.493"/>
<text text-anchor="middle" x="396.587" y="-405.8" font-family="Times New Roman,serif" font-size="14.00">Crafting 1</text>
</g>
<!-- Potion_Charm -->
<g id="node4" class="node"><title>Potion_Charm</title>
<ellipse fill="none" stroke="black" cx="243.587" cy="-279" rx="63.8893" ry="18"/>
<text text-anchor="middle" x="243.587" y="-275.3" font-family="Times New Roman,serif" font-size="14.00">Potion_Charm</text>
</g>
<!-- Potion_Charm&#45;&gt;Potion_Dexterity_TempBoost -->
<g id="edge5" class="edge"><title>Potion_Charm&#45;&gt;Potion_Dexterity_TempBoost</title>
<path fill="none" stroke="black" d="M251.003,-260.907C255.812,-250.81 262.65,-238.074 270.587,-228 273.596,-224.181 277.047,-220.432 280.626,-216.889"/>
<polygon fill="black" stroke="black" points="283.134,-219.336 288.05,-209.951 278.354,-214.222 283.134,-219.336"/>
<text text-anchor="middle" x="298.587" y="-231.8" font-family="Times New Roman,serif" font-size="14.00">Crafting 5</text>
</g>
<!-- Herb_FannyBlossom -->
<g id="node5" class="node"><title>Herb_FannyBlossom</title>
<ellipse fill="none" stroke="black" cx="204.587" cy="-366" rx="88.2844" ry="18"/>
<text text-anchor="middle" x="204.587" y="-362.3" font-family="Times New Roman,serif" font-size="14.00">Herb_FannyBlossom</text>
</g>
<!-- Herb_FannyBlossom&#45;&gt;Potion_Charm -->
<g id="edge6" class="edge"><title>Herb_FannyBlossom&#45;&gt;Potion_Charm</title>
<path fill="none" stroke="black" d="M212.479,-347.799C217.96,-335.854 225.364,-319.717 231.574,-306.183"/>
<polygon fill="black" stroke="black" points="234.851,-307.434 235.84,-296.885 228.488,-304.515 234.851,-307.434"/>
<text text-anchor="middle" x="253.587" y="-318.8" font-family="Times New Roman,serif" font-size="14.00">Crafting 2</text>
</g>
<!-- Sinew -->
<g id="node6" class="node"><title>Sinew</title>
<ellipse fill="none" stroke="black" cx="357.587" cy="-279" rx="32.4942" ry="18"/>
<text text-anchor="middle" x="357.587" y="-275.3" font-family="Times New Roman,serif" font-size="14.00">Sinew</text>
</g>
<!-- Sinew&#45;&gt;Potion_Dexterity_TempBoost -->
<g id="edge7" class="edge"><title>Sinew&#45;&gt;Potion_Dexterity_TempBoost</title>
<path fill="none" stroke="black" d="M348.332,-261.611C341.559,-249.617 332.228,-233.093 324.42,-219.266"/>
<polygon fill="black" stroke="black" points="327.273,-217.2 319.308,-210.214 321.177,-220.642 327.273,-217.2"/>
<text text-anchor="middle" x="363.587" y="-231.8" font-family="Times New Roman,serif" font-size="14.00">Crafting 5</text>
</g>
<!-- Potion_Dexterity_TempBoost_Medium&#45;&gt;Potion_Dexterity_TempBoost_Large -->
<g id="edge8" class="edge"><title>Potion_Dexterity_TempBoost_Medium&#45;&gt;Potion_Dexterity_TempBoost_Large</title>
<path fill="none" stroke="black" d="M277.186,-87.2067C251.271,-73.7751 214.768,-54.8562 186.779,-40.3497"/>
<polygon fill="black" stroke="black" points="188.13,-37.1078 177.641,-35.6135 184.909,-43.3226 188.13,-37.1078"/>
<text text-anchor="middle" x="264.587" y="-57.8" font-family="Times New Roman,serif" font-size="14.00">Crafting 5</text>
</g>
<!-- Herb_Mushroom -->
<g id="node9" class="node"><title>Herb_Mushroom</title>
<ellipse fill="none" stroke="black" cx="480.587" cy="-453" rx="73.387" ry="18"/>
<text text-anchor="middle" x="480.587" y="-449.3" font-family="Times New Roman,serif" font-size="14.00">Herb_Mushroom</text>
</g>
<!-- Herb_Mushroom&#45;&gt;Minor_Healing_Potion -->
<g id="edge9" class="edge"><title>Herb_Mushroom&#45;&gt;Minor_Healing_Potion</title>
<path fill="none" stroke="black" d="M465.374,-435.207C453.984,-422.633 438.239,-405.252 425.494,-391.182"/>
<polygon fill="black" stroke="black" points="428.076,-388.82 418.768,-383.758 422.888,-393.519 428.076,-388.82"/>
<text text-anchor="middle" x="474.587" y="-405.8" font-family="Times New Roman,serif" font-size="14.00">Crafting 1</text>
</g>
<!-- Minor_Healing_Potion&#45;&gt;Potion_Charm -->
<g id="edge10" class="edge"><title>Minor_Healing_Potion&#45;&gt;Potion_Charm</title>
<path fill="none" stroke="black" d="M373.116,-348.812C346.967,-334.921 309.179,-314.846 281.161,-299.961"/>
<polygon fill="black" stroke="black" points="282.538,-296.729 272.064,-295.129 279.253,-302.911 282.538,-296.729"/>
<text text-anchor="middle" x="360.587" y="-318.8" font-family="Times New Roman,serif" font-size="14.00">Crafting 2</text>
</g>
</g>
</svg>
