<?xml version="1.0" encoding="UTF-8" standalone="no"?>
<!DOCTYPE svg PUBLIC "-//W3C//DTD SVG 1.1//EN"
 "http://www.w3.org/Graphics/SVG/1.1/DTD/svg11.dtd">
<!-- Generated by graphviz version 2.38.0 (20140413.2041)
 -->
<!-- Title: G Pages: 1 -->
<svg width="1117pt" height="236pt"
 viewBox="0.00 0.00 1117.39 235.74" xmlns="http://www.w3.org/2000/svg" xmlns:xlink="http://www.w3.org/1999/xlink">
<g id="graph0" class="graph" transform="scale(1 1) rotate(0) translate(4 231.74)">
<title>G</title>
<polygon fill="white" stroke="none" points="-4,4 -4,-231.74 1113.39,-231.74 1113.39,4 -4,4"/>
<!-- ShortBow -->
<g id="node1" class="node"><title>ShortBow</title>
<ellipse fill="none" stroke="black" cx="924.246" cy="-26.8701" rx="48.1917" ry="18"/>
<text text-anchor="middle" x="924.246" y="-23.1701" font-family="Times New Roman,serif" font-size="14.00">ShortBow</text>
</g>
<!-- ShortBow_E
+ Small_ActionPoint -->
<g id="node2" class="node"><title>ShortBow_E
+ Small_ActionPoint</title>
<ellipse fill="none" stroke="black" cx="622.246" cy="-26.8701" rx="94.5053" ry="26.7407"/>
<text text-anchor="middle" x="622.246" y="-30.6701" font-family="Times New Roman,serif" font-size="14.00">ShortBow_E</text>
<text text-anchor="middle" x="622.246" y="-15.6701" font-family="Times New Roman,serif" font-size="14.00">+ Small_ActionPoint</text>
</g>
<!-- OakFlatBow_G
+ Small_Speed -->
<g id="node3" class="node"><title>OakFlatBow_G
+ Small_Speed</title>
<ellipse fill="none" stroke="black" cx="74.2462" cy="-26.8701" rx="74.4932" ry="26.7407"/>
<text text-anchor="middle" x="74.2462" y="-30.6701" font-family="Times New Roman,serif" font-size="14.00">OakFlatBow_G</text>
<text text-anchor="middle" x="74.2462" y="-15.6701" font-family="Times New Roman,serif" font-size="14.00">+ Small_Speed</text>
</g>
<!-- ShortBow_B -->
<g id="node4" class="node"><title>ShortBow_B</title>
<ellipse fill="none" stroke="black" cx="250.246" cy="-26.8701" rx="58.4896" ry="18"/>
<text text-anchor="middle" x="250.246" y="-23.1701" font-family="Times New Roman,serif" font-size="14.00">ShortBow_B</text>
</g>
<!-- ShortBow_D -->
<g id="node5" class="node"><title>ShortBow_D</title>
<ellipse fill="none" stroke="black" cx="797.246" cy="-26.8701" rx="59.2899" ry="18"/>
<text text-anchor="middle" x="797.246" y="-23.1701" font-family="Times New Roman,serif" font-size="14.00">ShortBow_D</text>
</g>
<!-- Sinew -->
<g id="node6" class="node"><title>Sinew</title>
<ellipse fill="none" stroke="black" cx="419.246" cy="-209.74" rx="32.4942" ry="18"/>
<text text-anchor="middle" x="419.246" y="-206.04" font-family="Times New Roman,serif" font-size="14.00">Sinew</text>
</g>
<!-- String_Bow -->
<g id="node7" class="node"><title>String_Bow</title>
<ellipse fill="none" stroke="black" cx="419.246" cy="-122.74" rx="53.8905" ry="18"/>
<text text-anchor="middle" x="419.246" y="-119.04" font-family="Times New Roman,serif" font-size="14.00">String_Bow</text>
</g>
<!-- Sinew&#45;&gt;String_Bow -->
<g id="edge1" class="edge"><title>Sinew&#45;&gt;String_Bow</title>
<path fill="none" stroke="black" d="M419.246,-191.539C419.246,-179.903 419.246,-164.288 419.246,-150.977"/>
<polygon fill="black" stroke="black" points="422.746,-150.916 419.246,-140.916 415.746,-150.916 422.746,-150.916"/>
<text text-anchor="middle" x="447.246" y="-162.54" font-family="Times New Roman,serif" font-size="14.00">Crafting 0</text>
</g>
<!-- String_Bow&#45;&gt;ShortBow -->
<g id="edge2" class="edge"><title>String_Bow&#45;&gt;ShortBow</title>
<path fill="none" stroke="black" d="M471.309,-117.657C541.369,-111.766 662.072,-100.11 704.246,-86.7401 717.704,-82.4737 718.815,-76.0894 732.246,-71.7401 788.995,-53.3637 807.819,-69.8733 865.246,-53.7401 872.575,-51.6812 880.177,-48.8885 887.389,-45.8976"/>
<polygon fill="black" stroke="black" points="889.15,-48.9486 896.92,-41.7467 886.355,-42.5308 889.15,-48.9486"/>
<text text-anchor="middle" x="760.246" y="-75.5401" font-family="Times New Roman,serif" font-size="14.00">Crafting 1</text>
</g>
<!-- String_Bow&#45;&gt;ShortBow_E
+ Small_ActionPoint -->
<g id="edge3" class="edge"><title>String_Bow&#45;&gt;ShortBow_E
+ Small_ActionPoint</title>
<path fill="none" stroke="black" d="M414.606,-104.56C412.83,-93.9221 412.753,-80.64 420.246,-71.7401 447.362,-39.5346 472.089,-62.6031 513.246,-53.7401 522.56,-51.7345 532.3,-49.5492 541.963,-47.3264"/>
<polygon fill="black" stroke="black" points="543.032,-50.6714 551.983,-45.0025 541.45,-43.8524 543.032,-50.6714"/>
<text text-anchor="middle" x="448.246" y="-75.5401" font-family="Times New Roman,serif" font-size="14.00">Crafting 5</text>
</g>
<!-- String_Bow&#45;&gt;OakFlatBow_G
+ Small_Speed -->
<g id="edge8" class="edge"><title>String_Bow&#45;&gt;OakFlatBow_G
+ Small_Speed</title>
<path fill="none" stroke="black" d="M365.343,-120.684C266.108,-118.179 62.6425,-110.209 41.2462,-86.7401 34.1751,-78.984 36.0931,-69.4478 41.5751,-60.3269"/>
<polygon fill="black" stroke="black" points="44.4702,-62.2957 47.456,-52.1303 38.7826,-58.215 44.4702,-62.2957"/>
<text text-anchor="middle" x="69.2462" y="-75.5401" font-family="Times New Roman,serif" font-size="14.00">Crafting 5</text>
</g>
<!-- String_Bow&#45;&gt;ShortBow_B -->
<g id="edge5" class="edge"><title>String_Bow&#45;&gt;ShortBow_B</title>
<path fill="none" stroke="black" d="M365.985,-119.629C280.718,-115.695 121.356,-105.856 104.246,-86.7401 99.8001,-81.7726 100.268,-77.0896 104.246,-71.7401 105.754,-69.7125 157.445,-54.4849 198.894,-42.532"/>
<polygon fill="black" stroke="black" points="199.992,-45.8581 208.634,-39.7289 198.056,-39.1311 199.992,-45.8581"/>
<text text-anchor="middle" x="133.246" y="-75.5401" font-family="Times New Roman,serif" font-size="14.00">Crafting 2</text>
</g>
<!-- String_Bow&#45;&gt;ShortBow_D -->
<g id="edge6" class="edge"><title>String_Bow&#45;&gt;ShortBow_D</title>
<path fill="none" stroke="black" d="M466.142,-113.609C492.952,-108.001 526.798,-99.2703 555.246,-86.7401 566.415,-81.8208 566.78,-75.9187 578.246,-71.7401 640.504,-49.0522 661.808,-69.1832 726.246,-53.7401 735.428,-51.5397 745.058,-48.5318 754.16,-45.3445"/>
<polygon fill="black" stroke="black" points="755.58,-48.5522 763.782,-41.8451 753.188,-41.9738 755.58,-48.5522"/>
<text text-anchor="middle" x="606.246" y="-75.5401" font-family="Times New Roman,serif" font-size="14.00">Crafting 4</text>
</g>
<!-- OakFlatBow_F
+ Small_Dexterity -->
<g id="node8" class="node"><title>OakFlatBow_F
+ Small_Dexterity</title>
<ellipse fill="none" stroke="black" cx="421.246" cy="-26.8701" rx="82.9636" ry="26.7407"/>
<text text-anchor="middle" x="421.246" y="-30.6701" font-family="Times New Roman,serif" font-size="14.00">OakFlatBow_F</text>
<text text-anchor="middle" x="421.246" y="-15.6701" font-family="Times New Roman,serif" font-size="14.00">+ Small_Dexterity</text>
</g>
<!-- String_Bow&#45;&gt;OakFlatBow_F
+ Small_Dexterity -->
<g id="edge7" class="edge"><title>String_Bow&#45;&gt;OakFlatBow_F
+ Small_Dexterity</title>
<path fill="none" stroke="black" d="M367.928,-117.161C327.341,-112.351 275.39,-103.137 262.246,-86.7401 258.076,-81.5384 258.207,-77.0441 262.246,-71.7401 265.091,-68.0042 306.772,-56.5773 346.74,-46.3226"/>
<polygon fill="black" stroke="black" points="347.745,-49.6786 356.569,-43.815 346.014,-42.8958 347.745,-49.6786"/>
<text text-anchor="middle" x="291.246" y="-75.5401" font-family="Times New Roman,serif" font-size="14.00">Crafting 5</text>
</g>
<!-- ShortBow_C -->
<g id="node10" class="node"><title>ShortBow_C</title>
<ellipse fill="none" stroke="black" cx="1050.25" cy="-26.8701" rx="59.2899" ry="18"/>
<text text-anchor="middle" x="1050.25" y="-23.1701" font-family="Times New Roman,serif" font-size="14.00">ShortBow_C</text>
</g>
<!-- String_Bow&#45;&gt;ShortBow_C -->
<g id="edge4" class="edge"><title>String_Bow&#45;&gt;ShortBow_C</title>
<path fill="none" stroke="black" d="M470.567,-116.969C509.228,-113.431 563.547,-108.576 611.246,-104.74 721.845,-95.8469 753.249,-116.111 860.246,-86.7401 874.622,-82.794 876.141,-76.5631 890.246,-71.7401 929.257,-58.4013 941.59,-65.0146 981.246,-53.7401 989.74,-51.3253 998.67,-48.332 1007.18,-45.2477"/>
<polygon fill="black" stroke="black" points="1008.42,-48.5215 1016.57,-41.7527 1005.98,-41.9612 1008.42,-48.5215"/>
<text text-anchor="middle" x="918.246" y="-75.5401" font-family="Times New Roman,serif" font-size="14.00">Crafting 3</text>
</g>
<!-- Branch -->
<g id="node9" class="node"><title>Branch</title>
<ellipse fill="none" stroke="black" cx="656.246" cy="-122.74" rx="36.2938" ry="18"/>
<text text-anchor="middle" x="656.246" y="-119.04" font-family="Times New Roman,serif" font-size="14.00">Branch</text>
</g>
<!-- Branch&#45;&gt;ShortBow -->
<g id="edge9" class="edge"><title>Branch&#45;&gt;ShortBow</title>
<path fill="none" stroke="black" d="M692.363,-120.08C767.139,-116.272 933.373,-105.741 950.246,-86.7401 958.937,-76.9538 954.23,-63.7973 946.567,-52.404"/>
<polygon fill="black" stroke="black" points="949.127,-49.9861 940.304,-44.1201 943.543,-54.2077 949.127,-49.9861"/>
<text text-anchor="middle" x="983.246" y="-75.5401" font-family="Times New Roman,serif" font-size="14.00">Crafting 1</text>
</g>
<!-- Branch&#45;&gt;ShortBow_E
+ Small_ActionPoint -->
<g id="edge10" class="edge"><title>Branch&#45;&gt;ShortBow_E
+ Small_ActionPoint</title>
<path fill="none" stroke="black" d="M650.168,-104.958C645.977,-93.3893 640.252,-77.5821 635.076,-63.2923"/>
<polygon fill="black" stroke="black" points="638.303,-61.9229 631.606,-53.7126 631.721,-64.3068 638.303,-61.9229"/>
<text text-anchor="middle" x="672.246" y="-75.5401" font-family="Times New Roman,serif" font-size="14.00">Crafting 5</text>
</g>
<!-- Branch&#45;&gt;OakFlatBow_G
+ Small_Speed -->
<g id="edge15" class="edge"><title>Branch&#45;&gt;OakFlatBow_G
+ Small_Speed</title>
<path fill="none" stroke="black" d="M620.953,-117.938C585.822,-114.237 530.35,-108.619 482.246,-104.74 356.622,-94.6111 321.303,-118.145 199.246,-86.7401 184.219,-82.8736 152.455,-67.8797 124.709,-53.9929"/>
<polygon fill="black" stroke="black" points="125.989,-50.7186 115.484,-49.3435 122.839,-56.9696 125.989,-50.7186"/>
<text text-anchor="middle" x="227.246" y="-75.5401" font-family="Times New Roman,serif" font-size="14.00">Crafting 5</text>
</g>
<!-- Branch&#45;&gt;ShortBow_B -->
<g id="edge12" class="edge"><title>Branch&#45;&gt;ShortBow_B</title>
<path fill="none" stroke="black" d="M620.872,-118.439C546.582,-111.389 379.117,-94.8507 354.246,-86.7401 327.785,-78.1109 300.498,-62.3601 280.517,-49.3208"/>
<polygon fill="black" stroke="black" points="282.415,-46.3791 272.153,-43.7421 278.53,-52.2027 282.415,-46.3791"/>
<text text-anchor="middle" x="382.246" y="-75.5401" font-family="Times New Roman,serif" font-size="14.00">Crafting 2</text>
</g>
<!-- Branch&#45;&gt;ShortBow_D -->
<g id="edge13" class="edge"><title>Branch&#45;&gt;ShortBow_D</title>
<path fill="none" stroke="black" d="M691.314,-117.344C727.155,-112.077 779.339,-102.007 792.246,-86.7401 799.523,-78.1328 801.474,-66.0684 801.331,-55.1005"/>
<polygon fill="black" stroke="black" points="804.819,-54.8124 800.657,-45.0695 797.835,-55.2815 804.819,-54.8124"/>
<text text-anchor="middle" x="828.246" y="-75.5401" font-family="Times New Roman,serif" font-size="14.00">Crafting 4</text>
</g>
<!-- Branch&#45;&gt;OakFlatBow_F
+ Small_Dexterity -->
<g id="edge14" class="edge"><title>Branch&#45;&gt;OakFlatBow_F
+ Small_Dexterity</title>
<path fill="none" stroke="black" d="M620.88,-118.216C588.123,-113.958 538.665,-104.959 499.246,-86.7401 494.647,-84.6145 477.357,-71.6549 460.221,-58.4347"/>
<polygon fill="black" stroke="black" points="461.926,-55.3281 451.878,-51.9701 457.639,-60.8616 461.926,-55.3281"/>
<text text-anchor="middle" x="527.246" y="-75.5401" font-family="Times New Roman,serif" font-size="14.00">Crafting 5</text>
</g>
<!-- Branch&#45;&gt;ShortBow_C -->
<g id="edge11" class="edge"><title>Branch&#45;&gt;ShortBow_C</title>
<path fill="none" stroke="black" d="M692.678,-122.268C773.002,-122.79 962.383,-120.311 1015.25,-86.7401 1027.01,-79.2702 1035.34,-66.3032 1040.91,-54.437"/>
<polygon fill="black" stroke="black" points="1044.28,-55.4466 1044.96,-44.8732 1037.84,-52.7179 1044.28,-55.4466"/>
<text text-anchor="middle" x="1059.25" y="-75.5401" font-family="Times New Roman,serif" font-size="14.00">Crafting 3</text>
</g>
</g>
</svg>
