<?xml version="1.0" encoding="UTF-8" standalone="no"?>
<!DOCTYPE svg PUBLIC "-//W3C//DTD SVG 1.1//EN"
 "http://www.w3.org/Graphics/SVG/1.1/DTD/svg11.dtd">
<!-- Generated by graphviz version 2.38.0 (20140413.2041)
 -->
<!-- Title: G Pages: 1 -->
<svg width="321pt" height="131pt"
 viewBox="0.00 0.00 321.14 131.00" xmlns="http://www.w3.org/2000/svg" xmlns:xlink="http://www.w3.org/1999/xlink">
<g id="graph0" class="graph" transform="scale(1 1) rotate(0) translate(4 127)">
<title>G</title>
<polygon fill="white" stroke="none" points="-4,4 -4,-127 317.142,-127 317.142,4 -4,4"/>
<!-- Pearl -->
<g id="node1" class="node"><title>Pearl</title>
<ellipse fill="none" stroke="black" cx="28.5975" cy="-105" rx="28.6953" ry="18"/>
<text text-anchor="middle" x="28.5975" y="-101.3" font-family="Times New Roman,serif" font-size="14.00">Pearl</text>
</g>
<!-- Shield_Value -->
<g id="node3" class="node"><title>Shield_Value</title>
<ellipse fill="none" stroke="black" cx="128.597" cy="-18" rx="58.4896" ry="18"/>
<text text-anchor="middle" x="128.597" y="-14.3" font-family="Times New Roman,serif" font-size="14.00">Shield_Value</text>
</g>
<!-- Pearl&#45;&gt;Shield_Value -->
<g id="edge1" class="edge"><title>Pearl&#45;&gt;Shield_Value</title>
<path fill="none" stroke="black" d="M39.1807,-87.8523C46.5788,-77.3723 57.1526,-63.8784 68.5975,-54 75.0934,-48.3932 82.6137,-43.1992 90.0871,-38.6217"/>
<polygon fill="black" stroke="black" points="91.9075,-41.6118 98.7744,-33.5435 88.3748,-35.5685 91.9075,-41.6118"/>
<text text-anchor="middle" x="96.5975" y="-57.8" font-family="Times New Roman,serif" font-size="14.00">Crafting 1</text>
</g>
<!-- ShieldMetal -->
<g id="node2" class="node"><title>ShieldMetal</title>
<ellipse fill="none" stroke="black" cx="128.597" cy="-105" rx="53.0913" ry="18"/>
<text text-anchor="middle" x="128.597" y="-101.3" font-family="Times New Roman,serif" font-size="14.00">ShieldMetal</text>
</g>
<!-- ShieldMetal&#45;&gt;Shield_Value -->
<g id="edge2" class="edge"><title>ShieldMetal&#45;&gt;Shield_Value</title>
<path fill="none" stroke="black" d="M128.597,-86.799C128.597,-75.1626 128.597,-59.5479 128.597,-46.2368"/>
<polygon fill="black" stroke="black" points="132.098,-46.1754 128.597,-36.1754 125.098,-46.1755 132.098,-46.1754"/>
<text text-anchor="middle" x="156.597" y="-57.8" font-family="Times New Roman,serif" font-size="14.00">Crafting 1</text>
</g>
<!-- ShieldWood -->
<g id="node4" class="node"><title>ShieldWood</title>
<ellipse fill="none" stroke="black" cx="256.597" cy="-105" rx="56.59" ry="18"/>
<text text-anchor="middle" x="256.597" y="-101.3" font-family="Times New Roman,serif" font-size="14.00">ShieldWood</text>
</g>
<!-- ShieldWood&#45;&gt;Shield_Value -->
<g id="edge3" class="edge"><title>ShieldWood&#45;&gt;Shield_Value</title>
<path fill="none" stroke="black" d="M236.169,-88.1C222.872,-77.9721 205.011,-64.778 188.597,-54 180.981,-48.9982 172.633,-43.8998 164.649,-39.1976"/>
<polygon fill="black" stroke="black" points="166.253,-36.0818 155.849,-34.0834 162.736,-42.134 166.253,-36.0818"/>
<text text-anchor="middle" x="238.597" y="-57.8" font-family="Times New Roman,serif" font-size="14.00">Crafting 1</text>
</g>
</g>
</svg>
