<?xml version="1.0" encoding="UTF-8" standalone="no"?>
<!DOCTYPE svg PUBLIC "-//W3C//DTD SVG 1.1//EN"
 "http://www.w3.org/Graphics/SVG/1.1/DTD/svg11.dtd">
<!-- Generated by graphviz version 2.38.0 (20140413.2041)
 -->
<!-- Title: G Pages: 1 -->
<svg width="442pt" height="131pt"
 viewBox="0.00 0.00 441.53 131.00" xmlns="http://www.w3.org/2000/svg" xmlns:xlink="http://www.w3.org/1999/xlink">
<g id="graph0" class="graph" transform="scale(1 1) rotate(0) translate(4 127)">
<title>G</title>
<polygon fill="white" stroke="none" points="-4,4 -4,-127 437.534,-127 437.534,4 -4,4"/>
<!-- Imps_2H_Spear -->
<g id="node1" class="node"><title>Imps_2H_Spear</title>
<ellipse fill="none" stroke="black" cx="85.534" cy="-18" rx="70.6878" ry="18"/>
<text text-anchor="middle" x="85.534" y="-14.3" font-family="Times New Roman,serif" font-size="14.00">Imps_2H_Spear</text>
</g>
<!-- Trident -->
<g id="node2" class="node"><title>Trident</title>
<ellipse fill="none" stroke="black" cx="314.534" cy="-18" rx="37.0935" ry="18"/>
<text text-anchor="middle" x="314.534" y="-14.3" font-family="Times New Roman,serif" font-size="14.00">Trident</text>
</g>
<!-- Dagger -->
<g id="node3" class="node"><title>Dagger</title>
<ellipse fill="none" stroke="black" cx="81.534" cy="-105" rx="36.2938" ry="18"/>
<text text-anchor="middle" x="81.534" y="-101.3" font-family="Times New Roman,serif" font-size="14.00">Dagger</text>
</g>
<!-- Dagger&#45;&gt;Imps_2H_Spear -->
<g id="edge1" class="edge"><title>Dagger&#45;&gt;Imps_2H_Spear</title>
<path fill="none" stroke="black" d="M49.0569,-96.7312C21.9002,-89.0145 -10.3391,-75.0053 3.53398,-54 8.85214,-45.9477 16.4432,-39.7416 24.8847,-34.9601"/>
<polygon fill="black" stroke="black" points="26.5255,-38.0532 33.9299,-30.4752 23.416,-31.7818 26.5255,-38.0532"/>
<text text-anchor="middle" x="31.534" y="-57.8" font-family="Times New Roman,serif" font-size="14.00">Crafting 3</text>
</g>
<!-- Dagger&#45;&gt;Trident -->
<g id="edge2" class="edge"><title>Dagger&#45;&gt;Trident</title>
<path fill="none" stroke="black" d="M116.177,-99.1724C144.527,-94.2785 185.094,-85.076 217.534,-69 227.174,-64.2228 227.334,-59.5779 236.534,-54 249.198,-46.3217 263.84,-39.3118 276.994,-33.6156"/>
<polygon fill="black" stroke="black" points="278.404,-36.8193 286.259,-29.7093 275.685,-30.3691 278.404,-36.8193"/>
<text text-anchor="middle" x="264.534" y="-57.8" font-family="Times New Roman,serif" font-size="14.00">Crafting 4</text>
</g>
<!-- Spear -->
<g id="node4" class="node"><title>Spear</title>
<ellipse fill="none" stroke="black" cx="220.534" cy="-18" rx="31.6951" ry="18"/>
<text text-anchor="middle" x="220.534" y="-14.3" font-family="Times New Roman,serif" font-size="14.00">Spear</text>
</g>
<!-- Dagger&#45;&gt;Spear -->
<g id="edge3" class="edge"><title>Dagger&#45;&gt;Spear</title>
<path fill="none" stroke="black" d="M76.9616,-86.877C75.2133,-76.2614 75.1408,-62.9831 82.534,-54 106.521,-24.855 129.024,-45.5823 165.534,-36 171.417,-34.4559 177.612,-32.6852 183.637,-30.8829"/>
<polygon fill="black" stroke="black" points="184.994,-34.1278 193.532,-27.8543 182.945,-27.4343 184.994,-34.1278"/>
<text text-anchor="middle" x="110.534" y="-57.8" font-family="Times New Roman,serif" font-size="14.00">Crafting 2</text>
</g>
<!-- Branch -->
<g id="node5" class="node"><title>Branch</title>
<ellipse fill="none" stroke="black" cx="318.534" cy="-105" rx="36.2938" ry="18"/>
<text text-anchor="middle" x="318.534" y="-101.3" font-family="Times New Roman,serif" font-size="14.00">Branch</text>
</g>
<!-- Branch&#45;&gt;Imps_2H_Spear -->
<g id="edge4" class="edge"><title>Branch&#45;&gt;Imps_2H_Spear</title>
<path fill="none" stroke="black" d="M282.821,-100.911C249.17,-96.9392 198.013,-88.115 157.534,-69 147.805,-64.4059 147.253,-60.3034 138.534,-54 132.39,-49.5585 125.724,-44.9784 119.259,-40.6543"/>
<polygon fill="black" stroke="black" points="120.908,-37.5487 110.636,-34.9537 117.048,-43.3881 120.908,-37.5487"/>
<text text-anchor="middle" x="185.534" y="-57.8" font-family="Times New Roman,serif" font-size="14.00">Crafting 3</text>
</g>
<!-- Branch&#45;&gt;Trident -->
<g id="edge5" class="edge"><title>Branch&#45;&gt;Trident</title>
<path fill="none" stroke="black" d="M346.785,-93.267C365.543,-84.3643 385.1,-70.5171 375.534,-54 370.44,-45.2041 362.208,-38.4276 353.418,-33.2874"/>
<polygon fill="black" stroke="black" points="355.025,-30.1784 344.537,-28.6783 351.801,-36.3914 355.025,-30.1784"/>
<text text-anchor="middle" x="405.534" y="-57.8" font-family="Times New Roman,serif" font-size="14.00">Crafting 4</text>
</g>
<!-- Branch&#45;&gt;Spear -->
<g id="edge6" class="edge"><title>Branch&#45;&gt;Spear</title>
<path fill="none" stroke="black" d="M314.377,-86.931C311.053,-76.3369 305.443,-63.0624 296.534,-54 290.32,-47.6786 272.757,-39.4296 256.079,-32.5277"/>
<polygon fill="black" stroke="black" points="257.037,-29.1401 246.453,-28.6443 254.418,-35.6317 257.037,-29.1401"/>
<text text-anchor="middle" x="334.534" y="-57.8" font-family="Times New Roman,serif" font-size="14.00">Crafting 2</text>
</g>
</g>
</svg>
