<?xml version="1.0" encoding="UTF-8" standalone="no"?>
<!DOCTYPE svg PUBLIC "-//W3C//DTD SVG 1.1//EN"
 "http://www.w3.org/Graphics/SVG/1.1/DTD/svg11.dtd">
<!-- Generated by graphviz version 2.38.0 (20140413.2041)
 -->
<!-- Title: G Pages: 1 -->
<svg width="183pt" height="149pt"
 viewBox="0.00 0.00 183.25 148.74" xmlns="http://www.w3.org/2000/svg" xmlns:xlink="http://www.w3.org/1999/xlink">
<g id="graph0" class="graph" transform="scale(1 1) rotate(0) translate(4 144.74)">
<title>G</title>
<polygon fill="white" stroke="none" points="-4,4 -4,-144.74 179.246,-144.74 179.246,4 -4,4"/>
<!-- Garment -->
<g id="node1" class="node"><title>Garment</title>
<ellipse fill="none" stroke="black" cx="42.2463" cy="-122.74" rx="42.4939" ry="18"/>
<text text-anchor="middle" x="42.2463" y="-119.04" font-family="Times New Roman,serif" font-size="14.00">Garment</text>
</g>
<!-- Garment
+ Small_AllResist -->
<g id="node3" class="node"><title>Garment
+ Small_AllResist</title>
<ellipse fill="none" stroke="black" cx="87.2463" cy="-26.8701" rx="82.9636" ry="26.7407"/>
<text text-anchor="middle" x="87.2463" y="-30.6701" font-family="Times New Roman,serif" font-size="14.00">Garment</text>
<text text-anchor="middle" x="87.2463" y="-15.6701" font-family="Times New Roman,serif" font-size="14.00">+ Small_AllResist</text>
</g>
<!-- Garment&#45;&gt;Garment
+ Small_AllResist -->
<g id="edge1" class="edge"><title>Garment&#45;&gt;Garment
+ Small_AllResist</title>
<path fill="none" stroke="black" d="M45.0609,-104.522C47.0825,-94.6159 50.3325,-82.1159 55.2463,-71.7401 56.8325,-68.3907 58.6862,-65.0354 60.6877,-61.755"/>
<polygon fill="black" stroke="black" points="63.6766,-63.58 66.2493,-53.3023 57.8288,-59.7324 63.6766,-63.58"/>
<text text-anchor="middle" x="83.2463" y="-75.5401" font-family="Times New Roman,serif" font-size="14.00">Crafting 5</text>
</g>
<!-- Ruby -->
<g id="node2" class="node"><title>Ruby</title>
<ellipse fill="none" stroke="black" cx="133.246" cy="-122.74" rx="30.5947" ry="18"/>
<text text-anchor="middle" x="133.246" y="-119.04" font-family="Times New Roman,serif" font-size="14.00">Ruby</text>
</g>
<!-- Ruby&#45;&gt;Garment
+ Small_AllResist -->
<g id="edge2" class="edge"><title>Ruby&#45;&gt;Garment
+ Small_AllResist</title>
<path fill="none" stroke="black" d="M126.268,-104.908C122.109,-95.1306 116.609,-82.6306 111.246,-71.7401 109.789,-68.7805 108.235,-65.7328 106.646,-62.6886"/>
<polygon fill="black" stroke="black" points="109.625,-60.8362 101.834,-53.6572 103.448,-64.1283 109.625,-60.8362"/>
<text text-anchor="middle" x="147.246" y="-75.5401" font-family="Times New Roman,serif" font-size="14.00">Crafting 5</text>
</g>
</g>
</svg>
