<?xml version="1.0" encoding="UTF-8" standalone="no"?>
<!DOCTYPE svg PUBLIC "-//W3C//DTD SVG 1.1//EN"
 "http://www.w3.org/Graphics/SVG/1.1/DTD/svg11.dtd">
<!-- Generated by graphviz version 2.38.0 (20140413.2041)
 -->
<!-- Title: G Pages: 1 -->
<svg width="179pt" height="131pt"
 viewBox="0.00 0.00 179.14 131.00" xmlns="http://www.w3.org/2000/svg" xmlns:xlink="http://www.w3.org/1999/xlink">
<g id="graph0" class="graph" transform="scale(1 1) rotate(0) translate(4 127)">
<title>G</title>
<polygon fill="white" stroke="none" points="-4,4 -4,-127 175.139,-127 175.139,4 -4,4"/>
<!-- Quest_ImpFearless -->
<g id="node1" class="node"><title>Quest_ImpFearless</title>
<ellipse fill="none" stroke="black" cx="81.2428" cy="-18" rx="81.4863" ry="18"/>
<text text-anchor="middle" x="81.2428" y="-14.3" font-family="Times New Roman,serif" font-size="14.00">Quest_ImpFearless</text>
</g>
<!-- Apple -->
<g id="node2" class="node"><title>Apple</title>
<ellipse fill="none" stroke="black" cx="35.2428" cy="-105" rx="32.4942" ry="18"/>
<text text-anchor="middle" x="35.2428" y="-101.3" font-family="Times New Roman,serif" font-size="14.00">Apple</text>
</g>
<!-- Apple&#45;&gt;Quest_ImpFearless -->
<g id="edge2" class="edge"><title>Apple&#45;&gt;Quest_ImpFearless</title>
<path fill="none" stroke="black" d="M38.4009,-87.0662C40.7317,-77.0257 44.5102,-64.2929 50.2428,-54 52.2299,-50.4321 54.6334,-46.9148 57.2127,-43.5659"/>
<polygon fill="black" stroke="black" points="60.1034,-45.566 63.8498,-35.6556 54.7409,-41.0666 60.1034,-45.566"/>
<text text-anchor="middle" x="78.2428" y="-57.8" font-family="Times New Roman,serif" font-size="14.00">Crafting 0</text>
</g>
<!-- Pumpkin -->
<g id="node3" class="node"><title>Pumpkin</title>
<ellipse fill="none" stroke="black" cx="128.243" cy="-105" rx="42.7926" ry="18"/>
<text text-anchor="middle" x="128.243" y="-101.3" font-family="Times New Roman,serif" font-size="14.00">Pumpkin</text>
</g>
<!-- Pumpkin&#45;&gt;Quest_ImpFearless -->
<g id="edge1" class="edge"><title>Pumpkin&#45;&gt;Quest_ImpFearless</title>
<path fill="none" stroke="black" d="M121.746,-86.9127C117.747,-77.0503 112.247,-64.5503 106.243,-54 104.398,-50.7591 102.322,-47.4507 100.175,-44.2246"/>
<polygon fill="black" stroke="black" points="103.021,-42.1871 94.4353,-35.9797 97.2763,-46.1866 103.021,-42.1871"/>
<text text-anchor="middle" x="141.243" y="-57.8" font-family="Times New Roman,serif" font-size="14.00">Crafting 0</text>
</g>
</g>
</svg>
