<?xml version="1.0" encoding="UTF-8" standalone="no"?>
<!DOCTYPE svg PUBLIC "-//W3C//DTD SVG 1.1//EN"
 "http://www.w3.org/Graphics/SVG/1.1/DTD/svg11.dtd">
<!-- Generated by graphviz version 2.38.0 (20140413.2041)
 -->
<!-- Title: G Pages: 1 -->
<svg width="312pt" height="149pt"
 viewBox="0.00 0.00 311.99 148.74" xmlns="http://www.w3.org/2000/svg" xmlns:xlink="http://www.w3.org/1999/xlink">
<g id="graph0" class="graph" transform="scale(1 1) rotate(0) translate(4 144.74)">
<title>G</title>
<polygon fill="white" stroke="none" points="-4,4 -4,-144.74 307.987,-144.74 307.987,4 -4,4"/>
<!-- Soul_Tormented -->
<g id="node1" class="node"><title>Soul_Tormented</title>
<ellipse fill="none" stroke="black" cx="72.1436" cy="-122.74" rx="72.2875" ry="18"/>
<text text-anchor="middle" x="72.1436" y="-119.04" font-family="Times New Roman,serif" font-size="14.00">Soul_Tormented</text>
</g>
<!-- TwoHandedAxe
+ Small_TormentedSoul -->
<g id="node2" class="node"><title>TwoHandedAxe
+ Small_TormentedSoul</title>
<ellipse fill="none" stroke="black" cx="152.144" cy="-26.8701" rx="108.789" ry="26.7407"/>
<text text-anchor="middle" x="152.144" y="-30.6701" font-family="Times New Roman,serif" font-size="14.00">TwoHandedAxe</text>
<text text-anchor="middle" x="152.144" y="-15.6701" font-family="Times New Roman,serif" font-size="14.00">+ Small_TormentedSoul</text>
</g>
<!-- Soul_Tormented&#45;&gt;TwoHandedAxe
+ Small_TormentedSoul -->
<g id="edge1" class="edge"><title>Soul_Tormented&#45;&gt;TwoHandedAxe
+ Small_TormentedSoul</title>
<path fill="none" stroke="black" d="M86.446,-104.958C96.7604,-92.8553 111.028,-76.1139 123.633,-61.324"/>
<polygon fill="black" stroke="black" points="126.606,-63.2313 130.429,-53.35 121.278,-58.6908 126.606,-63.2313"/>
<text text-anchor="middle" x="143.144" y="-75.5401" font-family="Times New Roman,serif" font-size="14.00">Crafting 5</text>
</g>
<!-- TwoHandedAxe -->
<g id="node3" class="node"><title>TwoHandedAxe</title>
<ellipse fill="none" stroke="black" cx="233.144" cy="-122.74" rx="70.6878" ry="18"/>
<text text-anchor="middle" x="233.144" y="-119.04" font-family="Times New Roman,serif" font-size="14.00">TwoHandedAxe</text>
</g>
<!-- TwoHandedAxe&#45;&gt;TwoHandedAxe
+ Small_TormentedSoul -->
<g id="edge2" class="edge"><title>TwoHandedAxe&#45;&gt;TwoHandedAxe
+ Small_TormentedSoul</title>
<path fill="none" stroke="black" d="M218.662,-104.958C208.219,-92.8553 193.773,-76.1139 181.011,-61.324"/>
<polygon fill="black" stroke="black" points="183.313,-58.6345 174.13,-53.35 178.013,-63.2076 183.313,-58.6345"/>
<text text-anchor="middle" x="231.144" y="-75.5401" font-family="Times New Roman,serif" font-size="14.00">Crafting 5</text>
</g>
</g>
</svg>
