<?xml version="1.0" encoding="UTF-8" standalone="no"?>
<!DOCTYPE svg PUBLIC "-//W3C//DTD SVG 1.1//EN"
 "http://www.w3.org/Graphics/SVG/1.1/DTD/svg11.dtd">
<!-- Generated by graphviz version 2.38.0 (20140413.2041)
 -->
<!-- Title: G Pages: 1 -->
<svg width="302pt" height="149pt"
 viewBox="0.00 0.00 302.44 148.74" xmlns="http://www.w3.org/2000/svg" xmlns:xlink="http://www.w3.org/1999/xlink">
<g id="graph0" class="graph" transform="scale(1 1) rotate(0) translate(4 144.74)">
<title>G</title>
<polygon fill="white" stroke="none" points="-4,4 -4,-144.74 298.438,-144.74 298.438,4 -4,4"/>
<!-- LeatherHelmet
+ Small_Sneaking -->
<g id="node1" class="node"><title>LeatherHelmet
+ Small_Sneaking</title>
<ellipse fill="none" stroke="black" cx="153.393" cy="-26.8701" rx="82.9636" ry="26.7407"/>
<text text-anchor="middle" x="153.393" y="-30.6701" font-family="Times New Roman,serif" font-size="14.00">LeatherHelmet</text>
<text text-anchor="middle" x="153.393" y="-15.6701" font-family="Times New Roman,serif" font-size="14.00">+ Small_Sneaking</text>
</g>
<!-- Essence_Shadow -->
<g id="node2" class="node"><title>Essence_Shadow</title>
<ellipse fill="none" stroke="black" cx="75.3933" cy="-122.74" rx="75.2868" ry="18"/>
<text text-anchor="middle" x="75.3933" y="-119.04" font-family="Times New Roman,serif" font-size="14.00">Essence_Shadow</text>
</g>
<!-- Essence_Shadow&#45;&gt;LeatherHelmet
+ Small_Sneaking -->
<g id="edge1" class="edge"><title>Essence_Shadow&#45;&gt;LeatherHelmet
+ Small_Sneaking</title>
<path fill="none" stroke="black" d="M89.3381,-104.958C99.4687,-92.7663 113.511,-75.8675 125.866,-60.9981"/>
<polygon fill="black" stroke="black" points="128.822,-62.917 132.521,-52.9889 123.438,-58.4433 128.822,-62.917"/>
<text text-anchor="middle" x="145.393" y="-75.5401" font-family="Times New Roman,serif" font-size="14.00">Crafting 4</text>
</g>
<!-- LeatherHelmet -->
<g id="node3" class="node"><title>LeatherHelmet</title>
<ellipse fill="none" stroke="black" cx="231.393" cy="-122.74" rx="63.0888" ry="18"/>
<text text-anchor="middle" x="231.393" y="-119.04" font-family="Times New Roman,serif" font-size="14.00">LeatherHelmet</text>
</g>
<!-- LeatherHelmet&#45;&gt;LeatherHelmet
+ Small_Sneaking -->
<g id="edge2" class="edge"><title>LeatherHelmet&#45;&gt;LeatherHelmet
+ Small_Sneaking</title>
<path fill="none" stroke="black" d="M217.448,-104.958C207.318,-92.7663 193.276,-75.8675 180.921,-60.9981"/>
<polygon fill="black" stroke="black" points="183.348,-58.4433 174.265,-52.9889 177.964,-62.917 183.348,-58.4433"/>
<text text-anchor="middle" x="229.393" y="-75.5401" font-family="Times New Roman,serif" font-size="14.00">Crafting 4</text>
</g>
</g>
</svg>
