<?xml version="1.0" encoding="UTF-8" standalone="no"?>
<!DOCTYPE svg PUBLIC "-//W3C//DTD SVG 1.1//EN"
 "http://www.w3.org/Graphics/SVG/1.1/DTD/svg11.dtd">
<!-- Generated by graphviz version 2.38.0 (20140413.2041)
 -->
<!-- Title: G Pages: 1 -->
<svg width="280pt" height="149pt"
 viewBox="0.00 0.00 280.39 148.74" xmlns="http://www.w3.org/2000/svg" xmlns:xlink="http://www.w3.org/1999/xlink">
<g id="graph0" class="graph" transform="scale(1 1) rotate(0) translate(4 144.74)">
<title>G</title>
<polygon fill="white" stroke="none" points="-4,4 -4,-144.74 276.389,-144.74 276.389,4 -4,4"/>
<!-- LeatherHelmet
+ Small_EarthResistance -->
<g id="node1" class="node"><title>LeatherHelmet
+ Small_EarthResistance</title>
<ellipse fill="none" stroke="black" cx="135.044" cy="-26.8701" rx="110.118" ry="26.7407"/>
<text text-anchor="middle" x="135.044" y="-30.6701" font-family="Times New Roman,serif" font-size="14.00">LeatherHelmet</text>
<text text-anchor="middle" x="135.044" y="-15.6701" font-family="Times New Roman,serif" font-size="14.00">+ Small_EarthResistance</text>
</g>
<!-- LeatherHelmet -->
<g id="node2" class="node"><title>LeatherHelmet</title>
<ellipse fill="none" stroke="black" cx="63.0444" cy="-122.74" rx="63.0888" ry="18"/>
<text text-anchor="middle" x="63.0444" y="-119.04" font-family="Times New Roman,serif" font-size="14.00">LeatherHelmet</text>
</g>
<!-- LeatherHelmet&#45;&gt;LeatherHelmet
+ Small_EarthResistance -->
<g id="edge1" class="edge"><title>LeatherHelmet&#45;&gt;LeatherHelmet
+ Small_EarthResistance</title>
<path fill="none" stroke="black" d="M75.9166,-104.958C85.1995,-92.8553 98.0405,-76.1139 109.385,-61.324"/>
<polygon fill="black" stroke="black" points="112.192,-63.4149 115.501,-53.35 106.638,-59.1546 112.192,-63.4149"/>
<text text-anchor="middle" x="130.044" y="-75.5401" font-family="Times New Roman,serif" font-size="14.00">Crafting 3</text>
</g>
<!-- Essence_Earth -->
<g id="node3" class="node"><title>Essence_Earth</title>
<ellipse fill="none" stroke="black" cx="208.044" cy="-122.74" rx="64.189" ry="18"/>
<text text-anchor="middle" x="208.044" y="-119.04" font-family="Times New Roman,serif" font-size="14.00">Essence_Earth</text>
</g>
<!-- Essence_Earth&#45;&gt;LeatherHelmet
+ Small_EarthResistance -->
<g id="edge2" class="edge"><title>Essence_Earth&#45;&gt;LeatherHelmet
+ Small_EarthResistance</title>
<path fill="none" stroke="black" d="M194.993,-104.958C185.582,-92.8553 172.562,-76.1139 161.061,-61.324"/>
<polygon fill="black" stroke="black" points="163.761,-59.0953 154.859,-53.35 158.235,-63.3926 163.761,-59.0953"/>
<text text-anchor="middle" x="208.044" y="-75.5401" font-family="Times New Roman,serif" font-size="14.00">Crafting 3</text>
</g>
</g>
</svg>
