<?xml version="1.0" encoding="UTF-8" standalone="no"?>
<!DOCTYPE svg PUBLIC "-//W3C//DTD SVG 1.1//EN"
 "http://www.w3.org/Graphics/SVG/1.1/DTD/svg11.dtd">
<!-- Generated by graphviz version 2.38.0 (20140413.2041)
 -->
<!-- Title: G Pages: 1 -->
<svg width="216pt" height="149pt"
 viewBox="0.00 0.00 215.55 148.74" xmlns="http://www.w3.org/2000/svg" xmlns:xlink="http://www.w3.org/1999/xlink">
<g id="graph0" class="graph" transform="scale(1 1) rotate(0) translate(4 144.74)">
<title>G</title>
<polygon fill="white" stroke="none" points="-4,4 -4,-144.74 211.547,-144.74 211.547,4 -4,4"/>
<!-- Club -->
<g id="node1" class="node"><title>Club</title>
<ellipse fill="none" stroke="black" cx="41.7523" cy="-122.74" rx="28.6953" ry="18"/>
<text text-anchor="middle" x="41.7523" y="-119.04" font-family="Times New Roman,serif" font-size="14.00">Club</text>
</g>
<!-- Club
+ Small_FireDamage -->
<g id="node2" class="node"><title>Club
+ Small_FireDamage</title>
<ellipse fill="none" stroke="black" cx="94.7523" cy="-26.8701" rx="94.5053" ry="26.7407"/>
<text text-anchor="middle" x="94.7523" y="-30.6701" font-family="Times New Roman,serif" font-size="14.00">Club</text>
<text text-anchor="middle" x="94.7523" y="-15.6701" font-family="Times New Roman,serif" font-size="14.00">+ Small_FireDamage</text>
</g>
<!-- Club&#45;&gt;Club
+ Small_FireDamage -->
<g id="edge1" class="edge"><title>Club&#45;&gt;Club
+ Small_FireDamage</title>
<path fill="none" stroke="black" d="M50.8009,-105.51C56.2697,-95.7189 63.3907,-83.0011 69.7523,-71.7401 71.442,-68.7491 73.2002,-65.6459 74.9663,-62.5348"/>
<polygon fill="black" stroke="black" points="78.0138,-64.256 79.9144,-53.8331 71.9288,-60.7959 78.0138,-64.256"/>
<text text-anchor="middle" x="97.7523" y="-75.5401" font-family="Times New Roman,serif" font-size="14.00">Crafting 5</text>
</g>
<!-- Essence_Fire -->
<g id="node3" class="node"><title>Essence_Fire</title>
<ellipse fill="none" stroke="black" cx="147.752" cy="-122.74" rx="59.5901" ry="18"/>
<text text-anchor="middle" x="147.752" y="-119.04" font-family="Times New Roman,serif" font-size="14.00">Essence_Fire</text>
</g>
<!-- Essence_Fire&#45;&gt;Club
+ Small_FireDamage -->
<g id="edge2" class="edge"><title>Essence_Fire&#45;&gt;Club
+ Small_FireDamage</title>
<path fill="none" stroke="black" d="M141.235,-104.664C137.23,-94.8057 131.73,-82.3057 125.752,-71.7401 123.898,-68.4628 121.858,-65.1281 119.736,-61.8355"/>
<polygon fill="black" stroke="black" points="122.479,-59.6418 114.002,-53.2868 116.666,-63.5413 122.479,-59.6418"/>
<text text-anchor="middle" x="160.752" y="-75.5401" font-family="Times New Roman,serif" font-size="14.00">Crafting 5</text>
</g>
</g>
</svg>
