<?xml version="1.0" encoding="UTF-8" standalone="no"?>
<!DOCTYPE svg PUBLIC "-//W3C//DTD SVG 1.1//EN"
 "http://www.w3.org/Graphics/SVG/1.1/DTD/svg11.dtd">
<!-- Generated by graphviz version 2.38.0 (20140413.2041)
 -->
<!-- Title: G Pages: 1 -->
<svg width="856pt" height="392pt"
 viewBox="0.00 0.00 855.59 392.00" xmlns="http://www.w3.org/2000/svg" xmlns:xlink="http://www.w3.org/1999/xlink">
<g id="graph0" class="graph" transform="scale(1 1) rotate(0) translate(4 388)">
<title>G</title>
<polygon fill="white" stroke="none" points="-4,4 -4,-388 851.594,-388 851.594,4 -4,4"/>
<!-- Pouch_Dust_Pixie -->
<g id="node1" class="node"><title>Pouch_Dust_Pixie</title>
<ellipse fill="none" stroke="black" cx="507.397" cy="-192" rx="78.7863" ry="18"/>
<text text-anchor="middle" x="507.397" y="-188.3" font-family="Times New Roman,serif" font-size="14.00">Pouch_Dust_Pixie</text>
</g>
<!-- Feather_A_Magic -->
<g id="node2" class="node"><title>Feather_A_Magic</title>
<ellipse fill="none" stroke="black" cx="507.397" cy="-105" rx="76.0865" ry="18"/>
<text text-anchor="middle" x="507.397" y="-101.3" font-family="Times New Roman,serif" font-size="14.00">Feather_A_Magic</text>
</g>
<!-- Pouch_Dust_Pixie&#45;&gt;Feather_A_Magic -->
<g id="edge1" class="edge"><title>Pouch_Dust_Pixie&#45;&gt;Feather_A_Magic</title>
<path fill="none" stroke="black" d="M507.397,-173.799C507.397,-162.163 507.397,-146.548 507.397,-133.237"/>
<polygon fill="black" stroke="black" points="510.897,-133.175 507.397,-123.175 503.897,-133.175 510.897,-133.175"/>
<text text-anchor="middle" x="535.397" y="-144.8" font-family="Times New Roman,serif" font-size="14.00">Crafting 1</text>
</g>
<!-- Feather_MagicBelt -->
<g id="node4" class="node"><title>Feather_MagicBelt</title>
<ellipse fill="none" stroke="black" cx="591.397" cy="-18" rx="79.0865" ry="18"/>
<text text-anchor="middle" x="591.397" y="-14.3" font-family="Times New Roman,serif" font-size="14.00">Feather_MagicBelt</text>
</g>
<!-- Feather_A_Magic&#45;&gt;Feather_MagicBelt -->
<g id="edge2" class="edge"><title>Feather_A_Magic&#45;&gt;Feather_MagicBelt</title>
<path fill="none" stroke="black" d="M523.992,-87.2067C536.418,-74.6335 553.595,-57.252 567.499,-43.1825"/>
<polygon fill="black" stroke="black" points="570.296,-45.3314 574.836,-35.7584 565.317,-40.411 570.296,-45.3314"/>
<text text-anchor="middle" x="583.397" y="-57.8" font-family="Times New Roman,serif" font-size="14.00">Crafting 1</text>
</g>
<!-- Dagger -->
<g id="node3" class="node"><title>Dagger</title>
<ellipse fill="none" stroke="black" cx="36.3968" cy="-279" rx="36.2938" ry="18"/>
<text text-anchor="middle" x="36.3968" y="-275.3" font-family="Times New Roman,serif" font-size="14.00">Dagger</text>
</g>
<!-- Feather -->
<g id="node14" class="node"><title>Feather</title>
<ellipse fill="none" stroke="black" cx="165.397" cy="-192" rx="37.8943" ry="18"/>
<text text-anchor="middle" x="165.397" y="-188.3" font-family="Times New Roman,serif" font-size="14.00">Feather</text>
</g>
<!-- Dagger&#45;&gt;Feather -->
<g id="edge3" class="edge"><title>Dagger&#45;&gt;Feather</title>
<path fill="none" stroke="black" d="M41.1618,-261.051C45.0048,-250.232 51.438,-236.662 61.3968,-228 77.751,-213.775 100.111,-205.281 119.908,-200.233"/>
<polygon fill="black" stroke="black" points="120.735,-203.634 129.682,-197.959 119.149,-196.816 120.735,-203.634"/>
<text text-anchor="middle" x="89.3968" y="-231.8" font-family="Times New Roman,serif" font-size="14.00">Crafting 0</text>
</g>
<!-- Bone -->
<g id="node5" class="node"><title>Bone</title>
<ellipse fill="none" stroke="black" cx="208.397" cy="-366" rx="29.795" ry="18"/>
<text text-anchor="middle" x="208.397" y="-362.3" font-family="Times New Roman,serif" font-size="14.00">Bone</text>
</g>
<!-- Pouch_Dust_Bone -->
<g id="node6" class="node"><title>Pouch_Dust_Bone</title>
<ellipse fill="none" stroke="black" cx="334.397" cy="-279" rx="79.8859" ry="18"/>
<text text-anchor="middle" x="334.397" y="-275.3" font-family="Times New Roman,serif" font-size="14.00">Pouch_Dust_Bone</text>
</g>
<!-- Bone&#45;&gt;Pouch_Dust_Bone -->
<g id="edge18" class="edge"><title>Bone&#45;&gt;Pouch_Dust_Bone</title>
<path fill="none" stroke="black" d="M223.171,-349.817C233.966,-339.239 249.298,-325.246 264.397,-315 272.407,-309.564 281.381,-304.442 290.162,-299.882"/>
<polygon fill="black" stroke="black" points="291.83,-302.96 299.193,-295.342 288.687,-296.706 291.83,-302.96"/>
<text text-anchor="middle" x="292.397" y="-318.8" font-family="Times New Roman,serif" font-size="14.00">Crafting 0</text>
</g>
<!-- Pouch_Dust_Bone&#45;&gt;Pouch_Dust_Pixie -->
<g id="edge4" class="edge"><title>Pouch_Dust_Bone&#45;&gt;Pouch_Dust_Pixie</title>
<path fill="none" stroke="black" d="M366.128,-262.41C394.416,-248.511 435.98,-228.089 466.706,-212.993"/>
<polygon fill="black" stroke="black" points="468.435,-216.043 475.867,-208.491 465.348,-209.76 468.435,-216.043"/>
<text text-anchor="middle" x="459.397" y="-231.8" font-family="Times New Roman,serif" font-size="14.00">Crafting 0</text>
</g>
<!-- Pillow -->
<g id="node7" class="node"><title>Pillow</title>
<ellipse fill="none" stroke="black" cx="124.397" cy="-279" rx="33.2948" ry="18"/>
<text text-anchor="middle" x="124.397" y="-275.3" font-family="Times New Roman,serif" font-size="14.00">Pillow</text>
</g>
<!-- Pillow&#45;&gt;Feather -->
<g id="edge17" class="edge"><title>Pillow&#45;&gt;Feather</title>
<path fill="none" stroke="black" d="M120.962,-261.033C119.745,-250.981 119.671,-238.248 124.397,-228 126.908,-222.555 130.729,-217.644 135.048,-213.34"/>
<polygon fill="black" stroke="black" points="137.43,-215.906 142.644,-206.683 132.816,-210.642 137.43,-215.906"/>
<text text-anchor="middle" x="152.397" y="-231.8" font-family="Times New Roman,serif" font-size="14.00">Crafting 0</text>
</g>
<!-- Rope -->
<g id="node8" class="node"><title>Rope</title>
<ellipse fill="none" stroke="black" cx="659.397" cy="-105" rx="30.5947" ry="18"/>
<text text-anchor="middle" x="659.397" y="-101.3" font-family="Times New Roman,serif" font-size="14.00">Rope</text>
</g>
<!-- Rope&#45;&gt;Feather_MagicBelt -->
<g id="edge6" class="edge"><title>Rope&#45;&gt;Feather_MagicBelt</title>
<path fill="none" stroke="black" d="M646.925,-88.4097C636.989,-75.9898 622.886,-58.3614 611.38,-43.9785"/>
<polygon fill="black" stroke="black" points="613.936,-41.5712 604.956,-35.949 608.47,-45.9441 613.936,-41.5712"/>
<text text-anchor="middle" x="658.397" y="-57.8" font-family="Times New Roman,serif" font-size="14.00">Crafting 1</text>
</g>
<!-- Moonstone -->
<g id="node9" class="node"><title>Moonstone</title>
<ellipse fill="none" stroke="black" cx="763.397" cy="-366" rx="51.9908" ry="18"/>
<text text-anchor="middle" x="763.397" y="-362.3" font-family="Times New Roman,serif" font-size="14.00">Moonstone</text>
</g>
<!-- Pouch_Dust_Moon -->
<g id="node18" class="node"><title>Pouch_Dust_Moon</title>
<ellipse fill="none" stroke="black" cx="684.397" cy="-279" rx="83.3857" ry="18"/>
<text text-anchor="middle" x="684.397" y="-275.3" font-family="Times New Roman,serif" font-size="14.00">Pouch_Dust_Moon</text>
</g>
<!-- Moonstone&#45;&gt;Pouch_Dust_Moon -->
<g id="edge7" class="edge"><title>Moonstone&#45;&gt;Pouch_Dust_Moon</title>
<path fill="none" stroke="black" d="M758.704,-347.811C755.218,-337.432 749.626,-324.434 741.397,-315 736.935,-309.885 731.539,-305.281 725.868,-301.221"/>
<polygon fill="black" stroke="black" points="727.715,-298.247 717.439,-295.667 723.863,-304.092 727.715,-298.247"/>
<text text-anchor="middle" x="778.397" y="-318.8" font-family="Times New Roman,serif" font-size="14.00">Crafting 0</text>
</g>
<!-- Pouch_Dust_Star -->
<g id="node10" class="node"><title>Pouch_Dust_Star</title>
<ellipse fill="none" stroke="black" cx="507.397" cy="-279" rx="75.2868" ry="18"/>
<text text-anchor="middle" x="507.397" y="-275.3" font-family="Times New Roman,serif" font-size="14.00">Pouch_Dust_Star</text>
</g>
<!-- Pouch_Dust_Star&#45;&gt;Pouch_Dust_Pixie -->
<g id="edge8" class="edge"><title>Pouch_Dust_Star&#45;&gt;Pouch_Dust_Pixie</title>
<path fill="none" stroke="black" d="M507.397,-260.799C507.397,-249.163 507.397,-233.548 507.397,-220.237"/>
<polygon fill="black" stroke="black" points="510.897,-220.175 507.397,-210.175 503.897,-220.175 510.897,-220.175"/>
<text text-anchor="middle" x="535.397" y="-231.8" font-family="Times New Roman,serif" font-size="14.00">Crafting 0</text>
</g>
<!-- Knife -->
<g id="node11" class="node"><title>Knife</title>
<ellipse fill="none" stroke="black" cx="206.397" cy="-279" rx="30.5947" ry="18"/>
<text text-anchor="middle" x="206.397" y="-275.3" font-family="Times New Roman,serif" font-size="14.00">Knife</text>
</g>
<!-- Knife&#45;&gt;Feather -->
<g id="edge9" class="edge"><title>Knife&#45;&gt;Feather</title>
<path fill="none" stroke="black" d="M199.405,-261.174C195.242,-251.399 189.742,-238.899 184.397,-228 182.905,-224.958 181.288,-221.799 179.649,-218.678"/>
<polygon fill="black" stroke="black" points="182.582,-216.741 174.766,-209.588 176.415,-220.053 182.582,-216.741"/>
<text text-anchor="middle" x="220.397" y="-231.8" font-family="Times New Roman,serif" font-size="14.00">Crafting 0</text>
</g>
<!-- Skull_Human -->
<g id="node12" class="node"><title>Skull_Human</title>
<ellipse fill="none" stroke="black" cx="316.397" cy="-366" rx="59.5901" ry="18"/>
<text text-anchor="middle" x="316.397" y="-362.3" font-family="Times New Roman,serif" font-size="14.00">Skull_Human</text>
</g>
<!-- Skull_Human&#45;&gt;Pouch_Dust_Bone -->
<g id="edge10" class="edge"><title>Skull_Human&#45;&gt;Pouch_Dust_Bone</title>
<path fill="none" stroke="black" d="M320.039,-347.799C322.504,-336.163 325.81,-320.548 328.629,-307.237"/>
<polygon fill="black" stroke="black" points="332.112,-307.684 330.76,-297.175 325.264,-306.233 332.112,-307.684"/>
<text text-anchor="middle" x="355.397" y="-318.8" font-family="Times New Roman,serif" font-size="14.00">Crafting 0</text>
</g>
<!-- Herb_Stardust -->
<g id="node13" class="node"><title>Herb_Stardust</title>
<ellipse fill="none" stroke="black" cx="457.397" cy="-366" rx="63.8893" ry="18"/>
<text text-anchor="middle" x="457.397" y="-362.3" font-family="Times New Roman,serif" font-size="14.00">Herb_Stardust</text>
</g>
<!-- Herb_Stardust&#45;&gt;Pouch_Dust_Star -->
<g id="edge14" class="edge"><title>Herb_Stardust&#45;&gt;Pouch_Dust_Star</title>
<path fill="none" stroke="black" d="M448.878,-347.827C445.132,-337.702 442.723,-324.964 448.397,-315 451.568,-309.431 456.014,-304.657 461.057,-300.589"/>
<polygon fill="black" stroke="black" points="463.191,-303.367 469.377,-294.766 459.177,-297.632 463.191,-303.367"/>
<text text-anchor="middle" x="476.397" y="-318.8" font-family="Times New Roman,serif" font-size="14.00">Crafting 0</text>
</g>
<!-- Feather&#45;&gt;Feather_A_Magic -->
<g id="edge15" class="edge"><title>Feather&#45;&gt;Feather_A_Magic</title>
<path fill="none" stroke="black" d="M198.189,-182.85C255.433,-168.622 374.397,-139.056 446.93,-121.028"/>
<polygon fill="black" stroke="black" points="447.985,-124.373 456.846,-118.564 446.297,-117.579 447.985,-124.373"/>
<text text-anchor="middle" x="385.397" y="-144.8" font-family="Times New Roman,serif" font-size="14.00">Crafting 1</text>
</g>
<!-- Wool -->
<g id="node15" class="node"><title>Wool</title>
<ellipse fill="none" stroke="black" cx="816.397" cy="-279" rx="31.3957" ry="18"/>
<text text-anchor="middle" x="816.397" y="-275.3" font-family="Times New Roman,serif" font-size="14.00">Wool</text>
</g>
<!-- Yarn_A_Wool -->
<g id="node16" class="node"><title>Yarn_A_Wool</title>
<ellipse fill="none" stroke="black" cx="742.397" cy="-192" rx="64.9885" ry="18"/>
<text text-anchor="middle" x="742.397" y="-188.3" font-family="Times New Roman,serif" font-size="14.00">Yarn_A_Wool</text>
</g>
<!-- Wool&#45;&gt;Yarn_A_Wool -->
<g id="edge16" class="edge"><title>Wool&#45;&gt;Yarn_A_Wool</title>
<path fill="none" stroke="black" d="M802.824,-262.41C791.84,-249.793 776.176,-231.801 763.549,-217.297"/>
<polygon fill="black" stroke="black" points="766.101,-214.898 756.895,-209.654 760.822,-219.494 766.101,-214.898"/>
<text text-anchor="middle" x="811.397" y="-231.8" font-family="Times New Roman,serif" font-size="14.00">Crafting 0</text>
</g>
<!-- Yarn_A_Wool&#45;&gt;Rope -->
<g id="edge5" class="edge"><title>Yarn_A_Wool&#45;&gt;Rope</title>
<path fill="none" stroke="black" d="M725.999,-174.207C713.243,-161.144 695.419,-142.89 681.42,-128.554"/>
<polygon fill="black" stroke="black" points="683.583,-125.759 674.092,-121.049 678.574,-130.649 683.583,-125.759"/>
<text text-anchor="middle" x="733.397" y="-144.8" font-family="Times New Roman,serif" font-size="14.00">Crafting 0</text>
</g>
<!-- MortarPestle -->
<g id="node17" class="node"><title>MortarPestle</title>
<ellipse fill="none" stroke="black" cx="605.397" cy="-366" rx="57.3905" ry="18"/>
<text text-anchor="middle" x="605.397" y="-362.3" font-family="Times New Roman,serif" font-size="14.00">MortarPestle</text>
</g>
<!-- MortarPestle&#45;&gt;Pouch_Dust_Bone -->
<g id="edge11" class="edge"><title>MortarPestle&#45;&gt;Pouch_Dust_Bone</title>
<path fill="none" stroke="black" d="M569.278,-351.99C554.611,-346.098 537.771,-338.535 523.397,-330 514.146,-324.507 514.151,-319.54 504.397,-315 499.545,-312.742 447.718,-302.21 402.551,-293.283"/>
<polygon fill="black" stroke="black" points="403.225,-289.849 392.737,-291.348 401.871,-296.717 403.225,-289.849"/>
<text text-anchor="middle" x="551.397" y="-318.8" font-family="Times New Roman,serif" font-size="14.00">Crafting 0</text>
</g>
<!-- MortarPestle&#45;&gt;Pouch_Dust_Star -->
<g id="edge12" class="edge"><title>MortarPestle&#45;&gt;Pouch_Dust_Star</title>
<path fill="none" stroke="black" d="M601.24,-347.931C597.916,-337.337 592.306,-324.062 583.397,-315 576.89,-308.382 568.898,-302.887 560.566,-298.367"/>
<polygon fill="black" stroke="black" points="561.96,-295.151 551.447,-293.838 558.846,-301.42 561.96,-295.151"/>
<text text-anchor="middle" x="622.397" y="-318.8" font-family="Times New Roman,serif" font-size="14.00">Crafting 0</text>
</g>
<!-- MortarPestle&#45;&gt;Pouch_Dust_Moon -->
<g id="edge13" class="edge"><title>MortarPestle&#45;&gt;Pouch_Dust_Moon</title>
<path fill="none" stroke="black" d="M636.069,-350.747C645.426,-345.276 655.145,-338.313 662.397,-330 668.247,-323.293 672.765,-314.785 676.14,-306.697"/>
<polygon fill="black" stroke="black" points="679.472,-307.781 679.704,-297.189 672.917,-305.324 679.472,-307.781"/>
<text text-anchor="middle" x="700.397" y="-318.8" font-family="Times New Roman,serif" font-size="14.00">Crafting 0</text>
</g>
<!-- Pouch_Dust_Moon&#45;&gt;Pouch_Dust_Pixie -->
<g id="edge19" class="edge"><title>Pouch_Dust_Moon&#45;&gt;Pouch_Dust_Pixie</title>
<path fill="none" stroke="black" d="M651.932,-262.41C622.99,-248.511 580.464,-228.089 549.028,-212.993"/>
<polygon fill="black" stroke="black" points="550.185,-209.665 539.655,-208.491 547.155,-215.976 550.185,-209.665"/>
<text text-anchor="middle" x="635.397" y="-231.8" font-family="Times New Roman,serif" font-size="14.00">Crafting 0</text>
</g>
</g>
</svg>
