<?xml version="1.0" encoding="UTF-8" standalone="no"?>
<!DOCTYPE svg PUBLIC "-//W3C//DTD SVG 1.1//EN"
 "http://www.w3.org/Graphics/SVG/1.1/DTD/svg11.dtd">
<!-- Generated by graphviz version 2.38.0 (20140413.2041)
 -->
<!-- Title: G Pages: 1 -->
<svg width="217pt" height="149pt"
 viewBox="0.00 0.00 216.54 148.74" xmlns="http://www.w3.org/2000/svg" xmlns:xlink="http://www.w3.org/1999/xlink">
<g id="graph0" class="graph" transform="scale(1 1) rotate(0) translate(4 144.74)">
<title>G</title>
<polygon fill="white" stroke="none" points="-4,4 -4,-144.74 212.545,-144.74 212.545,4 -4,4"/>
<!-- Essence_Air -->
<g id="node1" class="node"><title>Essence_Air</title>
<ellipse fill="none" stroke="black" cx="56.545" cy="-122.74" rx="56.59" ry="18"/>
<text text-anchor="middle" x="56.545" y="-119.04" font-family="Times New Roman,serif" font-size="14.00">Essence_Air</text>
</g>
<!-- Sword
+ Small_AirDamage -->
<g id="node2" class="node"><title>Sword
+ Small_AirDamage</title>
<ellipse fill="none" stroke="black" cx="111.545" cy="-26.8701" rx="91.4341" ry="26.7407"/>
<text text-anchor="middle" x="111.545" y="-30.6701" font-family="Times New Roman,serif" font-size="14.00">Sword</text>
<text text-anchor="middle" x="111.545" y="-15.6701" font-family="Times New Roman,serif" font-size="14.00">+ Small_AirDamage</text>
</g>
<!-- Essence_Air&#45;&gt;Sword
+ Small_AirDamage -->
<g id="edge1" class="edge"><title>Essence_Air&#45;&gt;Sword
+ Small_AirDamage</title>
<path fill="none" stroke="black" d="M66.3779,-104.958C73.2866,-93.1668 82.775,-76.9725 91.2725,-62.4696"/>
<polygon fill="black" stroke="black" points="94.3679,-64.1101 96.4034,-53.7126 88.3282,-60.5713 94.3679,-64.1101"/>
<text text-anchor="middle" x="114.545" y="-75.5401" font-family="Times New Roman,serif" font-size="14.00">Crafting 5</text>
</g>
<!-- Sword -->
<g id="node3" class="node"><title>Sword</title>
<ellipse fill="none" stroke="black" cx="166.545" cy="-122.74" rx="35.194" ry="18"/>
<text text-anchor="middle" x="166.545" y="-119.04" font-family="Times New Roman,serif" font-size="14.00">Sword</text>
</g>
<!-- Sword&#45;&gt;Sword
+ Small_AirDamage -->
<g id="edge2" class="edge"><title>Sword&#45;&gt;Sword
+ Small_AirDamage</title>
<path fill="none" stroke="black" d="M160.145,-104.597C156.179,-94.7156 150.679,-82.2156 144.545,-71.7401 142.543,-68.3218 140.322,-64.8571 138.005,-61.4512"/>
<polygon fill="black" stroke="black" points="140.763,-59.2908 132.118,-53.1659 135.057,-63.345 140.763,-59.2908"/>
<text text-anchor="middle" x="180.545" y="-75.5401" font-family="Times New Roman,serif" font-size="14.00">Crafting 5</text>
</g>
</g>
</svg>
