<?xml version="1.0" encoding="UTF-8" standalone="no"?>
<!DOCTYPE svg PUBLIC "-//W3C//DTD SVG 1.1//EN"
 "http://www.w3.org/Graphics/SVG/1.1/DTD/svg11.dtd">
<!-- Generated by graphviz version 2.38.0 (20140413.2041)
 -->
<!-- Title: G Pages: 1 -->
<svg width="236pt" height="149pt"
 viewBox="0.00 0.00 235.83 148.74" xmlns="http://www.w3.org/2000/svg" xmlns:xlink="http://www.w3.org/1999/xlink">
<g id="graph0" class="graph" transform="scale(1 1) rotate(0) translate(4 144.74)">
<title>G</title>
<polygon fill="white" stroke="none" points="-4,4 -4,-144.74 231.832,-144.74 231.832,4 -4,4"/>
<!-- Essence_Water -->
<g id="node1" class="node"><title>Essence_Water</title>
<ellipse fill="none" stroke="black" cx="67.594" cy="-122.74" rx="67.6881" ry="18"/>
<text text-anchor="middle" x="67.594" y="-119.04" font-family="Times New Roman,serif" font-size="14.00">Essence_Water</text>
</g>
<!-- Staff
+ Small_WaterDamage -->
<g id="node2" class="node"><title>Staff
+ Small_WaterDamage</title>
<ellipse fill="none" stroke="black" cx="124.594" cy="-26.8701" rx="103.476" ry="26.7407"/>
<text text-anchor="middle" x="124.594" y="-30.6701" font-family="Times New Roman,serif" font-size="14.00">Staff</text>
<text text-anchor="middle" x="124.594" y="-15.6701" font-family="Times New Roman,serif" font-size="14.00">+ Small_WaterDamage</text>
</g>
<!-- Essence_Water&#45;&gt;Staff
+ Small_WaterDamage -->
<g id="edge2" class="edge"><title>Essence_Water&#45;&gt;Staff
+ Small_WaterDamage</title>
<path fill="none" stroke="black" d="M74.3369,-104.583C78.5012,-94.6971 84.2512,-82.1971 90.594,-71.7401 92.6164,-68.406 94.849,-65.0297 97.1748,-61.7078"/>
<polygon fill="black" stroke="black" points="100.011,-63.7582 103.082,-53.6179 94.358,-59.6303 100.011,-63.7582"/>
<text text-anchor="middle" x="118.594" y="-75.5401" font-family="Times New Roman,serif" font-size="14.00">Crafting 5</text>
</g>
<!-- Staff -->
<g id="node3" class="node"><title>Staff</title>
<ellipse fill="none" stroke="black" cx="181.594" cy="-122.74" rx="28.6953" ry="18"/>
<text text-anchor="middle" x="181.594" y="-119.04" font-family="Times New Roman,serif" font-size="14.00">Staff</text>
</g>
<!-- Staff&#45;&gt;Staff
+ Small_WaterDamage -->
<g id="edge1" class="edge"><title>Staff&#45;&gt;Staff
+ Small_WaterDamage</title>
<path fill="none" stroke="black" d="M171.665,-105.389C164.481,-93.5572 154.507,-77.1323 145.589,-62.4457"/>
<polygon fill="black" stroke="black" points="148.389,-60.3135 140.207,-53.5825 142.406,-63.9467 148.389,-60.3135"/>
<text text-anchor="middle" x="187.594" y="-75.5401" font-family="Times New Roman,serif" font-size="14.00">Crafting 5</text>
</g>
</g>
</svg>
