<?xml version="1.0" encoding="UTF-8" standalone="no"?>
<!DOCTYPE svg PUBLIC "-//W3C//DTD SVG 1.1//EN"
 "http://www.w3.org/Graphics/SVG/1.1/DTD/svg11.dtd">
<!-- Generated by graphviz version 2.38.0 (20140413.2041)
 -->
<!-- Title: G Pages: 1 -->
<svg width="266pt" height="149pt"
 viewBox="0.00 0.00 265.59 148.74" xmlns="http://www.w3.org/2000/svg" xmlns:xlink="http://www.w3.org/1999/xlink">
<g id="graph0" class="graph" transform="scale(1 1) rotate(0) translate(4 144.74)">
<title>G</title>
<polygon fill="white" stroke="none" points="-4,4 -4,-144.74 261.589,-144.74 261.589,4 -4,4"/>
<!-- Essence_Air -->
<g id="node1" class="node"><title>Essence_Air</title>
<ellipse fill="none" stroke="black" cx="56.545" cy="-122.74" rx="56.59" ry="18"/>
<text text-anchor="middle" x="56.545" y="-119.04" font-family="Times New Roman,serif" font-size="14.00">Essence_Air</text>
</g>
<!-- LeatherHelmet
+ Small_AirResistance -->
<g id="node3" class="node"><title>LeatherHelmet
+ Small_AirResistance</title>
<ellipse fill="none" stroke="black" cx="125.545" cy="-26.8701" rx="101.647" ry="26.7407"/>
<text text-anchor="middle" x="125.545" y="-30.6701" font-family="Times New Roman,serif" font-size="14.00">LeatherHelmet</text>
<text text-anchor="middle" x="125.545" y="-15.6701" font-family="Times New Roman,serif" font-size="14.00">+ Small_AirResistance</text>
</g>
<!-- Essence_Air&#45;&gt;LeatherHelmet
+ Small_AirResistance -->
<g id="edge1" class="edge"><title>Essence_Air&#45;&gt;LeatherHelmet
+ Small_AirResistance</title>
<path fill="none" stroke="black" d="M68.8808,-104.958C77.6946,-92.9674 89.8553,-76.4235 100.652,-61.7353"/>
<polygon fill="black" stroke="black" points="103.713,-63.4804 106.816,-53.35 98.0729,-59.3345 103.713,-63.4804"/>
<text text-anchor="middle" x="121.545" y="-75.5401" font-family="Times New Roman,serif" font-size="14.00">Crafting 3</text>
</g>
<!-- LeatherHelmet -->
<g id="node2" class="node"><title>LeatherHelmet</title>
<ellipse fill="none" stroke="black" cx="194.545" cy="-122.74" rx="63.0888" ry="18"/>
<text text-anchor="middle" x="194.545" y="-119.04" font-family="Times New Roman,serif" font-size="14.00">LeatherHelmet</text>
</g>
<!-- LeatherHelmet&#45;&gt;LeatherHelmet
+ Small_AirResistance -->
<g id="edge2" class="edge"><title>LeatherHelmet&#45;&gt;LeatherHelmet
+ Small_AirResistance</title>
<path fill="none" stroke="black" d="M182.209,-104.958C173.395,-92.9674 161.235,-76.4235 150.438,-61.7353"/>
<polygon fill="black" stroke="black" points="153.017,-59.3345 144.274,-53.35 147.377,-63.4804 153.017,-59.3345"/>
<text text-anchor="middle" x="196.545" y="-75.5401" font-family="Times New Roman,serif" font-size="14.00">Crafting 3</text>
</g>
</g>
</svg>
