<?xml version="1.0" encoding="UTF-8" standalone="no"?>
<!DOCTYPE svg PUBLIC "-//W3C//DTD SVG 1.1//EN"
 "http://www.w3.org/Graphics/SVG/1.1/DTD/svg11.dtd">
<!-- Generated by graphviz version 2.38.0 (20140413.2041)
 -->
<!-- Title: G Pages: 1 -->
<svg width="1734pt" height="566pt"
 viewBox="0.00 0.00 1733.58 566.00" xmlns="http://www.w3.org/2000/svg" xmlns:xlink="http://www.w3.org/1999/xlink">
<g id="graph0" class="graph" transform="scale(1 1) rotate(0) translate(4 562)">
<title>G</title>
<polygon fill="white" stroke="none" points="-4,4 -4,-562 1729.58,-562 1729.58,4 -4,4"/>
<!-- Log -->
<g id="node1" class="node"><title>Log</title>
<ellipse fill="none" stroke="black" cx="573.344" cy="-540" rx="27" ry="18"/>
<text text-anchor="middle" x="573.344" y="-536.3" font-family="Times New Roman,serif" font-size="14.00">Log</text>
</g>
<!-- Scraps_Wood -->
<g id="node33" class="node"><title>Scraps_Wood</title>
<ellipse fill="none" stroke="black" cx="612.344" cy="-453" rx="64.189" ry="18"/>
<text text-anchor="middle" x="612.344" y="-449.3" font-family="Times New Roman,serif" font-size="14.00">Scraps_Wood</text>
</g>
<!-- Log&#45;&gt;Scraps_Wood -->
<g id="edge1" class="edge"><title>Log&#45;&gt;Scraps_Wood</title>
<path fill="none" stroke="black" d="M570.464,-522.065C569.523,-512.024 569.709,-499.291 574.344,-489 576.218,-484.84 578.848,-480.95 581.86,-477.389"/>
<polygon fill="black" stroke="black" points="584.45,-479.746 588.916,-470.138 579.434,-474.864 584.45,-479.746"/>
<text text-anchor="middle" x="602.344" y="-492.8" font-family="Times New Roman,serif" font-size="14.00">Crafting 0</text>
</g>
<!-- Scraps_Wood_A_Mush -->
<g id="node2" class="node"><title>Scraps_Wood_A_Mush</title>
<ellipse fill="none" stroke="black" cx="399.344" cy="-366" rx="100.983" ry="18"/>
<text text-anchor="middle" x="399.344" y="-362.3" font-family="Times New Roman,serif" font-size="14.00">Scraps_Wood_A_Mush</text>
</g>
<!-- BOOK_Paper_Sheet -->
<g id="node10" class="node"><title>BOOK_Paper_Sheet</title>
<ellipse fill="none" stroke="black" cx="399.344" cy="-279" rx="87.1846" ry="18"/>
<text text-anchor="middle" x="399.344" y="-275.3" font-family="Times New Roman,serif" font-size="14.00">BOOK_Paper_Sheet</text>
</g>
<!-- Scraps_Wood_A_Mush&#45;&gt;BOOK_Paper_Sheet -->
<g id="edge18" class="edge"><title>Scraps_Wood_A_Mush&#45;&gt;BOOK_Paper_Sheet</title>
<path fill="none" stroke="black" d="M399.344,-347.799C399.344,-336.163 399.344,-320.548 399.344,-307.237"/>
<polygon fill="black" stroke="black" points="402.844,-307.175 399.344,-297.175 395.844,-307.175 402.844,-307.175"/>
<text text-anchor="middle" x="427.344" y="-318.8" font-family="Times New Roman,serif" font-size="14.00">Crafting 0</text>
</g>
<!-- Pouch_Dust_Bone -->
<g id="node3" class="node"><title>Pouch_Dust_Bone</title>
<ellipse fill="none" stroke="black" cx="846.344" cy="-366" rx="79.8859" ry="18"/>
<text text-anchor="middle" x="846.344" y="-362.3" font-family="Times New Roman,serif" font-size="14.00">Pouch_Dust_Bone</text>
</g>
<!-- Pouch_Dust_Pixie -->
<g id="node17" class="node"><title>Pouch_Dust_Pixie</title>
<ellipse fill="none" stroke="black" cx="1027.34" cy="-279" rx="78.7863" ry="18"/>
<text text-anchor="middle" x="1027.34" y="-275.3" font-family="Times New Roman,serif" font-size="14.00">Pouch_Dust_Pixie</text>
</g>
<!-- Pouch_Dust_Bone&#45;&gt;Pouch_Dust_Pixie -->
<g id="edge2" class="edge"><title>Pouch_Dust_Bone&#45;&gt;Pouch_Dust_Pixie</title>
<path fill="none" stroke="black" d="M879.542,-349.41C909.267,-335.451 953.001,-314.913 985.187,-299.798"/>
<polygon fill="black" stroke="black" points="986.793,-302.91 994.357,-295.491 983.817,-296.574 986.793,-302.91"/>
<text text-anchor="middle" x="976.344" y="-318.8" font-family="Times New Roman,serif" font-size="14.00">Crafting 0</text>
</g>
<!-- Bucket_A_Water -->
<g id="node4" class="node"><title>Bucket_A_Water</title>
<ellipse fill="none" stroke="black" cx="324.344" cy="-453" rx="74.187" ry="18"/>
<text text-anchor="middle" x="324.344" y="-449.3" font-family="Times New Roman,serif" font-size="14.00">Bucket_A_Water</text>
</g>
<!-- Bucket_A_Water&#45;&gt;Scraps_Wood_A_Mush -->
<g id="edge3" class="edge"><title>Bucket_A_Water&#45;&gt;Scraps_Wood_A_Mush</title>
<path fill="none" stroke="black" d="M339.162,-435.207C350.082,-422.831 365.112,-405.796 377.42,-391.847"/>
<polygon fill="black" stroke="black" points="380.309,-393.863 384.301,-384.049 375.06,-389.232 380.309,-393.863"/>
<text text-anchor="middle" x="394.344" y="-405.8" font-family="Times New Roman,serif" font-size="14.00">Crafting 0</text>
</g>
<!-- Herb_Stardust -->
<g id="node5" class="node"><title>Herb_Stardust</title>
<ellipse fill="none" stroke="black" cx="1248.34" cy="-453" rx="63.8893" ry="18"/>
<text text-anchor="middle" x="1248.34" y="-449.3" font-family="Times New Roman,serif" font-size="14.00">Herb_Stardust</text>
</g>
<!-- Pouch_Dust_Star -->
<g id="node25" class="node"><title>Pouch_Dust_Star</title>
<ellipse fill="none" stroke="black" cx="1204.34" cy="-366" rx="75.2868" ry="18"/>
<text text-anchor="middle" x="1204.34" y="-362.3" font-family="Times New Roman,serif" font-size="14.00">Pouch_Dust_Star</text>
</g>
<!-- Herb_Stardust&#45;&gt;Pouch_Dust_Star -->
<g id="edge9" class="edge"><title>Herb_Stardust&#45;&gt;Pouch_Dust_Star</title>
<path fill="none" stroke="black" d="M1241.61,-435.042C1237.53,-425.223 1232.03,-412.723 1226.34,-402 1224.76,-399.02 1223.02,-395.955 1221.23,-392.936"/>
<polygon fill="black" stroke="black" points="1224.05,-390.833 1215.83,-384.149 1218.08,-394.5 1224.05,-390.833"/>
<text text-anchor="middle" x="1261.34" y="-405.8" font-family="Times New Roman,serif" font-size="14.00">Crafting 0</text>
</g>
<!-- BOOK_Skill_Earth_Blank -->
<g id="node6" class="node"><title>BOOK_Skill_Earth_Blank</title>
<ellipse fill="none" stroke="black" cx="869.344" cy="-105" rx="106.681" ry="18"/>
<text text-anchor="middle" x="869.344" y="-101.3" font-family="Times New Roman,serif" font-size="14.00">BOOK_Skill_Earth_Blank</text>
</g>
<!-- SKILLBOOK_Projectile_PoisonDart -->
<g id="node11" class="node"><title>SKILLBOOK_Projectile_PoisonDart</title>
<ellipse fill="none" stroke="black" cx="1579.34" cy="-18" rx="146.474" ry="18"/>
<text text-anchor="middle" x="1579.34" y="-14.3" font-family="Times New Roman,serif" font-size="14.00">SKILLBOOK_Projectile_PoisonDart</text>
</g>
<!-- BOOK_Skill_Earth_Blank&#45;&gt;SKILLBOOK_Projectile_PoisonDart -->
<g id="edge5" class="edge"><title>BOOK_Skill_Earth_Blank&#45;&gt;SKILLBOOK_Projectile_PoisonDart</title>
<path fill="none" stroke="black" d="M943.449,-91.9734C957.024,-90.0758 971.089,-88.3109 984.344,-87 1142.44,-71.3656 1183.79,-89.3939 1341.34,-69 1398.22,-61.6376 1461.75,-48.0108 1508.86,-36.8404"/>
<polygon fill="black" stroke="black" points="1509.74,-40.2279 1518.65,-34.4972 1508.11,-33.4201 1509.74,-40.2279"/>
<text text-anchor="middle" x="1454.34" y="-57.8" font-family="Times New Roman,serif" font-size="14.00">Crafting 4</text>
</g>
<!-- SKILLBOOK_Boulder_BoulderDash -->
<g id="node18" class="node"><title>SKILLBOOK_Boulder_BoulderDash</title>
<ellipse fill="none" stroke="black" cx="1267.34" cy="-18" rx="147.574" ry="18"/>
<text text-anchor="middle" x="1267.34" y="-14.3" font-family="Times New Roman,serif" font-size="14.00">SKILLBOOK_Boulder_BoulderDash</text>
</g>
<!-- BOOK_Skill_Earth_Blank&#45;&gt;SKILLBOOK_Boulder_BoulderDash -->
<g id="edge7" class="edge"><title>BOOK_Skill_Earth_Blank&#45;&gt;SKILLBOOK_Boulder_BoulderDash</title>
<path fill="none" stroke="black" d="M946.229,-92.4704C1005.25,-83.5384 1079,-72.1678 1093.34,-69 1132.03,-60.4539 1174.81,-48.2008 1208.27,-37.9636"/>
<polygon fill="black" stroke="black" points="1209.37,-41.2877 1217.89,-34.9964 1207.3,-34.5985 1209.37,-41.2877"/>
<text text-anchor="middle" x="1178.34" y="-57.8" font-family="Times New Roman,serif" font-size="14.00">Crafting 4</text>
</g>
<!-- SKILLBOOK_Quake_Earthquake -->
<g id="node19" class="node"><title>SKILLBOOK_Quake_Earthquake</title>
<ellipse fill="none" stroke="black" cx="966.344" cy="-18" rx="135.676" ry="18"/>
<text text-anchor="middle" x="966.344" y="-14.3" font-family="Times New Roman,serif" font-size="14.00">SKILLBOOK_Quake_Earthquake</text>
</g>
<!-- BOOK_Skill_Earth_Blank&#45;&gt;SKILLBOOK_Quake_Earthquake -->
<g id="edge4" class="edge"><title>BOOK_Skill_Earth_Blank&#45;&gt;SKILLBOOK_Quake_Earthquake</title>
<path fill="none" stroke="black" d="M883.784,-86.9527C892.698,-76.872 904.635,-64.1367 916.344,-54 921.181,-49.813 926.517,-45.6541 931.849,-41.7431"/>
<polygon fill="black" stroke="black" points="934.034,-44.484 940.15,-35.8328 929.974,-38.7817 934.034,-44.484"/>
<text text-anchor="middle" x="944.344" y="-57.8" font-family="Times New Roman,serif" font-size="14.00">Crafting 4</text>
</g>
<!-- SKILLBOOK_Cone_OozeSpray -->
<g id="node35" class="node"><title>SKILLBOOK_Cone_OozeSpray</title>
<ellipse fill="none" stroke="black" cx="436.344" cy="-18" rx="131.877" ry="18"/>
<text text-anchor="middle" x="436.344" y="-14.3" font-family="Times New Roman,serif" font-size="14.00">SKILLBOOK_Cone_OozeSpray</text>
</g>
<!-- BOOK_Skill_Earth_Blank&#45;&gt;SKILLBOOK_Cone_OozeSpray -->
<g id="edge8" class="edge"><title>BOOK_Skill_Earth_Blank&#45;&gt;SKILLBOOK_Cone_OozeSpray</title>
<path fill="none" stroke="black" d="M809.7,-89.9879C790.891,-84.5663 770.337,-77.5708 752.344,-69 741.66,-63.9107 741.429,-58.1441 730.344,-54 666.211,-30.0235 645.333,-44.0979 577.344,-36 565.772,-34.6217 553.667,-33.1728 541.619,-31.7264"/>
<polygon fill="black" stroke="black" points="541.872,-28.2317 531.526,-30.5136 541.037,-35.1817 541.872,-28.2317"/>
<text text-anchor="middle" x="780.344" y="-57.8" font-family="Times New Roman,serif" font-size="14.00">Crafting 4</text>
</g>
<!-- SKILLBOOK_Shield_Earth -->
<g id="node36" class="node"><title>SKILLBOOK_Shield_Earth</title>
<ellipse fill="none" stroke="black" cx="699.344" cy="-18" rx="113.18" ry="18"/>
<text text-anchor="middle" x="699.344" y="-14.3" font-family="Times New Roman,serif" font-size="14.00">SKILLBOOK_Shield_Earth</text>
</g>
<!-- BOOK_Skill_Earth_Blank&#45;&gt;SKILLBOOK_Shield_Earth -->
<g id="edge6" class="edge"><title>BOOK_Skill_Earth_Blank&#45;&gt;SKILLBOOK_Shield_Earth</title>
<path fill="none" stroke="black" d="M853.811,-87.1039C843.077,-76.3079 827.967,-62.743 812.344,-54 799.603,-46.8694 785.224,-41 771.099,-36.2412"/>
<polygon fill="black" stroke="black" points="771.975,-32.8466 761.384,-33.1222 769.835,-39.5116 771.975,-32.8466"/>
<text text-anchor="middle" x="861.344" y="-57.8" font-family="Times New Roman,serif" font-size="14.00">Crafting 4</text>
</g>
<!-- Feather -->
<g id="node7" class="node"><title>Feather</title>
<ellipse fill="none" stroke="black" cx="1467.34" cy="-453" rx="37.8943" ry="18"/>
<text text-anchor="middle" x="1467.34" y="-449.3" font-family="Times New Roman,serif" font-size="14.00">Feather</text>
</g>
<!-- Feather_A_Quill -->
<g id="node23" class="node"><title>Feather_A_Quill</title>
<ellipse fill="none" stroke="black" cx="1467.34" cy="-366" rx="70.6878" ry="18"/>
<text text-anchor="middle" x="1467.34" y="-362.3" font-family="Times New Roman,serif" font-size="14.00">Feather_A_Quill</text>
</g>
<!-- Feather&#45;&gt;Feather_A_Quill -->
<g id="edge10" class="edge"><title>Feather&#45;&gt;Feather_A_Quill</title>
<path fill="none" stroke="black" d="M1467.34,-434.799C1467.34,-423.163 1467.34,-407.548 1467.34,-394.237"/>
<polygon fill="black" stroke="black" points="1470.84,-394.175 1467.34,-384.175 1463.84,-394.175 1470.84,-394.175"/>
<text text-anchor="middle" x="1495.34" y="-405.8" font-family="Times New Roman,serif" font-size="14.00">Crafting 0</text>
</g>
<!-- Knife -->
<g id="node8" class="node"><title>Knife</title>
<ellipse fill="none" stroke="black" cx="1370.34" cy="-540" rx="30.5947" ry="18"/>
<text text-anchor="middle" x="1370.34" y="-536.3" font-family="Times New Roman,serif" font-size="14.00">Knife</text>
</g>
<!-- Knife&#45;&gt;Feather -->
<g id="edge12" class="edge"><title>Knife&#45;&gt;Feather</title>
<path fill="none" stroke="black" d="M1379.9,-522.803C1386.65,-512.302 1396.41,-498.804 1407.34,-489 1414.81,-482.308 1423.75,-476.272 1432.43,-471.171"/>
<polygon fill="black" stroke="black" points="1434.28,-474.145 1441.29,-466.206 1430.86,-468.037 1434.28,-474.145"/>
<text text-anchor="middle" x="1435.34" y="-492.8" font-family="Times New Roman,serif" font-size="14.00">Crafting 0</text>
</g>
<!-- Knife&#45;&gt;Feather_A_Quill -->
<g id="edge11" class="edge"><title>Knife&#45;&gt;Feather_A_Quill</title>
<path fill="none" stroke="black" d="M1364.3,-522.354C1357.56,-500.798 1349.43,-462.712 1364.34,-435 1376.24,-412.892 1398.82,-396.777 1419.82,-385.801"/>
<polygon fill="black" stroke="black" points="1421.58,-388.833 1428.99,-381.262 1418.48,-382.558 1421.58,-388.833"/>
<text text-anchor="middle" x="1392.34" y="-449.3" font-family="Times New Roman,serif" font-size="14.00">Crafting 0</text>
</g>
<!-- Pouch_Dust_Moon -->
<g id="node9" class="node"><title>Pouch_Dust_Moon</title>
<ellipse fill="none" stroke="black" cx="1027.34" cy="-366" rx="83.3857" ry="18"/>
<text text-anchor="middle" x="1027.34" y="-362.3" font-family="Times New Roman,serif" font-size="14.00">Pouch_Dust_Moon</text>
</g>
<!-- Pouch_Dust_Moon&#45;&gt;Pouch_Dust_Pixie -->
<g id="edge13" class="edge"><title>Pouch_Dust_Moon&#45;&gt;Pouch_Dust_Pixie</title>
<path fill="none" stroke="black" d="M1027.34,-347.799C1027.34,-336.163 1027.34,-320.548 1027.34,-307.237"/>
<polygon fill="black" stroke="black" points="1030.84,-307.175 1027.34,-297.175 1023.84,-307.175 1030.84,-307.175"/>
<text text-anchor="middle" x="1055.34" y="-318.8" font-family="Times New Roman,serif" font-size="14.00">Crafting 0</text>
</g>
<!-- Scroll_Skill_Earth_Blank -->
<g id="node38" class="node"><title>Scroll_Skill_Earth_Blank</title>
<ellipse fill="none" stroke="black" cx="871.344" cy="-192" rx="102.082" ry="18"/>
<text text-anchor="middle" x="871.344" y="-188.3" font-family="Times New Roman,serif" font-size="14.00">Scroll_Skill_Earth_Blank</text>
</g>
<!-- BOOK_Paper_Sheet&#45;&gt;Scroll_Skill_Earth_Blank -->
<g id="edge14" class="edge"><title>BOOK_Paper_Sheet&#45;&gt;Scroll_Skill_Earth_Blank</title>
<path fill="none" stroke="black" d="M463,-266.537C548.461,-251.146 700.219,-223.817 792.716,-207.16"/>
<polygon fill="black" stroke="black" points="793.364,-210.599 802.585,-205.382 792.123,-203.71 793.364,-210.599"/>
<text text-anchor="middle" x="692.344" y="-231.8" font-family="Times New Roman,serif" font-size="14.00">Crafting 1</text>
</g>
<!-- SCROLL_OozeSpray -->
<g id="node12" class="node"><title>SCROLL_OozeSpray</title>
<ellipse fill="none" stroke="black" cx="448.344" cy="-105" rx="92.0841" ry="18"/>
<text text-anchor="middle" x="448.344" y="-101.3" font-family="Times New Roman,serif" font-size="14.00">SCROLL_OozeSpray</text>
</g>
<!-- SCROLL_OozeSpray&#45;&gt;SKILLBOOK_Cone_OozeSpray -->
<g id="edge17" class="edge"><title>SCROLL_OozeSpray&#45;&gt;SKILLBOOK_Cone_OozeSpray</title>
<path fill="none" stroke="black" d="M445.916,-86.799C444.273,-75.1626 442.069,-59.5479 440.189,-46.2368"/>
<polygon fill="black" stroke="black" points="443.633,-45.588 438.769,-36.1754 436.701,-46.5665 443.633,-45.588"/>
<text text-anchor="middle" x="471.344" y="-57.8" font-family="Times New Roman,serif" font-size="14.00">Crafting 4</text>
</g>
<!-- Well_A_Snow -->
<g id="node13" class="node"><title>Well_A_Snow</title>
<ellipse fill="none" stroke="black" cx="64.3443" cy="-540" rx="64.189" ry="18"/>
<text text-anchor="middle" x="64.3443" y="-536.3" font-family="Times New Roman,serif" font-size="14.00">Well_A_Snow</text>
</g>
<!-- Well_A_Snow&#45;&gt;Scraps_Wood_A_Mush -->
<g id="edge15" class="edge"><title>Well_A_Snow&#45;&gt;Scraps_Wood_A_Mush</title>
<path fill="none" stroke="black" d="M63.4755,-521.751C63.3047,-498.818 66.5872,-458.458 89.3443,-435 105.236,-418.618 230.416,-394.957 316.759,-380.301"/>
<polygon fill="black" stroke="black" points="317.544,-383.718 326.823,-378.603 316.38,-376.815 317.544,-383.718"/>
<text text-anchor="middle" x="117.344" y="-449.3" font-family="Times New Roman,serif" font-size="14.00">Crafting 0</text>
</g>
<!-- Well_A_Snow&#45;&gt;Bucket_A_Water -->
<g id="edge16" class="edge"><title>Well_A_Snow&#45;&gt;Bucket_A_Water</title>
<path fill="none" stroke="black" d="M97.6271,-524.499C122.795,-513.852 158.363,-499.479 190.344,-489 213.731,-481.337 239.838,-474.207 262.75,-468.408"/>
<polygon fill="black" stroke="black" points="263.84,-471.744 272.693,-465.924 262.143,-464.953 263.84,-471.744"/>
<text text-anchor="middle" x="218.344" y="-492.8" font-family="Times New Roman,serif" font-size="14.00">Crafting 0</text>
</g>
<!-- SCROLL_EarthShield -->
<g id="node14" class="node"><title>SCROLL_EarthShield</title>
<ellipse fill="none" stroke="black" cx="651.344" cy="-105" rx="92.8835" ry="18"/>
<text text-anchor="middle" x="651.344" y="-101.3" font-family="Times New Roman,serif" font-size="14.00">SCROLL_EarthShield</text>
</g>
<!-- SCROLL_EarthShield&#45;&gt;SKILLBOOK_Shield_Earth -->
<g id="edge19" class="edge"><title>SCROLL_EarthShield&#45;&gt;SKILLBOOK_Shield_Earth</title>
<path fill="none" stroke="black" d="M658.241,-86.9342C662.457,-77.0789 668.207,-64.5789 674.344,-54 676.216,-50.7745 678.308,-47.4756 680.464,-44.2547"/>
<polygon fill="black" stroke="black" points="683.362,-46.2187 686.213,-36.0147 677.621,-42.2137 683.362,-46.2187"/>
<text text-anchor="middle" x="702.344" y="-57.8" font-family="Times New Roman,serif" font-size="14.00">Crafting 4</text>
</g>
<!-- Ink_Pot_A_Quill_A_Magic -->
<g id="node15" class="node"><title>Ink_Pot_A_Quill_A_Magic</title>
<ellipse fill="none" stroke="black" cx="1106.34" cy="-192" rx="111.581" ry="18"/>
<text text-anchor="middle" x="1106.34" y="-188.3" font-family="Times New Roman,serif" font-size="14.00">Ink_Pot_A_Quill_A_Magic</text>
</g>
<!-- Ink_Pot_A_Quill_A_Magic&#45;&gt;SCROLL_OozeSpray -->
<g id="edge21" class="edge"><title>Ink_Pot_A_Quill_A_Magic&#45;&gt;SCROLL_OozeSpray</title>
<path fill="none" stroke="black" d="M1027.07,-179.23C1012.23,-177.283 996.832,-175.435 982.344,-174 852.07,-161.1 818.095,-173.395 688.344,-156 628.286,-147.948 560.798,-133.387 512.721,-122.048"/>
<polygon fill="black" stroke="black" points="513.305,-118.589 502.766,-119.681 511.685,-125.399 513.305,-118.589"/>
<text text-anchor="middle" x="716.344" y="-144.8" font-family="Times New Roman,serif" font-size="14.00">Crafting 5</text>
</g>
<!-- Ink_Pot_A_Quill_A_Magic&#45;&gt;SCROLL_EarthShield -->
<g id="edge22" class="edge"><title>Ink_Pot_A_Quill_A_Magic&#45;&gt;SCROLL_EarthShield</title>
<path fill="none" stroke="black" d="M1022.08,-180.147C996.626,-174.918 969.14,-167.237 945.344,-156 935.616,-151.406 936.312,-145.05 926.344,-141 854.728,-111.898 829.951,-133.359 753.344,-123 745.033,-121.876 736.358,-120.596 727.729,-119.255"/>
<polygon fill="black" stroke="black" points="728.069,-115.765 717.645,-117.657 726.974,-122.679 728.069,-115.765"/>
<text text-anchor="middle" x="973.344" y="-144.8" font-family="Times New Roman,serif" font-size="14.00">Crafting 5</text>
</g>
<!-- SCROLL_PoisonDart -->
<g id="node22" class="node"><title>SCROLL_PoisonDart</title>
<ellipse fill="none" stroke="black" cx="1502.34" cy="-105" rx="92.0841" ry="18"/>
<text text-anchor="middle" x="1502.34" y="-101.3" font-family="Times New Roman,serif" font-size="14.00">SCROLL_PoisonDart</text>
</g>
<!-- Ink_Pot_A_Quill_A_Magic&#45;&gt;SCROLL_PoisonDart -->
<g id="edge20" class="edge"><title>Ink_Pot_A_Quill_A_Magic&#45;&gt;SCROLL_PoisonDart</title>
<path fill="none" stroke="black" d="M1215.79,-188.028C1301.44,-184.22 1412.62,-175.573 1453.34,-156 1465.33,-150.242 1476.01,-140.277 1484.33,-130.751"/>
<polygon fill="black" stroke="black" points="1487.09,-132.905 1490.73,-122.955 1481.68,-128.463 1487.09,-132.905"/>
<text text-anchor="middle" x="1501.34" y="-144.8" font-family="Times New Roman,serif" font-size="14.00">Crafting 5</text>
</g>
<!-- SCROLL_Earthquake -->
<g id="node27" class="node"><title>SCROLL_Earthquake</title>
<ellipse fill="none" stroke="black" cx="1085.34" cy="-105" rx="91.784" ry="18"/>
<text text-anchor="middle" x="1085.34" y="-101.3" font-family="Times New Roman,serif" font-size="14.00">SCROLL_Earthquake</text>
</g>
<!-- Ink_Pot_A_Quill_A_Magic&#45;&gt;SCROLL_Earthquake -->
<g id="edge23" class="edge"><title>Ink_Pot_A_Quill_A_Magic&#45;&gt;SCROLL_Earthquake</title>
<path fill="none" stroke="black" d="M1102.09,-173.799C1099.22,-162.163 1095.36,-146.548 1092.07,-133.237"/>
<polygon fill="black" stroke="black" points="1095.38,-132.044 1089.59,-123.175 1088.59,-133.723 1095.38,-132.044"/>
<text text-anchor="middle" x="1124.34" y="-144.8" font-family="Times New Roman,serif" font-size="14.00">Crafting 5</text>
</g>
<!-- SCROLL_BoulderDash -->
<g id="node29" class="node"><title>SCROLL_BoulderDash</title>
<ellipse fill="none" stroke="black" cx="1293.34" cy="-105" rx="98.5829" ry="18"/>
<text text-anchor="middle" x="1293.34" y="-101.3" font-family="Times New Roman,serif" font-size="14.00">SCROLL_BoulderDash</text>
</g>
<!-- Ink_Pot_A_Quill_A_Magic&#45;&gt;SCROLL_BoulderDash -->
<g id="edge24" class="edge"><title>Ink_Pot_A_Quill_A_Magic&#45;&gt;SCROLL_BoulderDash</title>
<path fill="none" stroke="black" d="M1197.93,-181.65C1219.38,-176.424 1241.23,-168.372 1259.34,-156 1268.09,-150.024 1275.23,-140.987 1280.66,-132.232"/>
<polygon fill="black" stroke="black" points="1283.81,-133.775 1285.71,-123.351 1277.73,-130.319 1283.81,-133.775"/>
<text text-anchor="middle" x="1302.34" y="-144.8" font-family="Times New Roman,serif" font-size="14.00">Crafting 5</text>
</g>
<!-- Skull_Human -->
<g id="node16" class="node"><title>Skull_Human</title>
<ellipse fill="none" stroke="black" cx="754.344" cy="-453" rx="59.5901" ry="18"/>
<text text-anchor="middle" x="754.344" y="-449.3" font-family="Times New Roman,serif" font-size="14.00">Skull_Human</text>
</g>
<!-- Skull_Human&#45;&gt;Pouch_Dust_Bone -->
<g id="edge25" class="edge"><title>Skull_Human&#45;&gt;Pouch_Dust_Bone</title>
<path fill="none" stroke="black" d="M762.686,-434.801C768.327,-424.418 776.528,-411.419 786.344,-402 791.728,-396.834 798.015,-392.12 804.453,-387.942"/>
<polygon fill="black" stroke="black" points="806.533,-390.774 813.256,-382.585 802.894,-384.794 806.533,-390.774"/>
<text text-anchor="middle" x="814.344" y="-405.8" font-family="Times New Roman,serif" font-size="14.00">Crafting 0</text>
</g>
<!-- Pouch_Dust_Pixie&#45;&gt;Ink_Pot_A_Quill_A_Magic -->
<g id="edge26" class="edge"><title>Pouch_Dust_Pixie&#45;&gt;Ink_Pot_A_Quill_A_Magic</title>
<path fill="none" stroke="black" d="M1039.66,-261.22C1047.26,-251.234 1057.42,-238.504 1067.34,-228 1070.92,-224.212 1074.85,-220.367 1078.8,-216.68"/>
<polygon fill="black" stroke="black" points="1081.27,-219.16 1086.31,-209.841 1076.56,-213.983 1081.27,-219.16"/>
<text text-anchor="middle" x="1095.34" y="-231.8" font-family="Times New Roman,serif" font-size="14.00">Crafting 1</text>
</g>
<!-- Pouch_Dust_Pixie&#45;&gt;Scroll_Skill_Earth_Blank -->
<g id="edge27" class="edge"><title>Pouch_Dust_Pixie&#45;&gt;Scroll_Skill_Earth_Blank</title>
<path fill="none" stroke="black" d="M998.367,-262.211C973.51,-248.667 937.481,-229.036 910.139,-214.138"/>
<polygon fill="black" stroke="black" points="911.684,-210.994 901.228,-209.283 908.334,-217.141 911.684,-210.994"/>
<text text-anchor="middle" x="987.344" y="-231.8" font-family="Times New Roman,serif" font-size="14.00">Crafting 1</text>
</g>
<!-- Well -->
<g id="node20" class="node"><title>Well</title>
<ellipse fill="none" stroke="black" cx="219.344" cy="-540" rx="27.0966" ry="18"/>
<text text-anchor="middle" x="219.344" y="-536.3" font-family="Times New Roman,serif" font-size="14.00">Well</text>
</g>
<!-- Well&#45;&gt;Scraps_Wood_A_Mush -->
<g id="edge29" class="edge"><title>Well&#45;&gt;Scraps_Wood_A_Mush</title>
<path fill="none" stroke="black" d="M193.675,-533.6C177.636,-528.757 158.215,-519.871 148.344,-504 131.169,-476.385 163.494,-451.231 185.344,-435 223.153,-406.916 272.937,-390.195 314.973,-380.366"/>
<polygon fill="black" stroke="black" points="315.933,-383.738 324.923,-378.133 314.4,-376.908 315.933,-383.738"/>
<text text-anchor="middle" x="213.344" y="-449.3" font-family="Times New Roman,serif" font-size="14.00">Crafting 0</text>
</g>
<!-- Well&#45;&gt;Bucket_A_Water -->
<g id="edge30" class="edge"><title>Well&#45;&gt;Bucket_A_Water</title>
<path fill="none" stroke="black" d="M231.245,-523.407C239.744,-512.906 251.843,-499.172 264.344,-489 270.593,-483.916 277.665,-479.102 284.706,-474.764"/>
<polygon fill="black" stroke="black" points="286.718,-477.64 293.544,-469.538 283.155,-471.615 286.718,-477.64"/>
<text text-anchor="middle" x="292.344" y="-492.8" font-family="Times New Roman,serif" font-size="14.00">Crafting 0</text>
</g>
<!-- Bucket -->
<g id="node21" class="node"><title>Bucket</title>
<ellipse fill="none" stroke="black" cx="324.344" cy="-540" rx="36.2938" ry="18"/>
<text text-anchor="middle" x="324.344" y="-536.3" font-family="Times New Roman,serif" font-size="14.00">Bucket</text>
</g>
<!-- Bucket&#45;&gt;Bucket_A_Water -->
<g id="edge28" class="edge"><title>Bucket&#45;&gt;Bucket_A_Water</title>
<path fill="none" stroke="black" d="M324.344,-521.799C324.344,-510.163 324.344,-494.548 324.344,-481.237"/>
<polygon fill="black" stroke="black" points="327.844,-481.175 324.344,-471.175 320.844,-481.175 327.844,-481.175"/>
<text text-anchor="middle" x="352.344" y="-492.8" font-family="Times New Roman,serif" font-size="14.00">Crafting 0</text>
</g>
<!-- SCROLL_PoisonDart&#45;&gt;SKILLBOOK_Projectile_PoisonDart -->
<g id="edge43" class="edge"><title>SCROLL_PoisonDart&#45;&gt;SKILLBOOK_Projectile_PoisonDart</title>
<path fill="none" stroke="black" d="M1517.56,-87.2067C1528.77,-74.8308 1544.2,-57.7963 1556.84,-43.8472"/>
<polygon fill="black" stroke="black" points="1559.78,-45.8104 1563.9,-36.0493 1554.59,-41.1108 1559.78,-45.8104"/>
<text text-anchor="middle" x="1573.34" y="-57.8" font-family="Times New Roman,serif" font-size="14.00">Crafting 4</text>
</g>
<!-- Ink_Pot_A_Quill -->
<g id="node37" class="node"><title>Ink_Pot_A_Quill</title>
<ellipse fill="none" stroke="black" cx="1338.34" cy="-279" rx="73.387" ry="18"/>
<text text-anchor="middle" x="1338.34" y="-275.3" font-family="Times New Roman,serif" font-size="14.00">Ink_Pot_A_Quill</text>
</g>
<!-- Feather_A_Quill&#45;&gt;Ink_Pot_A_Quill -->
<g id="edge31" class="edge"><title>Feather_A_Quill&#45;&gt;Ink_Pot_A_Quill</title>
<path fill="none" stroke="black" d="M1445.98,-348.676C1432.54,-338.622 1414.7,-325.662 1398.34,-315 1391.01,-310.22 1383.01,-305.337 1375.31,-300.793"/>
<polygon fill="black" stroke="black" points="1376.88,-297.653 1366.47,-295.641 1373.35,-303.7 1376.88,-297.653"/>
<text text-anchor="middle" x="1447.34" y="-318.8" font-family="Times New Roman,serif" font-size="14.00">Crafting 0</text>
</g>
<!-- Moonstone -->
<g id="node24" class="node"><title>Moonstone</title>
<ellipse fill="none" stroke="black" cx="982.344" cy="-453" rx="51.9908" ry="18"/>
<text text-anchor="middle" x="982.344" y="-449.3" font-family="Times New Roman,serif" font-size="14.00">Moonstone</text>
</g>
<!-- Moonstone&#45;&gt;Pouch_Dust_Moon -->
<g id="edge32" class="edge"><title>Moonstone&#45;&gt;Pouch_Dust_Moon</title>
<path fill="none" stroke="black" d="M991.235,-435.207C997.603,-423.178 1006.3,-406.748 1013.56,-393.028"/>
<polygon fill="black" stroke="black" points="1016.73,-394.525 1018.32,-384.049 1010.55,-391.25 1016.73,-394.525"/>
<text text-anchor="middle" x="1036.34" y="-405.8" font-family="Times New Roman,serif" font-size="14.00">Crafting 0</text>
</g>
<!-- Pouch_Dust_Star&#45;&gt;Pouch_Dust_Pixie -->
<g id="edge33" class="edge"><title>Pouch_Dust_Star&#45;&gt;Pouch_Dust_Pixie</title>
<path fill="none" stroke="black" d="M1172.29,-349.607C1143.4,-335.733 1100.74,-315.245 1069.17,-300.086"/>
<polygon fill="black" stroke="black" points="1070.29,-296.74 1059.76,-295.566 1067.26,-303.05 1070.29,-296.74"/>
<text text-anchor="middle" x="1154.34" y="-318.8" font-family="Times New Roman,serif" font-size="14.00">Crafting 0</text>
</g>
<!-- Axe -->
<g id="node26" class="node"><title>Axe</title>
<ellipse fill="none" stroke="black" cx="652.344" cy="-540" rx="27" ry="18"/>
<text text-anchor="middle" x="652.344" y="-536.3" font-family="Times New Roman,serif" font-size="14.00">Axe</text>
</g>
<!-- Axe&#45;&gt;Scraps_Wood -->
<g id="edge34" class="edge"><title>Axe&#45;&gt;Scraps_Wood</title>
<path fill="none" stroke="black" d="M645.261,-522.219C641.067,-512.458 635.567,-499.958 630.344,-489 628.933,-486.039 627.418,-482.958 625.889,-479.906"/>
<polygon fill="black" stroke="black" points="629.001,-478.306 621.342,-470.987 622.765,-481.485 629.001,-478.306"/>
<text text-anchor="middle" x="665.344" y="-492.8" font-family="Times New Roman,serif" font-size="14.00">Crafting 0</text>
</g>
<!-- SCROLL_Earthquake&#45;&gt;SKILLBOOK_Quake_Earthquake -->
<g id="edge35" class="edge"><title>SCROLL_Earthquake&#45;&gt;SKILLBOOK_Quake_Earthquake</title>
<path fill="none" stroke="black" d="M1062.12,-87.4094C1043.89,-74.3889 1018.31,-56.1218 998.179,-41.7389"/>
<polygon fill="black" stroke="black" points="1000.09,-38.8036 989.919,-35.8393 996.022,-44.4998 1000.09,-38.8036"/>
<text text-anchor="middle" x="1061.34" y="-57.8" font-family="Times New Roman,serif" font-size="14.00">Crafting 4</text>
</g>
<!-- Barrel -->
<g id="node28" class="node"><title>Barrel</title>
<ellipse fill="none" stroke="black" cx="442.344" cy="-540" rx="32.4942" ry="18"/>
<text text-anchor="middle" x="442.344" y="-536.3" font-family="Times New Roman,serif" font-size="14.00">Barrel</text>
</g>
<!-- Barrel&#45;&gt;Scraps_Wood_A_Mush -->
<g id="edge36" class="edge"><title>Barrel&#45;&gt;Scraps_Wood_A_Mush</title>
<path fill="none" stroke="black" d="M452.65,-522.898C455.762,-517.163 458.769,-510.508 460.344,-504 461.913,-497.52 461.579,-495.551 460.344,-489 452.656,-448.204 446.785,-438.134 426.344,-402 424.497,-398.735 422.372,-395.442 420.141,-392.249"/>
<polygon fill="black" stroke="black" points="422.88,-390.066 414.109,-384.122 417.259,-394.238 422.88,-390.066"/>
<text text-anchor="middle" x="485.344" y="-449.3" font-family="Times New Roman,serif" font-size="14.00">Crafting 0</text>
</g>
<!-- Barrel&#45;&gt;Bucket_A_Water -->
<g id="edge37" class="edge"><title>Barrel&#45;&gt;Bucket_A_Water</title>
<path fill="none" stroke="black" d="M425.741,-524.353C413.741,-514.029 396.962,-500.118 381.344,-489 374.759,-484.312 367.541,-479.586 360.52,-475.189"/>
<polygon fill="black" stroke="black" points="362.148,-472.081 351.796,-469.823 358.48,-478.043 362.148,-472.081"/>
<text text-anchor="middle" x="429.344" y="-492.8" font-family="Times New Roman,serif" font-size="14.00">Crafting 0</text>
</g>
<!-- SCROLL_BoulderDash&#45;&gt;SKILLBOOK_Boulder_BoulderDash -->
<g id="edge38" class="edge"><title>SCROLL_BoulderDash&#45;&gt;SKILLBOOK_Boulder_BoulderDash</title>
<path fill="none" stroke="black" d="M1288.08,-86.799C1284.49,-75.0474 1279.65,-59.2383 1275.55,-45.8421"/>
<polygon fill="black" stroke="black" points="1278.87,-44.7143 1272.6,-36.1754 1272.18,-46.7619 1278.87,-44.7143"/>
<text text-anchor="middle" x="1309.34" y="-57.8" font-family="Times New Roman,serif" font-size="14.00">Crafting 4</text>
</g>
<!-- Pillow -->
<g id="node30" class="node"><title>Pillow</title>
<ellipse fill="none" stroke="black" cx="1467.34" cy="-540" rx="33.2948" ry="18"/>
<text text-anchor="middle" x="1467.34" y="-536.3" font-family="Times New Roman,serif" font-size="14.00">Pillow</text>
</g>
<!-- Pillow&#45;&gt;Feather -->
<g id="edge39" class="edge"><title>Pillow&#45;&gt;Feather</title>
<path fill="none" stroke="black" d="M1467.34,-521.799C1467.34,-510.163 1467.34,-494.548 1467.34,-481.237"/>
<polygon fill="black" stroke="black" points="1470.84,-481.175 1467.34,-471.175 1463.84,-481.175 1470.84,-481.175"/>
<text text-anchor="middle" x="1495.34" y="-492.8" font-family="Times New Roman,serif" font-size="14.00">Crafting 0</text>
</g>
<!-- Bone -->
<g id="node31" class="node"><title>Bone</title>
<ellipse fill="none" stroke="black" cx="862.344" cy="-453" rx="29.795" ry="18"/>
<text text-anchor="middle" x="862.344" y="-449.3" font-family="Times New Roman,serif" font-size="14.00">Bone</text>
</g>
<!-- Bone&#45;&gt;Pouch_Dust_Bone -->
<g id="edge40" class="edge"><title>Bone&#45;&gt;Pouch_Dust_Bone</title>
<path fill="none" stroke="black" d="M854.458,-435.628C852.048,-429.872 849.683,-423.272 848.344,-417 846.809,-409.807 846.071,-401.904 845.77,-394.547"/>
<polygon fill="black" stroke="black" points="849.266,-394.245 845.6,-384.304 842.267,-394.361 849.266,-394.245"/>
<text text-anchor="middle" x="876.344" y="-405.8" font-family="Times New Roman,serif" font-size="14.00">Crafting 0</text>
</g>
<!-- Ink_Pot -->
<g id="node32" class="node"><title>Ink_Pot</title>
<ellipse fill="none" stroke="black" cx="1338.34" cy="-366" rx="40.0939" ry="18"/>
<text text-anchor="middle" x="1338.34" y="-362.3" font-family="Times New Roman,serif" font-size="14.00">Ink_Pot</text>
</g>
<!-- Ink_Pot&#45;&gt;Ink_Pot_A_Quill -->
<g id="edge41" class="edge"><title>Ink_Pot&#45;&gt;Ink_Pot_A_Quill</title>
<path fill="none" stroke="black" d="M1338.34,-347.799C1338.34,-336.163 1338.34,-320.548 1338.34,-307.237"/>
<polygon fill="black" stroke="black" points="1341.84,-307.175 1338.34,-297.175 1334.84,-307.175 1341.84,-307.175"/>
<text text-anchor="middle" x="1366.34" y="-318.8" font-family="Times New Roman,serif" font-size="14.00">Crafting 0</text>
</g>
<!-- Scraps_Wood&#45;&gt;Scraps_Wood_A_Mush -->
<g id="edge42" class="edge"><title>Scraps_Wood&#45;&gt;Scraps_Wood_A_Mush</title>
<path fill="none" stroke="black" d="M577.368,-437.803C552.545,-427.751 518.427,-413.98 488.344,-402 475.561,-396.909 461.727,-391.446 448.862,-386.386"/>
<polygon fill="black" stroke="black" points="449.834,-383.008 439.247,-382.608 447.274,-389.523 449.834,-383.008"/>
<text text-anchor="middle" x="551.344" y="-405.8" font-family="Times New Roman,serif" font-size="14.00">Crafting 0</text>
</g>
<!-- Dagger -->
<g id="node34" class="node"><title>Dagger</title>
<ellipse fill="none" stroke="black" cx="1586.34" cy="-540" rx="36.2938" ry="18"/>
<text text-anchor="middle" x="1586.34" y="-536.3" font-family="Times New Roman,serif" font-size="14.00">Dagger</text>
</g>
<!-- Dagger&#45;&gt;Feather -->
<g id="edge45" class="edge"><title>Dagger&#45;&gt;Feather</title>
<path fill="none" stroke="black" d="M1568.91,-523.938C1556.73,-513.674 1539.93,-500.005 1524.34,-489 1516.4,-483.394 1507.56,-477.711 1499.25,-472.601"/>
<polygon fill="black" stroke="black" points="1500.89,-469.499 1490.52,-467.313 1497.26,-475.487 1500.89,-469.499"/>
<text text-anchor="middle" x="1571.34" y="-492.8" font-family="Times New Roman,serif" font-size="14.00">Crafting 0</text>
</g>
<!-- Dagger&#45;&gt;Feather_A_Quill -->
<g id="edge44" class="edge"><title>Dagger&#45;&gt;Feather_A_Quill</title>
<path fill="none" stroke="black" d="M1597.69,-522.696C1603.08,-512.879 1607.53,-500.159 1603.34,-489 1586.11,-443.066 1540.05,-408.101 1506.29,-387.619"/>
<polygon fill="black" stroke="black" points="1507.96,-384.538 1497.57,-382.477 1504.41,-390.569 1507.96,-384.538"/>
<text text-anchor="middle" x="1621.34" y="-449.3" font-family="Times New Roman,serif" font-size="14.00">Crafting 0</text>
</g>
<!-- Ink_Pot_A_Quill&#45;&gt;Ink_Pot_A_Quill_A_Magic -->
<g id="edge46" class="edge"><title>Ink_Pot_A_Quill&#45;&gt;Ink_Pot_A_Quill_A_Magic</title>
<path fill="none" stroke="black" d="M1299.25,-263.677C1260.67,-249.543 1201.44,-227.842 1158.79,-212.216"/>
<polygon fill="black" stroke="black" points="1159.74,-208.835 1149.14,-208.681 1157.33,-215.408 1159.74,-208.835"/>
<text text-anchor="middle" x="1263.34" y="-231.8" font-family="Times New Roman,serif" font-size="14.00">Crafting 1</text>
</g>
<!-- Scroll_Skill_Earth_Blank&#45;&gt;BOOK_Skill_Earth_Blank -->
<g id="edge50" class="edge"><title>Scroll_Skill_Earth_Blank&#45;&gt;BOOK_Skill_Earth_Blank</title>
<path fill="none" stroke="black" d="M870.827,-173.911C870.662,-168.214 870.486,-161.834 870.344,-156 870.166,-148.652 869.996,-140.696 869.849,-133.338"/>
<polygon fill="black" stroke="black" points="873.344,-133.055 869.651,-123.125 866.345,-133.191 873.344,-133.055"/>
<text text-anchor="middle" x="898.344" y="-144.8" font-family="Times New Roman,serif" font-size="14.00">Crafting 5</text>
</g>
<!-- Scroll_Skill_Earth_Blank&#45;&gt;SCROLL_OozeSpray -->
<g id="edge48" class="edge"><title>Scroll_Skill_Earth_Blank&#45;&gt;SCROLL_OozeSpray</title>
<path fill="none" stroke="black" d="M770.028,-189.577C675.455,-186.819 542.098,-178.849 495.344,-156 483.754,-150.336 473.56,-140.518 465.655,-131.074"/>
<polygon fill="black" stroke="black" points="468.24,-128.699 459.319,-122.984 462.729,-133.015 468.24,-128.699"/>
<text text-anchor="middle" x="523.344" y="-144.8" font-family="Times New Roman,serif" font-size="14.00">Crafting 5</text>
</g>
<!-- Scroll_Skill_Earth_Blank&#45;&gt;SCROLL_EarthShield -->
<g id="edge49" class="edge"><title>Scroll_Skill_Earth_Blank&#45;&gt;SCROLL_EarthShield</title>
<path fill="none" stroke="black" d="M830.993,-175.41C794.285,-161.227 739.997,-140.252 700.713,-125.074"/>
<polygon fill="black" stroke="black" points="701.659,-121.688 691.069,-121.348 699.136,-128.217 701.659,-121.688"/>
<text text-anchor="middle" x="803.344" y="-144.8" font-family="Times New Roman,serif" font-size="14.00">Crafting 5</text>
</g>
<!-- Scroll_Skill_Earth_Blank&#45;&gt;SCROLL_PoisonDart -->
<g id="edge51" class="edge"><title>Scroll_Skill_Earth_Blank&#45;&gt;SCROLL_PoisonDart</title>
<path fill="none" stroke="black" d="M943.276,-179.198C957.203,-177.217 971.705,-175.365 985.344,-174 1139.89,-158.528 1181.28,-182.338 1334.34,-156 1356.09,-152.258 1407.13,-136.706 1447.28,-123.928"/>
<polygon fill="black" stroke="black" points="1448.51,-127.21 1456.97,-120.832 1446.37,-120.542 1448.51,-127.21"/>
<text text-anchor="middle" x="1415.34" y="-144.8" font-family="Times New Roman,serif" font-size="14.00">Crafting 5</text>
</g>
<!-- Scroll_Skill_Earth_Blank&#45;&gt;SCROLL_Earthquake -->
<g id="edge47" class="edge"><title>Scroll_Skill_Earth_Blank&#45;&gt;SCROLL_Earthquake</title>
<path fill="none" stroke="black" d="M936.74,-178.121C958.998,-172.644 983.706,-165.329 1005.34,-156 1014.97,-151.849 1034.98,-139.341 1052.58,-127.875"/>
<polygon fill="black" stroke="black" points="1054.53,-130.783 1060.97,-122.371 1050.69,-124.93 1054.53,-130.783"/>
<text text-anchor="middle" x="1059.34" y="-144.8" font-family="Times New Roman,serif" font-size="14.00">Crafting 5</text>
</g>
<!-- Scroll_Skill_Earth_Blank&#45;&gt;SCROLL_BoulderDash -->
<g id="edge52" class="edge"><title>Scroll_Skill_Earth_Blank&#45;&gt;SCROLL_BoulderDash</title>
<path fill="none" stroke="black" d="M945.175,-179.515C958.53,-177.573 972.342,-175.653 985.344,-174 1061.15,-164.362 1081.89,-173.229 1156.34,-156 1160.86,-154.955 1205.02,-138.75 1242.01,-125.068"/>
<polygon fill="black" stroke="black" points="1243.55,-128.227 1251.72,-121.473 1241.12,-121.663 1243.55,-128.227"/>
<text text-anchor="middle" x="1224.34" y="-144.8" font-family="Times New Roman,serif" font-size="14.00">Crafting 5</text>
</g>
<!-- Oven -->
<g id="node39" class="node"><title>Oven</title>
<ellipse fill="none" stroke="black" cx="250.344" cy="-366" rx="30.5947" ry="18"/>
<text text-anchor="middle" x="250.344" y="-362.3" font-family="Times New Roman,serif" font-size="14.00">Oven</text>
</g>
<!-- Oven&#45;&gt;BOOK_Paper_Sheet -->
<g id="edge53" class="edge"><title>Oven&#45;&gt;BOOK_Paper_Sheet</title>
<path fill="none" stroke="black" d="M271.692,-352.822C295.291,-339.359 333.735,-317.428 362.277,-301.146"/>
<polygon fill="black" stroke="black" points="364.212,-304.071 371.164,-296.076 360.744,-297.991 364.212,-304.071"/>
<text text-anchor="middle" x="362.344" y="-318.8" font-family="Times New Roman,serif" font-size="14.00">Crafting 0</text>
</g>
<!-- MortarPestle -->
<g id="node40" class="node"><title>MortarPestle</title>
<ellipse fill="none" stroke="black" cx="1109.34" cy="-453" rx="57.3905" ry="18"/>
<text text-anchor="middle" x="1109.34" y="-449.3" font-family="Times New Roman,serif" font-size="14.00">MortarPestle</text>
</g>
<!-- MortarPestle&#45;&gt;Pouch_Dust_Bone -->
<g id="edge54" class="edge"><title>MortarPestle&#45;&gt;Pouch_Dust_Bone</title>
<path fill="none" stroke="black" d="M1067.21,-440.64C1059.3,-438.653 1051.09,-436.685 1043.34,-435 998.79,-425.306 985.506,-431.701 942.344,-417 921.137,-409.777 898.862,-398.438 881.114,-388.383"/>
<polygon fill="black" stroke="black" points="882.683,-385.247 872.274,-383.27 879.178,-391.307 882.683,-385.247"/>
<text text-anchor="middle" x="970.344" y="-405.8" font-family="Times New Roman,serif" font-size="14.00">Crafting 0</text>
</g>
<!-- MortarPestle&#45;&gt;Pouch_Dust_Moon -->
<g id="edge56" class="edge"><title>MortarPestle&#45;&gt;Pouch_Dust_Moon</title>
<path fill="none" stroke="black" d="M1095.5,-435.398C1087.03,-425.475 1075.85,-412.749 1065.34,-402 1061.68,-398.248 1057.7,-394.383 1053.75,-390.653"/>
<polygon fill="black" stroke="black" points="1055.98,-387.947 1046.27,-383.71 1051.22,-393.078 1055.98,-387.947"/>
<text text-anchor="middle" x="1106.34" y="-405.8" font-family="Times New Roman,serif" font-size="14.00">Crafting 0</text>
</g>
<!-- MortarPestle&#45;&gt;Pouch_Dust_Star -->
<g id="edge55" class="edge"><title>MortarPestle&#45;&gt;Pouch_Dust_Star</title>
<path fill="none" stroke="black" d="M1127.66,-435.611C1142.03,-422.759 1162.2,-404.706 1178.25,-390.344"/>
<polygon fill="black" stroke="black" points="1180.64,-392.905 1185.76,-383.629 1175.97,-387.688 1180.64,-392.905"/>
<text text-anchor="middle" x="1190.34" y="-405.8" font-family="Times New Roman,serif" font-size="14.00">Crafting 0</text>
</g>
</g>
</svg>
