<?xml version="1.0" encoding="UTF-8" standalone="no"?>
<!DOCTYPE svg PUBLIC "-//W3C//DTD SVG 1.1//EN"
 "http://www.w3.org/Graphics/SVG/1.1/DTD/svg11.dtd">
<!-- Generated by graphviz version 2.38.0 (20140413.2041)
 -->
<!-- Title: G Pages: 1 -->
<svg width="372pt" height="218pt"
 viewBox="0.00 0.00 371.88 218.00" xmlns="http://www.w3.org/2000/svg" xmlns:xlink="http://www.w3.org/1999/xlink">
<g id="graph0" class="graph" transform="scale(1 1) rotate(0) translate(4 214)">
<title>G</title>
<polygon fill="white" stroke="none" points="-4,4 -4,-214 367.885,-214 367.885,4 -4,4"/>
<!-- Herb_Augmentor -->
<g id="node1" class="node"><title>Herb_Augmentor</title>
<ellipse fill="none" stroke="black" cx="74.0934" cy="-192" rx="74.187" ry="18"/>
<text text-anchor="middle" x="74.0934" y="-188.3" font-family="Times New Roman,serif" font-size="14.00">Herb_Augmentor</text>
</g>
<!-- Medium_Dexterity_Potion -->
<g id="node2" class="node"><title>Medium_Dexterity_Potion</title>
<ellipse fill="none" stroke="black" cx="255.093" cy="-105" rx="106.681" ry="18"/>
<text text-anchor="middle" x="255.093" y="-101.3" font-family="Times New Roman,serif" font-size="14.00">Medium_Dexterity_Potion</text>
</g>
<!-- Herb_Augmentor&#45;&gt;Medium_Dexterity_Potion -->
<g id="edge2" class="edge"><title>Herb_Augmentor&#45;&gt;Medium_Dexterity_Potion</title>
<path fill="none" stroke="black" d="M106.453,-175.804C135.79,-162.026 179.264,-141.61 211.626,-126.413"/>
<polygon fill="black" stroke="black" points="213.297,-129.495 220.861,-122.076 210.322,-123.159 213.297,-129.495"/>
<text text-anchor="middle" x="204.093" y="-144.8" font-family="Times New Roman,serif" font-size="14.00">Crafting 4</text>
</g>
<!-- Large_Dexterity_Potion -->
<g id="node3" class="node"><title>Large_Dexterity_Potion</title>
<ellipse fill="none" stroke="black" cx="127.093" cy="-18" rx="97.4827" ry="18"/>
<text text-anchor="middle" x="127.093" y="-14.3" font-family="Times New Roman,serif" font-size="14.00">Large_Dexterity_Potion</text>
</g>
<!-- Herb_Augmentor&#45;&gt;Large_Dexterity_Potion -->
<g id="edge1" class="edge"><title>Herb_Augmentor&#45;&gt;Large_Dexterity_Potion</title>
<path fill="none" stroke="black" d="M73.0868,-173.913C72.403,-152.87 73.042,-116.315 83.0934,-87 88.3414,-71.6942 97.7615,-56.4091 106.543,-44.2185"/>
<polygon fill="black" stroke="black" points="109.557,-46.0333 112.755,-35.9328 103.956,-41.8341 109.557,-46.0333"/>
<text text-anchor="middle" x="111.093" y="-101.3" font-family="Times New Roman,serif" font-size="14.00">Crafting 5</text>
</g>
<!-- Medium_Dexterity_Potion&#45;&gt;Large_Dexterity_Potion -->
<g id="edge3" class="edge"><title>Medium_Dexterity_Potion&#45;&gt;Large_Dexterity_Potion</title>
<path fill="none" stroke="black" d="M230.11,-87.4094C210.287,-74.2458 182.389,-55.7198 160.624,-41.2663"/>
<polygon fill="black" stroke="black" points="162.281,-38.1651 152.014,-35.5488 158.408,-43.9965 162.281,-38.1651"/>
<text text-anchor="middle" x="227.093" y="-57.8" font-family="Times New Roman,serif" font-size="14.00">Crafting 5</text>
</g>
<!-- Minor_Dexterity_Potion -->
<g id="node4" class="node"><title>Minor_Dexterity_Potion</title>
<ellipse fill="none" stroke="black" cx="265.093" cy="-192" rx="98.5829" ry="18"/>
<text text-anchor="middle" x="265.093" y="-188.3" font-family="Times New Roman,serif" font-size="14.00">Minor_Dexterity_Potion</text>
</g>
<!-- Minor_Dexterity_Potion&#45;&gt;Medium_Dexterity_Potion -->
<g id="edge4" class="edge"><title>Minor_Dexterity_Potion&#45;&gt;Medium_Dexterity_Potion</title>
<path fill="none" stroke="black" d="M263.07,-173.799C261.701,-162.163 259.864,-146.548 258.298,-133.237"/>
<polygon fill="black" stroke="black" points="261.759,-132.698 257.114,-123.175 254.807,-133.516 261.759,-132.698"/>
<text text-anchor="middle" x="289.093" y="-144.8" font-family="Times New Roman,serif" font-size="14.00">Crafting 4</text>
</g>
</g>
</svg>
