<?xml version="1.0" encoding="UTF-8" standalone="no"?>
<!DOCTYPE svg PUBLIC "-//W3C//DTD SVG 1.1//EN"
 "http://www.w3.org/Graphics/SVG/1.1/DTD/svg11.dtd">
<!-- Generated by graphviz version 2.38.0 (20140413.2041)
 -->
<!-- Title: G Pages: 1 -->
<svg width="244pt" height="149pt"
 viewBox="0.00 0.00 243.54 148.74" xmlns="http://www.w3.org/2000/svg" xmlns:xlink="http://www.w3.org/1999/xlink">
<g id="graph0" class="graph" transform="scale(1 1) rotate(0) translate(4 144.74)">
<title>G</title>
<polygon fill="white" stroke="none" points="-4,4 -4,-144.74 239.54,-144.74 239.54,4 -4,4"/>
<!-- ArmorBelt
+ Small_FireResistance -->
<g id="node1" class="node"><title>ArmorBelt
+ Small_FireResistance</title>
<ellipse fill="none" stroke="black" cx="111.746" cy="-26.8701" rx="105.218" ry="26.7407"/>
<text text-anchor="middle" x="111.746" y="-30.6701" font-family="Times New Roman,serif" font-size="14.00">ArmorBelt</text>
<text text-anchor="middle" x="111.746" y="-15.6701" font-family="Times New Roman,serif" font-size="14.00">+ Small_FireResistance</text>
</g>
<!-- ArmorBelt -->
<g id="node2" class="node"><title>ArmorBelt</title>
<ellipse fill="none" stroke="black" cx="48.7457" cy="-122.74" rx="48.9926" ry="18"/>
<text text-anchor="middle" x="48.7457" y="-119.04" font-family="Times New Roman,serif" font-size="14.00">ArmorBelt</text>
</g>
<!-- ArmorBelt&#45;&gt;ArmorBelt
+ Small_FireResistance -->
<g id="edge1" class="edge"><title>ArmorBelt&#45;&gt;ArmorBelt
+ Small_FireResistance</title>
<path fill="none" stroke="black" d="M60.0088,-104.958C67.997,-93.0556 78.9963,-76.6666 88.7997,-62.0596"/>
<polygon fill="black" stroke="black" points="91.7351,-63.9664 94.4017,-53.7126 85.9228,-60.0655 91.7351,-63.9664"/>
<text text-anchor="middle" x="110.746" y="-75.5401" font-family="Times New Roman,serif" font-size="14.00">Crafting 3</text>
</g>
<!-- Essence_Fire -->
<g id="node3" class="node"><title>Essence_Fire</title>
<ellipse fill="none" stroke="black" cx="175.746" cy="-122.74" rx="59.5901" ry="18"/>
<text text-anchor="middle" x="175.746" y="-119.04" font-family="Times New Roman,serif" font-size="14.00">Essence_Fire</text>
</g>
<!-- Essence_Fire&#45;&gt;ArmorBelt
+ Small_FireResistance -->
<g id="edge2" class="edge"><title>Essence_Fire&#45;&gt;ArmorBelt
+ Small_FireResistance</title>
<path fill="none" stroke="black" d="M164.877,-104.985C158.505,-95.2333 150.255,-82.7333 142.746,-71.7401 140.622,-68.6309 138.397,-65.4112 136.155,-62.1931"/>
<polygon fill="black" stroke="black" points="138.848,-59.9361 130.242,-53.756 133.115,-63.9538 138.848,-59.9361"/>
<text text-anchor="middle" x="180.746" y="-75.5401" font-family="Times New Roman,serif" font-size="14.00">Crafting 3</text>
</g>
</g>
</svg>
