<?xml version="1.0" encoding="UTF-8" standalone="no"?>
<!DOCTYPE svg PUBLIC "-//W3C//DTD SVG 1.1//EN"
 "http://www.w3.org/Graphics/SVG/1.1/DTD/svg11.dtd">
<!-- Generated by graphviz version 2.38.0 (20140413.2041)
 -->
<!-- Title: G Pages: 1 -->
<svg width="809pt" height="236pt"
 viewBox="0.00 0.00 809.00 235.74" xmlns="http://www.w3.org/2000/svg" xmlns:xlink="http://www.w3.org/1999/xlink">
<g id="graph0" class="graph" transform="scale(1 1) rotate(0) translate(4 231.74)">
<title>G</title>
<polygon fill="white" stroke="none" points="-4,4 -4,-231.74 804.997,-231.74 804.997,4 -4,4"/>
<!-- LongSword -->
<g id="node1" class="node"><title>LongSword</title>
<ellipse fill="none" stroke="black" cx="210.245" cy="-26.8701" rx="53.8905" ry="18"/>
<text text-anchor="middle" x="210.245" y="-23.1701" font-family="Times New Roman,serif" font-size="14.00">LongSword</text>
</g>
<!-- Oven -->
<g id="node2" class="node"><title>Oven</title>
<ellipse fill="none" stroke="black" cx="306.245" cy="-209.74" rx="30.5947" ry="18"/>
<text text-anchor="middle" x="306.245" y="-206.04" font-family="Times New Roman,serif" font-size="14.00">Oven</text>
</g>
<!-- OreBar_A_Iron -->
<g id="node5" class="node"><title>OreBar_A_Iron</title>
<ellipse fill="none" stroke="black" cx="473.245" cy="-122.74" rx="68.4888" ry="18"/>
<text text-anchor="middle" x="473.245" y="-119.04" font-family="Times New Roman,serif" font-size="14.00">OreBar_A_Iron</text>
</g>
<!-- Oven&#45;&gt;OreBar_A_Iron -->
<g id="edge13" class="edge"><title>Oven&#45;&gt;OreBar_A_Iron</title>
<path fill="none" stroke="black" d="M321.724,-193.916C333.852,-182.961 351.577,-168.34 369.245,-158.74 383.87,-150.794 400.625,-144.194 416.353,-138.949"/>
<polygon fill="black" stroke="black" points="417.534,-142.246 425.986,-135.857 415.395,-135.581 417.534,-142.246"/>
<text text-anchor="middle" x="397.245" y="-162.54" font-family="Times New Roman,serif" font-size="14.00">Crafting 1</text>
</g>
<!-- Anvil -->
<g id="node3" class="node"><title>Anvil</title>
<ellipse fill="none" stroke="black" cx="236.245" cy="-122.74" rx="29.795" ry="18"/>
<text text-anchor="middle" x="236.245" y="-119.04" font-family="Times New Roman,serif" font-size="14.00">Anvil</text>
</g>
<!-- Anvil&#45;&gt;LongSword -->
<g id="edge5" class="edge"><title>Anvil&#45;&gt;LongSword</title>
<path fill="none" stroke="black" d="M206.764,-119.471C165.802,-115.635 94.9215,-106.296 79.2451,-86.7401 75.0753,-81.5384 75.3508,-77.1511 79.2451,-71.7401 84.3036,-64.7115 125.347,-51.651 160.164,-41.6013"/>
<polygon fill="black" stroke="black" points="161.129,-44.9657 169.784,-38.8542 159.207,-38.2347 161.129,-44.9657"/>
<text text-anchor="middle" x="107.245" y="-75.5401" font-family="Times New Roman,serif" font-size="14.00">Crafting 4</text>
</g>
<!-- ShortSword -->
<g id="node6" class="node"><title>ShortSword</title>
<ellipse fill="none" stroke="black" cx="55.2451" cy="-26.8701" rx="55.4913" ry="18"/>
<text text-anchor="middle" x="55.2451" y="-23.1701" font-family="Times New Roman,serif" font-size="14.00">ShortSword</text>
</g>
<!-- Anvil&#45;&gt;ShortSword -->
<g id="edge4" class="edge"><title>Anvil&#45;&gt;ShortSword</title>
<path fill="none" stroke="black" d="M206.389,-121.566C152.047,-120.548 40.3479,-114.981 16.2451,-86.7401 6.71308,-75.5718 14.6358,-61.9685 25.7676,-50.6529"/>
<polygon fill="black" stroke="black" points="28.4317,-52.9563 33.395,-43.5959 23.6778,-47.8181 28.4317,-52.9563"/>
<text text-anchor="middle" x="44.2451" y="-75.5401" font-family="Times New Roman,serif" font-size="14.00">Crafting 3</text>
</g>
<!-- Scimitar
+ Reflexes -->
<g id="node7" class="node"><title>Scimitar
+ Reflexes</title>
<ellipse fill="none" stroke="black" cx="535.245" cy="-26.8701" rx="54.3945" ry="26.7407"/>
<text text-anchor="middle" x="535.245" y="-30.6701" font-family="Times New Roman,serif" font-size="14.00">Scimitar</text>
<text text-anchor="middle" x="535.245" y="-15.6701" font-family="Times New Roman,serif" font-size="14.00">+ Reflexes</text>
</g>
<!-- Anvil&#45;&gt;Scimitar
+ Reflexes -->
<g id="edge2" class="edge"><title>Anvil&#45;&gt;Scimitar
+ Reflexes</title>
<path fill="none" stroke="black" d="M265.065,-117.887C293.46,-113.286 337.511,-103.953 372.245,-86.7401 381.885,-81.9629 381.574,-76.4532 391.245,-71.7401 421.672,-56.9124 432.872,-63.6233 465.245,-53.7401 471.263,-51.903 477.516,-49.8319 483.7,-47.6817"/>
<polygon fill="black" stroke="black" points="485.067,-50.9103 493.315,-44.2601 482.72,-44.3154 485.067,-50.9103"/>
<text text-anchor="middle" x="419.245" y="-75.5401" font-family="Times New Roman,serif" font-size="14.00">Crafting 5</text>
</g>
<!-- Scimitar
+ Large_Damage -->
<g id="node8" class="node"><title>Scimitar
+ Large_Damage</title>
<ellipse fill="none" stroke="black" cx="376.245" cy="-26.8701" rx="79.8062" ry="26.7407"/>
<text text-anchor="middle" x="376.245" y="-30.6701" font-family="Times New Roman,serif" font-size="14.00">Scimitar</text>
<text text-anchor="middle" x="376.245" y="-15.6701" font-family="Times New Roman,serif" font-size="14.00">+ Large_Damage</text>
</g>
<!-- Anvil&#45;&gt;Scimitar
+ Large_Damage -->
<g id="edge6" class="edge"><title>Anvil&#45;&gt;Scimitar
+ Large_Damage</title>
<path fill="none" stroke="black" d="M231.96,-104.843C230.326,-94.317 230.274,-81.0542 237.245,-71.7401 241.814,-65.6355 272.894,-55.5544 304.508,-46.5944"/>
<polygon fill="black" stroke="black" points="305.618,-49.9182 314.307,-43.8554 303.734,-43.1766 305.618,-49.9182"/>
<text text-anchor="middle" x="265.245" y="-75.5401" font-family="Times New Roman,serif" font-size="14.00">Crafting 5</text>
</g>
<!-- LongSword
+ Small_ActionPoint -->
<g id="node10" class="node"><title>LongSword
+ Small_ActionPoint</title>
<ellipse fill="none" stroke="black" cx="706.245" cy="-26.8701" rx="94.5053" ry="26.7407"/>
<text text-anchor="middle" x="706.245" y="-30.6701" font-family="Times New Roman,serif" font-size="14.00">LongSword</text>
<text text-anchor="middle" x="706.245" y="-15.6701" font-family="Times New Roman,serif" font-size="14.00">+ Small_ActionPoint</text>
</g>
<!-- Anvil&#45;&gt;LongSword
+ Small_ActionPoint -->
<g id="edge3" class="edge"><title>Anvil&#45;&gt;LongSword
+ Small_ActionPoint</title>
<path fill="none" stroke="black" d="M265.735,-118.741C333.675,-111.741 497.247,-94.348 521.245,-86.7401 534.703,-82.4737 536.146,-77.0047 549.245,-71.7401 573.239,-62.097 600.105,-53.7489 624.737,-46.9998"/>
<polygon fill="black" stroke="black" points="625.668,-50.3739 634.416,-44.3973 623.851,-43.614 625.668,-50.3739"/>
<text text-anchor="middle" x="577.245" y="-75.5401" font-family="Times New Roman,serif" font-size="14.00">Crafting 5</text>
</g>
<!-- Bone_A_Iron -->
<g id="node4" class="node"><title>Bone_A_Iron</title>
<ellipse fill="none" stroke="black" cx="416.245" cy="-209.74" rx="61.1893" ry="18"/>
<text text-anchor="middle" x="416.245" y="-206.04" font-family="Times New Roman,serif" font-size="14.00">Bone_A_Iron</text>
</g>
<!-- Bone_A_Iron&#45;&gt;OreBar_A_Iron -->
<g id="edge7" class="edge"><title>Bone_A_Iron&#45;&gt;OreBar_A_Iron</title>
<path fill="none" stroke="black" d="M421.487,-191.675C425.041,-181.588 430.349,-168.852 437.245,-158.74 439.857,-154.91 442.938,-151.16 446.18,-147.623"/>
<polygon fill="black" stroke="black" points="448.896,-149.854 453.415,-140.271 443.906,-144.944 448.896,-149.854"/>
<text text-anchor="middle" x="465.245" y="-162.54" font-family="Times New Roman,serif" font-size="14.00">Crafting 0</text>
</g>
<!-- OreBar_A_Iron&#45;&gt;LongSword -->
<g id="edge8" class="edge"><title>OreBar_A_Iron&#45;&gt;LongSword</title>
<path fill="none" stroke="black" d="M413.919,-113.682C383.86,-108.322 347.258,-99.8017 316.245,-86.7401 304.998,-82.0031 303.762,-77.9314 293.245,-71.7401 278.728,-63.1938 262.403,-54.3972 248.097,-46.9456"/>
<polygon fill="black" stroke="black" points="249.517,-43.74 239.027,-42.2592 246.304,-49.959 249.517,-43.74"/>
<text text-anchor="middle" x="344.245" y="-75.5401" font-family="Times New Roman,serif" font-size="14.00">Crafting 4</text>
</g>
<!-- OreBar_A_Iron&#45;&gt;ShortSword -->
<g id="edge12" class="edge"><title>OreBar_A_Iron&#45;&gt;ShortSword</title>
<path fill="none" stroke="black" d="M408.664,-116.888C333.762,-110.794 215.083,-99.5687 172.245,-86.7401 156.05,-81.8903 119.197,-62.814 91.1471,-47.6735"/>
<polygon fill="black" stroke="black" points="92.4729,-44.4108 82.0145,-42.716 89.1333,-50.5628 92.4729,-44.4108"/>
<text text-anchor="middle" x="200.245" y="-75.5401" font-family="Times New Roman,serif" font-size="14.00">Crafting 3</text>
</g>
<!-- OreBar_A_Iron&#45;&gt;Scimitar
+ Reflexes -->
<g id="edge9" class="edge"><title>OreBar_A_Iron&#45;&gt;Scimitar
+ Reflexes</title>
<path fill="none" stroke="black" d="M532.595,-113.752C564.617,-108.095 599.536,-99.2647 609.245,-86.7401 620.977,-71.607 606.657,-58.0431 587.59,-47.76"/>
<polygon fill="black" stroke="black" points="589.083,-44.5939 578.571,-43.2723 585.965,-50.8609 589.083,-44.5939"/>
<text text-anchor="middle" x="642.245" y="-75.5401" font-family="Times New Roman,serif" font-size="14.00">Crafting 5</text>
</g>
<!-- OreBar_A_Iron&#45;&gt;Scimitar
+ Large_Damage -->
<g id="edge11" class="edge"><title>OreBar_A_Iron&#45;&gt;Scimitar
+ Large_Damage</title>
<path fill="none" stroke="black" d="M468.623,-104.489C465.164,-94.0865 459.575,-81.0851 451.245,-71.7401 445.474,-65.2652 438.511,-59.4857 431.184,-54.4159"/>
<polygon fill="black" stroke="black" points="432.765,-51.2707 422.464,-48.7913 428.97,-57.1531 432.765,-51.2707"/>
<text text-anchor="middle" x="489.245" y="-75.5401" font-family="Times New Roman,serif" font-size="14.00">Crafting 5</text>
</g>
<!-- OreBar_A_Iron&#45;&gt;LongSword
+ Small_ActionPoint -->
<g id="edge10" class="edge"><title>OreBar_A_Iron&#45;&gt;LongSword
+ Small_ActionPoint</title>
<path fill="none" stroke="black" d="M537.495,-116.625C587.801,-111.524 652.737,-102.181 674.245,-86.7401 682.521,-80.7987 688.88,-72.0326 693.664,-63.0699"/>
<polygon fill="black" stroke="black" points="696.954,-64.302 698.095,-53.7687 690.634,-61.2916 696.954,-64.302"/>
<text text-anchor="middle" x="716.245" y="-75.5401" font-family="Times New Roman,serif" font-size="14.00">Crafting 5</text>
</g>
<!-- Sword -->
<g id="node9" class="node"><title>Sword</title>
<ellipse fill="none" stroke="black" cx="530.245" cy="-209.74" rx="35.194" ry="18"/>
<text text-anchor="middle" x="530.245" y="-206.04" font-family="Times New Roman,serif" font-size="14.00">Sword</text>
</g>
<!-- Sword&#45;&gt;OreBar_A_Iron -->
<g id="edge1" class="edge"><title>Sword&#45;&gt;OreBar_A_Iron</title>
<path fill="none" stroke="black" d="M519.255,-192.351C511.081,-180.163 499.771,-163.296 490.409,-149.336"/>
<polygon fill="black" stroke="black" points="493.068,-147.017 484.592,-140.66 487.254,-150.915 493.068,-147.017"/>
<text text-anchor="middle" x="533.245" y="-162.54" font-family="Times New Roman,serif" font-size="14.00">Crafting 1</text>
</g>
<!-- Ore_A_Iron -->
<g id="node11" class="node"><title>Ore_A_Iron</title>
<ellipse fill="none" stroke="black" cx="639.245" cy="-209.74" rx="55.7903" ry="18"/>
<text text-anchor="middle" x="639.245" y="-206.04" font-family="Times New Roman,serif" font-size="14.00">Ore_A_Iron</text>
</g>
<!-- Ore_A_Iron&#45;&gt;OreBar_A_Iron -->
<g id="edge14" class="edge"><title>Ore_A_Iron&#45;&gt;OreBar_A_Iron</title>
<path fill="none" stroke="black" d="M618.676,-192.948C604.255,-182.358 584.235,-168.599 565.245,-158.74 552.308,-152.024 537.779,-145.897 524.154,-140.714"/>
<polygon fill="black" stroke="black" points="525.022,-137.303 514.429,-137.111 522.59,-143.867 525.022,-137.303"/>
<text text-anchor="middle" x="619.245" y="-162.54" font-family="Times New Roman,serif" font-size="14.00">Crafting 0</text>
</g>
</g>
</svg>
