<?xml version="1.0" encoding="UTF-8" standalone="no"?>
<!DOCTYPE svg PUBLIC "-//W3C//DTD SVG 1.1//EN"
 "http://www.w3.org/Graphics/SVG/1.1/DTD/svg11.dtd">
<!-- Generated by graphviz version 2.38.0 (20140413.2041)
 -->
<!-- Title: G Pages: 1 -->
<svg width="942pt" height="149pt"
 viewBox="0.00 0.00 941.60 148.74" xmlns="http://www.w3.org/2000/svg" xmlns:xlink="http://www.w3.org/1999/xlink">
<g id="graph0" class="graph" transform="scale(1 1) rotate(0) translate(4 144.74)">
<title>G</title>
<polygon fill="white" stroke="none" points="-4,4 -4,-144.74 937.603,-144.74 937.603,4 -4,4"/>
<!-- Scraps_Metal -->
<g id="node1" class="node"><title>Scraps_Metal</title>
<ellipse fill="none" stroke="black" cx="323.244" cy="-122.74" rx="61.1893" ry="18"/>
<text text-anchor="middle" x="323.244" y="-119.04" font-family="Times New Roman,serif" font-size="14.00">Scraps_Metal</text>
</g>
<!-- Metal_J_Torso -->
<g id="node2" class="node"><title>Metal_J_Torso</title>
<ellipse fill="none" stroke="black" cx="221.244" cy="-26.8701" rx="66.0889" ry="18"/>
<text text-anchor="middle" x="221.244" y="-23.1701" font-family="Times New Roman,serif" font-size="14.00">Metal_J_Torso</text>
</g>
<!-- Scraps_Metal&#45;&gt;Metal_J_Torso -->
<g id="edge3" class="edge"><title>Scraps_Metal&#45;&gt;Metal_J_Torso</title>
<path fill="none" stroke="black" d="M265.779,-116.409C226.257,-111.415 178.733,-102.32 166.244,-86.7401 155.689,-73.5725 167.3,-59.7398 182.529,-48.794"/>
<polygon fill="black" stroke="black" points="184.832,-51.4673 191.243,-43.0326 180.971,-45.628 184.832,-51.4673"/>
<text text-anchor="middle" x="194.244" y="-75.5401" font-family="Times New Roman,serif" font-size="14.00">Crafting 4</text>
</g>
<!-- Metal_F_Torso -->
<g id="node3" class="node"><title>Metal_F_Torso</title>
<ellipse fill="none" stroke="black" cx="68.2439" cy="-26.8701" rx="68.4888" ry="18"/>
<text text-anchor="middle" x="68.2439" y="-23.1701" font-family="Times New Roman,serif" font-size="14.00">Metal_F_Torso</text>
</g>
<!-- Scraps_Metal&#45;&gt;Metal_F_Torso -->
<g id="edge5" class="edge"><title>Scraps_Metal&#45;&gt;Metal_F_Torso</title>
<path fill="none" stroke="black" d="M264.124,-118.091C207.782,-113.612 127.857,-104.34 102.244,-86.7401 90.9207,-78.9592 82.8651,-66.0823 77.4468,-54.3526"/>
<polygon fill="black" stroke="black" points="80.5853,-52.7853 73.5018,-44.9065 74.126,-55.483 80.5853,-52.7853"/>
<text text-anchor="middle" x="130.244" y="-75.5401" font-family="Times New Roman,serif" font-size="14.00">Crafting 3</text>
</g>
<!-- Plate_Body
+ Small_Luck_Mod -->
<g id="node4" class="node"><title>Plate_Body
+ Small_Luck_Mod</title>
<ellipse fill="none" stroke="black" cx="613.244" cy="-26.8701" rx="91.8478" ry="26.7407"/>
<text text-anchor="middle" x="613.244" y="-30.6701" font-family="Times New Roman,serif" font-size="14.00">Plate_Body</text>
<text text-anchor="middle" x="613.244" y="-15.6701" font-family="Times New Roman,serif" font-size="14.00">+ Small_Luck_Mod</text>
</g>
<!-- Scraps_Metal&#45;&gt;Plate_Body
+ Small_Luck_Mod -->
<g id="edge1" class="edge"><title>Scraps_Metal&#45;&gt;Plate_Body
+ Small_Luck_Mod</title>
<path fill="none" stroke="black" d="M375.742,-113.533C401.771,-108.162 433.139,-99.6767 459.244,-86.7401 468.884,-81.9629 468.757,-76.8153 478.244,-71.7401 495.904,-62.2924 515.956,-54.422 535.103,-48.0796"/>
<polygon fill="black" stroke="black" points="536.261,-51.3837 544.713,-44.9955 534.122,-44.7184 536.261,-51.3837"/>
<text text-anchor="middle" x="506.244" y="-75.5401" font-family="Times New Roman,serif" font-size="14.00">Crafting 5</text>
</g>
<!-- Plate_Body
+ Small_Vitality_Mod -->
<g id="node5" class="node"><title>Plate_Body
+ Small_Vitality_Mod</title>
<ellipse fill="none" stroke="black" cx="404.244" cy="-26.8701" rx="98.9899" ry="26.7407"/>
<text text-anchor="middle" x="404.244" y="-30.6701" font-family="Times New Roman,serif" font-size="14.00">Plate_Body</text>
<text text-anchor="middle" x="404.244" y="-15.6701" font-family="Times New Roman,serif" font-size="14.00">+ Small_Vitality_Mod</text>
</g>
<!-- Scraps_Metal&#45;&gt;Plate_Body
+ Small_Vitality_Mod -->
<g id="edge4" class="edge"><title>Scraps_Metal&#45;&gt;Plate_Body
+ Small_Vitality_Mod</title>
<path fill="none" stroke="black" d="M319.483,-104.342C318.23,-94.1371 318.396,-81.3943 324.244,-71.7401 328.137,-65.313 333.334,-59.7614 339.218,-54.9816"/>
<polygon fill="black" stroke="black" points="341.545,-57.6191 347.61,-48.9323 337.452,-51.9406 341.545,-57.6191"/>
<text text-anchor="middle" x="352.244" y="-75.5401" font-family="Times New Roman,serif" font-size="14.00">Crafting 5</text>
</g>
<!-- Plate_Body
+ Small_ArmorDefense -->
<g id="node6" class="node"><title>Plate_Body
+ Small_ArmorDefense</title>
<ellipse fill="none" stroke="black" cx="828.244" cy="-26.8701" rx="105.218" ry="26.7407"/>
<text text-anchor="middle" x="828.244" y="-30.6701" font-family="Times New Roman,serif" font-size="14.00">Plate_Body</text>
<text text-anchor="middle" x="828.244" y="-15.6701" font-family="Times New Roman,serif" font-size="14.00">+ Small_ArmorDefense</text>
</g>
<!-- Scraps_Metal&#45;&gt;Plate_Body
+ Small_ArmorDefense -->
<g id="edge2" class="edge"><title>Scraps_Metal&#45;&gt;Plate_Body
+ Small_ArmorDefense</title>
<path fill="none" stroke="black" d="M381.581,-117.257C452.622,-111.336 568.214,-100.084 609.244,-86.7401 622.298,-82.4945 623.425,-76.6512 636.244,-71.7401 637.593,-71.2232 691.096,-59.0101 741.275,-47.6023"/>
<polygon fill="black" stroke="black" points="742.274,-50.9645 751.25,-45.3352 740.723,-44.1386 742.274,-50.9645"/>
<text text-anchor="middle" x="667.244" y="-75.5401" font-family="Times New Roman,serif" font-size="14.00">Crafting 5</text>
</g>
<!-- Hammer -->
<g id="node7" class="node"><title>Hammer</title>
<ellipse fill="none" stroke="black" cx="560.244" cy="-122.74" rx="41.6928" ry="18"/>
<text text-anchor="middle" x="560.244" y="-119.04" font-family="Times New Roman,serif" font-size="14.00">Hammer</text>
</g>
<!-- Hammer&#45;&gt;Metal_J_Torso -->
<g id="edge8" class="edge"><title>Hammer&#45;&gt;Metal_J_Torso</title>
<path fill="none" stroke="black" d="M519.913,-118.089C486.325,-113.869 437.913,-105 399.244,-86.7401 389.515,-82.1461 389.979,-76.3197 380.244,-71.7401 345.695,-55.488 333.025,-63.9839 296.244,-53.7401 287.182,-51.2163 277.617,-48.1978 268.463,-45.1282"/>
<polygon fill="black" stroke="black" points="269.328,-41.7251 258.733,-41.7984 267.061,-48.348 269.328,-41.7251"/>
<text text-anchor="middle" x="427.244" y="-75.5401" font-family="Times New Roman,serif" font-size="14.00">Crafting 4</text>
</g>
<!-- Hammer&#45;&gt;Metal_F_Torso -->
<g id="edge10" class="edge"><title>Hammer&#45;&gt;Metal_F_Torso</title>
<path fill="none" stroke="black" d="M520.318,-117.666C444.475,-109.84 284.91,-92.9347 260.244,-86.7401 242.634,-82.3175 239.567,-77.1797 222.244,-71.7401 189.126,-61.3408 179.639,-63.213 146.244,-53.7401 136.872,-51.0816 126.95,-48.0009 117.439,-44.9122"/>
<polygon fill="black" stroke="black" points="118.309,-41.5139 107.716,-41.708 116.118,-48.1622 118.309,-41.5139"/>
<text text-anchor="middle" x="288.244" y="-75.5401" font-family="Times New Roman,serif" font-size="14.00">Crafting 3</text>
</g>
<!-- Hammer&#45;&gt;Plate_Body
+ Small_Luck_Mod -->
<g id="edge6" class="edge"><title>Hammer&#45;&gt;Plate_Body
+ Small_Luck_Mod</title>
<path fill="none" stroke="black" d="M599.928,-116.922C635.714,-111.665 684.481,-101.914 696.244,-86.7401 706.655,-73.3103 697.525,-61.6615 682.069,-52.3514"/>
<polygon fill="black" stroke="black" points="683.379,-49.0819 672.915,-47.4232 680.061,-55.2454 683.379,-49.0819"/>
<text text-anchor="middle" x="729.244" y="-75.5401" font-family="Times New Roman,serif" font-size="14.00">Crafting 5</text>
</g>
<!-- Hammer&#45;&gt;Plate_Body
+ Small_Vitality_Mod -->
<g id="edge9" class="edge"><title>Hammer&#45;&gt;Plate_Body
+ Small_Vitality_Mod</title>
<path fill="none" stroke="black" d="M556.573,-104.791C553.412,-93.972 547.8,-80.402 538.244,-71.7401 525.928,-60.5766 510.717,-52.2488 495.014,-46.0377"/>
<polygon fill="black" stroke="black" points="495.788,-42.5937 485.194,-42.4375 493.378,-49.1659 495.788,-42.5937"/>
<text text-anchor="middle" x="577.244" y="-75.5401" font-family="Times New Roman,serif" font-size="14.00">Crafting 5</text>
</g>
<!-- Hammer&#45;&gt;Plate_Body
+ Small_ArmorDefense -->
<g id="edge7" class="edge"><title>Hammer&#45;&gt;Plate_Body
+ Small_ArmorDefense</title>
<path fill="none" stroke="black" d="M601.884,-121.014C643.982,-118.819 709.97,-111.296 761.244,-86.7401 774.729,-80.2817 787.574,-70.3196 798.342,-60.4158"/>
<polygon fill="black" stroke="black" points="801.003,-62.714 805.796,-53.2656 796.157,-57.6624 801.003,-62.714"/>
<text text-anchor="middle" x="814.244" y="-75.5401" font-family="Times New Roman,serif" font-size="14.00">Crafting 5</text>
</g>
</g>
</svg>
