<?xml version="1.0" encoding="UTF-8" standalone="no"?>
<!DOCTYPE svg PUBLIC "-//W3C//DTD SVG 1.1//EN"
 "http://www.w3.org/Graphics/SVG/1.1/DTD/svg11.dtd">
<!-- Generated by graphviz version 2.38.0 (20140413.2041)
 -->
<!-- Title: G Pages: 1 -->
<svg width="228pt" height="149pt"
 viewBox="0.00 0.00 228.05 148.74" xmlns="http://www.w3.org/2000/svg" xmlns:xlink="http://www.w3.org/1999/xlink">
<g id="graph0" class="graph" transform="scale(1 1) rotate(0) translate(4 144.74)">
<title>G</title>
<polygon fill="white" stroke="none" points="-4,4 -4,-144.74 224.046,-144.74 224.046,4 -4,4"/>
<!-- Club -->
<g id="node1" class="node"><title>Club</title>
<ellipse fill="none" stroke="black" cx="44.7021" cy="-122.74" rx="28.6953" ry="18"/>
<text text-anchor="middle" x="44.7021" y="-119.04" font-family="Times New Roman,serif" font-size="14.00">Club</text>
</g>
<!-- Club
+ Small_EarthDamage -->
<g id="node2" class="node"><title>Club
+ Small_EarthDamage</title>
<ellipse fill="none" stroke="black" cx="99.7021" cy="-26.8701" rx="99.9045" ry="26.7407"/>
<text text-anchor="middle" x="99.7021" y="-30.6701" font-family="Times New Roman,serif" font-size="14.00">Club</text>
<text text-anchor="middle" x="99.7021" y="-15.6701" font-family="Times New Roman,serif" font-size="14.00">+ Small_EarthDamage</text>
</g>
<!-- Club&#45;&gt;Club
+ Small_EarthDamage -->
<g id="edge1" class="edge"><title>Club&#45;&gt;Club
+ Small_EarthDamage</title>
<path fill="none" stroke="black" d="M54.2823,-105.389C61.2149,-93.5572 70.8385,-77.1323 79.4436,-62.4457"/>
<polygon fill="black" stroke="black" points="82.6012,-63.98 84.6367,-53.5825 76.5615,-60.4412 82.6012,-63.98"/>
<text text-anchor="middle" x="102.702" y="-75.5401" font-family="Times New Roman,serif" font-size="14.00">Crafting 5</text>
</g>
<!-- Essence_Earth -->
<g id="node3" class="node"><title>Essence_Earth</title>
<ellipse fill="none" stroke="black" cx="155.702" cy="-122.74" rx="64.189" ry="18"/>
<text text-anchor="middle" x="155.702" y="-119.04" font-family="Times New Roman,serif" font-size="14.00">Essence_Earth</text>
</g>
<!-- Essence_Earth&#45;&gt;Club
+ Small_EarthDamage -->
<g id="edge2" class="edge"><title>Essence_Earth&#45;&gt;Club
+ Small_EarthDamage</title>
<path fill="none" stroke="black" d="M149.359,-104.563C145.411,-94.6712 139.911,-82.1712 133.702,-71.7401 131.707,-68.3893 129.494,-65.0015 127.18,-61.6723"/>
<polygon fill="black" stroke="black" points="130.003,-59.6021 121.291,-53.5716 124.341,-63.7182 130.003,-59.6021"/>
<text text-anchor="middle" x="169.702" y="-75.5401" font-family="Times New Roman,serif" font-size="14.00">Crafting 5</text>
</g>
</g>
</svg>
