<?xml version="1.0" encoding="UTF-8" standalone="no"?>
<!DOCTYPE svg PUBLIC "-//W3C//DTD SVG 1.1//EN"
 "http://www.w3.org/Graphics/SVG/1.1/DTD/svg11.dtd">
<!-- Generated by graphviz version 2.38.0 (20140413.2041)
 -->
<!-- Title: G Pages: 1 -->
<svg width="216pt" height="149pt"
 viewBox="0.00 0.00 215.55 148.74" xmlns="http://www.w3.org/2000/svg" xmlns:xlink="http://www.w3.org/1999/xlink">
<g id="graph0" class="graph" transform="scale(1 1) rotate(0) translate(4 144.74)">
<title>G</title>
<polygon fill="white" stroke="none" points="-4,4 -4,-144.74 211.547,-144.74 211.547,4 -4,4"/>
<!-- Staff
+ Small_FireDamage -->
<g id="node1" class="node"><title>Staff
+ Small_FireDamage</title>
<ellipse fill="none" stroke="black" cx="112.795" cy="-26.8701" rx="94.5053" ry="26.7407"/>
<text text-anchor="middle" x="112.795" y="-30.6701" font-family="Times New Roman,serif" font-size="14.00">Staff</text>
<text text-anchor="middle" x="112.795" y="-15.6701" font-family="Times New Roman,serif" font-size="14.00">+ Small_FireDamage</text>
</g>
<!-- Essence_Fire -->
<g id="node2" class="node"><title>Essence_Fire</title>
<ellipse fill="none" stroke="black" cx="59.7947" cy="-122.74" rx="59.5901" ry="18"/>
<text text-anchor="middle" x="59.7947" y="-119.04" font-family="Times New Roman,serif" font-size="14.00">Essence_Fire</text>
</g>
<!-- Essence_Fire&#45;&gt;Staff
+ Small_FireDamage -->
<g id="edge1" class="edge"><title>Essence_Fire&#45;&gt;Staff
+ Small_FireDamage</title>
<path fill="none" stroke="black" d="M69.3528,-104.598C74.7495,-94.9376 81.6288,-82.6546 87.7947,-71.7401 89.4844,-68.7491 91.2426,-65.6459 93.0087,-62.5348"/>
<polygon fill="black" stroke="black" points="96.0562,-64.256 97.9568,-53.8331 89.9711,-60.7959 96.0562,-64.256"/>
<text text-anchor="middle" x="115.795" y="-75.5401" font-family="Times New Roman,serif" font-size="14.00">Crafting 5</text>
</g>
<!-- Staff -->
<g id="node3" class="node"><title>Staff</title>
<ellipse fill="none" stroke="black" cx="165.795" cy="-122.74" rx="28.6953" ry="18"/>
<text text-anchor="middle" x="165.795" y="-119.04" font-family="Times New Roman,serif" font-size="14.00">Staff</text>
</g>
<!-- Staff&#45;&gt;Staff
+ Small_FireDamage -->
<g id="edge2" class="edge"><title>Staff&#45;&gt;Staff
+ Small_FireDamage</title>
<path fill="none" stroke="black" d="M159.464,-105.124C155.444,-95.1968 149.865,-82.4708 143.795,-71.7401 141.941,-68.4628 139.9,-65.1281 137.779,-61.8355"/>
<polygon fill="black" stroke="black" points="140.522,-59.6418 132.044,-53.2868 134.708,-63.5413 140.522,-59.6418"/>
<text text-anchor="middle" x="178.795" y="-75.5401" font-family="Times New Roman,serif" font-size="14.00">Crafting 5</text>
</g>
</g>
</svg>
