<?xml version="1.0" encoding="UTF-8" standalone="no"?>
<!DOCTYPE svg PUBLIC "-//W3C//DTD SVG 1.1//EN"
 "http://www.w3.org/Graphics/SVG/1.1/DTD/svg11.dtd">
<!-- Generated by graphviz version 2.38.0 (20140413.2041)
 -->
<!-- Title: G Pages: 1 -->
<svg width="446pt" height="479pt"
 viewBox="0.00 0.00 445.54 479.00" xmlns="http://www.w3.org/2000/svg" xmlns:xlink="http://www.w3.org/1999/xlink">
<g id="graph0" class="graph" transform="scale(1 1) rotate(0) translate(4 475)">
<title>G</title>
<polygon fill="white" stroke="none" points="-4,4 -4,-475 441.537,-475 441.537,4 -4,4"/>
<!-- Herb_Augmentor -->
<g id="node1" class="node"><title>Herb_Augmentor</title>
<ellipse fill="none" stroke="black" cx="74.0934" cy="-192" rx="74.187" ry="18"/>
<text text-anchor="middle" x="74.0934" y="-188.3" font-family="Times New Roman,serif" font-size="14.00">Herb_Augmentor</text>
</g>
<!-- Potion_Water_Res_Large -->
<g id="node6" class="node"><title>Potion_Water_Res_Large</title>
<ellipse fill="none" stroke="black" cx="121.093" cy="-18" rx="105.881" ry="18"/>
<text text-anchor="middle" x="121.093" y="-14.3" font-family="Times New Roman,serif" font-size="14.00">Potion_Water_Res_Large</text>
</g>
<!-- Herb_Augmentor&#45;&gt;Potion_Water_Res_Large -->
<g id="edge2" class="edge"><title>Herb_Augmentor&#45;&gt;Potion_Water_Res_Large</title>
<path fill="none" stroke="black" d="M71.3118,-173.967C68.5451,-152.978 65.9043,-116.477 75.0934,-87 79.9874,-71.3007 89.8135,-55.9404 99.1319,-43.8022"/>
<polygon fill="black" stroke="black" points="101.905,-45.9386 105.435,-35.9491 96.4461,-41.5569 101.905,-45.9386"/>
<text text-anchor="middle" x="103.093" y="-101.3" font-family="Times New Roman,serif" font-size="14.00">Crafting 4</text>
</g>
<!-- Potion_Water_Res_Medium -->
<g id="node7" class="node"><title>Potion_Water_Res_Medium</title>
<ellipse fill="none" stroke="black" cx="255.093" cy="-105" rx="115.08" ry="18"/>
<text text-anchor="middle" x="255.093" y="-101.3" font-family="Times New Roman,serif" font-size="14.00">Potion_Water_Res_Medium</text>
</g>
<!-- Herb_Augmentor&#45;&gt;Potion_Water_Res_Medium -->
<g id="edge1" class="edge"><title>Herb_Augmentor&#45;&gt;Potion_Water_Res_Medium</title>
<path fill="none" stroke="black" d="M106.453,-175.804C135.698,-162.07 178.99,-141.739 211.32,-126.557"/>
<polygon fill="black" stroke="black" points="212.985,-129.641 220.549,-122.222 210.01,-123.305 212.985,-129.641"/>
<text text-anchor="middle" x="204.093" y="-144.8" font-family="Times New Roman,serif" font-size="14.00">Crafting 3</text>
</g>
<!-- Potion_Armor_Boost -->
<g id="node2" class="node"><title>Potion_Armor_Boost</title>
<ellipse fill="none" stroke="black" cx="130.093" cy="-279" rx="90.1842" ry="18"/>
<text text-anchor="middle" x="130.093" y="-275.3" font-family="Times New Roman,serif" font-size="14.00">Potion_Armor_Boost</text>
</g>
<!-- Potion_Water_Res -->
<g id="node5" class="node"><title>Potion_Water_Res</title>
<ellipse fill="none" stroke="black" cx="255.093" cy="-192" rx="80.6858" ry="18"/>
<text text-anchor="middle" x="255.093" y="-188.3" font-family="Times New Roman,serif" font-size="14.00">Potion_Water_Res</text>
</g>
<!-- Potion_Armor_Boost&#45;&gt;Potion_Water_Res -->
<g id="edge3" class="edge"><title>Potion_Armor_Boost&#45;&gt;Potion_Water_Res</title>
<path fill="none" stroke="black" d="M154.195,-261.611C173.649,-248.382 201.207,-229.643 222.608,-215.09"/>
<polygon fill="black" stroke="black" points="224.765,-217.856 231.066,-209.339 220.829,-212.067 224.765,-217.856"/>
<text text-anchor="middle" x="228.093" y="-231.8" font-family="Times New Roman,serif" font-size="14.00">Crafting 2</text>
</g>
<!-- Potion_Empty -->
<g id="node3" class="node"><title>Potion_Empty</title>
<ellipse fill="none" stroke="black" cx="209.093" cy="-453" rx="63.8893" ry="18"/>
<text text-anchor="middle" x="209.093" y="-449.3" font-family="Times New Roman,serif" font-size="14.00">Potion_Empty</text>
</g>
<!-- Minor_Healing_Potion -->
<g id="node10" class="node"><title>Minor_Healing_Potion</title>
<ellipse fill="none" stroke="black" cx="287.093" cy="-366" rx="92.8835" ry="18"/>
<text text-anchor="middle" x="287.093" y="-362.3" font-family="Times New Roman,serif" font-size="14.00">Minor_Healing_Potion</text>
</g>
<!-- Potion_Empty&#45;&gt;Minor_Healing_Potion -->
<g id="edge4" class="edge"><title>Potion_Empty&#45;&gt;Minor_Healing_Potion</title>
<path fill="none" stroke="black" d="M224.504,-435.207C236.042,-422.633 251.992,-405.252 264.902,-391.182"/>
<polygon fill="black" stroke="black" points="267.533,-393.493 271.715,-383.758 262.375,-388.76 267.533,-393.493"/>
<text text-anchor="middle" x="281.093" y="-405.8" font-family="Times New Roman,serif" font-size="14.00">Crafting 1</text>
</g>
<!-- Herb_Whisperwood -->
<g id="node4" class="node"><title>Herb_Whisperwood</title>
<ellipse fill="none" stroke="black" cx="91.0934" cy="-366" rx="85.2851" ry="18"/>
<text text-anchor="middle" x="91.0934" y="-362.3" font-family="Times New Roman,serif" font-size="14.00">Herb_Whisperwood</text>
</g>
<!-- Herb_Whisperwood&#45;&gt;Potion_Armor_Boost -->
<g id="edge5" class="edge"><title>Herb_Whisperwood&#45;&gt;Potion_Armor_Boost</title>
<path fill="none" stroke="black" d="M98.9857,-347.799C104.43,-335.932 111.774,-319.928 117.958,-306.449"/>
<polygon fill="black" stroke="black" points="121.224,-307.724 122.213,-297.175 114.862,-304.805 121.224,-307.724"/>
<text text-anchor="middle" x="141.093" y="-318.8" font-family="Times New Roman,serif" font-size="14.00">Crafting 2</text>
</g>
<!-- Potion_Water_Res&#45;&gt;Potion_Water_Res_Medium -->
<g id="edge6" class="edge"><title>Potion_Water_Res&#45;&gt;Potion_Water_Res_Medium</title>
<path fill="none" stroke="black" d="M255.093,-173.799C255.093,-162.163 255.093,-146.548 255.093,-133.237"/>
<polygon fill="black" stroke="black" points="258.594,-133.175 255.093,-123.175 251.594,-133.175 258.594,-133.175"/>
<text text-anchor="middle" x="283.093" y="-144.8" font-family="Times New Roman,serif" font-size="14.00">Crafting 3</text>
</g>
<!-- Potion_Water_Res_Medium&#45;&gt;Potion_Water_Res_Large -->
<g id="edge7" class="edge"><title>Potion_Water_Res_Medium&#45;&gt;Potion_Water_Res_Large</title>
<path fill="none" stroke="black" d="M228.939,-87.4094C208.095,-74.1873 178.721,-55.555 155.892,-41.0738"/>
<polygon fill="black" stroke="black" points="157.501,-37.9498 147.182,-35.5488 153.752,-43.8609 157.501,-37.9498"/>
<text text-anchor="middle" x="225.093" y="-57.8" font-family="Times New Roman,serif" font-size="14.00">Crafting 4</text>
</g>
<!-- Herb_Mushroom_B -->
<g id="node8" class="node"><title>Herb_Mushroom_B</title>
<ellipse fill="none" stroke="black" cx="323.093" cy="-279" rx="84.485" ry="18"/>
<text text-anchor="middle" x="323.093" y="-275.3" font-family="Times New Roman,serif" font-size="14.00">Herb_Mushroom_B</text>
</g>
<!-- Herb_Mushroom_B&#45;&gt;Potion_Water_Res -->
<g id="edge8" class="edge"><title>Herb_Mushroom_B&#45;&gt;Potion_Water_Res</title>
<path fill="none" stroke="black" d="M309.659,-261.207C299.693,-248.75 285.952,-231.573 274.753,-217.574"/>
<polygon fill="black" stroke="black" points="277.48,-215.381 268.5,-209.758 272.014,-219.754 277.48,-215.381"/>
<text text-anchor="middle" x="321.093" y="-231.8" font-family="Times New Roman,serif" font-size="14.00">Crafting 2</text>
</g>
<!-- Herb_Mushroom -->
<g id="node9" class="node"><title>Herb_Mushroom</title>
<ellipse fill="none" stroke="black" cx="364.093" cy="-453" rx="73.387" ry="18"/>
<text text-anchor="middle" x="364.093" y="-449.3" font-family="Times New Roman,serif" font-size="14.00">Herb_Mushroom</text>
</g>
<!-- Herb_Mushroom&#45;&gt;Minor_Healing_Potion -->
<g id="edge9" class="edge"><title>Herb_Mushroom&#45;&gt;Minor_Healing_Potion</title>
<path fill="none" stroke="black" d="M348.881,-435.207C337.491,-422.633 321.745,-405.252 309,-391.182"/>
<polygon fill="black" stroke="black" points="311.582,-388.82 302.275,-383.758 306.394,-393.519 311.582,-388.82"/>
<text text-anchor="middle" x="358.093" y="-405.8" font-family="Times New Roman,serif" font-size="14.00">Crafting 1</text>
</g>
<!-- Minor_Healing_Potion&#45;&gt;Potion_Armor_Boost -->
<g id="edge10" class="edge"><title>Minor_Healing_Potion&#45;&gt;Potion_Armor_Boost</title>
<path fill="none" stroke="black" d="M257.193,-348.812C232.094,-335.223 196.067,-315.718 168.775,-300.942"/>
<polygon fill="black" stroke="black" points="170.342,-297.811 159.882,-296.128 167.01,-303.967 170.342,-297.811"/>
<text text-anchor="middle" x="246.093" y="-318.8" font-family="Times New Roman,serif" font-size="14.00">Crafting 2</text>
</g>
</g>
</svg>
