<?xml version="1.0" encoding="UTF-8" standalone="no"?>
<!DOCTYPE svg PUBLIC "-//W3C//DTD SVG 1.1//EN"
 "http://www.w3.org/Graphics/SVG/1.1/DTD/svg11.dtd">
<!-- Generated by graphviz version 2.38.0 (20140413.2041)
 -->
<!-- Title: G Pages: 1 -->
<svg width="316pt" height="149pt"
 viewBox="0.00 0.00 315.94 148.74" xmlns="http://www.w3.org/2000/svg" xmlns:xlink="http://www.w3.org/1999/xlink">
<g id="graph0" class="graph" transform="scale(1 1) rotate(0) translate(4 144.74)">
<title>G</title>
<polygon fill="white" stroke="none" points="-4,4 -4,-144.74 311.937,-144.74 311.937,4 -4,4"/>
<!-- TwoHandedSword
+ Small_EarthDamage -->
<g id="node1" class="node"><title>TwoHandedSword
+ Small_EarthDamage</title>
<ellipse fill="none" stroke="black" cx="145.344" cy="-26.8701" rx="99.9045" ry="26.7407"/>
<text text-anchor="middle" x="145.344" y="-30.6701" font-family="Times New Roman,serif" font-size="14.00">TwoHandedSword</text>
<text text-anchor="middle" x="145.344" y="-15.6701" font-family="Times New Roman,serif" font-size="14.00">+ Small_EarthDamage</text>
</g>
<!-- Essence_Earth -->
<g id="node2" class="node"><title>Essence_Earth</title>
<ellipse fill="none" stroke="black" cx="64.3443" cy="-122.74" rx="64.189" ry="18"/>
<text text-anchor="middle" x="64.3443" y="-119.04" font-family="Times New Roman,serif" font-size="14.00">Essence_Earth</text>
</g>
<!-- Essence_Earth&#45;&gt;TwoHandedSword
+ Small_EarthDamage -->
<g id="edge1" class="edge"><title>Essence_Earth&#45;&gt;TwoHandedSword
+ Small_EarthDamage</title>
<path fill="none" stroke="black" d="M78.8255,-104.958C89.2688,-92.8553 103.715,-76.1139 116.477,-61.324"/>
<polygon fill="black" stroke="black" points="119.475,-63.2076 123.358,-53.35 114.175,-58.6345 119.475,-63.2076"/>
<text text-anchor="middle" x="135.344" y="-75.5401" font-family="Times New Roman,serif" font-size="14.00">Crafting 5</text>
</g>
<!-- TwoHandedSword -->
<g id="node3" class="node"><title>TwoHandedSword</title>
<ellipse fill="none" stroke="black" cx="227.344" cy="-122.74" rx="80.6858" ry="18"/>
<text text-anchor="middle" x="227.344" y="-119.04" font-family="Times New Roman,serif" font-size="14.00">TwoHandedSword</text>
</g>
<!-- TwoHandedSword&#45;&gt;TwoHandedSword
+ Small_EarthDamage -->
<g id="edge2" class="edge"><title>TwoHandedSword&#45;&gt;TwoHandedSword
+ Small_EarthDamage</title>
<path fill="none" stroke="black" d="M212.684,-104.958C202.014,-92.7433 187.216,-75.8035 174.209,-60.9137"/>
<polygon fill="black" stroke="black" points="176.817,-58.5786 167.602,-53.35 171.545,-63.1838 176.817,-58.5786"/>
<text text-anchor="middle" x="224.344" y="-75.5401" font-family="Times New Roman,serif" font-size="14.00">Crafting 5</text>
</g>
</g>
</svg>
