<?xml version="1.0" encoding="UTF-8" standalone="no"?>
<!DOCTYPE svg PUBLIC "-//W3C//DTD SVG 1.1//EN"
 "http://www.w3.org/Graphics/SVG/1.1/DTD/svg11.dtd">
<!-- Generated by graphviz version 2.38.0 (20140413.2041)
 -->
<!-- Title: G Pages: 1 -->
<svg width="438pt" height="131pt"
 viewBox="0.00 0.00 438.03 131.00" xmlns="http://www.w3.org/2000/svg" xmlns:xlink="http://www.w3.org/1999/xlink">
<g id="graph0" class="graph" transform="scale(1 1) rotate(0) translate(4 127)">
<title>G</title>
<polygon fill="white" stroke="none" points="-4,4 -4,-127 434.032,-127 434.032,4 -4,4"/>
<!-- Quest_DAF_SheilaAltar -->
<g id="node1" class="node"><title>Quest_DAF_SheilaAltar</title>
<ellipse fill="none" stroke="black" cx="98.7912" cy="-105" rx="98.5829" ry="18"/>
<text text-anchor="middle" x="98.7912" y="-101.3" font-family="Times New Roman,serif" font-size="14.00">Quest_DAF_SheilaAltar</text>
</g>
<!-- Quest_DAF_SheilaAltar_B -->
<g id="node2" class="node"><title>Quest_DAF_SheilaAltar_B</title>
<ellipse fill="none" stroke="black" cx="210.791" cy="-18" rx="109.681" ry="18"/>
<text text-anchor="middle" x="210.791" y="-14.3" font-family="Times New Roman,serif" font-size="14.00">Quest_DAF_SheilaAltar_B</text>
</g>
<!-- Quest_DAF_SheilaAltar&#45;&gt;Quest_DAF_SheilaAltar_B -->
<g id="edge1" class="edge"><title>Quest_DAF_SheilaAltar&#45;&gt;Quest_DAF_SheilaAltar_B</title>
<path fill="none" stroke="black" d="M120.652,-87.4094C137.732,-74.447 161.663,-56.2848 180.575,-41.9318"/>
<polygon fill="black" stroke="black" points="182.753,-44.6728 188.603,-35.8393 178.521,-39.0967 182.753,-44.6728"/>
<text text-anchor="middle" x="189.791" y="-57.8" font-family="Times New Roman,serif" font-size="14.00">Crafting 0</text>
</g>
<!-- Quest_DAF_SheilaAmulet -->
<g id="node3" class="node"><title>Quest_DAF_SheilaAmulet</title>
<ellipse fill="none" stroke="black" cx="322.791" cy="-105" rx="107.482" ry="18"/>
<text text-anchor="middle" x="322.791" y="-101.3" font-family="Times New Roman,serif" font-size="14.00">Quest_DAF_SheilaAmulet</text>
</g>
<!-- Quest_DAF_SheilaAmulet&#45;&gt;Quest_DAF_SheilaAltar_B -->
<g id="edge2" class="edge"><title>Quest_DAF_SheilaAmulet&#45;&gt;Quest_DAF_SheilaAltar_B</title>
<path fill="none" stroke="black" d="M300.664,-87.2067C283.56,-74.226 259.703,-56.1203 240.867,-41.8253"/>
<polygon fill="black" stroke="black" points="242.955,-39.0158 232.873,-35.7584 238.723,-44.5919 242.955,-39.0158"/>
<text text-anchor="middle" x="300.791" y="-57.8" font-family="Times New Roman,serif" font-size="14.00">Crafting 0</text>
</g>
</g>
</svg>
