<?xml version="1.0" encoding="UTF-8" standalone="no"?>
<!DOCTYPE svg PUBLIC "-//W3C//DTD SVG 1.1//EN"
 "http://www.w3.org/Graphics/SVG/1.1/DTD/svg11.dtd">
<!-- Generated by graphviz version 2.38.0 (20140413.2041)
 -->
<!-- Title: G Pages: 1 -->
<svg width="648pt" height="566pt"
 viewBox="0.00 0.00 647.89 566.00" xmlns="http://www.w3.org/2000/svg" xmlns:xlink="http://www.w3.org/1999/xlink">
<g id="graph0" class="graph" transform="scale(1 1) rotate(0) translate(4 562)">
<title>G</title>
<polygon fill="white" stroke="none" points="-4,4 -4,-562 643.893,-562 643.893,4 -4,4"/>
<!-- Pouch_Dust_Pixie -->
<g id="node1" class="node"><title>Pouch_Dust_Pixie</title>
<ellipse fill="none" stroke="black" cx="310.897" cy="-366" rx="78.7863" ry="18"/>
<text text-anchor="middle" x="310.897" y="-362.3" font-family="Times New Roman,serif" font-size="14.00">Pouch_Dust_Pixie</text>
</g>
<!-- Paw_A_Rabbit_A_Magic -->
<g id="node3" class="node"><title>Paw_A_Rabbit_A_Magic</title>
<ellipse fill="none" stroke="black" cx="328.897" cy="-279" rx="105.082" ry="18"/>
<text text-anchor="middle" x="328.897" y="-275.3" font-family="Times New Roman,serif" font-size="14.00">Paw_A_Rabbit_A_Magic</text>
</g>
<!-- Pouch_Dust_Pixie&#45;&gt;Paw_A_Rabbit_A_Magic -->
<g id="edge1" class="edge"><title>Pouch_Dust_Pixie&#45;&gt;Paw_A_Rabbit_A_Magic</title>
<path fill="none" stroke="black" d="M314.54,-347.799C317.004,-336.163 320.311,-320.548 323.13,-307.237"/>
<polygon fill="black" stroke="black" points="326.612,-307.684 325.26,-297.175 319.764,-306.233 326.612,-307.684"/>
<text text-anchor="middle" x="348.897" y="-318.8" font-family="Times New Roman,serif" font-size="14.00">Crafting 1</text>
</g>
<!-- Hair -->
<g id="node2" class="node"><title>Hair</title>
<ellipse fill="none" stroke="black" cx="168.897" cy="-366" rx="27" ry="18"/>
<text text-anchor="middle" x="168.897" y="-362.3" font-family="Times New Roman,serif" font-size="14.00">Hair</text>
</g>
<!-- Thread -->
<g id="node4" class="node"><title>Thread</title>
<ellipse fill="none" stroke="black" cx="168.897" cy="-279" rx="36.2938" ry="18"/>
<text text-anchor="middle" x="168.897" y="-275.3" font-family="Times New Roman,serif" font-size="14.00">Thread</text>
</g>
<!-- Hair&#45;&gt;Thread -->
<g id="edge9" class="edge"><title>Hair&#45;&gt;Thread</title>
<path fill="none" stroke="black" d="M168.897,-347.799C168.897,-336.163 168.897,-320.548 168.897,-307.237"/>
<polygon fill="black" stroke="black" points="172.397,-307.175 168.897,-297.175 165.397,-307.175 172.397,-307.175"/>
<text text-anchor="middle" x="196.897" y="-318.8" font-family="Times New Roman,serif" font-size="14.00">Crafting 0</text>
</g>
<!-- Rabbit_Paw_MagicAmulet -->
<g id="node12" class="node"><title>Rabbit_Paw_MagicAmulet</title>
<ellipse fill="none" stroke="black" cx="236.897" cy="-192" rx="108.581" ry="18"/>
<text text-anchor="middle" x="236.897" y="-188.3" font-family="Times New Roman,serif" font-size="14.00">Rabbit_Paw_MagicAmulet</text>
</g>
<!-- Paw_A_Rabbit_A_Magic&#45;&gt;Rabbit_Paw_MagicAmulet -->
<g id="edge3" class="edge"><title>Paw_A_Rabbit_A_Magic&#45;&gt;Rabbit_Paw_MagicAmulet</title>
<path fill="none" stroke="black" d="M310.721,-261.207C296.986,-248.517 277.951,-230.93 262.649,-216.793"/>
<polygon fill="black" stroke="black" points="264.756,-213.974 255.036,-209.758 260.006,-219.115 264.756,-213.974"/>
<text text-anchor="middle" x="315.897" y="-231.8" font-family="Times New Roman,serif" font-size="14.00">Crafting 1</text>
</g>
<!-- Thread&#45;&gt;Rabbit_Paw_MagicAmulet -->
<g id="edge4" class="edge"><title>Thread&#45;&gt;Rabbit_Paw_MagicAmulet</title>
<path fill="none" stroke="black" d="M178.799,-261.199C184.973,-251.206 193.349,-238.476 201.897,-228 204.85,-224.382 208.126,-220.722 211.455,-217.203"/>
<polygon fill="black" stroke="black" points="214.221,-219.38 218.724,-209.79 209.223,-214.48 214.221,-219.38"/>
<text text-anchor="middle" x="229.897" y="-231.8" font-family="Times New Roman,serif" font-size="14.00">Crafting 1</text>
</g>
<!-- Pouch_Dust_Bone -->
<g id="node5" class="node"><title>Pouch_Dust_Bone</title>
<ellipse fill="none" stroke="black" cx="137.897" cy="-453" rx="79.8859" ry="18"/>
<text text-anchor="middle" x="137.897" y="-449.3" font-family="Times New Roman,serif" font-size="14.00">Pouch_Dust_Bone</text>
</g>
<!-- Pouch_Dust_Bone&#45;&gt;Pouch_Dust_Pixie -->
<g id="edge6" class="edge"><title>Pouch_Dust_Bone&#45;&gt;Pouch_Dust_Pixie</title>
<path fill="none" stroke="black" d="M169.628,-436.41C197.917,-422.511 239.481,-402.089 270.207,-386.993"/>
<polygon fill="black" stroke="black" points="271.936,-390.043 279.368,-382.491 268.849,-383.76 271.936,-390.043"/>
<text text-anchor="middle" x="261.897" y="-405.8" font-family="Times New Roman,serif" font-size="14.00">Crafting 0</text>
</g>
<!-- Paw_A_Rabbit -->
<g id="node6" class="node"><title>Paw_A_Rabbit</title>
<ellipse fill="none" stroke="black" cx="474.897" cy="-366" rx="66.8882" ry="18"/>
<text text-anchor="middle" x="474.897" y="-362.3" font-family="Times New Roman,serif" font-size="14.00">Paw_A_Rabbit</text>
</g>
<!-- Paw_A_Rabbit&#45;&gt;Paw_A_Rabbit_A_Magic -->
<g id="edge7" class="edge"><title>Paw_A_Rabbit&#45;&gt;Paw_A_Rabbit_A_Magic</title>
<path fill="none" stroke="black" d="M448.119,-349.41C424.996,-335.948 391.362,-316.367 365.71,-301.432"/>
<polygon fill="black" stroke="black" points="367.402,-298.367 356.999,-296.361 363.88,-304.417 367.402,-298.367"/>
<text text-anchor="middle" x="437.897" y="-318.8" font-family="Times New Roman,serif" font-size="14.00">Crafting 1</text>
</g>
<!-- Sinew -->
<g id="node7" class="node"><title>Sinew</title>
<ellipse fill="none" stroke="black" cx="56.8973" cy="-279" rx="32.4942" ry="18"/>
<text text-anchor="middle" x="56.8973" y="-275.3" font-family="Times New Roman,serif" font-size="14.00">Sinew</text>
</g>
<!-- String_Bow -->
<g id="node8" class="node"><title>String_Bow</title>
<ellipse fill="none" stroke="black" cx="56.8973" cy="-192" rx="53.8905" ry="18"/>
<text text-anchor="middle" x="56.8973" y="-188.3" font-family="Times New Roman,serif" font-size="14.00">String_Bow</text>
</g>
<!-- Sinew&#45;&gt;String_Bow -->
<g id="edge8" class="edge"><title>Sinew&#45;&gt;String_Bow</title>
<path fill="none" stroke="black" d="M56.8973,-260.799C56.8973,-249.163 56.8973,-233.548 56.8973,-220.237"/>
<polygon fill="black" stroke="black" points="60.3974,-220.175 56.8973,-210.175 53.3974,-220.175 60.3974,-220.175"/>
<text text-anchor="middle" x="84.8973" y="-231.8" font-family="Times New Roman,serif" font-size="14.00">Crafting 0</text>
</g>
<!-- Rabbit_Paw_SuperAmulet -->
<g id="node11" class="node"><title>Rabbit_Paw_SuperAmulet</title>
<ellipse fill="none" stroke="black" cx="158.897" cy="-105" rx="107.781" ry="18"/>
<text text-anchor="middle" x="158.897" y="-101.3" font-family="Times New Roman,serif" font-size="14.00">Rabbit_Paw_SuperAmulet</text>
</g>
<!-- String_Bow&#45;&gt;Rabbit_Paw_SuperAmulet -->
<g id="edge2" class="edge"><title>String_Bow&#45;&gt;Rabbit_Paw_SuperAmulet</title>
<path fill="none" stroke="black" d="M76.0828,-175.012C91.4568,-162.2 113.253,-144.037 130.626,-129.56"/>
<polygon fill="black" stroke="black" points="133.31,-131.879 138.751,-122.789 128.828,-126.502 133.31,-131.879"/>
<text text-anchor="middle" x="142.897" y="-144.8" font-family="Times New Roman,serif" font-size="14.00">Crafting 3</text>
</g>
<!-- Moonstone -->
<g id="node9" class="node"><title>Moonstone</title>
<ellipse fill="none" stroke="black" cx="587.897" cy="-540" rx="51.9908" ry="18"/>
<text text-anchor="middle" x="587.897" y="-536.3" font-family="Times New Roman,serif" font-size="14.00">Moonstone</text>
</g>
<!-- Pouch_Dust_Moon -->
<g id="node19" class="node"><title>Pouch_Dust_Moon</title>
<ellipse fill="none" stroke="black" cx="487.897" cy="-453" rx="83.3857" ry="18"/>
<text text-anchor="middle" x="487.897" y="-449.3" font-family="Times New Roman,serif" font-size="14.00">Pouch_Dust_Moon</text>
</g>
<!-- Moonstone&#45;&gt;Pouch_Dust_Moon -->
<g id="edge10" class="edge"><title>Moonstone&#45;&gt;Pouch_Dust_Moon</title>
<path fill="none" stroke="black" d="M569.088,-523.012C554.016,-510.2 532.647,-492.037 515.615,-477.56"/>
<polygon fill="black" stroke="black" points="517.535,-474.598 507.649,-470.789 513.001,-479.932 517.535,-474.598"/>
<text text-anchor="middle" x="570.897" y="-492.8" font-family="Times New Roman,serif" font-size="14.00">Crafting 0</text>
</g>
<!-- Pouch_Dust_Star -->
<g id="node10" class="node"><title>Pouch_Dust_Star</title>
<ellipse fill="none" stroke="black" cx="310.897" cy="-453" rx="75.2868" ry="18"/>
<text text-anchor="middle" x="310.897" y="-449.3" font-family="Times New Roman,serif" font-size="14.00">Pouch_Dust_Star</text>
</g>
<!-- Pouch_Dust_Star&#45;&gt;Pouch_Dust_Pixie -->
<g id="edge11" class="edge"><title>Pouch_Dust_Star&#45;&gt;Pouch_Dust_Pixie</title>
<path fill="none" stroke="black" d="M310.897,-434.799C310.897,-423.163 310.897,-407.548 310.897,-394.237"/>
<polygon fill="black" stroke="black" points="314.397,-394.175 310.897,-384.175 307.397,-394.175 314.397,-394.175"/>
<text text-anchor="middle" x="338.897" y="-405.8" font-family="Times New Roman,serif" font-size="14.00">Crafting 0</text>
</g>
<!-- Rabbit_Paw_SuperRing -->
<g id="node13" class="node"><title>Rabbit_Paw_SuperRing</title>
<ellipse fill="none" stroke="black" cx="254.897" cy="-18" rx="98.5829" ry="18"/>
<text text-anchor="middle" x="254.897" y="-14.3" font-family="Times New Roman,serif" font-size="14.00">Rabbit_Paw_SuperRing</text>
</g>
<!-- Rabbit_Paw_SuperAmulet&#45;&gt;Rabbit_Paw_SuperRing -->
<g id="edge12" class="edge"><title>Rabbit_Paw_SuperAmulet&#45;&gt;Rabbit_Paw_SuperRing</title>
<path fill="none" stroke="black" d="M177.864,-87.2067C192.327,-74.4006 212.424,-56.6066 228.464,-42.4043"/>
<polygon fill="black" stroke="black" points="230.803,-45.008 235.97,-35.7584 226.163,-39.7671 230.803,-45.008"/>
<text text-anchor="middle" x="239.897" y="-57.8" font-family="Times New Roman,serif" font-size="14.00">Crafting 2</text>
</g>
<!-- Rabbit_Paw_MagicAmulet&#45;&gt;Rabbit_Paw_SuperAmulet -->
<g id="edge16" class="edge"><title>Rabbit_Paw_MagicAmulet&#45;&gt;Rabbit_Paw_SuperAmulet</title>
<path fill="none" stroke="black" d="M221.113,-173.799C209.726,-161.39 194.188,-144.458 181.488,-130.618"/>
<polygon fill="black" stroke="black" points="183.732,-127.887 174.392,-122.885 178.575,-132.62 183.732,-127.887"/>
<text text-anchor="middle" x="229.897" y="-144.8" font-family="Times New Roman,serif" font-size="14.00">Crafting 3</text>
</g>
<!-- MortarPestle -->
<g id="node14" class="node"><title>MortarPestle</title>
<ellipse fill="none" stroke="black" cx="295.897" cy="-540" rx="57.3905" ry="18"/>
<text text-anchor="middle" x="295.897" y="-536.3" font-family="Times New Roman,serif" font-size="14.00">MortarPestle</text>
</g>
<!-- MortarPestle&#45;&gt;Pouch_Dust_Bone -->
<g id="edge17" class="edge"><title>MortarPestle&#45;&gt;Pouch_Dust_Bone</title>
<path fill="none" stroke="black" d="M268.376,-524.194C242.846,-510.46 204.613,-489.891 176.124,-474.565"/>
<polygon fill="black" stroke="black" points="177.71,-471.444 167.246,-469.789 174.394,-477.609 177.71,-471.444"/>
<text text-anchor="middle" x="253.897" y="-492.8" font-family="Times New Roman,serif" font-size="14.00">Crafting 0</text>
</g>
<!-- MortarPestle&#45;&gt;Pouch_Dust_Star -->
<g id="edge18" class="edge"><title>MortarPestle&#45;&gt;Pouch_Dust_Star</title>
<path fill="none" stroke="black" d="M294.726,-521.708C294.445,-512.001 294.721,-499.721 296.897,-489 297.452,-486.268 298.209,-483.476 299.087,-480.721"/>
<polygon fill="black" stroke="black" points="302.471,-481.659 302.644,-471.066 295.903,-479.239 302.471,-481.659"/>
<text text-anchor="middle" x="324.897" y="-492.8" font-family="Times New Roman,serif" font-size="14.00">Crafting 0</text>
</g>
<!-- MortarPestle&#45;&gt;Pouch_Dust_Moon -->
<g id="edge19" class="edge"><title>MortarPestle&#45;&gt;Pouch_Dust_Moon</title>
<path fill="none" stroke="black" d="M321.846,-523.948C331.731,-517.986 342.995,-510.913 352.897,-504 361.719,-497.841 362.358,-493.975 371.897,-489 387.411,-480.91 405.09,-474.382 421.888,-469.256"/>
<polygon fill="black" stroke="black" points="423.039,-472.566 431.654,-466.398 421.073,-465.847 423.039,-472.566"/>
<text text-anchor="middle" x="399.897" y="-492.8" font-family="Times New Roman,serif" font-size="14.00">Crafting 0</text>
</g>
<!-- Herb_Stardust -->
<g id="node15" class="node"><title>Herb_Stardust</title>
<ellipse fill="none" stroke="black" cx="453.897" cy="-540" rx="63.8893" ry="18"/>
<text text-anchor="middle" x="453.897" y="-536.3" font-family="Times New Roman,serif" font-size="14.00">Herb_Stardust</text>
</g>
<!-- Herb_Stardust&#45;&gt;Pouch_Dust_Star -->
<g id="edge14" class="edge"><title>Herb_Stardust&#45;&gt;Pouch_Dust_Star</title>
<path fill="none" stroke="black" d="M450.325,-521.94C447.205,-511.075 441.603,-497.494 431.897,-489 422.966,-481.184 399.856,-473.703 376.195,-467.679"/>
<polygon fill="black" stroke="black" points="376.967,-464.265 366.42,-465.275 375.295,-471.062 376.967,-464.265"/>
<text text-anchor="middle" x="469.897" y="-492.8" font-family="Times New Roman,serif" font-size="14.00">Crafting 0</text>
</g>
<!-- Ring -->
<g id="node16" class="node"><title>Ring</title>
<ellipse fill="none" stroke="black" cx="312.897" cy="-105" rx="27.8951" ry="18"/>
<text text-anchor="middle" x="312.897" y="-101.3" font-family="Times New Roman,serif" font-size="14.00">Ring</text>
</g>
<!-- Ring&#45;&gt;Rabbit_Paw_SuperRing -->
<g id="edge15" class="edge"><title>Ring&#45;&gt;Rabbit_Paw_SuperRing</title>
<path fill="none" stroke="black" d="M301.988,-88.0122C293.618,-75.746 281.901,-58.5742 272.249,-44.4285"/>
<polygon fill="black" stroke="black" points="275.081,-42.3703 266.554,-36.0828 269.299,-46.3158 275.081,-42.3703"/>
<text text-anchor="middle" x="314.897" y="-57.8" font-family="Times New Roman,serif" font-size="14.00">Crafting 2</text>
</g>
<!-- Skull_Human -->
<g id="node17" class="node"><title>Skull_Human</title>
<ellipse fill="none" stroke="black" cx="137.897" cy="-540" rx="59.5901" ry="18"/>
<text text-anchor="middle" x="137.897" y="-536.3" font-family="Times New Roman,serif" font-size="14.00">Skull_Human</text>
</g>
<!-- Skull_Human&#45;&gt;Pouch_Dust_Bone -->
<g id="edge13" class="edge"><title>Skull_Human&#45;&gt;Pouch_Dust_Bone</title>
<path fill="none" stroke="black" d="M137.897,-521.799C137.897,-510.163 137.897,-494.548 137.897,-481.237"/>
<polygon fill="black" stroke="black" points="141.397,-481.175 137.897,-471.175 134.397,-481.175 141.397,-481.175"/>
<text text-anchor="middle" x="165.897" y="-492.8" font-family="Times New Roman,serif" font-size="14.00">Crafting 0</text>
</g>
<!-- Bone -->
<g id="node18" class="node"><title>Bone</title>
<ellipse fill="none" stroke="black" cx="29.8973" cy="-540" rx="29.795" ry="18"/>
<text text-anchor="middle" x="29.8973" y="-536.3" font-family="Times New Roman,serif" font-size="14.00">Bone</text>
</g>
<!-- Bone&#45;&gt;Pouch_Dust_Bone -->
<g id="edge5" class="edge"><title>Bone&#45;&gt;Pouch_Dust_Bone</title>
<path fill="none" stroke="black" d="M42.7743,-523.471C51.921,-512.999 64.8499,-499.272 77.8973,-489 84.2266,-484.017 91.3378,-479.252 98.392,-474.929"/>
<polygon fill="black" stroke="black" points="100.402,-477.807 107.234,-469.709 96.8433,-471.779 100.402,-477.807"/>
<text text-anchor="middle" x="105.897" y="-492.8" font-family="Times New Roman,serif" font-size="14.00">Crafting 0</text>
</g>
<!-- Pouch_Dust_Moon&#45;&gt;Pouch_Dust_Pixie -->
<g id="edge20" class="edge"><title>Pouch_Dust_Moon&#45;&gt;Pouch_Dust_Pixie</title>
<path fill="none" stroke="black" d="M455.433,-436.41C426.49,-422.511 383.965,-402.089 352.529,-386.993"/>
<polygon fill="black" stroke="black" points="353.686,-383.665 343.156,-382.491 350.655,-389.976 353.686,-383.665"/>
<text text-anchor="middle" x="437.897" y="-405.8" font-family="Times New Roman,serif" font-size="14.00">Crafting 0</text>
</g>
</g>
</svg>
