<?xml version="1.0" encoding="UTF-8" standalone="no"?>
<!DOCTYPE svg PUBLIC "-//W3C//DTD SVG 1.1//EN"
 "http://www.w3.org/Graphics/SVG/1.1/DTD/svg11.dtd">
<!-- Generated by graphviz version 2.38.0 (20140413.2041)
 -->
<!-- Title: G Pages: 1 -->
<svg width="531pt" height="392pt"
 viewBox="0.00 0.00 530.54 392.00" xmlns="http://www.w3.org/2000/svg" xmlns:xlink="http://www.w3.org/1999/xlink">
<g id="graph0" class="graph" transform="scale(1 1) rotate(0) translate(4 388)">
<title>G</title>
<polygon fill="white" stroke="none" points="-4,4 -4,-388 526.537,-388 526.537,4 -4,4"/>
<!-- Herb_Augmentor -->
<g id="node1" class="node"><title>Herb_Augmentor</title>
<ellipse fill="none" stroke="black" cx="74.0934" cy="-192" rx="74.187" ry="18"/>
<text text-anchor="middle" x="74.0934" y="-188.3" font-family="Times New Roman,serif" font-size="14.00">Herb_Augmentor</text>
</g>
<!-- Potion_Poison_Res_Medium -->
<g id="node5" class="node"><title>Potion_Poison_Res_Medium</title>
<ellipse fill="none" stroke="black" cx="258.093" cy="-105" rx="118.079" ry="18"/>
<text text-anchor="middle" x="258.093" y="-101.3" font-family="Times New Roman,serif" font-size="14.00">Potion_Poison_Res_Medium</text>
</g>
<!-- Herb_Augmentor&#45;&gt;Potion_Poison_Res_Medium -->
<g id="edge2" class="edge"><title>Herb_Augmentor&#45;&gt;Potion_Poison_Res_Medium</title>
<path fill="none" stroke="black" d="M106.989,-175.804C136.719,-162.07 180.729,-141.739 213.594,-126.557"/>
<polygon fill="black" stroke="black" points="215.366,-129.594 222.977,-122.222 212.431,-123.239 215.366,-129.594"/>
<text text-anchor="middle" x="206.093" y="-144.8" font-family="Times New Roman,serif" font-size="14.00">Crafting 3</text>
</g>
<!-- Potion_Poison_Res_Large -->
<g id="node6" class="node"><title>Potion_Poison_Res_Large</title>
<ellipse fill="none" stroke="black" cx="122.093" cy="-18" rx="109.381" ry="18"/>
<text text-anchor="middle" x="122.093" y="-14.3" font-family="Times New Roman,serif" font-size="14.00">Potion_Poison_Res_Large</text>
</g>
<!-- Herb_Augmentor&#45;&gt;Potion_Poison_Res_Large -->
<g id="edge1" class="edge"><title>Herb_Augmentor&#45;&gt;Potion_Poison_Res_Large</title>
<path fill="none" stroke="black" d="M71.263,-173.951C68.4471,-152.947 65.7568,-116.431 75.0934,-87 80.1002,-71.2176 90.1405,-55.8491 99.6603,-43.727"/>
<polygon fill="black" stroke="black" points="102.456,-45.8371 106.099,-35.8883 97.0474,-41.3938 102.456,-45.8371"/>
<text text-anchor="middle" x="103.093" y="-101.3" font-family="Times New Roman,serif" font-size="14.00">Crafting 4</text>
</g>
<!-- Potion_Poison_Res -->
<g id="node2" class="node"><title>Potion_Poison_Res</title>
<ellipse fill="none" stroke="black" cx="258.093" cy="-192" rx="83.6854" ry="18"/>
<text text-anchor="middle" x="258.093" y="-188.3" font-family="Times New Roman,serif" font-size="14.00">Potion_Poison_Res</text>
</g>
<!-- Potion_Poison_Res&#45;&gt;Potion_Poison_Res_Medium -->
<g id="edge3" class="edge"><title>Potion_Poison_Res&#45;&gt;Potion_Poison_Res_Medium</title>
<path fill="none" stroke="black" d="M258.093,-173.799C258.093,-162.163 258.093,-146.548 258.093,-133.237"/>
<polygon fill="black" stroke="black" points="261.594,-133.175 258.093,-123.175 254.594,-133.175 261.594,-133.175"/>
<text text-anchor="middle" x="286.093" y="-144.8" font-family="Times New Roman,serif" font-size="14.00">Crafting 3</text>
</g>
<!-- Herb_Drudanae -->
<g id="node3" class="node"><title>Herb_Drudanae</title>
<ellipse fill="none" stroke="black" cx="193.093" cy="-279" rx="68.4888" ry="18"/>
<text text-anchor="middle" x="193.093" y="-275.3" font-family="Times New Roman,serif" font-size="14.00">Herb_Drudanae</text>
</g>
<!-- Herb_Drudanae&#45;&gt;Potion_Poison_Res -->
<g id="edge4" class="edge"><title>Herb_Drudanae&#45;&gt;Potion_Poison_Res</title>
<path fill="none" stroke="black" d="M205.935,-261.207C215.311,-248.946 228.182,-232.114 238.793,-218.239"/>
<polygon fill="black" stroke="black" points="241.761,-220.119 245.056,-210.049 236.201,-215.867 241.761,-220.119"/>
<text text-anchor="middle" x="258.093" y="-231.8" font-family="Times New Roman,serif" font-size="14.00">Crafting 1</text>
</g>
<!-- Potion_Empty -->
<g id="node4" class="node"><title>Potion_Empty</title>
<ellipse fill="none" stroke="black" cx="294.093" cy="-366" rx="63.8893" ry="18"/>
<text text-anchor="middle" x="294.093" y="-362.3" font-family="Times New Roman,serif" font-size="14.00">Potion_Empty</text>
</g>
<!-- Minor_Healing_Potion -->
<g id="node8" class="node"><title>Minor_Healing_Potion</title>
<ellipse fill="none" stroke="black" cx="372.093" cy="-279" rx="92.8835" ry="18"/>
<text text-anchor="middle" x="372.093" y="-275.3" font-family="Times New Roman,serif" font-size="14.00">Minor_Healing_Potion</text>
</g>
<!-- Potion_Empty&#45;&gt;Minor_Healing_Potion -->
<g id="edge5" class="edge"><title>Potion_Empty&#45;&gt;Minor_Healing_Potion</title>
<path fill="none" stroke="black" d="M309.504,-348.207C321.042,-335.633 336.992,-318.252 349.902,-304.182"/>
<polygon fill="black" stroke="black" points="352.533,-306.493 356.715,-296.758 347.375,-301.76 352.533,-306.493"/>
<text text-anchor="middle" x="365.093" y="-318.8" font-family="Times New Roman,serif" font-size="14.00">Crafting 1</text>
</g>
<!-- Potion_Poison_Res_Medium&#45;&gt;Potion_Poison_Res_Large -->
<g id="edge6" class="edge"><title>Potion_Poison_Res_Medium&#45;&gt;Potion_Poison_Res_Large</title>
<path fill="none" stroke="black" d="M231.548,-87.4094C210.299,-74.1288 180.317,-55.39 157.104,-40.8818"/>
<polygon fill="black" stroke="black" points="158.907,-37.8808 148.571,-35.5488 155.196,-43.8168 158.907,-37.8808"/>
<text text-anchor="middle" x="227.093" y="-57.8" font-family="Times New Roman,serif" font-size="14.00">Crafting 4</text>
</g>
<!-- Herb_Mushroom -->
<g id="node7" class="node"><title>Herb_Mushroom</title>
<ellipse fill="none" stroke="black" cx="449.093" cy="-366" rx="73.387" ry="18"/>
<text text-anchor="middle" x="449.093" y="-362.3" font-family="Times New Roman,serif" font-size="14.00">Herb_Mushroom</text>
</g>
<!-- Herb_Mushroom&#45;&gt;Minor_Healing_Potion -->
<g id="edge7" class="edge"><title>Herb_Mushroom&#45;&gt;Minor_Healing_Potion</title>
<path fill="none" stroke="black" d="M433.881,-348.207C422.491,-335.633 406.745,-318.252 394,-304.182"/>
<polygon fill="black" stroke="black" points="396.582,-301.82 387.275,-296.758 391.394,-306.519 396.582,-301.82"/>
<text text-anchor="middle" x="443.093" y="-318.8" font-family="Times New Roman,serif" font-size="14.00">Crafting 1</text>
</g>
<!-- Minor_Healing_Potion&#45;&gt;Potion_Poison_Res -->
<g id="edge8" class="edge"><title>Minor_Healing_Potion&#45;&gt;Potion_Poison_Res</title>
<path fill="none" stroke="black" d="M349.842,-261.409C332.345,-248.363 307.782,-230.049 288.475,-215.653"/>
<polygon fill="black" stroke="black" points="290.397,-212.72 280.288,-209.549 286.213,-218.332 290.397,-212.72"/>
<text text-anchor="middle" x="349.093" y="-231.8" font-family="Times New Roman,serif" font-size="14.00">Crafting 1</text>
</g>
</g>
</svg>
