<?xml version="1.0" encoding="UTF-8" standalone="no"?>
<!DOCTYPE svg PUBLIC "-//W3C//DTD SVG 1.1//EN"
 "http://www.w3.org/Graphics/SVG/1.1/DTD/svg11.dtd">
<!-- Generated by graphviz version 2.38.0 (20140413.2041)
 -->
<!-- Title: G Pages: 1 -->
<svg width="196pt" height="149pt"
 viewBox="0.00 0.00 195.68 148.74" xmlns="http://www.w3.org/2000/svg" xmlns:xlink="http://www.w3.org/1999/xlink">
<g id="graph0" class="graph" transform="scale(1 1) rotate(0) translate(4 144.74)">
<title>G</title>
<polygon fill="white" stroke="none" points="-4,4 -4,-144.74 191.677,-144.74 191.677,4 -4,4"/>
<!-- ArmorScale
+ Small_AllResist -->
<g id="node1" class="node"><title>ArmorScale
+ Small_AllResist</title>
<ellipse fill="none" stroke="black" cx="82.7315" cy="-26.8701" rx="82.9636" ry="26.7407"/>
<text text-anchor="middle" x="82.7315" y="-30.6701" font-family="Times New Roman,serif" font-size="14.00">ArmorScale</text>
<text text-anchor="middle" x="82.7315" y="-15.6701" font-family="Times New Roman,serif" font-size="14.00">+ Small_AllResist</text>
</g>
<!-- Ruby -->
<g id="node2" class="node"><title>Ruby</title>
<ellipse fill="none" stroke="black" cx="31.7315" cy="-122.74" rx="30.5947" ry="18"/>
<text text-anchor="middle" x="31.7315" y="-119.04" font-family="Times New Roman,serif" font-size="14.00">Ruby</text>
</g>
<!-- Ruby&#45;&gt;ArmorScale
+ Small_AllResist -->
<g id="edge1" class="edge"><title>Ruby&#45;&gt;ArmorScale
+ Small_AllResist</title>
<path fill="none" stroke="black" d="M39.303,-104.854C43.8268,-95.0585 49.8268,-82.5585 55.7315,-71.7401 57.4105,-68.6639 59.2082,-65.5014 61.0488,-62.3513"/>
<polygon fill="black" stroke="black" points="64.1606,-63.9671 66.2871,-53.5878 58.1521,-60.3756 64.1606,-63.9671"/>
<text text-anchor="middle" x="83.7315" y="-75.5401" font-family="Times New Roman,serif" font-size="14.00">Crafting 5</text>
</g>
<!-- ArmorScale -->
<g id="node3" class="node"><title>ArmorScale</title>
<ellipse fill="none" stroke="black" cx="133.731" cy="-122.74" rx="53.8905" ry="18"/>
<text text-anchor="middle" x="133.731" y="-119.04" font-family="Times New Roman,serif" font-size="14.00">ArmorScale</text>
</g>
<!-- ArmorScale&#45;&gt;ArmorScale
+ Small_AllResist -->
<g id="edge2" class="edge"><title>ArmorScale&#45;&gt;ArmorScale
+ Small_AllResist</title>
<path fill="none" stroke="black" d="M127.091,-104.733C123.044,-94.8972 117.544,-82.3972 111.731,-71.7401 109.966,-68.5039 108.037,-65.1973 106.038,-61.9229"/>
<polygon fill="black" stroke="black" points="108.954,-59.9855 100.654,-53.4015 103.037,-63.7248 108.954,-59.9855"/>
<text text-anchor="middle" x="146.731" y="-75.5401" font-family="Times New Roman,serif" font-size="14.00">Crafting 5</text>
</g>
</g>
</svg>
