<?xml version="1.0" encoding="UTF-8" standalone="no"?>
<!DOCTYPE svg PUBLIC "-//W3C//DTD SVG 1.1//EN"
 "http://www.w3.org/Graphics/SVG/1.1/DTD/svg11.dtd">
<!-- Generated by graphviz version 2.38.0 (20140413.2041)
 -->
<!-- Title: G Pages: 1 -->
<svg width="237pt" height="149pt"
 viewBox="0.00 0.00 236.83 148.74" xmlns="http://www.w3.org/2000/svg" xmlns:xlink="http://www.w3.org/1999/xlink">
<g id="graph0" class="graph" transform="scale(1 1) rotate(0) translate(4 144.74)">
<title>G</title>
<polygon fill="white" stroke="none" points="-4,4 -4,-144.74 232.832,-144.74 232.832,4 -4,4"/>
<!-- Knife
+ Small_WaterDamage -->
<g id="node1" class="node"><title>Knife
+ Small_WaterDamage</title>
<ellipse fill="none" stroke="black" cx="103.238" cy="-26.8701" rx="103.476" ry="26.7407"/>
<text text-anchor="middle" x="103.238" y="-30.6701" font-family="Times New Roman,serif" font-size="14.00">Knife</text>
<text text-anchor="middle" x="103.238" y="-15.6701" font-family="Times New Roman,serif" font-size="14.00">+ Small_WaterDamage</text>
</g>
<!-- Knife -->
<g id="node2" class="node"><title>Knife</title>
<ellipse fill="none" stroke="black" cx="45.2376" cy="-122.74" rx="30.5947" ry="18"/>
<text text-anchor="middle" x="45.2376" y="-119.04" font-family="Times New Roman,serif" font-size="14.00">Knife</text>
</g>
<!-- Knife&#45;&gt;Knife
+ Small_WaterDamage -->
<g id="edge1" class="edge"><title>Knife&#45;&gt;Knife
+ Small_WaterDamage</title>
<path fill="none" stroke="black" d="M55.3404,-105.389C62.6511,-93.5572 72.7997,-77.1323 81.8741,-62.4457"/>
<polygon fill="black" stroke="black" points="85.0716,-63.9294 87.3505,-53.5825 79.1166,-60.2499 85.0716,-63.9294"/>
<text text-anchor="middle" x="104.238" y="-75.5401" font-family="Times New Roman,serif" font-size="14.00">Crafting 5</text>
</g>
<!-- Essence_Water -->
<g id="node3" class="node"><title>Essence_Water</title>
<ellipse fill="none" stroke="black" cx="161.238" cy="-122.74" rx="67.6881" ry="18"/>
<text text-anchor="middle" x="161.238" y="-119.04" font-family="Times New Roman,serif" font-size="14.00">Essence_Water</text>
</g>
<!-- Essence_Water&#45;&gt;Knife
+ Small_WaterDamage -->
<g id="edge2" class="edge"><title>Essence_Water&#45;&gt;Knife
+ Small_WaterDamage</title>
<path fill="none" stroke="black" d="M153.641,-104.662C149.026,-94.8028 142.776,-82.3028 136.238,-71.7401 134.153,-68.372 131.875,-64.9413 129.522,-61.5569"/>
<polygon fill="black" stroke="black" points="132.265,-59.3767 123.585,-53.302 126.582,-63.464 132.265,-59.3767"/>
<text text-anchor="middle" x="172.238" y="-75.5401" font-family="Times New Roman,serif" font-size="14.00">Crafting 5</text>
</g>
</g>
</svg>
