<?xml version="1.0" encoding="UTF-8" standalone="no"?>
<!DOCTYPE svg PUBLIC "-//W3C//DTD SVG 1.1//EN"
 "http://www.w3.org/Graphics/SVG/1.1/DTD/svg11.dtd">
<!-- Generated by graphviz version 2.38.0 (20140413.2041)
 -->
<!-- Title: G Pages: 1 -->
<svg width="1470pt" height="149pt"
 viewBox="0.00 0.00 1469.56 148.74" xmlns="http://www.w3.org/2000/svg" xmlns:xlink="http://www.w3.org/1999/xlink">
<g id="graph0" class="graph" transform="scale(1 1) rotate(0) translate(4 144.74)">
<title>G</title>
<polygon fill="white" stroke="none" points="-4,4 -4,-144.74 1465.56,-144.74 1465.56,4 -4,4"/>
<!-- PushDagger -->
<g id="node1" class="node"><title>PushDagger</title>
<ellipse fill="none" stroke="black" cx="514.811" cy="-26.8701" rx="54.6905" ry="18"/>
<text text-anchor="middle" x="514.811" y="-23.1701" font-family="Times New Roman,serif" font-size="14.00">PushDagger</text>
</g>
<!-- PushDagger
+ Reflexes -->
<g id="node2" class="node"><title>PushDagger
+ Reflexes</title>
<ellipse fill="none" stroke="black" cx="216.811" cy="-26.8701" rx="59.2941" ry="26.7407"/>
<text text-anchor="middle" x="216.811" y="-30.6701" font-family="Times New Roman,serif" font-size="14.00">PushDagger</text>
<text text-anchor="middle" x="216.811" y="-15.6701" font-family="Times New Roman,serif" font-size="14.00">+ Reflexes</text>
</g>
<!-- Anvil -->
<g id="node3" class="node"><title>Anvil</title>
<ellipse fill="none" stroke="black" cx="577.811" cy="-122.74" rx="29.795" ry="18"/>
<text text-anchor="middle" x="577.811" y="-119.04" font-family="Times New Roman,serif" font-size="14.00">Anvil</text>
</g>
<!-- Anvil&#45;&gt;PushDagger -->
<g id="edge8" class="edge"><title>Anvil&#45;&gt;PushDagger</title>
<path fill="none" stroke="black" d="M548.33,-119.471C507.368,-115.635 436.488,-106.296 420.811,-86.7401 416.641,-81.5384 417.23,-77.3633 420.811,-71.7401 424,-66.7335 448.834,-55.2488 472.173,-45.2861"/>
<polygon fill="black" stroke="black" points="473.823,-48.3889 481.675,-41.2757 471.101,-41.9398 473.823,-48.3889"/>
<text text-anchor="middle" x="449.811" y="-75.5401" font-family="Times New Roman,serif" font-size="14.00">Crafting 3</text>
</g>
<!-- Anvil&#45;&gt;PushDagger
+ Reflexes -->
<g id="edge2" class="edge"><title>Anvil&#45;&gt;PushDagger
+ Reflexes</title>
<path fill="none" stroke="black" d="M547.618,-121.83C448.083,-121.815 134.93,-119.17 104.811,-86.7401 100.274,-81.8552 101.054,-77.2471 104.811,-71.7401 111.457,-61.9989 134.038,-52.3143 157.2,-44.5323"/>
<polygon fill="black" stroke="black" points="158.335,-47.8439 166.767,-41.4289 156.174,-41.1855 158.335,-47.8439"/>
<text text-anchor="middle" x="132.811" y="-75.5401" font-family="Times New Roman,serif" font-size="14.00">Crafting 5</text>
</g>
<!-- LongDagger
+ Reflexes -->
<g id="node4" class="node"><title>LongDagger
+ Reflexes</title>
<ellipse fill="none" stroke="black" cx="60.8112" cy="-26.8701" rx="60.623" ry="26.7407"/>
<text text-anchor="middle" x="60.8112" y="-30.6701" font-family="Times New Roman,serif" font-size="14.00">LongDagger</text>
<text text-anchor="middle" x="60.8112" y="-15.6701" font-family="Times New Roman,serif" font-size="14.00">+ Reflexes</text>
</g>
<!-- Anvil&#45;&gt;LongDagger
+ Reflexes -->
<g id="edge3" class="edge"><title>Anvil&#45;&gt;LongDagger
+ Reflexes</title>
<path fill="none" stroke="black" d="M547.814,-122.111C439.977,-123.133 76.5183,-123.787 41.8112,-86.7401 35.3808,-79.8761 35.5737,-70.8187 38.6109,-61.872"/>
<polygon fill="black" stroke="black" points="41.829,-63.2483 42.6471,-52.6851 35.4203,-60.4326 41.829,-63.2483"/>
<text text-anchor="middle" x="69.8112" y="-75.5401" font-family="Times New Roman,serif" font-size="14.00">Crafting 5</text>
</g>
<!-- LongDagger
+ Small_Dexterity -->
<g id="node5" class="node"><title>LongDagger
+ Small_Dexterity</title>
<ellipse fill="none" stroke="black" cx="1008.81" cy="-26.8701" rx="82.9636" ry="26.7407"/>
<text text-anchor="middle" x="1008.81" y="-30.6701" font-family="Times New Roman,serif" font-size="14.00">LongDagger</text>
<text text-anchor="middle" x="1008.81" y="-15.6701" font-family="Times New Roman,serif" font-size="14.00">+ Small_Dexterity</text>
</g>
<!-- Anvil&#45;&gt;LongDagger
+ Small_Dexterity -->
<g id="edge4" class="edge"><title>Anvil&#45;&gt;LongDagger
+ Small_Dexterity</title>
<path fill="none" stroke="black" d="M607.469,-119.56C670.65,-114.681 816.597,-102.095 863.811,-86.7401 876.866,-82.4945 878.342,-77.4817 890.811,-71.7401 907.562,-64.0271 926.089,-56.6327 943.402,-50.1849"/>
<polygon fill="black" stroke="black" points="944.697,-53.4379 952.877,-46.7041 942.283,-46.8673 944.697,-53.4379"/>
<text text-anchor="middle" x="918.811" y="-75.5401" font-family="Times New Roman,serif" font-size="14.00">Crafting 5</text>
</g>
<!-- Dagger_A_Dagger_B -->
<g id="node6" class="node"><title>Dagger_A_Dagger_B</title>
<ellipse fill="none" stroke="black" cx="678.811" cy="-26.8701" rx="89.0842" ry="18"/>
<text text-anchor="middle" x="678.811" y="-23.1701" font-family="Times New Roman,serif" font-size="14.00">Dagger_A_Dagger_B</text>
</g>
<!-- Anvil&#45;&gt;Dagger_A_Dagger_B -->
<g id="edge5" class="edge"><title>Anvil&#45;&gt;Dagger_A_Dagger_B</title>
<path fill="none" stroke="black" d="M573.809,-104.62C572.38,-94.2672 572.447,-81.2716 578.811,-71.7401 586.731,-59.8773 598.634,-51.198 611.494,-44.8558"/>
<polygon fill="black" stroke="black" points="613.267,-47.898 620.984,-40.6385 610.424,-41.5012 613.267,-47.898"/>
<text text-anchor="middle" x="606.811" y="-75.5401" font-family="Times New Roman,serif" font-size="14.00">Crafting 2</text>
</g>
<!-- LongDagger
+ Large_Luck -->
<g id="node7" class="node"><title>LongDagger
+ Large_Luck</title>
<ellipse fill="none" stroke="black" cx="370.811" cy="-26.8701" rx="67.7647" ry="26.7407"/>
<text text-anchor="middle" x="370.811" y="-30.6701" font-family="Times New Roman,serif" font-size="14.00">LongDagger</text>
<text text-anchor="middle" x="370.811" y="-15.6701" font-family="Times New Roman,serif" font-size="14.00">+ Large_Luck</text>
</g>
<!-- Anvil&#45;&gt;LongDagger
+ Large_Luck -->
<g id="edge6" class="edge"><title>Anvil&#45;&gt;LongDagger
+ Large_Luck</title>
<path fill="none" stroke="black" d="M548.075,-120.651C473.23,-117.604 281.664,-107.804 262.811,-86.7401 258.365,-81.7726 259.088,-77.2705 262.811,-71.7401 268.64,-63.0804 287.31,-54.276 307.524,-46.8497"/>
<polygon fill="black" stroke="black" points="308.937,-50.0626 317.199,-43.4311 306.605,-43.4625 308.937,-50.0626"/>
<text text-anchor="middle" x="290.811" y="-75.5401" font-family="Times New Roman,serif" font-size="14.00">Crafting 5</text>
</g>
<!-- FightingKnife -->
<g id="node8" class="node"><title>FightingKnife</title>
<ellipse fill="none" stroke="black" cx="846.811" cy="-26.8701" rx="59.5901" ry="18"/>
<text text-anchor="middle" x="846.811" y="-23.1701" font-family="Times New Roman,serif" font-size="14.00">FightingKnife</text>
</g>
<!-- Anvil&#45;&gt;FightingKnife -->
<g id="edge7" class="edge"><title>Anvil&#45;&gt;FightingKnife</title>
<path fill="none" stroke="black" d="M606.631,-117.887C635.026,-113.286 679.077,-103.953 713.811,-86.7401 723.451,-81.9629 723.463,-77.0656 732.811,-71.7401 739.185,-68.1092 771.969,-55.5885 800.754,-44.8478"/>
<polygon fill="black" stroke="black" points="802.166,-48.0566 810.318,-41.2889 799.725,-41.496 802.166,-48.0566"/>
<text text-anchor="middle" x="761.811" y="-75.5401" font-family="Times New Roman,serif" font-size="14.00">Crafting 1</text>
</g>
<!-- LongDagger
+ Small_Speed -->
<g id="node9" class="node"><title>LongDagger
+ Small_Speed</title>
<ellipse fill="none" stroke="black" cx="1181.81" cy="-26.8701" rx="72.25" ry="26.7407"/>
<text text-anchor="middle" x="1181.81" y="-30.6701" font-family="Times New Roman,serif" font-size="14.00">LongDagger</text>
<text text-anchor="middle" x="1181.81" y="-15.6701" font-family="Times New Roman,serif" font-size="14.00">+ Small_Speed</text>
</g>
<!-- Anvil&#45;&gt;LongDagger
+ Small_Speed -->
<g id="edge1" class="edge"><title>Anvil&#45;&gt;LongDagger
+ Small_Speed</title>
<path fill="none" stroke="black" d="M607.174,-119.106C645.661,-115.676 715.274,-109.551 774.811,-104.74 880.988,-96.1608 910.342,-112.064 1013.81,-86.7401 1030.25,-82.7167 1032.98,-77.7297 1048.81,-71.7401 1062.14,-66.6983 1091.13,-57.08 1118.66,-48.1314"/>
<polygon fill="black" stroke="black" points="1119.87,-51.417 1128.3,-45.0027 1117.71,-44.7584 1119.87,-51.417"/>
<text text-anchor="middle" x="1078.81" y="-75.5401" font-family="Times New Roman,serif" font-size="14.00">Crafting 5</text>
</g>
<!-- LongDagger
+ Small_ActionPoint -->
<g id="node11" class="node"><title>LongDagger
+ Small_ActionPoint</title>
<ellipse fill="none" stroke="black" cx="1366.81" cy="-26.8701" rx="94.5053" ry="26.7407"/>
<text text-anchor="middle" x="1366.81" y="-30.6701" font-family="Times New Roman,serif" font-size="14.00">LongDagger</text>
<text text-anchor="middle" x="1366.81" y="-15.6701" font-family="Times New Roman,serif" font-size="14.00">+ Small_ActionPoint</text>
</g>
<!-- Anvil&#45;&gt;LongDagger
+ Small_ActionPoint -->
<g id="edge9" class="edge"><title>Anvil&#45;&gt;LongDagger
+ Small_ActionPoint</title>
<path fill="none" stroke="black" d="M607.153,-118.829C645.619,-115.099 715.208,-108.651 774.811,-104.74 863.599,-98.9139 1088.42,-108.033 1174.81,-86.7401 1190.06,-82.9813 1192.07,-77.1699 1206.81,-71.7401 1222.24,-66.0553 1255.74,-56.7137 1288.12,-48.1084"/>
<polygon fill="black" stroke="black" points="1289.34,-51.4067 1298.11,-45.4663 1287.55,-44.6393 1289.34,-51.4067"/>
<text text-anchor="middle" x="1234.81" y="-75.5401" font-family="Times New Roman,serif" font-size="14.00">Crafting 5</text>
</g>
<!-- Knife -->
<g id="node10" class="node"><title>Knife</title>
<ellipse fill="none" stroke="black" cx="814.811" cy="-122.74" rx="30.5947" ry="18"/>
<text text-anchor="middle" x="814.811" y="-119.04" font-family="Times New Roman,serif" font-size="14.00">Knife</text>
</g>
<!-- Knife&#45;&gt;PushDagger -->
<g id="edge17" class="edge"><title>Knife&#45;&gt;PushDagger</title>
<path fill="none" stroke="black" d="M784.724,-119.289C751.366,-115.66 696.618,-106.954 653.811,-86.7401 644.082,-82.1461 644.279,-76.8511 634.811,-71.7401 612.55,-59.7222 604.596,-62.3591 580.811,-53.7401 573.161,-50.9678 565.06,-47.9019 557.251,-44.879"/>
<polygon fill="black" stroke="black" points="558.509,-41.613 547.921,-41.2356 555.963,-48.1334 558.509,-41.613"/>
<text text-anchor="middle" x="681.811" y="-75.5401" font-family="Times New Roman,serif" font-size="14.00">Crafting 3</text>
</g>
<!-- Knife&#45;&gt;PushDagger
+ Reflexes -->
<g id="edge11" class="edge"><title>Knife&#45;&gt;PushDagger
+ Reflexes</title>
<path fill="none" stroke="black" d="M784.633,-118.998C745.821,-115.506 676.319,-109.37 616.811,-104.74 502.212,-95.8234 470.695,-113.094 358.811,-86.7401 349.392,-84.5215 305.066,-65.9202 268.409,-50.2119"/>
<polygon fill="black" stroke="black" points="269.366,-46.8137 258.796,-46.0838 266.604,-53.2457 269.366,-46.8137"/>
<text text-anchor="middle" x="386.811" y="-75.5401" font-family="Times New Roman,serif" font-size="14.00">Crafting 5</text>
</g>
<!-- Knife&#45;&gt;LongDagger
+ Reflexes -->
<g id="edge12" class="edge"><title>Knife&#45;&gt;LongDagger
+ Reflexes</title>
<path fill="none" stroke="black" d="M784.987,-118.782C746.259,-115.031 676.547,-108.592 616.811,-104.74 524.25,-98.7715 290.29,-107.152 199.811,-86.7401 190.6,-84.6622 147.706,-66.2657 111.973,-50.583"/>
<polygon fill="black" stroke="black" points="113.157,-47.2803 102.594,-46.4573 110.338,-53.6877 113.157,-47.2803"/>
<text text-anchor="middle" x="227.811" y="-75.5401" font-family="Times New Roman,serif" font-size="14.00">Crafting 5</text>
</g>
<!-- Knife&#45;&gt;LongDagger
+ Small_Dexterity -->
<g id="edge13" class="edge"><title>Knife&#45;&gt;LongDagger
+ Small_Dexterity</title>
<path fill="none" stroke="black" d="M845.17,-120.369C916.772,-116.825 1091.49,-106.246 1108.81,-86.7401 1123.64,-70.0433 1106.88,-56.7689 1083.11,-47.0835"/>
<polygon fill="black" stroke="black" points="1084.3,-43.7913 1073.7,-43.5475 1081.83,-50.3434 1084.3,-43.7913"/>
<text text-anchor="middle" x="1142.81" y="-75.5401" font-family="Times New Roman,serif" font-size="14.00">Crafting 5</text>
</g>
<!-- Knife&#45;&gt;Dagger_A_Dagger_B -->
<g id="edge14" class="edge"><title>Knife&#45;&gt;Dagger_A_Dagger_B</title>
<path fill="none" stroke="black" d="M810.849,-104.473C807.603,-93.8 802.007,-80.5118 792.811,-71.7401 779.984,-59.5039 763.378,-50.5812 746.83,-44.1126"/>
<polygon fill="black" stroke="black" points="747.716,-40.7106 737.122,-40.5812 745.323,-47.2889 747.716,-40.7106"/>
<text text-anchor="middle" x="831.811" y="-75.5401" font-family="Times New Roman,serif" font-size="14.00">Crafting 2</text>
</g>
<!-- Knife&#45;&gt;LongDagger
+ Large_Luck -->
<g id="edge15" class="edge"><title>Knife&#45;&gt;LongDagger
+ Large_Luck</title>
<path fill="none" stroke="black" d="M784.722,-119.299C719.035,-113.797 564.616,-99.8832 513.811,-86.7401 512.619,-86.4318 465.812,-67.1354 426.073,-50.7198"/>
<polygon fill="black" stroke="black" points="427.258,-47.4224 416.679,-46.8385 424.585,-53.8919 427.258,-47.4224"/>
<text text-anchor="middle" x="541.811" y="-75.5401" font-family="Times New Roman,serif" font-size="14.00">Crafting 5</text>
</g>
<!-- Knife&#45;&gt;FightingKnife -->
<g id="edge16" class="edge"><title>Knife&#45;&gt;FightingKnife</title>
<path fill="none" stroke="black" d="M844.667,-118.303C880.657,-113.473 937.928,-103.359 950.811,-86.7401 954.896,-81.4713 954.497,-77.2952 950.811,-71.7401 947.205,-66.3047 919.216,-54.6558 893.184,-44.7272"/>
<polygon fill="black" stroke="black" points="894.322,-41.4159 883.73,-41.1618 891.852,-47.9655 894.322,-41.4159"/>
<text text-anchor="middle" x="981.811" y="-75.5401" font-family="Times New Roman,serif" font-size="14.00">Crafting 1</text>
</g>
<!-- Knife&#45;&gt;LongDagger
+ Small_Speed -->
<g id="edge10" class="edge"><title>Knife&#45;&gt;LongDagger
+ Small_Speed</title>
<path fill="none" stroke="black" d="M845.348,-121.717C942.265,-121.329 1238.24,-117.607 1266.81,-86.7401 1280.47,-71.9854 1265.91,-58.8729 1245.2,-48.7899"/>
<polygon fill="black" stroke="black" points="1246.57,-45.5689 1236.02,-44.6582 1243.7,-51.9527 1246.57,-45.5689"/>
<text text-anchor="middle" x="1300.81" y="-75.5401" font-family="Times New Roman,serif" font-size="14.00">Crafting 5</text>
</g>
<!-- Knife&#45;&gt;LongDagger
+ Small_ActionPoint -->
<g id="edge18" class="edge"><title>Knife&#45;&gt;LongDagger
+ Small_ActionPoint</title>
<path fill="none" stroke="black" d="M845.408,-121.335C950.342,-119.718 1291.45,-112.511 1332.81,-86.7401 1341.83,-81.1224 1348.71,-72.1785 1353.84,-62.9415"/>
<polygon fill="black" stroke="black" points="1357.1,-64.2343 1358.4,-53.7191 1350.83,-61.1308 1357.1,-64.2343"/>
<text text-anchor="middle" x="1375.81" y="-75.5401" font-family="Times New Roman,serif" font-size="14.00">Crafting 5</text>
</g>
</g>
</svg>
