<?xml version="1.0" encoding="UTF-8" standalone="no"?>
<!DOCTYPE svg PUBLIC "-//W3C//DTD SVG 1.1//EN"
 "http://www.w3.org/Graphics/SVG/1.1/DTD/svg11.dtd">
<!-- Generated by graphviz version 2.38.0 (20140413.2041)
 -->
<!-- Title: G Pages: 1 -->
<svg width="226pt" height="149pt"
 viewBox="0.00 0.00 226.05 148.74" xmlns="http://www.w3.org/2000/svg" xmlns:xlink="http://www.w3.org/1999/xlink">
<g id="graph0" class="graph" transform="scale(1 1) rotate(0) translate(4 144.74)">
<title>G</title>
<polygon fill="white" stroke="none" points="-4,4 -4,-144.74 222.046,-144.74 222.046,4 -4,4"/>
<!-- Axe
+ Small_EarthDamage -->
<g id="node1" class="node"><title>Axe
+ Small_EarthDamage</title>
<ellipse fill="none" stroke="black" cx="118.344" cy="-26.8701" rx="99.9045" ry="26.7407"/>
<text text-anchor="middle" x="118.344" y="-30.6701" font-family="Times New Roman,serif" font-size="14.00">Axe</text>
<text text-anchor="middle" x="118.344" y="-15.6701" font-family="Times New Roman,serif" font-size="14.00">+ Small_EarthDamage</text>
</g>
<!-- Essence_Earth -->
<g id="node2" class="node"><title>Essence_Earth</title>
<ellipse fill="none" stroke="black" cx="64.3443" cy="-122.74" rx="64.189" ry="18"/>
<text text-anchor="middle" x="64.3443" y="-119.04" font-family="Times New Roman,serif" font-size="14.00">Essence_Earth</text>
</g>
<!-- Essence_Earth&#45;&gt;Axe
+ Small_EarthDamage -->
<g id="edge1" class="edge"><title>Essence_Earth&#45;&gt;Axe
+ Small_EarthDamage</title>
<path fill="none" stroke="black" d="M74.2487,-104.523C81.0567,-92.6884 90.3281,-76.5716 98.6129,-62.1698"/>
<polygon fill="black" stroke="black" points="101.66,-63.8912 103.613,-53.4778 95.5928,-60.4006 101.66,-63.8912"/>
<text text-anchor="middle" x="121.344" y="-75.5401" font-family="Times New Roman,serif" font-size="14.00">Crafting 5</text>
</g>
<!-- Axe -->
<g id="node3" class="node"><title>Axe</title>
<ellipse fill="none" stroke="black" cx="173.344" cy="-122.74" rx="27" ry="18"/>
<text text-anchor="middle" x="173.344" y="-119.04" font-family="Times New Roman,serif" font-size="14.00">Axe</text>
</g>
<!-- Axe&#45;&gt;Axe
+ Small_EarthDamage -->
<g id="edge2" class="edge"><title>Axe&#45;&gt;Axe
+ Small_EarthDamage</title>
<path fill="none" stroke="black" d="M167.129,-105.058C163.15,-95.1067 157.574,-82.3793 151.344,-71.7401 149.343,-68.3218 147.121,-64.8571 144.804,-61.4512"/>
<polygon fill="black" stroke="black" points="147.563,-59.2908 138.918,-53.1659 141.856,-63.345 147.563,-59.2908"/>
<text text-anchor="middle" x="186.344" y="-75.5401" font-family="Times New Roman,serif" font-size="14.00">Crafting 5</text>
</g>
</g>
</svg>
