<?xml version="1.0" encoding="UTF-8" standalone="no"?>
<!DOCTYPE svg PUBLIC "-//W3C//DTD SVG 1.1//EN"
 "http://www.w3.org/Graphics/SVG/1.1/DTD/svg11.dtd">
<!-- Generated by graphviz version 2.38.0 (20140413.2041)
 -->
<!-- Title: G Pages: 1 -->
<svg width="771pt" height="392pt"
 viewBox="0.00 0.00 770.84 392.00" xmlns="http://www.w3.org/2000/svg" xmlns:xlink="http://www.w3.org/1999/xlink">
<g id="graph0" class="graph" transform="scale(1 1) rotate(0) translate(4 388)">
<title>G</title>
<polygon fill="white" stroke="none" points="-4,4 -4,-388 766.84,-388 766.84,4 -4,4"/>
<!-- Herb_Mushroom -->
<g id="node1" class="node"><title>Herb_Mushroom</title>
<ellipse fill="none" stroke="black" cx="73.4435" cy="-366" rx="73.387" ry="18"/>
<text text-anchor="middle" x="73.4435" y="-362.3" font-family="Times New Roman,serif" font-size="14.00">Herb_Mushroom</text>
</g>
<!-- Minor_Healing_Potion -->
<g id="node12" class="node"><title>Minor_Healing_Potion</title>
<ellipse fill="none" stroke="black" cx="150.443" cy="-279" rx="92.8835" ry="18"/>
<text text-anchor="middle" x="150.443" y="-275.3" font-family="Times New Roman,serif" font-size="14.00">Minor_Healing_Potion</text>
</g>
<!-- Herb_Mushroom&#45;&gt;Minor_Healing_Potion -->
<g id="edge10" class="edge"><title>Herb_Mushroom&#45;&gt;Minor_Healing_Potion</title>
<path fill="none" stroke="black" d="M88.6562,-348.207C100.046,-335.633 115.792,-318.252 128.537,-304.182"/>
<polygon fill="black" stroke="black" points="131.143,-306.519 135.262,-296.758 125.955,-301.82 131.143,-306.519"/>
<text text-anchor="middle" x="145.443" y="-318.8" font-family="Times New Roman,serif" font-size="14.00">Crafting 1</text>
</g>
<!-- ArrowHead -->
<g id="node2" class="node"><title>ArrowHead</title>
<ellipse fill="none" stroke="black" cx="503.443" cy="-192" rx="53.0913" ry="18"/>
<text text-anchor="middle" x="503.443" y="-188.3" font-family="Times New Roman,serif" font-size="14.00">ArrowHead</text>
</g>
<!-- ArrowHead_Charming -->
<g id="node7" class="node"><title>ArrowHead_Charming</title>
<ellipse fill="none" stroke="black" cx="503.443" cy="-105" rx="92.8835" ry="18"/>
<text text-anchor="middle" x="503.443" y="-101.3" font-family="Times New Roman,serif" font-size="14.00">ArrowHead_Charming</text>
</g>
<!-- ArrowHead&#45;&gt;ArrowHead_Charming -->
<g id="edge1" class="edge"><title>ArrowHead&#45;&gt;ArrowHead_Charming</title>
<path fill="none" stroke="black" d="M503.443,-173.799C503.443,-162.163 503.443,-146.548 503.443,-133.237"/>
<polygon fill="black" stroke="black" points="506.944,-133.175 503.443,-123.175 499.944,-133.175 506.944,-133.175"/>
<text text-anchor="middle" x="531.443" y="-144.8" font-family="Times New Roman,serif" font-size="14.00">Crafting 4</text>
</g>
<!-- Potion_Empty -->
<g id="node3" class="node"><title>Potion_Empty</title>
<ellipse fill="none" stroke="black" cx="228.443" cy="-366" rx="63.8893" ry="18"/>
<text text-anchor="middle" x="228.443" y="-362.3" font-family="Times New Roman,serif" font-size="14.00">Potion_Empty</text>
</g>
<!-- Potion_Empty&#45;&gt;Minor_Healing_Potion -->
<g id="edge3" class="edge"><title>Potion_Empty&#45;&gt;Minor_Healing_Potion</title>
<path fill="none" stroke="black" d="M213.033,-348.207C201.495,-335.633 185.545,-318.252 172.634,-304.182"/>
<polygon fill="black" stroke="black" points="175.162,-301.76 165.822,-296.758 170.004,-306.493 175.162,-301.76"/>
<text text-anchor="middle" x="222.443" y="-318.8" font-family="Times New Roman,serif" font-size="14.00">Crafting 1</text>
</g>
<!-- Arrow_Charming -->
<g id="node4" class="node"><title>Arrow_Charming</title>
<ellipse fill="none" stroke="black" cx="587.443" cy="-18" rx="74.187" ry="18"/>
<text text-anchor="middle" x="587.443" y="-14.3" font-family="Times New Roman,serif" font-size="14.00">Arrow_Charming</text>
</g>
<!-- Potion_Charm -->
<g id="node5" class="node"><title>Potion_Charm</title>
<ellipse fill="none" stroke="black" cx="349.443" cy="-192" rx="63.8893" ry="18"/>
<text text-anchor="middle" x="349.443" y="-188.3" font-family="Times New Roman,serif" font-size="14.00">Potion_Charm</text>
</g>
<!-- Potion_Charm&#45;&gt;ArrowHead_Charming -->
<g id="edge4" class="edge"><title>Potion_Charm&#45;&gt;ArrowHead_Charming</title>
<path fill="none" stroke="black" d="M377.332,-175.607C401.94,-162.025 438.034,-142.103 465.309,-127.048"/>
<polygon fill="black" stroke="black" points="467.128,-130.042 474.191,-122.146 463.745,-123.914 467.128,-130.042"/>
<text text-anchor="middle" x="464.443" y="-144.8" font-family="Times New Roman,serif" font-size="14.00">Crafting 4</text>
</g>
<!-- Herb_FannyBlossom -->
<g id="node6" class="node"><title>Herb_FannyBlossom</title>
<ellipse fill="none" stroke="black" cx="349.443" cy="-279" rx="88.2844" ry="18"/>
<text text-anchor="middle" x="349.443" y="-275.3" font-family="Times New Roman,serif" font-size="14.00">Herb_FannyBlossom</text>
</g>
<!-- Herb_FannyBlossom&#45;&gt;Potion_Charm -->
<g id="edge5" class="edge"><title>Herb_FannyBlossom&#45;&gt;Potion_Charm</title>
<path fill="none" stroke="black" d="M349.443,-260.799C349.443,-249.163 349.443,-233.548 349.443,-220.237"/>
<polygon fill="black" stroke="black" points="352.944,-220.175 349.443,-210.175 345.944,-220.175 352.944,-220.175"/>
<text text-anchor="middle" x="377.443" y="-231.8" font-family="Times New Roman,serif" font-size="14.00">Crafting 2</text>
</g>
<!-- ArrowHead_Charming&#45;&gt;Arrow_Charming -->
<g id="edge6" class="edge"><title>ArrowHead_Charming&#45;&gt;Arrow_Charming</title>
<path fill="none" stroke="black" d="M520.039,-87.2067C532.465,-74.6335 549.642,-57.252 563.546,-43.1825"/>
<polygon fill="black" stroke="black" points="566.343,-45.3314 570.882,-35.7584 561.364,-40.411 566.343,-45.3314"/>
<text text-anchor="middle" x="578.443" y="-57.8" font-family="Times New Roman,serif" font-size="14.00">Crafting 4</text>
</g>
<!-- ArrowShaft -->
<g id="node8" class="node"><title>ArrowShaft</title>
<ellipse fill="none" stroke="black" cx="647.443" cy="-192" rx="53.0913" ry="18"/>
<text text-anchor="middle" x="647.443" y="-188.3" font-family="Times New Roman,serif" font-size="14.00">ArrowShaft</text>
</g>
<!-- ArrowShaft&#45;&gt;Arrow_Charming -->
<g id="edge7" class="edge"><title>ArrowShaft&#45;&gt;Arrow_Charming</title>
<path fill="none" stroke="black" d="M644.644,-173.964C639.896,-147.458 628.934,-95.1195 610.443,-54 608.998,-50.7859 607.276,-47.5342 605.433,-44.3744"/>
<polygon fill="black" stroke="black" points="608.338,-42.42 600.05,-35.82 602.414,-46.148 608.338,-42.42"/>
<text text-anchor="middle" x="660.443" y="-101.3" font-family="Times New Roman,serif" font-size="14.00">Crafting 4</text>
</g>
<!-- Knife -->
<g id="node9" class="node"><title>Knife</title>
<ellipse fill="none" stroke="black" cx="606.443" cy="-279" rx="30.5947" ry="18"/>
<text text-anchor="middle" x="606.443" y="-275.3" font-family="Times New Roman,serif" font-size="14.00">Knife</text>
</g>
<!-- Knife&#45;&gt;ArrowHead -->
<g id="edge12" class="edge"><title>Knife&#45;&gt;ArrowHead</title>
<path fill="none" stroke="black" d="M589.676,-263.939C577.667,-253.891 561.097,-240.068 546.443,-228 541.47,-223.904 536.157,-219.557 531.023,-215.37"/>
<polygon fill="black" stroke="black" points="533.141,-212.581 523.177,-208.982 528.722,-218.01 533.141,-212.581"/>
<text text-anchor="middle" x="590.443" y="-231.8" font-family="Times New Roman,serif" font-size="14.00">Crafting 1</text>
</g>
<!-- Knife&#45;&gt;ArrowShaft -->
<g id="edge11" class="edge"><title>Knife&#45;&gt;ArrowShaft</title>
<path fill="none" stroke="black" d="M615.62,-261.765C618.834,-255.906 622.399,-249.208 625.443,-243 629.143,-235.456 632.916,-227.146 636.27,-219.502"/>
<polygon fill="black" stroke="black" points="639.499,-220.854 640.256,-210.286 633.074,-218.075 639.499,-220.854"/>
<text text-anchor="middle" x="660.443" y="-231.8" font-family="Times New Roman,serif" font-size="14.00">Crafting 0</text>
</g>
<!-- Branch -->
<g id="node10" class="node"><title>Branch</title>
<ellipse fill="none" stroke="black" cx="726.443" cy="-279" rx="36.2938" ry="18"/>
<text text-anchor="middle" x="726.443" y="-275.3" font-family="Times New Roman,serif" font-size="14.00">Branch</text>
</g>
<!-- Branch&#45;&gt;ArrowShaft -->
<g id="edge9" class="edge"><title>Branch&#45;&gt;ArrowShaft</title>
<path fill="none" stroke="black" d="M716.913,-261.285C710.667,-251.084 701.924,-238.106 692.443,-228 688.089,-223.358 683.082,-218.839 678.025,-214.675"/>
<polygon fill="black" stroke="black" points="680.148,-211.891 670.125,-208.456 675.818,-217.391 680.148,-211.891"/>
<text text-anchor="middle" x="731.443" y="-231.8" font-family="Times New Roman,serif" font-size="14.00">Crafting 0</text>
</g>
<!-- Tooth -->
<g id="node11" class="node"><title>Tooth</title>
<ellipse fill="none" stroke="black" cx="489.443" cy="-279" rx="33.2948" ry="18"/>
<text text-anchor="middle" x="489.443" y="-275.3" font-family="Times New Roman,serif" font-size="14.00">Tooth</text>
</g>
<!-- Tooth&#45;&gt;ArrowHead -->
<g id="edge2" class="edge"><title>Tooth&#45;&gt;ArrowHead</title>
<path fill="none" stroke="black" d="M488.375,-260.728C488.127,-251.028 488.401,-238.747 490.443,-228 490.959,-225.288 491.663,-222.509 492.478,-219.761"/>
<polygon fill="black" stroke="black" points="495.852,-220.712 495.781,-210.117 489.23,-218.444 495.852,-220.712"/>
<text text-anchor="middle" x="518.443" y="-231.8" font-family="Times New Roman,serif" font-size="14.00">Crafting 1</text>
</g>
<!-- Minor_Healing_Potion&#45;&gt;Potion_Charm -->
<g id="edge8" class="edge"><title>Minor_Healing_Potion&#45;&gt;Potion_Charm</title>
<path fill="none" stroke="black" d="M186.943,-262.41C220.584,-248.04 270.547,-226.7 306.181,-211.479"/>
<polygon fill="black" stroke="black" points="308.005,-214.506 315.827,-207.359 305.255,-208.068 308.005,-214.506"/>
<text text-anchor="middle" x="290.443" y="-231.8" font-family="Times New Roman,serif" font-size="14.00">Crafting 2</text>
</g>
</g>
</svg>
