<?xml version="1.0" encoding="UTF-8" standalone="no"?>
<!DOCTYPE svg PUBLIC "-//W3C//DTD SVG 1.1//EN"
 "http://www.w3.org/Graphics/SVG/1.1/DTD/svg11.dtd">
<!-- Generated by graphviz version 2.38.0 (20140413.2041)
 -->
<!-- Title: G Pages: 1 -->
<svg width="551pt" height="392pt"
 viewBox="0.00 0.00 550.54 392.00" xmlns="http://www.w3.org/2000/svg" xmlns:xlink="http://www.w3.org/1999/xlink">
<g id="graph0" class="graph" transform="scale(1 1) rotate(0) translate(4 388)">
<title>G</title>
<polygon fill="white" stroke="none" points="-4,4 -4,-388 546.537,-388 546.537,4 -4,4"/>
<!-- Herb_Augmentor -->
<g id="node1" class="node"><title>Herb_Augmentor</title>
<ellipse fill="none" stroke="black" cx="74.0934" cy="-192" rx="74.187" ry="18"/>
<text text-anchor="middle" x="74.0934" y="-188.3" font-family="Times New Roman,serif" font-size="14.00">Herb_Augmentor</text>
</g>
<!-- Potion_Armor_Boost_Medium -->
<g id="node5" class="node"><title>Potion_Armor_Boost_Medium</title>
<ellipse fill="none" stroke="black" cx="265.093" cy="-105" rx="124.578" ry="18"/>
<text text-anchor="middle" x="265.093" y="-101.3" font-family="Times New Roman,serif" font-size="14.00">Potion_Armor_Boost_Medium</text>
</g>
<!-- Herb_Augmentor&#45;&gt;Potion_Armor_Boost_Medium -->
<g id="edge1" class="edge"><title>Herb_Augmentor&#45;&gt;Potion_Armor_Boost_Medium</title>
<path fill="none" stroke="black" d="M108.24,-175.804C139.234,-162.011 185.178,-141.564 219.34,-126.361"/>
<polygon fill="black" stroke="black" points="220.928,-129.486 228.641,-122.222 218.082,-123.091 220.928,-129.486"/>
<text text-anchor="middle" x="209.093" y="-144.8" font-family="Times New Roman,serif" font-size="14.00">Crafting 3</text>
</g>
<!-- Potion_Armor_Boost_Large -->
<g id="node6" class="node"><title>Potion_Armor_Boost_Large</title>
<ellipse fill="none" stroke="black" cx="124.093" cy="-18" rx="115.88" ry="18"/>
<text text-anchor="middle" x="124.093" y="-14.3" font-family="Times New Roman,serif" font-size="14.00">Potion_Armor_Boost_Large</text>
</g>
<!-- Herb_Augmentor&#45;&gt;Potion_Armor_Boost_Large -->
<g id="edge2" class="edge"><title>Herb_Augmentor&#45;&gt;Potion_Armor_Boost_Large</title>
<path fill="none" stroke="black" d="M71.1676,-173.92C68.2556,-152.885 65.4683,-116.338 75.0934,-87 80.29,-71.1604 90.6486,-55.8795 100.508,-43.8294"/>
<polygon fill="black" stroke="black" points="103.337,-45.9074 107.185,-36.036 98.021,-41.3531 103.337,-45.9074"/>
<text text-anchor="middle" x="103.093" y="-101.3" font-family="Times New Roman,serif" font-size="14.00">Crafting 4</text>
</g>
<!-- Potion_Armor_Boost -->
<g id="node2" class="node"><title>Potion_Armor_Boost</title>
<ellipse fill="none" stroke="black" cx="265.093" cy="-192" rx="90.1842" ry="18"/>
<text text-anchor="middle" x="265.093" y="-188.3" font-family="Times New Roman,serif" font-size="14.00">Potion_Armor_Boost</text>
</g>
<!-- Potion_Armor_Boost&#45;&gt;Potion_Armor_Boost_Medium -->
<g id="edge3" class="edge"><title>Potion_Armor_Boost&#45;&gt;Potion_Armor_Boost_Medium</title>
<path fill="none" stroke="black" d="M265.093,-173.799C265.093,-162.163 265.093,-146.548 265.093,-133.237"/>
<polygon fill="black" stroke="black" points="268.594,-133.175 265.093,-123.175 261.594,-133.175 268.594,-133.175"/>
<text text-anchor="middle" x="293.093" y="-144.8" font-family="Times New Roman,serif" font-size="14.00">Crafting 3</text>
</g>
<!-- Potion_Empty -->
<g id="node3" class="node"><title>Potion_Empty</title>
<ellipse fill="none" stroke="black" cx="314.093" cy="-366" rx="63.8893" ry="18"/>
<text text-anchor="middle" x="314.093" y="-362.3" font-family="Times New Roman,serif" font-size="14.00">Potion_Empty</text>
</g>
<!-- Minor_Healing_Potion -->
<g id="node8" class="node"><title>Minor_Healing_Potion</title>
<ellipse fill="none" stroke="black" cx="392.093" cy="-279" rx="92.8835" ry="18"/>
<text text-anchor="middle" x="392.093" y="-275.3" font-family="Times New Roman,serif" font-size="14.00">Minor_Healing_Potion</text>
</g>
<!-- Potion_Empty&#45;&gt;Minor_Healing_Potion -->
<g id="edge4" class="edge"><title>Potion_Empty&#45;&gt;Minor_Healing_Potion</title>
<path fill="none" stroke="black" d="M329.504,-348.207C341.042,-335.633 356.992,-318.252 369.902,-304.182"/>
<polygon fill="black" stroke="black" points="372.533,-306.493 376.715,-296.758 367.375,-301.76 372.533,-306.493"/>
<text text-anchor="middle" x="385.093" y="-318.8" font-family="Times New Roman,serif" font-size="14.00">Crafting 1</text>
</g>
<!-- Herb_Whisperwood -->
<g id="node4" class="node"><title>Herb_Whisperwood</title>
<ellipse fill="none" stroke="black" cx="196.093" cy="-279" rx="85.2851" ry="18"/>
<text text-anchor="middle" x="196.093" y="-275.3" font-family="Times New Roman,serif" font-size="14.00">Herb_Whisperwood</text>
</g>
<!-- Herb_Whisperwood&#45;&gt;Potion_Armor_Boost -->
<g id="edge5" class="edge"><title>Herb_Whisperwood&#45;&gt;Potion_Armor_Boost</title>
<path fill="none" stroke="black" d="M209.726,-261.207C219.772,-248.831 233.6,-231.796 244.923,-217.847"/>
<polygon fill="black" stroke="black" points="247.668,-220.019 251.253,-210.049 242.233,-215.607 247.668,-220.019"/>
<text text-anchor="middle" x="263.093" y="-231.8" font-family="Times New Roman,serif" font-size="14.00">Crafting 2</text>
</g>
<!-- Potion_Armor_Boost_Medium&#45;&gt;Potion_Armor_Boost_Large -->
<g id="edge6" class="edge"><title>Potion_Armor_Boost_Medium&#45;&gt;Potion_Armor_Boost_Large</title>
<path fill="none" stroke="black" d="M237.572,-87.4094C215.542,-74.1288 184.458,-55.39 160.392,-40.8818"/>
<polygon fill="black" stroke="black" points="161.916,-37.7142 151.545,-35.5488 158.302,-43.7091 161.916,-37.7142"/>
<text text-anchor="middle" x="231.093" y="-57.8" font-family="Times New Roman,serif" font-size="14.00">Crafting 4</text>
</g>
<!-- Herb_Mushroom -->
<g id="node7" class="node"><title>Herb_Mushroom</title>
<ellipse fill="none" stroke="black" cx="469.093" cy="-366" rx="73.387" ry="18"/>
<text text-anchor="middle" x="469.093" y="-362.3" font-family="Times New Roman,serif" font-size="14.00">Herb_Mushroom</text>
</g>
<!-- Herb_Mushroom&#45;&gt;Minor_Healing_Potion -->
<g id="edge7" class="edge"><title>Herb_Mushroom&#45;&gt;Minor_Healing_Potion</title>
<path fill="none" stroke="black" d="M453.881,-348.207C442.491,-335.633 426.745,-318.252 414,-304.182"/>
<polygon fill="black" stroke="black" points="416.582,-301.82 407.275,-296.758 411.394,-306.519 416.582,-301.82"/>
<text text-anchor="middle" x="463.093" y="-318.8" font-family="Times New Roman,serif" font-size="14.00">Crafting 1</text>
</g>
<!-- Minor_Healing_Potion&#45;&gt;Potion_Armor_Boost -->
<g id="edge8" class="edge"><title>Minor_Healing_Potion&#45;&gt;Potion_Armor_Boost</title>
<path fill="none" stroke="black" d="M367.607,-261.611C347.841,-248.382 319.842,-229.643 298.098,-215.09"/>
<polygon fill="black" stroke="black" points="299.762,-211.992 289.505,-209.339 295.869,-217.809 299.762,-211.992"/>
<text text-anchor="middle" x="364.093" y="-231.8" font-family="Times New Roman,serif" font-size="14.00">Crafting 2</text>
</g>
</g>
</svg>
