<?xml version="1.0" encoding="UTF-8" standalone="no"?>
<!DOCTYPE svg PUBLIC "-//W3C//DTD SVG 1.1//EN"
 "http://www.w3.org/Graphics/SVG/1.1/DTD/svg11.dtd">
<!-- Generated by graphviz version 2.38.0 (20140413.2041)
 -->
<!-- Title: G Pages: 1 -->
<svg width="224pt" height="149pt"
 viewBox="0.00 0.00 224.37 148.74" xmlns="http://www.w3.org/2000/svg" xmlns:xlink="http://www.w3.org/1999/xlink">
<g id="graph0" class="graph" transform="scale(1 1) rotate(0) translate(4 144.74)">
<title>G</title>
<polygon fill="white" stroke="none" points="-4,4 -4,-144.74 220.368,-144.74 220.368,4 -4,4"/>
<!-- Essence_Air -->
<g id="node1" class="node"><title>Essence_Air</title>
<ellipse fill="none" stroke="black" cx="56.545" cy="-122.74" rx="56.59" ry="18"/>
<text text-anchor="middle" x="56.545" y="-119.04" font-family="Times New Roman,serif" font-size="14.00">Essence_Air</text>
</g>
<!-- Garment
+ Small_AirResistance -->
<g id="node3" class="node"><title>Garment
+ Small_AirResistance</title>
<ellipse fill="none" stroke="black" cx="114.545" cy="-26.8701" rx="101.647" ry="26.7407"/>
<text text-anchor="middle" x="114.545" y="-30.6701" font-family="Times New Roman,serif" font-size="14.00">Garment</text>
<text text-anchor="middle" x="114.545" y="-15.6701" font-family="Times New Roman,serif" font-size="14.00">+ Small_AirResistance</text>
</g>
<!-- Essence_Air&#45;&gt;Garment
+ Small_AirResistance -->
<g id="edge1" class="edge"><title>Essence_Air&#45;&gt;Garment
+ Small_AirResistance</title>
<path fill="none" stroke="black" d="M66.9142,-104.958C74.1997,-93.1668 84.2058,-76.9725 93.1668,-62.4696"/>
<polygon fill="black" stroke="black" points="96.2986,-64.0595 98.5775,-53.7126 90.3436,-60.38 96.2986,-64.0595"/>
<text text-anchor="middle" x="115.545" y="-75.5401" font-family="Times New Roman,serif" font-size="14.00">Crafting 2</text>
</g>
<!-- Garment -->
<g id="node2" class="node"><title>Garment</title>
<ellipse fill="none" stroke="black" cx="173.545" cy="-122.74" rx="42.4939" ry="18"/>
<text text-anchor="middle" x="173.545" y="-119.04" font-family="Times New Roman,serif" font-size="14.00">Garment</text>
</g>
<!-- Garment&#45;&gt;Garment
+ Small_AirResistance -->
<g id="edge2" class="edge"><title>Garment&#45;&gt;Garment
+ Small_AirResistance</title>
<path fill="none" stroke="black" d="M165.552,-104.687C160.721,-94.836 154.221,-82.336 147.545,-71.7401 145.433,-68.3887 143.138,-64.9691 140.773,-61.5919"/>
<polygon fill="black" stroke="black" points="143.512,-59.4056 134.82,-53.3472 137.836,-63.5035 143.512,-59.4056"/>
<text text-anchor="middle" x="184.545" y="-75.5401" font-family="Times New Roman,serif" font-size="14.00">Crafting 2</text>
</g>
</g>
</svg>
