<?xml version="1.0" encoding="UTF-8" standalone="no"?>
<!DOCTYPE svg PUBLIC "-//W3C//DTD SVG 1.1//EN"
 "http://www.w3.org/Graphics/SVG/1.1/DTD/svg11.dtd">
<!-- Generated by graphviz version 2.38.0 (20140413.2041)
 -->
<!-- Title: G Pages: 1 -->
<svg width="278pt" height="149pt"
 viewBox="0.00 0.00 278.09 148.74" xmlns="http://www.w3.org/2000/svg" xmlns:xlink="http://www.w3.org/1999/xlink">
<g id="graph0" class="graph" transform="scale(1 1) rotate(0) translate(4 144.74)">
<title>G</title>
<polygon fill="white" stroke="none" points="-4,4 -4,-144.74 274.089,-144.74 274.089,4 -4,4"/>
<!-- ArmorLeather
+ Small_EarthResistance -->
<g id="node1" class="node"><title>ArmorLeather
+ Small_EarthResistance</title>
<ellipse fill="none" stroke="black" cx="133.745" cy="-26.8701" rx="110.118" ry="26.7407"/>
<text text-anchor="middle" x="133.745" y="-30.6701" font-family="Times New Roman,serif" font-size="14.00">ArmorLeather</text>
<text text-anchor="middle" x="133.745" y="-15.6701" font-family="Times New Roman,serif" font-size="14.00">+ Small_EarthResistance</text>
</g>
<!-- ArmorLeather -->
<g id="node2" class="node"><title>ArmorLeather</title>
<ellipse fill="none" stroke="black" cx="61.7445" cy="-122.74" rx="61.99" ry="18"/>
<text text-anchor="middle" x="61.7445" y="-119.04" font-family="Times New Roman,serif" font-size="14.00">ArmorLeather</text>
</g>
<!-- ArmorLeather&#45;&gt;ArmorLeather
+ Small_EarthResistance -->
<g id="edge1" class="edge"><title>ArmorLeather&#45;&gt;ArmorLeather
+ Small_EarthResistance</title>
<path fill="none" stroke="black" d="M74.6167,-104.958C83.8997,-92.8553 96.7406,-76.1139 108.085,-61.324"/>
<polygon fill="black" stroke="black" points="110.892,-63.4149 114.201,-53.35 105.338,-59.1546 110.892,-63.4149"/>
<text text-anchor="middle" x="128.745" y="-75.5401" font-family="Times New Roman,serif" font-size="14.00">Crafting 3</text>
</g>
<!-- Essence_Earth -->
<g id="node3" class="node"><title>Essence_Earth</title>
<ellipse fill="none" stroke="black" cx="205.745" cy="-122.74" rx="64.189" ry="18"/>
<text text-anchor="middle" x="205.745" y="-119.04" font-family="Times New Roman,serif" font-size="14.00">Essence_Earth</text>
</g>
<!-- Essence_Earth&#45;&gt;ArmorLeather
+ Small_EarthResistance -->
<g id="edge2" class="edge"><title>Essence_Earth&#45;&gt;ArmorLeather
+ Small_EarthResistance</title>
<path fill="none" stroke="black" d="M192.872,-104.958C183.589,-92.8553 170.748,-76.1139 159.404,-61.324"/>
<polygon fill="black" stroke="black" points="162.151,-59.1546 153.288,-53.35 156.597,-63.4149 162.151,-59.1546"/>
<text text-anchor="middle" x="205.745" y="-75.5401" font-family="Times New Roman,serif" font-size="14.00">Crafting 3</text>
</g>
</g>
</svg>
