<?xml version="1.0" encoding="UTF-8" standalone="no"?>
<!DOCTYPE svg PUBLIC "-//W3C//DTD SVG 1.1//EN"
 "http://www.w3.org/Graphics/SVG/1.1/DTD/svg11.dtd">
<!-- Generated by graphviz version 2.38.0 (20140413.2041)
 -->
<!-- Title: G Pages: 1 -->
<svg width="300pt" height="149pt"
 viewBox="0.00 0.00 300.14 148.74" xmlns="http://www.w3.org/2000/svg" xmlns:xlink="http://www.w3.org/1999/xlink">
<g id="graph0" class="graph" transform="scale(1 1) rotate(0) translate(4 144.74)">
<title>G</title>
<polygon fill="white" stroke="none" points="-4,4 -4,-144.74 296.138,-144.74 296.138,4 -4,4"/>
<!-- Essence_Air -->
<g id="node1" class="node"><title>Essence_Air</title>
<ellipse fill="none" stroke="black" cx="56.545" cy="-122.74" rx="56.59" ry="18"/>
<text text-anchor="middle" x="56.545" y="-119.04" font-family="Times New Roman,serif" font-size="14.00">Essence_Air</text>
</g>
<!-- TwoHandedSword
+ Small_AirDamage -->
<g id="node2" class="node"><title>TwoHandedSword
+ Small_AirDamage</title>
<ellipse fill="none" stroke="black" cx="133.545" cy="-26.8701" rx="91.4341" ry="26.7407"/>
<text text-anchor="middle" x="133.545" y="-30.6701" font-family="Times New Roman,serif" font-size="14.00">TwoHandedSword</text>
<text text-anchor="middle" x="133.545" y="-15.6701" font-family="Times New Roman,serif" font-size="14.00">+ Small_AirDamage</text>
</g>
<!-- Essence_Air&#45;&gt;TwoHandedSword
+ Small_AirDamage -->
<g id="edge1" class="edge"><title>Essence_Air&#45;&gt;TwoHandedSword
+ Small_AirDamage</title>
<path fill="none" stroke="black" d="M70.311,-104.958C80.2387,-92.8553 93.9714,-76.1139 106.103,-61.324"/>
<polygon fill="black" stroke="black" points="109.008,-63.3014 112.644,-53.35 103.596,-58.8619 109.008,-63.3014"/>
<text text-anchor="middle" x="125.545" y="-75.5401" font-family="Times New Roman,serif" font-size="14.00">Crafting 5</text>
</g>
<!-- TwoHandedSword -->
<g id="node3" class="node"><title>TwoHandedSword</title>
<ellipse fill="none" stroke="black" cx="211.545" cy="-122.74" rx="80.6858" ry="18"/>
<text text-anchor="middle" x="211.545" y="-119.04" font-family="Times New Roman,serif" font-size="14.00">TwoHandedSword</text>
</g>
<!-- TwoHandedSword&#45;&gt;TwoHandedSword
+ Small_AirDamage -->
<g id="edge2" class="edge"><title>TwoHandedSword&#45;&gt;TwoHandedSword
+ Small_AirDamage</title>
<path fill="none" stroke="black" d="M197.6,-104.958C187.544,-92.8553 173.633,-76.1139 161.343,-61.324"/>
<polygon fill="black" stroke="black" points="163.8,-58.8045 154.717,-53.35 158.416,-63.2782 163.8,-58.8045"/>
<text text-anchor="middle" x="209.545" y="-75.5401" font-family="Times New Roman,serif" font-size="14.00">Crafting 5</text>
</g>
</g>
</svg>
