<?xml version="1.0" encoding="UTF-8" standalone="no"?>
<!DOCTYPE svg PUBLIC "-//W3C//DTD SVG 1.1//EN"
 "http://www.w3.org/Graphics/SVG/1.1/DTD/svg11.dtd">
<!-- Generated by graphviz version 2.38.0 (20140413.2041)
 -->
<!-- Title: G Pages: 1 -->
<svg width="511pt" height="392pt"
 viewBox="0.00 0.00 510.54 392.00" xmlns="http://www.w3.org/2000/svg" xmlns:xlink="http://www.w3.org/1999/xlink">
<g id="graph0" class="graph" transform="scale(1 1) rotate(0) translate(4 388)">
<title>G</title>
<polygon fill="white" stroke="none" points="-4,4 -4,-388 506.537,-388 506.537,4 -4,4"/>
<!-- Herb_Augmentor -->
<g id="node1" class="node"><title>Herb_Augmentor</title>
<ellipse fill="none" stroke="black" cx="74.0934" cy="-192" rx="74.187" ry="18"/>
<text text-anchor="middle" x="74.0934" y="-188.3" font-family="Times New Roman,serif" font-size="14.00">Herb_Augmentor</text>
</g>
<!-- Potion_Reason_Large -->
<g id="node4" class="node"><title>Potion_Reason_Large</title>
<ellipse fill="none" stroke="black" cx="118.093" cy="-18" rx="92.0841" ry="18"/>
<text text-anchor="middle" x="118.093" y="-14.3" font-family="Times New Roman,serif" font-size="14.00">Potion_Reason_Large</text>
</g>
<!-- Herb_Augmentor&#45;&gt;Potion_Reason_Large -->
<g id="edge2" class="edge"><title>Herb_Augmentor&#45;&gt;Potion_Reason_Large</title>
<path fill="none" stroke="black" d="M71.4169,-173.643C68.8194,-152.644 66.4117,-116.443 75.0934,-87 79.6393,-71.5834 88.7864,-56.2871 97.4798,-44.1178"/>
<polygon fill="black" stroke="black" points="100.474,-45.9576 103.658,-35.8523 94.8673,-41.7669 100.474,-45.9576"/>
<text text-anchor="middle" x="103.093" y="-101.3" font-family="Times New Roman,serif" font-size="14.00">Crafting 4</text>
</g>
<!-- Potion_Reason_Medium -->
<g id="node5" class="node"><title>Potion_Reason_Medium</title>
<ellipse fill="none" stroke="black" cx="241.093" cy="-105" rx="101.282" ry="18"/>
<text text-anchor="middle" x="241.093" y="-101.3" font-family="Times New Roman,serif" font-size="14.00">Potion_Reason_Medium</text>
</g>
<!-- Herb_Augmentor&#45;&gt;Potion_Reason_Medium -->
<g id="edge1" class="edge"><title>Herb_Augmentor&#45;&gt;Potion_Reason_Medium</title>
<path fill="none" stroke="black" d="M104.724,-175.41C131.489,-161.787 170.565,-141.898 200.034,-126.899"/>
<polygon fill="black" stroke="black" points="201.912,-129.87 209.237,-122.215 198.737,-123.631 201.912,-129.87"/>
<text text-anchor="middle" x="196.093" y="-144.8" font-family="Times New Roman,serif" font-size="14.00">Crafting 3</text>
</g>
<!-- Potion_Empty -->
<g id="node2" class="node"><title>Potion_Empty</title>
<ellipse fill="none" stroke="black" cx="274.093" cy="-366" rx="63.8893" ry="18"/>
<text text-anchor="middle" x="274.093" y="-362.3" font-family="Times New Roman,serif" font-size="14.00">Potion_Empty</text>
</g>
<!-- Minor_Healing_Potion -->
<g id="node8" class="node"><title>Minor_Healing_Potion</title>
<ellipse fill="none" stroke="black" cx="352.093" cy="-279" rx="92.8835" ry="18"/>
<text text-anchor="middle" x="352.093" y="-275.3" font-family="Times New Roman,serif" font-size="14.00">Minor_Healing_Potion</text>
</g>
<!-- Potion_Empty&#45;&gt;Minor_Healing_Potion -->
<g id="edge3" class="edge"><title>Potion_Empty&#45;&gt;Minor_Healing_Potion</title>
<path fill="none" stroke="black" d="M289.504,-348.207C301.042,-335.633 316.992,-318.252 329.902,-304.182"/>
<polygon fill="black" stroke="black" points="332.533,-306.493 336.715,-296.758 327.375,-301.76 332.533,-306.493"/>
<text text-anchor="middle" x="345.093" y="-318.8" font-family="Times New Roman,serif" font-size="14.00">Crafting 1</text>
</g>
<!-- Potion_Reason -->
<g id="node3" class="node"><title>Potion_Reason</title>
<ellipse fill="none" stroke="black" cx="241.093" cy="-192" rx="66.8882" ry="18"/>
<text text-anchor="middle" x="241.093" y="-188.3" font-family="Times New Roman,serif" font-size="14.00">Potion_Reason</text>
</g>
<!-- Potion_Reason&#45;&gt;Potion_Reason_Medium -->
<g id="edge4" class="edge"><title>Potion_Reason&#45;&gt;Potion_Reason_Medium</title>
<path fill="none" stroke="black" d="M241.093,-173.799C241.093,-162.163 241.093,-146.548 241.093,-133.237"/>
<polygon fill="black" stroke="black" points="244.594,-133.175 241.093,-123.175 237.594,-133.175 244.594,-133.175"/>
<text text-anchor="middle" x="269.093" y="-144.8" font-family="Times New Roman,serif" font-size="14.00">Crafting 3</text>
</g>
<!-- Potion_Reason_Medium&#45;&gt;Potion_Reason_Large -->
<g id="edge5" class="edge"><title>Potion_Reason_Medium&#45;&gt;Potion_Reason_Large</title>
<path fill="none" stroke="black" d="M217.086,-87.4094C198.037,-74.2458 171.229,-55.7198 150.314,-41.2663"/>
<polygon fill="black" stroke="black" points="152.257,-38.3546 142.041,-35.5488 148.277,-44.1133 152.257,-38.3546"/>
<text text-anchor="middle" x="215.093" y="-57.8" font-family="Times New Roman,serif" font-size="14.00">Crafting 4</text>
</g>
<!-- Herb_Stardust -->
<g id="node6" class="node"><title>Herb_Stardust</title>
<ellipse fill="none" stroke="black" cx="177.093" cy="-279" rx="63.8893" ry="18"/>
<text text-anchor="middle" x="177.093" y="-275.3" font-family="Times New Roman,serif" font-size="14.00">Herb_Stardust</text>
</g>
<!-- Herb_Stardust&#45;&gt;Potion_Reason -->
<g id="edge6" class="edge"><title>Herb_Stardust&#45;&gt;Potion_Reason</title>
<path fill="none" stroke="black" d="M189.738,-261.207C199.029,-248.866 211.808,-231.894 222.294,-217.967"/>
<polygon fill="black" stroke="black" points="225.256,-219.852 228.475,-209.758 219.664,-215.642 225.256,-219.852"/>
<text text-anchor="middle" x="241.093" y="-231.8" font-family="Times New Roman,serif" font-size="14.00">Crafting 2</text>
</g>
<!-- Herb_Mushroom -->
<g id="node7" class="node"><title>Herb_Mushroom</title>
<ellipse fill="none" stroke="black" cx="429.093" cy="-366" rx="73.387" ry="18"/>
<text text-anchor="middle" x="429.093" y="-362.3" font-family="Times New Roman,serif" font-size="14.00">Herb_Mushroom</text>
</g>
<!-- Herb_Mushroom&#45;&gt;Minor_Healing_Potion -->
<g id="edge7" class="edge"><title>Herb_Mushroom&#45;&gt;Minor_Healing_Potion</title>
<path fill="none" stroke="black" d="M413.881,-348.207C402.491,-335.633 386.745,-318.252 374,-304.182"/>
<polygon fill="black" stroke="black" points="376.582,-301.82 367.275,-296.758 371.394,-306.519 376.582,-301.82"/>
<text text-anchor="middle" x="423.093" y="-318.8" font-family="Times New Roman,serif" font-size="14.00">Crafting 1</text>
</g>
<!-- Minor_Healing_Potion&#45;&gt;Potion_Reason -->
<g id="edge8" class="edge"><title>Minor_Healing_Potion&#45;&gt;Potion_Reason</title>
<path fill="none" stroke="black" d="M330.428,-261.409C313.281,-248.279 289.166,-229.812 270.312,-215.375"/>
<polygon fill="black" stroke="black" points="272.395,-212.561 262.327,-209.26 268.139,-218.119 272.395,-212.561"/>
<text text-anchor="middle" x="331.093" y="-231.8" font-family="Times New Roman,serif" font-size="14.00">Crafting 2</text>
</g>
</g>
</svg>
