<?xml version="1.0" encoding="UTF-8" standalone="no"?>
<!DOCTYPE svg PUBLIC "-//W3C//DTD SVG 1.1//EN"
 "http://www.w3.org/Graphics/SVG/1.1/DTD/svg11.dtd">
<!-- Generated by graphviz version 2.38.0 (20140413.2041)
 -->
<!-- Title: G Pages: 1 -->
<svg width="679pt" height="392pt"
 viewBox="0.00 0.00 678.99 392.00" xmlns="http://www.w3.org/2000/svg" xmlns:xlink="http://www.w3.org/1999/xlink">
<g id="graph0" class="graph" transform="scale(1 1) rotate(0) translate(4 388)">
<title>G</title>
<polygon fill="white" stroke="none" points="-4,4 -4,-388 674.99,-388 674.99,4 -4,4"/>
<!-- Pouch_Dust_Pixie -->
<g id="node1" class="node"><title>Pouch_Dust_Pixie</title>
<ellipse fill="none" stroke="black" cx="356.994" cy="-192" rx="78.7863" ry="18"/>
<text text-anchor="middle" x="356.994" y="-188.3" font-family="Times New Roman,serif" font-size="14.00">Pouch_Dust_Pixie</text>
</g>
<!-- Tail_A_Rat_A_Magic -->
<g id="node12" class="node"><title>Tail_A_Rat_A_Magic</title>
<ellipse fill="none" stroke="black" cx="205.994" cy="-105" rx="91.784" ry="18"/>
<text text-anchor="middle" x="205.994" y="-101.3" font-family="Times New Roman,serif" font-size="14.00">Tail_A_Rat_A_Magic</text>
</g>
<!-- Pouch_Dust_Pixie&#45;&gt;Tail_A_Rat_A_Magic -->
<g id="edge1" class="edge"><title>Pouch_Dust_Pixie&#45;&gt;Tail_A_Rat_A_Magic</title>
<path fill="none" stroke="black" d="M328.592,-175.012C304.596,-161.504 270.031,-142.047 243.716,-127.234"/>
<polygon fill="black" stroke="black" points="245.213,-124.061 234.782,-122.205 241.78,-130.161 245.213,-124.061"/>
<text text-anchor="middle" x="318.994" y="-144.8" font-family="Times New Roman,serif" font-size="14.00">Crafting 2</text>
</g>
<!-- Pouch_Dust_Bone -->
<g id="node2" class="node"><title>Pouch_Dust_Bone</title>
<ellipse fill="none" stroke="black" cx="190.994" cy="-279" rx="79.8859" ry="18"/>
<text text-anchor="middle" x="190.994" y="-275.3" font-family="Times New Roman,serif" font-size="14.00">Pouch_Dust_Bone</text>
</g>
<!-- Pouch_Dust_Bone&#45;&gt;Pouch_Dust_Pixie -->
<g id="edge3" class="edge"><title>Pouch_Dust_Bone&#45;&gt;Pouch_Dust_Pixie</title>
<path fill="none" stroke="black" d="M221.829,-262.211C248.733,-248.435 287.935,-228.361 317.201,-213.376"/>
<polygon fill="black" stroke="black" points="319.019,-216.377 326.325,-208.704 315.829,-210.147 319.019,-216.377"/>
<text text-anchor="middle" x="311.994" y="-231.8" font-family="Times New Roman,serif" font-size="14.00">Crafting 0</text>
</g>
<!-- Rat_Tail_MagicBelt -->
<g id="node3" class="node"><title>Rat_Tail_MagicBelt</title>
<ellipse fill="none" stroke="black" cx="142.994" cy="-18" rx="83.3857" ry="18"/>
<text text-anchor="middle" x="142.994" y="-14.3" font-family="Times New Roman,serif" font-size="14.00">Rat_Tail_MagicBelt</text>
</g>
<!-- Rope -->
<g id="node4" class="node"><title>Rope</title>
<ellipse fill="none" stroke="black" cx="65.9942" cy="-105" rx="30.5947" ry="18"/>
<text text-anchor="middle" x="65.9942" y="-101.3" font-family="Times New Roman,serif" font-size="14.00">Rope</text>
</g>
<!-- Rope&#45;&gt;Rat_Tail_MagicBelt -->
<g id="edge5" class="edge"><title>Rope&#45;&gt;Rat_Tail_MagicBelt</title>
<path fill="none" stroke="black" d="M79.7496,-88.6538C88.6434,-78.7469 100.48,-65.5908 110.994,-54 114.128,-50.545 117.442,-46.905 120.704,-43.3312"/>
<polygon fill="black" stroke="black" points="123.505,-45.4536 127.667,-35.7104 118.338,-40.7316 123.505,-45.4536"/>
<text text-anchor="middle" x="138.994" y="-57.8" font-family="Times New Roman,serif" font-size="14.00">Crafting 2</text>
</g>
<!-- Moonstone -->
<g id="node5" class="node"><title>Moonstone</title>
<ellipse fill="none" stroke="black" cx="618.994" cy="-366" rx="51.9908" ry="18"/>
<text text-anchor="middle" x="618.994" y="-362.3" font-family="Times New Roman,serif" font-size="14.00">Moonstone</text>
</g>
<!-- Pouch_Dust_Moon -->
<g id="node15" class="node"><title>Pouch_Dust_Moon</title>
<ellipse fill="none" stroke="black" cx="540.994" cy="-279" rx="83.3857" ry="18"/>
<text text-anchor="middle" x="540.994" y="-275.3" font-family="Times New Roman,serif" font-size="14.00">Pouch_Dust_Moon</text>
</g>
<!-- Moonstone&#45;&gt;Pouch_Dust_Moon -->
<g id="edge6" class="edge"><title>Moonstone&#45;&gt;Pouch_Dust_Moon</title>
<path fill="none" stroke="black" d="M614.276,-347.834C610.779,-337.464 605.186,-324.466 596.994,-315 592.711,-310.05 587.553,-305.568 582.123,-301.59"/>
<polygon fill="black" stroke="black" points="583.705,-298.436 573.454,-295.76 579.799,-304.244 583.705,-298.436"/>
<text text-anchor="middle" x="633.994" y="-318.8" font-family="Times New Roman,serif" font-size="14.00">Crafting 0</text>
</g>
<!-- Tail_A_Rat -->
<g id="node6" class="node"><title>Tail_A_Rat</title>
<ellipse fill="none" stroke="black" cx="205.994" cy="-192" rx="53.0913" ry="18"/>
<text text-anchor="middle" x="205.994" y="-188.3" font-family="Times New Roman,serif" font-size="14.00">Tail_A_Rat</text>
</g>
<!-- Tail_A_Rat&#45;&gt;Tail_A_Rat_A_Magic -->
<g id="edge7" class="edge"><title>Tail_A_Rat&#45;&gt;Tail_A_Rat_A_Magic</title>
<path fill="none" stroke="black" d="M205.994,-173.799C205.994,-162.163 205.994,-146.548 205.994,-133.237"/>
<polygon fill="black" stroke="black" points="209.494,-133.175 205.994,-123.175 202.494,-133.175 209.494,-133.175"/>
<text text-anchor="middle" x="233.994" y="-144.8" font-family="Times New Roman,serif" font-size="14.00">Crafting 2</text>
</g>
<!-- MortarPestle -->
<g id="node7" class="node"><title>MortarPestle</title>
<ellipse fill="none" stroke="black" cx="460.994" cy="-366" rx="57.3905" ry="18"/>
<text text-anchor="middle" x="460.994" y="-362.3" font-family="Times New Roman,serif" font-size="14.00">MortarPestle</text>
</g>
<!-- MortarPestle&#45;&gt;Pouch_Dust_Bone -->
<g id="edge13" class="edge"><title>MortarPestle&#45;&gt;Pouch_Dust_Bone</title>
<path fill="none" stroke="black" d="M424.875,-351.99C410.208,-346.098 393.368,-338.535 378.994,-330 369.743,-324.507 369.745,-319.546 359.994,-315 355.197,-312.764 304.201,-302.331 259.471,-293.433"/>
<polygon fill="black" stroke="black" points="259.942,-289.959 249.452,-291.445 258.58,-296.825 259.942,-289.959"/>
<text text-anchor="middle" x="406.994" y="-318.8" font-family="Times New Roman,serif" font-size="14.00">Crafting 0</text>
</g>
<!-- Pouch_Dust_Star -->
<g id="node10" class="node"><title>Pouch_Dust_Star</title>
<ellipse fill="none" stroke="black" cx="363.994" cy="-279" rx="75.2868" ry="18"/>
<text text-anchor="middle" x="363.994" y="-275.3" font-family="Times New Roman,serif" font-size="14.00">Pouch_Dust_Star</text>
</g>
<!-- MortarPestle&#45;&gt;Pouch_Dust_Star -->
<g id="edge14" class="edge"><title>MortarPestle&#45;&gt;Pouch_Dust_Star</title>
<path fill="none" stroke="black" d="M456.822,-347.946C453.491,-337.358 447.88,-324.085 438.994,-315 432.575,-308.437 424.688,-302.97 416.467,-298.461"/>
<polygon fill="black" stroke="black" points="417.974,-295.301 407.467,-293.937 414.83,-301.555 417.974,-295.301"/>
<text text-anchor="middle" x="477.994" y="-318.8" font-family="Times New Roman,serif" font-size="14.00">Crafting 0</text>
</g>
<!-- MortarPestle&#45;&gt;Pouch_Dust_Moon -->
<g id="edge15" class="edge"><title>MortarPestle&#45;&gt;Pouch_Dust_Moon</title>
<path fill="none" stroke="black" d="M491.585,-350.675C500.937,-345.2 510.673,-338.253 517.994,-330 523.945,-323.292 528.623,-314.783 532.163,-306.695"/>
<polygon fill="black" stroke="black" points="535.5,-307.774 535.924,-297.187 528.991,-305.199 535.5,-307.774"/>
<text text-anchor="middle" x="555.994" y="-318.8" font-family="Times New Roman,serif" font-size="14.00">Crafting 0</text>
</g>
<!-- Skull_Human -->
<g id="node8" class="node"><title>Skull_Human</title>
<ellipse fill="none" stroke="black" cx="82.9942" cy="-366" rx="59.5901" ry="18"/>
<text text-anchor="middle" x="82.9942" y="-362.3" font-family="Times New Roman,serif" font-size="14.00">Skull_Human</text>
</g>
<!-- Skull_Human&#45;&gt;Pouch_Dust_Bone -->
<g id="edge12" class="edge"><title>Skull_Human&#45;&gt;Pouch_Dust_Bone</title>
<path fill="none" stroke="black" d="M97.0853,-348.087C106.142,-337.812 118.514,-324.825 130.994,-315 137.323,-310.017 144.435,-305.252 151.489,-300.929"/>
<polygon fill="black" stroke="black" points="153.499,-303.807 160.331,-295.709 149.94,-297.779 153.499,-303.807"/>
<text text-anchor="middle" x="158.994" y="-318.8" font-family="Times New Roman,serif" font-size="14.00">Crafting 0</text>
</g>
<!-- Herb_Stardust -->
<g id="node9" class="node"><title>Herb_Stardust</title>
<ellipse fill="none" stroke="black" cx="302.994" cy="-366" rx="63.8893" ry="18"/>
<text text-anchor="middle" x="302.994" y="-362.3" font-family="Times New Roman,serif" font-size="14.00">Herb_Stardust</text>
</g>
<!-- Herb_Stardust&#45;&gt;Pouch_Dust_Star -->
<g id="edge9" class="edge"><title>Herb_Stardust&#45;&gt;Pouch_Dust_Star</title>
<path fill="none" stroke="black" d="M299.326,-347.658C298.107,-337.472 298.275,-324.731 303.994,-315 307.323,-309.337 311.951,-304.499 317.175,-300.392"/>
<polygon fill="black" stroke="black" points="319.486,-303.053 325.774,-294.526 315.541,-297.27 319.486,-303.053"/>
<text text-anchor="middle" x="331.994" y="-318.8" font-family="Times New Roman,serif" font-size="14.00">Crafting 0</text>
</g>
<!-- Pouch_Dust_Star&#45;&gt;Pouch_Dust_Pixie -->
<g id="edge2" class="edge"><title>Pouch_Dust_Star&#45;&gt;Pouch_Dust_Pixie</title>
<path fill="none" stroke="black" d="M362.578,-260.799C361.619,-249.163 360.333,-233.548 359.237,-220.237"/>
<polygon fill="black" stroke="black" points="362.718,-219.854 358.409,-210.175 355.741,-220.429 362.718,-219.854"/>
<text text-anchor="middle" x="388.994" y="-231.8" font-family="Times New Roman,serif" font-size="14.00">Crafting 0</text>
</g>
<!-- Wool -->
<g id="node11" class="node"><title>Wool</title>
<ellipse fill="none" stroke="black" cx="61.9942" cy="-279" rx="31.3957" ry="18"/>
<text text-anchor="middle" x="61.9942" y="-275.3" font-family="Times New Roman,serif" font-size="14.00">Wool</text>
</g>
<!-- Yarn_A_Wool -->
<g id="node13" class="node"><title>Yarn_A_Wool</title>
<ellipse fill="none" stroke="black" cx="64.9942" cy="-192" rx="64.9885" ry="18"/>
<text text-anchor="middle" x="64.9942" y="-188.3" font-family="Times New Roman,serif" font-size="14.00">Yarn_A_Wool</text>
</g>
<!-- Wool&#45;&gt;Yarn_A_Wool -->
<g id="edge10" class="edge"><title>Wool&#45;&gt;Yarn_A_Wool</title>
<path fill="none" stroke="black" d="M62.6013,-260.799C63.012,-249.163 63.5631,-233.548 64.0329,-220.237"/>
<polygon fill="black" stroke="black" points="67.533,-220.293 64.388,-210.175 60.5374,-220.046 67.533,-220.293"/>
<text text-anchor="middle" x="91.9942" y="-231.8" font-family="Times New Roman,serif" font-size="14.00">Crafting 0</text>
</g>
<!-- Tail_A_Rat_A_Magic&#45;&gt;Rat_Tail_MagicBelt -->
<g id="edge11" class="edge"><title>Tail_A_Rat_A_Magic&#45;&gt;Rat_Tail_MagicBelt</title>
<path fill="none" stroke="black" d="M193.245,-86.799C184.134,-74.5062 171.732,-57.7736 161.529,-44.0073"/>
<polygon fill="black" stroke="black" points="164.276,-41.8352 155.509,-35.8854 158.652,-46.0034 164.276,-41.8352"/>
<text text-anchor="middle" x="206.994" y="-57.8" font-family="Times New Roman,serif" font-size="14.00">Crafting 2</text>
</g>
<!-- Yarn_A_Wool&#45;&gt;Rope -->
<g id="edge4" class="edge"><title>Yarn_A_Wool&#45;&gt;Rope</title>
<path fill="none" stroke="black" d="M65.1966,-173.799C65.3335,-162.163 65.5172,-146.548 65.6738,-133.237"/>
<polygon fill="black" stroke="black" points="69.1742,-133.216 65.7922,-123.175 62.1747,-133.134 69.1742,-133.216"/>
<text text-anchor="middle" x="93.9942" y="-144.8" font-family="Times New Roman,serif" font-size="14.00">Crafting 0</text>
</g>
<!-- Bone -->
<g id="node14" class="node"><title>Bone</title>
<ellipse fill="none" stroke="black" cx="190.994" cy="-366" rx="29.795" ry="18"/>
<text text-anchor="middle" x="190.994" y="-362.3" font-family="Times New Roman,serif" font-size="14.00">Bone</text>
</g>
<!-- Bone&#45;&gt;Pouch_Dust_Bone -->
<g id="edge8" class="edge"><title>Bone&#45;&gt;Pouch_Dust_Bone</title>
<path fill="none" stroke="black" d="M190.994,-347.799C190.994,-336.163 190.994,-320.548 190.994,-307.237"/>
<polygon fill="black" stroke="black" points="194.494,-307.175 190.994,-297.175 187.494,-307.175 194.494,-307.175"/>
<text text-anchor="middle" x="218.994" y="-318.8" font-family="Times New Roman,serif" font-size="14.00">Crafting 0</text>
</g>
<!-- Pouch_Dust_Moon&#45;&gt;Pouch_Dust_Pixie -->
<g id="edge16" class="edge"><title>Pouch_Dust_Moon&#45;&gt;Pouch_Dust_Pixie</title>
<path fill="none" stroke="black" d="M507.246,-262.41C476.935,-248.407 432.292,-227.784 399.544,-212.656"/>
<polygon fill="black" stroke="black" points="400.765,-209.365 390.219,-208.348 397.829,-215.719 400.765,-209.365"/>
<text text-anchor="middle" x="487.994" y="-231.8" font-family="Times New Roman,serif" font-size="14.00">Crafting 0</text>
</g>
</g>
</svg>
