<?xml version="1.0" encoding="UTF-8" standalone="no"?>
<!DOCTYPE svg PUBLIC "-//W3C//DTD SVG 1.1//EN"
 "http://www.w3.org/Graphics/SVG/1.1/DTD/svg11.dtd">
<!-- Generated by graphviz version 2.38.0 (20140413.2041)
 -->
<!-- Title: G Pages: 1 -->
<svg width="254pt" height="392pt"
 viewBox="0.00 0.00 253.59 392.00" xmlns="http://www.w3.org/2000/svg" xmlns:xlink="http://www.w3.org/1999/xlink">
<g id="graph0" class="graph" transform="scale(1 1) rotate(0) translate(4 388)">
<title>G</title>
<polygon fill="white" stroke="none" points="-4,4 -4,-388 249.592,-388 249.592,4 -4,4"/>
<!-- Sheep -->
<g id="node1" class="node"><title>Sheep</title>
<ellipse fill="none" stroke="black" cx="33.1471" cy="-366" rx="33.2948" ry="18"/>
<text text-anchor="middle" x="33.1471" y="-362.3" font-family="Times New Roman,serif" font-size="14.00">Sheep</text>
</g>
<!-- Wool -->
<g id="node6" class="node"><title>Wool</title>
<ellipse fill="none" stroke="black" cx="76.1471" cy="-279" rx="31.3957" ry="18"/>
<text text-anchor="middle" x="76.1471" y="-275.3" font-family="Times New Roman,serif" font-size="14.00">Wool</text>
</g>
<!-- Sheep&#45;&gt;Wool -->
<g id="edge1" class="edge"><title>Sheep&#45;&gt;Wool</title>
<path fill="none" stroke="black" d="M33.2769,-347.983C33.9689,-337.913 35.9507,-325.179 41.1471,-315 43.6868,-310.025 47.1932,-305.32 51.0117,-301.069"/>
<polygon fill="black" stroke="black" points="53.5208,-303.509 58.0806,-293.946 48.5522,-298.578 53.5208,-303.509"/>
<text text-anchor="middle" x="69.1471" y="-318.8" font-family="Times New Roman,serif" font-size="14.00">Crafting 0</text>
</g>
<!-- Shears -->
<g id="node2" class="node"><title>Shears</title>
<ellipse fill="none" stroke="black" cx="119.147" cy="-366" rx="35.194" ry="18"/>
<text text-anchor="middle" x="119.147" y="-362.3" font-family="Times New Roman,serif" font-size="14.00">Shears</text>
</g>
<!-- Shears&#45;&gt;Wool -->
<g id="edge2" class="edge"><title>Shears&#45;&gt;Wool</title>
<path fill="none" stroke="black" d="M112.331,-348.086C108.225,-338.282 102.725,-325.782 97.1471,-315 95.4171,-311.656 93.5009,-308.193 91.55,-304.804"/>
<polygon fill="black" stroke="black" points="94.5221,-302.954 86.4098,-296.139 88.5017,-306.526 94.5221,-302.954"/>
<text text-anchor="middle" x="133.147" y="-318.8" font-family="Times New Roman,serif" font-size="14.00">Crafting 0</text>
</g>
<!-- Barrel_A_Lid -->
<g id="node3" class="node"><title>Barrel_A_Lid</title>
<ellipse fill="none" stroke="black" cx="185.147" cy="-105" rx="60.3893" ry="18"/>
<text text-anchor="middle" x="185.147" y="-101.3" font-family="Times New Roman,serif" font-size="14.00">Barrel_A_Lid</text>
</g>
<!-- Wood_Shield -->
<g id="node5" class="node"><title>Wood_Shield</title>
<ellipse fill="none" stroke="black" cx="138.147" cy="-18" rx="61.99" ry="18"/>
<text text-anchor="middle" x="138.147" y="-14.3" font-family="Times New Roman,serif" font-size="14.00">Wood_Shield</text>
</g>
<!-- Barrel_A_Lid&#45;&gt;Wood_Shield -->
<g id="edge3" class="edge"><title>Barrel_A_Lid&#45;&gt;Wood_Shield</title>
<path fill="none" stroke="black" d="M175.861,-87.2067C169.21,-75.1778 160.125,-58.7478 152.539,-45.0276"/>
<polygon fill="black" stroke="black" points="155.476,-43.107 147.574,-36.0493 149.35,-46.4942 155.476,-43.107"/>
<text text-anchor="middle" x="192.147" y="-57.8" font-family="Times New Roman,serif" font-size="14.00">Crafting 3</text>
</g>
<!-- Rope -->
<g id="node4" class="node"><title>Rope</title>
<ellipse fill="none" stroke="black" cx="76.1471" cy="-105" rx="30.5947" ry="18"/>
<text text-anchor="middle" x="76.1471" y="-101.3" font-family="Times New Roman,serif" font-size="14.00">Rope</text>
</g>
<!-- Rope&#45;&gt;Wood_Shield -->
<g id="edge4" class="edge"><title>Rope&#45;&gt;Wood_Shield</title>
<path fill="none" stroke="black" d="M81.5872,-86.8086C85.2922,-76.6768 90.8514,-63.9384 98.1471,-54 101.275,-49.7391 105.006,-45.6327 108.913,-41.825"/>
<polygon fill="black" stroke="black" points="111.48,-44.2215 116.532,-34.9086 106.775,-39.0384 111.48,-44.2215"/>
<text text-anchor="middle" x="126.147" y="-57.8" font-family="Times New Roman,serif" font-size="14.00">Crafting 3</text>
</g>
<!-- Yarn_A_Wool -->
<g id="node7" class="node"><title>Yarn_A_Wool</title>
<ellipse fill="none" stroke="black" cx="76.1471" cy="-192" rx="64.9885" ry="18"/>
<text text-anchor="middle" x="76.1471" y="-188.3" font-family="Times New Roman,serif" font-size="14.00">Yarn_A_Wool</text>
</g>
<!-- Wool&#45;&gt;Yarn_A_Wool -->
<g id="edge5" class="edge"><title>Wool&#45;&gt;Yarn_A_Wool</title>
<path fill="none" stroke="black" d="M76.1471,-260.799C76.1471,-249.163 76.1471,-233.548 76.1471,-220.237"/>
<polygon fill="black" stroke="black" points="79.6472,-220.175 76.1471,-210.175 72.6472,-220.175 79.6472,-220.175"/>
<text text-anchor="middle" x="104.147" y="-231.8" font-family="Times New Roman,serif" font-size="14.00">Crafting 0</text>
</g>
<!-- Yarn_A_Wool&#45;&gt;Rope -->
<g id="edge6" class="edge"><title>Yarn_A_Wool&#45;&gt;Rope</title>
<path fill="none" stroke="black" d="M76.1471,-173.799C76.1471,-162.163 76.1471,-146.548 76.1471,-133.237"/>
<polygon fill="black" stroke="black" points="79.6472,-133.175 76.1471,-123.175 72.6472,-133.175 79.6472,-133.175"/>
<text text-anchor="middle" x="104.147" y="-144.8" font-family="Times New Roman,serif" font-size="14.00">Crafting 0</text>
</g>
</g>
</svg>
