<?xml version="1.0" encoding="UTF-8" standalone="no"?>
<!DOCTYPE svg PUBLIC "-//W3C//DTD SVG 1.1//EN"
 "http://www.w3.org/Graphics/SVG/1.1/DTD/svg11.dtd">
<!-- Generated by graphviz version 2.38.0 (20140413.2041)
 -->
<!-- Title: G Pages: 1 -->
<svg width="496pt" height="236pt"
 viewBox="0.00 0.00 496.40 235.74" xmlns="http://www.w3.org/2000/svg" xmlns:xlink="http://www.w3.org/1999/xlink">
<g id="graph0" class="graph" transform="scale(1 1) rotate(0) translate(4 231.74)">
<title>G</title>
<polygon fill="white" stroke="none" points="-4,4 -4,-231.74 492.397,-231.74 492.397,4 -4,4"/>
<!-- Dagger -->
<g id="node1" class="node"><title>Dagger</title>
<ellipse fill="none" stroke="black" cx="36.3968" cy="-209.74" rx="36.2938" ry="18"/>
<text text-anchor="middle" x="36.3968" y="-206.04" font-family="Times New Roman,serif" font-size="14.00">Dagger</text>
</g>
<!-- Spear -->
<g id="node2" class="node"><title>Spear</title>
<ellipse fill="none" stroke="black" cx="81.3968" cy="-122.74" rx="31.6951" ry="18"/>
<text text-anchor="middle" x="81.3968" y="-119.04" font-family="Times New Roman,serif" font-size="14.00">Spear</text>
</g>
<!-- Dagger&#45;&gt;Spear -->
<g id="edge1" class="edge"><title>Dagger&#45;&gt;Spear</title>
<path fill="none" stroke="black" d="M38.7004,-191.773C40.5668,-181.72 43.8322,-168.987 49.3968,-158.74 51.7764,-154.358 54.8211,-150.091 58.0829,-146.129"/>
<polygon fill="black" stroke="black" points="60.8665,-148.268 64.9398,-138.487 55.6563,-143.593 60.8665,-148.268"/>
<text text-anchor="middle" x="77.3968" y="-162.54" font-family="Times New Roman,serif" font-size="14.00">Crafting 2</text>
</g>
<!-- Spear
+ Medium_Damage -->
<g id="node3" class="node"><title>Spear
+ Medium_Damage</title>
<ellipse fill="none" stroke="black" cx="307.397" cy="-26.8701" rx="89.6056" ry="26.7407"/>
<text text-anchor="middle" x="307.397" y="-30.6701" font-family="Times New Roman,serif" font-size="14.00">Spear</text>
<text text-anchor="middle" x="307.397" y="-15.6701" font-family="Times New Roman,serif" font-size="14.00">+ Medium_Damage</text>
</g>
<!-- Spear&#45;&gt;Spear
+ Medium_Damage -->
<g id="edge2" class="edge"><title>Spear&#45;&gt;Spear
+ Medium_Damage</title>
<path fill="none" stroke="black" d="M109.453,-114.146C137.324,-106.379 177.932,-94.3976 192.397,-86.7401 201.905,-81.7065 202.216,-77.3496 211.397,-71.7401 222.255,-65.1061 234.285,-58.8433 246.053,-53.2384"/>
<polygon fill="black" stroke="black" points="247.815,-56.2793 255.407,-48.89 244.864,-49.9316 247.815,-56.2793"/>
<text text-anchor="middle" x="239.397" y="-75.5401" font-family="Times New Roman,serif" font-size="14.00">Crafting 5</text>
</g>
<!-- Spear
+ Small_Damage -->
<g id="node5" class="node"><title>Spear
+ Small_Damage</title>
<ellipse fill="none" stroke="black" cx="120.397" cy="-26.8701" rx="79.3924" ry="26.7407"/>
<text text-anchor="middle" x="120.397" y="-30.6701" font-family="Times New Roman,serif" font-size="14.00">Spear</text>
<text text-anchor="middle" x="120.397" y="-15.6701" font-family="Times New Roman,serif" font-size="14.00">+ Small_Damage</text>
</g>
<!-- Spear&#45;&gt;Spear
+ Small_Damage -->
<g id="edge3" class="edge"><title>Spear&#45;&gt;Spear
+ Small_Damage</title>
<path fill="none" stroke="black" d="M66.5245,-106.732C58.4874,-96.7336 51.3351,-83.3478 57.3968,-71.7401 60.3929,-66.0029 64.5193,-60.8636 69.2394,-56.302"/>
<polygon fill="black" stroke="black" points="71.7436,-58.7658 77.0683,-49.6062 67.1938,-53.446 71.7436,-58.7658"/>
<text text-anchor="middle" x="85.3968" y="-75.5401" font-family="Times New Roman,serif" font-size="14.00">Crafting 2</text>
</g>
<!-- Branch -->
<g id="node4" class="node"><title>Branch</title>
<ellipse fill="none" stroke="black" cx="127.397" cy="-209.74" rx="36.2938" ry="18"/>
<text text-anchor="middle" x="127.397" y="-206.04" font-family="Times New Roman,serif" font-size="14.00">Branch</text>
</g>
<!-- Branch&#45;&gt;Spear -->
<g id="edge6" class="edge"><title>Branch&#45;&gt;Spear</title>
<path fill="none" stroke="black" d="M120.824,-191.696C116.799,-181.848 111.299,-169.348 105.397,-158.74 103.438,-155.219 101.22,-151.605 98.9443,-148.099"/>
<polygon fill="black" stroke="black" points="101.78,-146.044 93.2805,-139.719 95.9801,-149.964 101.78,-146.044"/>
<text text-anchor="middle" x="141.397" y="-162.54" font-family="Times New Roman,serif" font-size="14.00">Crafting 2</text>
</g>
<!-- Stone_A_Whet -->
<g id="node6" class="node"><title>Stone_A_Whet</title>
<ellipse fill="none" stroke="black" cx="411.397" cy="-122.74" rx="67.6881" ry="18"/>
<text text-anchor="middle" x="411.397" y="-119.04" font-family="Times New Roman,serif" font-size="14.00">Stone_A_Whet</text>
</g>
<!-- Stone_A_Whet&#45;&gt;Spear
+ Medium_Damage -->
<g id="edge4" class="edge"><title>Stone_A_Whet&#45;&gt;Spear
+ Medium_Damage</title>
<path fill="none" stroke="black" d="M424.905,-104.924C431.397,-94.6845 436.401,-81.7024 429.397,-71.7401 420.824,-59.5475 408.524,-50.7272 394.997,-44.3505"/>
<polygon fill="black" stroke="black" points="396.041,-40.9916 385.468,-40.3148 393.311,-47.4374 396.041,-40.9916"/>
<text text-anchor="middle" x="460.397" y="-75.5401" font-family="Times New Roman,serif" font-size="14.00">Crafting 5</text>
</g>
<!-- Stone_A_Whet&#45;&gt;Spear
+ Small_Damage -->
<g id="edge5" class="edge"><title>Stone_A_Whet&#45;&gt;Spear
+ Small_Damage</title>
<path fill="none" stroke="black" d="M391.641,-105.494C375.472,-92.5298 353.657,-75.8775 343.397,-71.7401 287.258,-49.1033 267.608,-66.3132 208.397,-53.7401 201.329,-52.2393 194.002,-50.4577 186.729,-48.5421"/>
<polygon fill="black" stroke="black" points="187.444,-45.1094 176.876,-45.8606 185.606,-51.8638 187.444,-45.1094"/>
<text text-anchor="middle" x="393.397" y="-75.5401" font-family="Times New Roman,serif" font-size="14.00">Crafting 2</text>
</g>
<!-- WhetStone_Wheel -->
<g id="node7" class="node"><title>WhetStone_Wheel</title>
<ellipse fill="none" stroke="black" cx="235.397" cy="-122.74" rx="79.0865" ry="18"/>
<text text-anchor="middle" x="235.397" y="-119.04" font-family="Times New Roman,serif" font-size="14.00">WhetStone_Wheel</text>
</g>
<!-- WhetStone_Wheel&#45;&gt;Spear
+ Medium_Damage -->
<g id="edge7" class="edge"><title>WhetStone_Wheel&#45;&gt;Spear
+ Medium_Damage</title>
<path fill="none" stroke="black" d="M254.255,-105.122C260.069,-99.5607 266.282,-93.1414 271.397,-86.7401 277.438,-79.1797 283.251,-70.5288 288.379,-62.2285"/>
<polygon fill="black" stroke="black" points="291.515,-63.8045 293.652,-53.4275 285.51,-60.2067 291.515,-63.8045"/>
<text text-anchor="middle" x="311.397" y="-75.5401" font-family="Times New Roman,serif" font-size="14.00">Crafting 5</text>
</g>
<!-- WhetStone_Wheel&#45;&gt;Spear
+ Small_Damage -->
<g id="edge8" class="edge"><title>WhetStone_Wheel&#45;&gt;Spear
+ Small_Damage</title>
<path fill="none" stroke="black" d="M175.744,-110.864C161.224,-105.681 146.876,-98.0304 136.397,-86.7401 130.557,-80.4487 126.811,-72.2404 124.419,-63.9596"/>
<polygon fill="black" stroke="black" points="127.769,-62.911 122.122,-53.9467 120.947,-64.4761 127.769,-62.911"/>
<text text-anchor="middle" x="164.397" y="-75.5401" font-family="Times New Roman,serif" font-size="14.00">Crafting 2</text>
</g>
</g>
</svg>
