<?xml version="1.0" encoding="UTF-8" standalone="no"?>
<!DOCTYPE svg PUBLIC "-//W3C//DTD SVG 1.1//EN"
 "http://www.w3.org/Graphics/SVG/1.1/DTD/svg11.dtd">
<!-- Generated by graphviz version 2.38.0 (20140413.2041)
 -->
<!-- Title: G Pages: 1 -->
<svg width="656pt" height="131pt"
 viewBox="0.00 0.00 656.22 131.00" xmlns="http://www.w3.org/2000/svg" xmlns:xlink="http://www.w3.org/1999/xlink">
<g id="graph0" class="graph" transform="scale(1 1) rotate(0) translate(4 127)">
<title>G</title>
<polygon fill="white" stroke="none" points="-4,4 -4,-127 652.222,-127 652.222,4 -4,4"/>
<!-- Quest_LUC_SacrificialChickenFullVial -->
<g id="node1" class="node"><title>Quest_LUC_SacrificialChickenFullVial</title>
<ellipse fill="none" stroke="black" cx="318.087" cy="-18" rx="153.273" ry="18"/>
<text text-anchor="middle" x="318.087" y="-14.3" font-family="Times New Roman,serif" font-size="14.00">Quest_LUC_SacrificialChickenFullVial</text>
</g>
<!-- Quest_LUC_SacrificialChickenCorpse -->
<g id="node2" class="node"><title>Quest_LUC_SacrificialChickenCorpse</title>
<ellipse fill="none" stroke="black" cx="152.087" cy="-105" rx="152.173" ry="18"/>
<text text-anchor="middle" x="152.087" y="-101.3" font-family="Times New Roman,serif" font-size="14.00">Quest_LUC_SacrificialChickenCorpse</text>
</g>
<!-- Quest_LUC_SacrificialChickenCorpse&#45;&gt;Quest_LUC_SacrificialChickenFullVial -->
<g id="edge1" class="edge"><title>Quest_LUC_SacrificialChickenCorpse&#45;&gt;Quest_LUC_SacrificialChickenFullVial</title>
<path fill="none" stroke="black" d="M184.487,-87.4094C210.795,-73.9384 248.071,-54.8515 276.566,-40.2604"/>
<polygon fill="black" stroke="black" points="278.179,-43.3669 285.484,-35.6938 274.988,-37.1363 278.179,-43.3669"/>
<text text-anchor="middle" x="273.087" y="-57.8" font-family="Times New Roman,serif" font-size="14.00">Crafting 0</text>
</g>
<!-- Quest_LUC_SacrificialChickenEmptyVial -->
<g id="node3" class="node"><title>Quest_LUC_SacrificialChickenEmptyVial</title>
<ellipse fill="none" stroke="black" cx="485.087" cy="-105" rx="163.271" ry="18"/>
<text text-anchor="middle" x="485.087" y="-101.3" font-family="Times New Roman,serif" font-size="14.00">Quest_LUC_SacrificialChickenEmptyVial</text>
</g>
<!-- Quest_LUC_SacrificialChickenEmptyVial&#45;&gt;Quest_LUC_SacrificialChickenFullVial -->
<g id="edge2" class="edge"><title>Quest_LUC_SacrificialChickenEmptyVial&#45;&gt;Quest_LUC_SacrificialChickenFullVial</title>
<path fill="none" stroke="black" d="M452.093,-87.2067C425.589,-73.7167 388.21,-54.6916 359.661,-40.1607"/>
<polygon fill="black" stroke="black" points="361.227,-37.0305 350.727,-35.6135 358.052,-43.2689 361.227,-37.0305"/>
<text text-anchor="middle" x="439.087" y="-57.8" font-family="Times New Roman,serif" font-size="14.00">Crafting 0</text>
</g>
</g>
</svg>
