<?xml version="1.0" encoding="UTF-8" standalone="no"?>
<!DOCTYPE svg PUBLIC "-//W3C//DTD SVG 1.1//EN"
 "http://www.w3.org/Graphics/SVG/1.1/DTD/svg11.dtd">
<!-- Generated by graphviz version 2.38.0 (20140413.2041)
 -->
<!-- Title: G Pages: 1 -->
<svg width="163pt" height="131pt"
 viewBox="0.00 0.00 162.84 131.00" xmlns="http://www.w3.org/2000/svg" xmlns:xlink="http://www.w3.org/1999/xlink">
<g id="graph0" class="graph" transform="scale(1 1) rotate(0) translate(4 127)">
<title>G</title>
<polygon fill="white" stroke="none" points="-4,4 -4,-127 158.844,-127 158.844,4 -4,4"/>
<!-- Nails -->
<g id="node1" class="node"><title>Nails</title>
<ellipse fill="none" stroke="black" cx="29.8437" cy="-105" rx="28.6953" ry="18"/>
<text text-anchor="middle" x="29.8437" y="-101.3" font-family="Times New Roman,serif" font-size="14.00">Nails</text>
</g>
<!-- Branch_A_Nails -->
<g id="node2" class="node"><title>Branch_A_Nails</title>
<ellipse fill="none" stroke="black" cx="70.8437" cy="-18" rx="70.6878" ry="18"/>
<text text-anchor="middle" x="70.8437" y="-14.3" font-family="Times New Roman,serif" font-size="14.00">Branch_A_Nails</text>
</g>
<!-- Nails&#45;&gt;Branch_A_Nails -->
<g id="edge1" class="edge"><title>Nails&#45;&gt;Branch_A_Nails</title>
<path fill="none" stroke="black" d="M28.7033,-87.0089C28.7027,-76.9482 29.9151,-64.2141 34.8437,-54 36.7189,-50.1139 39.2149,-46.422 42.0214,-42.9946"/>
<polygon fill="black" stroke="black" points="44.7366,-45.2146 48.9879,-35.5102 39.6127,-40.4454 44.7366,-45.2146"/>
<text text-anchor="middle" x="62.8437" y="-57.8" font-family="Times New Roman,serif" font-size="14.00">Crafting 0</text>
</g>
<!-- Branch -->
<g id="node3" class="node"><title>Branch</title>
<ellipse fill="none" stroke="black" cx="112.844" cy="-105" rx="36.2938" ry="18"/>
<text text-anchor="middle" x="112.844" y="-101.3" font-family="Times New Roman,serif" font-size="14.00">Branch</text>
</g>
<!-- Branch&#45;&gt;Branch_A_Nails -->
<g id="edge2" class="edge"><title>Branch&#45;&gt;Branch_A_Nails</title>
<path fill="none" stroke="black" d="M105.941,-87.1302C101.807,-77.3402 96.307,-64.8402 90.8437,-54 89.3319,-51.0002 87.6838,-47.8948 86.0038,-44.8289"/>
<polygon fill="black" stroke="black" points="88.9291,-42.8905 80.9722,-35.8949 82.8299,-46.3256 88.9291,-42.8905"/>
<text text-anchor="middle" x="126.844" y="-57.8" font-family="Times New Roman,serif" font-size="14.00">Crafting 0</text>
</g>
</g>
</svg>
