<?xml version="1.0" encoding="UTF-8" standalone="no"?>
<!DOCTYPE svg PUBLIC "-//W3C//DTD SVG 1.1//EN"
 "http://www.w3.org/Graphics/SVG/1.1/DTD/svg11.dtd">
<!-- Generated by graphviz version 2.38.0 (20140413.2041)
 -->
<!-- Title: G Pages: 1 -->
<svg width="458pt" height="305pt"
 viewBox="0.00 0.00 457.54 305.00" xmlns="http://www.w3.org/2000/svg" xmlns:xlink="http://www.w3.org/1999/xlink">
<g id="graph0" class="graph" transform="scale(1 1) rotate(0) translate(4 301)">
<title>G</title>
<polygon fill="white" stroke="none" points="-4,4 -4,-301 453.537,-301 453.537,4 -4,4"/>
<!-- Herb_Augmentor -->
<g id="node1" class="node"><title>Herb_Augmentor</title>
<ellipse fill="none" stroke="black" cx="74.0934" cy="-192" rx="74.187" ry="18"/>
<text text-anchor="middle" x="74.0934" y="-188.3" font-family="Times New Roman,serif" font-size="14.00">Herb_Augmentor</text>
</g>
<!-- Medium_Healing_Potion -->
<g id="node3" class="node"><title>Medium_Healing_Potion</title>
<ellipse fill="none" stroke="black" cx="201.093" cy="-105" rx="100.983" ry="18"/>
<text text-anchor="middle" x="201.093" y="-101.3" font-family="Times New Roman,serif" font-size="14.00">Medium_Healing_Potion</text>
</g>
<!-- Herb_Augmentor&#45;&gt;Medium_Healing_Potion -->
<g id="edge2" class="edge"><title>Herb_Augmentor&#45;&gt;Medium_Healing_Potion</title>
<path fill="none" stroke="black" d="M98.2801,-174.812C117.976,-161.63 145.991,-142.88 167.804,-128.28"/>
<polygon fill="black" stroke="black" points="169.765,-131.179 176.129,-122.708 165.872,-125.362 169.765,-131.179"/>
<text text-anchor="middle" x="174.093" y="-144.8" font-family="Times New Roman,serif" font-size="14.00">Crafting 3</text>
</g>
<!-- Large_Healing_Potion -->
<g id="node4" class="node"><title>Large_Healing_Potion</title>
<ellipse fill="none" stroke="black" cx="201.093" cy="-18" rx="91.784" ry="18"/>
<text text-anchor="middle" x="201.093" y="-14.3" font-family="Times New Roman,serif" font-size="14.00">Large_Healing_Potion</text>
</g>
<!-- Herb_Augmentor&#45;&gt;Large_Healing_Potion -->
<g id="edge1" class="edge"><title>Herb_Augmentor&#45;&gt;Large_Healing_Potion</title>
<path fill="none" stroke="black" d="M58.5911,-174.028C40.8507,-152.458 16.5053,-114.702 35.0934,-87 54.2795,-58.4072 87.8563,-41.8284 119.815,-32.2194"/>
<polygon fill="black" stroke="black" points="120.981,-35.5274 129.663,-29.4555 119.09,-28.7878 120.981,-35.5274"/>
<text text-anchor="middle" x="63.0934" y="-101.3" font-family="Times New Roman,serif" font-size="14.00">Crafting 5</text>
</g>
<!-- Potion_Empty -->
<g id="node2" class="node"><title>Potion_Empty</title>
<ellipse fill="none" stroke="black" cx="221.093" cy="-279" rx="63.8893" ry="18"/>
<text text-anchor="middle" x="221.093" y="-275.3" font-family="Times New Roman,serif" font-size="14.00">Potion_Empty</text>
</g>
<!-- Minor_Healing_Potion -->
<g id="node6" class="node"><title>Minor_Healing_Potion</title>
<ellipse fill="none" stroke="black" cx="299.093" cy="-192" rx="92.8835" ry="18"/>
<text text-anchor="middle" x="299.093" y="-188.3" font-family="Times New Roman,serif" font-size="14.00">Minor_Healing_Potion</text>
</g>
<!-- Potion_Empty&#45;&gt;Minor_Healing_Potion -->
<g id="edge3" class="edge"><title>Potion_Empty&#45;&gt;Minor_Healing_Potion</title>
<path fill="none" stroke="black" d="M236.504,-261.207C248.042,-248.633 263.992,-231.252 276.902,-217.182"/>
<polygon fill="black" stroke="black" points="279.533,-219.493 283.715,-209.758 274.375,-214.76 279.533,-219.493"/>
<text text-anchor="middle" x="293.093" y="-231.8" font-family="Times New Roman,serif" font-size="14.00">Crafting 1</text>
</g>
<!-- Medium_Healing_Potion&#45;&gt;Large_Healing_Potion -->
<g id="edge4" class="edge"><title>Medium_Healing_Potion&#45;&gt;Large_Healing_Potion</title>
<path fill="none" stroke="black" d="M201.093,-86.799C201.093,-75.1626 201.093,-59.5479 201.093,-46.2368"/>
<polygon fill="black" stroke="black" points="204.594,-46.1754 201.093,-36.1754 197.594,-46.1755 204.594,-46.1754"/>
<text text-anchor="middle" x="229.093" y="-57.8" font-family="Times New Roman,serif" font-size="14.00">Crafting 5</text>
</g>
<!-- Herb_Mushroom -->
<g id="node5" class="node"><title>Herb_Mushroom</title>
<ellipse fill="none" stroke="black" cx="376.093" cy="-279" rx="73.387" ry="18"/>
<text text-anchor="middle" x="376.093" y="-275.3" font-family="Times New Roman,serif" font-size="14.00">Herb_Mushroom</text>
</g>
<!-- Herb_Mushroom&#45;&gt;Minor_Healing_Potion -->
<g id="edge5" class="edge"><title>Herb_Mushroom&#45;&gt;Minor_Healing_Potion</title>
<path fill="none" stroke="black" d="M360.881,-261.207C349.491,-248.633 333.745,-231.252 321,-217.182"/>
<polygon fill="black" stroke="black" points="323.582,-214.82 314.275,-209.758 318.394,-219.519 323.582,-214.82"/>
<text text-anchor="middle" x="371.093" y="-231.8" font-family="Times New Roman,serif" font-size="14.00">Crafting 1</text>
</g>
<!-- Minor_Healing_Potion&#45;&gt;Medium_Healing_Potion -->
<g id="edge7" class="edge"><title>Minor_Healing_Potion&#45;&gt;Medium_Healing_Potion</title>
<path fill="none" stroke="black" d="M279.732,-174.207C264.967,-161.401 244.452,-143.607 228.077,-129.404"/>
<polygon fill="black" stroke="black" points="230.263,-126.667 220.415,-122.758 225.676,-131.955 230.263,-126.667"/>
<text text-anchor="middle" x="284.093" y="-144.8" font-family="Times New Roman,serif" font-size="14.00">Crafting 3</text>
</g>
<!-- Minor_Healing_Potion&#45;&gt;Large_Healing_Potion -->
<g id="edge6" class="edge"><title>Minor_Healing_Potion&#45;&gt;Large_Healing_Potion</title>
<path fill="none" stroke="black" d="M309.37,-173.769C312.113,-168.28 314.7,-162.057 316.093,-156 320.367,-137.419 319.263,-100.633 311.093,-87 297.966,-65.0936 274.786,-49.2293 253.08,-38.3627"/>
<polygon fill="black" stroke="black" points="254.436,-35.1322 243.901,-34.0085 251.436,-41.4567 254.436,-35.1322"/>
<text text-anchor="middle" x="347.093" y="-101.3" font-family="Times New Roman,serif" font-size="14.00">Crafting 3</text>
</g>
</g>
</svg>
