<?xml version="1.0" encoding="UTF-8" standalone="no"?>
<!DOCTYPE svg PUBLIC "-//W3C//DTD SVG 1.1//EN"
 "http://www.w3.org/Graphics/SVG/1.1/DTD/svg11.dtd">
<!-- Generated by graphviz version 2.38.0 (20140413.2041)
 -->
<!-- Title: G Pages: 1 -->
<svg width="282pt" height="149pt"
 viewBox="0.00 0.00 282.04 148.74" xmlns="http://www.w3.org/2000/svg" xmlns:xlink="http://www.w3.org/1999/xlink">
<g id="graph0" class="graph" transform="scale(1 1) rotate(0) translate(4 144.74)">
<title>G</title>
<polygon fill="white" stroke="none" points="-4,4 -4,-144.74 278.039,-144.74 278.039,4 -4,4"/>
<!-- ArmorGloves -->
<g id="node1" class="node"><title>ArmorGloves</title>
<ellipse fill="none" stroke="black" cx="60.4446" cy="-122.74" rx="60.3893" ry="18"/>
<text text-anchor="middle" x="60.4446" y="-119.04" font-family="Times New Roman,serif" font-size="14.00">ArmorGloves</text>
</g>
<!-- ArmorGloves
+ Small_WaterResistance -->
<g id="node2" class="node"><title>ArmorGloves
+ Small_WaterResistance</title>
<ellipse fill="none" stroke="black" cx="133.445" cy="-26.8701" rx="113.689" ry="26.7407"/>
<text text-anchor="middle" x="133.445" y="-30.6701" font-family="Times New Roman,serif" font-size="14.00">ArmorGloves</text>
<text text-anchor="middle" x="133.445" y="-15.6701" font-family="Times New Roman,serif" font-size="14.00">+ Small_WaterResistance</text>
</g>
<!-- ArmorGloves&#45;&gt;ArmorGloves
+ Small_WaterResistance -->
<g id="edge1" class="edge"><title>ArmorGloves&#45;&gt;ArmorGloves
+ Small_WaterResistance</title>
<path fill="none" stroke="black" d="M73.4956,-104.958C82.9075,-92.8553 95.9268,-76.1139 107.428,-61.324"/>
<polygon fill="black" stroke="black" points="110.254,-63.3926 113.63,-53.35 104.728,-59.0953 110.254,-63.3926"/>
<text text-anchor="middle" x="127.445" y="-75.5401" font-family="Times New Roman,serif" font-size="14.00">Crafting 3</text>
</g>
<!-- Essence_Water -->
<g id="node3" class="node"><title>Essence_Water</title>
<ellipse fill="none" stroke="black" cx="206.445" cy="-122.74" rx="67.6881" ry="18"/>
<text text-anchor="middle" x="206.445" y="-119.04" font-family="Times New Roman,serif" font-size="14.00">Essence_Water</text>
</g>
<!-- Essence_Water&#45;&gt;ArmorGloves
+ Small_WaterResistance -->
<g id="edge2" class="edge"><title>Essence_Water&#45;&gt;ArmorGloves
+ Small_WaterResistance</title>
<path fill="none" stroke="black" d="M193.394,-104.958C183.982,-92.8553 170.962,-76.1139 159.461,-61.324"/>
<polygon fill="black" stroke="black" points="162.161,-59.0953 153.26,-53.35 156.636,-63.3926 162.161,-59.0953"/>
<text text-anchor="middle" x="206.445" y="-75.5401" font-family="Times New Roman,serif" font-size="14.00">Crafting 3</text>
</g>
</g>
</svg>
