<?xml version="1.0" encoding="UTF-8" standalone="no"?>
<!DOCTYPE svg PUBLIC "-//W3C//DTD SVG 1.1//EN"
 "http://www.w3.org/Graphics/SVG/1.1/DTD/svg11.dtd">
<!-- Generated by graphviz version 2.38.0 (20140413.2041)
 -->
<!-- Title: G Pages: 1 -->
<svg width="461pt" height="305pt"
 viewBox="0.00 0.00 461.40 305.00" xmlns="http://www.w3.org/2000/svg" xmlns:xlink="http://www.w3.org/1999/xlink">
<g id="graph0" class="graph" transform="scale(1 1) rotate(0) translate(4 301)">
<title>G</title>
<polygon fill="white" stroke="none" points="-4,4 -4,-301 457.397,-301 457.397,4 -4,4"/>
<!-- ArrowHead_Silver -->
<g id="node1" class="node"><title>ArrowHead_Silver</title>
<ellipse fill="none" stroke="black" cx="253.397" cy="-105" rx="78.7863" ry="18"/>
<text text-anchor="middle" x="253.397" y="-101.3" font-family="Times New Roman,serif" font-size="14.00">ArrowHead_Silver</text>
</g>
<!-- Arrow_Silver -->
<g id="node4" class="node"><title>Arrow_Silver</title>
<ellipse fill="none" stroke="black" cx="186.397" cy="-18" rx="59.5901" ry="18"/>
<text text-anchor="middle" x="186.397" y="-14.3" font-family="Times New Roman,serif" font-size="14.00">Arrow_Silver</text>
</g>
<!-- ArrowHead_Silver&#45;&gt;Arrow_Silver -->
<g id="edge1" class="edge"><title>ArrowHead_Silver&#45;&gt;Arrow_Silver</title>
<path fill="none" stroke="black" d="M240.16,-87.2067C230.433,-74.8663 217.054,-57.8941 206.077,-43.9675"/>
<polygon fill="black" stroke="black" points="208.546,-41.4453 199.606,-35.7584 203.048,-45.7786 208.546,-41.4453"/>
<text text-anchor="middle" x="252.397" y="-57.8" font-family="Times New Roman,serif" font-size="14.00">Crafting 2</text>
</g>
<!-- Branch -->
<g id="node2" class="node"><title>Branch</title>
<ellipse fill="none" stroke="black" cx="36.3968" cy="-192" rx="36.2938" ry="18"/>
<text text-anchor="middle" x="36.3968" y="-188.3" font-family="Times New Roman,serif" font-size="14.00">Branch</text>
</g>
<!-- ArrowShaft -->
<g id="node5" class="node"><title>ArrowShaft</title>
<ellipse fill="none" stroke="black" cx="103.397" cy="-105" rx="53.0913" ry="18"/>
<text text-anchor="middle" x="103.397" y="-101.3" font-family="Times New Roman,serif" font-size="14.00">ArrowShaft</text>
</g>
<!-- Branch&#45;&gt;ArrowShaft -->
<g id="edge2" class="edge"><title>Branch&#45;&gt;ArrowShaft</title>
<path fill="none" stroke="black" d="M38.5513,-173.951C40.5352,-163.624 44.3015,-150.632 51.3968,-141 55.5165,-135.408 60.8144,-130.428 66.4469,-126.104"/>
<polygon fill="black" stroke="black" points="68.6463,-128.837 74.8404,-120.241 64.638,-123.098 68.6463,-128.837"/>
<text text-anchor="middle" x="79.3968" y="-144.8" font-family="Times New Roman,serif" font-size="14.00">Crafting 0</text>
</g>
<!-- Anvil -->
<g id="node3" class="node"><title>Anvil</title>
<ellipse fill="none" stroke="black" cx="235.397" cy="-192" rx="29.795" ry="18"/>
<text text-anchor="middle" x="235.397" y="-188.3" font-family="Times New Roman,serif" font-size="14.00">Anvil</text>
</g>
<!-- Anvil&#45;&gt;ArrowHead_Silver -->
<g id="edge3" class="edge"><title>Anvil&#45;&gt;ArrowHead_Silver</title>
<path fill="none" stroke="black" d="M239.039,-173.799C241.504,-162.163 244.81,-146.548 247.629,-133.237"/>
<polygon fill="black" stroke="black" points="251.112,-133.684 249.76,-123.175 244.264,-132.233 251.112,-133.684"/>
<text text-anchor="middle" x="274.397" y="-144.8" font-family="Times New Roman,serif" font-size="14.00">Crafting 2</text>
</g>
<!-- ArrowShaft&#45;&gt;Arrow_Silver -->
<g id="edge4" class="edge"><title>ArrowShaft&#45;&gt;Arrow_Silver</title>
<path fill="none" stroke="black" d="M119.4,-87.6111C131.721,-74.9928 148.939,-57.3607 162.834,-43.1307"/>
<polygon fill="black" stroke="black" points="165.677,-45.2286 170.159,-35.6286 160.669,-40.3381 165.677,-45.2286"/>
<text text-anchor="middle" x="178.397" y="-57.8" font-family="Times New Roman,serif" font-size="14.00">Crafting 2</text>
</g>
<!-- OreBar_A_Silver -->
<g id="node6" class="node"><title>OreBar_A_Silver</title>
<ellipse fill="none" stroke="black" cx="356.397" cy="-192" rx="73.387" ry="18"/>
<text text-anchor="middle" x="356.397" y="-188.3" font-family="Times New Roman,serif" font-size="14.00">OreBar_A_Silver</text>
</g>
<!-- OreBar_A_Silver&#45;&gt;ArrowHead_Silver -->
<g id="edge5" class="edge"><title>OreBar_A_Silver&#45;&gt;ArrowHead_Silver</title>
<path fill="none" stroke="black" d="M340.968,-173.919C331.461,-163.827 318.761,-151.091 306.397,-141 300.887,-136.503 294.789,-132.05 288.749,-127.905"/>
<polygon fill="black" stroke="black" points="290.278,-124.718 280.017,-122.082 286.395,-130.542 290.278,-124.718"/>
<text text-anchor="middle" x="350.397" y="-144.8" font-family="Times New Roman,serif" font-size="14.00">Crafting 2</text>
</g>
<!-- Ore_A_Silver -->
<g id="node7" class="node"><title>Ore_A_Silver</title>
<ellipse fill="none" stroke="black" cx="301.397" cy="-279" rx="61.1893" ry="18"/>
<text text-anchor="middle" x="301.397" y="-275.3" font-family="Times New Roman,serif" font-size="14.00">Ore_A_Silver</text>
</g>
<!-- Ore_A_Silver&#45;&gt;OreBar_A_Silver -->
<g id="edge6" class="edge"><title>Ore_A_Silver&#45;&gt;OreBar_A_Silver</title>
<path fill="none" stroke="black" d="M312.305,-260.843C318.469,-251.178 326.331,-238.895 333.397,-228 335.355,-224.98 337.416,-221.82 339.467,-218.686"/>
<polygon fill="black" stroke="black" points="342.565,-220.344 345.125,-210.063 336.713,-216.503 342.565,-220.344"/>
<text text-anchor="middle" x="361.397" y="-231.8" font-family="Times New Roman,serif" font-size="14.00">Crafting 2</text>
</g>
<!-- Oven -->
<g id="node8" class="node"><title>Oven</title>
<ellipse fill="none" stroke="black" cx="411.397" cy="-279" rx="30.5947" ry="18"/>
<text text-anchor="middle" x="411.397" y="-275.3" font-family="Times New Roman,serif" font-size="14.00">Oven</text>
</g>
<!-- Oven&#45;&gt;OreBar_A_Silver -->
<g id="edge7" class="edge"><title>Oven&#45;&gt;OreBar_A_Silver</title>
<path fill="none" stroke="black" d="M405.604,-261.055C401.774,-251.01 396.207,-238.277 389.397,-228 387.009,-224.397 384.239,-220.821 381.337,-217.408"/>
<polygon fill="black" stroke="black" points="383.756,-214.865 374.449,-209.803 378.568,-219.564 383.756,-214.865"/>
<text text-anchor="middle" x="425.397" y="-231.8" font-family="Times New Roman,serif" font-size="14.00">Crafting 2</text>
</g>
<!-- Knife -->
<g id="node9" class="node"><title>Knife</title>
<ellipse fill="none" stroke="black" cx="121.397" cy="-192" rx="30.5947" ry="18"/>
<text text-anchor="middle" x="121.397" y="-188.3" font-family="Times New Roman,serif" font-size="14.00">Knife</text>
</g>
<!-- Knife&#45;&gt;ArrowShaft -->
<g id="edge8" class="edge"><title>Knife&#45;&gt;ArrowShaft</title>
<path fill="none" stroke="black" d="M117.754,-173.799C115.29,-162.163 111.983,-146.548 109.165,-133.237"/>
<polygon fill="black" stroke="black" points="112.53,-132.233 107.034,-123.175 105.682,-133.684 112.53,-132.233"/>
<text text-anchor="middle" x="142.397" y="-144.8" font-family="Times New Roman,serif" font-size="14.00">Crafting 0</text>
</g>
</g>
</svg>
