<?xml version="1.0" encoding="UTF-8" standalone="no"?>
<!DOCTYPE svg PUBLIC "-//W3C//DTD SVG 1.1//EN"
 "http://www.w3.org/Graphics/SVG/1.1/DTD/svg11.dtd">
<!-- Generated by graphviz version 2.38.0 (20140413.2041)
 -->
<!-- Title: G Pages: 1 -->
<svg width="254pt" height="149pt"
 viewBox="0.00 0.00 254.39 148.74" xmlns="http://www.w3.org/2000/svg" xmlns:xlink="http://www.w3.org/1999/xlink">
<g id="graph0" class="graph" transform="scale(1 1) rotate(0) translate(4 144.74)">
<title>G</title>
<polygon fill="white" stroke="none" points="-4,4 -4,-144.74 250.39,-144.74 250.39,4 -4,4"/>
<!-- RobeArmor -->
<g id="node1" class="node"><title>RobeArmor</title>
<ellipse fill="none" stroke="black" cx="54.5952" cy="-122.74" rx="54.6905" ry="18"/>
<text text-anchor="middle" x="54.5952" y="-119.04" font-family="Times New Roman,serif" font-size="14.00">RobeArmor</text>
</g>
<!-- RobeArmor
+ Small_FireResistance -->
<g id="node3" class="node"><title>RobeArmor
+ Small_FireResistance</title>
<ellipse fill="none" stroke="black" cx="120.595" cy="-26.8701" rx="105.218" ry="26.7407"/>
<text text-anchor="middle" x="120.595" y="-30.6701" font-family="Times New Roman,serif" font-size="14.00">RobeArmor</text>
<text text-anchor="middle" x="120.595" y="-15.6701" font-family="Times New Roman,serif" font-size="14.00">+ Small_FireResistance</text>
</g>
<!-- RobeArmor&#45;&gt;RobeArmor
+ Small_FireResistance -->
<g id="edge1" class="edge"><title>RobeArmor&#45;&gt;RobeArmor
+ Small_FireResistance</title>
<path fill="none" stroke="black" d="M66.3946,-104.958C74.8252,-92.9674 86.4572,-76.4235 96.7845,-61.7353"/>
<polygon fill="black" stroke="black" points="99.7917,-63.5435 102.68,-53.35 94.0654,-59.5173 99.7917,-63.5435"/>
<text text-anchor="middle" x="117.595" y="-75.5401" font-family="Times New Roman,serif" font-size="14.00">Crafting 2</text>
</g>
<!-- Essence_Fire -->
<g id="node2" class="node"><title>Essence_Fire</title>
<ellipse fill="none" stroke="black" cx="186.595" cy="-122.74" rx="59.5901" ry="18"/>
<text text-anchor="middle" x="186.595" y="-119.04" font-family="Times New Roman,serif" font-size="14.00">Essence_Fire</text>
</g>
<!-- Essence_Fire&#45;&gt;RobeArmor
+ Small_FireResistance -->
<g id="edge2" class="edge"><title>Essence_Fire&#45;&gt;RobeArmor
+ Small_FireResistance</title>
<path fill="none" stroke="black" d="M174.796,-104.958C166.365,-92.9674 154.733,-76.4235 144.406,-61.7353"/>
<polygon fill="black" stroke="black" points="147.125,-59.5173 138.51,-53.35 141.399,-63.5435 147.125,-59.5173"/>
<text text-anchor="middle" x="188.595" y="-75.5401" font-family="Times New Roman,serif" font-size="14.00">Crafting 2</text>
</g>
</g>
</svg>
