<?xml version="1.0" encoding="UTF-8" standalone="no"?>
<!DOCTYPE svg PUBLIC "-//W3C//DTD SVG 1.1//EN"
 "http://www.w3.org/Graphics/SVG/1.1/DTD/svg11.dtd">
<!-- Generated by graphviz version 2.38.0 (20140413.2041)
 -->
<!-- Title: G Pages: 1 -->
<svg width="470pt" height="131pt"
 viewBox="0.00 0.00 469.84 131.00" xmlns="http://www.w3.org/2000/svg" xmlns:xlink="http://www.w3.org/1999/xlink">
<g id="graph0" class="graph" transform="scale(1 1) rotate(0) translate(4 127)">
<title>G</title>
<polygon fill="white" stroke="none" points="-4,4 -4,-127 465.841,-127 465.841,4 -4,4"/>
<!-- Soup_Pumpkin -->
<g id="node1" class="node"><title>Soup_Pumpkin</title>
<ellipse fill="none" stroke="black" cx="223.896" cy="-18" rx="67.6881" ry="18"/>
<text text-anchor="middle" x="223.896" y="-14.3" font-family="Times New Roman,serif" font-size="14.00">Soup_Pumpkin</text>
</g>
<!-- Pumpkin -->
<g id="node2" class="node"><title>Pumpkin</title>
<ellipse fill="none" stroke="black" cx="42.8962" cy="-105" rx="42.7926" ry="18"/>
<text text-anchor="middle" x="42.8962" y="-101.3" font-family="Times New Roman,serif" font-size="14.00">Pumpkin</text>
</g>
<!-- Pumpkin&#45;&gt;Soup_Pumpkin -->
<g id="edge4" class="edge"><title>Pumpkin&#45;&gt;Soup_Pumpkin</title>
<path fill="none" stroke="black" d="M65.6042,-89.5639C82.843,-78.9495 107.347,-64.589 129.896,-54 143.728,-47.5048 159.122,-41.35 173.382,-36.0655"/>
<polygon fill="black" stroke="black" points="174.838,-39.2601 183.039,-32.5526 172.445,-32.6817 174.838,-39.2601"/>
<text text-anchor="middle" x="157.896" y="-57.8" font-family="Times New Roman,serif" font-size="14.00">Crafting 0</text>
</g>
<!-- PumpkinPart -->
<g id="node3" class="node"><title>PumpkinPart</title>
<ellipse fill="none" stroke="black" cx="161.896" cy="-105" rx="57.6901" ry="18"/>
<text text-anchor="middle" x="161.896" y="-101.3" font-family="Times New Roman,serif" font-size="14.00">PumpkinPart</text>
</g>
<!-- PumpkinPart&#45;&gt;Soup_Pumpkin -->
<g id="edge1" class="edge"><title>PumpkinPart&#45;&gt;Soup_Pumpkin</title>
<path fill="none" stroke="black" d="M174.145,-87.2067C183.147,-74.8663 195.526,-57.8941 205.685,-43.9675"/>
<polygon fill="black" stroke="black" points="208.607,-45.9001 211.672,-35.7584 202.952,-41.775 208.607,-45.9001"/>
<text text-anchor="middle" x="224.896" y="-57.8" font-family="Times New Roman,serif" font-size="14.00">Crafting 0</text>
</g>
<!-- BoilingPot -->
<g id="node4" class="node"><title>BoilingPot</title>
<ellipse fill="none" stroke="black" cx="286.896" cy="-105" rx="48.9926" ry="18"/>
<text text-anchor="middle" x="286.896" y="-101.3" font-family="Times New Roman,serif" font-size="14.00">BoilingPot</text>
</g>
<!-- BoilingPot&#45;&gt;Soup_Pumpkin -->
<g id="edge3" class="edge"><title>BoilingPot&#45;&gt;Soup_Pumpkin</title>
<path fill="none" stroke="black" d="M278.022,-87.2101C272.454,-77.2206 264.842,-64.4908 256.896,-54 254.098,-50.3051 250.962,-46.5673 247.766,-42.9788"/>
<polygon fill="black" stroke="black" points="250.144,-40.396 240.782,-35.4361 245.008,-45.1518 250.144,-40.396"/>
<text text-anchor="middle" x="294.896" y="-57.8" font-family="Times New Roman,serif" font-size="14.00">Crafting 0</text>
</g>
<!-- Pumpkin_C -->
<g id="node5" class="node"><title>Pumpkin_C</title>
<ellipse fill="none" stroke="black" cx="407.896" cy="-105" rx="53.8905" ry="18"/>
<text text-anchor="middle" x="407.896" y="-101.3" font-family="Times New Roman,serif" font-size="14.00">Pumpkin_C</text>
</g>
<!-- Pumpkin_C&#45;&gt;Soup_Pumpkin -->
<g id="edge2" class="edge"><title>Pumpkin_C&#45;&gt;Soup_Pumpkin</title>
<path fill="none" stroke="black" d="M385.626,-88.3497C369.771,-77.6898 347.676,-63.7905 326.896,-54 311.474,-46.7341 294.122,-40.2407 278.119,-34.8783"/>
<polygon fill="black" stroke="black" points="278.95,-31.468 268.358,-31.6889 276.776,-38.1218 278.95,-31.468"/>
<text text-anchor="middle" x="382.896" y="-57.8" font-family="Times New Roman,serif" font-size="14.00">Crafting 0</text>
</g>
</g>
</svg>
