<?xml version="1.0" encoding="UTF-8" standalone="no"?>
<!DOCTYPE svg PUBLIC "-//W3C//DTD SVG 1.1//EN"
 "http://www.w3.org/Graphics/SVG/1.1/DTD/svg11.dtd">
<!-- Generated by graphviz version 2.38.0 (20140413.2041)
 -->
<!-- Title: G Pages: 1 -->
<svg width="867pt" height="392pt"
 viewBox="0.00 0.00 866.59 392.00" xmlns="http://www.w3.org/2000/svg" xmlns:xlink="http://www.w3.org/1999/xlink">
<g id="graph0" class="graph" transform="scale(1 1) rotate(0) translate(4 388)">
<title>G</title>
<polygon fill="white" stroke="none" points="-4,4 -4,-388 862.592,-388 862.592,4 -4,4"/>
<!-- Cheese -->
<g id="node1" class="node"><title>Cheese</title>
<ellipse fill="none" stroke="black" cx="341.397" cy="-192" rx="37.0935" ry="18"/>
<text text-anchor="middle" x="341.397" y="-188.3" font-family="Times New Roman,serif" font-size="14.00">Cheese</text>
</g>
<!-- Dough_CheeseBread -->
<g id="node9" class="node"><title>Dough_CheeseBread</title>
<ellipse fill="none" stroke="black" cx="383.397" cy="-105" rx="87.9851" ry="18"/>
<text text-anchor="middle" x="383.397" y="-101.3" font-family="Times New Roman,serif" font-size="14.00">Dough_CheeseBread</text>
</g>
<!-- Cheese&#45;&gt;Dough_CheeseBread -->
<g id="edge1" class="edge"><title>Cheese&#45;&gt;Dough_CheeseBread</title>
<path fill="none" stroke="black" d="M340.664,-173.989C340.888,-163.921 342.357,-151.187 347.397,-141 349.31,-137.133 351.83,-133.452 354.649,-130.031"/>
<polygon fill="black" stroke="black" points="357.364,-132.252 361.629,-122.553 352.247,-127.475 357.364,-132.252"/>
<text text-anchor="middle" x="375.397" y="-144.8" font-family="Times New Roman,serif" font-size="14.00">Crafting 0</text>
</g>
<!-- Wheat -->
<g id="node2" class="node"><title>Wheat</title>
<ellipse fill="none" stroke="black" cx="691.397" cy="-366" rx="34.394" ry="18"/>
<text text-anchor="middle" x="691.397" y="-362.3" font-family="Times New Roman,serif" font-size="14.00">Wheat</text>
</g>
<!-- Flour -->
<g id="node12" class="node"><title>Flour</title>
<ellipse fill="none" stroke="black" cx="691.397" cy="-279" rx="30.5947" ry="18"/>
<text text-anchor="middle" x="691.397" y="-275.3" font-family="Times New Roman,serif" font-size="14.00">Flour</text>
</g>
<!-- Wheat&#45;&gt;Flour -->
<g id="edge2" class="edge"><title>Wheat&#45;&gt;Flour</title>
<path fill="none" stroke="black" d="M691.397,-347.799C691.397,-336.163 691.397,-320.548 691.397,-307.237"/>
<polygon fill="black" stroke="black" points="694.897,-307.175 691.397,-297.175 687.897,-307.175 694.897,-307.175"/>
<text text-anchor="middle" x="719.397" y="-318.8" font-family="Times New Roman,serif" font-size="14.00">Crafting 0</text>
</g>
<!-- Bread_Cheese -->
<g id="node3" class="node"><title>Bread_Cheese</title>
<ellipse fill="none" stroke="black" cx="465.397" cy="-18" rx="63.8893" ry="18"/>
<text text-anchor="middle" x="465.397" y="-14.3" font-family="Times New Roman,serif" font-size="14.00">Bread_Cheese</text>
</g>
<!-- Bucket -->
<g id="node4" class="node"><title>Bucket</title>
<ellipse fill="none" stroke="black" cx="36.3968" cy="-366" rx="36.2938" ry="18"/>
<text text-anchor="middle" x="36.3968" y="-362.3" font-family="Times New Roman,serif" font-size="14.00">Bucket</text>
</g>
<!-- Bucket_A_Water -->
<g id="node7" class="node"><title>Bucket_A_Water</title>
<ellipse fill="none" stroke="black" cx="194.397" cy="-279" rx="74.187" ry="18"/>
<text text-anchor="middle" x="194.397" y="-275.3" font-family="Times New Roman,serif" font-size="14.00">Bucket_A_Water</text>
</g>
<!-- Bucket&#45;&gt;Bucket_A_Water -->
<g id="edge5" class="edge"><title>Bucket&#45;&gt;Bucket_A_Water</title>
<path fill="none" stroke="black" d="M38.4191,-347.888C40.5914,-337 45.0898,-323.415 54.3968,-315 70.6001,-300.35 92.0064,-291.619 113.192,-286.474"/>
<polygon fill="black" stroke="black" points="114.193,-289.839 123.219,-284.291 112.703,-282.999 114.193,-289.839"/>
<text text-anchor="middle" x="82.3968" y="-318.8" font-family="Times New Roman,serif" font-size="14.00">Crafting 0</text>
</g>
<!-- CupEmpty -->
<g id="node5" class="node"><title>CupEmpty</title>
<ellipse fill="none" stroke="black" cx="589.397" cy="-366" rx="50.0912" ry="18"/>
<text text-anchor="middle" x="589.397" y="-362.3" font-family="Times New Roman,serif" font-size="14.00">CupEmpty</text>
</g>
<!-- Cup_A_Water -->
<g id="node14" class="node"><title>Cup_A_Water</title>
<ellipse fill="none" stroke="black" cx="431.397" cy="-279" rx="64.189" ry="18"/>
<text text-anchor="middle" x="431.397" y="-275.3" font-family="Times New Roman,serif" font-size="14.00">Cup_A_Water</text>
</g>
<!-- CupEmpty&#45;&gt;Cup_A_Water -->
<g id="edge13" class="edge"><title>CupEmpty&#45;&gt;Cup_A_Water</title>
<path fill="none" stroke="black" d="M579.884,-347.891C573.01,-337.005 562.777,-323.419 550.397,-315 534.246,-304.016 514.602,-296.422 495.967,-291.195"/>
<polygon fill="black" stroke="black" points="496.604,-287.744 486.044,-288.6 494.833,-294.516 496.604,-287.744"/>
<text text-anchor="middle" x="593.397" y="-318.8" font-family="Times New Roman,serif" font-size="14.00">Crafting 0</text>
</g>
<!-- Well -->
<g id="node6" class="node"><title>Well</title>
<ellipse fill="none" stroke="black" cx="462.397" cy="-366" rx="27.0966" ry="18"/>
<text text-anchor="middle" x="462.397" y="-362.3" font-family="Times New Roman,serif" font-size="14.00">Well</text>
</g>
<!-- Well&#45;&gt;Bucket_A_Water -->
<g id="edge6" class="edge"><title>Well&#45;&gt;Bucket_A_Water</title>
<path fill="none" stroke="black" d="M448.743,-350.324C436.217,-337.207 418.3,-319.398 409.397,-315 385.596,-303.243 323.24,-293.855 271.774,-287.773"/>
<polygon fill="black" stroke="black" points="271.977,-284.274 261.641,-286.602 271.173,-291.227 271.977,-284.274"/>
<text text-anchor="middle" x="454.397" y="-318.8" font-family="Times New Roman,serif" font-size="14.00">Crafting 0</text>
</g>
<!-- Well&#45;&gt;Cup_A_Water -->
<g id="edge7" class="edge"><title>Well&#45;&gt;Cup_A_Water</title>
<path fill="none" stroke="black" d="M477.693,-350.869C486.682,-340.787 495.084,-326.954 488.397,-315 485.083,-309.076 480.31,-304.033 474.918,-299.777"/>
<polygon fill="black" stroke="black" points="476.893,-296.887 466.673,-294.093 472.92,-302.65 476.893,-296.887"/>
<text text-anchor="middle" x="518.397" y="-318.8" font-family="Times New Roman,serif" font-size="14.00">Crafting 0</text>
</g>
<!-- Dough -->
<g id="node10" class="node"><title>Dough</title>
<ellipse fill="none" stroke="black" cx="431.397" cy="-192" rx="35.194" ry="18"/>
<text text-anchor="middle" x="431.397" y="-188.3" font-family="Times New Roman,serif" font-size="14.00">Dough</text>
</g>
<!-- Bucket_A_Water&#45;&gt;Dough -->
<g id="edge8" class="edge"><title>Bucket_A_Water&#45;&gt;Dough</title>
<path fill="none" stroke="black" d="M235.563,-263.896C274.725,-250.384 335.241,-229.259 387.397,-210 389.903,-209.075 392.485,-208.109 395.083,-207.128"/>
<polygon fill="black" stroke="black" points="396.355,-210.389 404.453,-203.557 393.862,-203.848 396.355,-210.389"/>
<text text-anchor="middle" x="362.397" y="-231.8" font-family="Times New Roman,serif" font-size="14.00">Crafting 0</text>
</g>
<!-- Well_A_Snow -->
<g id="node8" class="node"><title>Well_A_Snow</title>
<ellipse fill="none" stroke="black" cx="175.397" cy="-366" rx="64.189" ry="18"/>
<text text-anchor="middle" x="175.397" y="-362.3" font-family="Times New Roman,serif" font-size="14.00">Well_A_Snow</text>
</g>
<!-- Well_A_Snow&#45;&gt;Bucket_A_Water -->
<g id="edge9" class="edge"><title>Well_A_Snow&#45;&gt;Bucket_A_Water</title>
<path fill="none" stroke="black" d="M139.293,-351.028C122.04,-342.122 106.985,-329.54 116.397,-315 121.15,-307.657 127.85,-301.839 135.346,-297.235"/>
<polygon fill="black" stroke="black" points="137.278,-300.171 144.445,-292.368 133.976,-293.998 137.278,-300.171"/>
<text text-anchor="middle" x="144.397" y="-318.8" font-family="Times New Roman,serif" font-size="14.00">Crafting 0</text>
</g>
<!-- Well_A_Snow&#45;&gt;Cup_A_Water -->
<g id="edge10" class="edge"><title>Well_A_Snow&#45;&gt;Cup_A_Water</title>
<path fill="none" stroke="black" d="M207.632,-350.319C221.175,-344.109 237.079,-336.76 251.397,-330 265.238,-323.465 267.971,-320.114 282.397,-315 310.045,-305.198 341.557,-297.341 368.457,-291.575"/>
<polygon fill="black" stroke="black" points="369.453,-294.942 378.524,-289.468 368.019,-288.091 369.453,-294.942"/>
<text text-anchor="middle" x="310.397" y="-318.8" font-family="Times New Roman,serif" font-size="14.00">Crafting 0</text>
</g>
<!-- Dough_CheeseBread&#45;&gt;Bread_Cheese -->
<g id="edge11" class="edge"><title>Dough_CheeseBread&#45;&gt;Bread_Cheese</title>
<path fill="none" stroke="black" d="M398.068,-87.0254C406.709,-77.2005 417.959,-64.7005 428.397,-54 432.084,-50.2201 436.064,-46.2991 440.001,-42.5085"/>
<polygon fill="black" stroke="black" points="442.589,-44.8771 447.427,-35.4512 437.767,-39.803 442.589,-44.8771"/>
<text text-anchor="middle" x="456.397" y="-57.8" font-family="Times New Roman,serif" font-size="14.00">Crafting 0</text>
</g>
<!-- Dough&#45;&gt;Dough_CheeseBread -->
<g id="edge12" class="edge"><title>Dough&#45;&gt;Dough_CheeseBread</title>
<path fill="none" stroke="black" d="M422.099,-174.313C416.667,-164.584 409.667,-152.084 403.397,-141 401.743,-138.076 400.006,-135.018 398.275,-131.979"/>
<polygon fill="black" stroke="black" points="401.189,-130.023 393.192,-123.073 395.109,-133.493 401.189,-130.023"/>
<text text-anchor="middle" x="438.397" y="-144.8" font-family="Times New Roman,serif" font-size="14.00">Crafting 0</text>
</g>
<!-- Oven -->
<g id="node11" class="node"><title>Oven</title>
<ellipse fill="none" stroke="black" cx="519.397" cy="-105" rx="30.5947" ry="18"/>
<text text-anchor="middle" x="519.397" y="-101.3" font-family="Times New Roman,serif" font-size="14.00">Oven</text>
</g>
<!-- Oven&#45;&gt;Bread_Cheese -->
<g id="edge3" class="edge"><title>Oven&#45;&gt;Bread_Cheese</title>
<path fill="none" stroke="black" d="M509.24,-88.0122C501.471,-75.7828 490.603,-58.6772 481.632,-44.556"/>
<polygon fill="black" stroke="black" points="484.379,-42.3524 476.062,-35.7885 478.471,-46.1061 484.379,-42.3524"/>
<text text-anchor="middle" x="523.397" y="-57.8" font-family="Times New Roman,serif" font-size="14.00">Crafting 0</text>
</g>
<!-- Flour&#45;&gt;Dough -->
<g id="edge4" class="edge"><title>Flour&#45;&gt;Dough</title>
<path fill="none" stroke="black" d="M665.036,-269.382C618.948,-254.315 523.544,-223.125 470.001,-205.621"/>
<polygon fill="black" stroke="black" points="470.788,-202.196 460.195,-202.415 468.613,-208.849 470.788,-202.196"/>
<text text-anchor="middle" x="604.397" y="-231.8" font-family="Times New Roman,serif" font-size="14.00">Crafting 0</text>
</g>
<!-- Barrel -->
<g id="node13" class="node"><title>Barrel</title>
<ellipse fill="none" stroke="black" cx="331.397" cy="-366" rx="32.4942" ry="18"/>
<text text-anchor="middle" x="331.397" y="-362.3" font-family="Times New Roman,serif" font-size="14.00">Barrel</text>
</g>
<!-- Barrel&#45;&gt;Bucket_A_Water -->
<g id="edge14" class="edge"><title>Barrel&#45;&gt;Bucket_A_Water</title>
<path fill="none" stroke="black" d="M301.155,-359.218C263.138,-351.648 202.016,-338.364 195.397,-330 190.377,-323.657 188.878,-315.307 189.003,-307.253"/>
<polygon fill="black" stroke="black" points="192.513,-307.306 189.943,-297.028 185.542,-306.665 192.513,-307.306"/>
<text text-anchor="middle" x="223.397" y="-318.8" font-family="Times New Roman,serif" font-size="14.00">Crafting 0</text>
</g>
<!-- Barrel&#45;&gt;Cup_A_Water -->
<g id="edge15" class="edge"><title>Barrel&#45;&gt;Cup_A_Water</title>
<path fill="none" stroke="black" d="M335.524,-347.901C338.836,-337.295 344.444,-324.019 353.397,-315 360.766,-307.576 369.99,-301.588 379.488,-296.806"/>
<polygon fill="black" stroke="black" points="381.017,-299.956 388.627,-292.585 378.081,-293.601 381.017,-299.956"/>
<text text-anchor="middle" x="381.397" y="-318.8" font-family="Times New Roman,serif" font-size="14.00">Crafting 0</text>
</g>
<!-- Cup_A_Water&#45;&gt;Dough -->
<g id="edge16" class="edge"><title>Cup_A_Water&#45;&gt;Dough</title>
<path fill="none" stroke="black" d="M431.397,-260.799C431.397,-249.163 431.397,-233.548 431.397,-220.237"/>
<polygon fill="black" stroke="black" points="434.897,-220.175 431.397,-210.175 427.897,-220.175 434.897,-220.175"/>
<text text-anchor="middle" x="459.397" y="-231.8" font-family="Times New Roman,serif" font-size="14.00">Crafting 0</text>
</g>
<!-- MortarPestle -->
<g id="node15" class="node"><title>MortarPestle</title>
<ellipse fill="none" stroke="black" cx="801.397" cy="-366" rx="57.3905" ry="18"/>
<text text-anchor="middle" x="801.397" y="-362.3" font-family="Times New Roman,serif" font-size="14.00">MortarPestle</text>
</g>
<!-- MortarPestle&#45;&gt;Flour -->
<g id="edge17" class="edge"><title>MortarPestle&#45;&gt;Flour</title>
<path fill="none" stroke="black" d="M786.601,-348.135C777.123,-337.878 764.231,-324.893 751.397,-315 742.567,-308.193 732.289,-301.738 722.761,-296.268"/>
<polygon fill="black" stroke="black" points="724.366,-293.156 713.927,-291.346 720.959,-299.271 724.366,-293.156"/>
<text text-anchor="middle" x="795.397" y="-318.8" font-family="Times New Roman,serif" font-size="14.00">Crafting 0</text>
</g>
</g>
</svg>
