<?xml version="1.0" encoding="UTF-8" standalone="no"?>
<!DOCTYPE svg PUBLIC "-//W3C//DTD SVG 1.1//EN"
 "http://www.w3.org/Graphics/SVG/1.1/DTD/svg11.dtd">
<!-- Generated by graphviz version 2.38.0 (20140413.2041)
 -->
<!-- Title: G Pages: 1 -->
<svg width="296pt" height="149pt"
 viewBox="0.00 0.00 296.19 148.74" xmlns="http://www.w3.org/2000/svg" xmlns:xlink="http://www.w3.org/1999/xlink">
<g id="graph0" class="graph" transform="scale(1 1) rotate(0) translate(4 144.74)">
<title>G</title>
<polygon fill="white" stroke="none" points="-4,4 -4,-144.74 292.188,-144.74 292.188,4 -4,4"/>
<!-- ArmorHelmet
+ Small_Sneaking -->
<g id="node1" class="node"><title>ArmorHelmet
+ Small_Sneaking</title>
<ellipse fill="none" stroke="black" cx="151.393" cy="-26.8701" rx="82.9636" ry="26.7407"/>
<text text-anchor="middle" x="151.393" y="-30.6701" font-family="Times New Roman,serif" font-size="14.00">ArmorHelmet</text>
<text text-anchor="middle" x="151.393" y="-15.6701" font-family="Times New Roman,serif" font-size="14.00">+ Small_Sneaking</text>
</g>
<!-- Essence_Shadow -->
<g id="node2" class="node"><title>Essence_Shadow</title>
<ellipse fill="none" stroke="black" cx="75.3933" cy="-122.74" rx="75.2868" ry="18"/>
<text text-anchor="middle" x="75.3933" y="-119.04" font-family="Times New Roman,serif" font-size="14.00">Essence_Shadow</text>
</g>
<!-- Essence_Shadow&#45;&gt;ArmorHelmet
+ Small_Sneaking -->
<g id="edge1" class="edge"><title>Essence_Shadow&#45;&gt;ArmorHelmet
+ Small_Sneaking</title>
<path fill="none" stroke="black" d="M88.9806,-104.958C98.8513,-92.7663 112.533,-75.8675 124.572,-60.9981"/>
<polygon fill="black" stroke="black" points="127.484,-62.9633 131.056,-52.9889 122.044,-58.5586 127.484,-62.9633"/>
<text text-anchor="middle" x="144.393" y="-75.5401" font-family="Times New Roman,serif" font-size="14.00">Crafting 4</text>
</g>
<!-- ArmorHelmet -->
<g id="node3" class="node"><title>ArmorHelmet</title>
<ellipse fill="none" stroke="black" cx="228.393" cy="-122.74" rx="59.5901" ry="18"/>
<text text-anchor="middle" x="228.393" y="-119.04" font-family="Times New Roman,serif" font-size="14.00">ArmorHelmet</text>
</g>
<!-- ArmorHelmet&#45;&gt;ArmorHelmet
+ Small_Sneaking -->
<g id="edge2" class="edge"><title>ArmorHelmet&#45;&gt;ArmorHelmet
+ Small_Sneaking</title>
<path fill="none" stroke="black" d="M214.627,-104.958C204.627,-92.7663 190.765,-75.8675 178.568,-60.9981"/>
<polygon fill="black" stroke="black" points="181.046,-58.5008 171.998,-52.9889 175.634,-62.9403 181.046,-58.5008"/>
<text text-anchor="middle" x="226.393" y="-75.5401" font-family="Times New Roman,serif" font-size="14.00">Crafting 4</text>
</g>
</g>
</svg>
