<?xml version="1.0" encoding="UTF-8" standalone="no"?>
<!DOCTYPE svg PUBLIC "-//W3C//DTD SVG 1.1//EN"
 "http://www.w3.org/Graphics/SVG/1.1/DTD/svg11.dtd">
<!-- Generated by graphviz version 2.38.0 (20140413.2041)
 -->
<!-- Title: G Pages: 1 -->
<svg width="262pt" height="149pt"
 viewBox="0.00 0.00 262.29 148.74" xmlns="http://www.w3.org/2000/svg" xmlns:xlink="http://www.w3.org/1999/xlink">
<g id="graph0" class="graph" transform="scale(1 1) rotate(0) translate(4 144.74)">
<title>G</title>
<polygon fill="white" stroke="none" points="-4,4 -4,-144.74 258.29,-144.74 258.29,4 -4,4"/>
<!-- Essence_Air -->
<g id="node1" class="node"><title>Essence_Air</title>
<ellipse fill="none" stroke="black" cx="56.545" cy="-122.74" rx="56.59" ry="18"/>
<text text-anchor="middle" x="56.545" y="-119.04" font-family="Times New Roman,serif" font-size="14.00">Essence_Air</text>
</g>
<!-- ArmorLeather
+ Small_AirResistance -->
<g id="node2" class="node"><title>ArmorLeather
+ Small_AirResistance</title>
<ellipse fill="none" stroke="black" cx="124.545" cy="-26.8701" rx="101.647" ry="26.7407"/>
<text text-anchor="middle" x="124.545" y="-30.6701" font-family="Times New Roman,serif" font-size="14.00">ArmorLeather</text>
<text text-anchor="middle" x="124.545" y="-15.6701" font-family="Times New Roman,serif" font-size="14.00">+ Small_AirResistance</text>
</g>
<!-- Essence_Air&#45;&gt;ArmorLeather
+ Small_AirResistance -->
<g id="edge1" class="edge"><title>Essence_Air&#45;&gt;ArmorLeather
+ Small_AirResistance</title>
<path fill="none" stroke="black" d="M68.702,-104.958C77.3881,-92.9674 89.3726,-76.4235 100.013,-61.7353"/>
<polygon fill="black" stroke="black" points="103.055,-63.5017 106.087,-53.35 97.3862,-59.3951 103.055,-63.5017"/>
<text text-anchor="middle" x="121.545" y="-75.5401" font-family="Times New Roman,serif" font-size="14.00">Crafting 3</text>
</g>
<!-- ArmorLeather -->
<g id="node3" class="node"><title>ArmorLeather</title>
<ellipse fill="none" stroke="black" cx="192.545" cy="-122.74" rx="61.99" ry="18"/>
<text text-anchor="middle" x="192.545" y="-119.04" font-family="Times New Roman,serif" font-size="14.00">ArmorLeather</text>
</g>
<!-- ArmorLeather&#45;&gt;ArmorLeather
+ Small_AirResistance -->
<g id="edge2" class="edge"><title>ArmorLeather&#45;&gt;ArmorLeather
+ Small_AirResistance</title>
<path fill="none" stroke="black" d="M180.388,-104.958C171.702,-92.9674 159.717,-76.4235 149.077,-61.7353"/>
<polygon fill="black" stroke="black" points="151.704,-59.3951 143.003,-53.35 146.035,-63.5017 151.704,-59.3951"/>
<text text-anchor="middle" x="194.545" y="-75.5401" font-family="Times New Roman,serif" font-size="14.00">Crafting 3</text>
</g>
</g>
</svg>
