<?xml version="1.0" encoding="UTF-8" standalone="no"?>
<!DOCTYPE svg PUBLIC "-//W3C//DTD SVG 1.1//EN"
 "http://www.w3.org/Graphics/SVG/1.1/DTD/svg11.dtd">
<!-- Generated by graphviz version 2.38.0 (20140413.2041)
 -->
<!-- Title: G Pages: 1 -->
<svg width="1947pt" height="566pt"
 viewBox="0.00 0.00 1946.78 566.00" xmlns="http://www.w3.org/2000/svg" xmlns:xlink="http://www.w3.org/1999/xlink">
<g id="graph0" class="graph" transform="scale(1 1) rotate(0) translate(4 562)">
<title>G</title>
<polygon fill="white" stroke="none" points="-4,4 -4,-562 1942.78,-562 1942.78,4 -4,4"/>
<!-- Log -->
<g id="node1" class="node"><title>Log</title>
<ellipse fill="none" stroke="black" cx="1791.49" cy="-540" rx="27" ry="18"/>
<text text-anchor="middle" x="1791.49" y="-536.3" font-family="Times New Roman,serif" font-size="14.00">Log</text>
</g>
<!-- Scraps_Wood -->
<g id="node39" class="node"><title>Scraps_Wood</title>
<ellipse fill="none" stroke="black" cx="1831.49" cy="-453" rx="64.189" ry="18"/>
<text text-anchor="middle" x="1831.49" y="-449.3" font-family="Times New Roman,serif" font-size="14.00">Scraps_Wood</text>
</g>
<!-- Log&#45;&gt;Scraps_Wood -->
<g id="edge1" class="edge"><title>Log&#45;&gt;Scraps_Wood</title>
<path fill="none" stroke="black" d="M1786.49,-522.006C1784.48,-511.944 1783.63,-499.21 1788.49,-489 1790.7,-484.338 1793.88,-480.094 1797.51,-476.296"/>
<polygon fill="black" stroke="black" points="1799.89,-478.867 1804.94,-469.552 1795.18,-473.686 1799.89,-478.867"/>
<text text-anchor="middle" x="1816.49" y="-492.8" font-family="Times New Roman,serif" font-size="14.00">Crafting 0</text>
</g>
<!-- Scraps_Wood_A_Mush -->
<g id="node2" class="node"><title>Scraps_Wood_A_Mush</title>
<ellipse fill="none" stroke="black" cx="1553.49" cy="-366" rx="100.983" ry="18"/>
<text text-anchor="middle" x="1553.49" y="-362.3" font-family="Times New Roman,serif" font-size="14.00">Scraps_Wood_A_Mush</text>
</g>
<!-- BOOK_Paper_Sheet -->
<g id="node17" class="node"><title>BOOK_Paper_Sheet</title>
<ellipse fill="none" stroke="black" cx="1343.49" cy="-279" rx="87.1846" ry="18"/>
<text text-anchor="middle" x="1343.49" y="-275.3" font-family="Times New Roman,serif" font-size="14.00">BOOK_Paper_Sheet</text>
</g>
<!-- Scraps_Wood_A_Mush&#45;&gt;BOOK_Paper_Sheet -->
<g id="edge2" class="edge"><title>Scraps_Wood_A_Mush&#45;&gt;BOOK_Paper_Sheet</title>
<path fill="none" stroke="black" d="M1514.48,-349.211C1479.53,-335.064 1428.17,-314.276 1390.87,-299.178"/>
<polygon fill="black" stroke="black" points="1391.81,-295.783 1381.22,-295.275 1389.18,-302.271 1391.81,-295.783"/>
<text text-anchor="middle" x="1489.49" y="-318.8" font-family="Times New Roman,serif" font-size="14.00">Crafting 0</text>
</g>
<!-- SKILLBOOK_Projectile_BlitzBolt -->
<g id="node3" class="node"><title>SKILLBOOK_Projectile_BlitzBolt</title>
<ellipse fill="none" stroke="black" cx="1573.49" cy="-18" rx="136.476" ry="18"/>
<text text-anchor="middle" x="1573.49" y="-14.3" font-family="Times New Roman,serif" font-size="14.00">SKILLBOOK_Projectile_BlitzBolt</text>
</g>
<!-- Pouch_Dust_Bone -->
<g id="node4" class="node"><title>Pouch_Dust_Bone</title>
<ellipse fill="none" stroke="black" cx="801.487" cy="-366" rx="79.8859" ry="18"/>
<text text-anchor="middle" x="801.487" y="-362.3" font-family="Times New Roman,serif" font-size="14.00">Pouch_Dust_Bone</text>
</g>
<!-- Pouch_Dust_Pixie -->
<g id="node25" class="node"><title>Pouch_Dust_Pixie</title>
<ellipse fill="none" stroke="black" cx="982.487" cy="-279" rx="78.7863" ry="18"/>
<text text-anchor="middle" x="982.487" y="-275.3" font-family="Times New Roman,serif" font-size="14.00">Pouch_Dust_Pixie</text>
</g>
<!-- Pouch_Dust_Bone&#45;&gt;Pouch_Dust_Pixie -->
<g id="edge3" class="edge"><title>Pouch_Dust_Bone&#45;&gt;Pouch_Dust_Pixie</title>
<path fill="none" stroke="black" d="M834.685,-349.41C864.409,-335.451 908.143,-314.913 940.33,-299.798"/>
<polygon fill="black" stroke="black" points="941.935,-302.91 949.499,-295.491 938.96,-296.574 941.935,-302.91"/>
<text text-anchor="middle" x="931.487" y="-318.8" font-family="Times New Roman,serif" font-size="14.00">Crafting 0</text>
</g>
<!-- SKILLBOOK_Summon_Air -->
<g id="node5" class="node"><title>SKILLBOOK_Summon_Air</title>
<ellipse fill="none" stroke="black" cx="679.487" cy="-18" rx="115.88" ry="18"/>
<text text-anchor="middle" x="679.487" y="-14.3" font-family="Times New Roman,serif" font-size="14.00">SKILLBOOK_Summon_Air</text>
</g>
<!-- Scroll_Skill_Air_Blank -->
<g id="node6" class="node"><title>Scroll_Skill_Air_Blank</title>
<ellipse fill="none" stroke="black" cx="1098.49" cy="-192" rx="94.4839" ry="18"/>
<text text-anchor="middle" x="1098.49" y="-188.3" font-family="Times New Roman,serif" font-size="14.00">Scroll_Skill_Air_Blank</text>
</g>
<!-- SCROLL_BlitzBolt -->
<g id="node7" class="node"><title>SCROLL_BlitzBolt</title>
<ellipse fill="none" stroke="black" cx="1515.49" cy="-105" rx="82.5854" ry="18"/>
<text text-anchor="middle" x="1515.49" y="-101.3" font-family="Times New Roman,serif" font-size="14.00">SCROLL_BlitzBolt</text>
</g>
<!-- Scroll_Skill_Air_Blank&#45;&gt;SCROLL_BlitzBolt -->
<g id="edge6" class="edge"><title>Scroll_Skill_Air_Blank&#45;&gt;SCROLL_BlitzBolt</title>
<path fill="none" stroke="black" d="M1180.63,-183.166C1230.9,-177.522 1296.33,-168.654 1353.49,-156 1391.38,-147.61 1433.22,-134.598 1464.88,-123.951"/>
<polygon fill="black" stroke="black" points="1466.02,-127.26 1474.37,-120.731 1463.77,-120.632 1466.02,-127.26"/>
<text text-anchor="middle" x="1436.49" y="-144.8" font-family="Times New Roman,serif" font-size="14.00">Crafting 5</text>
</g>
<!-- SCROLL_AirSummon -->
<g id="node8" class="node"><title>SCROLL_AirSummon</title>
<ellipse fill="none" stroke="black" cx="641.487" cy="-105" rx="94.7833" ry="18"/>
<text text-anchor="middle" x="641.487" y="-101.3" font-family="Times New Roman,serif" font-size="14.00">SCROLL_AirSummon</text>
</g>
<!-- Scroll_Skill_Air_Blank&#45;&gt;SCROLL_AirSummon -->
<g id="edge7" class="edge"><title>Scroll_Skill_Air_Blank&#45;&gt;SCROLL_AirSummon</title>
<path fill="none" stroke="black" d="M1019.51,-182.127C987.924,-176.884 951.706,-168.688 920.487,-156 909.181,-151.405 908.96,-145.161 897.487,-141 833.534,-117.809 812.849,-132.489 745.487,-123 737.153,-121.826 728.457,-120.525 719.797,-119.181"/>
<polygon fill="black" stroke="black" points="720.094,-115.684 709.671,-117.588 719.006,-122.599 720.094,-115.684"/>
<text text-anchor="middle" x="948.487" y="-144.8" font-family="Times New Roman,serif" font-size="14.00">Crafting 5</text>
</g>
<!-- SCROLL_TeleportationFreeFall -->
<g id="node14" class="node"><title>SCROLL_TeleportationFreeFall</title>
<ellipse fill="none" stroke="black" cx="215.487" cy="-105" rx="128.877" ry="18"/>
<text text-anchor="middle" x="215.487" y="-101.3" font-family="Times New Roman,serif" font-size="14.00">SCROLL_TeleportationFreeFall</text>
</g>
<!-- Scroll_Skill_Air_Blank&#45;&gt;SCROLL_TeleportationFreeFall -->
<g id="edge10" class="edge"><title>Scroll_Skill_Air_Blank&#45;&gt;SCROLL_TeleportationFreeFall</title>
<path fill="none" stroke="black" d="M1014.15,-183.855C974.25,-180.605 925.933,-176.856 882.487,-174 731.047,-164.045 689.921,-187.631 541.487,-156 523.323,-152.129 520.509,-145.481 502.487,-141 437.754,-124.905 419.7,-131.078 353.487,-123 342.274,-121.632 330.55,-120.196 318.876,-118.763"/>
<polygon fill="black" stroke="black" points="318.996,-115.252 308.644,-117.506 318.142,-122.199 318.996,-115.252"/>
<text text-anchor="middle" x="569.487" y="-144.8" font-family="Times New Roman,serif" font-size="14.00">Crafting 5</text>
</g>
<!-- SCROLL_LightningStorm -->
<g id="node20" class="node"><title>SCROLL_LightningStorm</title>
<ellipse fill="none" stroke="black" cx="1307.49" cy="-105" rx="107.482" ry="18"/>
<text text-anchor="middle" x="1307.49" y="-101.3" font-family="Times New Roman,serif" font-size="14.00">SCROLL_LightningStorm</text>
</g>
<!-- Scroll_Skill_Air_Blank&#45;&gt;SCROLL_LightningStorm -->
<g id="edge11" class="edge"><title>Scroll_Skill_Air_Blank&#45;&gt;SCROLL_LightningStorm</title>
<path fill="none" stroke="black" d="M1177.98,-182.294C1218.69,-176.54 1263.08,-167.855 1279.49,-156 1287.54,-150.181 1293.57,-141.292 1297.93,-132.614"/>
<polygon fill="black" stroke="black" points="1301.15,-133.994 1302.03,-123.436 1294.76,-131.143 1301.15,-133.994"/>
<text text-anchor="middle" x="1321.49" y="-144.8" font-family="Times New Roman,serif" font-size="14.00">Crafting 5</text>
</g>
<!-- SCROLL_Tornado -->
<g id="node23" class="node"><title>SCROLL_Tornado</title>
<ellipse fill="none" stroke="black" cx="445.487" cy="-105" rx="83.3857" ry="18"/>
<text text-anchor="middle" x="445.487" y="-101.3" font-family="Times New Roman,serif" font-size="14.00">SCROLL_Tornado</text>
</g>
<!-- Scroll_Skill_Air_Blank&#45;&gt;SCROLL_Tornado -->
<g id="edge12" class="edge"><title>Scroll_Skill_Air_Blank&#45;&gt;SCROLL_Tornado</title>
<path fill="none" stroke="black" d="M1013.22,-184.207C900.039,-175.094 712.583,-159.632 697.487,-156 680.235,-151.849 677.611,-145.651 660.487,-141 607.17,-126.517 591.994,-132.021 537.487,-123 530.436,-121.833 523.091,-120.565 515.761,-119.265"/>
<polygon fill="black" stroke="black" points="516.266,-115.8 505.805,-117.479 515.03,-122.69 516.266,-115.8"/>
<text text-anchor="middle" x="725.487" y="-144.8" font-family="Times New Roman,serif" font-size="14.00">Crafting 5</text>
</g>
<!-- BOOK_Skill_Air_Blank -->
<g id="node27" class="node"><title>BOOK_Skill_Air_Blank</title>
<ellipse fill="none" stroke="black" cx="1083.49" cy="-105" rx="98.5829" ry="18"/>
<text text-anchor="middle" x="1083.49" y="-101.3" font-family="Times New Roman,serif" font-size="14.00">BOOK_Skill_Air_Blank</text>
</g>
<!-- Scroll_Skill_Air_Blank&#45;&gt;BOOK_Skill_Air_Blank -->
<g id="edge5" class="edge"><title>Scroll_Skill_Air_Blank&#45;&gt;BOOK_Skill_Air_Blank</title>
<path fill="none" stroke="black" d="M1174.45,-181.306C1204.9,-174.12 1229.44,-161.822 1213.49,-141 1206.77,-132.233 1187.29,-125.169 1165.39,-119.745"/>
<polygon fill="black" stroke="black" points="1166.08,-116.311 1155.54,-117.445 1164.49,-123.128 1166.08,-116.311"/>
<text text-anchor="middle" x="1247.49" y="-144.8" font-family="Times New Roman,serif" font-size="14.00">Crafting 5</text>
</g>
<!-- SCROLL_AirShield -->
<g id="node30" class="node"><title>SCROLL_AirShield</title>
<ellipse fill="none" stroke="black" cx="1701.49" cy="-105" rx="85.2851" ry="18"/>
<text text-anchor="middle" x="1701.49" y="-101.3" font-family="Times New Roman,serif" font-size="14.00">SCROLL_AirShield</text>
</g>
<!-- Scroll_Skill_Air_Blank&#45;&gt;SCROLL_AirShield -->
<g id="edge9" class="edge"><title>Scroll_Skill_Air_Blank&#45;&gt;SCROLL_AirShield</title>
<path fill="none" stroke="black" d="M1186.69,-185.573C1261.87,-180.251 1372.67,-170.761 1468.49,-156 1526.58,-147.05 1591.96,-132.634 1638.64,-121.576"/>
<polygon fill="black" stroke="black" points="1639.69,-124.924 1648.6,-119.199 1638.07,-118.115 1639.69,-124.924"/>
<text text-anchor="middle" x="1574.49" y="-144.8" font-family="Times New Roman,serif" font-size="14.00">Crafting 5</text>
</g>
<!-- SCROLL_LightningStrike -->
<g id="node41" class="node"><title>SCROLL_LightningStrike</title>
<ellipse fill="none" stroke="black" cx="860.487" cy="-105" rx="105.881" ry="18"/>
<text text-anchor="middle" x="860.487" y="-101.3" font-family="Times New Roman,serif" font-size="14.00">SCROLL_LightningStrike</text>
</g>
<!-- Scroll_Skill_Air_Blank&#45;&gt;SCROLL_LightningStrike -->
<g id="edge8" class="edge"><title>Scroll_Skill_Air_Blank&#45;&gt;SCROLL_LightningStrike</title>
<path fill="none" stroke="black" d="M1088.25,-173.919C1080.63,-162.755 1069.21,-148.838 1055.49,-141 1045.73,-135.425 995.103,-126.419 947.886,-118.939"/>
<polygon fill="black" stroke="black" points="948.299,-115.461 937.877,-117.368 947.214,-122.377 948.299,-115.461"/>
<text text-anchor="middle" x="1102.49" y="-144.8" font-family="Times New Roman,serif" font-size="14.00">Crafting 5</text>
</g>
<!-- SCROLL_BlitzBolt&#45;&gt;SKILLBOOK_Projectile_BlitzBolt -->
<g id="edge13" class="edge"><title>SCROLL_BlitzBolt&#45;&gt;SKILLBOOK_Projectile_BlitzBolt</title>
<path fill="none" stroke="black" d="M1527.22,-86.799C1535.48,-74.7017 1546.67,-58.3049 1555.97,-44.6665"/>
<polygon fill="black" stroke="black" points="1559.02,-46.4084 1561.77,-36.1754 1553.24,-42.4629 1559.02,-46.4084"/>
<text text-anchor="middle" x="1576.49" y="-57.8" font-family="Times New Roman,serif" font-size="14.00">Crafting 4</text>
</g>
<!-- SCROLL_AirSummon&#45;&gt;SKILLBOOK_Summon_Air -->
<g id="edge14" class="edge"><title>SCROLL_AirSummon&#45;&gt;SKILLBOOK_Summon_Air</title>
<path fill="none" stroke="black" d="M649.177,-86.799C654.482,-74.9322 661.637,-58.9279 667.663,-45.4488"/>
<polygon fill="black" stroke="black" points="670.922,-46.7332 671.808,-36.1754 664.532,-43.8762 670.922,-46.7332"/>
<text text-anchor="middle" x="691.487" y="-57.8" font-family="Times New Roman,serif" font-size="14.00">Crafting 4</text>
</g>
<!-- Bucket_A_Water -->
<g id="node9" class="node"><title>Bucket_A_Water</title>
<ellipse fill="none" stroke="black" cx="1479.49" cy="-453" rx="74.187" ry="18"/>
<text text-anchor="middle" x="1479.49" y="-449.3" font-family="Times New Roman,serif" font-size="14.00">Bucket_A_Water</text>
</g>
<!-- Bucket_A_Water&#45;&gt;Scraps_Wood_A_Mush -->
<g id="edge15" class="edge"><title>Bucket_A_Water&#45;&gt;Scraps_Wood_A_Mush</title>
<path fill="none" stroke="black" d="M1492.43,-435.003C1500.07,-425.171 1510.07,-412.671 1519.49,-402 1522.68,-398.379 1526.14,-394.635 1529.58,-391.003"/>
<polygon fill="black" stroke="black" points="1532.13,-393.407 1536.55,-383.779 1527.09,-388.548 1532.13,-393.407"/>
<text text-anchor="middle" x="1547.49" y="-405.8" font-family="Times New Roman,serif" font-size="14.00">Crafting 0</text>
</g>
<!-- SKILLBOOK_Teleportation_FreeFall -->
<g id="node10" class="node"><title>SKILLBOOK_Teleportation_FreeFall</title>
<ellipse fill="none" stroke="black" cx="149.487" cy="-18" rx="149.473" ry="18"/>
<text text-anchor="middle" x="149.487" y="-14.3" font-family="Times New Roman,serif" font-size="14.00">SKILLBOOK_Teleportation_FreeFall</text>
</g>
<!-- SKILLBOOK_Tornado_Air -->
<g id="node11" class="node"><title>SKILLBOOK_Tornado_Air</title>
<ellipse fill="none" stroke="black" cx="431.487" cy="-18" rx="114.28" ry="18"/>
<text text-anchor="middle" x="431.487" y="-14.3" font-family="Times New Roman,serif" font-size="14.00">SKILLBOOK_Tornado_Air</text>
</g>
<!-- Herb_Stardust -->
<g id="node12" class="node"><title>Herb_Stardust</title>
<ellipse fill="none" stroke="black" cx="1227.49" cy="-453" rx="63.8893" ry="18"/>
<text text-anchor="middle" x="1227.49" y="-449.3" font-family="Times New Roman,serif" font-size="14.00">Herb_Stardust</text>
</g>
<!-- Pouch_Dust_Star -->
<g id="node32" class="node"><title>Pouch_Dust_Star</title>
<ellipse fill="none" stroke="black" cx="1159.49" cy="-366" rx="75.2868" ry="18"/>
<text text-anchor="middle" x="1159.49" y="-362.3" font-family="Times New Roman,serif" font-size="14.00">Pouch_Dust_Star</text>
</g>
<!-- Herb_Stardust&#45;&gt;Pouch_Dust_Star -->
<g id="edge16" class="edge"><title>Herb_Stardust&#45;&gt;Pouch_Dust_Star</title>
<path fill="none" stroke="black" d="M1222.29,-434.623C1218.67,-424.426 1213.12,-411.683 1205.49,-402 1201.99,-397.567 1197.81,-393.392 1193.42,-389.576"/>
<polygon fill="black" stroke="black" points="1195.36,-386.65 1185.38,-383.116 1190.98,-392.107 1195.36,-386.65"/>
<text text-anchor="middle" x="1242.49" y="-405.8" font-family="Times New Roman,serif" font-size="14.00">Crafting 0</text>
</g>
<!-- Feather -->
<g id="node13" class="node"><title>Feather</title>
<ellipse fill="none" stroke="black" cx="477.487" cy="-453" rx="37.8943" ry="18"/>
<text text-anchor="middle" x="477.487" y="-449.3" font-family="Times New Roman,serif" font-size="14.00">Feather</text>
</g>
<!-- Feather_A_Quill -->
<g id="node29" class="node"><title>Feather_A_Quill</title>
<ellipse fill="none" stroke="black" cx="507.487" cy="-366" rx="70.6878" ry="18"/>
<text text-anchor="middle" x="507.487" y="-362.3" font-family="Times New Roman,serif" font-size="14.00">Feather_A_Quill</text>
</g>
<!-- Feather&#45;&gt;Feather_A_Quill -->
<g id="edge17" class="edge"><title>Feather&#45;&gt;Feather_A_Quill</title>
<path fill="none" stroke="black" d="M483.414,-435.207C487.578,-423.409 493.236,-407.378 498.02,-393.822"/>
<polygon fill="black" stroke="black" points="501.442,-394.644 501.469,-384.049 494.841,-392.314 501.442,-394.644"/>
<text text-anchor="middle" x="522.487" y="-405.8" font-family="Times New Roman,serif" font-size="14.00">Crafting 0</text>
</g>
<!-- SCROLL_TeleportationFreeFall&#45;&gt;SKILLBOOK_Teleportation_FreeFall -->
<g id="edge18" class="edge"><title>SCROLL_TeleportationFreeFall&#45;&gt;SKILLBOOK_Teleportation_FreeFall</title>
<path fill="none" stroke="black" d="M202.131,-86.799C192.648,-74.5865 179.763,-57.9921 169.114,-44.2776"/>
<polygon fill="black" stroke="black" points="171.72,-41.9274 162.823,-36.1754 166.191,-46.2205 171.72,-41.9274"/>
<text text-anchor="middle" x="214.487" y="-57.8" font-family="Times New Roman,serif" font-size="14.00">Crafting 4</text>
</g>
<!-- Knife -->
<g id="node15" class="node"><title>Knife</title>
<ellipse fill="none" stroke="black" cx="342.487" cy="-540" rx="30.5947" ry="18"/>
<text text-anchor="middle" x="342.487" y="-536.3" font-family="Times New Roman,serif" font-size="14.00">Knife</text>
</g>
<!-- Knife&#45;&gt;Feather -->
<g id="edge25" class="edge"><title>Knife&#45;&gt;Feather</title>
<path fill="none" stroke="black" d="M350.511,-522.552C356.572,-511.67 365.832,-497.83 377.487,-489 393.767,-476.666 414.738,-468.446 433.269,-463.093"/>
<polygon fill="black" stroke="black" points="434.236,-466.457 442.981,-460.477 432.415,-459.698 434.236,-466.457"/>
<text text-anchor="middle" x="405.487" y="-492.8" font-family="Times New Roman,serif" font-size="14.00">Crafting 0</text>
</g>
<!-- Knife&#45;&gt;Feather_A_Quill -->
<g id="edge24" class="edge"><title>Knife&#45;&gt;Feather_A_Quill</title>
<path fill="none" stroke="black" d="M343.687,-521.958C346.083,-499.622 353.232,-460.32 374.487,-435 394.771,-410.836 425.812,-394.282 452.806,-383.562"/>
<polygon fill="black" stroke="black" points="454.054,-386.831 462.161,-380.01 451.569,-380.287 454.054,-386.831"/>
<text text-anchor="middle" x="402.487" y="-449.3" font-family="Times New Roman,serif" font-size="14.00">Crafting 0</text>
</g>
<!-- Pouch_Dust_Moon -->
<g id="node16" class="node"><title>Pouch_Dust_Moon</title>
<ellipse fill="none" stroke="black" cx="982.487" cy="-366" rx="83.3857" ry="18"/>
<text text-anchor="middle" x="982.487" y="-362.3" font-family="Times New Roman,serif" font-size="14.00">Pouch_Dust_Moon</text>
</g>
<!-- Pouch_Dust_Moon&#45;&gt;Pouch_Dust_Pixie -->
<g id="edge20" class="edge"><title>Pouch_Dust_Moon&#45;&gt;Pouch_Dust_Pixie</title>
<path fill="none" stroke="black" d="M982.487,-347.799C982.487,-336.163 982.487,-320.548 982.487,-307.237"/>
<polygon fill="black" stroke="black" points="985.987,-307.175 982.487,-297.175 978.987,-307.175 985.987,-307.175"/>
<text text-anchor="middle" x="1010.49" y="-318.8" font-family="Times New Roman,serif" font-size="14.00">Crafting 0</text>
</g>
<!-- BOOK_Paper_Sheet&#45;&gt;Scroll_Skill_Air_Blank -->
<g id="edge21" class="edge"><title>BOOK_Paper_Sheet&#45;&gt;Scroll_Skill_Air_Blank</title>
<path fill="none" stroke="black" d="M1300.81,-263.194C1259.3,-248.792 1196.13,-226.876 1151.43,-211.369"/>
<polygon fill="black" stroke="black" points="1152.5,-208.036 1141.91,-208.065 1150.21,-214.649 1152.5,-208.036"/>
<text text-anchor="middle" x="1264.49" y="-231.8" font-family="Times New Roman,serif" font-size="14.00">Crafting 1</text>
</g>
<!-- Well_A_Snow -->
<g id="node18" class="node"><title>Well_A_Snow</title>
<ellipse fill="none" stroke="black" cx="1324.49" cy="-540" rx="64.189" ry="18"/>
<text text-anchor="middle" x="1324.49" y="-536.3" font-family="Times New Roman,serif" font-size="14.00">Well_A_Snow</text>
</g>
<!-- Well_A_Snow&#45;&gt;Scraps_Wood_A_Mush -->
<g id="edge22" class="edge"><title>Well_A_Snow&#45;&gt;Scraps_Wood_A_Mush</title>
<path fill="none" stroke="black" d="M1322.04,-521.652C1319.87,-498.978 1319.72,-459.302 1340.49,-435 1368.56,-402.151 1412.5,-385.012 1453.19,-376.132"/>
<polygon fill="black" stroke="black" points="1454.08,-379.523 1463.18,-374.1 1452.68,-372.664 1454.08,-379.523"/>
<text text-anchor="middle" x="1368.49" y="-449.3" font-family="Times New Roman,serif" font-size="14.00">Crafting 0</text>
</g>
<!-- Well_A_Snow&#45;&gt;Bucket_A_Water -->
<g id="edge23" class="edge"><title>Well_A_Snow&#45;&gt;Bucket_A_Water</title>
<path fill="none" stroke="black" d="M1338.8,-522.204C1348.72,-511.451 1362.76,-497.895 1377.49,-489 1390.44,-481.174 1405.39,-474.8 1419.77,-469.742"/>
<polygon fill="black" stroke="black" points="1421.24,-472.942 1429.61,-466.449 1419.02,-466.304 1421.24,-472.942"/>
<text text-anchor="middle" x="1405.49" y="-492.8" font-family="Times New Roman,serif" font-size="14.00">Crafting 0</text>
</g>
<!-- SKILLBOOK_Storm_Lightning -->
<g id="node19" class="node"><title>SKILLBOOK_Storm_Lightning</title>
<ellipse fill="none" stroke="black" cx="1290.49" cy="-18" rx="128.077" ry="18"/>
<text text-anchor="middle" x="1290.49" y="-14.3" font-family="Times New Roman,serif" font-size="14.00">SKILLBOOK_Storm_Lightning</text>
</g>
<!-- SCROLL_LightningStorm&#45;&gt;SKILLBOOK_Storm_Lightning -->
<g id="edge19" class="edge"><title>SCROLL_LightningStorm&#45;&gt;SKILLBOOK_Storm_Lightning</title>
<path fill="none" stroke="black" d="M1304.05,-86.799C1301.72,-75.1626 1298.6,-59.5479 1295.93,-46.2368"/>
<polygon fill="black" stroke="black" points="1299.32,-45.2948 1293.92,-36.1754 1292.45,-46.6677 1299.32,-45.2948"/>
<text text-anchor="middle" x="1328.49" y="-57.8" font-family="Times New Roman,serif" font-size="14.00">Crafting 4</text>
</g>
<!-- SKILLBOOK_Shield_Air -->
<g id="node21" class="node"><title>SKILLBOOK_Shield_Air</title>
<ellipse fill="none" stroke="black" cx="1833.49" cy="-18" rx="105.082" ry="18"/>
<text text-anchor="middle" x="1833.49" y="-14.3" font-family="Times New Roman,serif" font-size="14.00">SKILLBOOK_Shield_Air</text>
</g>
<!-- Ink_Pot_A_Quill_A_Magic -->
<g id="node22" class="node"><title>Ink_Pot_A_Quill_A_Magic</title>
<ellipse fill="none" stroke="black" cx="761.487" cy="-192" rx="111.581" ry="18"/>
<text text-anchor="middle" x="761.487" y="-188.3" font-family="Times New Roman,serif" font-size="14.00">Ink_Pot_A_Quill_A_Magic</text>
</g>
<!-- Ink_Pot_A_Quill_A_Magic&#45;&gt;SCROLL_BlitzBolt -->
<g id="edge26" class="edge"><title>Ink_Pot_A_Quill_A_Magic&#45;&gt;SCROLL_BlitzBolt</title>
<path fill="none" stroke="black" d="M864.324,-184.939C900.893,-180.046 941.617,-171.356 976.487,-156 986.333,-151.664 985.399,-144.741 995.487,-141 1084.74,-107.897 1328.89,-133.675 1423.49,-123 1431.4,-122.106 1439.67,-120.931 1447.85,-119.615"/>
<polygon fill="black" stroke="black" points="1448.48,-123.058 1457.76,-117.949 1447.32,-116.155 1448.48,-123.058"/>
<text text-anchor="middle" x="1023.49" y="-144.8" font-family="Times New Roman,serif" font-size="14.00">Crafting 5</text>
</g>
<!-- Ink_Pot_A_Quill_A_Magic&#45;&gt;SCROLL_AirSummon -->
<g id="edge27" class="edge"><title>Ink_Pot_A_Quill_A_Magic&#45;&gt;SCROLL_AirSummon</title>
<path fill="none" stroke="black" d="M672.91,-181.003C642.522,-175.609 613.788,-167.603 604.487,-156 597.696,-147.528 601.947,-137.998 609.614,-129.548"/>
<polygon fill="black" stroke="black" points="612.226,-131.892 617.039,-122.454 607.391,-126.831 612.226,-131.892"/>
<text text-anchor="middle" x="632.487" y="-144.8" font-family="Times New Roman,serif" font-size="14.00">Crafting 5</text>
</g>
<!-- Ink_Pot_A_Quill_A_Magic&#45;&gt;SCROLL_TeleportationFreeFall -->
<g id="edge30" class="edge"><title>Ink_Pot_A_Quill_A_Magic&#45;&gt;SCROLL_TeleportationFreeFall</title>
<path fill="none" stroke="black" d="M653.916,-186.936C577.146,-182.625 471.756,-173.829 380.487,-156 342.549,-148.589 300.899,-135.931 268.936,-125.206"/>
<polygon fill="black" stroke="black" points="269.936,-121.85 259.342,-121.948 267.685,-128.478 269.936,-121.85"/>
<text text-anchor="middle" x="408.487" y="-144.8" font-family="Times New Roman,serif" font-size="14.00">Crafting 5</text>
</g>
<!-- Ink_Pot_A_Quill_A_Magic&#45;&gt;SCROLL_LightningStorm -->
<g id="edge31" class="edge"><title>Ink_Pot_A_Quill_A_Magic&#45;&gt;SCROLL_LightningStorm</title>
<path fill="none" stroke="black" d="M789.74,-174.553C799.045,-168.899 809.346,-162.382 818.487,-156 827.308,-149.841 827.416,-144.786 837.487,-141 911.218,-113.285 1113.1,-130.719 1191.49,-123 1201.69,-121.995 1212.38,-120.727 1222.96,-119.338"/>
<polygon fill="black" stroke="black" points="1223.6,-122.782 1233.05,-117.974 1222.67,-115.845 1223.6,-122.782"/>
<text text-anchor="middle" x="865.487" y="-144.8" font-family="Times New Roman,serif" font-size="14.00">Crafting 5</text>
</g>
<!-- Ink_Pot_A_Quill_A_Magic&#45;&gt;SCROLL_Tornado -->
<g id="edge32" class="edge"><title>Ink_Pot_A_Quill_A_Magic&#45;&gt;SCROLL_Tornado</title>
<path fill="none" stroke="black" d="M655.591,-186.059C569.707,-180.946 460.633,-171.491 446.487,-156 440.97,-149.959 439.379,-141.593 439.571,-133.43"/>
<polygon fill="black" stroke="black" points="443.062,-133.696 440.606,-123.39 436.099,-132.978 443.062,-133.696"/>
<text text-anchor="middle" x="474.487" y="-144.8" font-family="Times New Roman,serif" font-size="14.00">Crafting 5</text>
</g>
<!-- Ink_Pot_A_Quill_A_Magic&#45;&gt;SCROLL_AirShield -->
<g id="edge29" class="edge"><title>Ink_Pot_A_Quill_A_Magic&#45;&gt;SCROLL_AirShield</title>
<path fill="none" stroke="black" d="M859.39,-183.197C965.598,-174.524 1121.83,-161.07 1134.49,-156 1144.47,-152 1143.39,-144.729 1153.49,-141 1200.84,-123.502 1557.3,-128.506 1607.49,-123 1615.51,-122.119 1623.89,-120.958 1632.19,-119.656"/>
<polygon fill="black" stroke="black" points="1632.95,-123.079 1642.25,-118.006 1631.81,-116.171 1632.95,-123.079"/>
<text text-anchor="middle" x="1181.49" y="-144.8" font-family="Times New Roman,serif" font-size="14.00">Crafting 5</text>
</g>
<!-- Ink_Pot_A_Quill_A_Magic&#45;&gt;SCROLL_LightningStrike -->
<g id="edge28" class="edge"><title>Ink_Pot_A_Quill_A_Magic&#45;&gt;SCROLL_LightningStrike</title>
<path fill="none" stroke="black" d="M757.251,-173.719C755.735,-163.304 755.792,-150.302 762.487,-141 767.645,-133.833 774.406,-128.128 781.969,-123.586"/>
<polygon fill="black" stroke="black" points="783.932,-126.509 791.169,-118.771 780.686,-120.307 783.932,-126.509"/>
<text text-anchor="middle" x="790.487" y="-144.8" font-family="Times New Roman,serif" font-size="14.00">Crafting 5</text>
</g>
<!-- SCROLL_Tornado&#45;&gt;SKILLBOOK_Tornado_Air -->
<g id="edge55" class="edge"><title>SCROLL_Tornado&#45;&gt;SKILLBOOK_Tornado_Air</title>
<path fill="none" stroke="black" d="M442.654,-86.799C440.737,-75.1626 438.165,-59.5479 435.973,-46.2368"/>
<polygon fill="black" stroke="black" points="439.394,-45.4737 434.316,-36.1754 432.487,-46.6113 439.394,-45.4737"/>
<text text-anchor="middle" x="467.487" y="-57.8" font-family="Times New Roman,serif" font-size="14.00">Crafting 4</text>
</g>
<!-- Skull_Human -->
<g id="node24" class="node"><title>Skull_Human</title>
<ellipse fill="none" stroke="black" cx="801.487" cy="-453" rx="59.5901" ry="18"/>
<text text-anchor="middle" x="801.487" y="-449.3" font-family="Times New Roman,serif" font-size="14.00">Skull_Human</text>
</g>
<!-- Skull_Human&#45;&gt;Pouch_Dust_Bone -->
<g id="edge34" class="edge"><title>Skull_Human&#45;&gt;Pouch_Dust_Bone</title>
<path fill="none" stroke="black" d="M801.487,-434.799C801.487,-423.163 801.487,-407.548 801.487,-394.237"/>
<polygon fill="black" stroke="black" points="804.987,-394.175 801.487,-384.175 797.987,-394.175 804.987,-394.175"/>
<text text-anchor="middle" x="829.487" y="-405.8" font-family="Times New Roman,serif" font-size="14.00">Crafting 0</text>
</g>
<!-- Pouch_Dust_Pixie&#45;&gt;Scroll_Skill_Air_Blank -->
<g id="edge36" class="edge"><title>Pouch_Dust_Pixie&#45;&gt;Scroll_Skill_Air_Blank</title>
<path fill="none" stroke="black" d="M1004.85,-261.611C1022.71,-248.525 1047.93,-230.048 1067.69,-215.564"/>
<polygon fill="black" stroke="black" points="1069.8,-218.362 1075.79,-209.629 1065.66,-212.716 1069.8,-218.362"/>
<text text-anchor="middle" x="1075.49" y="-231.8" font-family="Times New Roman,serif" font-size="14.00">Crafting 1</text>
</g>
<!-- Pouch_Dust_Pixie&#45;&gt;Ink_Pot_A_Quill_A_Magic -->
<g id="edge35" class="edge"><title>Pouch_Dust_Pixie&#45;&gt;Ink_Pot_A_Quill_A_Magic</title>
<path fill="none" stroke="black" d="M943.991,-263.194C907.355,-249.103 852.014,-227.818 811.879,-212.382"/>
<polygon fill="black" stroke="black" points="813.127,-209.112 802.537,-208.789 810.614,-215.645 813.127,-209.112"/>
<text text-anchor="middle" x="913.487" y="-231.8" font-family="Times New Roman,serif" font-size="14.00">Crafting 1</text>
</g>
<!-- Well -->
<g id="node26" class="node"><title>Well</title>
<ellipse fill="none" stroke="black" cx="1533.49" cy="-540" rx="27.0966" ry="18"/>
<text text-anchor="middle" x="1533.49" y="-536.3" font-family="Times New Roman,serif" font-size="14.00">Well</text>
</g>
<!-- Well&#45;&gt;Scraps_Wood_A_Mush -->
<g id="edge44" class="edge"><title>Well&#45;&gt;Scraps_Wood_A_Mush</title>
<path fill="none" stroke="black" d="M1551.86,-526.439C1558.98,-520.522 1566.39,-512.819 1570.49,-504 1589.63,-462.845 1588.06,-445.613 1575.49,-402 1574.57,-398.828 1573.28,-395.665 1571.77,-392.612"/>
<polygon fill="black" stroke="black" points="1574.77,-390.809 1566.75,-383.877 1568.69,-394.292 1574.77,-390.809"/>
<text text-anchor="middle" x="1613.49" y="-449.3" font-family="Times New Roman,serif" font-size="14.00">Crafting 0</text>
</g>
<!-- Well&#45;&gt;Bucket_A_Water -->
<g id="edge45" class="edge"><title>Well&#45;&gt;Bucket_A_Water</title>
<path fill="none" stroke="black" d="M1523.33,-523.012C1515.61,-510.862 1504.83,-493.898 1495.9,-479.83"/>
<polygon fill="black" stroke="black" points="1498.66,-477.647 1490.34,-471.083 1492.75,-481.4 1498.66,-477.647"/>
<text text-anchor="middle" x="1538.49" y="-492.8" font-family="Times New Roman,serif" font-size="14.00">Crafting 0</text>
</g>
<!-- BOOK_Skill_Air_Blank&#45;&gt;SKILLBOOK_Projectile_BlitzBolt -->
<g id="edge42" class="edge"><title>BOOK_Skill_Air_Blank&#45;&gt;SKILLBOOK_Projectile_BlitzBolt</title>
<path fill="none" stroke="black" d="M1131.37,-89.167C1150.97,-83.0271 1173.85,-75.771 1194.49,-69 1214.12,-62.5597 1218.29,-58.3423 1238.49,-54 1320.98,-36.2655 1343.58,-44.8801 1427.49,-36 1440.02,-34.6732 1453.16,-33.2253 1466.2,-31.7525"/>
<polygon fill="black" stroke="black" points="1466.6,-35.23 1476.14,-30.623 1465.8,-28.2747 1466.6,-35.23"/>
<text text-anchor="middle" x="1266.49" y="-57.8" font-family="Times New Roman,serif" font-size="14.00">Crafting 4</text>
</g>
<!-- BOOK_Skill_Air_Blank&#45;&gt;SKILLBOOK_Summon_Air -->
<g id="edge38" class="edge"><title>BOOK_Skill_Air_Blank&#45;&gt;SKILLBOOK_Summon_Air</title>
<path fill="none" stroke="black" d="M1025.84,-90.362C1006.79,-84.8783 985.803,-77.7514 967.487,-69 956.809,-63.8981 956.553,-58.1938 945.487,-54 885.999,-31.4556 866.556,-44.3205 803.487,-36 793.528,-34.6862 783.123,-33.2926 772.757,-31.8908"/>
<polygon fill="black" stroke="black" points="773.227,-28.4225 762.847,-30.5467 772.286,-35.359 773.227,-28.4225"/>
<text text-anchor="middle" x="995.487" y="-57.8" font-family="Times New Roman,serif" font-size="14.00">Crafting 4</text>
</g>
<!-- BOOK_Skill_Air_Blank&#45;&gt;SKILLBOOK_Teleportation_FreeFall -->
<g id="edge39" class="edge"><title>BOOK_Skill_Air_Blank&#45;&gt;SKILLBOOK_Teleportation_FreeFall</title>
<path fill="none" stroke="black" d="M1014.78,-92.0426C1001.77,-90.1015 988.232,-88.3035 975.487,-87 808.611,-69.9332 765.411,-85.5865 598.487,-69 554.203,-64.5997 543.657,-59.4232 499.487,-54 414.857,-43.6093 393.324,-44.5325 308.487,-36 294.928,-34.6363 280.723,-33.1706 266.619,-31.6921"/>
<polygon fill="black" stroke="black" points="266.688,-28.1802 256.377,-30.6145 265.956,-35.1417 266.688,-28.1802"/>
<text text-anchor="middle" x="626.487" y="-57.8" font-family="Times New Roman,serif" font-size="14.00">Crafting 4</text>
</g>
<!-- BOOK_Skill_Air_Blank&#45;&gt;SKILLBOOK_Tornado_Air -->
<g id="edge41" class="edge"><title>BOOK_Skill_Air_Blank&#45;&gt;SKILLBOOK_Tornado_Air</title>
<path fill="none" stroke="black" d="M1012.68,-92.4108C1000.29,-90.511 987.524,-88.6323 975.487,-87 905.451,-77.503 887.512,-78.571 817.487,-69 775.57,-63.2709 765.424,-59.5756 723.487,-54 648.61,-44.0451 629.464,-45.1719 554.487,-36 544.352,-34.7602 533.757,-33.3973 523.219,-31.9992"/>
<polygon fill="black" stroke="black" points="523.527,-28.5092 513.151,-30.6509 522.598,-35.4473 523.527,-28.5092"/>
<text text-anchor="middle" x="845.487" y="-57.8" font-family="Times New Roman,serif" font-size="14.00">Crafting 4</text>
</g>
<!-- BOOK_Skill_Air_Blank&#45;&gt;SKILLBOOK_Storm_Lightning -->
<g id="edge40" class="edge"><title>BOOK_Skill_Air_Blank&#45;&gt;SKILLBOOK_Storm_Lightning</title>
<path fill="none" stroke="black" d="M1097.71,-87.1861C1107.96,-76.1405 1122.71,-62.2561 1138.49,-54 1155.34,-45.1801 1174.39,-38.5652 1193.17,-33.6092"/>
<polygon fill="black" stroke="black" points="1194.09,-36.9857 1202.95,-31.1659 1192.4,-30.1945 1194.09,-36.9857"/>
<text text-anchor="middle" x="1166.49" y="-57.8" font-family="Times New Roman,serif" font-size="14.00">Crafting 4</text>
</g>
<!-- BOOK_Skill_Air_Blank&#45;&gt;SKILLBOOK_Shield_Air -->
<g id="edge37" class="edge"><title>BOOK_Skill_Air_Blank&#45;&gt;SKILLBOOK_Shield_Air</title>
<path fill="none" stroke="black" d="M1152.18,-91.9952C1165.2,-90.0586 1178.74,-88.2744 1191.49,-87 1376.07,-68.5481 1424.57,-93.2141 1608.49,-69 1663.81,-61.7161 1725.63,-47.5308 1770.45,-36.1245"/>
<polygon fill="black" stroke="black" points="1771.5,-39.4676 1780.31,-33.5884 1769.76,-32.688 1771.5,-39.4676"/>
<text text-anchor="middle" x="1718.49" y="-57.8" font-family="Times New Roman,serif" font-size="14.00">Crafting 4</text>
</g>
<!-- SKILLBOOK_MultiStrike_LightningStrike -->
<g id="node34" class="node"><title>SKILLBOOK_MultiStrike_LightningStrike</title>
<ellipse fill="none" stroke="black" cx="978.487" cy="-18" rx="165.971" ry="18"/>
<text text-anchor="middle" x="978.487" y="-14.3" font-family="Times New Roman,serif" font-size="14.00">SKILLBOOK_MultiStrike_LightningStrike</text>
</g>
<!-- BOOK_Skill_Air_Blank&#45;&gt;SKILLBOOK_MultiStrike_LightningStrike -->
<g id="edge43" class="edge"><title>BOOK_Skill_Air_Blank&#45;&gt;SKILLBOOK_MultiStrike_LightningStrike</title>
<path fill="none" stroke="black" d="M1065.76,-87.2764C1054.95,-77.3104 1040.72,-64.5821 1027.49,-54 1022.45,-49.9723 1017,-45.8535 1011.62,-41.9212"/>
<polygon fill="black" stroke="black" points="1013.46,-38.9353 1003.3,-35.9355 1009.37,-44.6172 1013.46,-38.9353"/>
<text text-anchor="middle" x="1073.49" y="-57.8" font-family="Times New Roman,serif" font-size="14.00">Crafting 4</text>
</g>
<!-- Bucket -->
<g id="node28" class="node"><title>Bucket</title>
<ellipse fill="none" stroke="black" cx="1443.49" cy="-540" rx="36.2938" ry="18"/>
<text text-anchor="middle" x="1443.49" y="-536.3" font-family="Times New Roman,serif" font-size="14.00">Bucket</text>
</g>
<!-- Bucket&#45;&gt;Bucket_A_Water -->
<g id="edge52" class="edge"><title>Bucket&#45;&gt;Bucket_A_Water</title>
<path fill="none" stroke="black" d="M1438.67,-522.089C1436.73,-512.056 1435.88,-499.324 1440.49,-489 1442.33,-484.869 1444.93,-481.023 1447.92,-477.506"/>
<polygon fill="black" stroke="black" points="1450.44,-479.937 1454.95,-470.352 1445.45,-475.03 1450.44,-479.937"/>
<text text-anchor="middle" x="1468.49" y="-492.8" font-family="Times New Roman,serif" font-size="14.00">Crafting 0</text>
</g>
<!-- Ink_Pot_A_Quill -->
<g id="node42" class="node"><title>Ink_Pot_A_Quill</title>
<ellipse fill="none" stroke="black" cx="654.487" cy="-279" rx="73.387" ry="18"/>
<text text-anchor="middle" x="654.487" y="-275.3" font-family="Times New Roman,serif" font-size="14.00">Ink_Pot_A_Quill</text>
</g>
<!-- Feather_A_Quill&#45;&gt;Ink_Pot_A_Quill -->
<g id="edge46" class="edge"><title>Feather_A_Quill&#45;&gt;Ink_Pot_A_Quill</title>
<path fill="none" stroke="black" d="M534.792,-349.211C558.262,-335.64 592.301,-315.958 618.084,-301.049"/>
<polygon fill="black" stroke="black" points="619.924,-304.028 626.829,-295.993 616.42,-297.968 619.924,-304.028"/>
<text text-anchor="middle" x="618.487" y="-318.8" font-family="Times New Roman,serif" font-size="14.00">Crafting 0</text>
</g>
<!-- SCROLL_AirShield&#45;&gt;SKILLBOOK_Shield_Air -->
<g id="edge47" class="edge"><title>SCROLL_AirShield&#45;&gt;SKILLBOOK_Shield_Air</title>
<path fill="none" stroke="black" d="M1726.94,-87.6111C1747.44,-74.4086 1776.47,-55.7173 1799.05,-41.177"/>
<polygon fill="black" stroke="black" points="1801.15,-43.9853 1807.66,-35.6286 1797.36,-38.0999 1801.15,-43.9853"/>
<text text-anchor="middle" x="1803.49" y="-57.8" font-family="Times New Roman,serif" font-size="14.00">Crafting 4</text>
</g>
<!-- Moonstone -->
<g id="node31" class="node"><title>Moonstone</title>
<ellipse fill="none" stroke="black" cx="931.487" cy="-453" rx="51.9908" ry="18"/>
<text text-anchor="middle" x="931.487" y="-449.3" font-family="Times New Roman,serif" font-size="14.00">Moonstone</text>
</g>
<!-- Moonstone&#45;&gt;Pouch_Dust_Moon -->
<g id="edge48" class="edge"><title>Moonstone&#45;&gt;Pouch_Dust_Moon</title>
<path fill="none" stroke="black" d="M917.896,-435.511C911.295,-425.395 906.042,-412.427 912.487,-402 916.317,-395.802 921.615,-390.665 927.596,-386.416"/>
<polygon fill="black" stroke="black" points="929.438,-389.392 936.103,-381.157 925.757,-383.438 929.438,-389.392"/>
<text text-anchor="middle" x="940.487" y="-405.8" font-family="Times New Roman,serif" font-size="14.00">Crafting 0</text>
</g>
<!-- Pouch_Dust_Star&#45;&gt;Pouch_Dust_Pixie -->
<g id="edge49" class="edge"><title>Pouch_Dust_Star&#45;&gt;Pouch_Dust_Pixie</title>
<path fill="none" stroke="black" d="M1127.43,-349.607C1098.54,-335.733 1055.88,-315.245 1024.31,-300.086"/>
<polygon fill="black" stroke="black" points="1025.43,-296.74 1014.9,-295.566 1022.4,-303.05 1025.43,-296.74"/>
<text text-anchor="middle" x="1110.49" y="-318.8" font-family="Times New Roman,serif" font-size="14.00">Crafting 0</text>
</g>
<!-- Axe -->
<g id="node33" class="node"><title>Axe</title>
<ellipse fill="none" stroke="black" cx="1870.49" cy="-540" rx="27" ry="18"/>
<text text-anchor="middle" x="1870.49" y="-536.3" font-family="Times New Roman,serif" font-size="14.00">Axe</text>
</g>
<!-- Axe&#45;&gt;Scraps_Wood -->
<g id="edge4" class="edge"><title>Axe&#45;&gt;Scraps_Wood</title>
<path fill="none" stroke="black" d="M1863.31,-522.263C1859.08,-512.517 1853.58,-500.017 1848.49,-489 1847.17,-486.149 1845.77,-483.179 1844.36,-480.227"/>
<polygon fill="black" stroke="black" points="1847.42,-478.512 1839.92,-471.029 1841.11,-481.556 1847.42,-478.512"/>
<text text-anchor="middle" x="1883.49" y="-492.8" font-family="Times New Roman,serif" font-size="14.00">Crafting 0</text>
</g>
<!-- Barrel -->
<g id="node35" class="node"><title>Barrel</title>
<ellipse fill="none" stroke="black" cx="1657.49" cy="-540" rx="32.4942" ry="18"/>
<text text-anchor="middle" x="1657.49" y="-536.3" font-family="Times New Roman,serif" font-size="14.00">Barrel</text>
</g>
<!-- Barrel&#45;&gt;Scraps_Wood_A_Mush -->
<g id="edge50" class="edge"><title>Barrel&#45;&gt;Scraps_Wood_A_Mush</title>
<path fill="none" stroke="black" d="M1659.89,-521.986C1662.07,-500.031 1662.72,-461.514 1645.49,-435 1632.93,-415.681 1612.86,-399.907 1594.66,-388.432"/>
<polygon fill="black" stroke="black" points="1596.29,-385.327 1585.92,-383.147 1592.67,-391.317 1596.29,-385.327"/>
<text text-anchor="middle" x="1687.49" y="-449.3" font-family="Times New Roman,serif" font-size="14.00">Crafting 0</text>
</g>
<!-- Barrel&#45;&gt;Bucket_A_Water -->
<g id="edge51" class="edge"><title>Barrel&#45;&gt;Bucket_A_Water</title>
<path fill="none" stroke="black" d="M1636.88,-525.946C1619.55,-515.267 1593.92,-500.159 1570.49,-489 1557.57,-482.851 1543.27,-476.949 1529.9,-471.8"/>
<polygon fill="black" stroke="black" points="1530.96,-468.457 1520.37,-468.191 1528.48,-475.004 1530.96,-468.457"/>
<text text-anchor="middle" x="1625.49" y="-492.8" font-family="Times New Roman,serif" font-size="14.00">Crafting 0</text>
</g>
<!-- Pillow -->
<g id="node36" class="node"><title>Pillow</title>
<ellipse fill="none" stroke="black" cx="439.487" cy="-540" rx="33.2948" ry="18"/>
<text text-anchor="middle" x="439.487" y="-536.3" font-family="Times New Roman,serif" font-size="14.00">Pillow</text>
</g>
<!-- Pillow&#45;&gt;Feather -->
<g id="edge53" class="edge"><title>Pillow&#45;&gt;Feather</title>
<path fill="none" stroke="black" d="M436.614,-521.622C435.74,-511.663 435.99,-499.163 440.487,-489 442.667,-484.073 445.906,-479.508 449.576,-475.412"/>
<polygon fill="black" stroke="black" points="452.303,-477.64 456.999,-468.143 447.406,-472.639 452.303,-477.64"/>
<text text-anchor="middle" x="468.487" y="-492.8" font-family="Times New Roman,serif" font-size="14.00">Crafting 0</text>
</g>
<!-- Bone -->
<g id="node37" class="node"><title>Bone</title>
<ellipse fill="none" stroke="black" cx="693.487" cy="-453" rx="29.795" ry="18"/>
<text text-anchor="middle" x="693.487" y="-449.3" font-family="Times New Roman,serif" font-size="14.00">Bone</text>
</g>
<!-- Bone&#45;&gt;Pouch_Dust_Bone -->
<g id="edge54" class="edge"><title>Bone&#45;&gt;Pouch_Dust_Bone</title>
<path fill="none" stroke="black" d="M706.364,-436.471C715.51,-425.999 728.439,-412.272 741.487,-402 747.816,-397.017 754.927,-392.252 761.981,-387.929"/>
<polygon fill="black" stroke="black" points="763.992,-390.807 770.823,-382.709 760.433,-384.779 763.992,-390.807"/>
<text text-anchor="middle" x="769.487" y="-405.8" font-family="Times New Roman,serif" font-size="14.00">Crafting 0</text>
</g>
<!-- Ink_Pot -->
<g id="node38" class="node"><title>Ink_Pot</title>
<ellipse fill="none" stroke="black" cx="654.487" cy="-366" rx="40.0939" ry="18"/>
<text text-anchor="middle" x="654.487" y="-362.3" font-family="Times New Roman,serif" font-size="14.00">Ink_Pot</text>
</g>
<!-- Ink_Pot&#45;&gt;Ink_Pot_A_Quill -->
<g id="edge33" class="edge"><title>Ink_Pot&#45;&gt;Ink_Pot_A_Quill</title>
<path fill="none" stroke="black" d="M654.487,-347.799C654.487,-336.163 654.487,-320.548 654.487,-307.237"/>
<polygon fill="black" stroke="black" points="657.987,-307.175 654.487,-297.175 650.987,-307.175 657.987,-307.175"/>
<text text-anchor="middle" x="682.487" y="-318.8" font-family="Times New Roman,serif" font-size="14.00">Crafting 0</text>
</g>
<!-- Scraps_Wood&#45;&gt;Scraps_Wood_A_Mush -->
<g id="edge56" class="edge"><title>Scraps_Wood&#45;&gt;Scraps_Wood_A_Mush</title>
<path fill="none" stroke="black" d="M1799.37,-437.397C1774.63,-426.558 1739.39,-411.986 1707.49,-402 1682.42,-394.154 1654.56,-387.28 1629.49,-381.748"/>
<polygon fill="black" stroke="black" points="1630.19,-378.317 1619.67,-379.617 1628.7,-385.158 1630.19,-378.317"/>
<text text-anchor="middle" x="1777.49" y="-405.8" font-family="Times New Roman,serif" font-size="14.00">Crafting 0</text>
</g>
<!-- Dagger -->
<g id="node40" class="node"><title>Dagger</title>
<ellipse fill="none" stroke="black" cx="558.487" cy="-540" rx="36.2938" ry="18"/>
<text text-anchor="middle" x="558.487" y="-536.3" font-family="Times New Roman,serif" font-size="14.00">Dagger</text>
</g>
<!-- Dagger&#45;&gt;Feather -->
<g id="edge58" class="edge"><title>Dagger&#45;&gt;Feather</title>
<path fill="none" stroke="black" d="M540.916,-524.17C534.032,-518.121 526.193,-510.93 519.487,-504 511.682,-495.935 503.632,-486.63 496.694,-478.251"/>
<polygon fill="black" stroke="black" points="499.21,-475.797 490.178,-470.26 493.785,-480.221 499.21,-475.797"/>
<text text-anchor="middle" x="547.487" y="-492.8" font-family="Times New Roman,serif" font-size="14.00">Crafting 0</text>
</g>
<!-- Dagger&#45;&gt;Feather_A_Quill -->
<g id="edge57" class="edge"><title>Dagger&#45;&gt;Feather_A_Quill</title>
<path fill="none" stroke="black" d="M568.404,-522.48C571.279,-516.822 574.033,-510.32 575.487,-504 583.463,-469.324 572.511,-429.285 554.487,-402 551.403,-397.331 547.474,-393.053 543.207,-389.213"/>
<polygon fill="black" stroke="black" points="545.242,-386.358 535.268,-382.785 540.837,-391.798 545.242,-386.358"/>
<text text-anchor="middle" x="606.487" y="-449.3" font-family="Times New Roman,serif" font-size="14.00">Crafting 0</text>
</g>
<!-- SCROLL_LightningStrike&#45;&gt;SKILLBOOK_MultiStrike_LightningStrike -->
<g id="edge59" class="edge"><title>SCROLL_LightningStrike&#45;&gt;SKILLBOOK_MultiStrike_LightningStrike</title>
<path fill="none" stroke="black" d="M867.02,-86.7281C871.821,-76.0531 879.289,-62.7646 889.487,-54 896.165,-48.2602 903.897,-43.3964 911.958,-39.292"/>
<polygon fill="black" stroke="black" points="913.595,-42.3903 921.162,-34.9744 910.622,-36.053 913.595,-42.3903"/>
<text text-anchor="middle" x="917.487" y="-57.8" font-family="Times New Roman,serif" font-size="14.00">Crafting 4</text>
</g>
<!-- Ink_Pot_A_Quill&#45;&gt;Ink_Pot_A_Quill_A_Magic -->
<g id="edge60" class="edge"><title>Ink_Pot_A_Quill&#45;&gt;Ink_Pot_A_Quill_A_Magic</title>
<path fill="none" stroke="black" d="M675.117,-261.611C691.338,-248.726 714.139,-230.613 732.241,-216.233"/>
<polygon fill="black" stroke="black" points="734.534,-218.881 740.187,-209.92 730.18,-213.4 734.534,-218.881"/>
<text text-anchor="middle" x="742.487" y="-231.8" font-family="Times New Roman,serif" font-size="14.00">Crafting 1</text>
</g>
<!-- Oven -->
<g id="node43" class="node"><title>Oven</title>
<ellipse fill="none" stroke="black" cx="1343.49" cy="-366" rx="30.5947" ry="18"/>
<text text-anchor="middle" x="1343.49" y="-362.3" font-family="Times New Roman,serif" font-size="14.00">Oven</text>
</g>
<!-- Oven&#45;&gt;BOOK_Paper_Sheet -->
<g id="edge61" class="edge"><title>Oven&#45;&gt;BOOK_Paper_Sheet</title>
<path fill="none" stroke="black" d="M1343.49,-347.799C1343.49,-336.163 1343.49,-320.548 1343.49,-307.237"/>
<polygon fill="black" stroke="black" points="1346.99,-307.175 1343.49,-297.175 1339.99,-307.175 1346.99,-307.175"/>
<text text-anchor="middle" x="1371.49" y="-318.8" font-family="Times New Roman,serif" font-size="14.00">Crafting 0</text>
</g>
<!-- MortarPestle -->
<g id="node44" class="node"><title>MortarPestle</title>
<ellipse fill="none" stroke="black" cx="1069.49" cy="-453" rx="57.3905" ry="18"/>
<text text-anchor="middle" x="1069.49" y="-449.3" font-family="Times New Roman,serif" font-size="14.00">MortarPestle</text>
</g>
<!-- MortarPestle&#45;&gt;Pouch_Dust_Bone -->
<g id="edge62" class="edge"><title>MortarPestle&#45;&gt;Pouch_Dust_Bone</title>
<path fill="none" stroke="black" d="M1033.37,-438.99C1018.7,-433.098 1001.86,-425.535 987.487,-417 978.236,-411.507 978.233,-406.558 968.487,-402 963.747,-399.783 913.354,-389.349 869.153,-380.445"/>
<polygon fill="black" stroke="black" points="869.747,-376.994 859.253,-378.455 868.368,-383.857 869.747,-376.994"/>
<text text-anchor="middle" x="1015.49" y="-405.8" font-family="Times New Roman,serif" font-size="14.00">Crafting 0</text>
</g>
<!-- MortarPestle&#45;&gt;Pouch_Dust_Moon -->
<g id="edge64" class="edge"><title>MortarPestle&#45;&gt;Pouch_Dust_Moon</title>
<path fill="none" stroke="black" d="M1064.98,-434.644C1061.56,-424.202 1055.98,-411.196 1047.49,-402 1042.35,-396.433 1036.11,-391.571 1029.56,-387.384"/>
<polygon fill="black" stroke="black" points="1030.91,-384.119 1020.52,-382.092 1027.38,-390.162 1030.91,-384.119"/>
<text text-anchor="middle" x="1086.49" y="-405.8" font-family="Times New Roman,serif" font-size="14.00">Crafting 0</text>
</g>
<!-- MortarPestle&#45;&gt;Pouch_Dust_Star -->
<g id="edge63" class="edge"><title>MortarPestle&#45;&gt;Pouch_Dust_Star</title>
<path fill="none" stroke="black" d="M1093.89,-436.459C1102.07,-430.769 1111.01,-423.999 1118.49,-417 1126.48,-409.522 1134.33,-400.488 1140.99,-392.167"/>
<polygon fill="black" stroke="black" points="1143.83,-394.211 1147.21,-384.168 1138.31,-389.913 1143.83,-394.211"/>
<text text-anchor="middle" x="1160.49" y="-405.8" font-family="Times New Roman,serif" font-size="14.00">Crafting 0</text>
</g>
</g>
</svg>
