<?xml version="1.0" encoding="UTF-8" standalone="no"?>
<!DOCTYPE svg PUBLIC "-//W3C//DTD SVG 1.1//EN"
 "http://www.w3.org/Graphics/SVG/1.1/DTD/svg11.dtd">
<!-- Generated by graphviz version 2.38.0 (20140413.2041)
 -->
<!-- Title: G Pages: 1 -->
<svg width="230pt" height="149pt"
 viewBox="0.00 0.00 230.05 148.74" xmlns="http://www.w3.org/2000/svg" xmlns:xlink="http://www.w3.org/1999/xlink">
<g id="graph0" class="graph" transform="scale(1 1) rotate(0) translate(4 144.74)">
<title>G</title>
<polygon fill="white" stroke="none" points="-4,4 -4,-144.74 226.046,-144.74 226.046,4 -4,4"/>
<!-- Sword
+ Small_EarthDamage -->
<g id="node1" class="node"><title>Sword
+ Small_EarthDamage</title>
<ellipse fill="none" stroke="black" cx="122.344" cy="-26.8701" rx="99.9045" ry="26.7407"/>
<text text-anchor="middle" x="122.344" y="-30.6701" font-family="Times New Roman,serif" font-size="14.00">Sword</text>
<text text-anchor="middle" x="122.344" y="-15.6701" font-family="Times New Roman,serif" font-size="14.00">+ Small_EarthDamage</text>
</g>
<!-- Essence_Earth -->
<g id="node2" class="node"><title>Essence_Earth</title>
<ellipse fill="none" stroke="black" cx="64.3443" cy="-122.74" rx="64.189" ry="18"/>
<text text-anchor="middle" x="64.3443" y="-119.04" font-family="Times New Roman,serif" font-size="14.00">Essence_Earth</text>
</g>
<!-- Essence_Earth&#45;&gt;Sword
+ Small_EarthDamage -->
<g id="edge2" class="edge"><title>Essence_Earth&#45;&gt;Sword
+ Small_EarthDamage</title>
<path fill="none" stroke="black" d="M74.7135,-104.958C81.999,-93.1668 92.0051,-76.9725 100.966,-62.4696"/>
<polygon fill="black" stroke="black" points="104.098,-64.0595 106.377,-53.7126 98.1429,-60.38 104.098,-64.0595"/>
<text text-anchor="middle" x="123.344" y="-75.5401" font-family="Times New Roman,serif" font-size="14.00">Crafting 5</text>
</g>
<!-- Sword -->
<g id="node3" class="node"><title>Sword</title>
<ellipse fill="none" stroke="black" cx="181.344" cy="-122.74" rx="35.194" ry="18"/>
<text text-anchor="middle" x="181.344" y="-119.04" font-family="Times New Roman,serif" font-size="14.00">Sword</text>
</g>
<!-- Sword&#45;&gt;Sword
+ Small_EarthDamage -->
<g id="edge1" class="edge"><title>Sword&#45;&gt;Sword
+ Small_EarthDamage</title>
<path fill="none" stroke="black" d="M173.576,-105.147C168.723,-95.2271 162.124,-82.5015 155.344,-71.7401 153.233,-68.3887 150.937,-64.9691 148.573,-61.5919"/>
<polygon fill="black" stroke="black" points="151.311,-59.4056 142.619,-53.3472 145.636,-63.5035 151.311,-59.4056"/>
<text text-anchor="middle" x="191.344" y="-75.5401" font-family="Times New Roman,serif" font-size="14.00">Crafting 5</text>
</g>
</g>
</svg>
