<?xml version="1.0" encoding="UTF-8" standalone="no"?>
<!DOCTYPE svg PUBLIC "-//W3C//DTD SVG 1.1//EN"
 "http://www.w3.org/Graphics/SVG/1.1/DTD/svg11.dtd">
<!-- Generated by graphviz version 2.38.0 (20140413.2041)
 -->
<!-- Title: G Pages: 1 -->
<svg width="976pt" height="392pt"
 viewBox="0.00 0.00 976.15 392.00" xmlns="http://www.w3.org/2000/svg" xmlns:xlink="http://www.w3.org/1999/xlink">
<g id="graph0" class="graph" transform="scale(1 1) rotate(0) translate(4 388)">
<title>G</title>
<polygon fill="white" stroke="none" points="-4,4 -4,-388 972.147,-388 972.147,4 -4,4"/>
<!-- Pouch_Dust_Pixie -->
<g id="node1" class="node"><title>Pouch_Dust_Pixie</title>
<ellipse fill="none" stroke="black" cx="507.147" cy="-192" rx="78.7863" ry="18"/>
<text text-anchor="middle" x="507.147" y="-188.3" font-family="Times New Roman,serif" font-size="14.00">Pouch_Dust_Pixie</text>
</g>
<!-- Feather_A_Magic -->
<g id="node3" class="node"><title>Feather_A_Magic</title>
<ellipse fill="none" stroke="black" cx="507.147" cy="-105" rx="76.0865" ry="18"/>
<text text-anchor="middle" x="507.147" y="-101.3" font-family="Times New Roman,serif" font-size="14.00">Feather_A_Magic</text>
</g>
<!-- Pouch_Dust_Pixie&#45;&gt;Feather_A_Magic -->
<g id="edge1" class="edge"><title>Pouch_Dust_Pixie&#45;&gt;Feather_A_Magic</title>
<path fill="none" stroke="black" d="M507.147,-173.799C507.147,-162.163 507.147,-146.548 507.147,-133.237"/>
<polygon fill="black" stroke="black" points="510.647,-133.175 507.147,-123.175 503.647,-133.175 510.647,-133.175"/>
<text text-anchor="middle" x="535.147" y="-144.8" font-family="Times New Roman,serif" font-size="14.00">Crafting 1</text>
</g>
<!-- Sheep -->
<g id="node2" class="node"><title>Sheep</title>
<ellipse fill="none" stroke="black" cx="928.147" cy="-366" rx="33.2948" ry="18"/>
<text text-anchor="middle" x="928.147" y="-362.3" font-family="Times New Roman,serif" font-size="14.00">Sheep</text>
</g>
<!-- Wool -->
<g id="node17" class="node"><title>Wool</title>
<ellipse fill="none" stroke="black" cx="842.147" cy="-279" rx="31.3957" ry="18"/>
<text text-anchor="middle" x="842.147" y="-275.3" font-family="Times New Roman,serif" font-size="14.00">Wool</text>
</g>
<!-- Sheep&#45;&gt;Wool -->
<g id="edge2" class="edge"><title>Sheep&#45;&gt;Wool</title>
<path fill="none" stroke="black" d="M922.222,-348.224C917.89,-337.747 911.19,-324.493 902.147,-315 894.583,-307.06 884.822,-300.344 875.379,-294.985"/>
<polygon fill="black" stroke="black" points="876.978,-291.871 866.505,-290.267 873.691,-298.052 876.978,-291.871"/>
<text text-anchor="middle" x="940.147" y="-318.8" font-family="Times New Roman,serif" font-size="14.00">Crafting 0</text>
</g>
<!-- Feather_MagicBelt -->
<g id="node6" class="node"><title>Feather_MagicBelt</title>
<ellipse fill="none" stroke="black" cx="588.147" cy="-18" rx="79.0865" ry="18"/>
<text text-anchor="middle" x="588.147" y="-14.3" font-family="Times New Roman,serif" font-size="14.00">Feather_MagicBelt</text>
</g>
<!-- Feather_A_Magic&#45;&gt;Feather_MagicBelt -->
<g id="edge3" class="edge"><title>Feather_A_Magic&#45;&gt;Feather_MagicBelt</title>
<path fill="none" stroke="black" d="M523.15,-87.2067C535.132,-74.6335 551.695,-57.252 565.103,-43.1825"/>
<polygon fill="black" stroke="black" points="567.812,-45.4123 572.177,-35.7584 562.745,-40.5832 567.812,-45.4123"/>
<text text-anchor="middle" x="581.147" y="-57.8" font-family="Times New Roman,serif" font-size="14.00">Crafting 1</text>
</g>
<!-- Pillow -->
<g id="node4" class="node"><title>Pillow</title>
<ellipse fill="none" stroke="black" cx="33.1471" cy="-279" rx="33.2948" ry="18"/>
<text text-anchor="middle" x="33.1471" y="-275.3" font-family="Times New Roman,serif" font-size="14.00">Pillow</text>
</g>
<!-- Feather -->
<g id="node16" class="node"><title>Feather</title>
<ellipse fill="none" stroke="black" cx="164.147" cy="-192" rx="37.8943" ry="18"/>
<text text-anchor="middle" x="164.147" y="-188.3" font-family="Times New Roman,serif" font-size="14.00">Feather</text>
</g>
<!-- Pillow&#45;&gt;Feather -->
<g id="edge19" class="edge"><title>Pillow&#45;&gt;Feather</title>
<path fill="none" stroke="black" d="M38.2582,-261.035C42.3206,-250.21 49.0259,-236.638 59.1471,-228 75.7764,-213.807 98.3647,-205.317 118.33,-200.263"/>
<polygon fill="black" stroke="black" points="119.229,-203.648 128.184,-197.985 117.653,-196.828 119.229,-203.648"/>
<text text-anchor="middle" x="87.1471" y="-231.8" font-family="Times New Roman,serif" font-size="14.00">Crafting 0</text>
</g>
<!-- Dagger -->
<g id="node5" class="node"><title>Dagger</title>
<ellipse fill="none" stroke="black" cx="121.147" cy="-279" rx="36.2938" ry="18"/>
<text text-anchor="middle" x="121.147" y="-275.3" font-family="Times New Roman,serif" font-size="14.00">Dagger</text>
</g>
<!-- Dagger&#45;&gt;Feather -->
<g id="edge4" class="edge"><title>Dagger&#45;&gt;Feather</title>
<path fill="none" stroke="black" d="M118.538,-260.969C117.775,-250.894 118.214,-238.159 123.147,-228 125.766,-222.607 129.642,-217.721 133.981,-213.426"/>
<polygon fill="black" stroke="black" points="136.364,-215.993 141.582,-206.772 131.753,-210.726 136.364,-215.993"/>
<text text-anchor="middle" x="151.147" y="-231.8" font-family="Times New Roman,serif" font-size="14.00">Crafting 0</text>
</g>
<!-- Bone -->
<g id="node7" class="node"><title>Bone</title>
<ellipse fill="none" stroke="black" cx="182.147" cy="-366" rx="29.795" ry="18"/>
<text text-anchor="middle" x="182.147" y="-362.3" font-family="Times New Roman,serif" font-size="14.00">Bone</text>
</g>
<!-- Pouch_Dust_Bone -->
<g id="node8" class="node"><title>Pouch_Dust_Bone</title>
<ellipse fill="none" stroke="black" cx="334.147" cy="-279" rx="79.8859" ry="18"/>
<text text-anchor="middle" x="334.147" y="-275.3" font-family="Times New Roman,serif" font-size="14.00">Pouch_Dust_Bone</text>
</g>
<!-- Bone&#45;&gt;Pouch_Dust_Bone -->
<g id="edge20" class="edge"><title>Bone&#45;&gt;Pouch_Dust_Bone</title>
<path fill="none" stroke="black" d="M198.981,-350.847C212.291,-340.107 231.649,-325.454 250.147,-315 260.785,-308.988 272.662,-303.414 284.059,-298.562"/>
<polygon fill="black" stroke="black" points="285.58,-301.72 293.482,-294.662 282.903,-295.252 285.58,-301.72"/>
<text text-anchor="middle" x="278.147" y="-318.8" font-family="Times New Roman,serif" font-size="14.00">Crafting 0</text>
</g>
<!-- Pouch_Dust_Bone&#45;&gt;Pouch_Dust_Pixie -->
<g id="edge5" class="edge"><title>Pouch_Dust_Bone&#45;&gt;Pouch_Dust_Pixie</title>
<path fill="none" stroke="black" d="M365.878,-262.41C394.166,-248.511 435.731,-228.089 466.456,-212.993"/>
<polygon fill="black" stroke="black" points="468.186,-216.043 475.617,-208.491 465.099,-209.76 468.186,-216.043"/>
<text text-anchor="middle" x="459.147" y="-231.8" font-family="Times New Roman,serif" font-size="14.00">Crafting 0</text>
</g>
<!-- Yarn_A_Wool -->
<g id="node9" class="node"><title>Yarn_A_Wool</title>
<ellipse fill="none" stroke="black" cx="717.147" cy="-192" rx="64.9885" ry="18"/>
<text text-anchor="middle" x="717.147" y="-188.3" font-family="Times New Roman,serif" font-size="14.00">Yarn_A_Wool</text>
</g>
<!-- Rope -->
<g id="node10" class="node"><title>Rope</title>
<ellipse fill="none" stroke="black" cx="653.147" cy="-105" rx="30.5947" ry="18"/>
<text text-anchor="middle" x="653.147" y="-101.3" font-family="Times New Roman,serif" font-size="14.00">Rope</text>
</g>
<!-- Yarn_A_Wool&#45;&gt;Rope -->
<g id="edge7" class="edge"><title>Yarn_A_Wool&#45;&gt;Rope</title>
<path fill="none" stroke="black" d="M704.503,-174.207C695.03,-161.626 681.933,-144.231 671.336,-130.157"/>
<polygon fill="black" stroke="black" points="673.927,-127.779 665.116,-121.896 668.335,-131.99 673.927,-127.779"/>
<text text-anchor="middle" x="716.147" y="-144.8" font-family="Times New Roman,serif" font-size="14.00">Crafting 0</text>
</g>
<!-- Rope&#45;&gt;Feather_MagicBelt -->
<g id="edge8" class="edge"><title>Rope&#45;&gt;Feather_MagicBelt</title>
<path fill="none" stroke="black" d="M641.225,-88.4097C631.727,-75.9898 618.247,-58.3614 607.248,-43.9785"/>
<polygon fill="black" stroke="black" points="609.963,-41.7665 601.108,-35.949 604.402,-46.0187 609.963,-41.7665"/>
<text text-anchor="middle" x="653.147" y="-57.8" font-family="Times New Roman,serif" font-size="14.00">Crafting 1</text>
</g>
<!-- Moonstone -->
<g id="node11" class="node"><title>Moonstone</title>
<ellipse fill="none" stroke="black" cx="737.147" cy="-366" rx="51.9908" ry="18"/>
<text text-anchor="middle" x="737.147" y="-362.3" font-family="Times New Roman,serif" font-size="14.00">Moonstone</text>
</g>
<!-- Pouch_Dust_Moon -->
<g id="node20" class="node"><title>Pouch_Dust_Moon</title>
<ellipse fill="none" stroke="black" cx="684.147" cy="-279" rx="83.3857" ry="18"/>
<text text-anchor="middle" x="684.147" y="-275.3" font-family="Times New Roman,serif" font-size="14.00">Pouch_Dust_Moon</text>
</g>
<!-- Moonstone&#45;&gt;Pouch_Dust_Moon -->
<g id="edge9" class="edge"><title>Moonstone&#45;&gt;Pouch_Dust_Moon</title>
<path fill="none" stroke="black" d="M731.058,-347.666C727.195,-337.722 721.695,-325.222 715.147,-315 712.944,-311.561 710.41,-308.122 707.76,-304.816"/>
<polygon fill="black" stroke="black" points="710.204,-302.288 701.055,-296.946 704.876,-306.828 710.204,-302.288"/>
<text text-anchor="middle" x="750.147" y="-318.8" font-family="Times New Roman,serif" font-size="14.00">Crafting 0</text>
</g>
<!-- Pouch_Dust_Star -->
<g id="node12" class="node"><title>Pouch_Dust_Star</title>
<ellipse fill="none" stroke="black" cx="507.147" cy="-279" rx="75.2868" ry="18"/>
<text text-anchor="middle" x="507.147" y="-275.3" font-family="Times New Roman,serif" font-size="14.00">Pouch_Dust_Star</text>
</g>
<!-- Pouch_Dust_Star&#45;&gt;Pouch_Dust_Pixie -->
<g id="edge10" class="edge"><title>Pouch_Dust_Star&#45;&gt;Pouch_Dust_Pixie</title>
<path fill="none" stroke="black" d="M507.147,-260.799C507.147,-249.163 507.147,-233.548 507.147,-220.237"/>
<polygon fill="black" stroke="black" points="510.647,-220.175 507.147,-210.175 503.647,-220.175 510.647,-220.175"/>
<text text-anchor="middle" x="535.147" y="-231.8" font-family="Times New Roman,serif" font-size="14.00">Crafting 0</text>
</g>
<!-- Knife -->
<g id="node13" class="node"><title>Knife</title>
<ellipse fill="none" stroke="black" cx="206.147" cy="-279" rx="30.5947" ry="18"/>
<text text-anchor="middle" x="206.147" y="-275.3" font-family="Times New Roman,serif" font-size="14.00">Knife</text>
</g>
<!-- Knife&#45;&gt;Feather -->
<g id="edge11" class="edge"><title>Knife&#45;&gt;Feather</title>
<path fill="none" stroke="black" d="M198.049,-261.611C192.045,-249.46 183.744,-232.66 176.858,-218.725"/>
<polygon fill="black" stroke="black" points="179.931,-217.043 172.364,-209.629 173.656,-220.144 179.931,-217.043"/>
<text text-anchor="middle" x="216.147" y="-231.8" font-family="Times New Roman,serif" font-size="14.00">Crafting 0</text>
</g>
<!-- Herb_Stardust -->
<g id="node14" class="node"><title>Herb_Stardust</title>
<ellipse fill="none" stroke="black" cx="431.147" cy="-366" rx="63.8893" ry="18"/>
<text text-anchor="middle" x="431.147" y="-362.3" font-family="Times New Roman,serif" font-size="14.00">Herb_Stardust</text>
</g>
<!-- Herb_Stardust&#45;&gt;Pouch_Dust_Star -->
<g id="edge16" class="edge"><title>Herb_Stardust&#45;&gt;Pouch_Dust_Star</title>
<path fill="none" stroke="black" d="M422.298,-347.98C418.264,-337.665 415.669,-324.674 422.147,-315 427.486,-307.028 435.004,-300.871 443.385,-296.114"/>
<polygon fill="black" stroke="black" points="444.976,-299.232 452.375,-291.648 441.862,-292.963 444.976,-299.232"/>
<text text-anchor="middle" x="450.147" y="-318.8" font-family="Times New Roman,serif" font-size="14.00">Crafting 0</text>
</g>
<!-- Shears -->
<g id="node15" class="node"><title>Shears</title>
<ellipse fill="none" stroke="black" cx="842.147" cy="-366" rx="35.194" ry="18"/>
<text text-anchor="middle" x="842.147" y="-362.3" font-family="Times New Roman,serif" font-size="14.00">Shears</text>
</g>
<!-- Shears&#45;&gt;Wool -->
<g id="edge6" class="edge"><title>Shears&#45;&gt;Wool</title>
<path fill="none" stroke="black" d="M842.147,-347.799C842.147,-336.163 842.147,-320.548 842.147,-307.237"/>
<polygon fill="black" stroke="black" points="845.647,-307.175 842.147,-297.175 838.647,-307.175 845.647,-307.175"/>
<text text-anchor="middle" x="870.147" y="-318.8" font-family="Times New Roman,serif" font-size="14.00">Crafting 0</text>
</g>
<!-- Feather&#45;&gt;Feather_A_Magic -->
<g id="edge17" class="edge"><title>Feather&#45;&gt;Feather_A_Magic</title>
<path fill="none" stroke="black" d="M196.725,-182.927C254.061,-168.718 373.817,-139.041 446.678,-120.985"/>
<polygon fill="black" stroke="black" points="447.772,-124.32 456.636,-118.517 446.088,-117.525 447.772,-124.32"/>
<text text-anchor="middle" x="385.147" y="-144.8" font-family="Times New Roman,serif" font-size="14.00">Crafting 1</text>
</g>
<!-- Wool&#45;&gt;Yarn_A_Wool -->
<g id="edge18" class="edge"><title>Wool&#45;&gt;Yarn_A_Wool</title>
<path fill="none" stroke="black" d="M822.616,-264.719C803.01,-251.387 772.472,-230.621 749.291,-214.858"/>
<polygon fill="black" stroke="black" points="751.043,-211.817 740.806,-209.088 747.107,-217.605 751.043,-211.817"/>
<text text-anchor="middle" x="814.147" y="-231.8" font-family="Times New Roman,serif" font-size="14.00">Crafting 0</text>
</g>
<!-- Skull_Human -->
<g id="node18" class="node"><title>Skull_Human</title>
<ellipse fill="none" stroke="black" cx="290.147" cy="-366" rx="59.5901" ry="18"/>
<text text-anchor="middle" x="290.147" y="-362.3" font-family="Times New Roman,serif" font-size="14.00">Skull_Human</text>
</g>
<!-- Skull_Human&#45;&gt;Pouch_Dust_Bone -->
<g id="edge12" class="edge"><title>Skull_Human&#45;&gt;Pouch_Dust_Bone</title>
<path fill="none" stroke="black" d="M299.051,-347.799C305.254,-335.817 313.64,-319.617 320.659,-306.057"/>
<polygon fill="black" stroke="black" points="323.767,-307.665 325.256,-297.175 317.551,-304.447 323.767,-307.665"/>
<text text-anchor="middle" x="343.147" y="-318.8" font-family="Times New Roman,serif" font-size="14.00">Crafting 0</text>
</g>
<!-- MortarPestle -->
<g id="node19" class="node"><title>MortarPestle</title>
<ellipse fill="none" stroke="black" cx="579.147" cy="-366" rx="57.3905" ry="18"/>
<text text-anchor="middle" x="579.147" y="-362.3" font-family="Times New Roman,serif" font-size="14.00">MortarPestle</text>
</g>
<!-- MortarPestle&#45;&gt;Pouch_Dust_Bone -->
<g id="edge13" class="edge"><title>MortarPestle&#45;&gt;Pouch_Dust_Bone</title>
<path fill="none" stroke="black" d="M543.028,-351.99C528.361,-346.098 511.521,-338.535 497.147,-330 487.896,-324.507 487.819,-319.712 478.147,-315 464.373,-308.289 432.243,-300.246 401.821,-293.564"/>
<polygon fill="black" stroke="black" points="402.543,-290.139 392.029,-291.445 401.063,-296.981 402.543,-290.139"/>
<text text-anchor="middle" x="525.147" y="-318.8" font-family="Times New Roman,serif" font-size="14.00">Crafting 0</text>
</g>
<!-- MortarPestle&#45;&gt;Pouch_Dust_Star -->
<g id="edge14" class="edge"><title>MortarPestle&#45;&gt;Pouch_Dust_Star</title>
<path fill="none" stroke="black" d="M574.253,-347.982C570.69,-337.667 565.089,-324.676 557.147,-315 553.271,-310.278 548.605,-305.907 543.701,-301.97"/>
<polygon fill="black" stroke="black" points="545.441,-298.903 535.321,-295.766 541.276,-304.529 545.441,-298.903"/>
<text text-anchor="middle" x="594.147" y="-318.8" font-family="Times New Roman,serif" font-size="14.00">Crafting 0</text>
</g>
<!-- MortarPestle&#45;&gt;Pouch_Dust_Moon -->
<g id="edge15" class="edge"><title>MortarPestle&#45;&gt;Pouch_Dust_Moon</title>
<path fill="none" stroke="black" d="M600.919,-349.288C608.945,-343.366 618.051,-336.491 626.147,-330 636.787,-321.47 648.213,-311.748 658.086,-303.159"/>
<polygon fill="black" stroke="black" points="660.408,-305.778 665.627,-296.558 655.797,-300.511 660.408,-305.778"/>
<text text-anchor="middle" x="672.147" y="-318.8" font-family="Times New Roman,serif" font-size="14.00">Crafting 0</text>
</g>
<!-- Pouch_Dust_Moon&#45;&gt;Pouch_Dust_Pixie -->
<g id="edge21" class="edge"><title>Pouch_Dust_Moon&#45;&gt;Pouch_Dust_Pixie</title>
<path fill="none" stroke="black" d="M651.683,-262.41C622.74,-248.511 580.215,-228.089 548.779,-212.993"/>
<polygon fill="black" stroke="black" points="549.935,-209.665 539.406,-208.491 546.905,-215.976 549.935,-209.665"/>
<text text-anchor="middle" x="635.147" y="-231.8" font-family="Times New Roman,serif" font-size="14.00">Crafting 0</text>
</g>
</g>
</svg>
