<?xml version="1.0" encoding="UTF-8" standalone="no"?>
<!DOCTYPE svg PUBLIC "-//W3C//DTD SVG 1.1//EN"
 "http://www.w3.org/Graphics/SVG/1.1/DTD/svg11.dtd">
<!-- Generated by graphviz version 2.38.0 (20140413.2041)
 -->
<!-- Title: G Pages: 1 -->
<svg width="828pt" height="392pt"
 viewBox="0.00 0.00 828.09 392.00" xmlns="http://www.w3.org/2000/svg" xmlns:xlink="http://www.w3.org/1999/xlink">
<g id="graph0" class="graph" transform="scale(1 1) rotate(0) translate(4 388)">
<title>G</title>
<polygon fill="white" stroke="none" points="-4,4 -4,-388 824.092,-388 824.092,4 -4,4"/>
<!-- Pouch_Dust_Pixie -->
<g id="node1" class="node"><title>Pouch_Dust_Pixie</title>
<ellipse fill="none" stroke="black" cx="442.097" cy="-192" rx="78.7863" ry="18"/>
<text text-anchor="middle" x="442.097" y="-188.3" font-family="Times New Roman,serif" font-size="14.00">Pouch_Dust_Pixie</text>
</g>
<!-- Tooth_A_Magic -->
<g id="node12" class="node"><title>Tooth_A_Magic</title>
<ellipse fill="none" stroke="black" cx="294.097" cy="-105" rx="71.4873" ry="18"/>
<text text-anchor="middle" x="294.097" y="-101.3" font-family="Times New Roman,serif" font-size="14.00">Tooth_A_Magic</text>
</g>
<!-- Pouch_Dust_Pixie&#45;&gt;Tooth_A_Magic -->
<g id="edge1" class="edge"><title>Pouch_Dust_Pixie&#45;&gt;Tooth_A_Magic</title>
<path fill="none" stroke="black" d="M414.259,-175.012C390.515,-161.375 356.213,-141.675 330.332,-126.811"/>
<polygon fill="black" stroke="black" points="331.974,-123.718 321.559,-121.772 328.488,-129.788 331.974,-123.718"/>
<text text-anchor="middle" x="405.097" y="-144.8" font-family="Times New Roman,serif" font-size="14.00">Crafting 2</text>
</g>
<!-- Sheep -->
<g id="node2" class="node"><title>Sheep</title>
<ellipse fill="none" stroke="black" cx="121.097" cy="-366" rx="33.2948" ry="18"/>
<text text-anchor="middle" x="121.097" y="-362.3" font-family="Times New Roman,serif" font-size="14.00">Sheep</text>
</g>
<!-- Wool -->
<g id="node14" class="node"><title>Wool</title>
<ellipse fill="none" stroke="black" cx="121.097" cy="-279" rx="31.3957" ry="18"/>
<text text-anchor="middle" x="121.097" y="-275.3" font-family="Times New Roman,serif" font-size="14.00">Wool</text>
</g>
<!-- Sheep&#45;&gt;Wool -->
<g id="edge2" class="edge"><title>Sheep&#45;&gt;Wool</title>
<path fill="none" stroke="black" d="M121.097,-347.799C121.097,-336.163 121.097,-320.548 121.097,-307.237"/>
<polygon fill="black" stroke="black" points="124.597,-307.175 121.097,-297.175 117.597,-307.175 124.597,-307.175"/>
<text text-anchor="middle" x="149.097" y="-318.8" font-family="Times New Roman,serif" font-size="14.00">Crafting 0</text>
</g>
<!-- Shears -->
<g id="node3" class="node"><title>Shears</title>
<ellipse fill="none" stroke="black" cx="35.0969" cy="-366" rx="35.194" ry="18"/>
<text text-anchor="middle" x="35.0969" y="-362.3" font-family="Times New Roman,serif" font-size="14.00">Shears</text>
</g>
<!-- Shears&#45;&gt;Wool -->
<g id="edge3" class="edge"><title>Shears&#45;&gt;Wool</title>
<path fill="none" stroke="black" d="M41.0223,-348.224C45.3543,-337.747 52.0541,-324.493 61.0969,-315 68.6609,-307.06 78.4221,-300.344 87.8651,-294.985"/>
<polygon fill="black" stroke="black" points="89.5525,-298.052 96.739,-290.267 86.2663,-291.871 89.5525,-298.052"/>
<text text-anchor="middle" x="89.0969" y="-318.8" font-family="Times New Roman,serif" font-size="14.00">Crafting 0</text>
</g>
<!-- Pouch_Dust_Bone -->
<g id="node4" class="node"><title>Pouch_Dust_Bone</title>
<ellipse fill="none" stroke="black" cx="339.097" cy="-279" rx="79.8859" ry="18"/>
<text text-anchor="middle" x="339.097" y="-275.3" font-family="Times New Roman,serif" font-size="14.00">Pouch_Dust_Bone</text>
</g>
<!-- Pouch_Dust_Bone&#45;&gt;Pouch_Dust_Pixie -->
<g id="edge5" class="edge"><title>Pouch_Dust_Bone&#45;&gt;Pouch_Dust_Pixie</title>
<path fill="none" stroke="black" d="M359.446,-261.207C375.065,-248.317 396.807,-230.375 414.071,-216.128"/>
<polygon fill="black" stroke="black" points="416.655,-218.534 422.14,-209.469 412.2,-213.135 416.655,-218.534"/>
<text text-anchor="middle" x="425.097" y="-231.8" font-family="Times New Roman,serif" font-size="14.00">Crafting 0</text>
</g>
<!-- Tooth_MagicBelt -->
<g id="node5" class="node"><title>Tooth_MagicBelt</title>
<ellipse fill="none" stroke="black" cx="238.097" cy="-18" rx="74.9875" ry="18"/>
<text text-anchor="middle" x="238.097" y="-14.3" font-family="Times New Roman,serif" font-size="14.00">Tooth_MagicBelt</text>
</g>
<!-- Tooth -->
<g id="node6" class="node"><title>Tooth</title>
<ellipse fill="none" stroke="black" cx="294.097" cy="-192" rx="33.2948" ry="18"/>
<text text-anchor="middle" x="294.097" y="-188.3" font-family="Times New Roman,serif" font-size="14.00">Tooth</text>
</g>
<!-- Tooth&#45;&gt;Tooth_A_Magic -->
<g id="edge6" class="edge"><title>Tooth&#45;&gt;Tooth_A_Magic</title>
<path fill="none" stroke="black" d="M294.097,-173.799C294.097,-162.163 294.097,-146.548 294.097,-133.237"/>
<polygon fill="black" stroke="black" points="297.597,-133.175 294.097,-123.175 290.597,-133.175 297.597,-133.175"/>
<text text-anchor="middle" x="322.097" y="-144.8" font-family="Times New Roman,serif" font-size="14.00">Crafting 2</text>
</g>
<!-- Rope -->
<g id="node7" class="node"><title>Rope</title>
<ellipse fill="none" stroke="black" cx="172.097" cy="-105" rx="30.5947" ry="18"/>
<text text-anchor="middle" x="172.097" y="-101.3" font-family="Times New Roman,serif" font-size="14.00">Rope</text>
</g>
<!-- Rope&#45;&gt;Tooth_MagicBelt -->
<g id="edge7" class="edge"><title>Rope&#45;&gt;Tooth_MagicBelt</title>
<path fill="none" stroke="black" d="M180.976,-87.6083C186.742,-77.5291 194.723,-64.5658 203.097,-54 205.998,-50.3402 209.244,-46.657 212.559,-43.1252"/>
<polygon fill="black" stroke="black" points="215.327,-45.3003 219.816,-35.7035 210.322,-40.4063 215.327,-45.3003"/>
<text text-anchor="middle" x="231.097" y="-57.8" font-family="Times New Roman,serif" font-size="14.00">Crafting 2</text>
</g>
<!-- Moonstone -->
<g id="node8" class="node"><title>Moonstone</title>
<ellipse fill="none" stroke="black" cx="768.097" cy="-366" rx="51.9908" ry="18"/>
<text text-anchor="middle" x="768.097" y="-362.3" font-family="Times New Roman,serif" font-size="14.00">Moonstone</text>
</g>
<!-- Pouch_Dust_Moon -->
<g id="node17" class="node"><title>Pouch_Dust_Moon</title>
<ellipse fill="none" stroke="black" cx="689.097" cy="-279" rx="83.3857" ry="18"/>
<text text-anchor="middle" x="689.097" y="-275.3" font-family="Times New Roman,serif" font-size="14.00">Pouch_Dust_Moon</text>
</g>
<!-- Moonstone&#45;&gt;Pouch_Dust_Moon -->
<g id="edge8" class="edge"><title>Moonstone&#45;&gt;Pouch_Dust_Moon</title>
<path fill="none" stroke="black" d="M763.405,-347.811C759.918,-337.432 754.326,-324.434 746.097,-315 741.635,-309.885 736.239,-305.281 730.568,-301.221"/>
<polygon fill="black" stroke="black" points="732.415,-298.247 722.139,-295.667 728.563,-304.092 732.415,-298.247"/>
<text text-anchor="middle" x="783.097" y="-318.8" font-family="Times New Roman,serif" font-size="14.00">Crafting 0</text>
</g>
<!-- Pouch_Dust_Star -->
<g id="node9" class="node"><title>Pouch_Dust_Star</title>
<ellipse fill="none" stroke="black" cx="512.097" cy="-279" rx="75.2868" ry="18"/>
<text text-anchor="middle" x="512.097" y="-275.3" font-family="Times New Roman,serif" font-size="14.00">Pouch_Dust_Star</text>
</g>
<!-- Pouch_Dust_Star&#45;&gt;Pouch_Dust_Pixie -->
<g id="edge9" class="edge"><title>Pouch_Dust_Star&#45;&gt;Pouch_Dust_Pixie</title>
<path fill="none" stroke="black" d="M498.267,-261.207C488.009,-248.75 473.863,-231.573 462.334,-217.574"/>
<polygon fill="black" stroke="black" points="464.957,-215.253 455.898,-209.758 459.553,-219.703 464.957,-215.253"/>
<text text-anchor="middle" x="510.097" y="-231.8" font-family="Times New Roman,serif" font-size="14.00">Crafting 0</text>
</g>
<!-- MortarPestle -->
<g id="node10" class="node"><title>MortarPestle</title>
<ellipse fill="none" stroke="black" cx="610.097" cy="-366" rx="57.3905" ry="18"/>
<text text-anchor="middle" x="610.097" y="-362.3" font-family="Times New Roman,serif" font-size="14.00">MortarPestle</text>
</g>
<!-- MortarPestle&#45;&gt;Pouch_Dust_Bone -->
<g id="edge15" class="edge"><title>MortarPestle&#45;&gt;Pouch_Dust_Bone</title>
<path fill="none" stroke="black" d="M573.978,-351.99C559.311,-346.098 542.471,-338.535 528.097,-330 518.846,-324.507 518.851,-319.54 509.097,-315 504.245,-312.742 452.418,-302.21 407.251,-293.283"/>
<polygon fill="black" stroke="black" points="407.925,-289.849 397.437,-291.348 406.571,-296.717 407.925,-289.849"/>
<text text-anchor="middle" x="556.097" y="-318.8" font-family="Times New Roman,serif" font-size="14.00">Crafting 0</text>
</g>
<!-- MortarPestle&#45;&gt;Pouch_Dust_Star -->
<g id="edge16" class="edge"><title>MortarPestle&#45;&gt;Pouch_Dust_Star</title>
<path fill="none" stroke="black" d="M605.94,-347.931C602.616,-337.337 597.006,-324.062 588.097,-315 581.59,-308.382 573.598,-302.887 565.266,-298.367"/>
<polygon fill="black" stroke="black" points="566.66,-295.151 556.147,-293.838 563.546,-301.42 566.66,-295.151"/>
<text text-anchor="middle" x="627.097" y="-318.8" font-family="Times New Roman,serif" font-size="14.00">Crafting 0</text>
</g>
<!-- MortarPestle&#45;&gt;Pouch_Dust_Moon -->
<g id="edge17" class="edge"><title>MortarPestle&#45;&gt;Pouch_Dust_Moon</title>
<path fill="none" stroke="black" d="M640.769,-350.747C650.126,-345.276 659.845,-338.313 667.097,-330 672.947,-323.293 677.465,-314.785 680.84,-306.697"/>
<polygon fill="black" stroke="black" points="684.172,-307.781 684.405,-297.189 677.617,-305.324 684.172,-307.781"/>
<text text-anchor="middle" x="705.097" y="-318.8" font-family="Times New Roman,serif" font-size="14.00">Crafting 0</text>
</g>
<!-- Skull_Human -->
<g id="node11" class="node"><title>Skull_Human</title>
<ellipse fill="none" stroke="black" cx="232.097" cy="-366" rx="59.5901" ry="18"/>
<text text-anchor="middle" x="232.097" y="-362.3" font-family="Times New Roman,serif" font-size="14.00">Skull_Human</text>
</g>
<!-- Skull_Human&#45;&gt;Pouch_Dust_Bone -->
<g id="edge14" class="edge"><title>Skull_Human&#45;&gt;Pouch_Dust_Bone</title>
<path fill="none" stroke="black" d="M246.213,-348.119C255.28,-337.856 267.653,-324.871 280.097,-315 286.329,-310.056 293.326,-305.309 300.264,-300.993"/>
<polygon fill="black" stroke="black" points="302.186,-303.922 308.959,-295.774 298.584,-297.92 302.186,-303.922"/>
<text text-anchor="middle" x="308.097" y="-318.8" font-family="Times New Roman,serif" font-size="14.00">Crafting 0</text>
</g>
<!-- Tooth_A_Magic&#45;&gt;Tooth_MagicBelt -->
<g id="edge11" class="edge"><title>Tooth_A_Magic&#45;&gt;Tooth_MagicBelt</title>
<path fill="none" stroke="black" d="M283.033,-87.2067C275.032,-75.0621 264.075,-58.4315 254.984,-44.6326"/>
<polygon fill="black" stroke="black" points="257.754,-42.4744 249.329,-36.0493 251.908,-46.3255 257.754,-42.4744"/>
<text text-anchor="middle" x="298.097" y="-57.8" font-family="Times New Roman,serif" font-size="14.00">Crafting 2</text>
</g>
<!-- Herb_Stardust -->
<g id="node13" class="node"><title>Herb_Stardust</title>
<ellipse fill="none" stroke="black" cx="452.097" cy="-366" rx="63.8893" ry="18"/>
<text text-anchor="middle" x="452.097" y="-362.3" font-family="Times New Roman,serif" font-size="14.00">Herb_Stardust</text>
</g>
<!-- Herb_Stardust&#45;&gt;Pouch_Dust_Star -->
<g id="edge12" class="edge"><title>Herb_Stardust&#45;&gt;Pouch_Dust_Star</title>
<path fill="none" stroke="black" d="M448.455,-347.673C447.244,-337.493 447.413,-324.752 453.097,-315 456.363,-309.395 460.911,-304.591 466.046,-300.501"/>
<polygon fill="black" stroke="black" points="468.271,-303.217 474.501,-294.648 464.286,-297.462 468.271,-303.217"/>
<text text-anchor="middle" x="481.097" y="-318.8" font-family="Times New Roman,serif" font-size="14.00">Crafting 0</text>
</g>
<!-- Yarn_A_Wool -->
<g id="node15" class="node"><title>Yarn_A_Wool</title>
<ellipse fill="none" stroke="black" cx="159.097" cy="-192" rx="64.9885" ry="18"/>
<text text-anchor="middle" x="159.097" y="-188.3" font-family="Times New Roman,serif" font-size="14.00">Yarn_A_Wool</text>
</g>
<!-- Wool&#45;&gt;Yarn_A_Wool -->
<g id="edge13" class="edge"><title>Wool&#45;&gt;Yarn_A_Wool</title>
<path fill="none" stroke="black" d="M128.604,-261.207C133.93,-249.293 141.186,-233.063 147.284,-219.424"/>
<polygon fill="black" stroke="black" points="150.589,-220.607 151.475,-210.049 144.198,-217.75 150.589,-220.607"/>
<text text-anchor="middle" x="171.097" y="-231.8" font-family="Times New Roman,serif" font-size="14.00">Crafting 0</text>
</g>
<!-- Yarn_A_Wool&#45;&gt;Rope -->
<g id="edge18" class="edge"><title>Yarn_A_Wool&#45;&gt;Rope</title>
<path fill="none" stroke="black" d="M161.728,-173.799C163.507,-162.163 165.895,-146.548 167.931,-133.237"/>
<polygon fill="black" stroke="black" points="171.418,-133.59 169.47,-123.175 164.498,-132.531 171.418,-133.59"/>
<text text-anchor="middle" x="195.097" y="-144.8" font-family="Times New Roman,serif" font-size="14.00">Crafting 0</text>
</g>
<!-- Bone -->
<g id="node16" class="node"><title>Bone</title>
<ellipse fill="none" stroke="black" cx="340.097" cy="-366" rx="29.795" ry="18"/>
<text text-anchor="middle" x="340.097" y="-362.3" font-family="Times New Roman,serif" font-size="14.00">Bone</text>
</g>
<!-- Bone&#45;&gt;Pouch_Dust_Bone -->
<g id="edge10" class="edge"><title>Bone&#45;&gt;Pouch_Dust_Bone</title>
<path fill="none" stroke="black" d="M339.895,-347.799C339.758,-336.163 339.574,-320.548 339.417,-307.237"/>
<polygon fill="black" stroke="black" points="342.916,-307.134 339.299,-297.175 335.917,-307.216 342.916,-307.134"/>
<text text-anchor="middle" x="368.097" y="-318.8" font-family="Times New Roman,serif" font-size="14.00">Crafting 0</text>
</g>
<!-- Pouch_Dust_Moon&#45;&gt;Pouch_Dust_Pixie -->
<g id="edge4" class="edge"><title>Pouch_Dust_Moon&#45;&gt;Pouch_Dust_Pixie</title>
<path fill="none" stroke="black" d="M646.917,-263.485C604.427,-248.863 538.821,-226.286 493.356,-210.64"/>
<polygon fill="black" stroke="black" points="494.286,-207.258 483.691,-207.314 492.008,-213.877 494.286,-207.258"/>
<text text-anchor="middle" x="609.097" y="-231.8" font-family="Times New Roman,serif" font-size="14.00">Crafting 0</text>
</g>
</g>
</svg>
