<?xml version="1.0" encoding="UTF-8" standalone="no"?>
<!DOCTYPE svg PUBLIC "-//W3C//DTD SVG 1.1//EN"
 "http://www.w3.org/Graphics/SVG/1.1/DTD/svg11.dtd">
<!-- Generated by graphviz version 2.38.0 (20140413.2041)
 -->
<!-- Title: G Pages: 1 -->
<svg width="520pt" height="479pt"
 viewBox="0.00 0.00 519.83 479.00" xmlns="http://www.w3.org/2000/svg" xmlns:xlink="http://www.w3.org/1999/xlink">
<g id="graph0" class="graph" transform="scale(1 1) rotate(0) translate(4 475)">
<title>G</title>
<polygon fill="white" stroke="none" points="-4,4 -4,-475 515.83,-475 515.83,4 -4,4"/>
<!-- Herb_Augmentor -->
<g id="node1" class="node"><title>Herb_Augmentor</title>
<ellipse fill="none" stroke="black" cx="94.3864" cy="-192" rx="74.187" ry="18"/>
<text text-anchor="middle" x="94.3864" y="-188.3" font-family="Times New Roman,serif" font-size="14.00">Herb_Augmentor</text>
</g>
<!-- Potion_Intelligence_TempBoost_Medium -->
<g id="node2" class="node"><title>Potion_Intelligence_TempBoost_Medium</title>
<ellipse fill="none" stroke="black" cx="323.386" cy="-105" rx="163.271" ry="18"/>
<text text-anchor="middle" x="323.386" y="-101.3" font-family="Times New Roman,serif" font-size="14.00">Potion_Intelligence_TempBoost_Medium</text>
</g>
<!-- Herb_Augmentor&#45;&gt;Potion_Intelligence_TempBoost_Medium -->
<g id="edge2" class="edge"><title>Herb_Augmentor&#45;&gt;Potion_Intelligence_TempBoost_Medium</title>
<path fill="none" stroke="black" d="M133.233,-176.581C170.761,-162.651 227.915,-141.437 269.767,-125.902"/>
<polygon fill="black" stroke="black" points="271.095,-129.143 279.252,-122.382 268.659,-122.58 271.095,-129.143"/>
<text text-anchor="middle" x="251.386" y="-144.8" font-family="Times New Roman,serif" font-size="14.00">Crafting 4</text>
</g>
<!-- Potion_Intelligence_TempBoost_Large -->
<g id="node6" class="node"><title>Potion_Intelligence_TempBoost_Large</title>
<ellipse fill="none" stroke="black" cx="153.386" cy="-18" rx="153.273" ry="18"/>
<text text-anchor="middle" x="153.386" y="-14.3" font-family="Times New Roman,serif" font-size="14.00">Potion_Intelligence_TempBoost_Large</text>
</g>
<!-- Herb_Augmentor&#45;&gt;Potion_Intelligence_TempBoost_Large -->
<g id="edge1" class="edge"><title>Herb_Augmentor&#45;&gt;Potion_Intelligence_TempBoost_Large</title>
<path fill="none" stroke="black" d="M91.0665,-173.782C87.7574,-152.608 84.5699,-115.92 95.3864,-87 101.584,-70.4286 113.767,-55.129 125.374,-43.2557"/>
<polygon fill="black" stroke="black" points="128.132,-45.4555 132.85,-35.9692 123.246,-40.4428 128.132,-45.4555"/>
<text text-anchor="middle" x="123.386" y="-101.3" font-family="Times New Roman,serif" font-size="14.00">Crafting 5</text>
</g>
<!-- Potion_Intelligence_TempBoost_Medium&#45;&gt;Potion_Intelligence_TempBoost_Large -->
<g id="edge3" class="edge"><title>Potion_Intelligence_TempBoost_Medium&#45;&gt;Potion_Intelligence_TempBoost_Large</title>
<path fill="none" stroke="black" d="M289.8,-87.2067C262.82,-73.7167 224.77,-54.6916 195.708,-40.1607"/>
<polygon fill="black" stroke="black" points="197.123,-36.9552 186.613,-35.6135 193.993,-43.2162 197.123,-36.9552"/>
<text text-anchor="middle" x="277.386" y="-57.8" font-family="Times New Roman,serif" font-size="14.00">Crafting 5</text>
</g>
<!-- Potion_Empty -->
<g id="node3" class="node"><title>Potion_Empty</title>
<ellipse fill="none" stroke="black" cx="283.386" cy="-453" rx="63.8893" ry="18"/>
<text text-anchor="middle" x="283.386" y="-449.3" font-family="Times New Roman,serif" font-size="14.00">Potion_Empty</text>
</g>
<!-- Minor_Healing_Potion -->
<g id="node10" class="node"><title>Minor_Healing_Potion</title>
<ellipse fill="none" stroke="black" cx="361.386" cy="-366" rx="92.8835" ry="18"/>
<text text-anchor="middle" x="361.386" y="-362.3" font-family="Times New Roman,serif" font-size="14.00">Minor_Healing_Potion</text>
</g>
<!-- Potion_Empty&#45;&gt;Minor_Healing_Potion -->
<g id="edge4" class="edge"><title>Potion_Empty&#45;&gt;Minor_Healing_Potion</title>
<path fill="none" stroke="black" d="M298.797,-435.207C310.335,-422.633 326.285,-405.252 339.195,-391.182"/>
<polygon fill="black" stroke="black" points="341.826,-393.493 346.008,-383.758 336.668,-388.76 341.826,-393.493"/>
<text text-anchor="middle" x="354.386" y="-405.8" font-family="Times New Roman,serif" font-size="14.00">Crafting 1</text>
</g>
<!-- Potion_Reason -->
<g id="node4" class="node"><title>Potion_Reason</title>
<ellipse fill="none" stroke="black" cx="225.386" cy="-279" rx="66.8882" ry="18"/>
<text text-anchor="middle" x="225.386" y="-275.3" font-family="Times New Roman,serif" font-size="14.00">Potion_Reason</text>
</g>
<!-- Potion_Intelligence_TempBoost -->
<g id="node5" class="node"><title>Potion_Intelligence_TempBoost</title>
<ellipse fill="none" stroke="black" cx="323.386" cy="-192" rx="128.077" ry="18"/>
<text text-anchor="middle" x="323.386" y="-188.3" font-family="Times New Roman,serif" font-size="14.00">Potion_Intelligence_TempBoost</text>
</g>
<!-- Potion_Reason&#45;&gt;Potion_Intelligence_TempBoost -->
<g id="edge5" class="edge"><title>Potion_Reason&#45;&gt;Potion_Intelligence_TempBoost</title>
<path fill="none" stroke="black" d="M244.282,-261.611C259.004,-248.842 279.645,-230.939 296.151,-216.622"/>
<polygon fill="black" stroke="black" points="298.617,-219.117 303.878,-209.92 294.031,-213.829 298.617,-219.117"/>
<text text-anchor="middle" x="307.386" y="-231.8" font-family="Times New Roman,serif" font-size="14.00">Crafting 5</text>
</g>
<!-- Potion_Intelligence_TempBoost&#45;&gt;Potion_Intelligence_TempBoost_Medium -->
<g id="edge6" class="edge"><title>Potion_Intelligence_TempBoost&#45;&gt;Potion_Intelligence_TempBoost_Medium</title>
<path fill="none" stroke="black" d="M323.386,-173.799C323.386,-162.163 323.386,-146.548 323.386,-133.237"/>
<polygon fill="black" stroke="black" points="326.886,-133.175 323.386,-123.175 319.886,-133.175 326.886,-133.175"/>
<text text-anchor="middle" x="351.386" y="-144.8" font-family="Times New Roman,serif" font-size="14.00">Crafting 4</text>
</g>
<!-- Soul_Tormented -->
<g id="node7" class="node"><title>Soul_Tormented</title>
<ellipse fill="none" stroke="black" cx="382.386" cy="-279" rx="72.2875" ry="18"/>
<text text-anchor="middle" x="382.386" y="-275.3" font-family="Times New Roman,serif" font-size="14.00">Soul_Tormented</text>
</g>
<!-- Soul_Tormented&#45;&gt;Potion_Intelligence_TempBoost -->
<g id="edge7" class="edge"><title>Soul_Tormented&#45;&gt;Potion_Intelligence_TempBoost</title>
<path fill="none" stroke="black" d="M370.73,-261.207C362.3,-249.062 350.756,-232.431 341.178,-218.633"/>
<polygon fill="black" stroke="black" points="343.798,-216.269 335.221,-210.049 338.048,-220.26 343.798,-216.269"/>
<text text-anchor="middle" x="384.386" y="-231.8" font-family="Times New Roman,serif" font-size="14.00">Crafting 5</text>
</g>
<!-- Herb_Stardust -->
<g id="node8" class="node"><title>Herb_Stardust</title>
<ellipse fill="none" stroke="black" cx="186.386" cy="-366" rx="63.8893" ry="18"/>
<text text-anchor="middle" x="186.386" y="-362.3" font-family="Times New Roman,serif" font-size="14.00">Herb_Stardust</text>
</g>
<!-- Herb_Stardust&#45;&gt;Potion_Reason -->
<g id="edge8" class="edge"><title>Herb_Stardust&#45;&gt;Potion_Reason</title>
<path fill="none" stroke="black" d="M194.279,-347.799C199.759,-335.854 207.163,-319.717 213.373,-306.183"/>
<polygon fill="black" stroke="black" points="216.65,-307.434 217.639,-296.885 210.288,-304.515 216.65,-307.434"/>
<text text-anchor="middle" x="236.386" y="-318.8" font-family="Times New Roman,serif" font-size="14.00">Crafting 2</text>
</g>
<!-- Herb_Mushroom -->
<g id="node9" class="node"><title>Herb_Mushroom</title>
<ellipse fill="none" stroke="black" cx="438.386" cy="-453" rx="73.387" ry="18"/>
<text text-anchor="middle" x="438.386" y="-449.3" font-family="Times New Roman,serif" font-size="14.00">Herb_Mushroom</text>
</g>
<!-- Herb_Mushroom&#45;&gt;Minor_Healing_Potion -->
<g id="edge9" class="edge"><title>Herb_Mushroom&#45;&gt;Minor_Healing_Potion</title>
<path fill="none" stroke="black" d="M423.174,-435.207C411.784,-422.633 396.038,-405.252 383.293,-391.182"/>
<polygon fill="black" stroke="black" points="385.875,-388.82 376.568,-383.758 380.687,-393.519 385.875,-388.82"/>
<text text-anchor="middle" x="432.386" y="-405.8" font-family="Times New Roman,serif" font-size="14.00">Crafting 1</text>
</g>
<!-- Minor_Healing_Potion&#45;&gt;Potion_Reason -->
<g id="edge10" class="edge"><title>Minor_Healing_Potion&#45;&gt;Potion_Reason</title>
<path fill="none" stroke="black" d="M335.164,-348.611C313.536,-335.094 282.702,-315.822 259.215,-301.143"/>
<polygon fill="black" stroke="black" points="260.943,-298.096 250.608,-295.764 257.233,-304.032 260.943,-298.096"/>
<text text-anchor="middle" x="329.386" y="-318.8" font-family="Times New Roman,serif" font-size="14.00">Crafting 2</text>
</g>
</g>
</svg>
