<?xml version="1.0" encoding="UTF-8" standalone="no"?>
<!DOCTYPE svg PUBLIC "-//W3C//DTD SVG 1.1//EN"
 "http://www.w3.org/Graphics/SVG/1.1/DTD/svg11.dtd">
<!-- Generated by graphviz version 2.38.0 (20140413.2041)
 -->
<!-- Title: G Pages: 1 -->
<svg width="244pt" height="149pt"
 viewBox="0.00 0.00 243.54 148.74" xmlns="http://www.w3.org/2000/svg" xmlns:xlink="http://www.w3.org/1999/xlink">
<g id="graph0" class="graph" transform="scale(1 1) rotate(0) translate(4 144.74)">
<title>G</title>
<polygon fill="white" stroke="none" points="-4,4 -4,-144.74 239.54,-144.74 239.54,4 -4,4"/>
<!-- Crossbow -->
<g id="node1" class="node"><title>Crossbow</title>
<ellipse fill="none" stroke="black" cx="48.7457" cy="-122.74" rx="48.9926" ry="18"/>
<text text-anchor="middle" x="48.7457" y="-119.04" font-family="Times New Roman,serif" font-size="14.00">Crossbow</text>
</g>
<!-- Crossbow
+ Small_FireDamage -->
<g id="node3" class="node"><title>Crossbow
+ Small_FireDamage</title>
<ellipse fill="none" stroke="black" cx="111.746" cy="-26.8701" rx="94.5053" ry="26.7407"/>
<text text-anchor="middle" x="111.746" y="-30.6701" font-family="Times New Roman,serif" font-size="14.00">Crossbow</text>
<text text-anchor="middle" x="111.746" y="-15.6701" font-family="Times New Roman,serif" font-size="14.00">+ Small_FireDamage</text>
</g>
<!-- Crossbow&#45;&gt;Crossbow
+ Small_FireDamage -->
<g id="edge1" class="edge"><title>Crossbow&#45;&gt;Crossbow
+ Small_FireDamage</title>
<path fill="none" stroke="black" d="M60.0088,-104.958C68.0562,-92.9674 79.1595,-76.4235 89.0173,-61.7353"/>
<polygon fill="black" stroke="black" points="91.9785,-63.6038 94.645,-53.35 86.1661,-59.7029 91.9785,-63.6038"/>
<text text-anchor="middle" x="110.746" y="-75.5401" font-family="Times New Roman,serif" font-size="14.00">Crafting 5</text>
</g>
<!-- Essence_Fire -->
<g id="node2" class="node"><title>Essence_Fire</title>
<ellipse fill="none" stroke="black" cx="175.746" cy="-122.74" rx="59.5901" ry="18"/>
<text text-anchor="middle" x="175.746" y="-119.04" font-family="Times New Roman,serif" font-size="14.00">Essence_Fire</text>
</g>
<!-- Essence_Fire&#45;&gt;Crossbow
+ Small_FireDamage -->
<g id="edge2" class="edge"><title>Essence_Fire&#45;&gt;Crossbow
+ Small_FireDamage</title>
<path fill="none" stroke="black" d="M164.877,-104.985C158.505,-95.2333 150.255,-82.7333 142.746,-71.7401 140.502,-68.4552 138.145,-65.047 135.775,-61.6477"/>
<polygon fill="black" stroke="black" points="138.523,-59.4693 129.915,-53.2919 132.792,-63.4888 138.523,-59.4693"/>
<text text-anchor="middle" x="180.746" y="-75.5401" font-family="Times New Roman,serif" font-size="14.00">Crafting 5</text>
</g>
</g>
</svg>
