<?xml version="1.0" encoding="UTF-8" standalone="no"?>
<!DOCTYPE svg PUBLIC "-//W3C//DTD SVG 1.1//EN"
 "http://www.w3.org/Graphics/SVG/1.1/DTD/svg11.dtd">
<!-- Generated by graphviz version 2.38.0 (20140413.2041)
 -->
<!-- Title: G Pages: 1 -->
<svg width="219pt" height="149pt"
 viewBox="0.00 0.00 219.44 148.74" xmlns="http://www.w3.org/2000/svg" xmlns:xlink="http://www.w3.org/1999/xlink">
<g id="graph0" class="graph" transform="scale(1 1) rotate(0) translate(4 144.74)">
<title>G</title>
<polygon fill="white" stroke="none" points="-4,4 -4,-144.74 215.445,-144.74 215.445,4 -4,4"/>
<!-- ArmorGloves -->
<g id="node1" class="node"><title>ArmorGloves</title>
<ellipse fill="none" stroke="black" cx="60.4446" cy="-122.74" rx="60.3893" ry="18"/>
<text text-anchor="middle" x="60.4446" y="-119.04" font-family="Times New Roman,serif" font-size="14.00">ArmorGloves</text>
</g>
<!-- ArmorGloves
+ Small_AllResist -->
<g id="node2" class="node"><title>ArmorGloves
+ Small_AllResist</title>
<ellipse fill="none" stroke="black" cx="114.445" cy="-26.8701" rx="82.9636" ry="26.7407"/>
<text text-anchor="middle" x="114.445" y="-30.6701" font-family="Times New Roman,serif" font-size="14.00">ArmorGloves</text>
<text text-anchor="middle" x="114.445" y="-15.6701" font-family="Times New Roman,serif" font-size="14.00">+ Small_AllResist</text>
</g>
<!-- ArmorGloves&#45;&gt;ArmorGloves
+ Small_AllResist -->
<g id="edge1" class="edge"><title>ArmorGloves&#45;&gt;ArmorGloves
+ Small_AllResist</title>
<path fill="none" stroke="black" d="M70.0988,-104.958C76.9321,-93.0795 86.3359,-76.7324 94.726,-62.1476"/>
<polygon fill="black" stroke="black" points="97.8343,-63.7634 99.787,-53.35 91.7666,-60.2728 97.8343,-63.7634"/>
<text text-anchor="middle" x="117.445" y="-75.5401" font-family="Times New Roman,serif" font-size="14.00">Crafting 5</text>
</g>
<!-- Ruby -->
<g id="node3" class="node"><title>Ruby</title>
<ellipse fill="none" stroke="black" cx="169.445" cy="-122.74" rx="30.5947" ry="18"/>
<text text-anchor="middle" x="169.445" y="-119.04" font-family="Times New Roman,serif" font-size="14.00">Ruby</text>
</g>
<!-- Ruby&#45;&gt;ArmorGloves
+ Small_AllResist -->
<g id="edge2" class="edge"><title>Ruby&#45;&gt;ArmorGloves
+ Small_AllResist</title>
<path fill="none" stroke="black" d="M163.23,-105.058C159.25,-95.1067 153.674,-82.3793 147.445,-71.7401 145.443,-68.3218 143.222,-64.8571 140.904,-61.4512"/>
<polygon fill="black" stroke="black" points="143.663,-59.2908 135.018,-53.1659 137.957,-63.345 143.663,-59.2908"/>
<text text-anchor="middle" x="183.445" y="-75.5401" font-family="Times New Roman,serif" font-size="14.00">Crafting 5</text>
</g>
</g>
</svg>
