<?xml version="1.0" encoding="UTF-8" standalone="no"?>
<!DOCTYPE svg PUBLIC "-//W3C//DTD SVG 1.1//EN"
 "http://www.w3.org/Graphics/SVG/1.1/DTD/svg11.dtd">
<!-- Generated by graphviz version 2.38.0 (20140413.2041)
 -->
<!-- Title: G Pages: 1 -->
<svg width="780pt" height="305pt"
 viewBox="0.00 0.00 779.69 305.00" xmlns="http://www.w3.org/2000/svg" xmlns:xlink="http://www.w3.org/1999/xlink">
<g id="graph0" class="graph" transform="scale(1 1) rotate(0) translate(4 301)">
<title>G</title>
<polygon fill="white" stroke="none" points="-4,4 -4,-301 775.694,-301 775.694,4 -4,4"/>
<!-- ArrowHead_Antler -->
<g id="node1" class="node"><title>ArrowHead_Antler</title>
<ellipse fill="none" stroke="black" cx="659.694" cy="-192" rx="79.8859" ry="18"/>
<text text-anchor="middle" x="659.694" y="-188.3" font-family="Times New Roman,serif" font-size="14.00">ArrowHead_Antler</text>
</g>
<!-- Arrow_KO -->
<g id="node3" class="node"><title>Arrow_KO</title>
<ellipse fill="none" stroke="black" cx="504.694" cy="-105" rx="51.9908" ry="18"/>
<text text-anchor="middle" x="504.694" y="-101.3" font-family="Times New Roman,serif" font-size="14.00">Arrow_KO</text>
</g>
<!-- ArrowHead_Antler&#45;&gt;Arrow_KO -->
<g id="edge1" class="edge"><title>ArrowHead_Antler&#45;&gt;Arrow_KO</title>
<path fill="none" stroke="black" d="M630.54,-175.012C604.934,-160.97 567.604,-140.499 540.251,-125.499"/>
<polygon fill="black" stroke="black" points="541.839,-122.378 531.388,-120.638 538.473,-128.516 541.839,-122.378"/>
<text text-anchor="middle" x="619.694" y="-144.8" font-family="Times New Roman,serif" font-size="14.00">Crafting 1</text>
</g>
<!-- Potion_Empty -->
<g id="node2" class="node"><title>Potion_Empty</title>
<ellipse fill="none" stroke="black" cx="63.6943" cy="-279" rx="63.8893" ry="18"/>
<text text-anchor="middle" x="63.6943" y="-275.3" font-family="Times New Roman,serif" font-size="14.00">Potion_Empty</text>
</g>
<!-- Potion_Poison -->
<g id="node7" class="node"><title>Potion_Poison</title>
<ellipse fill="none" stroke="black" cx="206.694" cy="-192" rx="64.9885" ry="18"/>
<text text-anchor="middle" x="206.694" y="-188.3" font-family="Times New Roman,serif" font-size="14.00">Potion_Poison</text>
</g>
<!-- Potion_Empty&#45;&gt;Potion_Poison -->
<g id="edge2" class="edge"><title>Potion_Empty&#45;&gt;Potion_Poison</title>
<path fill="none" stroke="black" d="M88.7158,-262.205C104.645,-252.236 125.769,-239.177 144.694,-228 152.823,-223.199 161.62,-218.148 169.963,-213.423"/>
<polygon fill="black" stroke="black" points="171.791,-216.41 178.784,-208.45 168.354,-210.312 171.791,-216.41"/>
<text text-anchor="middle" x="172.694" y="-231.8" font-family="Times New Roman,serif" font-size="14.00">Crafting 0</text>
</g>
<!-- Arrow_Debuff_Perception -->
<g id="node13" class="node"><title>Arrow_Debuff_Perception</title>
<ellipse fill="none" stroke="black" cx="426.694" cy="-18" rx="108.581" ry="18"/>
<text text-anchor="middle" x="426.694" y="-14.3" font-family="Times New Roman,serif" font-size="14.00">Arrow_Debuff_Perception</text>
</g>
<!-- Arrow_KO&#45;&gt;Arrow_Debuff_Perception -->
<g id="edge3" class="edge"><title>Arrow_KO&#45;&gt;Arrow_Debuff_Perception</title>
<path fill="none" stroke="black" d="M489.655,-87.6111C478.151,-75.0742 462.104,-57.588 449.091,-43.4065"/>
<polygon fill="black" stroke="black" points="451.561,-40.9219 442.221,-35.9203 446.404,-45.6547 451.561,-40.9219"/>
<text text-anchor="middle" x="498.694" y="-57.8" font-family="Times New Roman,serif" font-size="14.00">Crafting 2</text>
</g>
<!-- Potion_Debuf_Perception -->
<g id="node4" class="node"><title>Potion_Debuf_Perception</title>
<ellipse fill="none" stroke="black" cx="323.694" cy="-105" rx="105.881" ry="18"/>
<text text-anchor="middle" x="323.694" y="-101.3" font-family="Times New Roman,serif" font-size="14.00">Potion_Debuf_Perception</text>
</g>
<!-- Potion_Debuf_Perception&#45;&gt;Arrow_Debuff_Perception -->
<g id="edge4" class="edge"><title>Potion_Debuf_Perception&#45;&gt;Arrow_Debuff_Perception</title>
<path fill="none" stroke="black" d="M344.044,-87.2067C359.562,-74.4006 381.124,-56.6066 398.334,-42.4043"/>
<polygon fill="black" stroke="black" points="400.902,-44.8228 406.387,-35.7584 396.447,-39.4239 400.902,-44.8228"/>
<text text-anchor="middle" x="409.694" y="-57.8" font-family="Times New Roman,serif" font-size="14.00">Crafting 2</text>
</g>
<!-- Barrel_Ooze -->
<g id="node5" class="node"><title>Barrel_Ooze</title>
<ellipse fill="none" stroke="black" cx="201.694" cy="-279" rx="56.59" ry="18"/>
<text text-anchor="middle" x="201.694" y="-275.3" font-family="Times New Roman,serif" font-size="14.00">Barrel_Ooze</text>
</g>
<!-- Barrel_Ooze&#45;&gt;Potion_Poison -->
<g id="edge5" class="edge"><title>Barrel_Ooze&#45;&gt;Potion_Poison</title>
<path fill="none" stroke="black" d="M202.706,-260.799C203.391,-249.163 204.309,-233.548 205.092,-220.237"/>
<polygon fill="black" stroke="black" points="208.591,-220.364 205.684,-210.175 201.603,-219.953 208.591,-220.364"/>
<text text-anchor="middle" x="232.694" y="-231.8" font-family="Times New Roman,serif" font-size="14.00">Crafting 0</text>
</g>
<!-- ArrowShaft -->
<g id="node6" class="node"><title>ArrowShaft</title>
<ellipse fill="none" stroke="black" cx="504.694" cy="-192" rx="53.0913" ry="18"/>
<text text-anchor="middle" x="504.694" y="-188.3" font-family="Times New Roman,serif" font-size="14.00">ArrowShaft</text>
</g>
<!-- ArrowShaft&#45;&gt;Arrow_KO -->
<g id="edge6" class="edge"><title>ArrowShaft&#45;&gt;Arrow_KO</title>
<path fill="none" stroke="black" d="M504.694,-173.799C504.694,-162.163 504.694,-146.548 504.694,-133.237"/>
<polygon fill="black" stroke="black" points="508.194,-133.175 504.694,-123.175 501.194,-133.175 508.194,-133.175"/>
<text text-anchor="middle" x="532.694" y="-144.8" font-family="Times New Roman,serif" font-size="14.00">Crafting 1</text>
</g>
<!-- Potion_Poison&#45;&gt;Potion_Debuf_Perception -->
<g id="edge7" class="edge"><title>Potion_Poison&#45;&gt;Potion_Debuf_Perception</title>
<path fill="none" stroke="black" d="M223.934,-174.318C234.88,-164.13 249.594,-151.154 263.694,-141 270.162,-136.342 277.29,-131.757 284.306,-127.517"/>
<polygon fill="black" stroke="black" points="286.234,-130.443 293.074,-122.351 282.681,-124.411 286.234,-130.443"/>
<text text-anchor="middle" x="291.694" y="-144.8" font-family="Times New Roman,serif" font-size="14.00">Crafting 2</text>
</g>
<!-- Branch -->
<g id="node8" class="node"><title>Branch</title>
<ellipse fill="none" stroke="black" cx="501.694" cy="-279" rx="36.2938" ry="18"/>
<text text-anchor="middle" x="501.694" y="-275.3" font-family="Times New Roman,serif" font-size="14.00">Branch</text>
</g>
<!-- Branch&#45;&gt;ArrowShaft -->
<g id="edge8" class="edge"><title>Branch&#45;&gt;ArrowShaft</title>
<path fill="none" stroke="black" d="M501.88,-260.871C502.024,-251.215 502.273,-238.932 502.694,-228 502.793,-225.446 502.913,-222.787 503.045,-220.128"/>
<polygon fill="black" stroke="black" points="506.543,-220.259 503.591,-210.084 499.553,-219.879 506.543,-220.259"/>
<text text-anchor="middle" x="530.694" y="-231.8" font-family="Times New Roman,serif" font-size="14.00">Crafting 0</text>
</g>
<!-- Eye -->
<g id="node9" class="node"><title>Eye</title>
<ellipse fill="none" stroke="black" cx="323.694" cy="-192" rx="27" ry="18"/>
<text text-anchor="middle" x="323.694" y="-188.3" font-family="Times New Roman,serif" font-size="14.00">Eye</text>
</g>
<!-- Eye&#45;&gt;Potion_Debuf_Perception -->
<g id="edge9" class="edge"><title>Eye&#45;&gt;Potion_Debuf_Perception</title>
<path fill="none" stroke="black" d="M323.694,-173.799C323.694,-162.163 323.694,-146.548 323.694,-133.237"/>
<polygon fill="black" stroke="black" points="327.194,-133.175 323.694,-123.175 320.194,-133.175 327.194,-133.175"/>
<text text-anchor="middle" x="351.694" y="-144.8" font-family="Times New Roman,serif" font-size="14.00">Crafting 2</text>
</g>
<!-- Antler -->
<g id="node10" class="node"><title>Antler</title>
<ellipse fill="none" stroke="black" cx="738.694" cy="-279" rx="32.4942" ry="18"/>
<text text-anchor="middle" x="738.694" y="-275.3" font-family="Times New Roman,serif" font-size="14.00">Antler</text>
</g>
<!-- Antler&#45;&gt;ArrowHead_Antler -->
<g id="edge10" class="edge"><title>Antler&#45;&gt;ArrowHead_Antler</title>
<path fill="none" stroke="black" d="M729.052,-261.803C722.556,-251.557 713.422,-238.343 703.694,-228 699.667,-223.718 695.1,-219.514 690.47,-215.589"/>
<polygon fill="black" stroke="black" points="692.671,-212.867 682.702,-209.279 688.258,-218.301 692.671,-212.867"/>
<text text-anchor="middle" x="743.694" y="-231.8" font-family="Times New Roman,serif" font-size="14.00">Crafting 1</text>
</g>
<!-- Herb_Mushroom_C -->
<g id="node11" class="node"><title>Herb_Mushroom_C</title>
<ellipse fill="none" stroke="black" cx="361.694" cy="-279" rx="85.2851" ry="18"/>
<text text-anchor="middle" x="361.694" y="-275.3" font-family="Times New Roman,serif" font-size="14.00">Herb_Mushroom_C</text>
</g>
<!-- Herb_Mushroom_C&#45;&gt;Potion_Poison -->
<g id="edge11" class="edge"><title>Herb_Mushroom_C&#45;&gt;Potion_Poison</title>
<path fill="none" stroke="black" d="M332.54,-262.012C307.328,-248.186 270.75,-228.127 243.52,-213.195"/>
<polygon fill="black" stroke="black" points="245.125,-210.083 234.674,-208.344 241.759,-216.221 245.125,-210.083"/>
<text text-anchor="middle" x="321.694" y="-231.8" font-family="Times New Roman,serif" font-size="14.00">Crafting 1</text>
</g>
<!-- Knife -->
<g id="node12" class="node"><title>Knife</title>
<ellipse fill="none" stroke="black" cx="622.694" cy="-279" rx="30.5947" ry="18"/>
<text text-anchor="middle" x="622.694" y="-275.3" font-family="Times New Roman,serif" font-size="14.00">Knife</text>
</g>
<!-- Knife&#45;&gt;ArrowHead_Antler -->
<g id="edge13" class="edge"><title>Knife&#45;&gt;ArrowHead_Antler</title>
<path fill="none" stroke="black" d="M630.004,-261.207C635.19,-249.293 642.255,-233.063 648.192,-219.424"/>
<polygon fill="black" stroke="black" points="651.491,-220.615 652.273,-210.049 645.072,-217.821 651.491,-220.615"/>
<text text-anchor="middle" x="671.694" y="-231.8" font-family="Times New Roman,serif" font-size="14.00">Crafting 1</text>
</g>
<!-- Knife&#45;&gt;ArrowShaft -->
<g id="edge12" class="edge"><title>Knife&#45;&gt;ArrowShaft</title>
<path fill="none" stroke="black" d="M605.624,-263.998C592.908,-253.732 575,-239.619 558.694,-228 551.977,-223.213 544.643,-218.277 537.607,-213.675"/>
<polygon fill="black" stroke="black" points="539.221,-210.55 528.922,-208.061 535.42,-216.429 539.221,-210.55"/>
<text text-anchor="middle" x="606.694" y="-231.8" font-family="Times New Roman,serif" font-size="14.00">Crafting 0</text>
</g>
</g>
</svg>
