<?xml version="1.0" encoding="UTF-8" standalone="no"?>
<!DOCTYPE svg PUBLIC "-//W3C//DTD SVG 1.1//EN"
 "http://www.w3.org/Graphics/SVG/1.1/DTD/svg11.dtd">
<!-- Generated by graphviz version 2.38.0 (20140413.2041)
 -->
<!-- Title: G Pages: 1 -->
<svg width="220pt" height="149pt"
 viewBox="0.00 0.00 219.79 148.74" xmlns="http://www.w3.org/2000/svg" xmlns:xlink="http://www.w3.org/1999/xlink">
<g id="graph0" class="graph" transform="scale(1 1) rotate(0) translate(4 144.74)">
<title>G</title>
<polygon fill="white" stroke="none" points="-4,4 -4,-144.74 215.79,-144.74 215.79,4 -4,4"/>
<!-- Pearl -->
<g id="node1" class="node"><title>Pearl</title>
<ellipse fill="none" stroke="black" cx="45.9949" cy="-122.74" rx="28.6953" ry="18"/>
<text text-anchor="middle" x="45.9949" y="-119.04" font-family="Times New Roman,serif" font-size="14.00">Pearl</text>
</g>
<!-- ArmorHelmet
+ Body_Boost_Value -->
<g id="node3" class="node"><title>ArmorHelmet
+ Body_Boost_Value</title>
<ellipse fill="none" stroke="black" cx="98.9949" cy="-26.8701" rx="98.9899" ry="26.7407"/>
<text text-anchor="middle" x="98.9949" y="-30.6701" font-family="Times New Roman,serif" font-size="14.00">ArmorHelmet</text>
<text text-anchor="middle" x="98.9949" y="-15.6701" font-family="Times New Roman,serif" font-size="14.00">+ Body_Boost_Value</text>
</g>
<!-- Pearl&#45;&gt;ArmorHelmet
+ Body_Boost_Value -->
<g id="edge1" class="edge"><title>Pearl&#45;&gt;ArmorHelmet
+ Body_Boost_Value</title>
<path fill="none" stroke="black" d="M55.0436,-105.51C60.5123,-95.7189 67.6334,-83.0011 73.9949,-71.7401 75.6846,-68.7491 77.4428,-65.6459 79.2089,-62.5348"/>
<polygon fill="black" stroke="black" points="82.2564,-64.256 84.157,-53.8331 76.1714,-60.7959 82.2564,-64.256"/>
<text text-anchor="middle" x="101.995" y="-75.5401" font-family="Times New Roman,serif" font-size="14.00">Crafting 1</text>
</g>
<!-- ArmorHelmet -->
<g id="node2" class="node"><title>ArmorHelmet</title>
<ellipse fill="none" stroke="black" cx="151.995" cy="-122.74" rx="59.5901" ry="18"/>
<text text-anchor="middle" x="151.995" y="-119.04" font-family="Times New Roman,serif" font-size="14.00">ArmorHelmet</text>
</g>
<!-- ArmorHelmet&#45;&gt;ArmorHelmet
+ Body_Boost_Value -->
<g id="edge2" class="edge"><title>ArmorHelmet&#45;&gt;ArmorHelmet
+ Body_Boost_Value</title>
<path fill="none" stroke="black" d="M145.478,-104.664C141.472,-94.8057 135.972,-82.3057 129.995,-71.7401 128.141,-68.4628 126.101,-65.1281 123.979,-61.8355"/>
<polygon fill="black" stroke="black" points="126.722,-59.6418 118.245,-53.2868 120.909,-63.5413 126.722,-59.6418"/>
<text text-anchor="middle" x="164.995" y="-75.5401" font-family="Times New Roman,serif" font-size="14.00">Crafting 1</text>
</g>
</g>
</svg>
