<?xml version="1.0" encoding="UTF-8" standalone="no"?>
<!DOCTYPE svg PUBLIC "-//W3C//DTD SVG 1.1//EN"
 "http://www.w3.org/Graphics/SVG/1.1/DTD/svg11.dtd">
<!-- Generated by graphviz version 2.38.0 (20140413.2041)
 -->
<!-- Title: G Pages: 1 -->
<svg width="996pt" height="479pt"
 viewBox="0.00 0.00 996.39 479.00" xmlns="http://www.w3.org/2000/svg" xmlns:xlink="http://www.w3.org/1999/xlink">
<g id="graph0" class="graph" transform="scale(1 1) rotate(0) translate(4 475)">
<title>G</title>
<polygon fill="white" stroke="none" points="-4,4 -4,-475 992.392,-475 992.392,4 -4,4"/>
<!-- Pouch_Dust_Pixie -->
<g id="node1" class="node"><title>Pouch_Dust_Pixie</title>
<ellipse fill="none" stroke="black" cx="520.397" cy="-192" rx="78.7863" ry="18"/>
<text text-anchor="middle" x="520.397" y="-188.3" font-family="Times New Roman,serif" font-size="14.00">Pouch_Dust_Pixie</text>
</g>
<!-- Ink_Pot_A_Quill_A_Magic -->
<g id="node14" class="node"><title>Ink_Pot_A_Quill_A_Magic</title>
<ellipse fill="none" stroke="black" cx="475.397" cy="-105" rx="111.581" ry="18"/>
<text text-anchor="middle" x="475.397" y="-101.3" font-family="Times New Roman,serif" font-size="14.00">Ink_Pot_A_Quill_A_Magic</text>
</g>
<!-- Pouch_Dust_Pixie&#45;&gt;Ink_Pot_A_Quill_A_Magic -->
<g id="edge1" class="edge"><title>Pouch_Dust_Pixie&#45;&gt;Ink_Pot_A_Quill_A_Magic</title>
<path fill="none" stroke="black" d="M511.29,-173.799C504.947,-161.817 496.37,-145.617 489.192,-132.057"/>
<polygon fill="black" stroke="black" points="492.262,-130.376 484.49,-123.175 486.075,-133.651 492.262,-130.376"/>
<text text-anchor="middle" x="528.397" y="-144.8" font-family="Times New Roman,serif" font-size="14.00">Crafting 1</text>
</g>
<!-- Dagger -->
<g id="node2" class="node"><title>Dagger</title>
<ellipse fill="none" stroke="black" cx="36.3968" cy="-453" rx="36.2938" ry="18"/>
<text text-anchor="middle" x="36.3968" y="-449.3" font-family="Times New Roman,serif" font-size="14.00">Dagger</text>
</g>
<!-- Feather_A_Quill -->
<g id="node8" class="node"><title>Feather_A_Quill</title>
<ellipse fill="none" stroke="black" cx="157.397" cy="-279" rx="70.6878" ry="18"/>
<text text-anchor="middle" x="157.397" y="-275.3" font-family="Times New Roman,serif" font-size="14.00">Feather_A_Quill</text>
</g>
<!-- Dagger&#45;&gt;Feather_A_Quill -->
<g id="edge3" class="edge"><title>Dagger&#45;&gt;Feather_A_Quill</title>
<path fill="none" stroke="black" d="M32.7461,-434.718C29.1005,-412.821 26.1173,-374.719 42.3968,-348 56.6732,-324.568 82.3118,-308.272 105.763,-297.519"/>
<polygon fill="black" stroke="black" points="107.177,-300.721 114.955,-293.527 104.388,-294.301 107.177,-300.721"/>
<text text-anchor="middle" x="70.3968" y="-362.3" font-family="Times New Roman,serif" font-size="14.00">Crafting 0</text>
</g>
<!-- Feather -->
<g id="node15" class="node"><title>Feather</title>
<ellipse fill="none" stroke="black" cx="145.397" cy="-366" rx="37.8943" ry="18"/>
<text text-anchor="middle" x="145.397" y="-362.3" font-family="Times New Roman,serif" font-size="14.00">Feather</text>
</g>
<!-- Dagger&#45;&gt;Feather -->
<g id="edge4" class="edge"><title>Dagger&#45;&gt;Feather</title>
<path fill="none" stroke="black" d="M46.7923,-435.628C54.1112,-425.054 64.6672,-411.539 76.3968,-402 85.8272,-394.331 97.2123,-387.711 107.992,-382.355"/>
<polygon fill="black" stroke="black" points="109.7,-385.419 117.244,-377.981 106.708,-379.091 109.7,-385.419"/>
<text text-anchor="middle" x="104.397" y="-405.8" font-family="Times New Roman,serif" font-size="14.00">Crafting 0</text>
</g>
<!-- Quest_CYS_BlossiusWill -->
<g id="node3" class="node"><title>Quest_CYS_BlossiusWill</title>
<ellipse fill="none" stroke="black" cx="148.397" cy="-105" rx="105.082" ry="18"/>
<text text-anchor="middle" x="148.397" y="-101.3" font-family="Times New Roman,serif" font-size="14.00">Quest_CYS_BlossiusWill</text>
</g>
<!-- Quest_CYS_BlossiusWillAltered -->
<g id="node6" class="node"><title>Quest_CYS_BlossiusWillAltered</title>
<ellipse fill="none" stroke="black" cx="289.397" cy="-18" rx="131.877" ry="18"/>
<text text-anchor="middle" x="289.397" y="-14.3" font-family="Times New Roman,serif" font-size="14.00">Quest_CYS_BlossiusWillAltered</text>
</g>
<!-- Quest_CYS_BlossiusWill&#45;&gt;Quest_CYS_BlossiusWillAltered -->
<g id="edge5" class="edge"><title>Quest_CYS_BlossiusWill&#45;&gt;Quest_CYS_BlossiusWillAltered</title>
<path fill="none" stroke="black" d="M170.209,-87.3563C183.971,-77.1822 202.314,-64.2077 219.397,-54 227.448,-49.189 236.248,-44.4276 244.806,-40.0389"/>
<polygon fill="black" stroke="black" points="246.59,-43.0591 253.951,-35.4383 243.445,-36.8057 246.59,-43.0591"/>
<text text-anchor="middle" x="247.397" y="-57.8" font-family="Times New Roman,serif" font-size="14.00">Crafting 0</text>
</g>
<!-- Bone -->
<g id="node4" class="node"><title>Bone</title>
<ellipse fill="none" stroke="black" cx="390.397" cy="-366" rx="29.795" ry="18"/>
<text text-anchor="middle" x="390.397" y="-362.3" font-family="Times New Roman,serif" font-size="14.00">Bone</text>
</g>
<!-- Pouch_Dust_Bone -->
<g id="node5" class="node"><title>Pouch_Dust_Bone</title>
<ellipse fill="none" stroke="black" cx="484.397" cy="-279" rx="79.8859" ry="18"/>
<text text-anchor="middle" x="484.397" y="-275.3" font-family="Times New Roman,serif" font-size="14.00">Pouch_Dust_Bone</text>
</g>
<!-- Bone&#45;&gt;Pouch_Dust_Bone -->
<g id="edge22" class="edge"><title>Bone&#45;&gt;Pouch_Dust_Bone</title>
<path fill="none" stroke="black" d="M399.293,-348.8C405.613,-338.298 414.831,-324.799 425.397,-315 430.86,-309.933 437.177,-305.253 443.603,-301.072"/>
<polygon fill="black" stroke="black" points="445.675,-303.907 452.366,-295.692 442.012,-297.942 445.675,-303.907"/>
<text text-anchor="middle" x="453.397" y="-318.8" font-family="Times New Roman,serif" font-size="14.00">Crafting 0</text>
</g>
<!-- Pouch_Dust_Bone&#45;&gt;Pouch_Dust_Pixie -->
<g id="edge6" class="edge"><title>Pouch_Dust_Bone&#45;&gt;Pouch_Dust_Pixie</title>
<path fill="none" stroke="black" d="M491.682,-260.799C496.708,-248.932 503.486,-232.928 509.195,-219.449"/>
<polygon fill="black" stroke="black" points="512.445,-220.749 513.122,-210.175 506,-218.019 512.445,-220.749"/>
<text text-anchor="middle" x="532.397" y="-231.8" font-family="Times New Roman,serif" font-size="14.00">Crafting 0</text>
</g>
<!-- Pillow -->
<g id="node7" class="node"><title>Pillow</title>
<ellipse fill="none" stroke="black" cx="136.397" cy="-453" rx="33.2948" ry="18"/>
<text text-anchor="middle" x="136.397" y="-449.3" font-family="Times New Roman,serif" font-size="14.00">Pillow</text>
</g>
<!-- Pillow&#45;&gt;Feather -->
<g id="edge21" class="edge"><title>Pillow&#45;&gt;Feather</title>
<path fill="none" stroke="black" d="M135.876,-434.814C135.798,-425.14 136.062,-412.858 137.397,-402 137.728,-399.309 138.177,-396.522 138.695,-393.749"/>
<polygon fill="black" stroke="black" points="142.119,-394.476 140.784,-383.966 135.273,-393.015 142.119,-394.476"/>
<text text-anchor="middle" x="165.397" y="-405.8" font-family="Times New Roman,serif" font-size="14.00">Crafting 0</text>
</g>
<!-- Ink_Pot_A_Quill -->
<g id="node9" class="node"><title>Ink_Pot_A_Quill</title>
<ellipse fill="none" stroke="black" cx="289.397" cy="-192" rx="73.387" ry="18"/>
<text text-anchor="middle" x="289.397" y="-188.3" font-family="Times New Roman,serif" font-size="14.00">Ink_Pot_A_Quill</text>
</g>
<!-- Feather_A_Quill&#45;&gt;Ink_Pot_A_Quill -->
<g id="edge7" class="edge"><title>Feather_A_Quill&#45;&gt;Ink_Pot_A_Quill</title>
<path fill="none" stroke="black" d="M179.787,-261.772C193.844,-251.755 212.458,-238.799 229.397,-228 236.779,-223.294 244.799,-218.443 252.501,-213.907"/>
<polygon fill="black" stroke="black" points="254.464,-216.814 261.341,-208.754 250.939,-210.766 254.464,-216.814"/>
<text text-anchor="middle" x="257.397" y="-231.8" font-family="Times New Roman,serif" font-size="14.00">Crafting 0</text>
</g>
<!-- Ink_Pot_A_Quill&#45;&gt;Quest_CYS_BlossiusWillAltered -->
<g id="edge9" class="edge"><title>Ink_Pot_A_Quill&#45;&gt;Quest_CYS_BlossiusWillAltered</title>
<path fill="none" stroke="black" d="M289.397,-173.879C289.397,-144.001 289.397,-82.1129 289.397,-46.2736"/>
<polygon fill="black" stroke="black" points="292.897,-46.0516 289.397,-36.0516 285.897,-46.0516 292.897,-46.0516"/>
<text text-anchor="middle" x="317.397" y="-101.3" font-family="Times New Roman,serif" font-size="14.00">Crafting 0</text>
</g>
<!-- Ink_Pot_A_Quill&#45;&gt;Ink_Pot_A_Quill_A_Magic -->
<g id="edge8" class="edge"><title>Ink_Pot_A_Quill&#45;&gt;Ink_Pot_A_Quill_A_Magic</title>
<path fill="none" stroke="black" d="M322.65,-175.804C352.703,-162.07 397.191,-141.739 430.414,-126.557"/>
<polygon fill="black" stroke="black" points="432.258,-129.562 439.898,-122.222 429.348,-123.196 432.258,-129.562"/>
<text text-anchor="middle" x="421.397" y="-144.8" font-family="Times New Roman,serif" font-size="14.00">Crafting 1</text>
</g>
<!-- Moonstone -->
<g id="node10" class="node"><title>Moonstone</title>
<ellipse fill="none" stroke="black" cx="936.397" cy="-366" rx="51.9908" ry="18"/>
<text text-anchor="middle" x="936.397" y="-362.3" font-family="Times New Roman,serif" font-size="14.00">Moonstone</text>
</g>
<!-- Pouch_Dust_Moon -->
<g id="node19" class="node"><title>Pouch_Dust_Moon</title>
<ellipse fill="none" stroke="black" cx="834.397" cy="-279" rx="83.3857" ry="18"/>
<text text-anchor="middle" x="834.397" y="-275.3" font-family="Times New Roman,serif" font-size="14.00">Pouch_Dust_Moon</text>
</g>
<!-- Moonstone&#45;&gt;Pouch_Dust_Moon -->
<g id="edge10" class="edge"><title>Moonstone&#45;&gt;Pouch_Dust_Moon</title>
<path fill="none" stroke="black" d="M917.211,-349.012C901.738,-336.118 879.76,-317.802 862.333,-303.28"/>
<polygon fill="black" stroke="black" points="864.115,-300.209 854.192,-296.496 859.633,-305.587 864.115,-300.209"/>
<text text-anchor="middle" x="919.397" y="-318.8" font-family="Times New Roman,serif" font-size="14.00">Crafting 0</text>
</g>
<!-- Pouch_Dust_Star -->
<g id="node11" class="node"><title>Pouch_Dust_Star</title>
<ellipse fill="none" stroke="black" cx="657.397" cy="-279" rx="75.2868" ry="18"/>
<text text-anchor="middle" x="657.397" y="-275.3" font-family="Times New Roman,serif" font-size="14.00">Pouch_Dust_Star</text>
</g>
<!-- Pouch_Dust_Star&#45;&gt;Pouch_Dust_Pixie -->
<g id="edge11" class="edge"><title>Pouch_Dust_Star&#45;&gt;Pouch_Dust_Pixie</title>
<path fill="none" stroke="black" d="M631.628,-262.012C610.047,-248.622 579.044,-229.387 555.248,-214.623"/>
<polygon fill="black" stroke="black" points="556.858,-211.503 546.516,-209.205 553.168,-217.451 556.858,-211.503"/>
<text text-anchor="middle" x="624.397" y="-231.8" font-family="Times New Roman,serif" font-size="14.00">Crafting 0</text>
</g>
<!-- Knife -->
<g id="node12" class="node"><title>Knife</title>
<ellipse fill="none" stroke="black" cx="252.397" cy="-453" rx="30.5947" ry="18"/>
<text text-anchor="middle" x="252.397" y="-449.3" font-family="Times New Roman,serif" font-size="14.00">Knife</text>
</g>
<!-- Knife&#45;&gt;Feather_A_Quill -->
<g id="edge12" class="edge"><title>Knife&#45;&gt;Feather_A_Quill</title>
<path fill="none" stroke="black" d="M264.511,-436.465C270.634,-426.708 276.066,-413.783 272.397,-402 258.432,-357.154 246.219,-347.593 212.397,-315 207.13,-309.925 201.017,-305.181 194.821,-300.926"/>
<polygon fill="black" stroke="black" points="196.683,-297.961 186.393,-295.44 192.865,-303.828 196.683,-297.961"/>
<text text-anchor="middle" x="294.397" y="-362.3" font-family="Times New Roman,serif" font-size="14.00">Crafting 0</text>
</g>
<!-- Knife&#45;&gt;Feather -->
<g id="edge13" class="edge"><title>Knife&#45;&gt;Feather</title>
<path fill="none" stroke="black" d="M236.133,-437.664C224.431,-427.486 208.171,-413.622 193.397,-402 187.267,-397.178 180.569,-392.15 174.175,-387.46"/>
<polygon fill="black" stroke="black" points="175.873,-384.367 165.725,-381.323 171.76,-390.031 175.873,-384.367"/>
<text text-anchor="middle" x="240.397" y="-405.8" font-family="Times New Roman,serif" font-size="14.00">Crafting 0</text>
</g>
<!-- Herb_Stardust -->
<g id="node13" class="node"><title>Herb_Stardust</title>
<ellipse fill="none" stroke="black" cx="802.397" cy="-366" rx="63.8893" ry="18"/>
<text text-anchor="middle" x="802.397" y="-362.3" font-family="Times New Roman,serif" font-size="14.00">Herb_Stardust</text>
</g>
<!-- Herb_Stardust&#45;&gt;Pouch_Dust_Star -->
<g id="edge18" class="edge"><title>Herb_Stardust&#45;&gt;Pouch_Dust_Star</title>
<path fill="none" stroke="black" d="M798.837,-347.926C795.722,-337.055 790.121,-323.473 780.397,-315 771.275,-307.052 747.628,-299.528 723.476,-293.507"/>
<polygon fill="black" stroke="black" points="724.042,-290.044 713.501,-291.107 722.405,-296.85 724.042,-290.044"/>
<text text-anchor="middle" x="818.397" y="-318.8" font-family="Times New Roman,serif" font-size="14.00">Crafting 0</text>
</g>
<!-- Ink_Pot_A_Quill_A_Magic&#45;&gt;Quest_CYS_BlossiusWillAltered -->
<g id="edge2" class="edge"><title>Ink_Pot_A_Quill_A_Magic&#45;&gt;Quest_CYS_BlossiusWillAltered</title>
<path fill="none" stroke="black" d="M439.974,-87.8121C410.043,-74.1339 366.994,-54.461 334.585,-39.6505"/>
<polygon fill="black" stroke="black" points="335.871,-36.3903 325.321,-35.4172 332.962,-42.757 335.871,-36.3903"/>
<text text-anchor="middle" x="421.397" y="-57.8" font-family="Times New Roman,serif" font-size="14.00">Crafting 0</text>
</g>
<!-- Feather&#45;&gt;Feather_A_Quill -->
<g id="edge19" class="edge"><title>Feather&#45;&gt;Feather_A_Quill</title>
<path fill="none" stroke="black" d="M147.825,-347.799C149.468,-336.163 151.672,-320.548 153.552,-307.237"/>
<polygon fill="black" stroke="black" points="157.04,-307.567 154.972,-297.175 150.108,-306.588 157.04,-307.567"/>
<text text-anchor="middle" x="180.397" y="-318.8" font-family="Times New Roman,serif" font-size="14.00">Crafting 0</text>
</g>
<!-- Ink_Pot -->
<g id="node16" class="node"><title>Ink_Pot</title>
<ellipse fill="none" stroke="black" cx="289.397" cy="-279" rx="40.0939" ry="18"/>
<text text-anchor="middle" x="289.397" y="-275.3" font-family="Times New Roman,serif" font-size="14.00">Ink_Pot</text>
</g>
<!-- Ink_Pot&#45;&gt;Ink_Pot_A_Quill -->
<g id="edge23" class="edge"><title>Ink_Pot&#45;&gt;Ink_Pot_A_Quill</title>
<path fill="none" stroke="black" d="M289.397,-260.799C289.397,-249.163 289.397,-233.548 289.397,-220.237"/>
<polygon fill="black" stroke="black" points="292.897,-220.175 289.397,-210.175 285.897,-220.175 292.897,-220.175"/>
<text text-anchor="middle" x="317.397" y="-231.8" font-family="Times New Roman,serif" font-size="14.00">Crafting 0</text>
</g>
<!-- Skull_Human -->
<g id="node17" class="node"><title>Skull_Human</title>
<ellipse fill="none" stroke="black" cx="498.397" cy="-366" rx="59.5901" ry="18"/>
<text text-anchor="middle" x="498.397" y="-362.3" font-family="Times New Roman,serif" font-size="14.00">Skull_Human</text>
</g>
<!-- Skull_Human&#45;&gt;Pouch_Dust_Bone -->
<g id="edge14" class="edge"><title>Skull_Human&#45;&gt;Pouch_Dust_Bone</title>
<path fill="none" stroke="black" d="M492.06,-347.765C490.253,-342.171 488.482,-335.888 487.397,-330 486.063,-322.76 485.283,-314.841 484.837,-307.483"/>
<polygon fill="black" stroke="black" points="488.323,-307.09 484.396,-297.25 481.33,-307.391 488.323,-307.09"/>
<text text-anchor="middle" x="515.397" y="-318.8" font-family="Times New Roman,serif" font-size="14.00">Crafting 0</text>
</g>
<!-- MortarPestle -->
<g id="node18" class="node"><title>MortarPestle</title>
<ellipse fill="none" stroke="black" cx="644.397" cy="-366" rx="57.3905" ry="18"/>
<text text-anchor="middle" x="644.397" y="-362.3" font-family="Times New Roman,serif" font-size="14.00">MortarPestle</text>
</g>
<!-- MortarPestle&#45;&gt;Pouch_Dust_Bone -->
<g id="edge15" class="edge"><title>MortarPestle&#45;&gt;Pouch_Dust_Bone</title>
<path fill="none" stroke="black" d="M616.527,-350.194C590.674,-336.46 551.957,-315.891 523.108,-300.565"/>
<polygon fill="black" stroke="black" points="524.59,-297.389 514.117,-295.789 521.306,-303.571 524.59,-297.389"/>
<text text-anchor="middle" x="601.397" y="-318.8" font-family="Times New Roman,serif" font-size="14.00">Crafting 0</text>
</g>
<!-- MortarPestle&#45;&gt;Pouch_Dust_Star -->
<g id="edge16" class="edge"><title>MortarPestle&#45;&gt;Pouch_Dust_Star</title>
<path fill="none" stroke="black" d="M643.434,-347.748C643.218,-338.053 643.49,-325.772 645.397,-315 645.874,-312.306 646.524,-309.539 647.277,-306.799"/>
<polygon fill="black" stroke="black" points="650.645,-307.756 650.326,-297.166 643.971,-305.643 650.645,-307.756"/>
<text text-anchor="middle" x="673.397" y="-318.8" font-family="Times New Roman,serif" font-size="14.00">Crafting 0</text>
</g>
<!-- MortarPestle&#45;&gt;Pouch_Dust_Moon -->
<g id="edge17" class="edge"><title>MortarPestle&#45;&gt;Pouch_Dust_Moon</title>
<path fill="none" stroke="black" d="M670.345,-349.948C680.23,-343.986 691.494,-336.913 701.397,-330 710.218,-323.841 710.869,-319.998 720.397,-315 735.646,-307.001 753.021,-300.505 769.53,-295.38"/>
<polygon fill="black" stroke="black" points="770.543,-298.73 779.127,-292.52 768.544,-292.022 770.543,-298.73"/>
<text text-anchor="middle" x="748.397" y="-318.8" font-family="Times New Roman,serif" font-size="14.00">Crafting 0</text>
</g>
<!-- Pouch_Dust_Moon&#45;&gt;Pouch_Dust_Pixie -->
<g id="edge20" class="edge"><title>Pouch_Dust_Moon&#45;&gt;Pouch_Dust_Pixie</title>
<path fill="none" stroke="black" d="M786.502,-264.239C750.716,-254.032 700.566,-239.886 656.397,-228 631.78,-221.376 604.583,-214.324 581.022,-208.299"/>
<polygon fill="black" stroke="black" points="581.719,-204.865 571.164,-205.784 579.989,-211.647 581.719,-204.865"/>
<text text-anchor="middle" x="737.397" y="-231.8" font-family="Times New Roman,serif" font-size="14.00">Crafting 0</text>
</g>
</g>
</svg>
