<?xml version="1.0" encoding="UTF-8" standalone="no"?>
<!DOCTYPE svg PUBLIC "-//W3C//DTD SVG 1.1//EN"
 "http://www.w3.org/Graphics/SVG/1.1/DTD/svg11.dtd">
<!-- Generated by graphviz version 2.38.0 (20140413.2041)
 -->
<!-- Title: G Pages: 1 -->
<svg width="982pt" height="653pt"
 viewBox="0.00 0.00 982.08 653.00" xmlns="http://www.w3.org/2000/svg" xmlns:xlink="http://www.w3.org/1999/xlink">
<g id="graph0" class="graph" transform="scale(1 1) rotate(0) translate(4 649)">
<title>G</title>
<polygon fill="white" stroke="none" points="-4,4 -4,-649 978.083,-649 978.083,4 -4,4"/>
<!-- Herb_Augmentor -->
<g id="node1" class="node"><title>Herb_Augmentor</title>
<ellipse fill="none" stroke="black" cx="167.843" cy="-192" rx="74.187" ry="18"/>
<text text-anchor="middle" x="167.843" y="-188.3" font-family="Times New Roman,serif" font-size="14.00">Herb_Augmentor</text>
</g>
<!-- Potion_Telekinesis_Large -->
<g id="node3" class="node"><title>Potion_Telekinesis_Large</title>
<ellipse fill="none" stroke="black" cx="214.843" cy="-18" rx="104.782" ry="18"/>
<text text-anchor="middle" x="214.843" y="-14.3" font-family="Times New Roman,serif" font-size="14.00">Potion_Telekinesis_Large</text>
</g>
<!-- Herb_Augmentor&#45;&gt;Potion_Telekinesis_Large -->
<g id="edge1" class="edge"><title>Herb_Augmentor&#45;&gt;Potion_Telekinesis_Large</title>
<path fill="none" stroke="black" d="M165.061,-173.967C162.294,-152.978 159.653,-116.477 168.843,-87 173.737,-71.3007 183.563,-55.9404 192.881,-43.8022"/>
<polygon fill="black" stroke="black" points="195.654,-45.9386 199.184,-35.9491 190.195,-41.5569 195.654,-45.9386"/>
<text text-anchor="middle" x="196.843" y="-101.3" font-family="Times New Roman,serif" font-size="14.00">Crafting 4</text>
</g>
<!-- Potion_Telekinesis_Medium -->
<g id="node12" class="node"><title>Potion_Telekinesis_Medium</title>
<ellipse fill="none" stroke="black" cx="347.843" cy="-105" rx="114.28" ry="18"/>
<text text-anchor="middle" x="347.843" y="-101.3" font-family="Times New Roman,serif" font-size="14.00">Potion_Telekinesis_Medium</text>
</g>
<!-- Herb_Augmentor&#45;&gt;Potion_Telekinesis_Medium -->
<g id="edge2" class="edge"><title>Herb_Augmentor&#45;&gt;Potion_Telekinesis_Medium</title>
<path fill="none" stroke="black" d="M200.439,-175.607C229.485,-161.891 272.221,-141.71 304.208,-126.605"/>
<polygon fill="black" stroke="black" points="305.794,-129.727 313.342,-122.292 302.805,-123.397 305.794,-129.727"/>
<text text-anchor="middle" x="295.843" y="-144.8" font-family="Times New Roman,serif" font-size="14.00">Crafting 3</text>
</g>
<!-- Herb_Drudanae -->
<g id="node2" class="node"><title>Herb_Drudanae</title>
<ellipse fill="none" stroke="black" cx="281.843" cy="-279" rx="68.4888" ry="18"/>
<text text-anchor="middle" x="281.843" y="-275.3" font-family="Times New Roman,serif" font-size="14.00">Herb_Drudanae</text>
</g>
<!-- Potion_Telekinesis -->
<g id="node10" class="node"><title>Potion_Telekinesis</title>
<ellipse fill="none" stroke="black" cx="347.843" cy="-192" rx="79.0865" ry="18"/>
<text text-anchor="middle" x="347.843" y="-188.3" font-family="Times New Roman,serif" font-size="14.00">Potion_Telekinesis</text>
</g>
<!-- Herb_Drudanae&#45;&gt;Potion_Telekinesis -->
<g id="edge3" class="edge"><title>Herb_Drudanae&#45;&gt;Potion_Telekinesis</title>
<path fill="none" stroke="black" d="M294.882,-261.207C304.464,-248.866 317.642,-231.894 328.456,-217.967"/>
<polygon fill="black" stroke="black" points="331.462,-219.803 334.83,-209.758 325.933,-215.51 331.462,-219.803"/>
<text text-anchor="middle" x="345.843" y="-231.8" font-family="Times New Roman,serif" font-size="14.00">Crafting 3</text>
</g>
<!-- Potion_Earth_Res -->
<g id="node4" class="node"><title>Potion_Earth_Res</title>
<ellipse fill="none" stroke="black" cx="378.843" cy="-366" rx="77.1866" ry="18"/>
<text text-anchor="middle" x="378.843" y="-362.3" font-family="Times New Roman,serif" font-size="14.00">Potion_Earth_Res</text>
</g>
<!-- Minor_ResistAll_Potion -->
<g id="node13" class="node"><title>Minor_ResistAll_Potion</title>
<ellipse fill="none" stroke="black" cx="466.843" cy="-279" rx="98.5829" ry="18"/>
<text text-anchor="middle" x="466.843" y="-275.3" font-family="Times New Roman,serif" font-size="14.00">Minor_ResistAll_Potion</text>
</g>
<!-- Potion_Earth_Res&#45;&gt;Minor_ResistAll_Potion -->
<g id="edge4" class="edge"><title>Potion_Earth_Res&#45;&gt;Minor_ResistAll_Potion</title>
<path fill="none" stroke="black" d="M396.229,-348.207C409.366,-335.517 427.574,-317.93 442.21,-303.793"/>
<polygon fill="black" stroke="black" points="444.732,-306.223 449.493,-296.758 439.868,-301.188 444.732,-306.223"/>
<text text-anchor="middle" x="455.843" y="-318.8" font-family="Times New Roman,serif" font-size="14.00">Crafting 3</text>
</g>
<!-- Potion_Fire_Res -->
<g id="node5" class="node"><title>Potion_Fire_Res</title>
<ellipse fill="none" stroke="black" cx="201.843" cy="-366" rx="72.5877" ry="18"/>
<text text-anchor="middle" x="201.843" y="-362.3" font-family="Times New Roman,serif" font-size="14.00">Potion_Fire_Res</text>
</g>
<!-- Potion_Fire_Res&#45;&gt;Minor_ResistAll_Potion -->
<g id="edge5" class="edge"><title>Potion_Fire_Res&#45;&gt;Minor_ResistAll_Potion</title>
<path fill="none" stroke="black" d="M244.261,-351.266C275.405,-341.195 318.741,-327.207 356.843,-315 374.153,-309.454 393.005,-303.445 410.133,-297.996"/>
<polygon fill="black" stroke="black" points="411.525,-301.227 419.994,-294.861 409.404,-294.556 411.525,-301.227"/>
<text text-anchor="middle" x="384.843" y="-318.8" font-family="Times New Roman,serif" font-size="14.00">Crafting 3</text>
</g>
<!-- Herb_Whisperwood -->
<g id="node6" class="node"><title>Herb_Whisperwood</title>
<ellipse fill="none" stroke="black" cx="365.843" cy="-540" rx="85.2851" ry="18"/>
<text text-anchor="middle" x="365.843" y="-536.3" font-family="Times New Roman,serif" font-size="14.00">Herb_Whisperwood</text>
</g>
<!-- Potion_Armor_Boost -->
<g id="node11" class="node"><title>Potion_Armor_Boost</title>
<ellipse fill="none" stroke="black" cx="463.843" cy="-453" rx="90.1842" ry="18"/>
<text text-anchor="middle" x="463.843" y="-449.3" font-family="Times New Roman,serif" font-size="14.00">Potion_Armor_Boost</text>
</g>
<!-- Herb_Whisperwood&#45;&gt;Potion_Armor_Boost -->
<g id="edge6" class="edge"><title>Herb_Whisperwood&#45;&gt;Potion_Armor_Boost</title>
<path fill="none" stroke="black" d="M385.204,-522.207C399.969,-509.401 420.484,-491.607 436.859,-477.404"/>
<polygon fill="black" stroke="black" points="439.26,-479.955 444.521,-470.758 434.673,-474.667 439.26,-479.955"/>
<text text-anchor="middle" x="447.843" y="-492.8" font-family="Times New Roman,serif" font-size="14.00">Crafting 2</text>
</g>
<!-- Potion_Water_Res -->
<g id="node7" class="node"><title>Potion_Water_Res</title>
<ellipse fill="none" stroke="black" cx="554.843" cy="-366" rx="80.6858" ry="18"/>
<text text-anchor="middle" x="554.843" y="-362.3" font-family="Times New Roman,serif" font-size="14.00">Potion_Water_Res</text>
</g>
<!-- Potion_Water_Res&#45;&gt;Minor_ResistAll_Potion -->
<g id="edge7" class="edge"><title>Potion_Water_Res&#45;&gt;Minor_ResistAll_Potion</title>
<path fill="none" stroke="black" d="M537.457,-348.207C524.319,-335.517 506.111,-317.93 491.475,-303.793"/>
<polygon fill="black" stroke="black" points="493.817,-301.188 484.192,-296.758 488.953,-306.223 493.817,-301.188"/>
<text text-anchor="middle" x="543.843" y="-318.8" font-family="Times New Roman,serif" font-size="14.00">Crafting 3</text>
</g>
<!-- Potion_Empty -->
<g id="node8" class="node"><title>Potion_Empty</title>
<ellipse fill="none" stroke="black" cx="483.843" cy="-627" rx="63.8893" ry="18"/>
<text text-anchor="middle" x="483.843" y="-623.3" font-family="Times New Roman,serif" font-size="14.00">Potion_Empty</text>
</g>
<!-- Minor_Healing_Potion -->
<g id="node18" class="node"><title>Minor_Healing_Potion</title>
<ellipse fill="none" stroke="black" cx="561.843" cy="-540" rx="92.8835" ry="18"/>
<text text-anchor="middle" x="561.843" y="-536.3" font-family="Times New Roman,serif" font-size="14.00">Minor_Healing_Potion</text>
</g>
<!-- Potion_Empty&#45;&gt;Minor_Healing_Potion -->
<g id="edge8" class="edge"><title>Potion_Empty&#45;&gt;Minor_Healing_Potion</title>
<path fill="none" stroke="black" d="M499.253,-609.207C510.791,-596.633 526.741,-579.252 539.652,-565.182"/>
<polygon fill="black" stroke="black" points="542.282,-567.493 546.464,-557.758 537.124,-562.76 542.282,-567.493"/>
<text text-anchor="middle" x="554.843" y="-579.8" font-family="Times New Roman,serif" font-size="14.00">Crafting 1</text>
</g>
<!-- Herb_Mushroom_Jellyfish -->
<g id="node9" class="node"><title>Herb_Mushroom_Jellyfish</title>
<ellipse fill="none" stroke="black" cx="866.843" cy="-453" rx="107.482" ry="18"/>
<text text-anchor="middle" x="866.843" y="-449.3" font-family="Times New Roman,serif" font-size="14.00">Herb_Mushroom_Jellyfish</text>
</g>
<!-- Potion_Air_Res -->
<g id="node19" class="node"><title>Potion_Air_Res</title>
<ellipse fill="none" stroke="black" cx="728.843" cy="-366" rx="69.5877" ry="18"/>
<text text-anchor="middle" x="728.843" y="-362.3" font-family="Times New Roman,serif" font-size="14.00">Potion_Air_Res</text>
</g>
<!-- Herb_Mushroom_Jellyfish&#45;&gt;Potion_Air_Res -->
<g id="edge9" class="edge"><title>Herb_Mushroom_Jellyfish&#45;&gt;Potion_Air_Res</title>
<path fill="none" stroke="black" d="M841.368,-435.288C826.21,-425.44 806.542,-412.829 788.843,-402 781.144,-397.29 772.82,-392.343 764.892,-387.7"/>
<polygon fill="black" stroke="black" points="766.568,-384.625 756.166,-382.615 763.044,-390.674 766.568,-384.625"/>
<text text-anchor="middle" x="839.843" y="-405.8" font-family="Times New Roman,serif" font-size="14.00">Crafting 2</text>
</g>
<!-- Potion_Telekinesis&#45;&gt;Potion_Telekinesis_Medium -->
<g id="edge11" class="edge"><title>Potion_Telekinesis&#45;&gt;Potion_Telekinesis_Medium</title>
<path fill="none" stroke="black" d="M347.843,-173.799C347.843,-162.163 347.843,-146.548 347.843,-133.237"/>
<polygon fill="black" stroke="black" points="351.343,-133.175 347.843,-123.175 344.343,-133.175 351.343,-133.175"/>
<text text-anchor="middle" x="375.843" y="-144.8" font-family="Times New Roman,serif" font-size="14.00">Crafting 3</text>
</g>
<!-- Potion_Armor_Boost&#45;&gt;Potion_Earth_Res -->
<g id="edge15" class="edge"><title>Potion_Armor_Boost&#45;&gt;Potion_Earth_Res</title>
<path fill="none" stroke="black" d="M423.917,-436.709C414.409,-431.587 404.966,-425.071 397.843,-417 392.139,-410.538 388.074,-402.19 385.208,-394.172"/>
<polygon fill="black" stroke="black" points="388.475,-392.888 382.188,-384.36 381.785,-394.947 388.475,-392.888"/>
<text text-anchor="middle" x="425.843" y="-405.8" font-family="Times New Roman,serif" font-size="14.00">Crafting 2</text>
</g>
<!-- Potion_Armor_Boost&#45;&gt;Potion_Fire_Res -->
<g id="edge12" class="edge"><title>Potion_Armor_Boost&#45;&gt;Potion_Fire_Res</title>
<path fill="none" stroke="black" d="M398.099,-440.57C387.003,-438.682 375.598,-436.765 364.843,-435 313.792,-426.622 295.717,-440.914 249.843,-417 238.454,-411.063 228.218,-401.385 220.153,-392.118"/>
<polygon fill="black" stroke="black" points="222.696,-389.699 213.65,-384.184 217.282,-394.137 222.696,-389.699"/>
<text text-anchor="middle" x="277.843" y="-405.8" font-family="Times New Roman,serif" font-size="14.00">Crafting 2</text>
</g>
<!-- Potion_Armor_Boost&#45;&gt;Potion_Water_Res -->
<g id="edge14" class="edge"><title>Potion_Armor_Boost&#45;&gt;Potion_Water_Res</title>
<path fill="none" stroke="black" d="M481.821,-435.207C495.407,-422.517 514.235,-404.93 529.371,-390.793"/>
<polygon fill="black" stroke="black" points="531.982,-393.142 536.901,-383.758 527.204,-388.027 531.982,-393.142"/>
<text text-anchor="middle" x="541.843" y="-405.8" font-family="Times New Roman,serif" font-size="14.00">Crafting 2</text>
</g>
<!-- Potion_Armor_Boost&#45;&gt;Potion_Air_Res -->
<g id="edge13" class="edge"><title>Potion_Armor_Boost&#45;&gt;Potion_Air_Res</title>
<path fill="none" stroke="black" d="M530,-440.722C541.29,-438.806 552.902,-436.842 563.843,-435 611.83,-426.922 627.87,-437.842 671.843,-417 685.113,-410.71 697.642,-400.407 707.556,-390.782"/>
<polygon fill="black" stroke="black" points="710.074,-393.214 714.596,-383.633 705.086,-388.302 710.074,-393.214"/>
<text text-anchor="middle" x="721.843" y="-405.8" font-family="Times New Roman,serif" font-size="14.00">Crafting 2</text>
</g>
<!-- Potion_Telekinesis_Medium&#45;&gt;Potion_Telekinesis_Large -->
<g id="edge16" class="edge"><title>Potion_Telekinesis_Medium&#45;&gt;Potion_Telekinesis_Large</title>
<path fill="none" stroke="black" d="M321.883,-87.4094C301.194,-74.1873 272.04,-55.555 249.382,-41.0738"/>
<polygon fill="black" stroke="black" points="251.048,-37.9848 240.737,-35.5488 247.278,-43.8831 251.048,-37.9848"/>
<text text-anchor="middle" x="316.843" y="-57.8" font-family="Times New Roman,serif" font-size="14.00">Crafting 4</text>
</g>
<!-- Minor_ResistAll_Potion&#45;&gt;Potion_Telekinesis -->
<g id="edge17" class="edge"><title>Minor_ResistAll_Potion&#45;&gt;Potion_Telekinesis</title>
<path fill="none" stroke="black" d="M443.616,-261.409C425.15,-248.22 399.148,-229.646 378.895,-215.181"/>
<polygon fill="black" stroke="black" points="380.778,-212.224 370.607,-209.26 376.71,-217.921 380.778,-212.224"/>
<text text-anchor="middle" x="441.843" y="-231.8" font-family="Times New Roman,serif" font-size="14.00">Crafting 3</text>
</g>
<!-- Herb_Mushroom_B -->
<g id="node14" class="node"><title>Herb_Mushroom_B</title>
<ellipse fill="none" stroke="black" cx="656.843" cy="-453" rx="84.485" ry="18"/>
<text text-anchor="middle" x="656.843" y="-449.3" font-family="Times New Roman,serif" font-size="14.00">Herb_Mushroom_B</text>
</g>
<!-- Herb_Mushroom_B&#45;&gt;Potion_Water_Res -->
<g id="edge20" class="edge"><title>Herb_Mushroom_B&#45;&gt;Potion_Water_Res</title>
<path fill="none" stroke="black" d="M636.691,-435.207C621.224,-422.317 599.693,-404.375 582.596,-390.128"/>
<polygon fill="black" stroke="black" points="584.528,-387.182 574.606,-383.469 580.047,-392.56 584.528,-387.182"/>
<text text-anchor="middle" x="639.843" y="-405.8" font-family="Times New Roman,serif" font-size="14.00">Crafting 2</text>
</g>
<!-- Herb_Mushroom -->
<g id="node15" class="node"><title>Herb_Mushroom</title>
<ellipse fill="none" stroke="black" cx="638.843" cy="-627" rx="73.387" ry="18"/>
<text text-anchor="middle" x="638.843" y="-623.3" font-family="Times New Roman,serif" font-size="14.00">Herb_Mushroom</text>
</g>
<!-- Herb_Mushroom&#45;&gt;Minor_Healing_Potion -->
<g id="edge18" class="edge"><title>Herb_Mushroom&#45;&gt;Minor_Healing_Potion</title>
<path fill="none" stroke="black" d="M623.63,-609.207C612.24,-596.633 596.494,-579.252 583.749,-565.182"/>
<polygon fill="black" stroke="black" points="586.331,-562.82 577.024,-557.758 581.143,-567.519 586.331,-562.82"/>
<text text-anchor="middle" x="632.843" y="-579.8" font-family="Times New Roman,serif" font-size="14.00">Crafting 1</text>
</g>
<!-- Herb_Mushroom_D -->
<g id="node16" class="node"><title>Herb_Mushroom_D</title>
<ellipse fill="none" stroke="black" cx="270.843" cy="-453" rx="85.2851" ry="18"/>
<text text-anchor="middle" x="270.843" y="-449.3" font-family="Times New Roman,serif" font-size="14.00">Herb_Mushroom_D</text>
</g>
<!-- Herb_Mushroom_D&#45;&gt;Potion_Earth_Res -->
<g id="edge19" class="edge"><title>Herb_Mushroom_D&#45;&gt;Potion_Earth_Res</title>
<path fill="none" stroke="black" d="M288.856,-435.218C299.844,-425.232 314.332,-412.502 327.843,-402 333.425,-397.661 339.51,-393.238 345.469,-389.062"/>
<polygon fill="black" stroke="black" points="347.788,-391.715 354.037,-383.159 343.816,-385.95 347.788,-391.715"/>
<text text-anchor="middle" x="355.843" y="-405.8" font-family="Times New Roman,serif" font-size="14.00">Crafting 2</text>
</g>
<!-- Herb_Mushroom_E -->
<g id="node17" class="node"><title>Herb_Mushroom_E</title>
<ellipse fill="none" stroke="black" cx="83.8426" cy="-453" rx="83.6854" ry="18"/>
<text text-anchor="middle" x="83.8426" y="-449.3" font-family="Times New Roman,serif" font-size="14.00">Herb_Mushroom_E</text>
</g>
<!-- Herb_Mushroom_E&#45;&gt;Potion_Fire_Res -->
<g id="edge10" class="edge"><title>Herb_Mushroom_E&#45;&gt;Potion_Fire_Res</title>
<path fill="none" stroke="black" d="M94.4128,-434.971C101.657,-424.392 112.065,-411.12 123.843,-402 132.202,-395.527 141.949,-389.946 151.663,-385.262"/>
<polygon fill="black" stroke="black" points="153.271,-388.376 160.921,-381.046 150.37,-382.005 153.271,-388.376"/>
<text text-anchor="middle" x="151.843" y="-405.8" font-family="Times New Roman,serif" font-size="14.00">Crafting 2</text>
</g>
<!-- Minor_Healing_Potion&#45;&gt;Potion_Armor_Boost -->
<g id="edge21" class="edge"><title>Minor_Healing_Potion&#45;&gt;Potion_Armor_Boost</title>
<path fill="none" stroke="black" d="M542.481,-522.207C527.716,-509.401 507.201,-491.607 490.826,-477.404"/>
<polygon fill="black" stroke="black" points="493.012,-474.667 483.164,-470.758 488.425,-479.955 493.012,-474.667"/>
<text text-anchor="middle" x="545.843" y="-492.8" font-family="Times New Roman,serif" font-size="14.00">Crafting 2</text>
</g>
<!-- Potion_Air_Res&#45;&gt;Minor_ResistAll_Potion -->
<g id="edge22" class="edge"><title>Potion_Air_Res&#45;&gt;Minor_ResistAll_Potion</title>
<path fill="none" stroke="black" d="M687.626,-351.467C656.841,-341.374 613.726,-327.272 575.843,-315 558.772,-309.47 540.186,-303.488 523.275,-298.06"/>
<polygon fill="black" stroke="black" points="524.128,-294.657 513.537,-294.935 521.989,-301.323 524.128,-294.657"/>
<text text-anchor="middle" x="645.843" y="-318.8" font-family="Times New Roman,serif" font-size="14.00">Crafting 3</text>
</g>
</g>
</svg>
