<?xml version="1.0" encoding="UTF-8" standalone="no"?>
<!DOCTYPE svg PUBLIC "-//W3C//DTD SVG 1.1//EN"
 "http://www.w3.org/Graphics/SVG/1.1/DTD/svg11.dtd">
<!-- Generated by graphviz version 2.38.0 (20140413.2041)
 -->
<!-- Title: G Pages: 1 -->
<svg width="206pt" height="149pt"
 viewBox="0.00 0.00 206.34 148.74" xmlns="http://www.w3.org/2000/svg" xmlns:xlink="http://www.w3.org/1999/xlink">
<g id="graph0" class="graph" transform="scale(1 1) rotate(0) translate(4 144.74)">
<title>G</title>
<polygon fill="white" stroke="none" points="-4,4 -4,-144.74 202.342,-144.74 202.342,4 -4,4"/>
<!-- Ruby -->
<g id="node1" class="node"><title>Ruby</title>
<ellipse fill="none" stroke="black" cx="30.5473" cy="-122.74" rx="30.5947" ry="18"/>
<text text-anchor="middle" x="30.5473" y="-119.04" font-family="Times New Roman,serif" font-size="14.00">Ruby</text>
</g>
<!-- ArmorHelmet
+ Small_AllResist -->
<g id="node3" class="node"><title>ArmorHelmet
+ Small_AllResist</title>
<ellipse fill="none" stroke="black" cx="84.5473" cy="-26.8701" rx="82.9636" ry="26.7407"/>
<text text-anchor="middle" x="84.5473" y="-30.6701" font-family="Times New Roman,serif" font-size="14.00">ArmorHelmet</text>
<text text-anchor="middle" x="84.5473" y="-15.6701" font-family="Times New Roman,serif" font-size="14.00">+ Small_AllResist</text>
</g>
<!-- Ruby&#45;&gt;ArmorHelmet
+ Small_AllResist -->
<g id="edge1" class="edge"><title>Ruby&#45;&gt;ArmorHelmet
+ Small_AllResist</title>
<path fill="none" stroke="black" d="M39.9534,-105.389C46.7599,-93.5572 56.2085,-77.1323 64.6572,-62.4457"/>
<polygon fill="black" stroke="black" points="67.8032,-63.9959 69.7559,-53.5825 61.7355,-60.5053 67.8032,-63.9959"/>
<text text-anchor="middle" x="87.5473" y="-75.5401" font-family="Times New Roman,serif" font-size="14.00">Crafting 5</text>
</g>
<!-- ArmorHelmet -->
<g id="node2" class="node"><title>ArmorHelmet</title>
<ellipse fill="none" stroke="black" cx="138.547" cy="-122.74" rx="59.5901" ry="18"/>
<text text-anchor="middle" x="138.547" y="-119.04" font-family="Times New Roman,serif" font-size="14.00">ArmorHelmet</text>
</g>
<!-- ArmorHelmet&#45;&gt;ArmorHelmet
+ Small_AllResist -->
<g id="edge2" class="edge"><title>ArmorHelmet&#45;&gt;ArmorHelmet
+ Small_AllResist</title>
<path fill="none" stroke="black" d="M132.09,-104.63C128.104,-94.7604 122.604,-82.2604 116.547,-71.7401 114.592,-68.3444 112.429,-64.895 110.176,-61.4988"/>
<polygon fill="black" stroke="black" points="113.024,-59.4637 104.459,-53.2271 107.265,-63.4436 113.024,-59.4637"/>
<text text-anchor="middle" x="151.547" y="-75.5401" font-family="Times New Roman,serif" font-size="14.00">Crafting 5</text>
</g>
</g>
</svg>
