<?xml version="1.0" encoding="UTF-8" standalone="no"?>
<!DOCTYPE svg PUBLIC "-//W3C//DTD SVG 1.1//EN"
 "http://www.w3.org/Graphics/SVG/1.1/DTD/svg11.dtd">
<!-- Generated by graphviz version 2.38.0 (20140413.2041)
 -->
<!-- Title: G Pages: 1 -->
<svg width="825pt" height="392pt"
 viewBox="0.00 0.00 824.79 392.00" xmlns="http://www.w3.org/2000/svg" xmlns:xlink="http://www.w3.org/1999/xlink">
<g id="graph0" class="graph" transform="scale(1 1) rotate(0) translate(4 388)">
<title>G</title>
<polygon fill="white" stroke="none" points="-4,4 -4,-388 820.795,-388 820.795,4 -4,4"/>
<!-- Pouch_Dust_Pixie -->
<g id="node1" class="node"><title>Pouch_Dust_Pixie</title>
<ellipse fill="none" stroke="black" cx="452.795" cy="-192" rx="78.7863" ry="18"/>
<text text-anchor="middle" x="452.795" y="-188.3" font-family="Times New Roman,serif" font-size="14.00">Pouch_Dust_Pixie</text>
</g>
<!-- Foot_Chicken_A_Magic -->
<g id="node3" class="node"><title>Foot_Chicken_A_Magic</title>
<ellipse fill="none" stroke="black" cx="452.795" cy="-105" rx="101.282" ry="18"/>
<text text-anchor="middle" x="452.795" y="-101.3" font-family="Times New Roman,serif" font-size="14.00">Foot_Chicken_A_Magic</text>
</g>
<!-- Pouch_Dust_Pixie&#45;&gt;Foot_Chicken_A_Magic -->
<g id="edge1" class="edge"><title>Pouch_Dust_Pixie&#45;&gt;Foot_Chicken_A_Magic</title>
<path fill="none" stroke="black" d="M452.795,-173.799C452.795,-162.163 452.795,-146.548 452.795,-133.237"/>
<polygon fill="black" stroke="black" points="456.295,-133.175 452.795,-123.175 449.295,-133.175 456.295,-133.175"/>
<text text-anchor="middle" x="480.795" y="-144.8" font-family="Times New Roman,serif" font-size="14.00">Crafting 1</text>
</g>
<!-- Sheep -->
<g id="node2" class="node"><title>Sheep</title>
<ellipse fill="none" stroke="black" cx="776.795" cy="-366" rx="33.2948" ry="18"/>
<text text-anchor="middle" x="776.795" y="-362.3" font-family="Times New Roman,serif" font-size="14.00">Sheep</text>
</g>
<!-- Wool -->
<g id="node14" class="node"><title>Wool</title>
<ellipse fill="none" stroke="black" cx="690.795" cy="-279" rx="31.3957" ry="18"/>
<text text-anchor="middle" x="690.795" y="-275.3" font-family="Times New Roman,serif" font-size="14.00">Wool</text>
</g>
<!-- Sheep&#45;&gt;Wool -->
<g id="edge2" class="edge"><title>Sheep&#45;&gt;Wool</title>
<path fill="none" stroke="black" d="M770.869,-348.224C766.537,-337.747 759.838,-324.493 750.795,-315 743.231,-307.06 733.469,-300.344 724.027,-294.985"/>
<polygon fill="black" stroke="black" points="725.625,-291.871 715.153,-290.267 722.339,-298.052 725.625,-291.871"/>
<text text-anchor="middle" x="788.795" y="-318.8" font-family="Times New Roman,serif" font-size="14.00">Crafting 0</text>
</g>
<!-- Chicken_Claw_MagicBelt -->
<g id="node12" class="node"><title>Chicken_Claw_MagicBelt</title>
<ellipse fill="none" stroke="black" cx="543.795" cy="-18" rx="105.082" ry="18"/>
<text text-anchor="middle" x="543.795" y="-14.3" font-family="Times New Roman,serif" font-size="14.00">Chicken_Claw_MagicBelt</text>
</g>
<!-- Foot_Chicken_A_Magic&#45;&gt;Chicken_Claw_MagicBelt -->
<g id="edge3" class="edge"><title>Foot_Chicken_A_Magic&#45;&gt;Chicken_Claw_MagicBelt</title>
<path fill="none" stroke="black" d="M470.773,-87.2067C484.359,-74.517 503.188,-56.9297 518.323,-42.7925"/>
<polygon fill="black" stroke="black" points="520.935,-45.1422 525.853,-35.7584 516.156,-40.0267 520.935,-45.1422"/>
<text text-anchor="middle" x="530.795" y="-57.8" font-family="Times New Roman,serif" font-size="14.00">Crafting 2</text>
</g>
<!-- Pouch_Dust_Bone -->
<g id="node4" class="node"><title>Pouch_Dust_Bone</title>
<ellipse fill="none" stroke="black" cx="175.795" cy="-279" rx="79.8859" ry="18"/>
<text text-anchor="middle" x="175.795" y="-275.3" font-family="Times New Roman,serif" font-size="14.00">Pouch_Dust_Bone</text>
</g>
<!-- Pouch_Dust_Bone&#45;&gt;Pouch_Dust_Pixie -->
<g id="edge4" class="edge"><title>Pouch_Dust_Bone&#45;&gt;Pouch_Dust_Pixie</title>
<path fill="none" stroke="black" d="M221.225,-264.059C269.674,-249.192 346.401,-225.648 398.124,-209.776"/>
<polygon fill="black" stroke="black" points="399.266,-213.087 407.799,-206.807 397.212,-206.395 399.266,-213.087"/>
<text text-anchor="middle" x="358.795" y="-231.8" font-family="Times New Roman,serif" font-size="14.00">Crafting 0</text>
</g>
<!-- Foot_Chicken -->
<g id="node5" class="node"><title>Foot_Chicken</title>
<ellipse fill="none" stroke="black" cx="292.795" cy="-192" rx="63.0888" ry="18"/>
<text text-anchor="middle" x="292.795" y="-188.3" font-family="Times New Roman,serif" font-size="14.00">Foot_Chicken</text>
</g>
<!-- Foot_Chicken&#45;&gt;Foot_Chicken_A_Magic -->
<g id="edge5" class="edge"><title>Foot_Chicken&#45;&gt;Foot_Chicken_A_Magic</title>
<path fill="none" stroke="black" d="M321.399,-175.804C347.03,-162.188 384.865,-142.088 413.362,-126.949"/>
<polygon fill="black" stroke="black" points="415.069,-130.005 422.258,-122.222 411.785,-123.823 415.069,-130.005"/>
<text text-anchor="middle" x="409.795" y="-144.8" font-family="Times New Roman,serif" font-size="14.00">Crafting 1</text>
</g>
<!-- Rope -->
<g id="node6" class="node"><title>Rope</title>
<ellipse fill="none" stroke="black" cx="614.795" cy="-105" rx="30.5947" ry="18"/>
<text text-anchor="middle" x="614.795" y="-101.3" font-family="Times New Roman,serif" font-size="14.00">Rope</text>
</g>
<!-- Rope&#45;&gt;Chicken_Claw_MagicBelt -->
<g id="edge8" class="edge"><title>Rope&#45;&gt;Chicken_Claw_MagicBelt</title>
<path fill="none" stroke="black" d="M601.772,-88.4097C591.398,-75.9898 576.673,-58.3614 564.659,-43.9785"/>
<polygon fill="black" stroke="black" points="567.049,-41.38 557.952,-35.949 561.677,-45.8676 567.049,-41.38"/>
<text text-anchor="middle" x="610.795" y="-57.8" font-family="Times New Roman,serif" font-size="14.00">Crafting 2</text>
</g>
<!-- Moonstone -->
<g id="node7" class="node"><title>Moonstone</title>
<ellipse fill="none" stroke="black" cx="585.795" cy="-366" rx="51.9908" ry="18"/>
<text text-anchor="middle" x="585.795" y="-362.3" font-family="Times New Roman,serif" font-size="14.00">Moonstone</text>
</g>
<!-- Pouch_Dust_Moon -->
<g id="node17" class="node"><title>Pouch_Dust_Moon</title>
<ellipse fill="none" stroke="black" cx="542.795" cy="-279" rx="83.3857" ry="18"/>
<text text-anchor="middle" x="542.795" y="-275.3" font-family="Times New Roman,serif" font-size="14.00">Pouch_Dust_Moon</text>
</g>
<!-- Moonstone&#45;&gt;Pouch_Dust_Moon -->
<g id="edge9" class="edge"><title>Moonstone&#45;&gt;Pouch_Dust_Moon</title>
<path fill="none" stroke="black" d="M578.978,-348.086C574.873,-338.282 569.373,-325.782 563.795,-315 562.264,-312.042 560.588,-308.99 558.871,-305.979"/>
<polygon fill="black" stroke="black" points="561.792,-304.043 553.703,-297.201 555.76,-307.594 561.792,-304.043"/>
<text text-anchor="middle" x="598.795" y="-318.8" font-family="Times New Roman,serif" font-size="14.00">Crafting 0</text>
</g>
<!-- Pouch_Dust_Star -->
<g id="node8" class="node"><title>Pouch_Dust_Star</title>
<ellipse fill="none" stroke="black" cx="365.795" cy="-279" rx="75.2868" ry="18"/>
<text text-anchor="middle" x="365.795" y="-275.3" font-family="Times New Roman,serif" font-size="14.00">Pouch_Dust_Star</text>
</g>
<!-- Pouch_Dust_Star&#45;&gt;Pouch_Dust_Pixie -->
<g id="edge10" class="edge"><title>Pouch_Dust_Star&#45;&gt;Pouch_Dust_Pixie</title>
<path fill="none" stroke="black" d="M382.983,-261.207C395.971,-248.517 413.973,-230.93 428.442,-216.793"/>
<polygon fill="black" stroke="black" points="430.935,-219.25 435.642,-209.758 426.043,-214.243 430.935,-219.25"/>
<text text-anchor="middle" x="441.795" y="-231.8" font-family="Times New Roman,serif" font-size="14.00">Crafting 0</text>
</g>
<!-- MortarPestle -->
<g id="node9" class="node"><title>MortarPestle</title>
<ellipse fill="none" stroke="black" cx="427.795" cy="-366" rx="57.3905" ry="18"/>
<text text-anchor="middle" x="427.795" y="-362.3" font-family="Times New Roman,serif" font-size="14.00">MortarPestle</text>
</g>
<!-- MortarPestle&#45;&gt;Pouch_Dust_Bone -->
<g id="edge15" class="edge"><title>MortarPestle&#45;&gt;Pouch_Dust_Bone</title>
<path fill="none" stroke="black" d="M391.676,-351.99C377.009,-346.098 360.168,-338.535 345.795,-330 336.544,-324.507 336.492,-319.661 326.795,-315 303.772,-303.935 277.062,-296.263 252.565,-290.99"/>
<polygon fill="black" stroke="black" points="253.08,-287.523 242.581,-288.945 251.675,-294.381 253.08,-287.523"/>
<text text-anchor="middle" x="373.795" y="-318.8" font-family="Times New Roman,serif" font-size="14.00">Crafting 0</text>
</g>
<!-- MortarPestle&#45;&gt;Pouch_Dust_Star -->
<g id="edge16" class="edge"><title>MortarPestle&#45;&gt;Pouch_Dust_Star</title>
<path fill="none" stroke="black" d="M422.355,-347.809C418.65,-337.677 413.09,-324.938 405.795,-315 402.733,-310.83 399.095,-306.808 395.278,-303.068"/>
<polygon fill="black" stroke="black" points="397.569,-300.421 387.825,-296.263 392.849,-305.59 397.569,-300.421"/>
<text text-anchor="middle" x="441.795" y="-318.8" font-family="Times New Roman,serif" font-size="14.00">Crafting 0</text>
</g>
<!-- MortarPestle&#45;&gt;Pouch_Dust_Moon -->
<g id="edge17" class="edge"><title>MortarPestle&#45;&gt;Pouch_Dust_Moon</title>
<path fill="none" stroke="black" d="M449.156,-349.211C466.889,-336.104 492.333,-317.298 512.224,-302.596"/>
<polygon fill="black" stroke="black" points="514.409,-305.333 520.37,-296.575 510.248,-299.704 514.409,-305.333"/>
<text text-anchor="middle" x="519.795" y="-318.8" font-family="Times New Roman,serif" font-size="14.00">Crafting 0</text>
</g>
<!-- Skull_Human -->
<g id="node10" class="node"><title>Skull_Human</title>
<ellipse fill="none" stroke="black" cx="59.7947" cy="-366" rx="59.5901" ry="18"/>
<text text-anchor="middle" x="59.7947" y="-362.3" font-family="Times New Roman,serif" font-size="14.00">Skull_Human</text>
</g>
<!-- Skull_Human&#45;&gt;Pouch_Dust_Bone -->
<g id="edge14" class="edge"><title>Skull_Human&#45;&gt;Pouch_Dust_Bone</title>
<path fill="none" stroke="black" d="M74.7497,-348.522C84.6519,-338.163 98.265,-324.929 111.795,-315 118.916,-309.774 126.908,-304.797 134.767,-300.322"/>
<polygon fill="black" stroke="black" points="136.459,-303.386 143.531,-295.496 133.083,-297.254 136.459,-303.386"/>
<text text-anchor="middle" x="139.795" y="-318.8" font-family="Times New Roman,serif" font-size="14.00">Crafting 0</text>
</g>
<!-- Herb_Stardust -->
<g id="node11" class="node"><title>Herb_Stardust</title>
<ellipse fill="none" stroke="black" cx="279.795" cy="-366" rx="63.8893" ry="18"/>
<text text-anchor="middle" x="279.795" y="-362.3" font-family="Times New Roman,serif" font-size="14.00">Herb_Stardust</text>
</g>
<!-- Herb_Stardust&#45;&gt;Pouch_Dust_Star -->
<g id="edge12" class="edge"><title>Herb_Stardust&#45;&gt;Pouch_Dust_Star</title>
<path fill="none" stroke="black" d="M270.818,-347.893C266.736,-337.545 264.136,-324.55 270.795,-315 277.183,-305.838 286.254,-299.068 296.281,-294.067"/>
<polygon fill="black" stroke="black" points="297.944,-297.16 305.71,-289.953 295.145,-290.744 297.944,-297.16"/>
<text text-anchor="middle" x="298.795" y="-318.8" font-family="Times New Roman,serif" font-size="14.00">Crafting 0</text>
</g>
<!-- Shears -->
<g id="node13" class="node"><title>Shears</title>
<ellipse fill="none" stroke="black" cx="690.795" cy="-366" rx="35.194" ry="18"/>
<text text-anchor="middle" x="690.795" y="-362.3" font-family="Times New Roman,serif" font-size="14.00">Shears</text>
</g>
<!-- Shears&#45;&gt;Wool -->
<g id="edge6" class="edge"><title>Shears&#45;&gt;Wool</title>
<path fill="none" stroke="black" d="M690.795,-347.799C690.795,-336.163 690.795,-320.548 690.795,-307.237"/>
<polygon fill="black" stroke="black" points="694.295,-307.175 690.795,-297.175 687.295,-307.175 694.295,-307.175"/>
<text text-anchor="middle" x="718.795" y="-318.8" font-family="Times New Roman,serif" font-size="14.00">Crafting 0</text>
</g>
<!-- Yarn_A_Wool -->
<g id="node15" class="node"><title>Yarn_A_Wool</title>
<ellipse fill="none" stroke="black" cx="650.795" cy="-192" rx="64.9885" ry="18"/>
<text text-anchor="middle" x="650.795" y="-188.3" font-family="Times New Roman,serif" font-size="14.00">Yarn_A_Wool</text>
</g>
<!-- Wool&#45;&gt;Yarn_A_Wool -->
<g id="edge13" class="edge"><title>Wool&#45;&gt;Yarn_A_Wool</title>
<path fill="none" stroke="black" d="M682.892,-261.207C677.286,-249.293 669.648,-233.063 663.23,-219.424"/>
<polygon fill="black" stroke="black" points="666.243,-217.607 658.818,-210.049 659.909,-220.588 666.243,-217.607"/>
<text text-anchor="middle" x="700.795" y="-231.8" font-family="Times New Roman,serif" font-size="14.00">Crafting 0</text>
</g>
<!-- Yarn_A_Wool&#45;&gt;Rope -->
<g id="edge7" class="edge"><title>Yarn_A_Wool&#45;&gt;Rope</title>
<path fill="none" stroke="black" d="M643.51,-173.799C638.417,-161.776 631.527,-145.506 625.772,-131.918"/>
<polygon fill="black" stroke="black" points="628.947,-130.44 621.824,-122.597 622.501,-133.17 628.947,-130.44"/>
<text text-anchor="middle" x="662.795" y="-144.8" font-family="Times New Roman,serif" font-size="14.00">Crafting 0</text>
</g>
<!-- Bone -->
<g id="node16" class="node"><title>Bone</title>
<ellipse fill="none" stroke="black" cx="167.795" cy="-366" rx="29.795" ry="18"/>
<text text-anchor="middle" x="167.795" y="-362.3" font-family="Times New Roman,serif" font-size="14.00">Bone</text>
</g>
<!-- Bone&#45;&gt;Pouch_Dust_Bone -->
<g id="edge11" class="edge"><title>Bone&#45;&gt;Pouch_Dust_Bone</title>
<path fill="none" stroke="black" d="M169.414,-347.799C170.509,-336.163 171.978,-320.548 173.231,-307.237"/>
<polygon fill="black" stroke="black" points="176.726,-307.459 174.178,-297.175 169.756,-306.803 176.726,-307.459"/>
<text text-anchor="middle" x="200.795" y="-318.8" font-family="Times New Roman,serif" font-size="14.00">Crafting 0</text>
</g>
<!-- Pouch_Dust_Moon&#45;&gt;Pouch_Dust_Pixie -->
<g id="edge18" class="edge"><title>Pouch_Dust_Moon&#45;&gt;Pouch_Dust_Pixie</title>
<path fill="none" stroke="black" d="M525.014,-261.207C511.577,-248.517 492.956,-230.93 477.987,-216.793"/>
<polygon fill="black" stroke="black" points="480.212,-214.08 470.539,-209.758 475.406,-219.169 480.212,-214.08"/>
<text text-anchor="middle" x="530.795" y="-231.8" font-family="Times New Roman,serif" font-size="14.00">Crafting 0</text>
</g>
</g>
</svg>
