<?xml version="1.0" encoding="UTF-8" standalone="no"?>
<!DOCTYPE svg PUBLIC "-//W3C//DTD SVG 1.1//EN"
 "http://www.w3.org/Graphics/SVG/1.1/DTD/svg11.dtd">
<!-- Generated by graphviz version 2.38.0 (20140413.2041)
 -->
<!-- Title: G Pages: 1 -->
<svg width="376pt" height="236pt"
 viewBox="0.00 0.00 376.00 235.74" xmlns="http://www.w3.org/2000/svg" xmlns:xlink="http://www.w3.org/1999/xlink">
<g id="graph0" class="graph" transform="scale(1 1) rotate(0) translate(4 231.74)">
<title>G</title>
<polygon fill="white" stroke="none" points="-4,4 -4,-231.74 371.999,-231.74 371.999,4 -4,4"/>
<!-- String_Bow -->
<g id="node1" class="node"><title>String_Bow</title>
<ellipse fill="none" stroke="black" cx="103.803" cy="-122.74" rx="53.8905" ry="18"/>
<text text-anchor="middle" x="103.803" y="-119.04" font-family="Times New Roman,serif" font-size="14.00">String_Bow</text>
</g>
<!-- Bow
+ Medium_Damage -->
<g id="node2" class="node"><title>Bow
+ Medium_Damage</title>
<ellipse fill="none" stroke="black" cx="89.8026" cy="-26.8701" rx="89.6056" ry="26.7407"/>
<text text-anchor="middle" x="89.8026" y="-30.6701" font-family="Times New Roman,serif" font-size="14.00">Bow</text>
<text text-anchor="middle" x="89.8026" y="-15.6701" font-family="Times New Roman,serif" font-size="14.00">+ Medium_Damage</text>
</g>
<!-- String_Bow&#45;&gt;Bow
+ Medium_Damage -->
<g id="edge1" class="edge"><title>String_Bow&#45;&gt;Bow
+ Medium_Damage</title>
<path fill="none" stroke="black" d="M81.078,-106.356C74.9559,-100.943 69.1162,-94.2972 65.8026,-86.7401 62.362,-78.8937 63.2146,-70.3929 66.0732,-62.3561"/>
<polygon fill="black" stroke="black" points="69.2816,-63.7555 70.2133,-53.2017 62.9035,-60.8709 69.2816,-63.7555"/>
<text text-anchor="middle" x="93.8026" y="-75.5401" font-family="Times New Roman,serif" font-size="14.00">Crafting 4</text>
</g>
<!-- Bow
+ Small_Damage -->
<g id="node3" class="node"><title>Bow
+ Small_Damage</title>
<ellipse fill="none" stroke="black" cx="288.803" cy="-26.8701" rx="79.3924" ry="26.7407"/>
<text text-anchor="middle" x="288.803" y="-30.6701" font-family="Times New Roman,serif" font-size="14.00">Bow</text>
<text text-anchor="middle" x="288.803" y="-15.6701" font-family="Times New Roman,serif" font-size="14.00">+ Small_Damage</text>
</g>
<!-- String_Bow&#45;&gt;Bow
+ Small_Damage -->
<g id="edge2" class="edge"><title>String_Bow&#45;&gt;Bow
+ Small_Damage</title>
<path fill="none" stroke="black" d="M112.641,-104.634C119.082,-93.7497 128.773,-80.1649 140.803,-71.7401 147.675,-66.9272 183.238,-56.3256 217.778,-46.7501"/>
<polygon fill="black" stroke="black" points="218.756,-50.1111 227.468,-44.0822 216.898,-43.3622 218.756,-50.1111"/>
<text text-anchor="middle" x="169.803" y="-75.5401" font-family="Times New Roman,serif" font-size="14.00">Crafting 2</text>
</g>
<!-- Bow -->
<g id="node4" class="node"><title>Bow</title>
<ellipse fill="none" stroke="black" cx="261.803" cy="-122.74" rx="27.8951" ry="18"/>
<text text-anchor="middle" x="261.803" y="-119.04" font-family="Times New Roman,serif" font-size="14.00">Bow</text>
</g>
<!-- Bow&#45;&gt;Bow
+ Medium_Damage -->
<g id="edge4" class="edge"><title>Bow&#45;&gt;Bow
+ Medium_Damage</title>
<path fill="none" stroke="black" d="M245.394,-108.08C228.174,-93.7762 203.252,-73.1802 200.803,-71.7401 187.542,-63.9435 172.637,-56.9795 158.158,-51.0209"/>
<polygon fill="black" stroke="black" points="159.31,-47.7124 148.725,-47.2518 156.713,-54.2126 159.31,-47.7124"/>
<text text-anchor="middle" x="247.803" y="-75.5401" font-family="Times New Roman,serif" font-size="14.00">Crafting 4</text>
</g>
<!-- Bow&#45;&gt;Bow
+ Small_Damage -->
<g id="edge5" class="edge"><title>Bow&#45;&gt;Bow
+ Small_Damage</title>
<path fill="none" stroke="black" d="M271.55,-105.48C274.617,-99.7323 277.738,-93.1102 279.803,-86.7401 282.147,-79.5047 283.887,-71.5665 285.177,-63.9268"/>
<polygon fill="black" stroke="black" points="288.676,-64.1917 286.671,-53.7883 281.75,-63.1712 288.676,-64.1917"/>
<text text-anchor="middle" x="311.803" y="-75.5401" font-family="Times New Roman,serif" font-size="14.00">Crafting 2</text>
</g>
<!-- Sinew -->
<g id="node5" class="node"><title>Sinew</title>
<ellipse fill="none" stroke="black" cx="103.803" cy="-209.74" rx="32.4942" ry="18"/>
<text text-anchor="middle" x="103.803" y="-206.04" font-family="Times New Roman,serif" font-size="14.00">Sinew</text>
</g>
<!-- Sinew&#45;&gt;String_Bow -->
<g id="edge3" class="edge"><title>Sinew&#45;&gt;String_Bow</title>
<path fill="none" stroke="black" d="M103.803,-191.539C103.803,-179.903 103.803,-164.288 103.803,-150.977"/>
<polygon fill="black" stroke="black" points="107.303,-150.916 103.803,-140.916 100.303,-150.916 107.303,-150.916"/>
<text text-anchor="middle" x="131.803" y="-162.54" font-family="Times New Roman,serif" font-size="14.00">Crafting 0</text>
</g>
</g>
</svg>
