<?xml version="1.0" encoding="UTF-8" standalone="no"?>
<!DOCTYPE svg PUBLIC "-//W3C//DTD SVG 1.1//EN"
 "http://www.w3.org/Graphics/SVG/1.1/DTD/svg11.dtd">
<!-- Generated by graphviz version 2.38.0 (20140413.2041)
 -->
<!-- Title: G Pages: 1 -->
<svg width="779pt" height="392pt"
 viewBox="0.00 0.00 779.09 392.00" xmlns="http://www.w3.org/2000/svg" xmlns:xlink="http://www.w3.org/1999/xlink">
<g id="graph0" class="graph" transform="scale(1 1) rotate(0) translate(4 388)">
<title>G</title>
<polygon fill="white" stroke="none" points="-4,4 -4,-388 775.091,-388 775.091,4 -4,4"/>
<!-- ArrowHead_Poison_Cloud -->
<g id="node1" class="node"><title>ArrowHead_Poison_Cloud</title>
<ellipse fill="none" stroke="black" cx="514.694" cy="-105" rx="110.48" ry="18"/>
<text text-anchor="middle" x="514.694" y="-101.3" font-family="Times New Roman,serif" font-size="14.00">ArrowHead_Poison_Cloud</text>
</g>
<!-- Arrow_Poison_Cloud -->
<g id="node2" class="node"><title>Arrow_Poison_Cloud</title>
<ellipse fill="none" stroke="black" cx="600.694" cy="-18" rx="91.784" ry="18"/>
<text text-anchor="middle" x="600.694" y="-14.3" font-family="Times New Roman,serif" font-size="14.00">Arrow_Poison_Cloud</text>
</g>
<!-- ArrowHead_Poison_Cloud&#45;&gt;Arrow_Poison_Cloud -->
<g id="edge1" class="edge"><title>ArrowHead_Poison_Cloud&#45;&gt;Arrow_Poison_Cloud</title>
<path fill="none" stroke="black" d="M531.685,-87.2067C544.524,-74.517 562.318,-56.9297 576.622,-42.7925"/>
<polygon fill="black" stroke="black" points="579.087,-45.2773 583.739,-35.7584 574.166,-40.2987 579.087,-45.2773"/>
<text text-anchor="middle" x="591.694" y="-57.8" font-family="Times New Roman,serif" font-size="14.00">Crafting 3</text>
</g>
<!-- Potion_Empty -->
<g id="node3" class="node"><title>Potion_Empty</title>
<ellipse fill="none" stroke="black" cx="63.6943" cy="-366" rx="63.8893" ry="18"/>
<text text-anchor="middle" x="63.6943" y="-362.3" font-family="Times New Roman,serif" font-size="14.00">Potion_Empty</text>
</g>
<!-- Potion_Poison -->
<g id="node8" class="node"><title>Potion_Poison</title>
<ellipse fill="none" stroke="black" cx="281.694" cy="-279" rx="64.9885" ry="18"/>
<text text-anchor="middle" x="281.694" y="-275.3" font-family="Times New Roman,serif" font-size="14.00">Potion_Poison</text>
</g>
<!-- Potion_Empty&#45;&gt;Potion_Poison -->
<g id="edge3" class="edge"><title>Potion_Empty&#45;&gt;Potion_Poison</title>
<path fill="none" stroke="black" d="M95.3197,-350.227C118.026,-339.843 149.474,-325.912 177.694,-315 194.776,-308.395 213.694,-301.815 230.66,-296.173"/>
<polygon fill="black" stroke="black" points="231.993,-299.419 240.396,-292.966 229.803,-292.77 231.993,-299.419"/>
<text text-anchor="middle" x="205.694" y="-318.8" font-family="Times New Roman,serif" font-size="14.00">Crafting 0</text>
</g>
<!-- Tooth -->
<g id="node4" class="node"><title>Tooth</title>
<ellipse fill="none" stroke="black" cx="497.694" cy="-366" rx="33.2948" ry="18"/>
<text text-anchor="middle" x="497.694" y="-362.3" font-family="Times New Roman,serif" font-size="14.00">Tooth</text>
</g>
<!-- ArrowHead -->
<g id="node10" class="node"><title>ArrowHead</title>
<ellipse fill="none" stroke="black" cx="507.694" cy="-279" rx="53.0913" ry="18"/>
<text text-anchor="middle" x="507.694" y="-275.3" font-family="Times New Roman,serif" font-size="14.00">ArrowHead</text>
</g>
<!-- Tooth&#45;&gt;ArrowHead -->
<g id="edge4" class="edge"><title>Tooth&#45;&gt;ArrowHead</title>
<path fill="none" stroke="black" d="M497.06,-347.799C496.947,-338.121 497.213,-325.839 498.694,-315 499.064,-312.296 499.568,-309.5 500.15,-306.722"/>
<polygon fill="black" stroke="black" points="503.569,-307.473 502.498,-296.932 496.762,-305.84 503.569,-307.473"/>
<text text-anchor="middle" x="526.694" y="-318.8" font-family="Times New Roman,serif" font-size="14.00">Crafting 1</text>
</g>
<!-- ArrowHead_Poison -->
<g id="node5" class="node"><title>ArrowHead_Poison</title>
<ellipse fill="none" stroke="black" cx="507.694" cy="-192" rx="83.3857" ry="18"/>
<text text-anchor="middle" x="507.694" y="-188.3" font-family="Times New Roman,serif" font-size="14.00">ArrowHead_Poison</text>
</g>
<!-- ArrowHead_Poison&#45;&gt;ArrowHead_Poison_Cloud -->
<g id="edge5" class="edge"><title>ArrowHead_Poison&#45;&gt;ArrowHead_Poison_Cloud</title>
<path fill="none" stroke="black" d="M509.111,-173.799C510.069,-162.163 511.355,-146.548 512.451,-133.237"/>
<polygon fill="black" stroke="black" points="515.947,-133.429 513.28,-123.175 508.971,-132.854 515.947,-133.429"/>
<text text-anchor="middle" x="539.694" y="-144.8" font-family="Times New Roman,serif" font-size="14.00">Crafting 3</text>
</g>
<!-- Barrel_Ooze -->
<g id="node6" class="node"><title>Barrel_Ooze</title>
<ellipse fill="none" stroke="black" cx="201.694" cy="-366" rx="56.59" ry="18"/>
<text text-anchor="middle" x="201.694" y="-362.3" font-family="Times New Roman,serif" font-size="14.00">Barrel_Ooze</text>
</g>
<!-- Barrel_Ooze&#45;&gt;Potion_Poison -->
<g id="edge6" class="edge"><title>Barrel_Ooze&#45;&gt;Potion_Poison</title>
<path fill="none" stroke="black" d="M217.119,-348.611C228.995,-335.993 245.59,-318.361 258.983,-304.131"/>
<polygon fill="black" stroke="black" points="261.739,-306.309 266.044,-296.629 256.642,-301.512 261.739,-306.309"/>
<text text-anchor="middle" x="274.694" y="-318.8" font-family="Times New Roman,serif" font-size="14.00">Crafting 0</text>
</g>
<!-- ArrowShaft -->
<g id="node7" class="node"><title>ArrowShaft</title>
<ellipse fill="none" stroke="black" cx="655.694" cy="-279" rx="53.0913" ry="18"/>
<text text-anchor="middle" x="655.694" y="-275.3" font-family="Times New Roman,serif" font-size="14.00">ArrowShaft</text>
</g>
<!-- ArrowShaft&#45;&gt;Arrow_Poison_Cloud -->
<g id="edge7" class="edge"><title>ArrowShaft&#45;&gt;Arrow_Poison_Cloud</title>
<path fill="none" stroke="black" d="M654.762,-260.975C652.697,-227.4 646.842,-150.406 633.694,-87 630.583,-71.9939 630.192,-67.8799 623.694,-54 622.2,-50.8082 620.447,-47.5705 618.587,-44.4185"/>
<polygon fill="black" stroke="black" points="621.488,-42.4565 613.188,-35.8722 615.57,-46.1956 621.488,-42.4565"/>
<text text-anchor="middle" x="673.694" y="-144.8" font-family="Times New Roman,serif" font-size="14.00">Crafting 3</text>
</g>
<!-- Potion_Poison&#45;&gt;ArrowHead_Poison -->
<g id="edge8" class="edge"><title>Potion_Poison&#45;&gt;ArrowHead_Poison</title>
<path fill="none" stroke="black" d="M318.508,-264.154C356.569,-249.839 416.214,-227.406 458.343,-211.561"/>
<polygon fill="black" stroke="black" points="459.723,-214.782 467.851,-207.985 457.259,-208.23 459.723,-214.782"/>
<text text-anchor="middle" x="436.694" y="-231.8" font-family="Times New Roman,serif" font-size="14.00">Crafting 2</text>
</g>
<!-- Branch -->
<g id="node9" class="node"><title>Branch</title>
<ellipse fill="none" stroke="black" cx="734.694" cy="-366" rx="36.2938" ry="18"/>
<text text-anchor="middle" x="734.694" y="-362.3" font-family="Times New Roman,serif" font-size="14.00">Branch</text>
</g>
<!-- Branch&#45;&gt;ArrowShaft -->
<g id="edge2" class="edge"><title>Branch&#45;&gt;ArrowShaft</title>
<path fill="none" stroke="black" d="M725.568,-348.23C719.552,-338.008 711.071,-325.028 701.694,-315 697.286,-310.286 692.19,-305.732 687.029,-301.554"/>
<polygon fill="black" stroke="black" points="689.013,-298.664 678.956,-295.331 684.74,-304.208 689.013,-298.664"/>
<text text-anchor="middle" x="741.694" y="-318.8" font-family="Times New Roman,serif" font-size="14.00">Crafting 0</text>
</g>
<!-- ArrowHead&#45;&gt;ArrowHead_Poison -->
<g id="edge9" class="edge"><title>ArrowHead&#45;&gt;ArrowHead_Poison</title>
<path fill="none" stroke="black" d="M507.694,-260.799C507.694,-249.163 507.694,-233.548 507.694,-220.237"/>
<polygon fill="black" stroke="black" points="511.194,-220.175 507.694,-210.175 504.194,-220.175 511.194,-220.175"/>
<text text-anchor="middle" x="535.694" y="-231.8" font-family="Times New Roman,serif" font-size="14.00">Crafting 2</text>
</g>
<!-- Herb_Mushroom_C -->
<g id="node11" class="node"><title>Herb_Mushroom_C</title>
<ellipse fill="none" stroke="black" cx="361.694" cy="-366" rx="85.2851" ry="18"/>
<text text-anchor="middle" x="361.694" y="-362.3" font-family="Times New Roman,serif" font-size="14.00">Herb_Mushroom_C</text>
</g>
<!-- Herb_Mushroom_C&#45;&gt;Potion_Poison -->
<g id="edge10" class="edge"><title>Herb_Mushroom_C&#45;&gt;Potion_Poison</title>
<path fill="none" stroke="black" d="M345.889,-348.207C334.055,-335.633 317.696,-318.252 304.454,-304.182"/>
<polygon fill="black" stroke="black" points="306.869,-301.642 297.467,-296.758 301.772,-306.439 306.869,-301.642"/>
<text text-anchor="middle" x="354.694" y="-318.8" font-family="Times New Roman,serif" font-size="14.00">Crafting 1</text>
</g>
<!-- Knife -->
<g id="node12" class="node"><title>Knife</title>
<ellipse fill="none" stroke="black" cx="614.694" cy="-366" rx="30.5947" ry="18"/>
<text text-anchor="middle" x="614.694" y="-362.3" font-family="Times New Roman,serif" font-size="14.00">Knife</text>
</g>
<!-- Knife&#45;&gt;ArrowShaft -->
<g id="edge11" class="edge"><title>Knife&#45;&gt;ArrowShaft</title>
<path fill="none" stroke="black" d="M623.871,-348.765C627.085,-342.906 630.65,-336.208 633.694,-330 637.394,-322.456 641.167,-314.146 644.521,-306.502"/>
<polygon fill="black" stroke="black" points="647.75,-307.854 648.507,-297.286 641.325,-305.075 647.75,-307.854"/>
<text text-anchor="middle" x="669.694" y="-318.8" font-family="Times New Roman,serif" font-size="14.00">Crafting 0</text>
</g>
<!-- Knife&#45;&gt;ArrowHead -->
<g id="edge12" class="edge"><title>Knife&#45;&gt;ArrowHead</title>
<path fill="none" stroke="black" d="M598.085,-350.743C586.151,-340.602 569.604,-326.75 554.694,-315 549.218,-310.685 543.306,-306.171 537.583,-301.876"/>
<polygon fill="black" stroke="black" points="539.518,-298.953 529.408,-295.786 535.336,-304.566 539.518,-298.953"/>
<text text-anchor="middle" x="601.694" y="-318.8" font-family="Times New Roman,serif" font-size="14.00">Crafting 1</text>
</g>
</g>
</svg>
