<?xml version="1.0" encoding="UTF-8" standalone="no"?>
<!DOCTYPE svg PUBLIC "-//W3C//DTD SVG 1.1//EN"
 "http://www.w3.org/Graphics/SVG/1.1/DTD/svg11.dtd">
<!-- Generated by graphviz version 2.38.0 (20140413.2041)
 -->
<!-- Title: G Pages: 1 -->
<svg width="360pt" height="218pt"
 viewBox="0.00 0.00 360.04 218.00" xmlns="http://www.w3.org/2000/svg" xmlns:xlink="http://www.w3.org/1999/xlink">
<g id="graph0" class="graph" transform="scale(1 1) rotate(0) translate(4 214)">
<title>G</title>
<polygon fill="white" stroke="none" points="-4,4 -4,-214 356.035,-214 356.035,4 -4,4"/>
<!-- Hair -->
<g id="node1" class="node"><title>Hair</title>
<ellipse fill="none" stroke="black" cx="36.3968" cy="-192" rx="27" ry="18"/>
<text text-anchor="middle" x="36.3968" y="-188.3" font-family="Times New Roman,serif" font-size="14.00">Hair</text>
</g>
<!-- Thread -->
<g id="node4" class="node"><title>Thread</title>
<ellipse fill="none" stroke="black" cx="36.3968" cy="-105" rx="36.2938" ry="18"/>
<text text-anchor="middle" x="36.3968" y="-101.3" font-family="Times New Roman,serif" font-size="14.00">Thread</text>
</g>
<!-- Hair&#45;&gt;Thread -->
<g id="edge1" class="edge"><title>Hair&#45;&gt;Thread</title>
<path fill="none" stroke="black" d="M36.3968,-173.799C36.3968,-162.163 36.3968,-146.548 36.3968,-133.237"/>
<polygon fill="black" stroke="black" points="39.8969,-133.175 36.3968,-123.175 32.8969,-133.175 39.8969,-133.175"/>
<text text-anchor="middle" x="64.3968" y="-144.8" font-family="Times New Roman,serif" font-size="14.00">Crafting 0</text>
</g>
<!-- Skull_Human_A_Magic_Ancient -->
<g id="node2" class="node"><title>Skull_Human_A_Magic_Ancient</title>
<ellipse fill="none" stroke="black" cx="221.397" cy="-105" rx="130.777" ry="18"/>
<text text-anchor="middle" x="221.397" y="-101.3" font-family="Times New Roman,serif" font-size="14.00">Skull_Human_A_Magic_Ancient</text>
</g>
<!-- Skull_MagicAmulet_A_Ancient -->
<g id="node3" class="node"><title>Skull_MagicAmulet_A_Ancient</title>
<ellipse fill="none" stroke="black" cx="155.397" cy="-18" rx="126.178" ry="18"/>
<text text-anchor="middle" x="155.397" y="-14.3" font-family="Times New Roman,serif" font-size="14.00">Skull_MagicAmulet_A_Ancient</text>
</g>
<!-- Skull_Human_A_Magic_Ancient&#45;&gt;Skull_MagicAmulet_A_Ancient -->
<g id="edge2" class="edge"><title>Skull_Human_A_Magic_Ancient&#45;&gt;Skull_MagicAmulet_A_Ancient</title>
<path fill="none" stroke="black" d="M208.041,-86.799C198.558,-74.5865 185.673,-57.9921 175.024,-44.2776"/>
<polygon fill="black" stroke="black" points="177.63,-41.9274 168.733,-36.1754 172.102,-46.2205 177.63,-41.9274"/>
<text text-anchor="middle" x="219.397" y="-57.8" font-family="Times New Roman,serif" font-size="14.00">Crafting 3</text>
</g>
<!-- Thread&#45;&gt;Skull_MagicAmulet_A_Ancient -->
<g id="edge3" class="edge"><title>Thread&#45;&gt;Skull_MagicAmulet_A_Ancient</title>
<path fill="none" stroke="black" d="M56.3147,-89.7729C74.6558,-76.6721 102.18,-57.0117 123.568,-41.7348"/>
<polygon fill="black" stroke="black" points="125.622,-44.5689 131.725,-35.9084 121.553,-38.8728 125.622,-44.5689"/>
<text text-anchor="middle" x="131.397" y="-57.8" font-family="Times New Roman,serif" font-size="14.00">Crafting 3</text>
</g>
</g>
</svg>
