<?xml version="1.0" encoding="UTF-8" standalone="no"?>
<!DOCTYPE svg PUBLIC "-//W3C//DTD SVG 1.1//EN"
 "http://www.w3.org/Graphics/SVG/1.1/DTD/svg11.dtd">
<!-- Generated by graphviz version 2.38.0 (20140413.2041)
 -->
<!-- Title: G Pages: 1 -->
<svg width="252pt" height="149pt"
 viewBox="0.00 0.00 252.04 148.74" xmlns="http://www.w3.org/2000/svg" xmlns:xlink="http://www.w3.org/1999/xlink">
<g id="graph0" class="graph" transform="scale(1 1) rotate(0) translate(4 144.74)">
<title>G</title>
<polygon fill="white" stroke="none" points="-4,4 -4,-144.74 248.038,-144.74 248.038,4 -4,4"/>
<!-- Soul_Tormented -->
<g id="node1" class="node"><title>Soul_Tormented</title>
<ellipse fill="none" stroke="black" cx="72.1436" cy="-122.74" rx="72.2875" ry="18"/>
<text text-anchor="middle" x="72.1436" y="-119.04" font-family="Times New Roman,serif" font-size="14.00">Soul_Tormented</text>
</g>
<!-- Dagger
+ Small_TormentedSoul -->
<g id="node3" class="node"><title>Dagger
+ Small_TormentedSoul</title>
<ellipse fill="none" stroke="black" cx="135.144" cy="-26.8701" rx="108.789" ry="26.7407"/>
<text text-anchor="middle" x="135.144" y="-30.6701" font-family="Times New Roman,serif" font-size="14.00">Dagger</text>
<text text-anchor="middle" x="135.144" y="-15.6701" font-family="Times New Roman,serif" font-size="14.00">+ Small_TormentedSoul</text>
</g>
<!-- Soul_Tormented&#45;&gt;Dagger
+ Small_TormentedSoul -->
<g id="edge1" class="edge"><title>Soul_Tormented&#45;&gt;Dagger
+ Small_TormentedSoul</title>
<path fill="none" stroke="black" d="M83.4067,-104.958C91.395,-93.0556 102.394,-76.6666 112.198,-62.0596"/>
<polygon fill="black" stroke="black" points="115.133,-63.9664 117.8,-53.7126 109.321,-60.0655 115.133,-63.9664"/>
<text text-anchor="middle" x="134.144" y="-75.5401" font-family="Times New Roman,serif" font-size="14.00">Crafting 5</text>
</g>
<!-- Dagger -->
<g id="node2" class="node"><title>Dagger</title>
<ellipse fill="none" stroke="black" cx="199.144" cy="-122.74" rx="36.2938" ry="18"/>
<text text-anchor="middle" x="199.144" y="-119.04" font-family="Times New Roman,serif" font-size="14.00">Dagger</text>
</g>
<!-- Dagger&#45;&gt;Dagger
+ Small_TormentedSoul -->
<g id="edge2" class="edge"><title>Dagger&#45;&gt;Dagger
+ Small_TormentedSoul</title>
<path fill="none" stroke="black" d="M188.573,-105.44C182.161,-95.6243 173.77,-82.905 166.144,-71.7401 164.02,-68.6309 161.795,-65.4112 159.553,-62.1931"/>
<polygon fill="black" stroke="black" points="162.246,-59.9361 153.64,-53.756 156.513,-63.9538 162.246,-59.9361"/>
<text text-anchor="middle" x="204.144" y="-75.5401" font-family="Times New Roman,serif" font-size="14.00">Crafting 5</text>
</g>
</g>
</svg>
