<?xml version="1.0" encoding="UTF-8" standalone="no"?>
<!DOCTYPE svg PUBLIC "-//W3C//DTD SVG 1.1//EN"
 "http://www.w3.org/Graphics/SVG/1.1/DTD/svg11.dtd">
<!-- Generated by graphviz version 2.38.0 (20140413.2041)
 -->
<!-- Title: G Pages: 1 -->
<svg width="208pt" height="149pt"
 viewBox="0.00 0.00 207.54 148.74" xmlns="http://www.w3.org/2000/svg" xmlns:xlink="http://www.w3.org/1999/xlink">
<g id="graph0" class="graph" transform="scale(1 1) rotate(0) translate(4 144.74)">
<title>G</title>
<polygon fill="white" stroke="none" points="-4,4 -4,-144.74 203.545,-144.74 203.545,4 -4,4"/>
<!-- Essence_Air -->
<g id="node1" class="node"><title>Essence_Air</title>
<ellipse fill="none" stroke="black" cx="56.545" cy="-122.74" rx="56.59" ry="18"/>
<text text-anchor="middle" x="56.545" y="-119.04" font-family="Times New Roman,serif" font-size="14.00">Essence_Air</text>
</g>
<!-- Bow
+ Small_AirDamage -->
<g id="node2" class="node"><title>Bow
+ Small_AirDamage</title>
<ellipse fill="none" stroke="black" cx="107.545" cy="-26.8701" rx="91.4341" ry="26.7407"/>
<text text-anchor="middle" x="107.545" y="-30.6701" font-family="Times New Roman,serif" font-size="14.00">Bow</text>
<text text-anchor="middle" x="107.545" y="-15.6701" font-family="Times New Roman,serif" font-size="14.00">+ Small_AirDamage</text>
</g>
<!-- Essence_Air&#45;&gt;Bow
+ Small_AirDamage -->
<g id="edge1" class="edge"><title>Essence_Air&#45;&gt;Bow
+ Small_AirDamage</title>
<path fill="none" stroke="black" d="M64.1165,-104.854C68.6403,-95.0585 74.6403,-82.5585 80.545,-71.7401 82.224,-68.6639 84.0216,-65.5014 85.8623,-62.3513"/>
<polygon fill="black" stroke="black" points="88.974,-63.9671 91.1005,-53.5878 82.9656,-60.3756 88.974,-63.9671"/>
<text text-anchor="middle" x="108.545" y="-75.5401" font-family="Times New Roman,serif" font-size="14.00">Crafting 5</text>
</g>
<!-- Bow -->
<g id="node3" class="node"><title>Bow</title>
<ellipse fill="none" stroke="black" cx="158.545" cy="-122.74" rx="27.8951" ry="18"/>
<text text-anchor="middle" x="158.545" y="-119.04" font-family="Times New Roman,serif" font-size="14.00">Bow</text>
</g>
<!-- Bow&#45;&gt;Bow
+ Small_AirDamage -->
<g id="edge2" class="edge"><title>Bow&#45;&gt;Bow
+ Small_AirDamage</title>
<path fill="none" stroke="black" d="M152.093,-105.192C148.029,-95.2883 142.448,-82.5638 136.545,-71.7401 134.78,-68.5039 132.85,-65.1973 130.852,-61.9229"/>
<polygon fill="black" stroke="black" points="133.768,-59.9855 125.467,-53.4015 127.85,-63.7248 133.768,-59.9855"/>
<text text-anchor="middle" x="171.545" y="-75.5401" font-family="Times New Roman,serif" font-size="14.00">Crafting 5</text>
</g>
</g>
</svg>
