<?xml version="1.0" encoding="UTF-8" standalone="no"?>
<!DOCTYPE svg PUBLIC "-//W3C//DTD SVG 1.1//EN"
 "http://www.w3.org/Graphics/SVG/1.1/DTD/svg11.dtd">
<!-- Generated by graphviz version 2.38.0 (20140413.2041)
 -->
<!-- Title: G Pages: 1 -->
<svg width="274pt" height="149pt"
 viewBox="0.00 0.00 274.14 148.74" xmlns="http://www.w3.org/2000/svg" xmlns:xlink="http://www.w3.org/1999/xlink">
<g id="graph0" class="graph" transform="scale(1 1) rotate(0) translate(4 144.74)">
<title>G</title>
<polygon fill="white" stroke="none" points="-4,4 -4,-144.74 270.139,-144.74 270.139,4 -4,4"/>
<!-- ArmorHelmet -->
<g id="node1" class="node"><title>ArmorHelmet</title>
<ellipse fill="none" stroke="black" cx="59.7947" cy="-122.74" rx="59.5901" ry="18"/>
<text text-anchor="middle" x="59.7947" y="-119.04" font-family="Times New Roman,serif" font-size="14.00">ArmorHelmet</text>
</g>
<!-- ArmorHelmet
+ Small_EarthResistance -->
<g id="node3" class="node"><title>ArmorHelmet
+ Small_EarthResistance</title>
<ellipse fill="none" stroke="black" cx="130.795" cy="-26.8701" rx="110.118" ry="26.7407"/>
<text text-anchor="middle" x="130.795" y="-30.6701" font-family="Times New Roman,serif" font-size="14.00">ArmorHelmet</text>
<text text-anchor="middle" x="130.795" y="-15.6701" font-family="Times New Roman,serif" font-size="14.00">+ Small_EarthResistance</text>
</g>
<!-- ArmorHelmet&#45;&gt;ArmorHelmet
+ Small_EarthResistance -->
<g id="edge1" class="edge"><title>ArmorHelmet&#45;&gt;ArmorHelmet
+ Small_EarthResistance</title>
<path fill="none" stroke="black" d="M72.4881,-104.958C81.5574,-92.9674 94.0705,-76.4235 105.18,-61.7353"/>
<polygon fill="black" stroke="black" points="108.282,-63.437 111.523,-53.35 102.699,-59.2142 108.282,-63.437"/>
<text text-anchor="middle" x="125.795" y="-75.5401" font-family="Times New Roman,serif" font-size="14.00">Crafting 3</text>
</g>
<!-- Essence_Earth -->
<g id="node2" class="node"><title>Essence_Earth</title>
<ellipse fill="none" stroke="black" cx="201.795" cy="-122.74" rx="64.189" ry="18"/>
<text text-anchor="middle" x="201.795" y="-119.04" font-family="Times New Roman,serif" font-size="14.00">Essence_Earth</text>
</g>
<!-- Essence_Earth&#45;&gt;ArmorHelmet
+ Small_EarthResistance -->
<g id="edge2" class="edge"><title>Essence_Earth&#45;&gt;ArmorHelmet
+ Small_EarthResistance</title>
<path fill="none" stroke="black" d="M189.101,-104.958C180.032,-92.9674 167.519,-76.4235 156.409,-61.7353"/>
<polygon fill="black" stroke="black" points="158.891,-59.2142 150.067,-53.35 153.308,-63.437 158.891,-59.2142"/>
<text text-anchor="middle" x="201.795" y="-75.5401" font-family="Times New Roman,serif" font-size="14.00">Crafting 3</text>
</g>
</g>
</svg>
