<?xml version="1.0" encoding="UTF-8" standalone="no"?>
<!DOCTYPE svg PUBLIC "-//W3C//DTD SVG 1.1//EN"
 "http://www.w3.org/Graphics/SVG/1.1/DTD/svg11.dtd">
<!-- Generated by graphviz version 2.38.0 (20140413.2041)
 -->
<!-- Title: G Pages: 1 -->
<svg width="376pt" height="236pt"
 viewBox="0.00 0.00 376.00 235.74" xmlns="http://www.w3.org/2000/svg" xmlns:xlink="http://www.w3.org/1999/xlink">
<g id="graph0" class="graph" transform="scale(1 1) rotate(0) translate(4 231.74)">
<title>G</title>
<polygon fill="white" stroke="none" points="-4,4 -4,-231.74 371.999,-231.74 371.999,4 -4,4"/>
<!-- String_Bow -->
<g id="node1" class="node"><title>String_Bow</title>
<ellipse fill="none" stroke="black" cx="102.803" cy="-122.74" rx="53.8905" ry="18"/>
<text text-anchor="middle" x="102.803" y="-119.04" font-family="Times New Roman,serif" font-size="14.00">String_Bow</text>
</g>
<!-- Crossbow
+ Medium_Damage -->
<g id="node2" class="node"><title>Crossbow
+ Medium_Damage</title>
<ellipse fill="none" stroke="black" cx="89.8026" cy="-26.8701" rx="89.6056" ry="26.7407"/>
<text text-anchor="middle" x="89.8026" y="-30.6701" font-family="Times New Roman,serif" font-size="14.00">Crossbow</text>
<text text-anchor="middle" x="89.8026" y="-15.6701" font-family="Times New Roman,serif" font-size="14.00">+ Medium_Damage</text>
</g>
<!-- String_Bow&#45;&gt;Crossbow
+ Medium_Damage -->
<g id="edge1" class="edge"><title>String_Bow&#45;&gt;Crossbow
+ Medium_Damage</title>
<path fill="none" stroke="black" d="M80.6646,-106.251C74.7031,-100.833 69.0197,-94.2118 65.8026,-86.7401 62.4143,-78.871 63.2875,-70.3613 66.1493,-62.323"/>
<polygon fill="black" stroke="black" points="69.3569,-63.724 70.2862,-53.17 62.9782,-60.841 69.3569,-63.724"/>
<text text-anchor="middle" x="93.8026" y="-75.5401" font-family="Times New Roman,serif" font-size="14.00">Crafting 5</text>
</g>
<!-- Crossbow
+ Small_Damage -->
<g id="node3" class="node"><title>Crossbow
+ Small_Damage</title>
<ellipse fill="none" stroke="black" cx="288.803" cy="-26.8701" rx="79.3924" ry="26.7407"/>
<text text-anchor="middle" x="288.803" y="-30.6701" font-family="Times New Roman,serif" font-size="14.00">Crossbow</text>
<text text-anchor="middle" x="288.803" y="-15.6701" font-family="Times New Roman,serif" font-size="14.00">+ Small_Damage</text>
</g>
<!-- String_Bow&#45;&gt;Crossbow
+ Small_Damage -->
<g id="edge2" class="edge"><title>String_Bow&#45;&gt;Crossbow
+ Small_Damage</title>
<path fill="none" stroke="black" d="M111.982,-104.636C118.641,-93.7528 128.603,-80.1682 140.803,-71.7401 147.706,-66.9713 183.269,-56.3706 217.802,-46.7846"/>
<polygon fill="black" stroke="black" points="218.78,-50.1456 227.49,-44.1135 216.919,-43.3974 218.78,-50.1456"/>
<text text-anchor="middle" x="169.803" y="-75.5401" font-family="Times New Roman,serif" font-size="14.00">Crafting 3</text>
</g>
<!-- Crossbow -->
<g id="node4" class="node"><title>Crossbow</title>
<ellipse fill="none" stroke="black" cx="261.803" cy="-122.74" rx="48.9926" ry="18"/>
<text text-anchor="middle" x="261.803" y="-119.04" font-family="Times New Roman,serif" font-size="14.00">Crossbow</text>
</g>
<!-- Crossbow&#45;&gt;Crossbow
+ Medium_Damage -->
<g id="edge4" class="edge"><title>Crossbow&#45;&gt;Crossbow
+ Medium_Damage</title>
<path fill="none" stroke="black" d="M242.854,-105.971C225.824,-91.8356 203.134,-73.1108 200.803,-71.7401 187.542,-63.9435 172.637,-56.9795 158.158,-51.0209"/>
<polygon fill="black" stroke="black" points="159.31,-47.7124 148.725,-47.2518 156.713,-54.2126 159.31,-47.7124"/>
<text text-anchor="middle" x="247.803" y="-75.5401" font-family="Times New Roman,serif" font-size="14.00">Crafting 5</text>
</g>
<!-- Crossbow&#45;&gt;Crossbow
+ Small_Damage -->
<g id="edge5" class="edge"><title>Crossbow&#45;&gt;Crossbow
+ Small_Damage</title>
<path fill="none" stroke="black" d="M271.926,-104.772C274.87,-99.1922 277.823,-92.8502 279.803,-86.7401 282.147,-79.5047 283.887,-71.5665 285.177,-63.9268"/>
<polygon fill="black" stroke="black" points="288.676,-64.1917 286.671,-53.7883 281.75,-63.1712 288.676,-64.1917"/>
<text text-anchor="middle" x="311.803" y="-75.5401" font-family="Times New Roman,serif" font-size="14.00">Crafting 3</text>
</g>
<!-- Sinew -->
<g id="node5" class="node"><title>Sinew</title>
<ellipse fill="none" stroke="black" cx="102.803" cy="-209.74" rx="32.4942" ry="18"/>
<text text-anchor="middle" x="102.803" y="-206.04" font-family="Times New Roman,serif" font-size="14.00">Sinew</text>
</g>
<!-- Sinew&#45;&gt;String_Bow -->
<g id="edge3" class="edge"><title>Sinew&#45;&gt;String_Bow</title>
<path fill="none" stroke="black" d="M102.803,-191.539C102.803,-179.903 102.803,-164.288 102.803,-150.977"/>
<polygon fill="black" stroke="black" points="106.303,-150.916 102.803,-140.916 99.3027,-150.916 106.303,-150.916"/>
<text text-anchor="middle" x="130.803" y="-162.54" font-family="Times New Roman,serif" font-size="14.00">Crafting 0</text>
</g>
</g>
</svg>
