<?xml version="1.0" encoding="UTF-8" standalone="no"?>
<!DOCTYPE svg PUBLIC "-//W3C//DTD SVG 1.1//EN"
 "http://www.w3.org/Graphics/SVG/1.1/DTD/svg11.dtd">
<!-- Generated by graphviz version 2.38.0 (20140413.2041)
 -->
<!-- Title: G Pages: 1 -->
<svg width="779pt" height="305pt"
 viewBox="0.00 0.00 779.09 305.00" xmlns="http://www.w3.org/2000/svg" xmlns:xlink="http://www.w3.org/1999/xlink">
<g id="graph0" class="graph" transform="scale(1 1) rotate(0) translate(4 301)">
<title>G</title>
<polygon fill="white" stroke="none" points="-4,4 -4,-301 775.091,-301 775.091,4 -4,4"/>
<!-- Arrow_Debuff_Strength -->
<g id="node1" class="node"><title>Arrow_Debuff_Strength</title>
<ellipse fill="none" stroke="black" cx="402.694" cy="-18" rx="99.3824" ry="18"/>
<text text-anchor="middle" x="402.694" y="-14.3" font-family="Times New Roman,serif" font-size="14.00">Arrow_Debuff_Strength</text>
</g>
<!-- ArrowHead_Antler -->
<g id="node2" class="node"><title>ArrowHead_Antler</title>
<ellipse fill="none" stroke="black" cx="500.694" cy="-192" rx="79.8859" ry="18"/>
<text text-anchor="middle" x="500.694" y="-188.3" font-family="Times New Roman,serif" font-size="14.00">ArrowHead_Antler</text>
</g>
<!-- Arrow_KO -->
<g id="node5" class="node"><title>Arrow_KO</title>
<ellipse fill="none" stroke="black" cx="500.694" cy="-105" rx="51.9908" ry="18"/>
<text text-anchor="middle" x="500.694" y="-101.3" font-family="Times New Roman,serif" font-size="14.00">Arrow_KO</text>
</g>
<!-- ArrowHead_Antler&#45;&gt;Arrow_KO -->
<g id="edge1" class="edge"><title>ArrowHead_Antler&#45;&gt;Arrow_KO</title>
<path fill="none" stroke="black" d="M500.694,-173.799C500.694,-162.163 500.694,-146.548 500.694,-133.237"/>
<polygon fill="black" stroke="black" points="504.194,-133.175 500.694,-123.175 497.194,-133.175 504.194,-133.175"/>
<text text-anchor="middle" x="528.694" y="-144.8" font-family="Times New Roman,serif" font-size="14.00">Crafting 1</text>
</g>
<!-- Potion_Empty -->
<g id="node3" class="node"><title>Potion_Empty</title>
<ellipse fill="none" stroke="black" cx="63.6943" cy="-279" rx="63.8893" ry="18"/>
<text text-anchor="middle" x="63.6943" y="-275.3" font-family="Times New Roman,serif" font-size="14.00">Potion_Empty</text>
</g>
<!-- Potion_Poison -->
<g id="node9" class="node"><title>Potion_Poison</title>
<ellipse fill="none" stroke="black" cx="267.694" cy="-192" rx="64.9885" ry="18"/>
<text text-anchor="middle" x="267.694" y="-188.3" font-family="Times New Roman,serif" font-size="14.00">Potion_Poison</text>
</g>
<!-- Potion_Empty&#45;&gt;Potion_Poison -->
<g id="edge2" class="edge"><title>Potion_Empty&#45;&gt;Potion_Poison</title>
<path fill="none" stroke="black" d="M94.116,-263.083C115.59,-252.76 145.148,-238.961 171.694,-228 186.894,-221.724 203.672,-215.404 218.894,-209.895"/>
<polygon fill="black" stroke="black" points="220.408,-213.07 228.64,-206.4 218.045,-206.481 220.408,-213.07"/>
<text text-anchor="middle" x="199.694" y="-231.8" font-family="Times New Roman,serif" font-size="14.00">Crafting 0</text>
</g>
<!-- Potion_Debuf_Strength -->
<g id="node4" class="node"><title>Potion_Debuf_Strength</title>
<ellipse fill="none" stroke="black" cx="267.694" cy="-105" rx="96.6831" ry="18"/>
<text text-anchor="middle" x="267.694" y="-101.3" font-family="Times New Roman,serif" font-size="14.00">Potion_Debuf_Strength</text>
</g>
<!-- Potion_Debuf_Strength&#45;&gt;Arrow_Debuff_Strength -->
<g id="edge3" class="edge"><title>Potion_Debuf_Strength&#45;&gt;Arrow_Debuff_Strength</title>
<path fill="none" stroke="black" d="M293.724,-87.6111C314.785,-74.3502 344.641,-55.5518 367.778,-40.9842"/>
<polygon fill="black" stroke="black" points="369.687,-43.9186 376.284,-35.6286 365.957,-37.9949 369.687,-43.9186"/>
<text text-anchor="middle" x="371.694" y="-57.8" font-family="Times New Roman,serif" font-size="14.00">Crafting 2</text>
</g>
<!-- Arrow_KO&#45;&gt;Arrow_Debuff_Strength -->
<g id="edge4" class="edge"><title>Arrow_KO&#45;&gt;Arrow_Debuff_Strength</title>
<path fill="none" stroke="black" d="M482.261,-88.0122C467.49,-75.2005 446.549,-57.0371 429.857,-42.5598"/>
<polygon fill="black" stroke="black" points="431.898,-39.6967 422.051,-35.7885 427.312,-44.9848 431.898,-39.6967"/>
<text text-anchor="middle" x="485.694" y="-57.8" font-family="Times New Roman,serif" font-size="14.00">Crafting 2</text>
</g>
<!-- Tooth -->
<g id="node6" class="node"><title>Tooth</title>
<ellipse fill="none" stroke="black" cx="151.694" cy="-192" rx="33.2948" ry="18"/>
<text text-anchor="middle" x="151.694" y="-188.3" font-family="Times New Roman,serif" font-size="14.00">Tooth</text>
</g>
<!-- Tooth&#45;&gt;Potion_Debuf_Strength -->
<g id="edge5" class="edge"><title>Tooth&#45;&gt;Potion_Debuf_Strength</title>
<path fill="none" stroke="black" d="M167.146,-175.664C178.008,-165.278 193.145,-151.574 207.694,-141 214.211,-136.264 221.411,-131.617 228.495,-127.334"/>
<polygon fill="black" stroke="black" points="230.503,-130.214 237.346,-122.126 226.953,-124.181 230.503,-130.214"/>
<text text-anchor="middle" x="235.694" y="-144.8" font-family="Times New Roman,serif" font-size="14.00">Crafting 2</text>
</g>
<!-- Barrel_Ooze -->
<g id="node7" class="node"><title>Barrel_Ooze</title>
<ellipse fill="none" stroke="black" cx="201.694" cy="-279" rx="56.59" ry="18"/>
<text text-anchor="middle" x="201.694" y="-275.3" font-family="Times New Roman,serif" font-size="14.00">Barrel_Ooze</text>
</g>
<!-- Barrel_Ooze&#45;&gt;Potion_Poison -->
<g id="edge6" class="edge"><title>Barrel_Ooze&#45;&gt;Potion_Poison</title>
<path fill="none" stroke="black" d="M214.734,-261.207C224.316,-248.866 237.494,-231.894 248.308,-217.967"/>
<polygon fill="black" stroke="black" points="251.313,-219.803 254.682,-209.758 245.784,-215.51 251.313,-219.803"/>
<text text-anchor="middle" x="266.694" y="-231.8" font-family="Times New Roman,serif" font-size="14.00">Crafting 0</text>
</g>
<!-- ArrowShaft -->
<g id="node8" class="node"><title>ArrowShaft</title>
<ellipse fill="none" stroke="black" cx="655.694" cy="-192" rx="53.0913" ry="18"/>
<text text-anchor="middle" x="655.694" y="-188.3" font-family="Times New Roman,serif" font-size="14.00">ArrowShaft</text>
</g>
<!-- ArrowShaft&#45;&gt;Arrow_KO -->
<g id="edge7" class="edge"><title>ArrowShaft&#45;&gt;Arrow_KO</title>
<path fill="none" stroke="black" d="M629.049,-176.388C603.353,-162.297 564.303,-140.882 536.023,-125.374"/>
<polygon fill="black" stroke="black" points="537.702,-122.303 527.251,-120.563 534.336,-128.441 537.702,-122.303"/>
<text text-anchor="middle" x="615.694" y="-144.8" font-family="Times New Roman,serif" font-size="14.00">Crafting 1</text>
</g>
<!-- Potion_Poison&#45;&gt;Potion_Debuf_Strength -->
<g id="edge8" class="edge"><title>Potion_Poison&#45;&gt;Potion_Debuf_Strength</title>
<path fill="none" stroke="black" d="M267.694,-173.799C267.694,-162.163 267.694,-146.548 267.694,-133.237"/>
<polygon fill="black" stroke="black" points="271.194,-133.175 267.694,-123.175 264.194,-133.175 271.194,-133.175"/>
<text text-anchor="middle" x="295.694" y="-144.8" font-family="Times New Roman,serif" font-size="14.00">Crafting 2</text>
</g>
<!-- Branch -->
<g id="node10" class="node"><title>Branch</title>
<ellipse fill="none" stroke="black" cx="734.694" cy="-279" rx="36.2938" ry="18"/>
<text text-anchor="middle" x="734.694" y="-275.3" font-family="Times New Roman,serif" font-size="14.00">Branch</text>
</g>
<!-- Branch&#45;&gt;ArrowShaft -->
<g id="edge9" class="edge"><title>Branch&#45;&gt;ArrowShaft</title>
<path fill="none" stroke="black" d="M725.568,-261.23C719.552,-251.008 711.071,-238.028 701.694,-228 697.286,-223.286 692.19,-218.732 687.029,-214.554"/>
<polygon fill="black" stroke="black" points="689.013,-211.664 678.956,-208.331 684.74,-217.208 689.013,-211.664"/>
<text text-anchor="middle" x="741.694" y="-231.8" font-family="Times New Roman,serif" font-size="14.00">Crafting 0</text>
</g>
<!-- Antler -->
<g id="node11" class="node"><title>Antler</title>
<ellipse fill="none" stroke="black" cx="497.694" cy="-279" rx="32.4942" ry="18"/>
<text text-anchor="middle" x="497.694" y="-275.3" font-family="Times New Roman,serif" font-size="14.00">Antler</text>
</g>
<!-- Antler&#45;&gt;ArrowHead_Antler -->
<g id="edge10" class="edge"><title>Antler&#45;&gt;ArrowHead_Antler</title>
<path fill="none" stroke="black" d="M497.88,-260.871C498.024,-251.215 498.273,-238.932 498.694,-228 498.793,-225.446 498.913,-222.787 499.045,-220.128"/>
<polygon fill="black" stroke="black" points="502.543,-220.259 499.591,-210.084 495.553,-219.879 502.543,-220.259"/>
<text text-anchor="middle" x="526.694" y="-231.8" font-family="Times New Roman,serif" font-size="14.00">Crafting 1</text>
</g>
<!-- Herb_Mushroom_C -->
<g id="node12" class="node"><title>Herb_Mushroom_C</title>
<ellipse fill="none" stroke="black" cx="361.694" cy="-279" rx="85.2851" ry="18"/>
<text text-anchor="middle" x="361.694" y="-275.3" font-family="Times New Roman,serif" font-size="14.00">Herb_Mushroom_C</text>
</g>
<!-- Herb_Mushroom_C&#45;&gt;Potion_Poison -->
<g id="edge11" class="edge"><title>Herb_Mushroom_C&#45;&gt;Potion_Poison</title>
<path fill="none" stroke="black" d="M343.123,-261.207C328.999,-248.435 309.387,-230.701 293.702,-216.518"/>
<polygon fill="black" stroke="black" points="295.672,-213.58 285.907,-209.469 290.977,-218.772 295.672,-213.58"/>
<text text-anchor="middle" x="348.694" y="-231.8" font-family="Times New Roman,serif" font-size="14.00">Crafting 1</text>
</g>
<!-- Knife -->
<g id="node13" class="node"><title>Knife</title>
<ellipse fill="none" stroke="black" cx="614.694" cy="-279" rx="30.5947" ry="18"/>
<text text-anchor="middle" x="614.694" y="-275.3" font-family="Times New Roman,serif" font-size="14.00">Knife</text>
</g>
<!-- Knife&#45;&gt;ArrowHead_Antler -->
<g id="edge13" class="edge"><title>Knife&#45;&gt;ArrowHead_Antler</title>
<path fill="none" stroke="black" d="M597.997,-263.703C583.366,-251.248 563.155,-234.233 554.694,-228 548.634,-223.536 542.023,-218.997 535.572,-214.732"/>
<polygon fill="black" stroke="black" points="537.231,-211.636 526.939,-209.119 533.415,-217.505 537.231,-211.636"/>
<text text-anchor="middle" x="600.694" y="-231.8" font-family="Times New Roman,serif" font-size="14.00">Crafting 1</text>
</g>
<!-- Knife&#45;&gt;ArrowShaft -->
<g id="edge12" class="edge"><title>Knife&#45;&gt;ArrowShaft</title>
<path fill="none" stroke="black" d="M623.871,-261.765C627.085,-255.906 630.65,-249.208 633.694,-243 637.394,-235.456 641.167,-227.146 644.521,-219.502"/>
<polygon fill="black" stroke="black" points="647.75,-220.854 648.507,-210.286 641.325,-218.075 647.75,-220.854"/>
<text text-anchor="middle" x="669.694" y="-231.8" font-family="Times New Roman,serif" font-size="14.00">Crafting 0</text>
</g>
</g>
</svg>
