<?xml version="1.0" encoding="UTF-8" standalone="no"?>
<!DOCTYPE svg PUBLIC "-//W3C//DTD SVG 1.1//EN"
 "http://www.w3.org/Graphics/SVG/1.1/DTD/svg11.dtd">
<!-- Generated by graphviz version 2.38.0 (20140413.2041)
 -->
<!-- Title: G Pages: 1 -->
<svg width="399pt" height="131pt"
 viewBox="0.00 0.00 398.89 131.00" xmlns="http://www.w3.org/2000/svg" xmlns:xlink="http://www.w3.org/1999/xlink">
<g id="graph0" class="graph" transform="scale(1 1) rotate(0) translate(4 127)">
<title>G</title>
<polygon fill="white" stroke="none" points="-4,4 -4,-127 394.889,-127 394.889,4 -4,4"/>
<!-- ShieldMetal -->
<g id="node1" class="node"><title>ShieldMetal</title>
<ellipse fill="none" stroke="black" cx="53.2953" cy="-105" rx="53.0913" ry="18"/>
<text text-anchor="middle" x="53.2953" y="-101.3" font-family="Times New Roman,serif" font-size="14.00">ShieldMetal</text>
</g>
<!-- Shield_Small_WaterResistance -->
<g id="node2" class="node"><title>Shield_Small_WaterResistance</title>
<ellipse fill="none" stroke="black" cx="181.295" cy="-18" rx="124.278" ry="18"/>
<text text-anchor="middle" x="181.295" y="-14.3" font-family="Times New Roman,serif" font-size="14.00">Shield_Small_WaterResistance</text>
</g>
<!-- ShieldMetal&#45;&gt;Shield_Small_WaterResistance -->
<g id="edge1" class="edge"><title>ShieldMetal&#45;&gt;Shield_Small_WaterResistance</title>
<path fill="none" stroke="black" d="M73.4266,-88.3262C86.7537,-78.1692 104.76,-64.8584 121.295,-54 128.099,-49.5319 135.487,-44.9867 142.677,-40.7157"/>
<polygon fill="black" stroke="black" points="144.759,-43.5524 151.62,-35.4789 141.222,-37.5118 144.759,-43.5524"/>
<text text-anchor="middle" x="149.295" y="-57.8" font-family="Times New Roman,serif" font-size="14.00">Crafting 4</text>
</g>
<!-- ShieldWood -->
<g id="node3" class="node"><title>ShieldWood</title>
<ellipse fill="none" stroke="black" cx="181.295" cy="-105" rx="56.59" ry="18"/>
<text text-anchor="middle" x="181.295" y="-101.3" font-family="Times New Roman,serif" font-size="14.00">ShieldWood</text>
</g>
<!-- ShieldWood&#45;&gt;Shield_Small_WaterResistance -->
<g id="edge2" class="edge"><title>ShieldWood&#45;&gt;Shield_Small_WaterResistance</title>
<path fill="none" stroke="black" d="M181.295,-86.799C181.295,-75.1626 181.295,-59.5479 181.295,-46.2368"/>
<polygon fill="black" stroke="black" points="184.795,-46.1754 181.295,-36.1754 177.795,-46.1755 184.795,-46.1754"/>
<text text-anchor="middle" x="209.295" y="-57.8" font-family="Times New Roman,serif" font-size="14.00">Crafting 4</text>
</g>
<!-- Essence_Water -->
<g id="node4" class="node"><title>Essence_Water</title>
<ellipse fill="none" stroke="black" cx="323.295" cy="-105" rx="67.6881" ry="18"/>
<text text-anchor="middle" x="323.295" y="-101.3" font-family="Times New Roman,serif" font-size="14.00">Essence_Water</text>
</g>
<!-- Essence_Water&#45;&gt;Shield_Small_WaterResistance -->
<g id="edge3" class="edge"><title>Essence_Water&#45;&gt;Shield_Small_WaterResistance</title>
<path fill="none" stroke="black" d="M297.521,-88.1073C281.408,-78.2158 260.198,-65.2747 241.295,-54 234.159,-49.7432 226.517,-45.2423 219.159,-40.937"/>
<polygon fill="black" stroke="black" points="220.451,-37.6387 210.05,-35.6214 216.923,-43.6846 220.451,-37.6387"/>
<text text-anchor="middle" x="294.295" y="-57.8" font-family="Times New Roman,serif" font-size="14.00">Crafting 4</text>
</g>
</g>
</svg>
