<?xml version="1.0" encoding="UTF-8" standalone="no"?>
<!DOCTYPE svg PUBLIC "-//W3C//DTD SVG 1.1//EN"
 "http://www.w3.org/Graphics/SVG/1.1/DTD/svg11.dtd">
<!-- Generated by graphviz version 2.38.0 (20140413.2041)
 -->
<!-- Title: G Pages: 1 -->
<svg width="1284pt" height="323pt"
 viewBox="0.00 0.00 1284.25 322.74" xmlns="http://www.w3.org/2000/svg" xmlns:xlink="http://www.w3.org/1999/xlink">
<g id="graph0" class="graph" transform="scale(1 1) rotate(0) translate(4 318.74)">
<title>G</title>
<polygon fill="white" stroke="none" points="-4,4 -4,-318.74 1280.25,-318.74 1280.25,4 -4,4"/>
<!-- BattleAxe_1H_C
+ Large_Crit -->
<g id="node1" class="node"><title>BattleAxe_1H_C
+ Large_Crit</title>
<ellipse fill="none" stroke="black" cx="631.494" cy="-26.8701" rx="79.3924" ry="26.7407"/>
<text text-anchor="middle" x="631.494" y="-30.6701" font-family="Times New Roman,serif" font-size="14.00">BattleAxe_1H_C</text>
<text text-anchor="middle" x="631.494" y="-15.6701" font-family="Times New Roman,serif" font-size="14.00">+ Large_Crit</text>
</g>
<!-- OreBar_A_Steel -->
<g id="node2" class="node"><title>OreBar_A_Steel</title>
<ellipse fill="none" stroke="black" cx="517.494" cy="-122.74" rx="70.6878" ry="18"/>
<text text-anchor="middle" x="517.494" y="-119.04" font-family="Times New Roman,serif" font-size="14.00">OreBar_A_Steel</text>
</g>
<!-- OreBar_A_Steel&#45;&gt;BattleAxe_1H_C
+ Large_Crit -->
<g id="edge1" class="edge"><title>OreBar_A_Steel&#45;&gt;BattleAxe_1H_C
+ Large_Crit</title>
<path fill="none" stroke="black" d="M513.348,-104.522C511.865,-94.1322 511.926,-81.1322 518.494,-71.7401 524.376,-63.3281 542.183,-54.9569 561.974,-47.8168"/>
<polygon fill="black" stroke="black" points="563.182,-51.1023 571.486,-44.5219 560.891,-44.4878 563.182,-51.1023"/>
<text text-anchor="middle" x="546.494" y="-75.5401" font-family="Times New Roman,serif" font-size="14.00">Crafting 5</text>
</g>
<!-- SmallHandAxeTool_1H -->
<g id="node4" class="node"><title>SmallHandAxeTool_1H</title>
<ellipse fill="none" stroke="black" cx="436.494" cy="-26.8701" rx="98.2828" ry="18"/>
<text text-anchor="middle" x="436.494" y="-23.1701" font-family="Times New Roman,serif" font-size="14.00">SmallHandAxeTool_1H</text>
</g>
<!-- OreBar_A_Steel&#45;&gt;SmallHandAxeTool_1H -->
<g id="edge2" class="edge"><title>OreBar_A_Steel&#45;&gt;SmallHandAxeTool_1H</title>
<path fill="none" stroke="black" d="M452.483,-115.416C414.664,-110.244 372.196,-101.339 360.494,-86.7401 348.172,-71.3695 363.369,-57.6578 383.328,-47.3429"/>
<polygon fill="black" stroke="black" points="384.916,-50.4635 392.428,-42.9925 381.896,-44.1481 384.916,-50.4635"/>
<text text-anchor="middle" x="388.494" y="-75.5401" font-family="Times New Roman,serif" font-size="14.00">Crafting 1</text>
</g>
<!-- HatchetTool_1H -->
<g id="node6" class="node"><title>HatchetTool_1H</title>
<ellipse fill="none" stroke="black" cx="71.4937" cy="-26.8701" rx="71.4873" ry="18"/>
<text text-anchor="middle" x="71.4937" y="-23.1701" font-family="Times New Roman,serif" font-size="14.00">HatchetTool_1H</text>
</g>
<!-- OreBar_A_Steel&#45;&gt;HatchetTool_1H -->
<g id="edge3" class="edge"><title>OreBar_A_Steel&#45;&gt;HatchetTool_1H</title>
<path fill="none" stroke="black" d="M447.236,-120.415C353.277,-117.765 192.284,-109.895 138.494,-86.7401 120.709,-79.0844 104.313,-64.8615 92.1917,-52.3138"/>
<polygon fill="black" stroke="black" points="94.5864,-49.7486 85.223,-44.7912 89.4512,-54.5057 94.5864,-49.7486"/>
<text text-anchor="middle" x="166.494" y="-75.5401" font-family="Times New Roman,serif" font-size="14.00">Crafting 2</text>
</g>
<!-- BattleAxe_1H_B
+ Large_Damage -->
<g id="node9" class="node"><title>BattleAxe_1H_B
+ Large_Damage</title>
<ellipse fill="none" stroke="black" cx="240.494" cy="-26.8701" rx="79.8062" ry="26.7407"/>
<text text-anchor="middle" x="240.494" y="-30.6701" font-family="Times New Roman,serif" font-size="14.00">BattleAxe_1H_B</text>
<text text-anchor="middle" x="240.494" y="-15.6701" font-family="Times New Roman,serif" font-size="14.00">+ Large_Damage</text>
</g>
<!-- OreBar_A_Steel&#45;&gt;BattleAxe_1H_B
+ Large_Damage -->
<g id="edge4" class="edge"><title>OreBar_A_Steel&#45;&gt;BattleAxe_1H_B
+ Large_Damage</title>
<path fill="none" stroke="black" d="M448.041,-118.852C360.257,-114.475 218.571,-104.703 202.494,-86.7401 195.215,-78.6077 197.705,-68.9448 204.011,-59.8231"/>
<polygon fill="black" stroke="black" points="206.783,-61.962 210.386,-51.9984 201.356,-57.5408 206.783,-61.962"/>
<text text-anchor="middle" x="230.494" y="-75.5401" font-family="Times New Roman,serif" font-size="14.00">Crafting 5</text>
</g>
<!-- Axe_A_1_Axe_B -->
<g id="node10" class="node"><title>Axe_A_1_Axe_B</title>
<ellipse fill="none" stroke="black" cx="804.494" cy="-26.8701" rx="76.0865" ry="18"/>
<text text-anchor="middle" x="804.494" y="-23.1701" font-family="Times New Roman,serif" font-size="14.00">Axe_A_1_Axe_B</text>
</g>
<!-- OreBar_A_Steel&#45;&gt;Axe_A_1_Axe_B -->
<g id="edge7" class="edge"><title>OreBar_A_Steel&#45;&gt;Axe_A_1_Axe_B</title>
<path fill="none" stroke="black" d="M575.623,-112.339C600.457,-106.933 629.245,-98.7565 653.494,-86.7401 663.134,-81.9629 663.024,-76.8469 672.494,-71.7401 679.821,-67.7887 717.551,-55.3664 750.806,-44.7449"/>
<polygon fill="black" stroke="black" points="752.023,-48.0307 760.49,-41.662 749.899,-41.3606 752.023,-48.0307"/>
<text text-anchor="middle" x="701.494" y="-75.5401" font-family="Times New Roman,serif" font-size="14.00">Crafting 4</text>
</g>
<!-- WoodMaulTool_1H -->
<g id="node13" class="node"><title>WoodMaulTool_1H</title>
<ellipse fill="none" stroke="black" cx="983.494" cy="-26.8701" rx="85.2851" ry="18"/>
<text text-anchor="middle" x="983.494" y="-23.1701" font-family="Times New Roman,serif" font-size="14.00">WoodMaulTool_1H</text>
</g>
<!-- OreBar_A_Steel&#45;&gt;WoodMaulTool_1H -->
<g id="edge5" class="edge"><title>OreBar_A_Steel&#45;&gt;WoodMaulTool_1H</title>
<path fill="none" stroke="black" d="M584.045,-116.565C655.477,-110.485 764.01,-99.5812 803.494,-86.7401 816.548,-82.4945 817.814,-76.9994 830.494,-71.7401 839.465,-68.0193 884.724,-55.1548 923.711,-44.3115"/>
<polygon fill="black" stroke="black" points="924.762,-47.6521 933.461,-41.605 922.889,-40.9071 924.762,-47.6521"/>
<text text-anchor="middle" x="860.494" y="-75.5401" font-family="Times New Roman,serif" font-size="14.00">Crafting 2</text>
</g>
<!-- BattleAxe_1H_B
+ Small_ActionPoint -->
<g id="node14" class="node"><title>BattleAxe_1H_B
+ Small_ActionPoint</title>
<ellipse fill="none" stroke="black" cx="1181.49" cy="-26.8701" rx="94.5053" ry="26.7407"/>
<text text-anchor="middle" x="1181.49" y="-30.6701" font-family="Times New Roman,serif" font-size="14.00">BattleAxe_1H_B</text>
<text text-anchor="middle" x="1181.49" y="-15.6701" font-family="Times New Roman,serif" font-size="14.00">+ Small_ActionPoint</text>
</g>
<!-- OreBar_A_Steel&#45;&gt;BattleAxe_1H_B
+ Small_ActionPoint -->
<g id="edge6" class="edge"><title>OreBar_A_Steel&#45;&gt;BattleAxe_1H_B
+ Small_ActionPoint</title>
<path fill="none" stroke="black" d="M583.479,-115.895C621.974,-112.53 671.474,-108.28 715.494,-104.74 822.116,-96.1648 851.872,-113.281 955.494,-86.7401 971.101,-82.7426 973.166,-76.7022 988.494,-71.7401 1026.89,-59.3103 1038.12,-62.6132 1077.49,-53.7401 1085.71,-51.8877 1094.28,-49.8813 1102.81,-47.8332"/>
<polygon fill="black" stroke="black" points="1103.89,-51.1723 1112.79,-45.4165 1102.24,-44.369 1103.89,-51.1723"/>
<text text-anchor="middle" x="1019.49" y="-75.5401" font-family="Times New Roman,serif" font-size="14.00">Crafting 5</text>
</g>
<!-- Sword -->
<g id="node3" class="node"><title>Sword</title>
<ellipse fill="none" stroke="black" cx="385.494" cy="-296.74" rx="35.194" ry="18"/>
<text text-anchor="middle" x="385.494" y="-293.04" font-family="Times New Roman,serif" font-size="14.00">Sword</text>
</g>
<!-- OreBar_A_Iron -->
<g id="node8" class="node"><title>OreBar_A_Iron</title>
<ellipse fill="none" stroke="black" cx="367.494" cy="-209.74" rx="68.4888" ry="18"/>
<text text-anchor="middle" x="367.494" y="-206.04" font-family="Times New Roman,serif" font-size="14.00">OreBar_A_Iron</text>
</g>
<!-- Sword&#45;&gt;OreBar_A_Iron -->
<g id="edge19" class="edge"><title>Sword&#45;&gt;OreBar_A_Iron</title>
<path fill="none" stroke="black" d="M375.65,-279.203C372.78,-273.543 370.01,-267.045 368.494,-260.74 366.775,-253.594 366.083,-245.706 365.928,-238.349"/>
<polygon fill="black" stroke="black" points="369.43,-238.131 366.026,-228.098 362.43,-238.063 369.43,-238.131"/>
<text text-anchor="middle" x="396.494" y="-249.54" font-family="Times New Roman,serif" font-size="14.00">Crafting 1</text>
</g>
<!-- Anvil -->
<g id="node5" class="node"><title>Anvil</title>
<ellipse fill="none" stroke="black" cx="754.494" cy="-122.74" rx="29.795" ry="18"/>
<text text-anchor="middle" x="754.494" y="-119.04" font-family="Times New Roman,serif" font-size="14.00">Anvil</text>
</g>
<!-- Anvil&#45;&gt;BattleAxe_1H_C
+ Large_Crit -->
<g id="edge10" class="edge"><title>Anvil&#45;&gt;BattleAxe_1H_C
+ Large_Crit</title>
<path fill="none" stroke="black" d="M750.403,-104.605C747.106,-93.9839 741.501,-80.7048 732.494,-71.7401 723.208,-62.498 711.655,-55.0602 699.716,-49.1231"/>
<polygon fill="black" stroke="black" points="701.086,-45.9004 690.541,-44.8704 698.142,-52.2513 701.086,-45.9004"/>
<text text-anchor="middle" x="771.494" y="-75.5401" font-family="Times New Roman,serif" font-size="14.00">Crafting 5</text>
</g>
<!-- Anvil&#45;&gt;SmallHandAxeTool_1H -->
<g id="edge12" class="edge"><title>Anvil&#45;&gt;SmallHandAxeTool_1H</title>
<path fill="none" stroke="black" d="M725.009,-119.354C691.71,-115.765 636.56,-107.077 593.494,-86.7401 583.765,-82.1461 583.996,-76.7849 574.494,-71.7401 552.733,-60.1879 527.41,-51.0514 504.44,-44.174"/>
<polygon fill="black" stroke="black" points="505.337,-40.7898 494.757,-41.3644 503.386,-47.5125 505.337,-40.7898"/>
<text text-anchor="middle" x="621.494" y="-75.5401" font-family="Times New Roman,serif" font-size="14.00">Crafting 1</text>
</g>
<!-- Anvil&#45;&gt;HatchetTool_1H -->
<g id="edge11" class="edge"><title>Anvil&#45;&gt;HatchetTool_1H</title>
<path fill="none" stroke="black" d="M725.309,-118.155C693.814,-114.386 642.162,-108.492 597.494,-104.74 463.947,-93.5233 427.343,-115.705 296.494,-86.7401 278.766,-82.8159 275.987,-76.6061 258.494,-71.7401 212.034,-58.8163 198.339,-65.1896 151.494,-53.7401 141.393,-51.2714 130.719,-48.1734 120.573,-44.9876"/>
<polygon fill="black" stroke="black" points="121.635,-41.6526 111.044,-41.924 119.493,-48.3167 121.635,-41.6526"/>
<text text-anchor="middle" x="324.494" y="-75.5401" font-family="Times New Roman,serif" font-size="14.00">Crafting 2</text>
</g>
<!-- Anvil&#45;&gt;BattleAxe_1H_B
+ Large_Damage -->
<g id="edge13" class="edge"><title>Anvil&#45;&gt;BattleAxe_1H_B
+ Large_Damage</title>
<path fill="none" stroke="black" d="M725.238,-118.553C652.166,-110.565 466.57,-90.0854 453.494,-86.7401 436.303,-82.3422 433.474,-76.8921 416.494,-71.7401 378.709,-60.2757 367.815,-63.2582 329.494,-53.7401 322.622,-52.0335 315.484,-50.1493 308.373,-48.1989"/>
<polygon fill="black" stroke="black" points="309.294,-44.8223 298.722,-45.5089 307.415,-51.5653 309.294,-44.8223"/>
<text text-anchor="middle" x="481.494" y="-75.5401" font-family="Times New Roman,serif" font-size="14.00">Crafting 5</text>
</g>
<!-- Anvil&#45;&gt;Axe_A_1_Axe_B -->
<g id="edge16" class="edge"><title>Anvil&#45;&gt;Axe_A_1_Axe_B</title>
<path fill="none" stroke="black" d="M783.726,-118.386C819.674,-113.59 877.535,-103.456 890.494,-86.7401 904.097,-69.1926 884.899,-54.9411 861.22,-44.8577"/>
<polygon fill="black" stroke="black" points="862.207,-41.4842 851.62,-41.0646 859.634,-47.9944 862.207,-41.4842"/>
<text text-anchor="middle" x="923.494" y="-75.5401" font-family="Times New Roman,serif" font-size="14.00">Crafting 4</text>
</g>
<!-- Anvil&#45;&gt;WoodMaulTool_1H -->
<g id="edge14" class="edge"><title>Anvil&#45;&gt;WoodMaulTool_1H</title>
<path fill="none" stroke="black" d="M784.326,-120.395C855.593,-116.877 1031.13,-106.294 1048.49,-86.7401 1060.66,-73.0434 1047.03,-59.218 1029.17,-48.4101"/>
<polygon fill="black" stroke="black" points="1030.59,-45.1943 1020.15,-43.3606 1027.17,-51.3014 1030.59,-45.1943"/>
<text text-anchor="middle" x="1081.49" y="-75.5401" font-family="Times New Roman,serif" font-size="14.00">Crafting 2</text>
</g>
<!-- Anvil&#45;&gt;BattleAxe_1H_B
+ Small_ActionPoint -->
<g id="edge15" class="edge"><title>Anvil&#45;&gt;BattleAxe_1H_B
+ Small_ActionPoint</title>
<path fill="none" stroke="black" d="M784.538,-121.14C859.783,-119.27 1054.51,-112.053 1113.49,-86.7401 1127.72,-80.636 1141.12,-70.4327 1152.21,-60.2198"/>
<polygon fill="black" stroke="black" points="1154.72,-62.6574 1159.49,-53.1981 1149.86,-57.6169 1154.72,-62.6574"/>
<text text-anchor="middle" x="1167.49" y="-75.5401" font-family="Times New Roman,serif" font-size="14.00">Crafting 5</text>
</g>
<!-- Bone_A_Iron -->
<g id="node7" class="node"><title>Bone_A_Iron</title>
<ellipse fill="none" stroke="black" cx="271.494" cy="-296.74" rx="61.1893" ry="18"/>
<text text-anchor="middle" x="271.494" y="-293.04" font-family="Times New Roman,serif" font-size="14.00">Bone_A_Iron</text>
</g>
<!-- Bone_A_Iron&#45;&gt;OreBar_A_Iron -->
<g id="edge17" class="edge"><title>Bone_A_Iron&#45;&gt;OreBar_A_Iron</title>
<path fill="none" stroke="black" d="M280.907,-278.553C287.187,-268.175 296.17,-255.176 306.494,-245.74 312.45,-240.296 319.397,-235.33 326.426,-230.958"/>
<polygon fill="black" stroke="black" points="328.452,-233.827 335.305,-225.747 324.909,-227.79 328.452,-233.827"/>
<text text-anchor="middle" x="334.494" y="-249.54" font-family="Times New Roman,serif" font-size="14.00">Crafting 0</text>
</g>
<!-- OreBar_A_Iron&#45;&gt;OreBar_A_Steel -->
<g id="edge18" class="edge"><title>OreBar_A_Iron&#45;&gt;OreBar_A_Steel</title>
<path fill="none" stroke="black" d="M391.641,-192.811C407.33,-182.672 428.351,-169.476 447.494,-158.74 456.744,-153.552 466.861,-148.274 476.456,-143.443"/>
<polygon fill="black" stroke="black" points="478.058,-146.556 485.45,-138.966 474.938,-140.289 478.058,-146.556"/>
<text text-anchor="middle" x="475.494" y="-162.54" font-family="Times New Roman,serif" font-size="14.00">Crafting 1</text>
</g>
<!-- Oven -->
<g id="node11" class="node"><title>Oven</title>
<ellipse fill="none" stroke="black" cx="493.494" cy="-296.74" rx="30.5947" ry="18"/>
<text text-anchor="middle" x="493.494" y="-293.04" font-family="Times New Roman,serif" font-size="14.00">Oven</text>
</g>
<!-- Oven&#45;&gt;OreBar_A_Steel -->
<g id="edge8" class="edge"><title>Oven&#45;&gt;OreBar_A_Steel</title>
<path fill="none" stroke="black" d="M498.986,-278.796C500.655,-273.109 502.347,-266.698 503.494,-260.74 510.751,-223.018 514.413,-178.68 516.135,-150.891"/>
<polygon fill="black" stroke="black" points="519.638,-150.938 516.721,-140.753 512.649,-150.534 519.638,-150.938"/>
<text text-anchor="middle" x="541.494" y="-206.04" font-family="Times New Roman,serif" font-size="14.00">Crafting 1</text>
</g>
<!-- Oven&#45;&gt;OreBar_A_Iron -->
<g id="edge9" class="edge"><title>Oven&#45;&gt;OreBar_A_Iron</title>
<path fill="none" stroke="black" d="M475.313,-281.983C461.554,-271.714 442.085,-257.49 424.494,-245.74 417.568,-241.114 410.049,-236.333 402.813,-231.847"/>
<polygon fill="black" stroke="black" points="404.219,-228.603 393.865,-226.357 400.558,-234.57 404.219,-228.603"/>
<text text-anchor="middle" x="474.494" y="-249.54" font-family="Times New Roman,serif" font-size="14.00">Crafting 1</text>
</g>
<!-- Axe -->
<g id="node12" class="node"><title>Axe</title>
<ellipse fill="none" stroke="black" cx="618.494" cy="-209.74" rx="27" ry="18"/>
<text text-anchor="middle" x="618.494" y="-206.04" font-family="Times New Roman,serif" font-size="14.00">Axe</text>
</g>
<!-- Axe&#45;&gt;OreBar_A_Steel -->
<g id="edge20" class="edge"><title>Axe&#45;&gt;OreBar_A_Steel</title>
<path fill="none" stroke="black" d="M602.266,-195.083C586.889,-182.142 563.484,-162.445 545.16,-147.024"/>
<polygon fill="black" stroke="black" points="547.05,-144.04 537.145,-140.279 542.543,-149.396 547.05,-144.04"/>
<text text-anchor="middle" x="602.494" y="-162.54" font-family="Times New Roman,serif" font-size="14.00">Crafting 1</text>
</g>
<!-- Ore_A_Iron -->
<g id="node15" class="node"><title>Ore_A_Iron</title>
<ellipse fill="none" stroke="black" cx="136.494" cy="-296.74" rx="55.7903" ry="18"/>
<text text-anchor="middle" x="136.494" y="-293.04" font-family="Times New Roman,serif" font-size="14.00">Ore_A_Iron</text>
</g>
<!-- Ore_A_Iron&#45;&gt;OreBar_A_Iron -->
<g id="edge21" class="edge"><title>Ore_A_Iron&#45;&gt;OreBar_A_Iron</title>
<path fill="none" stroke="black" d="M162.122,-280.549C181.273,-269.693 208.37,-255.361 233.494,-245.74 256.476,-236.939 282.502,-229.581 305.463,-223.918"/>
<polygon fill="black" stroke="black" points="306.533,-227.261 315.435,-221.517 304.894,-220.455 306.533,-227.261"/>
<text text-anchor="middle" x="261.494" y="-249.54" font-family="Times New Roman,serif" font-size="14.00">Crafting 0</text>
</g>
</g>
</svg>
