<?xml version="1.0" encoding="UTF-8" standalone="no"?>
<!DOCTYPE svg PUBLIC "-//W3C//DTD SVG 1.1//EN"
 "http://www.w3.org/Graphics/SVG/1.1/DTD/svg11.dtd">
<!-- Generated by graphviz version 2.38.0 (20140413.2041)
 -->
<!-- Title: G Pages: 1 -->
<svg width="268pt" height="149pt"
 viewBox="0.00 0.00 267.89 148.74" xmlns="http://www.w3.org/2000/svg" xmlns:xlink="http://www.w3.org/1999/xlink">
<g id="graph0" class="graph" transform="scale(1 1) rotate(0) translate(4 144.74)">
<title>G</title>
<polygon fill="white" stroke="none" points="-4,4 -4,-144.74 263.889,-144.74 263.889,4 -4,4"/>
<!-- Soul_Tormented -->
<g id="node1" class="node"><title>Soul_Tormented</title>
<ellipse fill="none" stroke="black" cx="72.1436" cy="-122.74" rx="72.2875" ry="18"/>
<text text-anchor="middle" x="72.1436" y="-119.04" font-family="Times New Roman,serif" font-size="14.00">Soul_Tormented</text>
</g>
<!-- Crossbow
+ Small_TormentedSoul -->
<g id="node3" class="node"><title>Crossbow
+ Small_TormentedSoul</title>
<ellipse fill="none" stroke="black" cx="141.144" cy="-26.8701" rx="108.789" ry="26.7407"/>
<text text-anchor="middle" x="141.144" y="-30.6701" font-family="Times New Roman,serif" font-size="14.00">Crossbow</text>
<text text-anchor="middle" x="141.144" y="-15.6701" font-family="Times New Roman,serif" font-size="14.00">+ Small_TormentedSoul</text>
</g>
<!-- Soul_Tormented&#45;&gt;Crossbow
+ Small_TormentedSoul -->
<g id="edge1" class="edge"><title>Soul_Tormented&#45;&gt;Crossbow
+ Small_TormentedSoul</title>
<path fill="none" stroke="black" d="M84.4794,-104.958C93.2932,-92.9674 105.454,-76.4235 116.251,-61.7353"/>
<polygon fill="black" stroke="black" points="119.312,-63.4804 122.414,-53.35 113.672,-59.3345 119.312,-63.4804"/>
<text text-anchor="middle" x="137.144" y="-75.5401" font-family="Times New Roman,serif" font-size="14.00">Crafting 5</text>
</g>
<!-- Crossbow -->
<g id="node2" class="node"><title>Crossbow</title>
<ellipse fill="none" stroke="black" cx="211.144" cy="-122.74" rx="48.9926" ry="18"/>
<text text-anchor="middle" x="211.144" y="-119.04" font-family="Times New Roman,serif" font-size="14.00">Crossbow</text>
</g>
<!-- Crossbow&#45;&gt;Crossbow
+ Small_TormentedSoul -->
<g id="edge2" class="edge"><title>Crossbow&#45;&gt;Crossbow
+ Small_TormentedSoul</title>
<path fill="none" stroke="black" d="M198.629,-104.958C189.687,-92.9674 177.351,-76.4235 166.397,-61.7353"/>
<polygon fill="black" stroke="black" points="168.928,-59.2742 160.144,-53.35 163.317,-63.4588 168.928,-59.2742"/>
<text text-anchor="middle" x="213.144" y="-75.5401" font-family="Times New Roman,serif" font-size="14.00">Crafting 5</text>
</g>
</g>
</svg>
