<?xml version="1.0" encoding="UTF-8" standalone="no"?>
<!DOCTYPE svg PUBLIC "-//W3C//DTD SVG 1.1//EN"
 "http://www.w3.org/Graphics/SVG/1.1/DTD/svg11.dtd">
<!-- Generated by graphviz version 2.38.0 (20140413.2041)
 -->
<!-- Title: G Pages: 1 -->
<svg width="1255pt" height="323pt"
 viewBox="0.00 0.00 1254.54 322.74" xmlns="http://www.w3.org/2000/svg" xmlns:xlink="http://www.w3.org/1999/xlink">
<g id="graph0" class="graph" transform="scale(1 1) rotate(0) translate(4 318.74)">
<title>G</title>
<polygon fill="white" stroke="none" points="-4,4 -4,-318.74 1250.54,-318.74 1250.54,4 -4,4"/>
<!-- ThinLeatherGambeson
+ Small_Luck_Mod -->
<g id="node1" class="node"><title>ThinLeatherGambeson
+ Small_Luck_Mod</title>
<ellipse fill="none" stroke="black" cx="1070.59" cy="-26.8701" rx="101.647" ry="26.7407"/>
<text text-anchor="middle" x="1070.59" y="-30.6701" font-family="Times New Roman,serif" font-size="14.00">ThinLeatherGambeson</text>
<text text-anchor="middle" x="1070.59" y="-15.6701" font-family="Times New Roman,serif" font-size="14.00">+ Small_Luck_Mod</text>
</g>
<!-- Needle_Thread -->
<g id="node2" class="node"><title>Needle_Thread</title>
<ellipse fill="none" stroke="black" cx="534.592" cy="-122.74" rx="66.0889" ry="18"/>
<text text-anchor="middle" x="534.592" y="-119.04" font-family="Times New Roman,serif" font-size="14.00">Needle_Thread</text>
</g>
<!-- Needle_Thread&#45;&gt;ThinLeatherGambeson
+ Small_Luck_Mod -->
<g id="edge1" class="edge"><title>Needle_Thread&#45;&gt;ThinLeatherGambeson
+ Small_Luck_Mod</title>
<path fill="none" stroke="black" d="M595.103,-115.362C671.869,-107.099 796.828,-93.012 817.592,-86.7401 831.862,-82.4296 833.399,-76.2991 847.592,-71.7401 896.01,-56.1872 910.695,-63.568 960.592,-53.7401 969.497,-51.9861 978.776,-50.0211 988.004,-47.9786"/>
<polygon fill="black" stroke="black" points="988.986,-51.3453 997.976,-45.7383 987.452,-44.5155 988.986,-51.3453"/>
<text text-anchor="middle" x="875.592" y="-75.5401" font-family="Times New Roman,serif" font-size="14.00">Crafting 5</text>
</g>
<!-- Cloth_D_Torso -->
<g id="node5" class="node"><title>Cloth_D_Torso</title>
<ellipse fill="none" stroke="black" cx="724.592" cy="-26.8701" rx="69.5877" ry="18"/>
<text text-anchor="middle" x="724.592" y="-23.1701" font-family="Times New Roman,serif" font-size="14.00">Cloth_D_Torso</text>
</g>
<!-- Needle_Thread&#45;&gt;Cloth_D_Torso -->
<g id="edge3" class="edge"><title>Needle_Thread&#45;&gt;Cloth_D_Torso</title>
<path fill="none" stroke="black" d="M529.864,-104.486C528.054,-93.8177 527.97,-80.5304 535.592,-71.7401 551.818,-53.0254 621.528,-59.6118 645.592,-53.7401 655.581,-51.3026 666.13,-48.2179 676.152,-45.0351"/>
<polygon fill="black" stroke="black" points="677.535,-48.2657 685.959,-41.84 675.367,-41.61 677.535,-48.2657"/>
<text text-anchor="middle" x="563.592" y="-75.5401" font-family="Times New Roman,serif" font-size="14.00">Crafting 3</text>
</g>
<!-- ThinCanvasGambeson -->
<g id="node6" class="node"><title>ThinCanvasGambeson</title>
<ellipse fill="none" stroke="black" cx="93.5917" cy="-26.8701" rx="93.6835" ry="18"/>
<text text-anchor="middle" x="93.5917" y="-23.1701" font-family="Times New Roman,serif" font-size="14.00">ThinCanvasGambeson</text>
</g>
<!-- Needle_Thread&#45;&gt;ThinCanvasGambeson -->
<g id="edge4" class="edge"><title>Needle_Thread&#45;&gt;ThinCanvasGambeson</title>
<path fill="none" stroke="black" d="M468.335,-120.886C374.642,-118.794 208.796,-111.582 154.592,-86.7401 138.019,-79.1447 123.203,-65.117 112.323,-52.6598"/>
<polygon fill="black" stroke="black" points="114.853,-50.2278 105.763,-44.7838 109.474,-54.7077 114.853,-50.2278"/>
<text text-anchor="middle" x="182.592" y="-75.5401" font-family="Times New Roman,serif" font-size="14.00">Crafting 4</text>
</g>
<!-- ThinLeatherGambeson
+ Small_Vitality_Mod -->
<g id="node7" class="node"><title>ThinLeatherGambeson
+ Small_Vitality_Mod</title>
<ellipse fill="none" stroke="black" cx="306.592" cy="-26.8701" rx="101.647" ry="26.7407"/>
<text text-anchor="middle" x="306.592" y="-30.6701" font-family="Times New Roman,serif" font-size="14.00">ThinLeatherGambeson</text>
<text text-anchor="middle" x="306.592" y="-15.6701" font-family="Times New Roman,serif" font-size="14.00">+ Small_Vitality_Mod</text>
</g>
<!-- Needle_Thread&#45;&gt;ThinLeatherGambeson
+ Small_Vitality_Mod -->
<g id="edge5" class="edge"><title>Needle_Thread&#45;&gt;ThinLeatherGambeson
+ Small_Vitality_Mod</title>
<path fill="none" stroke="black" d="M469.599,-119.072C382.243,-114.807 235.945,-105.011 219.592,-86.7401 207.836,-73.606 217.358,-61.9979 233.767,-52.6357"/>
<polygon fill="black" stroke="black" points="235.601,-55.6286 242.9,-47.9484 232.405,-49.401 235.601,-55.6286"/>
<text text-anchor="middle" x="247.592" y="-75.5401" font-family="Times New Roman,serif" font-size="14.00">Crafting 5</text>
</g>
<!-- Cloth_A_Torso -->
<g id="node9" class="node"><title>Cloth_A_Torso</title>
<ellipse fill="none" stroke="black" cx="881.592" cy="-26.8701" rx="69.5877" ry="18"/>
<text text-anchor="middle" x="881.592" y="-23.1701" font-family="Times New Roman,serif" font-size="14.00">Cloth_A_Torso</text>
</g>
<!-- Needle_Thread&#45;&gt;Cloth_A_Torso -->
<g id="edge6" class="edge"><title>Needle_Thread&#45;&gt;Cloth_A_Torso</title>
<path fill="none" stroke="black" d="M590.384,-112.843C615.735,-107.444 645.579,-99.1354 670.592,-86.7401 680.232,-81.9629 679.735,-76.0528 689.592,-71.7401 736.585,-51.1787 753.748,-65.8545 803.592,-53.7401 813.365,-51.3646 823.671,-48.3355 833.475,-45.193"/>
<polygon fill="black" stroke="black" points="834.67,-48.4846 843.074,-42.0326 832.481,-41.8357 834.67,-48.4846"/>
<text text-anchor="middle" x="717.592" y="-75.5401" font-family="Times New Roman,serif" font-size="14.00">Crafting 2</text>
</g>
<!-- ThinLeatherGambeson
+ Small_ArmorDefense -->
<g id="node10" class="node"><title>ThinLeatherGambeson
+ Small_ArmorDefense</title>
<ellipse fill="none" stroke="black" cx="531.592" cy="-26.8701" rx="105.218" ry="26.7407"/>
<text text-anchor="middle" x="531.592" y="-30.6701" font-family="Times New Roman,serif" font-size="14.00">ThinLeatherGambeson</text>
<text text-anchor="middle" x="531.592" y="-15.6701" font-family="Times New Roman,serif" font-size="14.00">+ Small_ArmorDefense</text>
</g>
<!-- Needle_Thread&#45;&gt;ThinLeatherGambeson
+ Small_ArmorDefense -->
<g id="edge7" class="edge"><title>Needle_Thread&#45;&gt;ThinLeatherGambeson
+ Small_ArmorDefense</title>
<path fill="none" stroke="black" d="M472.954,-115.87C434.325,-110.771 389.644,-101.775 377.592,-86.7401 373.422,-81.5384 373.575,-77.0609 377.592,-71.7401 382.278,-65.532 412.302,-56.3669 444.613,-48.017"/>
<polygon fill="black" stroke="black" points="445.859,-51.3117 454.689,-45.456 444.135,-44.5274 445.859,-51.3117"/>
<text text-anchor="middle" x="405.592" y="-75.5401" font-family="Times New Roman,serif" font-size="14.00">Crafting 5</text>
</g>
<!-- Shirt -->
<g id="node12" class="node"><title>Shirt</title>
<ellipse fill="none" stroke="black" cx="1218.59" cy="-26.8701" rx="27.8951" ry="18"/>
<text text-anchor="middle" x="1218.59" y="-23.1701" font-family="Times New Roman,serif" font-size="14.00">Shirt</text>
</g>
<!-- Needle_Thread&#45;&gt;Shirt -->
<g id="edge2" class="edge"><title>Needle_Thread&#45;&gt;Shirt</title>
<path fill="none" stroke="black" d="M594.837,-115.092C626.574,-111.72 666.162,-107.719 701.592,-104.74 821.877,-94.6262 855.53,-116.192 972.592,-86.7401 988.216,-82.8093 990.04,-75.9484 1005.59,-71.7401 1081.49,-51.2013 1107.89,-81.1487 1181.59,-53.7401 1185.92,-52.129 1190.22,-49.8875 1194.28,-47.3914"/>
<polygon fill="black" stroke="black" points="1196.38,-50.1933 1202.67,-41.6666 1192.43,-44.4107 1196.38,-50.1933"/>
<text text-anchor="middle" x="1033.59" y="-75.5401" font-family="Times New Roman,serif" font-size="14.00">Crafting 1</text>
</g>
<!-- Thread -->
<g id="node3" class="node"><title>Thread</title>
<ellipse fill="none" stroke="black" cx="484.592" cy="-209.74" rx="36.2938" ry="18"/>
<text text-anchor="middle" x="484.592" y="-206.04" font-family="Times New Roman,serif" font-size="14.00">Thread</text>
</g>
<!-- Thread&#45;&gt;Needle_Thread -->
<g id="edge8" class="edge"><title>Thread&#45;&gt;Needle_Thread</title>
<path fill="none" stroke="black" d="M483.943,-191.54C484.278,-181.405 485.996,-168.666 491.592,-158.74 494.127,-154.244 497.486,-150.095 501.214,-146.346"/>
<polygon fill="black" stroke="black" points="503.591,-148.916 508.716,-139.643 498.927,-143.696 503.591,-148.916"/>
<text text-anchor="middle" x="519.592" y="-162.54" font-family="Times New Roman,serif" font-size="14.00">Crafting 0</text>
</g>
<!-- Needle -->
<g id="node4" class="node"><title>Needle</title>
<ellipse fill="none" stroke="black" cx="574.592" cy="-209.74" rx="35.9954" ry="18"/>
<text text-anchor="middle" x="574.592" y="-206.04" font-family="Times New Roman,serif" font-size="14.00">Needle</text>
</g>
<!-- Needle&#45;&gt;Needle_Thread -->
<g id="edge9" class="edge"><title>Needle&#45;&gt;Needle_Thread</title>
<path fill="none" stroke="black" d="M566.689,-191.947C561.083,-180.034 553.445,-163.804 547.027,-150.164"/>
<polygon fill="black" stroke="black" points="550.04,-148.347 542.615,-140.789 543.706,-151.328 550.04,-148.347"/>
<text text-anchor="middle" x="585.592" y="-162.54" font-family="Times New Roman,serif" font-size="14.00">Crafting 0</text>
</g>
<!-- Hair -->
<g id="node8" class="node"><title>Hair</title>
<ellipse fill="none" stroke="black" cx="484.592" cy="-296.74" rx="27" ry="18"/>
<text text-anchor="middle" x="484.592" y="-293.04" font-family="Times New Roman,serif" font-size="14.00">Hair</text>
</g>
<!-- Hair&#45;&gt;Thread -->
<g id="edge10" class="edge"><title>Hair&#45;&gt;Thread</title>
<path fill="none" stroke="black" d="M484.592,-278.539C484.592,-266.903 484.592,-251.288 484.592,-237.977"/>
<polygon fill="black" stroke="black" points="488.092,-237.916 484.592,-227.916 481.092,-237.916 488.092,-237.916"/>
<text text-anchor="middle" x="512.592" y="-249.54" font-family="Times New Roman,serif" font-size="14.00">Crafting 0</text>
</g>
<!-- Scraps_Cloth -->
<g id="node11" class="node"><title>Scraps_Cloth</title>
<ellipse fill="none" stroke="black" cx="771.592" cy="-122.74" rx="61.1893" ry="18"/>
<text text-anchor="middle" x="771.592" y="-119.04" font-family="Times New Roman,serif" font-size="14.00">Scraps_Cloth</text>
</g>
<!-- Scraps_Cloth&#45;&gt;ThinLeatherGambeson
+ Small_Luck_Mod -->
<g id="edge11" class="edge"><title>Scraps_Cloth&#45;&gt;ThinLeatherGambeson
+ Small_Luck_Mod</title>
<path fill="none" stroke="black" d="M831.386,-118.614C912.619,-113.771 1049.63,-103.254 1065.59,-86.7401 1071.47,-80.6585 1074.08,-72.3859 1074.92,-63.965"/>
<polygon fill="black" stroke="black" points="1078.42,-63.8375 1075.16,-53.7572 1071.42,-63.6712 1078.42,-63.8375"/>
<text text-anchor="middle" x="1101.59" y="-75.5401" font-family="Times New Roman,serif" font-size="14.00">Crafting 5</text>
</g>
<!-- Scraps_Cloth&#45;&gt;Cloth_D_Torso -->
<g id="edge13" class="edge"><title>Scraps_Cloth&#45;&gt;Cloth_D_Torso</title>
<path fill="none" stroke="black" d="M764.489,-104.412C760.377,-94.6934 754.963,-82.4141 749.592,-71.7401 746.592,-65.7791 743.165,-59.4841 739.832,-53.5807"/>
<polygon fill="black" stroke="black" points="742.762,-51.6554 734.743,-44.7308 736.693,-55.1446 742.762,-51.6554"/>
<text text-anchor="middle" x="785.592" y="-75.5401" font-family="Times New Roman,serif" font-size="14.00">Crafting 3</text>
</g>
<!-- Scraps_Cloth&#45;&gt;ThinCanvasGambeson -->
<g id="edge14" class="edge"><title>Scraps_Cloth&#45;&gt;ThinCanvasGambeson</title>
<path fill="none" stroke="black" d="M715.792,-115.278C684.585,-111.816 644.961,-107.674 609.592,-104.74 478.686,-93.8831 442.949,-114.643 314.592,-86.7401 296.444,-82.7951 293.365,-77.1261 275.592,-71.7401 240.714,-61.1706 231.036,-62.2207 195.592,-53.7401 183.114,-50.7547 169.807,-47.4604 157.063,-44.2513"/>
<polygon fill="black" stroke="black" points="157.544,-40.7628 146.991,-41.7036 155.827,-47.549 157.544,-40.7628"/>
<text text-anchor="middle" x="342.592" y="-75.5401" font-family="Times New Roman,serif" font-size="14.00">Crafting 4</text>
</g>
<!-- Scraps_Cloth&#45;&gt;ThinLeatherGambeson
+ Small_Vitality_Mod -->
<g id="edge15" class="edge"><title>Scraps_Cloth&#45;&gt;ThinLeatherGambeson
+ Small_Vitality_Mod</title>
<path fill="none" stroke="black" d="M715.121,-115.606C630.985,-106.408 481.291,-89.7908 469.592,-86.7401 452.819,-82.3664 449.791,-77.9061 433.592,-71.7401 415.666,-64.9172 396.154,-57.9515 377.924,-51.6386"/>
<polygon fill="black" stroke="black" points="378.831,-48.2491 368.236,-48.3028 376.552,-54.8678 378.831,-48.2491"/>
<text text-anchor="middle" x="497.592" y="-75.5401" font-family="Times New Roman,serif" font-size="14.00">Crafting 5</text>
</g>
<!-- Scraps_Cloth&#45;&gt;Cloth_A_Torso -->
<g id="edge16" class="edge"><title>Scraps_Cloth&#45;&gt;Cloth_A_Torso</title>
<path fill="none" stroke="black" d="M826.164,-114.577C859.408,-108.968 897.397,-99.8909 907.592,-86.7401 915.447,-76.6074 911.036,-63.7303 903.777,-52.6049"/>
<polygon fill="black" stroke="black" points="906.571,-50.4962 897.827,-44.5133 900.932,-54.6431 906.571,-50.4962"/>
<text text-anchor="middle" x="940.592" y="-75.5401" font-family="Times New Roman,serif" font-size="14.00">Crafting 2</text>
</g>
<!-- Scraps_Cloth&#45;&gt;ThinLeatherGambeson
+ Small_ArmorDefense -->
<g id="edge17" class="edge"><title>Scraps_Cloth&#45;&gt;ThinLeatherGambeson
+ Small_ArmorDefense</title>
<path fill="none" stroke="black" d="M716.495,-114.945C685.588,-109.799 646.875,-101.085 614.592,-86.7401 609.797,-84.6095 591.576,-71.7775 573.424,-58.6357"/>
<polygon fill="black" stroke="black" points="575.285,-55.6609 565.138,-52.613 571.169,-61.3234 575.285,-55.6609"/>
<text text-anchor="middle" x="642.592" y="-75.5401" font-family="Times New Roman,serif" font-size="14.00">Crafting 5</text>
</g>
<!-- Scraps_Cloth&#45;&gt;Shirt -->
<g id="edge12" class="edge"><title>Scraps_Cloth&#45;&gt;Shirt</title>
<path fill="none" stroke="black" d="M832.042,-119.556C920.293,-115.748 1079.75,-106.352 1133.59,-86.7401 1156.72,-78.3165 1179.45,-62.0306 1195.58,-48.7197"/>
<polygon fill="black" stroke="black" points="1198.03,-51.2316 1203.38,-42.0875 1193.5,-45.8987 1198.03,-51.2316"/>
<text text-anchor="middle" x="1192.59" y="-75.5401" font-family="Times New Roman,serif" font-size="14.00">Crafting 1</text>
</g>
</g>
</svg>
