<?xml version="1.0" encoding="UTF-8" standalone="no"?>
<!DOCTYPE svg PUBLIC "-//W3C//DTD SVG 1.1//EN"
 "http://www.w3.org/Graphics/SVG/1.1/DTD/svg11.dtd">
<!-- Generated by graphviz version 2.38.0 (20140413.2041)
 -->
<!-- Title: G Pages: 1 -->
<svg width="1621pt" height="566pt"
 viewBox="0.00 0.00 1621.34 566.00" xmlns="http://www.w3.org/2000/svg" xmlns:xlink="http://www.w3.org/1999/xlink">
<g id="graph0" class="graph" transform="scale(1 1) rotate(0) translate(4 562)">
<title>G</title>
<polygon fill="white" stroke="none" points="-4,4 -4,-562 1617.34,-562 1617.34,4 -4,4"/>
<!-- Log -->
<g id="node1" class="node"><title>Log</title>
<ellipse fill="none" stroke="black" cx="544.344" cy="-540" rx="27" ry="18"/>
<text text-anchor="middle" x="544.344" y="-536.3" font-family="Times New Roman,serif" font-size="14.00">Log</text>
</g>
<!-- Scraps_Wood -->
<g id="node26" class="node"><title>Scraps_Wood</title>
<ellipse fill="none" stroke="black" cx="574.344" cy="-453" rx="64.189" ry="18"/>
<text text-anchor="middle" x="574.344" y="-449.3" font-family="Times New Roman,serif" font-size="14.00">Scraps_Wood</text>
</g>
<!-- Log&#45;&gt;Scraps_Wood -->
<g id="edge1" class="edge"><title>Log&#45;&gt;Scraps_Wood</title>
<path fill="none" stroke="black" d="M541.94,-521.813C541.221,-511.917 541.471,-499.417 545.344,-489 546.659,-485.464 548.494,-482.027 550.61,-478.777"/>
<polygon fill="black" stroke="black" points="553.494,-480.765 556.699,-470.667 547.896,-476.562 553.494,-480.765"/>
<text text-anchor="middle" x="573.344" y="-492.8" font-family="Times New Roman,serif" font-size="14.00">Crafting 0</text>
</g>
<!-- Scraps_Wood_A_Mush -->
<g id="node2" class="node"><title>Scraps_Wood_A_Mush</title>
<ellipse fill="none" stroke="black" cx="384.344" cy="-366" rx="100.983" ry="18"/>
<text text-anchor="middle" x="384.344" y="-362.3" font-family="Times New Roman,serif" font-size="14.00">Scraps_Wood_A_Mush</text>
</g>
<!-- BOOK_Paper_Sheet -->
<g id="node10" class="node"><title>BOOK_Paper_Sheet</title>
<ellipse fill="none" stroke="black" cx="384.344" cy="-279" rx="87.1846" ry="18"/>
<text text-anchor="middle" x="384.344" y="-275.3" font-family="Times New Roman,serif" font-size="14.00">BOOK_Paper_Sheet</text>
</g>
<!-- Scraps_Wood_A_Mush&#45;&gt;BOOK_Paper_Sheet -->
<g id="edge2" class="edge"><title>Scraps_Wood_A_Mush&#45;&gt;BOOK_Paper_Sheet</title>
<path fill="none" stroke="black" d="M384.344,-347.799C384.344,-336.163 384.344,-320.548 384.344,-307.237"/>
<polygon fill="black" stroke="black" points="387.844,-307.175 384.344,-297.175 380.844,-307.175 387.844,-307.175"/>
<text text-anchor="middle" x="412.344" y="-318.8" font-family="Times New Roman,serif" font-size="14.00">Crafting 0</text>
</g>
<!-- Pouch_Dust_Bone -->
<g id="node3" class="node"><title>Pouch_Dust_Bone</title>
<ellipse fill="none" stroke="black" cx="1143.34" cy="-366" rx="79.8859" ry="18"/>
<text text-anchor="middle" x="1143.34" y="-362.3" font-family="Times New Roman,serif" font-size="14.00">Pouch_Dust_Bone</text>
</g>
<!-- Pouch_Dust_Pixie -->
<g id="node15" class="node"><title>Pouch_Dust_Pixie</title>
<ellipse fill="none" stroke="black" cx="966.344" cy="-279" rx="78.7863" ry="18"/>
<text text-anchor="middle" x="966.344" y="-275.3" font-family="Times New Roman,serif" font-size="14.00">Pouch_Dust_Pixie</text>
</g>
<!-- Pouch_Dust_Bone&#45;&gt;Pouch_Dust_Pixie -->
<g id="edge3" class="edge"><title>Pouch_Dust_Bone&#45;&gt;Pouch_Dust_Pixie</title>
<path fill="none" stroke="black" d="M1110.88,-349.41C1081.94,-335.511 1039.41,-315.089 1007.98,-299.993"/>
<polygon fill="black" stroke="black" points="1009.13,-296.665 998.603,-295.491 1006.1,-302.976 1009.13,-296.665"/>
<text text-anchor="middle" x="1093.34" y="-318.8" font-family="Times New Roman,serif" font-size="14.00">Crafting 0</text>
</g>
<!-- Bucket_A_Water -->
<g id="node4" class="node"><title>Bucket_A_Water</title>
<ellipse fill="none" stroke="black" cx="222.344" cy="-453" rx="74.187" ry="18"/>
<text text-anchor="middle" x="222.344" y="-449.3" font-family="Times New Roman,serif" font-size="14.00">Bucket_A_Water</text>
</g>
<!-- Bucket_A_Water&#45;&gt;Scraps_Wood_A_Mush -->
<g id="edge4" class="edge"><title>Bucket_A_Water&#45;&gt;Scraps_Wood_A_Mush</title>
<path fill="none" stroke="black" d="M232.178,-434.866C239.26,-423.97 249.763,-410.383 262.344,-402 275.131,-393.481 290.002,-387.006 304.875,-382.094"/>
<polygon fill="black" stroke="black" points="306.102,-385.378 314.626,-379.086 304.039,-378.689 306.102,-385.378"/>
<text text-anchor="middle" x="290.344" y="-405.8" font-family="Times New Roman,serif" font-size="14.00">Crafting 0</text>
</g>
<!-- Scroll_Skill_Earth_Blan -->
<g id="node5" class="node"><title>Scroll_Skill_Earth_Blan</title>
<ellipse fill="none" stroke="black" cx="838.344" cy="-192" rx="97.4827" ry="18"/>
<text text-anchor="middle" x="838.344" y="-188.3" font-family="Times New Roman,serif" font-size="14.00">Scroll_Skill_Earth_Blan</text>
</g>
<!-- SCROLL_EarthSummon -->
<g id="node29" class="node"><title>SCROLL_EarthSummon</title>
<ellipse fill="none" stroke="black" cx="840.344" cy="-105" rx="102.882" ry="18"/>
<text text-anchor="middle" x="840.344" y="-101.3" font-family="Times New Roman,serif" font-size="14.00">SCROLL_EarthSummon</text>
</g>
<!-- Scroll_Skill_Earth_Blan&#45;&gt;SCROLL_EarthSummon -->
<g id="edge5" class="edge"><title>Scroll_Skill_Earth_Blan&#45;&gt;SCROLL_EarthSummon</title>
<path fill="none" stroke="black" d="M838.749,-173.799C839.023,-162.163 839.39,-146.548 839.703,-133.237"/>
<polygon fill="black" stroke="black" points="843.204,-133.255 839.94,-123.175 836.206,-133.09 843.204,-133.255"/>
<text text-anchor="middle" x="867.344" y="-144.8" font-family="Times New Roman,serif" font-size="14.00">Crafting 4</text>
</g>
<!-- Herb_Stardust -->
<g id="node6" class="node"><title>Herb_Stardust</title>
<ellipse fill="none" stroke="black" cx="1003.34" cy="-453" rx="63.8893" ry="18"/>
<text text-anchor="middle" x="1003.34" y="-449.3" font-family="Times New Roman,serif" font-size="14.00">Herb_Stardust</text>
</g>
<!-- Pouch_Dust_Star -->
<g id="node20" class="node"><title>Pouch_Dust_Star</title>
<ellipse fill="none" stroke="black" cx="966.344" cy="-366" rx="75.2868" ry="18"/>
<text text-anchor="middle" x="966.344" y="-362.3" font-family="Times New Roman,serif" font-size="14.00">Pouch_Dust_Star</text>
</g>
<!-- Herb_Stardust&#45;&gt;Pouch_Dust_Star -->
<g id="edge6" class="edge"><title>Herb_Stardust&#45;&gt;Pouch_Dust_Star</title>
<path fill="none" stroke="black" d="M1006.16,-434.645C1007.02,-424.693 1006.77,-412.193 1002.34,-402 1000.63,-398.042 998.225,-394.307 995.472,-390.855"/>
<polygon fill="black" stroke="black" points="997.907,-388.333 988.559,-383.346 992.757,-393.073 997.907,-388.333"/>
<text text-anchor="middle" x="1033.34" y="-405.8" font-family="Times New Roman,serif" font-size="14.00">Crafting 0</text>
</g>
<!-- Feather -->
<g id="node7" class="node"><title>Feather</title>
<ellipse fill="none" stroke="black" cx="1432.34" cy="-453" rx="37.8943" ry="18"/>
<text text-anchor="middle" x="1432.34" y="-449.3" font-family="Times New Roman,serif" font-size="14.00">Feather</text>
</g>
<!-- Feather_A_Quill -->
<g id="node18" class="node"><title>Feather_A_Quill</title>
<ellipse fill="none" stroke="black" cx="1418.34" cy="-366" rx="70.6878" ry="18"/>
<text text-anchor="middle" x="1418.34" y="-362.3" font-family="Times New Roman,serif" font-size="14.00">Feather_A_Quill</text>
</g>
<!-- Feather&#45;&gt;Feather_A_Quill -->
<g id="edge7" class="edge"><title>Feather&#45;&gt;Feather_A_Quill</title>
<path fill="none" stroke="black" d="M1429.51,-434.799C1427.59,-423.163 1425.02,-407.548 1422.83,-394.237"/>
<polygon fill="black" stroke="black" points="1426.25,-393.474 1421.17,-384.175 1419.34,-394.611 1426.25,-393.474"/>
<text text-anchor="middle" x="1453.34" y="-405.8" font-family="Times New Roman,serif" font-size="14.00">Crafting 0</text>
</g>
<!-- Knife -->
<g id="node8" class="node"><title>Knife</title>
<ellipse fill="none" stroke="black" cx="1335.34" cy="-540" rx="30.5947" ry="18"/>
<text text-anchor="middle" x="1335.34" y="-536.3" font-family="Times New Roman,serif" font-size="14.00">Knife</text>
</g>
<!-- Knife&#45;&gt;Feather -->
<g id="edge9" class="edge"><title>Knife&#45;&gt;Feather</title>
<path fill="none" stroke="black" d="M1344.9,-522.803C1351.65,-512.302 1361.41,-498.804 1372.34,-489 1379.81,-482.308 1388.75,-476.272 1397.43,-471.171"/>
<polygon fill="black" stroke="black" points="1399.28,-474.145 1406.29,-466.206 1395.86,-468.037 1399.28,-474.145"/>
<text text-anchor="middle" x="1400.34" y="-492.8" font-family="Times New Roman,serif" font-size="14.00">Crafting 0</text>
</g>
<!-- Knife&#45;&gt;Feather_A_Quill -->
<g id="edge8" class="edge"><title>Knife&#45;&gt;Feather_A_Quill</title>
<path fill="none" stroke="black" d="M1329.49,-522.137C1323.09,-500.682 1315.48,-463.047 1329.34,-435 1339.42,-414.628 1358.84,-398.684 1376.98,-387.371"/>
<polygon fill="black" stroke="black" points="1378.91,-390.295 1385.74,-382.19 1375.35,-384.271 1378.91,-390.295"/>
<text text-anchor="middle" x="1357.34" y="-449.3" font-family="Times New Roman,serif" font-size="14.00">Crafting 0</text>
</g>
<!-- Pouch_Dust_Moon -->
<g id="node9" class="node"><title>Pouch_Dust_Moon</title>
<ellipse fill="none" stroke="black" cx="787.344" cy="-366" rx="83.3857" ry="18"/>
<text text-anchor="middle" x="787.344" y="-362.3" font-family="Times New Roman,serif" font-size="14.00">Pouch_Dust_Moon</text>
</g>
<!-- Pouch_Dust_Moon&#45;&gt;Pouch_Dust_Pixie -->
<g id="edge10" class="edge"><title>Pouch_Dust_Moon&#45;&gt;Pouch_Dust_Pixie</title>
<path fill="none" stroke="black" d="M820.176,-349.41C849.571,-335.451 892.822,-314.913 924.653,-299.798"/>
<polygon fill="black" stroke="black" points="926.189,-302.943 933.721,-295.491 923.186,-296.619 926.189,-302.943"/>
<text text-anchor="middle" x="915.344" y="-318.8" font-family="Times New Roman,serif" font-size="14.00">Crafting 0</text>
</g>
<!-- Scroll_Skill_Earth_Blank -->
<g id="node31" class="node"><title>Scroll_Skill_Earth_Blank</title>
<ellipse fill="none" stroke="black" cx="616.344" cy="-192" rx="102.082" ry="18"/>
<text text-anchor="middle" x="616.344" y="-188.3" font-family="Times New Roman,serif" font-size="14.00">Scroll_Skill_Earth_Blank</text>
</g>
<!-- BOOK_Paper_Sheet&#45;&gt;Scroll_Skill_Earth_Blank -->
<g id="edge11" class="edge"><title>BOOK_Paper_Sheet&#45;&gt;Scroll_Skill_Earth_Blank</title>
<path fill="none" stroke="black" d="M425.287,-262.999C464.147,-248.762 522.701,-227.309 564.739,-211.907"/>
<polygon fill="black" stroke="black" points="566.059,-215.151 574.245,-208.424 563.651,-208.578 566.059,-215.151"/>
<text text-anchor="middle" x="542.344" y="-231.8" font-family="Times New Roman,serif" font-size="14.00">Crafting 1</text>
</g>
<!-- SKILLBOOK_Summon_Earth -->
<g id="node11" class="node"><title>SKILLBOOK_Summon_Earth</title>
<ellipse fill="none" stroke="black" cx="745.344" cy="-18" rx="123.478" ry="18"/>
<text text-anchor="middle" x="745.344" y="-14.3" font-family="Times New Roman,serif" font-size="14.00">SKILLBOOK_Summon_Earth</text>
</g>
<!-- Well_A_Snow -->
<g id="node12" class="node"><title>Well_A_Snow</title>
<ellipse fill="none" stroke="black" cx="64.3443" cy="-540" rx="64.189" ry="18"/>
<text text-anchor="middle" x="64.3443" y="-536.3" font-family="Times New Roman,serif" font-size="14.00">Well_A_Snow</text>
</g>
<!-- Well_A_Snow&#45;&gt;Scraps_Wood_A_Mush -->
<g id="edge13" class="edge"><title>Well_A_Snow&#45;&gt;Scraps_Wood_A_Mush</title>
<path fill="none" stroke="black" d="M62.1992,-521.708C60.3866,-498.726 60.9808,-458.311 83.3443,-435 98.6471,-419.049 219.323,-395.402 303.145,-380.612"/>
<polygon fill="black" stroke="black" points="303.929,-384.028 313.175,-378.854 302.72,-377.133 303.929,-384.028"/>
<text text-anchor="middle" x="111.344" y="-449.3" font-family="Times New Roman,serif" font-size="14.00">Crafting 0</text>
</g>
<!-- Well_A_Snow&#45;&gt;Bucket_A_Water -->
<g id="edge14" class="edge"><title>Well_A_Snow&#45;&gt;Bucket_A_Water</title>
<path fill="none" stroke="black" d="M79.6396,-522.245C90.1992,-511.508 105.048,-497.956 120.344,-489 133.664,-481.201 148.983,-474.796 163.632,-469.695"/>
<polygon fill="black" stroke="black" points="164.753,-473.011 173.134,-466.53 162.54,-466.369 164.753,-473.011"/>
<text text-anchor="middle" x="148.344" y="-492.8" font-family="Times New Roman,serif" font-size="14.00">Crafting 0</text>
</g>
<!-- Ink_Pot_A_Quill_A_Magic -->
<g id="node13" class="node"><title>Ink_Pot_A_Quill_A_Magic</title>
<ellipse fill="none" stroke="black" cx="1065.34" cy="-192" rx="111.581" ry="18"/>
<text text-anchor="middle" x="1065.34" y="-188.3" font-family="Times New Roman,serif" font-size="14.00">Ink_Pot_A_Quill_A_Magic</text>
</g>
<!-- Ink_Pot_A_Quill_A_Magic&#45;&gt;SCROLL_EarthSummon -->
<g id="edge15" class="edge"><title>Ink_Pot_A_Quill_A_Magic&#45;&gt;SCROLL_EarthSummon</title>
<path fill="none" stroke="black" d="M1023.55,-175.211C986.098,-161.063 931.064,-140.272 891.095,-125.172"/>
<polygon fill="black" stroke="black" points="892.126,-121.82 881.534,-121.561 889.652,-128.369 892.126,-121.82"/>
<text text-anchor="middle" x="993.344" y="-144.8" font-family="Times New Roman,serif" font-size="14.00">Crafting 5</text>
</g>
<!-- Skull_Human -->
<g id="node14" class="node"><title>Skull_Human</title>
<ellipse fill="none" stroke="black" cx="1144.34" cy="-453" rx="59.5901" ry="18"/>
<text text-anchor="middle" x="1144.34" y="-449.3" font-family="Times New Roman,serif" font-size="14.00">Skull_Human</text>
</g>
<!-- Skull_Human&#45;&gt;Pouch_Dust_Bone -->
<g id="edge16" class="edge"><title>Skull_Human&#45;&gt;Pouch_Dust_Bone</title>
<path fill="none" stroke="black" d="M1144.14,-434.799C1144.01,-423.163 1143.82,-407.548 1143.66,-394.237"/>
<polygon fill="black" stroke="black" points="1147.16,-394.134 1143.55,-384.175 1140.16,-394.216 1147.16,-394.134"/>
<text text-anchor="middle" x="1171.34" y="-405.8" font-family="Times New Roman,serif" font-size="14.00">Crafting 0</text>
</g>
<!-- Pouch_Dust_Pixie&#45;&gt;Ink_Pot_A_Quill_A_Magic -->
<g id="edge17" class="edge"><title>Pouch_Dust_Pixie&#45;&gt;Ink_Pot_A_Quill_A_Magic</title>
<path fill="none" stroke="black" d="M985.904,-261.207C1000.82,-248.401 1021.54,-230.607 1038.09,-216.404"/>
<polygon fill="black" stroke="black" points="1040.52,-218.928 1045.83,-209.758 1035.96,-213.617 1040.52,-218.928"/>
<text text-anchor="middle" x="1049.34" y="-231.8" font-family="Times New Roman,serif" font-size="14.00">Crafting 1</text>
</g>
<!-- Pouch_Dust_Pixie&#45;&gt;Scroll_Skill_Earth_Blank -->
<g id="edge18" class="edge"><title>Pouch_Dust_Pixie&#45;&gt;Scroll_Skill_Earth_Blank</title>
<path fill="none" stroke="black" d="M914.324,-265.366C853.011,-250.476 750.975,-225.696 683.679,-209.353"/>
<polygon fill="black" stroke="black" points="684.143,-205.864 673.6,-206.905 682.491,-212.666 684.143,-205.864"/>
<text text-anchor="middle" x="839.344" y="-231.8" font-family="Times New Roman,serif" font-size="14.00">Crafting 1</text>
</g>
<!-- Well -->
<g id="node16" class="node"><title>Well</title>
<ellipse fill="none" stroke="black" cx="295.344" cy="-540" rx="27.0966" ry="18"/>
<text text-anchor="middle" x="295.344" y="-536.3" font-family="Times New Roman,serif" font-size="14.00">Well</text>
</g>
<!-- Well&#45;&gt;Scraps_Wood_A_Mush -->
<g id="edge19" class="edge"><title>Well&#45;&gt;Scraps_Wood_A_Mush</title>
<path fill="none" stroke="black" d="M306.557,-523.37C310.545,-517.457 314.897,-510.566 318.344,-504 333.728,-474.697 332.022,-464.836 346.344,-435 353.153,-420.815 361.622,-405.479 368.835,-392.967"/>
<polygon fill="black" stroke="black" points="372.042,-394.417 374.058,-384.016 365.996,-390.889 372.042,-394.417"/>
<text text-anchor="middle" x="374.344" y="-449.3" font-family="Times New Roman,serif" font-size="14.00">Crafting 0</text>
</g>
<!-- Well&#45;&gt;Bucket_A_Water -->
<g id="edge20" class="edge"><title>Well&#45;&gt;Bucket_A_Water</title>
<path fill="none" stroke="black" d="M280.94,-524.258C275.058,-518.101 268.26,-510.808 262.344,-504 255.418,-496.028 248.123,-487.087 241.688,-478.995"/>
<polygon fill="black" stroke="black" points="244.283,-476.633 235.345,-470.944 238.785,-480.965 244.283,-476.633"/>
<text text-anchor="middle" x="290.344" y="-492.8" font-family="Times New Roman,serif" font-size="14.00">Crafting 0</text>
</g>
<!-- Bucket -->
<g id="node17" class="node"><title>Bucket</title>
<ellipse fill="none" stroke="black" cx="183.344" cy="-540" rx="36.2938" ry="18"/>
<text text-anchor="middle" x="183.344" y="-536.3" font-family="Times New Roman,serif" font-size="14.00">Bucket</text>
</g>
<!-- Bucket&#45;&gt;Bucket_A_Water -->
<g id="edge21" class="edge"><title>Bucket&#45;&gt;Bucket_A_Water</title>
<path fill="none" stroke="black" d="M180.002,-522.075C178.818,-512.038 178.746,-499.305 183.344,-489 185.187,-484.869 187.786,-481.023 190.776,-477.506"/>
<polygon fill="black" stroke="black" points="193.295,-479.937 197.809,-470.352 188.303,-475.03 193.295,-479.937"/>
<text text-anchor="middle" x="211.344" y="-492.8" font-family="Times New Roman,serif" font-size="14.00">Crafting 0</text>
</g>
<!-- Ink_Pot_A_Quill -->
<g id="node30" class="node"><title>Ink_Pot_A_Quill</title>
<ellipse fill="none" stroke="black" cx="1286.34" cy="-279" rx="73.387" ry="18"/>
<text text-anchor="middle" x="1286.34" y="-275.3" font-family="Times New Roman,serif" font-size="14.00">Ink_Pot_A_Quill</text>
</g>
<!-- Feather_A_Quill&#45;&gt;Ink_Pot_A_Quill -->
<g id="edge22" class="edge"><title>Feather_A_Quill&#45;&gt;Ink_Pot_A_Quill</title>
<path fill="none" stroke="black" d="M1395.95,-348.772C1381.9,-338.755 1363.28,-325.799 1346.34,-315 1338.96,-310.294 1330.94,-305.443 1323.24,-300.907"/>
<polygon fill="black" stroke="black" points="1324.8,-297.766 1314.4,-295.754 1321.28,-303.814 1324.8,-297.766"/>
<text text-anchor="middle" x="1396.34" y="-318.8" font-family="Times New Roman,serif" font-size="14.00">Crafting 0</text>
</g>
<!-- Moonstone -->
<g id="node19" class="node"><title>Moonstone</title>
<ellipse fill="none" stroke="black" cx="708.344" cy="-453" rx="51.9908" ry="18"/>
<text text-anchor="middle" x="708.344" y="-449.3" font-family="Times New Roman,serif" font-size="14.00">Moonstone</text>
</g>
<!-- Moonstone&#45;&gt;Pouch_Dust_Moon -->
<g id="edge23" class="edge"><title>Moonstone&#45;&gt;Pouch_Dust_Moon</title>
<path fill="none" stroke="black" d="M709.783,-434.71C711.419,-424.293 714.909,-411.29 722.344,-402 726.914,-396.29 732.676,-391.387 738.872,-387.214"/>
<polygon fill="black" stroke="black" points="740.783,-390.148 747.518,-381.969 737.153,-384.163 740.783,-390.148"/>
<text text-anchor="middle" x="750.344" y="-405.8" font-family="Times New Roman,serif" font-size="14.00">Crafting 0</text>
</g>
<!-- Pouch_Dust_Star&#45;&gt;Pouch_Dust_Pixie -->
<g id="edge24" class="edge"><title>Pouch_Dust_Star&#45;&gt;Pouch_Dust_Pixie</title>
<path fill="none" stroke="black" d="M966.344,-347.799C966.344,-336.163 966.344,-320.548 966.344,-307.237"/>
<polygon fill="black" stroke="black" points="969.844,-307.175 966.344,-297.175 962.844,-307.175 969.844,-307.175"/>
<text text-anchor="middle" x="994.344" y="-318.8" font-family="Times New Roman,serif" font-size="14.00">Crafting 0</text>
</g>
<!-- Axe -->
<g id="node21" class="node"><title>Axe</title>
<ellipse fill="none" stroke="black" cx="623.344" cy="-540" rx="27" ry="18"/>
<text text-anchor="middle" x="623.344" y="-536.3" font-family="Times New Roman,serif" font-size="14.00">Axe</text>
</g>
<!-- Axe&#45;&gt;Scraps_Wood -->
<g id="edge25" class="edge"><title>Axe&#45;&gt;Scraps_Wood</title>
<path fill="none" stroke="black" d="M617.176,-522.29C613.213,-512.329 607.638,-499.601 601.344,-489 599.388,-485.705 597.167,-482.363 594.86,-479.119"/>
<polygon fill="black" stroke="black" points="597.468,-476.763 588.672,-470.857 591.865,-480.959 597.468,-476.763"/>
<text text-anchor="middle" x="637.344" y="-492.8" font-family="Times New Roman,serif" font-size="14.00">Crafting 0</text>
</g>
<!-- Barrel -->
<g id="node22" class="node"><title>Barrel</title>
<ellipse fill="none" stroke="black" cx="405.344" cy="-540" rx="32.4942" ry="18"/>
<text text-anchor="middle" x="405.344" y="-536.3" font-family="Times New Roman,serif" font-size="14.00">Barrel</text>
</g>
<!-- Barrel&#45;&gt;Scraps_Wood_A_Mush -->
<g id="edge26" class="edge"><title>Barrel&#45;&gt;Scraps_Wood_A_Mush</title>
<path fill="none" stroke="black" d="M408.858,-521.985C409.873,-516.293 410.842,-509.897 411.344,-504 414.643,-465.232 403.193,-421.226 394.191,-393.788"/>
<polygon fill="black" stroke="black" points="397.437,-392.464 390.897,-384.129 390.812,-394.723 397.437,-392.464"/>
<text text-anchor="middle" x="439.344" y="-449.3" font-family="Times New Roman,serif" font-size="14.00">Crafting 0</text>
</g>
<!-- Barrel&#45;&gt;Bucket_A_Water -->
<g id="edge27" class="edge"><title>Barrel&#45;&gt;Bucket_A_Water</title>
<path fill="none" stroke="black" d="M385.522,-525.467C369.096,-514.648 344.876,-499.592 322.344,-489 307.87,-482.196 291.691,-475.976 276.636,-470.728"/>
<polygon fill="black" stroke="black" points="277.529,-467.335 266.934,-467.424 275.272,-473.961 277.529,-467.335"/>
<text text-anchor="middle" x="379.344" y="-492.8" font-family="Times New Roman,serif" font-size="14.00">Crafting 0</text>
</g>
<!-- Pillow -->
<g id="node23" class="node"><title>Pillow</title>
<ellipse fill="none" stroke="black" cx="1432.34" cy="-540" rx="33.2948" ry="18"/>
<text text-anchor="middle" x="1432.34" y="-536.3" font-family="Times New Roman,serif" font-size="14.00">Pillow</text>
</g>
<!-- Pillow&#45;&gt;Feather -->
<g id="edge12" class="edge"><title>Pillow&#45;&gt;Feather</title>
<path fill="none" stroke="black" d="M1432.34,-521.799C1432.34,-510.163 1432.34,-494.548 1432.34,-481.237"/>
<polygon fill="black" stroke="black" points="1435.84,-481.175 1432.34,-471.175 1428.84,-481.175 1435.84,-481.175"/>
<text text-anchor="middle" x="1460.34" y="-492.8" font-family="Times New Roman,serif" font-size="14.00">Crafting 0</text>
</g>
<!-- Bone -->
<g id="node24" class="node"><title>Bone</title>
<ellipse fill="none" stroke="black" cx="1252.34" cy="-453" rx="29.795" ry="18"/>
<text text-anchor="middle" x="1252.34" y="-449.3" font-family="Times New Roman,serif" font-size="14.00">Bone</text>
</g>
<!-- Bone&#45;&gt;Pouch_Dust_Bone -->
<g id="edge28" class="edge"><title>Bone&#45;&gt;Pouch_Dust_Bone</title>
<path fill="none" stroke="black" d="M1239.14,-436.493C1229.78,-426.031 1216.58,-412.307 1203.34,-402 1196.99,-397.05 1189.87,-392.3 1182.81,-387.983"/>
<polygon fill="black" stroke="black" points="1184.36,-384.833 1173.96,-382.764 1180.8,-390.861 1184.36,-384.833"/>
<text text-anchor="middle" x="1246.34" y="-405.8" font-family="Times New Roman,serif" font-size="14.00">Crafting 0</text>
</g>
<!-- Ink_Pot -->
<g id="node25" class="node"><title>Ink_Pot</title>
<ellipse fill="none" stroke="black" cx="1286.34" cy="-366" rx="40.0939" ry="18"/>
<text text-anchor="middle" x="1286.34" y="-362.3" font-family="Times New Roman,serif" font-size="14.00">Ink_Pot</text>
</g>
<!-- Ink_Pot&#45;&gt;Ink_Pot_A_Quill -->
<g id="edge29" class="edge"><title>Ink_Pot&#45;&gt;Ink_Pot_A_Quill</title>
<path fill="none" stroke="black" d="M1286.34,-347.799C1286.34,-336.163 1286.34,-320.548 1286.34,-307.237"/>
<polygon fill="black" stroke="black" points="1289.84,-307.175 1286.34,-297.175 1282.84,-307.175 1289.84,-307.175"/>
<text text-anchor="middle" x="1314.34" y="-318.8" font-family="Times New Roman,serif" font-size="14.00">Crafting 0</text>
</g>
<!-- Scraps_Wood&#45;&gt;Scraps_Wood_A_Mush -->
<g id="edge30" class="edge"><title>Scraps_Wood&#45;&gt;Scraps_Wood_A_Mush</title>
<path fill="none" stroke="black" d="M541.682,-437.388C510.648,-423.504 463.722,-402.511 429.191,-387.063"/>
<polygon fill="black" stroke="black" points="430.361,-383.752 419.803,-382.863 427.502,-390.142 430.361,-383.752"/>
<text text-anchor="middle" x="519.344" y="-405.8" font-family="Times New Roman,serif" font-size="14.00">Crafting 0</text>
</g>
<!-- Dagger -->
<g id="node27" class="node"><title>Dagger</title>
<ellipse fill="none" stroke="black" cx="1551.34" cy="-540" rx="36.2938" ry="18"/>
<text text-anchor="middle" x="1551.34" y="-536.3" font-family="Times New Roman,serif" font-size="14.00">Dagger</text>
</g>
<!-- Dagger&#45;&gt;Feather -->
<g id="edge32" class="edge"><title>Dagger&#45;&gt;Feather</title>
<path fill="none" stroke="black" d="M1533.91,-523.938C1521.73,-513.674 1504.93,-500.005 1489.34,-489 1481.4,-483.394 1472.56,-477.711 1464.25,-472.601"/>
<polygon fill="black" stroke="black" points="1465.89,-469.499 1455.52,-467.313 1462.26,-475.487 1465.89,-469.499"/>
<text text-anchor="middle" x="1536.34" y="-492.8" font-family="Times New Roman,serif" font-size="14.00">Crafting 0</text>
</g>
<!-- Dagger&#45;&gt;Feather_A_Quill -->
<g id="edge31" class="edge"><title>Dagger&#45;&gt;Feather_A_Quill</title>
<path fill="none" stroke="black" d="M1562.87,-522.627C1568.32,-512.786 1572.78,-500.065 1568.34,-489 1549.07,-440.882 1498.48,-406.425 1461.35,-386.655"/>
<polygon fill="black" stroke="black" points="1462.73,-383.424 1452.23,-381.946 1459.51,-389.644 1462.73,-383.424"/>
<text text-anchor="middle" x="1585.34" y="-449.3" font-family="Times New Roman,serif" font-size="14.00">Crafting 0</text>
</g>
<!-- BOOK_Skill_Earth_Blank -->
<g id="node28" class="node"><title>BOOK_Skill_Earth_Blank</title>
<ellipse fill="none" stroke="black" cx="613.344" cy="-105" rx="106.681" ry="18"/>
<text text-anchor="middle" x="613.344" y="-101.3" font-family="Times New Roman,serif" font-size="14.00">BOOK_Skill_Earth_Blank</text>
</g>
<!-- BOOK_Skill_Earth_Blank&#45;&gt;SKILLBOOK_Summon_Earth -->
<g id="edge33" class="edge"><title>BOOK_Skill_Earth_Blank&#45;&gt;SKILLBOOK_Summon_Earth</title>
<path fill="none" stroke="black" d="M639.109,-87.4094C659.509,-74.2726 688.204,-55.7952 710.629,-41.3546"/>
<polygon fill="black" stroke="black" points="712.681,-44.196 719.194,-35.8393 708.891,-38.3107 712.681,-44.196"/>
<text text-anchor="middle" x="715.344" y="-57.8" font-family="Times New Roman,serif" font-size="14.00">Crafting 4</text>
</g>
<!-- SCROLL_EarthSummon&#45;&gt;SKILLBOOK_Summon_Earth -->
<g id="edge34" class="edge"><title>SCROLL_EarthSummon&#45;&gt;SKILLBOOK_Summon_Earth</title>
<path fill="none" stroke="black" d="M821.575,-87.2067C807.485,-74.5994 787.991,-57.1579 772.244,-43.0683"/>
<polygon fill="black" stroke="black" points="774.186,-40.1089 764.399,-36.0493 769.518,-45.3257 774.186,-40.1089"/>
<text text-anchor="middle" x="826.344" y="-57.8" font-family="Times New Roman,serif" font-size="14.00">Crafting 4</text>
</g>
<!-- Ink_Pot_A_Quill&#45;&gt;Ink_Pot_A_Quill_A_Magic -->
<g id="edge35" class="edge"><title>Ink_Pot_A_Quill&#45;&gt;Ink_Pot_A_Quill_A_Magic</title>
<path fill="none" stroke="black" d="M1248.6,-263.485C1211.97,-249.394 1156.12,-227.915 1115.71,-212.371"/>
<polygon fill="black" stroke="black" points="1116.89,-209.077 1106.3,-208.754 1114.38,-215.61 1116.89,-209.077"/>
<text text-anchor="middle" x="1216.34" y="-231.8" font-family="Times New Roman,serif" font-size="14.00">Crafting 1</text>
</g>
<!-- Scroll_Skill_Earth_Blank&#45;&gt;BOOK_Skill_Earth_Blank -->
<g id="edge36" class="edge"><title>Scroll_Skill_Earth_Blank&#45;&gt;BOOK_Skill_Earth_Blank</title>
<path fill="none" stroke="black" d="M615.737,-173.799C615.326,-162.163 614.775,-146.548 614.306,-133.237"/>
<polygon fill="black" stroke="black" points="617.801,-133.046 613.95,-123.175 610.805,-133.293 617.801,-133.046"/>
<text text-anchor="middle" x="643.344" y="-144.8" font-family="Times New Roman,serif" font-size="14.00">Crafting 5</text>
</g>
<!-- Scroll_Skill_Earth_Blank&#45;&gt;SCROLL_EarthSummon -->
<g id="edge37" class="edge"><title>Scroll_Skill_Earth_Blank&#45;&gt;SCROLL_EarthSummon</title>
<path fill="none" stroke="black" d="M657.429,-175.41C694.651,-161.285 749.624,-140.425 789.582,-125.263"/>
<polygon fill="black" stroke="black" points="791.033,-128.455 799.141,-121.635 788.55,-121.911 791.033,-128.455"/>
<text text-anchor="middle" x="769.344" y="-144.8" font-family="Times New Roman,serif" font-size="14.00">Crafting 5</text>
</g>
<!-- Oven -->
<g id="node32" class="node"><title>Oven</title>
<ellipse fill="none" stroke="black" cx="235.344" cy="-366" rx="30.5947" ry="18"/>
<text text-anchor="middle" x="235.344" y="-362.3" font-family="Times New Roman,serif" font-size="14.00">Oven</text>
</g>
<!-- Oven&#45;&gt;BOOK_Paper_Sheet -->
<g id="edge38" class="edge"><title>Oven&#45;&gt;BOOK_Paper_Sheet</title>
<path fill="none" stroke="black" d="M256.692,-352.822C280.291,-339.359 318.735,-317.428 347.277,-301.146"/>
<polygon fill="black" stroke="black" points="349.212,-304.071 356.164,-296.076 345.744,-297.991 349.212,-304.071"/>
<text text-anchor="middle" x="347.344" y="-318.8" font-family="Times New Roman,serif" font-size="14.00">Crafting 0</text>
</g>
<!-- MortarPestle -->
<g id="node33" class="node"><title>MortarPestle</title>
<ellipse fill="none" stroke="black" cx="864.344" cy="-453" rx="57.3905" ry="18"/>
<text text-anchor="middle" x="864.344" y="-449.3" font-family="Times New Roman,serif" font-size="14.00">MortarPestle</text>
</g>
<!-- MortarPestle&#45;&gt;Pouch_Dust_Bone -->
<g id="edge39" class="edge"><title>MortarPestle&#45;&gt;Pouch_Dust_Bone</title>
<path fill="none" stroke="black" d="M891.246,-437.053C901.483,-431.104 913.135,-424.013 923.344,-417 932.213,-410.909 932.506,-406.355 942.344,-402 986.842,-382.303 1002.41,-392.375 1050.34,-384 1057.96,-382.669 1065.92,-381.252 1073.85,-379.827"/>
<polygon fill="black" stroke="black" points="1074.62,-383.244 1083.83,-378.021 1073.37,-376.356 1074.62,-383.244"/>
<text text-anchor="middle" x="970.344" y="-405.8" font-family="Times New Roman,serif" font-size="14.00">Crafting 0</text>
</g>
<!-- MortarPestle&#45;&gt;Pouch_Dust_Moon -->
<g id="edge41" class="edge"><title>MortarPestle&#45;&gt;Pouch_Dust_Moon</title>
<path fill="none" stroke="black" d="M820.544,-441.416C808.056,-436.178 795.823,-428.425 788.344,-417 783.98,-410.333 782.616,-402.019 782.663,-394.097"/>
<polygon fill="black" stroke="black" points="786.157,-394.31 783.403,-384.079 779.176,-393.794 786.157,-394.31"/>
<text text-anchor="middle" x="816.344" y="-405.8" font-family="Times New Roman,serif" font-size="14.00">Crafting 0</text>
</g>
<!-- MortarPestle&#45;&gt;Pouch_Dust_Star -->
<g id="edge40" class="edge"><title>MortarPestle&#45;&gt;Pouch_Dust_Star</title>
<path fill="none" stroke="black" d="M860.914,-434.626C859.857,-424.177 860.439,-411.17 867.344,-402 874.584,-392.386 884.673,-385.404 895.661,-380.334"/>
<polygon fill="black" stroke="black" points="897.115,-383.521 905.059,-376.51 894.477,-377.037 897.115,-383.521"/>
<text text-anchor="middle" x="895.344" y="-405.8" font-family="Times New Roman,serif" font-size="14.00">Crafting 0</text>
</g>
</g>
</svg>
