<?xml version="1.0" encoding="UTF-8" standalone="no"?>
<!DOCTYPE svg PUBLIC "-//W3C//DTD SVG 1.1//EN"
 "http://www.w3.org/Graphics/SVG/1.1/DTD/svg11.dtd">
<!-- Generated by graphviz version 2.38.0 (20140413.2041)
 -->
<!-- Title: G Pages: 1 -->
<svg width="492pt" height="305pt"
 viewBox="0.00 0.00 492.24 305.00" xmlns="http://www.w3.org/2000/svg" xmlns:xlink="http://www.w3.org/1999/xlink">
<g id="graph0" class="graph" transform="scale(1 1) rotate(0) translate(4 301)">
<title>G</title>
<polygon fill="white" stroke="none" points="-4,4 -4,-301 488.236,-301 488.236,4 -4,4"/>
<!-- Herb_Augmentor -->
<g id="node1" class="node"><title>Herb_Augmentor</title>
<ellipse fill="none" stroke="black" cx="74.0934" cy="-192" rx="74.187" ry="18"/>
<text text-anchor="middle" x="74.0934" y="-188.3" font-family="Times New Roman,serif" font-size="14.00">Herb_Augmentor</text>
</g>
<!-- Potion_Poison_Large -->
<g id="node3" class="node"><title>Potion_Poison_Large</title>
<ellipse fill="none" stroke="black" cx="117.093" cy="-18" rx="90.1842" ry="18"/>
<text text-anchor="middle" x="117.093" y="-14.3" font-family="Times New Roman,serif" font-size="14.00">Potion_Poison_Large</text>
</g>
<!-- Herb_Augmentor&#45;&gt;Potion_Poison_Large -->
<g id="edge2" class="edge"><title>Herb_Augmentor&#45;&gt;Potion_Poison_Large</title>
<path fill="none" stroke="black" d="M71.4696,-173.659C68.9241,-152.674 66.5675,-116.488 75.0934,-87 79.5283,-71.6613 88.4622,-56.3728 96.9544,-44.1886"/>
<polygon fill="black" stroke="black" points="99.9275,-46.0516 102.989,-35.9089 94.2707,-41.9284 99.9275,-46.0516"/>
<text text-anchor="middle" x="103.093" y="-101.3" font-family="Times New Roman,serif" font-size="14.00">Crafting 4</text>
</g>
<!-- Potion_Poison_Medium -->
<g id="node6" class="node"><title>Potion_Poison_Medium</title>
<ellipse fill="none" stroke="black" cx="239.093" cy="-105" rx="99.3824" ry="18"/>
<text text-anchor="middle" x="239.093" y="-101.3" font-family="Times New Roman,serif" font-size="14.00">Potion_Poison_Medium</text>
</g>
<!-- Herb_Augmentor&#45;&gt;Potion_Poison_Medium -->
<g id="edge1" class="edge"><title>Herb_Augmentor&#45;&gt;Potion_Poison_Medium</title>
<path fill="none" stroke="black" d="M104.357,-175.41C130.801,-161.787 169.409,-141.898 198.526,-126.899"/>
<polygon fill="black" stroke="black" points="200.331,-129.906 207.618,-122.215 197.125,-123.683 200.331,-129.906"/>
<text text-anchor="middle" x="195.093" y="-144.8" font-family="Times New Roman,serif" font-size="14.00">Crafting 3</text>
</g>
<!-- Potion_Empty -->
<g id="node2" class="node"><title>Potion_Empty</title>
<ellipse fill="none" stroke="black" cx="101.093" cy="-279" rx="63.8893" ry="18"/>
<text text-anchor="middle" x="101.093" y="-275.3" font-family="Times New Roman,serif" font-size="14.00">Potion_Empty</text>
</g>
<!-- Potion_Poison -->
<g id="node5" class="node"><title>Potion_Poison</title>
<ellipse fill="none" stroke="black" cx="239.093" cy="-192" rx="64.9885" ry="18"/>
<text text-anchor="middle" x="239.093" y="-188.3" font-family="Times New Roman,serif" font-size="14.00">Potion_Poison</text>
</g>
<!-- Potion_Empty&#45;&gt;Potion_Poison -->
<g id="edge3" class="edge"><title>Potion_Empty&#45;&gt;Potion_Poison</title>
<path fill="none" stroke="black" d="M125.171,-262.196C140.504,-252.224 160.845,-239.165 179.093,-228 186.866,-223.244 195.278,-218.247 203.274,-213.565"/>
<polygon fill="black" stroke="black" points="205.19,-216.499 212.07,-208.442 201.667,-210.45 205.19,-216.499"/>
<text text-anchor="middle" x="207.093" y="-231.8" font-family="Times New Roman,serif" font-size="14.00">Crafting 0</text>
</g>
<!-- Barrel_Ooze -->
<g id="node4" class="node"><title>Barrel_Ooze</title>
<ellipse fill="none" stroke="black" cx="239.093" cy="-279" rx="56.59" ry="18"/>
<text text-anchor="middle" x="239.093" y="-275.3" font-family="Times New Roman,serif" font-size="14.00">Barrel_Ooze</text>
</g>
<!-- Barrel_Ooze&#45;&gt;Potion_Poison -->
<g id="edge4" class="edge"><title>Barrel_Ooze&#45;&gt;Potion_Poison</title>
<path fill="none" stroke="black" d="M239.093,-260.799C239.093,-249.163 239.093,-233.548 239.093,-220.237"/>
<polygon fill="black" stroke="black" points="242.594,-220.175 239.093,-210.175 235.594,-220.175 242.594,-220.175"/>
<text text-anchor="middle" x="267.093" y="-231.8" font-family="Times New Roman,serif" font-size="14.00">Crafting 0</text>
</g>
<!-- Potion_Poison&#45;&gt;Potion_Poison_Medium -->
<g id="edge5" class="edge"><title>Potion_Poison&#45;&gt;Potion_Poison_Medium</title>
<path fill="none" stroke="black" d="M239.093,-173.799C239.093,-162.163 239.093,-146.548 239.093,-133.237"/>
<polygon fill="black" stroke="black" points="242.594,-133.175 239.093,-123.175 235.594,-133.175 242.594,-133.175"/>
<text text-anchor="middle" x="267.093" y="-144.8" font-family="Times New Roman,serif" font-size="14.00">Crafting 3</text>
</g>
<!-- Potion_Poison_Medium&#45;&gt;Potion_Poison_Large -->
<g id="edge6" class="edge"><title>Potion_Poison_Medium&#45;&gt;Potion_Poison_Large</title>
<path fill="none" stroke="black" d="M215.281,-87.4094C196.387,-74.2458 169.797,-55.7198 149.052,-41.2663"/>
<polygon fill="black" stroke="black" points="151.052,-38.3937 140.846,-35.5488 147.05,-44.1371 151.052,-38.3937"/>
<text text-anchor="middle" x="214.093" y="-57.8" font-family="Times New Roman,serif" font-size="14.00">Crafting 4</text>
</g>
<!-- Herb_Mushroom_C -->
<g id="node7" class="node"><title>Herb_Mushroom_C</title>
<ellipse fill="none" stroke="black" cx="399.093" cy="-279" rx="85.2851" ry="18"/>
<text text-anchor="middle" x="399.093" y="-275.3" font-family="Times New Roman,serif" font-size="14.00">Herb_Mushroom_C</text>
</g>
<!-- Herb_Mushroom_C&#45;&gt;Potion_Poison -->
<g id="edge7" class="edge"><title>Herb_Mushroom_C&#45;&gt;Potion_Poison</title>
<path fill="none" stroke="black" d="M368.999,-262.012C342.892,-248.143 304.979,-228.002 276.844,-213.055"/>
<polygon fill="black" stroke="black" points="278.182,-209.802 267.708,-208.202 274.897,-215.984 278.182,-209.802"/>
<text text-anchor="middle" x="357.093" y="-231.8" font-family="Times New Roman,serif" font-size="14.00">Crafting 1</text>
</g>
</g>
</svg>
