<?xml version="1.0" encoding="UTF-8" standalone="no"?>
<!DOCTYPE svg PUBLIC "-//W3C//DTD SVG 1.1//EN"
 "http://www.w3.org/Graphics/SVG/1.1/DTD/svg11.dtd">
<!-- Generated by graphviz version 2.38.0 (20140413.2041)
 -->
<!-- Title: G Pages: 1 -->
<svg width="436pt" height="218pt"
 viewBox="0.00 0.00 435.79 218.00" xmlns="http://www.w3.org/2000/svg" xmlns:xlink="http://www.w3.org/1999/xlink">
<g id="graph0" class="graph" transform="scale(1 1) rotate(0) translate(4 214)">
<title>G</title>
<polygon fill="white" stroke="none" points="-4,4 -4,-214 431.792,-214 431.792,4 -4,4"/>
<!-- LongSword -->
<g id="node1" class="node"><title>LongSword</title>
<ellipse fill="none" stroke="black" cx="63.8973" cy="-18" rx="53.8905" ry="18"/>
<text text-anchor="middle" x="63.8973" y="-14.3" font-family="Times New Roman,serif" font-size="14.00">LongSword</text>
</g>
<!-- Oven -->
<g id="node2" class="node"><title>Oven</title>
<ellipse fill="none" stroke="black" cx="38.8973" cy="-192" rx="30.5947" ry="18"/>
<text text-anchor="middle" x="38.8973" y="-188.3" font-family="Times New Roman,serif" font-size="14.00">Oven</text>
</g>
<!-- OreBar_A_Iron -->
<g id="node5" class="node"><title>OreBar_A_Iron</title>
<ellipse fill="none" stroke="black" cx="205.897" cy="-105" rx="68.4888" ry="18"/>
<text text-anchor="middle" x="205.897" y="-101.3" font-family="Times New Roman,serif" font-size="14.00">OreBar_A_Iron</text>
</g>
<!-- Oven&#45;&gt;OreBar_A_Iron -->
<g id="edge7" class="edge"><title>Oven&#45;&gt;OreBar_A_Iron</title>
<path fill="none" stroke="black" d="M54.7046,-176.463C67.275,-165.515 85.713,-150.772 103.897,-141 118.169,-133.33 134.449,-126.846 149.747,-121.623"/>
<polygon fill="black" stroke="black" points="151.222,-124.822 159.628,-118.372 149.035,-118.172 151.222,-124.822"/>
<text text-anchor="middle" x="131.897" y="-144.8" font-family="Times New Roman,serif" font-size="14.00">Crafting 1</text>
</g>
<!-- Anvil -->
<g id="node3" class="node"><title>Anvil</title>
<ellipse fill="none" stroke="black" cx="29.8973" cy="-105" rx="29.795" ry="18"/>
<text text-anchor="middle" x="29.8973" y="-101.3" font-family="Times New Roman,serif" font-size="14.00">Anvil</text>
</g>
<!-- Anvil&#45;&gt;LongSword -->
<g id="edge2" class="edge"><title>Anvil&#45;&gt;LongSword</title>
<path fill="none" stroke="black" d="M16.8311,-88.7047C9.84937,-78.5846 3.82534,-65.1714 9.89735,-54 13.1951,-47.9326 18.0486,-42.7547 23.5143,-38.3905"/>
<polygon fill="black" stroke="black" points="25.655,-41.1646 31.8502,-32.5698 21.6474,-35.4253 25.655,-41.1646"/>
<text text-anchor="middle" x="37.8973" y="-57.8" font-family="Times New Roman,serif" font-size="14.00">Crafting 4</text>
</g>
<!-- ShortSword -->
<g id="node6" class="node"><title>ShortSword</title>
<ellipse fill="none" stroke="black" cx="217.897" cy="-18" rx="55.4913" ry="18"/>
<text text-anchor="middle" x="217.897" y="-14.3" font-family="Times New Roman,serif" font-size="14.00">ShortSword</text>
</g>
<!-- Anvil&#45;&gt;ShortSword -->
<g id="edge3" class="edge"><title>Anvil&#45;&gt;ShortSword</title>
<path fill="none" stroke="black" d="M45.1126,-89.478C59.756,-75.6161 80.3331,-56.4791 84.8973,-54 107.478,-41.7351 134.58,-33.5967 158.41,-28.2829"/>
<polygon fill="black" stroke="black" points="159.338,-31.6642 168.4,-26.1747 157.893,-24.8151 159.338,-31.6642"/>
<text text-anchor="middle" x="112.897" y="-57.8" font-family="Times New Roman,serif" font-size="14.00">Crafting 3</text>
</g>
<!-- Bone_A_Iron -->
<g id="node4" class="node"><title>Bone_A_Iron</title>
<ellipse fill="none" stroke="black" cx="148.897" cy="-192" rx="61.1893" ry="18"/>
<text text-anchor="middle" x="148.897" y="-188.3" font-family="Times New Roman,serif" font-size="14.00">Bone_A_Iron</text>
</g>
<!-- Bone_A_Iron&#45;&gt;OreBar_A_Iron -->
<g id="edge4" class="edge"><title>Bone_A_Iron&#45;&gt;OreBar_A_Iron</title>
<path fill="none" stroke="black" d="M155.023,-174.031C159.052,-163.978 164.873,-151.245 171.897,-141 174.501,-137.203 177.531,-133.441 180.689,-129.87"/>
<polygon fill="black" stroke="black" points="183.395,-132.102 187.693,-122.419 178.294,-127.308 183.395,-132.102"/>
<text text-anchor="middle" x="199.897" y="-144.8" font-family="Times New Roman,serif" font-size="14.00">Crafting 0</text>
</g>
<!-- OreBar_A_Iron&#45;&gt;LongSword -->
<g id="edge5" class="edge"><title>OreBar_A_Iron&#45;&gt;LongSword</title>
<path fill="none" stroke="black" d="M186.289,-87.7083C169.33,-73.6524 147.178,-55.3894 144.897,-54 133.646,-47.1442 120.812,-40.9445 108.729,-35.7338"/>
<polygon fill="black" stroke="black" points="109.82,-32.3968 99.2436,-31.7734 107.123,-38.8563 109.82,-32.3968"/>
<text text-anchor="middle" x="191.897" y="-57.8" font-family="Times New Roman,serif" font-size="14.00">Crafting 4</text>
</g>
<!-- OreBar_A_Iron&#45;&gt;ShortSword -->
<g id="edge6" class="edge"><title>OreBar_A_Iron&#45;&gt;ShortSword</title>
<path fill="none" stroke="black" d="M216.583,-87.1909C219.558,-81.6197 222.386,-75.2426 223.897,-69 225.659,-61.7228 225.57,-53.7189 224.673,-46.2889"/>
<polygon fill="black" stroke="black" points="228.101,-45.5738 222.973,-36.3029 221.201,-46.7485 228.101,-45.5738"/>
<text text-anchor="middle" x="253.897" y="-57.8" font-family="Times New Roman,serif" font-size="14.00">Crafting 3</text>
</g>
<!-- Sword -->
<g id="node7" class="node"><title>Sword</title>
<ellipse fill="none" stroke="black" cx="262.897" cy="-192" rx="35.194" ry="18"/>
<text text-anchor="middle" x="262.897" y="-188.3" font-family="Times New Roman,serif" font-size="14.00">Sword</text>
</g>
<!-- Sword&#45;&gt;OreBar_A_Iron -->
<g id="edge1" class="edge"><title>Sword&#45;&gt;OreBar_A_Iron</title>
<path fill="none" stroke="black" d="M251.907,-174.611C243.734,-162.422 232.423,-145.556 223.062,-131.596"/>
<polygon fill="black" stroke="black" points="225.72,-129.276 217.244,-122.92 219.907,-133.175 225.72,-129.276"/>
<text text-anchor="middle" x="265.897" y="-144.8" font-family="Times New Roman,serif" font-size="14.00">Crafting 1</text>
</g>
<!-- Ore_A_Iron -->
<g id="node8" class="node"><title>Ore_A_Iron</title>
<ellipse fill="none" stroke="black" cx="371.897" cy="-192" rx="55.7903" ry="18"/>
<text text-anchor="middle" x="371.897" y="-188.3" font-family="Times New Roman,serif" font-size="14.00">Ore_A_Iron</text>
</g>
<!-- Ore_A_Iron&#45;&gt;OreBar_A_Iron -->
<g id="edge8" class="edge"><title>Ore_A_Iron&#45;&gt;OreBar_A_Iron</title>
<path fill="none" stroke="black" d="M351.329,-175.208C336.907,-164.618 316.887,-150.859 297.897,-141 284.961,-134.284 270.431,-128.157 256.807,-122.973"/>
<polygon fill="black" stroke="black" points="257.674,-119.563 247.081,-119.37 255.243,-126.127 257.674,-119.563"/>
<text text-anchor="middle" x="351.897" y="-144.8" font-family="Times New Roman,serif" font-size="14.00">Crafting 0</text>
</g>
</g>
</svg>
