<?xml version="1.0" encoding="UTF-8" standalone="no"?>
<!DOCTYPE svg PUBLIC "-//W3C//DTD SVG 1.1//EN"
 "http://www.w3.org/Graphics/SVG/1.1/DTD/svg11.dtd">
<!-- Generated by graphviz version 2.38.0 (20140413.2041)
 -->
<!-- Title: G Pages: 1 -->
<svg width="270pt" height="149pt"
 viewBox="0.00 0.00 270.19 148.74" xmlns="http://www.w3.org/2000/svg" xmlns:xlink="http://www.w3.org/1999/xlink">
<g id="graph0" class="graph" transform="scale(1 1) rotate(0) translate(4 144.74)">
<title>G</title>
<polygon fill="white" stroke="none" points="-4,4 -4,-144.74 266.189,-144.74 266.189,4 -4,4"/>
<!-- ClothArmor
+ Small_WaterResistance -->
<g id="node1" class="node"><title>ClothArmor
+ Small_WaterResistance</title>
<ellipse fill="none" stroke="black" cx="124.595" cy="-26.8701" rx="113.689" ry="26.7407"/>
<text text-anchor="middle" x="124.595" y="-30.6701" font-family="Times New Roman,serif" font-size="14.00">ClothArmor</text>
<text text-anchor="middle" x="124.595" y="-15.6701" font-family="Times New Roman,serif" font-size="14.00">+ Small_WaterResistance</text>
</g>
<!-- ClothArmor -->
<g id="node2" class="node"><title>ClothArmor</title>
<ellipse fill="none" stroke="black" cx="54.5952" cy="-122.74" rx="54.6905" ry="18"/>
<text text-anchor="middle" x="54.5952" y="-119.04" font-family="Times New Roman,serif" font-size="14.00">ClothArmor</text>
</g>
<!-- ClothArmor&#45;&gt;ClothArmor
+ Small_WaterResistance -->
<g id="edge1" class="edge"><title>ClothArmor&#45;&gt;ClothArmor
+ Small_WaterResistance</title>
<path fill="none" stroke="black" d="M67.1098,-104.958C75.9856,-93.0556 88.207,-76.6666 99.0996,-62.0596"/>
<polygon fill="black" stroke="black" points="102.152,-63.8214 105.324,-53.7126 96.5403,-59.6368 102.152,-63.8214"/>
<text text-anchor="middle" x="120.595" y="-75.5401" font-family="Times New Roman,serif" font-size="14.00">Crafting 2</text>
</g>
<!-- Essence_Water -->
<g id="node3" class="node"><title>Essence_Water</title>
<ellipse fill="none" stroke="black" cx="194.595" cy="-122.74" rx="67.6881" ry="18"/>
<text text-anchor="middle" x="194.595" y="-119.04" font-family="Times New Roman,serif" font-size="14.00">Essence_Water</text>
</g>
<!-- Essence_Water&#45;&gt;ClothArmor
+ Small_WaterResistance -->
<g id="edge2" class="edge"><title>Essence_Water&#45;&gt;ClothArmor
+ Small_WaterResistance</title>
<path fill="none" stroke="black" d="M182.081,-104.958C173.205,-93.0556 160.983,-76.6666 150.091,-62.0596"/>
<polygon fill="black" stroke="black" points="152.65,-59.6368 143.866,-53.7126 147.038,-63.8214 152.65,-59.6368"/>
<text text-anchor="middle" x="195.595" y="-75.5401" font-family="Times New Roman,serif" font-size="14.00">Crafting 2</text>
</g>
</g>
</svg>
