<?xml version="1.0" encoding="UTF-8" standalone="no"?>
<!DOCTYPE svg PUBLIC "-//W3C//DTD SVG 1.1//EN"
 "http://www.w3.org/Graphics/SVG/1.1/DTD/svg11.dtd">
<!-- Generated by graphviz version 2.38.0 (20140413.2041)
 -->
<!-- Title: G Pages: 1 -->
<svg width="272pt" height="149pt"
 viewBox="0.00 0.00 271.84 148.74" xmlns="http://www.w3.org/2000/svg" xmlns:xlink="http://www.w3.org/1999/xlink">
<g id="graph0" class="graph" transform="scale(1 1) rotate(0) translate(4 144.74)">
<title>G</title>
<polygon fill="white" stroke="none" points="-4,4 -4,-144.74 267.839,-144.74 267.839,4 -4,4"/>
<!-- LeatherHelmet
+ Small_FireResistance -->
<g id="node1" class="node"><title>LeatherHelmet
+ Small_FireResistance</title>
<ellipse fill="none" stroke="black" cx="129.795" cy="-26.8701" rx="105.218" ry="26.7407"/>
<text text-anchor="middle" x="129.795" y="-30.6701" font-family="Times New Roman,serif" font-size="14.00">LeatherHelmet</text>
<text text-anchor="middle" x="129.795" y="-15.6701" font-family="Times New Roman,serif" font-size="14.00">+ Small_FireResistance</text>
</g>
<!-- Essence_Fire -->
<g id="node2" class="node"><title>Essence_Fire</title>
<ellipse fill="none" stroke="black" cx="59.7947" cy="-122.74" rx="59.5901" ry="18"/>
<text text-anchor="middle" x="59.7947" y="-119.04" font-family="Times New Roman,serif" font-size="14.00">Essence_Fire</text>
</g>
<!-- Essence_Fire&#45;&gt;LeatherHelmet
+ Small_FireResistance -->
<g id="edge1" class="edge"><title>Essence_Fire&#45;&gt;LeatherHelmet
+ Small_FireResistance</title>
<path fill="none" stroke="black" d="M72.3093,-104.958C81.2508,-92.9674 93.5878,-76.4235 104.541,-61.7353"/>
<polygon fill="black" stroke="black" points="107.622,-63.4588 110.794,-53.35 102.01,-59.2742 107.622,-63.4588"/>
<text text-anchor="middle" x="125.795" y="-75.5401" font-family="Times New Roman,serif" font-size="14.00">Crafting 3</text>
</g>
<!-- LeatherHelmet -->
<g id="node3" class="node"><title>LeatherHelmet</title>
<ellipse fill="none" stroke="black" cx="200.795" cy="-122.74" rx="63.0888" ry="18"/>
<text text-anchor="middle" x="200.795" y="-119.04" font-family="Times New Roman,serif" font-size="14.00">LeatherHelmet</text>
</g>
<!-- LeatherHelmet&#45;&gt;LeatherHelmet
+ Small_FireResistance -->
<g id="edge2" class="edge"><title>LeatherHelmet&#45;&gt;LeatherHelmet
+ Small_FireResistance</title>
<path fill="none" stroke="black" d="M188.101,-104.958C179.032,-92.9674 166.519,-76.4235 155.409,-61.7353"/>
<polygon fill="black" stroke="black" points="157.891,-59.2142 149.067,-53.35 152.308,-63.437 157.891,-59.2142"/>
<text text-anchor="middle" x="201.795" y="-75.5401" font-family="Times New Roman,serif" font-size="14.00">Crafting 3</text>
</g>
</g>
</svg>
