<?xml version="1.0" encoding="UTF-8" standalone="no"?>
<!DOCTYPE svg PUBLIC "-//W3C//DTD SVG 1.1//EN"
 "http://www.w3.org/Graphics/SVG/1.1/DTD/svg11.dtd">
<!-- Generated by graphviz version 2.38.0 (20140413.2041)
 -->
<!-- Title: G Pages: 1 -->
<svg width="206pt" height="149pt"
 viewBox="0.00 0.00 205.99 148.74" xmlns="http://www.w3.org/2000/svg" xmlns:xlink="http://www.w3.org/1999/xlink">
<g id="graph0" class="graph" transform="scale(1 1) rotate(0) translate(4 144.74)">
<title>G</title>
<polygon fill="white" stroke="none" points="-4,4 -4,-144.74 201.99,-144.74 201.99,4 -4,4"/>
<!-- Garment -->
<g id="node1" class="node"><title>Garment</title>
<ellipse fill="none" stroke="black" cx="54.9949" cy="-122.74" rx="42.4939" ry="18"/>
<text text-anchor="middle" x="54.9949" y="-119.04" font-family="Times New Roman,serif" font-size="14.00">Garment</text>
</g>
<!-- Garment
+ Body_Boost_Value -->
<g id="node2" class="node"><title>Garment
+ Body_Boost_Value</title>
<ellipse fill="none" stroke="black" cx="98.9949" cy="-26.8701" rx="98.9899" ry="26.7407"/>
<text text-anchor="middle" x="98.9949" y="-30.6701" font-family="Times New Roman,serif" font-size="14.00">Garment</text>
<text text-anchor="middle" x="98.9949" y="-15.6701" font-family="Times New Roman,serif" font-size="14.00">+ Body_Boost_Value</text>
</g>
<!-- Garment&#45;&gt;Garment
+ Body_Boost_Value -->
<g id="edge1" class="edge"><title>Garment&#45;&gt;Garment
+ Body_Boost_Value</title>
<path fill="none" stroke="black" d="M56.9322,-104.493C58.4947,-94.5778 61.2447,-82.0778 65.9949,-71.7401 67.5593,-68.3356 69.4215,-64.9422 71.453,-61.6368"/>
<polygon fill="black" stroke="black" points="74.4831,-63.4021 77.1381,-53.1453 68.6664,-59.5077 74.4831,-63.4021"/>
<text text-anchor="middle" x="93.9949" y="-75.5401" font-family="Times New Roman,serif" font-size="14.00">Crafting 1</text>
</g>
<!-- Pearl -->
<g id="node3" class="node"><title>Pearl</title>
<ellipse fill="none" stroke="black" cx="143.995" cy="-122.74" rx="28.6953" ry="18"/>
<text text-anchor="middle" x="143.995" y="-119.04" font-family="Times New Roman,serif" font-size="14.00">Pearl</text>
</g>
<!-- Pearl&#45;&gt;Garment
+ Body_Boost_Value -->
<g id="edge2" class="edge"><title>Pearl&#45;&gt;Garment
+ Body_Boost_Value</title>
<path fill="none" stroke="black" d="M136.944,-104.943C132.761,-95.1776 127.261,-82.6776 121.995,-71.7401 120.577,-68.7957 119.074,-65.7589 117.541,-62.7218"/>
<polygon fill="black" stroke="black" points="120.592,-61.0011 112.912,-53.7025 114.364,-64.1973 120.592,-61.0011"/>
<text text-anchor="middle" x="156.995" y="-75.5401" font-family="Times New Roman,serif" font-size="14.00">Crafting 1</text>
</g>
</g>
</svg>
