<?xml version="1.0" encoding="UTF-8" standalone="no"?>
<!DOCTYPE svg PUBLIC "-//W3C//DTD SVG 1.1//EN"
 "http://www.w3.org/Graphics/SVG/1.1/DTD/svg11.dtd">
<!-- Generated by graphviz version 2.38.0 (20140413.2041)
 -->
<!-- Title: G Pages: 1 -->
<svg width="844pt" height="566pt"
 viewBox="0.00 0.00 843.79 566.00" xmlns="http://www.w3.org/2000/svg" xmlns:xlink="http://www.w3.org/1999/xlink">
<g id="graph0" class="graph" transform="scale(1 1) rotate(0) translate(4 562)">
<title>G</title>
<polygon fill="white" stroke="none" points="-4,4 -4,-562 839.791,-562 839.791,4 -4,4"/>
<!-- Sheep -->
<g id="node1" class="node"><title>Sheep</title>
<ellipse fill="none" stroke="black" cx="121.097" cy="-366" rx="33.2948" ry="18"/>
<text text-anchor="middle" x="121.097" y="-362.3" font-family="Times New Roman,serif" font-size="14.00">Sheep</text>
</g>
<!-- Wool -->
<g id="node7" class="node"><title>Wool</title>
<ellipse fill="none" stroke="black" cx="117.097" cy="-279" rx="31.3957" ry="18"/>
<text text-anchor="middle" x="117.097" y="-275.3" font-family="Times New Roman,serif" font-size="14.00">Wool</text>
</g>
<!-- Sheep&#45;&gt;Wool -->
<g id="edge1" class="edge"><title>Sheep&#45;&gt;Wool</title>
<path fill="none" stroke="black" d="M120.287,-347.799C119.74,-336.163 119.005,-320.548 118.379,-307.237"/>
<polygon fill="black" stroke="black" points="121.871,-307 117.905,-297.175 114.879,-307.329 121.871,-307"/>
<text text-anchor="middle" x="148.097" y="-318.8" font-family="Times New Roman,serif" font-size="14.00">Crafting 0</text>
</g>
<!-- Skull_Human -->
<g id="node2" class="node"><title>Skull_Human</title>
<ellipse fill="none" stroke="black" cx="214.097" cy="-540" rx="59.5901" ry="18"/>
<text text-anchor="middle" x="214.097" y="-536.3" font-family="Times New Roman,serif" font-size="14.00">Skull_Human</text>
</g>
<!-- Pouch_Dust_Bone -->
<g id="node9" class="node"><title>Pouch_Dust_Bone</title>
<ellipse fill="none" stroke="black" cx="322.097" cy="-453" rx="79.8859" ry="18"/>
<text text-anchor="middle" x="322.097" y="-449.3" font-family="Times New Roman,serif" font-size="14.00">Pouch_Dust_Bone</text>
</g>
<!-- Skull_Human&#45;&gt;Pouch_Dust_Bone -->
<g id="edge2" class="edge"><title>Skull_Human&#45;&gt;Pouch_Dust_Bone</title>
<path fill="none" stroke="black" d="M228.188,-522.087C237.245,-511.812 249.617,-498.825 262.097,-489 268.426,-484.017 275.537,-479.252 282.592,-474.929"/>
<polygon fill="black" stroke="black" points="284.602,-477.807 291.433,-469.709 281.043,-471.779 284.602,-477.807"/>
<text text-anchor="middle" x="290.097" y="-492.8" font-family="Times New Roman,serif" font-size="14.00">Crafting 0</text>
</g>
<!-- Paw_A_Rabbit -->
<g id="node3" class="node"><title>Paw_A_Rabbit</title>
<ellipse fill="none" stroke="black" cx="339.097" cy="-366" rx="66.8882" ry="18"/>
<text text-anchor="middle" x="339.097" y="-362.3" font-family="Times New Roman,serif" font-size="14.00">Paw_A_Rabbit</text>
</g>
<!-- Paw_A_Rabbit_A_Magic -->
<g id="node19" class="node"><title>Paw_A_Rabbit_A_Magic</title>
<ellipse fill="none" stroke="black" cx="363.097" cy="-279" rx="105.082" ry="18"/>
<text text-anchor="middle" x="363.097" y="-275.3" font-family="Times New Roman,serif" font-size="14.00">Paw_A_Rabbit_A_Magic</text>
</g>
<!-- Paw_A_Rabbit&#45;&gt;Paw_A_Rabbit_A_Magic -->
<g id="edge3" class="edge"><title>Paw_A_Rabbit&#45;&gt;Paw_A_Rabbit_A_Magic</title>
<path fill="none" stroke="black" d="M343.954,-347.799C347.272,-336.047 351.735,-320.238 355.518,-306.842"/>
<polygon fill="black" stroke="black" points="358.898,-307.75 358.247,-297.175 352.162,-305.848 358.898,-307.75"/>
<text text-anchor="middle" x="381.097" y="-318.8" font-family="Times New Roman,serif" font-size="14.00">Crafting 1</text>
</g>
<!-- Sinew -->
<g id="node4" class="node"><title>Sinew</title>
<ellipse fill="none" stroke="black" cx="519.097" cy="-279" rx="32.4942" ry="18"/>
<text text-anchor="middle" x="519.097" y="-275.3" font-family="Times New Roman,serif" font-size="14.00">Sinew</text>
</g>
<!-- String_Bow -->
<g id="node5" class="node"><title>String_Bow</title>
<ellipse fill="none" stroke="black" cx="516.097" cy="-192" rx="53.8905" ry="18"/>
<text text-anchor="middle" x="516.097" y="-188.3" font-family="Times New Roman,serif" font-size="14.00">String_Bow</text>
</g>
<!-- Sinew&#45;&gt;String_Bow -->
<g id="edge4" class="edge"><title>Sinew&#45;&gt;String_Bow</title>
<path fill="none" stroke="black" d="M518.49,-260.799C518.079,-249.163 517.528,-233.548 517.058,-220.237"/>
<polygon fill="black" stroke="black" points="520.554,-220.046 516.703,-210.175 513.558,-220.293 520.554,-220.046"/>
<text text-anchor="middle" x="546.097" y="-231.8" font-family="Times New Roman,serif" font-size="14.00">Crafting 0</text>
</g>
<!-- Rabbit_Paw_SuperAmulet -->
<g id="node17" class="node"><title>Rabbit_Paw_SuperAmulet</title>
<ellipse fill="none" stroke="black" cx="334.097" cy="-105" rx="107.781" ry="18"/>
<text text-anchor="middle" x="334.097" y="-101.3" font-family="Times New Roman,serif" font-size="14.00">Rabbit_Paw_SuperAmulet</text>
</g>
<!-- String_Bow&#45;&gt;Rabbit_Paw_SuperAmulet -->
<g id="edge5" class="edge"><title>String_Bow&#45;&gt;Rabbit_Paw_SuperAmulet</title>
<path fill="none" stroke="black" d="M486.043,-176.964C456.512,-163.172 411.131,-141.978 377.649,-126.34"/>
<polygon fill="black" stroke="black" points="379.085,-123.148 368.544,-122.088 376.123,-129.491 379.085,-123.148"/>
<text text-anchor="middle" x="464.097" y="-144.8" font-family="Times New Roman,serif" font-size="14.00">Crafting 3</text>
</g>
<!-- Herb_Stardust -->
<g id="node6" class="node"><title>Herb_Stardust</title>
<ellipse fill="none" stroke="black" cx="772.097" cy="-540" rx="63.8893" ry="18"/>
<text text-anchor="middle" x="772.097" y="-536.3" font-family="Times New Roman,serif" font-size="14.00">Herb_Stardust</text>
</g>
<!-- Pouch_Dust_Star -->
<g id="node16" class="node"><title>Pouch_Dust_Star</title>
<ellipse fill="none" stroke="black" cx="680.097" cy="-453" rx="75.2868" ry="18"/>
<text text-anchor="middle" x="680.097" y="-449.3" font-family="Times New Roman,serif" font-size="14.00">Pouch_Dust_Star</text>
</g>
<!-- Herb_Stardust&#45;&gt;Pouch_Dust_Star -->
<g id="edge6" class="edge"><title>Herb_Stardust&#45;&gt;Pouch_Dust_Star</title>
<path fill="none" stroke="black" d="M754.358,-522.611C740.574,-509.876 721.263,-492.034 705.788,-477.736"/>
<polygon fill="black" stroke="black" points="707.815,-474.844 698.095,-470.629 703.065,-479.985 707.815,-474.844"/>
<text text-anchor="middle" x="760.097" y="-492.8" font-family="Times New Roman,serif" font-size="14.00">Crafting 0</text>
</g>
<!-- Yarn_A_Wool -->
<g id="node10" class="node"><title>Yarn_A_Wool</title>
<ellipse fill="none" stroke="black" cx="139.097" cy="-192" rx="64.9885" ry="18"/>
<text text-anchor="middle" x="139.097" y="-188.3" font-family="Times New Roman,serif" font-size="14.00">Yarn_A_Wool</text>
</g>
<!-- Wool&#45;&gt;Yarn_A_Wool -->
<g id="edge7" class="edge"><title>Wool&#45;&gt;Yarn_A_Wool</title>
<path fill="none" stroke="black" d="M121.549,-260.799C124.561,-249.163 128.602,-233.548 132.047,-220.237"/>
<polygon fill="black" stroke="black" points="135.534,-220.733 134.651,-210.175 128.757,-218.979 135.534,-220.733"/>
<text text-anchor="middle" x="158.097" y="-231.8" font-family="Times New Roman,serif" font-size="14.00">Crafting 0</text>
</g>
<!-- Pouch_Dust_Moon -->
<g id="node8" class="node"><title>Pouch_Dust_Moon</title>
<ellipse fill="none" stroke="black" cx="503.097" cy="-453" rx="83.3857" ry="18"/>
<text text-anchor="middle" x="503.097" y="-449.3" font-family="Times New Roman,serif" font-size="14.00">Pouch_Dust_Moon</text>
</g>
<!-- Pouch_Dust_Pixie -->
<g id="node11" class="node"><title>Pouch_Dust_Pixie</title>
<ellipse fill="none" stroke="black" cx="503.097" cy="-366" rx="78.7863" ry="18"/>
<text text-anchor="middle" x="503.097" y="-362.3" font-family="Times New Roman,serif" font-size="14.00">Pouch_Dust_Pixie</text>
</g>
<!-- Pouch_Dust_Moon&#45;&gt;Pouch_Dust_Pixie -->
<g id="edge8" class="edge"><title>Pouch_Dust_Moon&#45;&gt;Pouch_Dust_Pixie</title>
<path fill="none" stroke="black" d="M503.097,-434.799C503.097,-423.163 503.097,-407.548 503.097,-394.237"/>
<polygon fill="black" stroke="black" points="506.597,-394.175 503.097,-384.175 499.597,-394.175 506.597,-394.175"/>
<text text-anchor="middle" x="531.097" y="-405.8" font-family="Times New Roman,serif" font-size="14.00">Crafting 0</text>
</g>
<!-- Pouch_Dust_Bone&#45;&gt;Pouch_Dust_Pixie -->
<g id="edge9" class="edge"><title>Pouch_Dust_Bone&#45;&gt;Pouch_Dust_Pixie</title>
<path fill="none" stroke="black" d="M355.295,-436.41C385.019,-422.451 428.753,-401.913 460.94,-386.798"/>
<polygon fill="black" stroke="black" points="462.545,-389.91 470.109,-382.491 459.57,-383.574 462.545,-389.91"/>
<text text-anchor="middle" x="452.097" y="-405.8" font-family="Times New Roman,serif" font-size="14.00">Crafting 0</text>
</g>
<!-- Rope -->
<g id="node14" class="node"><title>Rope</title>
<ellipse fill="none" stroke="black" cx="168.097" cy="-105" rx="30.5947" ry="18"/>
<text text-anchor="middle" x="168.097" y="-101.3" font-family="Times New Roman,serif" font-size="14.00">Rope</text>
</g>
<!-- Yarn_A_Wool&#45;&gt;Rope -->
<g id="edge10" class="edge"><title>Yarn_A_Wool&#45;&gt;Rope</title>
<path fill="none" stroke="black" d="M144.965,-173.799C149.001,-161.97 154.44,-146.03 159.029,-132.578"/>
<polygon fill="black" stroke="black" points="162.419,-133.48 162.336,-122.885 155.794,-131.22 162.419,-133.48"/>
<text text-anchor="middle" x="184.097" y="-144.8" font-family="Times New Roman,serif" font-size="14.00">Crafting 0</text>
</g>
<!-- Pouch_Dust_Pixie&#45;&gt;Paw_A_Rabbit_A_Magic -->
<g id="edge11" class="edge"><title>Pouch_Dust_Pixie&#45;&gt;Paw_A_Rabbit_A_Magic</title>
<path fill="none" stroke="black" d="M476.764,-349.012C454.754,-335.649 423.154,-316.463 398.857,-301.711"/>
<polygon fill="black" stroke="black" points="400.631,-298.694 390.267,-296.496 396.998,-304.678 400.631,-298.694"/>
<text text-anchor="middle" x="470.097" y="-318.8" font-family="Times New Roman,serif" font-size="14.00">Crafting 1</text>
</g>
<!-- Rabbit_Paw_SuperBelt -->
<g id="node12" class="node"><title>Rabbit_Paw_SuperBelt</title>
<ellipse fill="none" stroke="black" cx="261.097" cy="-18" rx="96.3833" ry="18"/>
<text text-anchor="middle" x="261.097" y="-14.3" font-family="Times New Roman,serif" font-size="14.00">Rabbit_Paw_SuperBelt</text>
</g>
<!-- Thread -->
<g id="node13" class="node"><title>Thread</title>
<ellipse fill="none" stroke="black" cx="203.097" cy="-279" rx="36.2938" ry="18"/>
<text text-anchor="middle" x="203.097" y="-275.3" font-family="Times New Roman,serif" font-size="14.00">Thread</text>
</g>
<!-- Rabbit_Paw_MagicAmulet -->
<g id="node22" class="node"><title>Rabbit_Paw_MagicAmulet</title>
<ellipse fill="none" stroke="black" cx="334.097" cy="-192" rx="108.581" ry="18"/>
<text text-anchor="middle" x="334.097" y="-188.3" font-family="Times New Roman,serif" font-size="14.00">Rabbit_Paw_MagicAmulet</text>
</g>
<!-- Thread&#45;&gt;Rabbit_Paw_MagicAmulet -->
<g id="edge12" class="edge"><title>Thread&#45;&gt;Rabbit_Paw_MagicAmulet</title>
<path fill="none" stroke="black" d="M224.436,-264.154C244.84,-250.915 275.947,-230.731 299.825,-215.237"/>
<polygon fill="black" stroke="black" points="301.778,-218.142 308.262,-209.763 297.968,-212.27 301.778,-218.142"/>
<text text-anchor="middle" x="305.097" y="-231.8" font-family="Times New Roman,serif" font-size="14.00">Crafting 1</text>
</g>
<!-- Rope&#45;&gt;Rabbit_Paw_SuperBelt -->
<g id="edge13" class="edge"><title>Rope&#45;&gt;Rabbit_Paw_SuperBelt</title>
<path fill="none" stroke="black" d="M183.873,-89.5809C197.857,-76.7998 218.551,-57.8857 234.998,-42.8535"/>
<polygon fill="black" stroke="black" points="237.663,-45.1598 242.683,-35.8298 232.94,-39.9927 237.663,-45.1598"/>
<text text-anchor="middle" x="249.097" y="-57.8" font-family="Times New Roman,serif" font-size="14.00">Crafting 3</text>
</g>
<!-- Moonstone -->
<g id="node15" class="node"><title>Moonstone</title>
<ellipse fill="none" stroke="black" cx="638.097" cy="-540" rx="51.9908" ry="18"/>
<text text-anchor="middle" x="638.097" y="-536.3" font-family="Times New Roman,serif" font-size="14.00">Moonstone</text>
</g>
<!-- Moonstone&#45;&gt;Pouch_Dust_Moon -->
<g id="edge14" class="edge"><title>Moonstone&#45;&gt;Pouch_Dust_Moon</title>
<path fill="none" stroke="black" d="M634.472,-522C631.33,-511.16 625.722,-497.585 616.097,-489 605.325,-479.392 591.951,-472.422 578.215,-467.365"/>
<polygon fill="black" stroke="black" points="579.269,-464.027 568.675,-464.161 577.041,-470.663 579.269,-464.027"/>
<text text-anchor="middle" x="655.097" y="-492.8" font-family="Times New Roman,serif" font-size="14.00">Crafting 0</text>
</g>
<!-- Pouch_Dust_Star&#45;&gt;Pouch_Dust_Pixie -->
<g id="edge15" class="edge"><title>Pouch_Dust_Star&#45;&gt;Pouch_Dust_Pixie</title>
<path fill="none" stroke="black" d="M648.044,-436.607C619.153,-422.733 576.489,-402.245 544.923,-387.086"/>
<polygon fill="black" stroke="black" points="546.04,-383.74 535.51,-382.566 543.009,-390.05 546.04,-383.74"/>
<text text-anchor="middle" x="631.097" y="-405.8" font-family="Times New Roman,serif" font-size="14.00">Crafting 0</text>
</g>
<!-- Rabbit_Paw_SuperAmulet&#45;&gt;Rabbit_Paw_SuperBelt -->
<g id="edge16" class="edge"><title>Rabbit_Paw_SuperAmulet&#45;&gt;Rabbit_Paw_SuperBelt</title>
<path fill="none" stroke="black" d="M319.324,-86.799C308.667,-74.3902 294.125,-57.4575 282.24,-43.6185"/>
<polygon fill="black" stroke="black" points="284.769,-41.1913 275.598,-35.8854 279.459,-45.752 284.769,-41.1913"/>
<text text-anchor="middle" x="330.097" y="-57.8" font-family="Times New Roman,serif" font-size="14.00">Crafting 3</text>
</g>
<!-- Bone -->
<g id="node18" class="node"><title>Bone</title>
<ellipse fill="none" stroke="black" cx="322.097" cy="-540" rx="29.795" ry="18"/>
<text text-anchor="middle" x="322.097" y="-536.3" font-family="Times New Roman,serif" font-size="14.00">Bone</text>
</g>
<!-- Bone&#45;&gt;Pouch_Dust_Bone -->
<g id="edge17" class="edge"><title>Bone&#45;&gt;Pouch_Dust_Bone</title>
<path fill="none" stroke="black" d="M322.097,-521.799C322.097,-510.163 322.097,-494.548 322.097,-481.237"/>
<polygon fill="black" stroke="black" points="325.597,-481.175 322.097,-471.175 318.597,-481.175 325.597,-481.175"/>
<text text-anchor="middle" x="350.097" y="-492.8" font-family="Times New Roman,serif" font-size="14.00">Crafting 0</text>
</g>
<!-- Paw_A_Rabbit_A_Magic&#45;&gt;Rabbit_Paw_MagicAmulet -->
<g id="edge18" class="edge"><title>Paw_A_Rabbit_A_Magic&#45;&gt;Rabbit_Paw_MagicAmulet</title>
<path fill="none" stroke="black" d="M357.228,-260.799C353.219,-249.047 347.825,-233.238 343.255,-219.842"/>
<polygon fill="black" stroke="black" points="346.498,-218.51 339.957,-210.175 339.873,-220.77 346.498,-218.51"/>
<text text-anchor="middle" x="379.097" y="-231.8" font-family="Times New Roman,serif" font-size="14.00">Crafting 1</text>
</g>
<!-- Shears -->
<g id="node20" class="node"><title>Shears</title>
<ellipse fill="none" stroke="black" cx="35.0969" cy="-366" rx="35.194" ry="18"/>
<text text-anchor="middle" x="35.0969" y="-362.3" font-family="Times New Roman,serif" font-size="14.00">Shears</text>
</g>
<!-- Shears&#45;&gt;Wool -->
<g id="edge19" class="edge"><title>Shears&#45;&gt;Wool</title>
<path fill="none" stroke="black" d="M40.5177,-347.792C44.4348,-337.405 50.5485,-324.406 59.0969,-315 66.0972,-307.298 75.1891,-300.738 84.0898,-295.451"/>
<polygon fill="black" stroke="black" points="85.797,-298.507 92.8423,-290.594 82.4001,-292.386 85.797,-298.507"/>
<text text-anchor="middle" x="87.0969" y="-318.8" font-family="Times New Roman,serif" font-size="14.00">Crafting 0</text>
</g>
<!-- Hair -->
<g id="node21" class="node"><title>Hair</title>
<ellipse fill="none" stroke="black" cx="203.097" cy="-366" rx="27" ry="18"/>
<text text-anchor="middle" x="203.097" y="-362.3" font-family="Times New Roman,serif" font-size="14.00">Hair</text>
</g>
<!-- Hair&#45;&gt;Thread -->
<g id="edge20" class="edge"><title>Hair&#45;&gt;Thread</title>
<path fill="none" stroke="black" d="M203.097,-347.799C203.097,-336.163 203.097,-320.548 203.097,-307.237"/>
<polygon fill="black" stroke="black" points="206.597,-307.175 203.097,-297.175 199.597,-307.175 206.597,-307.175"/>
<text text-anchor="middle" x="231.097" y="-318.8" font-family="Times New Roman,serif" font-size="14.00">Crafting 0</text>
</g>
<!-- Rabbit_Paw_MagicAmulet&#45;&gt;Rabbit_Paw_SuperAmulet -->
<g id="edge21" class="edge"><title>Rabbit_Paw_MagicAmulet&#45;&gt;Rabbit_Paw_SuperAmulet</title>
<path fill="none" stroke="black" d="M334.097,-173.799C334.097,-162.163 334.097,-146.548 334.097,-133.237"/>
<polygon fill="black" stroke="black" points="337.597,-133.175 334.097,-123.175 330.597,-133.175 337.597,-133.175"/>
<text text-anchor="middle" x="362.097" y="-144.8" font-family="Times New Roman,serif" font-size="14.00">Crafting 3</text>
</g>
<!-- MortarPestle -->
<g id="node23" class="node"><title>MortarPestle</title>
<ellipse fill="none" stroke="black" cx="480.097" cy="-540" rx="57.3905" ry="18"/>
<text text-anchor="middle" x="480.097" y="-536.3" font-family="Times New Roman,serif" font-size="14.00">MortarPestle</text>
</g>
<!-- MortarPestle&#45;&gt;Pouch_Dust_Moon -->
<g id="edge24" class="edge"><title>MortarPestle&#45;&gt;Pouch_Dust_Moon</title>
<path fill="none" stroke="black" d="M478.209,-521.986C477.663,-512.147 477.913,-499.647 481.097,-489 482.043,-485.837 483.359,-482.681 484.882,-479.631"/>
<polygon fill="black" stroke="black" points="487.952,-481.312 489.908,-470.899 481.886,-477.82 487.952,-481.312"/>
<text text-anchor="middle" x="509.097" y="-492.8" font-family="Times New Roman,serif" font-size="14.00">Crafting 0</text>
</g>
<!-- MortarPestle&#45;&gt;Pouch_Dust_Bone -->
<g id="edge22" class="edge"><title>MortarPestle&#45;&gt;Pouch_Dust_Bone</title>
<path fill="none" stroke="black" d="M452.575,-524.194C427.046,-510.46 388.812,-489.891 360.324,-474.565"/>
<polygon fill="black" stroke="black" points="361.91,-471.444 351.445,-469.789 358.593,-477.609 361.91,-471.444"/>
<text text-anchor="middle" x="439.097" y="-492.8" font-family="Times New Roman,serif" font-size="14.00">Crafting 0</text>
</g>
<!-- MortarPestle&#45;&gt;Pouch_Dust_Star -->
<g id="edge23" class="edge"><title>MortarPestle&#45;&gt;Pouch_Dust_Star</title>
<path fill="none" stroke="black" d="M506.046,-523.948C515.93,-517.986 527.194,-510.913 537.097,-504 545.919,-497.841 546.513,-493.889 556.097,-489 573.914,-479.912 594.412,-472.902 613.544,-467.628"/>
<polygon fill="black" stroke="black" points="614.628,-470.962 623.404,-465.027 612.842,-464.194 614.628,-470.962"/>
<text text-anchor="middle" x="584.097" y="-492.8" font-family="Times New Roman,serif" font-size="14.00">Crafting 0</text>
</g>
</g>
</svg>
