<?xml version="1.0" encoding="UTF-8" standalone="no"?>
<!DOCTYPE svg PUBLIC "-//W3C//DTD SVG 1.1//EN"
 "http://www.w3.org/Graphics/SVG/1.1/DTD/svg11.dtd">
<!-- Generated by graphviz version 2.38.0 (20140413.2041)
 -->
<!-- Title: G Pages: 1 -->
<svg width="260pt" height="149pt"
 viewBox="0.00 0.00 259.99 148.74" xmlns="http://www.w3.org/2000/svg" xmlns:xlink="http://www.w3.org/1999/xlink">
<g id="graph0" class="graph" transform="scale(1 1) rotate(0) translate(4 144.74)">
<title>G</title>
<polygon fill="white" stroke="none" points="-4,4 -4,-144.74 255.99,-144.74 255.99,4 -4,4"/>
<!-- ArmorGloves -->
<g id="node1" class="node"><title>ArmorGloves</title>
<ellipse fill="none" stroke="black" cx="60.4446" cy="-122.74" rx="60.3893" ry="18"/>
<text text-anchor="middle" x="60.4446" y="-119.04" font-family="Times New Roman,serif" font-size="14.00">ArmorGloves</text>
</g>
<!-- ArmorGloves
+ Small_AirResistance -->
<g id="node3" class="node"><title>ArmorGloves
+ Small_AirResistance</title>
<ellipse fill="none" stroke="black" cx="127.445" cy="-26.8701" rx="101.647" ry="26.7407"/>
<text text-anchor="middle" x="127.445" y="-30.6701" font-family="Times New Roman,serif" font-size="14.00">ArmorGloves</text>
<text text-anchor="middle" x="127.445" y="-15.6701" font-family="Times New Roman,serif" font-size="14.00">+ Small_AirResistance</text>
</g>
<!-- ArmorGloves&#45;&gt;ArmorGloves
+ Small_AirResistance -->
<g id="edge1" class="edge"><title>ArmorGloves&#45;&gt;ArmorGloves
+ Small_AirResistance</title>
<path fill="none" stroke="black" d="M72.4229,-104.958C80.9812,-92.9674 92.7895,-76.4235 103.273,-61.7353"/>
<polygon fill="black" stroke="black" points="106.297,-63.5228 109.258,-53.35 100.6,-59.4561 106.297,-63.5228"/>
<text text-anchor="middle" x="124.445" y="-75.5401" font-family="Times New Roman,serif" font-size="14.00">Crafting 3</text>
</g>
<!-- Essence_Air -->
<g id="node2" class="node"><title>Essence_Air</title>
<ellipse fill="none" stroke="black" cx="195.445" cy="-122.74" rx="56.59" ry="18"/>
<text text-anchor="middle" x="195.445" y="-119.04" font-family="Times New Roman,serif" font-size="14.00">Essence_Air</text>
</g>
<!-- Essence_Air&#45;&gt;ArmorGloves
+ Small_AirResistance -->
<g id="edge2" class="edge"><title>Essence_Air&#45;&gt;ArmorGloves
+ Small_AirResistance</title>
<path fill="none" stroke="black" d="M183.288,-104.958C174.602,-92.9674 162.617,-76.4235 151.977,-61.7353"/>
<polygon fill="black" stroke="black" points="154.603,-59.3951 145.902,-53.35 148.935,-63.5017 154.603,-59.3951"/>
<text text-anchor="middle" x="198.445" y="-75.5401" font-family="Times New Roman,serif" font-size="14.00">Crafting 3</text>
</g>
</g>
</svg>
