<?xml version="1.0" encoding="UTF-8" standalone="no"?>
<!DOCTYPE svg PUBLIC "-//W3C//DTD SVG 1.1//EN"
 "http://www.w3.org/Graphics/SVG/1.1/DTD/svg11.dtd">
<!-- Generated by graphviz version 2.38.0 (20140413.2041)
 -->
<!-- Title: G Pages: 1 -->
<svg width="646pt" height="305pt"
 viewBox="0.00 0.00 646.14 305.00" xmlns="http://www.w3.org/2000/svg" xmlns:xlink="http://www.w3.org/1999/xlink">
<g id="graph0" class="graph" transform="scale(1 1) rotate(0) translate(4 301)">
<title>G</title>
<polygon fill="white" stroke="none" points="-4,4 -4,-301 642.136,-301 642.136,4 -4,4"/>
<!-- Shirt -->
<g id="node1" class="node"><title>Shirt</title>
<ellipse fill="none" stroke="black" cx="443.592" cy="-18" rx="27.8951" ry="18"/>
<text text-anchor="middle" x="443.592" y="-14.3" font-family="Times New Roman,serif" font-size="14.00">Shirt</text>
</g>
<!-- Thread -->
<g id="node2" class="node"><title>Thread</title>
<ellipse fill="none" stroke="black" cx="373.592" cy="-192" rx="36.2938" ry="18"/>
<text text-anchor="middle" x="373.592" y="-188.3" font-family="Times New Roman,serif" font-size="14.00">Thread</text>
</g>
<!-- Needle_Thread -->
<g id="node9" class="node"><title>Needle_Thread</title>
<ellipse fill="none" stroke="black" cx="421.592" cy="-105" rx="66.0889" ry="18"/>
<text text-anchor="middle" x="421.592" y="-101.3" font-family="Times New Roman,serif" font-size="14.00">Needle_Thread</text>
</g>
<!-- Thread&#45;&gt;Needle_Thread -->
<g id="edge1" class="edge"><title>Thread&#45;&gt;Needle_Thread</title>
<path fill="none" stroke="black" d="M372.578,-173.844C372.703,-163.724 374.165,-150.987 379.592,-141 381.96,-136.642 385.11,-132.606 388.626,-128.94"/>
<polygon fill="black" stroke="black" points="391.23,-131.3 396.221,-121.954 386.491,-126.148 391.23,-131.3"/>
<text text-anchor="middle" x="407.592" y="-144.8" font-family="Times New Roman,serif" font-size="14.00">Crafting 0</text>
</g>
<!-- Needle -->
<g id="node3" class="node"><title>Needle</title>
<ellipse fill="none" stroke="black" cx="463.592" cy="-192" rx="35.9954" ry="18"/>
<text text-anchor="middle" x="463.592" y="-188.3" font-family="Times New Roman,serif" font-size="14.00">Needle</text>
</g>
<!-- Needle&#45;&gt;Needle_Thread -->
<g id="edge2" class="edge"><title>Needle&#45;&gt;Needle_Thread</title>
<path fill="none" stroke="black" d="M455.294,-174.207C449.35,-162.178 441.232,-145.748 434.452,-132.028"/>
<polygon fill="black" stroke="black" points="437.584,-130.464 430.016,-123.049 431.308,-133.565 437.584,-130.464"/>
<text text-anchor="middle" x="472.592" y="-144.8" font-family="Times New Roman,serif" font-size="14.00">Crafting 0</text>
</g>
<!-- Cloth_D_Torso -->
<g id="node4" class="node"><title>Cloth_D_Torso</title>
<ellipse fill="none" stroke="black" cx="308.592" cy="-18" rx="69.5877" ry="18"/>
<text text-anchor="middle" x="308.592" y="-14.3" font-family="Times New Roman,serif" font-size="14.00">Cloth_D_Torso</text>
</g>
<!-- ThinCanvasGambeson -->
<g id="node5" class="node"><title>ThinCanvasGambeson</title>
<ellipse fill="none" stroke="black" cx="93.5917" cy="-18" rx="93.6835" ry="18"/>
<text text-anchor="middle" x="93.5917" y="-14.3" font-family="Times New Roman,serif" font-size="14.00">ThinCanvasGambeson</text>
</g>
<!-- Hair -->
<g id="node6" class="node"><title>Hair</title>
<ellipse fill="none" stroke="black" cx="373.592" cy="-279" rx="27" ry="18"/>
<text text-anchor="middle" x="373.592" y="-275.3" font-family="Times New Roman,serif" font-size="14.00">Hair</text>
</g>
<!-- Hair&#45;&gt;Thread -->
<g id="edge3" class="edge"><title>Hair&#45;&gt;Thread</title>
<path fill="none" stroke="black" d="M373.592,-260.799C373.592,-249.163 373.592,-233.548 373.592,-220.237"/>
<polygon fill="black" stroke="black" points="377.092,-220.175 373.592,-210.175 370.092,-220.175 377.092,-220.175"/>
<text text-anchor="middle" x="401.592" y="-231.8" font-family="Times New Roman,serif" font-size="14.00">Crafting 0</text>
</g>
<!-- Cloth_A_Torso -->
<g id="node7" class="node"><title>Cloth_A_Torso</title>
<ellipse fill="none" stroke="black" cx="568.592" cy="-18" rx="69.5877" ry="18"/>
<text text-anchor="middle" x="568.592" y="-14.3" font-family="Times New Roman,serif" font-size="14.00">Cloth_A_Torso</text>
</g>
<!-- Scraps_Cloth -->
<g id="node8" class="node"><title>Scraps_Cloth</title>
<ellipse fill="none" stroke="black" cx="151.592" cy="-105" rx="61.1893" ry="18"/>
<text text-anchor="middle" x="151.592" y="-101.3" font-family="Times New Roman,serif" font-size="14.00">Scraps_Cloth</text>
</g>
<!-- Scraps_Cloth&#45;&gt;Shirt -->
<g id="edge6" class="edge"><title>Scraps_Cloth&#45;&gt;Shirt</title>
<path fill="none" stroke="black" d="M188.795,-90.6877C205.176,-84.531 224.535,-76.8505 241.592,-69 254.416,-63.0974 256.198,-58.4623 269.592,-54 319.923,-37.2317 335.855,-47.7353 387.592,-36 394.648,-34.3993 402.113,-32.3736 409.212,-30.2831"/>
<polygon fill="black" stroke="black" points="410.719,-33.4827 419.262,-27.216 408.676,-26.7875 410.719,-33.4827"/>
<text text-anchor="middle" x="297.592" y="-57.8" font-family="Times New Roman,serif" font-size="14.00">Crafting 1</text>
</g>
<!-- Scraps_Cloth&#45;&gt;Cloth_D_Torso -->
<g id="edge5" class="edge"><title>Scraps_Cloth&#45;&gt;Cloth_D_Torso</title>
<path fill="none" stroke="black" d="M123.807,-88.9142C109.317,-79.1111 96.5148,-65.973 106.592,-54 108.818,-51.3549 182.793,-39.0214 240.579,-29.7381"/>
<polygon fill="black" stroke="black" points="241.473,-33.1396 250.793,-28.1017 240.365,-26.2277 241.473,-33.1396"/>
<text text-anchor="middle" x="134.592" y="-57.8" font-family="Times New Roman,serif" font-size="14.00">Crafting 3</text>
</g>
<!-- Scraps_Cloth&#45;&gt;ThinCanvasGambeson -->
<g id="edge7" class="edge"><title>Scraps_Cloth&#45;&gt;ThinCanvasGambeson</title>
<path fill="none" stroke="black" d="M99.1039,-95.6728C69.4384,-89.7774 36.5348,-80.8168 27.5917,-69 18.7554,-57.3243 27.3996,-47.0241 41.0127,-38.8533"/>
<polygon fill="black" stroke="black" points="42.844,-41.8432 50.019,-34.0477 39.5487,-35.6674 42.844,-41.8432"/>
<text text-anchor="middle" x="55.5917" y="-57.8" font-family="Times New Roman,serif" font-size="14.00">Crafting 4</text>
</g>
<!-- Scraps_Cloth&#45;&gt;Cloth_A_Torso -->
<g id="edge4" class="edge"><title>Scraps_Cloth&#45;&gt;Cloth_A_Torso</title>
<path fill="none" stroke="black" d="M212.836,-104.172C264.539,-102.286 339.525,-94.6968 399.592,-69 409.483,-64.7683 408.898,-58.6677 418.592,-54 433.767,-46.6928 470.327,-38.1023 503.552,-31.2608"/>
<polygon fill="black" stroke="black" points="504.624,-34.6147 513.729,-29.1971 503.233,-27.7544 504.624,-34.6147"/>
<text text-anchor="middle" x="446.592" y="-57.8" font-family="Times New Roman,serif" font-size="14.00">Crafting 2</text>
</g>
<!-- Needle_Thread&#45;&gt;Shirt -->
<g id="edge10" class="edge"><title>Needle_Thread&#45;&gt;Shirt</title>
<path fill="none" stroke="black" d="M457.165,-89.726C465.683,-84.5253 473.716,-77.7156 478.592,-69 484.47,-58.4928 478.235,-47.4628 469.482,-38.4439"/>
<polygon fill="black" stroke="black" points="471.844,-35.8617 462.105,-31.6906 467.118,-41.0248 471.844,-35.8617"/>
<text text-anchor="middle" x="508.592" y="-57.8" font-family="Times New Roman,serif" font-size="14.00">Crafting 1</text>
</g>
<!-- Needle_Thread&#45;&gt;Cloth_D_Torso -->
<g id="edge9" class="edge"><title>Needle_Thread&#45;&gt;Cloth_D_Torso</title>
<path fill="none" stroke="black" d="M381.14,-90.7149C368.287,-85.272 354.573,-78.0801 343.592,-69 335.471,-62.2846 328.377,-53.2408 322.738,-44.6911"/>
<polygon fill="black" stroke="black" points="325.646,-42.7391 317.407,-36.0787 319.694,-46.4236 325.646,-42.7391"/>
<text text-anchor="middle" x="371.592" y="-57.8" font-family="Times New Roman,serif" font-size="14.00">Crafting 3</text>
</g>
<!-- Needle_Thread&#45;&gt;ThinCanvasGambeson -->
<g id="edge11" class="edge"><title>Needle_Thread&#45;&gt;ThinCanvasGambeson</title>
<path fill="none" stroke="black" d="M355.436,-103.507C305.781,-100.998 237.091,-92.8943 181.592,-69 171.71,-64.7455 171.656,-59.7955 162.592,-54 154.613,-48.899 145.796,-43.9531 137.208,-39.4638"/>
<polygon fill="black" stroke="black" points="138.527,-36.208 128.028,-34.7858 135.349,-42.4448 138.527,-36.208"/>
<text text-anchor="middle" x="209.592" y="-57.8" font-family="Times New Roman,serif" font-size="14.00">Crafting 4</text>
</g>
<!-- Needle_Thread&#45;&gt;Cloth_A_Torso -->
<g id="edge8" class="edge"><title>Needle_Thread&#45;&gt;Cloth_A_Torso</title>
<path fill="none" stroke="black" d="M479.718,-96.2573C500.599,-91.196 523.25,-82.8292 540.592,-69 548.361,-62.8048 554.329,-53.8332 558.72,-45.1945"/>
<polygon fill="black" stroke="black" points="561.904,-46.6486 562.876,-36.0985 555.537,-43.7397 561.904,-46.6486"/>
<text text-anchor="middle" x="580.592" y="-57.8" font-family="Times New Roman,serif" font-size="14.00">Crafting 2</text>
</g>
</g>
</svg>
