<?xml version="1.0" encoding="UTF-8" standalone="no"?>
<!DOCTYPE svg PUBLIC "-//W3C//DTD SVG 1.1//EN"
 "http://www.w3.org/Graphics/SVG/1.1/DTD/svg11.dtd">
<!-- Generated by graphviz version 2.38.0 (20140413.2041)
 -->
<!-- Title: G Pages: 1 -->
<svg width="571pt" height="218pt"
 viewBox="0.00 0.00 570.72 218.00" xmlns="http://www.w3.org/2000/svg" xmlns:xlink="http://www.w3.org/1999/xlink">
<g id="graph0" class="graph" transform="scale(1 1) rotate(0) translate(4 214)">
<title>G</title>
<polygon fill="white" stroke="none" points="-4,4 -4,-214 566.718,-214 566.718,4 -4,4"/>
<!-- ShortBow -->
<g id="node1" class="node"><title>ShortBow</title>
<ellipse fill="none" stroke="black" cx="333.718" cy="-18" rx="48.1917" ry="18"/>
<text text-anchor="middle" x="333.718" y="-14.3" font-family="Times New Roman,serif" font-size="14.00">ShortBow</text>
</g>
<!-- ShortBow_C -->
<g id="node2" class="node"><title>ShortBow_C</title>
<ellipse fill="none" stroke="black" cx="206.718" cy="-18" rx="59.2899" ry="18"/>
<text text-anchor="middle" x="206.718" y="-14.3" font-family="Times New Roman,serif" font-size="14.00">ShortBow_C</text>
</g>
<!-- ShortBow_B -->
<g id="node3" class="node"><title>ShortBow_B</title>
<ellipse fill="none" stroke="black" cx="66.7184" cy="-18" rx="58.4896" ry="18"/>
<text text-anchor="middle" x="66.7184" y="-14.3" font-family="Times New Roman,serif" font-size="14.00">ShortBow_B</text>
</g>
<!-- ShortBow_D -->
<g id="node4" class="node"><title>ShortBow_D</title>
<ellipse fill="none" stroke="black" cx="459.718" cy="-18" rx="59.2899" ry="18"/>
<text text-anchor="middle" x="459.718" y="-14.3" font-family="Times New Roman,serif" font-size="14.00">ShortBow_D</text>
</g>
<!-- Sinew -->
<g id="node5" class="node"><title>Sinew</title>
<ellipse fill="none" stroke="black" cx="144.718" cy="-192" rx="32.4942" ry="18"/>
<text text-anchor="middle" x="144.718" y="-188.3" font-family="Times New Roman,serif" font-size="14.00">Sinew</text>
</g>
<!-- String_Bow -->
<g id="node6" class="node"><title>String_Bow</title>
<ellipse fill="none" stroke="black" cx="144.718" cy="-105" rx="53.8905" ry="18"/>
<text text-anchor="middle" x="144.718" y="-101.3" font-family="Times New Roman,serif" font-size="14.00">String_Bow</text>
</g>
<!-- Sinew&#45;&gt;String_Bow -->
<g id="edge1" class="edge"><title>Sinew&#45;&gt;String_Bow</title>
<path fill="none" stroke="black" d="M144.718,-173.799C144.718,-162.163 144.718,-146.548 144.718,-133.237"/>
<polygon fill="black" stroke="black" points="148.218,-133.175 144.718,-123.175 141.218,-133.175 148.218,-133.175"/>
<text text-anchor="middle" x="172.718" y="-144.8" font-family="Times New Roman,serif" font-size="14.00">Crafting 0</text>
</g>
<!-- String_Bow&#45;&gt;ShortBow -->
<g id="edge2" class="edge"><title>String_Bow&#45;&gt;ShortBow</title>
<path fill="none" stroke="black" d="M170.382,-89.1192C180.335,-83.122 191.721,-75.9799 201.718,-69 210.54,-62.8412 211.197,-59.0095 220.718,-54 226.937,-50.7281 258.804,-40.9509 287.118,-32.5594"/>
<polygon fill="black" stroke="black" points="288.336,-35.8492 296.937,-29.6619 286.355,-29.1354 288.336,-35.8492"/>
<text text-anchor="middle" x="248.718" y="-57.8" font-family="Times New Roman,serif" font-size="14.00">Crafting 1</text>
</g>
<!-- String_Bow&#45;&gt;ShortBow_C -->
<g id="edge4" class="edge"><title>String_Bow&#45;&gt;ShortBow_C</title>
<path fill="none" stroke="black" d="M102.92,-93.5283C77.6632,-85.1341 52.8104,-71.813 66.7184,-54 68.1116,-52.2156 112.586,-41.2831 151.035,-32.1047"/>
<polygon fill="black" stroke="black" points="152.245,-35.4145 161.163,-29.694 150.625,-28.6047 152.245,-35.4145"/>
<text text-anchor="middle" x="94.7184" y="-57.8" font-family="Times New Roman,serif" font-size="14.00">Crafting 3</text>
</g>
<!-- String_Bow&#45;&gt;ShortBow_B -->
<g id="edge3" class="edge"><title>String_Bow&#45;&gt;ShortBow_B</title>
<path fill="none" stroke="black" d="M94.5346,-98.0897C58.7227,-92.7193 14.9838,-83.4037 3.7184,-69 -6.00784,-56.5643 5.14559,-45.3603 20.6328,-36.7257"/>
<polygon fill="black" stroke="black" points="22.2338,-39.8382 29.5776,-32.2015 19.0744,-33.5917 22.2338,-39.8382"/>
<text text-anchor="middle" x="31.7184" y="-57.8" font-family="Times New Roman,serif" font-size="14.00">Crafting 2</text>
</g>
<!-- String_Bow&#45;&gt;ShortBow_D -->
<g id="edge5" class="edge"><title>String_Bow&#45;&gt;ShortBow_D</title>
<path fill="none" stroke="black" d="M198.523,-102.699C243.344,-99.8956 307.976,-91.7867 359.718,-69 369.565,-64.6638 369.48,-59.5138 378.718,-54 389.721,-47.4335 402.18,-41.4217 413.97,-36.3031"/>
<polygon fill="black" stroke="black" points="415.386,-39.5048 423.241,-32.396 412.667,-33.0542 415.386,-39.5048"/>
<text text-anchor="middle" x="406.718" y="-57.8" font-family="Times New Roman,serif" font-size="14.00">Crafting 4</text>
</g>
<!-- Branch -->
<g id="node7" class="node"><title>Branch</title>
<ellipse fill="none" stroke="black" cx="381.718" cy="-105" rx="36.2938" ry="18"/>
<text text-anchor="middle" x="381.718" y="-101.3" font-family="Times New Roman,serif" font-size="14.00">Branch</text>
</g>
<!-- Branch&#45;&gt;ShortBow -->
<g id="edge6" class="edge"><title>Branch&#45;&gt;ShortBow</title>
<path fill="none" stroke="black" d="M409.675,-93.2504C429.279,-84.0466 450.11,-69.8047 438.718,-54 436.805,-51.3448 407.179,-41.5997 379.884,-33.0648"/>
<polygon fill="black" stroke="black" points="380.578,-29.6153 369.99,-29.9904 378.501,-36.3 380.578,-29.6153"/>
<text text-anchor="middle" x="470.718" y="-57.8" font-family="Times New Roman,serif" font-size="14.00">Crafting 1</text>
</g>
<!-- Branch&#45;&gt;ShortBow_C -->
<g id="edge8" class="edge"><title>Branch&#45;&gt;ShortBow_C</title>
<path fill="none" stroke="black" d="M354.502,-93.0242C339.284,-86.5822 320.132,-77.9634 303.718,-69 293.007,-63.1507 291.37,-59.9561 280.718,-54 270.453,-48.26 259.091,-42.5734 248.415,-37.5057"/>
<polygon fill="black" stroke="black" points="249.795,-34.2875 239.254,-33.2257 246.832,-40.6295 249.795,-34.2875"/>
<text text-anchor="middle" x="331.718" y="-57.8" font-family="Times New Roman,serif" font-size="14.00">Crafting 3</text>
</g>
<!-- Branch&#45;&gt;ShortBow_B -->
<g id="edge7" class="edge"><title>Branch&#45;&gt;ShortBow_B</title>
<path fill="none" stroke="black" d="M345.766,-101.054C288.083,-95.9449 177.686,-84.4855 141.718,-69 131.836,-64.7455 131.516,-60.1937 122.718,-54 115.929,-49.22 108.5,-44.3434 101.335,-39.8074"/>
<polygon fill="black" stroke="black" points="102.807,-36.6006 92.4703,-34.2769 99.102,-42.5396 102.807,-36.6006"/>
<text text-anchor="middle" x="169.718" y="-57.8" font-family="Times New Roman,serif" font-size="14.00">Crafting 2</text>
</g>
<!-- Branch&#45;&gt;ShortBow_D -->
<g id="edge9" class="edge"><title>Branch&#45;&gt;ShortBow_D</title>
<path fill="none" stroke="black" d="M418.341,-104.343C446.372,-102.422 483.402,-94.6954 502.718,-69 510.01,-59.3007 503.894,-49.0626 494.222,-40.3942"/>
<polygon fill="black" stroke="black" points="496.305,-37.5794 486.296,-34.1064 491.955,-43.0634 496.305,-37.5794"/>
<text text-anchor="middle" x="534.718" y="-57.8" font-family="Times New Roman,serif" font-size="14.00">Crafting 4</text>
</g>
</g>
</svg>
