<?xml version="1.0" encoding="UTF-8" standalone="no"?>
<!DOCTYPE svg PUBLIC "-//W3C//DTD SVG 1.1//EN"
 "http://www.w3.org/Graphics/SVG/1.1/DTD/svg11.dtd">
<!-- Generated by graphviz version 2.38.0 (20140413.2041)
 -->
<!-- Title: G Pages: 1 -->
<svg width="677pt" height="392pt"
 viewBox="0.00 0.00 676.79 392.00" xmlns="http://www.w3.org/2000/svg" xmlns:xlink="http://www.w3.org/1999/xlink">
<g id="graph0" class="graph" transform="scale(1 1) rotate(0) translate(4 388)">
<title>G</title>
<polygon fill="white" stroke="none" points="-4,4 -4,-388 672.79,-388 672.79,4 -4,4"/>
<!-- Pouch_Dust_Pixie -->
<g id="node1" class="node"><title>Pouch_Dust_Pixie</title>
<ellipse fill="none" stroke="black" cx="370.995" cy="-192" rx="78.7863" ry="18"/>
<text text-anchor="middle" x="370.995" y="-188.3" font-family="Times New Roman,serif" font-size="14.00">Pouch_Dust_Pixie</text>
</g>
<!-- Skull_Human_A_Magic -->
<g id="node5" class="node"><title>Skull_Human_A_Magic</title>
<ellipse fill="none" stroke="black" cx="385.995" cy="-105" rx="98.2828" ry="18"/>
<text text-anchor="middle" x="385.995" y="-101.3" font-family="Times New Roman,serif" font-size="14.00">Skull_Human_A_Magic</text>
</g>
<!-- Pouch_Dust_Pixie&#45;&gt;Skull_Human_A_Magic -->
<g id="edge1" class="edge"><title>Pouch_Dust_Pixie&#45;&gt;Skull_Human_A_Magic</title>
<path fill="none" stroke="black" d="M374.031,-173.799C376.084,-162.163 378.84,-146.548 381.189,-133.237"/>
<polygon fill="black" stroke="black" points="384.673,-133.632 382.964,-123.175 377.78,-132.415 384.673,-133.632"/>
<text text-anchor="middle" x="406.995" y="-144.8" font-family="Times New Roman,serif" font-size="14.00">Crafting 1</text>
</g>
<!-- Thread -->
<g id="node2" class="node"><title>Thread</title>
<ellipse fill="none" stroke="black" cx="232.995" cy="-105" rx="36.2938" ry="18"/>
<text text-anchor="middle" x="232.995" y="-101.3" font-family="Times New Roman,serif" font-size="14.00">Thread</text>
</g>
<!-- Skull_MagicAmulet -->
<g id="node10" class="node"><title>Skull_MagicAmulet</title>
<ellipse fill="none" stroke="black" cx="317.995" cy="-18" rx="81.7856" ry="18"/>
<text text-anchor="middle" x="317.995" y="-14.3" font-family="Times New Roman,serif" font-size="14.00">Skull_MagicAmulet</text>
</g>
<!-- Thread&#45;&gt;Skull_MagicAmulet -->
<g id="edge2" class="edge"><title>Thread&#45;&gt;Skull_MagicAmulet</title>
<path fill="none" stroke="black" d="M248.586,-88.4097C261.319,-75.676 279.528,-57.4673 294.101,-42.8947"/>
<polygon fill="black" stroke="black" points="296.745,-45.1998 301.342,-35.6539 291.796,-40.2501 296.745,-45.1998"/>
<text text-anchor="middle" x="308.995" y="-57.8" font-family="Times New Roman,serif" font-size="14.00">Crafting 1</text>
</g>
<!-- Pouch_Dust_Bone -->
<g id="node3" class="node"><title>Pouch_Dust_Bone</title>
<ellipse fill="none" stroke="black" cx="480.995" cy="-279" rx="79.8859" ry="18"/>
<text text-anchor="middle" x="480.995" y="-275.3" font-family="Times New Roman,serif" font-size="14.00">Pouch_Dust_Bone</text>
</g>
<!-- Pouch_Dust_Bone&#45;&gt;Pouch_Dust_Pixie -->
<g id="edge3" class="edge"><title>Pouch_Dust_Bone&#45;&gt;Pouch_Dust_Pixie</title>
<path fill="none" stroke="black" d="M459.786,-261.611C442.819,-248.5 418.846,-229.975 400.086,-215.479"/>
<polygon fill="black" stroke="black" points="402.192,-212.684 392.139,-209.339 397.912,-218.223 402.192,-212.684"/>
<text text-anchor="middle" x="459.995" y="-231.8" font-family="Times New Roman,serif" font-size="14.00">Crafting 0</text>
</g>
<!-- Hair -->
<g id="node4" class="node"><title>Hair</title>
<ellipse fill="none" stroke="black" cx="232.995" cy="-192" rx="27" ry="18"/>
<text text-anchor="middle" x="232.995" y="-188.3" font-family="Times New Roman,serif" font-size="14.00">Hair</text>
</g>
<!-- Hair&#45;&gt;Thread -->
<g id="edge4" class="edge"><title>Hair&#45;&gt;Thread</title>
<path fill="none" stroke="black" d="M232.995,-173.799C232.995,-162.163 232.995,-146.548 232.995,-133.237"/>
<polygon fill="black" stroke="black" points="236.495,-133.175 232.995,-123.175 229.495,-133.175 236.495,-133.175"/>
<text text-anchor="middle" x="260.995" y="-144.8" font-family="Times New Roman,serif" font-size="14.00">Crafting 0</text>
</g>
<!-- Skull_Human_A_Magic&#45;&gt;Skull_MagicAmulet -->
<g id="edge5" class="edge"><title>Skull_Human_A_Magic&#45;&gt;Skull_MagicAmulet</title>
<path fill="none" stroke="black" d="M372.235,-86.799C362.4,-74.5062 349.014,-57.7736 338.001,-44.0073"/>
<polygon fill="black" stroke="black" points="340.484,-41.5076 331.504,-35.8854 335.018,-45.8805 340.484,-41.5076"/>
<text text-anchor="middle" x="383.995" y="-57.8" font-family="Times New Roman,serif" font-size="14.00">Crafting 1</text>
</g>
<!-- Moonstone -->
<g id="node6" class="node"><title>Moonstone</title>
<ellipse fill="none" stroke="black" cx="51.9954" cy="-366" rx="51.9908" ry="18"/>
<text text-anchor="middle" x="51.9954" y="-362.3" font-family="Times New Roman,serif" font-size="14.00">Moonstone</text>
</g>
<!-- Pouch_Dust_Moon -->
<g id="node13" class="node"><title>Pouch_Dust_Moon</title>
<ellipse fill="none" stroke="black" cx="130.995" cy="-279" rx="83.3857" ry="18"/>
<text text-anchor="middle" x="130.995" y="-275.3" font-family="Times New Roman,serif" font-size="14.00">Pouch_Dust_Moon</text>
</g>
<!-- Moonstone&#45;&gt;Pouch_Dust_Moon -->
<g id="edge6" class="edge"><title>Moonstone&#45;&gt;Pouch_Dust_Moon</title>
<path fill="none" stroke="black" d="M48.0209,-347.899C46.6033,-337.553 46.6716,-324.558 52.9954,-315 57.487,-308.211 63.634,-302.725 70.521,-298.294"/>
<polygon fill="black" stroke="black" points="72.5547,-301.167 79.5713,-293.229 69.1357,-295.059 72.5547,-301.167"/>
<text text-anchor="middle" x="80.9954" y="-318.8" font-family="Times New Roman,serif" font-size="14.00">Crafting 0</text>
</g>
<!-- Pouch_Dust_Star -->
<g id="node7" class="node"><title>Pouch_Dust_Star</title>
<ellipse fill="none" stroke="black" cx="307.995" cy="-279" rx="75.2868" ry="18"/>
<text text-anchor="middle" x="307.995" y="-275.3" font-family="Times New Roman,serif" font-size="14.00">Pouch_Dust_Star</text>
</g>
<!-- Pouch_Dust_Star&#45;&gt;Pouch_Dust_Pixie -->
<g id="edge7" class="edge"><title>Pouch_Dust_Star&#45;&gt;Pouch_Dust_Pixie</title>
<path fill="none" stroke="black" d="M320.442,-261.207C329.529,-248.946 342.005,-232.114 352.289,-218.239"/>
<polygon fill="black" stroke="black" points="355.216,-220.167 358.359,-210.049 349.592,-215.999 355.216,-220.167"/>
<text text-anchor="middle" x="370.995" y="-231.8" font-family="Times New Roman,serif" font-size="14.00">Crafting 0</text>
</g>
<!-- MortarPestle -->
<g id="node8" class="node"><title>MortarPestle</title>
<ellipse fill="none" stroke="black" cx="209.995" cy="-366" rx="57.3905" ry="18"/>
<text text-anchor="middle" x="209.995" y="-362.3" font-family="Times New Roman,serif" font-size="14.00">MortarPestle</text>
</g>
<!-- MortarPestle&#45;&gt;Pouch_Dust_Bone -->
<g id="edge12" class="edge"><title>MortarPestle&#45;&gt;Pouch_Dust_Bone</title>
<path fill="none" stroke="black" d="M235.944,-349.948C245.829,-343.986 257.093,-336.913 266.995,-330 275.817,-323.841 276.164,-319.37 285.995,-315 329.662,-295.591 344.969,-305.483 391.995,-297 398.652,-295.799 405.584,-294.522 412.51,-293.228"/>
<polygon fill="black" stroke="black" points="413.44,-296.615 422.621,-291.328 412.146,-289.735 413.44,-296.615"/>
<text text-anchor="middle" x="313.995" y="-318.8" font-family="Times New Roman,serif" font-size="14.00">Crafting 0</text>
</g>
<!-- MortarPestle&#45;&gt;Pouch_Dust_Star -->
<g id="edge13" class="edge"><title>MortarPestle&#45;&gt;Pouch_Dust_Star</title>
<path fill="none" stroke="black" d="M205.77,-347.726C204.258,-337.315 204.315,-324.313 210.995,-315 217.735,-305.605 227.247,-298.723 237.704,-293.683"/>
<polygon fill="black" stroke="black" points="239.245,-296.832 247.091,-289.712 236.518,-290.385 239.245,-296.832"/>
<text text-anchor="middle" x="238.995" y="-318.8" font-family="Times New Roman,serif" font-size="14.00">Crafting 0</text>
</g>
<!-- MortarPestle&#45;&gt;Pouch_Dust_Moon -->
<g id="edge14" class="edge"><title>MortarPestle&#45;&gt;Pouch_Dust_Moon</title>
<path fill="none" stroke="black" d="M165.07,-354.67C152.255,-349.445 139.694,-341.636 131.995,-330 127.598,-323.354 126.226,-315.047 126.274,-307.124"/>
<polygon fill="black" stroke="black" points="129.768,-307.334 127.021,-297.101 122.787,-306.813 129.768,-307.334"/>
<text text-anchor="middle" x="159.995" y="-318.8" font-family="Times New Roman,serif" font-size="14.00">Crafting 0</text>
</g>
<!-- Herb_Stardust -->
<g id="node9" class="node"><title>Herb_Stardust</title>
<ellipse fill="none" stroke="black" cx="367.995" cy="-366" rx="63.8893" ry="18"/>
<text text-anchor="middle" x="367.995" y="-362.3" font-family="Times New Roman,serif" font-size="14.00">Herb_Stardust</text>
</g>
<!-- Herb_Stardust&#45;&gt;Pouch_Dust_Star -->
<g id="edge9" class="edge"><title>Herb_Stardust&#45;&gt;Pouch_Dust_Star</title>
<path fill="none" stroke="black" d="M362.463,-347.876C358.725,-337.768 353.164,-325.031 345.995,-315 343.147,-311.014 339.784,-307.135 336.255,-303.5"/>
<polygon fill="black" stroke="black" points="338.528,-300.829 328.893,-296.423 333.676,-305.876 338.528,-300.829"/>
<text text-anchor="middle" x="381.995" y="-318.8" font-family="Times New Roman,serif" font-size="14.00">Crafting 0</text>
</g>
<!-- Skull_Human -->
<g id="node11" class="node"><title>Skull_Human</title>
<ellipse fill="none" stroke="black" cx="608.995" cy="-366" rx="59.5901" ry="18"/>
<text text-anchor="middle" x="608.995" y="-362.3" font-family="Times New Roman,serif" font-size="14.00">Skull_Human</text>
</g>
<!-- Skull_Human&#45;&gt;Pouch_Dust_Bone -->
<g id="edge10" class="edge"><title>Skull_Human&#45;&gt;Pouch_Dust_Bone</title>
<path fill="none" stroke="black" d="M586.807,-349.179C572.668,-339.2 553.895,-326.14 536.995,-315 530.265,-310.563 523.007,-305.924 516.019,-301.527"/>
<polygon fill="black" stroke="black" points="517.707,-298.455 507.373,-296.121 513.997,-304.39 517.707,-298.455"/>
<text text-anchor="middle" x="585.995" y="-318.8" font-family="Times New Roman,serif" font-size="14.00">Crafting 0</text>
</g>
<!-- Skull_Human&#45;&gt;Skull_Human_A_Magic -->
<g id="edge11" class="edge"><title>Skull_Human&#45;&gt;Skull_Human_A_Magic</title>
<path fill="none" stroke="black" d="M615.403,-347.896C618.122,-338.029 619.872,-325.529 615.995,-315 605.102,-285.414 591.883,-283.691 569.995,-261 515.179,-204.172 501.244,-189.573 438.995,-141 433.447,-136.67 427.37,-132.324 421.374,-128.238"/>
<polygon fill="black" stroke="black" points="422.98,-125.102 412.717,-122.471 419.099,-130.928 422.98,-125.102"/>
<text text-anchor="middle" x="579.995" y="-231.8" font-family="Times New Roman,serif" font-size="14.00">Crafting 1</text>
</g>
<!-- Bone -->
<g id="node12" class="node"><title>Bone</title>
<ellipse fill="none" stroke="black" cx="479.995" cy="-366" rx="29.795" ry="18"/>
<text text-anchor="middle" x="479.995" y="-362.3" font-family="Times New Roman,serif" font-size="14.00">Bone</text>
</g>
<!-- Bone&#45;&gt;Pouch_Dust_Bone -->
<g id="edge8" class="edge"><title>Bone&#45;&gt;Pouch_Dust_Bone</title>
<path fill="none" stroke="black" d="M480.198,-347.799C480.335,-336.163 480.518,-320.548 480.675,-307.237"/>
<polygon fill="black" stroke="black" points="484.175,-307.216 480.793,-297.175 477.176,-307.134 484.175,-307.216"/>
<text text-anchor="middle" x="507.995" y="-318.8" font-family="Times New Roman,serif" font-size="14.00">Crafting 0</text>
</g>
<!-- Pouch_Dust_Moon&#45;&gt;Pouch_Dust_Pixie -->
<g id="edge15" class="edge"><title>Pouch_Dust_Moon&#45;&gt;Pouch_Dust_Pixie</title>
<path fill="none" stroke="black" d="M172.526,-263.291C213.562,-248.758 276.399,-226.503 320.344,-210.939"/>
<polygon fill="black" stroke="black" points="321.715,-214.167 329.973,-207.529 319.378,-207.568 321.715,-214.167"/>
<text text-anchor="middle" x="293.995" y="-231.8" font-family="Times New Roman,serif" font-size="14.00">Crafting 0</text>
</g>
</g>
</svg>
