<?xml version="1.0" encoding="UTF-8" standalone="no"?>
<!DOCTYPE svg PUBLIC "-//W3C//DTD SVG 1.1//EN"
 "http://www.w3.org/Graphics/SVG/1.1/DTD/svg11.dtd">
<!-- Generated by graphviz version 2.38.0 (20140413.2041)
 -->
<!-- Title: G Pages: 1 -->
<svg width="527pt" height="392pt"
 viewBox="0.00 0.00 526.54 392.00" xmlns="http://www.w3.org/2000/svg" xmlns:xlink="http://www.w3.org/1999/xlink">
<g id="graph0" class="graph" transform="scale(1 1) rotate(0) translate(4 388)">
<title>G</title>
<polygon fill="white" stroke="none" points="-4,4 -4,-388 522.537,-388 522.537,4 -4,4"/>
<!-- Herb_Augmentor -->
<g id="node1" class="node"><title>Herb_Augmentor</title>
<ellipse fill="none" stroke="black" cx="74.0934" cy="-192" rx="74.187" ry="18"/>
<text text-anchor="middle" x="74.0934" y="-188.3" font-family="Times New Roman,serif" font-size="14.00">Herb_Augmentor</text>
</g>
<!-- Potion_Charm_Large -->
<g id="node2" class="node"><title>Potion_Charm_Large</title>
<ellipse fill="none" stroke="black" cx="117.093" cy="-18" rx="89.0842" ry="18"/>
<text text-anchor="middle" x="117.093" y="-14.3" font-family="Times New Roman,serif" font-size="14.00">Potion_Charm_Large</text>
</g>
<!-- Herb_Augmentor&#45;&gt;Potion_Charm_Large -->
<g id="edge2" class="edge"><title>Herb_Augmentor&#45;&gt;Potion_Charm_Large</title>
<path fill="none" stroke="black" d="M71.4696,-173.659C68.9241,-152.674 66.5675,-116.488 75.0934,-87 79.5283,-71.6613 88.4622,-56.3728 96.9544,-44.1886"/>
<polygon fill="black" stroke="black" points="99.9275,-46.0516 102.989,-35.9089 94.2707,-41.9284 99.9275,-46.0516"/>
<text text-anchor="middle" x="103.093" y="-101.3" font-family="Times New Roman,serif" font-size="14.00">Crafting 4</text>
</g>
<!-- Potion_Charm_Medium -->
<g id="node4" class="node"><title>Potion_Charm_Medium</title>
<ellipse fill="none" stroke="black" cx="239.093" cy="-105" rx="98.5829" ry="18"/>
<text text-anchor="middle" x="239.093" y="-101.3" font-family="Times New Roman,serif" font-size="14.00">Potion_Charm_Medium</text>
</g>
<!-- Herb_Augmentor&#45;&gt;Potion_Charm_Medium -->
<g id="edge1" class="edge"><title>Herb_Augmentor&#45;&gt;Potion_Charm_Medium</title>
<path fill="none" stroke="black" d="M104.357,-175.41C130.801,-161.787 169.409,-141.898 198.526,-126.899"/>
<polygon fill="black" stroke="black" points="200.331,-129.906 207.618,-122.215 197.125,-123.683 200.331,-129.906"/>
<text text-anchor="middle" x="195.093" y="-144.8" font-family="Times New Roman,serif" font-size="14.00">Crafting 3</text>
</g>
<!-- Potion_Empty -->
<g id="node3" class="node"><title>Potion_Empty</title>
<ellipse fill="none" stroke="black" cx="290.093" cy="-366" rx="63.8893" ry="18"/>
<text text-anchor="middle" x="290.093" y="-362.3" font-family="Times New Roman,serif" font-size="14.00">Potion_Empty</text>
</g>
<!-- Minor_Healing_Potion -->
<g id="node8" class="node"><title>Minor_Healing_Potion</title>
<ellipse fill="none" stroke="black" cx="368.093" cy="-279" rx="92.8835" ry="18"/>
<text text-anchor="middle" x="368.093" y="-275.3" font-family="Times New Roman,serif" font-size="14.00">Minor_Healing_Potion</text>
</g>
<!-- Potion_Empty&#45;&gt;Minor_Healing_Potion -->
<g id="edge3" class="edge"><title>Potion_Empty&#45;&gt;Minor_Healing_Potion</title>
<path fill="none" stroke="black" d="M305.504,-348.207C317.042,-335.633 332.992,-318.252 345.902,-304.182"/>
<polygon fill="black" stroke="black" points="348.533,-306.493 352.715,-296.758 343.375,-301.76 348.533,-306.493"/>
<text text-anchor="middle" x="361.093" y="-318.8" font-family="Times New Roman,serif" font-size="14.00">Crafting 1</text>
</g>
<!-- Potion_Charm_Medium&#45;&gt;Potion_Charm_Large -->
<g id="edge4" class="edge"><title>Potion_Charm_Medium&#45;&gt;Potion_Charm_Large</title>
<path fill="none" stroke="black" d="M215.281,-87.4094C196.387,-74.2458 169.797,-55.7198 149.052,-41.2663"/>
<polygon fill="black" stroke="black" points="151.052,-38.3937 140.846,-35.5488 147.05,-44.1371 151.052,-38.3937"/>
<text text-anchor="middle" x="214.093" y="-57.8" font-family="Times New Roman,serif" font-size="14.00">Crafting 4</text>
</g>
<!-- Potion_Charm -->
<g id="node5" class="node"><title>Potion_Charm</title>
<ellipse fill="none" stroke="black" cx="239.093" cy="-192" rx="63.8893" ry="18"/>
<text text-anchor="middle" x="239.093" y="-188.3" font-family="Times New Roman,serif" font-size="14.00">Potion_Charm</text>
</g>
<!-- Potion_Charm&#45;&gt;Potion_Charm_Medium -->
<g id="edge5" class="edge"><title>Potion_Charm&#45;&gt;Potion_Charm_Medium</title>
<path fill="none" stroke="black" d="M239.093,-173.799C239.093,-162.163 239.093,-146.548 239.093,-133.237"/>
<polygon fill="black" stroke="black" points="242.594,-133.175 239.093,-123.175 235.594,-133.175 242.594,-133.175"/>
<text text-anchor="middle" x="267.093" y="-144.8" font-family="Times New Roman,serif" font-size="14.00">Crafting 3</text>
</g>
<!-- Herb_FannyBlossom -->
<g id="node6" class="node"><title>Herb_FannyBlossom</title>
<ellipse fill="none" stroke="black" cx="169.093" cy="-279" rx="88.2844" ry="18"/>
<text text-anchor="middle" x="169.093" y="-275.3" font-family="Times New Roman,serif" font-size="14.00">Herb_FannyBlossom</text>
</g>
<!-- Herb_FannyBlossom&#45;&gt;Potion_Charm -->
<g id="edge6" class="edge"><title>Herb_FannyBlossom&#45;&gt;Potion_Charm</title>
<path fill="none" stroke="black" d="M182.923,-261.207C193.182,-248.75 207.327,-231.573 218.856,-217.574"/>
<polygon fill="black" stroke="black" points="221.637,-219.703 225.292,-209.758 216.234,-215.253 221.637,-219.703"/>
<text text-anchor="middle" x="237.093" y="-231.8" font-family="Times New Roman,serif" font-size="14.00">Crafting 2</text>
</g>
<!-- Herb_Mushroom -->
<g id="node7" class="node"><title>Herb_Mushroom</title>
<ellipse fill="none" stroke="black" cx="445.093" cy="-366" rx="73.387" ry="18"/>
<text text-anchor="middle" x="445.093" y="-362.3" font-family="Times New Roman,serif" font-size="14.00">Herb_Mushroom</text>
</g>
<!-- Herb_Mushroom&#45;&gt;Minor_Healing_Potion -->
<g id="edge7" class="edge"><title>Herb_Mushroom&#45;&gt;Minor_Healing_Potion</title>
<path fill="none" stroke="black" d="M429.881,-348.207C418.491,-335.633 402.745,-318.252 390,-304.182"/>
<polygon fill="black" stroke="black" points="392.582,-301.82 383.275,-296.758 387.394,-306.519 392.582,-301.82"/>
<text text-anchor="middle" x="439.093" y="-318.8" font-family="Times New Roman,serif" font-size="14.00">Crafting 1</text>
</g>
<!-- Minor_Healing_Potion&#45;&gt;Potion_Charm -->
<g id="edge8" class="edge"><title>Minor_Healing_Potion&#45;&gt;Potion_Charm</title>
<path fill="none" stroke="black" d="M343.221,-261.611C322.796,-248.153 293.716,-228.992 271.476,-214.337"/>
<polygon fill="black" stroke="black" points="273.293,-211.343 263.017,-208.764 269.442,-217.189 273.293,-211.343"/>
<text text-anchor="middle" x="339.093" y="-231.8" font-family="Times New Roman,serif" font-size="14.00">Crafting 2</text>
</g>
</g>
</svg>
