<?xml version="1.0" encoding="UTF-8" standalone="no"?>
<!DOCTYPE svg PUBLIC "-//W3C//DTD SVG 1.1//EN"
 "http://www.w3.org/Graphics/SVG/1.1/DTD/svg11.dtd">
<!-- Generated by graphviz version 2.38.0 (20140413.2041)
 -->
<!-- Title: G Pages: 1 -->
<svg width="268pt" height="236pt"
 viewBox="0.00 0.00 267.74 235.74" xmlns="http://www.w3.org/2000/svg" xmlns:xlink="http://www.w3.org/1999/xlink">
<g id="graph0" class="graph" transform="scale(1 1) rotate(0) translate(4 231.74)">
<title>G</title>
<polygon fill="white" stroke="none" points="-4,4 -4,-231.74 263.741,-231.74 263.741,4 -4,4"/>
<!-- Spear
+ Small_EarthDamage -->
<g id="node1" class="node"><title>Spear
+ Small_EarthDamage</title>
<ellipse fill="none" stroke="black" cx="112.344" cy="-26.8701" rx="99.9045" ry="26.7407"/>
<text text-anchor="middle" x="112.344" y="-30.6701" font-family="Times New Roman,serif" font-size="14.00">Spear</text>
<text text-anchor="middle" x="112.344" y="-15.6701" font-family="Times New Roman,serif" font-size="14.00">+ Small_EarthDamage</text>
</g>
<!-- Branch -->
<g id="node2" class="node"><title>Branch</title>
<ellipse fill="none" stroke="black" cx="132.344" cy="-209.74" rx="36.2938" ry="18"/>
<text text-anchor="middle" x="132.344" y="-206.04" font-family="Times New Roman,serif" font-size="14.00">Branch</text>
</g>
<!-- Spear -->
<g id="node5" class="node"><title>Spear</title>
<ellipse fill="none" stroke="black" cx="178.344" cy="-122.74" rx="31.6951" ry="18"/>
<text text-anchor="middle" x="178.344" y="-119.04" font-family="Times New Roman,serif" font-size="14.00">Spear</text>
</g>
<!-- Branch&#45;&gt;Spear -->
<g id="edge4" class="edge"><title>Branch&#45;&gt;Spear</title>
<path fill="none" stroke="black" d="M130.513,-191.631C130.187,-181.529 131.137,-168.792 136.344,-158.74 139.381,-152.877 143.869,-147.617 148.794,-143.063"/>
<polygon fill="black" stroke="black" points="151.259,-145.567 156.75,-136.506 146.807,-140.166 151.259,-145.567"/>
<text text-anchor="middle" x="164.344" y="-162.54" font-family="Times New Roman,serif" font-size="14.00">Crafting 2</text>
</g>
<!-- Dagger -->
<g id="node3" class="node"><title>Dagger</title>
<ellipse fill="none" stroke="black" cx="223.344" cy="-209.74" rx="36.2938" ry="18"/>
<text text-anchor="middle" x="223.344" y="-206.04" font-family="Times New Roman,serif" font-size="14.00">Dagger</text>
</g>
<!-- Dagger&#45;&gt;Spear -->
<g id="edge2" class="edge"><title>Dagger&#45;&gt;Spear</title>
<path fill="none" stroke="black" d="M214.454,-191.947C208.002,-179.761 199.159,-163.058 191.84,-149.231"/>
<polygon fill="black" stroke="black" points="194.835,-147.41 187.063,-140.209 188.649,-150.685 194.835,-147.41"/>
<text text-anchor="middle" x="231.344" y="-162.54" font-family="Times New Roman,serif" font-size="14.00">Crafting 2</text>
</g>
<!-- Essence_Earth -->
<g id="node4" class="node"><title>Essence_Earth</title>
<ellipse fill="none" stroke="black" cx="64.3443" cy="-122.74" rx="64.189" ry="18"/>
<text text-anchor="middle" x="64.3443" y="-119.04" font-family="Times New Roman,serif" font-size="14.00">Essence_Earth</text>
</g>
<!-- Essence_Earth&#45;&gt;Spear
+ Small_EarthDamage -->
<g id="edge3" class="edge"><title>Essence_Earth&#45;&gt;Spear
+ Small_EarthDamage</title>
<path fill="none" stroke="black" d="M69.312,-104.626C72.4679,-94.7545 76.9679,-82.2545 82.3443,-71.7401 83.9471,-68.6055 85.7386,-65.4307 87.6269,-62.2974"/>
<polygon fill="black" stroke="black" points="90.7167,-63.9611 93.1287,-53.6444 84.8096,-60.2052 90.7167,-63.9611"/>
<text text-anchor="middle" x="110.344" y="-75.5401" font-family="Times New Roman,serif" font-size="14.00">Crafting 5</text>
</g>
<!-- Spear&#45;&gt;Spear
+ Small_EarthDamage -->
<g id="edge1" class="edge"><title>Spear&#45;&gt;Spear
+ Small_EarthDamage</title>
<path fill="none" stroke="black" d="M167.148,-105.816C158.725,-93.8354 146.87,-76.9747 136.34,-61.998"/>
<polygon fill="black" stroke="black" points="138.943,-59.6161 130.329,-53.4488 133.217,-63.6423 138.943,-59.6161"/>
<text text-anchor="middle" x="181.344" y="-75.5401" font-family="Times New Roman,serif" font-size="14.00">Crafting 5</text>
</g>
</g>
</svg>
