<?xml version="1.0" encoding="UTF-8" standalone="no"?>
<!DOCTYPE svg PUBLIC "-//W3C//DTD SVG 1.1//EN"
 "http://www.w3.org/Graphics/SVG/1.1/DTD/svg11.dtd">
<!-- Generated by graphviz version 2.38.0 (20140413.2041)
 -->
<!-- Title: G Pages: 1 -->
<svg width="252pt" height="149pt"
 viewBox="0.00 0.00 252.09 148.74" xmlns="http://www.w3.org/2000/svg" xmlns:xlink="http://www.w3.org/1999/xlink">
<g id="graph0" class="graph" transform="scale(1 1) rotate(0) translate(4 144.74)">
<title>G</title>
<polygon fill="white" stroke="none" points="-4,4 -4,-144.74 248.09,-144.74 248.09,4 -4,4"/>
<!-- ArmorBelt
+ Small_EarthResistance -->
<g id="node1" class="node"><title>ArmorBelt
+ Small_EarthResistance</title>
<ellipse fill="none" stroke="black" cx="113.746" cy="-26.8701" rx="110.118" ry="26.7407"/>
<text text-anchor="middle" x="113.746" y="-30.6701" font-family="Times New Roman,serif" font-size="14.00">ArmorBelt</text>
<text text-anchor="middle" x="113.746" y="-15.6701" font-family="Times New Roman,serif" font-size="14.00">+ Small_EarthResistance</text>
</g>
<!-- ArmorBelt -->
<g id="node2" class="node"><title>ArmorBelt</title>
<ellipse fill="none" stroke="black" cx="48.7457" cy="-122.74" rx="48.9926" ry="18"/>
<text text-anchor="middle" x="48.7457" y="-119.04" font-family="Times New Roman,serif" font-size="14.00">ArmorBelt</text>
</g>
<!-- ArmorBelt&#45;&gt;ArmorBelt
+ Small_EarthResistance -->
<g id="edge1" class="edge"><title>ArmorBelt&#45;&gt;ArmorBelt
+ Small_EarthResistance</title>
<path fill="none" stroke="black" d="M60.3664,-104.958C68.6082,-93.0556 79.9567,-76.6666 90.0712,-62.0596"/>
<polygon fill="black" stroke="black" points="93.0357,-63.9265 95.8511,-53.7126 87.2807,-59.9415 93.0357,-63.9265"/>
<text text-anchor="middle" x="111.746" y="-75.5401" font-family="Times New Roman,serif" font-size="14.00">Crafting 3</text>
</g>
<!-- Essence_Earth -->
<g id="node3" class="node"><title>Essence_Earth</title>
<ellipse fill="none" stroke="black" cx="179.746" cy="-122.74" rx="64.189" ry="18"/>
<text text-anchor="middle" x="179.746" y="-119.04" font-family="Times New Roman,serif" font-size="14.00">Essence_Earth</text>
</g>
<!-- Essence_Earth&#45;&gt;ArmorBelt
+ Small_EarthResistance -->
<g id="edge2" class="edge"><title>Essence_Earth&#45;&gt;ArmorBelt
+ Small_EarthResistance</title>
<path fill="none" stroke="black" d="M167.946,-104.958C159.578,-93.0556 148.054,-76.6666 137.784,-62.0596"/>
<polygon fill="black" stroke="black" points="140.53,-59.8799 131.916,-53.7126 134.804,-63.9061 140.53,-59.8799"/>
<text text-anchor="middle" x="181.746" y="-75.5401" font-family="Times New Roman,serif" font-size="14.00">Crafting 3</text>
</g>
</g>
</svg>
