<?xml version="1.0" encoding="UTF-8" standalone="no"?>
<!DOCTYPE svg PUBLIC "-//W3C//DTD SVG 1.1//EN"
 "http://www.w3.org/Graphics/SVG/1.1/DTD/svg11.dtd">
<!-- Generated by graphviz version 2.38.0 (20140413.2041)
 -->
<!-- Title: G Pages: 1 -->
<svg width="200pt" height="131pt"
 viewBox="0.00 0.00 200.09 131.00" xmlns="http://www.w3.org/2000/svg" xmlns:xlink="http://www.w3.org/1999/xlink">
<g id="graph0" class="graph" transform="scale(1 1) rotate(0) translate(4 127)">
<title>G</title>
<polygon fill="white" stroke="none" points="-4,4 -4,-127 196.092,-127 196.092,4 -4,4"/>
<!-- Orange -->
<g id="node1" class="node"><title>Orange</title>
<ellipse fill="none" stroke="black" cx="37.0467" cy="-105" rx="37.0935" ry="18"/>
<text text-anchor="middle" x="37.0467" y="-101.3" font-family="Times New Roman,serif" font-size="14.00">Orange</text>
</g>
<!-- Cup_A_Orange -->
<g id="node2" class="node"><title>Cup_A_Orange</title>
<ellipse fill="none" stroke="black" cx="89.0467" cy="-18" rx="68.7879" ry="18"/>
<text text-anchor="middle" x="89.0467" y="-14.3" font-family="Times New Roman,serif" font-size="14.00">Cup_A_Orange</text>
</g>
<!-- Orange&#45;&gt;Cup_A_Orange -->
<g id="edge1" class="edge"><title>Orange&#45;&gt;Cup_A_Orange</title>
<path fill="none" stroke="black" d="M45.5345,-87.0357C50.6138,-77.2143 57.3638,-64.7143 64.0467,-54 66.0622,-50.7687 68.2668,-47.4358 70.5053,-44.17"/>
<polygon fill="black" stroke="black" points="73.5052,-45.9889 76.4028,-35.798 67.7825,-41.9576 73.5052,-45.9889"/>
<text text-anchor="middle" x="92.0467" y="-57.8" font-family="Times New Roman,serif" font-size="14.00">Crafting 0</text>
</g>
<!-- CupEmpty -->
<g id="node3" class="node"><title>CupEmpty</title>
<ellipse fill="none" stroke="black" cx="142.047" cy="-105" rx="50.0912" ry="18"/>
<text text-anchor="middle" x="142.047" y="-101.3" font-family="Times New Roman,serif" font-size="14.00">CupEmpty</text>
</g>
<!-- CupEmpty&#45;&gt;Cup_A_Orange -->
<g id="edge2" class="edge"><title>CupEmpty&#45;&gt;Cup_A_Orange</title>
<path fill="none" stroke="black" d="M135.957,-86.6665C132.094,-76.722 126.594,-64.222 120.047,-54 117.732,-50.3859 115.051,-46.7716 112.253,-43.3114"/>
<polygon fill="black" stroke="black" points="114.799,-40.9035 105.633,-35.5899 109.485,-45.4597 114.799,-40.9035"/>
<text text-anchor="middle" x="155.047" y="-57.8" font-family="Times New Roman,serif" font-size="14.00">Crafting 0</text>
</g>
</g>
</svg>
