<?xml version="1.0" encoding="UTF-8" standalone="no"?>
<!DOCTYPE svg PUBLIC "-//W3C//DTD SVG 1.1//EN"
 "http://www.w3.org/Graphics/SVG/1.1/DTD/svg11.dtd">
<!-- Generated by graphviz version 2.38.0 (20140413.2041)
 -->
<!-- Title: G Pages: 1 -->
<svg width="223pt" height="149pt"
 viewBox="0.00 0.00 222.74 148.74" xmlns="http://www.w3.org/2000/svg" xmlns:xlink="http://www.w3.org/1999/xlink">
<g id="graph0" class="graph" transform="scale(1 1) rotate(0) translate(4 144.74)">
<title>G</title>
<polygon fill="white" stroke="none" points="-4,4 -4,-144.74 218.739,-144.74 218.739,4 -4,4"/>
<!-- Pearl -->
<g id="node1" class="node"><title>Pearl</title>
<ellipse fill="none" stroke="black" cx="44.9949" cy="-122.74" rx="28.6953" ry="18"/>
<text text-anchor="middle" x="44.9949" y="-119.04" font-family="Times New Roman,serif" font-size="14.00">Pearl</text>
</g>
<!-- ArmorLeather
+ Body_Boost_Value -->
<g id="node2" class="node"><title>ArmorLeather
+ Body_Boost_Value</title>
<ellipse fill="none" stroke="black" cx="98.9949" cy="-26.8701" rx="98.9899" ry="26.7407"/>
<text text-anchor="middle" x="98.9949" y="-30.6701" font-family="Times New Roman,serif" font-size="14.00">ArmorLeather</text>
<text text-anchor="middle" x="98.9949" y="-15.6701" font-family="Times New Roman,serif" font-size="14.00">+ Body_Boost_Value</text>
</g>
<!-- Pearl&#45;&gt;ArmorLeather
+ Body_Boost_Value -->
<g id="edge1" class="edge"><title>Pearl&#45;&gt;ArmorLeather
+ Body_Boost_Value</title>
<path fill="none" stroke="black" d="M54.401,-105.389C61.2075,-93.5572 70.6562,-77.1323 79.1048,-62.4457"/>
<polygon fill="black" stroke="black" points="82.2509,-63.9959 84.2035,-53.5825 76.1832,-60.5053 82.2509,-63.9959"/>
<text text-anchor="middle" x="101.995" y="-75.5401" font-family="Times New Roman,serif" font-size="14.00">Crafting 1</text>
</g>
<!-- ArmorLeather -->
<g id="node3" class="node"><title>ArmorLeather</title>
<ellipse fill="none" stroke="black" cx="152.995" cy="-122.74" rx="61.99" ry="18"/>
<text text-anchor="middle" x="152.995" y="-119.04" font-family="Times New Roman,serif" font-size="14.00">ArmorLeather</text>
</g>
<!-- ArmorLeather&#45;&gt;ArmorLeather
+ Body_Boost_Value -->
<g id="edge2" class="edge"><title>ArmorLeather&#45;&gt;ArmorLeather
+ Body_Boost_Value</title>
<path fill="none" stroke="black" d="M146.537,-104.63C142.551,-94.7604 137.051,-82.2604 130.995,-71.7401 129.04,-68.3444 126.876,-64.895 124.623,-61.4988"/>
<polygon fill="black" stroke="black" points="127.472,-59.4637 118.907,-53.2271 121.713,-63.4436 127.472,-59.4637"/>
<text text-anchor="middle" x="165.995" y="-75.5401" font-family="Times New Roman,serif" font-size="14.00">Crafting 1</text>
</g>
</g>
</svg>
