<?xml version="1.0" encoding="UTF-8" standalone="no"?>
<!DOCTYPE svg PUBLIC "-//W3C//DTD SVG 1.1//EN"
 "http://www.w3.org/Graphics/SVG/1.1/DTD/svg11.dtd">
<!-- Generated by graphviz version 2.38.0 (20140413.2041)
 -->
<!-- Title: G Pages: 1 -->
<svg width="1696pt" height="566pt"
 viewBox="0.00 0.00 1696.24 566.00" xmlns="http://www.w3.org/2000/svg" xmlns:xlink="http://www.w3.org/1999/xlink">
<g id="graph0" class="graph" transform="scale(1 1) rotate(0) translate(4 562)">
<title>G</title>
<polygon fill="white" stroke="none" points="-4,4 -4,-562 1692.24,-562 1692.24,4 -4,4"/>
<!-- Log -->
<g id="node1" class="node"><title>Log</title>
<ellipse fill="none" stroke="black" cx="1568.24" cy="-540" rx="27" ry="18"/>
<text text-anchor="middle" x="1568.24" y="-536.3" font-family="Times New Roman,serif" font-size="14.00">Log</text>
</g>
<!-- Scraps_Wood -->
<g id="node34" class="node"><title>Scraps_Wood</title>
<ellipse fill="none" stroke="black" cx="1608.24" cy="-453" rx="64.189" ry="18"/>
<text text-anchor="middle" x="1608.24" y="-449.3" font-family="Times New Roman,serif" font-size="14.00">Scraps_Wood</text>
</g>
<!-- Log&#45;&gt;Scraps_Wood -->
<g id="edge1" class="edge"><title>Log&#45;&gt;Scraps_Wood</title>
<path fill="none" stroke="black" d="M1563.24,-522.006C1561.23,-511.944 1560.38,-499.21 1565.24,-489 1567.45,-484.338 1570.63,-480.094 1574.26,-476.296"/>
<polygon fill="black" stroke="black" points="1576.64,-478.867 1581.69,-469.552 1571.93,-473.686 1576.64,-478.867"/>
<text text-anchor="middle" x="1593.24" y="-492.8" font-family="Times New Roman,serif" font-size="14.00">Crafting 0</text>
</g>
<!-- Scraps_Wood_A_Mush -->
<g id="node2" class="node"><title>Scraps_Wood_A_Mush</title>
<ellipse fill="none" stroke="black" cx="1282.24" cy="-366" rx="100.983" ry="18"/>
<text text-anchor="middle" x="1282.24" y="-362.3" font-family="Times New Roman,serif" font-size="14.00">Scraps_Wood_A_Mush</text>
</g>
<!-- BOOK_Paper_Sheet -->
<g id="node10" class="node"><title>BOOK_Paper_Sheet</title>
<ellipse fill="none" stroke="black" cx="1282.24" cy="-279" rx="87.1846" ry="18"/>
<text text-anchor="middle" x="1282.24" y="-275.3" font-family="Times New Roman,serif" font-size="14.00">BOOK_Paper_Sheet</text>
</g>
<!-- Scraps_Wood_A_Mush&#45;&gt;BOOK_Paper_Sheet -->
<g id="edge20" class="edge"><title>Scraps_Wood_A_Mush&#45;&gt;BOOK_Paper_Sheet</title>
<path fill="none" stroke="black" d="M1282.24,-347.799C1282.24,-336.163 1282.24,-320.548 1282.24,-307.237"/>
<polygon fill="black" stroke="black" points="1285.74,-307.175 1282.24,-297.175 1278.74,-307.175 1285.74,-307.175"/>
<text text-anchor="middle" x="1310.24" y="-318.8" font-family="Times New Roman,serif" font-size="14.00">Crafting 0</text>
</g>
<!-- Pouch_Dust_Bone -->
<g id="node3" class="node"><title>Pouch_Dust_Bone</title>
<ellipse fill="none" stroke="black" cx="599.237" cy="-366" rx="79.8859" ry="18"/>
<text text-anchor="middle" x="599.237" y="-362.3" font-family="Times New Roman,serif" font-size="14.00">Pouch_Dust_Bone</text>
</g>
<!-- Pouch_Dust_Pixie -->
<g id="node18" class="node"><title>Pouch_Dust_Pixie</title>
<ellipse fill="none" stroke="black" cx="780.237" cy="-279" rx="78.7863" ry="18"/>
<text text-anchor="middle" x="780.237" y="-275.3" font-family="Times New Roman,serif" font-size="14.00">Pouch_Dust_Pixie</text>
</g>
<!-- Pouch_Dust_Bone&#45;&gt;Pouch_Dust_Pixie -->
<g id="edge2" class="edge"><title>Pouch_Dust_Bone&#45;&gt;Pouch_Dust_Pixie</title>
<path fill="none" stroke="black" d="M632.435,-349.41C662.159,-335.451 705.893,-314.913 738.08,-299.798"/>
<polygon fill="black" stroke="black" points="739.685,-302.91 747.249,-295.491 736.71,-296.574 739.685,-302.91"/>
<text text-anchor="middle" x="729.237" y="-318.8" font-family="Times New Roman,serif" font-size="14.00">Crafting 0</text>
</g>
<!-- Bucket_A_Water -->
<g id="node4" class="node"><title>Bucket_A_Water</title>
<ellipse fill="none" stroke="black" cx="1356.24" cy="-453" rx="74.187" ry="18"/>
<text text-anchor="middle" x="1356.24" y="-449.3" font-family="Times New Roman,serif" font-size="14.00">Bucket_A_Water</text>
</g>
<!-- Bucket_A_Water&#45;&gt;Scraps_Wood_A_Mush -->
<g id="edge3" class="edge"><title>Bucket_A_Water&#45;&gt;Scraps_Wood_A_Mush</title>
<path fill="none" stroke="black" d="M1341.62,-435.207C1330.84,-422.831 1316.01,-405.796 1303.87,-391.847"/>
<polygon fill="black" stroke="black" points="1306.29,-389.293 1297.08,-384.049 1301.01,-393.89 1306.29,-389.293"/>
<text text-anchor="middle" x="1352.24" y="-405.8" font-family="Times New Roman,serif" font-size="14.00">Crafting 0</text>
</g>
<!-- Herb_Stardust -->
<g id="node5" class="node"><title>Herb_Stardust</title>
<ellipse fill="none" stroke="black" cx="1004.24" cy="-453" rx="63.8893" ry="18"/>
<text text-anchor="middle" x="1004.24" y="-449.3" font-family="Times New Roman,serif" font-size="14.00">Herb_Stardust</text>
</g>
<!-- Pouch_Dust_Star -->
<g id="node26" class="node"><title>Pouch_Dust_Star</title>
<ellipse fill="none" stroke="black" cx="957.237" cy="-366" rx="75.2868" ry="18"/>
<text text-anchor="middle" x="957.237" y="-362.3" font-family="Times New Roman,serif" font-size="14.00">Pouch_Dust_Star</text>
</g>
<!-- Herb_Stardust&#45;&gt;Pouch_Dust_Star -->
<g id="edge10" class="edge"><title>Herb_Stardust&#45;&gt;Pouch_Dust_Star</title>
<path fill="none" stroke="black" d="M997.74,-434.913C993.741,-425.05 988.241,-412.55 982.237,-402 980.393,-398.759 978.317,-395.451 976.169,-392.225"/>
<polygon fill="black" stroke="black" points="979.016,-390.187 970.43,-383.98 973.271,-394.187 979.016,-390.187"/>
<text text-anchor="middle" x="1018.24" y="-405.8" font-family="Times New Roman,serif" font-size="14.00">Crafting 0</text>
</g>
<!-- BOOK_Skill_Earth_Blank -->
<g id="node6" class="node"><title>BOOK_Skill_Earth_Blank</title>
<ellipse fill="none" stroke="black" cx="1047.24" cy="-105" rx="106.681" ry="18"/>
<text text-anchor="middle" x="1047.24" y="-101.3" font-family="Times New Roman,serif" font-size="14.00">BOOK_Skill_Earth_Blank</text>
</g>
<!-- SKILLBOOK_Projectile_PoisonDart -->
<g id="node11" class="node"><title>SKILLBOOK_Projectile_PoisonDart</title>
<ellipse fill="none" stroke="black" cx="146.237" cy="-18" rx="146.474" ry="18"/>
<text text-anchor="middle" x="146.237" y="-14.3" font-family="Times New Roman,serif" font-size="14.00">SKILLBOOK_Projectile_PoisonDart</text>
</g>
<!-- BOOK_Skill_Earth_Blank&#45;&gt;SKILLBOOK_Projectile_PoisonDart -->
<g id="edge7" class="edge"><title>BOOK_Skill_Earth_Blank&#45;&gt;SKILLBOOK_Projectile_PoisonDart</title>
<path fill="none" stroke="black" d="M973.133,-91.9688C959.557,-90.0716 945.493,-88.3081 932.237,-87 772.811,-71.268 731.39,-87.2831 572.237,-69 534.995,-64.7218 526.372,-59.1242 489.237,-54 406.087,-42.5262 384.735,-44.5758 301.237,-36 288.254,-34.6666 274.664,-33.2325 261.156,-31.7829"/>
<polygon fill="black" stroke="black" points="261.171,-28.2643 250.853,-30.6728 260.421,-35.224 261.171,-28.2643"/>
<text text-anchor="middle" x="600.237" y="-57.8" font-family="Times New Roman,serif" font-size="14.00">Crafting 4</text>
</g>
<!-- SKILLBOOK_Summon_Earth -->
<g id="node13" class="node"><title>SKILLBOOK_Summon_Earth</title>
<ellipse fill="none" stroke="black" cx="1273.24" cy="-18" rx="123.478" ry="18"/>
<text text-anchor="middle" x="1273.24" y="-14.3" font-family="Times New Roman,serif" font-size="14.00">SKILLBOOK_Summon_Earth</text>
</g>
<!-- BOOK_Skill_Earth_Blank&#45;&gt;SKILLBOOK_Summon_Earth -->
<g id="edge9" class="edge"><title>BOOK_Skill_Earth_Blank&#45;&gt;SKILLBOOK_Summon_Earth</title>
<path fill="none" stroke="black" d="M1061.72,-87.0743C1072.15,-75.9789 1087.17,-62.0807 1103.24,-54 1123.29,-43.9172 1146.06,-36.7388 1168.27,-31.6282"/>
<polygon fill="black" stroke="black" points="1169.06,-35.0388 1178.09,-29.4925 1167.57,-28.1989 1169.06,-35.0388"/>
<text text-anchor="middle" x="1131.24" y="-57.8" font-family="Times New Roman,serif" font-size="14.00">Crafting 4</text>
</g>
<!-- SKILLBOOK_Boulder_BoulderDash -->
<g id="node19" class="node"><title>SKILLBOOK_Boulder_BoulderDash</title>
<ellipse fill="none" stroke="black" cx="984.237" cy="-18" rx="147.574" ry="18"/>
<text text-anchor="middle" x="984.237" y="-14.3" font-family="Times New Roman,serif" font-size="14.00">SKILLBOOK_Boulder_BoulderDash</text>
</g>
<!-- BOOK_Skill_Earth_Blank&#45;&gt;SKILLBOOK_Boulder_BoulderDash -->
<g id="edge4" class="edge"><title>BOOK_Skill_Earth_Blank&#45;&gt;SKILLBOOK_Boulder_BoulderDash</title>
<path fill="none" stroke="black" d="M1017.43,-87.5674C1010.29,-82.4283 1003.28,-76.1888 998.237,-69 993.557,-62.3297 990.437,-54.1362 988.358,-46.3268"/>
<polygon fill="black" stroke="black" points="991.75,-45.4557 986.182,-36.4422 984.914,-46.9609 991.75,-45.4557"/>
<text text-anchor="middle" x="1026.24" y="-57.8" font-family="Times New Roman,serif" font-size="14.00">Crafting 4</text>
</g>
<!-- SKILLBOOK_Quake_Earthquake -->
<g id="node20" class="node"><title>SKILLBOOK_Quake_Earthquake</title>
<ellipse fill="none" stroke="black" cx="1550.24" cy="-18" rx="135.676" ry="18"/>
<text text-anchor="middle" x="1550.24" y="-14.3" font-family="Times New Roman,serif" font-size="14.00">SKILLBOOK_Quake_Earthquake</text>
</g>
<!-- BOOK_Skill_Earth_Blank&#45;&gt;SKILLBOOK_Quake_Earthquake -->
<g id="edge6" class="edge"><title>BOOK_Skill_Earth_Blank&#45;&gt;SKILLBOOK_Quake_Earthquake</title>
<path fill="none" stroke="black" d="M1095.91,-88.8954C1140.87,-75.0314 1202.43,-56.3008 1214.24,-54 1297.93,-37.6931 1320.44,-44.9649 1405.24,-36 1417.57,-34.6963 1430.48,-33.27 1443.3,-31.8156"/>
<polygon fill="black" stroke="black" points="1444.02,-35.257 1453.56,-30.645 1443.22,-28.3022 1444.02,-35.257"/>
<text text-anchor="middle" x="1242.24" y="-57.8" font-family="Times New Roman,serif" font-size="14.00">Crafting 4</text>
</g>
<!-- SKILLBOOK_Cone_OozeSpray -->
<g id="node36" class="node"><title>SKILLBOOK_Cone_OozeSpray</title>
<ellipse fill="none" stroke="black" cx="442.237" cy="-18" rx="131.877" ry="18"/>
<text text-anchor="middle" x="442.237" y="-14.3" font-family="Times New Roman,serif" font-size="14.00">SKILLBOOK_Cone_OozeSpray</text>
</g>
<!-- BOOK_Skill_Earth_Blank&#45;&gt;SKILLBOOK_Cone_OozeSpray -->
<g id="edge5" class="edge"><title>BOOK_Skill_Earth_Blank&#45;&gt;SKILLBOOK_Cone_OozeSpray</title>
<path fill="none" stroke="black" d="M971.209,-92.3294C958.219,-90.4591 944.849,-88.6113 932.237,-87 858.187,-77.5397 838.85,-81.4152 765.237,-69 736.002,-64.0693 729.402,-59.3317 700.237,-54 671.076,-48.669 604.071,-39.6131 545.655,-32.0485"/>
<polygon fill="black" stroke="black" points="545.977,-28.5612 535.611,-30.7517 545.081,-35.5036 545.977,-28.5612"/>
<text text-anchor="middle" x="793.237" y="-57.8" font-family="Times New Roman,serif" font-size="14.00">Crafting 4</text>
</g>
<!-- SKILLBOOK_Shield_Earth -->
<g id="node37" class="node"><title>SKILLBOOK_Shield_Earth</title>
<ellipse fill="none" stroke="black" cx="705.237" cy="-18" rx="113.18" ry="18"/>
<text text-anchor="middle" x="705.237" y="-14.3" font-family="Times New Roman,serif" font-size="14.00">SKILLBOOK_Shield_Earth</text>
</g>
<!-- BOOK_Skill_Earth_Blank&#45;&gt;SKILLBOOK_Shield_Earth -->
<g id="edge8" class="edge"><title>BOOK_Skill_Earth_Blank&#45;&gt;SKILLBOOK_Shield_Earth</title>
<path fill="none" stroke="black" d="M996.272,-89.1335C975.975,-83.0798 952.442,-75.8942 931.237,-69 911.988,-62.7419 907.785,-59.2486 888.237,-54 857.363,-45.7105 823.054,-38.6051 792.563,-33.0051"/>
<polygon fill="black" stroke="black" points="792.842,-29.499 782.379,-31.1641 791.597,-36.3873 792.842,-29.499"/>
<text text-anchor="middle" x="959.237" y="-57.8" font-family="Times New Roman,serif" font-size="14.00">Crafting 4</text>
</g>
<!-- Feather -->
<g id="node7" class="node"><title>Feather</title>
<ellipse fill="none" stroke="black" cx="245.237" cy="-453" rx="37.8943" ry="18"/>
<text text-anchor="middle" x="245.237" y="-449.3" font-family="Times New Roman,serif" font-size="14.00">Feather</text>
</g>
<!-- Feather_A_Quill -->
<g id="node24" class="node"><title>Feather_A_Quill</title>
<ellipse fill="none" stroke="black" cx="312.237" cy="-366" rx="70.6878" ry="18"/>
<text text-anchor="middle" x="312.237" y="-362.3" font-family="Times New Roman,serif" font-size="14.00">Feather_A_Quill</text>
</g>
<!-- Feather&#45;&gt;Feather_A_Quill -->
<g id="edge11" class="edge"><title>Feather&#45;&gt;Feather_A_Quill</title>
<path fill="none" stroke="black" d="M257.839,-436.012C267.662,-423.55 281.477,-406.024 292.726,-391.752"/>
<polygon fill="black" stroke="black" points="295.562,-393.809 299.004,-383.789 290.064,-389.475 295.562,-393.809"/>
<text text-anchor="middle" x="311.237" y="-405.8" font-family="Times New Roman,serif" font-size="14.00">Crafting 0</text>
</g>
<!-- Knife -->
<g id="node8" class="node"><title>Knife</title>
<ellipse fill="none" stroke="black" cx="110.237" cy="-540" rx="30.5947" ry="18"/>
<text text-anchor="middle" x="110.237" y="-536.3" font-family="Times New Roman,serif" font-size="14.00">Knife</text>
</g>
<!-- Knife&#45;&gt;Feather -->
<g id="edge13" class="edge"><title>Knife&#45;&gt;Feather</title>
<path fill="none" stroke="black" d="M118.262,-522.552C124.322,-511.67 133.582,-497.83 145.237,-489 161.517,-476.666 182.489,-468.446 201.019,-463.093"/>
<polygon fill="black" stroke="black" points="201.986,-466.457 210.732,-460.477 200.166,-459.698 201.986,-466.457"/>
<text text-anchor="middle" x="173.237" y="-492.8" font-family="Times New Roman,serif" font-size="14.00">Crafting 0</text>
</g>
<!-- Knife&#45;&gt;Feather_A_Quill -->
<g id="edge12" class="edge"><title>Knife&#45;&gt;Feather_A_Quill</title>
<path fill="none" stroke="black" d="M111.093,-521.656C113.109,-498.986 119.839,-459.315 142.237,-435 158.455,-417.394 214.431,-396.968 257.77,-383.134"/>
<polygon fill="black" stroke="black" points="258.877,-386.454 267.364,-380.112 256.774,-379.778 258.877,-386.454"/>
<text text-anchor="middle" x="170.237" y="-449.3" font-family="Times New Roman,serif" font-size="14.00">Crafting 0</text>
</g>
<!-- Pouch_Dust_Moon -->
<g id="node9" class="node"><title>Pouch_Dust_Moon</title>
<ellipse fill="none" stroke="black" cx="780.237" cy="-366" rx="83.3857" ry="18"/>
<text text-anchor="middle" x="780.237" y="-362.3" font-family="Times New Roman,serif" font-size="14.00">Pouch_Dust_Moon</text>
</g>
<!-- Pouch_Dust_Moon&#45;&gt;Pouch_Dust_Pixie -->
<g id="edge14" class="edge"><title>Pouch_Dust_Moon&#45;&gt;Pouch_Dust_Pixie</title>
<path fill="none" stroke="black" d="M780.237,-347.799C780.237,-336.163 780.237,-320.548 780.237,-307.237"/>
<polygon fill="black" stroke="black" points="783.737,-307.175 780.237,-297.175 776.737,-307.175 783.737,-307.175"/>
<text text-anchor="middle" x="808.237" y="-318.8" font-family="Times New Roman,serif" font-size="14.00">Crafting 0</text>
</g>
<!-- Scroll_Skill_Earth_Blank -->
<g id="node40" class="node"><title>Scroll_Skill_Earth_Blank</title>
<ellipse fill="none" stroke="black" cx="889.237" cy="-192" rx="102.082" ry="18"/>
<text text-anchor="middle" x="889.237" y="-188.3" font-family="Times New Roman,serif" font-size="14.00">Scroll_Skill_Earth_Blank</text>
</g>
<!-- BOOK_Paper_Sheet&#45;&gt;Scroll_Skill_Earth_Blank -->
<g id="edge15" class="edge"><title>BOOK_Paper_Sheet&#45;&gt;Scroll_Skill_Earth_Blank</title>
<path fill="none" stroke="black" d="M1224.25,-265.458C1154.26,-250.321 1036.58,-224.868 960.955,-208.512"/>
<polygon fill="black" stroke="black" points="961.546,-205.058 951.032,-206.365 960.066,-211.9 961.546,-205.058"/>
<text text-anchor="middle" x="1138.24" y="-231.8" font-family="Times New Roman,serif" font-size="14.00">Crafting 1</text>
</g>
<!-- SCROLL_OozeSpray -->
<g id="node12" class="node"><title>SCROLL_OozeSpray</title>
<ellipse fill="none" stroke="black" cx="411.237" cy="-105" rx="92.0841" ry="18"/>
<text text-anchor="middle" x="411.237" y="-101.3" font-family="Times New Roman,serif" font-size="14.00">SCROLL_OozeSpray</text>
</g>
<!-- SCROLL_OozeSpray&#45;&gt;SKILLBOOK_Cone_OozeSpray -->
<g id="edge18" class="edge"><title>SCROLL_OozeSpray&#45;&gt;SKILLBOOK_Cone_OozeSpray</title>
<path fill="none" stroke="black" d="M417.51,-86.799C421.796,-75.0474 427.562,-59.2383 432.448,-45.8421"/>
<polygon fill="black" stroke="black" points="435.835,-46.7694 435.973,-36.1754 429.259,-44.3709 435.835,-46.7694"/>
<text text-anchor="middle" x="457.237" y="-57.8" font-family="Times New Roman,serif" font-size="14.00">Crafting 4</text>
</g>
<!-- Well_A_Snow -->
<g id="node14" class="node"><title>Well_A_Snow</title>
<ellipse fill="none" stroke="black" cx="1110.24" cy="-540" rx="64.189" ry="18"/>
<text text-anchor="middle" x="1110.24" y="-536.3" font-family="Times New Roman,serif" font-size="14.00">Well_A_Snow</text>
</g>
<!-- Well_A_Snow&#45;&gt;Scraps_Wood_A_Mush -->
<g id="edge16" class="edge"><title>Well_A_Snow&#45;&gt;Scraps_Wood_A_Mush</title>
<path fill="none" stroke="black" d="M1113.32,-521.937C1118.13,-499.577 1129.35,-460.248 1152.24,-435 1172.18,-412.995 1200.93,-396.928 1226.32,-385.955"/>
<polygon fill="black" stroke="black" points="1227.97,-389.061 1235.86,-381.997 1225.28,-382.596 1227.97,-389.061"/>
<text text-anchor="middle" x="1180.24" y="-449.3" font-family="Times New Roman,serif" font-size="14.00">Crafting 0</text>
</g>
<!-- Well_A_Snow&#45;&gt;Bucket_A_Water -->
<g id="edge17" class="edge"><title>Well_A_Snow&#45;&gt;Bucket_A_Water</title>
<path fill="none" stroke="black" d="M1130.02,-522.698C1144.48,-511.593 1165.01,-497.43 1185.24,-489 1190.3,-486.889 1244.4,-475.958 1290.41,-466.867"/>
<polygon fill="black" stroke="black" points="1291.25,-470.268 1300.38,-464.899 1289.89,-463.401 1291.25,-470.268"/>
<text text-anchor="middle" x="1213.24" y="-492.8" font-family="Times New Roman,serif" font-size="14.00">Crafting 0</text>
</g>
<!-- SCROLL_EarthShield -->
<g id="node15" class="node"><title>SCROLL_EarthShield</title>
<ellipse fill="none" stroke="black" cx="614.237" cy="-105" rx="92.8835" ry="18"/>
<text text-anchor="middle" x="614.237" y="-101.3" font-family="Times New Roman,serif" font-size="14.00">SCROLL_EarthShield</text>
</g>
<!-- SCROLL_EarthShield&#45;&gt;SKILLBOOK_Shield_Earth -->
<g id="edge21" class="edge"><title>SCROLL_EarthShield&#45;&gt;SKILLBOOK_Shield_Earth</title>
<path fill="none" stroke="black" d="M621.819,-86.7569C627.019,-76.3572 634.697,-63.3562 644.237,-54 649.215,-49.1178 655.008,-44.672 661.005,-40.7109"/>
<polygon fill="black" stroke="black" points="663.181,-43.4812 669.864,-35.26 659.513,-37.5192 663.181,-43.4812"/>
<text text-anchor="middle" x="672.237" y="-57.8" font-family="Times New Roman,serif" font-size="14.00">Crafting 4</text>
</g>
<!-- Ink_Pot_A_Quill_A_Magic -->
<g id="node16" class="node"><title>Ink_Pot_A_Quill_A_Magic</title>
<ellipse fill="none" stroke="black" cx="615.237" cy="-192" rx="111.581" ry="18"/>
<text text-anchor="middle" x="615.237" y="-188.3" font-family="Times New Roman,serif" font-size="14.00">Ink_Pot_A_Quill_A_Magic</text>
</g>
<!-- Ink_Pot_A_Quill_A_Magic&#45;&gt;SCROLL_OozeSpray -->
<g id="edge23" class="edge"><title>Ink_Pot_A_Quill_A_Magic&#45;&gt;SCROLL_OozeSpray</title>
<path fill="none" stroke="black" d="M512.652,-184.761C470.294,-179.906 427.895,-171.287 414.237,-156 408.778,-149.89 406.931,-141.505 406.777,-133.346"/>
<polygon fill="black" stroke="black" points="410.273,-133.504 407.342,-123.323 403.284,-133.11 410.273,-133.504"/>
<text text-anchor="middle" x="442.237" y="-144.8" font-family="Times New Roman,serif" font-size="14.00">Crafting 5</text>
</g>
<!-- Ink_Pot_A_Quill_A_Magic&#45;&gt;SCROLL_EarthShield -->
<g id="edge25" class="edge"><title>Ink_Pot_A_Quill_A_Magic&#45;&gt;SCROLL_EarthShield</title>
<path fill="none" stroke="black" d="M589.041,-174.5C583.075,-169.361 577.529,-163.139 574.237,-156 569.943,-146.688 573.937,-137.594 580.805,-129.771"/>
<polygon fill="black" stroke="black" points="583.666,-131.874 588.429,-122.41 578.804,-126.837 583.666,-131.874"/>
<text text-anchor="middle" x="602.237" y="-144.8" font-family="Times New Roman,serif" font-size="14.00">Crafting 5</text>
</g>
<!-- SCROLL_PoisonDart -->
<g id="node23" class="node"><title>SCROLL_PoisonDart</title>
<ellipse fill="none" stroke="black" cx="208.237" cy="-105" rx="92.0841" ry="18"/>
<text text-anchor="middle" x="208.237" y="-101.3" font-family="Times New Roman,serif" font-size="14.00">SCROLL_PoisonDart</text>
</g>
<!-- Ink_Pot_A_Quill_A_Magic&#45;&gt;SCROLL_PoisonDart -->
<g id="edge22" class="edge"><title>Ink_Pot_A_Quill_A_Magic&#45;&gt;SCROLL_PoisonDart</title>
<path fill="none" stroke="black" d="M517.304,-183.198C466.402,-177.879 403.456,-169.319 348.237,-156 316.283,-148.293 281.473,-135.879 254.557,-125.349"/>
<polygon fill="black" stroke="black" points="255.603,-121.999 245.017,-121.567 253.023,-128.506 255.603,-121.999"/>
<text text-anchor="middle" x="376.237" y="-144.8" font-family="Times New Roman,serif" font-size="14.00">Crafting 5</text>
</g>
<!-- SCROLL_Earthquake -->
<g id="node28" class="node"><title>SCROLL_Earthquake</title>
<ellipse fill="none" stroke="black" cx="1486.24" cy="-105" rx="91.784" ry="18"/>
<text text-anchor="middle" x="1486.24" y="-101.3" font-family="Times New Roman,serif" font-size="14.00">SCROLL_Earthquake</text>
</g>
<!-- Ink_Pot_A_Quill_A_Magic&#45;&gt;SCROLL_Earthquake -->
<g id="edge26" class="edge"><title>Ink_Pot_A_Quill_A_Magic&#45;&gt;SCROLL_Earthquake</title>
<path fill="none" stroke="black" d="M703.993,-180.972C728.062,-178.464 754.131,-175.938 778.237,-174 919.341,-162.655 956.13,-176.228 1096.24,-156 1125.15,-151.825 1131.37,-145.506 1160.24,-141 1259.79,-125.459 1286.25,-135.456 1386.24,-123 1394.53,-121.967 1403.18,-120.734 1411.77,-119.409"/>
<polygon fill="black" stroke="black" points="1412.48,-122.84 1421.81,-117.818 1411.38,-115.927 1412.48,-122.84"/>
<text text-anchor="middle" x="1188.24" y="-144.8" font-family="Times New Roman,serif" font-size="14.00">Crafting 5</text>
</g>
<!-- SCROLL_BoulderDash -->
<g id="node30" class="node"><title>SCROLL_BoulderDash</title>
<ellipse fill="none" stroke="black" cx="824.237" cy="-105" rx="98.5829" ry="18"/>
<text text-anchor="middle" x="824.237" y="-101.3" font-family="Times New Roman,serif" font-size="14.00">SCROLL_BoulderDash</text>
</g>
<!-- Ink_Pot_A_Quill_A_Magic&#45;&gt;SCROLL_BoulderDash -->
<g id="edge27" class="edge"><title>Ink_Pot_A_Quill_A_Magic&#45;&gt;SCROLL_BoulderDash</title>
<path fill="none" stroke="black" d="M662.965,-175.548C678.066,-170.049 694.622,-163.372 709.237,-156 720.133,-150.504 721.36,-146.535 732.237,-141 744.01,-135.009 757.061,-129.445 769.544,-124.597"/>
<polygon fill="black" stroke="black" points="770.839,-127.849 778.95,-121.033 768.358,-121.303 770.839,-127.849"/>
<text text-anchor="middle" x="760.237" y="-144.8" font-family="Times New Roman,serif" font-size="14.00">Crafting 5</text>
</g>
<!-- SCROLL_EarthSummon -->
<g id="node38" class="node"><title>SCROLL_EarthSummon</title>
<ellipse fill="none" stroke="black" cx="1274.24" cy="-105" rx="102.882" ry="18"/>
<text text-anchor="middle" x="1274.24" y="-101.3" font-family="Times New Roman,serif" font-size="14.00">SCROLL_EarthSummon</text>
</g>
<!-- Ink_Pot_A_Quill_A_Magic&#45;&gt;SCROLL_EarthSummon -->
<g id="edge24" class="edge"><title>Ink_Pot_A_Quill_A_Magic&#45;&gt;SCROLL_EarthSummon</title>
<path fill="none" stroke="black" d="M706.408,-181.465C799.351,-171.684 930.711,-157.667 936.237,-156 950.13,-151.809 951.307,-145.066 965.237,-141 1050.06,-116.241 1075.52,-133.694 1163.24,-123 1172.43,-121.879 1182.03,-120.589 1191.58,-119.231"/>
<polygon fill="black" stroke="black" points="1192.09,-122.694 1201.48,-117.796 1191.08,-115.766 1192.09,-122.694"/>
<text text-anchor="middle" x="993.237" y="-144.8" font-family="Times New Roman,serif" font-size="14.00">Crafting 5</text>
</g>
<!-- Skull_Human -->
<g id="node17" class="node"><title>Skull_Human</title>
<ellipse fill="none" stroke="black" cx="491.237" cy="-453" rx="59.5901" ry="18"/>
<text text-anchor="middle" x="491.237" y="-449.3" font-family="Times New Roman,serif" font-size="14.00">Skull_Human</text>
</g>
<!-- Skull_Human&#45;&gt;Pouch_Dust_Bone -->
<g id="edge28" class="edge"><title>Skull_Human&#45;&gt;Pouch_Dust_Bone</title>
<path fill="none" stroke="black" d="M505.328,-435.087C514.385,-424.812 526.757,-411.825 539.237,-402 545.566,-397.017 552.677,-392.252 559.732,-387.929"/>
<polygon fill="black" stroke="black" points="561.742,-390.807 568.573,-382.709 558.183,-384.779 561.742,-390.807"/>
<text text-anchor="middle" x="567.237" y="-405.8" font-family="Times New Roman,serif" font-size="14.00">Crafting 0</text>
</g>
<!-- Pouch_Dust_Pixie&#45;&gt;Ink_Pot_A_Quill_A_Magic -->
<g id="edge29" class="edge"><title>Pouch_Dust_Pixie&#45;&gt;Ink_Pot_A_Quill_A_Magic</title>
<path fill="none" stroke="black" d="M749.588,-262.211C723.182,-248.608 684.858,-228.865 655.893,-213.944"/>
<polygon fill="black" stroke="black" points="657.337,-210.751 646.845,-209.283 654.132,-216.974 657.337,-210.751"/>
<text text-anchor="middle" x="736.237" y="-231.8" font-family="Times New Roman,serif" font-size="14.00">Crafting 1</text>
</g>
<!-- Pouch_Dust_Pixie&#45;&gt;Scroll_Skill_Earth_Blank -->
<g id="edge30" class="edge"><title>Pouch_Dust_Pixie&#45;&gt;Scroll_Skill_Earth_Blank</title>
<path fill="none" stroke="black" d="M801.253,-261.611C817.884,-248.642 841.306,-230.377 859.803,-215.953"/>
<polygon fill="black" stroke="black" points="862.18,-218.538 867.913,-209.629 857.875,-213.018 862.18,-218.538"/>
<text text-anchor="middle" x="870.237" y="-231.8" font-family="Times New Roman,serif" font-size="14.00">Crafting 1</text>
</g>
<!-- Well -->
<g id="node21" class="node"><title>Well</title>
<ellipse fill="none" stroke="black" cx="1226.24" cy="-540" rx="27.0966" ry="18"/>
<text text-anchor="middle" x="1226.24" y="-536.3" font-family="Times New Roman,serif" font-size="14.00">Well</text>
</g>
<!-- Well&#45;&gt;Scraps_Wood_A_Mush -->
<g id="edge32" class="edge"><title>Well&#45;&gt;Scraps_Wood_A_Mush</title>
<path fill="none" stroke="black" d="M1220.22,-522.101C1213.69,-500.934 1205.63,-463.932 1217.24,-435 1224.18,-417.677 1237.88,-402.27 1250.92,-390.519"/>
<polygon fill="black" stroke="black" points="1253.57,-392.856 1258.89,-383.691 1249.01,-387.542 1253.57,-392.856"/>
<text text-anchor="middle" x="1245.24" y="-449.3" font-family="Times New Roman,serif" font-size="14.00">Crafting 0</text>
</g>
<!-- Well&#45;&gt;Bucket_A_Water -->
<g id="edge33" class="edge"><title>Well&#45;&gt;Bucket_A_Water</title>
<path fill="none" stroke="black" d="M1233.27,-522.569C1238.68,-511.695 1247.11,-497.857 1258.24,-489 1268.71,-480.662 1281.34,-474.218 1293.99,-469.271"/>
<polygon fill="black" stroke="black" points="1295.42,-472.473 1303.63,-465.773 1293.03,-465.893 1295.42,-472.473"/>
<text text-anchor="middle" x="1286.24" y="-492.8" font-family="Times New Roman,serif" font-size="14.00">Crafting 0</text>
</g>
<!-- Bucket -->
<g id="node22" class="node"><title>Bucket</title>
<ellipse fill="none" stroke="black" cx="1320.24" cy="-540" rx="36.2938" ry="18"/>
<text text-anchor="middle" x="1320.24" y="-536.3" font-family="Times New Roman,serif" font-size="14.00">Bucket</text>
</g>
<!-- Bucket&#45;&gt;Bucket_A_Water -->
<g id="edge31" class="edge"><title>Bucket&#45;&gt;Bucket_A_Water</title>
<path fill="none" stroke="black" d="M1317.47,-521.668C1316.63,-511.724 1316.88,-499.224 1321.24,-489 1322.9,-485.087 1325.23,-481.378 1327.91,-477.941"/>
<polygon fill="black" stroke="black" points="1330.56,-480.229 1334.63,-470.447 1325.35,-475.556 1330.56,-480.229"/>
<text text-anchor="middle" x="1349.24" y="-492.8" font-family="Times New Roman,serif" font-size="14.00">Crafting 0</text>
</g>
<!-- SCROLL_PoisonDart&#45;&gt;SKILLBOOK_Projectile_PoisonDart -->
<g id="edge45" class="edge"><title>SCROLL_PoisonDart&#45;&gt;SKILLBOOK_Projectile_PoisonDart</title>
<path fill="none" stroke="black" d="M195.69,-86.799C186.782,-74.5865 174.678,-57.9921 164.675,-44.2776"/>
<polygon fill="black" stroke="black" points="167.486,-42.192 158.765,-36.1754 161.83,-46.3172 167.486,-42.192"/>
<text text-anchor="middle" x="209.237" y="-57.8" font-family="Times New Roman,serif" font-size="14.00">Crafting 4</text>
</g>
<!-- Ink_Pot_A_Quill -->
<g id="node39" class="node"><title>Ink_Pot_A_Quill</title>
<ellipse fill="none" stroke="black" cx="312.237" cy="-279" rx="73.387" ry="18"/>
<text text-anchor="middle" x="312.237" y="-275.3" font-family="Times New Roman,serif" font-size="14.00">Ink_Pot_A_Quill</text>
</g>
<!-- Feather_A_Quill&#45;&gt;Ink_Pot_A_Quill -->
<g id="edge34" class="edge"><title>Feather_A_Quill&#45;&gt;Ink_Pot_A_Quill</title>
<path fill="none" stroke="black" d="M312.237,-347.799C312.237,-336.163 312.237,-320.548 312.237,-307.237"/>
<polygon fill="black" stroke="black" points="315.737,-307.175 312.237,-297.175 308.737,-307.175 315.737,-307.175"/>
<text text-anchor="middle" x="340.237" y="-318.8" font-family="Times New Roman,serif" font-size="14.00">Crafting 0</text>
</g>
<!-- Moonstone -->
<g id="node25" class="node"><title>Moonstone</title>
<ellipse fill="none" stroke="black" cx="699.237" cy="-453" rx="51.9908" ry="18"/>
<text text-anchor="middle" x="699.237" y="-449.3" font-family="Times New Roman,serif" font-size="14.00">Moonstone</text>
</g>
<!-- Moonstone&#45;&gt;Pouch_Dust_Moon -->
<g id="edge35" class="edge"><title>Moonstone&#45;&gt;Pouch_Dust_Moon</title>
<path fill="none" stroke="black" d="M689.815,-434.951C685.487,-424.625 682.622,-411.632 689.237,-402 694.714,-394.026 702.28,-387.868 710.73,-383.113"/>
<polygon fill="black" stroke="black" points="712.378,-386.203 719.805,-378.647 709.287,-379.922 712.378,-386.203"/>
<text text-anchor="middle" x="717.237" y="-405.8" font-family="Times New Roman,serif" font-size="14.00">Crafting 0</text>
</g>
<!-- Pouch_Dust_Star&#45;&gt;Pouch_Dust_Pixie -->
<g id="edge36" class="edge"><title>Pouch_Dust_Star&#45;&gt;Pouch_Dust_Pixie</title>
<path fill="none" stroke="black" d="M925.184,-349.607C896.293,-335.733 853.629,-315.245 822.063,-300.086"/>
<polygon fill="black" stroke="black" points="823.18,-296.74 812.65,-295.566 820.149,-303.05 823.18,-296.74"/>
<text text-anchor="middle" x="908.237" y="-318.8" font-family="Times New Roman,serif" font-size="14.00">Crafting 0</text>
</g>
<!-- Axe -->
<g id="node27" class="node"><title>Axe</title>
<ellipse fill="none" stroke="black" cx="1647.24" cy="-540" rx="27" ry="18"/>
<text text-anchor="middle" x="1647.24" y="-536.3" font-family="Times New Roman,serif" font-size="14.00">Axe</text>
</g>
<!-- Axe&#45;&gt;Scraps_Wood -->
<g id="edge37" class="edge"><title>Axe&#45;&gt;Scraps_Wood</title>
<path fill="none" stroke="black" d="M1640.06,-522.263C1635.83,-512.517 1630.33,-500.017 1625.24,-489 1623.92,-486.149 1622.52,-483.179 1621.11,-480.227"/>
<polygon fill="black" stroke="black" points="1624.17,-478.512 1616.67,-471.029 1617.86,-481.556 1624.17,-478.512"/>
<text text-anchor="middle" x="1660.24" y="-492.8" font-family="Times New Roman,serif" font-size="14.00">Crafting 0</text>
</g>
<!-- SCROLL_Earthquake&#45;&gt;SKILLBOOK_Quake_Earthquake -->
<g id="edge38" class="edge"><title>SCROLL_Earthquake&#45;&gt;SKILLBOOK_Quake_Earthquake</title>
<path fill="none" stroke="black" d="M1499.19,-86.799C1508.38,-74.5865 1520.88,-57.9921 1531.2,-44.2776"/>
<polygon fill="black" stroke="black" points="1534.09,-46.2694 1537.3,-36.1754 1528.49,-42.0589 1534.09,-46.2694"/>
<text text-anchor="middle" x="1550.24" y="-57.8" font-family="Times New Roman,serif" font-size="14.00">Crafting 4</text>
</g>
<!-- Barrel -->
<g id="node29" class="node"><title>Barrel</title>
<ellipse fill="none" stroke="black" cx="1429.24" cy="-540" rx="32.4942" ry="18"/>
<text text-anchor="middle" x="1429.24" y="-536.3" font-family="Times New Roman,serif" font-size="14.00">Barrel</text>
</g>
<!-- Barrel&#45;&gt;Scraps_Wood_A_Mush -->
<g id="edge39" class="edge"><title>Barrel&#45;&gt;Scraps_Wood_A_Mush</title>
<path fill="none" stroke="black" d="M1444.34,-523.941C1449.1,-518.193 1453.76,-511.264 1456.24,-504 1464.02,-481.178 1443.93,-440.953 1439.24,-435 1418.91,-409.217 1386.86,-393.022 1357.01,-382.941"/>
<polygon fill="black" stroke="black" points="1358,-379.584 1347.41,-379.879 1355.88,-386.253 1358,-379.584"/>
<text text-anchor="middle" x="1483.24" y="-449.3" font-family="Times New Roman,serif" font-size="14.00">Crafting 0</text>
</g>
<!-- Barrel&#45;&gt;Bucket_A_Water -->
<g id="edge40" class="edge"><title>Barrel&#45;&gt;Bucket_A_Water</title>
<path fill="none" stroke="black" d="M1415.85,-523.41C1405.08,-510.874 1389.76,-493.031 1377.34,-478.576"/>
<polygon fill="black" stroke="black" points="1379.96,-476.255 1370.79,-470.949 1374.65,-480.816 1379.96,-476.255"/>
<text text-anchor="middle" x="1425.24" y="-492.8" font-family="Times New Roman,serif" font-size="14.00">Crafting 0</text>
</g>
<!-- SCROLL_BoulderDash&#45;&gt;SKILLBOOK_Boulder_BoulderDash -->
<g id="edge41" class="edge"><title>SCROLL_BoulderDash&#45;&gt;SKILLBOOK_Boulder_BoulderDash</title>
<path fill="none" stroke="black" d="M822.476,-86.6205C822.379,-75.9025 824.194,-62.6066 832.237,-54 839.887,-45.8137 858.475,-39.2626 880.129,-34.145"/>
<polygon fill="black" stroke="black" points="880.918,-37.5552 889.919,-31.9665 879.397,-30.7224 880.918,-37.5552"/>
<text text-anchor="middle" x="860.237" y="-57.8" font-family="Times New Roman,serif" font-size="14.00">Crafting 4</text>
</g>
<!-- Pillow -->
<g id="node31" class="node"><title>Pillow</title>
<ellipse fill="none" stroke="black" cx="207.237" cy="-540" rx="33.2948" ry="18"/>
<text text-anchor="middle" x="207.237" y="-536.3" font-family="Times New Roman,serif" font-size="14.00">Pillow</text>
</g>
<!-- Pillow&#45;&gt;Feather -->
<g id="edge19" class="edge"><title>Pillow&#45;&gt;Feather</title>
<path fill="none" stroke="black" d="M204.364,-521.622C203.49,-511.663 203.74,-499.163 208.237,-489 210.417,-484.073 213.656,-479.508 217.326,-475.412"/>
<polygon fill="black" stroke="black" points="220.053,-477.64 224.749,-468.143 215.156,-472.639 220.053,-477.64"/>
<text text-anchor="middle" x="236.237" y="-492.8" font-family="Times New Roman,serif" font-size="14.00">Crafting 0</text>
</g>
<!-- Bone -->
<g id="node32" class="node"><title>Bone</title>
<ellipse fill="none" stroke="black" cx="599.237" cy="-453" rx="29.795" ry="18"/>
<text text-anchor="middle" x="599.237" y="-449.3" font-family="Times New Roman,serif" font-size="14.00">Bone</text>
</g>
<!-- Bone&#45;&gt;Pouch_Dust_Bone -->
<g id="edge42" class="edge"><title>Bone&#45;&gt;Pouch_Dust_Bone</title>
<path fill="none" stroke="black" d="M599.237,-434.799C599.237,-423.163 599.237,-407.548 599.237,-394.237"/>
<polygon fill="black" stroke="black" points="602.737,-394.175 599.237,-384.175 595.737,-394.175 602.737,-394.175"/>
<text text-anchor="middle" x="627.237" y="-405.8" font-family="Times New Roman,serif" font-size="14.00">Crafting 0</text>
</g>
<!-- Ink_Pot -->
<g id="node33" class="node"><title>Ink_Pot</title>
<ellipse fill="none" stroke="black" cx="183.237" cy="-366" rx="40.0939" ry="18"/>
<text text-anchor="middle" x="183.237" y="-362.3" font-family="Times New Roman,serif" font-size="14.00">Ink_Pot</text>
</g>
<!-- Ink_Pot&#45;&gt;Ink_Pot_A_Quill -->
<g id="edge43" class="edge"><title>Ink_Pot&#45;&gt;Ink_Pot_A_Quill</title>
<path fill="none" stroke="black" d="M202.801,-350.028C216.419,-339.805 235.133,-326.147 252.237,-315 259.571,-310.22 267.571,-305.337 275.268,-300.793"/>
<polygon fill="black" stroke="black" points="277.231,-303.7 284.108,-295.641 273.706,-297.653 277.231,-303.7"/>
<text text-anchor="middle" x="280.237" y="-318.8" font-family="Times New Roman,serif" font-size="14.00">Crafting 0</text>
</g>
<!-- Scraps_Wood&#45;&gt;Scraps_Wood_A_Mush -->
<g id="edge44" class="edge"><title>Scraps_Wood&#45;&gt;Scraps_Wood_A_Mush</title>
<path fill="none" stroke="black" d="M1576.77,-437.15C1552.09,-426.035 1516.61,-411.218 1484.24,-402 1472.44,-398.642 1414.81,-388.756 1364.1,-380.344"/>
<polygon fill="black" stroke="black" points="1364.51,-376.864 1354.07,-378.684 1363.37,-383.77 1364.51,-376.864"/>
<text text-anchor="middle" x="1554.24" y="-405.8" font-family="Times New Roman,serif" font-size="14.00">Crafting 0</text>
</g>
<!-- Dagger -->
<g id="node35" class="node"><title>Dagger</title>
<ellipse fill="none" stroke="black" cx="326.237" cy="-540" rx="36.2938" ry="18"/>
<text text-anchor="middle" x="326.237" y="-536.3" font-family="Times New Roman,serif" font-size="14.00">Dagger</text>
</g>
<!-- Dagger&#45;&gt;Feather -->
<g id="edge47" class="edge"><title>Dagger&#45;&gt;Feather</title>
<path fill="none" stroke="black" d="M308.667,-524.17C301.783,-518.121 293.943,-510.93 287.237,-504 279.432,-495.935 271.382,-486.63 264.445,-478.251"/>
<polygon fill="black" stroke="black" points="266.96,-475.797 257.928,-470.26 261.536,-480.221 266.96,-475.797"/>
<text text-anchor="middle" x="315.237" y="-492.8" font-family="Times New Roman,serif" font-size="14.00">Crafting 0</text>
</g>
<!-- Dagger&#45;&gt;Feather_A_Quill -->
<g id="edge46" class="edge"><title>Dagger&#45;&gt;Feather_A_Quill</title>
<path fill="none" stroke="black" d="M336.155,-522.48C339.029,-516.822 341.783,-510.32 343.237,-504 353.399,-459.82 359.31,-444.388 343.237,-402 341.821,-398.264 339.803,-394.671 337.467,-391.304"/>
<polygon fill="black" stroke="black" points="340.155,-389.061 331.169,-383.448 334.693,-393.439 340.155,-389.061"/>
<text text-anchor="middle" x="381.237" y="-449.3" font-family="Times New Roman,serif" font-size="14.00">Crafting 0</text>
</g>
<!-- SCROLL_EarthSummon&#45;&gt;SKILLBOOK_Summon_Earth -->
<g id="edge48" class="edge"><title>SCROLL_EarthSummon&#45;&gt;SKILLBOOK_Summon_Earth</title>
<path fill="none" stroke="black" d="M1274.03,-86.799C1273.9,-75.1626 1273.71,-59.5479 1273.56,-46.2368"/>
<polygon fill="black" stroke="black" points="1277.06,-46.1335 1273.44,-36.1754 1270.06,-46.216 1277.06,-46.1335"/>
<text text-anchor="middle" x="1302.24" y="-57.8" font-family="Times New Roman,serif" font-size="14.00">Crafting 4</text>
</g>
<!-- Ink_Pot_A_Quill&#45;&gt;Ink_Pot_A_Quill_A_Magic -->
<g id="edge49" class="edge"><title>Ink_Pot_A_Quill&#45;&gt;Ink_Pot_A_Quill_A_Magic</title>
<path fill="none" stroke="black" d="M358.586,-264.998C410.458,-250.446 494.783,-226.791 552.522,-210.593"/>
<polygon fill="black" stroke="black" points="553.581,-213.931 562.264,-207.86 551.69,-207.192 553.581,-213.931"/>
<text text-anchor="middle" x="510.237" y="-231.8" font-family="Times New Roman,serif" font-size="14.00">Crafting 1</text>
</g>
<!-- Scroll_Skill_Earth_Blank&#45;&gt;BOOK_Skill_Earth_Blank -->
<g id="edge54" class="edge"><title>Scroll_Skill_Earth_Blank&#45;&gt;BOOK_Skill_Earth_Blank</title>
<path fill="none" stroke="black" d="M973.677,-181.723C992.22,-176.471 1010.65,-168.389 1025.24,-156 1032.3,-149.999 1037.18,-141.291 1040.51,-132.818"/>
<polygon fill="black" stroke="black" points="1043.89,-133.75 1043.75,-123.156 1037.25,-131.526 1043.89,-133.75"/>
<text text-anchor="middle" x="1064.24" y="-144.8" font-family="Times New Roman,serif" font-size="14.00">Crafting 5</text>
</g>
<!-- Scroll_Skill_Earth_Blank&#45;&gt;SCROLL_OozeSpray -->
<g id="edge51" class="edge"><title>Scroll_Skill_Earth_Blank&#45;&gt;SCROLL_OozeSpray</title>
<path fill="none" stroke="black" d="M807.33,-181.179C743.645,-173.187 663.74,-162.244 649.237,-156 639.355,-151.745 640.105,-145.287 630.237,-141 581.579,-119.861 564.618,-131.403 512.237,-123 504.436,-121.749 496.3,-120.419 488.181,-119.077"/>
<polygon fill="black" stroke="black" points="488.747,-115.623 478.309,-117.438 487.6,-122.529 488.747,-115.623"/>
<text text-anchor="middle" x="677.237" y="-144.8" font-family="Times New Roman,serif" font-size="14.00">Crafting 5</text>
</g>
<!-- Scroll_Skill_Earth_Blank&#45;&gt;SCROLL_EarthShield -->
<g id="edge53" class="edge"><title>Scroll_Skill_Earth_Blank&#45;&gt;SCROLL_EarthShield</title>
<path fill="none" stroke="black" d="M846.894,-175.44C833.821,-169.979 819.614,-163.35 807.237,-156 797.986,-150.507 798.001,-145.518 788.237,-141 778.962,-136.708 732.571,-127.465 690.024,-119.555"/>
<polygon fill="black" stroke="black" points="690.64,-116.11 680.17,-117.734 689.368,-122.993 690.64,-116.11"/>
<text text-anchor="middle" x="835.237" y="-144.8" font-family="Times New Roman,serif" font-size="14.00">Crafting 5</text>
</g>
<!-- Scroll_Skill_Earth_Blank&#45;&gt;SCROLL_PoisonDart -->
<g id="edge55" class="edge"><title>Scroll_Skill_Earth_Blank&#45;&gt;SCROLL_PoisonDart</title>
<path fill="none" stroke="black" d="M806.704,-181.369C783.89,-178.832 759.116,-176.194 736.237,-174 637.258,-164.509 610.525,-176.542 513.237,-156 493.433,-151.818 489.973,-145.493 470.237,-141 400.462,-125.116 381.111,-132.886 310.237,-123 301.93,-121.841 293.258,-120.539 284.631,-119.185"/>
<polygon fill="black" stroke="black" points="284.975,-115.696 274.549,-117.577 283.872,-122.608 284.975,-115.696"/>
<text text-anchor="middle" x="541.237" y="-144.8" font-family="Times New Roman,serif" font-size="14.00">Crafting 5</text>
</g>
<!-- Scroll_Skill_Earth_Blank&#45;&gt;SCROLL_Earthquake -->
<g id="edge50" class="edge"><title>Scroll_Skill_Earth_Blank&#45;&gt;SCROLL_Earthquake</title>
<path fill="none" stroke="black" d="M988.353,-187.63C1072.42,-183.574 1195.95,-174.786 1302.24,-156 1346.19,-148.232 1394.88,-134.778 1431.13,-123.781"/>
<polygon fill="black" stroke="black" points="1432.47,-127.03 1441.01,-120.752 1430.42,-120.337 1432.47,-127.03"/>
<text text-anchor="middle" x="1397.24" y="-144.8" font-family="Times New Roman,serif" font-size="14.00">Crafting 5</text>
</g>
<!-- Scroll_Skill_Earth_Blank&#45;&gt;SCROLL_BoulderDash -->
<g id="edge56" class="edge"><title>Scroll_Skill_Earth_Blank&#45;&gt;SCROLL_BoulderDash</title>
<path fill="none" stroke="black" d="M883.925,-173.713C880.265,-163.547 874.709,-150.807 867.237,-141 864.109,-136.894 860.404,-132.973 856.502,-129.338"/>
<polygon fill="black" stroke="black" points="858.71,-126.62 848.855,-122.731 854.133,-131.917 858.71,-126.62"/>
<text text-anchor="middle" x="904.237" y="-144.8" font-family="Times New Roman,serif" font-size="14.00">Crafting 5</text>
</g>
<!-- Scroll_Skill_Earth_Blank&#45;&gt;SCROLL_EarthSummon -->
<g id="edge52" class="edge"><title>Scroll_Skill_Earth_Blank&#45;&gt;SCROLL_EarthSummon</title>
<path fill="none" stroke="black" d="M988.127,-187.394C1070.34,-183.148 1180.12,-174.214 1220.24,-156 1233.09,-150.166 1244.9,-140.056 1254.18,-130.447"/>
<polygon fill="black" stroke="black" points="1256.89,-132.68 1261.06,-122.94 1251.72,-127.954 1256.89,-132.68"/>
<text text-anchor="middle" x="1270.24" y="-144.8" font-family="Times New Roman,serif" font-size="14.00">Crafting 5</text>
</g>
<!-- Oven -->
<g id="node41" class="node"><title>Oven</title>
<ellipse fill="none" stroke="black" cx="1431.24" cy="-366" rx="30.5947" ry="18"/>
<text text-anchor="middle" x="1431.24" y="-362.3" font-family="Times New Roman,serif" font-size="14.00">Oven</text>
</g>
<!-- Oven&#45;&gt;BOOK_Paper_Sheet -->
<g id="edge57" class="edge"><title>Oven&#45;&gt;BOOK_Paper_Sheet</title>
<path fill="none" stroke="black" d="M1409.89,-352.822C1386.29,-339.359 1347.85,-317.428 1319.3,-301.146"/>
<polygon fill="black" stroke="black" points="1320.84,-297.991 1310.42,-296.076 1317.37,-304.071 1320.84,-297.991"/>
<text text-anchor="middle" x="1394.24" y="-318.8" font-family="Times New Roman,serif" font-size="14.00">Crafting 0</text>
</g>
<!-- MortarPestle -->
<g id="node42" class="node"><title>MortarPestle</title>
<ellipse fill="none" stroke="black" cx="846.237" cy="-453" rx="57.3905" ry="18"/>
<text text-anchor="middle" x="846.237" y="-449.3" font-family="Times New Roman,serif" font-size="14.00">MortarPestle</text>
</g>
<!-- MortarPestle&#45;&gt;Pouch_Dust_Bone -->
<g id="edge58" class="edge"><title>MortarPestle&#45;&gt;Pouch_Dust_Bone</title>
<path fill="none" stroke="black" d="M810.118,-438.99C795.451,-433.098 778.611,-425.535 764.237,-417 754.986,-411.507 754.916,-406.697 745.237,-402 731.271,-395.223 698.696,-387.176 667.851,-380.507"/>
<polygon fill="black" stroke="black" points="668.432,-377.052 657.923,-378.394 666.975,-383.899 668.432,-377.052"/>
<text text-anchor="middle" x="792.237" y="-405.8" font-family="Times New Roman,serif" font-size="14.00">Crafting 0</text>
</g>
<!-- MortarPestle&#45;&gt;Pouch_Dust_Moon -->
<g id="edge60" class="edge"><title>MortarPestle&#45;&gt;Pouch_Dust_Moon</title>
<path fill="none" stroke="black" d="M840.965,-434.682C837.319,-424.506 831.764,-411.765 824.237,-402 820.885,-397.651 816.882,-393.524 812.676,-389.731"/>
<polygon fill="black" stroke="black" points="814.895,-387.024 804.981,-383.287 810.401,-392.391 814.895,-387.024"/>
<text text-anchor="middle" x="861.237" y="-405.8" font-family="Times New Roman,serif" font-size="14.00">Crafting 0</text>
</g>
<!-- MortarPestle&#45;&gt;Pouch_Dust_Star -->
<g id="edge59" class="edge"><title>MortarPestle&#45;&gt;Pouch_Dust_Star</title>
<path fill="none" stroke="black" d="M867.841,-436.074C875.849,-430.128 884.986,-423.294 893.237,-417 904.851,-408.141 917.545,-398.264 928.544,-389.644"/>
<polygon fill="black" stroke="black" points="930.875,-392.264 936.578,-383.335 926.552,-386.758 930.875,-392.264"/>
<text text-anchor="middle" x="941.237" y="-405.8" font-family="Times New Roman,serif" font-size="14.00">Crafting 0</text>
</g>
</g>
</svg>
