<?xml version="1.0" encoding="UTF-8" standalone="no"?>
<!DOCTYPE svg PUBLIC "-//W3C//DTD SVG 1.1//EN"
 "http://www.w3.org/Graphics/SVG/1.1/DTD/svg11.dtd">
<!-- Generated by graphviz version 2.38.0 (20140413.2041)
 -->
<!-- Title: G Pages: 1 -->
<svg width="519pt" height="305pt"
 viewBox="0.00 0.00 519.09 305.00" xmlns="http://www.w3.org/2000/svg" xmlns:xlink="http://www.w3.org/1999/xlink">
<g id="graph0" class="graph" transform="scale(1 1) rotate(0) translate(4 301)">
<title>G</title>
<polygon fill="white" stroke="none" points="-4,4 -4,-301 515.087,-301 515.087,4 -4,4"/>
<!-- Leather_H_Torso -->
<g id="node1" class="node"><title>Leather_H_Torso</title>
<ellipse fill="none" stroke="black" cx="76.0433" cy="-18" rx="76.0865" ry="18"/>
<text text-anchor="middle" x="76.0433" y="-14.3" font-family="Times New Roman,serif" font-size="14.00">Leather_H_Torso</text>
</g>
<!-- Dagger -->
<g id="node2" class="node"><title>Dagger</title>
<ellipse fill="none" stroke="black" cx="127.043" cy="-192" rx="36.2938" ry="18"/>
<text text-anchor="middle" x="127.043" y="-188.3" font-family="Times New Roman,serif" font-size="14.00">Dagger</text>
</g>
<!-- Scraps_Leather -->
<g id="node8" class="node"><title>Scraps_Leather</title>
<ellipse fill="none" stroke="black" cx="127.043" cy="-105" rx="67.6881" ry="18"/>
<text text-anchor="middle" x="127.043" y="-101.3" font-family="Times New Roman,serif" font-size="14.00">Scraps_Leather</text>
</g>
<!-- Dagger&#45;&gt;Scraps_Leather -->
<g id="edge1" class="edge"><title>Dagger&#45;&gt;Scraps_Leather</title>
<path fill="none" stroke="black" d="M127.043,-173.799C127.043,-162.163 127.043,-146.548 127.043,-133.237"/>
<polygon fill="black" stroke="black" points="130.543,-133.175 127.043,-123.175 123.543,-133.175 130.543,-133.175"/>
<text text-anchor="middle" x="155.043" y="-144.8" font-family="Times New Roman,serif" font-size="14.00">Crafting 1</text>
</g>
<!-- Needle_Thread -->
<g id="node3" class="node"><title>Needle_Thread</title>
<ellipse fill="none" stroke="black" cx="364.043" cy="-105" rx="66.0889" ry="18"/>
<text text-anchor="middle" x="364.043" y="-101.3" font-family="Times New Roman,serif" font-size="14.00">Needle_Thread</text>
</g>
<!-- Needle_Thread&#45;&gt;Leather_H_Torso -->
<g id="edge2" class="edge"><title>Needle_Thread&#45;&gt;Leather_H_Torso</title>
<path fill="none" stroke="black" d="M305.836,-96.1402C275.57,-90.793 238.442,-82.2242 207.043,-69 195.796,-64.263 195.055,-59.2605 184.043,-54 168.579,-46.6126 151.16,-40.2057 134.898,-34.9655"/>
<polygon fill="black" stroke="black" points="135.539,-31.4989 124.95,-31.8551 133.45,-38.1799 135.539,-31.4989"/>
<text text-anchor="middle" x="235.043" y="-57.8" font-family="Times New Roman,serif" font-size="14.00">Crafting 4</text>
</g>
<!-- Leather_C_Torso -->
<g id="node7" class="node"><title>Leather_C_Torso</title>
<ellipse fill="none" stroke="black" cx="435.043" cy="-18" rx="76.0865" ry="18"/>
<text text-anchor="middle" x="435.043" y="-14.3" font-family="Times New Roman,serif" font-size="14.00">Leather_C_Torso</text>
</g>
<!-- Needle_Thread&#45;&gt;Leather_C_Torso -->
<g id="edge3" class="edge"><title>Needle_Thread&#45;&gt;Leather_C_Torso</title>
<path fill="none" stroke="black" d="M397.217,-89.2807C406.03,-83.9927 414.817,-77.2491 421.043,-69 426.028,-62.3964 429.238,-54.101 431.305,-46.1757"/>
<polygon fill="black" stroke="black" points="434.781,-46.6504 433.417,-36.1438 427.932,-45.208 434.781,-46.6504"/>
<text text-anchor="middle" x="457.043" y="-57.8" font-family="Times New Roman,serif" font-size="14.00">Crafting 3</text>
</g>
<!-- Leather_B_Torso -->
<g id="node9" class="node"><title>Leather_B_Torso</title>
<ellipse fill="none" stroke="black" cx="259.043" cy="-18" rx="75.2868" ry="18"/>
<text text-anchor="middle" x="259.043" y="-14.3" font-family="Times New Roman,serif" font-size="14.00">Leather_B_Torso</text>
</g>
<!-- Needle_Thread&#45;&gt;Leather_B_Torso -->
<g id="edge4" class="edge"><title>Needle_Thread&#45;&gt;Leather_B_Torso</title>
<path fill="none" stroke="black" d="M359.986,-86.8315C356.702,-76.1977 351.098,-62.9163 342.043,-54 334.612,-46.6828 325.42,-40.8028 315.889,-36.1077"/>
<polygon fill="black" stroke="black" points="317.249,-32.8813 306.694,-31.961 314.371,-39.2625 317.249,-32.8813"/>
<text text-anchor="middle" x="381.043" y="-57.8" font-family="Times New Roman,serif" font-size="14.00">Crafting 2</text>
</g>
<!-- Thread -->
<g id="node4" class="node"><title>Thread</title>
<ellipse fill="none" stroke="black" cx="354.043" cy="-192" rx="36.2938" ry="18"/>
<text text-anchor="middle" x="354.043" y="-188.3" font-family="Times New Roman,serif" font-size="14.00">Thread</text>
</g>
<!-- Thread&#45;&gt;Needle_Thread -->
<g id="edge5" class="edge"><title>Thread&#45;&gt;Needle_Thread</title>
<path fill="none" stroke="black" d="M356.067,-173.799C357.436,-162.163 359.273,-146.548 360.839,-133.237"/>
<polygon fill="black" stroke="black" points="364.33,-133.516 362.023,-123.175 357.378,-132.698 364.33,-133.516"/>
<text text-anchor="middle" x="388.043" y="-144.8" font-family="Times New Roman,serif" font-size="14.00">Crafting 0</text>
</g>
<!-- Needle -->
<g id="node5" class="node"><title>Needle</title>
<ellipse fill="none" stroke="black" cx="444.043" cy="-192" rx="35.9954" ry="18"/>
<text text-anchor="middle" x="444.043" y="-188.3" font-family="Times New Roman,serif" font-size="14.00">Needle</text>
</g>
<!-- Needle&#45;&gt;Needle_Thread -->
<g id="edge6" class="edge"><title>Needle&#45;&gt;Needle_Thread</title>
<path fill="none" stroke="black" d="M438.57,-173.839C434.634,-163.47 428.518,-150.472 420.043,-141 415.318,-135.718 409.61,-130.947 403.669,-126.747"/>
<polygon fill="black" stroke="black" points="405.172,-123.548 394.885,-121.01 401.344,-129.409 405.172,-123.548"/>
<text text-anchor="middle" x="459.043" y="-144.8" font-family="Times New Roman,serif" font-size="14.00">Crafting 0</text>
</g>
<!-- Hair -->
<g id="node6" class="node"><title>Hair</title>
<ellipse fill="none" stroke="black" cx="354.043" cy="-279" rx="27" ry="18"/>
<text text-anchor="middle" x="354.043" y="-275.3" font-family="Times New Roman,serif" font-size="14.00">Hair</text>
</g>
<!-- Hair&#45;&gt;Thread -->
<g id="edge7" class="edge"><title>Hair&#45;&gt;Thread</title>
<path fill="none" stroke="black" d="M354.043,-260.799C354.043,-249.163 354.043,-233.548 354.043,-220.237"/>
<polygon fill="black" stroke="black" points="357.543,-220.175 354.043,-210.175 350.543,-220.175 357.543,-220.175"/>
<text text-anchor="middle" x="382.043" y="-231.8" font-family="Times New Roman,serif" font-size="14.00">Crafting 0</text>
</g>
<!-- Scraps_Leather&#45;&gt;Leather_H_Torso -->
<g id="edge8" class="edge"><title>Scraps_Leather&#45;&gt;Leather_H_Torso</title>
<path fill="none" stroke="black" d="M78.7134,-92.3716C67.0584,-87.1812 55.9797,-79.7153 49.0433,-69 43.8707,-61.0096 46.4324,-51.9398 51.6332,-43.7394"/>
<polygon fill="black" stroke="black" points="54.5556,-45.6775 57.7947,-35.5899 48.9719,-41.4558 54.5556,-45.6775"/>
<text text-anchor="middle" x="77.0433" y="-57.8" font-family="Times New Roman,serif" font-size="14.00">Crafting 4</text>
</g>
<!-- Scraps_Leather&#45;&gt;Leather_C_Torso -->
<g id="edge9" class="edge"><title>Scraps_Leather&#45;&gt;Leather_C_Torso</title>
<path fill="none" stroke="black" d="M183.501,-94.9605C208.707,-89.5588 238.249,-81.287 263.043,-69 272.683,-64.2228 272.34,-58.6467 282.043,-54 297.188,-46.7477 333.214,-38.3659 366.504,-31.6233"/>
<polygon fill="black" stroke="black" points="367.599,-34.974 376.722,-29.5864 366.231,-28.109 367.599,-34.974"/>
<text text-anchor="middle" x="310.043" y="-57.8" font-family="Times New Roman,serif" font-size="14.00">Crafting 3</text>
</g>
<!-- Scraps_Leather&#45;&gt;Leather_B_Torso -->
<g id="edge10" class="edge"><title>Scraps_Leather&#45;&gt;Leather_B_Torso</title>
<path fill="none" stroke="black" d="M122.618,-86.995C120.928,-76.4264 120.866,-63.1562 128.043,-54 135.963,-43.8968 160.913,-36.0495 186.944,-30.3697"/>
<polygon fill="black" stroke="black" points="187.858,-33.7547 196.94,-28.2988 186.438,-26.9002 187.858,-33.7547"/>
<text text-anchor="middle" x="156.043" y="-57.8" font-family="Times New Roman,serif" font-size="14.00">Crafting 2</text>
</g>
<!-- Hide_Animal -->
<g id="node10" class="node"><title>Hide_Animal</title>
<ellipse fill="none" stroke="black" cx="239.043" cy="-192" rx="57.6901" ry="18"/>
<text text-anchor="middle" x="239.043" y="-188.3" font-family="Times New Roman,serif" font-size="14.00">Hide_Animal</text>
</g>
<!-- Hide_Animal&#45;&gt;Scraps_Leather -->
<g id="edge11" class="edge"><title>Hide_Animal&#45;&gt;Scraps_Leather</title>
<path fill="none" stroke="black" d="M223.546,-174.185C213.648,-163.946 200.235,-150.964 187.043,-141 180.196,-135.828 172.52,-130.827 165.004,-126.302"/>
<polygon fill="black" stroke="black" points="166.715,-123.248 156.315,-121.226 163.185,-129.292 166.715,-123.248"/>
<text text-anchor="middle" x="232.043" y="-144.8" font-family="Times New Roman,serif" font-size="14.00">Crafting 1</text>
</g>
<!-- Knife -->
<g id="node11" class="node"><title>Knife</title>
<ellipse fill="none" stroke="black" cx="42.0433" cy="-192" rx="30.5947" ry="18"/>
<text text-anchor="middle" x="42.0433" y="-188.3" font-family="Times New Roman,serif" font-size="14.00">Knife</text>
</g>
<!-- Knife&#45;&gt;Scraps_Leather -->
<g id="edge12" class="edge"><title>Knife&#45;&gt;Scraps_Leather</title>
<path fill="none" stroke="black" d="M47.6046,-174.221C51.7156,-163.742 58.1483,-150.487 67.0433,-141 72.2603,-135.436 78.5619,-130.484 85.0939,-126.183"/>
<polygon fill="black" stroke="black" points="87.3412,-128.912 94.0635,-120.723 83.7016,-122.933 87.3412,-128.912"/>
<text text-anchor="middle" x="95.0433" y="-144.8" font-family="Times New Roman,serif" font-size="14.00">Crafting 1</text>
</g>
</g>
</svg>
