<?xml version="1.0" encoding="UTF-8" standalone="no"?>
<!DOCTYPE svg PUBLIC "-//W3C//DTD SVG 1.1//EN"
 "http://www.w3.org/Graphics/SVG/1.1/DTD/svg11.dtd">
<!-- Generated by graphviz version 2.38.0 (20140413.2041)
 -->
<!-- Title: G Pages: 1 -->
<svg width="518pt" height="149pt"
 viewBox="0.00 0.00 517.89 148.74" xmlns="http://www.w3.org/2000/svg" xmlns:xlink="http://www.w3.org/1999/xlink">
<g id="graph0" class="graph" transform="scale(1 1) rotate(0) translate(4 144.74)">
<title>G</title>
<polygon fill="white" stroke="none" points="-4,4 -4,-144.74 513.887,-144.74 513.887,4 -4,4"/>
<!-- TwoHandedSword
+ Small_Damage -->
<g id="node1" class="node"><title>TwoHandedSword
+ Small_Damage</title>
<ellipse fill="none" stroke="black" cx="297.594" cy="-26.8701" rx="87.8629" ry="26.7407"/>
<text text-anchor="middle" x="297.594" y="-30.6701" font-family="Times New Roman,serif" font-size="14.00">TwoHandedSword</text>
<text text-anchor="middle" x="297.594" y="-15.6701" font-family="Times New Roman,serif" font-size="14.00">+ Small_Damage</text>
</g>
<!-- Stone_A_Whet -->
<g id="node2" class="node"><title>Stone_A_Whet</title>
<ellipse fill="none" stroke="black" cx="67.594" cy="-122.74" rx="67.6881" ry="18"/>
<text text-anchor="middle" x="67.594" y="-119.04" font-family="Times New Roman,serif" font-size="14.00">Stone_A_Whet</text>
</g>
<!-- Stone_A_Whet&#45;&gt;TwoHandedSword
+ Small_Damage -->
<g id="edge4" class="edge"><title>Stone_A_Whet&#45;&gt;TwoHandedSword
+ Small_Damage</title>
<path fill="none" stroke="black" d="M113.378,-109.394C133.671,-103.391 157.644,-95.5636 178.594,-86.7401 191.605,-81.2603 194.01,-78.1403 206.594,-71.7401 217.942,-65.9682 230.172,-59.942 241.871,-54.27"/>
<polygon fill="black" stroke="black" points="243.628,-57.3082 251.112,-49.8088 240.585,-51.0043 243.628,-57.3082"/>
<text text-anchor="middle" x="234.594" y="-75.5401" font-family="Times New Roman,serif" font-size="14.00">Crafting 2</text>
</g>
<!-- TwoHandedSword
+ Medium_Damage -->
<g id="node3" class="node"><title>TwoHandedSword
+ Medium_Damage</title>
<ellipse fill="none" stroke="black" cx="102.594" cy="-26.8701" rx="89.6056" ry="26.7407"/>
<text text-anchor="middle" x="102.594" y="-30.6701" font-family="Times New Roman,serif" font-size="14.00">TwoHandedSword</text>
<text text-anchor="middle" x="102.594" y="-15.6701" font-family="Times New Roman,serif" font-size="14.00">+ Medium_Damage</text>
</g>
<!-- Stone_A_Whet&#45;&gt;TwoHandedSword
+ Medium_Damage -->
<g id="edge3" class="edge"><title>Stone_A_Whet&#45;&gt;TwoHandedSword
+ Medium_Damage</title>
<path fill="none" stroke="black" d="M51.4431,-104.999C44.0594,-95.2524 38.0594,-82.7524 43.594,-71.7401 46.1376,-66.6792 49.5721,-62.0546 53.5123,-57.8672"/>
<polygon fill="black" stroke="black" points="56.154,-60.1888 61.0674,-50.8021 51.3728,-55.0759 56.154,-60.1888"/>
<text text-anchor="middle" x="71.594" y="-75.5401" font-family="Times New Roman,serif" font-size="14.00">Crafting 5</text>
</g>
<!-- WhetStone_Wheel -->
<g id="node4" class="node"><title>WhetStone_Wheel</title>
<ellipse fill="none" stroke="black" cx="430.594" cy="-122.74" rx="79.0865" ry="18"/>
<text text-anchor="middle" x="430.594" y="-119.04" font-family="Times New Roman,serif" font-size="14.00">WhetStone_Wheel</text>
</g>
<!-- WhetStone_Wheel&#45;&gt;TwoHandedSword
+ Small_Damage -->
<g id="edge2" class="edge"><title>WhetStone_Wheel&#45;&gt;TwoHandedSword
+ Small_Damage</title>
<path fill="none" stroke="black" d="M429.28,-104.533C427.62,-93.8837 423.9,-80.5997 415.594,-71.7401 405.452,-60.9226 392.399,-52.7575 378.689,-46.5988"/>
<polygon fill="black" stroke="black" points="379.699,-43.2293 369.12,-42.6477 377.027,-49.6995 379.699,-43.2293"/>
<text text-anchor="middle" x="452.594" y="-75.5401" font-family="Times New Roman,serif" font-size="14.00">Crafting 2</text>
</g>
<!-- WhetStone_Wheel&#45;&gt;TwoHandedSword
+ Medium_Damage -->
<g id="edge1" class="edge"><title>WhetStone_Wheel&#45;&gt;TwoHandedSword
+ Medium_Damage</title>
<path fill="none" stroke="black" d="M394.809,-106.66C382.161,-100.91 368.003,-93.9847 355.594,-86.7401 345.689,-80.9572 345.259,-75.9613 334.594,-71.7401 278.721,-49.625 259.536,-65.4314 200.594,-53.7401 192.53,-52.1406 184.146,-50.2633 175.826,-48.2629"/>
<polygon fill="black" stroke="black" points="176.66,-44.8638 166.113,-45.8673 174.984,-51.6601 176.66,-44.8638"/>
<text text-anchor="middle" x="383.594" y="-75.5401" font-family="Times New Roman,serif" font-size="14.00">Crafting 5</text>
</g>
<!-- TwoHandedSword -->
<g id="node5" class="node"><title>TwoHandedSword</title>
<ellipse fill="none" stroke="black" cx="246.594" cy="-122.74" rx="80.6858" ry="18"/>
<text text-anchor="middle" x="246.594" y="-119.04" font-family="Times New Roman,serif" font-size="14.00">TwoHandedSword</text>
</g>
<!-- TwoHandedSword&#45;&gt;TwoHandedSword
+ Small_Damage -->
<g id="edge6" class="edge"><title>TwoHandedSword&#45;&gt;TwoHandedSword
+ Small_Damage</title>
<path fill="none" stroke="black" d="M255.948,-104.523C262.317,-92.8 270.969,-76.8753 278.737,-62.5778"/>
<polygon fill="black" stroke="black" points="281.983,-63.9356 283.681,-53.4778 275.832,-60.5938 281.983,-63.9356"/>
<text text-anchor="middle" x="302.594" y="-75.5401" font-family="Times New Roman,serif" font-size="14.00">Crafting 2</text>
</g>
<!-- TwoHandedSword&#45;&gt;TwoHandedSword
+ Medium_Damage -->
<g id="edge5" class="edge"><title>TwoHandedSword&#45;&gt;TwoHandedSword
+ Medium_Damage</title>
<path fill="none" stroke="black" d="M175.894,-114.071C156.641,-108.944 137.116,-100.521 122.594,-86.7401 116.122,-80.5987 111.744,-72.2859 108.783,-63.8443"/>
<polygon fill="black" stroke="black" points="112.073,-62.6211 105.917,-53.9976 105.352,-64.5773 112.073,-62.6211"/>
<text text-anchor="middle" x="150.594" y="-75.5401" font-family="Times New Roman,serif" font-size="14.00">Crafting 5</text>
</g>
</g>
</svg>
