<?xml version="1.0" encoding="UTF-8" standalone="no"?>
<!DOCTYPE svg PUBLIC "-//W3C//DTD SVG 1.1//EN"
 "http://www.w3.org/Graphics/SVG/1.1/DTD/svg11.dtd">
<!-- Generated by graphviz version 2.38.0 (20140413.2041)
 -->
<!-- Title: G Pages: 1 -->
<svg width="263pt" height="131pt"
 viewBox="0.00 0.00 263.29 131.00" xmlns="http://www.w3.org/2000/svg" xmlns:xlink="http://www.w3.org/1999/xlink">
<g id="graph0" class="graph" transform="scale(1 1) rotate(0) translate(4 127)">
<title>G</title>
<polygon fill="white" stroke="none" points="-4,4 -4,-127 259.293,-127 259.293,4 -4,4"/>
<!-- Halloween_Pumpkin -->
<g id="node1" class="node"><title>Halloween_Pumpkin</title>
<ellipse fill="none" stroke="black" cx="121.397" cy="-18" rx="85.2851" ry="18"/>
<text text-anchor="middle" x="121.397" y="-14.3" font-family="Times New Roman,serif" font-size="14.00">Halloween_Pumpkin</text>
</g>
<!-- Dagger -->
<g id="node2" class="node"><title>Dagger</title>
<ellipse fill="none" stroke="black" cx="36.3968" cy="-105" rx="36.2938" ry="18"/>
<text text-anchor="middle" x="36.3968" y="-101.3" font-family="Times New Roman,serif" font-size="14.00">Dagger</text>
</g>
<!-- Dagger&#45;&gt;Halloween_Pumpkin -->
<g id="edge1" class="edge"><title>Dagger&#45;&gt;Halloween_Pumpkin</title>
<path fill="none" stroke="black" d="M42.1437,-86.7495C46.2617,-76.3471 52.6346,-63.3457 61.3968,-54 66.2181,-48.8576 71.9659,-44.2388 77.9656,-40.1726"/>
<polygon fill="black" stroke="black" points="80.2334,-42.8825 86.8576,-34.6139 76.5229,-36.9469 80.2334,-42.8825"/>
<text text-anchor="middle" x="89.3968" y="-57.8" font-family="Times New Roman,serif" font-size="14.00">Crafting 0</text>
</g>
<!-- Knife -->
<g id="node3" class="node"><title>Knife</title>
<ellipse fill="none" stroke="black" cx="121.397" cy="-105" rx="30.5947" ry="18"/>
<text text-anchor="middle" x="121.397" y="-101.3" font-family="Times New Roman,serif" font-size="14.00">Knife</text>
</g>
<!-- Knife&#45;&gt;Halloween_Pumpkin -->
<g id="edge2" class="edge"><title>Knife&#45;&gt;Halloween_Pumpkin</title>
<path fill="none" stroke="black" d="M121.397,-86.799C121.397,-75.1626 121.397,-59.5479 121.397,-46.2368"/>
<polygon fill="black" stroke="black" points="124.897,-46.1754 121.397,-36.1754 117.897,-46.1755 124.897,-46.1754"/>
<text text-anchor="middle" x="149.397" y="-57.8" font-family="Times New Roman,serif" font-size="14.00">Crafting 0</text>
</g>
<!-- Pumpkin -->
<g id="node4" class="node"><title>Pumpkin</title>
<ellipse fill="none" stroke="black" cx="212.397" cy="-105" rx="42.7926" ry="18"/>
<text text-anchor="middle" x="212.397" y="-101.3" font-family="Times New Roman,serif" font-size="14.00">Pumpkin</text>
</g>
<!-- Pumpkin&#45;&gt;Halloween_Pumpkin -->
<g id="edge3" class="edge"><title>Pumpkin&#45;&gt;Halloween_Pumpkin</title>
<path fill="none" stroke="black" d="M204.668,-87.2609C199.238,-76.7983 191.204,-63.5465 181.397,-54 176.109,-48.8531 169.922,-44.167 163.567,-40.0156"/>
<polygon fill="black" stroke="black" points="165.222,-36.9254 154.865,-34.6929 161.569,-42.8968 165.222,-36.9254"/>
<text text-anchor="middle" x="222.397" y="-57.8" font-family="Times New Roman,serif" font-size="14.00">Crafting 0</text>
</g>
</g>
</svg>
