<?xml version="1.0" encoding="UTF-8" standalone="no"?>
<!DOCTYPE svg PUBLIC "-//W3C//DTD SVG 1.1//EN"
 "http://www.w3.org/Graphics/SVG/1.1/DTD/svg11.dtd">
<!-- Generated by graphviz version 2.38.0 (20140413.2041)
 -->
<!-- Title: G Pages: 1 -->
<svg width="248pt" height="149pt"
 viewBox="0.00 0.00 248.04 148.74" xmlns="http://www.w3.org/2000/svg" xmlns:xlink="http://www.w3.org/1999/xlink">
<g id="graph0" class="graph" transform="scale(1 1) rotate(0) translate(4 144.74)">
<title>G</title>
<polygon fill="white" stroke="none" points="-4,4 -4,-144.74 244.038,-144.74 244.038,4 -4,4"/>
<!-- Soul_Tormented -->
<g id="node1" class="node"><title>Soul_Tormented</title>
<ellipse fill="none" stroke="black" cx="72.1436" cy="-122.74" rx="72.2875" ry="18"/>
<text text-anchor="middle" x="72.1436" y="-119.04" font-family="Times New Roman,serif" font-size="14.00">Soul_Tormented</text>
</g>
<!-- Bow
+ Small_TormentedSoul -->
<g id="node2" class="node"><title>Bow
+ Small_TormentedSoul</title>
<ellipse fill="none" stroke="black" cx="131.144" cy="-26.8701" rx="108.789" ry="26.7407"/>
<text text-anchor="middle" x="131.144" y="-30.6701" font-family="Times New Roman,serif" font-size="14.00">Bow</text>
<text text-anchor="middle" x="131.144" y="-15.6701" font-family="Times New Roman,serif" font-size="14.00">+ Small_TormentedSoul</text>
</g>
<!-- Soul_Tormented&#45;&gt;Bow
+ Small_TormentedSoul -->
<g id="edge1" class="edge"><title>Soul_Tormented&#45;&gt;Bow
+ Small_TormentedSoul</title>
<path fill="none" stroke="black" d="M82.9651,-104.523C90.4034,-92.6884 100.533,-76.5716 109.585,-62.1698"/>
<polygon fill="black" stroke="black" points="112.69,-63.8069 115.048,-53.4778 106.764,-60.0818 112.69,-63.8069"/>
<text text-anchor="middle" x="132.144" y="-75.5401" font-family="Times New Roman,serif" font-size="14.00">Crafting 5</text>
</g>
<!-- Bow -->
<g id="node3" class="node"><title>Bow</title>
<ellipse fill="none" stroke="black" cx="190.144" cy="-122.74" rx="27.8951" ry="18"/>
<text text-anchor="middle" x="190.144" y="-119.04" font-family="Times New Roman,serif" font-size="14.00">Bow</text>
</g>
<!-- Bow&#45;&gt;Bow
+ Small_TormentedSoul -->
<g id="edge2" class="edge"><title>Bow&#45;&gt;Bow
+ Small_TormentedSoul</title>
<path fill="none" stroke="black" d="M182.376,-105.147C177.523,-95.2271 170.924,-82.5015 164.144,-71.7401 162.032,-68.3887 159.736,-64.9691 157.372,-61.5919"/>
<polygon fill="black" stroke="black" points="160.11,-59.4056 151.419,-53.3472 154.435,-63.5035 160.11,-59.4056"/>
<text text-anchor="middle" x="200.144" y="-75.5401" font-family="Times New Roman,serif" font-size="14.00">Crafting 5</text>
</g>
</g>
</svg>
