<?xml version="1.0" encoding="UTF-8" standalone="no"?>
<!DOCTYPE svg PUBLIC "-//W3C//DTD SVG 1.1//EN"
 "http://www.w3.org/Graphics/SVG/1.1/DTD/svg11.dtd">
<!-- Generated by graphviz version 2.38.0 (20140413.2041)
 -->
<!-- Title: G Pages: 1 -->
<svg width="641pt" height="218pt"
 viewBox="0.00 0.00 640.59 218.00" xmlns="http://www.w3.org/2000/svg" xmlns:xlink="http://www.w3.org/1999/xlink">
<g id="graph0" class="graph" transform="scale(1 1) rotate(0) translate(4 214)">
<title>G</title>
<polygon fill="white" stroke="none" points="-4,4 -4,-214 636.593,-214 636.593,4 -4,4"/>
<!-- Stew_Dwarven -->
<g id="node1" class="node"><title>Stew_Dwarven</title>
<ellipse fill="none" stroke="black" cx="315.046" cy="-18" rx="65.7887" ry="18"/>
<text text-anchor="middle" x="315.046" y="-14.3" font-family="Times New Roman,serif" font-size="14.00">Stew_Dwarven</text>
</g>
<!-- Meat_Raw -->
<g id="node2" class="node"><title>Meat_Raw</title>
<ellipse fill="none" stroke="black" cx="316.046" cy="-192" rx="50.0912" ry="18"/>
<text text-anchor="middle" x="316.046" y="-188.3" font-family="Times New Roman,serif" font-size="14.00">Meat_Raw</text>
</g>
<!-- Dinner -->
<g id="node5" class="node"><title>Dinner</title>
<ellipse fill="none" stroke="black" cx="411.046" cy="-105" rx="34.394" ry="18"/>
<text text-anchor="middle" x="411.046" y="-101.3" font-family="Times New Roman,serif" font-size="14.00">Dinner</text>
</g>
<!-- Meat_Raw&#45;&gt;Dinner -->
<g id="edge1" class="edge"><title>Meat_Raw&#45;&gt;Dinner</title>
<path fill="none" stroke="black" d="M325.483,-173.839C331.771,-163.47 340.755,-150.473 351.046,-141 358.764,-133.894 368.167,-127.576 377.216,-122.33"/>
<polygon fill="black" stroke="black" points="379.002,-125.343 386.073,-117.453 375.625,-119.211 379.002,-125.343"/>
<text text-anchor="middle" x="379.046" y="-144.8" font-family="Times New Roman,serif" font-size="14.00">Crafting 0</text>
</g>
<!-- Fish -->
<g id="node3" class="node"><title>Fish</title>
<ellipse fill="none" stroke="black" cx="411.046" cy="-192" rx="27" ry="18"/>
<text text-anchor="middle" x="411.046" y="-188.3" font-family="Times New Roman,serif" font-size="14.00">Fish</text>
</g>
<!-- Fish&#45;&gt;Dinner -->
<g id="edge2" class="edge"><title>Fish&#45;&gt;Dinner</title>
<path fill="none" stroke="black" d="M411.046,-173.799C411.046,-162.163 411.046,-146.548 411.046,-133.237"/>
<polygon fill="black" stroke="black" points="414.546,-133.175 411.046,-123.175 407.546,-133.175 414.546,-133.175"/>
<text text-anchor="middle" x="439.046" y="-144.8" font-family="Times New Roman,serif" font-size="14.00">Crafting 0</text>
</g>
<!-- Mug_A_Beer -->
<g id="node4" class="node"><title>Mug_A_Beer</title>
<ellipse fill="none" stroke="black" cx="183.046" cy="-105" rx="59.5901" ry="18"/>
<text text-anchor="middle" x="183.046" y="-101.3" font-family="Times New Roman,serif" font-size="14.00">Mug_A_Beer</text>
</g>
<!-- Mug_A_Beer&#45;&gt;Stew_Dwarven -->
<g id="edge3" class="edge"><title>Mug_A_Beer&#45;&gt;Stew_Dwarven</title>
<path fill="none" stroke="black" d="M207.256,-88.4097C228.243,-74.8953 258.807,-55.214 282.034,-40.2575"/>
<polygon fill="black" stroke="black" points="284.028,-43.1361 290.541,-34.7793 280.239,-37.2507 284.028,-43.1361"/>
<text text-anchor="middle" x="285.046" y="-57.8" font-family="Times New Roman,serif" font-size="14.00">Crafting 0</text>
</g>
<!-- Dinner&#45;&gt;Stew_Dwarven -->
<g id="edge4" class="edge"><title>Dinner&#45;&gt;Stew_Dwarven</title>
<path fill="none" stroke="black" d="M394.324,-89.1941C379.735,-76.2774 358.32,-57.3156 341.423,-42.3551"/>
<polygon fill="black" stroke="black" points="343.348,-39.385 333.541,-35.3763 338.708,-44.6259 343.348,-39.385"/>
<text text-anchor="middle" x="397.046" y="-57.8" font-family="Times New Roman,serif" font-size="14.00">Crafting 0</text>
</g>
<!-- BoilingPot -->
<g id="node6" class="node"><title>BoilingPot</title>
<ellipse fill="none" stroke="black" cx="505.046" cy="-192" rx="48.9926" ry="18"/>
<text text-anchor="middle" x="505.046" y="-188.3" font-family="Times New Roman,serif" font-size="14.00">BoilingPot</text>
</g>
<!-- BoilingPot&#45;&gt;Dinner -->
<g id="edge5" class="edge"><title>BoilingPot&#45;&gt;Dinner</title>
<path fill="none" stroke="black" d="M496.247,-174.295C490.163,-163.846 481.33,-150.597 471.046,-141 463.375,-133.842 453.988,-127.507 444.938,-122.262"/>
<polygon fill="black" stroke="black" points="446.525,-119.141 436.076,-117.391 443.153,-125.275 446.525,-119.141"/>
<text text-anchor="middle" x="513.046" y="-144.8" font-family="Times New Roman,serif" font-size="14.00">Crafting 0</text>
</g>
<!-- Oven -->
<g id="node7" class="node"><title>Oven</title>
<ellipse fill="none" stroke="black" cx="602.046" cy="-192" rx="30.5947" ry="18"/>
<text text-anchor="middle" x="602.046" y="-188.3" font-family="Times New Roman,serif" font-size="14.00">Oven</text>
</g>
<!-- Oven&#45;&gt;Dinner -->
<g id="edge6" class="edge"><title>Oven&#45;&gt;Dinner</title>
<path fill="none" stroke="black" d="M588.477,-175.764C577.732,-164.594 561.79,-149.884 545.046,-141 516.7,-125.962 481.493,-117.091 454.281,-112.044"/>
<polygon fill="black" stroke="black" points="454.728,-108.569 444.274,-110.292 453.521,-115.464 454.728,-108.569"/>
<text text-anchor="middle" x="594.046" y="-144.8" font-family="Times New Roman,serif" font-size="14.00">Crafting 0</text>
</g>
<!-- CupEmpty -->
<g id="node8" class="node"><title>CupEmpty</title>
<ellipse fill="none" stroke="black" cx="50.0456" cy="-192" rx="50.0912" ry="18"/>
<text text-anchor="middle" x="50.0456" y="-188.3" font-family="Times New Roman,serif" font-size="14.00">CupEmpty</text>
</g>
<!-- CupEmpty&#45;&gt;Mug_A_Beer -->
<g id="edge7" class="edge"><title>CupEmpty&#45;&gt;Mug_A_Beer</title>
<path fill="none" stroke="black" d="M71.492,-175.706C85.8938,-165.586 105.393,-152.173 123.046,-141 130.819,-136.08 139.288,-130.983 147.347,-126.253"/>
<polygon fill="black" stroke="black" points="149.329,-129.15 156.214,-121.098 145.81,-123.099 149.329,-129.15"/>
<text text-anchor="middle" x="151.046" y="-144.8" font-family="Times New Roman,serif" font-size="14.00">Crafting 0</text>
</g>
<!-- Barrel_A_Beer -->
<g id="node9" class="node"><title>Barrel_A_Beer</title>
<ellipse fill="none" stroke="black" cx="183.046" cy="-192" rx="64.9885" ry="18"/>
<text text-anchor="middle" x="183.046" y="-188.3" font-family="Times New Roman,serif" font-size="14.00">Barrel_A_Beer</text>
</g>
<!-- Barrel_A_Beer&#45;&gt;Mug_A_Beer -->
<g id="edge8" class="edge"><title>Barrel_A_Beer&#45;&gt;Mug_A_Beer</title>
<path fill="none" stroke="black" d="M183.046,-173.799C183.046,-162.163 183.046,-146.548 183.046,-133.237"/>
<polygon fill="black" stroke="black" points="186.546,-133.175 183.046,-123.175 179.546,-133.175 186.546,-133.175"/>
<text text-anchor="middle" x="211.046" y="-144.8" font-family="Times New Roman,serif" font-size="14.00">Crafting 0</text>
</g>
</g>
</svg>
