<?xml version="1.0" encoding="UTF-8" standalone="no"?>
<!DOCTYPE svg PUBLIC "-//W3C//DTD SVG 1.1//EN"
 "http://www.w3.org/Graphics/SVG/1.1/DTD/svg11.dtd">
<!-- Generated by graphviz version 2.38.0 (20140413.2041)
 -->
<!-- Title: G Pages: 1 -->
<svg width="195pt" height="149pt"
 viewBox="0.00 0.00 194.75 148.74" xmlns="http://www.w3.org/2000/svg" xmlns:xlink="http://www.w3.org/1999/xlink">
<g id="graph0" class="graph" transform="scale(1 1) rotate(0) translate(4 144.74)">
<title>G</title>
<polygon fill="white" stroke="none" points="-4,4 -4,-144.74 190.746,-144.74 190.746,4 -4,4"/>
<!-- ArmorBelt -->
<g id="node1" class="node"><title>ArmorBelt</title>
<ellipse fill="none" stroke="black" cx="48.7457" cy="-122.74" rx="48.9926" ry="18"/>
<text text-anchor="middle" x="48.7457" y="-119.04" font-family="Times New Roman,serif" font-size="14.00">ArmorBelt</text>
</g>
<!-- ArmorBelt
+ Small_AllResist -->
<g id="node3" class="node"><title>ArmorBelt
+ Small_AllResist</title>
<ellipse fill="none" stroke="black" cx="96.7457" cy="-26.8701" rx="82.9636" ry="26.7407"/>
<text text-anchor="middle" x="96.7457" y="-30.6701" font-family="Times New Roman,serif" font-size="14.00">ArmorBelt</text>
<text text-anchor="middle" x="96.7457" y="-15.6701" font-family="Times New Roman,serif" font-size="14.00">+ Small_AllResist</text>
</g>
<!-- ArmorBelt&#45;&gt;ArmorBelt
+ Small_AllResist -->
<g id="edge1" class="edge"><title>ArmorBelt&#45;&gt;ArmorBelt
+ Small_AllResist</title>
<path fill="none" stroke="black" d="M54.1796,-104.674C57.5742,-94.818 62.3242,-82.318 67.7457,-71.7401 69.427,-68.4597 71.2994,-65.1227 73.2606,-61.8287"/>
<polygon fill="black" stroke="black" points="76.2709,-63.6159 78.5898,-53.2779 70.3302,-59.9134 76.2709,-63.6159"/>
<text text-anchor="middle" x="95.7457" y="-75.5401" font-family="Times New Roman,serif" font-size="14.00">Crafting 5</text>
</g>
<!-- Ruby -->
<g id="node2" class="node"><title>Ruby</title>
<ellipse fill="none" stroke="black" cx="145.746" cy="-122.74" rx="30.5947" ry="18"/>
<text text-anchor="middle" x="145.746" y="-119.04" font-family="Times New Roman,serif" font-size="14.00">Ruby</text>
</g>
<!-- Ruby&#45;&gt;ArmorBelt
+ Small_AllResist -->
<g id="edge2" class="edge"><title>Ruby&#45;&gt;ArmorBelt
+ Small_AllResist</title>
<path fill="none" stroke="black" d="M138.975,-104.803C134.885,-94.99 129.385,-82.49 123.746,-71.7401 122.118,-68.6366 120.355,-65.4552 118.538,-62.2926"/>
<polygon fill="black" stroke="black" points="121.444,-60.3304 113.337,-53.5093 115.421,-63.8972 121.444,-60.3304"/>
<text text-anchor="middle" x="158.746" y="-75.5401" font-family="Times New Roman,serif" font-size="14.00">Crafting 5</text>
</g>
</g>
</svg>
