<?xml version="1.0" encoding="UTF-8" standalone="no"?>
<!DOCTYPE svg PUBLIC "-//W3C//DTD SVG 1.1//EN"
 "http://www.w3.org/Graphics/SVG/1.1/DTD/svg11.dtd">
<!-- Generated by graphviz version 2.38.0 (20140413.2041)
 -->
<!-- Title: G Pages: 1 -->
<svg width="256pt" height="131pt"
 viewBox="0.00 0.00 256.04 131.00" xmlns="http://www.w3.org/2000/svg" xmlns:xlink="http://www.w3.org/1999/xlink">
<g id="graph0" class="graph" transform="scale(1 1) rotate(0) translate(4 127)">
<title>G</title>
<polygon fill="white" stroke="none" points="-4,4 -4,-127 252.04,-127 252.04,4 -4,4"/>
<!-- Helmet_CrabPincer -->
<g id="node1" class="node"><title>Helmet_CrabPincer</title>
<ellipse fill="none" stroke="black" cx="117.995" cy="-18" rx="81.7856" ry="18"/>
<text text-anchor="middle" x="117.995" y="-14.3" font-family="Times New Roman,serif" font-size="14.00">Helmet_CrabPincer</text>
</g>
<!-- Claw_Crab -->
<g id="node2" class="node"><title>Claw_Crab</title>
<ellipse fill="none" stroke="black" cx="51.9954" cy="-105" rx="51.9908" ry="18"/>
<text text-anchor="middle" x="51.9954" y="-101.3" font-family="Times New Roman,serif" font-size="14.00">Claw_Crab</text>
</g>
<!-- Claw_Crab&#45;&gt;Helmet_CrabPincer -->
<g id="edge1" class="edge"><title>Claw_Crab&#45;&gt;Helmet_CrabPincer</title>
<path fill="none" stroke="black" d="M65.0349,-87.2067C74.5546,-74.9464 87.6243,-58.1143 98.3979,-44.2391"/>
<polygon fill="black" stroke="black" points="101.389,-46.0944 104.757,-36.0493 95.8596,-41.8013 101.389,-46.0944"/>
<text text-anchor="middle" x="116.995" y="-57.8" font-family="Times New Roman,serif" font-size="14.00">Crafting 2</text>
</g>
<!-- LeatherHelmet -->
<g id="node3" class="node"><title>LeatherHelmet</title>
<ellipse fill="none" stroke="black" cx="184.995" cy="-105" rx="63.0888" ry="18"/>
<text text-anchor="middle" x="184.995" y="-101.3" font-family="Times New Roman,serif" font-size="14.00">LeatherHelmet</text>
</g>
<!-- LeatherHelmet&#45;&gt;Helmet_CrabPincer -->
<g id="edge2" class="edge"><title>LeatherHelmet&#45;&gt;Helmet_CrabPincer</title>
<path fill="none" stroke="black" d="M173.408,-87.0203C166.545,-77.1938 157.545,-64.6938 148.995,-54 146.258,-50.5764 143.296,-47.0399 140.327,-43.5903"/>
<polygon fill="black" stroke="black" points="142.711,-41.001 133.484,-35.7934 137.45,-45.6182 142.711,-41.001"/>
<text text-anchor="middle" x="187.995" y="-57.8" font-family="Times New Roman,serif" font-size="14.00">Crafting 2</text>
</g>
</g>
</svg>
