<?xml version="1.0" encoding="UTF-8" standalone="no"?>
<!DOCTYPE svg PUBLIC "-//W3C//DTD SVG 1.1//EN"
 "http://www.w3.org/Graphics/SVG/1.1/DTD/svg11.dtd">
<!-- Generated by graphviz version 2.38.0 (20140413.2041)
 -->
<!-- Title: G Pages: 1 -->
<svg width="2090pt" height="149pt"
 viewBox="0.00 0.00 2089.99 148.74" xmlns="http://www.w3.org/2000/svg" xmlns:xlink="http://www.w3.org/1999/xlink">
<g id="graph0" class="graph" transform="scale(1 1) rotate(0) translate(4 144.74)">
<title>G</title>
<polygon fill="white" stroke="none" points="-4,4 -4,-144.74 2085.99,-144.74 2085.99,4 -4,4"/>
<!-- Quarterstaff_D
+ Large_WaterDamage -->
<g id="node1" class="node"><title>Quarterstaff_D
+ Large_WaterDamage</title>
<ellipse fill="none" stroke="black" cx="103.238" cy="-26.8701" rx="103.476" ry="26.7407"/>
<text text-anchor="middle" x="103.238" y="-30.6701" font-family="Times New Roman,serif" font-size="14.00">Quarterstaff_D</text>
<text text-anchor="middle" x="103.238" y="-15.6701" font-family="Times New Roman,serif" font-size="14.00">+ Large_WaterDamage</text>
</g>
<!-- Quarterstaff_D
+ Large_Luck -->
<g id="node2" class="node"><title>Quarterstaff_D
+ Large_Luck</title>
<ellipse fill="none" stroke="black" cx="296.238" cy="-26.8701" rx="71.3357" ry="26.7407"/>
<text text-anchor="middle" x="296.238" y="-30.6701" font-family="Times New Roman,serif" font-size="14.00">Quarterstaff_D</text>
<text text-anchor="middle" x="296.238" y="-15.6701" font-family="Times New Roman,serif" font-size="14.00">+ Large_Luck</text>
</g>
<!-- Quarterstaff_D
+ Large_EarthDamage -->
<g id="node3" class="node"><title>Quarterstaff_D
+ Large_EarthDamage</title>
<ellipse fill="none" stroke="black" cx="486.238" cy="-26.8701" rx="100.318" ry="26.7407"/>
<text text-anchor="middle" x="486.238" y="-30.6701" font-family="Times New Roman,serif" font-size="14.00">Quarterstaff_D</text>
<text text-anchor="middle" x="486.238" y="-15.6701" font-family="Times New Roman,serif" font-size="14.00">+ Large_EarthDamage</text>
</g>
<!-- Quarterstaff_D
+ Small_ActionPoint -->
<g id="node4" class="node"><title>Quarterstaff_D
+ Small_ActionPoint</title>
<ellipse fill="none" stroke="black" cx="699.238" cy="-26.8701" rx="94.5053" ry="26.7407"/>
<text text-anchor="middle" x="699.238" y="-30.6701" font-family="Times New Roman,serif" font-size="14.00">Quarterstaff_D</text>
<text text-anchor="middle" x="699.238" y="-15.6701" font-family="Times New Roman,serif" font-size="14.00">+ Small_ActionPoint</text>
</g>
<!-- Quarterstaff_B -->
<g id="node5" class="node"><title>Quarterstaff_B</title>
<ellipse fill="none" stroke="black" cx="877.238" cy="-26.8701" rx="64.9885" ry="18"/>
<text text-anchor="middle" x="877.238" y="-23.1701" font-family="Times New Roman,serif" font-size="14.00">Quarterstaff_B</text>
</g>
<!-- Quarterstaff_D
+ Reflexes -->
<g id="node6" class="node"><title>Quarterstaff_D
+ Reflexes</title>
<ellipse fill="none" stroke="black" cx="1031.24" cy="-26.8701" rx="71.3357" ry="26.7407"/>
<text text-anchor="middle" x="1031.24" y="-30.6701" font-family="Times New Roman,serif" font-size="14.00">Quarterstaff_D</text>
<text text-anchor="middle" x="1031.24" y="-15.6701" font-family="Times New Roman,serif" font-size="14.00">+ Reflexes</text>
</g>
<!-- Quarterstaff_D
+ Small_Intelligence -->
<g id="node7" class="node"><title>Quarterstaff_D
+ Small_Intelligence</title>
<ellipse fill="none" stroke="black" cx="1212.24" cy="-26.8701" rx="91.4341" ry="26.7407"/>
<text text-anchor="middle" x="1212.24" y="-30.6701" font-family="Times New Roman,serif" font-size="14.00">Quarterstaff_D</text>
<text text-anchor="middle" x="1212.24" y="-15.6701" font-family="Times New Roman,serif" font-size="14.00">+ Small_Intelligence</text>
</g>
<!-- Quarterstaff_C
+ Large_Luck -->
<g id="node8" class="node"><title>Quarterstaff_C
+ Large_Luck</title>
<ellipse fill="none" stroke="black" cx="1393.24" cy="-26.8701" rx="71.3357" ry="26.7407"/>
<text text-anchor="middle" x="1393.24" y="-30.6701" font-family="Times New Roman,serif" font-size="14.00">Quarterstaff_C</text>
<text text-anchor="middle" x="1393.24" y="-15.6701" font-family="Times New Roman,serif" font-size="14.00">+ Large_Luck</text>
</g>
<!-- Quarterstaff_D
+ Large_AirDamage -->
<g id="node9" class="node"><title>Quarterstaff_D
+ Large_AirDamage</title>
<ellipse fill="none" stroke="black" cx="1574.24" cy="-26.8701" rx="91.8478" ry="26.7407"/>
<text text-anchor="middle" x="1574.24" y="-30.6701" font-family="Times New Roman,serif" font-size="14.00">Quarterstaff_D</text>
<text text-anchor="middle" x="1574.24" y="-15.6701" font-family="Times New Roman,serif" font-size="14.00">+ Large_AirDamage</text>
</g>
<!-- Branch -->
<g id="node10" class="node"><title>Branch</title>
<ellipse fill="none" stroke="black" cx="1031.24" cy="-122.74" rx="36.2938" ry="18"/>
<text text-anchor="middle" x="1031.24" y="-119.04" font-family="Times New Roman,serif" font-size="14.00">Branch</text>
</g>
<!-- Branch&#45;&gt;Quarterstaff_D
+ Large_WaterDamage -->
<g id="edge9" class="edge"><title>Branch&#45;&gt;Quarterstaff_D
+ Large_WaterDamage</title>
<path fill="none" stroke="black" d="M994.771,-121.191C898.259,-119.415 628.275,-112.358 405.238,-86.7401 320.524,-77.0101 299.826,-70.5939 216.238,-53.7401 207.013,-51.8802 197.388,-49.8366 187.818,-47.7386"/>
<polygon fill="black" stroke="black" points="188.403,-44.2834 177.882,-45.5379 186.889,-51.1178 188.403,-44.2834"/>
<text text-anchor="middle" x="433.238" y="-75.5401" font-family="Times New Roman,serif" font-size="14.00">Crafting 5</text>
</g>
<!-- Branch&#45;&gt;Quarterstaff_D
+ Large_Luck -->
<g id="edge1" class="edge"><title>Branch&#45;&gt;Quarterstaff_D
+ Large_Luck</title>
<path fill="none" stroke="black" d="M994.956,-120.95C895.16,-118.141 608.611,-105.783 377.238,-53.7401 370.657,-52.2601 363.846,-50.4843 357.096,-48.5655"/>
<polygon fill="black" stroke="black" points="357.865,-45.1434 347.283,-45.6698 355.884,-51.8571 357.865,-45.1434"/>
<text text-anchor="middle" x="583.238" y="-75.5401" font-family="Times New Roman,serif" font-size="14.00">Crafting 5</text>
</g>
<!-- Branch&#45;&gt;Quarterstaff_D
+ Large_EarthDamage -->
<g id="edge2" class="edge"><title>Branch&#45;&gt;Quarterstaff_D
+ Large_EarthDamage</title>
<path fill="none" stroke="black" d="M996.105,-117.414C946.863,-111.238 854.562,-99.2493 776.238,-86.7401 695.49,-73.8441 675.268,-70.5207 595.238,-53.7401 586.501,-51.9082 577.393,-49.9015 568.328,-47.8417"/>
<polygon fill="black" stroke="black" points="569.058,-44.4183 558.528,-45.5915 567.491,-51.2407 569.058,-44.4183"/>
<text text-anchor="middle" x="804.238" y="-75.5401" font-family="Times New Roman,serif" font-size="14.00">Crafting 5</text>
</g>
<!-- Branch&#45;&gt;Quarterstaff_D
+ Small_ActionPoint -->
<g id="edge3" class="edge"><title>Branch&#45;&gt;Quarterstaff_D
+ Small_ActionPoint</title>
<path fill="none" stroke="black" d="M998.717,-114.386C969.636,-107.666 925.916,-97.2084 888.238,-86.7401 848.587,-75.724 804.679,-62.1335 769.171,-50.7871"/>
<polygon fill="black" stroke="black" points="769.981,-47.3711 759.389,-47.6503 767.843,-54.0368 769.981,-47.3711"/>
<text text-anchor="middle" x="916.238" y="-75.5401" font-family="Times New Roman,serif" font-size="14.00">Crafting 5</text>
</g>
<!-- Branch&#45;&gt;Quarterstaff_B -->
<g id="edge4" class="edge"><title>Branch&#45;&gt;Quarterstaff_B</title>
<path fill="none" stroke="black" d="M1008.34,-108.612C997.114,-102.114 983.415,-94.1026 971.238,-86.7401 951.031,-74.5234 928.615,-60.5029 910.742,-49.2098"/>
<polygon fill="black" stroke="black" points="912.167,-45.9694 901.846,-43.5769 908.422,-51.8835 912.167,-45.9694"/>
<text text-anchor="middle" x="999.238" y="-75.5401" font-family="Times New Roman,serif" font-size="14.00">Crafting 1</text>
</g>
<!-- Branch&#45;&gt;Quarterstaff_D
+ Reflexes -->
<g id="edge5" class="edge"><title>Branch&#45;&gt;Quarterstaff_D
+ Reflexes</title>
<path fill="none" stroke="black" d="M1031.24,-104.523C1031.24,-93.2193 1031.24,-78.0091 1031.24,-64.1179"/>
<polygon fill="black" stroke="black" points="1034.74,-63.8389 1031.24,-53.839 1027.74,-63.839 1034.74,-63.8389"/>
<text text-anchor="middle" x="1059.24" y="-75.5401" font-family="Times New Roman,serif" font-size="14.00">Crafting 5</text>
</g>
<!-- Branch&#45;&gt;Quarterstaff_D
+ Small_Intelligence -->
<g id="edge6" class="edge"><title>Branch&#45;&gt;Quarterstaff_D
+ Small_Intelligence</title>
<path fill="none" stroke="black" d="M1055.65,-109.08C1082.13,-95.3447 1125.22,-72.9975 1159.5,-55.2191"/>
<polygon fill="black" stroke="black" points="1161.2,-58.2828 1168.46,-50.5719 1157.98,-52.0688 1161.2,-58.2828"/>
<text text-anchor="middle" x="1155.24" y="-75.5401" font-family="Times New Roman,serif" font-size="14.00">Crafting 5</text>
</g>
<!-- Branch&#45;&gt;Quarterstaff_C
+ Large_Luck -->
<g id="edge7" class="edge"><title>Branch&#45;&gt;Quarterstaff_C
+ Large_Luck</title>
<path fill="none" stroke="black" d="M1064.19,-114.722C1095.82,-107.896 1144.9,-97.0736 1187.24,-86.7401 1243.06,-73.115 1257.07,-69.8194 1312.24,-53.7401 1318.28,-51.9779 1324.56,-50.0848 1330.83,-48.1532"/>
<polygon fill="black" stroke="black" points="1332.13,-51.4148 1340.64,-45.0994 1330.05,-44.7314 1332.13,-51.4148"/>
<text text-anchor="middle" x="1278.24" y="-75.5401" font-family="Times New Roman,serif" font-size="14.00">Crafting 4</text>
</g>
<!-- Branch&#45;&gt;Quarterstaff_D
+ Large_AirDamage -->
<g id="edge8" class="edge"><title>Branch&#45;&gt;Quarterstaff_D
+ Large_AirDamage</title>
<path fill="none" stroke="black" d="M1066.59,-118.164C1119.67,-112.601 1223.04,-101.016 1310.24,-86.7401 1383.18,-74.7983 1401.19,-70.2489 1473.24,-53.7401 1481.14,-51.9294 1489.37,-49.9603 1497.57,-47.9439"/>
<polygon fill="black" stroke="black" points="1498.67,-51.2766 1507.53,-45.4681 1496.98,-44.4832 1498.67,-51.2766"/>
<text text-anchor="middle" x="1423.24" y="-75.5401" font-family="Times New Roman,serif" font-size="14.00">Crafting 5</text>
</g>
<!-- Quarterstaff_D
+ Large_FireDamage -->
<g id="node11" class="node"><title>Quarterstaff_D
+ Large_FireDamage</title>
<ellipse fill="none" stroke="black" cx="1779.24" cy="-26.8701" rx="94.5053" ry="26.7407"/>
<text text-anchor="middle" x="1779.24" y="-30.6701" font-family="Times New Roman,serif" font-size="14.00">Quarterstaff_D</text>
<text text-anchor="middle" x="1779.24" y="-15.6701" font-family="Times New Roman,serif" font-size="14.00">+ Large_FireDamage</text>
</g>
<!-- Branch&#45;&gt;Quarterstaff_D
+ Large_FireDamage -->
<g id="edge10" class="edge"><title>Branch&#45;&gt;Quarterstaff_D
+ Large_FireDamage</title>
<path fill="none" stroke="black" d="M1067.54,-120.227C1166.12,-115.62 1446.71,-99.1964 1675.24,-53.7401 1683.79,-52.0391 1692.7,-50.0939 1701.54,-48.051"/>
<polygon fill="black" stroke="black" points="1702.54,-51.4101 1711.48,-45.7107 1700.94,-44.5965 1702.54,-51.4101"/>
<text text-anchor="middle" x="1599.24" y="-75.5401" font-family="Times New Roman,serif" font-size="14.00">Crafting 5</text>
</g>
<!-- Quarterstaff_C
+ Small_ActionPoint -->
<g id="node12" class="node"><title>Quarterstaff_C
+ Small_ActionPoint</title>
<ellipse fill="none" stroke="black" cx="1987.24" cy="-26.8701" rx="94.5053" ry="26.7407"/>
<text text-anchor="middle" x="1987.24" y="-30.6701" font-family="Times New Roman,serif" font-size="14.00">Quarterstaff_C</text>
<text text-anchor="middle" x="1987.24" y="-15.6701" font-family="Times New Roman,serif" font-size="14.00">+ Small_ActionPoint</text>
</g>
<!-- Branch&#45;&gt;Quarterstaff_C
+ Small_ActionPoint -->
<g id="edge11" class="edge"><title>Branch&#45;&gt;Quarterstaff_C
+ Small_ActionPoint</title>
<path fill="none" stroke="black" d="M1067.73,-121.614C1186.39,-120.611 1571.59,-112.709 1883.24,-53.7401 1891.87,-52.1065 1900.86,-50.1952 1909.78,-48.1642"/>
<polygon fill="black" stroke="black" points="1910.85,-51.5084 1919.79,-45.8288 1909.26,-44.6913 1910.85,-51.5084"/>
<text text-anchor="middle" x="1797.24" y="-75.5401" font-family="Times New Roman,serif" font-size="14.00">Crafting 4</text>
</g>
</g>
</svg>
