<?xml version="1.0" encoding="UTF-8" standalone="no"?>
<!DOCTYPE svg PUBLIC "-//W3C//DTD SVG 1.1//EN"
 "http://www.w3.org/Graphics/SVG/1.1/DTD/svg11.dtd">
<!-- Generated by graphviz version 2.38.0 (20140413.2041)
 -->
<!-- Title: G Pages: 1 -->
<svg width="207pt" height="149pt"
 viewBox="0.00 0.00 206.60 148.74" xmlns="http://www.w3.org/2000/svg" xmlns:xlink="http://www.w3.org/1999/xlink">
<g id="graph0" class="graph" transform="scale(1 1) rotate(0) translate(4 144.74)">
<title>G</title>
<polygon fill="white" stroke="none" points="-4,4 -4,-144.74 202.595,-144.74 202.595,4 -4,4"/>
<!-- RobeArmor -->
<g id="node1" class="node"><title>RobeArmor</title>
<ellipse fill="none" stroke="black" cx="54.5952" cy="-122.74" rx="54.6905" ry="18"/>
<text text-anchor="middle" x="54.5952" y="-119.04" font-family="Times New Roman,serif" font-size="14.00">RobeArmor</text>
</g>
<!-- RobeArmor
+ Small_AllResist -->
<g id="node3" class="node"><title>RobeArmor
+ Small_AllResist</title>
<ellipse fill="none" stroke="black" cx="105.595" cy="-26.8701" rx="82.9636" ry="26.7407"/>
<text text-anchor="middle" x="105.595" y="-30.6701" font-family="Times New Roman,serif" font-size="14.00">RobeArmor</text>
<text text-anchor="middle" x="105.595" y="-15.6701" font-family="Times New Roman,serif" font-size="14.00">+ Small_AllResist</text>
</g>
<!-- RobeArmor&#45;&gt;RobeArmor
+ Small_AllResist -->
<g id="edge1" class="edge"><title>RobeArmor&#45;&gt;RobeArmor
+ Small_AllResist</title>
<path fill="none" stroke="black" d="M62.6339,-104.92C67.3968,-95.146 73.6468,-82.646 79.5952,-71.7401 81.2564,-68.6943 83.0184,-65.5529 84.8112,-62.4167"/>
<polygon fill="black" stroke="black" points="87.8923,-64.0805 89.8877,-53.6753 81.839,-60.5651 87.8923,-64.0805"/>
<text text-anchor="middle" x="107.595" y="-75.5401" font-family="Times New Roman,serif" font-size="14.00">Crafting 5</text>
</g>
<!-- Ruby -->
<g id="node2" class="node"><title>Ruby</title>
<ellipse fill="none" stroke="black" cx="157.595" cy="-122.74" rx="30.5947" ry="18"/>
<text text-anchor="middle" x="157.595" y="-119.04" font-family="Times New Roman,serif" font-size="14.00">Ruby</text>
</g>
<!-- Ruby&#45;&gt;RobeArmor
+ Small_AllResist -->
<g id="edge2" class="edge"><title>Ruby&#45;&gt;RobeArmor
+ Small_AllResist</title>
<path fill="none" stroke="black" d="M151.017,-104.699C146.991,-94.8513 141.491,-82.3513 135.595,-71.7401 133.786,-68.4837 131.801,-65.1632 129.741,-61.8799"/>
<polygon fill="black" stroke="black" points="132.572,-59.8138 124.182,-53.345 126.707,-63.6345 132.572,-59.8138"/>
<text text-anchor="middle" x="170.595" y="-75.5401" font-family="Times New Roman,serif" font-size="14.00">Crafting 5</text>
</g>
</g>
</svg>
