<?xml version="1.0" encoding="UTF-8" standalone="no"?>
<!DOCTYPE svg PUBLIC "-//W3C//DTD SVG 1.1//EN"
 "http://www.w3.org/Graphics/SVG/1.1/DTD/svg11.dtd">
<!-- Generated by graphviz version 2.38.0 (20140413.2041)
 -->
<!-- Title: G Pages: 1 -->
<svg width="505pt" height="218pt"
 viewBox="0.00 0.00 504.79 218.00" xmlns="http://www.w3.org/2000/svg" xmlns:xlink="http://www.w3.org/1999/xlink">
<g id="graph0" class="graph" transform="scale(1 1) rotate(0) translate(4 214)">
<title>G</title>
<polygon fill="white" stroke="none" points="-4,4 -4,-214 500.787,-214 500.787,4 -4,4"/>
<!-- Dagger -->
<g id="node1" class="node"><title>Dagger</title>
<ellipse fill="none" stroke="black" cx="240.393" cy="-192" rx="36.2938" ry="18"/>
<text text-anchor="middle" x="240.393" y="-188.3" font-family="Times New Roman,serif" font-size="14.00">Dagger</text>
</g>
<!-- Scraps_Leather -->
<g id="node5" class="node"><title>Scraps_Leather</title>
<ellipse fill="none" stroke="black" cx="352.393" cy="-105" rx="67.6881" ry="18"/>
<text text-anchor="middle" x="352.393" y="-101.3" font-family="Times New Roman,serif" font-size="14.00">Scraps_Leather</text>
</g>
<!-- Dagger&#45;&gt;Scraps_Leather -->
<g id="edge1" class="edge"><title>Dagger&#45;&gt;Scraps_Leather</title>
<path fill="none" stroke="black" d="M255,-175.108C264.976,-164.736 278.802,-151.266 292.393,-141 299.24,-135.828 306.917,-130.827 314.432,-126.302"/>
<polygon fill="black" stroke="black" points="316.252,-129.292 323.121,-121.226 312.721,-123.248 316.252,-129.292"/>
<text text-anchor="middle" x="320.393" y="-144.8" font-family="Times New Roman,serif" font-size="14.00">Crafting 1</text>
</g>
<!-- Anvil -->
<g id="node2" class="node"><title>Anvil</title>
<ellipse fill="none" stroke="black" cx="115.393" cy="-105" rx="29.795" ry="18"/>
<text text-anchor="middle" x="115.393" y="-101.3" font-family="Times New Roman,serif" font-size="14.00">Anvil</text>
</g>
<!-- Leather_B_Boots -->
<g id="node4" class="node"><title>Leather_B_Boots</title>
<ellipse fill="none" stroke="black" cx="75.3933" cy="-18" rx="75.2868" ry="18"/>
<text text-anchor="middle" x="75.3933" y="-14.3" font-family="Times New Roman,serif" font-size="14.00">Leather_B_Boots</text>
</g>
<!-- Anvil&#45;&gt;Leather_B_Boots -->
<g id="edge4" class="edge"><title>Anvil&#45;&gt;Leather_B_Boots</title>
<path fill="none" stroke="black" d="M86.8871,-99.2075C69.3776,-94.6339 48.282,-85.8206 37.3933,-69 31.5277,-59.9389 35.8817,-50.4084 43.4283,-42.1267"/>
<polygon fill="black" stroke="black" points="45.866,-44.6385 50.7054,-35.2135 41.0447,-39.5635 45.866,-44.6385"/>
<text text-anchor="middle" x="65.3933" y="-57.8" font-family="Times New Roman,serif" font-size="14.00">Crafting 2</text>
</g>
<!-- Leather_Boots_B -->
<g id="node6" class="node"><title>Leather_Boots_B</title>
<ellipse fill="none" stroke="black" cx="421.393" cy="-18" rx="75.2868" ry="18"/>
<text text-anchor="middle" x="421.393" y="-14.3" font-family="Times New Roman,serif" font-size="14.00">Leather_Boots_B</text>
</g>
<!-- Anvil&#45;&gt;Leather_Boots_B -->
<g id="edge2" class="edge"><title>Anvil&#45;&gt;Leather_Boots_B</title>
<path fill="none" stroke="black" d="M144.213,-100.147C172.609,-95.5455 216.659,-86.2127 251.393,-69 261.033,-64.2228 260.696,-58.6606 270.393,-54 285.34,-46.8162 320.895,-38.437 353.75,-31.6786"/>
<polygon fill="black" stroke="black" points="354.728,-35.0517 363.834,-29.6362 353.338,-28.191 354.728,-35.0517"/>
<text text-anchor="middle" x="298.393" y="-57.8" font-family="Times New Roman,serif" font-size="14.00">Crafting 4</text>
</g>
<!-- Leather_Boots -->
<g id="node7" class="node"><title>Leather_Boots</title>
<ellipse fill="none" stroke="black" cx="253.393" cy="-18" rx="64.189" ry="18"/>
<text text-anchor="middle" x="253.393" y="-14.3" font-family="Times New Roman,serif" font-size="14.00">Leather_Boots</text>
</g>
<!-- Anvil&#45;&gt;Leather_Boots -->
<g id="edge3" class="edge"><title>Anvil&#45;&gt;Leather_Boots</title>
<path fill="none" stroke="black" d="M110.934,-86.9681C109.23,-76.3888 109.166,-63.1168 116.393,-54 121.442,-47.6313 157.928,-38.4858 191.976,-31.1406"/>
<polygon fill="black" stroke="black" points="192.899,-34.5226 201.954,-29.0224 191.446,-27.6752 192.899,-34.5226"/>
<text text-anchor="middle" x="144.393" y="-57.8" font-family="Times New Roman,serif" font-size="14.00">Crafting 3</text>
</g>
<!-- Hide_Animal -->
<g id="node3" class="node"><title>Hide_Animal</title>
<ellipse fill="none" stroke="black" cx="352.393" cy="-192" rx="57.6901" ry="18"/>
<text text-anchor="middle" x="352.393" y="-188.3" font-family="Times New Roman,serif" font-size="14.00">Hide_Animal</text>
</g>
<!-- Hide_Animal&#45;&gt;Scraps_Leather -->
<g id="edge8" class="edge"><title>Hide_Animal&#45;&gt;Scraps_Leather</title>
<path fill="none" stroke="black" d="M352.393,-173.799C352.393,-162.163 352.393,-146.548 352.393,-133.237"/>
<polygon fill="black" stroke="black" points="355.893,-133.175 352.393,-123.175 348.893,-133.175 355.893,-133.175"/>
<text text-anchor="middle" x="380.393" y="-144.8" font-family="Times New Roman,serif" font-size="14.00">Crafting 1</text>
</g>
<!-- Scraps_Leather&#45;&gt;Leather_B_Boots -->
<g id="edge7" class="edge"><title>Scraps_Leather&#45;&gt;Leather_B_Boots</title>
<path fill="none" stroke="black" d="M293.441,-96.008C263.312,-90.6522 226.535,-82.1158 195.393,-69 184.146,-64.263 183.317,-59.4408 172.393,-54 158.852,-47.2556 143.682,-41.1502 129.433,-35.9969"/>
<polygon fill="black" stroke="black" points="130.342,-32.6064 119.747,-32.5851 128.017,-39.2087 130.342,-32.6064"/>
<text text-anchor="middle" x="223.393" y="-57.8" font-family="Times New Roman,serif" font-size="14.00">Crafting 2</text>
</g>
<!-- Scraps_Leather&#45;&gt;Leather_Boots_B -->
<g id="edge5" class="edge"><title>Scraps_Leather&#45;&gt;Leather_Boots_B</title>
<path fill="none" stroke="black" d="M386.063,-89.249C394.78,-83.9905 403.391,-77.2703 409.393,-69 414.206,-62.3691 417.11,-54.066 418.856,-46.142"/>
<polygon fill="black" stroke="black" points="422.335,-46.5589 420.546,-36.1161 415.432,-45.395 422.335,-46.5589"/>
<text text-anchor="middle" x="445.393" y="-57.8" font-family="Times New Roman,serif" font-size="14.00">Crafting 4</text>
</g>
<!-- Scraps_Leather&#45;&gt;Leather_Boots -->
<g id="edge6" class="edge"><title>Scraps_Leather&#45;&gt;Leather_Boots</title>
<path fill="none" stroke="black" d="M348.251,-86.916C344.934,-76.3159 339.325,-63.0403 330.393,-54 323.195,-46.7139 314.203,-40.7999 304.929,-36.0512"/>
<polygon fill="black" stroke="black" points="306.157,-32.7614 295.618,-31.6833 303.185,-39.0989 306.157,-32.7614"/>
<text text-anchor="middle" x="369.393" y="-57.8" font-family="Times New Roman,serif" font-size="14.00">Crafting 3</text>
</g>
<!-- Knife -->
<g id="node8" class="node"><title>Knife</title>
<ellipse fill="none" stroke="black" cx="458.393" cy="-192" rx="30.5947" ry="18"/>
<text text-anchor="middle" x="458.393" y="-188.3" font-family="Times New Roman,serif" font-size="14.00">Knife</text>
</g>
<!-- Knife&#45;&gt;Scraps_Leather -->
<g id="edge9" class="edge"><title>Knife&#45;&gt;Scraps_Leather</title>
<path fill="none" stroke="black" d="M446.166,-175.428C437.452,-164.936 425.075,-151.204 412.393,-141 405.985,-135.844 398.733,-130.951 391.541,-126.547"/>
<polygon fill="black" stroke="black" points="392.926,-123.301 382.532,-121.247 389.376,-129.334 392.926,-123.301"/>
<text text-anchor="middle" x="456.393" y="-144.8" font-family="Times New Roman,serif" font-size="14.00">Crafting 1</text>
</g>
</g>
</svg>
