<?xml version="1.0" encoding="UTF-8" standalone="no"?>
<!DOCTYPE svg PUBLIC "-//W3C//DTD SVG 1.1//EN"
 "http://www.w3.org/Graphics/SVG/1.1/DTD/svg11.dtd">
<!-- Generated by graphviz version 2.38.0 (20140413.2041)
 -->
<!-- Title: G Pages: 1 -->
<svg width="502pt" height="149pt"
 viewBox="0.00 0.00 502.44 148.74" xmlns="http://www.w3.org/2000/svg" xmlns:xlink="http://www.w3.org/1999/xlink">
<g id="graph0" class="graph" transform="scale(1 1) rotate(0) translate(4 144.74)">
<title>G</title>
<polygon fill="white" stroke="none" points="-4,4 -4,-144.74 498.438,-144.74 498.438,4 -4,4"/>
<!-- TwoHandedAxe
+ Medium_Damage -->
<g id="node1" class="node"><title>TwoHandedAxe
+ Medium_Damage</title>
<ellipse fill="none" stroke="black" cx="287.594" cy="-26.8701" rx="89.6056" ry="26.7407"/>
<text text-anchor="middle" x="287.594" y="-30.6701" font-family="Times New Roman,serif" font-size="14.00">TwoHandedAxe</text>
<text text-anchor="middle" x="287.594" y="-15.6701" font-family="Times New Roman,serif" font-size="14.00">+ Medium_Damage</text>
</g>
<!-- Stone_A_Whet -->
<g id="node2" class="node"><title>Stone_A_Whet</title>
<ellipse fill="none" stroke="black" cx="67.594" cy="-122.74" rx="67.6881" ry="18"/>
<text text-anchor="middle" x="67.594" y="-119.04" font-family="Times New Roman,serif" font-size="14.00">Stone_A_Whet</text>
</g>
<!-- Stone_A_Whet&#45;&gt;TwoHandedAxe
+ Medium_Damage -->
<g id="edge1" class="edge"><title>Stone_A_Whet&#45;&gt;TwoHandedAxe
+ Medium_Damage</title>
<path fill="none" stroke="black" d="M111.051,-108.883C130.172,-102.811 152.75,-95.0701 172.594,-86.7401 179.213,-83.9614 207.974,-69.2382 235.075,-55.2125"/>
<polygon fill="black" stroke="black" points="236.899,-58.2094 244.167,-50.501 233.678,-51.9942 236.899,-58.2094"/>
<text text-anchor="middle" x="231.594" y="-75.5401" font-family="Times New Roman,serif" font-size="14.00">Crafting 5</text>
</g>
<!-- TwoHandedAxe
+ Small_Damage -->
<g id="node5" class="node"><title>TwoHandedAxe
+ Small_Damage</title>
<ellipse fill="none" stroke="black" cx="100.594" cy="-26.8701" rx="79.3924" ry="26.7407"/>
<text text-anchor="middle" x="100.594" y="-30.6701" font-family="Times New Roman,serif" font-size="14.00">TwoHandedAxe</text>
<text text-anchor="middle" x="100.594" y="-15.6701" font-family="Times New Roman,serif" font-size="14.00">+ Small_Damage</text>
</g>
<!-- Stone_A_Whet&#45;&gt;TwoHandedAxe
+ Small_Damage -->
<g id="edge2" class="edge"><title>Stone_A_Whet&#45;&gt;TwoHandedAxe
+ Small_Damage</title>
<path fill="none" stroke="black" d="M48.0954,-105.354C39.0959,-95.7259 31.5959,-83.2259 37.594,-71.7401 40.5901,-66.0029 44.7165,-60.8636 49.4367,-56.302"/>
<polygon fill="black" stroke="black" points="51.9409,-58.7658 57.2656,-49.6062 47.391,-53.446 51.9409,-58.7658"/>
<text text-anchor="middle" x="65.594" y="-75.5401" font-family="Times New Roman,serif" font-size="14.00">Crafting 2</text>
</g>
<!-- TwoHandedAxe -->
<g id="node3" class="node"><title>TwoHandedAxe</title>
<ellipse fill="none" stroke="black" cx="423.594" cy="-122.74" rx="70.6878" ry="18"/>
<text text-anchor="middle" x="423.594" y="-119.04" font-family="Times New Roman,serif" font-size="14.00">TwoHandedAxe</text>
</g>
<!-- TwoHandedAxe&#45;&gt;TwoHandedAxe
+ Medium_Damage -->
<g id="edge5" class="edge"><title>TwoHandedAxe&#45;&gt;TwoHandedAxe
+ Medium_Damage</title>
<path fill="none" stroke="black" d="M422.692,-104.522C421.272,-93.8689 417.822,-80.5841 409.594,-71.7401 399.156,-60.5197 385.64,-52.1646 371.422,-45.9442"/>
<polygon fill="black" stroke="black" points="372.587,-42.6402 362.003,-42.1562 369.975,-49.1347 372.587,-42.6402"/>
<text text-anchor="middle" x="446.594" y="-75.5401" font-family="Times New Roman,serif" font-size="14.00">Crafting 5</text>
</g>
<!-- TwoHandedAxe&#45;&gt;TwoHandedAxe
+ Small_Damage -->
<g id="edge6" class="edge"><title>TwoHandedAxe&#45;&gt;TwoHandedAxe
+ Small_Damage</title>
<path fill="none" stroke="black" d="M388.579,-106.937C375.997,-101.164 361.886,-94.1525 349.594,-86.7401 340.079,-81.0023 339.891,-75.9154 329.594,-71.7401 271.049,-48.0002 250.428,-66.6901 188.594,-53.7401 181.522,-52.259 174.192,-50.4901 166.918,-48.5821"/>
<polygon fill="black" stroke="black" points="167.631,-45.1491 157.063,-45.908 165.798,-51.9048 167.631,-45.1491"/>
<text text-anchor="middle" x="377.594" y="-75.5401" font-family="Times New Roman,serif" font-size="14.00">Crafting 2</text>
</g>
<!-- WhetStone_Wheel -->
<g id="node4" class="node"><title>WhetStone_Wheel</title>
<ellipse fill="none" stroke="black" cx="247.594" cy="-122.74" rx="79.0865" ry="18"/>
<text text-anchor="middle" x="247.594" y="-119.04" font-family="Times New Roman,serif" font-size="14.00">WhetStone_Wheel</text>
</g>
<!-- WhetStone_Wheel&#45;&gt;TwoHandedAxe
+ Medium_Damage -->
<g id="edge3" class="edge"><title>WhetStone_Wheel&#45;&gt;TwoHandedAxe
+ Medium_Damage</title>
<path fill="none" stroke="black" d="M254.931,-104.523C259.842,-92.9977 266.484,-77.4111 272.496,-63.3024"/>
<polygon fill="black" stroke="black" points="275.828,-64.4106 276.528,-53.839 269.388,-61.6665 275.828,-64.4106"/>
<text text-anchor="middle" x="297.594" y="-75.5401" font-family="Times New Roman,serif" font-size="14.00">Crafting 5</text>
</g>
<!-- WhetStone_Wheel&#45;&gt;TwoHandedAxe
+ Small_Damage -->
<g id="edge4" class="edge"><title>WhetStone_Wheel&#45;&gt;TwoHandedAxe
+ Small_Damage</title>
<path fill="none" stroke="black" d="M185.856,-111.339C156.998,-105.296 126.77,-96.8722 116.594,-86.7401 110.39,-80.5632 106.525,-72.2379 104.134,-63.7955"/>
<polygon fill="black" stroke="black" points="107.534,-62.9589 101.954,-53.9527 100.7,-64.473 107.534,-62.9589"/>
<text text-anchor="middle" x="144.594" y="-75.5401" font-family="Times New Roman,serif" font-size="14.00">Crafting 2</text>
</g>
</g>
</svg>
