<?xml version="1.0" encoding="UTF-8" standalone="no"?>
<!DOCTYPE svg PUBLIC "-//W3C//DTD SVG 1.1//EN"
 "http://www.w3.org/Graphics/SVG/1.1/DTD/svg11.dtd">
<!-- Generated by graphviz version 2.38.0 (20140413.2041)
 -->
<!-- Title: G Pages: 1 -->
<svg width="961pt" height="392pt"
 viewBox="0.00 0.00 961.10 392.00" xmlns="http://www.w3.org/2000/svg" xmlns:xlink="http://www.w3.org/1999/xlink">
<g id="graph0" class="graph" transform="scale(1 1) rotate(0) translate(4 388)">
<title>G</title>
<polygon fill="white" stroke="none" points="-4,4 -4,-388 957.097,-388 957.097,4 -4,4"/>
<!-- OreBar_A_Steel_A_Large -->
<g id="node1" class="node"><title>OreBar_A_Steel_A_Large</title>
<ellipse fill="none" stroke="black" cx="606.097" cy="-105" rx="107.482" ry="18"/>
<text text-anchor="middle" x="606.097" y="-101.3" font-family="Times New Roman,serif" font-size="14.00">OreBar_A_Steel_A_Large</text>
</g>
<!-- PeasantsBlackBillPolearm -->
<g id="node6" class="node"><title>PeasantsBlackBillPolearm</title>
<ellipse fill="none" stroke="black" cx="581.097" cy="-18" rx="104.782" ry="18"/>
<text text-anchor="middle" x="581.097" y="-14.3" font-family="Times New Roman,serif" font-size="14.00">PeasantsBlackBillPolearm</text>
</g>
<!-- OreBar_A_Steel_A_Large&#45;&gt;PeasantsBlackBillPolearm -->
<g id="edge6" class="edge"><title>OreBar_A_Steel_A_Large&#45;&gt;PeasantsBlackBillPolearm</title>
<path fill="none" stroke="black" d="M551.74,-89.4428C542.373,-84.478 533.824,-77.8464 528.097,-69 521.414,-58.6763 527.45,-48.9828 537.509,-40.9296"/>
<polygon fill="black" stroke="black" points="539.649,-43.7045 545.842,-35.1079 535.64,-37.9663 539.649,-43.7045"/>
<text text-anchor="middle" x="556.097" y="-57.8" font-family="Times New Roman,serif" font-size="14.00">Crafting 2</text>
</g>
<!-- 2H_Axe -->
<g id="node7" class="node"><title>2H_Axe</title>
<ellipse fill="none" stroke="black" cx="908.097" cy="-18" rx="40.8928" ry="18"/>
<text text-anchor="middle" x="908.097" y="-14.3" font-family="Times New Roman,serif" font-size="14.00">2H_Axe</text>
</g>
<!-- OreBar_A_Steel_A_Large&#45;&gt;2H_Axe -->
<g id="edge5" class="edge"><title>OreBar_A_Steel_A_Large&#45;&gt;2H_Axe</title>
<path fill="none" stroke="black" d="M634.35,-87.5526C643.655,-81.8989 653.956,-75.3816 663.097,-69 671.919,-62.8412 672.144,-58.0852 682.097,-54 749.115,-26.4933 772.892,-49.3359 844.097,-36 850.93,-34.7203 858.106,-33.0966 865.081,-31.3629"/>
<polygon fill="black" stroke="black" points="866.29,-34.6654 875.094,-28.7713 864.536,-27.8887 866.29,-34.6654"/>
<text text-anchor="middle" x="710.097" y="-57.8" font-family="Times New Roman,serif" font-size="14.00">Crafting 3</text>
</g>
<!-- 2H_Axe_B -->
<g id="node9" class="node"><title>2H_Axe_B</title>
<ellipse fill="none" stroke="black" cx="783.097" cy="-18" rx="51.9908" ry="18"/>
<text text-anchor="middle" x="783.097" y="-14.3" font-family="Times New Roman,serif" font-size="14.00">2H_Axe_B</text>
</g>
<!-- OreBar_A_Steel_A_Large&#45;&gt;2H_Axe_B -->
<g id="edge4" class="edge"><title>OreBar_A_Steel_A_Large&#45;&gt;2H_Axe_B</title>
<path fill="none" stroke="black" d="M601.472,-86.8334C599.703,-76.2003 599.626,-62.919 607.097,-54 607.601,-53.3983 677.298,-39.6682 728.822,-29.5872"/>
<polygon fill="black" stroke="black" points="729.716,-32.9788 738.858,-27.6247 728.372,-26.1089 729.716,-32.9788"/>
<text text-anchor="middle" x="635.097" y="-57.8" font-family="Times New Roman,serif" font-size="14.00">Crafting 4</text>
</g>
<!-- Anvil -->
<g id="node2" class="node"><title>Anvil</title>
<ellipse fill="none" stroke="black" cx="843.097" cy="-105" rx="29.795" ry="18"/>
<text text-anchor="middle" x="843.097" y="-101.3" font-family="Times New Roman,serif" font-size="14.00">Anvil</text>
</g>
<!-- Anvil&#45;&gt;PeasantsBlackBillPolearm -->
<g id="edge10" class="edge"><title>Anvil&#45;&gt;PeasantsBlackBillPolearm</title>
<path fill="none" stroke="black" d="M817.867,-95.2234C801.209,-88.9543 779.197,-79.7481 761.097,-69 751.846,-63.5068 751.826,-58.5941 742.097,-54 720.596,-43.847 696.083,-36.5974 672.782,-31.436"/>
<polygon fill="black" stroke="black" points="673.388,-27.987 662.881,-29.3494 671.945,-34.8366 673.388,-27.987"/>
<text text-anchor="middle" x="789.097" y="-57.8" font-family="Times New Roman,serif" font-size="14.00">Crafting 2</text>
</g>
<!-- Anvil&#45;&gt;2H_Axe -->
<g id="edge11" class="edge"><title>Anvil&#45;&gt;2H_Axe</title>
<path fill="none" stroke="black" d="M864.001,-91.7817C872.723,-85.8276 882.369,-78.003 889.097,-69 894.178,-62.2006 898.053,-53.8823 900.935,-45.9966"/>
<polygon fill="black" stroke="black" points="904.296,-46.9788 904.071,-36.3863 897.642,-44.8071 904.296,-46.9788"/>
<text text-anchor="middle" x="925.097" y="-57.8" font-family="Times New Roman,serif" font-size="14.00">Crafting 3</text>
</g>
<!-- Anvil&#45;&gt;2H_Axe_B -->
<g id="edge9" class="edge"><title>Anvil&#45;&gt;2H_Axe_B</title>
<path fill="none" stroke="black" d="M837.564,-86.8756C833.826,-76.7676 828.265,-64.0306 821.097,-54 818.046,-49.7311 814.405,-45.5855 810.603,-41.7299"/>
<polygon fill="black" stroke="black" points="812.871,-39.0571 803.207,-34.7164 808.055,-44.1368 812.871,-39.0571"/>
<text text-anchor="middle" x="857.097" y="-57.8" font-family="Times New Roman,serif" font-size="14.00">Crafting 4</text>
</g>
<!-- TwoHandedSword -->
<g id="node3" class="node"><title>TwoHandedSword</title>
<ellipse fill="none" stroke="black" cx="564.097" cy="-279" rx="80.6858" ry="18"/>
<text text-anchor="middle" x="564.097" y="-275.3" font-family="Times New Roman,serif" font-size="14.00">TwoHandedSword</text>
</g>
<!-- OreBar_A_Iron_A_Large -->
<g id="node12" class="node"><title>OreBar_A_Iron_A_Large</title>
<ellipse fill="none" stroke="black" cx="475.097" cy="-192" rx="104.782" ry="18"/>
<text text-anchor="middle" x="475.097" y="-188.3" font-family="Times New Roman,serif" font-size="14.00">OreBar_A_Iron_A_Large</text>
</g>
<!-- TwoHandedSword&#45;&gt;OreBar_A_Iron_A_Large -->
<g id="edge7" class="edge"><title>TwoHandedSword&#45;&gt;OreBar_A_Iron_A_Large</title>
<path fill="none" stroke="black" d="M546.513,-261.207C533.226,-248.517 514.811,-230.93 500.009,-216.793"/>
<polygon fill="black" stroke="black" points="502.293,-214.134 492.644,-209.758 497.458,-219.196 502.293,-214.134"/>
<text text-anchor="middle" x="552.097" y="-231.8" font-family="Times New Roman,serif" font-size="14.00">Crafting 1</text>
</g>
<!-- Bone_A_Iron -->
<g id="node4" class="node"><title>Bone_A_Iron</title>
<ellipse fill="none" stroke="black" cx="279.097" cy="-366" rx="61.1893" ry="18"/>
<text text-anchor="middle" x="279.097" y="-362.3" font-family="Times New Roman,serif" font-size="14.00">Bone_A_Iron</text>
</g>
<!-- OreBar_A_Iron -->
<g id="node5" class="node"><title>OreBar_A_Iron</title>
<ellipse fill="none" stroke="black" cx="259.097" cy="-279" rx="68.4888" ry="18"/>
<text text-anchor="middle" x="259.097" y="-275.3" font-family="Times New Roman,serif" font-size="14.00">OreBar_A_Iron</text>
</g>
<!-- Bone_A_Iron&#45;&gt;OreBar_A_Iron -->
<g id="edge12" class="edge"><title>Bone_A_Iron&#45;&gt;OreBar_A_Iron</title>
<path fill="none" stroke="black" d="M267.898,-348.239C264.763,-342.671 261.759,-336.283 260.097,-330 258.195,-322.812 257.454,-314.837 257.309,-307.407"/>
<polygon fill="black" stroke="black" points="260.809,-307.451 257.444,-297.404 253.809,-307.356 260.809,-307.451"/>
<text text-anchor="middle" x="288.097" y="-318.8" font-family="Times New Roman,serif" font-size="14.00">Crafting 0</text>
</g>
<!-- OreBar_A_Iron&#45;&gt;OreBar_A_Iron_A_Large -->
<g id="edge13" class="edge"><title>OreBar_A_Iron&#45;&gt;OreBar_A_Iron_A_Large</title>
<path fill="none" stroke="black" d="M280.843,-261.839C296.388,-250.945 318.175,-236.975 339.097,-228 357.689,-220.024 378.518,-213.541 398.179,-208.422"/>
<polygon fill="black" stroke="black" points="399.185,-211.778 408.028,-205.943 397.477,-204.99 399.185,-211.778"/>
<text text-anchor="middle" x="367.097" y="-231.8" font-family="Times New Roman,serif" font-size="14.00">Crafting 0</text>
</g>
<!-- Sword -->
<g id="node8" class="node"><title>Sword</title>
<ellipse fill="none" stroke="black" cx="35.0969" cy="-366" rx="35.194" ry="18"/>
<text text-anchor="middle" x="35.0969" y="-362.3" font-family="Times New Roman,serif" font-size="14.00">Sword</text>
</g>
<!-- Sword&#45;&gt;OreBar_A_Iron -->
<g id="edge14" class="edge"><title>Sword&#45;&gt;OreBar_A_Iron</title>
<path fill="none" stroke="black" d="M55.1232,-351.193C72.0471,-340.067 97.2717,-324.724 121.097,-315 144.525,-305.438 171.284,-297.927 194.964,-292.355"/>
<polygon fill="black" stroke="black" points="195.935,-295.723 204.905,-290.085 194.377,-288.899 195.935,-295.723"/>
<text text-anchor="middle" x="149.097" y="-318.8" font-family="Times New Roman,serif" font-size="14.00">Crafting 1</text>
</g>
<!-- Ore_A_Iron -->
<g id="node10" class="node"><title>Ore_A_Iron</title>
<ellipse fill="none" stroke="black" cx="144.097" cy="-366" rx="55.7903" ry="18"/>
<text text-anchor="middle" x="144.097" y="-362.3" font-family="Times New Roman,serif" font-size="14.00">Ore_A_Iron</text>
</g>
<!-- Ore_A_Iron&#45;&gt;OreBar_A_Iron -->
<g id="edge15" class="edge"><title>Ore_A_Iron&#45;&gt;OreBar_A_Iron</title>
<path fill="none" stroke="black" d="M159.801,-348.666C170.154,-338.365 184.303,-325.141 198.097,-315 205.097,-309.854 212.918,-304.865 220.564,-300.342"/>
<polygon fill="black" stroke="black" points="222.471,-303.283 229.398,-295.267 218.983,-297.214 222.471,-303.283"/>
<text text-anchor="middle" x="226.097" y="-318.8" font-family="Times New Roman,serif" font-size="14.00">Crafting 0</text>
</g>
<!-- Oven -->
<g id="node11" class="node"><title>Oven</title>
<ellipse fill="none" stroke="black" cx="409.097" cy="-366" rx="30.5947" ry="18"/>
<text text-anchor="middle" x="409.097" y="-362.3" font-family="Times New Roman,serif" font-size="14.00">Oven</text>
</g>
<!-- Oven&#45;&gt;OreBar_A_Steel_A_Large -->
<g id="edge2" class="edge"><title>Oven&#45;&gt;OreBar_A_Steel_A_Large</title>
<path fill="none" stroke="black" d="M438.849,-361.22C498.21,-353.003 627.916,-331.438 654.097,-297 692.091,-247.024 650.891,-170.481 624.553,-131.19"/>
<polygon fill="black" stroke="black" points="627.428,-129.193 618.873,-122.942 621.662,-133.163 627.428,-129.193"/>
<text text-anchor="middle" x="697.097" y="-231.8" font-family="Times New Roman,serif" font-size="14.00">Crafting 1</text>
</g>
<!-- Oven&#45;&gt;OreBar_A_Iron -->
<g id="edge1" class="edge"><title>Oven&#45;&gt;OreBar_A_Iron</title>
<path fill="none" stroke="black" d="M385.733,-354.144C371.957,-347.54 354.301,-338.721 339.097,-330 328.511,-323.928 326.409,-321.527 316.097,-315 308.833,-310.402 301.003,-305.537 293.543,-300.943"/>
<polygon fill="black" stroke="black" points="295.364,-297.954 285.01,-295.707 291.703,-303.92 295.364,-297.954"/>
<text text-anchor="middle" x="367.097" y="-318.8" font-family="Times New Roman,serif" font-size="14.00">Crafting 1</text>
</g>
<!-- Oven&#45;&gt;OreBar_A_Iron_A_Large -->
<g id="edge3" class="edge"><title>Oven&#45;&gt;OreBar_A_Iron_A_Large</title>
<path fill="none" stroke="black" d="M407.499,-347.69C406.22,-326.422 406.258,-289.64 418.097,-261 424.855,-244.651 437.021,-229.285 448.383,-217.311"/>
<polygon fill="black" stroke="black" points="451.117,-219.524 455.668,-209.956 446.144,-214.598 451.117,-219.524"/>
<text text-anchor="middle" x="446.097" y="-275.3" font-family="Times New Roman,serif" font-size="14.00">Crafting 1</text>
</g>
<!-- OreBar_A_Iron_A_Large&#45;&gt;OreBar_A_Steel_A_Large -->
<g id="edge8" class="edge"><title>OreBar_A_Iron_A_Large&#45;&gt;OreBar_A_Steel_A_Large</title>
<path fill="none" stroke="black" d="M500.666,-174.409C521.044,-161.187 549.759,-142.555 572.077,-128.074"/>
<polygon fill="black" stroke="black" points="574.109,-130.928 580.592,-122.549 570.298,-125.056 574.109,-130.928"/>
<text text-anchor="middle" x="576.097" y="-144.8" font-family="Times New Roman,serif" font-size="14.00">Crafting 1</text>
</g>
</g>
</svg>
