<?xml version="1.0" encoding="UTF-8" standalone="no"?>
<!DOCTYPE svg PUBLIC "-//W3C//DTD SVG 1.1//EN"
 "http://www.w3.org/Graphics/SVG/1.1/DTD/svg11.dtd">
<!-- Generated by graphviz version 2.38.0 (20140413.2041)
 -->
<!-- Title: G Pages: 1 -->
<svg width="200pt" height="149pt"
 viewBox="0.00 0.00 199.80 148.74" xmlns="http://www.w3.org/2000/svg" xmlns:xlink="http://www.w3.org/1999/xlink">
<g id="graph0" class="graph" transform="scale(1 1) rotate(0) translate(4 144.74)">
<title>G</title>
<polygon fill="white" stroke="none" points="-4,4 -4,-144.74 195.798,-144.74 195.798,4 -4,4"/>
<!-- Club -->
<g id="node1" class="node"><title>Club</title>
<ellipse fill="none" stroke="black" cx="40.8026" cy="-122.74" rx="28.6953" ry="18"/>
<text text-anchor="middle" x="40.8026" y="-119.04" font-family="Times New Roman,serif" font-size="14.00">Club</text>
</g>
<!-- Club
+ Medium_Damage -->
<g id="node3" class="node"><title>Club
+ Medium_Damage</title>
<ellipse fill="none" stroke="black" cx="89.8026" cy="-26.8701" rx="89.6056" ry="26.7407"/>
<text text-anchor="middle" x="89.8026" y="-30.6701" font-family="Times New Roman,serif" font-size="14.00">Club</text>
<text text-anchor="middle" x="89.8026" y="-15.6701" font-family="Times New Roman,serif" font-size="14.00">+ Medium_Damage</text>
</g>
<!-- Club&#45;&gt;Club
+ Medium_Damage -->
<g id="edge1" class="edge"><title>Club&#45;&gt;Club
+ Medium_Damage</title>
<path fill="none" stroke="black" d="M47.1059,-104.745C50.9571,-94.9137 56.2071,-82.4137 61.8026,-71.7401 63.4465,-68.6042 65.2433,-65.4003 67.1076,-62.2228"/>
<polygon fill="black" stroke="black" points="70.2586,-63.7777 72.4694,-53.4161 64.2796,-60.1374 70.2586,-63.7777"/>
<text text-anchor="middle" x="89.8026" y="-75.5401" font-family="Times New Roman,serif" font-size="14.00">Crafting 3</text>
</g>
<!-- Moonstone -->
<g id="node2" class="node"><title>Moonstone</title>
<ellipse fill="none" stroke="black" cx="139.803" cy="-122.74" rx="51.9908" ry="18"/>
<text text-anchor="middle" x="139.803" y="-119.04" font-family="Times New Roman,serif" font-size="14.00">Moonstone</text>
</g>
<!-- Moonstone&#45;&gt;Club
+ Medium_Damage -->
<g id="edge2" class="edge"><title>Moonstone&#45;&gt;Club
+ Medium_Damage</title>
<path fill="none" stroke="black" d="M133.098,-104.768C129.029,-94.9435 123.529,-82.4435 117.803,-71.7401 116.132,-68.6181 114.317,-65.424 112.441,-62.2529"/>
<polygon fill="black" stroke="black" points="115.264,-60.1605 107.06,-53.4563 109.292,-63.8132 115.264,-60.1605"/>
<text text-anchor="middle" x="153.803" y="-75.5401" font-family="Times New Roman,serif" font-size="14.00">Crafting 3</text>
</g>
</g>
</svg>
