<?xml version="1.0" encoding="UTF-8" standalone="no"?>
<!DOCTYPE svg PUBLIC "-//W3C//DTD SVG 1.1//EN"
 "http://www.w3.org/Graphics/SVG/1.1/DTD/svg11.dtd">
<!-- Generated by graphviz version 2.38.0 (20140413.2041)
 -->
<!-- Title: G Pages: 1 -->
<svg width="648pt" height="479pt"
 viewBox="0.00 0.00 647.89 479.00" xmlns="http://www.w3.org/2000/svg" xmlns:xlink="http://www.w3.org/1999/xlink">
<g id="graph0" class="graph" transform="scale(1 1) rotate(0) translate(4 475)">
<title>G</title>
<polygon fill="white" stroke="none" points="-4,4 -4,-475 643.893,-475 643.893,4 -4,4"/>
<!-- Pouch_Dust_Pixie -->
<g id="node1" class="node"><title>Pouch_Dust_Pixie</title>
<ellipse fill="none" stroke="black" cx="310.897" cy="-279" rx="78.7863" ry="18"/>
<text text-anchor="middle" x="310.897" y="-275.3" font-family="Times New Roman,serif" font-size="14.00">Pouch_Dust_Pixie</text>
</g>
<!-- Paw_A_Rabbit_A_Magic -->
<g id="node3" class="node"><title>Paw_A_Rabbit_A_Magic</title>
<ellipse fill="none" stroke="black" cx="236.897" cy="-192" rx="105.082" ry="18"/>
<text text-anchor="middle" x="236.897" y="-188.3" font-family="Times New Roman,serif" font-size="14.00">Paw_A_Rabbit_A_Magic</text>
</g>
<!-- Pouch_Dust_Pixie&#45;&gt;Paw_A_Rabbit_A_Magic -->
<g id="edge1" class="edge"><title>Pouch_Dust_Pixie&#45;&gt;Paw_A_Rabbit_A_Magic</title>
<path fill="none" stroke="black" d="M296.277,-261.207C285.503,-248.831 270.673,-231.796 258.529,-217.847"/>
<polygon fill="black" stroke="black" points="260.946,-215.293 251.74,-210.049 255.667,-219.89 260.946,-215.293"/>
<text text-anchor="middle" x="305.897" y="-231.8" font-family="Times New Roman,serif" font-size="14.00">Crafting 1</text>
</g>
<!-- Hair -->
<g id="node2" class="node"><title>Hair</title>
<ellipse fill="none" stroke="black" cx="34.8973" cy="-279" rx="27" ry="18"/>
<text text-anchor="middle" x="34.8973" y="-275.3" font-family="Times New Roman,serif" font-size="14.00">Hair</text>
</g>
<!-- Thread -->
<g id="node4" class="node"><title>Thread</title>
<ellipse fill="none" stroke="black" cx="62.8973" cy="-192" rx="36.2938" ry="18"/>
<text text-anchor="middle" x="62.8973" y="-188.3" font-family="Times New Roman,serif" font-size="14.00">Thread</text>
</g>
<!-- Hair&#45;&gt;Thread -->
<g id="edge8" class="edge"><title>Hair&#45;&gt;Thread</title>
<path fill="none" stroke="black" d="M40.4292,-261.207C44.3155,-249.409 49.5963,-233.378 54.0618,-219.822"/>
<polygon fill="black" stroke="black" points="57.4766,-220.642 57.2811,-210.049 50.828,-218.452 57.4766,-220.642"/>
<text text-anchor="middle" x="78.8973" y="-231.8" font-family="Times New Roman,serif" font-size="14.00">Crafting 0</text>
</g>
<!-- Rabbit_Paw_MagicAmulet -->
<g id="node7" class="node"><title>Rabbit_Paw_MagicAmulet</title>
<ellipse fill="none" stroke="black" cx="236.897" cy="-105" rx="108.581" ry="18"/>
<text text-anchor="middle" x="236.897" y="-101.3" font-family="Times New Roman,serif" font-size="14.00">Rabbit_Paw_MagicAmulet</text>
</g>
<!-- Paw_A_Rabbit_A_Magic&#45;&gt;Rabbit_Paw_MagicAmulet -->
<g id="edge3" class="edge"><title>Paw_A_Rabbit_A_Magic&#45;&gt;Rabbit_Paw_MagicAmulet</title>
<path fill="none" stroke="black" d="M236.897,-173.799C236.897,-162.163 236.897,-146.548 236.897,-133.237"/>
<polygon fill="black" stroke="black" points="240.397,-133.175 236.897,-123.175 233.397,-133.175 240.397,-133.175"/>
<text text-anchor="middle" x="264.897" y="-144.8" font-family="Times New Roman,serif" font-size="14.00">Crafting 1</text>
</g>
<!-- Thread&#45;&gt;Rabbit_Paw_MagicAmulet -->
<g id="edge4" class="edge"><title>Thread&#45;&gt;Rabbit_Paw_MagicAmulet</title>
<path fill="none" stroke="black" d="M87.8273,-178.822C115.657,-165.227 161.168,-142.994 194.594,-126.666"/>
<polygon fill="black" stroke="black" points="196.227,-129.763 203.676,-122.229 193.155,-123.473 196.227,-129.763"/>
<text text-anchor="middle" x="187.897" y="-144.8" font-family="Times New Roman,serif" font-size="14.00">Crafting 1</text>
</g>
<!-- Pouch_Dust_Bone -->
<g id="node5" class="node"><title>Pouch_Dust_Bone</title>
<ellipse fill="none" stroke="black" cx="137.897" cy="-366" rx="79.8859" ry="18"/>
<text text-anchor="middle" x="137.897" y="-362.3" font-family="Times New Roman,serif" font-size="14.00">Pouch_Dust_Bone</text>
</g>
<!-- Pouch_Dust_Bone&#45;&gt;Pouch_Dust_Pixie -->
<g id="edge5" class="edge"><title>Pouch_Dust_Bone&#45;&gt;Pouch_Dust_Pixie</title>
<path fill="none" stroke="black" d="M169.628,-349.41C197.917,-335.511 239.481,-315.089 270.207,-299.993"/>
<polygon fill="black" stroke="black" points="271.936,-303.043 279.368,-295.491 268.849,-296.76 271.936,-303.043"/>
<text text-anchor="middle" x="261.897" y="-318.8" font-family="Times New Roman,serif" font-size="14.00">Crafting 0</text>
</g>
<!-- Paw_A_Rabbit -->
<g id="node6" class="node"><title>Paw_A_Rabbit</title>
<ellipse fill="none" stroke="black" cx="146.897" cy="-279" rx="66.8882" ry="18"/>
<text text-anchor="middle" x="146.897" y="-275.3" font-family="Times New Roman,serif" font-size="14.00">Paw_A_Rabbit</text>
</g>
<!-- Paw_A_Rabbit&#45;&gt;Paw_A_Rabbit_A_Magic -->
<g id="edge6" class="edge"><title>Paw_A_Rabbit&#45;&gt;Paw_A_Rabbit_A_Magic</title>
<path fill="none" stroke="black" d="M164.25,-261.611C177.648,-248.958 196.383,-231.264 211.471,-217.013"/>
<polygon fill="black" stroke="black" points="214.115,-219.331 218.982,-209.92 209.308,-214.242 214.115,-219.331"/>
<text text-anchor="middle" x="224.897" y="-231.8" font-family="Times New Roman,serif" font-size="14.00">Crafting 1</text>
</g>
<!-- Rabbit_Paw_MagicBelt -->
<g id="node14" class="node"><title>Rabbit_Paw_MagicBelt</title>
<ellipse fill="none" stroke="black" cx="329.897" cy="-18" rx="96.6831" ry="18"/>
<text text-anchor="middle" x="329.897" y="-14.3" font-family="Times New Roman,serif" font-size="14.00">Rabbit_Paw_MagicBelt</text>
</g>
<!-- Rabbit_Paw_MagicAmulet&#45;&gt;Rabbit_Paw_MagicBelt -->
<g id="edge15" class="edge"><title>Rabbit_Paw_MagicAmulet&#45;&gt;Rabbit_Paw_MagicBelt</title>
<path fill="none" stroke="black" d="M255.271,-87.2067C269.155,-74.517 288.398,-56.9297 303.866,-42.7925"/>
<polygon fill="black" stroke="black" points="306.542,-45.0884 311.562,-35.7584 301.819,-39.9214 306.542,-45.0884"/>
<text text-anchor="middle" x="316.897" y="-57.8" font-family="Times New Roman,serif" font-size="14.00">Crafting 1</text>
</g>
<!-- Rope -->
<g id="node8" class="node"><title>Rope</title>
<ellipse fill="none" stroke="black" cx="402.897" cy="-105" rx="30.5947" ry="18"/>
<text text-anchor="middle" x="402.897" y="-101.3" font-family="Times New Roman,serif" font-size="14.00">Rope</text>
</g>
<!-- Rope&#45;&gt;Rabbit_Paw_MagicBelt -->
<g id="edge2" class="edge"><title>Rope&#45;&gt;Rabbit_Paw_MagicBelt</title>
<path fill="none" stroke="black" d="M389.508,-88.4097C378.742,-75.8737 363.418,-58.0314 351.004,-43.5761"/>
<polygon fill="black" stroke="black" points="353.624,-41.2549 344.454,-35.949 348.314,-45.8156 353.624,-41.2549"/>
<text text-anchor="middle" x="397.897" y="-57.8" font-family="Times New Roman,serif" font-size="14.00">Crafting 1</text>
</g>
<!-- Moonstone -->
<g id="node9" class="node"><title>Moonstone</title>
<ellipse fill="none" stroke="black" cx="587.897" cy="-453" rx="51.9908" ry="18"/>
<text text-anchor="middle" x="587.897" y="-449.3" font-family="Times New Roman,serif" font-size="14.00">Moonstone</text>
</g>
<!-- Pouch_Dust_Moon -->
<g id="node18" class="node"><title>Pouch_Dust_Moon</title>
<ellipse fill="none" stroke="black" cx="487.897" cy="-366" rx="83.3857" ry="18"/>
<text text-anchor="middle" x="487.897" y="-362.3" font-family="Times New Roman,serif" font-size="14.00">Pouch_Dust_Moon</text>
</g>
<!-- Moonstone&#45;&gt;Pouch_Dust_Moon -->
<g id="edge9" class="edge"><title>Moonstone&#45;&gt;Pouch_Dust_Moon</title>
<path fill="none" stroke="black" d="M569.088,-436.012C554.016,-423.2 532.647,-405.037 515.615,-390.56"/>
<polygon fill="black" stroke="black" points="517.535,-387.598 507.649,-383.789 513.001,-392.932 517.535,-387.598"/>
<text text-anchor="middle" x="570.897" y="-405.8" font-family="Times New Roman,serif" font-size="14.00">Crafting 0</text>
</g>
<!-- Pouch_Dust_Star -->
<g id="node10" class="node"><title>Pouch_Dust_Star</title>
<ellipse fill="none" stroke="black" cx="310.897" cy="-366" rx="75.2868" ry="18"/>
<text text-anchor="middle" x="310.897" y="-362.3" font-family="Times New Roman,serif" font-size="14.00">Pouch_Dust_Star</text>
</g>
<!-- Pouch_Dust_Star&#45;&gt;Pouch_Dust_Pixie -->
<g id="edge10" class="edge"><title>Pouch_Dust_Star&#45;&gt;Pouch_Dust_Pixie</title>
<path fill="none" stroke="black" d="M310.897,-347.799C310.897,-336.163 310.897,-320.548 310.897,-307.237"/>
<polygon fill="black" stroke="black" points="314.397,-307.175 310.897,-297.175 307.397,-307.175 314.397,-307.175"/>
<text text-anchor="middle" x="338.897" y="-318.8" font-family="Times New Roman,serif" font-size="14.00">Crafting 0</text>
</g>
<!-- MortarPestle -->
<g id="node11" class="node"><title>MortarPestle</title>
<ellipse fill="none" stroke="black" cx="295.897" cy="-453" rx="57.3905" ry="18"/>
<text text-anchor="middle" x="295.897" y="-449.3" font-family="Times New Roman,serif" font-size="14.00">MortarPestle</text>
</g>
<!-- MortarPestle&#45;&gt;Pouch_Dust_Bone -->
<g id="edge16" class="edge"><title>MortarPestle&#45;&gt;Pouch_Dust_Bone</title>
<path fill="none" stroke="black" d="M268.376,-437.194C242.846,-423.46 204.613,-402.891 176.124,-387.565"/>
<polygon fill="black" stroke="black" points="177.71,-384.444 167.246,-382.789 174.394,-390.609 177.71,-384.444"/>
<text text-anchor="middle" x="253.897" y="-405.8" font-family="Times New Roman,serif" font-size="14.00">Crafting 0</text>
</g>
<!-- MortarPestle&#45;&gt;Pouch_Dust_Star -->
<g id="edge17" class="edge"><title>MortarPestle&#45;&gt;Pouch_Dust_Star</title>
<path fill="none" stroke="black" d="M294.726,-434.708C294.445,-425.001 294.721,-412.721 296.897,-402 297.452,-399.268 298.209,-396.476 299.087,-393.721"/>
<polygon fill="black" stroke="black" points="302.471,-394.659 302.644,-384.066 295.903,-392.239 302.471,-394.659"/>
<text text-anchor="middle" x="324.897" y="-405.8" font-family="Times New Roman,serif" font-size="14.00">Crafting 0</text>
</g>
<!-- MortarPestle&#45;&gt;Pouch_Dust_Moon -->
<g id="edge18" class="edge"><title>MortarPestle&#45;&gt;Pouch_Dust_Moon</title>
<path fill="none" stroke="black" d="M321.846,-436.948C331.731,-430.986 342.995,-423.913 352.897,-417 361.719,-410.841 362.358,-406.975 371.897,-402 387.411,-393.91 405.09,-387.382 421.888,-382.256"/>
<polygon fill="black" stroke="black" points="423.039,-385.566 431.654,-379.398 421.073,-378.847 423.039,-385.566"/>
<text text-anchor="middle" x="399.897" y="-405.8" font-family="Times New Roman,serif" font-size="14.00">Crafting 0</text>
</g>
<!-- Skull_Human -->
<g id="node12" class="node"><title>Skull_Human</title>
<ellipse fill="none" stroke="black" cx="137.897" cy="-453" rx="59.5901" ry="18"/>
<text text-anchor="middle" x="137.897" y="-449.3" font-family="Times New Roman,serif" font-size="14.00">Skull_Human</text>
</g>
<!-- Skull_Human&#45;&gt;Pouch_Dust_Bone -->
<g id="edge12" class="edge"><title>Skull_Human&#45;&gt;Pouch_Dust_Bone</title>
<path fill="none" stroke="black" d="M137.897,-434.799C137.897,-423.163 137.897,-407.548 137.897,-394.237"/>
<polygon fill="black" stroke="black" points="141.397,-394.175 137.897,-384.175 134.397,-394.175 141.397,-394.175"/>
<text text-anchor="middle" x="165.897" y="-405.8" font-family="Times New Roman,serif" font-size="14.00">Crafting 0</text>
</g>
<!-- Herb_Stardust -->
<g id="node13" class="node"><title>Herb_Stardust</title>
<ellipse fill="none" stroke="black" cx="453.897" cy="-453" rx="63.8893" ry="18"/>
<text text-anchor="middle" x="453.897" y="-449.3" font-family="Times New Roman,serif" font-size="14.00">Herb_Stardust</text>
</g>
<!-- Herb_Stardust&#45;&gt;Pouch_Dust_Star -->
<g id="edge13" class="edge"><title>Herb_Stardust&#45;&gt;Pouch_Dust_Star</title>
<path fill="none" stroke="black" d="M450.325,-434.94C447.205,-424.075 441.603,-410.494 431.897,-402 422.966,-394.184 399.856,-386.703 376.195,-380.679"/>
<polygon fill="black" stroke="black" points="376.967,-377.265 366.42,-378.275 375.295,-384.062 376.967,-377.265"/>
<text text-anchor="middle" x="469.897" y="-405.8" font-family="Times New Roman,serif" font-size="14.00">Crafting 0</text>
</g>
<!-- Wool -->
<g id="node15" class="node"><title>Wool</title>
<ellipse fill="none" stroke="black" cx="438.897" cy="-279" rx="31.3957" ry="18"/>
<text text-anchor="middle" x="438.897" y="-275.3" font-family="Times New Roman,serif" font-size="14.00">Wool</text>
</g>
<!-- Yarn_A_Wool -->
<g id="node16" class="node"><title>Yarn_A_Wool</title>
<ellipse fill="none" stroke="black" cx="431.897" cy="-192" rx="64.9885" ry="18"/>
<text text-anchor="middle" x="431.897" y="-188.3" font-family="Times New Roman,serif" font-size="14.00">Yarn_A_Wool</text>
</g>
<!-- Wool&#45;&gt;Yarn_A_Wool -->
<g id="edge14" class="edge"><title>Wool&#45;&gt;Yarn_A_Wool</title>
<path fill="none" stroke="black" d="M437.481,-260.799C436.523,-249.163 435.237,-233.548 434.14,-220.237"/>
<polygon fill="black" stroke="black" points="437.621,-219.854 433.312,-210.175 430.644,-220.429 437.621,-219.854"/>
<text text-anchor="middle" x="462.897" y="-231.8" font-family="Times New Roman,serif" font-size="14.00">Crafting 0</text>
</g>
<!-- Yarn_A_Wool&#45;&gt;Rope -->
<g id="edge7" class="edge"><title>Yarn_A_Wool&#45;&gt;Rope</title>
<path fill="none" stroke="black" d="M426.029,-173.799C421.993,-161.97 416.555,-146.03 411.965,-132.578"/>
<polygon fill="black" stroke="black" points="415.2,-131.22 408.658,-122.885 408.575,-133.48 415.2,-131.22"/>
<text text-anchor="middle" x="446.897" y="-144.8" font-family="Times New Roman,serif" font-size="14.00">Crafting 0</text>
</g>
<!-- Bone -->
<g id="node17" class="node"><title>Bone</title>
<ellipse fill="none" stroke="black" cx="29.8973" cy="-453" rx="29.795" ry="18"/>
<text text-anchor="middle" x="29.8973" y="-449.3" font-family="Times New Roman,serif" font-size="14.00">Bone</text>
</g>
<!-- Bone&#45;&gt;Pouch_Dust_Bone -->
<g id="edge11" class="edge"><title>Bone&#45;&gt;Pouch_Dust_Bone</title>
<path fill="none" stroke="black" d="M42.7743,-436.471C51.921,-425.999 64.8499,-412.272 77.8973,-402 84.2266,-397.017 91.3378,-392.252 98.392,-387.929"/>
<polygon fill="black" stroke="black" points="100.402,-390.807 107.234,-382.709 96.8433,-384.779 100.402,-390.807"/>
<text text-anchor="middle" x="105.897" y="-405.8" font-family="Times New Roman,serif" font-size="14.00">Crafting 0</text>
</g>
<!-- Pouch_Dust_Moon&#45;&gt;Pouch_Dust_Pixie -->
<g id="edge19" class="edge"><title>Pouch_Dust_Moon&#45;&gt;Pouch_Dust_Pixie</title>
<path fill="none" stroke="black" d="M455.433,-349.41C426.49,-335.511 383.965,-315.089 352.529,-299.993"/>
<polygon fill="black" stroke="black" points="353.686,-296.665 343.156,-295.491 350.655,-302.976 353.686,-296.665"/>
<text text-anchor="middle" x="437.897" y="-318.8" font-family="Times New Roman,serif" font-size="14.00">Crafting 0</text>
</g>
</g>
</svg>
