<?xml version="1.0" encoding="UTF-8" standalone="no"?>
<!DOCTYPE svg PUBLIC "-//W3C//DTD SVG 1.1//EN"
 "http://www.w3.org/Graphics/SVG/1.1/DTD/svg11.dtd">
<!-- Generated by graphviz version 2.38.0 (20140413.2041)
 -->
<!-- Title: G Pages: 1 -->
<svg width="760pt" height="566pt"
 viewBox="0.00 0.00 759.90 566.00" xmlns="http://www.w3.org/2000/svg" xmlns:xlink="http://www.w3.org/1999/xlink">
<g id="graph0" class="graph" transform="scale(1 1) rotate(0) translate(4 562)">
<title>G</title>
<polygon fill="white" stroke="none" points="-4,4 -4,-562 755.897,-562 755.897,4 -4,4"/>
<!-- Pouch_Dust_Pixie -->
<g id="node1" class="node"><title>Pouch_Dust_Pixie</title>
<ellipse fill="none" stroke="black" cx="310.897" cy="-366" rx="78.7863" ry="18"/>
<text text-anchor="middle" x="310.897" y="-362.3" font-family="Times New Roman,serif" font-size="14.00">Pouch_Dust_Pixie</text>
</g>
<!-- Paw_A_Rabbit_A_Magic -->
<g id="node4" class="node"><title>Paw_A_Rabbit_A_Magic</title>
<ellipse fill="none" stroke="black" cx="450.897" cy="-279" rx="105.082" ry="18"/>
<text text-anchor="middle" x="450.897" y="-275.3" font-family="Times New Roman,serif" font-size="14.00">Paw_A_Rabbit_A_Magic</text>
</g>
<!-- Pouch_Dust_Pixie&#45;&gt;Paw_A_Rabbit_A_Magic -->
<g id="edge1" class="edge"><title>Pouch_Dust_Pixie&#45;&gt;Paw_A_Rabbit_A_Magic</title>
<path fill="none" stroke="black" d="M337.23,-349.012C359.24,-335.649 390.84,-316.463 415.138,-301.711"/>
<polygon fill="black" stroke="black" points="416.996,-304.678 423.728,-296.496 413.363,-298.694 416.996,-304.678"/>
<text text-anchor="middle" x="416.897" y="-318.8" font-family="Times New Roman,serif" font-size="14.00">Crafting 1</text>
</g>
<!-- Hair -->
<g id="node2" class="node"><title>Hair</title>
<ellipse fill="none" stroke="black" cx="610.897" cy="-366" rx="27" ry="18"/>
<text text-anchor="middle" x="610.897" y="-362.3" font-family="Times New Roman,serif" font-size="14.00">Hair</text>
</g>
<!-- Thread -->
<g id="node5" class="node"><title>Thread</title>
<ellipse fill="none" stroke="black" cx="610.897" cy="-279" rx="36.2938" ry="18"/>
<text text-anchor="middle" x="610.897" y="-275.3" font-family="Times New Roman,serif" font-size="14.00">Thread</text>
</g>
<!-- Hair&#45;&gt;Thread -->
<g id="edge10" class="edge"><title>Hair&#45;&gt;Thread</title>
<path fill="none" stroke="black" d="M610.897,-347.799C610.897,-336.163 610.897,-320.548 610.897,-307.237"/>
<polygon fill="black" stroke="black" points="614.397,-307.175 610.897,-297.175 607.397,-307.175 614.397,-307.175"/>
<text text-anchor="middle" x="638.897" y="-318.8" font-family="Times New Roman,serif" font-size="14.00">Crafting 0</text>
</g>
<!-- String_Bow -->
<g id="node3" class="node"><title>String_Bow</title>
<ellipse fill="none" stroke="black" cx="693.897" cy="-192" rx="53.8905" ry="18"/>
<text text-anchor="middle" x="693.897" y="-188.3" font-family="Times New Roman,serif" font-size="14.00">String_Bow</text>
</g>
<!-- Rabbit_Paw_SuperAmulet -->
<g id="node14" class="node"><title>Rabbit_Paw_SuperAmulet</title>
<ellipse fill="none" stroke="black" cx="509.897" cy="-105" rx="107.781" ry="18"/>
<text text-anchor="middle" x="509.897" y="-101.3" font-family="Times New Roman,serif" font-size="14.00">Rabbit_Paw_SuperAmulet</text>
</g>
<!-- String_Bow&#45;&gt;Rabbit_Paw_SuperAmulet -->
<g id="edge2" class="edge"><title>String_Bow&#45;&gt;Rabbit_Paw_SuperAmulet</title>
<path fill="none" stroke="black" d="M663.513,-176.964C633.657,-163.172 587.778,-141.978 553.928,-126.34"/>
<polygon fill="black" stroke="black" points="555.269,-123.104 544.723,-122.088 552.333,-129.459 555.269,-123.104"/>
<text text-anchor="middle" x="640.897" y="-144.8" font-family="Times New Roman,serif" font-size="14.00">Crafting 3</text>
</g>
<!-- Rabbit_Paw_MagicAmulet -->
<g id="node6" class="node"><title>Rabbit_Paw_MagicAmulet</title>
<ellipse fill="none" stroke="black" cx="509.897" cy="-192" rx="108.581" ry="18"/>
<text text-anchor="middle" x="509.897" y="-188.3" font-family="Times New Roman,serif" font-size="14.00">Rabbit_Paw_MagicAmulet</text>
</g>
<!-- Paw_A_Rabbit_A_Magic&#45;&gt;Rabbit_Paw_MagicAmulet -->
<g id="edge3" class="edge"><title>Paw_A_Rabbit_A_Magic&#45;&gt;Rabbit_Paw_MagicAmulet</title>
<path fill="none" stroke="black" d="M462.837,-260.799C471.234,-248.702 482.615,-232.305 492.082,-218.667"/>
<polygon fill="black" stroke="black" points="495.149,-220.386 497.976,-210.175 489.398,-216.395 495.149,-220.386"/>
<text text-anchor="middle" x="511.897" y="-231.8" font-family="Times New Roman,serif" font-size="14.00">Crafting 1</text>
</g>
<!-- Thread&#45;&gt;Rabbit_Paw_MagicAmulet -->
<g id="edge4" class="edge"><title>Thread&#45;&gt;Rabbit_Paw_MagicAmulet</title>
<path fill="none" stroke="black" d="M593.304,-263.194C578.013,-250.325 555.591,-231.455 537.845,-216.521"/>
<polygon fill="black" stroke="black" points="539.968,-213.732 530.063,-209.971 535.461,-219.088 539.968,-213.732"/>
<text text-anchor="middle" x="593.897" y="-231.8" font-family="Times New Roman,serif" font-size="14.00">Crafting 1</text>
</g>
<!-- Rabbit_Paw_MagicAmulet&#45;&gt;Rabbit_Paw_SuperAmulet -->
<g id="edge18" class="edge"><title>Rabbit_Paw_MagicAmulet&#45;&gt;Rabbit_Paw_SuperAmulet</title>
<path fill="none" stroke="black" d="M509.897,-173.799C509.897,-162.163 509.897,-146.548 509.897,-133.237"/>
<polygon fill="black" stroke="black" points="513.397,-133.175 509.897,-123.175 506.397,-133.175 513.397,-133.175"/>
<text text-anchor="middle" x="537.897" y="-144.8" font-family="Times New Roman,serif" font-size="14.00">Crafting 3</text>
</g>
<!-- Pouch_Dust_Bone -->
<g id="node7" class="node"><title>Pouch_Dust_Bone</title>
<ellipse fill="none" stroke="black" cx="137.897" cy="-453" rx="79.8859" ry="18"/>
<text text-anchor="middle" x="137.897" y="-449.3" font-family="Times New Roman,serif" font-size="14.00">Pouch_Dust_Bone</text>
</g>
<!-- Pouch_Dust_Bone&#45;&gt;Pouch_Dust_Pixie -->
<g id="edge6" class="edge"><title>Pouch_Dust_Bone&#45;&gt;Pouch_Dust_Pixie</title>
<path fill="none" stroke="black" d="M169.628,-436.41C197.917,-422.511 239.481,-402.089 270.207,-386.993"/>
<polygon fill="black" stroke="black" points="271.936,-390.043 279.368,-382.491 268.849,-383.76 271.936,-390.043"/>
<text text-anchor="middle" x="261.897" y="-405.8" font-family="Times New Roman,serif" font-size="14.00">Crafting 0</text>
</g>
<!-- Paw_A_Rabbit -->
<g id="node8" class="node"><title>Paw_A_Rabbit</title>
<ellipse fill="none" stroke="black" cx="474.897" cy="-366" rx="66.8882" ry="18"/>
<text text-anchor="middle" x="474.897" y="-362.3" font-family="Times New Roman,serif" font-size="14.00">Paw_A_Rabbit</text>
</g>
<!-- Paw_A_Rabbit&#45;&gt;Paw_A_Rabbit_A_Magic -->
<g id="edge7" class="edge"><title>Paw_A_Rabbit&#45;&gt;Paw_A_Rabbit_A_Magic</title>
<path fill="none" stroke="black" d="M470.041,-347.799C466.722,-336.047 462.259,-320.238 458.476,-306.842"/>
<polygon fill="black" stroke="black" points="461.833,-305.848 455.747,-297.175 455.096,-307.75 461.833,-305.848"/>
<text text-anchor="middle" x="491.897" y="-318.8" font-family="Times New Roman,serif" font-size="14.00">Crafting 1</text>
</g>
<!-- Rabbit_Paw_SuperBelt -->
<g id="node9" class="node"><title>Rabbit_Paw_SuperBelt</title>
<ellipse fill="none" stroke="black" cx="436.897" cy="-18" rx="96.3833" ry="18"/>
<text text-anchor="middle" x="436.897" y="-14.3" font-family="Times New Roman,serif" font-size="14.00">Rabbit_Paw_SuperBelt</text>
</g>
<!-- Sinew -->
<g id="node10" class="node"><title>Sinew</title>
<ellipse fill="none" stroke="black" cx="697.897" cy="-279" rx="32.4942" ry="18"/>
<text text-anchor="middle" x="697.897" y="-275.3" font-family="Times New Roman,serif" font-size="14.00">Sinew</text>
</g>
<!-- Sinew&#45;&gt;String_Bow -->
<g id="edge9" class="edge"><title>Sinew&#45;&gt;String_Bow</title>
<path fill="none" stroke="black" d="M697.088,-260.799C696.54,-249.163 695.805,-233.548 695.179,-220.237"/>
<polygon fill="black" stroke="black" points="698.672,-220 694.706,-210.175 691.68,-220.329 698.672,-220"/>
<text text-anchor="middle" x="723.897" y="-231.8" font-family="Times New Roman,serif" font-size="14.00">Crafting 0</text>
</g>
<!-- Rope -->
<g id="node11" class="node"><title>Rope</title>
<ellipse fill="none" stroke="black" cx="342.897" cy="-105" rx="30.5947" ry="18"/>
<text text-anchor="middle" x="342.897" y="-101.3" font-family="Times New Roman,serif" font-size="14.00">Rope</text>
</g>
<!-- Rope&#45;&gt;Rabbit_Paw_SuperBelt -->
<g id="edge12" class="edge"><title>Rope&#45;&gt;Rabbit_Paw_SuperBelt</title>
<path fill="none" stroke="black" d="M358.843,-89.5809C372.978,-76.7998 393.894,-57.8857 410.518,-42.8535"/>
<polygon fill="black" stroke="black" points="413.216,-45.1329 418.286,-35.8298 408.521,-39.9408 413.216,-45.1329"/>
<text text-anchor="middle" x="422.897" y="-57.8" font-family="Times New Roman,serif" font-size="14.00">Crafting 3</text>
</g>
<!-- Moonstone -->
<g id="node12" class="node"><title>Moonstone</title>
<ellipse fill="none" stroke="black" cx="587.897" cy="-540" rx="51.9908" ry="18"/>
<text text-anchor="middle" x="587.897" y="-536.3" font-family="Times New Roman,serif" font-size="14.00">Moonstone</text>
</g>
<!-- Pouch_Dust_Moon -->
<g id="node21" class="node"><title>Pouch_Dust_Moon</title>
<ellipse fill="none" stroke="black" cx="487.897" cy="-453" rx="83.3857" ry="18"/>
<text text-anchor="middle" x="487.897" y="-449.3" font-family="Times New Roman,serif" font-size="14.00">Pouch_Dust_Moon</text>
</g>
<!-- Moonstone&#45;&gt;Pouch_Dust_Moon -->
<g id="edge11" class="edge"><title>Moonstone&#45;&gt;Pouch_Dust_Moon</title>
<path fill="none" stroke="black" d="M569.088,-523.012C554.016,-510.2 532.647,-492.037 515.615,-477.56"/>
<polygon fill="black" stroke="black" points="517.535,-474.598 507.649,-470.789 513.001,-479.932 517.535,-474.598"/>
<text text-anchor="middle" x="570.897" y="-492.8" font-family="Times New Roman,serif" font-size="14.00">Crafting 0</text>
</g>
<!-- Pouch_Dust_Star -->
<g id="node13" class="node"><title>Pouch_Dust_Star</title>
<ellipse fill="none" stroke="black" cx="310.897" cy="-453" rx="75.2868" ry="18"/>
<text text-anchor="middle" x="310.897" y="-449.3" font-family="Times New Roman,serif" font-size="14.00">Pouch_Dust_Star</text>
</g>
<!-- Pouch_Dust_Star&#45;&gt;Pouch_Dust_Pixie -->
<g id="edge16" class="edge"><title>Pouch_Dust_Star&#45;&gt;Pouch_Dust_Pixie</title>
<path fill="none" stroke="black" d="M310.897,-434.799C310.897,-423.163 310.897,-407.548 310.897,-394.237"/>
<polygon fill="black" stroke="black" points="314.397,-394.175 310.897,-384.175 307.397,-394.175 314.397,-394.175"/>
<text text-anchor="middle" x="338.897" y="-405.8" font-family="Times New Roman,serif" font-size="14.00">Crafting 0</text>
</g>
<!-- Rabbit_Paw_SuperAmulet&#45;&gt;Rabbit_Paw_SuperBelt -->
<g id="edge13" class="edge"><title>Rabbit_Paw_SuperAmulet&#45;&gt;Rabbit_Paw_SuperBelt</title>
<path fill="none" stroke="black" d="M495.125,-86.799C484.468,-74.3902 469.926,-57.4575 458.04,-43.6185"/>
<polygon fill="black" stroke="black" points="460.569,-41.1913 451.399,-35.8854 455.259,-45.752 460.569,-41.1913"/>
<text text-anchor="middle" x="504.897" y="-57.8" font-family="Times New Roman,serif" font-size="14.00">Crafting 3</text>
</g>
<!-- Skull_Human -->
<g id="node15" class="node"><title>Skull_Human</title>
<ellipse fill="none" stroke="black" cx="137.897" cy="-540" rx="59.5901" ry="18"/>
<text text-anchor="middle" x="137.897" y="-536.3" font-family="Times New Roman,serif" font-size="14.00">Skull_Human</text>
</g>
<!-- Skull_Human&#45;&gt;Pouch_Dust_Bone -->
<g id="edge14" class="edge"><title>Skull_Human&#45;&gt;Pouch_Dust_Bone</title>
<path fill="none" stroke="black" d="M137.897,-521.799C137.897,-510.163 137.897,-494.548 137.897,-481.237"/>
<polygon fill="black" stroke="black" points="141.397,-481.175 137.897,-471.175 134.397,-481.175 141.397,-481.175"/>
<text text-anchor="middle" x="165.897" y="-492.8" font-family="Times New Roman,serif" font-size="14.00">Crafting 0</text>
</g>
<!-- MortarPestle -->
<g id="node16" class="node"><title>MortarPestle</title>
<ellipse fill="none" stroke="black" cx="295.897" cy="-540" rx="57.3905" ry="18"/>
<text text-anchor="middle" x="295.897" y="-536.3" font-family="Times New Roman,serif" font-size="14.00">MortarPestle</text>
</g>
<!-- MortarPestle&#45;&gt;Pouch_Dust_Bone -->
<g id="edge19" class="edge"><title>MortarPestle&#45;&gt;Pouch_Dust_Bone</title>
<path fill="none" stroke="black" d="M268.376,-524.194C242.846,-510.46 204.613,-489.891 176.124,-474.565"/>
<polygon fill="black" stroke="black" points="177.71,-471.444 167.246,-469.789 174.394,-477.609 177.71,-471.444"/>
<text text-anchor="middle" x="253.897" y="-492.8" font-family="Times New Roman,serif" font-size="14.00">Crafting 0</text>
</g>
<!-- MortarPestle&#45;&gt;Pouch_Dust_Star -->
<g id="edge20" class="edge"><title>MortarPestle&#45;&gt;Pouch_Dust_Star</title>
<path fill="none" stroke="black" d="M294.726,-521.708C294.445,-512.001 294.721,-499.721 296.897,-489 297.452,-486.268 298.209,-483.476 299.087,-480.721"/>
<polygon fill="black" stroke="black" points="302.471,-481.659 302.644,-471.066 295.903,-479.239 302.471,-481.659"/>
<text text-anchor="middle" x="324.897" y="-492.8" font-family="Times New Roman,serif" font-size="14.00">Crafting 0</text>
</g>
<!-- MortarPestle&#45;&gt;Pouch_Dust_Moon -->
<g id="edge21" class="edge"><title>MortarPestle&#45;&gt;Pouch_Dust_Moon</title>
<path fill="none" stroke="black" d="M321.846,-523.948C331.731,-517.986 342.995,-510.913 352.897,-504 361.719,-497.841 362.358,-493.975 371.897,-489 387.411,-480.91 405.09,-474.382 421.888,-469.256"/>
<polygon fill="black" stroke="black" points="423.039,-472.566 431.654,-466.398 421.073,-465.847 423.039,-472.566"/>
<text text-anchor="middle" x="399.897" y="-492.8" font-family="Times New Roman,serif" font-size="14.00">Crafting 0</text>
</g>
<!-- Herb_Stardust -->
<g id="node17" class="node"><title>Herb_Stardust</title>
<ellipse fill="none" stroke="black" cx="453.897" cy="-540" rx="63.8893" ry="18"/>
<text text-anchor="middle" x="453.897" y="-536.3" font-family="Times New Roman,serif" font-size="14.00">Herb_Stardust</text>
</g>
<!-- Herb_Stardust&#45;&gt;Pouch_Dust_Star -->
<g id="edge15" class="edge"><title>Herb_Stardust&#45;&gt;Pouch_Dust_Star</title>
<path fill="none" stroke="black" d="M450.325,-521.94C447.205,-511.075 441.603,-497.494 431.897,-489 422.966,-481.184 399.856,-473.703 376.195,-467.679"/>
<polygon fill="black" stroke="black" points="376.967,-464.265 366.42,-465.275 375.295,-471.062 376.967,-464.265"/>
<text text-anchor="middle" x="469.897" y="-492.8" font-family="Times New Roman,serif" font-size="14.00">Crafting 0</text>
</g>
<!-- Wool -->
<g id="node18" class="node"><title>Wool</title>
<ellipse fill="none" stroke="black" cx="296.897" cy="-279" rx="31.3957" ry="18"/>
<text text-anchor="middle" x="296.897" y="-275.3" font-family="Times New Roman,serif" font-size="14.00">Wool</text>
</g>
<!-- Yarn_A_Wool -->
<g id="node19" class="node"><title>Yarn_A_Wool</title>
<ellipse fill="none" stroke="black" cx="310.897" cy="-192" rx="64.9885" ry="18"/>
<text text-anchor="middle" x="310.897" y="-188.3" font-family="Times New Roman,serif" font-size="14.00">Yarn_A_Wool</text>
</g>
<!-- Wool&#45;&gt;Yarn_A_Wool -->
<g id="edge17" class="edge"><title>Wool&#45;&gt;Yarn_A_Wool</title>
<path fill="none" stroke="black" d="M299.73,-260.799C301.647,-249.163 304.219,-233.548 306.411,-220.237"/>
<polygon fill="black" stroke="black" points="309.897,-220.611 308.068,-210.175 302.99,-219.474 309.897,-220.611"/>
<text text-anchor="middle" x="331.897" y="-231.8" font-family="Times New Roman,serif" font-size="14.00">Crafting 0</text>
</g>
<!-- Yarn_A_Wool&#45;&gt;Rope -->
<g id="edge8" class="edge"><title>Yarn_A_Wool&#45;&gt;Rope</title>
<path fill="none" stroke="black" d="M317.373,-173.799C321.826,-161.97 327.827,-146.03 332.892,-132.578"/>
<polygon fill="black" stroke="black" points="336.293,-133.477 336.541,-122.885 329.742,-131.011 336.293,-133.477"/>
<text text-anchor="middle" x="355.897" y="-144.8" font-family="Times New Roman,serif" font-size="14.00">Crafting 0</text>
</g>
<!-- Bone -->
<g id="node20" class="node"><title>Bone</title>
<ellipse fill="none" stroke="black" cx="29.8973" cy="-540" rx="29.795" ry="18"/>
<text text-anchor="middle" x="29.8973" y="-536.3" font-family="Times New Roman,serif" font-size="14.00">Bone</text>
</g>
<!-- Bone&#45;&gt;Pouch_Dust_Bone -->
<g id="edge5" class="edge"><title>Bone&#45;&gt;Pouch_Dust_Bone</title>
<path fill="none" stroke="black" d="M42.7743,-523.471C51.921,-512.999 64.8499,-499.272 77.8973,-489 84.2266,-484.017 91.3378,-479.252 98.392,-474.929"/>
<polygon fill="black" stroke="black" points="100.402,-477.807 107.234,-469.709 96.8433,-471.779 100.402,-477.807"/>
<text text-anchor="middle" x="105.897" y="-492.8" font-family="Times New Roman,serif" font-size="14.00">Crafting 0</text>
</g>
<!-- Pouch_Dust_Moon&#45;&gt;Pouch_Dust_Pixie -->
<g id="edge22" class="edge"><title>Pouch_Dust_Moon&#45;&gt;Pouch_Dust_Pixie</title>
<path fill="none" stroke="black" d="M455.433,-436.41C426.49,-422.511 383.965,-402.089 352.529,-386.993"/>
<polygon fill="black" stroke="black" points="353.686,-383.665 343.156,-382.491 350.655,-389.976 353.686,-383.665"/>
<text text-anchor="middle" x="437.897" y="-405.8" font-family="Times New Roman,serif" font-size="14.00">Crafting 0</text>
</g>
</g>
</svg>
