<?xml version="1.0" encoding="UTF-8" standalone="no"?>
<!DOCTYPE svg PUBLIC "-//W3C//DTD SVG 1.1//EN"
 "http://www.w3.org/Graphics/SVG/1.1/DTD/svg11.dtd">
<!-- Generated by graphviz version 2.38.0 (20140413.2041)
 -->
<!-- Title: G Pages: 1 -->
<svg width="304pt" height="131pt"
 viewBox="0.00 0.00 303.89 131.00" xmlns="http://www.w3.org/2000/svg" xmlns:xlink="http://www.w3.org/1999/xlink">
<g id="graph0" class="graph" transform="scale(1 1) rotate(0) translate(4 127)">
<title>G</title>
<polygon fill="white" stroke="none" points="-4,4 -4,-127 299.894,-127 299.894,4 -4,4"/>
<!-- Scraps_Metal -->
<g id="node1" class="node"><title>Scraps_Metal</title>
<ellipse fill="none" stroke="black" cx="74.8939" cy="-105" rx="61.1893" ry="18"/>
<text text-anchor="middle" x="74.8939" y="-101.3" font-family="Times New Roman,serif" font-size="14.00">Scraps_Metal</text>
</g>
<!-- Metal_C_Boots -->
<g id="node2" class="node"><title>Metal_C_Boots</title>
<ellipse fill="none" stroke="black" cx="68.8939" cy="-18" rx="68.7879" ry="18"/>
<text text-anchor="middle" x="68.8939" y="-14.3" font-family="Times New Roman,serif" font-size="14.00">Metal_C_Boots</text>
</g>
<!-- Scraps_Metal&#45;&gt;Metal_C_Boots -->
<g id="edge1" class="edge"><title>Scraps_Metal&#45;&gt;Metal_C_Boots</title>
<path fill="none" stroke="black" d="M43.5184,-89.3671C35.6991,-84.1104 28.2968,-77.3616 23.8939,-69 18.5377,-58.828 23.9542,-49.0859 32.6507,-40.947"/>
<polygon fill="black" stroke="black" points="35.0122,-43.5378 40.5627,-34.5132 30.5959,-38.1068 35.0122,-43.5378"/>
<text text-anchor="middle" x="51.8939" y="-57.8" font-family="Times New Roman,serif" font-size="14.00">Crafting 3</text>
</g>
<!-- Chain_Boots -->
<g id="node3" class="node"><title>Chain_Boots</title>
<ellipse fill="none" stroke="black" cx="236.894" cy="-18" rx="58.4896" ry="18"/>
<text text-anchor="middle" x="236.894" y="-14.3" font-family="Times New Roman,serif" font-size="14.00">Chain_Boots</text>
</g>
<!-- Scraps_Metal&#45;&gt;Chain_Boots -->
<g id="edge2" class="edge"><title>Scraps_Metal&#45;&gt;Chain_Boots</title>
<path fill="none" stroke="black" d="M79.0901,-86.8075C82.6196,-75.8863 88.7597,-62.2934 98.8939,-54 105.466,-48.6217 144.754,-38.9308 179.737,-31.1078"/>
<polygon fill="black" stroke="black" points="180.928,-34.4292 189.936,-28.8517 179.416,-27.5944 180.928,-34.4292"/>
<text text-anchor="middle" x="126.894" y="-57.8" font-family="Times New Roman,serif" font-size="14.00">Crafting 4</text>
</g>
<!-- Anvil -->
<g id="node4" class="node"><title>Anvil</title>
<ellipse fill="none" stroke="black" cx="207.894" cy="-105" rx="29.795" ry="18"/>
<text text-anchor="middle" x="207.894" y="-101.3" font-family="Times New Roman,serif" font-size="14.00">Anvil</text>
</g>
<!-- Anvil&#45;&gt;Metal_C_Boots -->
<g id="edge3" class="edge"><title>Anvil&#45;&gt;Metal_C_Boots</title>
<path fill="none" stroke="black" d="M195.578,-88.2772C186.42,-77.4455 173.097,-63.3704 158.894,-54 147.743,-46.643 134.813,-40.4748 122.293,-35.4682"/>
<polygon fill="black" stroke="black" points="123.426,-32.1544 112.835,-31.8656 120.934,-38.696 123.426,-32.1544"/>
<text text-anchor="middle" x="203.894" y="-57.8" font-family="Times New Roman,serif" font-size="14.00">Crafting 3</text>
</g>
<!-- Anvil&#45;&gt;Chain_Boots -->
<g id="edge4" class="edge"><title>Anvil&#45;&gt;Chain_Boots</title>
<path fill="none" stroke="black" d="M224.327,-89.553C229.724,-83.7676 235.062,-76.6561 237.894,-69 240.515,-61.9156 241.239,-53.8717 241.052,-46.3386"/>
<polygon fill="black" stroke="black" points="244.529,-45.8909 240.286,-36.1827 237.548,-46.4178 244.529,-45.8909"/>
<text text-anchor="middle" x="267.894" y="-57.8" font-family="Times New Roman,serif" font-size="14.00">Crafting 4</text>
</g>
</g>
</svg>
