<?xml version="1.0" encoding="UTF-8" standalone="no"?>
<!DOCTYPE svg PUBLIC "-//W3C//DTD SVG 1.1//EN"
 "http://www.w3.org/Graphics/SVG/1.1/DTD/svg11.dtd">
<!-- Generated by graphviz version 2.38.0 (20140413.2041)
 -->
<!-- Title: G Pages: 1 -->
<svg width="236pt" height="149pt"
 viewBox="0.00 0.00 235.83 148.74" xmlns="http://www.w3.org/2000/svg" xmlns:xlink="http://www.w3.org/1999/xlink">
<g id="graph0" class="graph" transform="scale(1 1) rotate(0) translate(4 144.74)">
<title>G</title>
<polygon fill="white" stroke="none" points="-4,4 -4,-144.74 231.832,-144.74 231.832,4 -4,4"/>
<!-- Axe -->
<g id="node1" class="node"><title>Axe</title>
<ellipse fill="none" stroke="black" cx="47.2376" cy="-122.74" rx="27" ry="18"/>
<text text-anchor="middle" x="47.2376" y="-119.04" font-family="Times New Roman,serif" font-size="14.00">Axe</text>
</g>
<!-- Axe
+ Small_WaterDamage -->
<g id="node2" class="node"><title>Axe
+ Small_WaterDamage</title>
<ellipse fill="none" stroke="black" cx="103.238" cy="-26.8701" rx="103.476" ry="26.7407"/>
<text text-anchor="middle" x="103.238" y="-30.6701" font-family="Times New Roman,serif" font-size="14.00">Axe</text>
<text text-anchor="middle" x="103.238" y="-15.6701" font-family="Times New Roman,serif" font-size="14.00">+ Small_WaterDamage</text>
</g>
<!-- Axe&#45;&gt;Axe
+ Small_WaterDamage -->
<g id="edge2" class="edge"><title>Axe&#45;&gt;Axe
+ Small_WaterDamage</title>
<path fill="none" stroke="black" d="M56.7372,-105.816C63.8179,-93.9474 73.7555,-77.2895 82.6271,-62.4184"/>
<polygon fill="black" stroke="black" points="85.8606,-63.8298 87.9781,-53.4488 79.849,-60.2435 85.8606,-63.8298"/>
<text text-anchor="middle" x="105.238" y="-75.5401" font-family="Times New Roman,serif" font-size="14.00">Crafting 5</text>
</g>
<!-- Essence_Water -->
<g id="node3" class="node"><title>Essence_Water</title>
<ellipse fill="none" stroke="black" cx="160.238" cy="-122.74" rx="67.6881" ry="18"/>
<text text-anchor="middle" x="160.238" y="-119.04" font-family="Times New Roman,serif" font-size="14.00">Essence_Water</text>
</g>
<!-- Essence_Water&#45;&gt;Axe
+ Small_WaterDamage -->
<g id="edge1" class="edge"><title>Essence_Water&#45;&gt;Axe
+ Small_WaterDamage</title>
<path fill="none" stroke="black" d="M153.495,-104.583C149.33,-94.6971 143.58,-82.1971 137.238,-71.7401 135.215,-68.406 132.983,-65.0297 130.657,-61.7078"/>
<polygon fill="black" stroke="black" points="133.474,-59.6303 124.75,-53.6179 127.82,-63.7582 133.474,-59.6303"/>
<text text-anchor="middle" x="173.238" y="-75.5401" font-family="Times New Roman,serif" font-size="14.00">Crafting 5</text>
</g>
</g>
</svg>
