<?xml version="1.0" encoding="UTF-8" standalone="no"?>
<!DOCTYPE svg PUBLIC "-//W3C//DTD SVG 1.1//EN"
 "http://www.w3.org/Graphics/SVG/1.1/DTD/svg11.dtd">
<!-- Generated by graphviz version 2.38.0 (20140413.2041)
 -->
<!-- Title: G Pages: 1 -->
<svg width="867pt" height="392pt"
 viewBox="0.00 0.00 866.79 392.00" xmlns="http://www.w3.org/2000/svg" xmlns:xlink="http://www.w3.org/1999/xlink">
<g id="graph0" class="graph" transform="scale(1 1) rotate(0) translate(4 388)">
<title>G</title>
<polygon fill="white" stroke="none" points="-4,4 -4,-388 862.795,-388 862.795,4 -4,4"/>
<!-- Pouch_Dust_Pixie -->
<g id="node1" class="node"><title>Pouch_Dust_Pixie</title>
<ellipse fill="none" stroke="black" cx="398.795" cy="-192" rx="78.7863" ry="18"/>
<text text-anchor="middle" x="398.795" y="-188.3" font-family="Times New Roman,serif" font-size="14.00">Pouch_Dust_Pixie</text>
</g>
<!-- Feather_A_Magic -->
<g id="node2" class="node"><title>Feather_A_Magic</title>
<ellipse fill="none" stroke="black" cx="596.795" cy="-105" rx="76.0865" ry="18"/>
<text text-anchor="middle" x="596.795" y="-101.3" font-family="Times New Roman,serif" font-size="14.00">Feather_A_Magic</text>
</g>
<!-- Pouch_Dust_Pixie&#45;&gt;Feather_A_Magic -->
<g id="edge1" class="edge"><title>Pouch_Dust_Pixie&#45;&gt;Feather_A_Magic</title>
<path fill="none" stroke="black" d="M434.193,-175.804C467.277,-161.601 516.793,-140.344 552.487,-125.021"/>
<polygon fill="black" stroke="black" points="553.894,-128.226 561.703,-121.065 551.133,-121.793 553.894,-128.226"/>
<text text-anchor="middle" x="537.795" y="-144.8" font-family="Times New Roman,serif" font-size="14.00">Crafting 1</text>
</g>
<!-- Helmet_Feather -->
<g id="node13" class="node"><title>Helmet_Feather</title>
<ellipse fill="none" stroke="black" cx="694.795" cy="-18" rx="67.6881" ry="18"/>
<text text-anchor="middle" x="694.795" y="-14.3" font-family="Times New Roman,serif" font-size="14.00">Helmet_Feather</text>
</g>
<!-- Feather_A_Magic&#45;&gt;Helmet_Feather -->
<g id="edge2" class="edge"><title>Feather_A_Magic&#45;&gt;Helmet_Feather</title>
<path fill="none" stroke="black" d="M616.156,-87.2067C631.017,-74.3175 651.703,-56.3753 668.129,-42.1281"/>
<polygon fill="black" stroke="black" points="670.546,-44.6655 675.807,-35.4692 665.959,-39.3774 670.546,-44.6655"/>
<text text-anchor="middle" x="678.795" y="-57.8" font-family="Times New Roman,serif" font-size="14.00">Crafting 2</text>
</g>
<!-- Dagger -->
<g id="node3" class="node"><title>Dagger</title>
<ellipse fill="none" stroke="black" cx="655.795" cy="-279" rx="36.2938" ry="18"/>
<text text-anchor="middle" x="655.795" y="-275.3" font-family="Times New Roman,serif" font-size="14.00">Dagger</text>
</g>
<!-- Feather -->
<g id="node12" class="node"><title>Feather</title>
<ellipse fill="none" stroke="black" cx="699.795" cy="-192" rx="37.8943" ry="18"/>
<text text-anchor="middle" x="699.795" y="-188.3" font-family="Times New Roman,serif" font-size="14.00">Feather</text>
</g>
<!-- Dagger&#45;&gt;Feather -->
<g id="edge3" class="edge"><title>Dagger&#45;&gt;Feather</title>
<path fill="none" stroke="black" d="M656.785,-260.988C657.943,-250.92 660.438,-238.186 665.795,-228 668.136,-223.548 671.22,-219.279 674.577,-215.346"/>
<polygon fill="black" stroke="black" points="677.382,-217.474 681.698,-207.798 672.29,-212.67 677.382,-217.474"/>
<text text-anchor="middle" x="693.795" y="-231.8" font-family="Times New Roman,serif" font-size="14.00">Crafting 0</text>
</g>
<!-- LeatherHelmet -->
<g id="node4" class="node"><title>LeatherHelmet</title>
<ellipse fill="none" stroke="black" cx="753.795" cy="-105" rx="63.0888" ry="18"/>
<text text-anchor="middle" x="753.795" y="-101.3" font-family="Times New Roman,serif" font-size="14.00">LeatherHelmet</text>
</g>
<!-- LeatherHelmet&#45;&gt;Helmet_Feather -->
<g id="edge4" class="edge"><title>LeatherHelmet&#45;&gt;Helmet_Feather</title>
<path fill="none" stroke="black" d="M742.138,-87.2067C733.653,-74.9827 722.014,-58.2139 712.399,-44.3624"/>
<polygon fill="black" stroke="black" points="715.004,-41.9776 706.427,-35.7584 709.254,-45.9691 715.004,-41.9776"/>
<text text-anchor="middle" x="755.795" y="-57.8" font-family="Times New Roman,serif" font-size="14.00">Crafting 2</text>
</g>
<!-- Bone -->
<g id="node5" class="node"><title>Bone</title>
<ellipse fill="none" stroke="black" cx="167.795" cy="-366" rx="29.795" ry="18"/>
<text text-anchor="middle" x="167.795" y="-362.3" font-family="Times New Roman,serif" font-size="14.00">Bone</text>
</g>
<!-- Pouch_Dust_Bone -->
<g id="node6" class="node"><title>Pouch_Dust_Bone</title>
<ellipse fill="none" stroke="black" cx="167.795" cy="-279" rx="79.8859" ry="18"/>
<text text-anchor="middle" x="167.795" y="-275.3" font-family="Times New Roman,serif" font-size="14.00">Pouch_Dust_Bone</text>
</g>
<!-- Bone&#45;&gt;Pouch_Dust_Bone -->
<g id="edge16" class="edge"><title>Bone&#45;&gt;Pouch_Dust_Bone</title>
<path fill="none" stroke="black" d="M167.795,-347.799C167.795,-336.163 167.795,-320.548 167.795,-307.237"/>
<polygon fill="black" stroke="black" points="171.295,-307.175 167.795,-297.175 164.295,-307.175 171.295,-307.175"/>
<text text-anchor="middle" x="195.795" y="-318.8" font-family="Times New Roman,serif" font-size="14.00">Crafting 0</text>
</g>
<!-- Pouch_Dust_Bone&#45;&gt;Pouch_Dust_Pixie -->
<g id="edge5" class="edge"><title>Pouch_Dust_Bone&#45;&gt;Pouch_Dust_Pixie</title>
<path fill="none" stroke="black" d="M207.768,-263.291C247.062,-248.832 307.125,-226.731 349.39,-211.179"/>
<polygon fill="black" stroke="black" points="350.748,-214.409 358.924,-207.671 348.331,-207.84 350.748,-214.409"/>
<text text-anchor="middle" x="325.795" y="-231.8" font-family="Times New Roman,serif" font-size="14.00">Crafting 0</text>
</g>
<!-- Pillow -->
<g id="node7" class="node"><title>Pillow</title>
<ellipse fill="none" stroke="black" cx="743.795" cy="-279" rx="33.2948" ry="18"/>
<text text-anchor="middle" x="743.795" y="-275.3" font-family="Times New Roman,serif" font-size="14.00">Pillow</text>
</g>
<!-- Pillow&#45;&gt;Feather -->
<g id="edge15" class="edge"><title>Pillow&#45;&gt;Feather</title>
<path fill="none" stroke="black" d="M737.062,-261.042C732.984,-251.223 727.484,-238.723 721.795,-228 720.043,-224.699 718.094,-221.294 716.101,-217.962"/>
<polygon fill="black" stroke="black" points="719.064,-216.099 710.824,-209.44 713.112,-219.784 719.064,-216.099"/>
<text text-anchor="middle" x="756.795" y="-231.8" font-family="Times New Roman,serif" font-size="14.00">Crafting 0</text>
</g>
<!-- Moonstone -->
<g id="node8" class="node"><title>Moonstone</title>
<ellipse fill="none" stroke="black" cx="617.795" cy="-366" rx="51.9908" ry="18"/>
<text text-anchor="middle" x="617.795" y="-362.3" font-family="Times New Roman,serif" font-size="14.00">Moonstone</text>
</g>
<!-- Pouch_Dust_Moon -->
<g id="node16" class="node"><title>Pouch_Dust_Moon</title>
<ellipse fill="none" stroke="black" cx="517.795" cy="-279" rx="83.3857" ry="18"/>
<text text-anchor="middle" x="517.795" y="-275.3" font-family="Times New Roman,serif" font-size="14.00">Pouch_Dust_Moon</text>
</g>
<!-- Moonstone&#45;&gt;Pouch_Dust_Moon -->
<g id="edge6" class="edge"><title>Moonstone&#45;&gt;Pouch_Dust_Moon</title>
<path fill="none" stroke="black" d="M598.985,-349.012C583.913,-336.2 562.544,-318.037 545.512,-303.56"/>
<polygon fill="black" stroke="black" points="547.432,-300.598 537.546,-296.789 542.899,-305.932 547.432,-300.598"/>
<text text-anchor="middle" x="601.795" y="-318.8" font-family="Times New Roman,serif" font-size="14.00">Crafting 0</text>
</g>
<!-- Pouch_Dust_Star -->
<g id="node9" class="node"><title>Pouch_Dust_Star</title>
<ellipse fill="none" stroke="black" cx="340.795" cy="-279" rx="75.2868" ry="18"/>
<text text-anchor="middle" x="340.795" y="-275.3" font-family="Times New Roman,serif" font-size="14.00">Pouch_Dust_Star</text>
</g>
<!-- Pouch_Dust_Star&#45;&gt;Pouch_Dust_Pixie -->
<g id="edge7" class="edge"><title>Pouch_Dust_Star&#45;&gt;Pouch_Dust_Pixie</title>
<path fill="none" stroke="black" d="M352.254,-261.207C360.541,-249.062 371.889,-232.431 381.304,-218.633"/>
<polygon fill="black" stroke="black" points="384.416,-220.282 387.161,-210.049 378.634,-216.337 384.416,-220.282"/>
<text text-anchor="middle" x="401.795" y="-231.8" font-family="Times New Roman,serif" font-size="14.00">Crafting 0</text>
</g>
<!-- Knife -->
<g id="node10" class="node"><title>Knife</title>
<ellipse fill="none" stroke="black" cx="825.795" cy="-279" rx="30.5947" ry="18"/>
<text text-anchor="middle" x="825.795" y="-275.3" font-family="Times New Roman,serif" font-size="14.00">Knife</text>
</g>
<!-- Knife&#45;&gt;Feather -->
<g id="edge8" class="edge"><title>Knife&#45;&gt;Feather</title>
<path fill="none" stroke="black" d="M816.996,-261.704C810.448,-250.889 800.62,-237.069 788.795,-228 775.047,-217.458 757.721,-209.695 742.017,-204.197"/>
<polygon fill="black" stroke="black" points="743.088,-200.865 732.495,-201.062 740.899,-207.513 743.088,-200.865"/>
<text text-anchor="middle" x="830.795" y="-231.8" font-family="Times New Roman,serif" font-size="14.00">Crafting 0</text>
</g>
<!-- Herb_Stardust -->
<g id="node11" class="node"><title>Herb_Stardust</title>
<ellipse fill="none" stroke="black" cx="483.795" cy="-366" rx="63.8893" ry="18"/>
<text text-anchor="middle" x="483.795" y="-362.3" font-family="Times New Roman,serif" font-size="14.00">Herb_Stardust</text>
</g>
<!-- Herb_Stardust&#45;&gt;Pouch_Dust_Star -->
<g id="edge13" class="edge"><title>Herb_Stardust&#45;&gt;Pouch_Dust_Star</title>
<path fill="none" stroke="black" d="M480.222,-347.94C477.103,-337.075 471.5,-323.494 461.795,-315 452.864,-307.184 429.753,-299.703 406.093,-293.679"/>
<polygon fill="black" stroke="black" points="406.864,-290.265 396.317,-291.275 405.192,-297.062 406.864,-290.265"/>
<text text-anchor="middle" x="500.795" y="-318.8" font-family="Times New Roman,serif" font-size="14.00">Crafting 0</text>
</g>
<!-- Feather&#45;&gt;Feather_A_Magic -->
<g id="edge14" class="edge"><title>Feather&#45;&gt;Feather_A_Magic</title>
<path fill="none" stroke="black" d="M681.38,-175.804C665.624,-162.801 642.703,-143.885 624.694,-129.024"/>
<polygon fill="black" stroke="black" points="626.749,-126.182 616.809,-122.516 622.294,-131.581 626.749,-126.182"/>
<text text-anchor="middle" x="681.795" y="-144.8" font-family="Times New Roman,serif" font-size="14.00">Crafting 1</text>
</g>
<!-- Skull_Human -->
<g id="node14" class="node"><title>Skull_Human</title>
<ellipse fill="none" stroke="black" cx="59.7947" cy="-366" rx="59.5901" ry="18"/>
<text text-anchor="middle" x="59.7947" y="-362.3" font-family="Times New Roman,serif" font-size="14.00">Skull_Human</text>
</g>
<!-- Skull_Human&#45;&gt;Pouch_Dust_Bone -->
<g id="edge9" class="edge"><title>Skull_Human&#45;&gt;Pouch_Dust_Bone</title>
<path fill="none" stroke="black" d="M73.8858,-348.087C82.9428,-337.812 95.3145,-324.825 107.795,-315 114.124,-310.017 121.235,-305.252 128.289,-300.929"/>
<polygon fill="black" stroke="black" points="130.3,-303.807 137.131,-295.709 126.741,-297.779 130.3,-303.807"/>
<text text-anchor="middle" x="135.795" y="-318.8" font-family="Times New Roman,serif" font-size="14.00">Crafting 0</text>
</g>
<!-- MortarPestle -->
<g id="node15" class="node"><title>MortarPestle</title>
<ellipse fill="none" stroke="black" cx="325.795" cy="-366" rx="57.3905" ry="18"/>
<text text-anchor="middle" x="325.795" y="-362.3" font-family="Times New Roman,serif" font-size="14.00">MortarPestle</text>
</g>
<!-- MortarPestle&#45;&gt;Pouch_Dust_Bone -->
<g id="edge10" class="edge"><title>MortarPestle&#45;&gt;Pouch_Dust_Bone</title>
<path fill="none" stroke="black" d="M298.273,-350.194C272.744,-336.46 234.51,-315.891 206.022,-300.565"/>
<polygon fill="black" stroke="black" points="207.608,-297.444 197.143,-295.789 204.291,-303.609 207.608,-297.444"/>
<text text-anchor="middle" x="284.795" y="-318.8" font-family="Times New Roman,serif" font-size="14.00">Crafting 0</text>
</g>
<!-- MortarPestle&#45;&gt;Pouch_Dust_Star -->
<g id="edge11" class="edge"><title>MortarPestle&#45;&gt;Pouch_Dust_Star</title>
<path fill="none" stroke="black" d="M324.623,-347.708C324.342,-338.001 324.619,-325.721 326.795,-315 327.349,-312.268 328.107,-309.476 328.984,-306.721"/>
<polygon fill="black" stroke="black" points="332.368,-307.659 332.541,-297.066 325.8,-305.239 332.368,-307.659"/>
<text text-anchor="middle" x="354.795" y="-318.8" font-family="Times New Roman,serif" font-size="14.00">Crafting 0</text>
</g>
<!-- MortarPestle&#45;&gt;Pouch_Dust_Moon -->
<g id="edge12" class="edge"><title>MortarPestle&#45;&gt;Pouch_Dust_Moon</title>
<path fill="none" stroke="black" d="M351.743,-349.948C361.628,-343.986 372.892,-336.913 382.795,-330 391.616,-323.841 392.255,-319.975 401.795,-315 417.309,-306.91 434.987,-300.382 451.785,-295.256"/>
<polygon fill="black" stroke="black" points="452.937,-298.566 461.551,-292.398 450.971,-291.847 452.937,-298.566"/>
<text text-anchor="middle" x="429.795" y="-318.8" font-family="Times New Roman,serif" font-size="14.00">Crafting 0</text>
</g>
<!-- Pouch_Dust_Moon&#45;&gt;Pouch_Dust_Pixie -->
<g id="edge17" class="edge"><title>Pouch_Dust_Moon&#45;&gt;Pouch_Dust_Pixie</title>
<path fill="none" stroke="black" d="M494.85,-261.611C476.412,-248.441 450.327,-229.809 429.993,-215.284"/>
<polygon fill="black" stroke="black" points="431.84,-212.303 421.669,-209.339 427.772,-217.999 431.84,-212.303"/>
<text text-anchor="middle" x="493.795" y="-231.8" font-family="Times New Roman,serif" font-size="14.00">Crafting 0</text>
</g>
</g>
</svg>
