<?xml version="1.0" encoding="UTF-8" standalone="no"?>
<!DOCTYPE svg PUBLIC "-//W3C//DTD SVG 1.1//EN"
 "http://www.w3.org/Graphics/SVG/1.1/DTD/svg11.dtd">
<!-- Generated by graphviz version 2.38.0 (20140413.2041)
 -->
<!-- Title: G Pages: 1 -->
<svg width="660pt" height="149pt"
 viewBox="0.00 0.00 659.84 148.74" xmlns="http://www.w3.org/2000/svg" xmlns:xlink="http://www.w3.org/1999/xlink">
<g id="graph0" class="graph" transform="scale(1 1) rotate(0) translate(4 144.74)">
<title>G</title>
<polygon fill="white" stroke="none" points="-4,4 -4,-144.74 655.839,-144.74 655.839,4 -4,4"/>
<!-- Scraps_Metal -->
<g id="node1" class="node"><title>Scraps_Metal</title>
<ellipse fill="none" stroke="black" cx="61.0946" cy="-122.74" rx="61.1893" ry="18"/>
<text text-anchor="middle" x="61.0946" y="-119.04" font-family="Times New Roman,serif" font-size="14.00">Scraps_Metal</text>
</g>
<!-- Armor
+ Medium_ArmorDefense -->
<g id="node4" class="node"><title>Armor
+ Medium_ArmorDefense</title>
<ellipse fill="none" stroke="black" cx="322.095" cy="-26.8701" rx="115.931" ry="26.7407"/>
<text text-anchor="middle" x="322.095" y="-30.6701" font-family="Times New Roman,serif" font-size="14.00">Armor</text>
<text text-anchor="middle" x="322.095" y="-15.6701" font-family="Times New Roman,serif" font-size="14.00">+ Medium_ArmorDefense</text>
</g>
<!-- Scraps_Metal&#45;&gt;Armor
+ Medium_ArmorDefense -->
<g id="edge1" class="edge"><title>Scraps_Metal&#45;&gt;Armor
+ Medium_ArmorDefense</title>
<path fill="none" stroke="black" d="M93.9728,-107.557C118.592,-97.1365 153.204,-82.9093 184.095,-71.7401 203.207,-64.8295 224.01,-57.9087 243.53,-51.6732"/>
<polygon fill="black" stroke="black" points="244.826,-54.9342 253.3,-48.5748 242.71,-48.2617 244.826,-54.9342"/>
<text text-anchor="middle" x="212.095" y="-75.5401" font-family="Times New Roman,serif" font-size="14.00">Crafting 5</text>
</g>
<!-- ClothArmor -->
<g id="node2" class="node"><title>ClothArmor</title>
<ellipse fill="none" stroke="black" cx="195.095" cy="-122.74" rx="54.6905" ry="18"/>
<text text-anchor="middle" x="195.095" y="-119.04" font-family="Times New Roman,serif" font-size="14.00">ClothArmor</text>
</g>
<!-- ClothArmor&#45;&gt;Armor
+ Medium_ArmorDefense -->
<g id="edge2" class="edge"><title>ClothArmor&#45;&gt;Armor
+ Medium_ArmorDefense</title>
<path fill="none" stroke="black" d="M216.178,-105.924C229.353,-96.061 246.685,-83.1233 262.095,-71.7401 267.875,-67.4705 273.979,-62.9825 279.993,-58.5732"/>
<polygon fill="black" stroke="black" points="282.099,-61.3691 288.1,-52.6372 277.964,-55.7213 282.099,-61.3691"/>
<text text-anchor="middle" x="290.095" y="-75.5401" font-family="Times New Roman,serif" font-size="14.00">Crafting 5</text>
</g>
<!-- ArmorScale -->
<g id="node3" class="node"><title>ArmorScale</title>
<ellipse fill="none" stroke="black" cx="322.095" cy="-122.74" rx="53.8905" ry="18"/>
<text text-anchor="middle" x="322.095" y="-119.04" font-family="Times New Roman,serif" font-size="14.00">ArmorScale</text>
</g>
<!-- ArmorScale&#45;&gt;Armor
+ Medium_ArmorDefense -->
<g id="edge3" class="edge"><title>ArmorScale&#45;&gt;Armor
+ Medium_ArmorDefense</title>
<path fill="none" stroke="black" d="M322.095,-104.523C322.095,-93.2193 322.095,-78.0091 322.095,-64.1179"/>
<polygon fill="black" stroke="black" points="325.595,-63.8389 322.095,-53.839 318.595,-63.839 325.595,-63.8389"/>
<text text-anchor="middle" x="350.095" y="-75.5401" font-family="Times New Roman,serif" font-size="14.00">Crafting 5</text>
</g>
<!-- Scraps_Plate -->
<g id="node5" class="node"><title>Scraps_Plate</title>
<ellipse fill="none" stroke="black" cx="452.095" cy="-122.74" rx="58.4896" ry="18"/>
<text text-anchor="middle" x="452.095" y="-119.04" font-family="Times New Roman,serif" font-size="14.00">Scraps_Plate</text>
</g>
<!-- Scraps_Plate&#45;&gt;Armor
+ Medium_ArmorDefense -->
<g id="edge4" class="edge"><title>Scraps_Plate&#45;&gt;Armor
+ Medium_ArmorDefense</title>
<path fill="none" stroke="black" d="M430.336,-106.028C412.454,-93.1163 386.581,-74.4342 364.615,-58.5729"/>
<polygon fill="black" stroke="black" points="366.568,-55.6665 356.412,-52.6499 362.47,-61.3416 366.568,-55.6665"/>
<text text-anchor="middle" x="431.095" y="-75.5401" font-family="Times New Roman,serif" font-size="14.00">Crafting 5</text>
</g>
<!-- ArmorLeather -->
<g id="node6" class="node"><title>ArmorLeather</title>
<ellipse fill="none" stroke="black" cx="590.095" cy="-122.74" rx="61.99" ry="18"/>
<text text-anchor="middle" x="590.095" y="-119.04" font-family="Times New Roman,serif" font-size="14.00">ArmorLeather</text>
</g>
<!-- ArmorLeather&#45;&gt;Armor
+ Medium_ArmorDefense -->
<g id="edge5" class="edge"><title>ArmorLeather&#45;&gt;Armor
+ Medium_ArmorDefense</title>
<path fill="none" stroke="black" d="M556.122,-107.58C530.689,-97.1711 494.947,-82.9484 463.095,-71.7401 443.247,-64.7562 421.634,-57.7414 401.427,-51.4333"/>
<polygon fill="black" stroke="black" points="402.222,-48.0155 391.634,-48.3966 400.149,-54.7014 402.222,-48.0155"/>
<text text-anchor="middle" x="530.095" y="-75.5401" font-family="Times New Roman,serif" font-size="14.00">Crafting 5</text>
</g>
</g>
</svg>
