<?xml version="1.0" encoding="UTF-8" standalone="no"?>
<!DOCTYPE svg PUBLIC "-//W3C//DTD SVG 1.1//EN"
 "http://www.w3.org/Graphics/SVG/1.1/DTD/svg11.dtd">
<!-- Generated by graphviz version 2.38.0 (20140413.2041)
 -->
<!-- Title: G Pages: 1 -->
<svg width="388pt" height="218pt"
 viewBox="0.00 0.00 387.68 218.00" xmlns="http://www.w3.org/2000/svg" xmlns:xlink="http://www.w3.org/1999/xlink">
<g id="graph0" class="graph" transform="scale(1 1) rotate(0) translate(4 214)">
<title>G</title>
<polygon fill="white" stroke="none" points="-4,4 -4,-214 383.684,-214 383.684,4 -4,4"/>
<!-- Herb_Augmentor -->
<g id="node1" class="node"><title>Herb_Augmentor</title>
<ellipse fill="none" stroke="black" cx="74.0934" cy="-192" rx="74.187" ry="18"/>
<text text-anchor="middle" x="74.0934" y="-188.3" font-family="Times New Roman,serif" font-size="14.00">Herb_Augmentor</text>
</g>
<!-- Large_Intelligence_Potion -->
<g id="node2" class="node"><title>Large_Intelligence_Potion</title>
<ellipse fill="none" stroke="black" cx="129.093" cy="-18" rx="105.082" ry="18"/>
<text text-anchor="middle" x="129.093" y="-14.3" font-family="Times New Roman,serif" font-size="14.00">Large_Intelligence_Potion</text>
</g>
<!-- Herb_Augmentor&#45;&gt;Large_Intelligence_Potion -->
<g id="edge1" class="edge"><title>Herb_Augmentor&#45;&gt;Large_Intelligence_Potion</title>
<path fill="none" stroke="black" d="M72.9878,-173.878C72.2043,-152.801 72.7427,-116.211 83.0934,-87 88.6245,-71.3907 98.6103,-55.9432 107.868,-43.7258"/>
<polygon fill="black" stroke="black" points="110.656,-45.842 114.097,-35.8214 105.158,-41.5093 110.656,-45.842"/>
<text text-anchor="middle" x="111.093" y="-101.3" font-family="Times New Roman,serif" font-size="14.00">Crafting 5</text>
</g>
<!-- Medium_Intelligence_Potion -->
<g id="node4" class="node"><title>Medium_Intelligence_Potion</title>
<ellipse fill="none" stroke="black" cx="262.093" cy="-105" rx="114.28" ry="18"/>
<text text-anchor="middle" x="262.093" y="-101.3" font-family="Times New Roman,serif" font-size="14.00">Medium_Intelligence_Potion</text>
</g>
<!-- Herb_Augmentor&#45;&gt;Medium_Intelligence_Potion -->
<g id="edge2" class="edge"><title>Herb_Augmentor&#45;&gt;Medium_Intelligence_Potion</title>
<path fill="none" stroke="black" d="M107.704,-175.804C138.211,-162.011 183.433,-141.564 217.059,-126.361"/>
<polygon fill="black" stroke="black" points="218.543,-129.531 226.213,-122.222 215.659,-123.153 218.543,-129.531"/>
<text text-anchor="middle" x="208.093" y="-144.8" font-family="Times New Roman,serif" font-size="14.00">Crafting 4</text>
</g>
<!-- Minor_Intelligence_Potion -->
<g id="node3" class="node"><title>Minor_Intelligence_Potion</title>
<ellipse fill="none" stroke="black" cx="273.093" cy="-192" rx="106.681" ry="18"/>
<text text-anchor="middle" x="273.093" y="-188.3" font-family="Times New Roman,serif" font-size="14.00">Minor_Intelligence_Potion</text>
</g>
<!-- Minor_Intelligence_Potion&#45;&gt;Medium_Intelligence_Potion -->
<g id="edge3" class="edge"><title>Minor_Intelligence_Potion&#45;&gt;Medium_Intelligence_Potion</title>
<path fill="none" stroke="black" d="M270.867,-173.799C269.362,-162.163 267.341,-146.548 265.618,-133.237"/>
<polygon fill="black" stroke="black" points="269.071,-132.644 264.316,-123.175 262.129,-133.542 269.071,-132.644"/>
<text text-anchor="middle" x="297.093" y="-144.8" font-family="Times New Roman,serif" font-size="14.00">Crafting 4</text>
</g>
<!-- Medium_Intelligence_Potion&#45;&gt;Large_Intelligence_Potion -->
<g id="edge4" class="edge"><title>Medium_Intelligence_Potion&#45;&gt;Large_Intelligence_Potion</title>
<path fill="none" stroke="black" d="M236.134,-87.4094C215.445,-74.1873 186.291,-55.555 163.632,-41.0738"/>
<polygon fill="black" stroke="black" points="165.298,-37.9848 154.987,-35.5488 161.529,-43.8831 165.298,-37.9848"/>
<text text-anchor="middle" x="232.093" y="-57.8" font-family="Times New Roman,serif" font-size="14.00">Crafting 5</text>
</g>
</g>
</svg>
