<?xml version="1.0" encoding="UTF-8" standalone="no"?>
<!DOCTYPE svg PUBLIC "-//W3C//DTD SVG 1.1//EN"
 "http://www.w3.org/Graphics/SVG/1.1/DTD/svg11.dtd">
<!-- Generated by graphviz version 2.38.0 (20140413.2041)
 -->
<!-- Title: G Pages: 1 -->
<svg width="474pt" height="149pt"
 viewBox="0.00 0.00 473.59 148.74" xmlns="http://www.w3.org/2000/svg" xmlns:xlink="http://www.w3.org/1999/xlink">
<g id="graph0" class="graph" transform="scale(1 1) rotate(0) translate(4 144.74)">
<title>G</title>
<polygon fill="white" stroke="none" points="-4,4 -4,-144.74 469.594,-144.74 469.594,4 -4,4"/>
<!-- Sword
+ Medium_Damage -->
<g id="node1" class="node"><title>Sword
+ Medium_Damage</title>
<ellipse fill="none" stroke="black" cx="284.594" cy="-26.8701" rx="89.6056" ry="26.7407"/>
<text text-anchor="middle" x="284.594" y="-30.6701" font-family="Times New Roman,serif" font-size="14.00">Sword</text>
<text text-anchor="middle" x="284.594" y="-15.6701" font-family="Times New Roman,serif" font-size="14.00">+ Medium_Damage</text>
</g>
<!-- Sword
+ Small_Damage -->
<g id="node2" class="node"><title>Sword
+ Small_Damage</title>
<ellipse fill="none" stroke="black" cx="97.594" cy="-26.8701" rx="79.3924" ry="26.7407"/>
<text text-anchor="middle" x="97.594" y="-30.6701" font-family="Times New Roman,serif" font-size="14.00">Sword</text>
<text text-anchor="middle" x="97.594" y="-15.6701" font-family="Times New Roman,serif" font-size="14.00">+ Small_Damage</text>
</g>
<!-- Stone_A_Whet -->
<g id="node3" class="node"><title>Stone_A_Whet</title>
<ellipse fill="none" stroke="black" cx="67.594" cy="-122.74" rx="67.6881" ry="18"/>
<text text-anchor="middle" x="67.594" y="-119.04" font-family="Times New Roman,serif" font-size="14.00">Stone_A_Whet</text>
</g>
<!-- Stone_A_Whet&#45;&gt;Sword
+ Medium_Damage -->
<g id="edge1" class="edge"><title>Stone_A_Whet&#45;&gt;Sword
+ Medium_Damage</title>
<path fill="none" stroke="black" d="M110.303,-108.636C128.771,-102.573 150.485,-94.9082 169.594,-86.7401 182.937,-81.0366 185.686,-78.3704 198.594,-71.7401 209.193,-66.2955 220.538,-60.4915 231.397,-54.9477"/>
<polygon fill="black" stroke="black" points="233.06,-58.0284 240.377,-50.3657 229.879,-51.7931 233.06,-58.0284"/>
<text text-anchor="middle" x="226.594" y="-75.5401" font-family="Times New Roman,serif" font-size="14.00">Crafting 5</text>
</g>
<!-- Stone_A_Whet&#45;&gt;Sword
+ Small_Damage -->
<g id="edge2" class="edge"><title>Stone_A_Whet&#45;&gt;Sword
+ Small_Damage</title>
<path fill="none" stroke="black" d="M46.4721,-105.591C36.6815,-96.0409 28.4315,-83.5409 34.594,-71.7401 37.5901,-66.0029 41.7165,-60.8636 46.4367,-56.302"/>
<polygon fill="black" stroke="black" points="48.9409,-58.7658 54.2656,-49.6062 44.391,-53.446 48.9409,-58.7658"/>
<text text-anchor="middle" x="62.594" y="-75.5401" font-family="Times New Roman,serif" font-size="14.00">Crafting 2</text>
</g>
<!-- Sword -->
<g id="node4" class="node"><title>Sword</title>
<ellipse fill="none" stroke="black" cx="378.594" cy="-122.74" rx="35.194" ry="18"/>
<text text-anchor="middle" x="378.594" y="-119.04" font-family="Times New Roman,serif" font-size="14.00">Sword</text>
</g>
<!-- Sword&#45;&gt;Sword
+ Medium_Damage -->
<g id="edge5" class="edge"><title>Sword&#45;&gt;Sword
+ Medium_Damage</title>
<path fill="none" stroke="black" d="M395.99,-106.823C405.737,-96.6235 414.491,-82.9715 406.594,-71.7401 398.021,-59.5475 385.721,-50.7272 372.194,-44.3505"/>
<polygon fill="black" stroke="black" points="373.238,-40.9916 362.665,-40.3148 370.508,-47.4374 373.238,-40.9916"/>
<text text-anchor="middle" x="437.594" y="-75.5401" font-family="Times New Roman,serif" font-size="14.00">Crafting 5</text>
</g>
<!-- Sword&#45;&gt;Sword
+ Small_Damage -->
<g id="edge6" class="edge"><title>Sword&#45;&gt;Sword
+ Small_Damage</title>
<path fill="none" stroke="black" d="M363.951,-106.239C351.235,-93.1581 333.504,-75.9115 324.594,-71.7401 268.177,-45.327 246.553,-66.5644 185.594,-53.7401 178.523,-52.2526 171.194,-50.4796 163.921,-48.5692"/>
<polygon fill="black" stroke="black" points="164.634,-45.1362 154.067,-45.8927 162.799,-51.8915 164.634,-45.1362"/>
<text text-anchor="middle" x="371.594" y="-75.5401" font-family="Times New Roman,serif" font-size="14.00">Crafting 2</text>
</g>
<!-- WhetStone_Wheel -->
<g id="node5" class="node"><title>WhetStone_Wheel</title>
<ellipse fill="none" stroke="black" cx="241.594" cy="-122.74" rx="79.0865" ry="18"/>
<text text-anchor="middle" x="241.594" y="-119.04" font-family="Times New Roman,serif" font-size="14.00">WhetStone_Wheel</text>
</g>
<!-- WhetStone_Wheel&#45;&gt;Sword
+ Medium_Damage -->
<g id="edge3" class="edge"><title>WhetStone_Wheel&#45;&gt;Sword
+ Medium_Damage</title>
<path fill="none" stroke="black" d="M249.481,-104.523C254.76,-92.9977 261.9,-77.4111 268.363,-63.3024"/>
<polygon fill="black" stroke="black" points="271.716,-64.3881 272.698,-53.839 265.351,-61.4728 271.716,-64.3881"/>
<text text-anchor="middle" x="292.594" y="-75.5401" font-family="Times New Roman,serif" font-size="14.00">Crafting 5</text>
</g>
<!-- WhetStone_Wheel&#45;&gt;Sword
+ Small_Damage -->
<g id="edge4" class="edge"><title>WhetStone_Wheel&#45;&gt;Sword
+ Small_Damage</title>
<path fill="none" stroke="black" d="M180.912,-111.11C152.817,-105.031 123.483,-96.6441 113.594,-86.7401 107.409,-80.5451 103.549,-72.2134 101.159,-63.7706"/>
<polygon fill="black" stroke="black" points="104.559,-62.9347 98.9765,-53.9298 97.7249,-64.4504 104.559,-62.9347"/>
<text text-anchor="middle" x="141.594" y="-75.5401" font-family="Times New Roman,serif" font-size="14.00">Crafting 2</text>
</g>
</g>
</svg>
