<?xml version="1.0" encoding="UTF-8" standalone="no"?>
<!DOCTYPE svg PUBLIC "-//W3C//DTD SVG 1.1//EN"
 "http://www.w3.org/Graphics/SVG/1.1/DTD/svg11.dtd">
<!-- Generated by graphviz version 2.38.0 (20140413.2041)
 -->
<!-- Title: G Pages: 1 -->
<svg width="254pt" height="149pt"
 viewBox="0.00 0.00 253.74 148.74" xmlns="http://www.w3.org/2000/svg" xmlns:xlink="http://www.w3.org/1999/xlink">
<g id="graph0" class="graph" transform="scale(1 1) rotate(0) translate(4 144.74)">
<title>G</title>
<polygon fill="white" stroke="none" points="-4,4 -4,-144.74 249.74,-144.74 249.74,4 -4,4"/>
<!-- Essence_Fire -->
<g id="node1" class="node"><title>Essence_Fire</title>
<ellipse fill="none" stroke="black" cx="59.7947" cy="-122.74" rx="59.5901" ry="18"/>
<text text-anchor="middle" x="59.7947" y="-119.04" font-family="Times New Roman,serif" font-size="14.00">Essence_Fire</text>
</g>
<!-- ArmorScale
+ Small_FireResistance -->
<g id="node2" class="node"><title>ArmorScale
+ Small_FireResistance</title>
<ellipse fill="none" stroke="black" cx="125.795" cy="-26.8701" rx="105.218" ry="26.7407"/>
<text text-anchor="middle" x="125.795" y="-30.6701" font-family="Times New Roman,serif" font-size="14.00">ArmorScale</text>
<text text-anchor="middle" x="125.795" y="-15.6701" font-family="Times New Roman,serif" font-size="14.00">+ Small_FireResistance</text>
</g>
<!-- Essence_Fire&#45;&gt;ArmorScale
+ Small_FireResistance -->
<g id="edge1" class="edge"><title>Essence_Fire&#45;&gt;ArmorScale
+ Small_FireResistance</title>
<path fill="none" stroke="black" d="M71.5942,-104.958C80.0248,-92.9674 91.6568,-76.4235 101.984,-61.7353"/>
<polygon fill="black" stroke="black" points="104.991,-63.5435 107.88,-53.35 99.2649,-59.5173 104.991,-63.5435"/>
<text text-anchor="middle" x="122.795" y="-75.5401" font-family="Times New Roman,serif" font-size="14.00">Crafting 5</text>
</g>
<!-- ArmorScale -->
<g id="node3" class="node"><title>ArmorScale</title>
<ellipse fill="none" stroke="black" cx="191.795" cy="-122.74" rx="53.8905" ry="18"/>
<text text-anchor="middle" x="191.795" y="-119.04" font-family="Times New Roman,serif" font-size="14.00">ArmorScale</text>
</g>
<!-- ArmorScale&#45;&gt;ArmorScale
+ Small_FireResistance -->
<g id="edge2" class="edge"><title>ArmorScale&#45;&gt;ArmorScale
+ Small_FireResistance</title>
<path fill="none" stroke="black" d="M179.995,-104.958C171.565,-92.9674 159.933,-76.4235 149.605,-61.7353"/>
<polygon fill="black" stroke="black" points="152.324,-59.5173 143.71,-53.35 146.598,-63.5435 152.324,-59.5173"/>
<text text-anchor="middle" x="194.795" y="-75.5401" font-family="Times New Roman,serif" font-size="14.00">Crafting 5</text>
</g>
</g>
</svg>
