<?xml version="1.0" encoding="UTF-8" standalone="no"?>
<!DOCTYPE svg PUBLIC "-//W3C//DTD SVG 1.1//EN"
 "http://www.w3.org/Graphics/SVG/1.1/DTD/svg11.dtd">
<!-- Generated by graphviz version 2.38.0 (20140413.2041)
 -->
<!-- Title: G Pages: 1 -->
<svg width="217pt" height="149pt"
 viewBox="0.00 0.00 216.79 148.74" xmlns="http://www.w3.org/2000/svg" xmlns:xlink="http://www.w3.org/1999/xlink">
<g id="graph0" class="graph" transform="scale(1 1) rotate(0) translate(4 144.74)">
<title>G</title>
<polygon fill="white" stroke="none" points="-4,4 -4,-144.74 212.795,-144.74 212.795,4 -4,4"/>
<!-- Knife
+ Small_FireDamage -->
<g id="node1" class="node"><title>Knife
+ Small_FireDamage</title>
<ellipse fill="none" stroke="black" cx="113.795" cy="-26.8701" rx="94.5053" ry="26.7407"/>
<text text-anchor="middle" x="113.795" y="-30.6701" font-family="Times New Roman,serif" font-size="14.00">Knife</text>
<text text-anchor="middle" x="113.795" y="-15.6701" font-family="Times New Roman,serif" font-size="14.00">+ Small_FireDamage</text>
</g>
<!-- Essence_Fire -->
<g id="node2" class="node"><title>Essence_Fire</title>
<ellipse fill="none" stroke="black" cx="59.7947" cy="-122.74" rx="59.5901" ry="18"/>
<text text-anchor="middle" x="59.7947" y="-119.04" font-family="Times New Roman,serif" font-size="14.00">Essence_Fire</text>
</g>
<!-- Essence_Fire&#45;&gt;Knife
+ Small_FireDamage -->
<g id="edge1" class="edge"><title>Essence_Fire&#45;&gt;Knife
+ Small_FireDamage</title>
<path fill="none" stroke="black" d="M69.4488,-104.958C76.2319,-93.1668 85.5478,-76.9725 93.8908,-62.4696"/>
<polygon fill="black" stroke="black" points="96.9758,-64.126 98.9284,-53.7126 90.9081,-60.6354 96.9758,-64.126"/>
<text text-anchor="middle" x="116.795" y="-75.5401" font-family="Times New Roman,serif" font-size="14.00">Crafting 5</text>
</g>
<!-- Knife -->
<g id="node3" class="node"><title>Knife</title>
<ellipse fill="none" stroke="black" cx="167.795" cy="-122.74" rx="30.5947" ry="18"/>
<text text-anchor="middle" x="167.795" y="-119.04" font-family="Times New Roman,serif" font-size="14.00">Knife</text>
</g>
<!-- Knife&#45;&gt;Knife
+ Small_FireDamage -->
<g id="edge2" class="edge"><title>Knife&#45;&gt;Knife
+ Small_FireDamage</title>
<path fill="none" stroke="black" d="M161.523,-105.091C157.523,-95.1515 151.946,-82.4248 145.795,-71.7401 143.84,-68.3444 141.676,-64.895 139.423,-61.4988"/>
<polygon fill="black" stroke="black" points="142.271,-59.4637 133.707,-53.2271 136.513,-63.4436 142.271,-59.4637"/>
<text text-anchor="middle" x="180.795" y="-75.5401" font-family="Times New Roman,serif" font-size="14.00">Crafting 5</text>
</g>
</g>
</svg>
