<?xml version="1.0" encoding="UTF-8" standalone="no"?>
<!DOCTYPE svg PUBLIC "-//W3C//DTD SVG 1.1//EN"
 "http://www.w3.org/Graphics/SVG/1.1/DTD/svg11.dtd">
<!-- Generated by graphviz version 2.38.0 (20140413.2041)
 -->
<!-- Title: G Pages: 1 -->
<svg width="678pt" height="392pt"
 viewBox="0.00 0.00 677.79 392.00" xmlns="http://www.w3.org/2000/svg" xmlns:xlink="http://www.w3.org/1999/xlink">
<g id="graph0" class="graph" transform="scale(1 1) rotate(0) translate(4 388)">
<title>G</title>
<polygon fill="white" stroke="none" points="-4,4 -4,-388 673.79,-388 673.79,4 -4,4"/>
<!-- Pouch_Dust_Pixie -->
<g id="node1" class="node"><title>Pouch_Dust_Pixie</title>
<ellipse fill="none" stroke="black" cx="340.795" cy="-192" rx="78.7863" ry="18"/>
<text text-anchor="middle" x="340.795" y="-188.3" font-family="Times New Roman,serif" font-size="14.00">Pouch_Dust_Pixie</text>
</g>
<!-- Eye_A_Earie -->
<g id="node6" class="node"><title>Eye_A_Earie</title>
<ellipse fill="none" stroke="black" cx="414.795" cy="-105" rx="58.4896" ry="18"/>
<text text-anchor="middle" x="414.795" y="-101.3" font-family="Times New Roman,serif" font-size="14.00">Eye_A_Earie</text>
</g>
<!-- Pouch_Dust_Pixie&#45;&gt;Eye_A_Earie -->
<g id="edge1" class="edge"><title>Pouch_Dust_Pixie&#45;&gt;Eye_A_Earie</title>
<path fill="none" stroke="black" d="M351.67,-174.148C358.432,-164.137 367.571,-151.406 376.795,-141 380.275,-137.074 384.149,-133.114 388.055,-129.341"/>
<polygon fill="black" stroke="black" points="390.594,-131.759 395.511,-122.375 385.815,-126.645 390.594,-131.759"/>
<text text-anchor="middle" x="404.795" y="-144.8" font-family="Times New Roman,serif" font-size="14.00">Crafting 1</text>
</g>
<!-- Eye -->
<g id="node2" class="node"><title>Eye</title>
<ellipse fill="none" stroke="black" cx="464.795" cy="-192" rx="27" ry="18"/>
<text text-anchor="middle" x="464.795" y="-188.3" font-family="Times New Roman,serif" font-size="14.00">Eye</text>
</g>
<!-- Eye&#45;&gt;Eye_A_Earie -->
<g id="edge2" class="edge"><title>Eye&#45;&gt;Eye_A_Earie</title>
<path fill="none" stroke="black" d="M455.39,-175.012C448.196,-162.783 438.134,-145.677 429.828,-131.556"/>
<polygon fill="black" stroke="black" points="432.757,-129.633 424.67,-122.789 426.724,-133.182 432.757,-129.633"/>
<text text-anchor="middle" x="469.795" y="-144.8" font-family="Times New Roman,serif" font-size="14.00">Crafting 1</text>
</g>
<!-- LeatherHelmet -->
<g id="node3" class="node"><title>LeatherHelmet</title>
<ellipse fill="none" stroke="black" cx="274.795" cy="-105" rx="63.0888" ry="18"/>
<text text-anchor="middle" x="274.795" y="-101.3" font-family="Times New Roman,serif" font-size="14.00">LeatherHelmet</text>
</g>
<!-- Helmet_ThirdEye -->
<g id="node4" class="node"><title>Helmet_ThirdEye</title>
<ellipse fill="none" stroke="black" cx="328.795" cy="-18" rx="74.9875" ry="18"/>
<text text-anchor="middle" x="328.795" y="-14.3" font-family="Times New Roman,serif" font-size="14.00">Helmet_ThirdEye</text>
</g>
<!-- LeatherHelmet&#45;&gt;Helmet_ThirdEye -->
<g id="edge3" class="edge"><title>LeatherHelmet&#45;&gt;Helmet_ThirdEye</title>
<path fill="none" stroke="black" d="M285.301,-86.8056C291.252,-77.129 298.87,-64.8471 305.795,-54 307.731,-50.9664 309.779,-47.7973 311.822,-44.6587"/>
<polygon fill="black" stroke="black" points="314.922,-46.3142 317.474,-36.0312 309.066,-42.4785 314.922,-46.3142"/>
<text text-anchor="middle" x="333.795" y="-57.8" font-family="Times New Roman,serif" font-size="14.00">Crafting 2</text>
</g>
<!-- Pouch_Dust_Bone -->
<g id="node5" class="node"><title>Pouch_Dust_Bone</title>
<ellipse fill="none" stroke="black" cx="167.795" cy="-279" rx="79.8859" ry="18"/>
<text text-anchor="middle" x="167.795" y="-275.3" font-family="Times New Roman,serif" font-size="14.00">Pouch_Dust_Bone</text>
</g>
<!-- Pouch_Dust_Bone&#45;&gt;Pouch_Dust_Pixie -->
<g id="edge4" class="edge"><title>Pouch_Dust_Bone&#45;&gt;Pouch_Dust_Pixie</title>
<path fill="none" stroke="black" d="M199.526,-262.41C227.814,-248.511 269.378,-228.089 300.104,-212.993"/>
<polygon fill="black" stroke="black" points="301.833,-216.043 309.265,-208.491 298.746,-209.76 301.833,-216.043"/>
<text text-anchor="middle" x="291.795" y="-231.8" font-family="Times New Roman,serif" font-size="14.00">Crafting 0</text>
</g>
<!-- Eye_A_Earie&#45;&gt;Helmet_ThirdEye -->
<g id="edge5" class="edge"><title>Eye_A_Earie&#45;&gt;Helmet_ThirdEye</title>
<path fill="none" stroke="black" d="M398.213,-87.6111C385.328,-74.876 367.276,-57.0337 352.81,-42.7363"/>
<polygon fill="black" stroke="black" points="355.192,-40.1689 345.619,-35.6286 350.271,-45.1475 355.192,-40.1689"/>
<text text-anchor="middle" x="404.795" y="-57.8" font-family="Times New Roman,serif" font-size="14.00">Crafting 2</text>
</g>
<!-- Moonstone -->
<g id="node7" class="node"><title>Moonstone</title>
<ellipse fill="none" stroke="black" cx="617.795" cy="-366" rx="51.9908" ry="18"/>
<text text-anchor="middle" x="617.795" y="-362.3" font-family="Times New Roman,serif" font-size="14.00">Moonstone</text>
</g>
<!-- Pouch_Dust_Moon -->
<g id="node13" class="node"><title>Pouch_Dust_Moon</title>
<ellipse fill="none" stroke="black" cx="517.795" cy="-279" rx="83.3857" ry="18"/>
<text text-anchor="middle" x="517.795" y="-275.3" font-family="Times New Roman,serif" font-size="14.00">Pouch_Dust_Moon</text>
</g>
<!-- Moonstone&#45;&gt;Pouch_Dust_Moon -->
<g id="edge6" class="edge"><title>Moonstone&#45;&gt;Pouch_Dust_Moon</title>
<path fill="none" stroke="black" d="M598.985,-349.012C583.913,-336.2 562.544,-318.037 545.512,-303.56"/>
<polygon fill="black" stroke="black" points="547.432,-300.598 537.546,-296.789 542.899,-305.932 547.432,-300.598"/>
<text text-anchor="middle" x="600.795" y="-318.8" font-family="Times New Roman,serif" font-size="14.00">Crafting 0</text>
</g>
<!-- Pouch_Dust_Star -->
<g id="node8" class="node"><title>Pouch_Dust_Star</title>
<ellipse fill="none" stroke="black" cx="340.795" cy="-279" rx="75.2868" ry="18"/>
<text text-anchor="middle" x="340.795" y="-275.3" font-family="Times New Roman,serif" font-size="14.00">Pouch_Dust_Star</text>
</g>
<!-- Pouch_Dust_Star&#45;&gt;Pouch_Dust_Pixie -->
<g id="edge7" class="edge"><title>Pouch_Dust_Star&#45;&gt;Pouch_Dust_Pixie</title>
<path fill="none" stroke="black" d="M340.795,-260.799C340.795,-249.163 340.795,-233.548 340.795,-220.237"/>
<polygon fill="black" stroke="black" points="344.295,-220.175 340.795,-210.175 337.295,-220.175 344.295,-220.175"/>
<text text-anchor="middle" x="368.795" y="-231.8" font-family="Times New Roman,serif" font-size="14.00">Crafting 0</text>
</g>
<!-- Bone -->
<g id="node9" class="node"><title>Bone</title>
<ellipse fill="none" stroke="black" cx="167.795" cy="-366" rx="29.795" ry="18"/>
<text text-anchor="middle" x="167.795" y="-362.3" font-family="Times New Roman,serif" font-size="14.00">Bone</text>
</g>
<!-- Bone&#45;&gt;Pouch_Dust_Bone -->
<g id="edge13" class="edge"><title>Bone&#45;&gt;Pouch_Dust_Bone</title>
<path fill="none" stroke="black" d="M167.795,-347.799C167.795,-336.163 167.795,-320.548 167.795,-307.237"/>
<polygon fill="black" stroke="black" points="171.295,-307.175 167.795,-297.175 164.295,-307.175 171.295,-307.175"/>
<text text-anchor="middle" x="195.795" y="-318.8" font-family="Times New Roman,serif" font-size="14.00">Crafting 0</text>
</g>
<!-- Herb_Stardust -->
<g id="node10" class="node"><title>Herb_Stardust</title>
<ellipse fill="none" stroke="black" cx="483.795" cy="-366" rx="63.8893" ry="18"/>
<text text-anchor="middle" x="483.795" y="-362.3" font-family="Times New Roman,serif" font-size="14.00">Herb_Stardust</text>
</g>
<!-- Herb_Stardust&#45;&gt;Pouch_Dust_Star -->
<g id="edge11" class="edge"><title>Herb_Stardust&#45;&gt;Pouch_Dust_Star</title>
<path fill="none" stroke="black" d="M480.222,-347.94C477.103,-337.075 471.5,-323.494 461.795,-315 452.864,-307.184 429.753,-299.703 406.093,-293.679"/>
<polygon fill="black" stroke="black" points="406.864,-290.265 396.317,-291.275 405.192,-297.062 406.864,-290.265"/>
<text text-anchor="middle" x="499.795" y="-318.8" font-family="Times New Roman,serif" font-size="14.00">Crafting 0</text>
</g>
<!-- Skull_Human -->
<g id="node11" class="node"><title>Skull_Human</title>
<ellipse fill="none" stroke="black" cx="59.7947" cy="-366" rx="59.5901" ry="18"/>
<text text-anchor="middle" x="59.7947" y="-362.3" font-family="Times New Roman,serif" font-size="14.00">Skull_Human</text>
</g>
<!-- Skull_Human&#45;&gt;Pouch_Dust_Bone -->
<g id="edge12" class="edge"><title>Skull_Human&#45;&gt;Pouch_Dust_Bone</title>
<path fill="none" stroke="black" d="M73.8858,-348.087C82.9428,-337.812 95.3145,-324.825 107.795,-315 114.124,-310.017 121.235,-305.252 128.289,-300.929"/>
<polygon fill="black" stroke="black" points="130.3,-303.807 137.131,-295.709 126.741,-297.779 130.3,-303.807"/>
<text text-anchor="middle" x="135.795" y="-318.8" font-family="Times New Roman,serif" font-size="14.00">Crafting 0</text>
</g>
<!-- MortarPestle -->
<g id="node12" class="node"><title>MortarPestle</title>
<ellipse fill="none" stroke="black" cx="325.795" cy="-366" rx="57.3905" ry="18"/>
<text text-anchor="middle" x="325.795" y="-362.3" font-family="Times New Roman,serif" font-size="14.00">MortarPestle</text>
</g>
<!-- MortarPestle&#45;&gt;Pouch_Dust_Bone -->
<g id="edge8" class="edge"><title>MortarPestle&#45;&gt;Pouch_Dust_Bone</title>
<path fill="none" stroke="black" d="M298.273,-350.194C272.744,-336.46 234.51,-315.891 206.022,-300.565"/>
<polygon fill="black" stroke="black" points="207.608,-297.444 197.143,-295.789 204.291,-303.609 207.608,-297.444"/>
<text text-anchor="middle" x="283.795" y="-318.8" font-family="Times New Roman,serif" font-size="14.00">Crafting 0</text>
</g>
<!-- MortarPestle&#45;&gt;Pouch_Dust_Star -->
<g id="edge9" class="edge"><title>MortarPestle&#45;&gt;Pouch_Dust_Star</title>
<path fill="none" stroke="black" d="M324.623,-347.708C324.342,-338.001 324.619,-325.721 326.795,-315 327.349,-312.268 328.107,-309.476 328.984,-306.721"/>
<polygon fill="black" stroke="black" points="332.368,-307.659 332.541,-297.066 325.8,-305.239 332.368,-307.659"/>
<text text-anchor="middle" x="354.795" y="-318.8" font-family="Times New Roman,serif" font-size="14.00">Crafting 0</text>
</g>
<!-- MortarPestle&#45;&gt;Pouch_Dust_Moon -->
<g id="edge10" class="edge"><title>MortarPestle&#45;&gt;Pouch_Dust_Moon</title>
<path fill="none" stroke="black" d="M351.743,-349.948C361.628,-343.986 372.892,-336.913 382.795,-330 391.616,-323.841 392.255,-319.975 401.795,-315 417.309,-306.91 434.987,-300.382 451.785,-295.256"/>
<polygon fill="black" stroke="black" points="452.937,-298.566 461.551,-292.398 450.971,-291.847 452.937,-298.566"/>
<text text-anchor="middle" x="429.795" y="-318.8" font-family="Times New Roman,serif" font-size="14.00">Crafting 0</text>
</g>
<!-- Pouch_Dust_Moon&#45;&gt;Pouch_Dust_Pixie -->
<g id="edge14" class="edge"><title>Pouch_Dust_Moon&#45;&gt;Pouch_Dust_Pixie</title>
<path fill="none" stroke="black" d="M485.33,-262.41C456.388,-248.511 413.862,-228.089 382.426,-212.993"/>
<polygon fill="black" stroke="black" points="383.583,-209.665 373.053,-208.491 380.553,-215.976 383.583,-209.665"/>
<text text-anchor="middle" x="467.795" y="-231.8" font-family="Times New Roman,serif" font-size="14.00">Crafting 0</text>
</g>
</g>
</svg>
