<?xml version="1.0" encoding="UTF-8" standalone="no"?>
<!DOCTYPE svg PUBLIC "-//W3C//DTD SVG 1.1//EN"
 "http://www.w3.org/Graphics/SVG/1.1/DTD/svg11.dtd">
<!-- Generated by graphviz version 2.38.0 (20140413.2041)
 -->
<!-- Title: G Pages: 1 -->
<svg width="266pt" height="149pt"
 viewBox="0.00 0.00 265.59 148.74" xmlns="http://www.w3.org/2000/svg" xmlns:xlink="http://www.w3.org/1999/xlink">
<g id="graph0" class="graph" transform="scale(1 1) rotate(0) translate(4 144.74)">
<title>G</title>
<polygon fill="white" stroke="none" points="-4,4 -4,-144.74 261.589,-144.74 261.589,4 -4,4"/>
<!-- ArmorHelmet
+ Small_FireResistance -->
<g id="node1" class="node"><title>ArmorHelmet
+ Small_FireResistance</title>
<ellipse fill="none" stroke="black" cx="128.795" cy="-26.8701" rx="105.218" ry="26.7407"/>
<text text-anchor="middle" x="128.795" y="-30.6701" font-family="Times New Roman,serif" font-size="14.00">ArmorHelmet</text>
<text text-anchor="middle" x="128.795" y="-15.6701" font-family="Times New Roman,serif" font-size="14.00">+ Small_FireResistance</text>
</g>
<!-- ArmorHelmet -->
<g id="node2" class="node"><title>ArmorHelmet</title>
<ellipse fill="none" stroke="black" cx="59.7947" cy="-122.74" rx="59.5901" ry="18"/>
<text text-anchor="middle" x="59.7947" y="-119.04" font-family="Times New Roman,serif" font-size="14.00">ArmorHelmet</text>
</g>
<!-- ArmorHelmet&#45;&gt;ArmorHelmet
+ Small_FireResistance -->
<g id="edge1" class="edge"><title>ArmorHelmet&#45;&gt;ArmorHelmet
+ Small_FireResistance</title>
<path fill="none" stroke="black" d="M72.1305,-104.958C80.9443,-92.9674 93.105,-76.4235 103.902,-61.7353"/>
<polygon fill="black" stroke="black" points="106.963,-63.4804 110.065,-53.35 101.323,-59.3345 106.963,-63.4804"/>
<text text-anchor="middle" x="124.795" y="-75.5401" font-family="Times New Roman,serif" font-size="14.00">Crafting 3</text>
</g>
<!-- Essence_Fire -->
<g id="node3" class="node"><title>Essence_Fire</title>
<ellipse fill="none" stroke="black" cx="197.795" cy="-122.74" rx="59.5901" ry="18"/>
<text text-anchor="middle" x="197.795" y="-119.04" font-family="Times New Roman,serif" font-size="14.00">Essence_Fire</text>
</g>
<!-- Essence_Fire&#45;&gt;ArmorHelmet
+ Small_FireResistance -->
<g id="edge2" class="edge"><title>Essence_Fire&#45;&gt;ArmorHelmet
+ Small_FireResistance</title>
<path fill="none" stroke="black" d="M185.459,-104.958C176.645,-92.9674 164.484,-76.4235 153.688,-61.7353"/>
<polygon fill="black" stroke="black" points="156.267,-59.3345 147.524,-53.35 150.627,-63.4804 156.267,-59.3345"/>
<text text-anchor="middle" x="199.795" y="-75.5401" font-family="Times New Roman,serif" font-size="14.00">Crafting 3</text>
</g>
</g>
</svg>
