<?xml version="1.0" encoding="UTF-8" standalone="no"?>
<!DOCTYPE svg PUBLIC "-//W3C//DTD SVG 1.1//EN"
 "http://www.w3.org/Graphics/SVG/1.1/DTD/svg11.dtd">
<!-- Generated by graphviz version 2.38.0 (20140413.2041)
 -->
<!-- Title: G Pages: 1 -->
<svg width="213pt" height="149pt"
 viewBox="0.00 0.00 212.59 148.74" xmlns="http://www.w3.org/2000/svg" xmlns:xlink="http://www.w3.org/1999/xlink">
<g id="graph0" class="graph" transform="scale(1 1) rotate(0) translate(4 144.74)">
<title>G</title>
<polygon fill="white" stroke="none" points="-4,4 -4,-144.74 208.59,-144.74 208.59,4 -4,4"/>
<!-- Pearl -->
<g id="node1" class="node"><title>Pearl</title>
<ellipse fill="none" stroke="black" cx="48.9949" cy="-122.74" rx="28.6953" ry="18"/>
<text text-anchor="middle" x="48.9949" y="-119.04" font-family="Times New Roman,serif" font-size="14.00">Pearl</text>
</g>
<!-- RobeArmor
+ Body_Boost_Value -->
<g id="node3" class="node"><title>RobeArmor
+ Body_Boost_Value</title>
<ellipse fill="none" stroke="black" cx="98.9949" cy="-26.8701" rx="98.9899" ry="26.7407"/>
<text text-anchor="middle" x="98.9949" y="-30.6701" font-family="Times New Roman,serif" font-size="14.00">RobeArmor</text>
<text text-anchor="middle" x="98.9949" y="-15.6701" font-family="Times New Roman,serif" font-size="14.00">+ Body_Boost_Value</text>
</g>
<!-- Pearl&#45;&gt;RobeArmor
+ Body_Boost_Value -->
<g id="edge1" class="edge"><title>Pearl&#45;&gt;RobeArmor
+ Body_Boost_Value</title>
<path fill="none" stroke="black" d="M56.1665,-104.827C60.4737,-95.0231 66.2237,-82.5231 71.9949,-71.7401 73.6487,-68.6502 75.4288,-65.4783 77.2579,-62.3219"/>
<polygon fill="black" stroke="black" points="80.3725,-63.9321 82.4779,-53.5486 74.3568,-60.3529 80.3725,-63.9321"/>
<text text-anchor="middle" x="99.9949" y="-75.5401" font-family="Times New Roman,serif" font-size="14.00">Crafting 1</text>
</g>
<!-- RobeArmor -->
<g id="node2" class="node"><title>RobeArmor</title>
<ellipse fill="none" stroke="black" cx="149.995" cy="-122.74" rx="54.6905" ry="18"/>
<text text-anchor="middle" x="149.995" y="-119.04" font-family="Times New Roman,serif" font-size="14.00">RobeArmor</text>
</g>
<!-- RobeArmor&#45;&gt;RobeArmor
+ Body_Boost_Value -->
<g id="edge2" class="edge"><title>RobeArmor&#45;&gt;RobeArmor
+ Body_Boost_Value</title>
<path fill="none" stroke="black" d="M143.354,-104.733C139.307,-94.8972 133.807,-82.3972 127.995,-71.7401 126.23,-68.5039 124.3,-65.1973 122.302,-61.9229"/>
<polygon fill="black" stroke="black" points="125.218,-59.9855 116.917,-53.4015 119.3,-63.7248 125.218,-59.9855"/>
<text text-anchor="middle" x="162.995" y="-75.5401" font-family="Times New Roman,serif" font-size="14.00">Crafting 1</text>
</g>
</g>
</svg>
