<?xml version="1.0" encoding="UTF-8" standalone="no"?>
<!DOCTYPE svg PUBLIC "-//W3C//DTD SVG 1.1//EN"
 "http://www.w3.org/Graphics/SVG/1.1/DTD/svg11.dtd">
<!-- Generated by graphviz version 2.38.0 (20140413.2041)
 -->
<!-- Title: G Pages: 1 -->
<svg width="779pt" height="305pt"
 viewBox="0.00 0.00 778.64 305.00" xmlns="http://www.w3.org/2000/svg" xmlns:xlink="http://www.w3.org/1999/xlink">
<g id="graph0" class="graph" transform="scale(1 1) rotate(0) translate(4 301)">
<title>G</title>
<polygon fill="white" stroke="none" points="-4,4 -4,-301 774.64,-301 774.64,4 -4,4"/>
<!-- Herb_Mushroom_C -->
<g id="node1" class="node"><title>Herb_Mushroom_C</title>
<ellipse fill="none" stroke="black" cx="685.497" cy="-279" rx="85.2851" ry="18"/>
<text text-anchor="middle" x="685.497" y="-275.3" font-family="Times New Roman,serif" font-size="14.00">Herb_Mushroom_C</text>
</g>
<!-- Potion_Poison -->
<g id="node9" class="node"><title>Potion_Poison</title>
<ellipse fill="none" stroke="black" cx="479.497" cy="-192" rx="64.9885" ry="18"/>
<text text-anchor="middle" x="479.497" y="-188.3" font-family="Times New Roman,serif" font-size="14.00">Potion_Poison</text>
</g>
<!-- Herb_Mushroom_C&#45;&gt;Potion_Poison -->
<g id="edge11" class="edge"><title>Herb_Mushroom_C&#45;&gt;Potion_Poison</title>
<path fill="none" stroke="black" d="M649.031,-262.714C625.265,-252.774 593.566,-239.559 565.497,-228 552.064,-222.468 537.43,-216.493 524.106,-211.073"/>
<polygon fill="black" stroke="black" points="525.253,-207.761 514.671,-207.239 522.618,-214.246 525.253,-207.761"/>
<text text-anchor="middle" x="626.497" y="-231.8" font-family="Times New Roman,serif" font-size="14.00">Crafting 1</text>
</g>
<!-- ArrowHead_Antler -->
<g id="node2" class="node"><title>ArrowHead_Antler</title>
<ellipse fill="none" stroke="black" cx="111.497" cy="-192" rx="79.8859" ry="18"/>
<text text-anchor="middle" x="111.497" y="-188.3" font-family="Times New Roman,serif" font-size="14.00">ArrowHead_Antler</text>
</g>
<!-- Arrow_KO -->
<g id="node5" class="node"><title>Arrow_KO</title>
<ellipse fill="none" stroke="black" cx="265.497" cy="-105" rx="51.9908" ry="18"/>
<text text-anchor="middle" x="265.497" y="-101.3" font-family="Times New Roman,serif" font-size="14.00">Arrow_KO</text>
</g>
<!-- ArrowHead_Antler&#45;&gt;Arrow_KO -->
<g id="edge1" class="edge"><title>ArrowHead_Antler&#45;&gt;Arrow_KO</title>
<path fill="none" stroke="black" d="M140.463,-175.012C165.904,-160.97 202.993,-140.499 230.17,-125.499"/>
<polygon fill="black" stroke="black" points="231.912,-128.535 238.976,-120.638 228.529,-122.407 231.912,-128.535"/>
<text text-anchor="middle" x="226.497" y="-144.8" font-family="Times New Roman,serif" font-size="14.00">Crafting 1</text>
</g>
<!-- Potion_Empty -->
<g id="node3" class="node"><title>Potion_Empty</title>
<ellipse fill="none" stroke="black" cx="387.497" cy="-279" rx="63.8893" ry="18"/>
<text text-anchor="middle" x="387.497" y="-275.3" font-family="Times New Roman,serif" font-size="14.00">Potion_Empty</text>
</g>
<!-- Potion_Empty&#45;&gt;Potion_Poison -->
<g id="edge3" class="edge"><title>Potion_Empty&#45;&gt;Potion_Poison</title>
<path fill="none" stroke="black" d="M405.061,-261.223C415.332,-251.464 428.582,-238.964 440.497,-228 444.681,-224.15 449.147,-220.094 453.507,-216.161"/>
<polygon fill="black" stroke="black" points="456.058,-218.574 461.159,-209.288 451.381,-213.367 456.058,-218.574"/>
<text text-anchor="middle" x="468.497" y="-231.8" font-family="Times New Roman,serif" font-size="14.00">Crafting 0</text>
</g>
<!-- Arrow_Debuff_Dexterity -->
<g id="node4" class="node"><title>Arrow_Debuff_Dexterity</title>
<ellipse fill="none" stroke="black" cx="388.497" cy="-18" rx="102.082" ry="18"/>
<text text-anchor="middle" x="388.497" y="-14.3" font-family="Times New Roman,serif" font-size="14.00">Arrow_Debuff_Dexterity</text>
</g>
<!-- Arrow_KO&#45;&gt;Arrow_Debuff_Dexterity -->
<g id="edge4" class="edge"><title>Arrow_KO&#45;&gt;Arrow_Debuff_Dexterity</title>
<path fill="none" stroke="black" d="M287.771,-88.6071C306.755,-75.4882 334.297,-56.4551 355.785,-41.606"/>
<polygon fill="black" stroke="black" points="358.047,-44.2976 364.283,-35.733 354.067,-38.5388 358.047,-44.2976"/>
<text text-anchor="middle" x="362.497" y="-57.8" font-family="Times New Roman,serif" font-size="14.00">Crafting 2</text>
</g>
<!-- Potion_Debuf_Dexterity -->
<g id="node6" class="node"><title>Potion_Debuf_Dexterity</title>
<ellipse fill="none" stroke="black" cx="479.497" cy="-105" rx="99.3824" ry="18"/>
<text text-anchor="middle" x="479.497" y="-101.3" font-family="Times New Roman,serif" font-size="14.00">Potion_Debuf_Dexterity</text>
</g>
<!-- Potion_Debuf_Dexterity&#45;&gt;Arrow_Debuff_Dexterity -->
<g id="edge5" class="edge"><title>Potion_Debuf_Dexterity&#45;&gt;Arrow_Debuff_Dexterity</title>
<path fill="none" stroke="black" d="M461.518,-87.2067C447.933,-74.517 429.104,-56.9297 413.969,-42.7925"/>
<polygon fill="black" stroke="black" points="416.135,-40.0267 406.438,-35.7584 411.357,-45.1422 416.135,-40.0267"/>
<text text-anchor="middle" x="467.497" y="-57.8" font-family="Times New Roman,serif" font-size="14.00">Crafting 2</text>
</g>
<!-- Barrel_Ooze -->
<g id="node7" class="node"><title>Barrel_Ooze</title>
<ellipse fill="none" stroke="black" cx="525.497" cy="-279" rx="56.59" ry="18"/>
<text text-anchor="middle" x="525.497" y="-275.3" font-family="Times New Roman,serif" font-size="14.00">Barrel_Ooze</text>
</g>
<!-- Barrel_Ooze&#45;&gt;Potion_Poison -->
<g id="edge6" class="edge"><title>Barrel_Ooze&#45;&gt;Potion_Poison</title>
<path fill="none" stroke="black" d="M516.409,-261.207C509.899,-249.178 501.008,-232.748 493.583,-219.028"/>
<polygon fill="black" stroke="black" points="496.562,-217.178 488.724,-210.049 490.405,-220.51 496.562,-217.178"/>
<text text-anchor="middle" x="533.497" y="-231.8" font-family="Times New Roman,serif" font-size="14.00">Crafting 0</text>
</g>
<!-- ArrowShaft -->
<g id="node8" class="node"><title>ArrowShaft</title>
<ellipse fill="none" stroke="black" cx="265.497" cy="-192" rx="53.0913" ry="18"/>
<text text-anchor="middle" x="265.497" y="-188.3" font-family="Times New Roman,serif" font-size="14.00">ArrowShaft</text>
</g>
<!-- ArrowShaft&#45;&gt;Arrow_KO -->
<g id="edge7" class="edge"><title>ArrowShaft&#45;&gt;Arrow_KO</title>
<path fill="none" stroke="black" d="M265.497,-173.799C265.497,-162.163 265.497,-146.548 265.497,-133.237"/>
<polygon fill="black" stroke="black" points="268.997,-133.175 265.497,-123.175 261.997,-133.175 268.997,-133.175"/>
<text text-anchor="middle" x="293.497" y="-144.8" font-family="Times New Roman,serif" font-size="14.00">Crafting 1</text>
</g>
<!-- Potion_Poison&#45;&gt;Potion_Debuf_Dexterity -->
<g id="edge8" class="edge"><title>Potion_Poison&#45;&gt;Potion_Debuf_Dexterity</title>
<path fill="none" stroke="black" d="M479.497,-173.799C479.497,-162.163 479.497,-146.548 479.497,-133.237"/>
<polygon fill="black" stroke="black" points="482.997,-133.175 479.497,-123.175 475.997,-133.175 482.997,-133.175"/>
<text text-anchor="middle" x="507.497" y="-144.8" font-family="Times New Roman,serif" font-size="14.00">Crafting 2</text>
</g>
<!-- Branch -->
<g id="node10" class="node"><title>Branch</title>
<ellipse fill="none" stroke="black" cx="269.497" cy="-279" rx="36.2938" ry="18"/>
<text text-anchor="middle" x="269.497" y="-275.3" font-family="Times New Roman,serif" font-size="14.00">Branch</text>
</g>
<!-- Branch&#45;&gt;ArrowShaft -->
<g id="edge9" class="edge"><title>Branch&#45;&gt;ArrowShaft</title>
<path fill="none" stroke="black" d="M268.688,-260.799C268.14,-249.163 267.405,-233.548 266.779,-220.237"/>
<polygon fill="black" stroke="black" points="270.272,-220 266.305,-210.175 263.279,-220.329 270.272,-220"/>
<text text-anchor="middle" x="296.497" y="-231.8" font-family="Times New Roman,serif" font-size="14.00">Crafting 0</text>
</g>
<!-- Antler -->
<g id="node11" class="node"><title>Antler</title>
<ellipse fill="none" stroke="black" cx="32.4971" cy="-279" rx="32.4942" ry="18"/>
<text text-anchor="middle" x="32.4971" y="-275.3" font-family="Times New Roman,serif" font-size="14.00">Antler</text>
</g>
<!-- Antler&#45;&gt;ArrowHead_Antler -->
<g id="edge10" class="edge"><title>Antler&#45;&gt;ArrowHead_Antler</title>
<path fill="none" stroke="black" d="M35.1614,-260.729C37.4935,-250.319 41.7719,-237.316 49.4971,-228 54.003,-222.566 59.584,-217.815 65.5363,-213.712"/>
<polygon fill="black" stroke="black" points="67.8061,-216.421 74.4406,-208.161 64.1029,-210.481 67.8061,-216.421"/>
<text text-anchor="middle" x="77.4971" y="-231.8" font-family="Times New Roman,serif" font-size="14.00">Crafting 1</text>
</g>
<!-- Sinew -->
<g id="node12" class="node"><title>Sinew</title>
<ellipse fill="none" stroke="black" cx="594.497" cy="-192" rx="32.4942" ry="18"/>
<text text-anchor="middle" x="594.497" y="-188.3" font-family="Times New Roman,serif" font-size="14.00">Sinew</text>
</g>
<!-- Sinew&#45;&gt;Potion_Debuf_Dexterity -->
<g id="edge2" class="edge"><title>Sinew&#45;&gt;Potion_Debuf_Dexterity</title>
<path fill="none" stroke="black" d="M579.365,-175.638C568.716,-165.24 553.856,-151.534 539.497,-141 533.071,-136.285 525.963,-131.672 518.955,-127.422"/>
<polygon fill="black" stroke="black" points="520.58,-124.318 510.189,-122.253 517.025,-130.348 520.58,-124.318"/>
<text text-anchor="middle" x="585.497" y="-144.8" font-family="Times New Roman,serif" font-size="14.00">Crafting 2</text>
</g>
<!-- Knife -->
<g id="node13" class="node"><title>Knife</title>
<ellipse fill="none" stroke="black" cx="149.497" cy="-279" rx="30.5947" ry="18"/>
<text text-anchor="middle" x="149.497" y="-275.3" font-family="Times New Roman,serif" font-size="14.00">Knife</text>
</g>
<!-- Knife&#45;&gt;ArrowHead_Antler -->
<g id="edge13" class="edge"><title>Knife&#45;&gt;ArrowHead_Antler</title>
<path fill="none" stroke="black" d="M130.181,-264.861C123.285,-259.045 116.29,-251.571 112.497,-243 109.441,-236.092 108.346,-228.105 108.233,-220.57"/>
<polygon fill="black" stroke="black" points="111.738,-220.505 108.624,-210.378 104.743,-220.236 111.738,-220.505"/>
<text text-anchor="middle" x="140.497" y="-231.8" font-family="Times New Roman,serif" font-size="14.00">Crafting 1</text>
</g>
<!-- Knife&#45;&gt;ArrowShaft -->
<g id="edge12" class="edge"><title>Knife&#45;&gt;ArrowShaft</title>
<path fill="none" stroke="black" d="M165.148,-263.234C176.494,-252.853 192.427,-238.923 207.497,-228 214.615,-222.841 222.521,-217.71 230.149,-213.032"/>
<polygon fill="black" stroke="black" points="232.138,-215.92 238.91,-207.772 228.535,-209.918 232.138,-215.92"/>
<text text-anchor="middle" x="235.497" y="-231.8" font-family="Times New Roman,serif" font-size="14.00">Crafting 0</text>
</g>
</g>
</svg>
