<?xml version="1.0" encoding="UTF-8" standalone="no"?>
<!DOCTYPE svg PUBLIC "-//W3C//DTD SVG 1.1//EN"
 "http://www.w3.org/Graphics/SVG/1.1/DTD/svg11.dtd">
<!-- Generated by graphviz version 2.38.0 (20140413.2041)
 -->
<!-- Title: G Pages: 1 -->
<svg width="341pt" height="131pt"
 viewBox="0.00 0.00 341.14 131.00" xmlns="http://www.w3.org/2000/svg" xmlns:xlink="http://www.w3.org/1999/xlink">
<g id="graph0" class="graph" transform="scale(1 1) rotate(0) translate(4 127)">
<title>G</title>
<polygon fill="white" stroke="none" points="-4,4 -4,-127 337.138,-127 337.138,4 -4,4"/>
<!-- Cloth_B_Boots -->
<g id="node1" class="node"><title>Cloth_B_Boots</title>
<ellipse fill="none" stroke="black" cx="68.2439" cy="-18" rx="68.4888" ry="18"/>
<text text-anchor="middle" x="68.2439" y="-14.3" font-family="Times New Roman,serif" font-size="14.00">Cloth_B_Boots</text>
</g>
<!-- Anvil -->
<g id="node2" class="node"><title>Anvil</title>
<ellipse fill="none" stroke="black" cx="100.244" cy="-105" rx="29.795" ry="18"/>
<text text-anchor="middle" x="100.244" y="-101.3" font-family="Times New Roman,serif" font-size="14.00">Anvil</text>
</g>
<!-- Anvil&#45;&gt;Cloth_B_Boots -->
<g id="edge3" class="edge"><title>Anvil&#45;&gt;Cloth_B_Boots</title>
<path fill="none" stroke="black" d="M76.3758,-93.9355C66.0633,-88.2418 55.0478,-80.0222 49.2439,-69 45.3068,-61.5228 46.5695,-53.0436 49.8328,-45.2194"/>
<polygon fill="black" stroke="black" points="53.0624,-46.5961 54.5904,-36.112 46.8579,-43.3549 53.0624,-46.5961"/>
<text text-anchor="middle" x="77.2439" y="-57.8" font-family="Times New Roman,serif" font-size="14.00">Crafting 1</text>
</g>
<!-- Cloth_A_Boots -->
<g id="node3" class="node"><title>Cloth_A_Boots</title>
<ellipse fill="none" stroke="black" cx="264.244" cy="-18" rx="68.7879" ry="18"/>
<text text-anchor="middle" x="264.244" y="-14.3" font-family="Times New Roman,serif" font-size="14.00">Cloth_A_Boots</text>
</g>
<!-- Anvil&#45;&gt;Cloth_A_Boots -->
<g id="edge4" class="edge"><title>Anvil&#45;&gt;Cloth_A_Boots</title>
<path fill="none" stroke="black" d="M105.672,-87.2622C110.078,-76.2505 117.365,-62.3755 128.244,-54 146.002,-40.3286 168.542,-31.9626 190.14,-26.8547"/>
<polygon fill="black" stroke="black" points="190.941,-30.2624 199.977,-24.7297 189.463,-23.4202 190.941,-30.2624"/>
<text text-anchor="middle" x="156.244" y="-57.8" font-family="Times New Roman,serif" font-size="14.00">Crafting 2</text>
</g>
<!-- Scraps_Cloth -->
<g id="node4" class="node"><title>Scraps_Cloth</title>
<ellipse fill="none" stroke="black" cx="233.244" cy="-105" rx="61.1893" ry="18"/>
<text text-anchor="middle" x="233.244" y="-101.3" font-family="Times New Roman,serif" font-size="14.00">Scraps_Cloth</text>
</g>
<!-- Scraps_Cloth&#45;&gt;Cloth_B_Boots -->
<g id="edge1" class="edge"><title>Scraps_Cloth&#45;&gt;Cloth_B_Boots</title>
<path fill="none" stroke="black" d="M218.548,-87.2982C207.113,-74.6408 191.938,-58.657 184.244,-54 168.301,-44.3503 149.5,-37.1878 131.728,-31.9467"/>
<polygon fill="black" stroke="black" points="132.559,-28.5448 121.986,-29.229 130.678,-35.2873 132.559,-28.5448"/>
<text text-anchor="middle" x="229.244" y="-57.8" font-family="Times New Roman,serif" font-size="14.00">Crafting 1</text>
</g>
<!-- Scraps_Cloth&#45;&gt;Cloth_A_Boots -->
<g id="edge2" class="edge"><title>Scraps_Cloth&#45;&gt;Cloth_A_Boots</title>
<path fill="none" stroke="black" d="M251.175,-87.782C256.008,-82.3348 260.621,-75.8796 263.244,-69 265.935,-61.9422 266.913,-53.9068 267.031,-46.3734"/>
<polygon fill="black" stroke="black" points="270.524,-46.098 266.714,-36.212 263.527,-46.3163 270.524,-46.098"/>
<text text-anchor="middle" x="294.244" y="-57.8" font-family="Times New Roman,serif" font-size="14.00">Crafting 2</text>
</g>
</g>
</svg>
