<?xml version="1.0" encoding="UTF-8" standalone="no"?>
<!DOCTYPE svg PUBLIC "-//W3C//DTD SVG 1.1//EN"
 "http://www.w3.org/Graphics/SVG/1.1/DTD/svg11.dtd">
<!-- Generated by graphviz version 2.38.0 (20140413.2041)
 -->
<!-- Title: G Pages: 1 -->
<svg width="699pt" height="392pt"
 viewBox="0.00 0.00 698.79 392.00" xmlns="http://www.w3.org/2000/svg" xmlns:xlink="http://www.w3.org/1999/xlink">
<g id="graph0" class="graph" transform="scale(1 1) rotate(0) translate(4 388)">
<title>G</title>
<polygon fill="white" stroke="none" points="-4,4 -4,-388 694.795,-388 694.795,4 -4,4"/>
<!-- Pouch_Dust_Pixie -->
<g id="node1" class="node"><title>Pouch_Dust_Pixie</title>
<ellipse fill="none" stroke="black" cx="420.795" cy="-192" rx="78.7863" ry="18"/>
<text text-anchor="middle" x="420.795" y="-188.3" font-family="Times New Roman,serif" font-size="14.00">Pouch_Dust_Pixie</text>
</g>
<!-- Foot_Chicken_A_Magic -->
<g id="node2" class="node"><title>Foot_Chicken_A_Magic</title>
<ellipse fill="none" stroke="black" cx="420.795" cy="-105" rx="101.282" ry="18"/>
<text text-anchor="middle" x="420.795" y="-101.3" font-family="Times New Roman,serif" font-size="14.00">Foot_Chicken_A_Magic</text>
</g>
<!-- Pouch_Dust_Pixie&#45;&gt;Foot_Chicken_A_Magic -->
<g id="edge1" class="edge"><title>Pouch_Dust_Pixie&#45;&gt;Foot_Chicken_A_Magic</title>
<path fill="none" stroke="black" d="M420.795,-173.799C420.795,-162.163 420.795,-146.548 420.795,-133.237"/>
<polygon fill="black" stroke="black" points="424.295,-133.175 420.795,-123.175 417.295,-133.175 424.295,-133.175"/>
<text text-anchor="middle" x="448.795" y="-144.8" font-family="Times New Roman,serif" font-size="14.00">Crafting 1</text>
</g>
<!-- Chicken_Claw_MagicBelt -->
<g id="node10" class="node"><title>Chicken_Claw_MagicBelt</title>
<ellipse fill="none" stroke="black" cx="510.795" cy="-18" rx="105.082" ry="18"/>
<text text-anchor="middle" x="510.795" y="-14.3" font-family="Times New Roman,serif" font-size="14.00">Chicken_Claw_MagicBelt</text>
</g>
<!-- Foot_Chicken_A_Magic&#45;&gt;Chicken_Claw_MagicBelt -->
<g id="edge2" class="edge"><title>Foot_Chicken_A_Magic&#45;&gt;Chicken_Claw_MagicBelt</title>
<path fill="none" stroke="black" d="M438.576,-87.2067C452.012,-74.517 470.634,-56.9297 485.603,-42.7925"/>
<polygon fill="black" stroke="black" points="488.184,-45.1692 493.051,-35.7584 483.377,-40.0801 488.184,-45.1692"/>
<text text-anchor="middle" x="498.795" y="-57.8" font-family="Times New Roman,serif" font-size="14.00">Crafting 2</text>
</g>
<!-- Pouch_Dust_Bone -->
<g id="node3" class="node"><title>Pouch_Dust_Bone</title>
<ellipse fill="none" stroke="black" cx="167.795" cy="-279" rx="79.8859" ry="18"/>
<text text-anchor="middle" x="167.795" y="-275.3" font-family="Times New Roman,serif" font-size="14.00">Pouch_Dust_Bone</text>
</g>
<!-- Pouch_Dust_Bone&#45;&gt;Pouch_Dust_Pixie -->
<g id="edge3" class="edge"><title>Pouch_Dust_Bone&#45;&gt;Pouch_Dust_Pixie</title>
<path fill="none" stroke="black" d="M205.961,-263.094C232.867,-252.776 269.834,-238.979 302.795,-228 322.479,-221.443 344.206,-214.826 363.595,-209.136"/>
<polygon fill="black" stroke="black" points="364.58,-212.495 373.201,-206.337 362.621,-205.774 364.58,-212.495"/>
<text text-anchor="middle" x="330.795" y="-231.8" font-family="Times New Roman,serif" font-size="14.00">Crafting 0</text>
</g>
<!-- Foot_Chicken -->
<g id="node4" class="node"><title>Foot_Chicken</title>
<ellipse fill="none" stroke="black" cx="260.795" cy="-192" rx="63.0888" ry="18"/>
<text text-anchor="middle" x="260.795" y="-188.3" font-family="Times New Roman,serif" font-size="14.00">Foot_Chicken</text>
</g>
<!-- Foot_Chicken&#45;&gt;Foot_Chicken_A_Magic -->
<g id="edge4" class="edge"><title>Foot_Chicken&#45;&gt;Foot_Chicken_A_Magic</title>
<path fill="none" stroke="black" d="M289.399,-175.804C315.03,-162.188 352.865,-142.088 381.362,-126.949"/>
<polygon fill="black" stroke="black" points="383.069,-130.005 390.258,-122.222 379.785,-123.823 383.069,-130.005"/>
<text text-anchor="middle" x="377.795" y="-144.8" font-family="Times New Roman,serif" font-size="14.00">Crafting 1</text>
</g>
<!-- Rope -->
<g id="node5" class="node"><title>Rope</title>
<ellipse fill="none" stroke="black" cx="581.795" cy="-105" rx="30.5947" ry="18"/>
<text text-anchor="middle" x="581.795" y="-101.3" font-family="Times New Roman,serif" font-size="14.00">Rope</text>
</g>
<!-- Rope&#45;&gt;Chicken_Claw_MagicBelt -->
<g id="edge6" class="edge"><title>Rope&#45;&gt;Chicken_Claw_MagicBelt</title>
<path fill="none" stroke="black" d="M568.772,-88.4097C558.398,-75.9898 543.673,-58.3614 531.659,-43.9785"/>
<polygon fill="black" stroke="black" points="534.049,-41.38 524.952,-35.949 528.677,-45.8676 534.049,-41.38"/>
<text text-anchor="middle" x="577.795" y="-57.8" font-family="Times New Roman,serif" font-size="14.00">Crafting 2</text>
</g>
<!-- Moonstone -->
<g id="node6" class="node"><title>Moonstone</title>
<ellipse fill="none" stroke="black" cx="595.795" cy="-366" rx="51.9908" ry="18"/>
<text text-anchor="middle" x="595.795" y="-362.3" font-family="Times New Roman,serif" font-size="14.00">Moonstone</text>
</g>
<!-- Pouch_Dust_Moon -->
<g id="node15" class="node"><title>Pouch_Dust_Moon</title>
<ellipse fill="none" stroke="black" cx="517.795" cy="-279" rx="83.3857" ry="18"/>
<text text-anchor="middle" x="517.795" y="-275.3" font-family="Times New Roman,serif" font-size="14.00">Pouch_Dust_Moon</text>
</g>
<!-- Moonstone&#45;&gt;Pouch_Dust_Moon -->
<g id="edge7" class="edge"><title>Moonstone&#45;&gt;Pouch_Dust_Moon</title>
<path fill="none" stroke="black" d="M591.076,-347.834C587.58,-337.464 581.986,-324.466 573.795,-315 569.511,-310.05 564.353,-305.568 558.923,-301.59"/>
<polygon fill="black" stroke="black" points="560.505,-298.436 550.254,-295.76 556.599,-304.244 560.505,-298.436"/>
<text text-anchor="middle" x="610.795" y="-318.8" font-family="Times New Roman,serif" font-size="14.00">Crafting 0</text>
</g>
<!-- Pouch_Dust_Star -->
<g id="node7" class="node"><title>Pouch_Dust_Star</title>
<ellipse fill="none" stroke="black" cx="340.795" cy="-279" rx="75.2868" ry="18"/>
<text text-anchor="middle" x="340.795" y="-275.3" font-family="Times New Roman,serif" font-size="14.00">Pouch_Dust_Star</text>
</g>
<!-- Pouch_Dust_Star&#45;&gt;Pouch_Dust_Pixie -->
<g id="edge8" class="edge"><title>Pouch_Dust_Star&#45;&gt;Pouch_Dust_Pixie</title>
<path fill="none" stroke="black" d="M350.573,-260.783C356.784,-250.642 365.405,-237.903 374.795,-228 378.864,-223.708 383.498,-219.537 388.22,-215.659"/>
<polygon fill="black" stroke="black" points="390.45,-218.359 396.168,-209.44 386.136,-212.846 390.45,-218.359"/>
<text text-anchor="middle" x="402.795" y="-231.8" font-family="Times New Roman,serif" font-size="14.00">Crafting 0</text>
</g>
<!-- MortarPestle -->
<g id="node8" class="node"><title>MortarPestle</title>
<ellipse fill="none" stroke="black" cx="437.795" cy="-366" rx="57.3905" ry="18"/>
<text text-anchor="middle" x="437.795" y="-362.3" font-family="Times New Roman,serif" font-size="14.00">MortarPestle</text>
</g>
<!-- MortarPestle&#45;&gt;Pouch_Dust_Bone -->
<g id="edge13" class="edge"><title>MortarPestle&#45;&gt;Pouch_Dust_Bone</title>
<path fill="none" stroke="black" d="M401.676,-351.99C387.009,-346.098 370.168,-338.535 355.795,-330 346.544,-324.507 346.546,-319.546 336.795,-315 331.998,-312.764 281.001,-302.331 236.271,-293.433"/>
<polygon fill="black" stroke="black" points="236.743,-289.959 226.253,-291.445 235.38,-296.825 236.743,-289.959"/>
<text text-anchor="middle" x="383.795" y="-318.8" font-family="Times New Roman,serif" font-size="14.00">Crafting 0</text>
</g>
<!-- MortarPestle&#45;&gt;Pouch_Dust_Star -->
<g id="edge14" class="edge"><title>MortarPestle&#45;&gt;Pouch_Dust_Star</title>
<path fill="none" stroke="black" d="M433.622,-347.946C430.292,-337.358 424.681,-324.085 415.795,-315 409.375,-308.437 401.489,-302.97 393.267,-298.461"/>
<polygon fill="black" stroke="black" points="394.774,-295.301 384.268,-293.937 391.63,-301.555 394.774,-295.301"/>
<text text-anchor="middle" x="453.795" y="-318.8" font-family="Times New Roman,serif" font-size="14.00">Crafting 0</text>
</g>
<!-- MortarPestle&#45;&gt;Pouch_Dust_Moon -->
<g id="edge15" class="edge"><title>MortarPestle&#45;&gt;Pouch_Dust_Moon</title>
<path fill="none" stroke="black" d="M468.385,-350.675C477.737,-345.2 487.474,-338.253 494.795,-330 500.745,-323.292 505.424,-314.783 508.963,-306.695"/>
<polygon fill="black" stroke="black" points="512.3,-307.774 512.725,-297.187 505.791,-305.199 512.3,-307.774"/>
<text text-anchor="middle" x="532.795" y="-318.8" font-family="Times New Roman,serif" font-size="14.00">Crafting 0</text>
</g>
<!-- Skull_Human -->
<g id="node9" class="node"><title>Skull_Human</title>
<ellipse fill="none" stroke="black" cx="59.7947" cy="-366" rx="59.5901" ry="18"/>
<text text-anchor="middle" x="59.7947" y="-362.3" font-family="Times New Roman,serif" font-size="14.00">Skull_Human</text>
</g>
<!-- Skull_Human&#45;&gt;Pouch_Dust_Bone -->
<g id="edge12" class="edge"><title>Skull_Human&#45;&gt;Pouch_Dust_Bone</title>
<path fill="none" stroke="black" d="M73.8858,-348.087C82.9428,-337.812 95.3145,-324.825 107.795,-315 114.124,-310.017 121.235,-305.252 128.289,-300.929"/>
<polygon fill="black" stroke="black" points="130.3,-303.807 137.131,-295.709 126.741,-297.779 130.3,-303.807"/>
<text text-anchor="middle" x="135.795" y="-318.8" font-family="Times New Roman,serif" font-size="14.00">Crafting 0</text>
</g>
<!-- Herb_Stardust -->
<g id="node11" class="node"><title>Herb_Stardust</title>
<ellipse fill="none" stroke="black" cx="279.795" cy="-366" rx="63.8893" ry="18"/>
<text text-anchor="middle" x="279.795" y="-362.3" font-family="Times New Roman,serif" font-size="14.00">Herb_Stardust</text>
</g>
<!-- Herb_Stardust&#45;&gt;Pouch_Dust_Star -->
<g id="edge10" class="edge"><title>Herb_Stardust&#45;&gt;Pouch_Dust_Star</title>
<path fill="none" stroke="black" d="M276.127,-347.658C274.907,-337.472 275.076,-324.731 280.795,-315 284.123,-309.337 288.751,-304.499 293.976,-300.392"/>
<polygon fill="black" stroke="black" points="296.286,-303.053 302.575,-294.526 292.341,-297.27 296.286,-303.053"/>
<text text-anchor="middle" x="308.795" y="-318.8" font-family="Times New Roman,serif" font-size="14.00">Crafting 0</text>
</g>
<!-- Wool -->
<g id="node12" class="node"><title>Wool</title>
<ellipse fill="none" stroke="black" cx="649.795" cy="-279" rx="31.3957" ry="18"/>
<text text-anchor="middle" x="649.795" y="-275.3" font-family="Times New Roman,serif" font-size="14.00">Wool</text>
</g>
<!-- Yarn_A_Wool -->
<g id="node13" class="node"><title>Yarn_A_Wool</title>
<ellipse fill="none" stroke="black" cx="615.795" cy="-192" rx="64.9885" ry="18"/>
<text text-anchor="middle" x="615.795" y="-188.3" font-family="Times New Roman,serif" font-size="14.00">Yarn_A_Wool</text>
</g>
<!-- Wool&#45;&gt;Yarn_A_Wool -->
<g id="edge11" class="edge"><title>Wool&#45;&gt;Yarn_A_Wool</title>
<path fill="none" stroke="black" d="M643.077,-261.207C638.312,-249.293 631.82,-233.063 626.364,-219.424"/>
<polygon fill="black" stroke="black" points="629.578,-218.034 622.614,-210.049 623.079,-220.634 629.578,-218.034"/>
<text text-anchor="middle" x="662.795" y="-231.8" font-family="Times New Roman,serif" font-size="14.00">Crafting 0</text>
</g>
<!-- Yarn_A_Wool&#45;&gt;Rope -->
<g id="edge5" class="edge"><title>Yarn_A_Wool&#45;&gt;Rope</title>
<path fill="none" stroke="black" d="M608.914,-173.799C604.105,-161.776 597.597,-145.506 592.162,-131.918"/>
<polygon fill="black" stroke="black" points="595.397,-130.582 588.433,-122.597 588.898,-133.182 595.397,-130.582"/>
<text text-anchor="middle" x="628.795" y="-144.8" font-family="Times New Roman,serif" font-size="14.00">Crafting 0</text>
</g>
<!-- Bone -->
<g id="node14" class="node"><title>Bone</title>
<ellipse fill="none" stroke="black" cx="167.795" cy="-366" rx="29.795" ry="18"/>
<text text-anchor="middle" x="167.795" y="-362.3" font-family="Times New Roman,serif" font-size="14.00">Bone</text>
</g>
<!-- Bone&#45;&gt;Pouch_Dust_Bone -->
<g id="edge9" class="edge"><title>Bone&#45;&gt;Pouch_Dust_Bone</title>
<path fill="none" stroke="black" d="M167.795,-347.799C167.795,-336.163 167.795,-320.548 167.795,-307.237"/>
<polygon fill="black" stroke="black" points="171.295,-307.175 167.795,-297.175 164.295,-307.175 171.295,-307.175"/>
<text text-anchor="middle" x="195.795" y="-318.8" font-family="Times New Roman,serif" font-size="14.00">Crafting 0</text>
</g>
<!-- Pouch_Dust_Moon&#45;&gt;Pouch_Dust_Pixie -->
<g id="edge16" class="edge"><title>Pouch_Dust_Moon&#45;&gt;Pouch_Dust_Pixie</title>
<path fill="none" stroke="black" d="M498.631,-261.207C484.017,-248.401 463.71,-230.607 447.503,-216.404"/>
<polygon fill="black" stroke="black" points="449.747,-213.717 439.919,-209.758 445.133,-218.981 449.747,-213.717"/>
<text text-anchor="middle" x="502.795" y="-231.8" font-family="Times New Roman,serif" font-size="14.00">Crafting 0</text>
</g>
</g>
</svg>
