<?xml version="1.0" encoding="UTF-8" standalone="no"?>
<!DOCTYPE svg PUBLIC "-//W3C//DTD SVG 1.1//EN"
 "http://www.w3.org/Graphics/SVG/1.1/DTD/svg11.dtd">
<!-- Generated by graphviz version 2.38.0 (20140413.2041)
 -->
<!-- Title: G Pages: 1 -->
<svg width="220pt" height="149pt"
 viewBox="0.00 0.00 219.55 148.74" xmlns="http://www.w3.org/2000/svg" xmlns:xlink="http://www.w3.org/1999/xlink">
<g id="graph0" class="graph" transform="scale(1 1) rotate(0) translate(4 144.74)">
<title>G</title>
<polygon fill="white" stroke="none" points="-4,4 -4,-144.74 215.547,-144.74 215.547,4 -4,4"/>
<!-- Dagger
+ Small_FireDamage -->
<g id="node1" class="node"><title>Dagger
+ Small_FireDamage</title>
<ellipse fill="none" stroke="black" cx="94.7523" cy="-26.8701" rx="94.5053" ry="26.7407"/>
<text text-anchor="middle" x="94.7523" y="-30.6701" font-family="Times New Roman,serif" font-size="14.00">Dagger</text>
<text text-anchor="middle" x="94.7523" y="-15.6701" font-family="Times New Roman,serif" font-size="14.00">+ Small_FireDamage</text>
</g>
<!-- Dagger -->
<g id="node2" class="node"><title>Dagger</title>
<ellipse fill="none" stroke="black" cx="37.7523" cy="-122.74" rx="36.2938" ry="18"/>
<text text-anchor="middle" x="37.7523" y="-119.04" font-family="Times New Roman,serif" font-size="14.00">Dagger</text>
</g>
<!-- Dagger&#45;&gt;Dagger
+ Small_FireDamage -->
<g id="edge1" class="edge"><title>Dagger&#45;&gt;Dagger
+ Small_FireDamage</title>
<path fill="none" stroke="black" d="M47.681,-105.389C54.8656,-93.5572 64.8392,-77.1323 73.7572,-62.4457"/>
<polygon fill="black" stroke="black" points="76.9405,-63.9467 79.1391,-53.5825 70.9571,-60.3135 76.9405,-63.9467"/>
<text text-anchor="middle" x="96.7523" y="-75.5401" font-family="Times New Roman,serif" font-size="14.00">Crafting 5</text>
</g>
<!-- Essence_Fire -->
<g id="node3" class="node"><title>Essence_Fire</title>
<ellipse fill="none" stroke="black" cx="151.752" cy="-122.74" rx="59.5901" ry="18"/>
<text text-anchor="middle" x="151.752" y="-119.04" font-family="Times New Roman,serif" font-size="14.00">Essence_Fire</text>
</g>
<!-- Essence_Fire&#45;&gt;Dagger
+ Small_FireDamage -->
<g id="edge2" class="edge"><title>Essence_Fire&#45;&gt;Dagger
+ Small_FireDamage</title>
<path fill="none" stroke="black" d="M145.009,-104.583C140.845,-94.6971 135.095,-82.1971 128.752,-71.7401 126.675,-68.3159 124.377,-64.8471 121.983,-61.4386"/>
<polygon fill="black" stroke="black" points="124.643,-59.1471 115.909,-53.1496 118.996,-63.2846 124.643,-59.1471"/>
<text text-anchor="middle" x="163.752" y="-75.5401" font-family="Times New Roman,serif" font-size="14.00">Crafting 5</text>
</g>
</g>
</svg>
