<?xml version="1.0" encoding="UTF-8" standalone="no"?>
<!DOCTYPE svg PUBLIC "-//W3C//DTD SVG 1.1//EN"
 "http://www.w3.org/Graphics/SVG/1.1/DTD/svg11.dtd">
<!-- Generated by graphviz version 2.38.0 (20140413.2041)
 -->
<!-- Title: G Pages: 1 -->
<svg width="725pt" height="479pt"
 viewBox="0.00 0.00 724.59 479.00" xmlns="http://www.w3.org/2000/svg" xmlns:xlink="http://www.w3.org/1999/xlink">
<g id="graph0" class="graph" transform="scale(1 1) rotate(0) translate(4 475)">
<title>G</title>
<polygon fill="white" stroke="none" points="-4,4 -4,-475 720.591,-475 720.591,4 -4,4"/>
<!-- Potion_Armor_Boost -->
<g id="node1" class="node"><title>Potion_Armor_Boost</title>
<ellipse fill="none" stroke="black" cx="439.147" cy="-279" rx="90.1842" ry="18"/>
<text text-anchor="middle" x="439.147" y="-275.3" font-family="Times New Roman,serif" font-size="14.00">Potion_Armor_Boost</text>
</g>
<!-- Potion_Fire_Res -->
<g id="node5" class="node"><title>Potion_Fire_Res</title>
<ellipse fill="none" stroke="black" cx="252.147" cy="-192" rx="72.5877" ry="18"/>
<text text-anchor="middle" x="252.147" y="-188.3" font-family="Times New Roman,serif" font-size="14.00">Potion_Fire_Res</text>
</g>
<!-- Potion_Armor_Boost&#45;&gt;Potion_Fire_Res -->
<g id="edge1" class="edge"><title>Potion_Armor_Boost&#45;&gt;Potion_Fire_Res</title>
<path fill="none" stroke="black" d="M428.073,-260.711C420.175,-249.749 408.598,-236.147 395.147,-228 387.959,-223.646 350.415,-214.528 315.602,-206.691"/>
<polygon fill="black" stroke="black" points="315.926,-203.177 305.404,-204.413 314.4,-210.009 315.926,-203.177"/>
<text text-anchor="middle" x="442.147" y="-231.8" font-family="Times New Roman,serif" font-size="14.00">Crafting 2</text>
</g>
<!-- ArrowHead -->
<g id="node2" class="node"><title>ArrowHead</title>
<ellipse fill="none" stroke="black" cx="108.147" cy="-192" rx="53.0913" ry="18"/>
<text text-anchor="middle" x="108.147" y="-188.3" font-family="Times New Roman,serif" font-size="14.00">ArrowHead</text>
</g>
<!-- ArrowHead_Explosive -->
<g id="node3" class="node"><title>ArrowHead_Explosive</title>
<ellipse fill="none" stroke="black" cx="252.147" cy="-105" rx="93.6835" ry="18"/>
<text text-anchor="middle" x="252.147" y="-101.3" font-family="Times New Roman,serif" font-size="14.00">ArrowHead_Explosive</text>
</g>
<!-- ArrowHead&#45;&gt;ArrowHead_Explosive -->
<g id="edge2" class="edge"><title>ArrowHead&#45;&gt;ArrowHead_Explosive</title>
<path fill="none" stroke="black" d="M133.107,-176.065C149.798,-166.097 172.262,-152.718 192.147,-141 199.615,-136.6 207.619,-131.911 215.269,-127.443"/>
<polygon fill="black" stroke="black" points="217.16,-130.392 224.035,-122.33 213.633,-124.346 217.16,-130.392"/>
<text text-anchor="middle" x="220.147" y="-144.8" font-family="Times New Roman,serif" font-size="14.00">Crafting 3</text>
</g>
<!-- Arrow_Explosive -->
<g id="node9" class="node"><title>Arrow_Explosive</title>
<ellipse fill="none" stroke="black" cx="337.147" cy="-18" rx="74.9875" ry="18"/>
<text text-anchor="middle" x="337.147" y="-14.3" font-family="Times New Roman,serif" font-size="14.00">Arrow_Explosive</text>
</g>
<!-- ArrowHead_Explosive&#45;&gt;Arrow_Explosive -->
<g id="edge3" class="edge"><title>ArrowHead_Explosive&#45;&gt;Arrow_Explosive</title>
<path fill="none" stroke="black" d="M268.94,-87.2067C281.514,-74.6335 298.895,-57.252 312.965,-43.1825"/>
<polygon fill="black" stroke="black" points="315.792,-45.3044 320.389,-35.7584 310.843,-40.3546 315.792,-45.3044"/>
<text text-anchor="middle" x="328.147" y="-57.8" font-family="Times New Roman,serif" font-size="14.00">Crafting 3</text>
</g>
<!-- Potion_Empty -->
<g id="node4" class="node"><title>Potion_Empty</title>
<ellipse fill="none" stroke="black" cx="488.147" cy="-453" rx="63.8893" ry="18"/>
<text text-anchor="middle" x="488.147" y="-449.3" font-family="Times New Roman,serif" font-size="14.00">Potion_Empty</text>
</g>
<!-- Minor_Healing_Potion -->
<g id="node14" class="node"><title>Minor_Healing_Potion</title>
<ellipse fill="none" stroke="black" cx="566.147" cy="-366" rx="92.8835" ry="18"/>
<text text-anchor="middle" x="566.147" y="-362.3" font-family="Times New Roman,serif" font-size="14.00">Minor_Healing_Potion</text>
</g>
<!-- Potion_Empty&#45;&gt;Minor_Healing_Potion -->
<g id="edge4" class="edge"><title>Potion_Empty&#45;&gt;Minor_Healing_Potion</title>
<path fill="none" stroke="black" d="M503.557,-435.207C515.095,-422.633 531.045,-405.252 543.956,-391.182"/>
<polygon fill="black" stroke="black" points="546.586,-393.493 550.769,-383.758 541.429,-388.76 546.586,-393.493"/>
<text text-anchor="middle" x="559.147" y="-405.8" font-family="Times New Roman,serif" font-size="14.00">Crafting 1</text>
</g>
<!-- Potion_Fire_Res&#45;&gt;ArrowHead_Explosive -->
<g id="edge5" class="edge"><title>Potion_Fire_Res&#45;&gt;ArrowHead_Explosive</title>
<path fill="none" stroke="black" d="M252.147,-173.799C252.147,-162.163 252.147,-146.548 252.147,-133.237"/>
<polygon fill="black" stroke="black" points="255.647,-133.175 252.147,-123.175 248.647,-133.175 255.647,-133.175"/>
<text text-anchor="middle" x="280.147" y="-144.8" font-family="Times New Roman,serif" font-size="14.00">Crafting 3</text>
</g>
<!-- Herb_Whisperwood -->
<g id="node6" class="node"><title>Herb_Whisperwood</title>
<ellipse fill="none" stroke="black" cx="370.147" cy="-366" rx="85.2851" ry="18"/>
<text text-anchor="middle" x="370.147" y="-362.3" font-family="Times New Roman,serif" font-size="14.00">Herb_Whisperwood</text>
</g>
<!-- Herb_Whisperwood&#45;&gt;Potion_Armor_Boost -->
<g id="edge6" class="edge"><title>Herb_Whisperwood&#45;&gt;Potion_Armor_Boost</title>
<path fill="none" stroke="black" d="M383.779,-348.207C393.826,-335.831 407.654,-318.796 418.977,-304.847"/>
<polygon fill="black" stroke="black" points="421.722,-307.019 425.307,-297.049 416.287,-302.607 421.722,-307.019"/>
<text text-anchor="middle" x="437.147" y="-318.8" font-family="Times New Roman,serif" font-size="14.00">Crafting 2</text>
</g>
<!-- Tooth -->
<g id="node7" class="node"><title>Tooth</title>
<ellipse fill="none" stroke="black" cx="33.1471" cy="-279" rx="33.2948" ry="18"/>
<text text-anchor="middle" x="33.1471" y="-275.3" font-family="Times New Roman,serif" font-size="14.00">Tooth</text>
</g>
<!-- Tooth&#45;&gt;ArrowHead -->
<g id="edge7" class="edge"><title>Tooth&#45;&gt;ArrowHead</title>
<path fill="none" stroke="black" d="M36.7255,-260.838C39.5582,-250.469 44.3666,-237.472 52.1471,-228 56.95,-222.153 62.9986,-216.994 69.3314,-212.558"/>
<polygon fill="black" stroke="black" points="71.5283,-215.307 78.0527,-206.959 67.7467,-209.416 71.5283,-215.307"/>
<text text-anchor="middle" x="80.1471" y="-231.8" font-family="Times New Roman,serif" font-size="14.00">Crafting 1</text>
</g>
<!-- ArrowShaft -->
<g id="node8" class="node"><title>ArrowShaft</title>
<ellipse fill="none" stroke="black" cx="396.147" cy="-192" rx="53.0913" ry="18"/>
<text text-anchor="middle" x="396.147" y="-188.3" font-family="Times New Roman,serif" font-size="14.00">ArrowShaft</text>
</g>
<!-- ArrowShaft&#45;&gt;Arrow_Explosive -->
<g id="edge8" class="edge"><title>ArrowShaft&#45;&gt;Arrow_Explosive</title>
<path fill="none" stroke="black" d="M393.503,-173.961C388.989,-147.451 378.464,-95.1076 360.147,-54 358.713,-50.781 356.997,-47.5262 355.158,-44.3647"/>
<polygon fill="black" stroke="black" points="358.065,-42.4121 349.779,-35.8086 352.138,-46.1375 358.065,-42.4121"/>
<text text-anchor="middle" x="411.147" y="-101.3" font-family="Times New Roman,serif" font-size="14.00">Crafting 3</text>
</g>
<!-- Knife -->
<g id="node10" class="node"><title>Knife</title>
<ellipse fill="none" stroke="black" cx="115.147" cy="-279" rx="30.5947" ry="18"/>
<text text-anchor="middle" x="115.147" y="-275.3" font-family="Times New Roman,serif" font-size="14.00">Knife</text>
</g>
<!-- Knife&#45;&gt;ArrowHead -->
<g id="edge14" class="edge"><title>Knife&#45;&gt;ArrowHead</title>
<path fill="none" stroke="black" d="M113.731,-260.799C112.772,-249.163 111.486,-233.548 110.39,-220.237"/>
<polygon fill="black" stroke="black" points="113.871,-219.854 109.562,-210.175 106.894,-220.429 113.871,-219.854"/>
<text text-anchor="middle" x="140.147" y="-231.8" font-family="Times New Roman,serif" font-size="14.00">Crafting 1</text>
</g>
<!-- Knife&#45;&gt;ArrowShaft -->
<g id="edge13" class="edge"><title>Knife&#45;&gt;ArrowShaft</title>
<path fill="none" stroke="black" d="M137.837,-266.77C143.087,-264.55 148.727,-262.459 154.147,-261 221.541,-242.857 244.067,-265.461 310.147,-243 322.415,-238.83 323.971,-234.558 335.147,-228 343.499,-223.099 352.531,-217.875 361.02,-212.999"/>
<polygon fill="black" stroke="black" points="363.024,-215.885 369.96,-207.877 359.544,-209.811 363.024,-215.885"/>
<text text-anchor="middle" x="363.147" y="-231.8" font-family="Times New Roman,serif" font-size="14.00">Crafting 0</text>
</g>
<!-- Branch -->
<g id="node11" class="node"><title>Branch</title>
<ellipse fill="none" stroke="black" cx="584.147" cy="-279" rx="36.2938" ry="18"/>
<text text-anchor="middle" x="584.147" y="-275.3" font-family="Times New Roman,serif" font-size="14.00">Branch</text>
</g>
<!-- Branch&#45;&gt;ArrowShaft -->
<g id="edge10" class="edge"><title>Branch&#45;&gt;ArrowShaft</title>
<path fill="none" stroke="black" d="M558.381,-266.246C536.099,-256.091 503.016,-241.038 474.147,-228 461.872,-222.456 448.499,-216.445 436.349,-210.995"/>
<polygon fill="black" stroke="black" points="437.468,-207.661 426.911,-206.763 434.604,-214.048 437.468,-207.661"/>
<text text-anchor="middle" x="533.147" y="-231.8" font-family="Times New Roman,serif" font-size="14.00">Crafting 0</text>
</g>
<!-- Herb_Mushroom -->
<g id="node12" class="node"><title>Herb_Mushroom</title>
<ellipse fill="none" stroke="black" cx="643.147" cy="-453" rx="73.387" ry="18"/>
<text text-anchor="middle" x="643.147" y="-449.3" font-family="Times New Roman,serif" font-size="14.00">Herb_Mushroom</text>
</g>
<!-- Herb_Mushroom&#45;&gt;Minor_Healing_Potion -->
<g id="edge11" class="edge"><title>Herb_Mushroom&#45;&gt;Minor_Healing_Potion</title>
<path fill="none" stroke="black" d="M627.934,-435.207C616.544,-422.633 600.799,-405.252 588.054,-391.182"/>
<polygon fill="black" stroke="black" points="590.636,-388.82 581.328,-383.758 585.448,-393.519 590.636,-388.82"/>
<text text-anchor="middle" x="637.147" y="-405.8" font-family="Times New Roman,serif" font-size="14.00">Crafting 1</text>
</g>
<!-- Herb_Mushroom_E -->
<g id="node13" class="node"><title>Herb_Mushroom_E</title>
<ellipse fill="none" stroke="black" cx="247.147" cy="-279" rx="83.6854" ry="18"/>
<text text-anchor="middle" x="247.147" y="-275.3" font-family="Times New Roman,serif" font-size="14.00">Herb_Mushroom_E</text>
</g>
<!-- Herb_Mushroom_E&#45;&gt;Potion_Fire_Res -->
<g id="edge12" class="edge"><title>Herb_Mushroom_E&#45;&gt;Potion_Fire_Res</title>
<path fill="none" stroke="black" d="M248.159,-260.799C248.843,-249.163 249.762,-233.548 250.545,-220.237"/>
<polygon fill="black" stroke="black" points="254.043,-220.364 251.137,-210.175 247.055,-219.953 254.043,-220.364"/>
<text text-anchor="middle" x="278.147" y="-231.8" font-family="Times New Roman,serif" font-size="14.00">Crafting 2</text>
</g>
<!-- Minor_Healing_Potion&#45;&gt;Potion_Armor_Boost -->
<g id="edge9" class="edge"><title>Minor_Healing_Potion&#45;&gt;Potion_Armor_Boost</title>
<path fill="none" stroke="black" d="M541.66,-348.611C521.895,-335.382 493.895,-316.643 472.152,-302.09"/>
<polygon fill="black" stroke="black" points="473.816,-298.992 463.559,-296.339 469.922,-304.809 473.816,-298.992"/>
<text text-anchor="middle" x="539.147" y="-318.8" font-family="Times New Roman,serif" font-size="14.00">Crafting 2</text>
</g>
</g>
</svg>
