<?xml version="1.0" encoding="UTF-8" standalone="no"?>
<!DOCTYPE svg PUBLIC "-//W3C//DTD SVG 1.1//EN"
 "http://www.w3.org/Graphics/SVG/1.1/DTD/svg11.dtd">
<!-- Generated by graphviz version 2.38.0 (20140413.2041)
 -->
<!-- Title: G Pages: 1 -->
<svg width="982pt" height="566pt"
 viewBox="0.00 0.00 982.08 566.00" xmlns="http://www.w3.org/2000/svg" xmlns:xlink="http://www.w3.org/1999/xlink">
<g id="graph0" class="graph" transform="scale(1 1) rotate(0) translate(4 562)">
<title>G</title>
<polygon fill="white" stroke="none" points="-4,4 -4,-562 978.083,-562 978.083,4 -4,4"/>
<!-- Herb_Augmentor -->
<g id="node1" class="node"><title>Herb_Augmentor</title>
<ellipse fill="none" stroke="black" cx="275.843" cy="-192" rx="74.187" ry="18"/>
<text text-anchor="middle" x="275.843" y="-188.3" font-family="Times New Roman,serif" font-size="14.00">Herb_Augmentor</text>
</g>
<!-- Large_ResistAll_Potion -->
<g id="node2" class="node"><title>Large_ResistAll_Potion</title>
<ellipse fill="none" stroke="black" cx="328.843" cy="-18" rx="97.4827" ry="18"/>
<text text-anchor="middle" x="328.843" y="-14.3" font-family="Times New Roman,serif" font-size="14.00">Large_ResistAll_Potion</text>
</g>
<!-- Herb_Augmentor&#45;&gt;Large_ResistAll_Potion -->
<g id="edge2" class="edge"><title>Herb_Augmentor&#45;&gt;Large_ResistAll_Potion</title>
<path fill="none" stroke="black" d="M274.836,-173.913C274.152,-152.87 274.791,-116.315 284.843,-87 290.091,-71.6942 299.511,-56.4091 308.292,-44.2185"/>
<polygon fill="black" stroke="black" points="311.306,-46.0333 314.504,-35.9328 305.705,-41.8341 311.306,-46.0333"/>
<text text-anchor="middle" x="312.843" y="-101.3" font-family="Times New Roman,serif" font-size="14.00">Crafting 5</text>
</g>
<!-- Medium_ResistAll_Potion -->
<g id="node10" class="node"><title>Medium_ResistAll_Potion</title>
<ellipse fill="none" stroke="black" cx="456.843" cy="-105" rx="106.681" ry="18"/>
<text text-anchor="middle" x="456.843" y="-101.3" font-family="Times New Roman,serif" font-size="14.00">Medium_ResistAll_Potion</text>
</g>
<!-- Herb_Augmentor&#45;&gt;Medium_ResistAll_Potion -->
<g id="edge1" class="edge"><title>Herb_Augmentor&#45;&gt;Medium_ResistAll_Potion</title>
<path fill="none" stroke="black" d="M308.202,-175.804C337.539,-162.026 381.013,-141.61 413.376,-126.413"/>
<polygon fill="black" stroke="black" points="415.046,-129.495 422.61,-122.076 412.071,-123.159 415.046,-129.495"/>
<text text-anchor="middle" x="404.843" y="-144.8" font-family="Times New Roman,serif" font-size="14.00">Crafting 4</text>
</g>
<!-- Potion_Armor_Boost -->
<g id="node3" class="node"><title>Potion_Armor_Boost</title>
<ellipse fill="none" stroke="black" cx="463.843" cy="-366" rx="90.1842" ry="18"/>
<text text-anchor="middle" x="463.843" y="-362.3" font-family="Times New Roman,serif" font-size="14.00">Potion_Armor_Boost</text>
</g>
<!-- Potion_Earth_Res -->
<g id="node4" class="node"><title>Potion_Earth_Res</title>
<ellipse fill="none" stroke="black" cx="378.843" cy="-279" rx="77.1866" ry="18"/>
<text text-anchor="middle" x="378.843" y="-275.3" font-family="Times New Roman,serif" font-size="14.00">Potion_Earth_Res</text>
</g>
<!-- Potion_Armor_Boost&#45;&gt;Potion_Earth_Res -->
<g id="edge6" class="edge"><title>Potion_Armor_Boost&#45;&gt;Potion_Earth_Res</title>
<path fill="none" stroke="black" d="M423.917,-349.709C414.409,-344.587 404.966,-338.071 397.843,-330 392.139,-323.538 388.074,-315.19 385.208,-307.172"/>
<polygon fill="black" stroke="black" points="388.475,-305.888 382.188,-297.36 381.785,-307.947 388.475,-305.888"/>
<text text-anchor="middle" x="425.843" y="-318.8" font-family="Times New Roman,serif" font-size="14.00">Crafting 2</text>
</g>
<!-- Potion_Fire_Res -->
<g id="node5" class="node"><title>Potion_Fire_Res</title>
<ellipse fill="none" stroke="black" cx="201.843" cy="-279" rx="72.5877" ry="18"/>
<text text-anchor="middle" x="201.843" y="-275.3" font-family="Times New Roman,serif" font-size="14.00">Potion_Fire_Res</text>
</g>
<!-- Potion_Armor_Boost&#45;&gt;Potion_Fire_Res -->
<g id="edge3" class="edge"><title>Potion_Armor_Boost&#45;&gt;Potion_Fire_Res</title>
<path fill="none" stroke="black" d="M398.099,-353.57C387.003,-351.682 375.598,-349.765 364.843,-348 313.792,-339.622 295.717,-353.914 249.843,-330 238.454,-324.063 228.218,-314.385 220.153,-305.118"/>
<polygon fill="black" stroke="black" points="222.696,-302.699 213.65,-297.184 217.282,-307.137 222.696,-302.699"/>
<text text-anchor="middle" x="277.843" y="-318.8" font-family="Times New Roman,serif" font-size="14.00">Crafting 2</text>
</g>
<!-- Potion_Water_Res -->
<g id="node7" class="node"><title>Potion_Water_Res</title>
<ellipse fill="none" stroke="black" cx="554.843" cy="-279" rx="80.6858" ry="18"/>
<text text-anchor="middle" x="554.843" y="-275.3" font-family="Times New Roman,serif" font-size="14.00">Potion_Water_Res</text>
</g>
<!-- Potion_Armor_Boost&#45;&gt;Potion_Water_Res -->
<g id="edge5" class="edge"><title>Potion_Armor_Boost&#45;&gt;Potion_Water_Res</title>
<path fill="none" stroke="black" d="M481.821,-348.207C495.407,-335.517 514.235,-317.93 529.371,-303.793"/>
<polygon fill="black" stroke="black" points="531.982,-306.142 536.901,-296.758 527.204,-301.027 531.982,-306.142"/>
<text text-anchor="middle" x="541.843" y="-318.8" font-family="Times New Roman,serif" font-size="14.00">Crafting 2</text>
</g>
<!-- Potion_Air_Res -->
<g id="node17" class="node"><title>Potion_Air_Res</title>
<ellipse fill="none" stroke="black" cx="728.843" cy="-279" rx="69.5877" ry="18"/>
<text text-anchor="middle" x="728.843" y="-275.3" font-family="Times New Roman,serif" font-size="14.00">Potion_Air_Res</text>
</g>
<!-- Potion_Armor_Boost&#45;&gt;Potion_Air_Res -->
<g id="edge4" class="edge"><title>Potion_Armor_Boost&#45;&gt;Potion_Air_Res</title>
<path fill="none" stroke="black" d="M530,-353.722C541.29,-351.806 552.902,-349.842 563.843,-348 611.83,-339.922 627.87,-350.842 671.843,-330 685.113,-323.71 697.642,-313.407 707.556,-303.782"/>
<polygon fill="black" stroke="black" points="710.074,-306.214 714.596,-296.633 705.086,-301.302 710.074,-306.214"/>
<text text-anchor="middle" x="721.843" y="-318.8" font-family="Times New Roman,serif" font-size="14.00">Crafting 2</text>
</g>
<!-- Minor_ResistAll_Potion -->
<g id="node11" class="node"><title>Minor_ResistAll_Potion</title>
<ellipse fill="none" stroke="black" cx="466.843" cy="-192" rx="98.5829" ry="18"/>
<text text-anchor="middle" x="466.843" y="-188.3" font-family="Times New Roman,serif" font-size="14.00">Minor_ResistAll_Potion</text>
</g>
<!-- Potion_Earth_Res&#45;&gt;Minor_ResistAll_Potion -->
<g id="edge7" class="edge"><title>Potion_Earth_Res&#45;&gt;Minor_ResistAll_Potion</title>
<path fill="none" stroke="black" d="M396.229,-261.207C409.366,-248.517 427.574,-230.93 442.21,-216.793"/>
<polygon fill="black" stroke="black" points="444.732,-219.223 449.493,-209.758 439.868,-214.188 444.732,-219.223"/>
<text text-anchor="middle" x="455.843" y="-231.8" font-family="Times New Roman,serif" font-size="14.00">Crafting 3</text>
</g>
<!-- Potion_Fire_Res&#45;&gt;Minor_ResistAll_Potion -->
<g id="edge8" class="edge"><title>Potion_Fire_Res&#45;&gt;Minor_ResistAll_Potion</title>
<path fill="none" stroke="black" d="M244.261,-264.266C275.405,-254.195 318.741,-240.207 356.843,-228 374.153,-222.454 393.005,-216.445 410.133,-210.996"/>
<polygon fill="black" stroke="black" points="411.525,-214.227 419.994,-207.861 409.404,-207.556 411.525,-214.227"/>
<text text-anchor="middle" x="384.843" y="-231.8" font-family="Times New Roman,serif" font-size="14.00">Crafting 3</text>
</g>
<!-- Herb_Whisperwood -->
<g id="node6" class="node"><title>Herb_Whisperwood</title>
<ellipse fill="none" stroke="black" cx="365.843" cy="-453" rx="85.2851" ry="18"/>
<text text-anchor="middle" x="365.843" y="-449.3" font-family="Times New Roman,serif" font-size="14.00">Herb_Whisperwood</text>
</g>
<!-- Herb_Whisperwood&#45;&gt;Potion_Armor_Boost -->
<g id="edge9" class="edge"><title>Herb_Whisperwood&#45;&gt;Potion_Armor_Boost</title>
<path fill="none" stroke="black" d="M385.204,-435.207C399.969,-422.401 420.484,-404.607 436.859,-390.404"/>
<polygon fill="black" stroke="black" points="439.26,-392.955 444.521,-383.758 434.673,-387.667 439.26,-392.955"/>
<text text-anchor="middle" x="447.843" y="-405.8" font-family="Times New Roman,serif" font-size="14.00">Crafting 2</text>
</g>
<!-- Potion_Water_Res&#45;&gt;Minor_ResistAll_Potion -->
<g id="edge10" class="edge"><title>Potion_Water_Res&#45;&gt;Minor_ResistAll_Potion</title>
<path fill="none" stroke="black" d="M537.457,-261.207C524.319,-248.517 506.111,-230.93 491.475,-216.793"/>
<polygon fill="black" stroke="black" points="493.817,-214.188 484.192,-209.758 488.953,-219.223 493.817,-214.188"/>
<text text-anchor="middle" x="543.843" y="-231.8" font-family="Times New Roman,serif" font-size="14.00">Crafting 3</text>
</g>
<!-- Potion_Empty -->
<g id="node8" class="node"><title>Potion_Empty</title>
<ellipse fill="none" stroke="black" cx="483.843" cy="-540" rx="63.8893" ry="18"/>
<text text-anchor="middle" x="483.843" y="-536.3" font-family="Times New Roman,serif" font-size="14.00">Potion_Empty</text>
</g>
<!-- Minor_Healing_Potion -->
<g id="node16" class="node"><title>Minor_Healing_Potion</title>
<ellipse fill="none" stroke="black" cx="561.843" cy="-453" rx="92.8835" ry="18"/>
<text text-anchor="middle" x="561.843" y="-449.3" font-family="Times New Roman,serif" font-size="14.00">Minor_Healing_Potion</text>
</g>
<!-- Potion_Empty&#45;&gt;Minor_Healing_Potion -->
<g id="edge11" class="edge"><title>Potion_Empty&#45;&gt;Minor_Healing_Potion</title>
<path fill="none" stroke="black" d="M499.253,-522.207C510.791,-509.633 526.741,-492.252 539.652,-478.182"/>
<polygon fill="black" stroke="black" points="542.282,-480.493 546.464,-470.758 537.124,-475.76 542.282,-480.493"/>
<text text-anchor="middle" x="554.843" y="-492.8" font-family="Times New Roman,serif" font-size="14.00">Crafting 1</text>
</g>
<!-- Herb_Mushroom_Jellyfish -->
<g id="node9" class="node"><title>Herb_Mushroom_Jellyfish</title>
<ellipse fill="none" stroke="black" cx="866.843" cy="-366" rx="107.482" ry="18"/>
<text text-anchor="middle" x="866.843" y="-362.3" font-family="Times New Roman,serif" font-size="14.00">Herb_Mushroom_Jellyfish</text>
</g>
<!-- Herb_Mushroom_Jellyfish&#45;&gt;Potion_Air_Res -->
<g id="edge12" class="edge"><title>Herb_Mushroom_Jellyfish&#45;&gt;Potion_Air_Res</title>
<path fill="none" stroke="black" d="M841.368,-348.288C826.21,-338.44 806.542,-325.829 788.843,-315 781.144,-310.29 772.82,-305.343 764.892,-300.7"/>
<polygon fill="black" stroke="black" points="766.568,-297.625 756.166,-295.615 763.044,-303.674 766.568,-297.625"/>
<text text-anchor="middle" x="839.843" y="-318.8" font-family="Times New Roman,serif" font-size="14.00">Crafting 2</text>
</g>
<!-- Medium_ResistAll_Potion&#45;&gt;Large_ResistAll_Potion -->
<g id="edge13" class="edge"><title>Medium_ResistAll_Potion&#45;&gt;Large_ResistAll_Potion</title>
<path fill="none" stroke="black" d="M431.859,-87.4094C412.036,-74.2458 384.138,-55.7198 362.373,-41.2663"/>
<polygon fill="black" stroke="black" points="364.03,-38.1651 353.763,-35.5488 360.157,-43.9965 364.03,-38.1651"/>
<text text-anchor="middle" x="427.843" y="-57.8" font-family="Times New Roman,serif" font-size="14.00">Crafting 5</text>
</g>
<!-- Minor_ResistAll_Potion&#45;&gt;Medium_ResistAll_Potion -->
<g id="edge14" class="edge"><title>Minor_ResistAll_Potion&#45;&gt;Medium_ResistAll_Potion</title>
<path fill="none" stroke="black" d="M464.819,-173.799C463.45,-162.163 461.613,-146.548 460.047,-133.237"/>
<polygon fill="black" stroke="black" points="463.508,-132.698 458.863,-123.175 456.556,-133.516 463.508,-132.698"/>
<text text-anchor="middle" x="489.843" y="-144.8" font-family="Times New Roman,serif" font-size="14.00">Crafting 4</text>
</g>
<!-- Herb_Mushroom_B -->
<g id="node12" class="node"><title>Herb_Mushroom_B</title>
<ellipse fill="none" stroke="black" cx="656.843" cy="-366" rx="84.485" ry="18"/>
<text text-anchor="middle" x="656.843" y="-362.3" font-family="Times New Roman,serif" font-size="14.00">Herb_Mushroom_B</text>
</g>
<!-- Herb_Mushroom_B&#45;&gt;Potion_Water_Res -->
<g id="edge15" class="edge"><title>Herb_Mushroom_B&#45;&gt;Potion_Water_Res</title>
<path fill="none" stroke="black" d="M636.691,-348.207C621.224,-335.317 599.693,-317.375 582.596,-303.128"/>
<polygon fill="black" stroke="black" points="584.528,-300.182 574.606,-296.469 580.047,-305.56 584.528,-300.182"/>
<text text-anchor="middle" x="639.843" y="-318.8" font-family="Times New Roman,serif" font-size="14.00">Crafting 2</text>
</g>
<!-- Herb_Mushroom -->
<g id="node13" class="node"><title>Herb_Mushroom</title>
<ellipse fill="none" stroke="black" cx="638.843" cy="-540" rx="73.387" ry="18"/>
<text text-anchor="middle" x="638.843" y="-536.3" font-family="Times New Roman,serif" font-size="14.00">Herb_Mushroom</text>
</g>
<!-- Herb_Mushroom&#45;&gt;Minor_Healing_Potion -->
<g id="edge16" class="edge"><title>Herb_Mushroom&#45;&gt;Minor_Healing_Potion</title>
<path fill="none" stroke="black" d="M623.63,-522.207C612.24,-509.633 596.494,-492.252 583.749,-478.182"/>
<polygon fill="black" stroke="black" points="586.331,-475.82 577.024,-470.758 581.143,-480.519 586.331,-475.82"/>
<text text-anchor="middle" x="632.843" y="-492.8" font-family="Times New Roman,serif" font-size="14.00">Crafting 1</text>
</g>
<!-- Herb_Mushroom_D -->
<g id="node14" class="node"><title>Herb_Mushroom_D</title>
<ellipse fill="none" stroke="black" cx="270.843" cy="-366" rx="85.2851" ry="18"/>
<text text-anchor="middle" x="270.843" y="-362.3" font-family="Times New Roman,serif" font-size="14.00">Herb_Mushroom_D</text>
</g>
<!-- Herb_Mushroom_D&#45;&gt;Potion_Earth_Res -->
<g id="edge17" class="edge"><title>Herb_Mushroom_D&#45;&gt;Potion_Earth_Res</title>
<path fill="none" stroke="black" d="M288.856,-348.218C299.844,-338.232 314.332,-325.502 327.843,-315 333.425,-310.661 339.51,-306.238 345.469,-302.062"/>
<polygon fill="black" stroke="black" points="347.788,-304.715 354.037,-296.159 343.816,-298.95 347.788,-304.715"/>
<text text-anchor="middle" x="355.843" y="-318.8" font-family="Times New Roman,serif" font-size="14.00">Crafting 2</text>
</g>
<!-- Herb_Mushroom_E -->
<g id="node15" class="node"><title>Herb_Mushroom_E</title>
<ellipse fill="none" stroke="black" cx="83.8426" cy="-366" rx="83.6854" ry="18"/>
<text text-anchor="middle" x="83.8426" y="-362.3" font-family="Times New Roman,serif" font-size="14.00">Herb_Mushroom_E</text>
</g>
<!-- Herb_Mushroom_E&#45;&gt;Potion_Fire_Res -->
<g id="edge18" class="edge"><title>Herb_Mushroom_E&#45;&gt;Potion_Fire_Res</title>
<path fill="none" stroke="black" d="M94.4128,-347.971C101.657,-337.392 112.065,-324.12 123.843,-315 132.202,-308.527 141.949,-302.946 151.663,-298.262"/>
<polygon fill="black" stroke="black" points="153.271,-301.376 160.921,-294.046 150.37,-295.005 153.271,-301.376"/>
<text text-anchor="middle" x="151.843" y="-318.8" font-family="Times New Roman,serif" font-size="14.00">Crafting 2</text>
</g>
<!-- Minor_Healing_Potion&#45;&gt;Potion_Armor_Boost -->
<g id="edge19" class="edge"><title>Minor_Healing_Potion&#45;&gt;Potion_Armor_Boost</title>
<path fill="none" stroke="black" d="M542.481,-435.207C527.716,-422.401 507.201,-404.607 490.826,-390.404"/>
<polygon fill="black" stroke="black" points="493.012,-387.667 483.164,-383.758 488.425,-392.955 493.012,-387.667"/>
<text text-anchor="middle" x="545.843" y="-405.8" font-family="Times New Roman,serif" font-size="14.00">Crafting 2</text>
</g>
<!-- Potion_Air_Res&#45;&gt;Minor_ResistAll_Potion -->
<g id="edge20" class="edge"><title>Potion_Air_Res&#45;&gt;Minor_ResistAll_Potion</title>
<path fill="none" stroke="black" d="M687.626,-264.467C656.841,-254.374 613.726,-240.272 575.843,-228 558.772,-222.47 540.186,-216.488 523.275,-211.06"/>
<polygon fill="black" stroke="black" points="524.128,-207.657 513.537,-207.935 521.989,-214.323 524.128,-207.657"/>
<text text-anchor="middle" x="645.843" y="-231.8" font-family="Times New Roman,serif" font-size="14.00">Crafting 3</text>
</g>
</g>
</svg>
