<?xml version="1.0" encoding="UTF-8" standalone="no"?>
<!DOCTYPE svg PUBLIC "-//W3C//DTD SVG 1.1//EN"
 "http://www.w3.org/Graphics/SVG/1.1/DTD/svg11.dtd">
<!-- Generated by graphviz version 2.38.0 (20140413.2041)
 -->
<!-- Title: G Pages: 1 -->
<svg width="232pt" height="149pt"
 viewBox="0.00 0.00 232.05 148.74" xmlns="http://www.w3.org/2000/svg" xmlns:xlink="http://www.w3.org/1999/xlink">
<g id="graph0" class="graph" transform="scale(1 1) rotate(0) translate(4 144.74)">
<title>G</title>
<polygon fill="white" stroke="none" points="-4,4 -4,-144.74 228.046,-144.74 228.046,4 -4,4"/>
<!-- Dagger
+ Small_EarthDamage -->
<g id="node1" class="node"><title>Dagger
+ Small_EarthDamage</title>
<ellipse fill="none" stroke="black" cx="99.7021" cy="-26.8701" rx="99.9045" ry="26.7407"/>
<text text-anchor="middle" x="99.7021" y="-30.6701" font-family="Times New Roman,serif" font-size="14.00">Dagger</text>
<text text-anchor="middle" x="99.7021" y="-15.6701" font-family="Times New Roman,serif" font-size="14.00">+ Small_EarthDamage</text>
</g>
<!-- Dagger -->
<g id="node2" class="node"><title>Dagger</title>
<ellipse fill="none" stroke="black" cx="40.7021" cy="-122.74" rx="36.2938" ry="18"/>
<text text-anchor="middle" x="40.7021" y="-119.04" font-family="Times New Roman,serif" font-size="14.00">Dagger</text>
</g>
<!-- Dagger&#45;&gt;Dagger
+ Small_EarthDamage -->
<g id="edge1" class="edge"><title>Dagger&#45;&gt;Dagger
+ Small_EarthDamage</title>
<path fill="none" stroke="black" d="M50.9791,-105.389C58.4158,-93.5572 68.7393,-77.1323 77.9703,-62.4457"/>
<polygon fill="black" stroke="black" points="81.1828,-63.9116 83.541,-53.5825 75.2563,-60.1865 81.1828,-63.9116"/>
<text text-anchor="middle" x="100.702" y="-75.5401" font-family="Times New Roman,serif" font-size="14.00">Crafting 5</text>
</g>
<!-- Essence_Earth -->
<g id="node3" class="node"><title>Essence_Earth</title>
<ellipse fill="none" stroke="black" cx="159.702" cy="-122.74" rx="64.189" ry="18"/>
<text text-anchor="middle" x="159.702" y="-119.04" font-family="Times New Roman,serif" font-size="14.00">Essence_Earth</text>
</g>
<!-- Essence_Earth&#45;&gt;Dagger
+ Small_EarthDamage -->
<g id="edge2" class="edge"><title>Essence_Earth&#45;&gt;Dagger
+ Small_EarthDamage</title>
<path fill="none" stroke="black" d="M151.313,-104.713C146.267,-94.8711 139.517,-82.3711 132.702,-71.7401 130.564,-68.4053 128.251,-64.9969 125.875,-61.6269"/>
<polygon fill="black" stroke="black" points="128.609,-59.4346 119.906,-53.3922 122.941,-63.5429 128.609,-59.4346"/>
<text text-anchor="middle" x="169.702" y="-75.5401" font-family="Times New Roman,serif" font-size="14.00">Crafting 5</text>
</g>
</g>
</svg>
