<?xml version="1.0" encoding="UTF-8" standalone="no"?>
<!DOCTYPE svg PUBLIC "-//W3C//DTD SVG 1.1//EN"
 "http://www.w3.org/Graphics/SVG/1.1/DTD/svg11.dtd">
<!-- Generated by graphviz version 2.38.0 (20140413.2041)
 -->
<!-- Title: G Pages: 1 -->
<svg width="240pt" height="149pt"
 viewBox="0.00 0.00 239.83 148.74" xmlns="http://www.w3.org/2000/svg" xmlns:xlink="http://www.w3.org/1999/xlink">
<g id="graph0" class="graph" transform="scale(1 1) rotate(0) translate(4 144.74)">
<title>G</title>
<polygon fill="white" stroke="none" points="-4,4 -4,-144.74 235.832,-144.74 235.832,4 -4,4"/>
<!-- Sword
+ Small_WaterDamage -->
<g id="node1" class="node"><title>Sword
+ Small_WaterDamage</title>
<ellipse fill="none" stroke="black" cx="103.238" cy="-26.8701" rx="103.476" ry="26.7407"/>
<text text-anchor="middle" x="103.238" y="-30.6701" font-family="Times New Roman,serif" font-size="14.00">Sword</text>
<text text-anchor="middle" x="103.238" y="-15.6701" font-family="Times New Roman,serif" font-size="14.00">+ Small_WaterDamage</text>
</g>
<!-- Sword -->
<g id="node2" class="node"><title>Sword</title>
<ellipse fill="none" stroke="black" cx="43.2376" cy="-122.74" rx="35.194" ry="18"/>
<text text-anchor="middle" x="43.2376" y="-119.04" font-family="Times New Roman,serif" font-size="14.00">Sword</text>
</g>
<!-- Sword&#45;&gt;Sword
+ Small_WaterDamage -->
<g id="edge1" class="edge"><title>Sword&#45;&gt;Sword
+ Small_WaterDamage</title>
<path fill="none" stroke="black" d="M53.6888,-105.389C61.3229,-93.4456 71.9484,-76.822 81.4028,-62.0306"/>
<polygon fill="black" stroke="black" points="84.366,-63.8934 86.8027,-53.5825 78.4679,-60.1234 84.366,-63.8934"/>
<text text-anchor="middle" x="103.238" y="-75.5401" font-family="Times New Roman,serif" font-size="14.00">Crafting 5</text>
</g>
<!-- Essence_Water -->
<g id="node3" class="node"><title>Essence_Water</title>
<ellipse fill="none" stroke="black" cx="164.238" cy="-122.74" rx="67.6881" ry="18"/>
<text text-anchor="middle" x="164.238" y="-119.04" font-family="Times New Roman,serif" font-size="14.00">Essence_Water</text>
</g>
<!-- Essence_Water&#45;&gt;Sword
+ Small_WaterDamage -->
<g id="edge2" class="edge"><title>Essence_Water&#45;&gt;Sword
+ Small_WaterDamage</title>
<path fill="none" stroke="black" d="M155,-104.809C149.504,-94.9991 142.254,-82.4991 135.238,-71.7401 133.097,-68.4582 130.808,-65.0856 128.476,-61.7382"/>
<polygon fill="black" stroke="black" points="131.292,-59.6594 122.646,-53.5356 125.586,-63.7144 131.292,-59.6594"/>
<text text-anchor="middle" x="173.238" y="-75.5401" font-family="Times New Roman,serif" font-size="14.00">Crafting 5</text>
</g>
</g>
</svg>
