<?xml version="1.0" encoding="UTF-8" standalone="no"?>
<!DOCTYPE svg PUBLIC "-//W3C//DTD SVG 1.1//EN"
 "http://www.w3.org/Graphics/SVG/1.1/DTD/svg11.dtd">
<!-- Generated by graphviz version 2.38.0 (20140413.2041)
 -->
<!-- Title: G Pages: 1 -->
<svg width="253pt" height="131pt"
 viewBox="0.00 0.00 253.24 131.00" xmlns="http://www.w3.org/2000/svg" xmlns:xlink="http://www.w3.org/1999/xlink">
<g id="graph0" class="graph" transform="scale(1 1) rotate(0) translate(4 127)">
<title>G</title>
<polygon fill="white" stroke="none" points="-4,4 -4,-127 249.243,-127 249.243,4 -4,4"/>
<!-- OreBar_A_BlackRock -->
<g id="node1" class="node"><title>OreBar_A_BlackRock</title>
<ellipse fill="none" stroke="black" cx="146.243" cy="-18" rx="93.6835" ry="18"/>
<text text-anchor="middle" x="146.243" y="-14.3" font-family="Times New Roman,serif" font-size="14.00">OreBar_A_BlackRock</text>
</g>
<!-- Ore_A_BlackRock -->
<g id="node2" class="node"><title>Ore_A_BlackRock</title>
<ellipse fill="none" stroke="black" cx="81.2428" cy="-105" rx="81.4863" ry="18"/>
<text text-anchor="middle" x="81.2428" y="-101.3" font-family="Times New Roman,serif" font-size="14.00">Ore_A_BlackRock</text>
</g>
<!-- Ore_A_BlackRock&#45;&gt;OreBar_A_BlackRock -->
<g id="edge1" class="edge"><title>Ore_A_BlackRock&#45;&gt;OreBar_A_BlackRock</title>
<path fill="none" stroke="black" d="M94.0847,-87.2067C103.46,-74.9464 116.332,-58.1143 126.942,-44.2391"/>
<polygon fill="black" stroke="black" points="129.911,-46.119 133.205,-36.0493 124.35,-41.8668 129.911,-46.119"/>
<text text-anchor="middle" x="146.243" y="-57.8" font-family="Times New Roman,serif" font-size="14.00">Crafting 4</text>
</g>
<!-- Oven -->
<g id="node3" class="node"><title>Oven</title>
<ellipse fill="none" stroke="black" cx="211.243" cy="-105" rx="30.5947" ry="18"/>
<text text-anchor="middle" x="211.243" y="-101.3" font-family="Times New Roman,serif" font-size="14.00">Oven</text>
</g>
<!-- Oven&#45;&gt;OreBar_A_BlackRock -->
<g id="edge2" class="edge"><title>Oven&#45;&gt;OreBar_A_BlackRock</title>
<path fill="none" stroke="black" d="M201.456,-87.7934C195.192,-77.7839 186.682,-64.8288 178.243,-54 175.567,-50.5663 172.631,-47.0579 169.657,-43.6521"/>
<polygon fill="black" stroke="black" points="172.042,-41.0699 162.753,-35.9751 166.837,-45.7509 172.042,-41.0699"/>
<text text-anchor="middle" x="217.243" y="-57.8" font-family="Times New Roman,serif" font-size="14.00">Crafting 4</text>
</g>
</g>
</svg>
