<?xml version="1.0" encoding="UTF-8" standalone="no"?>
<!DOCTYPE svg PUBLIC "-//W3C//DTD SVG 1.1//EN"
 "http://www.w3.org/Graphics/SVG/1.1/DTD/svg11.dtd">
<!-- Generated by graphviz version 2.38.0 (20140413.2041)
 -->
<!-- Title: G Pages: 1 -->
<svg width="220pt" height="149pt"
 viewBox="0.00 0.00 220.44 148.74" xmlns="http://www.w3.org/2000/svg" xmlns:xlink="http://www.w3.org/1999/xlink">
<g id="graph0" class="graph" transform="scale(1 1) rotate(0) translate(4 144.74)">
<title>G</title>
<polygon fill="white" stroke="none" points="-4,4 -4,-144.74 216.44,-144.74 216.44,4 -4,4"/>
<!-- ArmorGloves -->
<g id="node1" class="node"><title>ArmorGloves</title>
<ellipse fill="none" stroke="black" cx="60.4446" cy="-122.74" rx="60.3893" ry="18"/>
<text text-anchor="middle" x="60.4446" y="-119.04" font-family="Times New Roman,serif" font-size="14.00">ArmorGloves</text>
</g>
<!-- ArmorGloves
+ Body_Boost_Value -->
<g id="node3" class="node"><title>ArmorGloves
+ Body_Boost_Value</title>
<ellipse fill="none" stroke="black" cx="113.445" cy="-26.8701" rx="98.9899" ry="26.7407"/>
<text text-anchor="middle" x="113.445" y="-30.6701" font-family="Times New Roman,serif" font-size="14.00">ArmorGloves</text>
<text text-anchor="middle" x="113.445" y="-15.6701" font-family="Times New Roman,serif" font-size="14.00">+ Body_Boost_Value</text>
</g>
<!-- ArmorGloves&#45;&gt;ArmorGloves
+ Body_Boost_Value -->
<g id="edge1" class="edge"><title>ArmorGloves&#45;&gt;ArmorGloves
+ Body_Boost_Value</title>
<path fill="none" stroke="black" d="M69.92,-104.958C76.5774,-93.1668 85.7209,-76.9725 93.9094,-62.4696"/>
<polygon fill="black" stroke="black" points="96.9848,-64.1413 98.8537,-53.7126 90.8893,-60.6997 96.9848,-64.1413"/>
<text text-anchor="middle" x="116.445" y="-75.5401" font-family="Times New Roman,serif" font-size="14.00">Crafting 1</text>
</g>
<!-- Pearl -->
<g id="node2" class="node"><title>Pearl</title>
<ellipse fill="none" stroke="black" cx="167.445" cy="-122.74" rx="28.6953" ry="18"/>
<text text-anchor="middle" x="167.445" y="-119.04" font-family="Times New Roman,serif" font-size="14.00">Pearl</text>
</g>
<!-- Pearl&#45;&gt;ArmorGloves
+ Body_Boost_Value -->
<g id="edge2" class="edge"><title>Pearl&#45;&gt;ArmorGloves
+ Body_Boost_Value</title>
<path fill="none" stroke="black" d="M161.173,-105.091C157.173,-95.1515 151.596,-82.4248 145.445,-71.7401 143.49,-68.3444 141.326,-64.895 139.073,-61.4988"/>
<polygon fill="black" stroke="black" points="141.921,-59.4637 133.357,-53.2271 136.163,-63.4436 141.921,-59.4637"/>
<text text-anchor="middle" x="180.445" y="-75.5401" font-family="Times New Roman,serif" font-size="14.00">Crafting 1</text>
</g>
</g>
</svg>
