<?xml version="1.0" encoding="UTF-8" standalone="no"?>
<!DOCTYPE svg PUBLIC "-//W3C//DTD SVG 1.1//EN"
 "http://www.w3.org/Graphics/SVG/1.1/DTD/svg11.dtd">
<!-- Generated by graphviz version 2.38.0 (20140413.2041)
 -->
<!-- Title: G Pages: 1 -->
<svg width="298pt" height="149pt"
 viewBox="0.00 0.00 297.84 148.74" xmlns="http://www.w3.org/2000/svg" xmlns:xlink="http://www.w3.org/1999/xlink">
<g id="graph0" class="graph" transform="scale(1 1) rotate(0) translate(4 144.74)">
<title>G</title>
<polygon fill="white" stroke="none" points="-4,4 -4,-144.74 293.838,-144.74 293.838,4 -4,4"/>
<!-- ArmorGloves -->
<g id="node1" class="node"><title>ArmorGloves</title>
<ellipse fill="none" stroke="black" cx="60.4446" cy="-122.74" rx="60.3893" ry="18"/>
<text text-anchor="middle" x="60.4446" y="-119.04" font-family="Times New Roman,serif" font-size="14.00">ArmorGloves</text>
</g>
<!-- ArmorGloves
+ Small_Sneaking -->
<g id="node3" class="node"><title>ArmorGloves
+ Small_Sneaking</title>
<ellipse fill="none" stroke="black" cx="137.445" cy="-26.8701" rx="82.9636" ry="26.7407"/>
<text text-anchor="middle" x="137.445" y="-30.6701" font-family="Times New Roman,serif" font-size="14.00">ArmorGloves</text>
<text text-anchor="middle" x="137.445" y="-15.6701" font-family="Times New Roman,serif" font-size="14.00">+ Small_Sneaking</text>
</g>
<!-- ArmorGloves&#45;&gt;ArmorGloves
+ Small_Sneaking -->
<g id="edge1" class="edge"><title>ArmorGloves&#45;&gt;ArmorGloves
+ Small_Sneaking</title>
<path fill="none" stroke="black" d="M74.2107,-104.958C84.2113,-92.7663 98.0732,-75.8675 110.27,-60.9981"/>
<polygon fill="black" stroke="black" points="113.204,-62.9403 116.84,-52.9889 107.792,-58.5008 113.204,-62.9403"/>
<text text-anchor="middle" x="129.445" y="-75.5401" font-family="Times New Roman,serif" font-size="14.00">Crafting 4</text>
</g>
<!-- Essence_Shadow -->
<g id="node2" class="node"><title>Essence_Shadow</title>
<ellipse fill="none" stroke="black" cx="214.445" cy="-122.74" rx="75.2868" ry="18"/>
<text text-anchor="middle" x="214.445" y="-119.04" font-family="Times New Roman,serif" font-size="14.00">Essence_Shadow</text>
</g>
<!-- Essence_Shadow&#45;&gt;ArmorGloves
+ Small_Sneaking -->
<g id="edge2" class="edge"><title>Essence_Shadow&#45;&gt;ArmorGloves
+ Small_Sneaking</title>
<path fill="none" stroke="black" d="M200.679,-104.958C190.678,-92.7663 176.816,-75.8675 164.619,-60.9981"/>
<polygon fill="black" stroke="black" points="167.097,-58.5008 158.049,-52.9889 161.685,-62.9403 167.097,-58.5008"/>
<text text-anchor="middle" x="213.445" y="-75.5401" font-family="Times New Roman,serif" font-size="14.00">Crafting 4</text>
</g>
</g>
</svg>
