<?xml version="1.0" encoding="UTF-8" standalone="no"?>
<!DOCTYPE svg PUBLIC "-//W3C//DTD SVG 1.1//EN"
 "http://www.w3.org/Graphics/SVG/1.1/DTD/svg11.dtd">
<!-- Generated by graphviz version 2.38.0 (20140413.2041)
 -->
<!-- Title: G Pages: 1 -->
<svg width="894pt" height="392pt"
 viewBox="0.00 0.00 893.99 392.00" xmlns="http://www.w3.org/2000/svg" xmlns:xlink="http://www.w3.org/1999/xlink">
<g id="graph0" class="graph" transform="scale(1 1) rotate(0) translate(4 388)">
<title>G</title>
<polygon fill="white" stroke="none" points="-4,4 -4,-388 889.993,-388 889.993,4 -4,4"/>
<!-- Tomato -->
<g id="node1" class="node"><title>Tomato</title>
<ellipse fill="none" stroke="black" cx="140.596" cy="-279" rx="39.7935" ry="18"/>
<text text-anchor="middle" x="140.596" y="-275.3" font-family="Times New Roman,serif" font-size="14.00">Tomato</text>
</g>
<!-- Tomato_Sauce -->
<g id="node3" class="node"><title>Tomato_Sauce</title>
<ellipse fill="none" stroke="black" cx="140.596" cy="-192" rx="66.0889" ry="18"/>
<text text-anchor="middle" x="140.596" y="-188.3" font-family="Times New Roman,serif" font-size="14.00">Tomato_Sauce</text>
</g>
<!-- Tomato&#45;&gt;Tomato_Sauce -->
<g id="edge1" class="edge"><title>Tomato&#45;&gt;Tomato_Sauce</title>
<path fill="none" stroke="black" d="M140.596,-260.799C140.596,-249.163 140.596,-233.548 140.596,-220.237"/>
<polygon fill="black" stroke="black" points="144.096,-220.175 140.596,-210.175 137.096,-220.175 144.096,-220.175"/>
<text text-anchor="middle" x="168.596" y="-231.8" font-family="Times New Roman,serif" font-size="14.00">Crafting 0</text>
</g>
<!-- Wheat -->
<g id="node2" class="node"><title>Wheat</title>
<ellipse fill="none" stroke="black" cx="84.5963" cy="-366" rx="34.394" ry="18"/>
<text text-anchor="middle" x="84.5963" y="-362.3" font-family="Times New Roman,serif" font-size="14.00">Wheat</text>
</g>
<!-- Flour -->
<g id="node12" class="node"><title>Flour</title>
<ellipse fill="none" stroke="black" cx="228.596" cy="-279" rx="30.5947" ry="18"/>
<text text-anchor="middle" x="228.596" y="-275.3" font-family="Times New Roman,serif" font-size="14.00">Flour</text>
</g>
<!-- Wheat&#45;&gt;Flour -->
<g id="edge2" class="edge"><title>Wheat&#45;&gt;Flour</title>
<path fill="none" stroke="black" d="M101.447,-350.231C114.12,-339.585 132.219,-325.331 149.596,-315 151.833,-313.67 174.852,-303.501 195.468,-294.464"/>
<polygon fill="black" stroke="black" points="196.931,-297.644 204.688,-290.427 194.124,-291.232 196.931,-297.644"/>
<text text-anchor="middle" x="177.596" y="-318.8" font-family="Times New Roman,serif" font-size="14.00">Crafting 0</text>
</g>
<!-- Dough_Pizza -->
<g id="node10" class="node"><title>Dough_Pizza</title>
<ellipse fill="none" stroke="black" cx="209.596" cy="-105" rx="59.2899" ry="18"/>
<text text-anchor="middle" x="209.596" y="-101.3" font-family="Times New Roman,serif" font-size="14.00">Dough_Pizza</text>
</g>
<!-- Tomato_Sauce&#45;&gt;Dough_Pizza -->
<g id="edge4" class="edge"><title>Tomato_Sauce&#45;&gt;Dough_Pizza</title>
<path fill="none" stroke="black" d="M151.615,-173.84C158.205,-163.953 166.955,-151.453 175.596,-141 178.673,-137.278 182.065,-133.479 185.48,-129.821"/>
<polygon fill="black" stroke="black" points="188.029,-132.219 192.427,-122.58 182.978,-127.373 188.029,-132.219"/>
<text text-anchor="middle" x="203.596" y="-144.8" font-family="Times New Roman,serif" font-size="14.00">Crafting 0</text>
</g>
<!-- Bucket -->
<g id="node4" class="node"><title>Bucket</title>
<ellipse fill="none" stroke="black" cx="849.596" cy="-366" rx="36.2938" ry="18"/>
<text text-anchor="middle" x="849.596" y="-362.3" font-family="Times New Roman,serif" font-size="14.00">Bucket</text>
</g>
<!-- Bucket_A_Water -->
<g id="node7" class="node"><title>Bucket_A_Water</title>
<ellipse fill="none" stroke="black" cx="612.596" cy="-279" rx="74.187" ry="18"/>
<text text-anchor="middle" x="612.596" y="-275.3" font-family="Times New Roman,serif" font-size="14.00">Bucket_A_Water</text>
</g>
<!-- Bucket&#45;&gt;Bucket_A_Water -->
<g id="edge7" class="edge"><title>Bucket&#45;&gt;Bucket_A_Water</title>
<path fill="none" stroke="black" d="M841.612,-348.4C835.317,-337.156 825.457,-322.947 812.596,-315 792.307,-302.463 737.584,-293.401 690.5,-287.642"/>
<polygon fill="black" stroke="black" points="690.619,-284.132 680.276,-286.428 689.794,-291.083 690.619,-284.132"/>
<text text-anchor="middle" x="857.596" y="-318.8" font-family="Times New Roman,serif" font-size="14.00">Crafting 0</text>
</g>
<!-- CupEmpty -->
<g id="node5" class="node"><title>CupEmpty</title>
<ellipse fill="none" stroke="black" cx="319.596" cy="-366" rx="50.0912" ry="18"/>
<text text-anchor="middle" x="319.596" y="-362.3" font-family="Times New Roman,serif" font-size="14.00">CupEmpty</text>
</g>
<!-- Cup_A_Water -->
<g id="node14" class="node"><title>Cup_A_Water</title>
<ellipse fill="none" stroke="black" cx="375.596" cy="-279" rx="64.189" ry="18"/>
<text text-anchor="middle" x="375.596" y="-275.3" font-family="Times New Roman,serif" font-size="14.00">Cup_A_Water</text>
</g>
<!-- CupEmpty&#45;&gt;Cup_A_Water -->
<g id="edge14" class="edge"><title>CupEmpty&#45;&gt;Cup_A_Water</title>
<path fill="none" stroke="black" d="M304.324,-348.568C296.855,-338.474 290.794,-325.509 297.596,-315 302.864,-306.862 310.521,-300.599 319.005,-295.783"/>
<polygon fill="black" stroke="black" points="320.685,-298.856 328.08,-291.27 317.568,-292.589 320.685,-298.856"/>
<text text-anchor="middle" x="325.596" y="-318.8" font-family="Times New Roman,serif" font-size="14.00">Crafting 0</text>
</g>
<!-- Well -->
<g id="node6" class="node"><title>Well</title>
<ellipse fill="none" stroke="black" cx="579.596" cy="-366" rx="27.0966" ry="18"/>
<text text-anchor="middle" x="579.596" y="-362.3" font-family="Times New Roman,serif" font-size="14.00">Well</text>
</g>
<!-- Well&#45;&gt;Bucket_A_Water -->
<g id="edge5" class="edge"><title>Well&#45;&gt;Bucket_A_Water</title>
<path fill="none" stroke="black" d="M586.116,-348.207C590.741,-336.293 597.042,-320.063 602.338,-306.424"/>
<polygon fill="black" stroke="black" points="605.621,-307.638 605.977,-297.049 599.095,-305.105 605.621,-307.638"/>
<text text-anchor="middle" x="626.596" y="-318.8" font-family="Times New Roman,serif" font-size="14.00">Crafting 0</text>
</g>
<!-- Well&#45;&gt;Cup_A_Water -->
<g id="edge6" class="edge"><title>Well&#45;&gt;Cup_A_Water</title>
<path fill="none" stroke="black" d="M553.557,-360.531C527.399,-355.414 486.374,-345.656 453.596,-330 443.247,-325.057 442.156,-321.338 432.596,-315 425.431,-310.249 417.643,-305.32 410.192,-300.711"/>
<polygon fill="black" stroke="black" points="412.012,-297.722 401.657,-295.479 408.354,-303.69 412.012,-297.722"/>
<text text-anchor="middle" x="481.596" y="-318.8" font-family="Times New Roman,serif" font-size="14.00">Crafting 0</text>
</g>
<!-- Dough -->
<g id="node9" class="node"><title>Dough</title>
<ellipse fill="none" stroke="black" cx="268.596" cy="-192" rx="35.194" ry="18"/>
<text text-anchor="middle" x="268.596" y="-188.3" font-family="Times New Roman,serif" font-size="14.00">Dough</text>
</g>
<!-- Bucket_A_Water&#45;&gt;Dough -->
<g id="edge8" class="edge"><title>Bucket_A_Water&#45;&gt;Dough</title>
<path fill="none" stroke="black" d="M562.576,-265.64C494.264,-248.761 373.064,-218.813 309.733,-203.165"/>
<polygon fill="black" stroke="black" points="310.261,-199.69 299.713,-200.689 308.581,-206.485 310.261,-199.69"/>
<text text-anchor="middle" x="489.596" y="-231.8" font-family="Times New Roman,serif" font-size="14.00">Crafting 0</text>
</g>
<!-- Well_A_Snow -->
<g id="node8" class="node"><title>Well_A_Snow</title>
<ellipse fill="none" stroke="black" cx="710.596" cy="-366" rx="64.189" ry="18"/>
<text text-anchor="middle" x="710.596" y="-362.3" font-family="Times New Roman,serif" font-size="14.00">Well_A_Snow</text>
</g>
<!-- Well_A_Snow&#45;&gt;Bucket_A_Water -->
<g id="edge9" class="edge"><title>Well_A_Snow&#45;&gt;Bucket_A_Water</title>
<path fill="none" stroke="black" d="M734.912,-349.177C747.035,-339.312 757.414,-326.374 748.596,-315 740.245,-304.227 713.243,-296.188 685.476,-290.549"/>
<polygon fill="black" stroke="black" points="686.134,-287.112 675.652,-288.655 684.809,-293.985 686.134,-287.112"/>
<text text-anchor="middle" x="780.596" y="-318.8" font-family="Times New Roman,serif" font-size="14.00">Crafting 0</text>
</g>
<!-- Well_A_Snow&#45;&gt;Cup_A_Water -->
<g id="edge10" class="edge"><title>Well_A_Snow&#45;&gt;Cup_A_Water</title>
<path fill="none" stroke="black" d="M697.993,-348.149C688.494,-336.785 674.427,-322.538 658.596,-315 649.019,-310.439 525.379,-296.293 444.725,-287.444"/>
<polygon fill="black" stroke="black" points="444.945,-283.947 434.624,-286.339 444.184,-290.906 444.945,-283.947"/>
<text text-anchor="middle" x="708.596" y="-318.8" font-family="Times New Roman,serif" font-size="14.00">Crafting 0</text>
</g>
<!-- Dough&#45;&gt;Dough_Pizza -->
<g id="edge11" class="edge"><title>Dough&#45;&gt;Dough_Pizza</title>
<path fill="none" stroke="black" d="M257.221,-174.611C248.68,-162.306 236.829,-145.234 227.086,-131.198"/>
<polygon fill="black" stroke="black" points="229.918,-129.14 221.341,-122.92 224.168,-133.131 229.918,-129.14"/>
<text text-anchor="middle" x="271.596" y="-144.8" font-family="Times New Roman,serif" font-size="14.00">Crafting 0</text>
</g>
<!-- Pizza -->
<g id="node17" class="node"><title>Pizza</title>
<ellipse fill="none" stroke="black" cx="270.596" cy="-18" rx="29.795" ry="18"/>
<text text-anchor="middle" x="270.596" y="-14.3" font-family="Times New Roman,serif" font-size="14.00">Pizza</text>
</g>
<!-- Dough_Pizza&#45;&gt;Pizza -->
<g id="edge12" class="edge"><title>Dough_Pizza&#45;&gt;Pizza</title>
<path fill="none" stroke="black" d="M215.082,-86.8418C218.803,-76.7218 224.363,-63.9841 231.596,-54 235.379,-48.7783 240.057,-43.7653 244.844,-39.2455"/>
<polygon fill="black" stroke="black" points="247.187,-41.8455 252.343,-32.59 242.54,-36.61 247.187,-41.8455"/>
<text text-anchor="middle" x="259.596" y="-57.8" font-family="Times New Roman,serif" font-size="14.00">Crafting 0</text>
</g>
<!-- Oven -->
<g id="node11" class="node"><title>Oven</title>
<ellipse fill="none" stroke="black" cx="317.596" cy="-105" rx="30.5947" ry="18"/>
<text text-anchor="middle" x="317.596" y="-101.3" font-family="Times New Roman,serif" font-size="14.00">Oven</text>
</g>
<!-- Oven&#45;&gt;Pizza -->
<g id="edge13" class="edge"><title>Oven&#45;&gt;Pizza</title>
<path fill="none" stroke="black" d="M308.534,-87.6111C301.772,-75.3817 292.406,-58.4429 284.672,-44.456"/>
<polygon fill="black" stroke="black" points="287.532,-42.3962 279.631,-35.3385 281.407,-45.7835 287.532,-42.3962"/>
<text text-anchor="middle" x="325.596" y="-57.8" font-family="Times New Roman,serif" font-size="14.00">Crafting 0</text>
</g>
<!-- Flour&#45;&gt;Dough -->
<g id="edge3" class="edge"><title>Flour&#45;&gt;Dough</title>
<path fill="none" stroke="black" d="M236.499,-261.207C242.142,-249.216 249.843,-232.851 256.287,-219.157"/>
<polygon fill="black" stroke="black" points="259.619,-220.297 260.71,-209.758 253.285,-217.316 259.619,-220.297"/>
<text text-anchor="middle" x="279.596" y="-231.8" font-family="Times New Roman,serif" font-size="14.00">Crafting 0</text>
</g>
<!-- Barrel -->
<g id="node13" class="node"><title>Barrel</title>
<ellipse fill="none" stroke="black" cx="460.596" cy="-366" rx="32.4942" ry="18"/>
<text text-anchor="middle" x="460.596" y="-362.3" font-family="Times New Roman,serif" font-size="14.00">Barrel</text>
</g>
<!-- Barrel&#45;&gt;Bucket_A_Water -->
<g id="edge15" class="edge"><title>Barrel&#45;&gt;Bucket_A_Water</title>
<path fill="none" stroke="black" d="M480.247,-351.467C500.235,-337.743 529.042,-318.092 534.596,-315 544.827,-309.304 556.16,-303.795 566.943,-298.899"/>
<polygon fill="black" stroke="black" points="568.523,-302.026 576.237,-294.764 565.678,-295.631 568.523,-302.026"/>
<text text-anchor="middle" x="562.596" y="-318.8" font-family="Times New Roman,serif" font-size="14.00">Crafting 0</text>
</g>
<!-- Barrel&#45;&gt;Cup_A_Water -->
<g id="edge16" class="edge"><title>Barrel&#45;&gt;Cup_A_Water</title>
<path fill="none" stroke="black" d="M429.249,-360.552C410.637,-356.134 388.426,-347.366 376.596,-330 372.11,-323.414 370.712,-315.124 370.765,-307.198"/>
<polygon fill="black" stroke="black" points="374.259,-307.399 371.531,-297.162 367.28,-306.866 374.259,-307.399"/>
<text text-anchor="middle" x="404.596" y="-318.8" font-family="Times New Roman,serif" font-size="14.00">Crafting 0</text>
</g>
<!-- Cup_A_Water&#45;&gt;Dough -->
<g id="edge17" class="edge"><title>Cup_A_Water&#45;&gt;Dough</title>
<path fill="none" stroke="black" d="M355.219,-261.812C338,-248.134 313.234,-228.46 294.59,-213.649"/>
<polygon fill="black" stroke="black" points="296.767,-210.909 286.76,-207.429 292.413,-216.39 296.767,-210.909"/>
<text text-anchor="middle" x="356.596" y="-231.8" font-family="Times New Roman,serif" font-size="14.00">Crafting 0</text>
</g>
<!-- Hammer -->
<g id="node15" class="node"><title>Hammer</title>
<ellipse fill="none" stroke="black" cx="41.5963" cy="-279" rx="41.6928" ry="18"/>
<text text-anchor="middle" x="41.5963" y="-275.3" font-family="Times New Roman,serif" font-size="14.00">Hammer</text>
</g>
<!-- Hammer&#45;&gt;Tomato_Sauce -->
<g id="edge18" class="edge"><title>Hammer&#45;&gt;Tomato_Sauce</title>
<path fill="none" stroke="black" d="M52.158,-261.371C59.3236,-250.952 69.4884,-237.707 80.5963,-228 86.7256,-222.643 93.794,-217.678 100.88,-213.271"/>
<polygon fill="black" stroke="black" points="102.97,-216.101 109.796,-207.998 99.407,-210.076 102.97,-216.101"/>
<text text-anchor="middle" x="108.596" y="-231.8" font-family="Times New Roman,serif" font-size="14.00">Crafting 0</text>
</g>
<!-- MortarPestle -->
<g id="node16" class="node"><title>MortarPestle</title>
<ellipse fill="none" stroke="black" cx="194.596" cy="-366" rx="57.3905" ry="18"/>
<text text-anchor="middle" x="194.596" y="-362.3" font-family="Times New Roman,serif" font-size="14.00">MortarPestle</text>
</g>
<!-- MortarPestle&#45;&gt;Flour -->
<g id="edge19" class="edge"><title>MortarPestle&#45;&gt;Flour</title>
<path fill="none" stroke="black" d="M201.477,-347.799C206.286,-335.776 212.794,-319.506 218.229,-305.918"/>
<polygon fill="black" stroke="black" points="221.493,-307.182 221.958,-296.597 214.994,-304.582 221.493,-307.182"/>
<text text-anchor="middle" x="242.596" y="-318.8" font-family="Times New Roman,serif" font-size="14.00">Crafting 0</text>
</g>
</g>
</svg>
