<?xml version="1.0" encoding="UTF-8" standalone="no"?>
<!DOCTYPE svg PUBLIC "-//W3C//DTD SVG 1.1//EN"
 "http://www.w3.org/Graphics/SVG/1.1/DTD/svg11.dtd">
<!-- Generated by graphviz version 2.38.0 (20140413.2041)
 -->
<!-- Title: G Pages: 1 -->
<svg width="262pt" height="131pt"
 viewBox="0.00 0.00 261.64 131.00" xmlns="http://www.w3.org/2000/svg" xmlns:xlink="http://www.w3.org/1999/xlink">
<g id="graph0" class="graph" transform="scale(1 1) rotate(0) translate(4 127)">
<title>G</title>
<polygon fill="white" stroke="none" points="-4,4 -4,-127 257.64,-127 257.64,4 -4,4"/>
<!-- Porridge_Potato -->
<g id="node1" class="node"><title>Porridge_Potato</title>
<ellipse fill="none" stroke="black" cx="151.193" cy="-18" rx="70.6878" ry="18"/>
<text text-anchor="middle" x="151.193" y="-14.3" font-family="Times New Roman,serif" font-size="14.00">Porridge_Potato</text>
</g>
<!-- Drink_Cup_A_Milk -->
<g id="node2" class="node"><title>Drink_Cup_A_Milk</title>
<ellipse fill="none" stroke="black" cx="83.1926" cy="-105" rx="83.3857" ry="18"/>
<text text-anchor="middle" x="83.1926" y="-101.3" font-family="Times New Roman,serif" font-size="14.00">Drink_Cup_A_Milk</text>
</g>
<!-- Drink_Cup_A_Milk&#45;&gt;Porridge_Potato -->
<g id="edge1" class="edge"><title>Drink_Cup_A_Milk&#45;&gt;Porridge_Potato</title>
<path fill="none" stroke="black" d="M96.6272,-87.2067C106.593,-74.7499 120.334,-57.5734 131.533,-43.5741"/>
<polygon fill="black" stroke="black" points="134.272,-45.7535 137.786,-35.7584 128.806,-41.3806 134.272,-45.7535"/>
<text text-anchor="middle" x="150.193" y="-57.8" font-family="Times New Roman,serif" font-size="14.00">Crafting 0</text>
</g>
<!-- Potato -->
<g id="node3" class="node"><title>Potato</title>
<ellipse fill="none" stroke="black" cx="219.193" cy="-105" rx="34.394" ry="18"/>
<text text-anchor="middle" x="219.193" y="-101.3" font-family="Times New Roman,serif" font-size="14.00">Potato</text>
</g>
<!-- Potato&#45;&gt;Porridge_Potato -->
<g id="edge2" class="edge"><title>Potato&#45;&gt;Porridge_Potato</title>
<path fill="none" stroke="black" d="M207.876,-87.9669C200.723,-78.0226 191.166,-65.0752 182.193,-54 179.433,-50.5944 176.459,-47.0682 173.482,-43.6238"/>
<polygon fill="black" stroke="black" points="175.865,-41.0329 166.635,-35.8307 170.606,-45.6532 175.865,-41.0329"/>
<text text-anchor="middle" x="222.193" y="-57.8" font-family="Times New Roman,serif" font-size="14.00">Crafting 0</text>
</g>
</g>
</svg>
