<?xml version="1.0" encoding="UTF-8" standalone="no"?>
<!DOCTYPE svg PUBLIC "-//W3C//DTD SVG 1.1//EN"
 "http://www.w3.org/Graphics/SVG/1.1/DTD/svg11.dtd">
<!-- Generated by graphviz version 2.38.0 (20140413.2041)
 -->
<!-- Title: G Pages: 1 -->
<svg width="735pt" height="479pt"
 viewBox="0.00 0.00 734.54 479.00" xmlns="http://www.w3.org/2000/svg" xmlns:xlink="http://www.w3.org/1999/xlink">
<g id="graph0" class="graph" transform="scale(1 1) rotate(0) translate(4 475)">
<title>G</title>
<polygon fill="white" stroke="none" points="-4,4 -4,-475 730.539,-475 730.539,4 -4,4"/>
<!-- Arrow_Cloud_Steam -->
<g id="node1" class="node"><title>Arrow_Cloud_Steam</title>
<ellipse fill="none" stroke="black" cx="553.142" cy="-18" rx="89.0842" ry="18"/>
<text text-anchor="middle" x="553.142" y="-14.3" font-family="Times New Roman,serif" font-size="14.00">Arrow_Cloud_Steam</text>
</g>
<!-- Potion_Armor_Boost -->
<g id="node2" class="node"><title>Potion_Armor_Boost</title>
<ellipse fill="none" stroke="black" cx="124.142" cy="-279" rx="90.1842" ry="18"/>
<text text-anchor="middle" x="124.142" y="-275.3" font-family="Times New Roman,serif" font-size="14.00">Potion_Armor_Boost</text>
</g>
<!-- Potion_Water_Res -->
<g id="node6" class="node"><title>Potion_Water_Res</title>
<ellipse fill="none" stroke="black" cx="317.142" cy="-192" rx="80.6858" ry="18"/>
<text text-anchor="middle" x="317.142" y="-188.3" font-family="Times New Roman,serif" font-size="14.00">Potion_Water_Res</text>
</g>
<!-- Potion_Armor_Boost&#45;&gt;Potion_Water_Res -->
<g id="edge1" class="edge"><title>Potion_Armor_Boost&#45;&gt;Potion_Water_Res</title>
<path fill="none" stroke="black" d="M159.542,-262.41C191.472,-248.347 238.564,-227.607 272.953,-212.462"/>
<polygon fill="black" stroke="black" points="274.552,-215.582 282.293,-208.348 271.73,-209.176 274.552,-215.582"/>
<text text-anchor="middle" x="261.142" y="-231.8" font-family="Times New Roman,serif" font-size="14.00">Crafting 2</text>
</g>
<!-- ArrowHead -->
<g id="node3" class="node"><title>ArrowHead</title>
<ellipse fill="none" stroke="black" cx="477.142" cy="-192" rx="53.0913" ry="18"/>
<text text-anchor="middle" x="477.142" y="-188.3" font-family="Times New Roman,serif" font-size="14.00">ArrowHead</text>
</g>
<!-- ArrowHead_Steam -->
<g id="node14" class="node"><title>ArrowHead_Steam</title>
<ellipse fill="none" stroke="black" cx="477.142" cy="-105" rx="80.6858" ry="18"/>
<text text-anchor="middle" x="477.142" y="-101.3" font-family="Times New Roman,serif" font-size="14.00">ArrowHead_Steam</text>
</g>
<!-- ArrowHead&#45;&gt;ArrowHead_Steam -->
<g id="edge2" class="edge"><title>ArrowHead&#45;&gt;ArrowHead_Steam</title>
<path fill="none" stroke="black" d="M477.142,-173.799C477.142,-162.163 477.142,-146.548 477.142,-133.237"/>
<polygon fill="black" stroke="black" points="480.643,-133.175 477.142,-123.175 473.643,-133.175 480.643,-133.175"/>
<text text-anchor="middle" x="505.142" y="-144.8" font-family="Times New Roman,serif" font-size="14.00">Crafting 2</text>
</g>
<!-- Potion_Empty -->
<g id="node4" class="node"><title>Potion_Empty</title>
<ellipse fill="none" stroke="black" cx="204.142" cy="-453" rx="63.8893" ry="18"/>
<text text-anchor="middle" x="204.142" y="-449.3" font-family="Times New Roman,serif" font-size="14.00">Potion_Empty</text>
</g>
<!-- Minor_Healing_Potion -->
<g id="node13" class="node"><title>Minor_Healing_Potion</title>
<ellipse fill="none" stroke="black" cx="281.142" cy="-366" rx="92.8835" ry="18"/>
<text text-anchor="middle" x="281.142" y="-362.3" font-family="Times New Roman,serif" font-size="14.00">Minor_Healing_Potion</text>
</g>
<!-- Potion_Empty&#45;&gt;Minor_Healing_Potion -->
<g id="edge3" class="edge"><title>Potion_Empty&#45;&gt;Minor_Healing_Potion</title>
<path fill="none" stroke="black" d="M219.355,-435.207C230.745,-422.633 246.491,-405.252 259.236,-391.182"/>
<polygon fill="black" stroke="black" points="261.842,-393.519 265.961,-383.758 256.654,-388.82 261.842,-393.519"/>
<text text-anchor="middle" x="276.142" y="-405.8" font-family="Times New Roman,serif" font-size="14.00">Crafting 1</text>
</g>
<!-- Herb_Whisperwood -->
<g id="node5" class="node"><title>Herb_Whisperwood</title>
<ellipse fill="none" stroke="black" cx="85.1424" cy="-366" rx="85.2851" ry="18"/>
<text text-anchor="middle" x="85.1424" y="-362.3" font-family="Times New Roman,serif" font-size="14.00">Herb_Whisperwood</text>
</g>
<!-- Herb_Whisperwood&#45;&gt;Potion_Armor_Boost -->
<g id="edge4" class="edge"><title>Herb_Whisperwood&#45;&gt;Potion_Armor_Boost</title>
<path fill="none" stroke="black" d="M93.0347,-347.799C98.4795,-335.932 105.823,-319.928 112.007,-306.449"/>
<polygon fill="black" stroke="black" points="115.273,-307.724 116.262,-297.175 108.911,-304.805 115.273,-307.724"/>
<text text-anchor="middle" x="135.142" y="-318.8" font-family="Times New Roman,serif" font-size="14.00">Crafting 2</text>
</g>
<!-- Potion_Water_Res&#45;&gt;ArrowHead_Steam -->
<g id="edge5" class="edge"><title>Potion_Water_Res&#45;&gt;ArrowHead_Steam</title>
<path fill="none" stroke="black" d="M346.862,-175.211C372.601,-161.538 410.017,-141.661 438.154,-126.712"/>
<polygon fill="black" stroke="black" points="440.122,-129.631 447.311,-121.848 436.838,-123.449 440.122,-129.631"/>
<text text-anchor="middle" x="435.142" y="-144.8" font-family="Times New Roman,serif" font-size="14.00">Crafting 2</text>
</g>
<!-- Tooth -->
<g id="node7" class="node"><title>Tooth</title>
<ellipse fill="none" stroke="black" cx="453.142" cy="-279" rx="33.2948" ry="18"/>
<text text-anchor="middle" x="453.142" y="-275.3" font-family="Times New Roman,serif" font-size="14.00">Tooth</text>
</g>
<!-- Tooth&#45;&gt;ArrowHead -->
<g id="edge6" class="edge"><title>Tooth&#45;&gt;ArrowHead</title>
<path fill="none" stroke="black" d="M451.174,-260.961C450.601,-251.115 450.851,-238.615 454.142,-228 455.186,-224.634 456.659,-221.288 458.362,-218.075"/>
<polygon fill="black" stroke="black" points="461.392,-219.828 463.6,-209.466 455.412,-216.189 461.392,-219.828"/>
<text text-anchor="middle" x="482.142" y="-231.8" font-family="Times New Roman,serif" font-size="14.00">Crafting 1</text>
</g>
<!-- ArrowShaft -->
<g id="node8" class="node"><title>ArrowShaft</title>
<ellipse fill="none" stroke="black" cx="611.142" cy="-192" rx="53.0913" ry="18"/>
<text text-anchor="middle" x="611.142" y="-188.3" font-family="Times New Roman,serif" font-size="14.00">ArrowShaft</text>
</g>
<!-- ArrowShaft&#45;&gt;Arrow_Cloud_Steam -->
<g id="edge7" class="edge"><title>ArrowShaft&#45;&gt;Arrow_Cloud_Steam</title>
<path fill="none" stroke="black" d="M609.653,-173.783C606.82,-147.036 599.143,-94.3796 580.142,-54 578.545,-50.6061 576.574,-47.2324 574.43,-43.9949"/>
<polygon fill="black" stroke="black" points="577.199,-41.8517 568.487,-35.8226 571.537,-45.9687 577.199,-41.8517"/>
<text text-anchor="middle" x="630.142" y="-101.3" font-family="Times New Roman,serif" font-size="14.00">Crafting 2</text>
</g>
<!-- Knife -->
<g id="node9" class="node"><title>Knife</title>
<ellipse fill="none" stroke="black" cx="570.142" cy="-279" rx="30.5947" ry="18"/>
<text text-anchor="middle" x="570.142" y="-275.3" font-family="Times New Roman,serif" font-size="14.00">Knife</text>
</g>
<!-- Knife&#45;&gt;ArrowHead -->
<g id="edge13" class="edge"><title>Knife&#45;&gt;ArrowHead</title>
<path fill="none" stroke="black" d="M553.192,-263.917C545.728,-257.617 536.91,-250.038 529.142,-243 519.811,-234.544 509.788,-225.018 501.056,-216.566"/>
<polygon fill="black" stroke="black" points="503.372,-213.936 493.765,-209.469 498.49,-218.952 503.372,-213.936"/>
<text text-anchor="middle" x="557.142" y="-231.8" font-family="Times New Roman,serif" font-size="14.00">Crafting 1</text>
</g>
<!-- Knife&#45;&gt;ArrowShaft -->
<g id="edge12" class="edge"><title>Knife&#45;&gt;ArrowShaft</title>
<path fill="none" stroke="black" d="M579.319,-261.765C582.533,-255.906 586.098,-249.208 589.142,-243 592.842,-235.456 596.615,-227.146 599.969,-219.502"/>
<polygon fill="black" stroke="black" points="603.198,-220.854 603.955,-210.286 596.773,-218.075 603.198,-220.854"/>
<text text-anchor="middle" x="625.142" y="-231.8" font-family="Times New Roman,serif" font-size="14.00">Crafting 0</text>
</g>
<!-- Branch -->
<g id="node10" class="node"><title>Branch</title>
<ellipse fill="none" stroke="black" cx="690.142" cy="-279" rx="36.2938" ry="18"/>
<text text-anchor="middle" x="690.142" y="-275.3" font-family="Times New Roman,serif" font-size="14.00">Branch</text>
</g>
<!-- Branch&#45;&gt;ArrowShaft -->
<g id="edge9" class="edge"><title>Branch&#45;&gt;ArrowShaft</title>
<path fill="none" stroke="black" d="M681.016,-261.23C675,-251.008 666.519,-238.028 657.142,-228 652.734,-223.286 647.638,-218.732 642.477,-214.554"/>
<polygon fill="black" stroke="black" points="644.461,-211.664 634.405,-208.331 640.188,-217.208 644.461,-211.664"/>
<text text-anchor="middle" x="697.142" y="-231.8" font-family="Times New Roman,serif" font-size="14.00">Crafting 0</text>
</g>
<!-- Herb_Mushroom_B -->
<g id="node11" class="node"><title>Herb_Mushroom_B</title>
<ellipse fill="none" stroke="black" cx="317.142" cy="-279" rx="84.485" ry="18"/>
<text text-anchor="middle" x="317.142" y="-275.3" font-family="Times New Roman,serif" font-size="14.00">Herb_Mushroom_B</text>
</g>
<!-- Herb_Mushroom_B&#45;&gt;Potion_Water_Res -->
<g id="edge10" class="edge"><title>Herb_Mushroom_B&#45;&gt;Potion_Water_Res</title>
<path fill="none" stroke="black" d="M317.142,-260.799C317.142,-249.163 317.142,-233.548 317.142,-220.237"/>
<polygon fill="black" stroke="black" points="320.643,-220.175 317.142,-210.175 313.643,-220.175 320.643,-220.175"/>
<text text-anchor="middle" x="345.142" y="-231.8" font-family="Times New Roman,serif" font-size="14.00">Crafting 2</text>
</g>
<!-- Herb_Mushroom -->
<g id="node12" class="node"><title>Herb_Mushroom</title>
<ellipse fill="none" stroke="black" cx="359.142" cy="-453" rx="73.387" ry="18"/>
<text text-anchor="middle" x="359.142" y="-449.3" font-family="Times New Roman,serif" font-size="14.00">Herb_Mushroom</text>
</g>
<!-- Herb_Mushroom&#45;&gt;Minor_Healing_Potion -->
<g id="edge11" class="edge"><title>Herb_Mushroom&#45;&gt;Minor_Healing_Potion</title>
<path fill="none" stroke="black" d="M343.732,-435.207C332.194,-422.633 316.244,-405.252 303.333,-391.182"/>
<polygon fill="black" stroke="black" points="305.861,-388.76 296.521,-383.758 300.703,-393.493 305.861,-388.76"/>
<text text-anchor="middle" x="353.142" y="-405.8" font-family="Times New Roman,serif" font-size="14.00">Crafting 1</text>
</g>
<!-- Minor_Healing_Potion&#45;&gt;Potion_Armor_Boost -->
<g id="edge8" class="edge"><title>Minor_Healing_Potion&#45;&gt;Potion_Armor_Boost</title>
<path fill="none" stroke="black" d="M251.242,-348.812C226.143,-335.223 190.116,-315.718 162.824,-300.942"/>
<polygon fill="black" stroke="black" points="164.391,-297.811 153.931,-296.128 161.059,-303.967 164.391,-297.811"/>
<text text-anchor="middle" x="240.142" y="-318.8" font-family="Times New Roman,serif" font-size="14.00">Crafting 2</text>
</g>
<!-- ArrowHead_Steam&#45;&gt;Arrow_Cloud_Steam -->
<g id="edge14" class="edge"><title>ArrowHead_Steam&#45;&gt;Arrow_Cloud_Steam</title>
<path fill="none" stroke="black" d="M492.158,-87.2067C503.295,-74.7499 518.653,-57.5734 531.17,-43.5741"/>
<polygon fill="black" stroke="black" points="534.102,-45.546 538.158,-35.7584 528.884,-40.8802 534.102,-45.546"/>
<text text-anchor="middle" x="548.142" y="-57.8" font-family="Times New Roman,serif" font-size="14.00">Crafting 2</text>
</g>
</g>
</svg>
