<?xml version="1.0" encoding="UTF-8" standalone="no"?>
<!DOCTYPE svg PUBLIC "-//W3C//DTD SVG 1.1//EN"
 "http://www.w3.org/Graphics/SVG/1.1/DTD/svg11.dtd">
<!-- Generated by graphviz version 2.38.0 (20140413.2041)
 -->
<!-- Title: G Pages: 1 -->
<svg width="222pt" height="149pt"
 viewBox="0.00 0.00 221.79 148.74" xmlns="http://www.w3.org/2000/svg" xmlns:xlink="http://www.w3.org/1999/xlink">
<g id="graph0" class="graph" transform="scale(1 1) rotate(0) translate(4 144.74)">
<title>G</title>
<polygon fill="white" stroke="none" points="-4,4 -4,-144.74 217.795,-144.74 217.795,4 -4,4"/>
<!-- Sword
+ Small_FireDamage -->
<g id="node1" class="node"><title>Sword
+ Small_FireDamage</title>
<ellipse fill="none" stroke="black" cx="115.795" cy="-26.8701" rx="94.5053" ry="26.7407"/>
<text text-anchor="middle" x="115.795" y="-30.6701" font-family="Times New Roman,serif" font-size="14.00">Sword</text>
<text text-anchor="middle" x="115.795" y="-15.6701" font-family="Times New Roman,serif" font-size="14.00">+ Small_FireDamage</text>
</g>
<!-- Essence_Fire -->
<g id="node2" class="node"><title>Essence_Fire</title>
<ellipse fill="none" stroke="black" cx="59.7947" cy="-122.74" rx="59.5901" ry="18"/>
<text text-anchor="middle" x="59.7947" y="-119.04" font-family="Times New Roman,serif" font-size="14.00">Essence_Fire</text>
</g>
<!-- Essence_Fire&#45;&gt;Sword
+ Small_FireDamage -->
<g id="edge1" class="edge"><title>Essence_Fire&#45;&gt;Sword
+ Small_FireDamage</title>
<path fill="none" stroke="black" d="M69.8064,-104.958C76.8407,-93.1668 86.5017,-76.9725 95.1536,-62.4696"/>
<polygon fill="black" stroke="black" points="98.2603,-64.0937 100.378,-53.7126 92.2487,-60.5073 98.2603,-64.0937"/>
<text text-anchor="middle" x="117.795" y="-75.5401" font-family="Times New Roman,serif" font-size="14.00">Crafting 5</text>
</g>
<!-- Sword -->
<g id="node3" class="node"><title>Sword</title>
<ellipse fill="none" stroke="black" cx="172.795" cy="-122.74" rx="35.194" ry="18"/>
<text text-anchor="middle" x="172.795" y="-119.04" font-family="Times New Roman,serif" font-size="14.00">Sword</text>
</g>
<!-- Sword&#45;&gt;Sword
+ Small_FireDamage -->
<g id="edge2" class="edge"><title>Sword&#45;&gt;Sword
+ Small_FireDamage</title>
<path fill="none" stroke="black" d="M166.246,-105.044C162.067,-95.0882 156.237,-82.3605 149.795,-71.7401 147.718,-68.3159 145.419,-64.8471 143.025,-61.4386"/>
<polygon fill="black" stroke="black" points="145.685,-59.1471 136.951,-53.1496 140.039,-63.2846 145.685,-59.1471"/>
<text text-anchor="middle" x="185.795" y="-75.5401" font-family="Times New Roman,serif" font-size="14.00">Crafting 5</text>
</g>
</g>
</svg>
