<?xml version="1.0" encoding="UTF-8" standalone="no"?>
<!DOCTYPE svg PUBLIC "-//W3C//DTD SVG 1.1//EN"
 "http://www.w3.org/Graphics/SVG/1.1/DTD/svg11.dtd">
<!-- Generated by graphviz version 2.38.0 (20140413.2041)
 -->
<!-- Title: G Pages: 1 -->
<svg width="383pt" height="131pt"
 viewBox="0.00 0.00 382.84 131.00" xmlns="http://www.w3.org/2000/svg" xmlns:xlink="http://www.w3.org/1999/xlink">
<g id="graph0" class="graph" transform="scale(1 1) rotate(0) translate(4 127)">
<title>G</title>
<polygon fill="white" stroke="none" points="-4,4 -4,-127 378.84,-127 378.84,4 -4,4"/>
<!-- Shield_Small_FireResistance -->
<g id="node1" class="node"><title>Shield_Small_FireResistance</title>
<ellipse fill="none" stroke="black" cx="184.295" cy="-18" rx="116.18" ry="18"/>
<text text-anchor="middle" x="184.295" y="-14.3" font-family="Times New Roman,serif" font-size="14.00">Shield_Small_FireResistance</text>
</g>
<!-- ShieldMetal -->
<g id="node2" class="node"><title>ShieldMetal</title>
<ellipse fill="none" stroke="black" cx="53.2953" cy="-105" rx="53.0913" ry="18"/>
<text text-anchor="middle" x="53.2953" y="-101.3" font-family="Times New Roman,serif" font-size="14.00">ShieldMetal</text>
</g>
<!-- ShieldMetal&#45;&gt;Shield_Small_FireResistance -->
<g id="edge2" class="edge"><title>ShieldMetal&#45;&gt;Shield_Small_FireResistance</title>
<path fill="none" stroke="black" d="M74.4079,-88.4191C88.3612,-78.3002 107.169,-64.997 124.295,-54 131.145,-49.6018 138.554,-45.0896 145.751,-40.8294"/>
<polygon fill="black" stroke="black" points="147.832,-43.6666 154.696,-35.5954 144.297,-37.6249 147.832,-43.6666"/>
<text text-anchor="middle" x="152.295" y="-57.8" font-family="Times New Roman,serif" font-size="14.00">Crafting 4</text>
</g>
<!-- Essence_Fire -->
<g id="node3" class="node"><title>Essence_Fire</title>
<ellipse fill="none" stroke="black" cx="184.295" cy="-105" rx="59.5901" ry="18"/>
<text text-anchor="middle" x="184.295" y="-101.3" font-family="Times New Roman,serif" font-size="14.00">Essence_Fire</text>
</g>
<!-- Essence_Fire&#45;&gt;Shield_Small_FireResistance -->
<g id="edge3" class="edge"><title>Essence_Fire&#45;&gt;Shield_Small_FireResistance</title>
<path fill="none" stroke="black" d="M184.295,-86.799C184.295,-75.1626 184.295,-59.5479 184.295,-46.2368"/>
<polygon fill="black" stroke="black" points="187.795,-46.1754 184.295,-36.1754 180.795,-46.1755 187.795,-46.1754"/>
<text text-anchor="middle" x="212.295" y="-57.8" font-family="Times New Roman,serif" font-size="14.00">Crafting 4</text>
</g>
<!-- ShieldWood -->
<g id="node4" class="node"><title>ShieldWood</title>
<ellipse fill="none" stroke="black" cx="318.295" cy="-105" rx="56.59" ry="18"/>
<text text-anchor="middle" x="318.295" y="-101.3" font-family="Times New Roman,serif" font-size="14.00">ShieldWood</text>
</g>
<!-- ShieldWood&#45;&gt;Shield_Small_FireResistance -->
<g id="edge1" class="edge"><title>ShieldWood&#45;&gt;Shield_Small_FireResistance</title>
<path fill="none" stroke="black" d="M295.88,-88.2896C281.336,-78.2375 261.886,-65.0564 244.295,-54 237.332,-49.6231 229.82,-45.0941 222.546,-40.8047"/>
<polygon fill="black" stroke="black" points="223.919,-37.5532 213.519,-35.5292 220.387,-43.5968 223.919,-37.5532"/>
<text text-anchor="middle" x="294.295" y="-57.8" font-family="Times New Roman,serif" font-size="14.00">Crafting 4</text>
</g>
</g>
</svg>
