<?xml version="1.0" encoding="UTF-8" standalone="no"?>
<!DOCTYPE svg PUBLIC "-//W3C//DTD SVG 1.1//EN"
 "http://www.w3.org/Graphics/SVG/1.1/DTD/svg11.dtd">
<!-- Generated by graphviz version 2.38.0 (20140413.2041)
 -->
<!-- Title: G Pages: 1 -->
<svg width="373pt" height="218pt"
 viewBox="0.00 0.00 373.34 218.00" xmlns="http://www.w3.org/2000/svg" xmlns:xlink="http://www.w3.org/1999/xlink">
<g id="graph0" class="graph" transform="scale(1 1) rotate(0) translate(4 214)">
<title>G</title>
<polygon fill="white" stroke="none" points="-4,4 -4,-214 369.342,-214 369.342,4 -4,4"/>
<!-- Potato_Mash_Cold -->
<g id="node1" class="node"><title>Potato_Mash_Cold</title>
<ellipse fill="none" stroke="black" cx="276.746" cy="-105" rx="82.5854" ry="18"/>
<text text-anchor="middle" x="276.746" y="-101.3" font-family="Times New Roman,serif" font-size="14.00">Potato_Mash_Cold</text>
</g>
<!-- Potato_Mash -->
<g id="node2" class="node"><title>Potato_Mash</title>
<ellipse fill="none" stroke="black" cx="145.746" cy="-18" rx="59.5901" ry="18"/>
<text text-anchor="middle" x="145.746" y="-14.3" font-family="Times New Roman,serif" font-size="14.00">Potato_Mash</text>
</g>
<!-- Potato_Mash_Cold&#45;&gt;Potato_Mash -->
<g id="edge1" class="edge"><title>Potato_Mash_Cold&#45;&gt;Potato_Mash</title>
<path fill="none" stroke="black" d="M254.38,-87.5114C240.567,-77.5139 222.364,-64.6712 205.746,-54 198.078,-49.0764 189.709,-44.0101 181.722,-39.3142"/>
<polygon fill="black" stroke="black" points="183.327,-36.1989 172.923,-34.1972 179.808,-42.25 183.327,-36.1989"/>
<text text-anchor="middle" x="254.746" y="-57.8" font-family="Times New Roman,serif" font-size="14.00">Crafting 0</text>
</g>
<!-- Potato -->
<g id="node3" class="node"><title>Potato</title>
<ellipse fill="none" stroke="black" cx="229.746" cy="-192" rx="34.394" ry="18"/>
<text text-anchor="middle" x="229.746" y="-188.3" font-family="Times New Roman,serif" font-size="14.00">Potato</text>
</g>
<!-- Potato&#45;&gt;Potato_Mash_Cold -->
<g id="edge2" class="edge"><title>Potato&#45;&gt;Potato_Mash_Cold</title>
<path fill="none" stroke="black" d="M233.3,-174.07C235.852,-164.031 239.886,-151.298 245.746,-141 247.765,-137.45 250.188,-133.944 252.778,-130.601"/>
<polygon fill="black" stroke="black" points="255.668,-132.603 259.426,-122.697 250.311,-128.098 255.668,-132.603"/>
<text text-anchor="middle" x="273.746" y="-144.8" font-family="Times New Roman,serif" font-size="14.00">Crafting 0</text>
</g>
<!-- BoilingPot -->
<g id="node4" class="node"><title>BoilingPot</title>
<ellipse fill="none" stroke="black" cx="48.7457" cy="-105" rx="48.9926" ry="18"/>
<text text-anchor="middle" x="48.7457" y="-101.3" font-family="Times New Roman,serif" font-size="14.00">BoilingPot</text>
</g>
<!-- BoilingPot&#45;&gt;Potato_Mash -->
<g id="edge3" class="edge"><title>BoilingPot&#45;&gt;Potato_Mash</title>
<path fill="none" stroke="black" d="M58.6049,-87.338C65.3389,-76.9061 74.9714,-63.6596 85.7457,-54 91.9329,-48.4529 99.1363,-43.3563 106.361,-38.8695"/>
<polygon fill="black" stroke="black" points="108.603,-41.6112 115.448,-33.5243 105.054,-35.5776 108.603,-41.6112"/>
<text text-anchor="middle" x="113.746" y="-57.8" font-family="Times New Roman,serif" font-size="14.00">Crafting 0</text>
</g>
<!-- Oven -->
<g id="node5" class="node"><title>Oven</title>
<ellipse fill="none" stroke="black" cx="145.746" cy="-105" rx="30.5947" ry="18"/>
<text text-anchor="middle" x="145.746" y="-101.3" font-family="Times New Roman,serif" font-size="14.00">Oven</text>
</g>
<!-- Oven&#45;&gt;Potato_Mash -->
<g id="edge4" class="edge"><title>Oven&#45;&gt;Potato_Mash</title>
<path fill="none" stroke="black" d="M145.746,-86.799C145.746,-75.1626 145.746,-59.5479 145.746,-46.2368"/>
<polygon fill="black" stroke="black" points="149.246,-46.1754 145.746,-36.1754 142.246,-46.1755 149.246,-46.1754"/>
<text text-anchor="middle" x="173.746" y="-57.8" font-family="Times New Roman,serif" font-size="14.00">Crafting 0</text>
</g>
<!-- Hammer -->
<g id="node6" class="node"><title>Hammer</title>
<ellipse fill="none" stroke="black" cx="323.746" cy="-192" rx="41.6928" ry="18"/>
<text text-anchor="middle" x="323.746" y="-188.3" font-family="Times New Roman,serif" font-size="14.00">Hammer</text>
</g>
<!-- Hammer&#45;&gt;Potato_Mash_Cold -->
<g id="edge5" class="edge"><title>Hammer&#45;&gt;Potato_Mash_Cold</title>
<path fill="none" stroke="black" d="M317.249,-173.913C313.25,-164.05 307.75,-151.55 301.746,-141 299.901,-137.759 297.825,-134.451 295.678,-131.225"/>
<polygon fill="black" stroke="black" points="298.524,-129.187 289.938,-122.98 292.779,-133.187 298.524,-129.187"/>
<text text-anchor="middle" x="336.746" y="-144.8" font-family="Times New Roman,serif" font-size="14.00">Crafting 0</text>
</g>
</g>
</svg>
