<?xml version="1.0" encoding="UTF-8" standalone="no"?>
<!DOCTYPE svg PUBLIC "-//W3C//DTD SVG 1.1//EN"
 "http://www.w3.org/Graphics/SVG/1.1/DTD/svg11.dtd">
<!-- Generated by graphviz version 2.38.0 (20140413.2041)
 -->
<!-- Title: G Pages: 1 -->
<svg width="679pt" height="305pt"
 viewBox="0.00 0.00 679.19 305.00" xmlns="http://www.w3.org/2000/svg" xmlns:xlink="http://www.w3.org/1999/xlink">
<g id="graph0" class="graph" transform="scale(1 1) rotate(0) translate(4 301)">
<title>G</title>
<polygon fill="white" stroke="none" points="-4,4 -4,-301 675.187,-301 675.187,4 -4,4"/>
<!-- Branch -->
<g id="node1" class="node"><title>Branch</title>
<ellipse fill="none" stroke="black" cx="461.443" cy="-192" rx="36.2938" ry="18"/>
<text text-anchor="middle" x="461.443" y="-188.3" font-family="Times New Roman,serif" font-size="14.00">Branch</text>
</g>
<!-- CrossbowWithoutString -->
<g id="node12" class="node"><title>CrossbowWithoutString</title>
<ellipse fill="none" stroke="black" cx="395.443" cy="-105" rx="99.3824" ry="18"/>
<text text-anchor="middle" x="395.443" y="-101.3" font-family="Times New Roman,serif" font-size="14.00">CrossbowWithoutString</text>
</g>
<!-- Branch&#45;&gt;CrossbowWithoutString -->
<g id="edge10" class="edge"><title>Branch&#45;&gt;CrossbowWithoutString</title>
<path fill="none" stroke="black" d="M452.3,-174.148C446.556,-164.137 438.691,-151.406 430.443,-141 427.543,-137.34 424.296,-133.657 420.982,-130.125"/>
<polygon fill="black" stroke="black" points="423.218,-127.406 413.724,-122.703 418.214,-132.3 423.218,-127.406"/>
<text text-anchor="middle" x="469.443" y="-144.8" font-family="Times New Roman,serif" font-size="14.00">Crafting 2</text>
</g>
<!-- Bone_A_Iron -->
<g id="node2" class="node"><title>Bone_A_Iron</title>
<ellipse fill="none" stroke="black" cx="182.443" cy="-279" rx="61.1893" ry="18"/>
<text text-anchor="middle" x="182.443" y="-275.3" font-family="Times New Roman,serif" font-size="14.00">Bone_A_Iron</text>
</g>
<!-- OreBar_A_Iron -->
<g id="node3" class="node"><title>OreBar_A_Iron</title>
<ellipse fill="none" stroke="black" cx="338.443" cy="-192" rx="68.4888" ry="18"/>
<text text-anchor="middle" x="338.443" y="-188.3" font-family="Times New Roman,serif" font-size="14.00">OreBar_A_Iron</text>
</g>
<!-- Bone_A_Iron&#45;&gt;OreBar_A_Iron -->
<g id="edge3" class="edge"><title>Bone_A_Iron&#45;&gt;OreBar_A_Iron</title>
<path fill="none" stroke="black" d="M197.757,-261.275C208.324,-250.552 223.175,-237.003 238.443,-228 251.896,-220.068 267.424,-213.548 282.172,-208.375"/>
<polygon fill="black" stroke="black" points="283.355,-211.67 291.722,-205.169 281.128,-205.034 283.355,-211.67"/>
<text text-anchor="middle" x="266.443" y="-231.8" font-family="Times New Roman,serif" font-size="14.00">Crafting 0</text>
</g>
<!-- OreBar_A_Iron&#45;&gt;CrossbowWithoutString -->
<g id="edge4" class="edge"><title>OreBar_A_Iron&#45;&gt;CrossbowWithoutString</title>
<path fill="none" stroke="black" d="M349.705,-174.207C357.849,-162.062 369.001,-145.431 378.255,-131.633"/>
<polygon fill="black" stroke="black" points="381.348,-133.304 384.01,-123.049 375.534,-129.405 381.348,-133.304"/>
<text text-anchor="middle" x="398.443" y="-144.8" font-family="Times New Roman,serif" font-size="14.00">Crafting 2</text>
</g>
<!-- Sinew -->
<g id="node4" class="node"><title>Sinew</title>
<ellipse fill="none" stroke="black" cx="160.443" cy="-192" rx="32.4942" ry="18"/>
<text text-anchor="middle" x="160.443" y="-188.3" font-family="Times New Roman,serif" font-size="14.00">Sinew</text>
</g>
<!-- String_Bow -->
<g id="node5" class="node"><title>String_Bow</title>
<ellipse fill="none" stroke="black" cx="160.443" cy="-105" rx="53.8905" ry="18"/>
<text text-anchor="middle" x="160.443" y="-101.3" font-family="Times New Roman,serif" font-size="14.00">String_Bow</text>
</g>
<!-- Sinew&#45;&gt;String_Bow -->
<g id="edge5" class="edge"><title>Sinew&#45;&gt;String_Bow</title>
<path fill="none" stroke="black" d="M160.443,-173.799C160.443,-162.163 160.443,-146.548 160.443,-133.237"/>
<polygon fill="black" stroke="black" points="163.944,-133.175 160.443,-123.175 156.944,-133.175 163.944,-133.175"/>
<text text-anchor="middle" x="188.443" y="-144.8" font-family="Times New Roman,serif" font-size="14.00">Crafting 0</text>
</g>
<!-- Regularcrossbow B -->
<g id="node6" class="node"><title>Regularcrossbow B</title>
<ellipse fill="none" stroke="black" cx="417.443" cy="-18" rx="83.3857" ry="18"/>
<text text-anchor="middle" x="417.443" y="-14.3" font-family="Times New Roman,serif" font-size="14.00">Regularcrossbow B</text>
</g>
<!-- String_Bow&#45;&gt;Regularcrossbow B -->
<g id="edge6" class="edge"><title>String_Bow&#45;&gt;Regularcrossbow B</title>
<path fill="none" stroke="black" d="M201.985,-93.2271C221.04,-87.4212 243.543,-79.3111 262.443,-69 271.888,-63.8474 271.803,-58.7772 281.443,-54 300.774,-44.4208 322.989,-37.2822 343.786,-32.0413"/>
<polygon fill="black" stroke="black" points="344.64,-35.4357 353.543,-29.692 343.002,-28.6302 344.64,-35.4357"/>
<text text-anchor="middle" x="309.443" y="-57.8" font-family="Times New Roman,serif" font-size="14.00">Crafting 4</text>
</g>
<!-- Lightcrossbow -->
<g id="node7" class="node"><title>Lightcrossbow</title>
<ellipse fill="none" stroke="black" cx="243.443" cy="-18" rx="65.7887" ry="18"/>
<text text-anchor="middle" x="243.443" y="-14.3" font-family="Times New Roman,serif" font-size="14.00">Lightcrossbow</text>
</g>
<!-- String_Bow&#45;&gt;Lightcrossbow -->
<g id="edge7" class="edge"><title>String_Bow&#45;&gt;Lightcrossbow</title>
<path fill="none" stroke="black" d="M139.441,-88.3794C128.564,-78.363 119.133,-65.1881 127.443,-54 134.358,-44.6912 156.832,-36.9089 180.18,-31.0647"/>
<polygon fill="black" stroke="black" points="181.28,-34.4007 190.198,-28.6799 179.659,-27.5911 181.28,-34.4007"/>
<text text-anchor="middle" x="155.443" y="-57.8" font-family="Times New Roman,serif" font-size="14.00">Crafting 1</text>
</g>
<!-- Lightcrossbow B -->
<g id="node8" class="node"><title>Lightcrossbow B</title>
<ellipse fill="none" stroke="black" cx="73.4435" cy="-18" rx="73.387" ry="18"/>
<text text-anchor="middle" x="73.4435" y="-14.3" font-family="Times New Roman,serif" font-size="14.00">Lightcrossbow B</text>
</g>
<!-- String_Bow&#45;&gt;Lightcrossbow B -->
<g id="edge8" class="edge"><title>String_Bow&#45;&gt;Lightcrossbow B</title>
<path fill="none" stroke="black" d="M110.792,-97.7627C93.1922,-92.8913 75.1232,-84.2611 64.4435,-69 59.7499,-62.2931 59.6426,-53.8772 61.413,-45.8732"/>
<polygon fill="black" stroke="black" points="64.8204,-46.7031 64.4559,-36.1146 58.1377,-44.6193 64.8204,-46.7031"/>
<text text-anchor="middle" x="92.4435" y="-57.8" font-family="Times New Roman,serif" font-size="14.00">Crafting 2</text>
</g>
<!-- Regularcrossbow -->
<g id="node10" class="node"><title>Regularcrossbow</title>
<ellipse fill="none" stroke="black" cx="596.443" cy="-18" rx="74.9875" ry="18"/>
<text text-anchor="middle" x="596.443" y="-14.3" font-family="Times New Roman,serif" font-size="14.00">Regularcrossbow</text>
</g>
<!-- String_Bow&#45;&gt;Regularcrossbow -->
<g id="edge9" class="edge"><title>String_Bow&#45;&gt;Regularcrossbow</title>
<path fill="none" stroke="black" d="M209.513,-97.4353C284.693,-87.3716 419.838,-69.2566 420.443,-69 430.349,-64.7999 429.727,-58.6197 439.443,-54 448.017,-49.9237 491.777,-40.3032 530.925,-32.1782"/>
<polygon fill="black" stroke="black" points="531.669,-35.5986 540.755,-30.1491 530.254,-28.7432 531.669,-35.5986"/>
<text text-anchor="middle" x="467.443" y="-57.8" font-family="Times New Roman,serif" font-size="14.00">Crafting 3</text>
</g>
<!-- Sword -->
<g id="node9" class="node"><title>Sword</title>
<ellipse fill="none" stroke="black" cx="296.443" cy="-279" rx="35.194" ry="18"/>
<text text-anchor="middle" x="296.443" y="-275.3" font-family="Times New Roman,serif" font-size="14.00">Sword</text>
</g>
<!-- Sword&#45;&gt;OreBar_A_Iron -->
<g id="edge1" class="edge"><title>Sword&#45;&gt;OreBar_A_Iron</title>
<path fill="none" stroke="black" d="M295.71,-260.989C295.935,-250.921 297.403,-238.187 302.443,-228 304.455,-223.935 307.136,-220.076 310.131,-216.508"/>
<polygon fill="black" stroke="black" points="312.721,-218.863 317.052,-209.194 307.636,-214.052 312.721,-218.863"/>
<text text-anchor="middle" x="330.443" y="-231.8" font-family="Times New Roman,serif" font-size="14.00">Crafting 1</text>
</g>
<!-- Oven -->
<g id="node11" class="node"><title>Oven</title>
<ellipse fill="none" stroke="black" cx="380.443" cy="-279" rx="30.5947" ry="18"/>
<text text-anchor="middle" x="380.443" y="-275.3" font-family="Times New Roman,serif" font-size="14.00">Oven</text>
</g>
<!-- Oven&#45;&gt;OreBar_A_Iron -->
<g id="edge11" class="edge"><title>Oven&#45;&gt;OreBar_A_Iron</title>
<path fill="none" stroke="black" d="M373.541,-261.13C369.407,-251.34 363.907,-238.84 358.443,-228 356.932,-225 355.284,-221.895 353.604,-218.829"/>
<polygon fill="black" stroke="black" points="356.529,-216.891 348.572,-209.895 350.43,-220.326 356.529,-216.891"/>
<text text-anchor="middle" x="394.443" y="-231.8" font-family="Times New Roman,serif" font-size="14.00">Crafting 1</text>
</g>
<!-- CrossbowWithoutString&#45;&gt;Regularcrossbow B -->
<g id="edge12" class="edge"><title>CrossbowWithoutString&#45;&gt;Regularcrossbow B</title>
<path fill="none" stroke="black" d="M468.044,-92.57C480.36,-87.3535 491.662,-79.8295 499.443,-69 509.635,-54.8173 497.76,-43.8701 480.169,-35.8851"/>
<polygon fill="black" stroke="black" points="481.118,-32.4931 470.535,-31.978 478.487,-38.9799 481.118,-32.4931"/>
<text text-anchor="middle" x="531.443" y="-57.8" font-family="Times New Roman,serif" font-size="14.00">Crafting 4</text>
</g>
<!-- CrossbowWithoutString&#45;&gt;Lightcrossbow -->
<g id="edge13" class="edge"><title>CrossbowWithoutString&#45;&gt;Lightcrossbow</title>
<path fill="none" stroke="black" d="M380.316,-86.8037C370.193,-76.1588 356.084,-62.8755 341.443,-54 328.389,-46.0859 313.275,-39.583 298.884,-34.422"/>
<polygon fill="black" stroke="black" points="299.665,-30.9901 289.07,-31.0626 297.398,-37.6128 299.665,-30.9901"/>
<text text-anchor="middle" x="389.443" y="-57.8" font-family="Times New Roman,serif" font-size="14.00">Crafting 1</text>
</g>
<!-- CrossbowWithoutString&#45;&gt;Lightcrossbow B -->
<g id="edge14" class="edge"><title>CrossbowWithoutString&#45;&gt;Lightcrossbow B</title>
<path fill="none" stroke="black" d="M305.777,-96.9684C272.266,-91.9907 234.57,-83.4952 202.443,-69 192.637,-64.5752 192.946,-59.046 183.443,-54 168.056,-45.8285 150.433,-39.1706 133.869,-33.9407"/>
<polygon fill="black" stroke="black" points="134.848,-30.5804 124.263,-31.0257 132.815,-37.2788 134.848,-30.5804"/>
<text text-anchor="middle" x="230.443" y="-57.8" font-family="Times New Roman,serif" font-size="14.00">Crafting 2</text>
</g>
<!-- CrossbowWithoutString&#45;&gt;Regularcrossbow -->
<g id="edge15" class="edge"><title>CrossbowWithoutString&#45;&gt;Regularcrossbow</title>
<path fill="none" stroke="black" d="M487.331,-98.0178C513.605,-92.9551 541.136,-84.1442 563.443,-69 572.257,-63.0167 579.3,-53.8176 584.579,-44.9337"/>
<polygon fill="black" stroke="black" points="587.766,-46.3992 589.442,-35.9378 581.608,-43.0705 587.766,-46.3992"/>
<text text-anchor="middle" x="606.443" y="-57.8" font-family="Times New Roman,serif" font-size="14.00">Crafting 3</text>
</g>
<!-- Ore_A_Iron -->
<g id="node13" class="node"><title>Ore_A_Iron</title>
<ellipse fill="none" stroke="black" cx="484.443" cy="-279" rx="55.7903" ry="18"/>
<text text-anchor="middle" x="484.443" y="-275.3" font-family="Times New Roman,serif" font-size="14.00">Ore_A_Iron</text>
</g>
<!-- Ore_A_Iron&#45;&gt;OreBar_A_Iron -->
<g id="edge2" class="edge"><title>Ore_A_Iron&#45;&gt;OreBar_A_Iron</title>
<path fill="none" stroke="black" d="M468.35,-261.519C457.308,-250.899 441.905,-237.373 426.443,-228 415.015,-221.072 401.973,-215.015 389.494,-209.974"/>
<polygon fill="black" stroke="black" points="390.685,-206.682 380.096,-206.32 388.148,-213.206 390.685,-206.682"/>
<text text-anchor="middle" x="475.443" y="-231.8" font-family="Times New Roman,serif" font-size="14.00">Crafting 0</text>
</g>
</g>
</svg>
