<?xml version="1.0" encoding="UTF-8" standalone="no"?>
<!DOCTYPE svg PUBLIC "-//W3C//DTD SVG 1.1//EN"
 "http://www.w3.org/Graphics/SVG/1.1/DTD/svg11.dtd">
<!-- Generated by graphviz version 2.38.0 (20140413.2041)
 -->
<!-- Title: G Pages: 1 -->
<svg width="867pt" height="392pt"
 viewBox="0.00 0.00 866.59 392.00" xmlns="http://www.w3.org/2000/svg" xmlns:xlink="http://www.w3.org/1999/xlink">
<g id="graph0" class="graph" transform="scale(1 1) rotate(0) translate(4 388)">
<title>G</title>
<polygon fill="white" stroke="none" points="-4,4 -4,-388 862.592,-388 862.592,4 -4,4"/>
<!-- Dough_Cyseal -->
<g id="node1" class="node"><title>Dough_Cyseal</title>
<ellipse fill="none" stroke="black" cx="476.397" cy="-105" rx="64.189" ry="18"/>
<text text-anchor="middle" x="476.397" y="-101.3" font-family="Times New Roman,serif" font-size="14.00">Dough_Cyseal</text>
</g>
<!-- Pie_Cyseal -->
<g id="node11" class="node"><title>Pie_Cyseal</title>
<ellipse fill="none" stroke="black" cx="541.397" cy="-18" rx="51.1914" ry="18"/>
<text text-anchor="middle" x="541.397" y="-14.3" font-family="Times New Roman,serif" font-size="14.00">Pie_Cyseal</text>
</g>
<!-- Dough_Cyseal&#45;&gt;Pie_Cyseal -->
<g id="edge1" class="edge"><title>Dough_Cyseal&#45;&gt;Pie_Cyseal</title>
<path fill="none" stroke="black" d="M483.86,-86.9444C488.686,-76.8608 495.525,-64.1253 503.397,-54 506.617,-49.8575 510.35,-45.7806 514.193,-41.9556"/>
<polygon fill="black" stroke="black" points="516.738,-44.3662 521.613,-34.9595 511.936,-39.2731 516.738,-44.3662"/>
<text text-anchor="middle" x="531.397" y="-57.8" font-family="Times New Roman,serif" font-size="14.00">Crafting 0</text>
</g>
<!-- Wheat -->
<g id="node2" class="node"><title>Wheat</title>
<ellipse fill="none" stroke="black" cx="691.397" cy="-366" rx="34.394" ry="18"/>
<text text-anchor="middle" x="691.397" y="-362.3" font-family="Times New Roman,serif" font-size="14.00">Wheat</text>
</g>
<!-- Flour -->
<g id="node10" class="node"><title>Flour</title>
<ellipse fill="none" stroke="black" cx="691.397" cy="-279" rx="30.5947" ry="18"/>
<text text-anchor="middle" x="691.397" y="-275.3" font-family="Times New Roman,serif" font-size="14.00">Flour</text>
</g>
<!-- Wheat&#45;&gt;Flour -->
<g id="edge2" class="edge"><title>Wheat&#45;&gt;Flour</title>
<path fill="none" stroke="black" d="M691.397,-347.799C691.397,-336.163 691.397,-320.548 691.397,-307.237"/>
<polygon fill="black" stroke="black" points="694.897,-307.175 691.397,-297.175 687.897,-307.175 694.897,-307.175"/>
<text text-anchor="middle" x="719.397" y="-318.8" font-family="Times New Roman,serif" font-size="14.00">Crafting 0</text>
</g>
<!-- Well -->
<g id="node3" class="node"><title>Well</title>
<ellipse fill="none" stroke="black" cx="462.397" cy="-366" rx="27.0966" ry="18"/>
<text text-anchor="middle" x="462.397" y="-362.3" font-family="Times New Roman,serif" font-size="14.00">Well</text>
</g>
<!-- Bucket_A_Water -->
<g id="node6" class="node"><title>Bucket_A_Water</title>
<ellipse fill="none" stroke="black" cx="194.397" cy="-279" rx="74.187" ry="18"/>
<text text-anchor="middle" x="194.397" y="-275.3" font-family="Times New Roman,serif" font-size="14.00">Bucket_A_Water</text>
</g>
<!-- Well&#45;&gt;Bucket_A_Water -->
<g id="edge4" class="edge"><title>Well&#45;&gt;Bucket_A_Water</title>
<path fill="none" stroke="black" d="M448.743,-350.324C436.217,-337.207 418.3,-319.398 409.397,-315 385.596,-303.243 323.24,-293.855 271.774,-287.773"/>
<polygon fill="black" stroke="black" points="271.977,-284.274 261.641,-286.602 271.173,-291.227 271.977,-284.274"/>
<text text-anchor="middle" x="455.397" y="-318.8" font-family="Times New Roman,serif" font-size="14.00">Crafting 0</text>
</g>
<!-- Cup_A_Water -->
<g id="node13" class="node"><title>Cup_A_Water</title>
<ellipse fill="none" stroke="black" cx="417.397" cy="-279" rx="64.189" ry="18"/>
<text text-anchor="middle" x="417.397" y="-275.3" font-family="Times New Roman,serif" font-size="14.00">Cup_A_Water</text>
</g>
<!-- Well&#45;&gt;Cup_A_Water -->
<g id="edge5" class="edge"><title>Well&#45;&gt;Cup_A_Water</title>
<path fill="none" stroke="black" d="M478.03,-350.67C487.177,-340.495 495.631,-326.632 488.397,-315 483.858,-307.703 477.301,-301.882 469.981,-297.252"/>
<polygon fill="black" stroke="black" points="471.559,-294.125 461.114,-292.347 468.17,-300.25 471.559,-294.125"/>
<text text-anchor="middle" x="519.397" y="-318.8" font-family="Times New Roman,serif" font-size="14.00">Crafting 0</text>
</g>
<!-- CupEmpty -->
<g id="node4" class="node"><title>CupEmpty</title>
<ellipse fill="none" stroke="black" cx="589.397" cy="-366" rx="50.0912" ry="18"/>
<text text-anchor="middle" x="589.397" y="-362.3" font-family="Times New Roman,serif" font-size="14.00">CupEmpty</text>
</g>
<!-- CupEmpty&#45;&gt;Cup_A_Water -->
<g id="edge12" class="edge"><title>CupEmpty&#45;&gt;Cup_A_Water</title>
<path fill="none" stroke="black" d="M580.597,-348.245C573.979,-337.226 563.914,-323.349 551.397,-315 532.055,-302.1 508.208,-293.952 486.018,-288.806"/>
<polygon fill="black" stroke="black" points="486.474,-285.324 475.962,-286.646 485.004,-292.168 486.474,-285.324"/>
<text text-anchor="middle" x="596.397" y="-318.8" font-family="Times New Roman,serif" font-size="14.00">Crafting 0</text>
</g>
<!-- Bucket -->
<g id="node5" class="node"><title>Bucket</title>
<ellipse fill="none" stroke="black" cx="36.3968" cy="-366" rx="36.2938" ry="18"/>
<text text-anchor="middle" x="36.3968" y="-362.3" font-family="Times New Roman,serif" font-size="14.00">Bucket</text>
</g>
<!-- Bucket&#45;&gt;Bucket_A_Water -->
<g id="edge6" class="edge"><title>Bucket&#45;&gt;Bucket_A_Water</title>
<path fill="none" stroke="black" d="M38.4191,-347.888C40.5914,-337 45.0898,-323.415 54.3968,-315 70.6001,-300.35 92.0064,-291.619 113.192,-286.474"/>
<polygon fill="black" stroke="black" points="114.193,-289.839 123.219,-284.291 112.703,-282.999 114.193,-289.839"/>
<text text-anchor="middle" x="82.3968" y="-318.8" font-family="Times New Roman,serif" font-size="14.00">Crafting 0</text>
</g>
<!-- Dough -->
<g id="node8" class="node"><title>Dough</title>
<ellipse fill="none" stroke="black" cx="417.397" cy="-192" rx="35.194" ry="18"/>
<text text-anchor="middle" x="417.397" y="-188.3" font-family="Times New Roman,serif" font-size="14.00">Dough</text>
</g>
<!-- Bucket_A_Water&#45;&gt;Dough -->
<g id="edge7" class="edge"><title>Bucket_A_Water&#45;&gt;Dough</title>
<path fill="none" stroke="black" d="M232.478,-263.485C273.85,-247.715 339.498,-222.692 380.428,-207.091"/>
<polygon fill="black" stroke="black" points="381.924,-210.267 390.021,-203.435 379.43,-203.726 381.924,-210.267"/>
<text text-anchor="middle" x="347.397" y="-231.8" font-family="Times New Roman,serif" font-size="14.00">Crafting 0</text>
</g>
<!-- Well_A_Snow -->
<g id="node7" class="node"><title>Well_A_Snow</title>
<ellipse fill="none" stroke="black" cx="176.397" cy="-366" rx="64.189" ry="18"/>
<text text-anchor="middle" x="176.397" y="-362.3" font-family="Times New Roman,serif" font-size="14.00">Well_A_Snow</text>
</g>
<!-- Well_A_Snow&#45;&gt;Bucket_A_Water -->
<g id="edge8" class="edge"><title>Well_A_Snow&#45;&gt;Bucket_A_Water</title>
<path fill="none" stroke="black" d="M139.73,-351.134C122.201,-342.265 106.891,-329.684 116.397,-315 121.15,-307.657 127.85,-301.839 135.346,-297.235"/>
<polygon fill="black" stroke="black" points="137.278,-300.171 144.445,-292.368 133.976,-293.998 137.278,-300.171"/>
<text text-anchor="middle" x="144.397" y="-318.8" font-family="Times New Roman,serif" font-size="14.00">Crafting 0</text>
</g>
<!-- Well_A_Snow&#45;&gt;Cup_A_Water -->
<g id="edge9" class="edge"><title>Well_A_Snow&#45;&gt;Cup_A_Water</title>
<path fill="none" stroke="black" d="M209.125,-350.334C222.353,-344.249 237.702,-336.989 251.397,-330 263.624,-323.76 265.633,-320.052 278.397,-315 303.004,-305.26 331.155,-297.573 355.658,-291.913"/>
<polygon fill="black" stroke="black" points="356.569,-295.295 365.559,-289.689 355.035,-288.466 356.569,-295.295"/>
<text text-anchor="middle" x="306.397" y="-318.8" font-family="Times New Roman,serif" font-size="14.00">Crafting 0</text>
</g>
<!-- Dough&#45;&gt;Dough_Cyseal -->
<g id="edge10" class="edge"><title>Dough&#45;&gt;Dough_Cyseal</title>
<path fill="none" stroke="black" d="M420.793,-173.726C423.37,-163.565 427.648,-150.825 434.397,-141 437.41,-136.614 441.117,-132.47 445.071,-128.673"/>
<polygon fill="black" stroke="black" points="447.659,-131.058 452.858,-121.826 443.037,-125.801 447.659,-131.058"/>
<text text-anchor="middle" x="462.397" y="-144.8" font-family="Times New Roman,serif" font-size="14.00">Crafting 0</text>
</g>
<!-- Oven -->
<g id="node9" class="node"><title>Oven</title>
<ellipse fill="none" stroke="black" cx="589.397" cy="-105" rx="30.5947" ry="18"/>
<text text-anchor="middle" x="589.397" y="-101.3" font-family="Times New Roman,serif" font-size="14.00">Oven</text>
</g>
<!-- Oven&#45;&gt;Pie_Cyseal -->
<g id="edge11" class="edge"><title>Oven&#45;&gt;Pie_Cyseal</title>
<path fill="none" stroke="black" d="M580.142,-87.6111C573.324,-75.5385 563.915,-58.8765 556.077,-44.9954"/>
<polygon fill="black" stroke="black" points="558.917,-42.9068 550.952,-35.9203 552.821,-46.3489 558.917,-42.9068"/>
<text text-anchor="middle" x="596.397" y="-57.8" font-family="Times New Roman,serif" font-size="14.00">Crafting 0</text>
</g>
<!-- Flour&#45;&gt;Dough -->
<g id="edge3" class="edge"><title>Flour&#45;&gt;Dough</title>
<path fill="none" stroke="black" d="M663.909,-270.651C620.54,-258.883 533.729,-234.621 461.397,-210 458.868,-209.139 456.268,-208.222 453.658,-207.276"/>
<polygon fill="black" stroke="black" points="454.855,-203.987 444.263,-203.778 452.413,-210.547 454.855,-203.987"/>
<text text-anchor="middle" x="590.397" y="-231.8" font-family="Times New Roman,serif" font-size="14.00">Crafting 0</text>
</g>
<!-- Barrel -->
<g id="node12" class="node"><title>Barrel</title>
<ellipse fill="none" stroke="black" cx="311.397" cy="-366" rx="32.4942" ry="18"/>
<text text-anchor="middle" x="311.397" y="-362.3" font-family="Times New Roman,serif" font-size="14.00">Barrel</text>
</g>
<!-- Barrel&#45;&gt;Bucket_A_Water -->
<g id="edge13" class="edge"><title>Barrel&#45;&gt;Bucket_A_Water</title>
<path fill="none" stroke="black" d="M282.716,-357.252C249.256,-348.08 198.122,-333.593 195.397,-330 190.581,-323.651 189.09,-315.427 189.159,-307.49"/>
<polygon fill="black" stroke="black" points="192.657,-307.657 189.999,-297.401 185.681,-307.076 192.657,-307.657"/>
<text text-anchor="middle" x="223.397" y="-318.8" font-family="Times New Roman,serif" font-size="14.00">Crafting 0</text>
</g>
<!-- Barrel&#45;&gt;Cup_A_Water -->
<g id="edge14" class="edge"><title>Barrel&#45;&gt;Cup_A_Water</title>
<path fill="none" stroke="black" d="M322.568,-348.781C330.361,-338.271 341.469,-324.77 353.397,-315 360.301,-309.344 368.255,-304.15 376.156,-299.592"/>
<polygon fill="black" stroke="black" points="377.925,-302.614 384.997,-294.725 374.549,-296.482 377.925,-302.614"/>
<text text-anchor="middle" x="381.397" y="-318.8" font-family="Times New Roman,serif" font-size="14.00">Crafting 0</text>
</g>
<!-- Cup_A_Water&#45;&gt;Dough -->
<g id="edge15" class="edge"><title>Cup_A_Water&#45;&gt;Dough</title>
<path fill="none" stroke="black" d="M417.397,-260.799C417.397,-249.163 417.397,-233.548 417.397,-220.237"/>
<polygon fill="black" stroke="black" points="420.897,-220.175 417.397,-210.175 413.897,-220.175 420.897,-220.175"/>
<text text-anchor="middle" x="445.397" y="-231.8" font-family="Times New Roman,serif" font-size="14.00">Crafting 0</text>
</g>
<!-- FoodFish -->
<g id="node14" class="node"><title>FoodFish</title>
<ellipse fill="none" stroke="black" cx="516.397" cy="-192" rx="46.2923" ry="18"/>
<text text-anchor="middle" x="516.397" y="-188.3" font-family="Times New Roman,serif" font-size="14.00">FoodFish</text>
</g>
<!-- FoodFish&#45;&gt;Dough_Cyseal -->
<g id="edge16" class="edge"><title>FoodFish&#45;&gt;Dough_Cyseal</title>
<path fill="none" stroke="black" d="M508.494,-174.207C502.888,-162.293 495.25,-146.063 488.832,-132.424"/>
<polygon fill="black" stroke="black" points="491.845,-130.607 484.42,-123.049 485.511,-133.588 491.845,-130.607"/>
<text text-anchor="middle" x="527.397" y="-144.8" font-family="Times New Roman,serif" font-size="14.00">Crafting 0</text>
</g>
<!-- MortarPestle -->
<g id="node15" class="node"><title>MortarPestle</title>
<ellipse fill="none" stroke="black" cx="801.397" cy="-366" rx="57.3905" ry="18"/>
<text text-anchor="middle" x="801.397" y="-362.3" font-family="Times New Roman,serif" font-size="14.00">MortarPestle</text>
</g>
<!-- MortarPestle&#45;&gt;Flour -->
<g id="edge17" class="edge"><title>MortarPestle&#45;&gt;Flour</title>
<path fill="none" stroke="black" d="M786.601,-348.135C777.123,-337.878 764.231,-324.893 751.397,-315 742.567,-308.193 732.289,-301.738 722.761,-296.268"/>
<polygon fill="black" stroke="black" points="724.366,-293.156 713.927,-291.346 720.959,-299.271 724.366,-293.156"/>
<text text-anchor="middle" x="796.397" y="-318.8" font-family="Times New Roman,serif" font-size="14.00">Crafting 0</text>
</g>
</g>
</svg>
