<?xml version="1.0" encoding="UTF-8" standalone="no"?>
<!DOCTYPE svg PUBLIC "-//W3C//DTD SVG 1.1//EN"
 "http://www.w3.org/Graphics/SVG/1.1/DTD/svg11.dtd">
<!-- Generated by graphviz version 2.38.0 (20140413.2041)
 -->
<!-- Title: G Pages: 1 -->
<svg width="246pt" height="149pt"
 viewBox="0.00 0.00 246.49 148.74" xmlns="http://www.w3.org/2000/svg" xmlns:xlink="http://www.w3.org/1999/xlink">
<g id="graph0" class="graph" transform="scale(1 1) rotate(0) translate(4 144.74)">
<title>G</title>
<polygon fill="white" stroke="none" points="-4,4 -4,-144.74 242.49,-144.74 242.49,4 -4,4"/>
<!-- Essence_Air -->
<g id="node1" class="node"><title>Essence_Air</title>
<ellipse fill="none" stroke="black" cx="56.545" cy="-122.74" rx="56.59" ry="18"/>
<text text-anchor="middle" x="56.545" y="-119.04" font-family="Times New Roman,serif" font-size="14.00">Essence_Air</text>
</g>
<!-- ArmorScale
+ Small_AirResistance -->
<g id="node2" class="node"><title>ArmorScale
+ Small_AirResistance</title>
<ellipse fill="none" stroke="black" cx="120.545" cy="-26.8701" rx="101.647" ry="26.7407"/>
<text text-anchor="middle" x="120.545" y="-30.6701" font-family="Times New Roman,serif" font-size="14.00">ArmorScale</text>
<text text-anchor="middle" x="120.545" y="-15.6701" font-family="Times New Roman,serif" font-size="14.00">+ Small_AirResistance</text>
</g>
<!-- Essence_Air&#45;&gt;ArmorScale
+ Small_AirResistance -->
<g id="edge1" class="edge"><title>Essence_Air&#45;&gt;ArmorScale
+ Small_AirResistance</title>
<path fill="none" stroke="black" d="M67.9869,-104.958C76.162,-92.9674 87.4415,-76.4235 97.4559,-61.7353"/>
<polygon fill="black" stroke="black" points="100.431,-63.584 103.173,-53.35 94.6478,-59.6408 100.431,-63.584"/>
<text text-anchor="middle" x="118.545" y="-75.5401" font-family="Times New Roman,serif" font-size="14.00">Crafting 5</text>
</g>
<!-- ArmorScale -->
<g id="node3" class="node"><title>ArmorScale</title>
<ellipse fill="none" stroke="black" cx="184.545" cy="-122.74" rx="53.8905" ry="18"/>
<text text-anchor="middle" x="184.545" y="-119.04" font-family="Times New Roman,serif" font-size="14.00">ArmorScale</text>
</g>
<!-- ArmorScale&#45;&gt;ArmorScale
+ Small_AirResistance -->
<g id="edge2" class="edge"><title>ArmorScale&#45;&gt;ArmorScale
+ Small_AirResistance</title>
<path fill="none" stroke="black" d="M173.223,-105.066C166.615,-95.3413 158.115,-82.8413 150.545,-71.7401 148.328,-68.4884 146.016,-65.1023 143.704,-61.7168"/>
<polygon fill="black" stroke="black" points="146.538,-59.6612 138.006,-53.3799 140.759,-63.6109 146.538,-59.6612"/>
<text text-anchor="middle" x="187.545" y="-75.5401" font-family="Times New Roman,serif" font-size="14.00">Crafting 5</text>
</g>
</g>
</svg>
