<?xml version="1.0" encoding="UTF-8" standalone="no"?>
<!DOCTYPE svg PUBLIC "-//W3C//DTD SVG 1.1//EN"
 "http://www.w3.org/Graphics/SVG/1.1/DTD/svg11.dtd">
<!-- Generated by graphviz version 2.38.0 (20140413.2041)
 -->
<!-- Title: G Pages: 1 -->
<svg width="779pt" height="305pt"
 viewBox="0.00 0.00 779.09 305.00" xmlns="http://www.w3.org/2000/svg" xmlns:xlink="http://www.w3.org/1999/xlink">
<g id="graph0" class="graph" transform="scale(1 1) rotate(0) translate(4 301)">
<title>G</title>
<polygon fill="white" stroke="none" points="-4,4 -4,-301 775.091,-301 775.091,4 -4,4"/>
<!-- Arrow_Poison -->
<g id="node1" class="node"><title>Arrow_Poison</title>
<ellipse fill="none" stroke="black" cx="593.694" cy="-18" rx="64.189" ry="18"/>
<text text-anchor="middle" x="593.694" y="-14.3" font-family="Times New Roman,serif" font-size="14.00">Arrow_Poison</text>
</g>
<!-- ArrowHead -->
<g id="node2" class="node"><title>ArrowHead</title>
<ellipse fill="none" stroke="black" cx="513.694" cy="-192" rx="53.0913" ry="18"/>
<text text-anchor="middle" x="513.694" y="-188.3" font-family="Times New Roman,serif" font-size="14.00">ArrowHead</text>
</g>
<!-- ArrowHead_Poison -->
<g id="node5" class="node"><title>ArrowHead_Poison</title>
<ellipse fill="none" stroke="black" cx="513.694" cy="-105" rx="83.3857" ry="18"/>
<text text-anchor="middle" x="513.694" y="-101.3" font-family="Times New Roman,serif" font-size="14.00">ArrowHead_Poison</text>
</g>
<!-- ArrowHead&#45;&gt;ArrowHead_Poison -->
<g id="edge1" class="edge"><title>ArrowHead&#45;&gt;ArrowHead_Poison</title>
<path fill="none" stroke="black" d="M513.694,-173.799C513.694,-162.163 513.694,-146.548 513.694,-133.237"/>
<polygon fill="black" stroke="black" points="517.194,-133.175 513.694,-123.175 510.194,-133.175 517.194,-133.175"/>
<text text-anchor="middle" x="541.694" y="-144.8" font-family="Times New Roman,serif" font-size="14.00">Crafting 2</text>
</g>
<!-- Potion_Empty -->
<g id="node3" class="node"><title>Potion_Empty</title>
<ellipse fill="none" stroke="black" cx="63.6943" cy="-279" rx="63.8893" ry="18"/>
<text text-anchor="middle" x="63.6943" y="-275.3" font-family="Times New Roman,serif" font-size="14.00">Potion_Empty</text>
</g>
<!-- Potion_Poison -->
<g id="node8" class="node"><title>Potion_Poison</title>
<ellipse fill="none" stroke="black" cx="297.694" cy="-192" rx="64.9885" ry="18"/>
<text text-anchor="middle" x="297.694" y="-188.3" font-family="Times New Roman,serif" font-size="14.00">Potion_Poison</text>
</g>
<!-- Potion_Empty&#45;&gt;Potion_Poison -->
<g id="edge2" class="edge"><title>Potion_Empty&#45;&gt;Potion_Poison</title>
<path fill="none" stroke="black" d="M96.5011,-263.488C120.663,-253.036 154.439,-238.911 184.694,-228 204.025,-221.029 225.508,-214.16 244.507,-208.379"/>
<polygon fill="black" stroke="black" points="245.627,-211.697 254.191,-205.46 243.606,-204.995 245.627,-211.697"/>
<text text-anchor="middle" x="212.694" y="-231.8" font-family="Times New Roman,serif" font-size="14.00">Crafting 0</text>
</g>
<!-- Tooth -->
<g id="node4" class="node"><title>Tooth</title>
<ellipse fill="none" stroke="black" cx="497.694" cy="-279" rx="33.2948" ry="18"/>
<text text-anchor="middle" x="497.694" y="-275.3" font-family="Times New Roman,serif" font-size="14.00">Tooth</text>
</g>
<!-- Tooth&#45;&gt;ArrowHead -->
<g id="edge3" class="edge"><title>Tooth&#45;&gt;ArrowHead</title>
<path fill="none" stroke="black" d="M496.422,-260.687C496.109,-250.973 496.388,-238.694 498.694,-228 499.309,-225.153 500.156,-222.248 501.137,-219.392"/>
<polygon fill="black" stroke="black" points="504.424,-220.597 504.85,-210.011 497.916,-218.021 504.424,-220.597"/>
<text text-anchor="middle" x="526.694" y="-231.8" font-family="Times New Roman,serif" font-size="14.00">Crafting 1</text>
</g>
<!-- ArrowHead_Poison&#45;&gt;Arrow_Poison -->
<g id="edge4" class="edge"><title>ArrowHead_Poison&#45;&gt;Arrow_Poison</title>
<path fill="none" stroke="black" d="M529.5,-87.2067C541.333,-74.6335 557.692,-57.252 570.934,-43.1825"/>
<polygon fill="black" stroke="black" points="573.617,-45.4392 577.922,-35.7584 568.519,-40.6416 573.617,-45.4392"/>
<text text-anchor="middle" x="586.694" y="-57.8" font-family="Times New Roman,serif" font-size="14.00">Crafting 2</text>
</g>
<!-- Barrel_Ooze -->
<g id="node6" class="node"><title>Barrel_Ooze</title>
<ellipse fill="none" stroke="black" cx="201.694" cy="-279" rx="56.59" ry="18"/>
<text text-anchor="middle" x="201.694" y="-275.3" font-family="Times New Roman,serif" font-size="14.00">Barrel_Ooze</text>
</g>
<!-- Barrel_Ooze&#45;&gt;Potion_Poison -->
<g id="edge5" class="edge"><title>Barrel_Ooze&#45;&gt;Potion_Poison</title>
<path fill="none" stroke="black" d="M220.204,-261.611C234.813,-248.676 255.372,-230.473 271.643,-216.066"/>
<polygon fill="black" stroke="black" points="274.075,-218.588 279.241,-209.339 269.434,-213.347 274.075,-218.588"/>
<text text-anchor="middle" x="283.694" y="-231.8" font-family="Times New Roman,serif" font-size="14.00">Crafting 0</text>
</g>
<!-- ArrowShaft -->
<g id="node7" class="node"><title>ArrowShaft</title>
<ellipse fill="none" stroke="black" cx="655.694" cy="-192" rx="53.0913" ry="18"/>
<text text-anchor="middle" x="655.694" y="-188.3" font-family="Times New Roman,serif" font-size="14.00">ArrowShaft</text>
</g>
<!-- ArrowShaft&#45;&gt;Arrow_Poison -->
<g id="edge6" class="edge"><title>ArrowShaft&#45;&gt;Arrow_Poison</title>
<path fill="none" stroke="black" d="M653.089,-173.874C648.6,-147.249 637.98,-94.7524 618.694,-54 617.099,-50.6294 615.175,-47.242 613.111,-43.9726"/>
<polygon fill="black" stroke="black" points="615.981,-41.9694 607.451,-35.6865 610.201,-45.918 615.981,-41.9694"/>
<text text-anchor="middle" x="670.694" y="-101.3" font-family="Times New Roman,serif" font-size="14.00">Crafting 2</text>
</g>
<!-- Potion_Poison&#45;&gt;ArrowHead_Poison -->
<g id="edge7" class="edge"><title>Potion_Poison&#45;&gt;ArrowHead_Poison</title>
<path fill="none" stroke="black" d="M333.848,-176.773C370.017,-162.54 425.863,-140.563 465.722,-124.878"/>
<polygon fill="black" stroke="black" points="467.212,-128.053 475.235,-121.134 464.648,-121.539 467.212,-128.053"/>
<text text-anchor="middle" x="446.694" y="-144.8" font-family="Times New Roman,serif" font-size="14.00">Crafting 2</text>
</g>
<!-- Branch -->
<g id="node9" class="node"><title>Branch</title>
<ellipse fill="none" stroke="black" cx="734.694" cy="-279" rx="36.2938" ry="18"/>
<text text-anchor="middle" x="734.694" y="-275.3" font-family="Times New Roman,serif" font-size="14.00">Branch</text>
</g>
<!-- Branch&#45;&gt;ArrowShaft -->
<g id="edge8" class="edge"><title>Branch&#45;&gt;ArrowShaft</title>
<path fill="none" stroke="black" d="M725.568,-261.23C719.552,-251.008 711.071,-238.028 701.694,-228 697.286,-223.286 692.19,-218.732 687.029,-214.554"/>
<polygon fill="black" stroke="black" points="689.013,-211.664 678.956,-208.331 684.74,-217.208 689.013,-211.664"/>
<text text-anchor="middle" x="740.694" y="-231.8" font-family="Times New Roman,serif" font-size="14.00">Crafting 0</text>
</g>
<!-- Herb_Mushroom_C -->
<g id="node10" class="node"><title>Herb_Mushroom_C</title>
<ellipse fill="none" stroke="black" cx="361.694" cy="-279" rx="85.2851" ry="18"/>
<text text-anchor="middle" x="361.694" y="-275.3" font-family="Times New Roman,serif" font-size="14.00">Herb_Mushroom_C</text>
</g>
<!-- Herb_Mushroom_C&#45;&gt;Potion_Poison -->
<g id="edge9" class="edge"><title>Herb_Mushroom_C&#45;&gt;Potion_Poison</title>
<path fill="none" stroke="black" d="M348.743,-260.799C339.487,-248.506 326.889,-231.774 316.523,-218.007"/>
<polygon fill="black" stroke="black" points="319.219,-215.769 310.408,-209.885 313.627,-219.979 319.219,-215.769"/>
<text text-anchor="middle" x="361.694" y="-231.8" font-family="Times New Roman,serif" font-size="14.00">Crafting 1</text>
</g>
<!-- Knife -->
<g id="node11" class="node"><title>Knife</title>
<ellipse fill="none" stroke="black" cx="614.694" cy="-279" rx="30.5947" ry="18"/>
<text text-anchor="middle" x="614.694" y="-275.3" font-family="Times New Roman,serif" font-size="14.00">Knife</text>
</g>
<!-- Knife&#45;&gt;ArrowHead -->
<g id="edge11" class="edge"><title>Knife&#45;&gt;ArrowHead</title>
<path fill="none" stroke="black" d="M597.561,-263.581C581.943,-250.437 558.619,-230.807 540.529,-215.584"/>
<polygon fill="black" stroke="black" points="542.537,-212.699 532.632,-208.938 538.03,-218.055 542.537,-212.699"/>
<text text-anchor="middle" x="598.694" y="-231.8" font-family="Times New Roman,serif" font-size="14.00">Crafting 1</text>
</g>
<!-- Knife&#45;&gt;ArrowShaft -->
<g id="edge10" class="edge"><title>Knife&#45;&gt;ArrowShaft</title>
<path fill="none" stroke="black" d="M623.871,-261.765C627.085,-255.906 630.65,-249.208 633.694,-243 637.394,-235.456 641.167,-227.146 644.521,-219.502"/>
<polygon fill="black" stroke="black" points="647.75,-220.854 648.507,-210.286 641.325,-218.075 647.75,-220.854"/>
<text text-anchor="middle" x="669.694" y="-231.8" font-family="Times New Roman,serif" font-size="14.00">Crafting 0</text>
</g>
</g>
</svg>
