<?xml version="1.0" encoding="UTF-8" standalone="no"?>
<!DOCTYPE svg PUBLIC "-//W3C//DTD SVG 1.1//EN"
 "http://www.w3.org/Graphics/SVG/1.1/DTD/svg11.dtd">
<!-- Generated by graphviz version 2.38.0 (20140413.2041)
 -->
<!-- Title: G Pages: 1 -->
<svg width="270pt" height="149pt"
 viewBox="0.00 0.00 269.54 148.74" xmlns="http://www.w3.org/2000/svg" xmlns:xlink="http://www.w3.org/1999/xlink">
<g id="graph0" class="graph" transform="scale(1 1) rotate(0) translate(4 144.74)">
<title>G</title>
<polygon fill="white" stroke="none" points="-4,4 -4,-144.74 265.539,-144.74 265.539,4 -4,4"/>
<!-- ArmorScale -->
<g id="node1" class="node"><title>ArmorScale</title>
<ellipse fill="none" stroke="black" cx="53.9452" cy="-122.74" rx="53.8905" ry="18"/>
<text text-anchor="middle" x="53.9452" y="-119.04" font-family="Times New Roman,serif" font-size="14.00">ArmorScale</text>
</g>
<!-- ArmorScale
+ Small_WaterResistance -->
<g id="node2" class="node"><title>ArmorScale
+ Small_WaterResistance</title>
<ellipse fill="none" stroke="black" cx="123.945" cy="-26.8701" rx="113.689" ry="26.7407"/>
<text text-anchor="middle" x="123.945" y="-30.6701" font-family="Times New Roman,serif" font-size="14.00">ArmorScale</text>
<text text-anchor="middle" x="123.945" y="-15.6701" font-family="Times New Roman,serif" font-size="14.00">+ Small_WaterResistance</text>
</g>
<!-- ArmorScale&#45;&gt;ArmorScale
+ Small_WaterResistance -->
<g id="edge2" class="edge"><title>ArmorScale&#45;&gt;ArmorScale
+ Small_WaterResistance</title>
<path fill="none" stroke="black" d="M66.4598,-104.958C75.3356,-93.0556 87.5571,-76.6666 98.4496,-62.0596"/>
<polygon fill="black" stroke="black" points="101.502,-63.8214 104.674,-53.7126 95.8903,-59.6368 101.502,-63.8214"/>
<text text-anchor="middle" x="119.945" y="-75.5401" font-family="Times New Roman,serif" font-size="14.00">Crafting 5</text>
</g>
<!-- Essence_Water -->
<g id="node3" class="node"><title>Essence_Water</title>
<ellipse fill="none" stroke="black" cx="193.945" cy="-122.74" rx="67.6881" ry="18"/>
<text text-anchor="middle" x="193.945" y="-119.04" font-family="Times New Roman,serif" font-size="14.00">Essence_Water</text>
</g>
<!-- Essence_Water&#45;&gt;ArmorScale
+ Small_WaterResistance -->
<g id="edge1" class="edge"><title>Essence_Water&#45;&gt;ArmorScale
+ Small_WaterResistance</title>
<path fill="none" stroke="black" d="M181.431,-104.958C172.555,-93.0556 160.333,-76.6666 149.441,-62.0596"/>
<polygon fill="black" stroke="black" points="152,-59.6368 143.216,-53.7126 146.389,-63.8214 152,-59.6368"/>
<text text-anchor="middle" x="195.945" y="-75.5401" font-family="Times New Roman,serif" font-size="14.00">Crafting 5</text>
</g>
</g>
</svg>
