<?xml version="1.0" encoding="UTF-8" standalone="no"?>
<!DOCTYPE svg PUBLIC "-//W3C//DTD SVG 1.1//EN"
 "http://www.w3.org/Graphics/SVG/1.1/DTD/svg11.dtd">
<!-- Generated by graphviz version 2.38.0 (20140413.2041)
 -->
<!-- Title: G Pages: 1 -->
<svg width="290pt" height="218pt"
 viewBox="0.00 0.00 289.69 218.00" xmlns="http://www.w3.org/2000/svg" xmlns:xlink="http://www.w3.org/1999/xlink">
<g id="graph0" class="graph" transform="scale(1 1) rotate(0) translate(4 214)">
<title>G</title>
<polygon fill="white" stroke="none" points="-4,4 -4,-214 285.691,-214 285.691,4 -4,4"/>
<!-- Bucket_A_Milk -->
<g id="node1" class="node"><title>Bucket_A_Milk</title>
<ellipse fill="none" stroke="black" cx="68.2439" cy="-192" rx="68.4888" ry="18"/>
<text text-anchor="middle" x="68.2439" y="-188.3" font-family="Times New Roman,serif" font-size="14.00">Bucket_A_Milk</text>
</g>
<!-- Cup_A_Milk -->
<g id="node3" class="node"><title>Cup_A_Milk</title>
<ellipse fill="none" stroke="black" cx="136.244" cy="-105" rx="58.4896" ry="18"/>
<text text-anchor="middle" x="136.244" y="-101.3" font-family="Times New Roman,serif" font-size="14.00">Cup_A_Milk</text>
</g>
<!-- Bucket_A_Milk&#45;&gt;Cup_A_Milk -->
<g id="edge1" class="edge"><title>Bucket_A_Milk&#45;&gt;Cup_A_Milk</title>
<path fill="none" stroke="black" d="M81.6786,-174.207C91.644,-161.75 105.385,-144.573 116.585,-130.574"/>
<polygon fill="black" stroke="black" points="119.323,-132.754 122.837,-122.758 113.857,-128.381 119.323,-132.754"/>
<text text-anchor="middle" x="135.244" y="-144.8" font-family="Times New Roman,serif" font-size="14.00">Crafting 0</text>
</g>
<!-- CupEmpty -->
<g id="node2" class="node"><title>CupEmpty</title>
<ellipse fill="none" stroke="black" cx="204.244" cy="-192" rx="50.0912" ry="18"/>
<text text-anchor="middle" x="204.244" y="-188.3" font-family="Times New Roman,serif" font-size="14.00">CupEmpty</text>
</g>
<!-- CupEmpty&#45;&gt;Cup_A_Milk -->
<g id="edge4" class="edge"><title>CupEmpty&#45;&gt;Cup_A_Milk</title>
<path fill="none" stroke="black" d="M192.27,-174.055C185.196,-164.24 175.946,-151.74 167.244,-141 164.349,-137.427 161.217,-133.721 158.094,-130.116"/>
<polygon fill="black" stroke="black" points="160.605,-127.671 151.371,-122.477 155.35,-132.296 160.605,-127.671"/>
<text text-anchor="middle" x="207.244" y="-144.8" font-family="Times New Roman,serif" font-size="14.00">Crafting 0</text>
</g>
<!-- Porridge_Potato -->
<g id="node4" class="node"><title>Porridge_Potato</title>
<ellipse fill="none" stroke="black" cx="199.244" cy="-18" rx="70.6878" ry="18"/>
<text text-anchor="middle" x="199.244" y="-14.3" font-family="Times New Roman,serif" font-size="14.00">Porridge_Potato</text>
</g>
<!-- Cup_A_Milk&#45;&gt;Porridge_Potato -->
<g id="edge3" class="edge"><title>Cup_A_Milk&#45;&gt;Porridge_Potato</title>
<path fill="none" stroke="black" d="M142.505,-86.8637C146.662,-76.7514 152.734,-64.0142 160.244,-54 163.226,-50.0242 166.71,-46.1516 170.348,-42.519"/>
<polygon fill="black" stroke="black" points="173.002,-44.8296 177.917,-35.444 168.221,-39.7158 173.002,-44.8296"/>
<text text-anchor="middle" x="188.244" y="-57.8" font-family="Times New Roman,serif" font-size="14.00">Crafting 0</text>
</g>
<!-- Potato -->
<g id="node5" class="node"><title>Potato</title>
<ellipse fill="none" stroke="black" cx="247.244" cy="-105" rx="34.394" ry="18"/>
<text text-anchor="middle" x="247.244" y="-101.3" font-family="Times New Roman,serif" font-size="14.00">Potato</text>
</g>
<!-- Potato&#45;&gt;Porridge_Potato -->
<g id="edge2" class="edge"><title>Potato&#45;&gt;Porridge_Potato</title>
<path fill="none" stroke="black" d="M237.989,-87.6111C231.172,-75.5385 221.762,-58.8765 213.924,-44.9954"/>
<polygon fill="black" stroke="black" points="216.764,-42.9068 208.799,-35.9203 210.669,-46.3489 216.764,-42.9068"/>
<text text-anchor="middle" x="253.244" y="-57.8" font-family="Times New Roman,serif" font-size="14.00">Crafting 0</text>
</g>
</g>
</svg>
