<?xml version="1.0" encoding="UTF-8" standalone="no"?>
<!DOCTYPE svg PUBLIC "-//W3C//DTD SVG 1.1//EN"
 "http://www.w3.org/Graphics/SVG/1.1/DTD/svg11.dtd">
<!-- Generated by graphviz version 2.38.0 (20140413.2041)
 -->
<!-- Title: G Pages: 1 -->
<svg width="258pt" height="149pt"
 viewBox="0.00 0.00 258.34 148.74" xmlns="http://www.w3.org/2000/svg" xmlns:xlink="http://www.w3.org/1999/xlink">
<g id="graph0" class="graph" transform="scale(1 1) rotate(0) translate(4 144.74)">
<title>G</title>
<polygon fill="white" stroke="none" points="-4,4 -4,-144.74 254.34,-144.74 254.34,4 -4,4"/>
<!-- Essence_Air -->
<g id="node1" class="node"><title>Essence_Air</title>
<ellipse fill="none" stroke="black" cx="56.545" cy="-122.74" rx="56.59" ry="18"/>
<text text-anchor="middle" x="56.545" y="-119.04" font-family="Times New Roman,serif" font-size="14.00">Essence_Air</text>
</g>
<!-- ArmorHelmet
+ Small_AirResistance -->
<g id="node3" class="node"><title>ArmorHelmet
+ Small_AirResistance</title>
<ellipse fill="none" stroke="black" cx="123.545" cy="-26.8701" rx="101.647" ry="26.7407"/>
<text text-anchor="middle" x="123.545" y="-30.6701" font-family="Times New Roman,serif" font-size="14.00">ArmorHelmet</text>
<text text-anchor="middle" x="123.545" y="-15.6701" font-family="Times New Roman,serif" font-size="14.00">+ Small_AirResistance</text>
</g>
<!-- Essence_Air&#45;&gt;ArmorHelmet
+ Small_AirResistance -->
<g id="edge1" class="edge"><title>Essence_Air&#45;&gt;ArmorHelmet
+ Small_AirResistance</title>
<path fill="none" stroke="black" d="M68.5232,-104.958C77.0816,-92.9674 88.8898,-76.4235 99.3736,-61.7353"/>
<polygon fill="black" stroke="black" points="102.398,-63.5228 105.359,-53.35 96.7003,-59.4561 102.398,-63.5228"/>
<text text-anchor="middle" x="120.545" y="-75.5401" font-family="Times New Roman,serif" font-size="14.00">Crafting 3</text>
</g>
<!-- ArmorHelmet -->
<g id="node2" class="node"><title>ArmorHelmet</title>
<ellipse fill="none" stroke="black" cx="190.545" cy="-122.74" rx="59.5901" ry="18"/>
<text text-anchor="middle" x="190.545" y="-119.04" font-family="Times New Roman,serif" font-size="14.00">ArmorHelmet</text>
</g>
<!-- ArmorHelmet&#45;&gt;ArmorHelmet
+ Small_AirResistance -->
<g id="edge2" class="edge"><title>ArmorHelmet&#45;&gt;ArmorHelmet
+ Small_AirResistance</title>
<path fill="none" stroke="black" d="M178.567,-104.958C170.008,-92.9674 158.2,-76.4235 147.716,-61.7353"/>
<polygon fill="black" stroke="black" points="150.39,-59.4561 141.731,-53.35 144.692,-63.5228 150.39,-59.4561"/>
<text text-anchor="middle" x="192.545" y="-75.5401" font-family="Times New Roman,serif" font-size="14.00">Crafting 3</text>
</g>
</g>
</svg>
