<?xml version="1.0" encoding="UTF-8" standalone="no"?>
<!DOCTYPE svg PUBLIC "-//W3C//DTD SVG 1.1//EN"
 "http://www.w3.org/Graphics/SVG/1.1/DTD/svg11.dtd">
<!-- Generated by graphviz version 2.38.0 (20140413.2041)
 -->
<!-- Title: G Pages: 1 -->
<svg width="394pt" height="392pt"
 viewBox="0.00 0.00 393.79 392.00" xmlns="http://www.w3.org/2000/svg" xmlns:xlink="http://www.w3.org/1999/xlink">
<g id="graph0" class="graph" transform="scale(1 1) rotate(0) translate(4 388)">
<title>G</title>
<polygon fill="white" stroke="none" points="-4,4 -4,-388 389.785,-388 389.785,4 -4,4"/>
<!-- Sheep -->
<g id="node1" class="node"><title>Sheep</title>
<ellipse fill="none" stroke="black" cx="33.1471" cy="-366" rx="33.2948" ry="18"/>
<text text-anchor="middle" x="33.1471" y="-362.3" font-family="Times New Roman,serif" font-size="14.00">Sheep</text>
</g>
<!-- Wool -->
<g id="node6" class="node"><title>Wool</title>
<ellipse fill="none" stroke="black" cx="76.1471" cy="-279" rx="31.3957" ry="18"/>
<text text-anchor="middle" x="76.1471" y="-275.3" font-family="Times New Roman,serif" font-size="14.00">Wool</text>
</g>
<!-- Sheep&#45;&gt;Wool -->
<g id="edge1" class="edge"><title>Sheep&#45;&gt;Wool</title>
<path fill="none" stroke="black" d="M33.2769,-347.983C33.9689,-337.913 35.9507,-325.179 41.1471,-315 43.6868,-310.025 47.1932,-305.32 51.0117,-301.069"/>
<polygon fill="black" stroke="black" points="53.5208,-303.509 58.0806,-293.946 48.5522,-298.578 53.5208,-303.509"/>
<text text-anchor="middle" x="69.1471" y="-318.8" font-family="Times New Roman,serif" font-size="14.00">Crafting 0</text>
</g>
<!-- Skull_Human_A_Magic_Ancient -->
<g id="node2" class="node"><title>Skull_Human_A_Magic_Ancient</title>
<ellipse fill="none" stroke="black" cx="255.147" cy="-105" rx="130.777" ry="18"/>
<text text-anchor="middle" x="255.147" y="-101.3" font-family="Times New Roman,serif" font-size="14.00">Skull_Human_A_Magic_Ancient</text>
</g>
<!-- Skull_MagicBelt -->
<g id="node4" class="node"><title>Skull_MagicBelt</title>
<ellipse fill="none" stroke="black" cx="190.147" cy="-18" rx="70.3881" ry="18"/>
<text text-anchor="middle" x="190.147" y="-14.3" font-family="Times New Roman,serif" font-size="14.00">Skull_MagicBelt</text>
</g>
<!-- Skull_Human_A_Magic_Ancient&#45;&gt;Skull_MagicBelt -->
<g id="edge2" class="edge"><title>Skull_Human_A_Magic_Ancient&#45;&gt;Skull_MagicBelt</title>
<path fill="none" stroke="black" d="M241.993,-86.799C232.593,-74.5062 219.797,-57.7736 209.27,-44.0073"/>
<polygon fill="black" stroke="black" points="211.914,-41.7029 203.059,-35.8854 206.354,-45.955 211.914,-41.7029"/>
<text text-anchor="middle" x="254.147" y="-57.8" font-family="Times New Roman,serif" font-size="14.00">Crafting 1</text>
</g>
<!-- Shears -->
<g id="node3" class="node"><title>Shears</title>
<ellipse fill="none" stroke="black" cx="119.147" cy="-366" rx="35.194" ry="18"/>
<text text-anchor="middle" x="119.147" y="-362.3" font-family="Times New Roman,serif" font-size="14.00">Shears</text>
</g>
<!-- Shears&#45;&gt;Wool -->
<g id="edge3" class="edge"><title>Shears&#45;&gt;Wool</title>
<path fill="none" stroke="black" d="M112.331,-348.086C108.225,-338.282 102.725,-325.782 97.1471,-315 95.4171,-311.656 93.5009,-308.193 91.55,-304.804"/>
<polygon fill="black" stroke="black" points="94.5221,-302.954 86.4098,-296.139 88.5017,-306.526 94.5221,-302.954"/>
<text text-anchor="middle" x="132.147" y="-318.8" font-family="Times New Roman,serif" font-size="14.00">Crafting 0</text>
</g>
<!-- Rope -->
<g id="node5" class="node"><title>Rope</title>
<ellipse fill="none" stroke="black" cx="76.1471" cy="-105" rx="30.5947" ry="18"/>
<text text-anchor="middle" x="76.1471" y="-101.3" font-family="Times New Roman,serif" font-size="14.00">Rope</text>
</g>
<!-- Rope&#45;&gt;Skull_MagicBelt -->
<g id="edge4" class="edge"><title>Rope&#45;&gt;Skull_MagicBelt</title>
<path fill="none" stroke="black" d="M94.4631,-90.3433C112.165,-77.1446 139.291,-56.9187 160.147,-41.3686"/>
<polygon fill="black" stroke="black" points="162.444,-44.0215 168.369,-35.2381 158.26,-38.4097 162.444,-44.0215"/>
<text text-anchor="middle" x="167.147" y="-57.8" font-family="Times New Roman,serif" font-size="14.00">Crafting 1</text>
</g>
<!-- Yarn_A_Wool -->
<g id="node7" class="node"><title>Yarn_A_Wool</title>
<ellipse fill="none" stroke="black" cx="76.1471" cy="-192" rx="64.9885" ry="18"/>
<text text-anchor="middle" x="76.1471" y="-188.3" font-family="Times New Roman,serif" font-size="14.00">Yarn_A_Wool</text>
</g>
<!-- Wool&#45;&gt;Yarn_A_Wool -->
<g id="edge5" class="edge"><title>Wool&#45;&gt;Yarn_A_Wool</title>
<path fill="none" stroke="black" d="M76.1471,-260.799C76.1471,-249.163 76.1471,-233.548 76.1471,-220.237"/>
<polygon fill="black" stroke="black" points="79.6472,-220.175 76.1471,-210.175 72.6472,-220.175 79.6472,-220.175"/>
<text text-anchor="middle" x="104.147" y="-231.8" font-family="Times New Roman,serif" font-size="14.00">Crafting 0</text>
</g>
<!-- Yarn_A_Wool&#45;&gt;Rope -->
<g id="edge6" class="edge"><title>Yarn_A_Wool&#45;&gt;Rope</title>
<path fill="none" stroke="black" d="M76.1471,-173.799C76.1471,-162.163 76.1471,-146.548 76.1471,-133.237"/>
<polygon fill="black" stroke="black" points="79.6472,-133.175 76.1471,-123.175 72.6472,-133.175 79.6472,-133.175"/>
<text text-anchor="middle" x="104.147" y="-144.8" font-family="Times New Roman,serif" font-size="14.00">Crafting 0</text>
</g>
</g>
</svg>
