<?xml version="1.0" encoding="UTF-8" standalone="no"?>
<!DOCTYPE svg PUBLIC "-//W3C//DTD SVG 1.1//EN"
 "http://www.w3.org/Graphics/SVG/1.1/DTD/svg11.dtd">
<!-- Generated by graphviz version 2.38.0 (20140413.2041)
 -->
<!-- Title: G Pages: 1 -->
<svg width="1117pt" height="410pt"
 viewBox="0.00 0.00 1117.09 409.74" xmlns="http://www.w3.org/2000/svg" xmlns:xlink="http://www.w3.org/1999/xlink">
<g id="graph0" class="graph" transform="scale(1 1) rotate(0) translate(4 405.74)">
<title>G</title>
<polygon fill="white" stroke="none" points="-4,4 -4,-405.74 1113.09,-405.74 1113.09,4 -4,4"/>
<!-- Human_Normal_2H_Axe_B
+ Large_Crit -->
<g id="node1" class="node"><title>Human_Normal_2H_Axe_B
+ Large_Crit</title>
<ellipse fill="none" stroke="black" cx="535.097" cy="-26.8701" rx="124.402" ry="26.7407"/>
<text text-anchor="middle" x="535.097" y="-30.6701" font-family="Times New Roman,serif" font-size="14.00">Human_Normal_2H_Axe_B</text>
<text text-anchor="middle" x="535.097" y="-15.6701" font-family="Times New Roman,serif" font-size="14.00">+ Large_Crit</text>
</g>
<!-- OreBar_A_Steel_A_Large -->
<g id="node2" class="node"><title>OreBar_A_Steel_A_Large</title>
<ellipse fill="none" stroke="black" cx="475.097" cy="-122.74" rx="107.482" ry="18"/>
<text text-anchor="middle" x="475.097" y="-119.04" font-family="Times New Roman,serif" font-size="14.00">OreBar_A_Steel_A_Large</text>
</g>
<!-- OreBar_A_Steel_A_Large&#45;&gt;Human_Normal_2H_Axe_B
+ Large_Crit -->
<g id="edge6" class="edge"><title>OreBar_A_Steel_A_Large&#45;&gt;Human_Normal_2H_Axe_B
+ Large_Crit</title>
<path fill="none" stroke="black" d="M421.511,-107.066C401.456,-98.7798 385.939,-86.9951 397.097,-71.7401 404.592,-61.4929 414.5,-53.5815 425.577,-47.4829"/>
<polygon fill="black" stroke="black" points="427.28,-50.5453 434.688,-42.9707 424.174,-44.2724 427.28,-50.5453"/>
<text text-anchor="middle" x="425.097" y="-75.5401" font-family="Times New Roman,serif" font-size="14.00">Crafting 5</text>
</g>
<!-- Human_Normal_2H_Axe_B
+ Large_Damage -->
<g id="node5" class="node"><title>Human_Normal_2H_Axe_B
+ Large_Damage</title>
<ellipse fill="none" stroke="black" cx="268.097" cy="-26.8701" rx="124.402" ry="26.7407"/>
<text text-anchor="middle" x="268.097" y="-30.6701" font-family="Times New Roman,serif" font-size="14.00">Human_Normal_2H_Axe_B</text>
<text text-anchor="middle" x="268.097" y="-15.6701" font-family="Times New Roman,serif" font-size="14.00">+ Large_Damage</text>
</g>
<!-- OreBar_A_Steel_A_Large&#45;&gt;Human_Normal_2H_Axe_B
+ Large_Damage -->
<g id="edge5" class="edge"><title>OreBar_A_Steel_A_Large&#45;&gt;Human_Normal_2H_Axe_B
+ Large_Damage</title>
<path fill="none" stroke="black" d="M399.08,-109.959C377.297,-104.729 354.059,-97.2809 334.097,-86.7401 321.205,-79.9324 308.796,-70.0757 298.286,-60.3685"/>
<polygon fill="black" stroke="black" points="300.63,-57.7666 290.989,-53.3722 295.785,-62.8194 300.63,-57.7666"/>
<text text-anchor="middle" x="362.097" y="-75.5401" font-family="Times New Roman,serif" font-size="14.00">Crafting 5</text>
</g>
<!-- PeasantsBlackBillPolearm -->
<g id="node9" class="node"><title>PeasantsBlackBillPolearm</title>
<ellipse fill="none" stroke="black" cx="882.097" cy="-26.8701" rx="104.782" ry="18"/>
<text text-anchor="middle" x="882.097" y="-23.1701" font-family="Times New Roman,serif" font-size="14.00">PeasantsBlackBillPolearm</text>
</g>
<!-- OreBar_A_Steel_A_Large&#45;&gt;PeasantsBlackBillPolearm -->
<g id="edge8" class="edge"><title>OreBar_A_Steel_A_Large&#45;&gt;PeasantsBlackBillPolearm</title>
<path fill="none" stroke="black" d="M502.444,-105.156C511.874,-99.382 522.481,-92.8264 532.097,-86.7401 542.409,-80.2132 543.556,-75.7075 555.097,-71.7401 644.941,-40.8555 674.213,-68.2875 768.097,-53.7401 783.808,-51.3056 800.579,-47.9385 816.29,-44.4375"/>
<polygon fill="black" stroke="black" points="817.467,-47.7593 826.44,-42.126 815.912,-40.9341 817.467,-47.7593"/>
<text text-anchor="middle" x="583.097" y="-75.5401" font-family="Times New Roman,serif" font-size="14.00">Crafting 2</text>
</g>
<!-- 2H_Axe -->
<g id="node10" class="node"><title>2H_Axe</title>
<ellipse fill="none" stroke="black" cx="718.097" cy="-26.8701" rx="40.8928" ry="18"/>
<text text-anchor="middle" x="718.097" y="-23.1701" font-family="Times New Roman,serif" font-size="14.00">2H_Axe</text>
</g>
<!-- OreBar_A_Steel_A_Large&#45;&gt;2H_Axe -->
<g id="edge7" class="edge"><title>OreBar_A_Steel_A_Large&#45;&gt;2H_Axe</title>
<path fill="none" stroke="black" d="M470.166,-104.304C468.275,-93.5632 468.178,-80.2634 476.097,-71.7401 505.266,-40.3453 626.977,-65.8083 668.097,-53.7401 674.251,-51.9339 680.536,-49.3536 686.48,-46.515"/>
<polygon fill="black" stroke="black" points="688.163,-49.5855 695.472,-41.9155 684.975,-43.3534 688.163,-49.5855"/>
<text text-anchor="middle" x="504.097" y="-75.5401" font-family="Times New Roman,serif" font-size="14.00">Crafting 3</text>
</g>
<!-- 2H_Axe_B -->
<g id="node12" class="node"><title>2H_Axe_B</title>
<ellipse fill="none" stroke="black" cx="1057.1" cy="-26.8701" rx="51.9908" ry="18"/>
<text text-anchor="middle" x="1057.1" y="-23.1701" font-family="Times New Roman,serif" font-size="14.00">2H_Axe_B</text>
</g>
<!-- OreBar_A_Steel_A_Large&#45;&gt;2H_Axe_B -->
<g id="edge4" class="edge"><title>OreBar_A_Steel_A_Large&#45;&gt;2H_Axe_B</title>
<path fill="none" stroke="black" d="M543.312,-108.786C565.452,-103.379 589.789,-96.1255 611.097,-86.7401 622.266,-81.8208 622.489,-75.5071 634.097,-71.7401 710.708,-46.8788 917.59,-71.741 996.097,-53.7401 1003.98,-51.9325 1012.14,-49.1662 1019.82,-46.1043"/>
<polygon fill="black" stroke="black" points="1021.39,-49.2378 1029.24,-42.1177 1018.67,-42.7911 1021.39,-49.2378"/>
<text text-anchor="middle" x="662.097" y="-75.5401" font-family="Times New Roman,serif" font-size="14.00">Crafting 4</text>
</g>
<!-- TwoHandedAxe -->
<g id="node3" class="node"><title>TwoHandedAxe</title>
<ellipse fill="none" stroke="black" cx="282.097" cy="-209.74" rx="70.6878" ry="18"/>
<text text-anchor="middle" x="282.097" y="-206.04" font-family="Times New Roman,serif" font-size="14.00">TwoHandedAxe</text>
</g>
<!-- TwoHandedAxe&#45;&gt;OreBar_A_Steel_A_Large -->
<g id="edge9" class="edge"><title>TwoHandedAxe&#45;&gt;OreBar_A_Steel_A_Large</title>
<path fill="none" stroke="black" d="M316.157,-193.739C347.612,-179.886 394.579,-159.201 429.307,-143.907"/>
<polygon fill="black" stroke="black" points="431.013,-146.98 438.754,-139.746 428.192,-140.573 431.013,-146.98"/>
<text text-anchor="middle" x="424.097" y="-162.54" font-family="Times New Roman,serif" font-size="14.00">Crafting 1</text>
</g>
<!-- Anvil -->
<g id="node4" class="node"><title>Anvil</title>
<ellipse fill="none" stroke="black" cx="870.097" cy="-122.74" rx="29.795" ry="18"/>
<text text-anchor="middle" x="870.097" y="-119.04" font-family="Times New Roman,serif" font-size="14.00">Anvil</text>
</g>
<!-- Anvil&#45;&gt;Human_Normal_2H_Axe_B
+ Large_Crit -->
<g id="edge14" class="edge"><title>Anvil&#45;&gt;Human_Normal_2H_Axe_B
+ Large_Crit</title>
<path fill="none" stroke="black" d="M844.867,-112.964C828.209,-106.694 806.197,-97.4882 788.097,-86.7401 778.846,-81.2469 778.91,-76.15 769.097,-71.7401 727.507,-53.0509 712.921,-62.0933 668.097,-53.7401 657.276,-51.7236 645.967,-49.58 634.711,-47.423"/>
<polygon fill="black" stroke="black" points="635.327,-43.9774 624.846,-45.5269 634.005,-50.8516 635.327,-43.9774"/>
<text text-anchor="middle" x="816.097" y="-75.5401" font-family="Times New Roman,serif" font-size="14.00">Crafting 5</text>
</g>
<!-- Anvil&#45;&gt;Human_Normal_2H_Axe_B
+ Large_Damage -->
<g id="edge13" class="edge"><title>Anvil&#45;&gt;Human_Normal_2H_Axe_B
+ Large_Damage</title>
<path fill="none" stroke="black" d="M840.612,-119.354C807.314,-115.765 752.163,-107.077 709.097,-86.7401 699.368,-82.1461 700.146,-75.584 690.097,-71.7401 630.204,-48.8296 465.709,-61.8345 402.097,-53.7401 389.949,-52.1944 377.245,-50.2183 364.703,-48.0487"/>
<polygon fill="black" stroke="black" points="365.152,-44.5737 354.694,-46.2718 363.929,-51.466 365.152,-44.5737"/>
<text text-anchor="middle" x="737.097" y="-75.5401" font-family="Times New Roman,serif" font-size="14.00">Crafting 5</text>
</g>
<!-- Anvil&#45;&gt;PeasantsBlackBillPolearm -->
<g id="edge15" class="edge"><title>Anvil&#45;&gt;PeasantsBlackBillPolearm</title>
<path fill="none" stroke="black" d="M895.505,-112.898C907.344,-107.352 920.293,-98.9014 927.097,-86.7401 934.037,-74.3343 926.602,-61.6699 915.908,-51.2815"/>
<polygon fill="black" stroke="black" points="917.956,-48.4234 908.121,-44.4843 913.353,-53.6971 917.956,-48.4234"/>
<text text-anchor="middle" x="957.097" y="-75.5401" font-family="Times New Roman,serif" font-size="14.00">Crafting 2</text>
</g>
<!-- Anvil&#45;&gt;2H_Axe -->
<g id="edge16" class="edge"><title>Anvil&#45;&gt;2H_Axe</title>
<path fill="none" stroke="black" d="M866.69,-104.485C863.641,-93.5371 858.054,-79.9381 848.097,-71.7401 819.961,-48.5756 802.339,-66.2161 768.097,-53.7401 762.39,-51.661 756.508,-49.067 750.872,-46.3305"/>
<polygon fill="black" stroke="black" points="752.192,-43.0752 741.693,-41.6564 749.016,-49.3131 752.192,-43.0752"/>
<text text-anchor="middle" x="887.097" y="-75.5401" font-family="Times New Roman,serif" font-size="14.00">Crafting 3</text>
</g>
<!-- Anvil&#45;&gt;2H_Axe_B -->
<g id="edge12" class="edge"><title>Anvil&#45;&gt;2H_Axe_B</title>
<path fill="none" stroke="black" d="M898.834,-116.871C923.803,-111.825 960.368,-102.427 989.097,-86.7401 1006.01,-77.5061 1022.41,-63.4969 1034.87,-51.4611"/>
<polygon fill="black" stroke="black" points="1037.47,-53.816 1042.09,-44.2824 1032.53,-48.853 1037.47,-53.816"/>
<text text-anchor="middle" x="1039.1" y="-75.5401" font-family="Times New Roman,serif" font-size="14.00">Crafting 4</text>
</g>
<!-- TwoHandedSword -->
<g id="node6" class="node"><title>TwoHandedSword</title>
<ellipse fill="none" stroke="black" cx="564.097" cy="-296.74" rx="80.6858" ry="18"/>
<text text-anchor="middle" x="564.097" y="-293.04" font-family="Times New Roman,serif" font-size="14.00">TwoHandedSword</text>
</g>
<!-- OreBar_A_Iron_A_Large -->
<g id="node15" class="node"><title>OreBar_A_Iron_A_Large</title>
<ellipse fill="none" stroke="black" cx="475.097" cy="-209.74" rx="104.782" ry="18"/>
<text text-anchor="middle" x="475.097" y="-206.04" font-family="Times New Roman,serif" font-size="14.00">OreBar_A_Iron_A_Large</text>
</g>
<!-- TwoHandedSword&#45;&gt;OreBar_A_Iron_A_Large -->
<g id="edge10" class="edge"><title>TwoHandedSword&#45;&gt;OreBar_A_Iron_A_Large</title>
<path fill="none" stroke="black" d="M546.513,-278.947C533.226,-266.257 514.811,-248.67 500.009,-234.533"/>
<polygon fill="black" stroke="black" points="502.293,-231.874 492.644,-227.498 497.458,-236.936 502.293,-231.874"/>
<text text-anchor="middle" x="553.097" y="-249.54" font-family="Times New Roman,serif" font-size="14.00">Crafting 1</text>
</g>
<!-- Bone_A_Iron -->
<g id="node7" class="node"><title>Bone_A_Iron</title>
<ellipse fill="none" stroke="black" cx="279.097" cy="-383.74" rx="61.1893" ry="18"/>
<text text-anchor="middle" x="279.097" y="-380.04" font-family="Times New Roman,serif" font-size="14.00">Bone_A_Iron</text>
</g>
<!-- OreBar_A_Iron -->
<g id="node8" class="node"><title>OreBar_A_Iron</title>
<ellipse fill="none" stroke="black" cx="259.097" cy="-296.74" rx="68.4888" ry="18"/>
<text text-anchor="middle" x="259.097" y="-293.04" font-family="Times New Roman,serif" font-size="14.00">OreBar_A_Iron</text>
</g>
<!-- Bone_A_Iron&#45;&gt;OreBar_A_Iron -->
<g id="edge17" class="edge"><title>Bone_A_Iron&#45;&gt;OreBar_A_Iron</title>
<path fill="none" stroke="black" d="M267.898,-365.979C264.763,-360.411 261.759,-354.023 260.097,-347.74 258.195,-340.552 257.454,-332.577 257.309,-325.147"/>
<polygon fill="black" stroke="black" points="260.809,-325.191 257.444,-315.144 253.809,-325.096 260.809,-325.191"/>
<text text-anchor="middle" x="288.097" y="-336.54" font-family="Times New Roman,serif" font-size="14.00">Crafting 0</text>
</g>
<!-- OreBar_A_Iron&#45;&gt;OreBar_A_Iron_A_Large -->
<g id="edge18" class="edge"><title>OreBar_A_Iron&#45;&gt;OreBar_A_Iron_A_Large</title>
<path fill="none" stroke="black" d="M280.843,-279.579C296.388,-268.685 318.175,-254.715 339.097,-245.74 357.689,-237.764 378.518,-231.282 398.179,-226.162"/>
<polygon fill="black" stroke="black" points="399.185,-229.518 408.028,-223.683 397.477,-222.73 399.185,-229.518"/>
<text text-anchor="middle" x="367.097" y="-249.54" font-family="Times New Roman,serif" font-size="14.00">Crafting 0</text>
</g>
<!-- Sword -->
<g id="node11" class="node"><title>Sword</title>
<ellipse fill="none" stroke="black" cx="35.0969" cy="-383.74" rx="35.194" ry="18"/>
<text text-anchor="middle" x="35.0969" y="-380.04" font-family="Times New Roman,serif" font-size="14.00">Sword</text>
</g>
<!-- Sword&#45;&gt;OreBar_A_Iron -->
<g id="edge19" class="edge"><title>Sword&#45;&gt;OreBar_A_Iron</title>
<path fill="none" stroke="black" d="M55.1232,-368.934C72.0471,-357.807 97.2717,-342.464 121.097,-332.74 144.525,-323.178 171.284,-315.667 194.964,-310.095"/>
<polygon fill="black" stroke="black" points="195.935,-313.463 204.905,-307.825 194.377,-306.639 195.935,-313.463"/>
<text text-anchor="middle" x="149.097" y="-336.54" font-family="Times New Roman,serif" font-size="14.00">Crafting 1</text>
</g>
<!-- Ore_A_Iron -->
<g id="node13" class="node"><title>Ore_A_Iron</title>
<ellipse fill="none" stroke="black" cx="144.097" cy="-383.74" rx="55.7903" ry="18"/>
<text text-anchor="middle" x="144.097" y="-380.04" font-family="Times New Roman,serif" font-size="14.00">Ore_A_Iron</text>
</g>
<!-- Ore_A_Iron&#45;&gt;OreBar_A_Iron -->
<g id="edge20" class="edge"><title>Ore_A_Iron&#45;&gt;OreBar_A_Iron</title>
<path fill="none" stroke="black" d="M159.801,-366.406C170.154,-356.105 184.303,-342.881 198.097,-332.74 205.097,-327.594 212.918,-322.605 220.564,-318.083"/>
<polygon fill="black" stroke="black" points="222.471,-321.023 229.398,-313.007 218.983,-314.954 222.471,-321.023"/>
<text text-anchor="middle" x="226.097" y="-336.54" font-family="Times New Roman,serif" font-size="14.00">Crafting 0</text>
</g>
<!-- Oven -->
<g id="node14" class="node"><title>Oven</title>
<ellipse fill="none" stroke="black" cx="409.097" cy="-383.74" rx="30.5947" ry="18"/>
<text text-anchor="middle" x="409.097" y="-380.04" font-family="Times New Roman,serif" font-size="14.00">Oven</text>
</g>
<!-- Oven&#45;&gt;OreBar_A_Steel_A_Large -->
<g id="edge2" class="edge"><title>Oven&#45;&gt;OreBar_A_Steel_A_Large</title>
<path fill="none" stroke="black" d="M438.849,-378.96C498.21,-370.743 627.916,-349.178 654.097,-314.74 704.992,-247.795 588.783,-177.834 520.456,-144.196"/>
<polygon fill="black" stroke="black" points="521.681,-140.901 511.155,-139.695 518.631,-147.201 521.681,-140.901"/>
<text text-anchor="middle" x="691.097" y="-249.54" font-family="Times New Roman,serif" font-size="14.00">Crafting 1</text>
</g>
<!-- Oven&#45;&gt;OreBar_A_Iron -->
<g id="edge1" class="edge"><title>Oven&#45;&gt;OreBar_A_Iron</title>
<path fill="none" stroke="black" d="M385.733,-371.884C371.957,-365.28 354.301,-356.461 339.097,-347.74 328.511,-341.668 326.409,-339.267 316.097,-332.74 308.833,-328.142 301.003,-323.277 293.543,-318.683"/>
<polygon fill="black" stroke="black" points="295.364,-315.694 285.01,-313.447 291.703,-321.66 295.364,-315.694"/>
<text text-anchor="middle" x="367.097" y="-336.54" font-family="Times New Roman,serif" font-size="14.00">Crafting 1</text>
</g>
<!-- Oven&#45;&gt;OreBar_A_Iron_A_Large -->
<g id="edge3" class="edge"><title>Oven&#45;&gt;OreBar_A_Iron_A_Large</title>
<path fill="none" stroke="black" d="M407.499,-365.43C406.22,-344.162 406.258,-307.38 418.097,-278.74 424.855,-262.391 437.021,-247.025 448.383,-235.051"/>
<polygon fill="black" stroke="black" points="451.117,-237.264 455.668,-227.696 446.144,-232.338 451.117,-237.264"/>
<text text-anchor="middle" x="446.097" y="-293.04" font-family="Times New Roman,serif" font-size="14.00">Crafting 1</text>
</g>
<!-- OreBar_A_Iron_A_Large&#45;&gt;OreBar_A_Steel_A_Large -->
<g id="edge11" class="edge"><title>OreBar_A_Iron_A_Large&#45;&gt;OreBar_A_Steel_A_Large</title>
<path fill="none" stroke="black" d="M475.097,-191.539C475.097,-179.903 475.097,-164.288 475.097,-150.977"/>
<polygon fill="black" stroke="black" points="478.597,-150.916 475.097,-140.916 471.597,-150.916 478.597,-150.916"/>
<text text-anchor="middle" x="503.097" y="-162.54" font-family="Times New Roman,serif" font-size="14.00">Crafting 1</text>
</g>
</g>
</svg>
