<?xml version="1.0" encoding="UTF-8" standalone="no"?>
<!DOCTYPE svg PUBLIC "-//W3C//DTD SVG 1.1//EN"
 "http://www.w3.org/Graphics/SVG/1.1/DTD/svg11.dtd">
<!-- Generated by graphviz version 2.38.0 (20140413.2041)
 -->
<!-- Title: G Pages: 1 -->
<svg width="648pt" height="392pt"
 viewBox="0.00 0.00 647.89 392.00" xmlns="http://www.w3.org/2000/svg" xmlns:xlink="http://www.w3.org/1999/xlink">
<g id="graph0" class="graph" transform="scale(1 1) rotate(0) translate(4 388)">
<title>G</title>
<polygon fill="white" stroke="none" points="-4,4 -4,-388 643.893,-388 643.893,4 -4,4"/>
<!-- Pouch_Dust_Pixie -->
<g id="node1" class="node"><title>Pouch_Dust_Pixie</title>
<ellipse fill="none" stroke="black" cx="310.897" cy="-192" rx="78.7863" ry="18"/>
<text text-anchor="middle" x="310.897" y="-188.3" font-family="Times New Roman,serif" font-size="14.00">Pouch_Dust_Pixie</text>
</g>
<!-- Tusk_A_Magic -->
<g id="node14" class="node"><title>Tusk_A_Magic</title>
<ellipse fill="none" stroke="black" cx="206.897" cy="-105" rx="67.6881" ry="18"/>
<text text-anchor="middle" x="206.897" y="-101.3" font-family="Times New Roman,serif" font-size="14.00">Tusk_A_Magic</text>
</g>
<!-- Pouch_Dust_Pixie&#45;&gt;Tusk_A_Magic -->
<g id="edge1" class="edge"><title>Pouch_Dust_Pixie&#45;&gt;Tusk_A_Magic</title>
<path fill="none" stroke="black" d="M293.925,-174.165C283.548,-164.16 269.825,-151.429 256.897,-141 251.412,-136.575 245.401,-132.086 239.509,-127.866"/>
<polygon fill="black" stroke="black" points="241.231,-124.798 231.036,-121.914 237.207,-130.526 241.231,-124.798"/>
<text text-anchor="middle" x="300.897" y="-144.8" font-family="Times New Roman,serif" font-size="14.00">Crafting 1</text>
</g>
<!-- Thread -->
<g id="node2" class="node"><title>Thread</title>
<ellipse fill="none" stroke="black" cx="84.8973" cy="-105" rx="36.2938" ry="18"/>
<text text-anchor="middle" x="84.8973" y="-101.3" font-family="Times New Roman,serif" font-size="14.00">Thread</text>
</g>
<!-- Tusk_MagicAmulet -->
<g id="node4" class="node"><title>Tusk_MagicAmulet</title>
<ellipse fill="none" stroke="black" cx="150.897" cy="-18" rx="82.5854" ry="18"/>
<text text-anchor="middle" x="150.897" y="-14.3" font-family="Times New Roman,serif" font-size="14.00">Tusk_MagicAmulet</text>
</g>
<!-- Thread&#45;&gt;Tusk_MagicAmulet -->
<g id="edge2" class="edge"><title>Thread&#45;&gt;Tusk_MagicAmulet</title>
<path fill="none" stroke="black" d="M93.607,-87.0827C99.1171,-77.0481 106.726,-64.3156 114.897,-54 117.918,-50.1864 121.333,-46.3721 124.827,-42.7386"/>
<polygon fill="black" stroke="black" points="127.388,-45.1276 132.007,-35.5926 122.45,-40.1662 127.388,-45.1276"/>
<text text-anchor="middle" x="142.897" y="-57.8" font-family="Times New Roman,serif" font-size="14.00">Crafting 1</text>
</g>
<!-- Pouch_Dust_Bone -->
<g id="node3" class="node"><title>Pouch_Dust_Bone</title>
<ellipse fill="none" stroke="black" cx="137.897" cy="-279" rx="79.8859" ry="18"/>
<text text-anchor="middle" x="137.897" y="-275.3" font-family="Times New Roman,serif" font-size="14.00">Pouch_Dust_Bone</text>
</g>
<!-- Pouch_Dust_Bone&#45;&gt;Pouch_Dust_Pixie -->
<g id="edge3" class="edge"><title>Pouch_Dust_Bone&#45;&gt;Pouch_Dust_Pixie</title>
<path fill="none" stroke="black" d="M169.628,-262.41C197.917,-248.511 239.481,-228.089 270.207,-212.993"/>
<polygon fill="black" stroke="black" points="271.936,-216.043 279.368,-208.491 268.849,-209.76 271.936,-216.043"/>
<text text-anchor="middle" x="261.897" y="-231.8" font-family="Times New Roman,serif" font-size="14.00">Crafting 0</text>
</g>
<!-- Hair -->
<g id="node5" class="node"><title>Hair</title>
<ellipse fill="none" stroke="black" cx="84.8973" cy="-192" rx="27" ry="18"/>
<text text-anchor="middle" x="84.8973" y="-188.3" font-family="Times New Roman,serif" font-size="14.00">Hair</text>
</g>
<!-- Hair&#45;&gt;Thread -->
<g id="edge4" class="edge"><title>Hair&#45;&gt;Thread</title>
<path fill="none" stroke="black" d="M84.8973,-173.799C84.8973,-162.163 84.8973,-146.548 84.8973,-133.237"/>
<polygon fill="black" stroke="black" points="88.3974,-133.175 84.8973,-123.175 81.3974,-133.175 88.3974,-133.175"/>
<text text-anchor="middle" x="112.897" y="-144.8" font-family="Times New Roman,serif" font-size="14.00">Crafting 0</text>
</g>
<!-- Moonstone -->
<g id="node6" class="node"><title>Moonstone</title>
<ellipse fill="none" stroke="black" cx="587.897" cy="-366" rx="51.9908" ry="18"/>
<text text-anchor="middle" x="587.897" y="-362.3" font-family="Times New Roman,serif" font-size="14.00">Moonstone</text>
</g>
<!-- Pouch_Dust_Moon -->
<g id="node11" class="node"><title>Pouch_Dust_Moon</title>
<ellipse fill="none" stroke="black" cx="487.897" cy="-279" rx="83.3857" ry="18"/>
<text text-anchor="middle" x="487.897" y="-275.3" font-family="Times New Roman,serif" font-size="14.00">Pouch_Dust_Moon</text>
</g>
<!-- Moonstone&#45;&gt;Pouch_Dust_Moon -->
<g id="edge5" class="edge"><title>Moonstone&#45;&gt;Pouch_Dust_Moon</title>
<path fill="none" stroke="black" d="M569.088,-349.012C554.016,-336.2 532.647,-318.037 515.615,-303.56"/>
<polygon fill="black" stroke="black" points="517.535,-300.598 507.649,-296.789 513.001,-305.932 517.535,-300.598"/>
<text text-anchor="middle" x="570.897" y="-318.8" font-family="Times New Roman,serif" font-size="14.00">Crafting 0</text>
</g>
<!-- Pouch_Dust_Star -->
<g id="node7" class="node"><title>Pouch_Dust_Star</title>
<ellipse fill="none" stroke="black" cx="310.897" cy="-279" rx="75.2868" ry="18"/>
<text text-anchor="middle" x="310.897" y="-275.3" font-family="Times New Roman,serif" font-size="14.00">Pouch_Dust_Star</text>
</g>
<!-- Pouch_Dust_Star&#45;&gt;Pouch_Dust_Pixie -->
<g id="edge6" class="edge"><title>Pouch_Dust_Star&#45;&gt;Pouch_Dust_Pixie</title>
<path fill="none" stroke="black" d="M310.897,-260.799C310.897,-249.163 310.897,-233.548 310.897,-220.237"/>
<polygon fill="black" stroke="black" points="314.397,-220.175 310.897,-210.175 307.397,-220.175 314.397,-220.175"/>
<text text-anchor="middle" x="338.897" y="-231.8" font-family="Times New Roman,serif" font-size="14.00">Crafting 0</text>
</g>
<!-- MortarPestle -->
<g id="node8" class="node"><title>MortarPestle</title>
<ellipse fill="none" stroke="black" cx="295.897" cy="-366" rx="57.3905" ry="18"/>
<text text-anchor="middle" x="295.897" y="-362.3" font-family="Times New Roman,serif" font-size="14.00">MortarPestle</text>
</g>
<!-- MortarPestle&#45;&gt;Pouch_Dust_Bone -->
<g id="edge12" class="edge"><title>MortarPestle&#45;&gt;Pouch_Dust_Bone</title>
<path fill="none" stroke="black" d="M268.376,-350.194C242.846,-336.46 204.613,-315.891 176.124,-300.565"/>
<polygon fill="black" stroke="black" points="177.71,-297.444 167.246,-295.789 174.394,-303.609 177.71,-297.444"/>
<text text-anchor="middle" x="253.897" y="-318.8" font-family="Times New Roman,serif" font-size="14.00">Crafting 0</text>
</g>
<!-- MortarPestle&#45;&gt;Pouch_Dust_Star -->
<g id="edge13" class="edge"><title>MortarPestle&#45;&gt;Pouch_Dust_Star</title>
<path fill="none" stroke="black" d="M294.726,-347.708C294.445,-338.001 294.721,-325.721 296.897,-315 297.452,-312.268 298.209,-309.476 299.087,-306.721"/>
<polygon fill="black" stroke="black" points="302.471,-307.659 302.644,-297.066 295.903,-305.239 302.471,-307.659"/>
<text text-anchor="middle" x="324.897" y="-318.8" font-family="Times New Roman,serif" font-size="14.00">Crafting 0</text>
</g>
<!-- MortarPestle&#45;&gt;Pouch_Dust_Moon -->
<g id="edge14" class="edge"><title>MortarPestle&#45;&gt;Pouch_Dust_Moon</title>
<path fill="none" stroke="black" d="M321.846,-349.948C331.731,-343.986 342.995,-336.913 352.897,-330 361.719,-323.841 362.358,-319.975 371.897,-315 387.411,-306.91 405.09,-300.382 421.888,-295.256"/>
<polygon fill="black" stroke="black" points="423.039,-298.566 431.654,-292.398 421.073,-291.847 423.039,-298.566"/>
<text text-anchor="middle" x="399.897" y="-318.8" font-family="Times New Roman,serif" font-size="14.00">Crafting 0</text>
</g>
<!-- Tusk -->
<g id="node9" class="node"><title>Tusk</title>
<ellipse fill="none" stroke="black" cx="184.897" cy="-192" rx="29.4969" ry="18"/>
<text text-anchor="middle" x="184.897" y="-188.3" font-family="Times New Roman,serif" font-size="14.00">Tusk</text>
</g>
<!-- Tusk&#45;&gt;Tusk_A_Magic -->
<g id="edge8" class="edge"><title>Tusk&#45;&gt;Tusk_A_Magic</title>
<path fill="none" stroke="black" d="M189.349,-173.799C192.361,-162.163 196.403,-146.548 199.848,-133.237"/>
<polygon fill="black" stroke="black" points="203.335,-133.733 202.452,-123.175 196.558,-131.979 203.335,-133.733"/>
<text text-anchor="middle" x="224.897" y="-144.8" font-family="Times New Roman,serif" font-size="14.00">Crafting 1</text>
</g>
<!-- Herb_Stardust -->
<g id="node10" class="node"><title>Herb_Stardust</title>
<ellipse fill="none" stroke="black" cx="453.897" cy="-366" rx="63.8893" ry="18"/>
<text text-anchor="middle" x="453.897" y="-362.3" font-family="Times New Roman,serif" font-size="14.00">Herb_Stardust</text>
</g>
<!-- Herb_Stardust&#45;&gt;Pouch_Dust_Star -->
<g id="edge9" class="edge"><title>Herb_Stardust&#45;&gt;Pouch_Dust_Star</title>
<path fill="none" stroke="black" d="M450.325,-347.94C447.205,-337.075 441.603,-323.494 431.897,-315 422.966,-307.184 399.856,-299.703 376.195,-293.679"/>
<polygon fill="black" stroke="black" points="376.967,-290.265 366.42,-291.275 375.295,-297.062 376.967,-290.265"/>
<text text-anchor="middle" x="469.897" y="-318.8" font-family="Times New Roman,serif" font-size="14.00">Crafting 0</text>
</g>
<!-- Pouch_Dust_Moon&#45;&gt;Pouch_Dust_Pixie -->
<g id="edge15" class="edge"><title>Pouch_Dust_Moon&#45;&gt;Pouch_Dust_Pixie</title>
<path fill="none" stroke="black" d="M455.433,-262.41C426.49,-248.511 383.965,-228.089 352.529,-212.993"/>
<polygon fill="black" stroke="black" points="353.686,-209.665 343.156,-208.491 350.655,-215.976 353.686,-209.665"/>
<text text-anchor="middle" x="437.897" y="-231.8" font-family="Times New Roman,serif" font-size="14.00">Crafting 0</text>
</g>
<!-- Skull_Human -->
<g id="node12" class="node"><title>Skull_Human</title>
<ellipse fill="none" stroke="black" cx="137.897" cy="-366" rx="59.5901" ry="18"/>
<text text-anchor="middle" x="137.897" y="-362.3" font-family="Times New Roman,serif" font-size="14.00">Skull_Human</text>
</g>
<!-- Skull_Human&#45;&gt;Pouch_Dust_Bone -->
<g id="edge11" class="edge"><title>Skull_Human&#45;&gt;Pouch_Dust_Bone</title>
<path fill="none" stroke="black" d="M137.897,-347.799C137.897,-336.163 137.897,-320.548 137.897,-307.237"/>
<polygon fill="black" stroke="black" points="141.397,-307.175 137.897,-297.175 134.397,-307.175 141.397,-307.175"/>
<text text-anchor="middle" x="165.897" y="-318.8" font-family="Times New Roman,serif" font-size="14.00">Crafting 0</text>
</g>
<!-- Bone -->
<g id="node13" class="node"><title>Bone</title>
<ellipse fill="none" stroke="black" cx="29.8973" cy="-366" rx="29.795" ry="18"/>
<text text-anchor="middle" x="29.8973" y="-362.3" font-family="Times New Roman,serif" font-size="14.00">Bone</text>
</g>
<!-- Bone&#45;&gt;Pouch_Dust_Bone -->
<g id="edge7" class="edge"><title>Bone&#45;&gt;Pouch_Dust_Bone</title>
<path fill="none" stroke="black" d="M42.7743,-349.471C51.921,-338.999 64.8499,-325.272 77.8973,-315 84.2266,-310.017 91.3378,-305.252 98.392,-300.929"/>
<polygon fill="black" stroke="black" points="100.402,-303.807 107.234,-295.709 96.8433,-297.779 100.402,-303.807"/>
<text text-anchor="middle" x="105.897" y="-318.8" font-family="Times New Roman,serif" font-size="14.00">Crafting 0</text>
</g>
<!-- Tusk_A_Magic&#45;&gt;Tusk_MagicAmulet -->
<g id="edge10" class="edge"><title>Tusk_A_Magic&#45;&gt;Tusk_MagicAmulet</title>
<path fill="none" stroke="black" d="M195.834,-87.2067C187.832,-75.0621 176.876,-58.4315 167.785,-44.6326"/>
<polygon fill="black" stroke="black" points="170.554,-42.4744 162.13,-36.0493 164.709,-46.3255 170.554,-42.4744"/>
<text text-anchor="middle" x="209.897" y="-57.8" font-family="Times New Roman,serif" font-size="14.00">Crafting 1</text>
</g>
</g>
</svg>
