<?xml version="1.0" encoding="UTF-8" standalone="no"?>
<!DOCTYPE svg PUBLIC "-//W3C//DTD SVG 1.1//EN"
 "http://www.w3.org/Graphics/SVG/1.1/DTD/svg11.dtd">
<!-- Generated by graphviz version 2.38.0 (20140413.2041)
 -->
<!-- Title: G Pages: 1 -->
<svg width="252pt" height="236pt"
 viewBox="0.00 0.00 251.94 235.74" xmlns="http://www.w3.org/2000/svg" xmlns:xlink="http://www.w3.org/1999/xlink">
<g id="graph0" class="graph" transform="scale(1 1) rotate(0) translate(4 231.74)">
<title>G</title>
<polygon fill="white" stroke="none" points="-4,4 -4,-231.74 247.942,-231.74 247.942,4 -4,4"/>
<!-- Essence_Air -->
<g id="node1" class="node"><title>Essence_Air</title>
<ellipse fill="none" stroke="black" cx="56.545" cy="-122.74" rx="56.59" ry="18"/>
<text text-anchor="middle" x="56.545" y="-119.04" font-family="Times New Roman,serif" font-size="14.00">Essence_Air</text>
</g>
<!-- Spear
+ Small_AirDamage -->
<g id="node2" class="node"><title>Spear
+ Small_AirDamage</title>
<ellipse fill="none" stroke="black" cx="102.545" cy="-26.8701" rx="91.4341" ry="26.7407"/>
<text text-anchor="middle" x="102.545" y="-30.6701" font-family="Times New Roman,serif" font-size="14.00">Spear</text>
<text text-anchor="middle" x="102.545" y="-15.6701" font-family="Times New Roman,serif" font-size="14.00">+ Small_AirDamage</text>
</g>
<!-- Essence_Air&#45;&gt;Spear
+ Small_AirDamage -->
<g id="edge1" class="edge"><title>Essence_Air&#45;&gt;Spear
+ Small_AirDamage</title>
<path fill="none" stroke="black" d="M59.7684,-104.526C62.0095,-94.6218 65.5095,-82.1218 70.545,-71.7401 72.1624,-68.4056 74.0376,-65.0606 76.0534,-61.7871"/>
<polygon fill="black" stroke="black" points="79.0397,-63.6165 81.637,-53.3449 73.2012,-59.7549 79.0397,-63.6165"/>
<text text-anchor="middle" x="98.545" y="-75.5401" font-family="Times New Roman,serif" font-size="14.00">Crafting 5</text>
</g>
<!-- Dagger -->
<g id="node3" class="node"><title>Dagger</title>
<ellipse fill="none" stroke="black" cx="116.545" cy="-209.74" rx="36.2938" ry="18"/>
<text text-anchor="middle" x="116.545" y="-206.04" font-family="Times New Roman,serif" font-size="14.00">Dagger</text>
</g>
<!-- Spear -->
<g id="node5" class="node"><title>Spear</title>
<ellipse fill="none" stroke="black" cx="162.545" cy="-122.74" rx="31.6951" ry="18"/>
<text text-anchor="middle" x="162.545" y="-119.04" font-family="Times New Roman,serif" font-size="14.00">Spear</text>
</g>
<!-- Dagger&#45;&gt;Spear -->
<g id="edge3" class="edge"><title>Dagger&#45;&gt;Spear</title>
<path fill="none" stroke="black" d="M114.714,-191.631C114.388,-181.529 115.338,-168.792 120.545,-158.74 123.582,-152.877 128.069,-147.617 132.995,-143.063"/>
<polygon fill="black" stroke="black" points="135.46,-145.567 140.951,-136.506 131.008,-140.166 135.46,-145.567"/>
<text text-anchor="middle" x="148.545" y="-162.54" font-family="Times New Roman,serif" font-size="14.00">Crafting 2</text>
</g>
<!-- Branch -->
<g id="node4" class="node"><title>Branch</title>
<ellipse fill="none" stroke="black" cx="207.545" cy="-209.74" rx="36.2938" ry="18"/>
<text text-anchor="middle" x="207.545" y="-206.04" font-family="Times New Roman,serif" font-size="14.00">Branch</text>
</g>
<!-- Branch&#45;&gt;Spear -->
<g id="edge4" class="edge"><title>Branch&#45;&gt;Spear</title>
<path fill="none" stroke="black" d="M198.654,-191.947C192.203,-179.761 183.36,-163.058 176.04,-149.231"/>
<polygon fill="black" stroke="black" points="179.036,-147.41 171.264,-140.209 172.85,-150.685 179.036,-147.41"/>
<text text-anchor="middle" x="215.545" y="-162.54" font-family="Times New Roman,serif" font-size="14.00">Crafting 2</text>
</g>
<!-- Spear&#45;&gt;Spear
+ Small_AirDamage -->
<g id="edge2" class="edge"><title>Spear&#45;&gt;Spear
+ Small_AirDamage</title>
<path fill="none" stroke="black" d="M152.094,-105.389C144.46,-93.4456 133.834,-76.822 124.38,-62.0306"/>
<polygon fill="black" stroke="black" points="127.315,-60.1234 118.98,-53.5825 121.417,-63.8934 127.315,-60.1234"/>
<text text-anchor="middle" x="168.545" y="-75.5401" font-family="Times New Roman,serif" font-size="14.00">Crafting 5</text>
</g>
</g>
</svg>
