<?xml version="1.0" encoding="UTF-8" standalone="no"?>
<!DOCTYPE svg PUBLIC "-//W3C//DTD SVG 1.1//EN"
 "http://www.w3.org/Graphics/SVG/1.1/DTD/svg11.dtd">
<!-- Generated by graphviz version 2.38.0 (20140413.2041)
 -->
<!-- Title: G Pages: 1 -->
<svg width="288pt" height="149pt"
 viewBox="0.00 0.00 287.64 148.74" xmlns="http://www.w3.org/2000/svg" xmlns:xlink="http://www.w3.org/1999/xlink">
<g id="graph0" class="graph" transform="scale(1 1) rotate(0) translate(4 144.74)">
<title>G</title>
<polygon fill="white" stroke="none" points="-4,4 -4,-144.74 283.638,-144.74 283.638,4 -4,4"/>
<!-- Essence_Fire -->
<g id="node1" class="node"><title>Essence_Fire</title>
<ellipse fill="none" stroke="black" cx="59.7947" cy="-122.74" rx="59.5901" ry="18"/>
<text text-anchor="middle" x="59.7947" y="-119.04" font-family="Times New Roman,serif" font-size="14.00">Essence_Fire</text>
</g>
<!-- TwoHandedAxe
+ Small_FireDamage -->
<g id="node3" class="node"><title>TwoHandedAxe
+ Small_FireDamage</title>
<ellipse fill="none" stroke="black" cx="133.795" cy="-26.8701" rx="94.5053" ry="26.7407"/>
<text text-anchor="middle" x="133.795" y="-30.6701" font-family="Times New Roman,serif" font-size="14.00">TwoHandedAxe</text>
<text text-anchor="middle" x="133.795" y="-15.6701" font-family="Times New Roman,serif" font-size="14.00">+ Small_FireDamage</text>
</g>
<!-- Essence_Fire&#45;&gt;TwoHandedAxe
+ Small_FireDamage -->
<g id="edge1" class="edge"><title>Essence_Fire&#45;&gt;TwoHandedAxe
+ Small_FireDamage</title>
<path fill="none" stroke="black" d="M73.0244,-104.958C82.5653,-92.8553 95.7629,-76.1139 107.422,-61.324"/>
<polygon fill="black" stroke="black" points="110.266,-63.3701 113.708,-53.35 104.769,-59.0364 110.266,-63.3701"/>
<text text-anchor="middle" x="127.795" y="-75.5401" font-family="Times New Roman,serif" font-size="14.00">Crafting 5</text>
</g>
<!-- TwoHandedAxe -->
<g id="node2" class="node"><title>TwoHandedAxe</title>
<ellipse fill="none" stroke="black" cx="208.795" cy="-122.74" rx="70.6878" ry="18"/>
<text text-anchor="middle" x="208.795" y="-119.04" font-family="Times New Roman,serif" font-size="14.00">TwoHandedAxe</text>
</g>
<!-- TwoHandedAxe&#45;&gt;TwoHandedAxe
+ Small_FireDamage -->
<g id="edge2" class="edge"><title>TwoHandedAxe&#45;&gt;TwoHandedAxe
+ Small_FireDamage</title>
<path fill="none" stroke="black" d="M195.386,-104.958C185.716,-92.8553 172.34,-76.1139 160.524,-61.324"/>
<polygon fill="black" stroke="black" points="163.129,-58.9779 154.153,-53.35 157.66,-63.3474 163.129,-58.9779"/>
<text text-anchor="middle" x="208.795" y="-75.5401" font-family="Times New Roman,serif" font-size="14.00">Crafting 5</text>
</g>
</g>
</svg>
