<?xml version="1.0" encoding="UTF-8" standalone="no"?>
<!DOCTYPE svg PUBLIC "-//W3C//DTD SVG 1.1//EN"
 "http://www.w3.org/Graphics/SVG/1.1/DTD/svg11.dtd">
<!-- Generated by graphviz version 2.38.0 (20140413.2041)
 -->
<!-- Title: G Pages: 1 -->
<svg width="440pt" height="479pt"
 viewBox="0.00 0.00 439.59 479.00" xmlns="http://www.w3.org/2000/svg" xmlns:xlink="http://www.w3.org/1999/xlink">
<g id="graph0" class="graph" transform="scale(1 1) rotate(0) translate(4 475)">
<title>G</title>
<polygon fill="white" stroke="none" points="-4,4 -4,-475 435.586,-475 435.586,4 -4,4"/>
<!-- Herb_Augmentor -->
<g id="node1" class="node"><title>Herb_Augmentor</title>
<ellipse fill="none" stroke="black" cx="75.1424" cy="-192" rx="74.187" ry="18"/>
<text text-anchor="middle" x="75.1424" y="-188.3" font-family="Times New Roman,serif" font-size="14.00">Herb_Augmentor</text>
</g>
<!-- Potion_Fire_Res_Medium -->
<g id="node2" class="node"><title>Potion_Fire_Res_Medium</title>
<ellipse fill="none" stroke="black" cx="248.142" cy="-105" rx="107.482" ry="18"/>
<text text-anchor="middle" x="248.142" y="-101.3" font-family="Times New Roman,serif" font-size="14.00">Potion_Fire_Res_Medium</text>
</g>
<!-- Herb_Augmentor&#45;&gt;Potion_Fire_Res_Medium -->
<g id="edge1" class="edge"><title>Herb_Augmentor&#45;&gt;Potion_Fire_Res_Medium</title>
<path fill="none" stroke="black" d="M106.471,-175.607C134.356,-161.907 175.369,-141.756 206.1,-126.657"/>
<polygon fill="black" stroke="black" points="207.85,-129.697 215.281,-122.146 204.763,-123.414 207.85,-129.697"/>
<text text-anchor="middle" x="200.142" y="-144.8" font-family="Times New Roman,serif" font-size="14.00">Crafting 3</text>
</g>
<!-- Potion_Fire_Res_Large -->
<g id="node7" class="node"><title>Potion_Fire_Res_Large</title>
<ellipse fill="none" stroke="black" cx="120.142" cy="-18" rx="98.2828" ry="18"/>
<text text-anchor="middle" x="120.142" y="-14.3" font-family="Times New Roman,serif" font-size="14.00">Potion_Fire_Res_Large</text>
</g>
<!-- Herb_Augmentor&#45;&gt;Potion_Fire_Res_Large -->
<g id="edge2" class="edge"><title>Herb_Augmentor&#45;&gt;Potion_Fire_Res_Large</title>
<path fill="none" stroke="black" d="M72.4607,-173.997C69.7946,-153.039 67.2553,-116.57 76.1424,-87 80.7671,-71.6126 90.0294,-56.414 98.8679,-44.3012"/>
<polygon fill="black" stroke="black" points="101.868,-46.1397 105.156,-36.0681 96.305,-41.8906 101.868,-46.1397"/>
<text text-anchor="middle" x="104.142" y="-101.3" font-family="Times New Roman,serif" font-size="14.00">Crafting 4</text>
</g>
<!-- Potion_Fire_Res_Medium&#45;&gt;Potion_Fire_Res_Large -->
<g id="edge3" class="edge"><title>Potion_Fire_Res_Medium&#45;&gt;Potion_Fire_Res_Large</title>
<path fill="none" stroke="black" d="M223.159,-87.4094C203.336,-74.2458 175.438,-55.7198 153.673,-41.2663"/>
<polygon fill="black" stroke="black" points="155.33,-38.1651 145.063,-35.5488 151.457,-43.9965 155.33,-38.1651"/>
<text text-anchor="middle" x="220.142" y="-57.8" font-family="Times New Roman,serif" font-size="14.00">Crafting 4</text>
</g>
<!-- Potion_Armor_Boost -->
<g id="node3" class="node"><title>Potion_Armor_Boost</title>
<ellipse fill="none" stroke="black" cx="124.142" cy="-279" rx="90.1842" ry="18"/>
<text text-anchor="middle" x="124.142" y="-275.3" font-family="Times New Roman,serif" font-size="14.00">Potion_Armor_Boost</text>
</g>
<!-- Potion_Fire_Res -->
<g id="node5" class="node"><title>Potion_Fire_Res</title>
<ellipse fill="none" stroke="black" cx="248.142" cy="-192" rx="72.5877" ry="18"/>
<text text-anchor="middle" x="248.142" y="-188.3" font-family="Times New Roman,serif" font-size="14.00">Potion_Fire_Res</text>
</g>
<!-- Potion_Armor_Boost&#45;&gt;Potion_Fire_Res -->
<g id="edge4" class="edge"><title>Potion_Armor_Boost&#45;&gt;Potion_Fire_Res</title>
<path fill="none" stroke="black" d="M148.051,-261.611C167.473,-248.297 195.038,-229.402 216.325,-214.811"/>
<polygon fill="black" stroke="black" points="218.459,-217.591 224.728,-209.05 214.501,-211.817 218.459,-217.591"/>
<text text-anchor="middle" x="222.142" y="-231.8" font-family="Times New Roman,serif" font-size="14.00">Crafting 2</text>
</g>
<!-- Potion_Empty -->
<g id="node4" class="node"><title>Potion_Empty</title>
<ellipse fill="none" stroke="black" cx="203.142" cy="-453" rx="63.8893" ry="18"/>
<text text-anchor="middle" x="203.142" y="-449.3" font-family="Times New Roman,serif" font-size="14.00">Potion_Empty</text>
</g>
<!-- Minor_Healing_Potion -->
<g id="node10" class="node"><title>Minor_Healing_Potion</title>
<ellipse fill="none" stroke="black" cx="281.142" cy="-366" rx="92.8835" ry="18"/>
<text text-anchor="middle" x="281.142" y="-362.3" font-family="Times New Roman,serif" font-size="14.00">Minor_Healing_Potion</text>
</g>
<!-- Potion_Empty&#45;&gt;Minor_Healing_Potion -->
<g id="edge5" class="edge"><title>Potion_Empty&#45;&gt;Minor_Healing_Potion</title>
<path fill="none" stroke="black" d="M218.553,-435.207C230.091,-422.633 246.041,-405.252 258.951,-391.182"/>
<polygon fill="black" stroke="black" points="261.582,-393.493 265.764,-383.758 256.424,-388.76 261.582,-393.493"/>
<text text-anchor="middle" x="275.142" y="-405.8" font-family="Times New Roman,serif" font-size="14.00">Crafting 1</text>
</g>
<!-- Potion_Fire_Res&#45;&gt;Potion_Fire_Res_Medium -->
<g id="edge6" class="edge"><title>Potion_Fire_Res&#45;&gt;Potion_Fire_Res_Medium</title>
<path fill="none" stroke="black" d="M248.142,-173.799C248.142,-162.163 248.142,-146.548 248.142,-133.237"/>
<polygon fill="black" stroke="black" points="251.643,-133.175 248.142,-123.175 244.643,-133.175 251.643,-133.175"/>
<text text-anchor="middle" x="276.142" y="-144.8" font-family="Times New Roman,serif" font-size="14.00">Crafting 3</text>
</g>
<!-- Herb_Whisperwood -->
<g id="node6" class="node"><title>Herb_Whisperwood</title>
<ellipse fill="none" stroke="black" cx="85.1424" cy="-366" rx="85.2851" ry="18"/>
<text text-anchor="middle" x="85.1424" y="-362.3" font-family="Times New Roman,serif" font-size="14.00">Herb_Whisperwood</text>
</g>
<!-- Herb_Whisperwood&#45;&gt;Potion_Armor_Boost -->
<g id="edge7" class="edge"><title>Herb_Whisperwood&#45;&gt;Potion_Armor_Boost</title>
<path fill="none" stroke="black" d="M93.0347,-347.799C98.4795,-335.932 105.823,-319.928 112.007,-306.449"/>
<polygon fill="black" stroke="black" points="115.273,-307.724 116.262,-297.175 108.911,-304.805 115.273,-307.724"/>
<text text-anchor="middle" x="135.142" y="-318.8" font-family="Times New Roman,serif" font-size="14.00">Crafting 2</text>
</g>
<!-- Herb_Mushroom -->
<g id="node8" class="node"><title>Herb_Mushroom</title>
<ellipse fill="none" stroke="black" cx="358.142" cy="-453" rx="73.387" ry="18"/>
<text text-anchor="middle" x="358.142" y="-449.3" font-family="Times New Roman,serif" font-size="14.00">Herb_Mushroom</text>
</g>
<!-- Herb_Mushroom&#45;&gt;Minor_Healing_Potion -->
<g id="edge8" class="edge"><title>Herb_Mushroom&#45;&gt;Minor_Healing_Potion</title>
<path fill="none" stroke="black" d="M342.93,-435.207C331.54,-422.633 315.794,-405.252 303.049,-391.182"/>
<polygon fill="black" stroke="black" points="305.631,-388.82 296.324,-383.758 300.443,-393.519 305.631,-388.82"/>
<text text-anchor="middle" x="352.142" y="-405.8" font-family="Times New Roman,serif" font-size="14.00">Crafting 1</text>
</g>
<!-- Herb_Mushroom_E -->
<g id="node9" class="node"><title>Herb_Mushroom_E</title>
<ellipse fill="none" stroke="black" cx="316.142" cy="-279" rx="83.6854" ry="18"/>
<text text-anchor="middle" x="316.142" y="-275.3" font-family="Times New Roman,serif" font-size="14.00">Herb_Mushroom_E</text>
</g>
<!-- Herb_Mushroom_E&#45;&gt;Potion_Fire_Res -->
<g id="edge9" class="edge"><title>Herb_Mushroom_E&#45;&gt;Potion_Fire_Res</title>
<path fill="none" stroke="black" d="M302.708,-261.207C292.742,-248.75 279.001,-231.573 267.802,-217.574"/>
<polygon fill="black" stroke="black" points="270.529,-215.381 261.549,-209.758 265.063,-219.754 270.529,-215.381"/>
<text text-anchor="middle" x="314.142" y="-231.8" font-family="Times New Roman,serif" font-size="14.00">Crafting 2</text>
</g>
<!-- Minor_Healing_Potion&#45;&gt;Potion_Armor_Boost -->
<g id="edge10" class="edge"><title>Minor_Healing_Potion&#45;&gt;Potion_Armor_Boost</title>
<path fill="none" stroke="black" d="M251.242,-348.812C226.143,-335.223 190.116,-315.718 162.824,-300.942"/>
<polygon fill="black" stroke="black" points="164.391,-297.811 153.931,-296.128 161.059,-303.967 164.391,-297.811"/>
<text text-anchor="middle" x="240.142" y="-318.8" font-family="Times New Roman,serif" font-size="14.00">Crafting 2</text>
</g>
</g>
</svg>
