<?xml version="1.0" encoding="UTF-8" standalone="no"?>
<!DOCTYPE svg PUBLIC "-//W3C//DTD SVG 1.1//EN"
 "http://www.w3.org/Graphics/SVG/1.1/DTD/svg11.dtd">
<!-- Generated by graphviz version 2.38.0 (20140413.2041)
 -->
<!-- Title: G Pages: 1 -->
<svg width="779pt" height="305pt"
 viewBox="0.00 0.00 779.19 305.00" xmlns="http://www.w3.org/2000/svg" xmlns:xlink="http://www.w3.org/1999/xlink">
<g id="graph0" class="graph" transform="scale(1 1) rotate(0) translate(4 301)">
<title>G</title>
<polygon fill="white" stroke="none" points="-4,4 -4,-301 775.191,-301 775.191,4 -4,4"/>
<!-- ArrowHead_Antler -->
<g id="node1" class="node"><title>ArrowHead_Antler</title>
<ellipse fill="none" stroke="black" cx="659.694" cy="-192" rx="79.8859" ry="18"/>
<text text-anchor="middle" x="659.694" y="-188.3" font-family="Times New Roman,serif" font-size="14.00">ArrowHead_Antler</text>
</g>
<!-- Arrow_KO -->
<g id="node5" class="node"><title>Arrow_KO</title>
<ellipse fill="none" stroke="black" cx="505.694" cy="-105" rx="51.9908" ry="18"/>
<text text-anchor="middle" x="505.694" y="-101.3" font-family="Times New Roman,serif" font-size="14.00">Arrow_KO</text>
</g>
<!-- ArrowHead_Antler&#45;&gt;Arrow_KO -->
<g id="edge1" class="edge"><title>ArrowHead_Antler&#45;&gt;Arrow_KO</title>
<path fill="none" stroke="black" d="M630.728,-175.012C605.287,-160.97 568.198,-140.499 541.021,-125.499"/>
<polygon fill="black" stroke="black" points="542.662,-122.407 532.216,-120.638 539.279,-128.535 542.662,-122.407"/>
<text text-anchor="middle" x="619.694" y="-144.8" font-family="Times New Roman,serif" font-size="14.00">Crafting 1</text>
</g>
<!-- Potion_Empty -->
<g id="node2" class="node"><title>Potion_Empty</title>
<ellipse fill="none" stroke="black" cx="63.6943" cy="-279" rx="63.8893" ry="18"/>
<text text-anchor="middle" x="63.6943" y="-275.3" font-family="Times New Roman,serif" font-size="14.00">Potion_Empty</text>
</g>
<!-- Potion_Poison -->
<g id="node9" class="node"><title>Potion_Poison</title>
<ellipse fill="none" stroke="black" cx="265.694" cy="-192" rx="64.9885" ry="18"/>
<text text-anchor="middle" x="265.694" y="-188.3" font-family="Times New Roman,serif" font-size="14.00">Potion_Poison</text>
</g>
<!-- Potion_Empty&#45;&gt;Potion_Poison -->
<g id="edge2" class="edge"><title>Potion_Empty&#45;&gt;Potion_Poison</title>
<path fill="none" stroke="black" d="M93.8307,-263.088C115.104,-252.767 144.389,-238.969 170.694,-228 185.599,-221.785 202.042,-215.523 216.998,-210.048"/>
<polygon fill="black" stroke="black" points="218.374,-213.272 226.581,-206.572 215.987,-206.692 218.374,-213.272"/>
<text text-anchor="middle" x="198.694" y="-231.8" font-family="Times New Roman,serif" font-size="14.00">Crafting 0</text>
</g>
<!-- Arrow_Debuff_Intelligence -->
<g id="node3" class="node"><title>Arrow_Debuff_Intelligence</title>
<ellipse fill="none" stroke="black" cx="404.694" cy="-18" rx="109.681" ry="18"/>
<text text-anchor="middle" x="404.694" y="-14.3" font-family="Times New Roman,serif" font-size="14.00">Arrow_Debuff_Intelligence</text>
</g>
<!-- Potion_Debuf_Intelligence -->
<g id="node4" class="node"><title>Potion_Debuf_Intelligence</title>
<ellipse fill="none" stroke="black" cx="265.694" cy="-105" rx="107.482" ry="18"/>
<text text-anchor="middle" x="265.694" y="-101.3" font-family="Times New Roman,serif" font-size="14.00">Potion_Debuf_Intelligence</text>
</g>
<!-- Potion_Debuf_Intelligence&#45;&gt;Arrow_Debuff_Intelligence -->
<g id="edge3" class="edge"><title>Potion_Debuf_Intelligence&#45;&gt;Arrow_Debuff_Intelligence</title>
<path fill="none" stroke="black" d="M292.825,-87.4094C314.543,-74.1288 345.186,-55.39 368.911,-40.8818"/>
<polygon fill="black" stroke="black" points="370.927,-43.7518 377.632,-35.5488 367.275,-37.7799 370.927,-43.7518"/>
<text text-anchor="middle" x="371.694" y="-57.8" font-family="Times New Roman,serif" font-size="14.00">Crafting 2</text>
</g>
<!-- Arrow_KO&#45;&gt;Arrow_Debuff_Intelligence -->
<g id="edge4" class="edge"><title>Arrow_KO&#45;&gt;Arrow_Debuff_Intelligence</title>
<path fill="none" stroke="black" d="M486.697,-88.0122C471.474,-75.2005 449.891,-57.0371 432.689,-42.5598"/>
<polygon fill="black" stroke="black" points="434.548,-39.5497 424.643,-35.7885 430.04,-44.9054 434.548,-39.5497"/>
<text text-anchor="middle" x="489.694" y="-57.8" font-family="Times New Roman,serif" font-size="14.00">Crafting 2</text>
</g>
<!-- Barrel_Ooze -->
<g id="node6" class="node"><title>Barrel_Ooze</title>
<ellipse fill="none" stroke="black" cx="201.694" cy="-279" rx="56.59" ry="18"/>
<text text-anchor="middle" x="201.694" y="-275.3" font-family="Times New Roman,serif" font-size="14.00">Barrel_Ooze</text>
</g>
<!-- Barrel_Ooze&#45;&gt;Potion_Poison -->
<g id="edge5" class="edge"><title>Barrel_Ooze&#45;&gt;Potion_Poison</title>
<path fill="none" stroke="black" d="M214.339,-261.207C223.63,-248.866 236.409,-231.894 246.895,-217.967"/>
<polygon fill="black" stroke="black" points="249.857,-219.852 253.076,-209.758 244.265,-215.642 249.857,-219.852"/>
<text text-anchor="middle" x="265.694" y="-231.8" font-family="Times New Roman,serif" font-size="14.00">Crafting 0</text>
</g>
<!-- Soul_Tormented -->
<g id="node7" class="node"><title>Soul_Tormented</title>
<ellipse fill="none" stroke="black" cx="110.694" cy="-192" rx="72.2875" ry="18"/>
<text text-anchor="middle" x="110.694" y="-188.3" font-family="Times New Roman,serif" font-size="14.00">Soul_Tormented</text>
</g>
<!-- Soul_Tormented&#45;&gt;Potion_Debuf_Intelligence -->
<g id="edge6" class="edge"><title>Soul_Tormented&#45;&gt;Potion_Debuf_Intelligence</title>
<path fill="none" stroke="black" d="M139.124,-175.41C163.779,-161.889 199.691,-142.195 226.969,-127.236"/>
<polygon fill="black" stroke="black" points="228.775,-130.238 235.86,-122.361 225.409,-124.1 228.775,-130.238"/>
<text text-anchor="middle" x="225.694" y="-144.8" font-family="Times New Roman,serif" font-size="14.00">Crafting 2</text>
</g>
<!-- ArrowShaft -->
<g id="node8" class="node"><title>ArrowShaft</title>
<ellipse fill="none" stroke="black" cx="505.694" cy="-192" rx="53.0913" ry="18"/>
<text text-anchor="middle" x="505.694" y="-188.3" font-family="Times New Roman,serif" font-size="14.00">ArrowShaft</text>
</g>
<!-- ArrowShaft&#45;&gt;Arrow_KO -->
<g id="edge7" class="edge"><title>ArrowShaft&#45;&gt;Arrow_KO</title>
<path fill="none" stroke="black" d="M505.694,-173.799C505.694,-162.163 505.694,-146.548 505.694,-133.237"/>
<polygon fill="black" stroke="black" points="509.194,-133.175 505.694,-123.175 502.194,-133.175 509.194,-133.175"/>
<text text-anchor="middle" x="533.694" y="-144.8" font-family="Times New Roman,serif" font-size="14.00">Crafting 1</text>
</g>
<!-- Potion_Poison&#45;&gt;Potion_Debuf_Intelligence -->
<g id="edge8" class="edge"><title>Potion_Poison&#45;&gt;Potion_Debuf_Intelligence</title>
<path fill="none" stroke="black" d="M265.694,-173.799C265.694,-162.163 265.694,-146.548 265.694,-133.237"/>
<polygon fill="black" stroke="black" points="269.194,-133.175 265.694,-123.175 262.194,-133.175 269.194,-133.175"/>
<text text-anchor="middle" x="293.694" y="-144.8" font-family="Times New Roman,serif" font-size="14.00">Crafting 2</text>
</g>
<!-- Branch -->
<g id="node10" class="node"><title>Branch</title>
<ellipse fill="none" stroke="black" cx="501.694" cy="-279" rx="36.2938" ry="18"/>
<text text-anchor="middle" x="501.694" y="-275.3" font-family="Times New Roman,serif" font-size="14.00">Branch</text>
</g>
<!-- Branch&#45;&gt;ArrowShaft -->
<g id="edge9" class="edge"><title>Branch&#45;&gt;ArrowShaft</title>
<path fill="none" stroke="black" d="M501.76,-260.866C501.866,-251.208 502.118,-238.924 502.694,-228 502.829,-225.442 503.001,-222.781 503.193,-220.121"/>
<polygon fill="black" stroke="black" points="506.688,-220.324 504.005,-210.074 499.711,-219.76 506.688,-220.324"/>
<text text-anchor="middle" x="530.694" y="-231.8" font-family="Times New Roman,serif" font-size="14.00">Crafting 0</text>
</g>
<!-- Antler -->
<g id="node11" class="node"><title>Antler</title>
<ellipse fill="none" stroke="black" cx="738.694" cy="-279" rx="32.4942" ry="18"/>
<text text-anchor="middle" x="738.694" y="-275.3" font-family="Times New Roman,serif" font-size="14.00">Antler</text>
</g>
<!-- Antler&#45;&gt;ArrowHead_Antler -->
<g id="edge10" class="edge"><title>Antler&#45;&gt;ArrowHead_Antler</title>
<path fill="none" stroke="black" d="M728.657,-261.863C721.928,-251.641 712.525,-238.431 702.694,-228 698.816,-223.885 694.453,-219.815 690.032,-215.987"/>
<polygon fill="black" stroke="black" points="692.032,-213.098 682.104,-209.398 687.558,-218.482 692.032,-213.098"/>
<text text-anchor="middle" x="742.694" y="-231.8" font-family="Times New Roman,serif" font-size="14.00">Crafting 1</text>
</g>
<!-- Herb_Mushroom_C -->
<g id="node12" class="node"><title>Herb_Mushroom_C</title>
<ellipse fill="none" stroke="black" cx="361.694" cy="-279" rx="85.2851" ry="18"/>
<text text-anchor="middle" x="361.694" y="-275.3" font-family="Times New Roman,serif" font-size="14.00">Herb_Mushroom_C</text>
</g>
<!-- Herb_Mushroom_C&#45;&gt;Potion_Poison -->
<g id="edge11" class="edge"><title>Herb_Mushroom_C&#45;&gt;Potion_Poison</title>
<path fill="none" stroke="black" d="M342.728,-261.207C328.171,-248.317 307.906,-230.375 291.815,-216.128"/>
<polygon fill="black" stroke="black" points="294.102,-213.478 284.295,-209.469 289.462,-218.719 294.102,-213.478"/>
<text text-anchor="middle" x="347.694" y="-231.8" font-family="Times New Roman,serif" font-size="14.00">Crafting 1</text>
</g>
<!-- Knife -->
<g id="node13" class="node"><title>Knife</title>
<ellipse fill="none" stroke="black" cx="622.694" cy="-279" rx="30.5947" ry="18"/>
<text text-anchor="middle" x="622.694" y="-275.3" font-family="Times New Roman,serif" font-size="14.00">Knife</text>
</g>
<!-- Knife&#45;&gt;ArrowHead_Antler -->
<g id="edge13" class="edge"><title>Knife&#45;&gt;ArrowHead_Antler</title>
<path fill="none" stroke="black" d="M630.004,-261.207C635.19,-249.293 642.255,-233.063 648.192,-219.424"/>
<polygon fill="black" stroke="black" points="651.491,-220.615 652.273,-210.049 645.072,-217.821 651.491,-220.615"/>
<text text-anchor="middle" x="670.694" y="-231.8" font-family="Times New Roman,serif" font-size="14.00">Crafting 1</text>
</g>
<!-- Knife&#45;&gt;ArrowShaft -->
<g id="edge12" class="edge"><title>Knife&#45;&gt;ArrowShaft</title>
<path fill="none" stroke="black" d="M605.114,-264.011C589.436,-251.583 567.623,-234.421 558.694,-228 552.148,-223.293 545.017,-218.419 538.17,-213.858"/>
<polygon fill="black" stroke="black" points="539.989,-210.865 529.713,-208.283 536.136,-216.709 539.989,-210.865"/>
<text text-anchor="middle" x="604.694" y="-231.8" font-family="Times New Roman,serif" font-size="14.00">Crafting 0</text>
</g>
</g>
</svg>
