<?xml version="1.0" encoding="UTF-8" standalone="no"?>
<!DOCTYPE svg PUBLIC "-//W3C//DTD SVG 1.1//EN"
 "http://www.w3.org/Graphics/SVG/1.1/DTD/svg11.dtd">
<!-- Generated by graphviz version 2.38.0 (20140413.2041)
 -->
<!-- Title: G Pages: 1 -->
<svg width="823pt" height="392pt"
 viewBox="0.00 0.00 822.79 392.00" xmlns="http://www.w3.org/2000/svg" xmlns:xlink="http://www.w3.org/1999/xlink">
<g id="graph0" class="graph" transform="scale(1 1) rotate(0) translate(4 388)">
<title>G</title>
<polygon fill="white" stroke="none" points="-4,4 -4,-388 818.795,-388 818.795,4 -4,4"/>
<!-- Pouch_Dust_Pixie -->
<g id="node1" class="node"><title>Pouch_Dust_Pixie</title>
<ellipse fill="none" stroke="black" cx="450.795" cy="-192" rx="78.7863" ry="18"/>
<text text-anchor="middle" x="450.795" y="-188.3" font-family="Times New Roman,serif" font-size="14.00">Pouch_Dust_Pixie</text>
</g>
<!-- Claw_A_Magic -->
<g id="node2" class="node"><title>Claw_A_Magic</title>
<ellipse fill="none" stroke="black" cx="450.795" cy="-105" rx="67.6881" ry="18"/>
<text text-anchor="middle" x="450.795" y="-101.3" font-family="Times New Roman,serif" font-size="14.00">Claw_A_Magic</text>
</g>
<!-- Pouch_Dust_Pixie&#45;&gt;Claw_A_Magic -->
<g id="edge1" class="edge"><title>Pouch_Dust_Pixie&#45;&gt;Claw_A_Magic</title>
<path fill="none" stroke="black" d="M450.795,-173.799C450.795,-162.163 450.795,-146.548 450.795,-133.237"/>
<polygon fill="black" stroke="black" points="454.295,-133.175 450.795,-123.175 447.295,-133.175 454.295,-133.175"/>
<text text-anchor="middle" x="478.795" y="-144.8" font-family="Times New Roman,serif" font-size="14.00">Crafting 1</text>
</g>
<!-- Claw_MagicBelt -->
<g id="node12" class="node"><title>Claw_MagicBelt</title>
<ellipse fill="none" stroke="black" cx="524.795" cy="-18" rx="70.6878" ry="18"/>
<text text-anchor="middle" x="524.795" y="-14.3" font-family="Times New Roman,serif" font-size="14.00">Claw_MagicBelt</text>
</g>
<!-- Claw_A_Magic&#45;&gt;Claw_MagicBelt -->
<g id="edge2" class="edge"><title>Claw_A_Magic&#45;&gt;Claw_MagicBelt</title>
<path fill="none" stroke="black" d="M464.177,-87.092C472.055,-77.2894 482.305,-64.7894 491.795,-54 494.856,-50.5197 498.141,-46.9033 501.408,-43.3736"/>
<polygon fill="black" stroke="black" points="504.156,-45.5605 508.441,-35.871 499.049,-40.7733 504.156,-45.5605"/>
<text text-anchor="middle" x="519.795" y="-57.8" font-family="Times New Roman,serif" font-size="14.00">Crafting 1</text>
</g>
<!-- Shears -->
<g id="node3" class="node"><title>Shears</title>
<ellipse fill="none" stroke="black" cx="774.795" cy="-366" rx="35.194" ry="18"/>
<text text-anchor="middle" x="774.795" y="-362.3" font-family="Times New Roman,serif" font-size="14.00">Shears</text>
</g>
<!-- Wool -->
<g id="node14" class="node"><title>Wool</title>
<ellipse fill="none" stroke="black" cx="688.795" cy="-279" rx="31.3957" ry="18"/>
<text text-anchor="middle" x="688.795" y="-275.3" font-family="Times New Roman,serif" font-size="14.00">Wool</text>
</g>
<!-- Shears&#45;&gt;Wool -->
<g id="edge3" class="edge"><title>Shears&#45;&gt;Wool</title>
<path fill="none" stroke="black" d="M768.869,-348.224C764.537,-337.747 757.838,-324.493 748.795,-315 741.231,-307.06 731.469,-300.344 722.027,-294.985"/>
<polygon fill="black" stroke="black" points="723.625,-291.871 713.153,-290.267 720.339,-298.052 723.625,-291.871"/>
<text text-anchor="middle" x="786.795" y="-318.8" font-family="Times New Roman,serif" font-size="14.00">Crafting 0</text>
</g>
<!-- Skull_Human -->
<g id="node4" class="node"><title>Skull_Human</title>
<ellipse fill="none" stroke="black" cx="59.7947" cy="-366" rx="59.5901" ry="18"/>
<text text-anchor="middle" x="59.7947" y="-362.3" font-family="Times New Roman,serif" font-size="14.00">Skull_Human</text>
</g>
<!-- Pouch_Dust_Bone -->
<g id="node5" class="node"><title>Pouch_Dust_Bone</title>
<ellipse fill="none" stroke="black" cx="174.795" cy="-279" rx="79.8859" ry="18"/>
<text text-anchor="middle" x="174.795" y="-275.3" font-family="Times New Roman,serif" font-size="14.00">Pouch_Dust_Bone</text>
</g>
<!-- Skull_Human&#45;&gt;Pouch_Dust_Bone -->
<g id="edge4" class="edge"><title>Skull_Human&#45;&gt;Pouch_Dust_Bone</title>
<path fill="none" stroke="black" d="M74.7722,-348.552C84.6835,-338.206 98.2982,-324.974 111.795,-315 118.738,-309.869 126.515,-304.961 134.172,-300.529"/>
<polygon fill="black" stroke="black" points="136.032,-303.499 143.048,-295.56 132.613,-297.391 136.032,-303.499"/>
<text text-anchor="middle" x="139.795" y="-318.8" font-family="Times New Roman,serif" font-size="14.00">Crafting 0</text>
</g>
<!-- Pouch_Dust_Bone&#45;&gt;Pouch_Dust_Pixie -->
<g id="edge14" class="edge"><title>Pouch_Dust_Bone&#45;&gt;Pouch_Dust_Pixie</title>
<path fill="none" stroke="black" d="M220.061,-264.059C268.335,-249.192 344.786,-225.648 396.322,-209.776"/>
<polygon fill="black" stroke="black" points="397.434,-213.096 405.961,-206.807 395.374,-206.406 397.434,-213.096"/>
<text text-anchor="middle" x="356.795" y="-231.8" font-family="Times New Roman,serif" font-size="14.00">Crafting 0</text>
</g>
<!-- Rope -->
<g id="node6" class="node"><title>Rope</title>
<ellipse fill="none" stroke="black" cx="586.795" cy="-105" rx="30.5947" ry="18"/>
<text text-anchor="middle" x="586.795" y="-101.3" font-family="Times New Roman,serif" font-size="14.00">Rope</text>
</g>
<!-- Rope&#45;&gt;Claw_MagicBelt -->
<g id="edge6" class="edge"><title>Rope&#45;&gt;Claw_MagicBelt</title>
<path fill="none" stroke="black" d="M575.133,-88.0122C566.128,-75.6664 553.498,-58.351 543.142,-44.1533"/>
<polygon fill="black" stroke="black" points="545.761,-41.8051 537.04,-35.7885 540.106,-45.9302 545.761,-41.8051"/>
<text text-anchor="middle" x="586.795" y="-57.8" font-family="Times New Roman,serif" font-size="14.00">Crafting 1</text>
</g>
<!-- Moonstone -->
<g id="node7" class="node"><title>Moonstone</title>
<ellipse fill="none" stroke="black" cx="585.795" cy="-366" rx="51.9908" ry="18"/>
<text text-anchor="middle" x="585.795" y="-362.3" font-family="Times New Roman,serif" font-size="14.00">Moonstone</text>
</g>
<!-- Pouch_Dust_Moon -->
<g id="node17" class="node"><title>Pouch_Dust_Moon</title>
<ellipse fill="none" stroke="black" cx="541.795" cy="-279" rx="83.3857" ry="18"/>
<text text-anchor="middle" x="541.795" y="-275.3" font-family="Times New Roman,serif" font-size="14.00">Pouch_Dust_Moon</text>
</g>
<!-- Moonstone&#45;&gt;Pouch_Dust_Moon -->
<g id="edge7" class="edge"><title>Moonstone&#45;&gt;Pouch_Dust_Moon</title>
<path fill="none" stroke="black" d="M579.062,-348.042C574.984,-338.223 569.484,-325.723 563.795,-315 562.214,-312.02 560.472,-308.955 558.681,-305.936"/>
<polygon fill="black" stroke="black" points="561.496,-303.833 553.276,-297.149 555.534,-307.5 561.496,-303.833"/>
<text text-anchor="middle" x="598.795" y="-318.8" font-family="Times New Roman,serif" font-size="14.00">Crafting 0</text>
</g>
<!-- Pouch_Dust_Star -->
<g id="node8" class="node"><title>Pouch_Dust_Star</title>
<ellipse fill="none" stroke="black" cx="364.795" cy="-279" rx="75.2868" ry="18"/>
<text text-anchor="middle" x="364.795" y="-275.3" font-family="Times New Roman,serif" font-size="14.00">Pouch_Dust_Star</text>
</g>
<!-- Pouch_Dust_Star&#45;&gt;Pouch_Dust_Pixie -->
<g id="edge8" class="edge"><title>Pouch_Dust_Star&#45;&gt;Pouch_Dust_Pixie</title>
<path fill="none" stroke="black" d="M381.786,-261.207C394.625,-248.517 412.419,-230.93 426.722,-216.793"/>
<polygon fill="black" stroke="black" points="429.187,-219.277 433.839,-209.758 424.266,-214.299 429.187,-219.277"/>
<text text-anchor="middle" x="440.795" y="-231.8" font-family="Times New Roman,serif" font-size="14.00">Crafting 0</text>
</g>
<!-- MortarPestle -->
<g id="node9" class="node"><title>MortarPestle</title>
<ellipse fill="none" stroke="black" cx="427.795" cy="-366" rx="57.3905" ry="18"/>
<text text-anchor="middle" x="427.795" y="-362.3" font-family="Times New Roman,serif" font-size="14.00">MortarPestle</text>
</g>
<!-- MortarPestle&#45;&gt;Pouch_Dust_Bone -->
<g id="edge15" class="edge"><title>MortarPestle&#45;&gt;Pouch_Dust_Bone</title>
<path fill="none" stroke="black" d="M391.676,-351.99C377.009,-346.098 360.168,-338.535 345.795,-330 336.544,-324.507 336.495,-319.654 326.795,-315 303.619,-303.882 276.733,-296.197 252.073,-290.927"/>
<polygon fill="black" stroke="black" points="252.52,-287.447 242.023,-288.884 251.125,-294.306 252.52,-287.447"/>
<text text-anchor="middle" x="373.795" y="-318.8" font-family="Times New Roman,serif" font-size="14.00">Crafting 0</text>
</g>
<!-- MortarPestle&#45;&gt;Pouch_Dust_Star -->
<g id="edge16" class="edge"><title>MortarPestle&#45;&gt;Pouch_Dust_Star</title>
<path fill="none" stroke="black" d="M422.399,-347.776C418.709,-337.633 413.151,-324.894 405.795,-315 402.664,-310.789 398.938,-306.745 395.028,-302.995"/>
<polygon fill="black" stroke="black" points="397.182,-300.226 387.39,-296.181 392.523,-305.45 397.182,-300.226"/>
<text text-anchor="middle" x="441.795" y="-318.8" font-family="Times New Roman,serif" font-size="14.00">Crafting 0</text>
</g>
<!-- MortarPestle&#45;&gt;Pouch_Dust_Moon -->
<g id="edge17" class="edge"><title>MortarPestle&#45;&gt;Pouch_Dust_Moon</title>
<path fill="none" stroke="black" d="M448.97,-349.211C466.549,-336.104 491.772,-317.298 511.49,-302.596"/>
<polygon fill="black" stroke="black" points="513.64,-305.358 519.565,-296.575 509.456,-299.746 513.64,-305.358"/>
<text text-anchor="middle" x="518.795" y="-318.8" font-family="Times New Roman,serif" font-size="14.00">Crafting 0</text>
</g>
<!-- Sheep -->
<g id="node10" class="node"><title>Sheep</title>
<ellipse fill="none" stroke="black" cx="688.795" cy="-366" rx="33.2948" ry="18"/>
<text text-anchor="middle" x="688.795" y="-362.3" font-family="Times New Roman,serif" font-size="14.00">Sheep</text>
</g>
<!-- Sheep&#45;&gt;Wool -->
<g id="edge10" class="edge"><title>Sheep&#45;&gt;Wool</title>
<path fill="none" stroke="black" d="M688.795,-347.799C688.795,-336.163 688.795,-320.548 688.795,-307.237"/>
<polygon fill="black" stroke="black" points="692.295,-307.175 688.795,-297.175 685.295,-307.175 692.295,-307.175"/>
<text text-anchor="middle" x="716.795" y="-318.8" font-family="Times New Roman,serif" font-size="14.00">Crafting 0</text>
</g>
<!-- Herb_Stardust -->
<g id="node11" class="node"><title>Herb_Stardust</title>
<ellipse fill="none" stroke="black" cx="279.795" cy="-366" rx="63.8893" ry="18"/>
<text text-anchor="middle" x="279.795" y="-362.3" font-family="Times New Roman,serif" font-size="14.00">Herb_Stardust</text>
</g>
<!-- Herb_Stardust&#45;&gt;Pouch_Dust_Star -->
<g id="edge12" class="edge"><title>Herb_Stardust&#45;&gt;Pouch_Dust_Star</title>
<path fill="none" stroke="black" d="M270.83,-347.901C266.752,-337.556 264.152,-324.562 270.795,-315 277.108,-305.912 286.08,-299.179 296,-294.192"/>
<polygon fill="black" stroke="black" points="297.586,-297.318 305.329,-290.086 294.766,-290.911 297.586,-297.318"/>
<text text-anchor="middle" x="298.795" y="-318.8" font-family="Times New Roman,serif" font-size="14.00">Crafting 0</text>
</g>
<!-- Claw -->
<g id="node13" class="node"><title>Claw</title>
<ellipse fill="none" stroke="black" cx="324.795" cy="-192" rx="29.4969" ry="18"/>
<text text-anchor="middle" x="324.795" y="-188.3" font-family="Times New Roman,serif" font-size="14.00">Claw</text>
</g>
<!-- Claw&#45;&gt;Claw_A_Magic -->
<g id="edge11" class="edge"><title>Claw&#45;&gt;Claw_A_Magic</title>
<path fill="none" stroke="black" d="M341.751,-177.258C354.843,-166.87 373.573,-152.486 390.795,-141 398.078,-136.142 406.055,-131.225 413.747,-126.673"/>
<polygon fill="black" stroke="black" points="415.709,-129.581 422.587,-121.522 412.185,-123.533 415.709,-129.581"/>
<text text-anchor="middle" x="418.795" y="-144.8" font-family="Times New Roman,serif" font-size="14.00">Crafting 1</text>
</g>
<!-- Yarn_A_Wool -->
<g id="node15" class="node"><title>Yarn_A_Wool</title>
<ellipse fill="none" stroke="black" cx="648.795" cy="-192" rx="64.9885" ry="18"/>
<text text-anchor="middle" x="648.795" y="-188.3" font-family="Times New Roman,serif" font-size="14.00">Yarn_A_Wool</text>
</g>
<!-- Wool&#45;&gt;Yarn_A_Wool -->
<g id="edge13" class="edge"><title>Wool&#45;&gt;Yarn_A_Wool</title>
<path fill="none" stroke="black" d="M680.892,-261.207C675.286,-249.293 667.648,-233.063 661.23,-219.424"/>
<polygon fill="black" stroke="black" points="664.243,-217.607 656.818,-210.049 657.909,-220.588 664.243,-217.607"/>
<text text-anchor="middle" x="698.795" y="-231.8" font-family="Times New Roman,serif" font-size="14.00">Crafting 0</text>
</g>
<!-- Yarn_A_Wool&#45;&gt;Rope -->
<g id="edge5" class="edge"><title>Yarn_A_Wool&#45;&gt;Rope</title>
<path fill="none" stroke="black" d="M636.545,-174.207C627.369,-161.626 614.681,-144.231 604.415,-130.157"/>
<polygon fill="black" stroke="black" points="607.11,-127.913 598.389,-121.896 601.455,-132.038 607.11,-127.913"/>
<text text-anchor="middle" x="648.795" y="-144.8" font-family="Times New Roman,serif" font-size="14.00">Crafting 0</text>
</g>
<!-- Bone -->
<g id="node16" class="node"><title>Bone</title>
<ellipse fill="none" stroke="black" cx="167.795" cy="-366" rx="29.795" ry="18"/>
<text text-anchor="middle" x="167.795" y="-362.3" font-family="Times New Roman,serif" font-size="14.00">Bone</text>
</g>
<!-- Bone&#45;&gt;Pouch_Dust_Bone -->
<g id="edge9" class="edge"><title>Bone&#45;&gt;Pouch_Dust_Bone</title>
<path fill="none" stroke="black" d="M169.211,-347.799C170.17,-336.163 171.455,-320.548 172.552,-307.237"/>
<polygon fill="black" stroke="black" points="176.048,-307.429 173.38,-297.175 169.071,-306.854 176.048,-307.429"/>
<text text-anchor="middle" x="199.795" y="-318.8" font-family="Times New Roman,serif" font-size="14.00">Crafting 0</text>
</g>
<!-- Pouch_Dust_Moon&#45;&gt;Pouch_Dust_Pixie -->
<g id="edge18" class="edge"><title>Pouch_Dust_Moon&#45;&gt;Pouch_Dust_Pixie</title>
<path fill="none" stroke="black" d="M523.816,-261.207C510.231,-248.517 491.402,-230.93 476.267,-216.793"/>
<polygon fill="black" stroke="black" points="478.433,-214.027 468.736,-209.758 473.655,-219.142 478.433,-214.027"/>
<text text-anchor="middle" x="528.795" y="-231.8" font-family="Times New Roman,serif" font-size="14.00">Crafting 0</text>
</g>
</g>
</svg>
