<?xml version="1.0" encoding="UTF-8" standalone="no"?>
<!DOCTYPE svg PUBLIC "-//W3C//DTD SVG 1.1//EN"
 "http://www.w3.org/Graphics/SVG/1.1/DTD/svg11.dtd">
<!-- Generated by graphviz version 2.38.0 (20140413.2041)
 -->
<!-- Title: G Pages: 1 -->
<svg width="324pt" height="218pt"
 viewBox="0.00 0.00 324.40 218.00" xmlns="http://www.w3.org/2000/svg" xmlns:xlink="http://www.w3.org/1999/xlink">
<g id="graph0" class="graph" transform="scale(1 1) rotate(0) translate(4 214)">
<title>G</title>
<polygon fill="white" stroke="none" points="-4,4 -4,-214 320.397,-214 320.397,4 -4,4"/>
<!-- ArrowHead -->
<g id="node1" class="node"><title>ArrowHead</title>
<ellipse fill="none" stroke="black" cx="217.397" cy="-105" rx="53.0913" ry="18"/>
<text text-anchor="middle" x="217.397" y="-101.3" font-family="Times New Roman,serif" font-size="14.00">ArrowHead</text>
</g>
<!-- Arrow_Stunning -->
<g id="node5" class="node"><title>Arrow_Stunning</title>
<ellipse fill="none" stroke="black" cx="160.397" cy="-18" rx="70.6878" ry="18"/>
<text text-anchor="middle" x="160.397" y="-14.3" font-family="Times New Roman,serif" font-size="14.00">Arrow_Stunning</text>
</g>
<!-- ArrowHead&#45;&gt;Arrow_Stunning -->
<g id="edge1" class="edge"><title>ArrowHead&#45;&gt;Arrow_Stunning</title>
<path fill="none" stroke="black" d="M206.135,-87.2067C197.991,-75.0621 186.839,-58.4315 177.586,-44.6326"/>
<polygon fill="black" stroke="black" points="180.306,-42.4054 171.83,-36.0493 174.493,-46.3041 180.306,-42.4054"/>
<text text-anchor="middle" x="220.397" y="-57.8" font-family="Times New Roman,serif" font-size="14.00">Crafting 1</text>
</g>
<!-- Tooth -->
<g id="node2" class="node"><title>Tooth</title>
<ellipse fill="none" stroke="black" cx="273.397" cy="-192" rx="33.2948" ry="18"/>
<text text-anchor="middle" x="273.397" y="-188.3" font-family="Times New Roman,serif" font-size="14.00">Tooth</text>
</g>
<!-- Tooth&#45;&gt;ArrowHead -->
<g id="edge2" class="edge"><title>Tooth&#45;&gt;ArrowHead</title>
<path fill="none" stroke="black" d="M267.66,-174.018C263.849,-163.96 258.284,-151.226 251.397,-141 248.699,-136.995 245.518,-133.038 242.201,-129.307"/>
<polygon fill="black" stroke="black" points="244.728,-126.885 235.315,-122.021 239.64,-131.693 244.728,-126.885"/>
<text text-anchor="middle" x="288.397" y="-144.8" font-family="Times New Roman,serif" font-size="14.00">Crafting 1</text>
</g>
<!-- ArrowShaft -->
<g id="node3" class="node"><title>ArrowShaft</title>
<ellipse fill="none" stroke="black" cx="92.3968" cy="-105" rx="53.0913" ry="18"/>
<text text-anchor="middle" x="92.3968" y="-101.3" font-family="Times New Roman,serif" font-size="14.00">ArrowShaft</text>
</g>
<!-- ArrowShaft&#45;&gt;Arrow_Stunning -->
<g id="edge3" class="edge"><title>ArrowShaft&#45;&gt;Arrow_Stunning</title>
<path fill="none" stroke="black" d="M102.731,-87.2723C109.14,-77.3049 117.773,-64.5764 126.397,-54 129.448,-50.2576 132.826,-46.4466 136.234,-42.7831"/>
<polygon fill="black" stroke="black" points="138.784,-45.1808 143.177,-35.5395 133.731,-40.3371 138.784,-45.1808"/>
<text text-anchor="middle" x="154.397" y="-57.8" font-family="Times New Roman,serif" font-size="14.00">Crafting 1</text>
</g>
<!-- Branch -->
<g id="node4" class="node"><title>Branch</title>
<ellipse fill="none" stroke="black" cx="36.3968" cy="-192" rx="36.2938" ry="18"/>
<text text-anchor="middle" x="36.3968" y="-188.3" font-family="Times New Roman,serif" font-size="14.00">Branch</text>
</g>
<!-- Branch&#45;&gt;ArrowShaft -->
<g id="edge4" class="edge"><title>Branch&#45;&gt;ArrowShaft</title>
<path fill="none" stroke="black" d="M32.8661,-173.737C31.6953,-163.579 31.8667,-150.839 37.3968,-141 40.8617,-134.835 45.9118,-129.594 51.5669,-125.194"/>
<polygon fill="black" stroke="black" points="53.8727,-127.859 60.1708,-119.339 49.9344,-122.071 53.8727,-127.859"/>
<text text-anchor="middle" x="65.3968" y="-144.8" font-family="Times New Roman,serif" font-size="14.00">Crafting 0</text>
</g>
<!-- Knife -->
<g id="node6" class="node"><title>Knife</title>
<ellipse fill="none" stroke="black" cx="156.397" cy="-192" rx="30.5947" ry="18"/>
<text text-anchor="middle" x="156.397" y="-188.3" font-family="Times New Roman,serif" font-size="14.00">Knife</text>
</g>
<!-- Knife&#45;&gt;ArrowHead -->
<g id="edge6" class="edge"><title>Knife&#45;&gt;ArrowHead</title>
<path fill="none" stroke="black" d="M167.318,-175.156C174.165,-165.283 183.215,-152.344 191.397,-141 193.77,-137.71 196.289,-134.263 198.789,-130.87"/>
<polygon fill="black" stroke="black" points="201.727,-132.783 204.869,-122.664 196.103,-128.615 201.727,-132.783"/>
<text text-anchor="middle" x="219.397" y="-144.8" font-family="Times New Roman,serif" font-size="14.00">Crafting 1</text>
</g>
<!-- Knife&#45;&gt;ArrowShaft -->
<g id="edge5" class="edge"><title>Knife&#45;&gt;ArrowShaft</title>
<path fill="none" stroke="black" d="M140.696,-176.364C134.642,-170.342 127.872,-163.118 122.397,-156 116.567,-148.421 110.955,-139.628 106.194,-131.549"/>
<polygon fill="black" stroke="black" points="109.214,-129.779 101.214,-122.833 103.137,-133.252 109.214,-129.779"/>
<text text-anchor="middle" x="150.397" y="-144.8" font-family="Times New Roman,serif" font-size="14.00">Crafting 0</text>
</g>
</g>
</svg>
