<?xml version="1.0" encoding="UTF-8" standalone="no"?>
<!DOCTYPE svg PUBLIC "-//W3C//DTD SVG 1.1//EN"
 "http://www.w3.org/Graphics/SVG/1.1/DTD/svg11.dtd">
<!-- Generated by graphviz version 2.38.0 (20140413.2041)
 -->
<!-- Title: G Pages: 1 -->
<svg width="456pt" height="149pt"
 viewBox="0.00 0.00 455.59 148.74" xmlns="http://www.w3.org/2000/svg" xmlns:xlink="http://www.w3.org/1999/xlink">
<g id="graph0" class="graph" transform="scale(1 1) rotate(0) translate(4 144.74)">
<title>G</title>
<polygon fill="white" stroke="none" points="-4,4 -4,-144.74 451.594,-144.74 451.594,4 -4,4"/>
<!-- Axe
+ Medium_Damage -->
<g id="node1" class="node"><title>Axe
+ Medium_Damage</title>
<ellipse fill="none" stroke="black" cx="266.594" cy="-26.8701" rx="89.6056" ry="26.7407"/>
<text text-anchor="middle" x="266.594" y="-30.6701" font-family="Times New Roman,serif" font-size="14.00">Axe</text>
<text text-anchor="middle" x="266.594" y="-15.6701" font-family="Times New Roman,serif" font-size="14.00">+ Medium_Damage</text>
</g>
<!-- Axe
+ Small_Damage -->
<g id="node2" class="node"><title>Axe
+ Small_Damage</title>
<ellipse fill="none" stroke="black" cx="79.594" cy="-26.8701" rx="79.3924" ry="26.7407"/>
<text text-anchor="middle" x="79.594" y="-30.6701" font-family="Times New Roman,serif" font-size="14.00">Axe</text>
<text text-anchor="middle" x="79.594" y="-15.6701" font-family="Times New Roman,serif" font-size="14.00">+ Small_Damage</text>
</g>
<!-- Stone_A_Whet -->
<g id="node3" class="node"><title>Stone_A_Whet</title>
<ellipse fill="none" stroke="black" cx="67.594" cy="-122.74" rx="67.6881" ry="18"/>
<text text-anchor="middle" x="67.594" y="-119.04" font-family="Times New Roman,serif" font-size="14.00">Stone_A_Whet</text>
</g>
<!-- Stone_A_Whet&#45;&gt;Axe
+ Medium_Damage -->
<g id="edge1" class="edge"><title>Stone_A_Whet&#45;&gt;Axe
+ Medium_Damage</title>
<path fill="none" stroke="black" d="M104.436,-107.584C119.279,-101.573 136.439,-94.2302 151.594,-86.7401 163.554,-80.8291 165.827,-78.026 177.594,-71.7401 188.278,-66.033 199.806,-60.1515 210.91,-54.6219"/>
<polygon fill="black" stroke="black" points="212.698,-57.6424 220.11,-50.0714 209.594,-51.368 212.698,-57.6424"/>
<text text-anchor="middle" x="205.594" y="-75.5401" font-family="Times New Roman,serif" font-size="14.00">Crafting 5</text>
</g>
<!-- Stone_A_Whet&#45;&gt;Axe
+ Small_Damage -->
<g id="edge2" class="edge"><title>Stone_A_Whet&#45;&gt;Axe
+ Small_Damage</title>
<path fill="none" stroke="black" d="M35.5615,-106.654C21.4105,-97.7219 9.41935,-85.479 16.594,-71.7401 19.5901,-66.0029 23.7165,-60.8636 28.4367,-56.302"/>
<polygon fill="black" stroke="black" points="30.9409,-58.7658 36.2656,-49.6062 26.391,-53.446 30.9409,-58.7658"/>
<text text-anchor="middle" x="44.594" y="-75.5401" font-family="Times New Roman,serif" font-size="14.00">Crafting 2</text>
</g>
<!-- WhetStone_Wheel -->
<g id="node4" class="node"><title>WhetStone_Wheel</title>
<ellipse fill="none" stroke="black" cx="363.594" cy="-122.74" rx="79.0865" ry="18"/>
<text text-anchor="middle" x="363.594" y="-119.04" font-family="Times New Roman,serif" font-size="14.00">WhetStone_Wheel</text>
</g>
<!-- WhetStone_Wheel&#45;&gt;Axe
+ Medium_Damage -->
<g id="edge3" class="edge"><title>WhetStone_Wheel&#45;&gt;Axe
+ Medium_Damage</title>
<path fill="none" stroke="black" d="M381.075,-104.827C389.29,-94.7935 395.851,-82.0611 388.594,-71.7401 380.021,-59.5475 367.721,-50.7272 354.194,-44.3505"/>
<polygon fill="black" stroke="black" points="355.238,-40.9916 344.665,-40.3148 352.508,-47.4374 355.238,-40.9916"/>
<text text-anchor="middle" x="419.594" y="-75.5401" font-family="Times New Roman,serif" font-size="14.00">Crafting 5</text>
</g>
<!-- WhetStone_Wheel&#45;&gt;Axe
+ Small_Damage -->
<g id="edge4" class="edge"><title>WhetStone_Wheel&#45;&gt;Axe
+ Small_Damage</title>
<path fill="none" stroke="black" d="M346.082,-104.96C332.227,-92.0635 313.74,-75.7899 304.594,-71.7401 248.44,-46.8767 227.679,-66.4388 167.594,-53.7401 160.525,-52.246 153.196,-50.4688 145.924,-48.5558"/>
<polygon fill="black" stroke="black" points="146.638,-45.123 136.07,-45.8769 144.801,-51.8778 146.638,-45.123"/>
<text text-anchor="middle" x="351.594" y="-75.5401" font-family="Times New Roman,serif" font-size="14.00">Crafting 2</text>
</g>
<!-- Axe -->
<g id="node5" class="node"><title>Axe</title>
<ellipse fill="none" stroke="black" cx="219.594" cy="-122.74" rx="27" ry="18"/>
<text text-anchor="middle" x="219.594" y="-119.04" font-family="Times New Roman,serif" font-size="14.00">Axe</text>
</g>
<!-- Axe&#45;&gt;Axe
+ Medium_Damage -->
<g id="edge5" class="edge"><title>Axe&#45;&gt;Axe
+ Medium_Damage</title>
<path fill="none" stroke="black" d="M227.781,-105.389C233.649,-93.6689 241.774,-77.4418 249.074,-62.8619"/>
<polygon fill="black" stroke="black" points="252.372,-64.0913 253.72,-53.5825 246.113,-60.9573 252.372,-64.0913"/>
<text text-anchor="middle" x="272.594" y="-75.5401" font-family="Times New Roman,serif" font-size="14.00">Crafting 5</text>
</g>
<!-- Axe&#45;&gt;Axe
+ Small_Damage -->
<g id="edge6" class="edge"><title>Axe&#45;&gt;Axe
+ Small_Damage</title>
<path fill="none" stroke="black" d="M194.313,-116.009C160.133,-108.051 102.618,-93.8328 95.594,-86.7401 89.4339,-80.5198 85.5838,-72.1792 83.194,-63.7358"/>
<polygon fill="black" stroke="black" points="86.594,-62.9009 81.0087,-53.8978 79.7605,-64.4189 86.594,-62.9009"/>
<text text-anchor="middle" x="123.594" y="-75.5401" font-family="Times New Roman,serif" font-size="14.00">Crafting 2</text>
</g>
</g>
</svg>
