<?xml version="1.0" encoding="UTF-8" standalone="no"?>
<!DOCTYPE svg PUBLIC "-//W3C//DTD SVG 1.1//EN"
 "http://www.w3.org/Graphics/SVG/1.1/DTD/svg11.dtd">
<!-- Generated by graphviz version 2.38.0 (20140413.2041)
 -->
<!-- Title: G Pages: 1 -->
<svg width="227pt" height="149pt"
 viewBox="0.00 0.00 227.05 148.74" xmlns="http://www.w3.org/2000/svg" xmlns:xlink="http://www.w3.org/1999/xlink">
<g id="graph0" class="graph" transform="scale(1 1) rotate(0) translate(4 144.74)">
<title>G</title>
<polygon fill="white" stroke="none" points="-4,4 -4,-144.74 223.046,-144.74 223.046,4 -4,4"/>
<!-- Staff
+ Small_EarthDamage -->
<g id="node1" class="node"><title>Staff
+ Small_EarthDamage</title>
<ellipse fill="none" stroke="black" cx="119.344" cy="-26.8701" rx="99.9045" ry="26.7407"/>
<text text-anchor="middle" x="119.344" y="-30.6701" font-family="Times New Roman,serif" font-size="14.00">Staff</text>
<text text-anchor="middle" x="119.344" y="-15.6701" font-family="Times New Roman,serif" font-size="14.00">+ Small_EarthDamage</text>
</g>
<!-- Essence_Earth -->
<g id="node2" class="node"><title>Essence_Earth</title>
<ellipse fill="none" stroke="black" cx="64.3443" cy="-122.74" rx="64.189" ry="18"/>
<text text-anchor="middle" x="64.3443" y="-119.04" font-family="Times New Roman,serif" font-size="14.00">Essence_Earth</text>
</g>
<!-- Essence_Earth&#45;&gt;Staff
+ Small_EarthDamage -->
<g id="edge1" class="edge"><title>Essence_Earth&#45;&gt;Staff
+ Small_EarthDamage</title>
<path fill="none" stroke="black" d="M74.4321,-104.523C81.3662,-92.6884 90.8093,-76.5716 99.2475,-62.1698"/>
<polygon fill="black" stroke="black" points="102.305,-63.8753 104.34,-53.4778 96.2651,-60.3365 102.305,-63.8753"/>
<text text-anchor="middle" x="122.344" y="-75.5401" font-family="Times New Roman,serif" font-size="14.00">Crafting 5</text>
</g>
<!-- Staff -->
<g id="node3" class="node"><title>Staff</title>
<ellipse fill="none" stroke="black" cx="175.344" cy="-122.74" rx="28.6953" ry="18"/>
<text text-anchor="middle" x="175.344" y="-119.04" font-family="Times New Roman,serif" font-size="14.00">Staff</text>
</g>
<!-- Staff&#45;&gt;Staff
+ Small_EarthDamage -->
<g id="edge2" class="edge"><title>Staff&#45;&gt;Staff
+ Small_EarthDamage</title>
<path fill="none" stroke="black" d="M169.185,-105.025C165.225,-95.0623 159.65,-82.3341 153.344,-71.7401 151.35,-68.3893 149.136,-65.0015 146.823,-61.6723"/>
<polygon fill="black" stroke="black" points="149.645,-59.6021 140.934,-53.5716 143.983,-63.7182 149.645,-59.6021"/>
<text text-anchor="middle" x="189.344" y="-75.5401" font-family="Times New Roman,serif" font-size="14.00">Crafting 5</text>
</g>
</g>
</svg>
