<?xml version="1.0" encoding="UTF-8" standalone="no"?>
<!DOCTYPE svg PUBLIC "-//W3C//DTD SVG 1.1//EN"
 "http://www.w3.org/Graphics/SVG/1.1/DTD/svg11.dtd">
<!-- Generated by graphviz version 2.38.0 (20140413.2041)
 -->
<!-- Title: G Pages: 1 -->
<svg width="262pt" height="149pt"
 viewBox="0.00 0.00 262.29 148.74" xmlns="http://www.w3.org/2000/svg" xmlns:xlink="http://www.w3.org/1999/xlink">
<g id="graph0" class="graph" transform="scale(1 1) rotate(0) translate(4 144.74)">
<title>G</title>
<polygon fill="white" stroke="none" points="-4,4 -4,-144.74 258.29,-144.74 258.29,4 -4,4"/>
<!-- ArmorScale
+ Small_EarthResistance -->
<g id="node1" class="node"><title>ArmorScale
+ Small_EarthResistance</title>
<ellipse fill="none" stroke="black" cx="132.344" cy="-26.8701" rx="110.118" ry="26.7407"/>
<text text-anchor="middle" x="132.344" y="-30.6701" font-family="Times New Roman,serif" font-size="14.00">ArmorScale</text>
<text text-anchor="middle" x="132.344" y="-15.6701" font-family="Times New Roman,serif" font-size="14.00">+ Small_EarthResistance</text>
</g>
<!-- Essence_Earth -->
<g id="node2" class="node"><title>Essence_Earth</title>
<ellipse fill="none" stroke="black" cx="64.3443" cy="-122.74" rx="64.189" ry="18"/>
<text text-anchor="middle" x="64.3443" y="-119.04" font-family="Times New Roman,serif" font-size="14.00">Essence_Earth</text>
</g>
<!-- Essence_Earth&#45;&gt;ArmorScale
+ Small_EarthResistance -->
<g id="edge1" class="edge"><title>Essence_Earth&#45;&gt;ArmorScale
+ Small_EarthResistance</title>
<path fill="none" stroke="black" d="M76.5013,-104.958C85.1235,-93.0556 96.9958,-76.6666 107.577,-62.0596"/>
<polygon fill="black" stroke="black" points="110.592,-63.8643 113.624,-53.7126 104.923,-59.7577 110.592,-63.8643"/>
<text text-anchor="middle" x="129.344" y="-75.5401" font-family="Times New Roman,serif" font-size="14.00">Crafting 5</text>
</g>
<!-- ArmorScale -->
<g id="node3" class="node"><title>ArmorScale</title>
<ellipse fill="none" stroke="black" cx="200.344" cy="-122.74" rx="53.8905" ry="18"/>
<text text-anchor="middle" x="200.344" y="-119.04" font-family="Times New Roman,serif" font-size="14.00">ArmorScale</text>
</g>
<!-- ArmorScale&#45;&gt;ArmorScale
+ Small_EarthResistance -->
<g id="edge2" class="edge"><title>ArmorScale&#45;&gt;ArmorScale
+ Small_EarthResistance</title>
<path fill="none" stroke="black" d="M188.187,-104.958C179.565,-93.0556 167.693,-76.6666 157.111,-62.0596"/>
<polygon fill="black" stroke="black" points="159.766,-59.7577 151.065,-53.7126 154.097,-63.8643 159.766,-59.7577"/>
<text text-anchor="middle" x="202.344" y="-75.5401" font-family="Times New Roman,serif" font-size="14.00">Crafting 5</text>
</g>
</g>
</svg>
