<?xml version="1.0" encoding="UTF-8" standalone="no"?>
<!DOCTYPE svg PUBLIC "-//W3C//DTD SVG 1.1//EN"
 "http://www.w3.org/Graphics/SVG/1.1/DTD/svg11.dtd">
<!-- Generated by graphviz version 2.38.0 (20140413.2041)
 -->
<!-- Title: G Pages: 1 -->
<svg width="393pt" height="131pt"
 viewBox="0.00 0.00 392.84 131.00" xmlns="http://www.w3.org/2000/svg" xmlns:xlink="http://www.w3.org/1999/xlink">
<g id="graph0" class="graph" transform="scale(1 1) rotate(0) translate(4 127)">
<title>G</title>
<polygon fill="white" stroke="none" points="-4,4 -4,-127 388.84,-127 388.84,4 -4,4"/>
<!-- Shield_Small_EarthResistance -->
<g id="node1" class="node"><title>Shield_Small_EarthResistance</title>
<ellipse fill="none" stroke="black" cx="189.295" cy="-18" rx="120.779" ry="18"/>
<text text-anchor="middle" x="189.295" y="-14.3" font-family="Times New Roman,serif" font-size="14.00">Shield_Small_EarthResistance</text>
</g>
<!-- ShieldMetal -->
<g id="node2" class="node"><title>ShieldMetal</title>
<ellipse fill="none" stroke="black" cx="53.2953" cy="-105" rx="53.0913" ry="18"/>
<text text-anchor="middle" x="53.2953" y="-101.3" font-family="Times New Roman,serif" font-size="14.00">ShieldMetal</text>
</g>
<!-- ShieldMetal&#45;&gt;Shield_Small_EarthResistance -->
<g id="edge1" class="edge"><title>ShieldMetal&#45;&gt;Shield_Small_EarthResistance</title>
<path fill="none" stroke="black" d="M76.036,-88.5787C91.0299,-78.5253 111.174,-65.2351 129.295,-54 136.286,-49.666 143.81,-45.1571 151.088,-40.874"/>
<polygon fill="black" stroke="black" points="153.247,-43.6664 160.115,-35.5998 149.715,-37.6223 153.247,-43.6664"/>
<text text-anchor="middle" x="157.295" y="-57.8" font-family="Times New Roman,serif" font-size="14.00">Crafting 4</text>
</g>
<!-- Essence_Earth -->
<g id="node3" class="node"><title>Essence_Earth</title>
<ellipse fill="none" stroke="black" cx="189.295" cy="-105" rx="64.189" ry="18"/>
<text text-anchor="middle" x="189.295" y="-101.3" font-family="Times New Roman,serif" font-size="14.00">Essence_Earth</text>
</g>
<!-- Essence_Earth&#45;&gt;Shield_Small_EarthResistance -->
<g id="edge3" class="edge"><title>Essence_Earth&#45;&gt;Shield_Small_EarthResistance</title>
<path fill="none" stroke="black" d="M189.295,-86.799C189.295,-75.1626 189.295,-59.5479 189.295,-46.2368"/>
<polygon fill="black" stroke="black" points="192.795,-46.1754 189.295,-36.1754 185.795,-46.1755 192.795,-46.1754"/>
<text text-anchor="middle" x="217.295" y="-57.8" font-family="Times New Roman,serif" font-size="14.00">Crafting 4</text>
</g>
<!-- ShieldWood -->
<g id="node4" class="node"><title>ShieldWood</title>
<ellipse fill="none" stroke="black" cx="328.295" cy="-105" rx="56.59" ry="18"/>
<text text-anchor="middle" x="328.295" y="-101.3" font-family="Times New Roman,serif" font-size="14.00">ShieldWood</text>
</g>
<!-- ShieldWood&#45;&gt;Shield_Small_EarthResistance -->
<g id="edge2" class="edge"><title>ShieldWood&#45;&gt;Shield_Small_EarthResistance</title>
<path fill="none" stroke="black" d="M304.234,-88.4539C288.655,-78.4672 267.881,-65.2975 249.295,-54 242.194,-49.6838 234.569,-45.1554 227.216,-40.8417"/>
<polygon fill="black" stroke="black" points="228.509,-37.5436 218.108,-35.5247 224.98,-43.589 228.509,-37.5436"/>
<text text-anchor="middle" x="302.295" y="-57.8" font-family="Times New Roman,serif" font-size="14.00">Crafting 4</text>
</g>
</g>
</svg>
