<?xml version="1.0" encoding="UTF-8" standalone="no"?>
<!DOCTYPE svg PUBLIC "-//W3C//DTD SVG 1.1//EN"
 "http://www.w3.org/Graphics/SVG/1.1/DTD/svg11.dtd">
<!-- Generated by graphviz version 2.38.0 (20140413.2041)
 -->
<!-- Title: G Pages: 1 -->
<svg width="253pt" height="149pt"
 viewBox="0.00 0.00 253.44 148.74" xmlns="http://www.w3.org/2000/svg" xmlns:xlink="http://www.w3.org/1999/xlink">
<g id="graph0" class="graph" transform="scale(1 1) rotate(0) translate(4 144.74)">
<title>G</title>
<polygon fill="white" stroke="none" points="-4,4 -4,-144.74 249.438,-144.74 249.438,4 -4,4"/>
<!-- Garment -->
<g id="node1" class="node"><title>Garment</title>
<ellipse fill="none" stroke="black" cx="49.8442" cy="-122.74" rx="42.4939" ry="18"/>
<text text-anchor="middle" x="49.8442" y="-119.04" font-family="Times New Roman,serif" font-size="14.00">Garment</text>
</g>
<!-- Garment
+ Small_WaterResistance -->
<g id="node2" class="node"><title>Garment
+ Small_WaterResistance</title>
<ellipse fill="none" stroke="black" cx="113.844" cy="-26.8701" rx="113.689" ry="26.7407"/>
<text text-anchor="middle" x="113.844" y="-30.6701" font-family="Times New Roman,serif" font-size="14.00">Garment</text>
<text text-anchor="middle" x="113.844" y="-15.6701" font-family="Times New Roman,serif" font-size="14.00">+ Small_WaterResistance</text>
</g>
<!-- Garment&#45;&gt;Garment
+ Small_WaterResistance -->
<g id="edge1" class="edge"><title>Garment&#45;&gt;Garment
+ Small_WaterResistance</title>
<path fill="none" stroke="black" d="M61.2861,-104.958C69.4011,-93.0556 80.575,-76.6666 90.534,-62.0596"/>
<polygon fill="black" stroke="black" points="93.4835,-63.9466 96.2249,-53.7126 87.6998,-60.0033 93.4835,-63.9466"/>
<text text-anchor="middle" x="111.844" y="-75.5401" font-family="Times New Roman,serif" font-size="14.00">Crafting 2</text>
</g>
<!-- Essence_Water -->
<g id="node3" class="node"><title>Essence_Water</title>
<ellipse fill="none" stroke="black" cx="177.844" cy="-122.74" rx="67.6881" ry="18"/>
<text text-anchor="middle" x="177.844" y="-119.04" font-family="Times New Roman,serif" font-size="14.00">Essence_Water</text>
</g>
<!-- Essence_Water&#45;&gt;Garment
+ Small_WaterResistance -->
<g id="edge2" class="edge"><title>Essence_Water&#45;&gt;Garment
+ Small_WaterResistance</title>
<path fill="none" stroke="black" d="M166.211,-104.608C159.649,-94.951 151.296,-82.6679 143.844,-71.7401 141.745,-68.6623 139.562,-65.464 137.374,-62.26"/>
<polygon fill="black" stroke="black" points="140.154,-60.1252 131.622,-53.8436 134.375,-64.0747 140.154,-60.1252"/>
<text text-anchor="middle" x="181.844" y="-75.5401" font-family="Times New Roman,serif" font-size="14.00">Crafting 2</text>
</g>
</g>
</svg>
