<?xml version="1.0" encoding="UTF-8" standalone="no"?>
<!DOCTYPE svg PUBLIC "-//W3C//DTD SVG 1.1//EN"
 "http://www.w3.org/Graphics/SVG/1.1/DTD/svg11.dtd">
<!-- Generated by graphviz version 2.38.0 (20140413.2041)
 -->
<!-- Title: G Pages: 1 -->
<svg width="247pt" height="149pt"
 viewBox="0.00 0.00 247.04 148.74" xmlns="http://www.w3.org/2000/svg" xmlns:xlink="http://www.w3.org/1999/xlink">
<g id="graph0" class="graph" transform="scale(1 1) rotate(0) translate(4 144.74)">
<title>G</title>
<polygon fill="white" stroke="none" points="-4,4 -4,-144.74 243.038,-144.74 243.038,4 -4,4"/>
<!-- Soul_Tormented -->
<g id="node1" class="node"><title>Soul_Tormented</title>
<ellipse fill="none" stroke="black" cx="72.1436" cy="-122.74" rx="72.2875" ry="18"/>
<text text-anchor="middle" x="72.1436" y="-119.04" font-family="Times New Roman,serif" font-size="14.00">Soul_Tormented</text>
</g>
<!-- Axe
+ Small_TormentedSoul -->
<g id="node2" class="node"><title>Axe
+ Small_TormentedSoul</title>
<ellipse fill="none" stroke="black" cx="130.144" cy="-26.8701" rx="108.789" ry="26.7407"/>
<text text-anchor="middle" x="130.144" y="-30.6701" font-family="Times New Roman,serif" font-size="14.00">Axe</text>
<text text-anchor="middle" x="130.144" y="-15.6701" font-family="Times New Roman,serif" font-size="14.00">+ Small_TormentedSoul</text>
</g>
<!-- Soul_Tormented&#45;&gt;Axe
+ Small_TormentedSoul -->
<g id="edge1" class="edge"><title>Soul_Tormented&#45;&gt;Axe
+ Small_TormentedSoul</title>
<path fill="none" stroke="black" d="M82.7817,-104.523C90.094,-92.6884 100.052,-76.5716 108.951,-62.1698"/>
<polygon fill="black" stroke="black" points="112.042,-63.8247 114.321,-53.4778 106.087,-60.1452 112.042,-63.8247"/>
<text text-anchor="middle" x="131.144" y="-75.5401" font-family="Times New Roman,serif" font-size="14.00">Crafting 5</text>
</g>
<!-- Axe -->
<g id="node3" class="node"><title>Axe</title>
<ellipse fill="none" stroke="black" cx="189.144" cy="-122.74" rx="27" ry="18"/>
<text text-anchor="middle" x="189.144" y="-119.04" font-family="Times New Roman,serif" font-size="14.00">Axe</text>
</g>
<!-- Axe&#45;&gt;Axe
+ Small_TormentedSoul -->
<g id="edge2" class="edge"><title>Axe&#45;&gt;Axe
+ Small_TormentedSoul</title>
<path fill="none" stroke="black" d="M181.376,-105.147C176.523,-95.2271 169.924,-82.5015 163.144,-71.7401 161.032,-68.3887 158.736,-64.9691 156.372,-61.5919"/>
<polygon fill="black" stroke="black" points="159.11,-59.4056 150.419,-53.3472 153.435,-63.5035 159.11,-59.4056"/>
<text text-anchor="middle" x="199.144" y="-75.5401" font-family="Times New Roman,serif" font-size="14.00">Crafting 5</text>
</g>
</g>
</svg>
