<?xml version="1.0" encoding="UTF-8" standalone="no"?>
<!DOCTYPE svg PUBLIC "-//W3C//DTD SVG 1.1//EN"
 "http://www.w3.org/Graphics/SVG/1.1/DTD/svg11.dtd">
<!-- Generated by graphviz version 2.38.0 (20140413.2041)
 -->
<!-- Title: G Pages: 1 -->
<svg width="300pt" height="149pt"
 viewBox="0.00 0.00 300.14 148.74" xmlns="http://www.w3.org/2000/svg" xmlns:xlink="http://www.w3.org/1999/xlink">
<g id="graph0" class="graph" transform="scale(1 1) rotate(0) translate(4 144.74)">
<title>G</title>
<polygon fill="white" stroke="none" points="-4,4 -4,-144.74 296.138,-144.74 296.138,4 -4,4"/>
<!-- ArmorLeather
+ Small_Sneaking -->
<g id="node1" class="node"><title>ArmorLeather
+ Small_Sneaking</title>
<ellipse fill="none" stroke="black" cx="152.393" cy="-26.8701" rx="82.9636" ry="26.7407"/>
<text text-anchor="middle" x="152.393" y="-30.6701" font-family="Times New Roman,serif" font-size="14.00">ArmorLeather</text>
<text text-anchor="middle" x="152.393" y="-15.6701" font-family="Times New Roman,serif" font-size="14.00">+ Small_Sneaking</text>
</g>
<!-- Essence_Shadow -->
<g id="node2" class="node"><title>Essence_Shadow</title>
<ellipse fill="none" stroke="black" cx="75.3933" cy="-122.74" rx="75.2868" ry="18"/>
<text text-anchor="middle" x="75.3933" y="-119.04" font-family="Times New Roman,serif" font-size="14.00">Essence_Shadow</text>
</g>
<!-- Essence_Shadow&#45;&gt;ArmorLeather
+ Small_Sneaking -->
<g id="edge1" class="edge"><title>Essence_Shadow&#45;&gt;ArmorLeather
+ Small_Sneaking</title>
<path fill="none" stroke="black" d="M89.1594,-104.958C99.16,-92.7663 113.022,-75.8675 125.219,-60.9981"/>
<polygon fill="black" stroke="black" points="128.153,-62.9403 131.789,-52.9889 122.741,-58.5008 128.153,-62.9403"/>
<text text-anchor="middle" x="144.393" y="-75.5401" font-family="Times New Roman,serif" font-size="14.00">Crafting 4</text>
</g>
<!-- ArmorLeather -->
<g id="node3" class="node"><title>ArmorLeather</title>
<ellipse fill="none" stroke="black" cx="230.393" cy="-122.74" rx="61.99" ry="18"/>
<text text-anchor="middle" x="230.393" y="-119.04" font-family="Times New Roman,serif" font-size="14.00">ArmorLeather</text>
</g>
<!-- ArmorLeather&#45;&gt;ArmorLeather
+ Small_Sneaking -->
<g id="edge2" class="edge"><title>ArmorLeather&#45;&gt;ArmorLeather
+ Small_Sneaking</title>
<path fill="none" stroke="black" d="M216.448,-104.958C206.318,-92.7663 192.276,-75.8675 179.921,-60.9981"/>
<polygon fill="black" stroke="black" points="182.348,-58.4433 173.265,-52.9889 176.964,-62.917 182.348,-58.4433"/>
<text text-anchor="middle" x="228.393" y="-75.5401" font-family="Times New Roman,serif" font-size="14.00">Crafting 4</text>
</g>
</g>
</svg>
