<?xml version="1.0" encoding="UTF-8" standalone="no"?>
<!DOCTYPE svg PUBLIC "-//W3C//DTD SVG 1.1//EN"
 "http://www.w3.org/Graphics/SVG/1.1/DTD/svg11.dtd">
<!-- Generated by graphviz version 2.38.0 (20140413.2041)
 -->
<!-- Title: G Pages: 1 -->
<svg width="695pt" height="236pt"
 viewBox="0.00 0.00 695.14 235.74" xmlns="http://www.w3.org/2000/svg" xmlns:xlink="http://www.w3.org/1999/xlink">
<g id="graph0" class="graph" transform="scale(1 1) rotate(0) translate(4 231.74)">
<title>G</title>
<polygon fill="white" stroke="none" points="-4,4 -4,-231.74 691.142,-231.74 691.142,4 -4,4"/>
<!-- ClothArmor -->
<g id="node1" class="node"><title>ClothArmor</title>
<ellipse fill="none" stroke="black" cx="54.5952" cy="-122.74" rx="54.6905" ry="18"/>
<text text-anchor="middle" x="54.5952" y="-119.04" font-family="Times New Roman,serif" font-size="14.00">ClothArmor</text>
</g>
<!-- Armor
+ Small_ArmorDefense -->
<g id="node8" class="node"><title>Armor
+ Small_ArmorDefense</title>
<ellipse fill="none" stroke="black" cx="245.595" cy="-26.8701" rx="105.218" ry="26.7407"/>
<text text-anchor="middle" x="245.595" y="-30.6701" font-family="Times New Roman,serif" font-size="14.00">Armor</text>
<text text-anchor="middle" x="245.595" y="-15.6701" font-family="Times New Roman,serif" font-size="14.00">+ Small_ArmorDefense</text>
</g>
<!-- ClothArmor&#45;&gt;Armor
+ Small_ArmorDefense -->
<g id="edge1" class="edge"><title>ClothArmor&#45;&gt;Armor
+ Small_ArmorDefense</title>
<path fill="none" stroke="black" d="M82.1442,-106.949C101.239,-96.8055 127.317,-83.169 150.595,-71.7401 161.919,-66.1807 174.088,-60.4096 185.813,-54.9506"/>
<polygon fill="black" stroke="black" points="187.493,-58.0295 195.095,-50.6496 184.55,-51.6782 187.493,-58.0295"/>
<text text-anchor="middle" x="178.595" y="-75.5401" font-family="Times New Roman,serif" font-size="14.00">Crafting 4</text>
</g>
<!-- Dagger -->
<g id="node2" class="node"><title>Dagger</title>
<ellipse fill="none" stroke="black" cx="438.595" cy="-209.74" rx="36.2938" ry="18"/>
<text text-anchor="middle" x="438.595" y="-206.04" font-family="Times New Roman,serif" font-size="14.00">Dagger</text>
</g>
<!-- Scraps_Leather -->
<g id="node7" class="node"><title>Scraps_Leather</title>
<ellipse fill="none" stroke="black" cx="523.595" cy="-122.74" rx="67.6881" ry="18"/>
<text text-anchor="middle" x="523.595" y="-119.04" font-family="Times New Roman,serif" font-size="14.00">Scraps_Leather</text>
</g>
<!-- Dagger&#45;&gt;Scraps_Leather -->
<g id="edge2" class="edge"><title>Dagger&#45;&gt;Scraps_Leather</title>
<path fill="none" stroke="black" d="M448.799,-192.444C455.671,-182.158 465.327,-168.936 475.595,-158.74 480.11,-154.257 485.236,-149.903 490.416,-145.875"/>
<polygon fill="black" stroke="black" points="492.589,-148.62 498.522,-139.842 488.41,-143.005 492.589,-148.62"/>
<text text-anchor="middle" x="503.595" y="-162.54" font-family="Times New Roman,serif" font-size="14.00">Crafting 1</text>
</g>
<!-- CookingPot -->
<g id="node3" class="node"><title>CookingPot</title>
<ellipse fill="none" stroke="black" cx="222.595" cy="-209.74" rx="54.6905" ry="18"/>
<text text-anchor="middle" x="222.595" y="-206.04" font-family="Times New Roman,serif" font-size="14.00">CookingPot</text>
</g>
<!-- FUR_BoilingPot -->
<g id="node5" class="node"><title>FUR_BoilingPot</title>
<ellipse fill="none" stroke="black" cx="339.595" cy="-122.74" rx="71.4873" ry="18"/>
<text text-anchor="middle" x="339.595" y="-119.04" font-family="Times New Roman,serif" font-size="14.00">FUR_BoilingPot</text>
</g>
<!-- CookingPot&#45;&gt;FUR_BoilingPot -->
<g id="edge3" class="edge"><title>CookingPot&#45;&gt;FUR_BoilingPot</title>
<path fill="none" stroke="black" d="M239.34,-192.519C250.335,-182.264 265.281,-169.047 279.595,-158.74 286.559,-153.726 294.287,-148.795 301.816,-144.289"/>
<polygon fill="black" stroke="black" points="303.636,-147.279 310.506,-139.214 300.106,-141.234 303.636,-147.279"/>
<text text-anchor="middle" x="307.595" y="-162.54" font-family="Times New Roman,serif" font-size="14.00">Crafting 0</text>
</g>
<!-- ArmorLeather -->
<g id="node4" class="node"><title>ArmorLeather</title>
<ellipse fill="none" stroke="black" cx="188.595" cy="-122.74" rx="61.99" ry="18"/>
<text text-anchor="middle" x="188.595" y="-119.04" font-family="Times New Roman,serif" font-size="14.00">ArmorLeather</text>
</g>
<!-- ArmorLeather&#45;&gt;Armor
+ Small_ArmorDefense -->
<g id="edge8" class="edge"><title>ArmorLeather&#45;&gt;Armor
+ Small_ArmorDefense</title>
<path fill="none" stroke="black" d="M198.786,-104.958C205.946,-93.1668 215.779,-76.9725 224.586,-62.4696"/>
<polygon fill="black" stroke="black" points="227.704,-64.0768 229.903,-53.7126 221.721,-60.4436 227.704,-64.0768"/>
<text text-anchor="middle" x="247.595" y="-75.5401" font-family="Times New Roman,serif" font-size="14.00">Crafting 2</text>
</g>
<!-- FUR_BoilingPot&#45;&gt;Armor
+ Small_ArmorDefense -->
<g id="edge4" class="edge"><title>FUR_BoilingPot&#45;&gt;Armor
+ Small_ArmorDefense</title>
<path fill="none" stroke="black" d="M322.79,-104.958C310.355,-92.5406 293.031,-75.24 277.944,-60.1741"/>
<polygon fill="black" stroke="black" points="280.298,-57.5785 270.749,-52.9889 275.352,-62.5317 280.298,-57.5785"/>
<text text-anchor="middle" x="332.595" y="-75.5401" font-family="Times New Roman,serif" font-size="14.00">Crafting 2</text>
</g>
<!-- Campfire -->
<g id="node6" class="node"><title>Campfire</title>
<ellipse fill="none" stroke="black" cx="339.595" cy="-209.74" rx="44.393" ry="18"/>
<text text-anchor="middle" x="339.595" y="-206.04" font-family="Times New Roman,serif" font-size="14.00">Campfire</text>
</g>
<!-- Campfire&#45;&gt;FUR_BoilingPot -->
<g id="edge6" class="edge"><title>Campfire&#45;&gt;FUR_BoilingPot</title>
<path fill="none" stroke="black" d="M339.595,-191.539C339.595,-179.903 339.595,-164.288 339.595,-150.977"/>
<polygon fill="black" stroke="black" points="343.095,-150.916 339.595,-140.916 336.095,-150.916 343.095,-150.916"/>
<text text-anchor="middle" x="367.595" y="-162.54" font-family="Times New Roman,serif" font-size="14.00">Crafting 0</text>
</g>
<!-- Scraps_Leather&#45;&gt;Armor
+ Small_ArmorDefense -->
<g id="edge7" class="edge"><title>Scraps_Leather&#45;&gt;Armor
+ Small_ArmorDefense</title>
<path fill="none" stroke="black" d="M483.468,-108.191C440.011,-93.517 369.821,-69.8164 316.925,-51.9553"/>
<polygon fill="black" stroke="black" points="317.854,-48.5749 307.259,-48.6917 315.614,-55.207 317.854,-48.5749"/>
<text text-anchor="middle" x="446.595" y="-75.5401" font-family="Times New Roman,serif" font-size="14.00">Crafting 4</text>
</g>
<!-- Hide_Animal -->
<g id="node9" class="node"><title>Hide_Animal</title>
<ellipse fill="none" stroke="black" cx="550.595" cy="-209.74" rx="57.6901" ry="18"/>
<text text-anchor="middle" x="550.595" y="-206.04" font-family="Times New Roman,serif" font-size="14.00">Hide_Animal</text>
</g>
<!-- Hide_Animal&#45;&gt;Scraps_Leather -->
<g id="edge5" class="edge"><title>Hide_Animal&#45;&gt;Scraps_Leather</title>
<path fill="none" stroke="black" d="M545.131,-191.539C541.398,-179.787 536.377,-163.978 532.121,-150.582"/>
<polygon fill="black" stroke="black" points="535.414,-149.387 529.051,-140.916 528.743,-151.506 535.414,-149.387"/>
<text text-anchor="middle" x="567.595" y="-162.54" font-family="Times New Roman,serif" font-size="14.00">Crafting 1</text>
</g>
<!-- Knife -->
<g id="node10" class="node"><title>Knife</title>
<ellipse fill="none" stroke="black" cx="656.595" cy="-209.74" rx="30.5947" ry="18"/>
<text text-anchor="middle" x="656.595" y="-206.04" font-family="Times New Roman,serif" font-size="14.00">Knife</text>
</g>
<!-- Knife&#45;&gt;Scraps_Leather -->
<g id="edge9" class="edge"><title>Knife&#45;&gt;Scraps_Leather</title>
<path fill="none" stroke="black" d="M642.079,-193.881C631.096,-183.189 615.273,-168.919 599.595,-158.74 590.267,-152.684 579.72,-147.12 569.519,-142.295"/>
<polygon fill="black" stroke="black" points="570.842,-139.052 560.292,-138.079 567.933,-145.418 570.842,-139.052"/>
<text text-anchor="middle" x="648.595" y="-162.54" font-family="Times New Roman,serif" font-size="14.00">Crafting 1</text>
</g>
</g>
</svg>
