<?xml version="1.0" encoding="UTF-8" standalone="no"?>
<!DOCTYPE svg PUBLIC "-//W3C//DTD SVG 1.1//EN"
 "http://www.w3.org/Graphics/SVG/1.1/DTD/svg11.dtd">
<!-- Generated by graphviz version 2.38.0 (20140413.2041)
 -->
<!-- Title: G Pages: 1 -->
<svg width="284pt" height="149pt"
 viewBox="0.00 0.00 284.34 148.74" xmlns="http://www.w3.org/2000/svg" xmlns:xlink="http://www.w3.org/1999/xlink">
<g id="graph0" class="graph" transform="scale(1 1) rotate(0) translate(4 144.74)">
<title>G</title>
<polygon fill="white" stroke="none" points="-4,4 -4,-144.74 280.339,-144.74 280.339,4 -4,4"/>
<!-- Essence_Shadow -->
<g id="node1" class="node"><title>Essence_Shadow</title>
<ellipse fill="none" stroke="black" cx="75.3933" cy="-122.74" rx="75.2868" ry="18"/>
<text text-anchor="middle" x="75.3933" y="-119.04" font-family="Times New Roman,serif" font-size="14.00">Essence_Shadow</text>
</g>
<!-- ArmorScale
+ Small_Sneaking -->
<g id="node2" class="node"><title>ArmorScale
+ Small_Sneaking</title>
<ellipse fill="none" stroke="black" cx="148.393" cy="-26.8701" rx="82.9636" ry="26.7407"/>
<text text-anchor="middle" x="148.393" y="-30.6701" font-family="Times New Roman,serif" font-size="14.00">ArmorScale</text>
<text text-anchor="middle" x="148.393" y="-15.6701" font-family="Times New Roman,serif" font-size="14.00">+ Small_Sneaking</text>
</g>
<!-- Essence_Shadow&#45;&gt;ArmorScale
+ Small_Sneaking -->
<g id="edge2" class="edge"><title>Essence_Shadow&#45;&gt;ArmorScale
+ Small_Sneaking</title>
<path fill="none" stroke="black" d="M88.4442,-104.958C97.9254,-92.7663 111.067,-75.8675 122.631,-60.9981"/>
<polygon fill="black" stroke="black" points="125.483,-63.0315 128.859,-52.9889 119.957,-58.7342 125.483,-63.0315"/>
<text text-anchor="middle" x="142.393" y="-75.5401" font-family="Times New Roman,serif" font-size="14.00">Crafting 4</text>
</g>
<!-- ArmorScale -->
<g id="node3" class="node"><title>ArmorScale</title>
<ellipse fill="none" stroke="black" cx="222.393" cy="-122.74" rx="53.8905" ry="18"/>
<text text-anchor="middle" x="222.393" y="-119.04" font-family="Times New Roman,serif" font-size="14.00">ArmorScale</text>
</g>
<!-- ArmorScale&#45;&gt;ArmorScale
+ Small_Sneaking -->
<g id="edge1" class="edge"><title>ArmorScale&#45;&gt;ArmorScale
+ Small_Sneaking</title>
<path fill="none" stroke="black" d="M209.164,-104.958C199.553,-92.7663 186.231,-75.8675 174.509,-60.9981"/>
<polygon fill="black" stroke="black" points="177.135,-58.6753 168.195,-52.9889 171.637,-63.0089 177.135,-58.6753"/>
<text text-anchor="middle" x="221.393" y="-75.5401" font-family="Times New Roman,serif" font-size="14.00">Crafting 4</text>
</g>
</g>
</svg>
