<?xml version="1.0" encoding="UTF-8" standalone="no"?>
<!DOCTYPE svg PUBLIC "-//W3C//DTD SVG 1.1//EN"
 "http://www.w3.org/Graphics/SVG/1.1/DTD/svg11.dtd">
<!-- Generated by graphviz version 2.38.0 (20140413.2041)
 -->
<!-- Title: G Pages: 1 -->
<svg width="214pt" height="149pt"
 viewBox="0.00 0.00 213.59 148.74" xmlns="http://www.w3.org/2000/svg" xmlns:xlink="http://www.w3.org/1999/xlink">
<g id="graph0" class="graph" transform="scale(1 1) rotate(0) translate(4 144.74)">
<title>G</title>
<polygon fill="white" stroke="none" points="-4,4 -4,-144.74 209.592,-144.74 209.592,4 -4,4"/>
<!-- LeatherHelmet
+ Small_AllResist -->
<g id="node1" class="node"><title>LeatherHelmet
+ Small_AllResist</title>
<ellipse fill="none" stroke="black" cx="86.5473" cy="-26.8701" rx="82.9636" ry="26.7407"/>
<text text-anchor="middle" x="86.5473" y="-30.6701" font-family="Times New Roman,serif" font-size="14.00">LeatherHelmet</text>
<text text-anchor="middle" x="86.5473" y="-15.6701" font-family="Times New Roman,serif" font-size="14.00">+ Small_AllResist</text>
</g>
<!-- Ruby -->
<g id="node2" class="node"><title>Ruby</title>
<ellipse fill="none" stroke="black" cx="30.5473" cy="-122.74" rx="30.5947" ry="18"/>
<text text-anchor="middle" x="30.5473" y="-119.04" font-family="Times New Roman,serif" font-size="14.00">Ruby</text>
</g>
<!-- Ruby&#45;&gt;LeatherHelmet
+ Small_AllResist -->
<g id="edge1" class="edge"><title>Ruby&#45;&gt;LeatherHelmet
+ Small_AllResist</title>
<path fill="none" stroke="black" d="M40.3017,-105.389C47.3603,-93.5572 57.1589,-77.1323 65.9205,-62.4457"/>
<polygon fill="black" stroke="black" points="69.0905,-63.9636 71.208,-53.5825 63.0789,-60.3773 69.0905,-63.9636"/>
<text text-anchor="middle" x="88.5473" y="-75.5401" font-family="Times New Roman,serif" font-size="14.00">Crafting 5</text>
</g>
<!-- LeatherHelmet -->
<g id="node3" class="node"><title>LeatherHelmet</title>
<ellipse fill="none" stroke="black" cx="142.547" cy="-122.74" rx="63.0888" ry="18"/>
<text text-anchor="middle" x="142.547" y="-119.04" font-family="Times New Roman,serif" font-size="14.00">LeatherHelmet</text>
</g>
<!-- LeatherHelmet&#45;&gt;LeatherHelmet
+ Small_AllResist -->
<g id="edge2" class="edge"><title>LeatherHelmet&#45;&gt;LeatherHelmet
+ Small_AllResist</title>
<path fill="none" stroke="black" d="M136.204,-104.563C132.256,-94.6712 126.756,-82.1712 120.547,-71.7401 118.499,-68.2987 116.219,-64.8184 113.838,-61.4025"/>
<polygon fill="black" stroke="black" points="116.503,-59.1177 107.781,-53.1031 110.849,-63.2441 116.503,-59.1177"/>
<text text-anchor="middle" x="156.547" y="-75.5401" font-family="Times New Roman,serif" font-size="14.00">Crafting 5</text>
</g>
</g>
</svg>
