<?xml version="1.0" encoding="UTF-8" standalone="no"?>
<!DOCTYPE svg PUBLIC "-//W3C//DTD SVG 1.1//EN"
 "http://www.w3.org/Graphics/SVG/1.1/DTD/svg11.dtd">
<!-- Generated by graphviz version 2.38.0 (20140413.2041)
 -->
<!-- Title: G Pages: 1 -->
<svg width="1806pt" height="566pt"
 viewBox="0.00 0.00 1806.48 566.00" xmlns="http://www.w3.org/2000/svg" xmlns:xlink="http://www.w3.org/1999/xlink">
<g id="graph0" class="graph" transform="scale(1 1) rotate(0) translate(4 562)">
<title>G</title>
<polygon fill="white" stroke="none" points="-4,4 -4,-562 1802.48,-562 1802.48,4 -4,4"/>
<!-- Log -->
<g id="node1" class="node"><title>Log</title>
<ellipse fill="none" stroke="black" cx="1371.04" cy="-540" rx="27" ry="18"/>
<text text-anchor="middle" x="1371.04" y="-536.3" font-family="Times New Roman,serif" font-size="14.00">Log</text>
</g>
<!-- Scraps_Wood -->
<g id="node36" class="node"><title>Scraps_Wood</title>
<ellipse fill="none" stroke="black" cx="1357.04" cy="-453" rx="64.189" ry="18"/>
<text text-anchor="middle" x="1357.04" y="-449.3" font-family="Times New Roman,serif" font-size="14.00">Scraps_Wood</text>
</g>
<!-- Log&#45;&gt;Scraps_Wood -->
<g id="edge1" class="edge"><title>Log&#45;&gt;Scraps_Wood</title>
<path fill="none" stroke="black" d="M1368.21,-521.799C1366.29,-510.163 1363.72,-494.548 1361.52,-481.237"/>
<polygon fill="black" stroke="black" points="1364.95,-480.474 1359.87,-471.175 1358.04,-481.611 1364.95,-480.474"/>
<text text-anchor="middle" x="1393.04" y="-492.8" font-family="Times New Roman,serif" font-size="14.00">Crafting 0</text>
</g>
<!-- SKILLBOOK_Shield_Water -->
<g id="node2" class="node"><title>SKILLBOOK_Shield_Water</title>
<ellipse fill="none" stroke="black" cx="923.039" cy="-18" rx="116.18" ry="18"/>
<text text-anchor="middle" x="923.039" y="-14.3" font-family="Times New Roman,serif" font-size="14.00">SKILLBOOK_Shield_Water</text>
</g>
<!-- Scraps_Wood_A_Mush -->
<g id="node3" class="node"><title>Scraps_Wood_A_Mush</title>
<ellipse fill="none" stroke="black" cx="1100.04" cy="-366" rx="100.983" ry="18"/>
<text text-anchor="middle" x="1100.04" y="-362.3" font-family="Times New Roman,serif" font-size="14.00">Scraps_Wood_A_Mush</text>
</g>
<!-- BOOK_Paper_Sheet -->
<g id="node13" class="node"><title>BOOK_Paper_Sheet</title>
<ellipse fill="none" stroke="black" cx="899.039" cy="-279" rx="87.1846" ry="18"/>
<text text-anchor="middle" x="899.039" y="-275.3" font-family="Times New Roman,serif" font-size="14.00">BOOK_Paper_Sheet</text>
</g>
<!-- Scraps_Wood_A_Mush&#45;&gt;BOOK_Paper_Sheet -->
<g id="edge2" class="edge"><title>Scraps_Wood_A_Mush&#45;&gt;BOOK_Paper_Sheet</title>
<path fill="none" stroke="black" d="M1062.7,-349.211C1029.35,-335.108 980.398,-314.406 944.722,-299.319"/>
<polygon fill="black" stroke="black" points="946.07,-296.089 935.496,-295.417 943.344,-302.536 946.07,-296.089"/>
<text text-anchor="middle" x="1040.04" y="-318.8" font-family="Times New Roman,serif" font-size="14.00">Crafting 0</text>
</g>
<!-- Pouch_Dust_Bone -->
<g id="node4" class="node"><title>Pouch_Dust_Bone</title>
<ellipse fill="none" stroke="black" cx="689.039" cy="-366" rx="79.8859" ry="18"/>
<text text-anchor="middle" x="689.039" y="-362.3" font-family="Times New Roman,serif" font-size="14.00">Pouch_Dust_Bone</text>
</g>
<!-- Pouch_Dust_Pixie -->
<g id="node20" class="node"><title>Pouch_Dust_Pixie</title>
<ellipse fill="none" stroke="black" cx="689.039" cy="-279" rx="78.7863" ry="18"/>
<text text-anchor="middle" x="689.039" y="-275.3" font-family="Times New Roman,serif" font-size="14.00">Pouch_Dust_Pixie</text>
</g>
<!-- Pouch_Dust_Bone&#45;&gt;Pouch_Dust_Pixie -->
<g id="edge3" class="edge"><title>Pouch_Dust_Bone&#45;&gt;Pouch_Dust_Pixie</title>
<path fill="none" stroke="black" d="M689.039,-347.799C689.039,-336.163 689.039,-320.548 689.039,-307.237"/>
<polygon fill="black" stroke="black" points="692.539,-307.175 689.039,-297.175 685.539,-307.175 692.539,-307.175"/>
<text text-anchor="middle" x="717.039" y="-318.8" font-family="Times New Roman,serif" font-size="14.00">Crafting 0</text>
</g>
<!-- SKILLBOOK_Cone_Winterbreath -->
<g id="node5" class="node"><title>SKILLBOOK_Cone_Winterbreath</title>
<ellipse fill="none" stroke="black" cx="651.039" cy="-18" rx="137.576" ry="18"/>
<text text-anchor="middle" x="651.039" y="-14.3" font-family="Times New Roman,serif" font-size="14.00">SKILLBOOK_Cone_Winterbreath</text>
</g>
<!-- Bucket_A_Water -->
<g id="node6" class="node"><title>Bucket_A_Water</title>
<ellipse fill="none" stroke="black" cx="1017.04" cy="-453" rx="74.187" ry="18"/>
<text text-anchor="middle" x="1017.04" y="-449.3" font-family="Times New Roman,serif" font-size="14.00">Bucket_A_Water</text>
</g>
<!-- Bucket_A_Water&#45;&gt;Scraps_Wood_A_Mush -->
<g id="edge4" class="edge"><title>Bucket_A_Water&#45;&gt;Scraps_Wood_A_Mush</title>
<path fill="none" stroke="black" d="M1029.17,-435.044C1036.71,-424.995 1046.86,-412.262 1057.04,-402 1061.02,-397.984 1065.44,-393.969 1069.88,-390.164"/>
<polygon fill="black" stroke="black" points="1072.36,-392.663 1077.83,-383.59 1067.89,-387.27 1072.36,-392.663"/>
<text text-anchor="middle" x="1085.04" y="-405.8" font-family="Times New Roman,serif" font-size="14.00">Crafting 0</text>
</g>
<!-- SCROLL_Regenerate -->
<g id="node7" class="node"><title>SCROLL_Regenerate</title>
<ellipse fill="none" stroke="black" cx="222.039" cy="-105" rx="90.9839" ry="18"/>
<text text-anchor="middle" x="222.039" y="-101.3" font-family="Times New Roman,serif" font-size="14.00">SCROLL_Regenerate</text>
</g>
<!-- SKILLBOOK_Heal_Regenerate -->
<g id="node19" class="node"><title>SKILLBOOK_Heal_Regenerate</title>
<ellipse fill="none" stroke="black" cx="128.039" cy="-18" rx="128.077" ry="18"/>
<text text-anchor="middle" x="128.039" y="-14.3" font-family="Times New Roman,serif" font-size="14.00">SKILLBOOK_Heal_Regenerate</text>
</g>
<!-- SCROLL_Regenerate&#45;&gt;SKILLBOOK_Heal_Regenerate -->
<g id="edge5" class="edge"><title>SCROLL_Regenerate&#45;&gt;SKILLBOOK_Heal_Regenerate</title>
<path fill="none" stroke="black" d="M203.467,-87.2067C189.525,-74.5994 170.237,-57.1579 154.655,-43.0683"/>
<polygon fill="black" stroke="black" points="156.658,-40.1604 146.893,-36.0493 151.963,-45.3525 156.658,-40.1604"/>
<text text-anchor="middle" x="209.039" y="-57.8" font-family="Times New Roman,serif" font-size="14.00">Crafting 4</text>
</g>
<!-- SCROLL_Rain -->
<g id="node8" class="node"><title>SCROLL_Rain</title>
<ellipse fill="none" stroke="black" cx="399.039" cy="-105" rx="67.6881" ry="18"/>
<text text-anchor="middle" x="399.039" y="-101.3" font-family="Times New Roman,serif" font-size="14.00">SCROLL_Rain</text>
</g>
<!-- SKILLBOOK_Rain_Water -->
<g id="node43" class="node"><title>SKILLBOOK_Rain_Water</title>
<ellipse fill="none" stroke="black" cx="385.039" cy="-18" rx="110.48" ry="18"/>
<text text-anchor="middle" x="385.039" y="-14.3" font-family="Times New Roman,serif" font-size="14.00">SKILLBOOK_Rain_Water</text>
</g>
<!-- SCROLL_Rain&#45;&gt;SKILLBOOK_Rain_Water -->
<g id="edge6" class="edge"><title>SCROLL_Rain&#45;&gt;SKILLBOOK_Rain_Water</title>
<path fill="none" stroke="black" d="M396.206,-86.799C394.289,-75.1626 391.717,-59.5479 389.525,-46.2368"/>
<polygon fill="black" stroke="black" points="392.946,-45.4737 387.868,-36.1754 386.039,-46.6113 392.946,-45.4737"/>
<text text-anchor="middle" x="421.039" y="-57.8" font-family="Times New Roman,serif" font-size="14.00">Crafting 4</text>
</g>
<!-- Herb_Stardust -->
<g id="node9" class="node"><title>Herb_Stardust</title>
<ellipse fill="none" stroke="black" cx="254.039" cy="-453" rx="63.8893" ry="18"/>
<text text-anchor="middle" x="254.039" y="-449.3" font-family="Times New Roman,serif" font-size="14.00">Herb_Stardust</text>
</g>
<!-- Pouch_Dust_Star -->
<g id="node28" class="node"><title>Pouch_Dust_Star</title>
<ellipse fill="none" stroke="black" cx="331.039" cy="-366" rx="75.2868" ry="18"/>
<text text-anchor="middle" x="331.039" y="-362.3" font-family="Times New Roman,serif" font-size="14.00">Pouch_Dust_Star</text>
</g>
<!-- Herb_Stardust&#45;&gt;Pouch_Dust_Star -->
<g id="edge7" class="edge"><title>Herb_Stardust&#45;&gt;Pouch_Dust_Star</title>
<path fill="none" stroke="black" d="M250.097,-434.921C248.692,-424.583 248.762,-411.589 255.039,-402 259.57,-395.078 265.847,-389.504 272.868,-385.02"/>
<polygon fill="black" stroke="black" points="275.039,-387.818 282.084,-379.904 271.642,-381.697 275.039,-387.818"/>
<text text-anchor="middle" x="283.039" y="-405.8" font-family="Times New Roman,serif" font-size="14.00">Crafting 0</text>
</g>
<!-- Feather -->
<g id="node10" class="node"><title>Feather</title>
<ellipse fill="none" stroke="black" cx="1569.04" cy="-453" rx="37.8943" ry="18"/>
<text text-anchor="middle" x="1569.04" y="-449.3" font-family="Times New Roman,serif" font-size="14.00">Feather</text>
</g>
<!-- Feather_A_Quill -->
<g id="node26" class="node"><title>Feather_A_Quill</title>
<ellipse fill="none" stroke="black" cx="1493.04" cy="-366" rx="70.6878" ry="18"/>
<text text-anchor="middle" x="1493.04" y="-362.3" font-family="Times New Roman,serif" font-size="14.00">Feather_A_Quill</text>
</g>
<!-- Feather&#45;&gt;Feather_A_Quill -->
<g id="edge8" class="edge"><title>Feather&#45;&gt;Feather_A_Quill</title>
<path fill="none" stroke="black" d="M1554.74,-436.012C1543.5,-423.433 1527.64,-405.696 1514.81,-391.353"/>
<polygon fill="black" stroke="black" points="1517.32,-388.91 1508.05,-383.789 1512.11,-393.576 1517.32,-388.91"/>
<text text-anchor="middle" x="1564.04" y="-405.8" font-family="Times New Roman,serif" font-size="14.00">Crafting 0</text>
</g>
<!-- Knife -->
<g id="node11" class="node"><title>Knife</title>
<ellipse fill="none" stroke="black" cx="1472.04" cy="-540" rx="30.5947" ry="18"/>
<text text-anchor="middle" x="1472.04" y="-536.3" font-family="Times New Roman,serif" font-size="14.00">Knife</text>
</g>
<!-- Knife&#45;&gt;Feather -->
<g id="edge10" class="edge"><title>Knife&#45;&gt;Feather</title>
<path fill="none" stroke="black" d="M1481.6,-522.803C1488.34,-512.302 1498.1,-498.804 1509.04,-489 1516.5,-482.308 1525.45,-476.272 1534.12,-471.171"/>
<polygon fill="black" stroke="black" points="1535.97,-474.145 1542.99,-466.206 1532.55,-468.037 1535.97,-474.145"/>
<text text-anchor="middle" x="1537.04" y="-492.8" font-family="Times New Roman,serif" font-size="14.00">Crafting 0</text>
</g>
<!-- Knife&#45;&gt;Feather_A_Quill -->
<g id="edge9" class="edge"><title>Knife&#45;&gt;Feather_A_Quill</title>
<path fill="none" stroke="black" d="M1468.51,-521.899C1464.8,-501.151 1460.26,-465.198 1466.04,-435 1468.77,-420.726 1474.45,-405.628 1479.9,-393.294"/>
<polygon fill="black" stroke="black" points="1483.15,-394.61 1484.16,-384.063 1476.79,-391.676 1483.15,-394.61"/>
<text text-anchor="middle" x="1494.04" y="-449.3" font-family="Times New Roman,serif" font-size="14.00">Crafting 0</text>
</g>
<!-- Pouch_Dust_Moon -->
<g id="node12" class="node"><title>Pouch_Dust_Moon</title>
<ellipse fill="none" stroke="black" cx="508.039" cy="-366" rx="83.3857" ry="18"/>
<text text-anchor="middle" x="508.039" y="-362.3" font-family="Times New Roman,serif" font-size="14.00">Pouch_Dust_Moon</text>
</g>
<!-- Pouch_Dust_Moon&#45;&gt;Pouch_Dust_Pixie -->
<g id="edge11" class="edge"><title>Pouch_Dust_Moon&#45;&gt;Pouch_Dust_Pixie</title>
<path fill="none" stroke="black" d="M541.237,-349.41C570.961,-335.451 614.695,-314.913 646.881,-299.798"/>
<polygon fill="black" stroke="black" points="648.487,-302.91 656.051,-295.491 645.512,-296.574 648.487,-302.91"/>
<text text-anchor="middle" x="638.039" y="-318.8" font-family="Times New Roman,serif" font-size="14.00">Crafting 0</text>
</g>
<!-- Scroll_Skill_Water_Blank -->
<g id="node29" class="node"><title>Scroll_Skill_Water_Blank</title>
<ellipse fill="none" stroke="black" cx="810.039" cy="-192" rx="104.782" ry="18"/>
<text text-anchor="middle" x="810.039" y="-188.3" font-family="Times New Roman,serif" font-size="14.00">Scroll_Skill_Water_Blank</text>
</g>
<!-- BOOK_Paper_Sheet&#45;&gt;Scroll_Skill_Water_Blank -->
<g id="edge12" class="edge"><title>BOOK_Paper_Sheet&#45;&gt;Scroll_Skill_Water_Blank</title>
<path fill="none" stroke="black" d="M881.455,-261.207C868.168,-248.517 849.753,-230.93 834.951,-216.793"/>
<polygon fill="black" stroke="black" points="837.235,-214.134 827.586,-209.758 832.4,-219.196 837.235,-214.134"/>
<text text-anchor="middle" x="888.039" y="-231.8" font-family="Times New Roman,serif" font-size="14.00">Crafting 1</text>
</g>
<!-- SKILLBOOK_Wall_Ice -->
<g id="node14" class="node"><title>SKILLBOOK_Wall_Ice</title>
<ellipse fill="none" stroke="black" cx="1699.04" cy="-18" rx="99.3824" ry="18"/>
<text text-anchor="middle" x="1699.04" y="-14.3" font-family="Times New Roman,serif" font-size="14.00">SKILLBOOK_Wall_Ice</text>
</g>
<!-- SCROLL_Winterbreath -->
<g id="node15" class="node"><title>SCROLL_Winterbreath</title>
<ellipse fill="none" stroke="black" cx="583.039" cy="-105" rx="98.2828" ry="18"/>
<text text-anchor="middle" x="583.039" y="-101.3" font-family="Times New Roman,serif" font-size="14.00">SCROLL_Winterbreath</text>
</g>
<!-- SCROLL_Winterbreath&#45;&gt;SKILLBOOK_Cone_Winterbreath -->
<g id="edge14" class="edge"><title>SCROLL_Winterbreath&#45;&gt;SKILLBOOK_Cone_Winterbreath</title>
<path fill="none" stroke="black" d="M586.41,-86.9807C589.087,-76.6653 593.641,-63.6741 601.039,-54 604.418,-49.581 608.514,-45.5024 612.89,-41.8106"/>
<polygon fill="black" stroke="black" points="615.183,-44.4628 620.977,-35.5929 610.916,-38.9134 615.183,-44.4628"/>
<text text-anchor="middle" x="629.039" y="-57.8" font-family="Times New Roman,serif" font-size="14.00">Crafting 4</text>
</g>
<!-- Well_A_Snow -->
<g id="node16" class="node"><title>Well_A_Snow</title>
<ellipse fill="none" stroke="black" cx="1165.04" cy="-540" rx="64.189" ry="18"/>
<text text-anchor="middle" x="1165.04" y="-536.3" font-family="Times New Roman,serif" font-size="14.00">Well_A_Snow</text>
</g>
<!-- Well_A_Snow&#45;&gt;Scraps_Wood_A_Mush -->
<g id="edge15" class="edge"><title>Well_A_Snow&#45;&gt;Scraps_Wood_A_Mush</title>
<path fill="none" stroke="black" d="M1177.96,-522.067C1192.43,-500.864 1212.03,-463.825 1197.04,-435 1186.3,-414.367 1166.13,-398.693 1146.94,-387.624"/>
<polygon fill="black" stroke="black" points="1148.39,-384.431 1137.94,-382.71 1145.04,-390.574 1148.39,-384.431"/>
<text text-anchor="middle" x="1231.04" y="-449.3" font-family="Times New Roman,serif" font-size="14.00">Crafting 0</text>
</g>
<!-- Well_A_Snow&#45;&gt;Bucket_A_Water -->
<g id="edge16" class="edge"><title>Well_A_Snow&#45;&gt;Bucket_A_Water</title>
<path fill="none" stroke="black" d="M1138,-523.455C1120.83,-513.583 1098.13,-500.538 1078.04,-489 1070.11,-484.45 1061.61,-479.569 1053.54,-474.94"/>
<polygon fill="black" stroke="black" points="1055.09,-471.792 1044.67,-469.851 1051.61,-477.863 1055.09,-471.792"/>
<text text-anchor="middle" x="1130.04" y="-492.8" font-family="Times New Roman,serif" font-size="14.00">Crafting 0</text>
</g>
<!-- Ink_Pot_A_Quill_A_Magic -->
<g id="node17" class="node"><title>Ink_Pot_A_Quill_A_Magic</title>
<ellipse fill="none" stroke="black" cx="1045.04" cy="-192" rx="111.581" ry="18"/>
<text text-anchor="middle" x="1045.04" y="-188.3" font-family="Times New Roman,serif" font-size="14.00">Ink_Pot_A_Quill_A_Magic</text>
</g>
<!-- Ink_Pot_A_Quill_A_Magic&#45;&gt;SCROLL_Regenerate -->
<g id="edge20" class="edge"><title>Ink_Pot_A_Quill_A_Magic&#45;&gt;SCROLL_Regenerate</title>
<path fill="none" stroke="black" d="M968.042,-178.941C953.458,-177.009 938.304,-175.241 924.039,-174 689.234,-153.576 626.778,-193.183 394.039,-156 371.58,-152.412 318.632,-136.6 277.37,-123.705"/>
<polygon fill="black" stroke="black" points="278.282,-120.323 267.693,-120.668 276.186,-127.002 278.282,-120.323"/>
<text text-anchor="middle" x="422.039" y="-144.8" font-family="Times New Roman,serif" font-size="14.00">Crafting 5</text>
</g>
<!-- Ink_Pot_A_Quill_A_Magic&#45;&gt;SCROLL_Rain -->
<g id="edge22" class="edge"><title>Ink_Pot_A_Quill_A_Magic&#45;&gt;SCROLL_Rain</title>
<path fill="none" stroke="black" d="M966.717,-179.066C952.536,-177.17 937.864,-175.382 924.039,-174 790.687,-160.667 755.75,-174.658 623.039,-156 591.65,-151.587 512.76,-133.348 457.534,-120.172"/>
<polygon fill="black" stroke="black" points="458.054,-116.698 447.514,-117.775 456.426,-123.505 458.054,-116.698"/>
<text text-anchor="middle" x="651.039" y="-144.8" font-family="Times New Roman,serif" font-size="14.00">Crafting 5</text>
</g>
<!-- Ink_Pot_A_Quill_A_Magic&#45;&gt;SCROLL_Winterbreath -->
<g id="edge19" class="edge"><title>Ink_Pot_A_Quill_A_Magic&#45;&gt;SCROLL_Winterbreath</title>
<path fill="none" stroke="black" d="M960.771,-180.147C935.321,-174.918 907.835,-167.237 884.039,-156 874.31,-151.406 875.008,-145.045 865.039,-141 792.586,-111.607 767.567,-133.138 690.039,-123 681.204,-121.845 671.976,-120.535 662.802,-119.168"/>
<polygon fill="black" stroke="black" points="663.301,-115.703 652.89,-117.666 662.252,-122.624 663.301,-115.703"/>
<text text-anchor="middle" x="912.039" y="-144.8" font-family="Times New Roman,serif" font-size="14.00">Crafting 5</text>
</g>
<!-- SCROLL_WaterShield -->
<g id="node21" class="node"><title>SCROLL_WaterShield</title>
<ellipse fill="none" stroke="black" cx="1031.04" cy="-105" rx="95.5831" ry="18"/>
<text text-anchor="middle" x="1031.04" y="-101.3" font-family="Times New Roman,serif" font-size="14.00">SCROLL_WaterShield</text>
</g>
<!-- Ink_Pot_A_Quill_A_Magic&#45;&gt;SCROLL_WaterShield -->
<g id="edge17" class="edge"><title>Ink_Pot_A_Quill_A_Magic&#45;&gt;SCROLL_WaterShield</title>
<path fill="none" stroke="black" d="M1042.21,-173.799C1040.29,-162.163 1037.72,-146.548 1035.52,-133.237"/>
<polygon fill="black" stroke="black" points="1038.95,-132.474 1033.87,-123.175 1032.04,-133.611 1038.95,-132.474"/>
<text text-anchor="middle" x="1067.04" y="-144.8" font-family="Times New Roman,serif" font-size="14.00">Crafting 5</text>
</g>
<!-- SCROLL_IceSummon -->
<g id="node25" class="node"><title>SCROLL_IceSummon</title>
<ellipse fill="none" stroke="black" cx="1239.04" cy="-105" rx="94.7833" ry="18"/>
<text text-anchor="middle" x="1239.04" y="-101.3" font-family="Times New Roman,serif" font-size="14.00">SCROLL_IceSummon</text>
</g>
<!-- Ink_Pot_A_Quill_A_Magic&#45;&gt;SCROLL_IceSummon -->
<g id="edge18" class="edge"><title>Ink_Pot_A_Quill_A_Magic&#45;&gt;SCROLL_IceSummon</title>
<path fill="none" stroke="black" d="M1137.43,-181.773C1159.83,-176.56 1182.84,-168.483 1202.04,-156 1211.27,-149.996 1219.02,-140.838 1225,-131.994"/>
<polygon fill="black" stroke="black" points="1228.05,-133.717 1230.39,-123.382 1222.12,-130.007 1228.05,-133.717"/>
<text text-anchor="middle" x="1247.04" y="-144.8" font-family="Times New Roman,serif" font-size="14.00">Crafting 5</text>
</g>
<!-- SCROLL_IceWall -->
<g id="node39" class="node"><title>SCROLL_IceWall</title>
<ellipse fill="none" stroke="black" cx="1617.04" cy="-105" rx="79.0865" ry="18"/>
<text text-anchor="middle" x="1617.04" y="-101.3" font-family="Times New Roman,serif" font-size="14.00">SCROLL_IceWall</text>
</g>
<!-- Ink_Pot_A_Quill_A_Magic&#45;&gt;SCROLL_IceWall -->
<g id="edge23" class="edge"><title>Ink_Pot_A_Quill_A_Magic&#45;&gt;SCROLL_IceWall</title>
<path fill="none" stroke="black" d="M1155.18,-188.718C1300.95,-184.947 1543.81,-175.771 1580.04,-156 1590.1,-150.512 1598.17,-140.985 1604.18,-131.71"/>
<polygon fill="black" stroke="black" points="1607.23,-133.424 1609.31,-123.034 1601.21,-129.863 1607.23,-133.424"/>
<text text-anchor="middle" x="1624.04" y="-144.8" font-family="Times New Roman,serif" font-size="14.00">Crafting 5</text>
</g>
<!-- SCROLL_IceShard -->
<g id="node41" class="node"><title>SCROLL_IceShard</title>
<ellipse fill="none" stroke="black" cx="1436.04" cy="-105" rx="83.6854" ry="18"/>
<text text-anchor="middle" x="1436.04" y="-101.3" font-family="Times New Roman,serif" font-size="14.00">SCROLL_IceShard</text>
</g>
<!-- Ink_Pot_A_Quill_A_Magic&#45;&gt;SCROLL_IceShard -->
<g id="edge21" class="edge"><title>Ink_Pot_A_Quill_A_Magic&#45;&gt;SCROLL_IceShard</title>
<path fill="none" stroke="black" d="M1155.14,-188.741C1241.24,-185.36 1352.85,-176.94 1393.04,-156 1403.92,-150.329 1413.23,-140.641 1420.37,-131.295"/>
<polygon fill="black" stroke="black" points="1423.38,-133.113 1426.31,-122.932 1417.67,-129.061 1423.38,-133.113"/>
<text text-anchor="middle" x="1440.04" y="-144.8" font-family="Times New Roman,serif" font-size="14.00">Crafting 5</text>
</g>
<!-- Skull_Human -->
<g id="node18" class="node"><title>Skull_Human</title>
<ellipse fill="none" stroke="black" cx="656.039" cy="-453" rx="59.5901" ry="18"/>
<text text-anchor="middle" x="656.039" y="-449.3" font-family="Times New Roman,serif" font-size="14.00">Skull_Human</text>
</g>
<!-- Skull_Human&#45;&gt;Pouch_Dust_Bone -->
<g id="edge24" class="edge"><title>Skull_Human&#45;&gt;Pouch_Dust_Bone</title>
<path fill="none" stroke="black" d="M662.717,-434.799C667.279,-423.047 673.417,-407.238 678.618,-393.842"/>
<polygon fill="black" stroke="black" points="682.014,-394.764 682.371,-384.175 675.489,-392.231 682.014,-394.764"/>
<text text-anchor="middle" x="703.039" y="-405.8" font-family="Times New Roman,serif" font-size="14.00">Crafting 0</text>
</g>
<!-- Pouch_Dust_Pixie&#45;&gt;Ink_Pot_A_Quill_A_Magic -->
<g id="edge25" class="edge"><title>Pouch_Dust_Pixie&#45;&gt;Ink_Pot_A_Quill_A_Magic</title>
<path fill="none" stroke="black" d="M752.948,-268.406C820.608,-258.236 917.999,-243.554 920.039,-243 947.791,-235.455 977.743,-223.612 1001.37,-213.345"/>
<polygon fill="black" stroke="black" points="1003.01,-216.445 1010.75,-209.207 1000.19,-210.04 1003.01,-216.445"/>
<text text-anchor="middle" x="991.039" y="-231.8" font-family="Times New Roman,serif" font-size="14.00">Crafting 1</text>
</g>
<!-- Pouch_Dust_Pixie&#45;&gt;Scroll_Skill_Water_Blank -->
<g id="edge26" class="edge"><title>Pouch_Dust_Pixie&#45;&gt;Scroll_Skill_Water_Blank</title>
<path fill="none" stroke="black" d="M712.369,-261.611C730.997,-248.525 757.3,-230.048 777.918,-215.564"/>
<polygon fill="black" stroke="black" points="780.196,-218.241 786.367,-209.629 776.173,-212.513 780.196,-218.241"/>
<text text-anchor="middle" x="785.039" y="-231.8" font-family="Times New Roman,serif" font-size="14.00">Crafting 1</text>
</g>
<!-- SCROLL_WaterShield&#45;&gt;SKILLBOOK_Shield_Water -->
<g id="edge27" class="edge"><title>SCROLL_WaterShield&#45;&gt;SKILLBOOK_Shield_Water</title>
<path fill="none" stroke="black" d="M1009.96,-87.4094C993.563,-74.5051 970.619,-56.4476 952.421,-42.1251"/>
<polygon fill="black" stroke="black" points="954.457,-39.2736 944.434,-35.8393 950.128,-44.7743 954.457,-39.2736"/>
<text text-anchor="middle" x="1012.04" y="-57.8" font-family="Times New Roman,serif" font-size="14.00">Crafting 4</text>
</g>
<!-- SKILLBOOK_Projectile_IceShard -->
<g id="node22" class="node"><title>SKILLBOOK_Projectile_IceShard</title>
<ellipse fill="none" stroke="black" cx="1444.04" cy="-18" rx="137.576" ry="18"/>
<text text-anchor="middle" x="1444.04" y="-14.3" font-family="Times New Roman,serif" font-size="14.00">SKILLBOOK_Projectile_IceShard</text>
</g>
<!-- Well -->
<g id="node23" class="node"><title>Well</title>
<ellipse fill="none" stroke="black" cx="845.039" cy="-540" rx="27.0966" ry="18"/>
<text text-anchor="middle" x="845.039" y="-536.3" font-family="Times New Roman,serif" font-size="14.00">Well</text>
</g>
<!-- Well&#45;&gt;Scraps_Wood_A_Mush -->
<g id="edge30" class="edge"><title>Well&#45;&gt;Scraps_Wood_A_Mush</title>
<path fill="none" stroke="black" d="M845.751,-521.751C847.633,-498.816 854.346,-458.456 878.039,-435 910.859,-402.507 958.77,-385.478 1001.69,-376.58"/>
<polygon fill="black" stroke="black" points="1002.47,-379.993 1011.62,-374.645 1001.13,-373.122 1002.47,-379.993"/>
<text text-anchor="middle" x="906.039" y="-449.3" font-family="Times New Roman,serif" font-size="14.00">Crafting 0</text>
</g>
<!-- Well&#45;&gt;Bucket_A_Water -->
<g id="edge31" class="edge"><title>Well&#45;&gt;Bucket_A_Water</title>
<path fill="none" stroke="black" d="M856.091,-523.3C864.691,-512.191 877.569,-497.765 892.039,-489 908.863,-478.808 928.746,-471.497 947.646,-466.288"/>
<polygon fill="black" stroke="black" points="948.619,-469.652 957.419,-463.751 946.86,-462.876 948.619,-469.652"/>
<text text-anchor="middle" x="920.039" y="-492.8" font-family="Times New Roman,serif" font-size="14.00">Crafting 0</text>
</g>
<!-- Bucket -->
<g id="node24" class="node"><title>Bucket</title>
<ellipse fill="none" stroke="black" cx="942.039" cy="-540" rx="36.2938" ry="18"/>
<text text-anchor="middle" x="942.039" y="-536.3" font-family="Times New Roman,serif" font-size="14.00">Bucket</text>
</g>
<!-- Bucket&#45;&gt;Bucket_A_Water -->
<g id="edge29" class="edge"><title>Bucket&#45;&gt;Bucket_A_Water</title>
<path fill="none" stroke="black" d="M945.208,-521.821C947.809,-511.446 952.354,-498.448 960.039,-489 964.371,-483.674 969.743,-478.941 975.442,-474.811"/>
<polygon fill="black" stroke="black" points="977.531,-477.626 983.945,-469.194 973.672,-471.786 977.531,-477.626"/>
<text text-anchor="middle" x="988.039" y="-492.8" font-family="Times New Roman,serif" font-size="14.00">Crafting 0</text>
</g>
<!-- SKILLBOOK_Summon_Ice -->
<g id="node38" class="node"><title>SKILLBOOK_Summon_Ice</title>
<ellipse fill="none" stroke="black" cx="1173.04" cy="-18" rx="115.88" ry="18"/>
<text text-anchor="middle" x="1173.04" y="-14.3" font-family="Times New Roman,serif" font-size="14.00">SKILLBOOK_Summon_Ice</text>
</g>
<!-- SCROLL_IceSummon&#45;&gt;SKILLBOOK_Summon_Ice -->
<g id="edge61" class="edge"><title>SCROLL_IceSummon&#45;&gt;SKILLBOOK_Summon_Ice</title>
<path fill="none" stroke="black" d="M1225.68,-86.799C1216.14,-74.5062 1203.15,-57.7736 1192.46,-44.0073"/>
<polygon fill="black" stroke="black" points="1195.05,-41.6373 1186.15,-35.8854 1189.52,-45.9305 1195.05,-41.6373"/>
<text text-anchor="middle" x="1238.04" y="-57.8" font-family="Times New Roman,serif" font-size="14.00">Crafting 4</text>
</g>
<!-- Ink_Pot_A_Quill -->
<g id="node40" class="node"><title>Ink_Pot_A_Quill</title>
<ellipse fill="none" stroke="black" cx="1324.04" cy="-279" rx="73.387" ry="18"/>
<text text-anchor="middle" x="1324.04" y="-275.3" font-family="Times New Roman,serif" font-size="14.00">Ink_Pot_A_Quill</text>
</g>
<!-- Feather_A_Quill&#45;&gt;Ink_Pot_A_Quill -->
<g id="edge32" class="edge"><title>Feather_A_Quill&#45;&gt;Ink_Pot_A_Quill</title>
<path fill="none" stroke="black" d="M1462.43,-349.607C1434.76,-335.69 1393.86,-315.117 1363.69,-299.944"/>
<polygon fill="black" stroke="black" points="1365.21,-296.788 1354.7,-295.422 1362.06,-303.042 1365.21,-296.788"/>
<text text-anchor="middle" x="1447.04" y="-318.8" font-family="Times New Roman,serif" font-size="14.00">Crafting 0</text>
</g>
<!-- Moonstone -->
<g id="node27" class="node"><title>Moonstone</title>
<ellipse fill="none" stroke="black" cx="394.039" cy="-453" rx="51.9908" ry="18"/>
<text text-anchor="middle" x="394.039" y="-449.3" font-family="Times New Roman,serif" font-size="14.00">Moonstone</text>
</g>
<!-- Moonstone&#45;&gt;Pouch_Dust_Moon -->
<g id="edge33" class="edge"><title>Moonstone&#45;&gt;Pouch_Dust_Moon</title>
<path fill="none" stroke="black" d="M409.768,-435.7C420.13,-425.412 434.281,-412.19 448.039,-402 454.58,-397.155 461.843,-392.432 468.993,-388.103"/>
<polygon fill="black" stroke="black" points="471.079,-390.936 477.925,-382.851 467.531,-384.902 471.079,-390.936"/>
<text text-anchor="middle" x="476.039" y="-405.8" font-family="Times New Roman,serif" font-size="14.00">Crafting 0</text>
</g>
<!-- Pouch_Dust_Star&#45;&gt;Pouch_Dust_Pixie -->
<g id="edge34" class="edge"><title>Pouch_Dust_Star&#45;&gt;Pouch_Dust_Pixie</title>
<path fill="none" stroke="black" d="M379.5,-352.204C419.306,-341.813 477.207,-326.972 528.039,-315 559.171,-307.668 593.823,-300.063 622.98,-293.823"/>
<polygon fill="black" stroke="black" points="623.999,-297.185 633.049,-291.676 622.539,-290.339 623.999,-297.185"/>
<text text-anchor="middle" x="556.039" y="-318.8" font-family="Times New Roman,serif" font-size="14.00">Crafting 0</text>
</g>
<!-- Scroll_Skill_Water_Blank&#45;&gt;SCROLL_Regenerate -->
<g id="edge38" class="edge"><title>Scroll_Skill_Water_Blank&#45;&gt;SCROLL_Regenerate</title>
<path fill="none" stroke="black" d="M707.845,-187.975C563.88,-183.156 314.525,-172.554 276.039,-156 263.073,-150.423 251.242,-140.349 241.981,-130.697"/>
<polygon fill="black" stroke="black" points="244.441,-128.2 235.131,-123.141 239.254,-132.901 244.441,-128.2"/>
<text text-anchor="middle" x="304.039" y="-144.8" font-family="Times New Roman,serif" font-size="14.00">Crafting 5</text>
</g>
<!-- Scroll_Skill_Water_Blank&#45;&gt;SCROLL_Rain -->
<g id="edge40" class="edge"><title>Scroll_Skill_Water_Blank&#45;&gt;SCROLL_Rain</title>
<path fill="none" stroke="black" d="M705.615,-190.586C640.977,-187.693 557.055,-179.11 486.039,-156 466.051,-149.496 445.578,-138.016 429.518,-127.695"/>
<polygon fill="black" stroke="black" points="431.353,-124.713 421.08,-122.12 427.494,-130.553 431.353,-124.713"/>
<text text-anchor="middle" x="514.039" y="-144.8" font-family="Times New Roman,serif" font-size="14.00">Crafting 5</text>
</g>
<!-- Scroll_Skill_Water_Blank&#45;&gt;SCROLL_Winterbreath -->
<g id="edge37" class="edge"><title>Scroll_Skill_Water_Blank&#45;&gt;SCROLL_Winterbreath</title>
<path fill="none" stroke="black" d="M768.403,-175.41C730.485,-161.211 674.388,-140.206 633.844,-125.024"/>
<polygon fill="black" stroke="black" points="635.002,-121.721 624.41,-121.491 632.548,-128.276 635.002,-121.721"/>
<text text-anchor="middle" x="739.039" y="-144.8" font-family="Times New Roman,serif" font-size="14.00">Crafting 5</text>
</g>
<!-- Scroll_Skill_Water_Blank&#45;&gt;SCROLL_WaterShield -->
<g id="edge35" class="edge"><title>Scroll_Skill_Water_Blank&#45;&gt;SCROLL_WaterShield</title>
<path fill="none" stroke="black" d="M874.902,-177.746C897.231,-172.222 922.12,-164.973 944.039,-156 962.502,-148.442 981.858,-137.639 997.611,-128.008"/>
<polygon fill="black" stroke="black" points="999.803,-130.767 1006.44,-122.506 996.099,-124.827 999.803,-130.767"/>
<text text-anchor="middle" x="1002.04" y="-144.8" font-family="Times New Roman,serif" font-size="14.00">Crafting 5</text>
</g>
<!-- Scroll_Skill_Water_Blank&#45;&gt;SCROLL_IceSummon -->
<g id="edge36" class="edge"><title>Scroll_Skill_Water_Blank&#45;&gt;SCROLL_IceSummon</title>
<path fill="none" stroke="black" d="M884.784,-179.356C897.854,-177.463 911.332,-175.6 924.039,-174 1001.61,-164.231 1022.78,-173.274 1099.04,-156 1101.38,-155.469 1148.35,-138.645 1187.25,-124.658"/>
<polygon fill="black" stroke="black" points="1188.71,-127.853 1196.93,-121.174 1186.34,-121.266 1188.71,-127.853"/>
<text text-anchor="middle" x="1167.04" y="-144.8" font-family="Times New Roman,serif" font-size="14.00">Crafting 5</text>
</g>
<!-- BOOK_Skill_Water_Blank -->
<g id="node32" class="node"><title>BOOK_Skill_Water_Blank</title>
<ellipse fill="none" stroke="black" cx="808.039" cy="-105" rx="109.381" ry="18"/>
<text text-anchor="middle" x="808.039" y="-101.3" font-family="Times New Roman,serif" font-size="14.00">BOOK_Skill_Water_Blank</text>
</g>
<!-- Scroll_Skill_Water_Blank&#45;&gt;BOOK_Skill_Water_Blank -->
<g id="edge41" class="edge"><title>Scroll_Skill_Water_Blank&#45;&gt;BOOK_Skill_Water_Blank</title>
<path fill="none" stroke="black" d="M809.521,-173.911C809.356,-168.214 809.18,-161.834 809.039,-156 808.86,-148.652 808.69,-140.696 808.543,-133.338"/>
<polygon fill="black" stroke="black" points="812.038,-133.055 808.345,-123.125 805.04,-133.191 812.038,-133.055"/>
<text text-anchor="middle" x="837.039" y="-144.8" font-family="Times New Roman,serif" font-size="14.00">Crafting 5</text>
</g>
<!-- Scroll_Skill_Water_Blank&#45;&gt;SCROLL_IceWall -->
<g id="edge42" class="edge"><title>Scroll_Skill_Water_Blank&#45;&gt;SCROLL_IceWall</title>
<path fill="none" stroke="black" d="M882.256,-178.949C896.091,-177.004 910.487,-175.229 924.039,-174 1045.38,-162.996 1352.22,-178.107 1472.04,-156 1481.79,-154.202 1529.24,-137.584 1567.24,-123.992"/>
<polygon fill="black" stroke="black" points="1568.44,-127.281 1576.67,-120.612 1566.08,-120.691 1568.44,-127.281"/>
<text text-anchor="middle" x="1547.04" y="-144.8" font-family="Times New Roman,serif" font-size="14.00">Crafting 5</text>
</g>
<!-- Scroll_Skill_Water_Blank&#45;&gt;SCROLL_IceShard -->
<g id="edge39" class="edge"><title>Scroll_Skill_Water_Blank&#45;&gt;SCROLL_IceShard</title>
<path fill="none" stroke="black" d="M882.885,-179.058C896.531,-177.128 910.698,-175.33 924.039,-174 1081.24,-158.331 1123.6,-184.204 1279.04,-156 1299.39,-152.308 1346.83,-136.838 1384.27,-124.072"/>
<polygon fill="black" stroke="black" points="1385.71,-127.276 1394.04,-120.724 1383.45,-120.654 1385.71,-127.276"/>
<text text-anchor="middle" x="1361.04" y="-144.8" font-family="Times New Roman,serif" font-size="14.00">Crafting 5</text>
</g>
<!-- Axe -->
<g id="node30" class="node"><title>Axe</title>
<ellipse fill="none" stroke="black" cx="1292.04" cy="-540" rx="27" ry="18"/>
<text text-anchor="middle" x="1292.04" y="-536.3" font-family="Times New Roman,serif" font-size="14.00">Axe</text>
</g>
<!-- Axe&#45;&gt;Scraps_Wood -->
<g id="edge43" class="edge"><title>Axe&#45;&gt;Scraps_Wood</title>
<path fill="none" stroke="black" d="M1293,-521.963C1294.3,-511.641 1297.28,-498.649 1304.04,-489 1307.78,-483.667 1312.61,-478.932 1317.84,-474.802"/>
<polygon fill="black" stroke="black" points="1320.14,-477.457 1326.27,-468.813 1316.09,-471.75 1320.14,-477.457"/>
<text text-anchor="middle" x="1332.04" y="-492.8" font-family="Times New Roman,serif" font-size="14.00">Crafting 0</text>
</g>
<!-- Barrel -->
<g id="node31" class="node"><title>Barrel</title>
<ellipse fill="none" stroke="black" cx="1036.04" cy="-540" rx="32.4942" ry="18"/>
<text text-anchor="middle" x="1036.04" y="-536.3" font-family="Times New Roman,serif" font-size="14.00">Barrel</text>
</g>
<!-- Barrel&#45;&gt;Scraps_Wood_A_Mush -->
<g id="edge44" class="edge"><title>Barrel&#45;&gt;Scraps_Wood_A_Mush</title>
<path fill="none" stroke="black" d="M1063.63,-530.478C1072.67,-527.725 1082.77,-524.69 1092.04,-522 1120.83,-513.646 1138.89,-527.858 1157.04,-504 1161.07,-498.694 1159.41,-495.231 1157.04,-489 1153.23,-478.995 1146.64,-480.119 1141.04,-471 1136.81,-464.122 1120.76,-422.254 1110.04,-393.783"/>
<polygon fill="black" stroke="black" points="1113.29,-392.482 1106.5,-384.351 1106.74,-394.943 1113.29,-392.482"/>
<text text-anchor="middle" x="1169.04" y="-449.3" font-family="Times New Roman,serif" font-size="14.00">Crafting 0</text>
</g>
<!-- Barrel&#45;&gt;Bucket_A_Water -->
<g id="edge45" class="edge"><title>Barrel&#45;&gt;Bucket_A_Water</title>
<path fill="none" stroke="black" d="M1028.22,-522.226C1025.87,-516.55 1023.53,-510.102 1022.04,-504 1020.26,-496.743 1019.11,-488.746 1018.37,-481.316"/>
<polygon fill="black" stroke="black" points="1021.86,-481.015 1017.58,-471.326 1014.88,-481.573 1021.86,-481.015"/>
<text text-anchor="middle" x="1050.04" y="-492.8" font-family="Times New Roman,serif" font-size="14.00">Crafting 0</text>
</g>
<!-- BOOK_Skill_Water_Blank&#45;&gt;SKILLBOOK_Shield_Water -->
<g id="edge46" class="edge"><title>BOOK_Skill_Water_Blank&#45;&gt;SKILLBOOK_Shield_Water</title>
<path fill="none" stroke="black" d="M830.759,-87.2067C848.321,-74.226 872.817,-56.1203 892.157,-41.8253"/>
<polygon fill="black" stroke="black" points="894.404,-44.517 900.366,-35.7584 890.243,-38.8877 894.404,-44.517"/>
<text text-anchor="middle" x="901.039" y="-57.8" font-family="Times New Roman,serif" font-size="14.00">Crafting 4</text>
</g>
<!-- BOOK_Skill_Water_Blank&#45;&gt;SKILLBOOK_Cone_Winterbreath -->
<g id="edge50" class="edge"><title>BOOK_Skill_Water_Blank&#45;&gt;SKILLBOOK_Cone_Winterbreath</title>
<path fill="none" stroke="black" d="M787.797,-87.2651C774.5,-76.8043 756.409,-63.5527 739.039,-54 729.01,-48.4848 717.929,-43.3811 707.109,-38.8729"/>
<polygon fill="black" stroke="black" points="708.284,-35.5727 697.701,-35.0691 705.66,-42.0624 708.284,-35.5727"/>
<text text-anchor="middle" x="791.039" y="-57.8" font-family="Times New Roman,serif" font-size="14.00">Crafting 4</text>
</g>
<!-- BOOK_Skill_Water_Blank&#45;&gt;SKILLBOOK_Wall_Ice -->
<g id="edge49" class="edge"><title>BOOK_Skill_Water_Blank&#45;&gt;SKILLBOOK_Wall_Ice</title>
<path fill="none" stroke="black" d="M883.116,-91.9012C897.339,-89.9735 912.121,-88.2166 926.039,-87 1180.75,-64.7358 1247.84,-104.507 1501.04,-69 1549.43,-62.2142 1603.1,-48.2432 1642.35,-36.7902"/>
<polygon fill="black" stroke="black" points="1643.4,-40.128 1652,-33.9386 1641.42,-33.4148 1643.4,-40.128"/>
<text text-anchor="middle" x="1600.04" y="-57.8" font-family="Times New Roman,serif" font-size="14.00">Crafting 4</text>
</g>
<!-- BOOK_Skill_Water_Blank&#45;&gt;SKILLBOOK_Heal_Regenerate -->
<g id="edge52" class="edge"><title>BOOK_Skill_Water_Blank&#45;&gt;SKILLBOOK_Heal_Regenerate</title>
<path fill="none" stroke="black" d="M729.692,-92.3969C716.465,-90.5286 702.867,-88.6639 690.039,-87 620.825,-78.023 603.059,-79.3603 534.039,-69 497.832,-63.5652 489.295,-59.0921 453.039,-54 370.355,-42.3872 349.036,-45.105 266.039,-36 254.322,-34.7147 242.055,-33.3012 229.873,-31.8552"/>
<polygon fill="black" stroke="black" points="230.019,-28.3478 219.674,-30.635 229.187,-35.2983 230.019,-28.3478"/>
<text text-anchor="middle" x="562.039" y="-57.8" font-family="Times New Roman,serif" font-size="14.00">Crafting 4</text>
</g>
<!-- BOOK_Skill_Water_Blank&#45;&gt;SKILLBOOK_Projectile_IceShard -->
<g id="edge47" class="edge"><title>BOOK_Skill_Water_Blank&#45;&gt;SKILLBOOK_Projectile_IceShard</title>
<path fill="none" stroke="black" d="M884.087,-92.0088C898.015,-90.1075 912.443,-88.3322 926.039,-87 1078.41,-72.0691 1119.05,-94.3049 1270.04,-69 1310.67,-62.1912 1355.3,-49.2488 1389.19,-38.2378"/>
<polygon fill="black" stroke="black" points="1390.49,-41.4933 1398.9,-35.0413 1388.31,-34.8445 1390.49,-41.4933"/>
<text text-anchor="middle" x="1362.04" y="-57.8" font-family="Times New Roman,serif" font-size="14.00">Crafting 4</text>
</g>
<!-- BOOK_Skill_Water_Blank&#45;&gt;SKILLBOOK_Summon_Ice -->
<g id="edge48" class="edge"><title>BOOK_Skill_Water_Blank&#45;&gt;SKILLBOOK_Summon_Ice</title>
<path fill="none" stroke="black" d="M886.797,-92.5287C953.908,-82.7216 1040.15,-70.0291 1044.04,-69 1072.74,-61.4113 1103.79,-49.4958 1128.24,-39.2002"/>
<polygon fill="black" stroke="black" points="1129.79,-42.3467 1137.61,-35.1998 1127.04,-35.9093 1129.79,-42.3467"/>
<text text-anchor="middle" x="1116.04" y="-57.8" font-family="Times New Roman,serif" font-size="14.00">Crafting 4</text>
</g>
<!-- BOOK_Skill_Water_Blank&#45;&gt;SKILLBOOK_Rain_Water -->
<g id="edge51" class="edge"><title>BOOK_Skill_Water_Blank&#45;&gt;SKILLBOOK_Rain_Water</title>
<path fill="none" stroke="black" d="M741.914,-90.5695C721.265,-85.1937 698.745,-78.078 679.039,-69 668.29,-64.0486 668.124,-58.1441 657.039,-54 592.905,-30.0235 571.934,-44.8422 504.039,-36 494.416,-34.7468 484.362,-33.3879 474.352,-32.0032"/>
<polygon fill="black" stroke="black" points="474.762,-28.5265 464.375,-30.6128 473.796,-35.4595 474.762,-28.5265"/>
<text text-anchor="middle" x="707.039" y="-57.8" font-family="Times New Roman,serif" font-size="14.00">Crafting 4</text>
</g>
<!-- Pillow -->
<g id="node33" class="node"><title>Pillow</title>
<ellipse fill="none" stroke="black" cx="1569.04" cy="-540" rx="33.2948" ry="18"/>
<text text-anchor="middle" x="1569.04" y="-536.3" font-family="Times New Roman,serif" font-size="14.00">Pillow</text>
</g>
<!-- Pillow&#45;&gt;Feather -->
<g id="edge13" class="edge"><title>Pillow&#45;&gt;Feather</title>
<path fill="none" stroke="black" d="M1569.04,-521.799C1569.04,-510.163 1569.04,-494.548 1569.04,-481.237"/>
<polygon fill="black" stroke="black" points="1572.54,-481.175 1569.04,-471.175 1565.54,-481.175 1572.54,-481.175"/>
<text text-anchor="middle" x="1597.04" y="-492.8" font-family="Times New Roman,serif" font-size="14.00">Crafting 0</text>
</g>
<!-- Bone -->
<g id="node34" class="node"><title>Bone</title>
<ellipse fill="none" stroke="black" cx="764.039" cy="-453" rx="29.795" ry="18"/>
<text text-anchor="middle" x="764.039" y="-449.3" font-family="Times New Roman,serif" font-size="14.00">Bone</text>
</g>
<!-- Bone&#45;&gt;Pouch_Dust_Bone -->
<g id="edge53" class="edge"><title>Bone&#45;&gt;Pouch_Dust_Bone</title>
<path fill="none" stroke="black" d="M756.387,-435.163C751.239,-424.916 743.803,-411.932 735.039,-402 731.126,-397.565 726.576,-393.317 721.891,-389.405"/>
<polygon fill="black" stroke="black" points="723.988,-386.602 713.965,-383.165 719.657,-392.101 723.988,-386.602"/>
<text text-anchor="middle" x="774.039" y="-405.8" font-family="Times New Roman,serif" font-size="14.00">Crafting 0</text>
</g>
<!-- Ink_Pot -->
<g id="node35" class="node"><title>Ink_Pot</title>
<ellipse fill="none" stroke="black" cx="1324.04" cy="-366" rx="40.0939" ry="18"/>
<text text-anchor="middle" x="1324.04" y="-362.3" font-family="Times New Roman,serif" font-size="14.00">Ink_Pot</text>
</g>
<!-- Ink_Pot&#45;&gt;Ink_Pot_A_Quill -->
<g id="edge54" class="edge"><title>Ink_Pot&#45;&gt;Ink_Pot_A_Quill</title>
<path fill="none" stroke="black" d="M1324.04,-347.799C1324.04,-336.163 1324.04,-320.548 1324.04,-307.237"/>
<polygon fill="black" stroke="black" points="1327.54,-307.175 1324.04,-297.175 1320.54,-307.175 1327.54,-307.175"/>
<text text-anchor="middle" x="1352.04" y="-318.8" font-family="Times New Roman,serif" font-size="14.00">Crafting 0</text>
</g>
<!-- Scraps_Wood&#45;&gt;Scraps_Wood_A_Mush -->
<g id="edge55" class="edge"><title>Scraps_Wood&#45;&gt;Scraps_Wood_A_Mush</title>
<path fill="none" stroke="black" d="M1324.3,-437.483C1299.54,-426.828 1264.54,-412.451 1233.04,-402 1212.2,-395.088 1189.18,-388.627 1168.23,-383.184"/>
<polygon fill="black" stroke="black" points="1169,-379.769 1158.44,-380.676 1167.26,-386.55 1169,-379.769"/>
<text text-anchor="middle" x="1300.04" y="-405.8" font-family="Times New Roman,serif" font-size="14.00">Crafting 0</text>
</g>
<!-- Dagger -->
<g id="node37" class="node"><title>Dagger</title>
<ellipse fill="none" stroke="black" cx="1688.04" cy="-540" rx="36.2938" ry="18"/>
<text text-anchor="middle" x="1688.04" y="-536.3" font-family="Times New Roman,serif" font-size="14.00">Dagger</text>
</g>
<!-- Dagger&#45;&gt;Feather -->
<g id="edge57" class="edge"><title>Dagger&#45;&gt;Feather</title>
<path fill="none" stroke="black" d="M1670.6,-523.938C1658.43,-513.674 1641.63,-500.005 1626.04,-489 1618.1,-483.394 1609.25,-477.711 1600.95,-472.601"/>
<polygon fill="black" stroke="black" points="1602.58,-469.499 1592.21,-467.313 1598.95,-475.487 1602.58,-469.499"/>
<text text-anchor="middle" x="1673.04" y="-492.8" font-family="Times New Roman,serif" font-size="14.00">Crafting 0</text>
</g>
<!-- Dagger&#45;&gt;Feather_A_Quill -->
<g id="edge56" class="edge"><title>Dagger&#45;&gt;Feather_A_Quill</title>
<path fill="none" stroke="black" d="M1699.83,-522.847C1705.6,-512.858 1710.29,-499.905 1705.04,-489 1676.66,-430.047 1605.66,-397.865 1553.61,-381.584"/>
<polygon fill="black" stroke="black" points="1554.38,-378.161 1543.8,-378.631 1552.36,-384.864 1554.38,-378.161"/>
<text text-anchor="middle" x="1722.04" y="-449.3" font-family="Times New Roman,serif" font-size="14.00">Crafting 0</text>
</g>
<!-- SCROLL_IceWall&#45;&gt;SKILLBOOK_Wall_Ice -->
<g id="edge58" class="edge"><title>SCROLL_IceWall&#45;&gt;SKILLBOOK_Wall_Ice</title>
<path fill="none" stroke="black" d="M1633.24,-87.2067C1645.29,-74.7151 1661.92,-57.4775 1675.44,-43.457"/>
<polygon fill="black" stroke="black" points="1678.17,-45.6763 1682.59,-36.0493 1673.13,-40.8162 1678.17,-45.6763"/>
<text text-anchor="middle" x="1690.04" y="-57.8" font-family="Times New Roman,serif" font-size="14.00">Crafting 4</text>
</g>
<!-- Ink_Pot_A_Quill&#45;&gt;Ink_Pot_A_Quill_A_Magic -->
<g id="edge59" class="edge"><title>Ink_Pot_A_Quill&#45;&gt;Ink_Pot_A_Quill_A_Magic</title>
<path fill="none" stroke="black" d="M1279.83,-264.531C1232.63,-250.151 1157.54,-227.275 1105.03,-211.276"/>
<polygon fill="black" stroke="black" points="1105.75,-207.839 1095.17,-208.273 1103.71,-214.535 1105.75,-207.839"/>
<text text-anchor="middle" x="1230.04" y="-231.8" font-family="Times New Roman,serif" font-size="14.00">Crafting 1</text>
</g>
<!-- SCROLL_IceShard&#45;&gt;SKILLBOOK_Projectile_IceShard -->
<g id="edge60" class="edge"><title>SCROLL_IceShard&#45;&gt;SKILLBOOK_Projectile_IceShard</title>
<path fill="none" stroke="black" d="M1437.66,-86.799C1438.75,-75.1626 1440.22,-59.5479 1441.48,-46.2368"/>
<polygon fill="black" stroke="black" points="1444.97,-46.4594 1442.42,-36.1754 1438,-45.8034 1444.97,-46.4594"/>
<text text-anchor="middle" x="1469.04" y="-57.8" font-family="Times New Roman,serif" font-size="14.00">Crafting 4</text>
</g>
<!-- Oven -->
<g id="node42" class="node"><title>Oven</title>
<ellipse fill="none" stroke="black" cx="899.039" cy="-366" rx="30.5947" ry="18"/>
<text text-anchor="middle" x="899.039" y="-362.3" font-family="Times New Roman,serif" font-size="14.00">Oven</text>
</g>
<!-- Oven&#45;&gt;BOOK_Paper_Sheet -->
<g id="edge28" class="edge"><title>Oven&#45;&gt;BOOK_Paper_Sheet</title>
<path fill="none" stroke="black" d="M899.039,-347.799C899.039,-336.163 899.039,-320.548 899.039,-307.237"/>
<polygon fill="black" stroke="black" points="902.539,-307.175 899.039,-297.175 895.539,-307.175 902.539,-307.175"/>
<text text-anchor="middle" x="927.039" y="-318.8" font-family="Times New Roman,serif" font-size="14.00">Crafting 0</text>
</g>
<!-- MortarPestle -->
<g id="node44" class="node"><title>MortarPestle</title>
<ellipse fill="none" stroke="black" cx="521.039" cy="-453" rx="57.3905" ry="18"/>
<text text-anchor="middle" x="521.039" y="-449.3" font-family="Times New Roman,serif" font-size="14.00">MortarPestle</text>
</g>
<!-- MortarPestle&#45;&gt;Pouch_Dust_Bone -->
<g id="edge62" class="edge"><title>MortarPestle&#45;&gt;Pouch_Dust_Bone</title>
<path fill="none" stroke="black" d="M547.108,-436.743C564.909,-426.517 589.145,-412.969 611.039,-402 621.61,-396.704 633.156,-391.314 644.045,-386.403"/>
<polygon fill="black" stroke="black" points="645.701,-389.497 653.405,-382.224 642.847,-383.105 645.701,-389.497"/>
<text text-anchor="middle" x="639.039" y="-405.8" font-family="Times New Roman,serif" font-size="14.00">Crafting 0</text>
</g>
<!-- MortarPestle&#45;&gt;Pouch_Dust_Moon -->
<g id="edge64" class="edge"><title>MortarPestle&#45;&gt;Pouch_Dust_Moon</title>
<path fill="none" stroke="black" d="M513.968,-434.834C511.988,-429.244 510.091,-422.946 509.039,-417 507.758,-409.762 507.215,-401.844 507.062,-394.486"/>
<polygon fill="black" stroke="black" points="510.562,-394.257 507.076,-384.252 503.562,-394.247 510.562,-394.257"/>
<text text-anchor="middle" x="537.039" y="-405.8" font-family="Times New Roman,serif" font-size="14.00">Crafting 0</text>
</g>
<!-- MortarPestle&#45;&gt;Pouch_Dust_Star -->
<g id="edge63" class="edge"><title>MortarPestle&#45;&gt;Pouch_Dust_Star</title>
<path fill="none" stroke="black" d="M478.498,-440.769C470.708,-438.791 462.639,-436.792 455.039,-435 417.877,-426.236 403.517,-437.073 371.039,-417 361.149,-410.888 352.665,-401.426 346.087,-392.37"/>
<polygon fill="black" stroke="black" points="348.884,-390.258 340.382,-383.936 343.086,-394.18 348.884,-390.258"/>
<text text-anchor="middle" x="399.039" y="-405.8" font-family="Times New Roman,serif" font-size="14.00">Crafting 0</text>
</g>
</g>
</svg>
