<?xml version="1.0" encoding="UTF-8" standalone="no"?>
<!DOCTYPE svg PUBLIC "-//W3C//DTD SVG 1.1//EN"
 "http://www.w3.org/Graphics/SVG/1.1/DTD/svg11.dtd">
<!-- Generated by graphviz version 2.38.0 (20140413.2041)
 -->
<!-- Title: G Pages: 1 -->
<svg width="489pt" height="479pt"
 viewBox="0.00 0.00 488.54 479.00" xmlns="http://www.w3.org/2000/svg" xmlns:xlink="http://www.w3.org/1999/xlink">
<g id="graph0" class="graph" transform="scale(1 1) rotate(0) translate(4 475)">
<title>G</title>
<polygon fill="white" stroke="none" points="-4,4 -4,-475 484.537,-475 484.537,4 -4,4"/>
<!-- Herb_Augmentor -->
<g id="node1" class="node"><title>Herb_Augmentor</title>
<ellipse fill="none" stroke="black" cx="74.0934" cy="-192" rx="74.187" ry="18"/>
<text text-anchor="middle" x="74.0934" y="-188.3" font-family="Times New Roman,serif" font-size="14.00">Herb_Augmentor</text>
</g>
<!-- Large_Strength_Potion -->
<g id="node5" class="node"><title>Large_Strength_Potion</title>
<ellipse fill="none" stroke="black" cx="127.093" cy="-18" rx="94.7833" ry="18"/>
<text text-anchor="middle" x="127.093" y="-14.3" font-family="Times New Roman,serif" font-size="14.00">Large_Strength_Potion</text>
</g>
<!-- Herb_Augmentor&#45;&gt;Large_Strength_Potion -->
<g id="edge2" class="edge"><title>Herb_Augmentor&#45;&gt;Large_Strength_Potion</title>
<path fill="none" stroke="black" d="M73.0868,-173.913C72.403,-152.87 73.042,-116.315 83.0934,-87 88.3414,-71.6942 97.7615,-56.4091 106.543,-44.2185"/>
<polygon fill="black" stroke="black" points="109.557,-46.0333 112.755,-35.9328 103.956,-41.8341 109.557,-46.0333"/>
<text text-anchor="middle" x="111.093" y="-101.3" font-family="Times New Roman,serif" font-size="14.00">Crafting 5</text>
</g>
<!-- Medium_Strength_Potion -->
<g id="node7" class="node"><title>Medium_Strength_Potion</title>
<ellipse fill="none" stroke="black" cx="253.093" cy="-105" rx="104.782" ry="18"/>
<text text-anchor="middle" x="253.093" y="-101.3" font-family="Times New Roman,serif" font-size="14.00">Medium_Strength_Potion</text>
</g>
<!-- Herb_Augmentor&#45;&gt;Medium_Strength_Potion -->
<g id="edge1" class="edge"><title>Herb_Augmentor&#45;&gt;Medium_Strength_Potion</title>
<path fill="none" stroke="black" d="M106.509,-175.607C135.485,-161.848 178.162,-141.582 210.003,-126.462"/>
<polygon fill="black" stroke="black" points="211.561,-129.597 219.093,-122.146 208.558,-123.274 211.561,-129.597"/>
<text text-anchor="middle" x="203.093" y="-144.8" font-family="Times New Roman,serif" font-size="14.00">Crafting 4</text>
</g>
<!-- Herb_Farhangite -->
<g id="node2" class="node"><title>Herb_Farhangite</title>
<ellipse fill="none" stroke="black" cx="148.093" cy="-366" rx="71.4873" ry="18"/>
<text text-anchor="middle" x="148.093" y="-362.3" font-family="Times New Roman,serif" font-size="14.00">Herb_Farhangite</text>
</g>
<!-- Potion_Intimidate -->
<g id="node3" class="node"><title>Potion_Intimidate</title>
<ellipse fill="none" stroke="black" cx="187.093" cy="-279" rx="75.2868" ry="18"/>
<text text-anchor="middle" x="187.093" y="-275.3" font-family="Times New Roman,serif" font-size="14.00">Potion_Intimidate</text>
</g>
<!-- Herb_Farhangite&#45;&gt;Potion_Intimidate -->
<g id="edge3" class="edge"><title>Herb_Farhangite&#45;&gt;Potion_Intimidate</title>
<path fill="none" stroke="black" d="M155.986,-347.799C161.43,-335.932 168.774,-319.928 174.958,-306.449"/>
<polygon fill="black" stroke="black" points="178.224,-307.724 179.213,-297.175 171.862,-304.805 178.224,-307.724"/>
<text text-anchor="middle" x="198.093" y="-318.8" font-family="Times New Roman,serif" font-size="14.00">Crafting 2</text>
</g>
<!-- Minor_Strength_Potion -->
<g id="node9" class="node"><title>Minor_Strength_Potion</title>
<ellipse fill="none" stroke="black" cx="263.093" cy="-192" rx="96.6831" ry="18"/>
<text text-anchor="middle" x="263.093" y="-188.3" font-family="Times New Roman,serif" font-size="14.00">Minor_Strength_Potion</text>
</g>
<!-- Potion_Intimidate&#45;&gt;Minor_Strength_Potion -->
<g id="edge4" class="edge"><title>Potion_Intimidate&#45;&gt;Minor_Strength_Potion</title>
<path fill="none" stroke="black" d="M198.716,-261.205C205.905,-251.214 215.555,-238.484 225.093,-228 228.551,-224.2 232.363,-220.348 236.199,-216.657"/>
<polygon fill="black" stroke="black" points="238.602,-219.202 243.517,-209.817 233.822,-214.089 238.602,-219.202"/>
<text text-anchor="middle" x="253.093" y="-231.8" font-family="Times New Roman,serif" font-size="14.00">Crafting 5</text>
</g>
<!-- Potion_Empty -->
<g id="node4" class="node"><title>Potion_Empty</title>
<ellipse fill="none" stroke="black" cx="252.093" cy="-453" rx="63.8893" ry="18"/>
<text text-anchor="middle" x="252.093" y="-449.3" font-family="Times New Roman,serif" font-size="14.00">Potion_Empty</text>
</g>
<!-- Minor_Healing_Potion -->
<g id="node10" class="node"><title>Minor_Healing_Potion</title>
<ellipse fill="none" stroke="black" cx="330.093" cy="-366" rx="92.8835" ry="18"/>
<text text-anchor="middle" x="330.093" y="-362.3" font-family="Times New Roman,serif" font-size="14.00">Minor_Healing_Potion</text>
</g>
<!-- Potion_Empty&#45;&gt;Minor_Healing_Potion -->
<g id="edge5" class="edge"><title>Potion_Empty&#45;&gt;Minor_Healing_Potion</title>
<path fill="none" stroke="black" d="M267.504,-435.207C279.042,-422.633 294.992,-405.252 307.902,-391.182"/>
<polygon fill="black" stroke="black" points="310.533,-393.493 314.715,-383.758 305.375,-388.76 310.533,-393.493"/>
<text text-anchor="middle" x="323.093" y="-405.8" font-family="Times New Roman,serif" font-size="14.00">Crafting 1</text>
</g>
<!-- Tooth -->
<g id="node6" class="node"><title>Tooth</title>
<ellipse fill="none" stroke="black" cx="314.093" cy="-279" rx="33.2948" ry="18"/>
<text text-anchor="middle" x="314.093" y="-275.3" font-family="Times New Roman,serif" font-size="14.00">Tooth</text>
</g>
<!-- Tooth&#45;&gt;Minor_Strength_Potion -->
<g id="edge6" class="edge"><title>Tooth&#45;&gt;Minor_Strength_Potion</title>
<path fill="none" stroke="black" d="M304.26,-261.611C296.947,-249.422 286.827,-232.556 278.451,-218.596"/>
<polygon fill="black" stroke="black" points="281.392,-216.695 273.246,-209.92 275.389,-220.296 281.392,-216.695"/>
<text text-anchor="middle" x="319.093" y="-231.8" font-family="Times New Roman,serif" font-size="14.00">Crafting 5</text>
</g>
<!-- Medium_Strength_Potion&#45;&gt;Large_Strength_Potion -->
<g id="edge7" class="edge"><title>Medium_Strength_Potion&#45;&gt;Large_Strength_Potion</title>
<path fill="none" stroke="black" d="M228.5,-87.4094C208.987,-74.2458 181.525,-55.7198 160.1,-41.2663"/>
<polygon fill="black" stroke="black" points="161.872,-38.2398 151.625,-35.5488 157.957,-44.0428 161.872,-38.2398"/>
<text text-anchor="middle" x="226.093" y="-57.8" font-family="Times New Roman,serif" font-size="14.00">Crafting 5</text>
</g>
<!-- Herb_Mushroom -->
<g id="node8" class="node"><title>Herb_Mushroom</title>
<ellipse fill="none" stroke="black" cx="407.093" cy="-453" rx="73.387" ry="18"/>
<text text-anchor="middle" x="407.093" y="-449.3" font-family="Times New Roman,serif" font-size="14.00">Herb_Mushroom</text>
</g>
<!-- Herb_Mushroom&#45;&gt;Minor_Healing_Potion -->
<g id="edge8" class="edge"><title>Herb_Mushroom&#45;&gt;Minor_Healing_Potion</title>
<path fill="none" stroke="black" d="M391.881,-435.207C380.491,-422.633 364.745,-405.252 352,-391.182"/>
<polygon fill="black" stroke="black" points="354.582,-388.82 345.275,-383.758 349.394,-393.519 354.582,-388.82"/>
<text text-anchor="middle" x="401.093" y="-405.8" font-family="Times New Roman,serif" font-size="14.00">Crafting 1</text>
</g>
<!-- Minor_Strength_Potion&#45;&gt;Medium_Strength_Potion -->
<g id="edge9" class="edge"><title>Minor_Strength_Potion&#45;&gt;Medium_Strength_Potion</title>
<path fill="none" stroke="black" d="M261.07,-173.799C259.701,-162.163 257.864,-146.548 256.298,-133.237"/>
<polygon fill="black" stroke="black" points="259.759,-132.698 255.114,-123.175 252.807,-133.516 259.759,-132.698"/>
<text text-anchor="middle" x="286.093" y="-144.8" font-family="Times New Roman,serif" font-size="14.00">Crafting 4</text>
</g>
<!-- Minor_Healing_Potion&#45;&gt;Potion_Intimidate -->
<g id="edge10" class="edge"><title>Minor_Healing_Potion&#45;&gt;Potion_Intimidate</title>
<path fill="none" stroke="black" d="M302.522,-348.611C279.825,-335.12 247.485,-315.897 222.808,-301.229"/>
<polygon fill="black" stroke="black" points="224.48,-298.151 214.096,-296.05 220.903,-304.169 224.48,-298.151"/>
<text text-anchor="middle" x="295.093" y="-318.8" font-family="Times New Roman,serif" font-size="14.00">Crafting 2</text>
</g>
</g>
</svg>
