<?xml version="1.0" encoding="UTF-8" standalone="no"?>
<!DOCTYPE svg PUBLIC "-//W3C//DTD SVG 1.1//EN"
 "http://www.w3.org/Graphics/SVG/1.1/DTD/svg11.dtd">
<!-- Generated by graphviz version 2.38.0 (20140413.2041)
 -->
<!-- Title: G Pages: 1 -->
<svg width="202pt" height="131pt"
 viewBox="0.00 0.00 202.00 131.00" xmlns="http://www.w3.org/2000/svg" xmlns:xlink="http://www.w3.org/1999/xlink">
<g id="graph0" class="graph" transform="scale(1 1) rotate(0) translate(4 127)">
<title>G</title>
<polygon fill="white" stroke="none" points="-4,4 -4,-127 197.995,-127 197.995,4 -4,4"/>
<!-- long dagger (or rapier -->
<g id="node1" class="node"><title>long dagger (or rapier</title>
<ellipse fill="none" stroke="black" cx="101.995" cy="-18" rx="89.0842" ry="18"/>
<text text-anchor="middle" x="101.995" y="-14.3" font-family="Times New Roman,serif" font-size="14.00">long dagger (or rapier</text>
</g>
<!-- butter knife -->
<g id="node2" class="node"><title>butter knife</title>
<ellipse fill="none" stroke="black" cx="51.9954" cy="-105" rx="51.9908" ry="18"/>
<text text-anchor="middle" x="51.9954" y="-101.3" font-family="Times New Roman,serif" font-size="14.00">butter knife</text>
</g>
<!-- butter knife&#45;&gt;long dagger (or rapier -->
<g id="edge1" class="edge"><title>butter knife&#45;&gt;long dagger (or rapier</title>
<path fill="none" stroke="black" d="M58.2785,-86.7871C62.2062,-76.8829 67.7062,-64.3829 73.9954,-54 76.0679,-50.5785 78.4371,-47.1199 80.9003,-43.7769"/>
<polygon fill="black" stroke="black" points="83.7317,-45.8372 87.1012,-35.7925 78.2031,-41.5436 83.7317,-45.8372"/>
<text text-anchor="middle" x="101.995" y="-57.8" font-family="Times New Roman,serif" font-size="14.00">Crafting 0</text>
</g>
<!-- Anvil -->
<g id="node3" class="node"><title>Anvil</title>
<ellipse fill="none" stroke="black" cx="151.995" cy="-105" rx="29.795" ry="18"/>
<text text-anchor="middle" x="151.995" y="-101.3" font-family="Times New Roman,serif" font-size="14.00">Anvil</text>
</g>
<!-- Anvil&#45;&gt;long dagger (or rapier -->
<g id="edge2" class="edge"><title>Anvil&#45;&gt;long dagger (or rapier</title>
<path fill="none" stroke="black" d="M145.895,-87.2495C141.956,-77.274 136.383,-64.5451 129.995,-54 127.923,-50.5785 125.554,-47.1199 123.091,-43.7769"/>
<polygon fill="black" stroke="black" points="125.788,-41.5436 116.89,-35.7925 120.259,-45.8372 125.788,-41.5436"/>
<text text-anchor="middle" x="165.995" y="-57.8" font-family="Times New Roman,serif" font-size="14.00">Crafting 0</text>
</g>
</g>
</svg>
