<?xml version="1.0" encoding="UTF-8" standalone="no"?>
<!DOCTYPE svg PUBLIC "-//W3C//DTD SVG 1.1//EN"
 "http://www.w3.org/Graphics/SVG/1.1/DTD/svg11.dtd">
<!-- Generated by graphviz version 2.38.0 (20140413.2041)
 -->
<!-- Title: G Pages: 1 -->
<svg width="286pt" height="149pt"
 viewBox="0.00 0.00 285.99 148.74" xmlns="http://www.w3.org/2000/svg" xmlns:xlink="http://www.w3.org/1999/xlink">
<g id="graph0" class="graph" transform="scale(1 1) rotate(0) translate(4 144.74)">
<title>G</title>
<polygon fill="white" stroke="none" points="-4,4 -4,-144.74 281.988,-144.74 281.988,4 -4,4"/>
<!-- RobeArmor
+ Small_Sneaking -->
<g id="node1" class="node"><title>RobeArmor
+ Small_Sneaking</title>
<ellipse fill="none" stroke="black" cx="128.595" cy="-26.8701" rx="82.9636" ry="26.7407"/>
<text text-anchor="middle" x="128.595" y="-30.6701" font-family="Times New Roman,serif" font-size="14.00">RobeArmor</text>
<text text-anchor="middle" x="128.595" y="-15.6701" font-family="Times New Roman,serif" font-size="14.00">+ Small_Sneaking</text>
</g>
<!-- RobeArmor -->
<g id="node2" class="node"><title>RobeArmor</title>
<ellipse fill="none" stroke="black" cx="54.5952" cy="-122.74" rx="54.6905" ry="18"/>
<text text-anchor="middle" x="54.5952" y="-119.04" font-family="Times New Roman,serif" font-size="14.00">RobeArmor</text>
</g>
<!-- RobeArmor&#45;&gt;RobeArmor
+ Small_Sneaking -->
<g id="edge1" class="edge"><title>RobeArmor&#45;&gt;RobeArmor
+ Small_Sneaking</title>
<path fill="none" stroke="black" d="M67.8249,-104.958C77.4359,-92.7663 90.7577,-75.8675 102.48,-60.9981"/>
<polygon fill="black" stroke="black" points="105.351,-63.0089 108.793,-52.9889 99.8538,-58.6753 105.351,-63.0089"/>
<text text-anchor="middle" x="122.595" y="-75.5401" font-family="Times New Roman,serif" font-size="14.00">Crafting 4</text>
</g>
<!-- Essence_Shadow -->
<g id="node3" class="node"><title>Essence_Shadow</title>
<ellipse fill="none" stroke="black" cx="202.595" cy="-122.74" rx="75.2868" ry="18"/>
<text text-anchor="middle" x="202.595" y="-119.04" font-family="Times New Roman,serif" font-size="14.00">Essence_Shadow</text>
</g>
<!-- Essence_Shadow&#45;&gt;RobeArmor
+ Small_Sneaking -->
<g id="edge2" class="edge"><title>Essence_Shadow&#45;&gt;RobeArmor
+ Small_Sneaking</title>
<path fill="none" stroke="black" d="M189.365,-104.958C179.754,-92.7663 166.433,-75.8675 154.711,-60.9981"/>
<polygon fill="black" stroke="black" points="157.336,-58.6753 148.397,-52.9889 151.839,-63.0089 157.336,-58.6753"/>
<text text-anchor="middle" x="202.595" y="-75.5401" font-family="Times New Roman,serif" font-size="14.00">Crafting 4</text>
</g>
</g>
</svg>
