<?xml version="1.0" encoding="UTF-8" standalone="no"?>
<!DOCTYPE svg PUBLIC "-//W3C//DTD SVG 1.1//EN"
 "http://www.w3.org/Graphics/SVG/1.1/DTD/svg11.dtd">
<!-- Generated by graphviz version 2.38.0 (20140413.2041)
 -->
<!-- Title: G Pages: 1 -->
<svg width="844pt" height="392pt"
 viewBox="0.00 0.00 844.39 392.00" xmlns="http://www.w3.org/2000/svg" xmlns:xlink="http://www.w3.org/1999/xlink">
<g id="graph0" class="graph" transform="scale(1 1) rotate(0) translate(4 388)">
<title>G</title>
<polygon fill="white" stroke="none" points="-4,4 -4,-388 840.392,-388 840.392,4 -4,4"/>
<!-- Pouch_Dust_Pixie -->
<g id="node1" class="node"><title>Pouch_Dust_Pixie</title>
<ellipse fill="none" stroke="black" cx="420.397" cy="-192" rx="78.7863" ry="18"/>
<text text-anchor="middle" x="420.397" y="-188.3" font-family="Times New Roman,serif" font-size="14.00">Pouch_Dust_Pixie</text>
</g>
<!-- Feather_A_Magic -->
<g id="node3" class="node"><title>Feather_A_Magic</title>
<ellipse fill="none" stroke="black" cx="417.397" cy="-105" rx="76.0865" ry="18"/>
<text text-anchor="middle" x="417.397" y="-101.3" font-family="Times New Roman,serif" font-size="14.00">Feather_A_Magic</text>
</g>
<!-- Pouch_Dust_Pixie&#45;&gt;Feather_A_Magic -->
<g id="edge1" class="edge"><title>Pouch_Dust_Pixie&#45;&gt;Feather_A_Magic</title>
<path fill="none" stroke="black" d="M419.79,-173.799C419.379,-162.163 418.828,-146.548 418.358,-133.237"/>
<polygon fill="black" stroke="black" points="421.854,-133.046 418.003,-123.175 414.858,-133.293 421.854,-133.046"/>
<text text-anchor="middle" x="447.397" y="-144.8" font-family="Times New Roman,serif" font-size="14.00">Crafting 1</text>
</g>
<!-- Feather_MagicAmulet -->
<g id="node2" class="node"><title>Feather_MagicAmulet</title>
<ellipse fill="none" stroke="black" cx="488.397" cy="-18" rx="90.9839" ry="18"/>
<text text-anchor="middle" x="488.397" y="-14.3" font-family="Times New Roman,serif" font-size="14.00">Feather_MagicAmulet</text>
</g>
<!-- Feather_A_Magic&#45;&gt;Feather_MagicAmulet -->
<g id="edge3" class="edge"><title>Feather_A_Magic&#45;&gt;Feather_MagicAmulet</title>
<path fill="none" stroke="black" d="M429.187,-86.9023C436.2,-77.0364 445.45,-64.5364 454.397,-54 457.377,-50.4908 460.623,-46.8942 463.89,-43.4055"/>
<polygon fill="black" stroke="black" points="466.58,-45.6568 470.975,-36.0164 461.527,-40.8121 466.58,-45.6568"/>
<text text-anchor="middle" x="482.397" y="-57.8" font-family="Times New Roman,serif" font-size="14.00">Crafting 1</text>
</g>
<!-- Dagger -->
<g id="node4" class="node"><title>Dagger</title>
<ellipse fill="none" stroke="black" cx="36.3968" cy="-279" rx="36.2938" ry="18"/>
<text text-anchor="middle" x="36.3968" y="-275.3" font-family="Times New Roman,serif" font-size="14.00">Dagger</text>
</g>
<!-- Feather -->
<g id="node14" class="node"><title>Feather</title>
<ellipse fill="none" stroke="black" cx="165.397" cy="-192" rx="37.8943" ry="18"/>
<text text-anchor="middle" x="165.397" y="-188.3" font-family="Times New Roman,serif" font-size="14.00">Feather</text>
</g>
<!-- Dagger&#45;&gt;Feather -->
<g id="edge4" class="edge"><title>Dagger&#45;&gt;Feather</title>
<path fill="none" stroke="black" d="M41.1618,-261.051C45.0048,-250.232 51.438,-236.662 61.3968,-228 77.751,-213.775 100.111,-205.281 119.908,-200.233"/>
<polygon fill="black" stroke="black" points="120.735,-203.634 129.682,-197.959 119.149,-196.816 120.735,-203.634"/>
<text text-anchor="middle" x="89.3968" y="-231.8" font-family="Times New Roman,serif" font-size="14.00">Crafting 0</text>
</g>
<!-- Thread -->
<g id="node5" class="node"><title>Thread</title>
<ellipse fill="none" stroke="black" cx="547.397" cy="-105" rx="36.2938" ry="18"/>
<text text-anchor="middle" x="547.397" y="-101.3" font-family="Times New Roman,serif" font-size="14.00">Thread</text>
</g>
<!-- Thread&#45;&gt;Feather_MagicAmulet -->
<g id="edge5" class="edge"><title>Thread&#45;&gt;Feather_MagicAmulet</title>
<path fill="none" stroke="black" d="M536.021,-87.6111C527.48,-75.3064 515.63,-58.2339 505.887,-44.1977"/>
<polygon fill="black" stroke="black" points="508.719,-42.1395 500.141,-35.9203 502.968,-46.1311 508.719,-42.1395"/>
<text text-anchor="middle" x="550.397" y="-57.8" font-family="Times New Roman,serif" font-size="14.00">Crafting 1</text>
</g>
<!-- Bone -->
<g id="node6" class="node"><title>Bone</title>
<ellipse fill="none" stroke="black" cx="334.397" cy="-366" rx="29.795" ry="18"/>
<text text-anchor="middle" x="334.397" y="-362.3" font-family="Times New Roman,serif" font-size="14.00">Bone</text>
</g>
<!-- Pouch_Dust_Bone -->
<g id="node7" class="node"><title>Pouch_Dust_Bone</title>
<ellipse fill="none" stroke="black" cx="334.397" cy="-279" rx="79.8859" ry="18"/>
<text text-anchor="middle" x="334.397" y="-275.3" font-family="Times New Roman,serif" font-size="14.00">Pouch_Dust_Bone</text>
</g>
<!-- Bone&#45;&gt;Pouch_Dust_Bone -->
<g id="edge17" class="edge"><title>Bone&#45;&gt;Pouch_Dust_Bone</title>
<path fill="none" stroke="black" d="M334.397,-347.799C334.397,-336.163 334.397,-320.548 334.397,-307.237"/>
<polygon fill="black" stroke="black" points="337.897,-307.175 334.397,-297.175 330.897,-307.175 337.897,-307.175"/>
<text text-anchor="middle" x="362.397" y="-318.8" font-family="Times New Roman,serif" font-size="14.00">Crafting 0</text>
</g>
<!-- Pouch_Dust_Bone&#45;&gt;Pouch_Dust_Pixie -->
<g id="edge6" class="edge"><title>Pouch_Dust_Bone&#45;&gt;Pouch_Dust_Pixie</title>
<path fill="none" stroke="black" d="M351.388,-261.207C364.227,-248.517 382.021,-230.93 396.324,-216.793"/>
<polygon fill="black" stroke="black" points="398.789,-219.277 403.441,-209.758 393.869,-214.299 398.789,-219.277"/>
<text text-anchor="middle" x="411.397" y="-231.8" font-family="Times New Roman,serif" font-size="14.00">Crafting 0</text>
</g>
<!-- Pillow -->
<g id="node8" class="node"><title>Pillow</title>
<ellipse fill="none" stroke="black" cx="124.397" cy="-279" rx="33.2948" ry="18"/>
<text text-anchor="middle" x="124.397" y="-275.3" font-family="Times New Roman,serif" font-size="14.00">Pillow</text>
</g>
<!-- Pillow&#45;&gt;Feather -->
<g id="edge16" class="edge"><title>Pillow&#45;&gt;Feather</title>
<path fill="none" stroke="black" d="M120.962,-261.033C119.745,-250.981 119.671,-238.248 124.397,-228 126.908,-222.555 130.729,-217.644 135.048,-213.34"/>
<polygon fill="black" stroke="black" points="137.43,-215.906 142.644,-206.683 132.816,-210.642 137.43,-215.906"/>
<text text-anchor="middle" x="152.397" y="-231.8" font-family="Times New Roman,serif" font-size="14.00">Crafting 0</text>
</g>
<!-- Hair -->
<g id="node9" class="node"><title>Hair</title>
<ellipse fill="none" stroke="black" cx="547.397" cy="-192" rx="27" ry="18"/>
<text text-anchor="middle" x="547.397" y="-188.3" font-family="Times New Roman,serif" font-size="14.00">Hair</text>
</g>
<!-- Hair&#45;&gt;Thread -->
<g id="edge2" class="edge"><title>Hair&#45;&gt;Thread</title>
<path fill="none" stroke="black" d="M547.397,-173.799C547.397,-162.163 547.397,-146.548 547.397,-133.237"/>
<polygon fill="black" stroke="black" points="550.897,-133.175 547.397,-123.175 543.897,-133.175 550.897,-133.175"/>
<text text-anchor="middle" x="575.397" y="-144.8" font-family="Times New Roman,serif" font-size="14.00">Crafting 0</text>
</g>
<!-- Moonstone -->
<g id="node10" class="node"><title>Moonstone</title>
<ellipse fill="none" stroke="black" cx="784.397" cy="-366" rx="51.9908" ry="18"/>
<text text-anchor="middle" x="784.397" y="-362.3" font-family="Times New Roman,serif" font-size="14.00">Moonstone</text>
</g>
<!-- Pouch_Dust_Moon -->
<g id="node17" class="node"><title>Pouch_Dust_Moon</title>
<ellipse fill="none" stroke="black" cx="684.397" cy="-279" rx="83.3857" ry="18"/>
<text text-anchor="middle" x="684.397" y="-275.3" font-family="Times New Roman,serif" font-size="14.00">Pouch_Dust_Moon</text>
</g>
<!-- Moonstone&#45;&gt;Pouch_Dust_Moon -->
<g id="edge7" class="edge"><title>Moonstone&#45;&gt;Pouch_Dust_Moon</title>
<path fill="none" stroke="black" d="M765.588,-349.012C750.515,-336.2 729.146,-318.037 712.114,-303.56"/>
<polygon fill="black" stroke="black" points="714.034,-300.598 704.148,-296.789 709.501,-305.932 714.034,-300.598"/>
<text text-anchor="middle" x="767.397" y="-318.8" font-family="Times New Roman,serif" font-size="14.00">Crafting 0</text>
</g>
<!-- Pouch_Dust_Star -->
<g id="node11" class="node"><title>Pouch_Dust_Star</title>
<ellipse fill="none" stroke="black" cx="507.397" cy="-279" rx="75.2868" ry="18"/>
<text text-anchor="middle" x="507.397" y="-275.3" font-family="Times New Roman,serif" font-size="14.00">Pouch_Dust_Star</text>
</g>
<!-- Pouch_Dust_Star&#45;&gt;Pouch_Dust_Pixie -->
<g id="edge8" class="edge"><title>Pouch_Dust_Star&#45;&gt;Pouch_Dust_Pixie</title>
<path fill="none" stroke="black" d="M490.208,-261.207C477.22,-248.517 459.219,-230.93 444.749,-216.793"/>
<polygon fill="black" stroke="black" points="447.148,-214.243 437.549,-209.758 442.256,-219.25 447.148,-214.243"/>
<text text-anchor="middle" x="497.397" y="-231.8" font-family="Times New Roman,serif" font-size="14.00">Crafting 0</text>
</g>
<!-- Knife -->
<g id="node12" class="node"><title>Knife</title>
<ellipse fill="none" stroke="black" cx="206.397" cy="-279" rx="30.5947" ry="18"/>
<text text-anchor="middle" x="206.397" y="-275.3" font-family="Times New Roman,serif" font-size="14.00">Knife</text>
</g>
<!-- Knife&#45;&gt;Feather -->
<g id="edge9" class="edge"><title>Knife&#45;&gt;Feather</title>
<path fill="none" stroke="black" d="M199.405,-261.174C195.242,-251.399 189.742,-238.899 184.397,-228 182.905,-224.958 181.288,-221.799 179.649,-218.678"/>
<polygon fill="black" stroke="black" points="182.582,-216.741 174.766,-209.588 176.415,-220.053 182.582,-216.741"/>
<text text-anchor="middle" x="220.397" y="-231.8" font-family="Times New Roman,serif" font-size="14.00">Crafting 0</text>
</g>
<!-- Herb_Stardust -->
<g id="node13" class="node"><title>Herb_Stardust</title>
<ellipse fill="none" stroke="black" cx="650.397" cy="-366" rx="63.8893" ry="18"/>
<text text-anchor="middle" x="650.397" y="-362.3" font-family="Times New Roman,serif" font-size="14.00">Herb_Stardust</text>
</g>
<!-- Herb_Stardust&#45;&gt;Pouch_Dust_Star -->
<g id="edge14" class="edge"><title>Herb_Stardust&#45;&gt;Pouch_Dust_Star</title>
<path fill="none" stroke="black" d="M646.825,-347.94C643.705,-337.075 638.103,-323.494 628.397,-315 619.466,-307.184 596.355,-299.703 572.695,-293.679"/>
<polygon fill="black" stroke="black" points="573.466,-290.265 562.919,-291.275 571.794,-297.062 573.466,-290.265"/>
<text text-anchor="middle" x="666.397" y="-318.8" font-family="Times New Roman,serif" font-size="14.00">Crafting 0</text>
</g>
<!-- Feather&#45;&gt;Feather_A_Magic -->
<g id="edge15" class="edge"><title>Feather&#45;&gt;Feather_A_Magic</title>
<path fill="none" stroke="black" d="M195.294,-180.916C237.305,-166.745 314.41,-140.738 365.794,-123.406"/>
<polygon fill="black" stroke="black" points="367.036,-126.681 375.393,-120.168 364.799,-120.048 367.036,-126.681"/>
<text text-anchor="middle" x="335.397" y="-144.8" font-family="Times New Roman,serif" font-size="14.00">Crafting 1</text>
</g>
<!-- Skull_Human -->
<g id="node15" class="node"><title>Skull_Human</title>
<ellipse fill="none" stroke="black" cx="226.397" cy="-366" rx="59.5901" ry="18"/>
<text text-anchor="middle" x="226.397" y="-362.3" font-family="Times New Roman,serif" font-size="14.00">Skull_Human</text>
</g>
<!-- Skull_Human&#45;&gt;Pouch_Dust_Bone -->
<g id="edge10" class="edge"><title>Skull_Human&#45;&gt;Pouch_Dust_Bone</title>
<path fill="none" stroke="black" d="M240.488,-348.087C249.545,-337.812 261.917,-324.825 274.397,-315 280.726,-310.017 287.837,-305.252 294.891,-300.929"/>
<polygon fill="black" stroke="black" points="296.902,-303.807 303.733,-295.709 293.343,-297.779 296.902,-303.807"/>
<text text-anchor="middle" x="302.397" y="-318.8" font-family="Times New Roman,serif" font-size="14.00">Crafting 0</text>
</g>
<!-- MortarPestle -->
<g id="node16" class="node"><title>MortarPestle</title>
<ellipse fill="none" stroke="black" cx="492.397" cy="-366" rx="57.3905" ry="18"/>
<text text-anchor="middle" x="492.397" y="-362.3" font-family="Times New Roman,serif" font-size="14.00">MortarPestle</text>
</g>
<!-- MortarPestle&#45;&gt;Pouch_Dust_Bone -->
<g id="edge11" class="edge"><title>MortarPestle&#45;&gt;Pouch_Dust_Bone</title>
<path fill="none" stroke="black" d="M464.875,-350.194C439.346,-336.46 401.112,-315.891 372.624,-300.565"/>
<polygon fill="black" stroke="black" points="374.21,-297.444 363.745,-295.789 370.893,-303.609 374.21,-297.444"/>
<text text-anchor="middle" x="451.397" y="-318.8" font-family="Times New Roman,serif" font-size="14.00">Crafting 0</text>
</g>
<!-- MortarPestle&#45;&gt;Pouch_Dust_Star -->
<g id="edge12" class="edge"><title>MortarPestle&#45;&gt;Pouch_Dust_Star</title>
<path fill="none" stroke="black" d="M491.225,-347.708C490.944,-338.001 491.221,-325.721 493.397,-315 493.951,-312.268 494.709,-309.476 495.586,-306.721"/>
<polygon fill="black" stroke="black" points="498.971,-307.659 499.143,-297.066 492.402,-305.239 498.971,-307.659"/>
<text text-anchor="middle" x="521.397" y="-318.8" font-family="Times New Roman,serif" font-size="14.00">Crafting 0</text>
</g>
<!-- MortarPestle&#45;&gt;Pouch_Dust_Moon -->
<g id="edge13" class="edge"><title>MortarPestle&#45;&gt;Pouch_Dust_Moon</title>
<path fill="none" stroke="black" d="M518.345,-349.948C528.23,-343.986 539.494,-336.913 549.397,-330 558.218,-323.841 558.857,-319.975 568.397,-315 583.911,-306.91 601.589,-300.382 618.387,-295.256"/>
<polygon fill="black" stroke="black" points="619.539,-298.566 628.153,-292.398 617.573,-291.847 619.539,-298.566"/>
<text text-anchor="middle" x="596.397" y="-318.8" font-family="Times New Roman,serif" font-size="14.00">Crafting 0</text>
</g>
<!-- Pouch_Dust_Moon&#45;&gt;Pouch_Dust_Pixie -->
<g id="edge18" class="edge"><title>Pouch_Dust_Moon&#45;&gt;Pouch_Dust_Pixie</title>
<path fill="none" stroke="black" d="M639.971,-263.652C608.985,-253.648 566.675,-239.998 529.397,-228 511.278,-222.169 491.462,-215.802 473.754,-210.117"/>
<polygon fill="black" stroke="black" points="474.748,-206.761 464.157,-207.037 472.609,-213.426 474.748,-206.761"/>
<text text-anchor="middle" x="600.397" y="-231.8" font-family="Times New Roman,serif" font-size="14.00">Crafting 0</text>
</g>
</g>
</svg>
