<?xml version="1.0" encoding="UTF-8" standalone="no"?>
<!DOCTYPE svg PUBLIC "-//W3C//DTD SVG 1.1//EN"
 "http://www.w3.org/Graphics/SVG/1.1/DTD/svg11.dtd">
<!-- Generated by graphviz version 2.38.0 (20140413.2041)
 -->
<!-- Title: G Pages: 1 -->
<svg width="211pt" height="149pt"
 viewBox="0.00 0.00 210.54 148.74" xmlns="http://www.w3.org/2000/svg" xmlns:xlink="http://www.w3.org/1999/xlink">
<g id="graph0" class="graph" transform="scale(1 1) rotate(0) translate(4 144.74)">
<title>G</title>
<polygon fill="white" stroke="none" points="-4,4 -4,-144.74 206.545,-144.74 206.545,4 -4,4"/>
<!-- Essence_Air -->
<g id="node1" class="node"><title>Essence_Air</title>
<ellipse fill="none" stroke="black" cx="56.545" cy="-122.74" rx="56.59" ry="18"/>
<text text-anchor="middle" x="56.545" y="-119.04" font-family="Times New Roman,serif" font-size="14.00">Essence_Air</text>
</g>
<!-- Knife
+ Small_AirDamage -->
<g id="node2" class="node"><title>Knife
+ Small_AirDamage</title>
<ellipse fill="none" stroke="black" cx="108.545" cy="-26.8701" rx="91.4341" ry="26.7407"/>
<text text-anchor="middle" x="108.545" y="-30.6701" font-family="Times New Roman,serif" font-size="14.00">Knife</text>
<text text-anchor="middle" x="108.545" y="-15.6701" font-family="Times New Roman,serif" font-size="14.00">+ Small_AirDamage</text>
</g>
<!-- Essence_Air&#45;&gt;Knife
+ Small_AirDamage -->
<g id="edge1" class="edge"><title>Essence_Air&#45;&gt;Knife
+ Small_AirDamage</title>
<path fill="none" stroke="black" d="M65.6959,-104.563C70.8793,-94.8917 77.5143,-82.6095 83.545,-71.7401 85.2116,-68.7362 86.9539,-65.624 88.7094,-62.5071"/>
<polygon fill="black" stroke="black" points="91.7602,-64.2226 93.6409,-53.796 85.6685,-60.774 91.7602,-64.2226"/>
<text text-anchor="middle" x="111.545" y="-75.5401" font-family="Times New Roman,serif" font-size="14.00">Crafting 5</text>
</g>
<!-- Knife -->
<g id="node3" class="node"><title>Knife</title>
<ellipse fill="none" stroke="black" cx="161.545" cy="-122.74" rx="30.5947" ry="18"/>
<text text-anchor="middle" x="161.545" y="-119.04" font-family="Times New Roman,serif" font-size="14.00">Knife</text>
</g>
<!-- Knife&#45;&gt;Knife
+ Small_AirDamage -->
<g id="edge2" class="edge"><title>Knife&#45;&gt;Knife
+ Small_AirDamage</title>
<path fill="none" stroke="black" d="M155.215,-105.124C151.194,-95.1968 145.616,-82.4708 139.545,-71.7401 137.691,-68.4628 135.651,-65.1281 133.529,-61.8355"/>
<polygon fill="black" stroke="black" points="136.272,-59.6418 127.795,-53.2868 130.459,-63.5413 136.272,-59.6418"/>
<text text-anchor="middle" x="174.545" y="-75.5401" font-family="Times New Roman,serif" font-size="14.00">Crafting 5</text>
</g>
</g>
</svg>
