<?xml version="1.0" encoding="UTF-8" standalone="no"?>
<!DOCTYPE svg PUBLIC "-//W3C//DTD SVG 1.1//EN"
 "http://www.w3.org/Graphics/SVG/1.1/DTD/svg11.dtd">
<!-- Generated by graphviz version 2.38.0 (20140413.2041)
 -->
<!-- Title: G Pages: 1 -->
<svg width="246pt" height="149pt"
 viewBox="0.00 0.00 245.65 148.74" xmlns="http://www.w3.org/2000/svg" xmlns:xlink="http://www.w3.org/1999/xlink">
<g id="graph0" class="graph" transform="scale(1 1) rotate(0) translate(4 144.74)">
<title>G</title>
<polygon fill="white" stroke="none" points="-4,4 -4,-144.74 241.653,-144.74 241.653,4 -4,4"/>
<!-- Garment -->
<g id="node1" class="node"><title>Garment</title>
<ellipse fill="none" stroke="black" cx="48.3087" cy="-122.74" rx="42.4939" ry="18"/>
<text text-anchor="middle" x="48.3087" y="-119.04" font-family="Times New Roman,serif" font-size="14.00">Garment</text>
</g>
<!-- Garment
+ Small_EarthResistance -->
<g id="node2" class="node"><title>Garment
+ Small_EarthResistance</title>
<ellipse fill="none" stroke="black" cx="110.309" cy="-26.8701" rx="110.118" ry="26.7407"/>
<text text-anchor="middle" x="110.309" y="-30.6701" font-family="Times New Roman,serif" font-size="14.00">Garment</text>
<text text-anchor="middle" x="110.309" y="-15.6701" font-family="Times New Roman,serif" font-size="14.00">+ Small_EarthResistance</text>
</g>
<!-- Garment&#45;&gt;Garment
+ Small_EarthResistance -->
<g id="edge1" class="edge"><title>Garment&#45;&gt;Garment
+ Small_EarthResistance</title>
<path fill="none" stroke="black" d="M59.393,-104.958C67.2544,-93.0556 78.0792,-76.6666 87.7269,-62.0596"/>
<polygon fill="black" stroke="black" points="90.6492,-63.9858 93.24,-53.7126 84.8082,-60.1279 90.6492,-63.9858"/>
<text text-anchor="middle" x="109.309" y="-75.5401" font-family="Times New Roman,serif" font-size="14.00">Crafting 2</text>
</g>
<!-- Essence_Earth -->
<g id="node3" class="node"><title>Essence_Earth</title>
<ellipse fill="none" stroke="black" cx="173.309" cy="-122.74" rx="64.189" ry="18"/>
<text text-anchor="middle" x="173.309" y="-119.04" font-family="Times New Roman,serif" font-size="14.00">Essence_Earth</text>
</g>
<!-- Essence_Earth&#45;&gt;Garment
+ Small_EarthResistance -->
<g id="edge2" class="edge"><title>Essence_Earth&#45;&gt;Garment
+ Small_EarthResistance</title>
<path fill="none" stroke="black" d="M162.832,-104.949C156.673,-95.1853 148.673,-82.6853 141.309,-71.7401 139.207,-68.616 136.997,-65.3861 134.765,-62.1615"/>
<polygon fill="black" stroke="black" points="137.461,-59.9093 128.866,-53.7145 131.722,-63.9172 137.461,-59.9093"/>
<text text-anchor="middle" x="179.309" y="-75.5401" font-family="Times New Roman,serif" font-size="14.00">Crafting 2</text>
</g>
</g>
</svg>
