<?xml version="1.0" encoding="UTF-8" standalone="no"?>
<!DOCTYPE svg PUBLIC "-//W3C//DTD SVG 1.1//EN"
 "http://www.w3.org/Graphics/SVG/1.1/DTD/svg11.dtd">
<!-- Generated by graphviz version 2.38.0 (20140413.2041)
 -->
<!-- Title: G Pages: 1 -->
<svg width="262pt" height="131pt"
 viewBox="0.00 0.00 261.64 131.00" xmlns="http://www.w3.org/2000/svg" xmlns:xlink="http://www.w3.org/1999/xlink">
<g id="graph0" class="graph" transform="scale(1 1) rotate(0) translate(4 127)">
<title>G</title>
<polygon fill="white" stroke="none" points="-4,4 -4,-127 257.64,-127 257.64,4 -4,4"/>
<!-- Porridge -->
<g id="node1" class="node"><title>Porridge</title>
<ellipse fill="none" stroke="black" cx="151.193" cy="-18" rx="42.4939" ry="18"/>
<text text-anchor="middle" x="151.193" y="-14.3" font-family="Times New Roman,serif" font-size="14.00">Porridge</text>
</g>
<!-- Drink_Cup_A_Milk -->
<g id="node2" class="node"><title>Drink_Cup_A_Milk</title>
<ellipse fill="none" stroke="black" cx="83.1926" cy="-105" rx="83.3857" ry="18"/>
<text text-anchor="middle" x="83.1926" y="-101.3" font-family="Times New Roman,serif" font-size="14.00">Drink_Cup_A_Milk</text>
</g>
<!-- Drink_Cup_A_Milk&#45;&gt;Porridge -->
<g id="edge1" class="edge"><title>Drink_Cup_A_Milk&#45;&gt;Porridge</title>
<path fill="none" stroke="black" d="M96.6272,-87.2067C106.722,-74.5881 120.691,-57.1265 131.968,-43.0303"/>
<polygon fill="black" stroke="black" points="134.733,-45.1768 138.247,-35.1817 129.267,-40.8039 134.733,-45.1768"/>
<text text-anchor="middle" x="150.193" y="-57.8" font-family="Times New Roman,serif" font-size="14.00">Crafting 0</text>
</g>
<!-- Wheat -->
<g id="node3" class="node"><title>Wheat</title>
<ellipse fill="none" stroke="black" cx="219.193" cy="-105" rx="34.394" ry="18"/>
<text text-anchor="middle" x="219.193" y="-101.3" font-family="Times New Roman,serif" font-size="14.00">Wheat</text>
</g>
<!-- Wheat&#45;&gt;Porridge -->
<g id="edge2" class="edge"><title>Wheat&#45;&gt;Porridge</title>
<path fill="none" stroke="black" d="M207.876,-87.9669C200.723,-78.0226 191.166,-65.0752 182.193,-54 179.238,-50.3539 176.037,-46.5697 172.852,-42.8956"/>
<polygon fill="black" stroke="black" points="175.242,-40.3138 166.005,-35.1248 169.99,-44.9416 175.242,-40.3138"/>
<text text-anchor="middle" x="222.193" y="-57.8" font-family="Times New Roman,serif" font-size="14.00">Crafting 0</text>
</g>
</g>
</svg>
