<?xml version="1.0" encoding="UTF-8" standalone="no"?>
<!DOCTYPE svg PUBLIC "-//W3C//DTD SVG 1.1//EN"
 "http://www.w3.org/Graphics/SVG/1.1/DTD/svg11.dtd">
<!-- Generated by graphviz version 2.38.0 (20140413.2041)
 -->
<!-- Title: G Pages: 1 -->
<svg width="266pt" height="149pt"
 viewBox="0.00 0.00 266.24 148.74" xmlns="http://www.w3.org/2000/svg" xmlns:xlink="http://www.w3.org/1999/xlink">
<g id="graph0" class="graph" transform="scale(1 1) rotate(0) translate(4 144.74)">
<title>G</title>
<polygon fill="white" stroke="none" points="-4,4 -4,-144.74 262.239,-144.74 262.239,4 -4,4"/>
<!-- ArmorGloves -->
<g id="node1" class="node"><title>ArmorGloves</title>
<ellipse fill="none" stroke="black" cx="60.4446" cy="-122.74" rx="60.3893" ry="18"/>
<text text-anchor="middle" x="60.4446" y="-119.04" font-family="Times New Roman,serif" font-size="14.00">ArmorGloves</text>
</g>
<!-- ArmorGloves
+ Small_FireResistance -->
<g id="node3" class="node"><title>ArmorGloves
+ Small_FireResistance</title>
<ellipse fill="none" stroke="black" cx="129.445" cy="-26.8701" rx="105.218" ry="26.7407"/>
<text text-anchor="middle" x="129.445" y="-30.6701" font-family="Times New Roman,serif" font-size="14.00">ArmorGloves</text>
<text text-anchor="middle" x="129.445" y="-15.6701" font-family="Times New Roman,serif" font-size="14.00">+ Small_FireResistance</text>
</g>
<!-- ArmorGloves&#45;&gt;ArmorGloves
+ Small_FireResistance -->
<g id="edge1" class="edge"><title>ArmorGloves&#45;&gt;ArmorGloves
+ Small_FireResistance</title>
<path fill="none" stroke="black" d="M72.7805,-104.958C81.5943,-92.9674 93.755,-76.4235 104.552,-61.7353"/>
<polygon fill="black" stroke="black" points="107.613,-63.4804 110.715,-53.35 101.973,-59.3345 107.613,-63.4804"/>
<text text-anchor="middle" x="125.445" y="-75.5401" font-family="Times New Roman,serif" font-size="14.00">Crafting 3</text>
</g>
<!-- Essence_Fire -->
<g id="node2" class="node"><title>Essence_Fire</title>
<ellipse fill="none" stroke="black" cx="198.445" cy="-122.74" rx="59.5901" ry="18"/>
<text text-anchor="middle" x="198.445" y="-119.04" font-family="Times New Roman,serif" font-size="14.00">Essence_Fire</text>
</g>
<!-- Essence_Fire&#45;&gt;ArmorGloves
+ Small_FireResistance -->
<g id="edge2" class="edge"><title>Essence_Fire&#45;&gt;ArmorGloves
+ Small_FireResistance</title>
<path fill="none" stroke="black" d="M186.109,-104.958C177.295,-92.9674 165.134,-76.4235 154.338,-61.7353"/>
<polygon fill="black" stroke="black" points="156.917,-59.3345 148.174,-53.35 151.277,-63.4804 156.917,-59.3345"/>
<text text-anchor="middle" x="199.445" y="-75.5401" font-family="Times New Roman,serif" font-size="14.00">Crafting 3</text>
</g>
</g>
</svg>
