<?xml version="1.0" encoding="UTF-8" standalone="no"?>
<!DOCTYPE svg PUBLIC "-//W3C//DTD SVG 1.1//EN"
 "http://www.w3.org/Graphics/SVG/1.1/DTD/svg11.dtd">
<!-- Generated by graphviz version 2.38.0 (20140413.2041)
 -->
<!-- Title: G Pages: 1 -->
<svg width="702pt" height="479pt"
 viewBox="0.00 0.00 702.29 479.00" xmlns="http://www.w3.org/2000/svg" xmlns:xlink="http://www.w3.org/1999/xlink">
<g id="graph0" class="graph" transform="scale(1 1) rotate(0) translate(4 475)">
<title>G</title>
<polygon fill="white" stroke="none" points="-4,4 -4,-475 698.288,-475 698.288,4 -4,4"/>
<!-- Herb_Augmentor -->
<g id="node1" class="node"><title>Herb_Augmentor</title>
<ellipse fill="none" stroke="black" cx="171.494" cy="-192" rx="74.187" ry="18"/>
<text text-anchor="middle" x="171.494" y="-188.3" font-family="Times New Roman,serif" font-size="14.00">Herb_Augmentor</text>
</g>
<!-- Large_Constitution_Potion -->
<g id="node2" class="node"><title>Large_Constitution_Potion</title>
<ellipse fill="none" stroke="black" cx="227.494" cy="-18" rx="109.381" ry="18"/>
<text text-anchor="middle" x="227.494" y="-14.3" font-family="Times New Roman,serif" font-size="14.00">Large_Constitution_Potion</text>
</g>
<!-- Herb_Augmentor&#45;&gt;Large_Constitution_Potion -->
<g id="edge1" class="edge"><title>Herb_Augmentor&#45;&gt;Large_Constitution_Potion</title>
<path fill="none" stroke="black" d="M170.34,-173.861C169.507,-152.766 169.997,-116.159 180.494,-87 186.102,-71.4212 196.202,-56.0728 205.605,-43.9113"/>
<polygon fill="black" stroke="black" points="208.398,-46.0227 211.94,-36.0374 202.944,-41.6347 208.398,-46.0227"/>
<text text-anchor="middle" x="208.494" y="-101.3" font-family="Times New Roman,serif" font-size="14.00">Crafting 5</text>
</g>
<!-- Medium_Constitution_Potion -->
<g id="node8" class="node"><title>Medium_Constitution_Potion</title>
<ellipse fill="none" stroke="black" cx="363.494" cy="-105" rx="118.079" ry="18"/>
<text text-anchor="middle" x="363.494" y="-101.3" font-family="Times New Roman,serif" font-size="14.00">Medium_Constitution_Potion</text>
</g>
<!-- Herb_Augmentor&#45;&gt;Medium_Constitution_Potion -->
<g id="edge2" class="edge"><title>Herb_Augmentor&#45;&gt;Medium_Constitution_Potion</title>
<path fill="none" stroke="black" d="M205.819,-175.804C236.975,-162.011 283.16,-141.564 317.501,-126.361"/>
<polygon fill="black" stroke="black" points="319.123,-129.471 326.85,-122.222 316.289,-123.07 319.123,-129.471"/>
<text text-anchor="middle" x="307.494" y="-144.8" font-family="Times New Roman,serif" font-size="14.00">Crafting 4</text>
</g>
<!-- Herb_Farhangite -->
<g id="node3" class="node"><title>Herb_Farhangite</title>
<ellipse fill="none" stroke="black" cx="71.4937" cy="-366" rx="71.4873" ry="18"/>
<text text-anchor="middle" x="71.4937" y="-362.3" font-family="Times New Roman,serif" font-size="14.00">Herb_Farhangite</text>
</g>
<!-- Potion_Intimidate -->
<g id="node4" class="node"><title>Potion_Intimidate</title>
<ellipse fill="none" stroke="black" cx="253.494" cy="-279" rx="75.2868" ry="18"/>
<text text-anchor="middle" x="253.494" y="-275.3" font-family="Times New Roman,serif" font-size="14.00">Potion_Intimidate</text>
</g>
<!-- Herb_Farhangite&#45;&gt;Potion_Intimidate -->
<g id="edge3" class="edge"><title>Herb_Farhangite&#45;&gt;Potion_Intimidate</title>
<path fill="none" stroke="black" d="M104.032,-349.804C133.997,-335.809 178.628,-314.965 211.318,-299.698"/>
<polygon fill="black" stroke="black" points="213.044,-302.754 220.624,-295.351 210.082,-296.412 213.044,-302.754"/>
<text text-anchor="middle" x="201.494" y="-318.8" font-family="Times New Roman,serif" font-size="14.00">Crafting 2</text>
</g>
<!-- Minor_Constitution_Potion -->
<g id="node10" class="node"><title>Minor_Constitution_Potion</title>
<ellipse fill="none" stroke="black" cx="374.494" cy="-192" rx="110.48" ry="18"/>
<text text-anchor="middle" x="374.494" y="-188.3" font-family="Times New Roman,serif" font-size="14.00">Minor_Constitution_Potion</text>
</g>
<!-- Potion_Intimidate&#45;&gt;Minor_Constitution_Potion -->
<g id="edge4" class="edge"><title>Potion_Intimidate&#45;&gt;Minor_Constitution_Potion</title>
<path fill="none" stroke="black" d="M276.538,-261.812C295.22,-248.688 321.758,-230.046 342.501,-215.474"/>
<polygon fill="black" stroke="black" points="344.538,-218.321 350.709,-209.708 340.514,-212.593 344.538,-218.321"/>
<text text-anchor="middle" x="348.494" y="-231.8" font-family="Times New Roman,serif" font-size="14.00">Crafting 5</text>
</g>
<!-- Potion_Empty -->
<g id="node5" class="node"><title>Potion_Empty</title>
<ellipse fill="none" stroke="black" cx="175.494" cy="-453" rx="63.8893" ry="18"/>
<text text-anchor="middle" x="175.494" y="-449.3" font-family="Times New Roman,serif" font-size="14.00">Potion_Empty</text>
</g>
<!-- Minor_Healing_Potion -->
<g id="node13" class="node"><title>Minor_Healing_Potion</title>
<ellipse fill="none" stroke="black" cx="253.494" cy="-366" rx="92.8835" ry="18"/>
<text text-anchor="middle" x="253.494" y="-362.3" font-family="Times New Roman,serif" font-size="14.00">Minor_Healing_Potion</text>
</g>
<!-- Potion_Empty&#45;&gt;Minor_Healing_Potion -->
<g id="edge5" class="edge"><title>Potion_Empty&#45;&gt;Minor_Healing_Potion</title>
<path fill="none" stroke="black" d="M190.904,-435.207C202.442,-422.633 218.392,-405.252 231.303,-391.182"/>
<polygon fill="black" stroke="black" points="233.933,-393.493 238.115,-383.758 228.775,-388.76 233.933,-393.493"/>
<text text-anchor="middle" x="247.494" y="-405.8" font-family="Times New Roman,serif" font-size="14.00">Crafting 1</text>
</g>
<!-- Bone -->
<g id="node6" class="node"><title>Bone</title>
<ellipse fill="none" stroke="black" cx="394.494" cy="-366" rx="29.795" ry="18"/>
<text text-anchor="middle" x="394.494" y="-362.3" font-family="Times New Roman,serif" font-size="14.00">Bone</text>
</g>
<!-- Pouch_Dust_Bone -->
<g id="node7" class="node"><title>Pouch_Dust_Bone</title>
<ellipse fill="none" stroke="black" cx="462.494" cy="-279" rx="79.8859" ry="18"/>
<text text-anchor="middle" x="462.494" y="-275.3" font-family="Times New Roman,serif" font-size="14.00">Pouch_Dust_Bone</text>
</g>
<!-- Bone&#45;&gt;Pouch_Dust_Bone -->
<g id="edge12" class="edge"><title>Bone&#45;&gt;Pouch_Dust_Bone</title>
<path fill="none" stroke="black" d="M400.354,-348.166C404.436,-337.92 410.569,-324.937 418.494,-315 421.917,-310.707 425.96,-306.611 430.185,-302.833"/>
<polygon fill="black" stroke="black" points="432.458,-305.495 437.893,-296.4 427.973,-300.12 432.458,-305.495"/>
<text text-anchor="middle" x="446.494" y="-318.8" font-family="Times New Roman,serif" font-size="14.00">Crafting 0</text>
</g>
<!-- Pouch_Dust_Bone&#45;&gt;Minor_Constitution_Potion -->
<g id="edge6" class="edge"><title>Pouch_Dust_Bone&#45;&gt;Minor_Constitution_Potion</title>
<path fill="none" stroke="black" d="M445.108,-261.207C432.055,-248.599 413.998,-231.158 399.411,-217.068"/>
<polygon fill="black" stroke="black" points="401.769,-214.479 392.145,-210.049 396.906,-219.514 401.769,-214.479"/>
<text text-anchor="middle" x="451.494" y="-231.8" font-family="Times New Roman,serif" font-size="14.00">Crafting 5</text>
</g>
<!-- Medium_Constitution_Potion&#45;&gt;Large_Constitution_Potion -->
<g id="edge7" class="edge"><title>Medium_Constitution_Potion&#45;&gt;Large_Constitution_Potion</title>
<path fill="none" stroke="black" d="M336.949,-87.4094C315.7,-74.1288 285.718,-55.39 262.505,-40.8818"/>
<polygon fill="black" stroke="black" points="264.307,-37.8808 253.972,-35.5488 260.597,-43.8168 264.307,-37.8808"/>
<text text-anchor="middle" x="332.494" y="-57.8" font-family="Times New Roman,serif" font-size="14.00">Crafting 5</text>
</g>
<!-- MortarPestle -->
<g id="node9" class="node"><title>MortarPestle</title>
<ellipse fill="none" stroke="black" cx="499.494" cy="-366" rx="57.3905" ry="18"/>
<text text-anchor="middle" x="499.494" y="-362.3" font-family="Times New Roman,serif" font-size="14.00">MortarPestle</text>
</g>
<!-- MortarPestle&#45;&gt;Pouch_Dust_Bone -->
<g id="edge8" class="edge"><title>MortarPestle&#45;&gt;Pouch_Dust_Bone</title>
<path fill="none" stroke="black" d="M492.006,-347.799C486.841,-335.932 479.874,-319.928 474.007,-306.449"/>
<polygon fill="black" stroke="black" points="477.17,-304.947 469.97,-297.175 470.752,-307.741 477.17,-304.947"/>
<text text-anchor="middle" x="510.494" y="-318.8" font-family="Times New Roman,serif" font-size="14.00">Crafting 0</text>
</g>
<!-- Minor_Constitution_Potion&#45;&gt;Medium_Constitution_Potion -->
<g id="edge9" class="edge"><title>Minor_Constitution_Potion&#45;&gt;Medium_Constitution_Potion</title>
<path fill="none" stroke="black" d="M372.268,-173.799C370.762,-162.163 368.741,-146.548 367.018,-133.237"/>
<polygon fill="black" stroke="black" points="370.471,-132.644 365.716,-123.175 363.529,-133.542 370.471,-132.644"/>
<text text-anchor="middle" x="397.494" y="-144.8" font-family="Times New Roman,serif" font-size="14.00">Crafting 4</text>
</g>
<!-- Herb_Mushroom -->
<g id="node11" class="node"><title>Herb_Mushroom</title>
<ellipse fill="none" stroke="black" cx="330.494" cy="-453" rx="73.387" ry="18"/>
<text text-anchor="middle" x="330.494" y="-449.3" font-family="Times New Roman,serif" font-size="14.00">Herb_Mushroom</text>
</g>
<!-- Herb_Mushroom&#45;&gt;Minor_Healing_Potion -->
<g id="edge10" class="edge"><title>Herb_Mushroom&#45;&gt;Minor_Healing_Potion</title>
<path fill="none" stroke="black" d="M315.281,-435.207C303.891,-422.633 288.145,-405.252 275.4,-391.182"/>
<polygon fill="black" stroke="black" points="277.982,-388.82 268.675,-383.758 272.795,-393.519 277.982,-388.82"/>
<text text-anchor="middle" x="325.494" y="-405.8" font-family="Times New Roman,serif" font-size="14.00">Crafting 1</text>
</g>
<!-- Skull_Human -->
<g id="node12" class="node"><title>Skull_Human</title>
<ellipse fill="none" stroke="black" cx="634.494" cy="-366" rx="59.5901" ry="18"/>
<text text-anchor="middle" x="634.494" y="-362.3" font-family="Times New Roman,serif" font-size="14.00">Skull_Human</text>
</g>
<!-- Skull_Human&#45;&gt;Pouch_Dust_Bone -->
<g id="edge11" class="edge"><title>Skull_Human&#45;&gt;Pouch_Dust_Bone</title>
<path fill="none" stroke="black" d="M607.838,-349.729C589.639,-339.497 564.863,-325.947 542.494,-315 531.536,-309.638 519.563,-304.188 508.295,-299.236"/>
<polygon fill="black" stroke="black" points="509.6,-295.987 499.034,-295.207 506.807,-302.406 509.6,-295.987"/>
<text text-anchor="middle" x="598.494" y="-318.8" font-family="Times New Roman,serif" font-size="14.00">Crafting 0</text>
</g>
<!-- Minor_Healing_Potion&#45;&gt;Potion_Intimidate -->
<g id="edge13" class="edge"><title>Minor_Healing_Potion&#45;&gt;Potion_Intimidate</title>
<path fill="none" stroke="black" d="M253.494,-347.799C253.494,-336.163 253.494,-320.548 253.494,-307.237"/>
<polygon fill="black" stroke="black" points="256.994,-307.175 253.494,-297.175 249.994,-307.175 256.994,-307.175"/>
<text text-anchor="middle" x="281.494" y="-318.8" font-family="Times New Roman,serif" font-size="14.00">Crafting 2</text>
</g>
</g>
</svg>
