<?xml version="1.0" encoding="UTF-8" standalone="no"?>
<!DOCTYPE svg PUBLIC "-//W3C//DTD SVG 1.1//EN"
 "http://www.w3.org/Graphics/SVG/1.1/DTD/svg11.dtd">
<!-- Generated by graphviz version 2.38.0 (20140413.2041)
 -->
<!-- Title: G Pages: 1 -->
<svg width="240pt" height="149pt"
 viewBox="0.00 0.00 239.83 148.74" xmlns="http://www.w3.org/2000/svg" xmlns:xlink="http://www.w3.org/1999/xlink">
<g id="graph0" class="graph" transform="scale(1 1) rotate(0) translate(4 144.74)">
<title>G</title>
<polygon fill="white" stroke="none" points="-4,4 -4,-144.74 235.832,-144.74 235.832,4 -4,4"/>
<!-- Dagger
+ Small_WaterDamage -->
<g id="node1" class="node"><title>Dagger
+ Small_WaterDamage</title>
<ellipse fill="none" stroke="black" cx="103.238" cy="-26.8701" rx="103.476" ry="26.7407"/>
<text text-anchor="middle" x="103.238" y="-30.6701" font-family="Times New Roman,serif" font-size="14.00">Dagger</text>
<text text-anchor="middle" x="103.238" y="-15.6701" font-family="Times New Roman,serif" font-size="14.00">+ Small_WaterDamage</text>
</g>
<!-- Dagger -->
<g id="node2" class="node"><title>Dagger</title>
<ellipse fill="none" stroke="black" cx="42.2376" cy="-122.74" rx="36.2938" ry="18"/>
<text text-anchor="middle" x="42.2376" y="-119.04" font-family="Times New Roman,serif" font-size="14.00">Dagger</text>
</g>
<!-- Dagger&#45;&gt;Dagger
+ Small_WaterDamage -->
<g id="edge2" class="edge"><title>Dagger&#45;&gt;Dagger
+ Small_WaterDamage</title>
<path fill="none" stroke="black" d="M51.6624,-105.338C57.426,-95.4854 65.0499,-82.764 72.2376,-71.7401 74.2941,-68.586 76.4731,-65.3355 78.6847,-62.0976"/>
<polygon fill="black" stroke="black" points="81.7332,-63.8432 84.5534,-53.6306 75.9801,-59.8555 81.7332,-63.8432"/>
<text text-anchor="middle" x="100.238" y="-75.5401" font-family="Times New Roman,serif" font-size="14.00">Crafting 5</text>
</g>
<!-- Essence_Water -->
<g id="node3" class="node"><title>Essence_Water</title>
<ellipse fill="none" stroke="black" cx="164.238" cy="-122.74" rx="67.6881" ry="18"/>
<text text-anchor="middle" x="164.238" y="-119.04" font-family="Times New Roman,serif" font-size="14.00">Essence_Water</text>
</g>
<!-- Essence_Water&#45;&gt;Dagger
+ Small_WaterDamage -->
<g id="edge1" class="edge"><title>Essence_Water&#45;&gt;Dagger
+ Small_WaterDamage</title>
<path fill="none" stroke="black" d="M153.332,-104.958C145.67,-93.1668 135.146,-76.9725 125.722,-62.4696"/>
<polygon fill="black" stroke="black" points="128.415,-60.1905 120.031,-53.7126 122.545,-64.0048 128.415,-60.1905"/>
<text text-anchor="middle" x="169.238" y="-75.5401" font-family="Times New Roman,serif" font-size="14.00">Crafting 5</text>
</g>
</g>
</svg>
