<?xml version="1.0" encoding="UTF-8" standalone="no"?>
<!DOCTYPE svg PUBLIC "-//W3C//DTD SVG 1.1//EN"
 "http://www.w3.org/Graphics/SVG/1.1/DTD/svg11.dtd">
<!-- Generated by graphviz version 2.38.0 (20140413.2041)
 -->
<!-- Title: G Pages: 1 -->
<svg width="264pt" height="149pt"
 viewBox="0.00 0.00 263.94 148.74" xmlns="http://www.w3.org/2000/svg" xmlns:xlink="http://www.w3.org/1999/xlink">
<g id="graph0" class="graph" transform="scale(1 1) rotate(0) translate(4 144.74)">
<title>G</title>
<polygon fill="white" stroke="none" points="-4,4 -4,-144.74 259.939,-144.74 259.939,4 -4,4"/>
<!-- ClothArmor
+ Small_EarthResistance -->
<g id="node1" class="node"><title>ClothArmor
+ Small_EarthResistance</title>
<ellipse fill="none" stroke="black" cx="122.595" cy="-26.8701" rx="110.118" ry="26.7407"/>
<text text-anchor="middle" x="122.595" y="-30.6701" font-family="Times New Roman,serif" font-size="14.00">ClothArmor</text>
<text text-anchor="middle" x="122.595" y="-15.6701" font-family="Times New Roman,serif" font-size="14.00">+ Small_EarthResistance</text>
</g>
<!-- ClothArmor -->
<g id="node2" class="node"><title>ClothArmor</title>
<ellipse fill="none" stroke="black" cx="54.5952" cy="-122.74" rx="54.6905" ry="18"/>
<text text-anchor="middle" x="54.5952" y="-119.04" font-family="Times New Roman,serif" font-size="14.00">ClothArmor</text>
</g>
<!-- ClothArmor&#45;&gt;ClothArmor
+ Small_EarthResistance -->
<g id="edge1" class="edge"><title>ClothArmor&#45;&gt;ClothArmor
+ Small_EarthResistance</title>
<path fill="none" stroke="black" d="M66.7522,-104.958C75.3744,-93.0556 87.2467,-76.6666 97.828,-62.0596"/>
<polygon fill="black" stroke="black" points="100.843,-63.8643 103.875,-53.7126 95.1737,-59.7577 100.843,-63.8643"/>
<text text-anchor="middle" x="119.595" y="-75.5401" font-family="Times New Roman,serif" font-size="14.00">Crafting 2</text>
</g>
<!-- Essence_Earth -->
<g id="node3" class="node"><title>Essence_Earth</title>
<ellipse fill="none" stroke="black" cx="191.595" cy="-122.74" rx="64.189" ry="18"/>
<text text-anchor="middle" x="191.595" y="-119.04" font-family="Times New Roman,serif" font-size="14.00">Essence_Earth</text>
</g>
<!-- Essence_Earth&#45;&gt;ClothArmor
+ Small_EarthResistance -->
<g id="edge2" class="edge"><title>Essence_Earth&#45;&gt;ClothArmor
+ Small_EarthResistance</title>
<path fill="none" stroke="black" d="M179.259,-104.958C170.446,-92.9674 158.285,-76.4235 147.488,-61.7353"/>
<polygon fill="black" stroke="black" points="150.067,-59.3345 141.324,-53.35 144.427,-63.4804 150.067,-59.3345"/>
<text text-anchor="middle" x="193.595" y="-75.5401" font-family="Times New Roman,serif" font-size="14.00">Crafting 2</text>
</g>
</g>
</svg>
