<?xml version="1.0" encoding="UTF-8" standalone="no"?>
<!DOCTYPE svg PUBLIC "-//W3C//DTD SVG 1.1//EN"
 "http://www.w3.org/Graphics/SVG/1.1/DTD/svg11.dtd">
<!-- Generated by graphviz version 2.38.0 (20140413.2041)
 -->
<!-- Title: G Pages: 1 -->
<svg width="1877pt" height="566pt"
 viewBox="0.00 0.00 1877.23 566.00" xmlns="http://www.w3.org/2000/svg" xmlns:xlink="http://www.w3.org/1999/xlink">
<g id="graph0" class="graph" transform="scale(1 1) rotate(0) translate(4 562)">
<title>G</title>
<polygon fill="white" stroke="none" points="-4,4 -4,-562 1873.23,-562 1873.23,4 -4,4"/>
<!-- SCROLL_FireShield -->
<g id="node1" class="node"><title>SCROLL_FireShield</title>
<ellipse fill="none" stroke="black" cx="602.489" cy="-105" rx="87.9851" ry="18"/>
<text text-anchor="middle" x="602.489" y="-101.3" font-family="Times New Roman,serif" font-size="14.00">SCROLL_FireShield</text>
</g>
<!-- SKILLBOOK_Shield_Fire -->
<g id="node3" class="node"><title>SKILLBOOK_Shield_Fire</title>
<ellipse fill="none" stroke="black" cx="628.489" cy="-18" rx="108.581" ry="18"/>
<text text-anchor="middle" x="628.489" y="-14.3" font-family="Times New Roman,serif" font-size="14.00">SKILLBOOK_Shield_Fire</text>
</g>
<!-- SCROLL_FireShield&#45;&gt;SKILLBOOK_Shield_Fire -->
<g id="edge40" class="edge"><title>SCROLL_FireShield&#45;&gt;SKILLBOOK_Shield_Fire</title>
<path fill="none" stroke="black" d="M607.751,-86.799C611.345,-75.0474 616.181,-59.2383 620.279,-45.8421"/>
<polygon fill="black" stroke="black" points="623.657,-46.7619 623.235,-36.1754 616.963,-44.7143 623.657,-46.7619"/>
<text text-anchor="middle" x="645.489" y="-57.8" font-family="Times New Roman,serif" font-size="14.00">Crafting 4</text>
</g>
<!-- Log -->
<g id="node2" class="node"><title>Log</title>
<ellipse fill="none" stroke="black" cx="1694.49" cy="-540" rx="27" ry="18"/>
<text text-anchor="middle" x="1694.49" y="-536.3" font-family="Times New Roman,serif" font-size="14.00">Log</text>
</g>
<!-- Scraps_Wood -->
<g id="node35" class="node"><title>Scraps_Wood</title>
<ellipse fill="none" stroke="black" cx="1734.49" cy="-453" rx="64.189" ry="18"/>
<text text-anchor="middle" x="1734.49" y="-449.3" font-family="Times New Roman,serif" font-size="14.00">Scraps_Wood</text>
</g>
<!-- Log&#45;&gt;Scraps_Wood -->
<g id="edge3" class="edge"><title>Log&#45;&gt;Scraps_Wood</title>
<path fill="none" stroke="black" d="M1689.5,-522.006C1687.48,-511.944 1686.63,-499.21 1691.49,-489 1693.71,-484.338 1696.88,-480.094 1700.51,-476.296"/>
<polygon fill="black" stroke="black" points="1702.89,-478.867 1707.94,-469.552 1698.18,-473.686 1702.89,-478.867"/>
<text text-anchor="middle" x="1719.49" y="-492.8" font-family="Times New Roman,serif" font-size="14.00">Crafting 0</text>
</g>
<!-- Scraps_Wood_A_Mush -->
<g id="node4" class="node"><title>Scraps_Wood_A_Mush</title>
<ellipse fill="none" stroke="black" cx="1329.49" cy="-366" rx="100.983" ry="18"/>
<text text-anchor="middle" x="1329.49" y="-362.3" font-family="Times New Roman,serif" font-size="14.00">Scraps_Wood_A_Mush</text>
</g>
<!-- BOOK_Paper_Sheet -->
<g id="node13" class="node"><title>BOOK_Paper_Sheet</title>
<ellipse fill="none" stroke="black" cx="1329.49" cy="-279" rx="87.1846" ry="18"/>
<text text-anchor="middle" x="1329.49" y="-275.3" font-family="Times New Roman,serif" font-size="14.00">BOOK_Paper_Sheet</text>
</g>
<!-- Scraps_Wood_A_Mush&#45;&gt;BOOK_Paper_Sheet -->
<g id="edge4" class="edge"><title>Scraps_Wood_A_Mush&#45;&gt;BOOK_Paper_Sheet</title>
<path fill="none" stroke="black" d="M1329.49,-347.799C1329.49,-336.163 1329.49,-320.548 1329.49,-307.237"/>
<polygon fill="black" stroke="black" points="1332.99,-307.175 1329.49,-297.175 1325.99,-307.175 1332.99,-307.175"/>
<text text-anchor="middle" x="1357.49" y="-318.8" font-family="Times New Roman,serif" font-size="14.00">Crafting 0</text>
</g>
<!-- Pouch_Dust_Bone -->
<g id="node5" class="node"><title>Pouch_Dust_Bone</title>
<ellipse fill="none" stroke="black" cx="668.489" cy="-366" rx="79.8859" ry="18"/>
<text text-anchor="middle" x="668.489" y="-362.3" font-family="Times New Roman,serif" font-size="14.00">Pouch_Dust_Bone</text>
</g>
<!-- Pouch_Dust_Pixie -->
<g id="node21" class="node"><title>Pouch_Dust_Pixie</title>
<ellipse fill="none" stroke="black" cx="849.489" cy="-279" rx="78.7863" ry="18"/>
<text text-anchor="middle" x="849.489" y="-275.3" font-family="Times New Roman,serif" font-size="14.00">Pouch_Dust_Pixie</text>
</g>
<!-- Pouch_Dust_Bone&#45;&gt;Pouch_Dust_Pixie -->
<g id="edge5" class="edge"><title>Pouch_Dust_Bone&#45;&gt;Pouch_Dust_Pixie</title>
<path fill="none" stroke="black" d="M701.687,-349.41C731.411,-335.451 775.145,-314.913 807.332,-299.798"/>
<polygon fill="black" stroke="black" points="808.938,-302.91 816.501,-295.491 805.962,-296.574 808.938,-302.91"/>
<text text-anchor="middle" x="798.489" y="-318.8" font-family="Times New Roman,serif" font-size="14.00">Crafting 0</text>
</g>
<!-- SKILLBOOK_Cleanse_PurifyingFire -->
<g id="node6" class="node"><title>SKILLBOOK_Cleanse_PurifyingFire</title>
<ellipse fill="none" stroke="black" cx="1476.49" cy="-18" rx="146.774" ry="18"/>
<text text-anchor="middle" x="1476.49" y="-14.3" font-family="Times New Roman,serif" font-size="14.00">SKILLBOOK_Cleanse_PurifyingFire</text>
</g>
<!-- Bucket_A_Water -->
<g id="node7" class="node"><title>Bucket_A_Water</title>
<ellipse fill="none" stroke="black" cx="1403.49" cy="-453" rx="74.187" ry="18"/>
<text text-anchor="middle" x="1403.49" y="-449.3" font-family="Times New Roman,serif" font-size="14.00">Bucket_A_Water</text>
</g>
<!-- Bucket_A_Water&#45;&gt;Scraps_Wood_A_Mush -->
<g id="edge7" class="edge"><title>Bucket_A_Water&#45;&gt;Scraps_Wood_A_Mush</title>
<path fill="none" stroke="black" d="M1388.87,-435.207C1378.09,-422.831 1363.26,-405.796 1351.12,-391.847"/>
<polygon fill="black" stroke="black" points="1353.54,-389.293 1344.33,-384.049 1348.26,-393.89 1353.54,-389.293"/>
<text text-anchor="middle" x="1398.49" y="-405.8" font-family="Times New Roman,serif" font-size="14.00">Crafting 0</text>
</g>
<!-- Herb_Stardust -->
<g id="node8" class="node"><title>Herb_Stardust</title>
<ellipse fill="none" stroke="black" cx="1063.49" cy="-453" rx="63.8893" ry="18"/>
<text text-anchor="middle" x="1063.49" y="-449.3" font-family="Times New Roman,serif" font-size="14.00">Herb_Stardust</text>
</g>
<!-- Pouch_Dust_Star -->
<g id="node29" class="node"><title>Pouch_Dust_Star</title>
<ellipse fill="none" stroke="black" cx="1026.49" cy="-366" rx="75.2868" ry="18"/>
<text text-anchor="middle" x="1026.49" y="-362.3" font-family="Times New Roman,serif" font-size="14.00">Pouch_Dust_Star</text>
</g>
<!-- Herb_Stardust&#45;&gt;Pouch_Dust_Star -->
<g id="edge8" class="edge"><title>Herb_Stardust&#45;&gt;Pouch_Dust_Star</title>
<path fill="none" stroke="black" d="M1056,-434.799C1050.84,-422.932 1043.87,-406.928 1038,-393.449"/>
<polygon fill="black" stroke="black" points="1041.17,-391.947 1033.97,-384.175 1034.75,-394.741 1041.17,-391.947"/>
<text text-anchor="middle" x="1075.49" y="-405.8" font-family="Times New Roman,serif" font-size="14.00">Crafting 0</text>
</g>
<!-- Feather -->
<g id="node9" class="node"><title>Feather</title>
<ellipse fill="none" stroke="black" cx="311.489" cy="-453" rx="37.8943" ry="18"/>
<text text-anchor="middle" x="311.489" y="-449.3" font-family="Times New Roman,serif" font-size="14.00">Feather</text>
</g>
<!-- Feather_A_Quill -->
<g id="node27" class="node"><title>Feather_A_Quill</title>
<ellipse fill="none" stroke="black" cx="386.489" cy="-366" rx="70.6878" ry="18"/>
<text text-anchor="middle" x="386.489" y="-362.3" font-family="Times New Roman,serif" font-size="14.00">Feather_A_Quill</text>
</g>
<!-- Feather&#45;&gt;Feather_A_Quill -->
<g id="edge9" class="edge"><title>Feather&#45;&gt;Feather_A_Quill</title>
<path fill="none" stroke="black" d="M325.596,-436.012C336.695,-423.433 352.346,-405.696 365.001,-391.353"/>
<polygon fill="black" stroke="black" points="367.684,-393.603 371.676,-383.789 362.435,-388.971 367.684,-393.603"/>
<text text-anchor="middle" x="381.489" y="-405.8" font-family="Times New Roman,serif" font-size="14.00">Crafting 0</text>
</g>
<!-- BOOK_Skill_Fire_Blank -->
<g id="node10" class="node"><title>BOOK_Skill_Fire_Blank</title>
<ellipse fill="none" stroke="black" cx="1021.49" cy="-105" rx="101.282" ry="18"/>
<text text-anchor="middle" x="1021.49" y="-101.3" font-family="Times New Roman,serif" font-size="14.00">BOOK_Skill_Fire_Blank</text>
</g>
<!-- BOOK_Skill_Fire_Blank&#45;&gt;SKILLBOOK_Shield_Fire -->
<g id="edge10" class="edge"><title>BOOK_Skill_Fire_Blank&#45;&gt;SKILLBOOK_Shield_Fire</title>
<path fill="none" stroke="black" d="M948.138,-92.533C935.904,-90.658 923.341,-88.7556 911.489,-87 855.096,-78.6463 840.055,-81.7457 784.489,-69 749.095,-60.8813 710.201,-48.4232 680.102,-37.9739"/>
<polygon fill="black" stroke="black" points="681.25,-34.6673 670.655,-34.6599 678.933,-41.2727 681.25,-34.6673"/>
<text text-anchor="middle" x="812.489" y="-57.8" font-family="Times New Roman,serif" font-size="14.00">Crafting 4</text>
</g>
<!-- BOOK_Skill_Fire_Blank&#45;&gt;SKILLBOOK_Cleanse_PurifyingFire -->
<g id="edge14" class="edge"><title>BOOK_Skill_Fire_Blank&#45;&gt;SKILLBOOK_Cleanse_PurifyingFire</title>
<path fill="none" stroke="black" d="M1094.84,-92.5003C1107.07,-90.6291 1119.63,-88.7366 1131.49,-87 1189.2,-78.5454 1204.13,-79.6171 1261.49,-69 1310.33,-59.9591 1364.82,-47.2565 1406.73,-36.9173"/>
<polygon fill="black" stroke="black" points="1407.69,-40.2844 1416.56,-34.4793 1406.01,-33.4904 1407.69,-40.2844"/>
<text text-anchor="middle" x="1361.49" y="-57.8" font-family="Times New Roman,serif" font-size="14.00">Crafting 4</text>
</g>
<!-- SKILLBOOK_Jump_PhoenixDive -->
<g id="node16" class="node"><title>SKILLBOOK_Jump_PhoenixDive</title>
<ellipse fill="none" stroke="black" cx="892.489" cy="-18" rx="137.276" ry="18"/>
<text text-anchor="middle" x="892.489" y="-14.3" font-family="Times New Roman,serif" font-size="14.00">SKILLBOOK_Jump_PhoenixDive</text>
</g>
<!-- BOOK_Skill_Fire_Blank&#45;&gt;SKILLBOOK_Jump_PhoenixDive -->
<g id="edge11" class="edge"><title>BOOK_Skill_Fire_Blank&#45;&gt;SKILLBOOK_Jump_PhoenixDive</title>
<path fill="none" stroke="black" d="M996.31,-87.4094C976.373,-74.2726 948.331,-55.7952 926.415,-41.3546"/>
<polygon fill="black" stroke="black" points="928.321,-38.4188 918.045,-35.8393 924.47,-44.264 928.321,-38.4188"/>
<text text-anchor="middle" x="993.489" y="-57.8" font-family="Times New Roman,serif" font-size="14.00">Crafting 4</text>
</g>
<!-- SKILLBOOK_Path_FireFly -->
<g id="node18" class="node"><title>SKILLBOOK_Path_FireFly</title>
<ellipse fill="none" stroke="black" cx="1755.49" cy="-18" rx="113.98" ry="18"/>
<text text-anchor="middle" x="1755.49" y="-14.3" font-family="Times New Roman,serif" font-size="14.00">SKILLBOOK_Path_FireFly</text>
</g>
<!-- BOOK_Skill_Fire_Blank&#45;&gt;SKILLBOOK_Path_FireFly -->
<g id="edge15" class="edge"><title>BOOK_Skill_Fire_Blank&#45;&gt;SKILLBOOK_Path_FireFly</title>
<path fill="none" stroke="black" d="M1091.77,-92.0097C1104.93,-90.0841 1118.61,-88.3001 1131.49,-87 1297.95,-70.2004 1341.46,-89.5913 1507.49,-69 1568.66,-61.4139 1637.29,-47.1202 1686.82,-35.7522"/>
<polygon fill="black" stroke="black" points="1687.82,-39.1126 1696.77,-33.4475 1686.24,-32.293 1687.82,-39.1126"/>
<text text-anchor="middle" x="1624.49" y="-57.8" font-family="Times New Roman,serif" font-size="14.00">Crafting 4</text>
</g>
<!-- SKILLBOOK_Projectile_Fireball -->
<g id="node19" class="node"><title>SKILLBOOK_Projectile_Fireball</title>
<ellipse fill="none" stroke="black" cx="1179.49" cy="-18" rx="131.877" ry="18"/>
<text text-anchor="middle" x="1179.49" y="-14.3" font-family="Times New Roman,serif" font-size="14.00">SKILLBOOK_Projectile_Fireball</text>
</g>
<!-- BOOK_Skill_Fire_Blank&#45;&gt;SKILLBOOK_Projectile_Fireball -->
<g id="edge16" class="edge"><title>BOOK_Skill_Fire_Blank&#45;&gt;SKILLBOOK_Projectile_Fireball</title>
<path fill="none" stroke="black" d="M1051.95,-87.6111C1076.93,-74.1749 1112.47,-55.054 1139.69,-40.4089"/>
<polygon fill="black" stroke="black" points="1141.43,-43.4486 1148.58,-35.6286 1138.11,-37.284 1141.43,-43.4486"/>
<text text-anchor="middle" x="1138.49" y="-57.8" font-family="Times New Roman,serif" font-size="14.00">Crafting 4</text>
</g>
<!-- SKILLBOOK_Summon_Fire -->
<g id="node22" class="node"><title>SKILLBOOK_Summon_Fire</title>
<ellipse fill="none" stroke="black" cx="383.489" cy="-18" rx="118.079" ry="18"/>
<text text-anchor="middle" x="383.489" y="-14.3" font-family="Times New Roman,serif" font-size="14.00">SKILLBOOK_Summon_Fire</text>
</g>
<!-- BOOK_Skill_Fire_Blank&#45;&gt;SKILLBOOK_Summon_Fire -->
<g id="edge13" class="edge"><title>BOOK_Skill_Fire_Blank&#45;&gt;SKILLBOOK_Summon_Fire</title>
<path fill="none" stroke="black" d="M950.915,-91.9933C937.838,-90.0815 924.273,-88.3066 911.489,-87 753.444,-70.8465 711.136,-95.474 554.489,-69 514.24,-62.1977 470.044,-49.1209 436.668,-38.0466"/>
<polygon fill="black" stroke="black" points="437.708,-34.7039 427.114,-34.8335 435.477,-41.3387 437.708,-34.7039"/>
<text text-anchor="middle" x="582.489" y="-57.8" font-family="Times New Roman,serif" font-size="14.00">Crafting 4</text>
</g>
<!-- SKILLBOOK_Projectile_Flare -->
<g id="node26" class="node"><title>SKILLBOOK_Projectile_Flare</title>
<ellipse fill="none" stroke="black" cx="123.489" cy="-18" rx="123.478" ry="18"/>
<text text-anchor="middle" x="123.489" y="-14.3" font-family="Times New Roman,serif" font-size="14.00">SKILLBOOK_Projectile_Flare</text>
</g>
<!-- BOOK_Skill_Fire_Blank&#45;&gt;SKILLBOOK_Projectile_Flare -->
<g id="edge12" class="edge"><title>BOOK_Skill_Fire_Blank&#45;&gt;SKILLBOOK_Projectile_Flare</title>
<path fill="none" stroke="black" d="M951.819,-91.9175C938.468,-89.9755 924.574,-88.2092 911.489,-87 654.239,-63.2266 586.52,-103.512 330.489,-69 280.562,-62.27 225.137,-48.5383 184.213,-37.1654"/>
<polygon fill="black" stroke="black" points="184.971,-33.7429 174.397,-34.4056 183.077,-40.4816 184.971,-33.7429"/>
<text text-anchor="middle" x="358.489" y="-57.8" font-family="Times New Roman,serif" font-size="14.00">Crafting 4</text>
</g>
<!-- Knife -->
<g id="node11" class="node"><title>Knife</title>
<ellipse fill="none" stroke="black" cx="194.489" cy="-540" rx="30.5947" ry="18"/>
<text text-anchor="middle" x="194.489" y="-536.3" font-family="Times New Roman,serif" font-size="14.00">Knife</text>
</g>
<!-- Knife&#45;&gt;Feather -->
<g id="edge18" class="edge"><title>Knife&#45;&gt;Feather</title>
<path fill="none" stroke="black" d="M203.331,-522.35C209.701,-511.658 219.153,-498.117 230.489,-489 242.208,-479.575 256.851,-472.231 270.452,-466.759"/>
<polygon fill="black" stroke="black" points="272.001,-469.915 280.114,-463.102 269.523,-463.368 272.001,-469.915"/>
<text text-anchor="middle" x="258.489" y="-492.8" font-family="Times New Roman,serif" font-size="14.00">Crafting 0</text>
</g>
<!-- Knife&#45;&gt;Feather_A_Quill -->
<g id="edge17" class="edge"><title>Knife&#45;&gt;Feather_A_Quill</title>
<path fill="none" stroke="black" d="M191.862,-521.86C189.421,-499.415 188.694,-459.993 208.489,-435 223.94,-415.491 282.716,-395.425 328.552,-382.195"/>
<polygon fill="black" stroke="black" points="329.747,-385.495 338.411,-379.397 327.835,-378.761 329.747,-385.495"/>
<text text-anchor="middle" x="236.489" y="-449.3" font-family="Times New Roman,serif" font-size="14.00">Crafting 0</text>
</g>
<!-- Pouch_Dust_Moon -->
<g id="node12" class="node"><title>Pouch_Dust_Moon</title>
<ellipse fill="none" stroke="black" cx="849.489" cy="-366" rx="83.3857" ry="18"/>
<text text-anchor="middle" x="849.489" y="-362.3" font-family="Times New Roman,serif" font-size="14.00">Pouch_Dust_Moon</text>
</g>
<!-- Pouch_Dust_Moon&#45;&gt;Pouch_Dust_Pixie -->
<g id="edge38" class="edge"><title>Pouch_Dust_Moon&#45;&gt;Pouch_Dust_Pixie</title>
<path fill="none" stroke="black" d="M849.489,-347.799C849.489,-336.163 849.489,-320.548 849.489,-307.237"/>
<polygon fill="black" stroke="black" points="852.989,-307.175 849.489,-297.175 845.989,-307.175 852.989,-307.175"/>
<text text-anchor="middle" x="877.489" y="-318.8" font-family="Times New Roman,serif" font-size="14.00">Crafting 0</text>
</g>
<!-- Scroll_Skill_Fire_Blank -->
<g id="node42" class="node"><title>Scroll_Skill_Fire_Blank</title>
<ellipse fill="none" stroke="black" cx="1015.49" cy="-192" rx="96.6831" ry="18"/>
<text text-anchor="middle" x="1015.49" y="-188.3" font-family="Times New Roman,serif" font-size="14.00">Scroll_Skill_Fire_Blank</text>
</g>
<!-- BOOK_Paper_Sheet&#45;&gt;Scroll_Skill_Fire_Blank -->
<g id="edge19" class="edge"><title>BOOK_Paper_Sheet&#45;&gt;Scroll_Skill_Fire_Blank</title>
<path fill="none" stroke="black" d="M1278.69,-264.249C1223.89,-249.414 1136.59,-225.781 1077.71,-209.842"/>
<polygon fill="black" stroke="black" points="1078.35,-206.391 1067.78,-207.156 1076.52,-213.148 1078.35,-206.391"/>
<text text-anchor="middle" x="1219.49" y="-231.8" font-family="Times New Roman,serif" font-size="14.00">Crafting 1</text>
</g>
<!-- Well_A_Snow -->
<g id="node14" class="node"><title>Well_A_Snow</title>
<ellipse fill="none" stroke="black" cx="1186.49" cy="-540" rx="64.189" ry="18"/>
<text text-anchor="middle" x="1186.49" y="-536.3" font-family="Times New Roman,serif" font-size="14.00">Well_A_Snow</text>
</g>
<!-- Well_A_Snow&#45;&gt;Scraps_Wood_A_Mush -->
<g id="edge20" class="edge"><title>Well_A_Snow&#45;&gt;Scraps_Wood_A_Mush</title>
<path fill="none" stroke="black" d="M1183.66,-521.849C1180.98,-499.746 1179.64,-461.07 1197.49,-435 1213.63,-411.421 1240.54,-395.513 1265.86,-385.053"/>
<polygon fill="black" stroke="black" points="1267.42,-388.202 1275.47,-381.306 1264.88,-381.68 1267.42,-388.202"/>
<text text-anchor="middle" x="1225.49" y="-449.3" font-family="Times New Roman,serif" font-size="14.00">Crafting 0</text>
</g>
<!-- Well_A_Snow&#45;&gt;Bucket_A_Water -->
<g id="edge21" class="edge"><title>Well_A_Snow&#45;&gt;Bucket_A_Water</title>
<path fill="none" stroke="black" d="M1215.12,-523.821C1235.73,-513.246 1264.38,-499.254 1290.49,-489 1308.39,-481.968 1328.32,-475.397 1346.39,-469.891"/>
<polygon fill="black" stroke="black" points="1347.65,-473.169 1356.22,-466.945 1345.64,-466.464 1347.65,-473.169"/>
<text text-anchor="middle" x="1318.49" y="-492.8" font-family="Times New Roman,serif" font-size="14.00">Crafting 0</text>
</g>
<!-- SCROLL_FireSummon -->
<g id="node15" class="node"><title>SCROLL_FireSummon</title>
<ellipse fill="none" stroke="black" cx="398.489" cy="-105" rx="98.2828" ry="18"/>
<text text-anchor="middle" x="398.489" y="-101.3" font-family="Times New Roman,serif" font-size="14.00">SCROLL_FireSummon</text>
</g>
<!-- SCROLL_FireSummon&#45;&gt;SKILLBOOK_Summon_Fire -->
<g id="edge50" class="edge"><title>SCROLL_FireSummon&#45;&gt;SKILLBOOK_Summon_Fire</title>
<path fill="none" stroke="black" d="M395.454,-86.799C393.4,-75.1626 390.645,-59.5479 388.296,-46.2368"/>
<polygon fill="black" stroke="black" points="391.705,-45.415 386.52,-36.1754 384.811,-46.6316 391.705,-45.415"/>
<text text-anchor="middle" x="420.489" y="-57.8" font-family="Times New Roman,serif" font-size="14.00">Crafting 4</text>
</g>
<!-- Ink_Pot_A_Quill_A_Magic -->
<g id="node17" class="node"><title>Ink_Pot_A_Quill_A_Magic</title>
<ellipse fill="none" stroke="black" cx="744.489" cy="-192" rx="111.581" ry="18"/>
<text text-anchor="middle" x="744.489" y="-188.3" font-family="Times New Roman,serif" font-size="14.00">Ink_Pot_A_Quill_A_Magic</text>
</g>
<!-- Ink_Pot_A_Quill_A_Magic&#45;&gt;SCROLL_FireShield -->
<g id="edge31" class="edge"><title>Ink_Pot_A_Quill_A_Magic&#45;&gt;SCROLL_FireShield</title>
<path fill="none" stroke="black" d="M655.913,-181.003C625.524,-175.609 596.79,-167.603 587.489,-156 582.111,-149.291 582.78,-140.688 585.751,-132.515"/>
<polygon fill="black" stroke="black" points="589.014,-133.8 590.074,-123.259 582.672,-130.839 589.014,-133.8"/>
<text text-anchor="middle" x="615.489" y="-144.8" font-family="Times New Roman,serif" font-size="14.00">Crafting 5</text>
</g>
<!-- Ink_Pot_A_Quill_A_Magic&#45;&gt;SCROLL_FireSummon -->
<g id="edge37" class="edge"><title>Ink_Pot_A_Quill_A_Magic&#45;&gt;SCROLL_FireSummon</title>
<path fill="none" stroke="black" d="M639.875,-185.591C549.883,-180.017 431.857,-170.142 414.489,-156 407.479,-150.292 403.499,-141.501 401.254,-132.873"/>
<polygon fill="black" stroke="black" points="404.681,-132.163 399.337,-123.014 397.81,-133.499 404.681,-132.163"/>
<text text-anchor="middle" x="442.489" y="-144.8" font-family="Times New Roman,serif" font-size="14.00">Crafting 5</text>
</g>
<!-- SCROLL_PhoenixDive -->
<g id="node24" class="node"><title>SCROLL_PhoenixDive</title>
<ellipse fill="none" stroke="black" cx="805.489" cy="-105" rx="96.6831" ry="18"/>
<text text-anchor="middle" x="805.489" y="-101.3" font-family="Times New Roman,serif" font-size="14.00">SCROLL_PhoenixDive</text>
</g>
<!-- Ink_Pot_A_Quill_A_Magic&#45;&gt;SCROLL_PhoenixDive -->
<g id="edge35" class="edge"><title>Ink_Pot_A_Quill_A_Magic&#45;&gt;SCROLL_PhoenixDive</title>
<path fill="none" stroke="black" d="M740.821,-173.658C739.601,-163.472 739.77,-150.731 745.489,-141 748.542,-135.805 752.69,-131.304 757.388,-127.425"/>
<polygon fill="black" stroke="black" points="759.618,-130.133 765.718,-121.471 755.547,-124.439 759.618,-130.133"/>
<text text-anchor="middle" x="773.489" y="-144.8" font-family="Times New Roman,serif" font-size="14.00">Crafting 5</text>
</g>
<!-- SCROLL_Flare -->
<g id="node36" class="node"><title>SCROLL_Flare</title>
<ellipse fill="none" stroke="black" cx="212.489" cy="-105" rx="69.5877" ry="18"/>
<text text-anchor="middle" x="212.489" y="-101.3" font-family="Times New Roman,serif" font-size="14.00">SCROLL_Flare</text>
</g>
<!-- Ink_Pot_A_Quill_A_Magic&#45;&gt;SCROLL_Flare -->
<g id="edge32" class="edge"><title>Ink_Pot_A_Quill_A_Magic&#45;&gt;SCROLL_Flare</title>
<path fill="none" stroke="black" d="M633.769,-189.422C493.566,-186.503 266.306,-178.352 234.489,-156 226.708,-150.534 221.648,-141.68 218.37,-132.93"/>
<polygon fill="black" stroke="black" points="221.682,-131.795 215.377,-123.281 214.997,-133.869 221.682,-131.795"/>
<text text-anchor="middle" x="262.489" y="-144.8" font-family="Times New Roman,serif" font-size="14.00">Crafting 5</text>
</g>
<!-- SCROLL_Fireball -->
<g id="node38" class="node"><title>SCROLL_Fireball</title>
<ellipse fill="none" stroke="black" cx="1218.49" cy="-105" rx="77.9862" ry="18"/>
<text text-anchor="middle" x="1218.49" y="-101.3" font-family="Times New Roman,serif" font-size="14.00">SCROLL_Fireball</text>
</g>
<!-- Ink_Pot_A_Quill_A_Magic&#45;&gt;SCROLL_Fireball -->
<g id="edge34" class="edge"><title>Ink_Pot_A_Quill_A_Magic&#45;&gt;SCROLL_Fireball</title>
<path fill="none" stroke="black" d="M772.742,-174.553C782.047,-168.899 792.348,-162.382 801.489,-156 810.311,-149.841 810.431,-144.821 820.489,-141 885.203,-116.416 1062.81,-131.658 1131.49,-123 1138.63,-122.1 1146.06,-120.962 1153.44,-119.703"/>
<polygon fill="black" stroke="black" points="1154.21,-123.121 1163.44,-117.921 1152.98,-116.229 1154.21,-123.121"/>
<text text-anchor="middle" x="848.489" y="-144.8" font-family="Times New Roman,serif" font-size="14.00">Crafting 5</text>
</g>
<!-- SCROLL_FireFly -->
<g id="node39" class="node"><title>SCROLL_FireFly</title>
<ellipse fill="none" stroke="black" cx="1605.49" cy="-105" rx="77.1866" ry="18"/>
<text text-anchor="middle" x="1605.49" y="-101.3" font-family="Times New Roman,serif" font-size="14.00">SCROLL_FireFly</text>
</g>
<!-- Ink_Pot_A_Quill_A_Magic&#45;&gt;SCROLL_FireFly -->
<g id="edge33" class="edge"><title>Ink_Pot_A_Quill_A_Magic&#45;&gt;SCROLL_FireFly</title>
<path fill="none" stroke="black" d="M835.683,-181.461C859.686,-178.989 885.559,-176.36 909.489,-174 994.342,-165.631 1017.76,-176.63 1100.49,-156 1117.31,-151.806 1119.58,-144.797 1136.49,-141 1302.76,-103.666 1350.33,-143.58 1519.49,-123 1526.66,-122.128 1534.12,-120.996 1541.52,-119.729"/>
<polygon fill="black" stroke="black" points="1542.33,-123.141 1551.55,-117.931 1541.09,-116.251 1542.33,-123.141"/>
<text text-anchor="middle" x="1164.49" y="-144.8" font-family="Times New Roman,serif" font-size="14.00">Crafting 5</text>
</g>
<!-- SCROLL_PurifyingFire -->
<g id="node43" class="node"><title>SCROLL_PurifyingFire</title>
<ellipse fill="none" stroke="black" cx="1412.49" cy="-105" rx="98.2828" ry="18"/>
<text text-anchor="middle" x="1412.49" y="-101.3" font-family="Times New Roman,serif" font-size="14.00">SCROLL_PurifyingFire</text>
</g>
<!-- Ink_Pot_A_Quill_A_Magic&#45;&gt;SCROLL_PurifyingFire -->
<g id="edge36" class="edge"><title>Ink_Pot_A_Quill_A_Magic&#45;&gt;SCROLL_PurifyingFire</title>
<path fill="none" stroke="black" d="M847.326,-184.939C883.895,-180.046 924.619,-171.356 959.489,-156 969.335,-151.664 968.426,-144.807 978.489,-141 1046.56,-115.251 1233.12,-130.72 1305.49,-123 1314.79,-122.008 1324.51,-120.76 1334.15,-119.392"/>
<polygon fill="black" stroke="black" points="1334.74,-122.843 1344.13,-117.93 1333.73,-115.916 1334.74,-122.843"/>
<text text-anchor="middle" x="1006.49" y="-144.8" font-family="Times New Roman,serif" font-size="14.00">Crafting 5</text>
</g>
<!-- Skull_Human -->
<g id="node20" class="node"><title>Skull_Human</title>
<ellipse fill="none" stroke="black" cx="575.489" cy="-453" rx="59.5901" ry="18"/>
<text text-anchor="middle" x="575.489" y="-449.3" font-family="Times New Roman,serif" font-size="14.00">Skull_Human</text>
</g>
<!-- Skull_Human&#45;&gt;Pouch_Dust_Bone -->
<g id="edge39" class="edge"><title>Skull_Human&#45;&gt;Pouch_Dust_Bone</title>
<path fill="none" stroke="black" d="M584.197,-434.813C590.054,-424.434 598.517,-411.436 608.489,-402 613.969,-396.815 620.355,-392.073 626.875,-387.869"/>
<polygon fill="black" stroke="black" points="629.038,-390.651 635.778,-382.477 625.411,-384.664 629.038,-390.651"/>
<text text-anchor="middle" x="636.489" y="-405.8" font-family="Times New Roman,serif" font-size="14.00">Crafting 0</text>
</g>
<!-- Pouch_Dust_Pixie&#45;&gt;Ink_Pot_A_Quill_A_Magic -->
<g id="edge1" class="edge"><title>Pouch_Dust_Pixie&#45;&gt;Ink_Pot_A_Quill_A_Magic</title>
<path fill="none" stroke="black" d="M828.995,-261.409C813.198,-248.621 791.149,-230.773 773.535,-216.513"/>
<polygon fill="black" stroke="black" points="775.265,-213.411 765.291,-209.839 770.861,-218.852 775.265,-213.411"/>
<text text-anchor="middle" x="831.489" y="-231.8" font-family="Times New Roman,serif" font-size="14.00">Crafting 1</text>
</g>
<!-- Pouch_Dust_Pixie&#45;&gt;Scroll_Skill_Fire_Blank -->
<g id="edge2" class="edge"><title>Pouch_Dust_Pixie&#45;&gt;Scroll_Skill_Fire_Blank</title>
<path fill="none" stroke="black" d="M880.323,-262.211C906.974,-248.565 945.692,-228.74 974.865,-213.802"/>
<polygon fill="black" stroke="black" points="976.668,-216.811 983.974,-209.137 973.477,-210.58 976.668,-216.811"/>
<text text-anchor="middle" x="970.489" y="-231.8" font-family="Times New Roman,serif" font-size="14.00">Crafting 1</text>
</g>
<!-- Well -->
<g id="node23" class="node"><title>Well</title>
<ellipse fill="none" stroke="black" cx="1319.49" cy="-540" rx="27.0966" ry="18"/>
<text text-anchor="middle" x="1319.49" y="-536.3" font-family="Times New Roman,serif" font-size="14.00">Well</text>
</g>
<!-- Well&#45;&gt;Scraps_Wood_A_Mush -->
<g id="edge43" class="edge"><title>Well&#45;&gt;Scraps_Wood_A_Mush</title>
<path fill="none" stroke="black" d="M1297.82,-529.01C1287.6,-523.171 1276.19,-514.805 1269.49,-504 1253.28,-477.872 1253.04,-463.537 1264.49,-435 1271.44,-417.677 1285.13,-402.27 1298.17,-390.519"/>
<polygon fill="black" stroke="black" points="1300.82,-392.856 1306.14,-383.691 1296.27,-387.542 1300.82,-392.856"/>
<text text-anchor="middle" x="1292.49" y="-449.3" font-family="Times New Roman,serif" font-size="14.00">Crafting 0</text>
</g>
<!-- Well&#45;&gt;Bucket_A_Water -->
<g id="edge44" class="edge"><title>Well&#45;&gt;Bucket_A_Water</title>
<path fill="none" stroke="black" d="M1332.47,-523.739C1341.25,-513.633 1353.25,-500.223 1364.49,-489 1368.26,-485.239 1372.34,-481.37 1376.39,-477.637"/>
<polygon fill="black" stroke="black" points="1379,-479.997 1384.07,-470.694 1374.31,-474.805 1379,-479.997"/>
<text text-anchor="middle" x="1392.49" y="-492.8" font-family="Times New Roman,serif" font-size="14.00">Crafting 0</text>
</g>
<!-- SCROLL_PhoenixDive&#45;&gt;SKILLBOOK_Jump_PhoenixDive -->
<g id="edge42" class="edge"><title>SCROLL_PhoenixDive&#45;&gt;SKILLBOOK_Jump_PhoenixDive</title>
<path fill="none" stroke="black" d="M822.677,-87.2067C835.581,-74.5994 853.433,-57.1579 867.854,-43.0683"/>
<polygon fill="black" stroke="black" points="870.332,-45.5412 875.039,-36.0493 865.44,-40.5342 870.332,-45.5412"/>
<text text-anchor="middle" x="882.489" y="-57.8" font-family="Times New Roman,serif" font-size="14.00">Crafting 4</text>
</g>
<!-- Bucket -->
<g id="node25" class="node"><title>Bucket</title>
<ellipse fill="none" stroke="black" cx="1446.49" cy="-540" rx="36.2938" ry="18"/>
<text text-anchor="middle" x="1446.49" y="-536.3" font-family="Times New Roman,serif" font-size="14.00">Bucket</text>
</g>
<!-- Bucket&#45;&gt;Bucket_A_Water -->
<g id="edge41" class="edge"><title>Bucket&#45;&gt;Bucket_A_Water</title>
<path fill="none" stroke="black" d="M1439.67,-522.086C1435.57,-512.282 1430.07,-499.782 1424.49,-489 1422.88,-485.885 1421.1,-482.665 1419.29,-479.499"/>
<polygon fill="black" stroke="black" points="1422.28,-477.677 1414.18,-470.845 1416.25,-481.236 1422.28,-477.677"/>
<text text-anchor="middle" x="1459.49" y="-492.8" font-family="Times New Roman,serif" font-size="14.00">Crafting 0</text>
</g>
<!-- Ink_Pot_A_Quill -->
<g id="node40" class="node"><title>Ink_Pot_A_Quill</title>
<ellipse fill="none" stroke="black" cx="386.489" cy="-279" rx="73.387" ry="18"/>
<text text-anchor="middle" x="386.489" y="-275.3" font-family="Times New Roman,serif" font-size="14.00">Ink_Pot_A_Quill</text>
</g>
<!-- Feather_A_Quill&#45;&gt;Ink_Pot_A_Quill -->
<g id="edge45" class="edge"><title>Feather_A_Quill&#45;&gt;Ink_Pot_A_Quill</title>
<path fill="none" stroke="black" d="M386.489,-347.799C386.489,-336.163 386.489,-320.548 386.489,-307.237"/>
<polygon fill="black" stroke="black" points="389.989,-307.175 386.489,-297.175 382.989,-307.175 389.989,-307.175"/>
<text text-anchor="middle" x="414.489" y="-318.8" font-family="Times New Roman,serif" font-size="14.00">Crafting 0</text>
</g>
<!-- Moonstone -->
<g id="node28" class="node"><title>Moonstone</title>
<ellipse fill="none" stroke="black" cx="797.489" cy="-453" rx="51.9908" ry="18"/>
<text text-anchor="middle" x="797.489" y="-449.3" font-family="Times New Roman,serif" font-size="14.00">Moonstone</text>
</g>
<!-- Moonstone&#45;&gt;Pouch_Dust_Moon -->
<g id="edge46" class="edge"><title>Moonstone&#45;&gt;Pouch_Dust_Moon</title>
<path fill="none" stroke="black" d="M807.403,-435.281C813.207,-425.541 820.707,-413.041 827.489,-402 829.348,-398.973 831.311,-395.808 833.268,-392.671"/>
<polygon fill="black" stroke="black" points="836.329,-394.377 838.676,-384.046 830.398,-390.659 836.329,-394.377"/>
<text text-anchor="middle" x="855.489" y="-405.8" font-family="Times New Roman,serif" font-size="14.00">Crafting 0</text>
</g>
<!-- Pouch_Dust_Star&#45;&gt;Pouch_Dust_Pixie -->
<g id="edge60" class="edge"><title>Pouch_Dust_Star&#45;&gt;Pouch_Dust_Pixie</title>
<path fill="none" stroke="black" d="M994.436,-349.607C965.545,-335.733 922.881,-315.245 891.315,-300.086"/>
<polygon fill="black" stroke="black" points="892.432,-296.74 881.902,-295.566 889.401,-303.05 892.432,-296.74"/>
<text text-anchor="middle" x="977.489" y="-318.8" font-family="Times New Roman,serif" font-size="14.00">Crafting 0</text>
</g>
<!-- Axe -->
<g id="node30" class="node"><title>Axe</title>
<ellipse fill="none" stroke="black" cx="1773.49" cy="-540" rx="27" ry="18"/>
<text text-anchor="middle" x="1773.49" y="-536.3" font-family="Times New Roman,serif" font-size="14.00">Axe</text>
</g>
<!-- Axe&#45;&gt;Scraps_Wood -->
<g id="edge6" class="edge"><title>Axe&#45;&gt;Scraps_Wood</title>
<path fill="none" stroke="black" d="M1766.31,-522.263C1762.09,-512.517 1756.59,-500.017 1751.49,-489 1750.17,-486.149 1748.77,-483.179 1747.36,-480.227"/>
<polygon fill="black" stroke="black" points="1750.42,-478.512 1742.92,-471.029 1744.11,-481.556 1750.42,-478.512"/>
<text text-anchor="middle" x="1785.49" y="-492.8" font-family="Times New Roman,serif" font-size="14.00">Crafting 0</text>
</g>
<!-- Barrel -->
<g id="node31" class="node"><title>Barrel</title>
<ellipse fill="none" stroke="black" cx="1564.49" cy="-540" rx="32.4942" ry="18"/>
<text text-anchor="middle" x="1564.49" y="-536.3" font-family="Times New Roman,serif" font-size="14.00">Barrel</text>
</g>
<!-- Barrel&#45;&gt;Scraps_Wood_A_Mush -->
<g id="edge47" class="edge"><title>Barrel&#45;&gt;Scraps_Wood_A_Mush</title>
<path fill="none" stroke="black" d="M1574.29,-522.389C1578.92,-512.227 1582.29,-499.254 1576.49,-489 1542.18,-428.411 1467.02,-397.279 1408.56,-381.696"/>
<polygon fill="black" stroke="black" points="1409.15,-378.234 1398.59,-379.144 1407.41,-385.015 1409.15,-378.234"/>
<text text-anchor="middle" x="1590.49" y="-449.3" font-family="Times New Roman,serif" font-size="14.00">Crafting 0</text>
</g>
<!-- Barrel&#45;&gt;Bucket_A_Water -->
<g id="edge48" class="edge"><title>Barrel&#45;&gt;Bucket_A_Water</title>
<path fill="none" stroke="black" d="M1546.31,-524.858C1531.96,-514.124 1511.15,-499.474 1491.49,-489 1479.69,-482.716 1466.52,-476.894 1454.03,-471.874"/>
<polygon fill="black" stroke="black" points="1455.23,-468.587 1444.64,-468.197 1452.68,-475.104 1455.23,-468.587"/>
<text text-anchor="middle" x="1544.49" y="-492.8" font-family="Times New Roman,serif" font-size="14.00">Crafting 0</text>
</g>
<!-- Pillow -->
<g id="node32" class="node"><title>Pillow</title>
<ellipse fill="none" stroke="black" cx="291.489" cy="-540" rx="33.2948" ry="18"/>
<text text-anchor="middle" x="291.489" y="-536.3" font-family="Times New Roman,serif" font-size="14.00">Pillow</text>
</g>
<!-- Pillow&#45;&gt;Feather -->
<g id="edge49" class="edge"><title>Pillow&#45;&gt;Feather</title>
<path fill="none" stroke="black" d="M289.836,-521.596C289.405,-511.853 289.691,-499.576 292.489,-489 293.338,-485.792 294.536,-482.556 295.924,-479.416"/>
<polygon fill="black" stroke="black" points="299.091,-480.908 300.49,-470.406 292.847,-477.744 299.091,-480.908"/>
<text text-anchor="middle" x="320.489" y="-492.8" font-family="Times New Roman,serif" font-size="14.00">Crafting 0</text>
</g>
<!-- Bone -->
<g id="node33" class="node"><title>Bone</title>
<ellipse fill="none" stroke="black" cx="683.489" cy="-453" rx="29.795" ry="18"/>
<text text-anchor="middle" x="683.489" y="-449.3" font-family="Times New Roman,serif" font-size="14.00">Bone</text>
</g>
<!-- Bone&#45;&gt;Pouch_Dust_Bone -->
<g id="edge30" class="edge"><title>Bone&#45;&gt;Pouch_Dust_Bone</title>
<path fill="none" stroke="black" d="M675.531,-435.643C673.115,-429.888 670.765,-423.285 669.489,-417 668.027,-409.797 667.423,-401.89 667.268,-394.532"/>
<polygon fill="black" stroke="black" points="670.769,-394.308 667.317,-384.292 663.769,-394.275 670.769,-394.308"/>
<text text-anchor="middle" x="697.489" y="-405.8" font-family="Times New Roman,serif" font-size="14.00">Crafting 0</text>
</g>
<!-- Ink_Pot -->
<g id="node34" class="node"><title>Ink_Pot</title>
<ellipse fill="none" stroke="black" cx="257.489" cy="-366" rx="40.0939" ry="18"/>
<text text-anchor="middle" x="257.489" y="-362.3" font-family="Times New Roman,serif" font-size="14.00">Ink_Pot</text>
</g>
<!-- Ink_Pot&#45;&gt;Ink_Pot_A_Quill -->
<g id="edge51" class="edge"><title>Ink_Pot&#45;&gt;Ink_Pot_A_Quill</title>
<path fill="none" stroke="black" d="M277.053,-350.028C290.671,-339.805 309.385,-326.147 326.489,-315 333.823,-310.22 341.823,-305.337 349.52,-300.793"/>
<polygon fill="black" stroke="black" points="351.483,-303.7 358.36,-295.641 347.958,-297.653 351.483,-303.7"/>
<text text-anchor="middle" x="354.489" y="-318.8" font-family="Times New Roman,serif" font-size="14.00">Crafting 0</text>
</g>
<!-- Scraps_Wood&#45;&gt;Scraps_Wood_A_Mush -->
<g id="edge52" class="edge"><title>Scraps_Wood&#45;&gt;Scraps_Wood_A_Mush</title>
<path fill="none" stroke="black" d="M1704.2,-437.005C1679.57,-425.5 1643.6,-410.236 1610.49,-402 1535.9,-383.448 1514.71,-393.925 1438.49,-384 1429.63,-382.847 1420.39,-381.549 1411.18,-380.199"/>
<polygon fill="black" stroke="black" points="1411.65,-376.729 1401.24,-378.717 1410.61,-383.653 1411.65,-376.729"/>
<text text-anchor="middle" x="1683.49" y="-405.8" font-family="Times New Roman,serif" font-size="14.00">Crafting 0</text>
</g>
<!-- SCROLL_Flare&#45;&gt;SKILLBOOK_Projectile_Flare -->
<g id="edge53" class="edge"><title>SCROLL_Flare&#45;&gt;SKILLBOOK_Projectile_Flare</title>
<path fill="none" stroke="black" d="M194.906,-87.2067C181.705,-74.5994 163.443,-57.1579 148.69,-43.0683"/>
<polygon fill="black" stroke="black" points="150.99,-40.4249 141.341,-36.0493 146.155,-45.4871 150.99,-40.4249"/>
<text text-anchor="middle" x="201.489" y="-57.8" font-family="Times New Roman,serif" font-size="14.00">Crafting 4</text>
</g>
<!-- Dagger -->
<g id="node37" class="node"><title>Dagger</title>
<ellipse fill="none" stroke="black" cx="410.489" cy="-540" rx="36.2938" ry="18"/>
<text text-anchor="middle" x="410.489" y="-536.3" font-family="Times New Roman,serif" font-size="14.00">Dagger</text>
</g>
<!-- Dagger&#45;&gt;Feather -->
<g id="edge55" class="edge"><title>Dagger&#45;&gt;Feather</title>
<path fill="none" stroke="black" d="M392.79,-523.804C377.163,-510.387 354.204,-490.674 336.666,-475.616"/>
<polygon fill="black" stroke="black" points="338.902,-472.923 329.035,-469.065 334.342,-478.235 338.902,-472.923"/>
<text text-anchor="middle" x="395.489" y="-492.8" font-family="Times New Roman,serif" font-size="14.00">Crafting 0</text>
</g>
<!-- Dagger&#45;&gt;Feather_A_Quill -->
<g id="edge54" class="edge"><title>Dagger&#45;&gt;Feather_A_Quill</title>
<path fill="none" stroke="black" d="M420.407,-522.48C423.281,-516.822 426.035,-510.32 427.489,-504 428.983,-497.503 428.02,-495.645 427.489,-489 424.368,-449.96 429.04,-437.944 413.489,-402 412,-398.558 410.095,-395.154 407.988,-391.899"/>
<polygon fill="black" stroke="black" points="410.77,-389.774 402.083,-383.71 405.092,-393.868 410.77,-389.774"/>
<text text-anchor="middle" x="454.489" y="-449.3" font-family="Times New Roman,serif" font-size="14.00">Crafting 0</text>
</g>
<!-- SCROLL_Fireball&#45;&gt;SKILLBOOK_Projectile_Fireball -->
<g id="edge56" class="edge"><title>SCROLL_Fireball&#45;&gt;SKILLBOOK_Projectile_Fireball</title>
<path fill="none" stroke="black" d="M1210.6,-86.799C1205.15,-74.9322 1197.81,-58.9279 1191.62,-45.4488"/>
<polygon fill="black" stroke="black" points="1194.72,-43.8048 1187.37,-36.1754 1188.36,-46.724 1194.72,-43.8048"/>
<text text-anchor="middle" x="1229.49" y="-57.8" font-family="Times New Roman,serif" font-size="14.00">Crafting 4</text>
</g>
<!-- SCROLL_FireFly&#45;&gt;SKILLBOOK_Path_FireFly -->
<g id="edge57" class="edge"><title>SCROLL_FireFly&#45;&gt;SKILLBOOK_Path_FireFly</title>
<path fill="none" stroke="black" d="M1633.7,-88.0122C1657.39,-74.5903 1691.44,-55.2949 1717.52,-40.5175"/>
<polygon fill="black" stroke="black" points="1719.4,-43.4712 1726.38,-35.4959 1715.95,-37.381 1719.4,-43.4712"/>
<text text-anchor="middle" x="1716.49" y="-57.8" font-family="Times New Roman,serif" font-size="14.00">Crafting 4</text>
</g>
<!-- Ink_Pot_A_Quill&#45;&gt;Ink_Pot_A_Quill_A_Magic -->
<g id="edge58" class="edge"><title>Ink_Pot_A_Quill&#45;&gt;Ink_Pot_A_Quill_A_Magic</title>
<path fill="none" stroke="black" d="M437.402,-265.912C499.499,-251.168 604.786,-226.17 674.48,-209.622"/>
<polygon fill="black" stroke="black" points="675.574,-212.96 684.495,-207.244 673.957,-206.149 675.574,-212.96"/>
<text text-anchor="middle" x="615.489" y="-231.8" font-family="Times New Roman,serif" font-size="14.00">Crafting 1</text>
</g>
<!-- Oven -->
<g id="node41" class="node"><title>Oven</title>
<ellipse fill="none" stroke="black" cx="1478.49" cy="-366" rx="30.5947" ry="18"/>
<text text-anchor="middle" x="1478.49" y="-362.3" font-family="Times New Roman,serif" font-size="14.00">Oven</text>
</g>
<!-- Oven&#45;&gt;BOOK_Paper_Sheet -->
<g id="edge59" class="edge"><title>Oven&#45;&gt;BOOK_Paper_Sheet</title>
<path fill="none" stroke="black" d="M1457.14,-352.822C1433.54,-339.359 1395.1,-317.428 1366.56,-301.146"/>
<polygon fill="black" stroke="black" points="1368.09,-297.991 1357.67,-296.076 1364.62,-304.071 1368.09,-297.991"/>
<text text-anchor="middle" x="1440.49" y="-318.8" font-family="Times New Roman,serif" font-size="14.00">Crafting 0</text>
</g>
<!-- Scroll_Skill_Fire_Blank&#45;&gt;SCROLL_FireShield -->
<g id="edge22" class="edge"><title>Scroll_Skill_Fire_Blank&#45;&gt;SCROLL_FireShield</title>
<path fill="none" stroke="black" d="M935.721,-181.73C913.034,-179.155 888.295,-176.408 865.489,-174 783.775,-165.373 759.2,-182.695 681.489,-156 663.564,-149.842 645.556,-138.9 631.269,-128.819"/>
<polygon fill="black" stroke="black" points="633.03,-125.77 622.889,-122.703 628.903,-131.425 633.03,-125.77"/>
<text text-anchor="middle" x="709.489" y="-144.8" font-family="Times New Roman,serif" font-size="14.00">Crafting 5</text>
</g>
<!-- Scroll_Skill_Fire_Blank&#45;&gt;BOOK_Skill_Fire_Blank -->
<g id="edge27" class="edge"><title>Scroll_Skill_Fire_Blank&#45;&gt;BOOK_Skill_Fire_Blank</title>
<path fill="none" stroke="black" d="M1029.59,-173.844C1033.21,-168.456 1036.61,-162.269 1038.49,-156 1040.82,-148.218 1039.5,-139.834 1036.78,-132.197"/>
<polygon fill="black" stroke="black" points="1039.97,-130.773 1032.75,-123.024 1033.56,-133.587 1039.97,-130.773"/>
<text text-anchor="middle" x="1068.49" y="-144.8" font-family="Times New Roman,serif" font-size="14.00">Crafting 5</text>
</g>
<!-- Scroll_Skill_Fire_Blank&#45;&gt;SCROLL_FireSummon -->
<g id="edge29" class="edge"><title>Scroll_Skill_Fire_Blank&#45;&gt;SCROLL_FireSummon</title>
<path fill="none" stroke="black" d="M937.337,-181.24C914.23,-178.599 888.865,-175.938 865.489,-174 713.799,-161.424 672.145,-188.703 523.489,-156 494.369,-149.594 463.232,-137.157 439.318,-126.29"/>
<polygon fill="black" stroke="black" points="440.744,-123.093 430.199,-122.063 437.8,-129.444 440.744,-123.093"/>
<text text-anchor="middle" x="551.489" y="-144.8" font-family="Times New Roman,serif" font-size="14.00">Crafting 5</text>
</g>
<!-- Scroll_Skill_Fire_Blank&#45;&gt;SCROLL_PhoenixDive -->
<g id="edge26" class="edge"><title>Scroll_Skill_Fire_Blank&#45;&gt;SCROLL_PhoenixDive</title>
<path fill="none" stroke="black" d="M960.515,-177.101C941.984,-171.562 921.456,-164.467 903.489,-156 892.449,-150.797 891.156,-146.929 880.489,-141 871.162,-135.816 860.934,-130.694 851.114,-126.035"/>
<polygon fill="black" stroke="black" points="852.408,-122.777 841.866,-121.722 849.45,-129.121 852.408,-122.777"/>
<text text-anchor="middle" x="931.489" y="-144.8" font-family="Times New Roman,serif" font-size="14.00">Crafting 5</text>
</g>
<!-- Scroll_Skill_Fire_Blank&#45;&gt;SCROLL_Flare -->
<g id="edge23" class="edge"><title>Scroll_Skill_Fire_Blank&#45;&gt;SCROLL_Flare</title>
<path fill="none" stroke="black" d="M938.131,-181.061C914.819,-178.382 889.143,-175.746 865.489,-174 749.957,-165.471 458.065,-178.823 344.489,-156 312.747,-149.621 278.609,-136.509 253.004,-125.312"/>
<polygon fill="black" stroke="black" points="254.19,-122.009 243.631,-121.133 251.339,-128.402 254.19,-122.009"/>
<text text-anchor="middle" x="372.489" y="-144.8" font-family="Times New Roman,serif" font-size="14.00">Crafting 5</text>
</g>
<!-- Scroll_Skill_Fire_Blank&#45;&gt;SCROLL_Fireball -->
<g id="edge25" class="edge"><title>Scroll_Skill_Fire_Blank&#45;&gt;SCROLL_Fireball</title>
<path fill="none" stroke="black" d="M1098.35,-182.486C1138.38,-176.908 1181.04,-168.329 1196.49,-156 1203.73,-150.217 1208.65,-141.56 1211.97,-133.068"/>
<polygon fill="black" stroke="black" points="1215.36,-133.948 1215.16,-123.355 1208.71,-131.76 1215.36,-133.948"/>
<text text-anchor="middle" x="1236.49" y="-144.8" font-family="Times New Roman,serif" font-size="14.00">Crafting 5</text>
</g>
<!-- Scroll_Skill_Fire_Blank&#45;&gt;SCROLL_FireFly -->
<g id="edge24" class="edge"><title>Scroll_Skill_Fire_Blank&#45;&gt;SCROLL_FireFly</title>
<path fill="none" stroke="black" d="M1105.5,-185.3C1178.97,-179.927 1285.33,-170.507 1377.49,-156 1435.11,-146.93 1500.01,-132.252 1545.79,-121.141"/>
<polygon fill="black" stroke="black" points="1546.67,-124.53 1555.55,-118.756 1545.01,-117.73 1546.67,-124.53"/>
<text text-anchor="middle" x="1480.49" y="-144.8" font-family="Times New Roman,serif" font-size="14.00">Crafting 5</text>
</g>
<!-- Scroll_Skill_Fire_Blank&#45;&gt;SCROLL_PurifyingFire -->
<g id="edge28" class="edge"><title>Scroll_Skill_Fire_Blank&#45;&gt;SCROLL_PurifyingFire</title>
<path fill="none" stroke="black" d="M1100.89,-183.414C1150.3,-177.977 1213.41,-169.236 1268.49,-156 1301.17,-148.146 1336.88,-135.776 1364.55,-125.305"/>
<polygon fill="black" stroke="black" points="1365.9,-128.536 1373.99,-121.691 1363.4,-121.999 1365.9,-128.536"/>
<text text-anchor="middle" x="1345.49" y="-144.8" font-family="Times New Roman,serif" font-size="14.00">Crafting 5</text>
</g>
<!-- SCROLL_PurifyingFire&#45;&gt;SKILLBOOK_Cleanse_PurifyingFire -->
<g id="edge61" class="edge"><title>SCROLL_PurifyingFire&#45;&gt;SKILLBOOK_Cleanse_PurifyingFire</title>
<path fill="none" stroke="black" d="M1425.44,-86.799C1434.64,-74.5865 1447.13,-57.9921 1457.46,-44.2776"/>
<polygon fill="black" stroke="black" points="1460.34,-46.2694 1463.56,-36.1754 1454.75,-42.0589 1460.34,-46.2694"/>
<text text-anchor="middle" x="1475.49" y="-57.8" font-family="Times New Roman,serif" font-size="14.00">Crafting 4</text>
</g>
<!-- MortarPestle -->
<g id="node44" class="node"><title>MortarPestle</title>
<ellipse fill="none" stroke="black" cx="924.489" cy="-453" rx="57.3905" ry="18"/>
<text text-anchor="middle" x="924.489" y="-449.3" font-family="Times New Roman,serif" font-size="14.00">MortarPestle</text>
</g>
<!-- MortarPestle&#45;&gt;Pouch_Dust_Bone -->
<g id="edge62" class="edge"><title>MortarPestle&#45;&gt;Pouch_Dust_Bone</title>
<path fill="none" stroke="black" d="M882.347,-440.662C874.444,-438.673 866.233,-436.699 858.489,-435 814.807,-425.416 801.633,-431.962 759.489,-417 739.423,-409.876 718.499,-398.681 701.782,-388.688"/>
<polygon fill="black" stroke="black" points="703.317,-385.524 692.96,-383.294 699.666,-391.497 703.317,-385.524"/>
<text text-anchor="middle" x="787.489" y="-405.8" font-family="Times New Roman,serif" font-size="14.00">Crafting 0</text>
</g>
<!-- MortarPestle&#45;&gt;Pouch_Dust_Moon -->
<g id="edge64" class="edge"><title>MortarPestle&#45;&gt;Pouch_Dust_Moon</title>
<path fill="none" stroke="black" d="M911.167,-435.039C903.309,-425.218 893.059,-412.718 883.489,-402 880.273,-398.398 876.804,-394.665 873.353,-391.038"/>
<polygon fill="black" stroke="black" points="875.847,-388.582 866.384,-383.817 870.81,-393.443 875.847,-388.582"/>
<text text-anchor="middle" x="924.489" y="-405.8" font-family="Times New Roman,serif" font-size="14.00">Crafting 0</text>
</g>
<!-- MortarPestle&#45;&gt;Pouch_Dust_Star -->
<g id="edge63" class="edge"><title>MortarPestle&#45;&gt;Pouch_Dust_Star</title>
<path fill="none" stroke="black" d="M943.274,-435.917C954.826,-426.067 969.959,-413.238 983.489,-402 988.138,-398.139 993.093,-394.067 997.924,-390.119"/>
<polygon fill="black" stroke="black" points="1000.32,-392.682 1005.86,-383.652 995.898,-387.255 1000.32,-392.682"/>
<text text-anchor="middle" x="1011.49" y="-405.8" font-family="Times New Roman,serif" font-size="14.00">Crafting 0</text>
</g>
</g>
</svg>
