<?xml version="1.0" encoding="UTF-8" standalone="no"?>
<!DOCTYPE svg PUBLIC "-//W3C//DTD SVG 1.1//EN"
 "http://www.w3.org/Graphics/SVG/1.1/DTD/svg11.dtd">
<!-- Generated by graphviz version 2.38.0 (20140413.2041)
 -->
<!-- Title: G Pages: 1 -->
<svg width="228pt" height="149pt"
 viewBox="0.00 0.00 228.05 148.74" xmlns="http://www.w3.org/2000/svg" xmlns:xlink="http://www.w3.org/1999/xlink">
<g id="graph0" class="graph" transform="scale(1 1) rotate(0) translate(4 144.74)">
<title>G</title>
<polygon fill="white" stroke="none" points="-4,4 -4,-144.74 224.046,-144.74 224.046,4 -4,4"/>
<!-- Knife
+ Small_EarthDamage -->
<g id="node1" class="node"><title>Knife
+ Small_EarthDamage</title>
<ellipse fill="none" stroke="black" cx="120.344" cy="-26.8701" rx="99.9045" ry="26.7407"/>
<text text-anchor="middle" x="120.344" y="-30.6701" font-family="Times New Roman,serif" font-size="14.00">Knife</text>
<text text-anchor="middle" x="120.344" y="-15.6701" font-family="Times New Roman,serif" font-size="14.00">+ Small_EarthDamage</text>
</g>
<!-- Essence_Earth -->
<g id="node2" class="node"><title>Essence_Earth</title>
<ellipse fill="none" stroke="black" cx="64.3443" cy="-122.74" rx="64.189" ry="18"/>
<text text-anchor="middle" x="64.3443" y="-119.04" font-family="Times New Roman,serif" font-size="14.00">Essence_Earth</text>
</g>
<!-- Essence_Earth&#45;&gt;Knife
+ Small_EarthDamage -->
<g id="edge2" class="edge"><title>Essence_Earth&#45;&gt;Knife
+ Small_EarthDamage</title>
<path fill="none" stroke="black" d="M74.356,-104.958C81.3903,-93.1668 91.0513,-76.9725 99.7032,-62.4696"/>
<polygon fill="black" stroke="black" points="102.81,-64.0937 104.927,-53.7126 96.7983,-60.5073 102.81,-64.0937"/>
<text text-anchor="middle" x="122.344" y="-75.5401" font-family="Times New Roman,serif" font-size="14.00">Crafting 5</text>
</g>
<!-- Knife -->
<g id="node3" class="node"><title>Knife</title>
<ellipse fill="none" stroke="black" cx="177.344" cy="-122.74" rx="30.5947" ry="18"/>
<text text-anchor="middle" x="177.344" y="-119.04" font-family="Times New Roman,serif" font-size="14.00">Knife</text>
</g>
<!-- Knife&#45;&gt;Knife
+ Small_EarthDamage -->
<g id="edge1" class="edge"><title>Knife&#45;&gt;Knife
+ Small_EarthDamage</title>
<path fill="none" stroke="black" d="M170.795,-105.044C166.617,-95.0882 160.786,-82.3605 154.344,-71.7401 152.267,-68.3159 149.968,-64.8471 147.575,-61.4386"/>
<polygon fill="black" stroke="black" points="150.235,-59.1471 141.501,-53.1496 144.588,-63.2846 150.235,-59.1471"/>
<text text-anchor="middle" x="190.344" y="-75.5401" font-family="Times New Roman,serif" font-size="14.00">Crafting 5</text>
</g>
</g>
</svg>
