<?xml version="1.0" encoding="UTF-8" standalone="no"?>
<!DOCTYPE svg PUBLIC "-//W3C//DTD SVG 1.1//EN"
 "http://www.w3.org/Graphics/SVG/1.1/DTD/svg11.dtd">
<!-- Generated by graphviz version 2.38.0 (20140413.2041)
 -->
<!-- Title: G Pages: 1 -->
<svg width="949pt" height="236pt"
 viewBox="0.00 0.00 949.24 235.74" xmlns="http://www.w3.org/2000/svg" xmlns:xlink="http://www.w3.org/1999/xlink">
<g id="graph0" class="graph" transform="scale(1 1) rotate(0) translate(4 231.74)">
<title>G</title>
<polygon fill="white" stroke="none" points="-4,4 -4,-231.74 945.238,-231.74 945.238,4 -4,4"/>
<!-- Leather_Boots -->
<g id="node1" class="node"><title>Leather_Boots</title>
<ellipse fill="none" stroke="black" cx="233.393" cy="-26.8701" rx="64.189" ry="18"/>
<text text-anchor="middle" x="233.393" y="-23.1701" font-family="Times New Roman,serif" font-size="14.00">Leather_Boots</text>
</g>
<!-- Dagger -->
<g id="node2" class="node"><title>Dagger</title>
<ellipse fill="none" stroke="black" cx="462.393" cy="-209.74" rx="36.2938" ry="18"/>
<text text-anchor="middle" x="462.393" y="-206.04" font-family="Times New Roman,serif" font-size="14.00">Dagger</text>
</g>
<!-- Scraps_Leather -->
<g id="node7" class="node"><title>Scraps_Leather</title>
<ellipse fill="none" stroke="black" cx="574.393" cy="-122.74" rx="67.6881" ry="18"/>
<text text-anchor="middle" x="574.393" y="-119.04" font-family="Times New Roman,serif" font-size="14.00">Scraps_Leather</text>
</g>
<!-- Dagger&#45;&gt;Scraps_Leather -->
<g id="edge1" class="edge"><title>Dagger&#45;&gt;Scraps_Leather</title>
<path fill="none" stroke="black" d="M477,-192.848C486.976,-182.476 500.802,-169.006 514.393,-158.74 521.24,-153.568 528.917,-148.567 536.432,-144.042"/>
<polygon fill="black" stroke="black" points="538.252,-147.032 545.121,-138.966 534.721,-140.988 538.252,-147.032"/>
<text text-anchor="middle" x="542.393" y="-162.54" font-family="Times New Roman,serif" font-size="14.00">Crafting 1</text>
</g>
<!-- Anvil -->
<g id="node3" class="node"><title>Anvil</title>
<ellipse fill="none" stroke="black" cx="337.393" cy="-122.74" rx="29.795" ry="18"/>
<text text-anchor="middle" x="337.393" y="-119.04" font-family="Times New Roman,serif" font-size="14.00">Anvil</text>
</g>
<!-- Anvil&#45;&gt;Leather_Boots -->
<g id="edge4" class="edge"><title>Anvil&#45;&gt;Leather_Boots</title>
<path fill="none" stroke="black" d="M307.912,-119.471C266.95,-115.635 196.07,-106.296 180.393,-86.7401 170.015,-73.7934 181.193,-59.9735 195.913,-48.9793"/>
<polygon fill="black" stroke="black" points="198.083,-51.7349 204.34,-43.1857 194.117,-45.9665 198.083,-51.7349"/>
<text text-anchor="middle" x="208.393" y="-75.5401" font-family="Times New Roman,serif" font-size="14.00">Crafting 3</text>
</g>
<!-- Leather_Boots_B -->
<g id="node4" class="node"><title>Leather_Boots_B</title>
<ellipse fill="none" stroke="black" cx="75.3933" cy="-26.8701" rx="75.2868" ry="18"/>
<text text-anchor="middle" x="75.3933" y="-23.1701" font-family="Times New Roman,serif" font-size="14.00">Leather_Boots_B</text>
</g>
<!-- Anvil&#45;&gt;Leather_Boots_B -->
<g id="edge2" class="edge"><title>Anvil&#45;&gt;Leather_Boots_B</title>
<path fill="none" stroke="black" d="M307.552,-119.897C254.815,-116.175 147.747,-106.387 116.393,-86.7401 103.985,-78.9647 94.3261,-65.9144 87.5086,-54.0742"/>
<polygon fill="black" stroke="black" points="90.4442,-52.1406 82.652,-44.9619 84.2668,-55.433 90.4442,-52.1406"/>
<text text-anchor="middle" x="144.393" y="-75.5401" font-family="Times New Roman,serif" font-size="14.00">Crafting 4</text>
</g>
<!-- Leather_B_Boots -->
<g id="node5" class="node"><title>Leather_B_Boots</title>
<ellipse fill="none" stroke="black" cx="620.393" cy="-26.8701" rx="75.2868" ry="18"/>
<text text-anchor="middle" x="620.393" y="-23.1701" font-family="Times New Roman,serif" font-size="14.00">Leather_B_Boots</text>
</g>
<!-- Anvil&#45;&gt;Leather_B_Boots -->
<g id="edge5" class="edge"><title>Anvil&#45;&gt;Leather_B_Boots</title>
<path fill="none" stroke="black" d="M366.213,-117.887C394.609,-113.286 438.659,-103.953 473.393,-86.7401 483.033,-81.9629 482.948,-76.891 492.393,-71.7401 505.549,-64.566 537.382,-53.647 566.009,-44.4974"/>
<polygon fill="black" stroke="black" points="567.087,-47.8274 575.563,-41.4703 564.973,-41.1544 567.087,-47.8274"/>
<text text-anchor="middle" x="520.393" y="-75.5401" font-family="Times New Roman,serif" font-size="14.00">Crafting 2</text>
</g>
<!-- Leather_Boots_B
+ Small_ArmorDefense -->
<g id="node6" class="node"><title>Leather_Boots_B
+ Small_ArmorDefense</title>
<ellipse fill="none" stroke="black" cx="421.393" cy="-26.8701" rx="105.218" ry="26.7407"/>
<text text-anchor="middle" x="421.393" y="-30.6701" font-family="Times New Roman,serif" font-size="14.00">Leather_Boots_B</text>
<text text-anchor="middle" x="421.393" y="-15.6701" font-family="Times New Roman,serif" font-size="14.00">+ Small_ArmorDefense</text>
</g>
<!-- Anvil&#45;&gt;Leather_Boots_B
+ Small_ArmorDefense -->
<g id="edge3" class="edge"><title>Anvil&#45;&gt;Leather_Boots_B
+ Small_ArmorDefense</title>
<path fill="none" stroke="black" d="M333.638,-104.779C332.303,-94.4854 332.381,-81.4969 338.393,-71.7401 342.332,-65.3487 347.541,-59.837 353.434,-55.0953"/>
<polygon fill="black" stroke="black" points="355.734,-57.7541 361.841,-49.0965 351.668,-52.056 355.734,-57.7541"/>
<text text-anchor="middle" x="366.393" y="-75.5401" font-family="Times New Roman,serif" font-size="14.00">Crafting 5</text>
</g>
<!-- Leather_Boots_B
+ Small_Movement_Mod -->
<g id="node8" class="node"><title>Leather_Boots_B
+ Small_Movement_Mod</title>
<ellipse fill="none" stroke="black" cx="827.393" cy="-26.8701" rx="113.689" ry="26.7407"/>
<text text-anchor="middle" x="827.393" y="-30.6701" font-family="Times New Roman,serif" font-size="14.00">Leather_Boots_B</text>
<text text-anchor="middle" x="827.393" y="-15.6701" font-family="Times New Roman,serif" font-size="14.00">+ Small_Movement_Mod</text>
</g>
<!-- Anvil&#45;&gt;Leather_Boots_B
+ Small_Movement_Mod -->
<g id="edge6" class="edge"><title>Anvil&#45;&gt;Leather_Boots_B
+ Small_Movement_Mod</title>
<path fill="none" stroke="black" d="M366.499,-118.483C436.852,-110.568 611.263,-90.6853 623.393,-86.7401 636.448,-82.4945 637.62,-76.7685 650.393,-71.7401 675.862,-61.7142 704.315,-53.4567 730.833,-46.9166"/>
<polygon fill="black" stroke="black" points="731.988,-50.2384 740.891,-44.494 730.349,-43.433 731.988,-50.2384"/>
<text text-anchor="middle" x="678.393" y="-75.5401" font-family="Times New Roman,serif" font-size="14.00">Crafting 5</text>
</g>
<!-- Scraps_Leather&#45;&gt;Leather_Boots -->
<g id="edge10" class="edge"><title>Scraps_Leather&#45;&gt;Leather_Boots</title>
<path fill="none" stroke="black" d="M513.022,-115.074C482.059,-110.075 444.561,-101.458 413.393,-86.7401 403.665,-82.1461 404.145,-76.2853 394.393,-71.7401 358.604,-55.0592 345.447,-64.2785 307.393,-53.7401 298.339,-51.2327 288.787,-48.1964 279.664,-45.0989"/>
<polygon fill="black" stroke="black" points="280.572,-41.7092 269.977,-41.7358 278.276,-48.322 280.572,-41.7092"/>
<text text-anchor="middle" x="441.393" y="-75.5401" font-family="Times New Roman,serif" font-size="14.00">Crafting 3</text>
</g>
<!-- Scraps_Leather&#45;&gt;Leather_Boots_B -->
<g id="edge8" class="edge"><title>Scraps_Leather&#45;&gt;Leather_Boots_B</title>
<path fill="none" stroke="black" d="M511.191,-116.309C436.775,-109.573 317.813,-97.6445 274.393,-86.7401 256.783,-82.3175 253.716,-77.1797 236.393,-71.7401 203.275,-61.3408 193.903,-62.7981 160.393,-53.7401 150.124,-50.9643 139.22,-47.8068 128.768,-44.6745"/>
<polygon fill="black" stroke="black" points="129.505,-41.241 118.92,-41.6925 127.476,-47.9406 129.505,-41.241"/>
<text text-anchor="middle" x="302.393" y="-75.5401" font-family="Times New Roman,serif" font-size="14.00">Crafting 4</text>
</g>
<!-- Scraps_Leather&#45;&gt;Leather_B_Boots -->
<g id="edge11" class="edge"><title>Scraps_Leather&#45;&gt;Leather_B_Boots</title>
<path fill="none" stroke="black" d="M633.374,-113.818C665.496,-108.162 700.647,-99.3128 710.393,-86.7401 724.493,-68.5527 704.153,-54.232 679.268,-44.2706"/>
<polygon fill="black" stroke="black" points="680.164,-40.8695 669.571,-40.6673 677.725,-47.4312 680.164,-40.8695"/>
<text text-anchor="middle" x="743.393" y="-75.5401" font-family="Times New Roman,serif" font-size="14.00">Crafting 2</text>
</g>
<!-- Scraps_Leather&#45;&gt;Leather_Boots_B
+ Small_ArmorDefense -->
<g id="edge9" class="edge"><title>Scraps_Leather&#45;&gt;Leather_Boots_B
+ Small_ArmorDefense</title>
<path fill="none" stroke="black" d="M570.562,-104.333C567.368,-93.6042 561.78,-80.3064 552.393,-71.7401 541.13,-61.4618 527.382,-53.5829 513.078,-47.5456"/>
<polygon fill="black" stroke="black" points="514.206,-44.2286 503.619,-43.8375 511.652,-50.7457 514.206,-44.2286"/>
<text text-anchor="middle" x="591.393" y="-75.5401" font-family="Times New Roman,serif" font-size="14.00">Crafting 5</text>
</g>
<!-- Scraps_Leather&#45;&gt;Leather_Boots_B
+ Small_Movement_Mod -->
<g id="edge12" class="edge"><title>Scraps_Leather&#45;&gt;Leather_Boots_B
+ Small_Movement_Mod</title>
<path fill="none" stroke="black" d="M641.926,-121.087C682.815,-118.086 734.739,-109.472 775.393,-86.7401 786.459,-80.5528 796.345,-71.0954 804.45,-61.5591"/>
<polygon fill="black" stroke="black" points="807.305,-63.593 810.825,-53.6 801.841,-59.2167 807.305,-63.593"/>
<text text-anchor="middle" x="824.393" y="-75.5401" font-family="Times New Roman,serif" font-size="14.00">Crafting 5</text>
</g>
<!-- Hide_Animal -->
<g id="node9" class="node"><title>Hide_Animal</title>
<ellipse fill="none" stroke="black" cx="574.393" cy="-209.74" rx="57.6901" ry="18"/>
<text text-anchor="middle" x="574.393" y="-206.04" font-family="Times New Roman,serif" font-size="14.00">Hide_Animal</text>
</g>
<!-- Hide_Animal&#45;&gt;Scraps_Leather -->
<g id="edge7" class="edge"><title>Hide_Animal&#45;&gt;Scraps_Leather</title>
<path fill="none" stroke="black" d="M574.393,-191.539C574.393,-179.903 574.393,-164.288 574.393,-150.977"/>
<polygon fill="black" stroke="black" points="577.893,-150.916 574.393,-140.916 570.893,-150.916 577.893,-150.916"/>
<text text-anchor="middle" x="602.393" y="-162.54" font-family="Times New Roman,serif" font-size="14.00">Crafting 1</text>
</g>
<!-- Knife -->
<g id="node10" class="node"><title>Knife</title>
<ellipse fill="none" stroke="black" cx="680.393" cy="-209.74" rx="30.5947" ry="18"/>
<text text-anchor="middle" x="680.393" y="-206.04" font-family="Times New Roman,serif" font-size="14.00">Knife</text>
</g>
<!-- Knife&#45;&gt;Scraps_Leather -->
<g id="edge13" class="edge"><title>Knife&#45;&gt;Scraps_Leather</title>
<path fill="none" stroke="black" d="M668.166,-193.168C659.452,-182.677 647.075,-168.944 634.393,-158.74 627.985,-153.584 620.733,-148.691 613.541,-144.287"/>
<polygon fill="black" stroke="black" points="614.926,-141.041 604.532,-138.987 611.376,-147.074 614.926,-141.041"/>
<text text-anchor="middle" x="678.393" y="-162.54" font-family="Times New Roman,serif" font-size="14.00">Crafting 1</text>
</g>
</g>
</svg>
