<?xml version="1.0" encoding="UTF-8" standalone="no"?>
<!DOCTYPE svg PUBLIC "-//W3C//DTD SVG 1.1//EN"
 "http://www.w3.org/Graphics/SVG/1.1/DTD/svg11.dtd">
<!-- Generated by graphviz version 2.38.0 (20140413.2041)
 -->
<!-- Title: G Pages: 1 -->
<svg width="206pt" height="149pt"
 viewBox="0.00 0.00 205.99 148.74" xmlns="http://www.w3.org/2000/svg" xmlns:xlink="http://www.w3.org/1999/xlink">
<g id="graph0" class="graph" transform="scale(1 1) rotate(0) translate(4 144.74)">
<title>G</title>
<polygon fill="white" stroke="none" points="-4,4 -4,-144.74 201.99,-144.74 201.99,4 -4,4"/>
<!-- Pearl -->
<g id="node1" class="node"><title>Pearl</title>
<ellipse fill="none" stroke="black" cx="51.9949" cy="-122.74" rx="28.6953" ry="18"/>
<text text-anchor="middle" x="51.9949" y="-119.04" font-family="Times New Roman,serif" font-size="14.00">Pearl</text>
</g>
<!-- ArmorBelt
+ Body_Boost_Value -->
<g id="node3" class="node"><title>ArmorBelt
+ Body_Boost_Value</title>
<ellipse fill="none" stroke="black" cx="98.9949" cy="-26.8701" rx="98.9899" ry="26.7407"/>
<text text-anchor="middle" x="98.9949" y="-30.6701" font-family="Times New Roman,serif" font-size="14.00">ArmorBelt</text>
<text text-anchor="middle" x="98.9949" y="-15.6701" font-family="Times New Roman,serif" font-size="14.00">+ Body_Boost_Value</text>
</g>
<!-- Pearl&#45;&gt;ArmorBelt
+ Body_Boost_Value -->
<g id="edge1" class="edge"><title>Pearl&#45;&gt;ArmorBelt
+ Body_Boost_Value</title>
<path fill="none" stroke="black" d="M56.5577,-104.612C59.4953,-94.7363 63.7453,-82.2363 68.9949,-71.7401 70.5698,-68.5914 72.3417,-65.4066 74.2168,-62.2666"/>
<polygon fill="black" stroke="black" points="77.3092,-63.9251 79.6971,-53.6028 71.3933,-60.183 77.3092,-63.9251"/>
<text text-anchor="middle" x="96.9949" y="-75.5401" font-family="Times New Roman,serif" font-size="14.00">Crafting 1</text>
</g>
<!-- ArmorBelt -->
<g id="node2" class="node"><title>ArmorBelt</title>
<ellipse fill="none" stroke="black" cx="146.995" cy="-122.74" rx="48.9926" ry="18"/>
<text text-anchor="middle" x="146.995" y="-119.04" font-family="Times New Roman,serif" font-size="14.00">ArmorBelt</text>
</g>
<!-- ArmorBelt&#45;&gt;ArmorBelt
+ Body_Boost_Value -->
<g id="edge2" class="edge"><title>ArmorBelt&#45;&gt;ArmorBelt
+ Body_Boost_Value</title>
<path fill="none" stroke="black" d="M140.157,-104.838C136.044,-95.0367 130.544,-82.5367 124.995,-71.7401 123.409,-68.6544 121.699,-65.4854 119.941,-62.3309"/>
<polygon fill="black" stroke="black" points="122.926,-60.4994 114.919,-53.5605 116.851,-63.9778 122.926,-60.4994"/>
<text text-anchor="middle" x="159.995" y="-75.5401" font-family="Times New Roman,serif" font-size="14.00">Crafting 1</text>
</g>
</g>
</svg>
