<?xml version="1.0" encoding="UTF-8" standalone="no"?>
<!DOCTYPE svg PUBLIC "-//W3C//DTD SVG 1.1//EN"
 "http://www.w3.org/Graphics/SVG/1.1/DTD/svg11.dtd">
<!-- Generated by graphviz version 2.38.0 (20140413.2041)
 -->
<!-- Title: G Pages: 1 -->
<svg width="280pt" height="149pt"
 viewBox="0.00 0.00 280.39 148.74" xmlns="http://www.w3.org/2000/svg" xmlns:xlink="http://www.w3.org/1999/xlink">
<g id="graph0" class="graph" transform="scale(1 1) rotate(0) translate(4 144.74)">
<title>G</title>
<polygon fill="white" stroke="none" points="-4,4 -4,-144.74 276.389,-144.74 276.389,4 -4,4"/>
<!-- ArmorHelmet -->
<g id="node1" class="node"><title>ArmorHelmet</title>
<ellipse fill="none" stroke="black" cx="59.7947" cy="-122.74" rx="59.5901" ry="18"/>
<text text-anchor="middle" x="59.7947" y="-119.04" font-family="Times New Roman,serif" font-size="14.00">ArmorHelmet</text>
</g>
<!-- ArmorHelmet
+ Small_WaterResistance -->
<g id="node2" class="node"><title>ArmorHelmet
+ Small_WaterResistance</title>
<ellipse fill="none" stroke="black" cx="131.795" cy="-26.8701" rx="113.689" ry="26.7407"/>
<text text-anchor="middle" x="131.795" y="-30.6701" font-family="Times New Roman,serif" font-size="14.00">ArmorHelmet</text>
<text text-anchor="middle" x="131.795" y="-15.6701" font-family="Times New Roman,serif" font-size="14.00">+ Small_WaterResistance</text>
</g>
<!-- ArmorHelmet&#45;&gt;ArmorHelmet
+ Small_WaterResistance -->
<g id="edge1" class="edge"><title>ArmorHelmet&#45;&gt;ArmorHelmet
+ Small_WaterResistance</title>
<path fill="none" stroke="black" d="M72.6669,-104.958C81.9498,-92.8553 94.7908,-76.1139 106.135,-61.324"/>
<polygon fill="black" stroke="black" points="108.942,-63.4149 112.251,-53.35 103.388,-59.1546 108.942,-63.4149"/>
<text text-anchor="middle" x="126.795" y="-75.5401" font-family="Times New Roman,serif" font-size="14.00">Crafting 3</text>
</g>
<!-- Essence_Water -->
<g id="node3" class="node"><title>Essence_Water</title>
<ellipse fill="none" stroke="black" cx="204.795" cy="-122.74" rx="67.6881" ry="18"/>
<text text-anchor="middle" x="204.795" y="-119.04" font-family="Times New Roman,serif" font-size="14.00">Essence_Water</text>
</g>
<!-- Essence_Water&#45;&gt;ArmorHelmet
+ Small_WaterResistance -->
<g id="edge2" class="edge"><title>Essence_Water&#45;&gt;ArmorHelmet
+ Small_WaterResistance</title>
<path fill="none" stroke="black" d="M191.744,-104.958C182.332,-92.8553 169.313,-76.1139 157.811,-61.324"/>
<polygon fill="black" stroke="black" points="160.512,-59.0953 151.61,-53.35 154.986,-63.3926 160.512,-59.0953"/>
<text text-anchor="middle" x="204.795" y="-75.5401" font-family="Times New Roman,serif" font-size="14.00">Crafting 3</text>
</g>
</g>
</svg>
