<?xml version="1.0" encoding="UTF-8" standalone="no"?>
<!DOCTYPE svg PUBLIC "-//W3C//DTD SVG 1.1//EN"
 "http://www.w3.org/Graphics/SVG/1.1/DTD/svg11.dtd">
<!-- Generated by graphviz version 2.38.0 (20140413.2041)
 -->
<!-- Title: G Pages: 1 -->
<svg width="455pt" height="236pt"
 viewBox="0.00 0.00 454.84 235.74" xmlns="http://www.w3.org/2000/svg" xmlns:xlink="http://www.w3.org/1999/xlink">
<g id="graph0" class="graph" transform="scale(1 1) rotate(0) translate(4 231.74)">
<title>G</title>
<polygon fill="white" stroke="none" points="-4,4 -4,-231.74 450.837,-231.74 450.837,4 -4,4"/>
<!-- Potion_Empty -->
<g id="node1" class="node"><title>Potion_Empty</title>
<ellipse fill="none" stroke="black" cx="63.6943" cy="-209.74" rx="63.8893" ry="18"/>
<text text-anchor="middle" x="63.6943" y="-206.04" font-family="Times New Roman,serif" font-size="14.00">Potion_Empty</text>
</g>
<!-- Potion_Poison -->
<g id="node5" class="node"><title>Potion_Poison</title>
<ellipse fill="none" stroke="black" cx="201.694" cy="-122.74" rx="64.9885" ry="18"/>
<text text-anchor="middle" x="201.694" y="-119.04" font-family="Times New Roman,serif" font-size="14.00">Potion_Poison</text>
</g>
<!-- Potion_Empty&#45;&gt;Potion_Poison -->
<g id="edge2" class="edge"><title>Potion_Empty&#45;&gt;Potion_Poison</title>
<path fill="none" stroke="black" d="M87.7722,-192.936C103.105,-182.964 123.446,-169.905 141.694,-158.74 149.467,-153.985 157.879,-148.987 165.875,-144.305"/>
<polygon fill="black" stroke="black" points="167.791,-147.239 174.67,-139.182 164.268,-141.191 167.791,-147.239"/>
<text text-anchor="middle" x="169.694" y="-162.54" font-family="Times New Roman,serif" font-size="14.00">Crafting 0</text>
</g>
<!-- TwoHandedSword -->
<g id="node2" class="node"><title>TwoHandedSword</title>
<ellipse fill="none" stroke="black" cx="365.694" cy="-122.74" rx="80.6858" ry="18"/>
<text text-anchor="middle" x="365.694" y="-119.04" font-family="Times New Roman,serif" font-size="14.00">TwoHandedSword</text>
</g>
<!-- TwoHandedSword
+ Small_PoisonDamage -->
<g id="node3" class="node"><title>TwoHandedSword
+ Small_PoisonDamage</title>
<ellipse fill="none" stroke="black" cx="304.694" cy="-26.8701" rx="106.547" ry="26.7407"/>
<text text-anchor="middle" x="304.694" y="-30.6701" font-family="Times New Roman,serif" font-size="14.00">TwoHandedSword</text>
<text text-anchor="middle" x="304.694" y="-15.6701" font-family="Times New Roman,serif" font-size="14.00">+ Small_PoisonDamage</text>
</g>
<!-- TwoHandedSword&#45;&gt;TwoHandedSword
+ Small_PoisonDamage -->
<g id="edge1" class="edge"><title>TwoHandedSword&#45;&gt;TwoHandedSword
+ Small_PoisonDamage</title>
<path fill="none" stroke="black" d="M354.506,-104.523C346.816,-92.6884 336.342,-76.5716 326.983,-62.1698"/>
<polygon fill="black" stroke="black" points="329.719,-59.9558 321.335,-53.4778 323.849,-63.77 329.719,-59.9558"/>
<text text-anchor="middle" x="370.694" y="-75.5401" font-family="Times New Roman,serif" font-size="14.00">Crafting 1</text>
</g>
<!-- Barrel_Ooze -->
<g id="node4" class="node"><title>Barrel_Ooze</title>
<ellipse fill="none" stroke="black" cx="201.694" cy="-209.74" rx="56.59" ry="18"/>
<text text-anchor="middle" x="201.694" y="-206.04" font-family="Times New Roman,serif" font-size="14.00">Barrel_Ooze</text>
</g>
<!-- Barrel_Ooze&#45;&gt;Potion_Poison -->
<g id="edge3" class="edge"><title>Barrel_Ooze&#45;&gt;Potion_Poison</title>
<path fill="none" stroke="black" d="M201.694,-191.539C201.694,-179.903 201.694,-164.288 201.694,-150.977"/>
<polygon fill="black" stroke="black" points="205.194,-150.916 201.694,-140.916 198.194,-150.916 205.194,-150.916"/>
<text text-anchor="middle" x="229.694" y="-162.54" font-family="Times New Roman,serif" font-size="14.00">Crafting 0</text>
</g>
<!-- Potion_Poison&#45;&gt;TwoHandedSword
+ Small_PoisonDamage -->
<g id="edge4" class="edge"><title>Potion_Poison&#45;&gt;TwoHandedSword
+ Small_PoisonDamage</title>
<path fill="none" stroke="black" d="M219.636,-105.389C233.431,-92.8169 252.916,-75.0589 269.757,-59.7109"/>
<polygon fill="black" stroke="black" points="272.245,-62.1788 277.278,-52.856 267.53,-57.0051 272.245,-62.1788"/>
<text text-anchor="middle" x="284.694" y="-75.5401" font-family="Times New Roman,serif" font-size="14.00">Crafting 1</text>
</g>
<!-- Herb_Mushroom_C -->
<g id="node6" class="node"><title>Herb_Mushroom_C</title>
<ellipse fill="none" stroke="black" cx="361.694" cy="-209.74" rx="85.2851" ry="18"/>
<text text-anchor="middle" x="361.694" y="-206.04" font-family="Times New Roman,serif" font-size="14.00">Herb_Mushroom_C</text>
</g>
<!-- Herb_Mushroom_C&#45;&gt;Potion_Poison -->
<g id="edge5" class="edge"><title>Herb_Mushroom_C&#45;&gt;Potion_Poison</title>
<path fill="none" stroke="black" d="M331.6,-192.752C305.493,-178.883 267.58,-158.742 239.445,-143.795"/>
<polygon fill="black" stroke="black" points="240.782,-140.542 230.309,-138.942 237.498,-146.724 240.782,-140.542"/>
<text text-anchor="middle" x="319.694" y="-162.54" font-family="Times New Roman,serif" font-size="14.00">Crafting 1</text>
</g>
</g>
</svg>
