<?xml version="1.0" encoding="UTF-8" standalone="no"?>
<!DOCTYPE svg PUBLIC "-//W3C//DTD SVG 1.1//EN"
 "http://www.w3.org/Graphics/SVG/1.1/DTD/svg11.dtd">
<!-- Generated by graphviz version 2.38.0 (20140413.2041)
 -->
<!-- Title: G Pages: 1 -->
<svg width="274pt" height="149pt"
 viewBox="0.00 0.00 274.14 148.74" xmlns="http://www.w3.org/2000/svg" xmlns:xlink="http://www.w3.org/1999/xlink">
<g id="graph0" class="graph" transform="scale(1 1) rotate(0) translate(4 144.74)">
<title>G</title>
<polygon fill="white" stroke="none" points="-4,4 -4,-144.74 270.139,-144.74 270.139,4 -4,4"/>
<!-- ArmorBelt -->
<g id="node1" class="node"><title>ArmorBelt</title>
<ellipse fill="none" stroke="black" cx="48.7457" cy="-122.74" rx="48.9926" ry="18"/>
<text text-anchor="middle" x="48.7457" y="-119.04" font-family="Times New Roman,serif" font-size="14.00">ArmorBelt</text>
</g>
<!-- ArmorBelt
+ Small_Sneaking -->
<g id="node3" class="node"><title>ArmorBelt
+ Small_Sneaking</title>
<ellipse fill="none" stroke="black" cx="119.746" cy="-26.8701" rx="82.9636" ry="26.7407"/>
<text text-anchor="middle" x="119.746" y="-30.6701" font-family="Times New Roman,serif" font-size="14.00">ArmorBelt</text>
<text text-anchor="middle" x="119.746" y="-15.6701" font-family="Times New Roman,serif" font-size="14.00">+ Small_Sneaking</text>
</g>
<!-- ArmorBelt&#45;&gt;ArmorBelt
+ Small_Sneaking -->
<g id="edge1" class="edge"><title>ArmorBelt&#45;&gt;ArmorBelt
+ Small_Sneaking</title>
<path fill="none" stroke="black" d="M61.4391,-104.958C70.5083,-92.9674 83.0215,-76.4235 94.1312,-61.7353"/>
<polygon fill="black" stroke="black" points="97.2325,-63.437 100.474,-53.35 91.6496,-59.2142 97.2325,-63.437"/>
<text text-anchor="middle" x="114.746" y="-75.5401" font-family="Times New Roman,serif" font-size="14.00">Crafting 4</text>
</g>
<!-- Essence_Shadow -->
<g id="node2" class="node"><title>Essence_Shadow</title>
<ellipse fill="none" stroke="black" cx="190.746" cy="-122.74" rx="75.2868" ry="18"/>
<text text-anchor="middle" x="190.746" y="-119.04" font-family="Times New Roman,serif" font-size="14.00">Essence_Shadow</text>
</g>
<!-- Essence_Shadow&#45;&gt;ArmorBelt
+ Small_Sneaking -->
<g id="edge2" class="edge"><title>Essence_Shadow&#45;&gt;ArmorBelt
+ Small_Sneaking</title>
<path fill="none" stroke="black" d="M178.052,-104.958C168.983,-92.9674 156.47,-76.4235 145.36,-61.7353"/>
<polygon fill="black" stroke="black" points="147.842,-59.2142 139.018,-53.35 142.259,-63.437 147.842,-59.2142"/>
<text text-anchor="middle" x="190.746" y="-75.5401" font-family="Times New Roman,serif" font-size="14.00">Crafting 4</text>
</g>
</g>
</svg>
