<?xml version="1.0" encoding="UTF-8" standalone="no"?>
<!DOCTYPE svg PUBLIC "-//W3C//DTD SVG 1.1//EN"
 "http://www.w3.org/Graphics/SVG/1.1/DTD/svg11.dtd">
<!-- Generated by graphviz version 2.38.0 (20140413.2041)
 -->
<!-- Title: G Pages: 1 -->
<svg width="258pt" height="149pt"
 viewBox="0.00 0.00 258.34 148.74" xmlns="http://www.w3.org/2000/svg" xmlns:xlink="http://www.w3.org/1999/xlink">
<g id="graph0" class="graph" transform="scale(1 1) rotate(0) translate(4 144.74)">
<title>G</title>
<polygon fill="white" stroke="none" points="-4,4 -4,-144.74 254.34,-144.74 254.34,4 -4,4"/>
<!-- ArmorBelt
+ Small_WaterResistance -->
<g id="node1" class="node"><title>ArmorBelt
+ Small_WaterResistance</title>
<ellipse fill="none" stroke="black" cx="115.746" cy="-26.8701" rx="113.689" ry="26.7407"/>
<text text-anchor="middle" x="115.746" y="-30.6701" font-family="Times New Roman,serif" font-size="14.00">ArmorBelt</text>
<text text-anchor="middle" x="115.746" y="-15.6701" font-family="Times New Roman,serif" font-size="14.00">+ Small_WaterResistance</text>
</g>
<!-- ArmorBelt -->
<g id="node2" class="node"><title>ArmorBelt</title>
<ellipse fill="none" stroke="black" cx="48.7457" cy="-122.74" rx="48.9926" ry="18"/>
<text text-anchor="middle" x="48.7457" y="-119.04" font-family="Times New Roman,serif" font-size="14.00">ArmorBelt</text>
</g>
<!-- ArmorBelt&#45;&gt;ArmorBelt
+ Small_WaterResistance -->
<g id="edge1" class="edge"><title>ArmorBelt&#45;&gt;ArmorBelt
+ Small_WaterResistance</title>
<path fill="none" stroke="black" d="M60.7239,-104.958C69.2194,-93.0556 80.917,-76.6666 91.3428,-62.0596"/>
<polygon fill="black" stroke="black" points="94.3397,-63.8853 97.3005,-53.7126 88.6422,-59.8187 94.3397,-63.8853"/>
<text text-anchor="middle" x="112.746" y="-75.5401" font-family="Times New Roman,serif" font-size="14.00">Crafting 3</text>
</g>
<!-- Essence_Water -->
<g id="node3" class="node"><title>Essence_Water</title>
<ellipse fill="none" stroke="black" cx="182.746" cy="-122.74" rx="67.6881" ry="18"/>
<text text-anchor="middle" x="182.746" y="-119.04" font-family="Times New Roman,serif" font-size="14.00">Essence_Water</text>
</g>
<!-- Essence_Water&#45;&gt;ArmorBelt
+ Small_WaterResistance -->
<g id="edge2" class="edge"><title>Essence_Water&#45;&gt;ArmorBelt
+ Small_WaterResistance</title>
<path fill="none" stroke="black" d="M170.767,-104.958C162.272,-93.0556 150.574,-76.6666 140.149,-62.0596"/>
<polygon fill="black" stroke="black" points="142.849,-59.8187 134.191,-53.7126 137.152,-63.8853 142.849,-59.8187"/>
<text text-anchor="middle" x="184.746" y="-75.5401" font-family="Times New Roman,serif" font-size="14.00">Crafting 3</text>
</g>
</g>
</svg>
