<?xml version="1.0" encoding="UTF-8" standalone="no"?>
<!DOCTYPE svg PUBLIC "-//W3C//DTD SVG 1.1//EN"
 "http://www.w3.org/Graphics/SVG/1.1/DTD/svg11.dtd">
<!-- Generated by graphviz version 2.38.0 (20140413.2041)
 -->
<!-- Title: G Pages: 1 -->
<svg width="280pt" height="149pt"
 viewBox="0.00 0.00 280.39 148.74" xmlns="http://www.w3.org/2000/svg" xmlns:xlink="http://www.w3.org/1999/xlink">
<g id="graph0" class="graph" transform="scale(1 1) rotate(0) translate(4 144.74)">
<title>G</title>
<polygon fill="white" stroke="none" points="-4,4 -4,-144.74 276.389,-144.74 276.389,4 -4,4"/>
<!-- Essence_Air -->
<g id="node1" class="node"><title>Essence_Air</title>
<ellipse fill="none" stroke="black" cx="56.545" cy="-122.74" rx="56.59" ry="18"/>
<text text-anchor="middle" x="56.545" y="-119.04" font-family="Times New Roman,serif" font-size="14.00">Essence_Air</text>
</g>
<!-- TwoHandedAxe
+ Small_AirDamage -->
<g id="node2" class="node"><title>TwoHandedAxe
+ Small_AirDamage</title>
<ellipse fill="none" stroke="black" cx="128.545" cy="-26.8701" rx="91.4341" ry="26.7407"/>
<text text-anchor="middle" x="128.545" y="-30.6701" font-family="Times New Roman,serif" font-size="14.00">TwoHandedAxe</text>
<text text-anchor="middle" x="128.545" y="-15.6701" font-family="Times New Roman,serif" font-size="14.00">+ Small_AirDamage</text>
</g>
<!-- Essence_Air&#45;&gt;TwoHandedAxe
+ Small_AirDamage -->
<g id="edge1" class="edge"><title>Essence_Air&#45;&gt;TwoHandedAxe
+ Small_AirDamage</title>
<path fill="none" stroke="black" d="M69.4171,-104.958C78.7001,-92.8553 91.5411,-76.1139 102.885,-61.324"/>
<polygon fill="black" stroke="black" points="105.692,-63.4149 109.001,-53.35 100.138,-59.1546 105.692,-63.4149"/>
<text text-anchor="middle" x="123.545" y="-75.5401" font-family="Times New Roman,serif" font-size="14.00">Crafting 5</text>
</g>
<!-- TwoHandedAxe -->
<g id="node3" class="node"><title>TwoHandedAxe</title>
<ellipse fill="none" stroke="black" cx="201.545" cy="-122.74" rx="70.6878" ry="18"/>
<text text-anchor="middle" x="201.545" y="-119.04" font-family="Times New Roman,serif" font-size="14.00">TwoHandedAxe</text>
</g>
<!-- TwoHandedAxe&#45;&gt;TwoHandedAxe
+ Small_AirDamage -->
<g id="edge2" class="edge"><title>TwoHandedAxe&#45;&gt;TwoHandedAxe
+ Small_AirDamage</title>
<path fill="none" stroke="black" d="M188.494,-104.958C179.082,-92.8553 166.063,-76.1139 154.561,-61.324"/>
<polygon fill="black" stroke="black" points="157.262,-59.0953 148.36,-53.35 151.736,-63.3926 157.262,-59.0953"/>
<text text-anchor="middle" x="201.545" y="-75.5401" font-family="Times New Roman,serif" font-size="14.00">Crafting 5</text>
</g>
</g>
</svg>
