<?xml version="1.0" encoding="UTF-8" standalone="no"?>
<!DOCTYPE svg PUBLIC "-//W3C//DTD SVG 1.1//EN"
 "http://www.w3.org/Graphics/SVG/1.1/DTD/svg11.dtd">
<!-- Generated by graphviz version 2.38.0 (20140413.2041)
 -->
<!-- Title: G Pages: 1 -->
<svg width="328pt" height="131pt"
 viewBox="0.00 0.00 327.79 131.00" xmlns="http://www.w3.org/2000/svg" xmlns:xlink="http://www.w3.org/1999/xlink">
<g id="graph0" class="graph" transform="scale(1 1) rotate(0) translate(4 127)">
<title>G</title>
<polygon fill="white" stroke="none" points="-4,4 -4,-127 323.787,-127 323.787,4 -4,4"/>
<!-- DAF_COR_BO_Garrick -->
<g id="node1" class="node"><title>DAF_COR_BO_Garrick</title>
<ellipse fill="none" stroke="black" cx="102.691" cy="-105" rx="102.882" ry="18"/>
<text text-anchor="middle" x="102.691" y="-101.3" font-family="Times New Roman,serif" font-size="14.00">DAF_COR_BO_Garrick</text>
</g>
<!-- DAF_COR_BO_Garrick_B -->
<g id="node3" class="node"><title>DAF_COR_BO_Garrick_B</title>
<ellipse fill="none" stroke="black" cx="186.691" cy="-18" rx="113.98" ry="18"/>
<text text-anchor="middle" x="186.691" y="-14.3" font-family="Times New Roman,serif" font-size="14.00">DAF_COR_BO_Garrick_B</text>
</g>
<!-- DAF_COR_BO_Garrick&#45;&gt;DAF_COR_BO_Garrick_B -->
<g id="edge2" class="edge"><title>DAF_COR_BO_Garrick&#45;&gt;DAF_COR_BO_Garrick_B</title>
<path fill="none" stroke="black" d="M119.287,-87.2067C131.631,-74.7151 148.666,-57.4775 162.522,-43.457"/>
<polygon fill="black" stroke="black" points="165.303,-45.6223 169.842,-36.0493 160.324,-40.7019 165.303,-45.6223"/>
<text text-anchor="middle" x="178.691" y="-57.8" font-family="Times New Roman,serif" font-size="14.00">Crafting 0</text>
</g>
<!-- Orc_Tusk -->
<g id="node2" class="node"><title>Orc_Tusk</title>
<ellipse fill="none" stroke="black" cx="271.691" cy="-105" rx="48.1917" ry="18"/>
<text text-anchor="middle" x="271.691" y="-101.3" font-family="Times New Roman,serif" font-size="14.00">Orc_Tusk</text>
</g>
<!-- Orc_Tusk&#45;&gt;DAF_COR_BO_Garrick_B -->
<g id="edge1" class="edge"><title>Orc_Tusk&#45;&gt;DAF_COR_BO_Garrick_B</title>
<path fill="none" stroke="black" d="M255.703,-88.0122C243.09,-75.3989 225.289,-57.5983 210.926,-43.2349"/>
<polygon fill="black" stroke="black" points="213.32,-40.679 203.774,-36.0828 208.37,-45.6288 213.32,-40.679"/>
<text text-anchor="middle" x="262.691" y="-57.8" font-family="Times New Roman,serif" font-size="14.00">Crafting 0</text>
</g>
</g>
</svg>
