<?xml version="1.0" encoding="UTF-8" standalone="no"?>
<!DOCTYPE svg PUBLIC "-//W3C//DTD SVG 1.1//EN"
 "http://www.w3.org/Graphics/SVG/1.1/DTD/svg11.dtd">
<!-- Generated by graphviz version 2.38.0 (20140413.2041)
 -->
<!-- Title: G Pages: 1 -->
<svg width="1220pt" height="323pt"
 viewBox="0.00 0.00 1220.39 322.74" xmlns="http://www.w3.org/2000/svg" xmlns:xlink="http://www.w3.org/1999/xlink">
<g id="graph0" class="graph" transform="scale(1 1) rotate(0) translate(4 318.74)">
<title>G</title>
<polygon fill="white" stroke="none" points="-4,4 -4,-318.74 1216.39,-318.74 1216.39,4 -4,4"/>
<!-- Heavycrossbow_B
+ Large_Crit -->
<g id="node1" class="node"><title>Heavycrossbow_B
+ Large_Crit</title>
<ellipse fill="none" stroke="black" cx="957.644" cy="-26.8701" rx="87.8629" ry="26.7407"/>
<text text-anchor="middle" x="957.644" y="-30.6701" font-family="Times New Roman,serif" font-size="14.00">Heavycrossbow_B</text>
<text text-anchor="middle" x="957.644" y="-15.6701" font-family="Times New Roman,serif" font-size="14.00">+ Large_Crit</text>
</g>
<!-- Branch -->
<g id="node2" class="node"><title>Branch</title>
<ellipse fill="none" stroke="black" cx="528.644" cy="-209.74" rx="36.2938" ry="18"/>
<text text-anchor="middle" x="528.644" y="-206.04" font-family="Times New Roman,serif" font-size="14.00">Branch</text>
</g>
<!-- CrossbowWithoutString -->
<g id="node15" class="node"><title>CrossbowWithoutString</title>
<ellipse fill="none" stroke="black" cx="488.644" cy="-122.74" rx="99.3824" ry="18"/>
<text text-anchor="middle" x="488.644" y="-119.04" font-family="Times New Roman,serif" font-size="14.00">CrossbowWithoutString</text>
</g>
<!-- Branch&#45;&gt;CrossbowWithoutString -->
<g id="edge14" class="edge"><title>Branch&#45;&gt;CrossbowWithoutString</title>
<path fill="none" stroke="black" d="M520.741,-191.947C515.135,-180.034 507.498,-163.804 501.079,-150.164"/>
<polygon fill="black" stroke="black" points="504.092,-148.347 496.667,-140.789 497.759,-151.328 504.092,-148.347"/>
<text text-anchor="middle" x="539.644" y="-162.54" font-family="Times New Roman,serif" font-size="14.00">Crafting 2</text>
</g>
<!-- Bone_A_Iron -->
<g id="node3" class="node"><title>Bone_A_Iron</title>
<ellipse fill="none" stroke="black" cx="249.644" cy="-296.74" rx="61.1893" ry="18"/>
<text text-anchor="middle" x="249.644" y="-293.04" font-family="Times New Roman,serif" font-size="14.00">Bone_A_Iron</text>
</g>
<!-- OreBar_A_Iron -->
<g id="node4" class="node"><title>OreBar_A_Iron</title>
<ellipse fill="none" stroke="black" cx="405.644" cy="-209.74" rx="68.4888" ry="18"/>
<text text-anchor="middle" x="405.644" y="-206.04" font-family="Times New Roman,serif" font-size="14.00">OreBar_A_Iron</text>
</g>
<!-- Bone_A_Iron&#45;&gt;OreBar_A_Iron -->
<g id="edge4" class="edge"><title>Bone_A_Iron&#45;&gt;OreBar_A_Iron</title>
<path fill="none" stroke="black" d="M263.272,-278.878C272.761,-268.096 286.256,-254.535 300.644,-245.74 314.629,-237.193 330.951,-230.455 346.501,-225.271"/>
<polygon fill="black" stroke="black" points="347.58,-228.6 356.055,-222.241 345.465,-221.928 347.58,-228.6"/>
<text text-anchor="middle" x="328.644" y="-249.54" font-family="Times New Roman,serif" font-size="14.00">Crafting 0</text>
</g>
<!-- OreBar_A_Iron&#45;&gt;CrossbowWithoutString -->
<g id="edge5" class="edge"><title>OreBar_A_Iron&#45;&gt;CrossbowWithoutString</title>
<path fill="none" stroke="black" d="M417.78,-191.784C425.313,-181.735 435.469,-169.002 445.644,-158.74 449.626,-154.725 454.045,-150.709 458.491,-146.904"/>
<polygon fill="black" stroke="black" points="460.961,-149.403 466.433,-140.33 456.498,-144.01 460.961,-149.403"/>
<text text-anchor="middle" x="473.644" y="-162.54" font-family="Times New Roman,serif" font-size="14.00">Crafting 2</text>
</g>
<!-- Sinew -->
<g id="node5" class="node"><title>Sinew</title>
<ellipse fill="none" stroke="black" cx="725.644" cy="-209.74" rx="32.4942" ry="18"/>
<text text-anchor="middle" x="725.644" y="-206.04" font-family="Times New Roman,serif" font-size="14.00">Sinew</text>
</g>
<!-- String_Bow -->
<g id="node6" class="node"><title>String_Bow</title>
<ellipse fill="none" stroke="black" cx="725.644" cy="-122.74" rx="53.8905" ry="18"/>
<text text-anchor="middle" x="725.644" y="-119.04" font-family="Times New Roman,serif" font-size="14.00">String_Bow</text>
</g>
<!-- Sinew&#45;&gt;String_Bow -->
<g id="edge6" class="edge"><title>Sinew&#45;&gt;String_Bow</title>
<path fill="none" stroke="black" d="M725.644,-191.539C725.644,-179.903 725.644,-164.288 725.644,-150.977"/>
<polygon fill="black" stroke="black" points="729.144,-150.916 725.644,-140.916 722.144,-150.916 729.144,-150.916"/>
<text text-anchor="middle" x="753.644" y="-162.54" font-family="Times New Roman,serif" font-size="14.00">Crafting 0</text>
</g>
<!-- String_Bow&#45;&gt;Heavycrossbow_B
+ Large_Crit -->
<g id="edge12" class="edge"><title>String_Bow&#45;&gt;Heavycrossbow_B
+ Large_Crit</title>
<path fill="none" stroke="black" d="M778.605,-119.187C858.932,-114.766 1003.94,-104.42 1019.64,-86.7401 1029.02,-76.179 1022.86,-65.3353 1011.42,-55.8784"/>
<polygon fill="black" stroke="black" points="1013.38,-52.976 1003.25,-49.881 1009.24,-58.6193 1013.38,-52.976"/>
<text text-anchor="middle" x="1052.64" y="-75.5401" font-family="Times New Roman,serif" font-size="14.00">Crafting 5</text>
</g>
<!-- Regularcrossbow B -->
<g id="node7" class="node"><title>Regularcrossbow B</title>
<ellipse fill="none" stroke="black" cx="590.644" cy="-26.8701" rx="83.3857" ry="18"/>
<text text-anchor="middle" x="590.644" y="-23.1701" font-family="Times New Roman,serif" font-size="14.00">Regularcrossbow B</text>
</g>
<!-- String_Bow&#45;&gt;Regularcrossbow B -->
<g id="edge8" class="edge"><title>String_Bow&#45;&gt;Regularcrossbow B</title>
<path fill="none" stroke="black" d="M721.673,-104.482C718.424,-93.8129 712.827,-80.5254 703.644,-71.7401 690.615,-59.2745 673.649,-50.2389 656.841,-43.7336"/>
<polygon fill="black" stroke="black" points="657.588,-40.2828 646.994,-40.189 655.217,-46.8691 657.588,-40.2828"/>
<text text-anchor="middle" x="742.644" y="-75.5401" font-family="Times New Roman,serif" font-size="14.00">Crafting 4</text>
</g>
<!-- Lightcrossbow -->
<g id="node8" class="node"><title>Lightcrossbow</title>
<ellipse fill="none" stroke="black" cx="65.6442" cy="-26.8701" rx="65.7887" ry="18"/>
<text text-anchor="middle" x="65.6442" y="-23.1701" font-family="Times New Roman,serif" font-size="14.00">Lightcrossbow</text>
</g>
<!-- String_Bow&#45;&gt;Lightcrossbow -->
<g id="edge13" class="edge"><title>String_Bow&#45;&gt;Lightcrossbow</title>
<path fill="none" stroke="black" d="M677.349,-114.486C653.166,-111.081 623.41,-107.232 596.644,-104.74 450.834,-91.1637 410.704,-118.027 267.644,-86.7401 249.906,-82.8609 247.055,-76.8932 229.644,-71.7401 190.947,-60.2868 179.583,-64.3431 140.644,-53.7401 131.372,-51.2154 121.584,-48.1455 112.249,-45.015"/>
<polygon fill="black" stroke="black" points="113.321,-41.6824 102.726,-41.751 111.051,-48.3043 113.321,-41.6824"/>
<text text-anchor="middle" x="295.644" y="-75.5401" font-family="Times New Roman,serif" font-size="14.00">Crafting 1</text>
</g>
<!-- Lightcrossbow B -->
<g id="node9" class="node"><title>Lightcrossbow B</title>
<ellipse fill="none" stroke="black" cx="222.644" cy="-26.8701" rx="73.387" ry="18"/>
<text text-anchor="middle" x="222.644" y="-23.1701" font-family="Times New Roman,serif" font-size="14.00">Lightcrossbow B</text>
</g>
<!-- String_Bow&#45;&gt;Lightcrossbow B -->
<g id="edge9" class="edge"><title>String_Bow&#45;&gt;Lightcrossbow B</title>
<path fill="none" stroke="black" d="M676.678,-114.974C652.591,-111.725 623.115,-107.869 596.644,-104.74 520.314,-95.7182 499.216,-105.362 424.644,-86.7401 407.428,-82.441 404.599,-76.9731 387.644,-71.7401 351.577,-60.6084 341.126,-63.4288 304.644,-53.7401 294.585,-51.0688 283.924,-47.9337 273.733,-44.7856"/>
<polygon fill="black" stroke="black" points="274.732,-41.4307 264.143,-41.7781 272.637,-48.11 274.732,-41.4307"/>
<text text-anchor="middle" x="452.644" y="-75.5401" font-family="Times New Roman,serif" font-size="14.00">Crafting 2</text>
</g>
<!-- Heavycrossbow
+ Large_Damage -->
<g id="node11" class="node"><title>Heavycrossbow
+ Large_Damage</title>
<ellipse fill="none" stroke="black" cx="771.644" cy="-26.8701" rx="79.8062" ry="26.7407"/>
<text text-anchor="middle" x="771.644" y="-30.6701" font-family="Times New Roman,serif" font-size="14.00">Heavycrossbow</text>
<text text-anchor="middle" x="771.644" y="-15.6701" font-family="Times New Roman,serif" font-size="14.00">+ Large_Damage</text>
</g>
<!-- String_Bow&#45;&gt;Heavycrossbow
+ Large_Damage -->
<g id="edge10" class="edge"><title>String_Bow&#45;&gt;Heavycrossbow
+ Large_Damage</title>
<path fill="none" stroke="black" d="M775.144,-115.413C809.491,-109.889 850.926,-100.565 861.644,-86.7401 873.697,-71.1927 860.583,-58.4709 840.977,-48.8824"/>
<polygon fill="black" stroke="black" points="842.138,-45.5682 831.579,-44.6985 839.291,-51.9631 842.138,-45.5682"/>
<text text-anchor="middle" x="894.644" y="-75.5401" font-family="Times New Roman,serif" font-size="14.00">Crafting 5</text>
</g>
<!-- Heavycrossbow_B
+ Small_Dexterity -->
<g id="node12" class="node"><title>Heavycrossbow_B
+ Small_Dexterity</title>
<ellipse fill="none" stroke="black" cx="401.644" cy="-26.8701" rx="87.8629" ry="26.7407"/>
<text text-anchor="middle" x="401.644" y="-30.6701" font-family="Times New Roman,serif" font-size="14.00">Heavycrossbow_B</text>
<text text-anchor="middle" x="401.644" y="-15.6701" font-family="Times New Roman,serif" font-size="14.00">+ Small_Dexterity</text>
</g>
<!-- String_Bow&#45;&gt;Heavycrossbow_B
+ Small_Dexterity -->
<g id="edge11" class="edge"><title>String_Bow&#45;&gt;Heavycrossbow_B
+ Small_Dexterity</title>
<path fill="none" stroke="black" d="M674.78,-116.673C642.108,-111.995 599.433,-103.168 564.644,-86.7401 554.915,-82.1461 555.177,-76.7275 545.644,-71.7401 532.905,-65.0753 504.516,-56.0357 476.283,-47.8938"/>
<polygon fill="black" stroke="black" points="476.905,-44.4318 466.329,-45.0567 474.987,-51.1637 476.905,-44.4318"/>
<text text-anchor="middle" x="592.644" y="-75.5401" font-family="Times New Roman,serif" font-size="14.00">Crafting 5</text>
</g>
<!-- Regularcrossbow -->
<g id="node13" class="node"><title>Regularcrossbow</title>
<ellipse fill="none" stroke="black" cx="1137.64" cy="-26.8701" rx="74.9875" ry="18"/>
<text text-anchor="middle" x="1137.64" y="-23.1701" font-family="Times New Roman,serif" font-size="14.00">Regularcrossbow</text>
</g>
<!-- String_Bow&#45;&gt;Regularcrossbow -->
<g id="edge7" class="edge"><title>String_Bow&#45;&gt;Regularcrossbow</title>
<path fill="none" stroke="black" d="M779.479,-121.214C866.253,-119.587 1032.59,-113.021 1084.64,-86.7401 1099.71,-79.1365 1112.5,-65.2997 1121.75,-52.9506"/>
<polygon fill="black" stroke="black" points="1124.64,-54.918 1127.57,-44.7338 1118.93,-50.8735 1124.64,-54.918"/>
<text text-anchor="middle" x="1133.64" y="-75.5401" font-family="Times New Roman,serif" font-size="14.00">Crafting 3</text>
</g>
<!-- Sword -->
<g id="node10" class="node"><title>Sword</title>
<ellipse fill="none" stroke="black" cx="363.644" cy="-296.74" rx="35.194" ry="18"/>
<text text-anchor="middle" x="363.644" y="-293.04" font-family="Times New Roman,serif" font-size="14.00">Sword</text>
</g>
<!-- Sword&#45;&gt;OreBar_A_Iron -->
<g id="edge2" class="edge"><title>Sword&#45;&gt;OreBar_A_Iron</title>
<path fill="none" stroke="black" d="M360.166,-278.753C358.932,-268.693 358.858,-255.959 363.644,-245.74 365.748,-241.249 368.742,-237.133 372.176,-233.426"/>
<polygon fill="black" stroke="black" points="374.777,-235.786 379.698,-226.404 370,-230.67 374.777,-235.786"/>
<text text-anchor="middle" x="391.644" y="-249.54" font-family="Times New Roman,serif" font-size="14.00">Crafting 1</text>
</g>
<!-- Oven -->
<g id="node14" class="node"><title>Oven</title>
<ellipse fill="none" stroke="black" cx="447.644" cy="-296.74" rx="30.5947" ry="18"/>
<text text-anchor="middle" x="447.644" y="-293.04" font-family="Times New Roman,serif" font-size="14.00">Oven</text>
</g>
<!-- Oven&#45;&gt;OreBar_A_Iron -->
<g id="edge1" class="edge"><title>Oven&#45;&gt;OreBar_A_Iron</title>
<path fill="none" stroke="black" d="M439.758,-279.018C435.13,-269.277 429.13,-256.777 423.644,-245.74 422.184,-242.803 420.639,-239.737 419.092,-236.693"/>
<polygon fill="black" stroke="black" points="422.202,-235.087 414.528,-227.782 415.971,-238.278 422.202,-235.087"/>
<text text-anchor="middle" x="458.644" y="-249.54" font-family="Times New Roman,serif" font-size="14.00">Crafting 1</text>
</g>
<!-- CrossbowWithoutString&#45;&gt;Heavycrossbow_B
+ Large_Crit -->
<g id="edge20" class="edge"><title>CrossbowWithoutString&#45;&gt;Heavycrossbow_B
+ Large_Crit</title>
<path fill="none" stroke="black" d="M572.932,-113.083C650.32,-104.864 755.765,-92.8802 774.644,-86.7401 787.699,-82.4945 788.951,-76.967 801.644,-71.7401 809.793,-68.3844 847.339,-57.8036 883.551,-47.8744"/>
<polygon fill="black" stroke="black" points="884.483,-51.2481 893.205,-45.2337 882.636,-44.4961 884.483,-51.2481"/>
<text text-anchor="middle" x="831.644" y="-75.5401" font-family="Times New Roman,serif" font-size="14.00">Crafting 5</text>
</g>
<!-- CrossbowWithoutString&#45;&gt;Regularcrossbow B -->
<g id="edge16" class="edge"><title>CrossbowWithoutString&#45;&gt;Regularcrossbow B</title>
<path fill="none" stroke="black" d="M484.629,-104.612C483.197,-94.2559 483.263,-81.2599 489.644,-71.7401 497.947,-59.3537 510.566,-50.4427 524.101,-44.039"/>
<polygon fill="black" stroke="black" points="525.753,-47.1395 533.576,-39.9944 523.005,-40.7015 525.753,-47.1395"/>
<text text-anchor="middle" x="517.644" y="-75.5401" font-family="Times New Roman,serif" font-size="14.00">Crafting 4</text>
</g>
<!-- CrossbowWithoutString&#45;&gt;Lightcrossbow -->
<g id="edge17" class="edge"><title>CrossbowWithoutString&#45;&gt;Lightcrossbow</title>
<path fill="none" stroke="black" d="M389.082,-121.58C293.137,-119.83 155.911,-112.651 109.644,-86.7401 96.3371,-79.2876 85.864,-65.96 78.4797,-53.8685"/>
<polygon fill="black" stroke="black" points="81.4168,-51.9526 73.4391,-44.9808 75.3279,-55.406 81.4168,-51.9526"/>
<text text-anchor="middle" x="137.644" y="-75.5401" font-family="Times New Roman,serif" font-size="14.00">Crafting 1</text>
</g>
<!-- CrossbowWithoutString&#45;&gt;Lightcrossbow B -->
<g id="edge21" class="edge"><title>CrossbowWithoutString&#45;&gt;Lightcrossbow B</title>
<path fill="none" stroke="black" d="M393.113,-117.47C305.841,-112.562 188.208,-103.012 173.644,-86.7401 162.969,-74.8128 173.167,-61.086 186.969,-49.8892"/>
<polygon fill="black" stroke="black" points="189.453,-52.403 195.381,-43.6217 185.271,-46.7896 189.453,-52.403"/>
<text text-anchor="middle" x="201.644" y="-75.5401" font-family="Times New Roman,serif" font-size="14.00">Crafting 2</text>
</g>
<!-- CrossbowWithoutString&#45;&gt;Heavycrossbow
+ Large_Damage -->
<g id="edge18" class="edge"><title>CrossbowWithoutString&#45;&gt;Heavycrossbow
+ Large_Damage</title>
<path fill="none" stroke="black" d="M558.082,-109.741C580.066,-104.417 604,-96.9703 624.644,-86.7401 634.284,-81.9629 634.198,-76.891 643.644,-71.7401 661.376,-62.0709 681.634,-53.9483 700.722,-47.424"/>
<polygon fill="black" stroke="black" points="701.889,-50.7245 710.279,-44.2543 699.686,-44.0804 701.889,-50.7245"/>
<text text-anchor="middle" x="671.644" y="-75.5401" font-family="Times New Roman,serif" font-size="14.00">Crafting 5</text>
</g>
<!-- CrossbowWithoutString&#45;&gt;Heavycrossbow_B
+ Small_Dexterity -->
<g id="edge19" class="edge"><title>CrossbowWithoutString&#45;&gt;Heavycrossbow_B
+ Small_Dexterity</title>
<path fill="none" stroke="black" d="M405.646,-112.702C373.259,-107.313 341.513,-99.0511 331.644,-86.7401 322.186,-74.9408 329.452,-63.7733 342.308,-54.4005"/>
<polygon fill="black" stroke="black" points="344.449,-57.1837 350.936,-48.8069 340.641,-51.3101 344.449,-57.1837"/>
<text text-anchor="middle" x="359.644" y="-75.5401" font-family="Times New Roman,serif" font-size="14.00">Crafting 5</text>
</g>
<!-- CrossbowWithoutString&#45;&gt;Regularcrossbow -->
<g id="edge15" class="edge"><title>CrossbowWithoutString&#45;&gt;Regularcrossbow</title>
<path fill="none" stroke="black" d="M572.676,-113.028C601.216,-110.203 633.303,-107.173 662.644,-104.74 779.848,-95.0212 812.618,-115.534 926.644,-86.7401 942.265,-82.7956 944.286,-76.6079 959.644,-71.7401 1000.61,-58.756 1012.95,-64.1511 1054.64,-53.7401 1064.96,-51.1631 1075.89,-48.0443 1086.31,-44.8773"/>
<polygon fill="black" stroke="black" points="1087.59,-48.1446 1096.11,-41.8423 1085.52,-41.4581 1087.59,-48.1446"/>
<text text-anchor="middle" x="987.644" y="-75.5401" font-family="Times New Roman,serif" font-size="14.00">Crafting 3</text>
</g>
<!-- Ore_A_Iron -->
<g id="node16" class="node"><title>Ore_A_Iron</title>
<ellipse fill="none" stroke="black" cx="551.644" cy="-296.74" rx="55.7903" ry="18"/>
<text text-anchor="middle" x="551.644" y="-293.04" font-family="Times New Roman,serif" font-size="14.00">Ore_A_Iron</text>
</g>
<!-- Ore_A_Iron&#45;&gt;OreBar_A_Iron -->
<g id="edge3" class="edge"><title>Ore_A_Iron&#45;&gt;OreBar_A_Iron</title>
<path fill="none" stroke="black" d="M534.538,-279.378C522.847,-268.807 506.63,-255.293 490.644,-245.74 479.618,-239.152 467.124,-233.246 455.174,-228.246"/>
<polygon fill="black" stroke="black" points="456.328,-224.937 445.745,-224.434 453.704,-231.427 456.328,-224.937"/>
<text text-anchor="middle" x="540.644" y="-249.54" font-family="Times New Roman,serif" font-size="14.00">Crafting 0</text>
</g>
</g>
</svg>
