<?xml version="1.0" encoding="UTF-8" standalone="no"?>
<!DOCTYPE svg PUBLIC "-//W3C//DTD SVG 1.1//EN"
 "http://www.w3.org/Graphics/SVG/1.1/DTD/svg11.dtd">
<!-- Generated by graphviz version 2.38.0 (20140413.2041)
 -->
<!-- Title: G Pages: 1 -->
<svg width="236pt" height="149pt"
 viewBox="0.00 0.00 235.83 148.74" xmlns="http://www.w3.org/2000/svg" xmlns:xlink="http://www.w3.org/1999/xlink">
<g id="graph0" class="graph" transform="scale(1 1) rotate(0) translate(4 144.74)">
<title>G</title>
<polygon fill="white" stroke="none" points="-4,4 -4,-144.74 231.832,-144.74 231.832,4 -4,4"/>
<!-- Bow -->
<g id="node1" class="node"><title>Bow</title>
<ellipse fill="none" stroke="black" cx="46.2376" cy="-122.74" rx="27.8951" ry="18"/>
<text text-anchor="middle" x="46.2376" y="-119.04" font-family="Times New Roman,serif" font-size="14.00">Bow</text>
</g>
<!-- Bow
+ Small_WaterDamage -->
<g id="node2" class="node"><title>Bow
+ Small_WaterDamage</title>
<ellipse fill="none" stroke="black" cx="103.238" cy="-26.8701" rx="103.476" ry="26.7407"/>
<text text-anchor="middle" x="103.238" y="-30.6701" font-family="Times New Roman,serif" font-size="14.00">Bow</text>
<text text-anchor="middle" x="103.238" y="-15.6701" font-family="Times New Roman,serif" font-size="14.00">+ Small_WaterDamage</text>
</g>
<!-- Bow&#45;&gt;Bow
+ Small_WaterDamage -->
<g id="edge2" class="edge"><title>Bow&#45;&gt;Bow
+ Small_WaterDamage</title>
<path fill="none" stroke="black" d="M53.2308,-105.099C57.6479,-95.1627 63.7353,-82.4362 70.2376,-71.7401 72.2953,-68.3553 74.5546,-64.9133 76.8959,-61.5217"/>
<polygon fill="black" stroke="black" points="79.8383,-63.4244 82.8165,-53.2567 74.1477,-59.3479 79.8383,-63.4244"/>
<text text-anchor="middle" x="98.2376" y="-75.5401" font-family="Times New Roman,serif" font-size="14.00">Crafting 5</text>
</g>
<!-- Essence_Water -->
<g id="node3" class="node"><title>Essence_Water</title>
<ellipse fill="none" stroke="black" cx="160.238" cy="-122.74" rx="67.6881" ry="18"/>
<text text-anchor="middle" x="160.238" y="-119.04" font-family="Times New Roman,serif" font-size="14.00">Essence_Water</text>
</g>
<!-- Essence_Water&#45;&gt;Bow
+ Small_WaterDamage -->
<g id="edge1" class="edge"><title>Essence_Water&#45;&gt;Bow
+ Small_WaterDamage</title>
<path fill="none" stroke="black" d="M149.783,-104.523C142.597,-92.6884 132.81,-76.5716 124.065,-62.1698"/>
<polygon fill="black" stroke="black" points="126.969,-60.2088 118.787,-53.4778 120.986,-63.842 126.969,-60.2088"/>
<text text-anchor="middle" x="167.238" y="-75.5401" font-family="Times New Roman,serif" font-size="14.00">Crafting 5</text>
</g>
</g>
</svg>
