<?xml version="1.0" encoding="UTF-8" standalone="no"?>
<!DOCTYPE svg PUBLIC "-//W3C//DTD SVG 1.1//EN"
 "http://www.w3.org/Graphics/SVG/1.1/DTD/svg11.dtd">
<!-- Generated by graphviz version 2.38.0 (20140413.2041)
 -->
<!-- Title: G Pages: 1 -->
<svg width="755pt" height="149pt"
 viewBox="0.00 0.00 755.39 148.74" xmlns="http://www.w3.org/2000/svg" xmlns:xlink="http://www.w3.org/1999/xlink">
<g id="graph0" class="graph" transform="scale(1 1) rotate(0) translate(4 144.74)">
<title>G</title>
<polygon fill="white" stroke="none" points="-4,4 -4,-144.74 751.389,-144.74 751.389,4 -4,4"/>
<!-- Scraps_Metal -->
<g id="node1" class="node"><title>Scraps_Metal</title>
<ellipse fill="none" stroke="black" cx="241.495" cy="-122.74" rx="61.1893" ry="18"/>
<text text-anchor="middle" x="241.495" y="-119.04" font-family="Times New Roman,serif" font-size="14.00">Scraps_Metal</text>
</g>
<!-- Metal_B_Boots
+ Small_Movement_Mod -->
<g id="node2" class="node"><title>Metal_B_Boots
+ Small_Movement_Mod</title>
<ellipse fill="none" stroke="black" cx="477.495" cy="-26.8701" rx="113.689" ry="26.7407"/>
<text text-anchor="middle" x="477.495" y="-30.6701" font-family="Times New Roman,serif" font-size="14.00">Metal_B_Boots</text>
<text text-anchor="middle" x="477.495" y="-15.6701" font-family="Times New Roman,serif" font-size="14.00">+ Small_Movement_Mod</text>
</g>
<!-- Scraps_Metal&#45;&gt;Metal_B_Boots
+ Small_Movement_Mod -->
<g id="edge4" class="edge"><title>Scraps_Metal&#45;&gt;Metal_B_Boots
+ Small_Movement_Mod</title>
<path fill="none" stroke="black" d="M267.124,-106.207C276.97,-100.186 288.29,-93.1991 298.495,-86.7401 308.807,-80.2132 310.382,-76.7834 321.495,-71.7401 341.823,-62.5149 364.537,-54.7938 386.204,-48.5307"/>
<polygon fill="black" stroke="black" points="387.394,-51.8319 396.073,-45.7555 385.499,-45.0932 387.394,-51.8319"/>
<text text-anchor="middle" x="349.495" y="-75.5401" font-family="Times New Roman,serif" font-size="14.00">Crafting 5</text>
</g>
<!-- Metal_B_Boots
+ Small_ArmorDefense -->
<g id="node4" class="node"><title>Metal_B_Boots
+ Small_ArmorDefense</title>
<ellipse fill="none" stroke="black" cx="240.495" cy="-26.8701" rx="105.218" ry="26.7407"/>
<text text-anchor="middle" x="240.495" y="-30.6701" font-family="Times New Roman,serif" font-size="14.00">Metal_B_Boots</text>
<text text-anchor="middle" x="240.495" y="-15.6701" font-family="Times New Roman,serif" font-size="14.00">+ Small_ArmorDefense</text>
</g>
<!-- Scraps_Metal&#45;&gt;Metal_B_Boots
+ Small_ArmorDefense -->
<g id="edge3" class="edge"><title>Scraps_Metal&#45;&gt;Metal_B_Boots
+ Small_ArmorDefense</title>
<path fill="none" stroke="black" d="M194.795,-110.821C182.549,-105.609 170.754,-97.9538 163.495,-86.7401 155.544,-74.4571 161.877,-63.7264 173.709,-54.9106"/>
<polygon fill="black" stroke="black" points="175.71,-57.7842 182.183,-49.3968 171.892,-51.9169 175.71,-57.7842"/>
<text text-anchor="middle" x="191.495" y="-75.5401" font-family="Times New Roman,serif" font-size="14.00">Crafting 5</text>
</g>
<!-- Chain_Boots -->
<g id="node5" class="node"><title>Chain_Boots</title>
<ellipse fill="none" stroke="black" cx="58.4948" cy="-26.8701" rx="58.4896" ry="18"/>
<text text-anchor="middle" x="58.4948" y="-23.1701" font-family="Times New Roman,serif" font-size="14.00">Chain_Boots</text>
</g>
<!-- Scraps_Metal&#45;&gt;Chain_Boots -->
<g id="edge2" class="edge"><title>Scraps_Metal&#45;&gt;Chain_Boots</title>
<path fill="none" stroke="black" d="M183.858,-116.725C156.715,-112.146 125.001,-103.405 100.495,-86.7401 88.3708,-78.4952 78.5681,-65.5219 71.4918,-53.8499"/>
<polygon fill="black" stroke="black" points="74.3853,-51.8568 66.409,-44.8833 68.2957,-55.3088 74.3853,-51.8568"/>
<text text-anchor="middle" x="128.495" y="-75.5401" font-family="Times New Roman,serif" font-size="14.00">Crafting 4</text>
</g>
<!-- Metal_C_Boots -->
<g id="node6" class="node"><title>Metal_C_Boots</title>
<ellipse fill="none" stroke="black" cx="678.495" cy="-26.8701" rx="68.7879" ry="18"/>
<text text-anchor="middle" x="678.495" y="-23.1701" font-family="Times New Roman,serif" font-size="14.00">Metal_C_Boots</text>
</g>
<!-- Scraps_Metal&#45;&gt;Metal_C_Boots -->
<g id="edge1" class="edge"><title>Scraps_Metal&#45;&gt;Metal_C_Boots</title>
<path fill="none" stroke="black" d="M302.191,-119.976C346.573,-116.785 407.348,-108.384 456.495,-86.7401 466.341,-82.4039 465.609,-75.9858 475.495,-71.7401 527.068,-49.5907 545.865,-66.6254 600.495,-53.7401 610.389,-51.4065 620.817,-48.3679 630.716,-45.1975"/>
<polygon fill="black" stroke="black" points="631.999,-48.4601 640.4,-42.0045 629.807,-41.8122 631.999,-48.4601"/>
<text text-anchor="middle" x="503.495" y="-75.5401" font-family="Times New Roman,serif" font-size="14.00">Crafting 3</text>
</g>
<!-- Anvil -->
<g id="node3" class="node"><title>Anvil</title>
<ellipse fill="none" stroke="black" cx="478.495" cy="-122.74" rx="29.795" ry="18"/>
<text text-anchor="middle" x="478.495" y="-119.04" font-family="Times New Roman,serif" font-size="14.00">Anvil</text>
</g>
<!-- Anvil&#45;&gt;Metal_B_Boots
+ Small_Movement_Mod -->
<g id="edge8" class="edge"><title>Anvil&#45;&gt;Metal_B_Boots
+ Small_Movement_Mod</title>
<path fill="none" stroke="black" d="M503.485,-112.559C522.641,-103.923 544.406,-89.6546 535.495,-71.7401 533.199,-67.1249 530.16,-62.8659 526.674,-58.967"/>
<polygon fill="black" stroke="black" points="529.081,-56.4258 519.495,-51.9138 524.175,-61.419 529.081,-56.4258"/>
<text text-anchor="middle" x="566.495" y="-75.5401" font-family="Times New Roman,serif" font-size="14.00">Crafting 5</text>
</g>
<!-- Anvil&#45;&gt;Metal_B_Boots
+ Small_ArmorDefense -->
<g id="edge7" class="edge"><title>Anvil&#45;&gt;Metal_B_Boots
+ Small_ArmorDefense</title>
<path fill="none" stroke="black" d="M454.128,-111.965C438.503,-105.415 417.95,-96.2727 400.495,-86.7401 389.784,-80.8909 388.516,-76.9813 377.495,-71.7401 359.921,-63.3829 340.354,-56.0489 321.634,-49.8895"/>
<polygon fill="black" stroke="black" points="322.528,-46.5007 311.937,-46.7764 320.389,-53.1657 322.528,-46.5007"/>
<text text-anchor="middle" x="428.495" y="-75.5401" font-family="Times New Roman,serif" font-size="14.00">Crafting 5</text>
</g>
<!-- Anvil&#45;&gt;Chain_Boots -->
<g id="edge6" class="edge"><title>Anvil&#45;&gt;Chain_Boots</title>
<path fill="none" stroke="black" d="M448.825,-119.344C393.274,-114.542 275.816,-102.808 238.495,-86.7401 228.613,-82.4856 229.275,-76.2226 219.495,-71.7401 181.222,-54.1998 166.986,-65.2679 126.495,-53.7401 118.2,-51.3785 109.492,-48.4363 101.182,-45.3912"/>
<polygon fill="black" stroke="black" points="102.25,-42.0532 91.6579,-41.7978 99.7786,-48.6026 102.25,-42.0532"/>
<text text-anchor="middle" x="266.495" y="-75.5401" font-family="Times New Roman,serif" font-size="14.00">Crafting 4</text>
</g>
<!-- Anvil&#45;&gt;Metal_C_Boots -->
<g id="edge5" class="edge"><title>Anvil&#45;&gt;Metal_C_Boots</title>
<path fill="none" stroke="black" d="M506.685,-116.447C531.68,-111.082 568.73,-101.454 598.495,-86.7401 617.799,-77.1977 637.305,-62.9571 652.224,-50.8723"/>
<polygon fill="black" stroke="black" points="654.54,-53.4982 660.009,-44.4239 650.075,-48.1072 654.54,-53.4982"/>
<text text-anchor="middle" x="652.495" y="-75.5401" font-family="Times New Roman,serif" font-size="14.00">Crafting 3</text>
</g>
</g>
</svg>
