<?xml version="1.0" encoding="UTF-8" standalone="no"?>
<!DOCTYPE svg PUBLIC "-//W3C//DTD SVG 1.1//EN"
 "http://www.w3.org/Graphics/SVG/1.1/DTD/svg11.dtd">
<!-- Generated by graphviz version 2.38.0 (20140413.2041)
 -->
<!-- Title: G Pages: 1 -->
<svg width="249pt" height="149pt"
 viewBox="0.00 0.00 249.04 148.74" xmlns="http://www.w3.org/2000/svg" xmlns:xlink="http://www.w3.org/1999/xlink">
<g id="graph0" class="graph" transform="scale(1 1) rotate(0) translate(4 144.74)">
<title>G</title>
<polygon fill="white" stroke="none" points="-4,4 -4,-144.74 245.038,-144.74 245.038,4 -4,4"/>
<!-- Club -->
<g id="node1" class="node"><title>Club</title>
<ellipse fill="none" stroke="black" cx="49.8944" cy="-122.74" rx="28.6953" ry="18"/>
<text text-anchor="middle" x="49.8944" y="-119.04" font-family="Times New Roman,serif" font-size="14.00">Club</text>
</g>
<!-- Club
+ Small_TormentedSoul -->
<g id="node3" class="node"><title>Club
+ Small_TormentedSoul</title>
<ellipse fill="none" stroke="black" cx="108.894" cy="-26.8701" rx="108.789" ry="26.7407"/>
<text text-anchor="middle" x="108.894" y="-30.6701" font-family="Times New Roman,serif" font-size="14.00">Club</text>
<text text-anchor="middle" x="108.894" y="-15.6701" font-family="Times New Roman,serif" font-size="14.00">+ Small_TormentedSoul</text>
</g>
<!-- Club&#45;&gt;Club
+ Small_TormentedSoul -->
<g id="edge1" class="edge"><title>Club&#45;&gt;Club
+ Small_TormentedSoul</title>
<path fill="none" stroke="black" d="M59.903,-105.816C67.4333,-93.8354 78.0308,-76.9747 87.4441,-61.998"/>
<polygon fill="black" stroke="black" points="90.4593,-63.7778 92.8175,-53.4488 84.5327,-60.0528 90.4593,-63.7778"/>
<text text-anchor="middle" x="109.894" y="-75.5401" font-family="Times New Roman,serif" font-size="14.00">Crafting 5</text>
</g>
<!-- Soul_Tormented -->
<g id="node2" class="node"><title>Soul_Tormented</title>
<ellipse fill="none" stroke="black" cx="168.894" cy="-122.74" rx="72.2875" ry="18"/>
<text text-anchor="middle" x="168.894" y="-119.04" font-family="Times New Roman,serif" font-size="14.00">Soul_Tormented</text>
</g>
<!-- Soul_Tormented&#45;&gt;Club
+ Small_TormentedSoul -->
<g id="edge2" class="edge"><title>Soul_Tormented&#45;&gt;Club
+ Small_TormentedSoul</title>
<path fill="none" stroke="black" d="M160.505,-104.713C155.459,-94.8711 148.709,-82.3711 141.894,-71.7401 139.757,-68.4053 137.443,-64.9969 135.068,-61.6269"/>
<polygon fill="black" stroke="black" points="137.801,-59.4346 129.099,-53.3922 132.134,-63.5429 137.801,-59.4346"/>
<text text-anchor="middle" x="178.894" y="-75.5401" font-family="Times New Roman,serif" font-size="14.00">Crafting 5</text>
</g>
</g>
</svg>
