<?xml version="1.0" encoding="UTF-8" standalone="no"?>
<!DOCTYPE svg PUBLIC "-//W3C//DTD SVG 1.1//EN"
 "http://www.w3.org/Graphics/SVG/1.1/DTD/svg11.dtd">
<!-- Generated by graphviz version 2.38.0 (20140413.2041)
 -->
<!-- Title: G Pages: 1 -->
<svg width="262pt" height="131pt"
 viewBox="0.00 0.00 262.29 131.00" xmlns="http://www.w3.org/2000/svg" xmlns:xlink="http://www.w3.org/1999/xlink">
<g id="graph0" class="graph" transform="scale(1 1) rotate(0) translate(4 127)">
<title>G</title>
<polygon fill="white" stroke="none" points="-4,4 -4,-127 258.29,-127 258.29,4 -4,4"/>
<!-- Bucket_A_Milk -->
<g id="node1" class="node"><title>Bucket_A_Milk</title>
<ellipse fill="none" stroke="black" cx="68.2439" cy="-105" rx="68.4888" ry="18"/>
<text text-anchor="middle" x="68.2439" y="-101.3" font-family="Times New Roman,serif" font-size="14.00">Bucket_A_Milk</text>
</g>
<!-- Cup_A_Milk -->
<g id="node2" class="node"><title>Cup_A_Milk</title>
<ellipse fill="none" stroke="black" cx="136.244" cy="-18" rx="58.4896" ry="18"/>
<text text-anchor="middle" x="136.244" y="-14.3" font-family="Times New Roman,serif" font-size="14.00">Cup_A_Milk</text>
</g>
<!-- Bucket_A_Milk&#45;&gt;Cup_A_Milk -->
<g id="edge1" class="edge"><title>Bucket_A_Milk&#45;&gt;Cup_A_Milk</title>
<path fill="none" stroke="black" d="M81.6786,-87.2067C91.644,-74.7499 105.385,-57.5734 116.585,-43.5741"/>
<polygon fill="black" stroke="black" points="119.323,-45.7535 122.837,-35.7584 113.857,-41.3806 119.323,-45.7535"/>
<text text-anchor="middle" x="135.244" y="-57.8" font-family="Times New Roman,serif" font-size="14.00">Crafting 0</text>
</g>
<!-- CupEmpty -->
<g id="node3" class="node"><title>CupEmpty</title>
<ellipse fill="none" stroke="black" cx="204.244" cy="-105" rx="50.0912" ry="18"/>
<text text-anchor="middle" x="204.244" y="-101.3" font-family="Times New Roman,serif" font-size="14.00">CupEmpty</text>
</g>
<!-- CupEmpty&#45;&gt;Cup_A_Milk -->
<g id="edge2" class="edge"><title>CupEmpty&#45;&gt;Cup_A_Milk</title>
<path fill="none" stroke="black" d="M192.27,-87.0547C185.196,-77.2396 175.946,-64.7396 167.244,-54 164.349,-50.4269 161.217,-46.721 158.094,-43.1162"/>
<polygon fill="black" stroke="black" points="160.605,-40.6709 151.371,-35.4768 155.35,-45.2958 160.605,-40.6709"/>
<text text-anchor="middle" x="206.244" y="-57.8" font-family="Times New Roman,serif" font-size="14.00">Crafting 0</text>
</g>
</g>
</svg>
