<?xml version="1.0" encoding="UTF-8" standalone="no"?>
<!DOCTYPE svg PUBLIC "-//W3C//DTD SVG 1.1//EN"
 "http://www.w3.org/Graphics/SVG/1.1/DTD/svg11.dtd">
<!-- Generated by graphviz version 2.38.0 (20140413.2041)
 -->
<!-- Title: G Pages: 1 -->
<svg width="709pt" height="392pt"
 viewBox="0.00 0.00 708.79 392.00" xmlns="http://www.w3.org/2000/svg" xmlns:xlink="http://www.w3.org/1999/xlink">
<g id="graph0" class="graph" transform="scale(1 1) rotate(0) translate(4 388)">
<title>G</title>
<polygon fill="white" stroke="none" points="-4,4 -4,-388 704.789,-388 704.789,4 -4,4"/>
<!-- Pouch_Dust_Pixie -->
<g id="node1" class="node"><title>Pouch_Dust_Pixie</title>
<ellipse fill="none" stroke="black" cx="320.994" cy="-192" rx="78.7863" ry="18"/>
<text text-anchor="middle" x="320.994" y="-188.3" font-family="Times New Roman,serif" font-size="14.00">Pouch_Dust_Pixie</text>
</g>
<!-- Tusk_A_Magic -->
<g id="node15" class="node"><title>Tusk_A_Magic</title>
<ellipse fill="none" stroke="black" cx="187.994" cy="-105" rx="67.6881" ry="18"/>
<text text-anchor="middle" x="187.994" y="-101.3" font-family="Times New Roman,serif" font-size="14.00">Tusk_A_Magic</text>
</g>
<!-- Pouch_Dust_Pixie&#45;&gt;Tusk_A_Magic -->
<g id="edge1" class="edge"><title>Pouch_Dust_Pixie&#45;&gt;Tusk_A_Magic</title>
<path fill="none" stroke="black" d="M297.939,-174.577C283.715,-164.603 264.998,-151.763 247.994,-141 240.443,-136.22 232.235,-131.275 224.384,-126.66"/>
<polygon fill="black" stroke="black" points="226.128,-123.625 215.726,-121.617 222.605,-129.674 226.128,-123.625"/>
<text text-anchor="middle" x="298.994" y="-144.8" font-family="Times New Roman,serif" font-size="14.00">Crafting 1</text>
</g>
<!-- Pouch_Dust_Moon -->
<g id="node2" class="node"><title>Pouch_Dust_Moon</title>
<ellipse fill="none" stroke="black" cx="351.994" cy="-279" rx="83.3857" ry="18"/>
<text text-anchor="middle" x="351.994" y="-275.3" font-family="Times New Roman,serif" font-size="14.00">Pouch_Dust_Moon</text>
</g>
<!-- Pouch_Dust_Moon&#45;&gt;Pouch_Dust_Pixie -->
<g id="edge16" class="edge"><title>Pouch_Dust_Moon&#45;&gt;Pouch_Dust_Pixie</title>
<path fill="none" stroke="black" d="M345.721,-260.799C341.435,-249.047 335.669,-233.238 330.784,-219.842"/>
<polygon fill="black" stroke="black" points="333.973,-218.371 327.258,-210.175 327.396,-220.769 333.973,-218.371"/>
<text text-anchor="middle" x="366.994" y="-231.8" font-family="Times New Roman,serif" font-size="14.00">Crafting 0</text>
</g>
<!-- Pouch_Dust_Bone -->
<g id="node3" class="node"><title>Pouch_Dust_Bone</title>
<ellipse fill="none" stroke="black" cx="532.994" cy="-279" rx="79.8859" ry="18"/>
<text text-anchor="middle" x="532.994" y="-275.3" font-family="Times New Roman,serif" font-size="14.00">Pouch_Dust_Bone</text>
</g>
<!-- Pouch_Dust_Bone&#45;&gt;Pouch_Dust_Pixie -->
<g id="edge3" class="edge"><title>Pouch_Dust_Bone&#45;&gt;Pouch_Dust_Pixie</title>
<path fill="none" stroke="black" d="M495.581,-262.999C459.967,-248.72 406.25,-227.183 367.812,-211.771"/>
<polygon fill="black" stroke="black" points="368.974,-208.466 358.39,-207.993 366.369,-214.964 368.974,-208.466"/>
<text text-anchor="middle" x="466.994" y="-231.8" font-family="Times New Roman,serif" font-size="14.00">Crafting 0</text>
</g>
<!-- Tusk_MagicBelt -->
<g id="node4" class="node"><title>Tusk_MagicBelt</title>
<ellipse fill="none" stroke="black" cx="133.994" cy="-18" rx="70.6878" ry="18"/>
<text text-anchor="middle" x="133.994" y="-14.3" font-family="Times New Roman,serif" font-size="14.00">Tusk_MagicBelt</text>
</g>
<!-- Rope -->
<g id="node5" class="node"><title>Rope</title>
<ellipse fill="none" stroke="black" cx="70.9942" cy="-105" rx="30.5947" ry="18"/>
<text text-anchor="middle" x="70.9942" y="-101.3" font-family="Times New Roman,serif" font-size="14.00">Rope</text>
</g>
<!-- Rope&#45;&gt;Tusk_MagicBelt -->
<g id="edge5" class="edge"><title>Rope&#45;&gt;Tusk_MagicBelt</title>
<path fill="none" stroke="black" d="M78.3343,-87.4831C83.2082,-77.3568 90.1413,-64.388 97.9942,-54 100.928,-50.119 104.294,-46.2667 107.764,-42.615"/>
<polygon fill="black" stroke="black" points="110.328,-45.0006 114.927,-35.4562 105.38,-40.0492 110.328,-45.0006"/>
<text text-anchor="middle" x="125.994" y="-57.8" font-family="Times New Roman,serif" font-size="14.00">Crafting 1</text>
</g>
<!-- Moonstone -->
<g id="node6" class="node"><title>Moonstone</title>
<ellipse fill="none" stroke="black" cx="432.994" cy="-366" rx="51.9908" ry="18"/>
<text text-anchor="middle" x="432.994" y="-362.3" font-family="Times New Roman,serif" font-size="14.00">Moonstone</text>
</g>
<!-- Moonstone&#45;&gt;Pouch_Dust_Moon -->
<g id="edge6" class="edge"><title>Moonstone&#45;&gt;Pouch_Dust_Moon</title>
<path fill="none" stroke="black" d="M428.352,-347.767C424.885,-337.371 419.295,-324.371 410.994,-315 406.378,-309.789 400.794,-305.133 394.924,-301.05"/>
<polygon fill="black" stroke="black" points="396.513,-297.911 386.201,-295.48 392.746,-303.812 396.513,-297.911"/>
<text text-anchor="middle" x="447.994" y="-318.8" font-family="Times New Roman,serif" font-size="14.00">Crafting 0</text>
</g>
<!-- Pouch_Dust_Star -->
<g id="node7" class="node"><title>Pouch_Dust_Star</title>
<ellipse fill="none" stroke="black" cx="174.994" cy="-279" rx="75.2868" ry="18"/>
<text text-anchor="middle" x="174.994" y="-275.3" font-family="Times New Roman,serif" font-size="14.00">Pouch_Dust_Star</text>
</g>
<!-- Pouch_Dust_Star&#45;&gt;Pouch_Dust_Pixie -->
<g id="edge7" class="edge"><title>Pouch_Dust_Star&#45;&gt;Pouch_Dust_Pixie</title>
<path fill="none" stroke="black" d="M202.456,-262.012C225.805,-248.418 259.504,-228.799 285.007,-213.951"/>
<polygon fill="black" stroke="black" points="286.775,-216.972 293.656,-208.916 283.253,-210.923 286.775,-216.972"/>
<text text-anchor="middle" x="284.994" y="-231.8" font-family="Times New Roman,serif" font-size="14.00">Crafting 0</text>
</g>
<!-- MortarPestle -->
<g id="node8" class="node"><title>MortarPestle</title>
<ellipse fill="none" stroke="black" cx="274.994" cy="-366" rx="57.3905" ry="18"/>
<text text-anchor="middle" x="274.994" y="-362.3" font-family="Times New Roman,serif" font-size="14.00">MortarPestle</text>
</g>
<!-- MortarPestle&#45;&gt;Pouch_Dust_Moon -->
<g id="edge15" class="edge"><title>MortarPestle&#45;&gt;Pouch_Dust_Moon</title>
<path fill="none" stroke="black" d="M271.053,-347.921C269.648,-337.583 269.717,-324.589 275.994,-315 280.358,-308.334 286.34,-302.918 293.046,-298.523"/>
<polygon fill="black" stroke="black" points="294.917,-301.484 301.862,-293.483 291.443,-295.407 294.917,-301.484"/>
<text text-anchor="middle" x="303.994" y="-318.8" font-family="Times New Roman,serif" font-size="14.00">Crafting 0</text>
</g>
<!-- MortarPestle&#45;&gt;Pouch_Dust_Bone -->
<g id="edge13" class="edge"><title>MortarPestle&#45;&gt;Pouch_Dust_Bone</title>
<path fill="none" stroke="black" d="M300.943,-349.948C310.828,-343.986 322.092,-336.913 331.994,-330 340.816,-323.841 341.211,-319.477 350.994,-315 351.674,-314.689 412.883,-302.947 464.125,-293.149"/>
<polygon fill="black" stroke="black" points="465.054,-296.535 474.219,-291.219 463.74,-289.659 465.054,-296.535"/>
<text text-anchor="middle" x="378.994" y="-318.8" font-family="Times New Roman,serif" font-size="14.00">Crafting 0</text>
</g>
<!-- MortarPestle&#45;&gt;Pouch_Dust_Star -->
<g id="edge14" class="edge"><title>MortarPestle&#45;&gt;Pouch_Dust_Star</title>
<path fill="none" stroke="black" d="M242.907,-351.021C232.09,-345.416 220.39,-338.301 210.994,-330 203.141,-323.062 196.026,-314.111 190.235,-305.705"/>
<polygon fill="black" stroke="black" points="193.106,-303.701 184.703,-297.249 187.248,-307.533 193.106,-303.701"/>
<text text-anchor="middle" x="238.994" y="-318.8" font-family="Times New Roman,serif" font-size="14.00">Crafting 0</text>
</g>
<!-- Skull_Human -->
<g id="node9" class="node"><title>Skull_Human</title>
<ellipse fill="none" stroke="black" cx="640.994" cy="-366" rx="59.5901" ry="18"/>
<text text-anchor="middle" x="640.994" y="-362.3" font-family="Times New Roman,serif" font-size="14.00">Skull_Human</text>
</g>
<!-- Skull_Human&#45;&gt;Pouch_Dust_Bone -->
<g id="edge9" class="edge"><title>Skull_Human&#45;&gt;Pouch_Dust_Bone</title>
<path fill="none" stroke="black" d="M626.903,-348.087C617.846,-337.812 605.474,-324.825 592.994,-315 586.665,-310.017 579.554,-305.252 572.5,-300.929"/>
<polygon fill="black" stroke="black" points="574.048,-297.779 563.658,-295.709 570.489,-303.807 574.048,-297.779"/>
<text text-anchor="middle" x="635.994" y="-318.8" font-family="Times New Roman,serif" font-size="14.00">Crafting 0</text>
</g>
<!-- Tusk -->
<g id="node10" class="node"><title>Tusk</title>
<ellipse fill="none" stroke="black" cx="187.994" cy="-192" rx="29.4969" ry="18"/>
<text text-anchor="middle" x="187.994" y="-188.3" font-family="Times New Roman,serif" font-size="14.00">Tusk</text>
</g>
<!-- Tusk&#45;&gt;Tusk_A_Magic -->
<g id="edge10" class="edge"><title>Tusk&#45;&gt;Tusk_A_Magic</title>
<path fill="none" stroke="black" d="M187.994,-173.799C187.994,-162.163 187.994,-146.548 187.994,-133.237"/>
<polygon fill="black" stroke="black" points="191.494,-133.175 187.994,-123.175 184.494,-133.175 191.494,-133.175"/>
<text text-anchor="middle" x="215.994" y="-144.8" font-family="Times New Roman,serif" font-size="14.00">Crafting 1</text>
</g>
<!-- Herb_Stardust -->
<g id="node11" class="node"><title>Herb_Stardust</title>
<ellipse fill="none" stroke="black" cx="116.994" cy="-366" rx="63.8893" ry="18"/>
<text text-anchor="middle" x="116.994" y="-362.3" font-family="Times New Roman,serif" font-size="14.00">Herb_Stardust</text>
</g>
<!-- Herb_Stardust&#45;&gt;Pouch_Dust_Star -->
<g id="edge11" class="edge"><title>Herb_Stardust&#45;&gt;Pouch_Dust_Star</title>
<path fill="none" stroke="black" d="M113.406,-347.704C112.215,-337.535 112.385,-324.795 117.994,-315 121.137,-309.511 125.523,-304.773 130.481,-300.716"/>
<polygon fill="black" stroke="black" points="132.539,-303.547 138.646,-294.889 128.473,-297.849 132.539,-303.547"/>
<text text-anchor="middle" x="145.994" y="-318.8" font-family="Times New Roman,serif" font-size="14.00">Crafting 0</text>
</g>
<!-- Wool -->
<g id="node12" class="node"><title>Wool</title>
<ellipse fill="none" stroke="black" cx="49.9942" cy="-279" rx="31.3957" ry="18"/>
<text text-anchor="middle" x="49.9942" y="-275.3" font-family="Times New Roman,serif" font-size="14.00">Wool</text>
</g>
<!-- Yarn_A_Wool -->
<g id="node13" class="node"><title>Yarn_A_Wool</title>
<ellipse fill="none" stroke="black" cx="64.9942" cy="-192" rx="64.9885" ry="18"/>
<text text-anchor="middle" x="64.9942" y="-188.3" font-family="Times New Roman,serif" font-size="14.00">Yarn_A_Wool</text>
</g>
<!-- Wool&#45;&gt;Yarn_A_Wool -->
<g id="edge12" class="edge"><title>Wool&#45;&gt;Yarn_A_Wool</title>
<path fill="none" stroke="black" d="M53.0297,-260.799C55.0832,-249.163 57.8387,-233.548 60.1877,-220.237"/>
<polygon fill="black" stroke="black" points="63.6721,-220.632 61.9633,-210.175 56.7786,-219.415 63.6721,-220.632"/>
<text text-anchor="middle" x="86.9942" y="-231.8" font-family="Times New Roman,serif" font-size="14.00">Crafting 0</text>
</g>
<!-- Yarn_A_Wool&#45;&gt;Rope -->
<g id="edge4" class="edge"><title>Yarn_A_Wool&#45;&gt;Rope</title>
<path fill="none" stroke="black" d="M66.2084,-173.799C67.0298,-162.163 68.132,-146.548 69.0716,-133.237"/>
<polygon fill="black" stroke="black" points="72.5689,-133.397 69.7818,-123.175 65.5863,-132.904 72.5689,-133.397"/>
<text text-anchor="middle" x="96.9942" y="-144.8" font-family="Times New Roman,serif" font-size="14.00">Crafting 0</text>
</g>
<!-- Bone -->
<g id="node14" class="node"><title>Bone</title>
<ellipse fill="none" stroke="black" cx="532.994" cy="-366" rx="29.795" ry="18"/>
<text text-anchor="middle" x="532.994" y="-362.3" font-family="Times New Roman,serif" font-size="14.00">Bone</text>
</g>
<!-- Bone&#45;&gt;Pouch_Dust_Bone -->
<g id="edge8" class="edge"><title>Bone&#45;&gt;Pouch_Dust_Bone</title>
<path fill="none" stroke="black" d="M532.994,-347.799C532.994,-336.163 532.994,-320.548 532.994,-307.237"/>
<polygon fill="black" stroke="black" points="536.494,-307.175 532.994,-297.175 529.494,-307.175 536.494,-307.175"/>
<text text-anchor="middle" x="560.994" y="-318.8" font-family="Times New Roman,serif" font-size="14.00">Crafting 0</text>
</g>
<!-- Tusk_A_Magic&#45;&gt;Tusk_MagicBelt -->
<g id="edge2" class="edge"><title>Tusk_A_Magic&#45;&gt;Tusk_MagicBelt</title>
<path fill="none" stroke="black" d="M177.326,-87.2067C169.61,-75.0621 159.045,-58.4315 150.278,-44.6326"/>
<polygon fill="black" stroke="black" points="153.142,-42.6132 144.826,-36.0493 147.234,-46.3669 153.142,-42.6132"/>
<text text-anchor="middle" x="192.994" y="-57.8" font-family="Times New Roman,serif" font-size="14.00">Crafting 1</text>
</g>
</g>
</svg>
