<?xml version="1.0" encoding="UTF-8" standalone="no"?>
<!DOCTYPE svg PUBLIC "-//W3C//DTD SVG 1.1//EN"
 "http://www.w3.org/Graphics/SVG/1.1/DTD/svg11.dtd">
<!-- Generated by graphviz version 2.38.0 (20140413.2041)
 -->
<!-- Title: G Pages: 1 -->
<svg width="302pt" height="149pt"
 viewBox="0.00 0.00 302.44 148.74" xmlns="http://www.w3.org/2000/svg" xmlns:xlink="http://www.w3.org/1999/xlink">
<g id="graph0" class="graph" transform="scale(1 1) rotate(0) translate(4 144.74)">
<title>G</title>
<polygon fill="white" stroke="none" points="-4,4 -4,-144.74 298.438,-144.74 298.438,4 -4,4"/>
<!-- TwoHandedAxe
+ Small_WaterDamage -->
<g id="node1" class="node"><title>TwoHandedAxe
+ Small_WaterDamage</title>
<ellipse fill="none" stroke="black" cx="148.844" cy="-26.8701" rx="103.476" ry="26.7407"/>
<text text-anchor="middle" x="148.844" y="-30.6701" font-family="Times New Roman,serif" font-size="14.00">TwoHandedAxe</text>
<text text-anchor="middle" x="148.844" y="-15.6701" font-family="Times New Roman,serif" font-size="14.00">+ Small_WaterDamage</text>
</g>
<!-- TwoHandedAxe -->
<g id="node2" class="node"><title>TwoHandedAxe</title>
<ellipse fill="none" stroke="black" cx="70.8437" cy="-122.74" rx="70.6878" ry="18"/>
<text text-anchor="middle" x="70.8437" y="-119.04" font-family="Times New Roman,serif" font-size="14.00">TwoHandedAxe</text>
</g>
<!-- TwoHandedAxe&#45;&gt;TwoHandedAxe
+ Small_WaterDamage -->
<g id="edge1" class="edge"><title>TwoHandedAxe&#45;&gt;TwoHandedAxe
+ Small_WaterDamage</title>
<path fill="none" stroke="black" d="M84.7886,-104.958C94.8451,-92.8553 108.756,-76.1139 121.046,-61.324"/>
<polygon fill="black" stroke="black" points="123.972,-63.2782 127.672,-53.35 118.589,-58.8045 123.972,-63.2782"/>
<text text-anchor="middle" x="140.844" y="-75.5401" font-family="Times New Roman,serif" font-size="14.00">Crafting 5</text>
</g>
<!-- Essence_Water -->
<g id="node3" class="node"><title>Essence_Water</title>
<ellipse fill="none" stroke="black" cx="226.844" cy="-122.74" rx="67.6881" ry="18"/>
<text text-anchor="middle" x="226.844" y="-119.04" font-family="Times New Roman,serif" font-size="14.00">Essence_Water</text>
</g>
<!-- Essence_Water&#45;&gt;TwoHandedAxe
+ Small_WaterDamage -->
<g id="edge2" class="edge"><title>Essence_Water&#45;&gt;TwoHandedAxe
+ Small_WaterDamage</title>
<path fill="none" stroke="black" d="M212.899,-104.958C202.842,-92.8553 188.931,-76.1139 176.642,-61.324"/>
<polygon fill="black" stroke="black" points="179.099,-58.8045 170.016,-53.35 173.715,-63.2782 179.099,-58.8045"/>
<text text-anchor="middle" x="224.844" y="-75.5401" font-family="Times New Roman,serif" font-size="14.00">Crafting 5</text>
</g>
</g>
</svg>
