<?xml version="1.0" encoding="UTF-8" standalone="no"?>
<!DOCTYPE svg PUBLIC "-//W3C//DTD SVG 1.1//EN"
 "http://www.w3.org/Graphics/SVG/1.1/DTD/svg11.dtd">
<!-- Generated by graphviz version 2.38.0 (20140413.2041)
 -->
<!-- Title: G Pages: 1 -->
<svg width="352pt" height="218pt"
 viewBox="0.00 0.00 352.14 218.00" xmlns="http://www.w3.org/2000/svg" xmlns:xlink="http://www.w3.org/1999/xlink">
<g id="graph0" class="graph" transform="scale(1 1) rotate(0) translate(4 214)">
<title>G</title>
<polygon fill="white" stroke="none" points="-4,4 -4,-214 348.136,-214 348.136,4 -4,4"/>
<!-- Herb_Augmentor -->
<g id="node1" class="node"><title>Herb_Augmentor</title>
<ellipse fill="none" stroke="black" cx="74.0934" cy="-192" rx="74.187" ry="18"/>
<text text-anchor="middle" x="74.0934" y="-188.3" font-family="Times New Roman,serif" font-size="14.00">Herb_Augmentor</text>
</g>
<!-- Medium_Speed_Potion -->
<g id="node3" class="node"><title>Medium_Speed_Potion</title>
<ellipse fill="none" stroke="black" cx="245.093" cy="-105" rx="96.6831" ry="18"/>
<text text-anchor="middle" x="245.093" y="-101.3" font-family="Times New Roman,serif" font-size="14.00">Medium_Speed_Potion</text>
</g>
<!-- Herb_Augmentor&#45;&gt;Medium_Speed_Potion -->
<g id="edge1" class="edge"><title>Herb_Augmentor&#45;&gt;Medium_Speed_Potion</title>
<path fill="none" stroke="black" d="M105.06,-175.607C132.71,-161.863 173.418,-141.628 203.825,-126.514"/>
<polygon fill="black" stroke="black" points="205.509,-129.585 212.905,-122 202.393,-123.317 205.509,-129.585"/>
<text text-anchor="middle" x="198.093" y="-144.8" font-family="Times New Roman,serif" font-size="14.00">Crafting 4</text>
</g>
<!-- Large_Speed_Potion -->
<g id="node4" class="node"><title>Large_Speed_Potion</title>
<ellipse fill="none" stroke="black" cx="125.093" cy="-18" rx="87.9851" ry="18"/>
<text text-anchor="middle" x="125.093" y="-14.3" font-family="Times New Roman,serif" font-size="14.00">Large_Speed_Potion</text>
</g>
<!-- Herb_Augmentor&#45;&gt;Large_Speed_Potion -->
<g id="edge2" class="edge"><title>Herb_Augmentor&#45;&gt;Large_Speed_Potion</title>
<path fill="none" stroke="black" d="M73.1888,-173.947C72.6079,-152.939 73.3505,-116.419 83.0934,-87 88.1132,-71.8426 97.1061,-56.5725 105.486,-44.3535"/>
<polygon fill="black" stroke="black" points="108.458,-46.2146 111.414,-36.0406 102.758,-42.1503 108.458,-46.2146"/>
<text text-anchor="middle" x="111.093" y="-101.3" font-family="Times New Roman,serif" font-size="14.00">Crafting 5</text>
</g>
<!-- Minor_Speed_Potion -->
<g id="node2" class="node"><title>Minor_Speed_Potion</title>
<ellipse fill="none" stroke="black" cx="255.093" cy="-192" rx="89.0842" ry="18"/>
<text text-anchor="middle" x="255.093" y="-188.3" font-family="Times New Roman,serif" font-size="14.00">Minor_Speed_Potion</text>
</g>
<!-- Minor_Speed_Potion&#45;&gt;Medium_Speed_Potion -->
<g id="edge3" class="edge"><title>Minor_Speed_Potion&#45;&gt;Medium_Speed_Potion</title>
<path fill="none" stroke="black" d="M253.07,-173.799C251.701,-162.163 249.864,-146.548 248.298,-133.237"/>
<polygon fill="black" stroke="black" points="251.759,-132.698 247.114,-123.175 244.807,-133.516 251.759,-132.698"/>
<text text-anchor="middle" x="279.093" y="-144.8" font-family="Times New Roman,serif" font-size="14.00">Crafting 4</text>
</g>
<!-- Medium_Speed_Potion&#45;&gt;Large_Speed_Potion -->
<g id="edge4" class="edge"><title>Medium_Speed_Potion&#45;&gt;Large_Speed_Potion</title>
<path fill="none" stroke="black" d="M221.671,-87.4094C203.17,-74.3043 177.165,-55.8844 156.801,-41.4593"/>
<polygon fill="black" stroke="black" points="158.64,-38.4729 148.456,-35.5488 154.594,-44.1851 158.64,-38.4729"/>
<text text-anchor="middle" x="221.093" y="-57.8" font-family="Times New Roman,serif" font-size="14.00">Crafting 5</text>
</g>
</g>
</svg>
