<?xml version="1.0" encoding="UTF-8" standalone="no"?>
<!DOCTYPE svg PUBLIC "-//W3C//DTD SVG 1.1//EN"
 "http://www.w3.org/Graphics/SVG/1.1/DTD/svg11.dtd">
<!-- Generated by graphviz version 2.38.0 (20140413.2041)
 -->
<!-- Title: G Pages: 1 -->
<svg width="802pt" height="410pt"
 viewBox="0.00 0.00 801.64 409.74" xmlns="http://www.w3.org/2000/svg" xmlns:xlink="http://www.w3.org/1999/xlink">
<g id="graph0" class="graph" transform="scale(1 1) rotate(0) translate(4 405.74)">
<title>G</title>
<polygon fill="white" stroke="none" points="-4,4 -4,-405.74 797.644,-405.74 797.644,4 -4,4"/>
<!-- Pouch_Dust_Pixie -->
<g id="node1" class="node"><title>Pouch_Dust_Pixie</title>
<ellipse fill="none" stroke="black" cx="302.747" cy="-209.74" rx="78.7863" ry="18"/>
<text text-anchor="middle" x="302.747" y="-206.04" font-family="Times New Roman,serif" font-size="14.00">Pouch_Dust_Pixie</text>
</g>
<!-- Needle_Thread_A_Magic -->
<g id="node8" class="node"><title>Needle_Thread_A_Magic</title>
<ellipse fill="none" stroke="black" cx="302.747" cy="-122.74" rx="104.782" ry="18"/>
<text text-anchor="middle" x="302.747" y="-119.04" font-family="Times New Roman,serif" font-size="14.00">Needle_Thread_A_Magic</text>
</g>
<!-- Pouch_Dust_Pixie&#45;&gt;Needle_Thread_A_Magic -->
<g id="edge1" class="edge"><title>Pouch_Dust_Pixie&#45;&gt;Needle_Thread_A_Magic</title>
<path fill="none" stroke="black" d="M302.747,-191.539C302.747,-179.903 302.747,-164.288 302.747,-150.977"/>
<polygon fill="black" stroke="black" points="306.247,-150.916 302.747,-140.916 299.247,-150.916 306.247,-150.916"/>
<text text-anchor="middle" x="330.747" y="-162.54" font-family="Times New Roman,serif" font-size="14.00">Crafting 1</text>
</g>
<!-- Dagger -->
<g id="node2" class="node"><title>Dagger</title>
<ellipse fill="none" stroke="black" cx="568.747" cy="-209.74" rx="36.2938" ry="18"/>
<text text-anchor="middle" x="568.747" y="-206.04" font-family="Times New Roman,serif" font-size="14.00">Dagger</text>
</g>
<!-- Scraps_Leather -->
<g id="node15" class="node"><title>Scraps_Leather</title>
<ellipse fill="none" stroke="black" cx="554.747" cy="-122.74" rx="67.6881" ry="18"/>
<text text-anchor="middle" x="554.747" y="-119.04" font-family="Times New Roman,serif" font-size="14.00">Scraps_Leather</text>
</g>
<!-- Dagger&#45;&gt;Scraps_Leather -->
<g id="edge5" class="edge"><title>Dagger&#45;&gt;Scraps_Leather</title>
<path fill="none" stroke="black" d="M565.914,-191.539C563.997,-179.903 561.425,-164.288 559.233,-150.977"/>
<polygon fill="black" stroke="black" points="562.654,-150.214 557.576,-140.916 555.747,-151.351 562.654,-150.214"/>
<text text-anchor="middle" x="590.747" y="-162.54" font-family="Times New Roman,serif" font-size="14.00">Crafting 1</text>
</g>
<!-- Needle_Thread -->
<g id="node3" class="node"><title>Needle_Thread</title>
<ellipse fill="none" stroke="black" cx="125.747" cy="-209.74" rx="66.0889" ry="18"/>
<text text-anchor="middle" x="125.747" y="-206.04" font-family="Times New Roman,serif" font-size="14.00">Needle_Thread</text>
</g>
<!-- Needle_Thread&#45;&gt;Needle_Thread_A_Magic -->
<g id="edge6" class="edge"><title>Needle_Thread&#45;&gt;Needle_Thread_A_Magic</title>
<path fill="none" stroke="black" d="M156.983,-193.739C185.617,-179.989 228.267,-159.507 260.044,-144.247"/>
<polygon fill="black" stroke="black" points="261.613,-147.376 269.112,-139.892 258.582,-141.066 261.613,-147.376"/>
<text text-anchor="middle" x="258.747" y="-162.54" font-family="Times New Roman,serif" font-size="14.00">Crafting 1</text>
</g>
<!-- Thread -->
<g id="node4" class="node"><title>Thread</title>
<ellipse fill="none" stroke="black" cx="125.747" cy="-296.74" rx="36.2938" ry="18"/>
<text text-anchor="middle" x="125.747" y="-293.04" font-family="Times New Roman,serif" font-size="14.00">Thread</text>
</g>
<!-- Thread&#45;&gt;Needle_Thread -->
<g id="edge7" class="edge"><title>Thread&#45;&gt;Needle_Thread</title>
<path fill="none" stroke="black" d="M125.747,-278.539C125.747,-266.903 125.747,-251.288 125.747,-237.977"/>
<polygon fill="black" stroke="black" points="129.247,-237.916 125.747,-227.916 122.247,-237.916 129.247,-237.916"/>
<text text-anchor="middle" x="153.747" y="-249.54" font-family="Times New Roman,serif" font-size="14.00">Crafting 0</text>
</g>
<!-- Leather_N_Torso
+ Small_Luck_Mod -->
<g id="node5" class="node"><title>Leather_N_Torso
+ Small_Luck_Mod</title>
<ellipse fill="none" stroke="black" cx="203.747" cy="-26.8701" rx="91.8478" ry="26.7407"/>
<text text-anchor="middle" x="203.747" y="-30.6701" font-family="Times New Roman,serif" font-size="14.00">Leather_N_Torso</text>
<text text-anchor="middle" x="203.747" y="-15.6701" font-family="Times New Roman,serif" font-size="14.00">+ Small_Luck_Mod</text>
</g>
<!-- Pouch_Dust_Bone -->
<g id="node6" class="node"><title>Pouch_Dust_Bone</title>
<ellipse fill="none" stroke="black" cx="640.747" cy="-296.74" rx="79.8859" ry="18"/>
<text text-anchor="middle" x="640.747" y="-293.04" font-family="Times New Roman,serif" font-size="14.00">Pouch_Dust_Bone</text>
</g>
<!-- Pouch_Dust_Bone&#45;&gt;Pouch_Dust_Pixie -->
<g id="edge8" class="edge"><title>Pouch_Dust_Bone&#45;&gt;Pouch_Dust_Pixie</title>
<path fill="none" stroke="black" d="M591.088,-282.525C552.362,-272.287 497.2,-257.856 448.747,-245.74 421.512,-238.93 391.351,-231.655 365.547,-225.512"/>
<polygon fill="black" stroke="black" points="366.057,-222.036 355.518,-223.129 364.438,-228.846 366.057,-222.036"/>
<text text-anchor="middle" x="535.747" y="-249.54" font-family="Times New Roman,serif" font-size="14.00">Crafting 0</text>
</g>
<!-- Needle -->
<g id="node7" class="node"><title>Needle</title>
<ellipse fill="none" stroke="black" cx="35.7468" cy="-296.74" rx="35.9954" ry="18"/>
<text text-anchor="middle" x="35.7468" y="-293.04" font-family="Times New Roman,serif" font-size="14.00">Needle</text>
</g>
<!-- Needle&#45;&gt;Needle_Thread -->
<g id="edge9" class="edge"><title>Needle&#45;&gt;Needle_Thread</title>
<path fill="none" stroke="black" d="M43.1174,-278.992C48.3286,-268.525 56.0959,-255.273 65.7468,-245.74 71.3572,-240.199 78.0162,-235.204 84.822,-230.84"/>
<polygon fill="black" stroke="black" points="86.6842,-233.804 93.4533,-225.653 83.079,-227.804 86.6842,-233.804"/>
<text text-anchor="middle" x="93.7468" y="-249.54" font-family="Times New Roman,serif" font-size="14.00">Crafting 0</text>
</g>
<!-- Needle_Thread_A_Magic&#45;&gt;Leather_N_Torso
+ Small_Luck_Mod -->
<g id="edge11" class="edge"><title>Needle_Thread_A_Magic&#45;&gt;Leather_N_Torso
+ Small_Luck_Mod</title>
<path fill="none" stroke="black" d="M254.17,-106.653C243.763,-101.634 233.562,-95.1136 225.747,-86.7401 219.647,-80.2043 215.198,-71.8214 211.968,-63.4434"/>
<polygon fill="black" stroke="black" points="215.207,-62.0914 208.711,-53.7215 208.569,-64.3154 215.207,-62.0914"/>
<text text-anchor="middle" x="253.747" y="-75.5401" font-family="Times New Roman,serif" font-size="14.00">Crafting 5</text>
</g>
<!-- Leather_N_Torso
+ Small_ArmorDefense -->
<g id="node9" class="node"><title>Leather_N_Torso
+ Small_ArmorDefense</title>
<ellipse fill="none" stroke="black" cx="634.747" cy="-26.8701" rx="105.218" ry="26.7407"/>
<text text-anchor="middle" x="634.747" y="-30.6701" font-family="Times New Roman,serif" font-size="14.00">Leather_N_Torso</text>
<text text-anchor="middle" x="634.747" y="-15.6701" font-family="Times New Roman,serif" font-size="14.00">+ Small_ArmorDefense</text>
</g>
<!-- Needle_Thread_A_Magic&#45;&gt;Leather_N_Torso
+ Small_ArmorDefense -->
<g id="edge12" class="edge"><title>Needle_Thread_A_Magic&#45;&gt;Leather_N_Torso
+ Small_ArmorDefense</title>
<path fill="none" stroke="black" d="M375.973,-109.772C398.978,-104.459 424.028,-97.012 445.747,-86.7401 455.791,-81.9897 455.736,-76.5605 465.747,-71.7401 480.724,-64.5287 513.886,-55.4444 546.903,-47.4155"/>
<polygon fill="black" stroke="black" points="547.753,-50.811 556.659,-45.0716 546.118,-44.0047 547.753,-50.811"/>
<text text-anchor="middle" x="493.747" y="-75.5401" font-family="Times New Roman,serif" font-size="14.00">Crafting 5</text>
</g>
<!-- Leather_N_Torso
+ Small_Vitality_Mod -->
<g id="node16" class="node"><title>Leather_N_Torso
+ Small_Vitality_Mod</title>
<ellipse fill="none" stroke="black" cx="412.747" cy="-26.8701" rx="98.9899" ry="26.7407"/>
<text text-anchor="middle" x="412.747" y="-30.6701" font-family="Times New Roman,serif" font-size="14.00">Leather_N_Torso</text>
<text text-anchor="middle" x="412.747" y="-15.6701" font-family="Times New Roman,serif" font-size="14.00">+ Small_Vitality_Mod</text>
</g>
<!-- Needle_Thread_A_Magic&#45;&gt;Leather_N_Torso
+ Small_Vitality_Mod -->
<g id="edge10" class="edge"><title>Needle_Thread_A_Magic&#45;&gt;Leather_N_Torso
+ Small_Vitality_Mod</title>
<path fill="none" stroke="black" d="M300.719,-104.4C300.426,-93.9639 301.804,-80.9585 308.747,-71.7401 315.246,-63.1113 323.768,-56.1645 333.141,-50.5753"/>
<polygon fill="black" stroke="black" points="334.819,-53.6468 341.954,-45.8148 331.492,-47.4879 334.819,-53.6468"/>
<text text-anchor="middle" x="336.747" y="-75.5401" font-family="Times New Roman,serif" font-size="14.00">Crafting 5</text>
</g>
<!-- Hair -->
<g id="node10" class="node"><title>Hair</title>
<ellipse fill="none" stroke="black" cx="116.747" cy="-383.74" rx="27" ry="18"/>
<text text-anchor="middle" x="116.747" y="-380.04" font-family="Times New Roman,serif" font-size="14.00">Hair</text>
</g>
<!-- Hair&#45;&gt;Thread -->
<g id="edge13" class="edge"><title>Hair&#45;&gt;Thread</title>
<path fill="none" stroke="black" d="M118.568,-365.539C119.8,-353.903 121.454,-338.288 122.863,-324.977"/>
<polygon fill="black" stroke="black" points="126.356,-325.229 123.928,-314.916 119.395,-324.491 126.356,-325.229"/>
<text text-anchor="middle" x="150.747" y="-336.54" font-family="Times New Roman,serif" font-size="14.00">Crafting 0</text>
</g>
<!-- Knife -->
<g id="node11" class="node"><title>Knife</title>
<ellipse fill="none" stroke="black" cx="653.747" cy="-209.74" rx="30.5947" ry="18"/>
<text text-anchor="middle" x="653.747" y="-206.04" font-family="Times New Roman,serif" font-size="14.00">Knife</text>
</g>
<!-- Knife&#45;&gt;Scraps_Leather -->
<g id="edge23" class="edge"><title>Knife&#45;&gt;Scraps_Leather</title>
<path fill="none" stroke="black" d="M646.187,-191.823C640.824,-181.289 632.802,-168.025 622.747,-158.74 616.155,-152.654 608.306,-147.342 600.322,-142.82"/>
<polygon fill="black" stroke="black" points="601.786,-139.635 591.311,-138.051 598.512,-145.822 601.786,-139.635"/>
<text text-anchor="middle" x="663.747" y="-162.54" font-family="Times New Roman,serif" font-size="14.00">Crafting 1</text>
</g>
<!-- Moonstone -->
<g id="node12" class="node"><title>Moonstone</title>
<ellipse fill="none" stroke="black" cx="525.747" cy="-383.74" rx="51.9908" ry="18"/>
<text text-anchor="middle" x="525.747" y="-380.04" font-family="Times New Roman,serif" font-size="14.00">Moonstone</text>
</g>
<!-- Pouch_Dust_Moon -->
<g id="node21" class="node"><title>Pouch_Dust_Moon</title>
<ellipse fill="none" stroke="black" cx="455.747" cy="-296.74" rx="83.3857" ry="18"/>
<text text-anchor="middle" x="455.747" y="-293.04" font-family="Times New Roman,serif" font-size="14.00">Pouch_Dust_Moon</text>
</g>
<!-- Moonstone&#45;&gt;Pouch_Dust_Moon -->
<g id="edge14" class="edge"><title>Moonstone&#45;&gt;Pouch_Dust_Moon</title>
<path fill="none" stroke="black" d="M527.44,-365.639C527.607,-355.293 526.214,-342.298 519.747,-332.74 515.884,-327.032 510.772,-322.169 505.115,-318.05"/>
<polygon fill="black" stroke="black" points="506.827,-314.99 496.521,-312.535 503.047,-320.882 506.827,-314.99"/>
<text text-anchor="middle" x="554.747" y="-336.54" font-family="Times New Roman,serif" font-size="14.00">Crafting 0</text>
</g>
<!-- Pouch_Dust_Star -->
<g id="node13" class="node"><title>Pouch_Dust_Star</title>
<ellipse fill="none" stroke="black" cx="278.747" cy="-296.74" rx="75.2868" ry="18"/>
<text text-anchor="middle" x="278.747" y="-293.04" font-family="Times New Roman,serif" font-size="14.00">Pouch_Dust_Star</text>
</g>
<!-- Pouch_Dust_Star&#45;&gt;Pouch_Dust_Pixie -->
<g id="edge20" class="edge"><title>Pouch_Dust_Star&#45;&gt;Pouch_Dust_Pixie</title>
<path fill="none" stroke="black" d="M283.604,-278.539C286.922,-266.787 291.385,-250.978 295.168,-237.582"/>
<polygon fill="black" stroke="black" points="298.548,-238.49 297.897,-227.916 291.812,-236.588 298.548,-238.49"/>
<text text-anchor="middle" x="321.747" y="-249.54" font-family="Times New Roman,serif" font-size="14.00">Crafting 0</text>
</g>
<!-- Bone -->
<g id="node14" class="node"><title>Bone</title>
<ellipse fill="none" stroke="black" cx="763.747" cy="-383.74" rx="29.795" ry="18"/>
<text text-anchor="middle" x="763.747" y="-380.04" font-family="Times New Roman,serif" font-size="14.00">Bone</text>
</g>
<!-- Bone&#45;&gt;Pouch_Dust_Bone -->
<g id="edge15" class="edge"><title>Bone&#45;&gt;Pouch_Dust_Bone</title>
<path fill="none" stroke="black" d="M749.575,-367.541C739.2,-356.956 724.427,-342.961 709.747,-332.74 701.975,-327.329 693.251,-322.244 684.689,-317.716"/>
<polygon fill="black" stroke="black" points="686.011,-314.461 675.513,-313.032 682.828,-320.696 686.011,-314.461"/>
<text text-anchor="middle" x="754.747" y="-336.54" font-family="Times New Roman,serif" font-size="14.00">Crafting 0</text>
</g>
<!-- Scraps_Leather&#45;&gt;Leather_N_Torso
+ Small_Luck_Mod -->
<g id="edge17" class="edge"><title>Scraps_Leather&#45;&gt;Leather_N_Torso
+ Small_Luck_Mod</title>
<path fill="none" stroke="black" d="M493.04,-115.233C460.175,-110.233 419.651,-101.566 385.747,-86.7401 375.238,-82.1447 375.109,-76.6581 364.747,-71.7401 356.638,-67.8916 318.652,-57.4887 281.614,-47.779"/>
<polygon fill="black" stroke="black" points="282.29,-44.3381 271.73,-45.1977 280.521,-51.1109 282.29,-44.3381"/>
<text text-anchor="middle" x="413.747" y="-75.5401" font-family="Times New Roman,serif" font-size="14.00">Crafting 5</text>
</g>
<!-- Scraps_Leather&#45;&gt;Leather_N_Torso
+ Small_ArmorDefense -->
<g id="edge18" class="edge"><title>Scraps_Leather&#45;&gt;Leather_N_Torso
+ Small_ArmorDefense</title>
<path fill="none" stroke="black" d="M584.279,-106.359C592.632,-100.984 601.217,-94.359 607.747,-86.7401 613.701,-79.7927 618.598,-71.3137 622.509,-62.9788"/>
<polygon fill="black" stroke="black" points="625.756,-64.2871 626.508,-53.719 619.33,-61.5116 625.756,-64.2871"/>
<text text-anchor="middle" x="646.747" y="-75.5401" font-family="Times New Roman,serif" font-size="14.00">Crafting 5</text>
</g>
<!-- Scraps_Leather&#45;&gt;Leather_N_Torso
+ Small_Vitality_Mod -->
<g id="edge16" class="edge"><title>Scraps_Leather&#45;&gt;Leather_N_Torso
+ Small_Vitality_Mod</title>
<path fill="none" stroke="black" d="M548.227,-104.453C543.431,-93.772 535.964,-80.4824 525.747,-71.7401 515.617,-63.0724 503.58,-56.008 491.202,-50.2843"/>
<polygon fill="black" stroke="black" points="492.262,-46.9292 481.694,-46.1643 489.478,-53.352 492.262,-46.9292"/>
<text text-anchor="middle" x="566.747" y="-75.5401" font-family="Times New Roman,serif" font-size="14.00">Crafting 5</text>
</g>
<!-- Herb_Stardust -->
<g id="node17" class="node"><title>Herb_Stardust</title>
<ellipse fill="none" stroke="black" cx="225.747" cy="-383.74" rx="63.8893" ry="18"/>
<text text-anchor="middle" x="225.747" y="-380.04" font-family="Times New Roman,serif" font-size="14.00">Herb_Stardust</text>
</g>
<!-- Herb_Stardust&#45;&gt;Pouch_Dust_Star -->
<g id="edge19" class="edge"><title>Herb_Stardust&#45;&gt;Pouch_Dust_Star</title>
<path fill="none" stroke="black" d="M222.308,-365.528C221.17,-355.389 221.344,-342.65 226.747,-332.74 229.482,-327.724 233.282,-323.293 237.595,-319.419"/>
<polygon fill="black" stroke="black" points="240.052,-321.943 245.795,-313.039 235.753,-316.418 240.052,-321.943"/>
<text text-anchor="middle" x="254.747" y="-336.54" font-family="Times New Roman,serif" font-size="14.00">Crafting 0</text>
</g>
<!-- Hide_Animal -->
<g id="node18" class="node"><title>Hide_Animal</title>
<ellipse fill="none" stroke="black" cx="456.747" cy="-209.74" rx="57.6901" ry="18"/>
<text text-anchor="middle" x="456.747" y="-206.04" font-family="Times New Roman,serif" font-size="14.00">Hide_Animal</text>
</g>
<!-- Hide_Animal&#45;&gt;Scraps_Leather -->
<g id="edge21" class="edge"><title>Hide_Animal&#45;&gt;Scraps_Leather</title>
<path fill="none" stroke="black" d="M469.583,-191.932C477.856,-181.695 489.193,-168.714 500.747,-158.74 506.387,-153.872 512.752,-149.165 519.083,-144.865"/>
<polygon fill="black" stroke="black" points="521.171,-147.682 527.623,-139.278 517.339,-141.824 521.171,-147.682"/>
<text text-anchor="middle" x="528.747" y="-162.54" font-family="Times New Roman,serif" font-size="14.00">Crafting 1</text>
</g>
<!-- Skull_Human -->
<g id="node19" class="node"><title>Skull_Human</title>
<ellipse fill="none" stroke="black" cx="655.747" cy="-383.74" rx="59.5901" ry="18"/>
<text text-anchor="middle" x="655.747" y="-380.04" font-family="Times New Roman,serif" font-size="14.00">Skull_Human</text>
</g>
<!-- Skull_Human&#45;&gt;Pouch_Dust_Bone -->
<g id="edge22" class="edge"><title>Skull_Human&#45;&gt;Pouch_Dust_Bone</title>
<path fill="none" stroke="black" d="M652.711,-365.539C650.658,-353.903 647.902,-338.288 645.553,-324.977"/>
<polygon fill="black" stroke="black" points="648.962,-324.155 643.778,-314.916 642.069,-325.372 648.962,-324.155"/>
<text text-anchor="middle" x="677.747" y="-336.54" font-family="Times New Roman,serif" font-size="14.00">Crafting 0</text>
</g>
<!-- MortarPestle -->
<g id="node20" class="node"><title>MortarPestle</title>
<ellipse fill="none" stroke="black" cx="383.747" cy="-383.74" rx="57.3905" ry="18"/>
<text text-anchor="middle" x="383.747" y="-380.04" font-family="Times New Roman,serif" font-size="14.00">MortarPestle</text>
</g>
<!-- MortarPestle&#45;&gt;Pouch_Dust_Bone -->
<g id="edge2" class="edge"><title>MortarPestle&#45;&gt;Pouch_Dust_Bone</title>
<path fill="none" stroke="black" d="M409.696,-367.688C419.58,-361.726 430.844,-354.654 440.747,-347.74 449.568,-341.581 449.966,-337.222 459.747,-332.74 465.004,-330.331 522.026,-319.485 570.682,-310.497"/>
<polygon fill="black" stroke="black" points="571.4,-313.924 580.6,-308.669 570.131,-307.039 571.4,-313.924"/>
<text text-anchor="middle" x="489.747" y="-336.54" font-family="Times New Roman,serif" font-size="14.00">Crafting 0</text>
</g>
<!-- MortarPestle&#45;&gt;Pouch_Dust_Star -->
<g id="edge3" class="edge"><title>MortarPestle&#45;&gt;Pouch_Dust_Star</title>
<path fill="none" stroke="black" d="M352.829,-368.458C342.124,-362.783 330.4,-355.701 320.747,-347.74 311.998,-340.525 303.674,-331.314 296.778,-322.769"/>
<polygon fill="black" stroke="black" points="299.537,-320.615 290.637,-314.867 294.01,-324.911 299.537,-320.615"/>
<text text-anchor="middle" x="348.747" y="-336.54" font-family="Times New Roman,serif" font-size="14.00">Crafting 0</text>
</g>
<!-- MortarPestle&#45;&gt;Pouch_Dust_Moon -->
<g id="edge4" class="edge"><title>MortarPestle&#45;&gt;Pouch_Dust_Moon</title>
<path fill="none" stroke="black" d="M379.895,-365.719C378.523,-355.402 378.597,-342.411 384.747,-332.74 388.701,-326.521 394.114,-321.372 400.202,-317.117"/>
<polygon fill="black" stroke="black" points="402.126,-320.044 408.847,-311.853 398.485,-314.065 402.126,-320.044"/>
<text text-anchor="middle" x="412.747" y="-336.54" font-family="Times New Roman,serif" font-size="14.00">Crafting 0</text>
</g>
<!-- Pouch_Dust_Moon&#45;&gt;Pouch_Dust_Pixie -->
<g id="edge24" class="edge"><title>Pouch_Dust_Moon&#45;&gt;Pouch_Dust_Pixie</title>
<path fill="none" stroke="black" d="M426.969,-279.752C402.5,-266.158 367.185,-246.539 340.459,-231.691"/>
<polygon fill="black" stroke="black" points="341.837,-228.453 331.396,-226.656 338.438,-234.572 341.837,-228.453"/>
<text text-anchor="middle" x="416.747" y="-249.54" font-family="Times New Roman,serif" font-size="14.00">Crafting 0</text>
</g>
</g>
</svg>
