<?xml version="1.0" encoding="UTF-8" standalone="no"?>
<!DOCTYPE svg PUBLIC "-//W3C//DTD SVG 1.1//EN"
 "http://www.w3.org/Graphics/SVG/1.1/DTD/svg11.dtd">
<!-- Generated by graphviz version 2.38.0 (20140413.2041)
 -->
<!-- Title: G Pages: 1 -->
<svg width="596pt" height="305pt"
 viewBox="0.00 0.00 595.69 305.00" xmlns="http://www.w3.org/2000/svg" xmlns:xlink="http://www.w3.org/1999/xlink">
<g id="graph0" class="graph" transform="scale(1 1) rotate(0) translate(4 301)">
<title>G</title>
<polygon fill="white" stroke="none" points="-4,4 -4,-301 591.69,-301 591.69,4 -4,4"/>
<!-- OreBar_A_Iron_A_Large -->
<g id="node1" class="node"><title>OreBar_A_Iron_A_Large</title>
<ellipse fill="none" stroke="black" cx="197.593" cy="-105" rx="104.782" ry="18"/>
<text text-anchor="middle" x="197.593" y="-101.3" font-family="Times New Roman,serif" font-size="14.00">OreBar_A_Iron_A_Large</text>
</g>
<!-- HeadingSword2H_B -->
<g id="node7" class="node"><title>HeadingSword2H_B</title>
<ellipse fill="none" stroke="black" cx="102.593" cy="-18" rx="86.3847" ry="18"/>
<text text-anchor="middle" x="102.593" y="-14.3" font-family="Times New Roman,serif" font-size="14.00">HeadingSword2H_B</text>
</g>
<!-- OreBar_A_Iron_A_Large&#45;&gt;HeadingSword2H_B -->
<g id="edge1" class="edge"><title>OreBar_A_Iron_A_Large&#45;&gt;HeadingSword2H_B</title>
<path fill="none" stroke="black" d="M178.824,-87.2067C164.641,-74.517 144.985,-56.9297 129.184,-42.7925"/>
<polygon fill="black" stroke="black" points="131.109,-39.818 121.323,-35.7584 126.441,-45.0347 131.109,-39.818"/>
<text text-anchor="middle" x="184.593" y="-57.8" font-family="Times New Roman,serif" font-size="14.00">Crafting 4</text>
</g>
<!-- Sword -->
<g id="node2" class="node"><title>Sword</title>
<ellipse fill="none" stroke="black" cx="552.593" cy="-279" rx="35.194" ry="18"/>
<text text-anchor="middle" x="552.593" y="-275.3" font-family="Times New Roman,serif" font-size="14.00">Sword</text>
</g>
<!-- OreBar_A_Iron -->
<g id="node6" class="node"><title>OreBar_A_Iron</title>
<ellipse fill="none" stroke="black" cx="339.593" cy="-192" rx="68.4888" ry="18"/>
<text text-anchor="middle" x="339.593" y="-188.3" font-family="Times New Roman,serif" font-size="14.00">OreBar_A_Iron</text>
</g>
<!-- Sword&#45;&gt;OreBar_A_Iron -->
<g id="edge6" class="edge"><title>Sword&#45;&gt;OreBar_A_Iron</title>
<path fill="none" stroke="black" d="M531.466,-264.432C513.655,-253.447 487.204,-238.179 462.593,-228 442.405,-219.651 419.564,-212.549 399.093,-206.969"/>
<polygon fill="black" stroke="black" points="399.819,-203.541 389.255,-204.353 398.02,-210.306 399.819,-203.541"/>
<text text-anchor="middle" x="520.593" y="-231.8" font-family="Times New Roman,serif" font-size="14.00">Crafting 1</text>
</g>
<!-- TwoHandedSword -->
<g id="node3" class="node"><title>TwoHandedSword</title>
<ellipse fill="none" stroke="black" cx="80.5928" cy="-192" rx="80.6858" ry="18"/>
<text text-anchor="middle" x="80.5928" y="-188.3" font-family="Times New Roman,serif" font-size="14.00">TwoHandedSword</text>
</g>
<!-- TwoHandedSword&#45;&gt;OreBar_A_Iron_A_Large -->
<g id="edge3" class="edge"><title>TwoHandedSword&#45;&gt;OreBar_A_Iron_A_Large</title>
<path fill="none" stroke="black" d="M94.1133,-173.782C102.877,-163.391 114.979,-150.391 127.593,-141 134.719,-135.694 142.772,-130.815 150.814,-126.491"/>
<polygon fill="black" stroke="black" points="152.544,-129.537 159.837,-121.852 149.344,-123.312 152.544,-129.537"/>
<text text-anchor="middle" x="155.593" y="-144.8" font-family="Times New Roman,serif" font-size="14.00">Crafting 1</text>
</g>
<!-- Anvil -->
<g id="node4" class="node"><title>Anvil</title>
<ellipse fill="none" stroke="black" cx="44.5928" cy="-105" rx="29.795" ry="18"/>
<text text-anchor="middle" x="44.5928" y="-101.3" font-family="Times New Roman,serif" font-size="14.00">Anvil</text>
</g>
<!-- Anvil&#45;&gt;HeadingSword2H_B -->
<g id="edge2" class="edge"><title>Anvil&#45;&gt;HeadingSword2H_B</title>
<path fill="none" stroke="black" d="M55.5022,-88.0122C63.872,-75.746 75.5893,-58.5742 85.2416,-44.4285"/>
<polygon fill="black" stroke="black" points="88.191,-46.3158 90.9363,-36.0828 82.4088,-42.3703 88.191,-46.3158"/>
<text text-anchor="middle" x="105.593" y="-57.8" font-family="Times New Roman,serif" font-size="14.00">Crafting 4</text>
</g>
<!-- Bone_A_Iron -->
<g id="node5" class="node"><title>Bone_A_Iron</title>
<ellipse fill="none" stroke="black" cx="308.593" cy="-279" rx="61.1893" ry="18"/>
<text text-anchor="middle" x="308.593" y="-275.3" font-family="Times New Roman,serif" font-size="14.00">Bone_A_Iron</text>
</g>
<!-- Bone_A_Iron&#45;&gt;OreBar_A_Iron -->
<g id="edge4" class="edge"><title>Bone_A_Iron&#45;&gt;OreBar_A_Iron</title>
<path fill="none" stroke="black" d="M314.866,-260.799C319.152,-249.047 324.918,-233.238 329.803,-219.842"/>
<polygon fill="black" stroke="black" points="333.191,-220.769 333.329,-210.175 326.614,-218.371 333.191,-220.769"/>
<text text-anchor="middle" x="353.593" y="-231.8" font-family="Times New Roman,serif" font-size="14.00">Crafting 0</text>
</g>
<!-- OreBar_A_Iron&#45;&gt;OreBar_A_Iron_A_Large -->
<g id="edge5" class="edge"><title>OreBar_A_Iron&#45;&gt;OreBar_A_Iron_A_Large</title>
<path fill="none" stroke="black" d="M313.217,-175.211C290.929,-161.87 258.777,-142.624 234.032,-127.812"/>
<polygon fill="black" stroke="black" points="235.66,-124.708 225.283,-122.575 232.065,-130.714 235.66,-124.708"/>
<text text-anchor="middle" x="305.593" y="-144.8" font-family="Times New Roman,serif" font-size="14.00">Crafting 0</text>
</g>
<!-- Oven -->
<g id="node8" class="node"><title>Oven</title>
<ellipse fill="none" stroke="black" cx="198.593" cy="-279" rx="30.5947" ry="18"/>
<text text-anchor="middle" x="198.593" y="-275.3" font-family="Times New Roman,serif" font-size="14.00">Oven</text>
</g>
<!-- Oven&#45;&gt;OreBar_A_Iron_A_Large -->
<g id="edge7" class="edge"><title>Oven&#45;&gt;OreBar_A_Iron_A_Large</title>
<path fill="none" stroke="black" d="M198.493,-260.879C198.32,-231.001 197.96,-169.113 197.751,-133.274"/>
<polygon fill="black" stroke="black" points="201.25,-133.031 197.692,-123.052 194.25,-133.072 201.25,-133.031"/>
<text text-anchor="middle" x="226.593" y="-188.3" font-family="Times New Roman,serif" font-size="14.00">Crafting 1</text>
</g>
<!-- Oven&#45;&gt;OreBar_A_Iron -->
<g id="edge8" class="edge"><title>Oven&#45;&gt;OreBar_A_Iron</title>
<path fill="none" stroke="black" d="M214.608,-263.438C226.873,-252.76 244.531,-238.374 261.593,-228 271.598,-221.916 282.844,-216.259 293.616,-211.342"/>
<polygon fill="black" stroke="black" points="295.193,-214.471 302.917,-207.22 292.356,-208.072 295.193,-214.471"/>
<text text-anchor="middle" x="289.593" y="-231.8" font-family="Times New Roman,serif" font-size="14.00">Crafting 1</text>
</g>
<!-- Ore_A_Iron -->
<g id="node9" class="node"><title>Ore_A_Iron</title>
<ellipse fill="none" stroke="black" cx="443.593" cy="-279" rx="55.7903" ry="18"/>
<text text-anchor="middle" x="443.593" y="-275.3" font-family="Times New Roman,serif" font-size="14.00">Ore_A_Iron</text>
</g>
<!-- Ore_A_Iron&#45;&gt;OreBar_A_Iron -->
<g id="edge9" class="edge"><title>Ore_A_Iron&#45;&gt;OreBar_A_Iron</title>
<path fill="none" stroke="black" d="M425.549,-261.947C414.222,-251.996 399.228,-239.047 385.593,-228 380.476,-223.854 374.96,-219.534 369.585,-215.401"/>
<polygon fill="black" stroke="black" points="371.409,-212.39 361.333,-209.113 367.166,-217.958 371.409,-212.39"/>
<text text-anchor="middle" x="430.593" y="-231.8" font-family="Times New Roman,serif" font-size="14.00">Crafting 0</text>
</g>
</g>
</svg>
