<?xml version="1.0" encoding="UTF-8" standalone="no"?>
<!DOCTYPE svg PUBLIC "-//W3C//DTD SVG 1.1//EN"
 "http://www.w3.org/Graphics/SVG/1.1/DTD/svg11.dtd">
<!-- Generated by graphviz version 2.38.0 (20140413.2041)
 -->
<!-- Title: G Pages: 1 -->
<svg width="177pt" height="131pt"
 viewBox="0.00 0.00 177.40 131.00" xmlns="http://www.w3.org/2000/svg" xmlns:xlink="http://www.w3.org/1999/xlink">
<g id="graph0" class="graph" transform="scale(1 1) rotate(0) translate(4 127)">
<title>G</title>
<polygon fill="white" stroke="none" points="-4,4 -4,-127 173.397,-127 173.397,4 -4,4"/>
<!-- Imps_2H_Spear -->
<g id="node1" class="node"><title>Imps_2H_Spear</title>
<ellipse fill="none" stroke="black" cx="81.3968" cy="-18" rx="70.6878" ry="18"/>
<text text-anchor="middle" x="81.3968" y="-14.3" font-family="Times New Roman,serif" font-size="14.00">Imps_2H_Spear</text>
</g>
<!-- Dagger -->
<g id="node2" class="node"><title>Dagger</title>
<ellipse fill="none" stroke="black" cx="36.3968" cy="-105" rx="36.2938" ry="18"/>
<text text-anchor="middle" x="36.3968" y="-101.3" font-family="Times New Roman,serif" font-size="14.00">Dagger</text>
</g>
<!-- Dagger&#45;&gt;Imps_2H_Spear -->
<g id="edge1" class="edge"><title>Dagger&#45;&gt;Imps_2H_Spear</title>
<path fill="none" stroke="black" d="M38.7004,-87.0324C40.5668,-76.98 43.8322,-64.2464 49.3968,-54 51.4301,-50.2558 53.9491,-46.5951 56.6742,-43.1372"/>
<polygon fill="black" stroke="black" points="59.3886,-45.349 63.2754,-35.4928 54.0906,-40.7739 59.3886,-45.349"/>
<text text-anchor="middle" x="77.3968" y="-57.8" font-family="Times New Roman,serif" font-size="14.00">Crafting 3</text>
</g>
<!-- Branch -->
<g id="node3" class="node"><title>Branch</title>
<ellipse fill="none" stroke="black" cx="127.397" cy="-105" rx="36.2938" ry="18"/>
<text text-anchor="middle" x="127.397" y="-101.3" font-family="Times New Roman,serif" font-size="14.00">Branch</text>
</g>
<!-- Branch&#45;&gt;Imps_2H_Spear -->
<g id="edge2" class="edge"><title>Branch&#45;&gt;Imps_2H_Spear</title>
<path fill="none" stroke="black" d="M120.824,-86.9556C116.799,-77.1074 111.299,-64.6074 105.397,-54 103.66,-50.8795 101.721,-47.6861 99.7182,-44.5591"/>
<polygon fill="black" stroke="black" points="102.488,-42.4052 94.0199,-36.0383 96.6696,-46.2965 102.488,-42.4052"/>
<text text-anchor="middle" x="141.397" y="-57.8" font-family="Times New Roman,serif" font-size="14.00">Crafting 3</text>
</g>
</g>
</svg>
