<?xml version="1.0" encoding="UTF-8" standalone="no"?>
<!DOCTYPE svg PUBLIC "-//W3C//DTD SVG 1.1//EN"
 "http://www.w3.org/Graphics/SVG/1.1/DTD/svg11.dtd">
<!-- Generated by graphviz version 2.38.0 (20140413.2041)
 -->
<!-- Title: G Pages: 1 -->
<svg width="603pt" height="218pt"
 viewBox="0.00 0.00 603.49 218.00" xmlns="http://www.w3.org/2000/svg" xmlns:xlink="http://www.w3.org/1999/xlink">
<g id="graph0" class="graph" transform="scale(1 1) rotate(0) translate(4 214)">
<title>G</title>
<polygon fill="white" stroke="none" points="-4,4 -4,-214 599.493,-214 599.493,4 -4,4"/>
<!-- Ingred_Dough_A_FUR_Bucket -->
<g id="node1" class="node"><title>Ingred_Dough_A_FUR_Bucket</title>
<ellipse fill="none" stroke="black" cx="342.298" cy="-18" rx="128.077" ry="18"/>
<text text-anchor="middle" x="342.298" y="-14.3" font-family="Times New Roman,serif" font-size="14.00">Ingred_Dough_A_FUR_Bucket</text>
</g>
<!-- Wheat -->
<g id="node2" class="node"><title>Wheat</title>
<ellipse fill="none" stroke="black" cx="428.298" cy="-192" rx="34.394" ry="18"/>
<text text-anchor="middle" x="428.298" y="-188.3" font-family="Times New Roman,serif" font-size="14.00">Wheat</text>
</g>
<!-- Flour -->
<g id="node7" class="node"><title>Flour</title>
<ellipse fill="none" stroke="black" cx="428.298" cy="-105" rx="30.5947" ry="18"/>
<text text-anchor="middle" x="428.298" y="-101.3" font-family="Times New Roman,serif" font-size="14.00">Flour</text>
</g>
<!-- Wheat&#45;&gt;Flour -->
<g id="edge1" class="edge"><title>Wheat&#45;&gt;Flour</title>
<path fill="none" stroke="black" d="M428.298,-173.799C428.298,-162.163 428.298,-146.548 428.298,-133.237"/>
<polygon fill="black" stroke="black" points="431.798,-133.175 428.298,-123.175 424.798,-133.175 431.798,-133.175"/>
<text text-anchor="middle" x="456.298" y="-144.8" font-family="Times New Roman,serif" font-size="14.00">Crafting 0</text>
</g>
<!-- Well -->
<g id="node3" class="node"><title>Well</title>
<ellipse fill="none" stroke="black" cx="27.2976" cy="-192" rx="27.0966" ry="18"/>
<text text-anchor="middle" x="27.2976" y="-188.3" font-family="Times New Roman,serif" font-size="14.00">Well</text>
</g>
<!-- Bucket_A_Water -->
<g id="node5" class="node"><title>Bucket_A_Water</title>
<ellipse fill="none" stroke="black" cx="228.298" cy="-105" rx="74.187" ry="18"/>
<text text-anchor="middle" x="228.298" y="-101.3" font-family="Times New Roman,serif" font-size="14.00">Bucket_A_Water</text>
</g>
<!-- Well&#45;&gt;Bucket_A_Water -->
<g id="edge3" class="edge"><title>Well&#45;&gt;Bucket_A_Water</title>
<path fill="none" stroke="black" d="M42.0766,-176.248C54.1047,-165.035 72.0265,-150.044 90.2976,-141 111.331,-130.589 135.745,-123.086 158.14,-117.766"/>
<polygon fill="black" stroke="black" points="158.953,-121.171 167.931,-115.546 157.405,-114.344 158.953,-121.171"/>
<text text-anchor="middle" x="118.298" y="-144.8" font-family="Times New Roman,serif" font-size="14.00">Crafting 0</text>
</g>
<!-- Bucket -->
<g id="node4" class="node"><title>Bucket</title>
<ellipse fill="none" stroke="black" cx="109.298" cy="-192" rx="36.2938" ry="18"/>
<text text-anchor="middle" x="109.298" y="-188.3" font-family="Times New Roman,serif" font-size="14.00">Bucket</text>
</g>
<!-- Bucket&#45;&gt;Bucket_A_Water -->
<g id="edge2" class="edge"><title>Bucket&#45;&gt;Bucket_A_Water</title>
<path fill="none" stroke="black" d="M125.705,-175.743C137.207,-165.392 153.17,-151.699 168.298,-141 175.304,-136.045 183.05,-131.141 190.585,-126.642"/>
<polygon fill="black" stroke="black" points="192.405,-129.632 199.275,-121.567 188.875,-123.587 192.405,-129.632"/>
<text text-anchor="middle" x="196.298" y="-144.8" font-family="Times New Roman,serif" font-size="14.00">Crafting 0</text>
</g>
<!-- Bucket_A_Water&#45;&gt;Ingred_Dough_A_FUR_Bucket -->
<g id="edge4" class="edge"><title>Bucket_A_Water&#45;&gt;Ingred_Dough_A_FUR_Bucket</title>
<path fill="none" stroke="black" d="M250.278,-87.6111C267.637,-74.6679 292.071,-56.4494 311.399,-42.0385"/>
<polygon fill="black" stroke="black" points="313.68,-44.7037 319.604,-35.9203 309.495,-39.0919 313.68,-44.7037"/>
<text text-anchor="middle" x="320.298" y="-57.8" font-family="Times New Roman,serif" font-size="14.00">Crafting 0</text>
</g>
<!-- Well_A_Snow -->
<g id="node6" class="node"><title>Well_A_Snow</title>
<ellipse fill="none" stroke="black" cx="228.298" cy="-192" rx="64.189" ry="18"/>
<text text-anchor="middle" x="228.298" y="-188.3" font-family="Times New Roman,serif" font-size="14.00">Well_A_Snow</text>
</g>
<!-- Well_A_Snow&#45;&gt;Bucket_A_Water -->
<g id="edge5" class="edge"><title>Well_A_Snow&#45;&gt;Bucket_A_Water</title>
<path fill="none" stroke="black" d="M228.298,-173.799C228.298,-162.163 228.298,-146.548 228.298,-133.237"/>
<polygon fill="black" stroke="black" points="231.798,-133.175 228.298,-123.175 224.798,-133.175 231.798,-133.175"/>
<text text-anchor="middle" x="256.298" y="-144.8" font-family="Times New Roman,serif" font-size="14.00">Crafting 0</text>
</g>
<!-- Flour&#45;&gt;Ingred_Dough_A_FUR_Bucket -->
<g id="edge6" class="edge"><title>Flour&#45;&gt;Ingred_Dough_A_FUR_Bucket</title>
<path fill="none" stroke="black" d="M413.318,-89.1941C400.532,-76.5568 381.891,-58.1332 366.915,-43.3316"/>
<polygon fill="black" stroke="black" points="369.041,-40.5116 359.468,-35.9712 364.12,-45.4902 369.041,-40.5116"/>
<text text-anchor="middle" x="419.298" y="-57.8" font-family="Times New Roman,serif" font-size="14.00">Crafting 0</text>
</g>
<!-- Barrel -->
<g id="node8" class="node"><title>Barrel</title>
<ellipse fill="none" stroke="black" cx="343.298" cy="-192" rx="32.4942" ry="18"/>
<text text-anchor="middle" x="343.298" y="-188.3" font-family="Times New Roman,serif" font-size="14.00">Barrel</text>
</g>
<!-- Barrel&#45;&gt;Bucket_A_Water -->
<g id="edge7" class="edge"><title>Barrel&#45;&gt;Bucket_A_Water</title>
<path fill="none" stroke="black" d="M328.166,-175.638C317.517,-165.24 302.656,-151.534 288.298,-141 281.598,-136.085 274.157,-131.28 266.861,-126.882"/>
<polygon fill="black" stroke="black" points="268.16,-123.586 257.762,-121.551 264.621,-129.626 268.16,-123.586"/>
<text text-anchor="middle" x="334.298" y="-144.8" font-family="Times New Roman,serif" font-size="14.00">Crafting 0</text>
</g>
<!-- MortarPestle -->
<g id="node9" class="node"><title>MortarPestle</title>
<ellipse fill="none" stroke="black" cx="538.298" cy="-192" rx="57.3905" ry="18"/>
<text text-anchor="middle" x="538.298" y="-188.3" font-family="Times New Roman,serif" font-size="14.00">MortarPestle</text>
</g>
<!-- MortarPestle&#45;&gt;Flour -->
<g id="edge8" class="edge"><title>MortarPestle&#45;&gt;Flour</title>
<path fill="none" stroke="black" d="M523.502,-174.135C514.024,-163.878 501.131,-150.893 488.298,-141 479.467,-134.193 469.19,-127.738 459.662,-122.268"/>
<polygon fill="black" stroke="black" points="461.267,-119.156 450.828,-117.346 457.86,-125.271 461.267,-119.156"/>
<text text-anchor="middle" x="533.298" y="-144.8" font-family="Times New Roman,serif" font-size="14.00">Crafting 0</text>
</g>
</g>
</svg>
