<?xml version="1.0" encoding="UTF-8" standalone="no"?>
<!DOCTYPE svg PUBLIC "-//W3C//DTD SVG 1.1//EN"
 "http://www.w3.org/Graphics/SVG/1.1/DTD/svg11.dtd">
<!-- Generated by graphviz version 2.38.0 (20140413.2041)
 -->
<!-- Title: G Pages: 1 -->
<svg width="981pt" height="566pt"
 viewBox="0.00 0.00 980.73 566.00" xmlns="http://www.w3.org/2000/svg" xmlns:xlink="http://www.w3.org/1999/xlink">
<g id="graph0" class="graph" transform="scale(1 1) rotate(0) translate(4 562)">
<title>G</title>
<polygon fill="white" stroke="none" points="-4,4 -4,-562 976.733,-562 976.733,4 -4,4"/>
<!-- Herb_Augmentor -->
<g id="node1" class="node"><title>Herb_Augmentor</title>
<ellipse fill="none" stroke="black" cx="277.493" cy="-192" rx="74.187" ry="18"/>
<text text-anchor="middle" x="277.493" y="-188.3" font-family="Times New Roman,serif" font-size="14.00">Herb_Augmentor</text>
</g>
<!-- Large_ResistAll_Potion -->
<g id="node2" class="node"><title>Large_ResistAll_Potion</title>
<ellipse fill="none" stroke="black" cx="330.493" cy="-18" rx="97.4827" ry="18"/>
<text text-anchor="middle" x="330.493" y="-14.3" font-family="Times New Roman,serif" font-size="14.00">Large_ResistAll_Potion</text>
</g>
<!-- Herb_Augmentor&#45;&gt;Large_ResistAll_Potion -->
<g id="edge2" class="edge"><title>Herb_Augmentor&#45;&gt;Large_ResistAll_Potion</title>
<path fill="none" stroke="black" d="M276.486,-173.913C275.802,-152.87 276.441,-116.315 286.493,-87 291.74,-71.6942 301.161,-56.4091 309.942,-44.2185"/>
<polygon fill="black" stroke="black" points="312.956,-46.0333 316.154,-35.9328 307.355,-41.8341 312.956,-46.0333"/>
<text text-anchor="middle" x="314.493" y="-101.3" font-family="Times New Roman,serif" font-size="14.00">Crafting 5</text>
</g>
<!-- Medium_ResistAll_Potion -->
<g id="node10" class="node"><title>Medium_ResistAll_Potion</title>
<ellipse fill="none" stroke="black" cx="458.493" cy="-105" rx="106.681" ry="18"/>
<text text-anchor="middle" x="458.493" y="-101.3" font-family="Times New Roman,serif" font-size="14.00">Medium_ResistAll_Potion</text>
</g>
<!-- Herb_Augmentor&#45;&gt;Medium_ResistAll_Potion -->
<g id="edge1" class="edge"><title>Herb_Augmentor&#45;&gt;Medium_ResistAll_Potion</title>
<path fill="none" stroke="black" d="M309.852,-175.804C339.189,-162.026 382.663,-141.61 415.025,-126.413"/>
<polygon fill="black" stroke="black" points="416.696,-129.495 424.26,-122.076 413.721,-123.159 416.696,-129.495"/>
<text text-anchor="middle" x="406.493" y="-144.8" font-family="Times New Roman,serif" font-size="14.00">Crafting 4</text>
</g>
<!-- Potion_Armor_Boost -->
<g id="node3" class="node"><title>Potion_Armor_Boost</title>
<ellipse fill="none" stroke="black" cx="462.493" cy="-366" rx="90.1842" ry="18"/>
<text text-anchor="middle" x="462.493" y="-362.3" font-family="Times New Roman,serif" font-size="14.00">Potion_Armor_Boost</text>
</g>
<!-- Potion_Fire_Res -->
<g id="node5" class="node"><title>Potion_Fire_Res</title>
<ellipse fill="none" stroke="black" cx="384.493" cy="-279" rx="72.5877" ry="18"/>
<text text-anchor="middle" x="384.493" y="-275.3" font-family="Times New Roman,serif" font-size="14.00">Potion_Fire_Res</text>
</g>
<!-- Potion_Armor_Boost&#45;&gt;Potion_Fire_Res -->
<g id="edge3" class="edge"><title>Potion_Armor_Boost&#45;&gt;Potion_Fire_Res</title>
<path fill="none" stroke="black" d="M424.692,-349.552C415.764,-344.432 406.97,-337.956 400.493,-330 395.152,-323.44 391.581,-315.065 389.198,-307.052"/>
<polygon fill="black" stroke="black" points="392.574,-306.126 386.771,-297.262 385.78,-307.81 392.574,-306.126"/>
<text text-anchor="middle" x="428.493" y="-318.8" font-family="Times New Roman,serif" font-size="14.00">Crafting 2</text>
</g>
<!-- Potion_Water_Res -->
<g id="node7" class="node"><title>Potion_Water_Res</title>
<ellipse fill="none" stroke="black" cx="202.493" cy="-279" rx="80.6858" ry="18"/>
<text text-anchor="middle" x="202.493" y="-275.3" font-family="Times New Roman,serif" font-size="14.00">Potion_Water_Res</text>
</g>
<!-- Potion_Armor_Boost&#45;&gt;Potion_Water_Res -->
<g id="edge5" class="edge"><title>Potion_Armor_Boost&#45;&gt;Potion_Water_Res</title>
<path fill="none" stroke="black" d="M396.74,-353.621C385.645,-351.726 374.243,-349.795 363.493,-348 314.197,-339.771 296.981,-352.771 252.493,-330 240.711,-323.97 229.985,-314.15 221.515,-304.803"/>
<polygon fill="black" stroke="black" points="224.123,-302.469 214.957,-297.156 218.81,-307.026 224.123,-302.469"/>
<text text-anchor="middle" x="280.493" y="-318.8" font-family="Times New Roman,serif" font-size="14.00">Crafting 2</text>
</g>
<!-- Potion_Earth_Res -->
<g id="node8" class="node"><title>Potion_Earth_Res</title>
<ellipse fill="none" stroke="black" cx="552.493" cy="-279" rx="77.1866" ry="18"/>
<text text-anchor="middle" x="552.493" y="-275.3" font-family="Times New Roman,serif" font-size="14.00">Potion_Earth_Res</text>
</g>
<!-- Potion_Armor_Boost&#45;&gt;Potion_Earth_Res -->
<g id="edge6" class="edge"><title>Potion_Armor_Boost&#45;&gt;Potion_Earth_Res</title>
<path fill="none" stroke="black" d="M480.274,-348.207C493.71,-335.517 512.332,-317.93 527.3,-303.793"/>
<polygon fill="black" stroke="black" points="529.881,-306.169 534.748,-296.758 525.075,-301.08 529.881,-306.169"/>
<text text-anchor="middle" x="540.493" y="-318.8" font-family="Times New Roman,serif" font-size="14.00">Crafting 2</text>
</g>
<!-- Potion_Air_Res -->
<g id="node17" class="node"><title>Potion_Air_Res</title>
<ellipse fill="none" stroke="black" cx="725.493" cy="-279" rx="69.5877" ry="18"/>
<text text-anchor="middle" x="725.493" y="-275.3" font-family="Times New Roman,serif" font-size="14.00">Potion_Air_Res</text>
</g>
<!-- Potion_Armor_Boost&#45;&gt;Potion_Air_Res -->
<g id="edge4" class="edge"><title>Potion_Armor_Boost&#45;&gt;Potion_Air_Res</title>
<path fill="none" stroke="black" d="M528.518,-353.616C539.528,-351.731 550.832,-349.804 561.493,-348 609.473,-339.882 625.612,-351.035 669.493,-330 682.476,-323.776 694.682,-313.613 704.364,-304.07"/>
<polygon fill="black" stroke="black" points="707.117,-306.257 711.554,-296.636 702.086,-301.391 707.117,-306.257"/>
<text text-anchor="middle" x="719.493" y="-318.8" font-family="Times New Roman,serif" font-size="14.00">Crafting 2</text>
</g>
<!-- Potion_Empty -->
<g id="node4" class="node"><title>Potion_Empty</title>
<ellipse fill="none" stroke="black" cx="482.493" cy="-540" rx="63.8893" ry="18"/>
<text text-anchor="middle" x="482.493" y="-536.3" font-family="Times New Roman,serif" font-size="14.00">Potion_Empty</text>
</g>
<!-- Minor_Healing_Potion -->
<g id="node16" class="node"><title>Minor_Healing_Potion</title>
<ellipse fill="none" stroke="black" cx="560.493" cy="-453" rx="92.8835" ry="18"/>
<text text-anchor="middle" x="560.493" y="-449.3" font-family="Times New Roman,serif" font-size="14.00">Minor_Healing_Potion</text>
</g>
<!-- Potion_Empty&#45;&gt;Minor_Healing_Potion -->
<g id="edge7" class="edge"><title>Potion_Empty&#45;&gt;Minor_Healing_Potion</title>
<path fill="none" stroke="black" d="M497.903,-522.207C509.441,-509.633 525.391,-492.252 538.302,-478.182"/>
<polygon fill="black" stroke="black" points="540.932,-480.493 545.114,-470.758 535.774,-475.76 540.932,-480.493"/>
<text text-anchor="middle" x="553.493" y="-492.8" font-family="Times New Roman,serif" font-size="14.00">Crafting 1</text>
</g>
<!-- Minor_ResistAll_Potion -->
<g id="node11" class="node"><title>Minor_ResistAll_Potion</title>
<ellipse fill="none" stroke="black" cx="468.493" cy="-192" rx="98.5829" ry="18"/>
<text text-anchor="middle" x="468.493" y="-188.3" font-family="Times New Roman,serif" font-size="14.00">Minor_ResistAll_Potion</text>
</g>
<!-- Potion_Fire_Res&#45;&gt;Minor_ResistAll_Potion -->
<g id="edge8" class="edge"><title>Potion_Fire_Res&#45;&gt;Minor_ResistAll_Potion</title>
<path fill="none" stroke="black" d="M401.088,-261.207C413.514,-248.633 430.691,-231.252 444.595,-217.182"/>
<polygon fill="black" stroke="black" points="447.392,-219.331 451.931,-209.758 442.413,-214.411 447.392,-219.331"/>
<text text-anchor="middle" x="459.493" y="-231.8" font-family="Times New Roman,serif" font-size="14.00">Crafting 3</text>
</g>
<!-- Herb_Whisperwood -->
<g id="node6" class="node"><title>Herb_Whisperwood</title>
<ellipse fill="none" stroke="black" cx="364.493" cy="-453" rx="85.2851" ry="18"/>
<text text-anchor="middle" x="364.493" y="-449.3" font-family="Times New Roman,serif" font-size="14.00">Herb_Whisperwood</text>
</g>
<!-- Herb_Whisperwood&#45;&gt;Potion_Armor_Boost -->
<g id="edge9" class="edge"><title>Herb_Whisperwood&#45;&gt;Potion_Armor_Boost</title>
<path fill="none" stroke="black" d="M383.854,-435.207C398.619,-422.401 419.134,-404.607 435.509,-390.404"/>
<polygon fill="black" stroke="black" points="437.91,-392.955 443.171,-383.758 433.323,-387.667 437.91,-392.955"/>
<text text-anchor="middle" x="446.493" y="-405.8" font-family="Times New Roman,serif" font-size="14.00">Crafting 2</text>
</g>
<!-- Potion_Water_Res&#45;&gt;Minor_ResistAll_Potion -->
<g id="edge10" class="edge"><title>Potion_Water_Res&#45;&gt;Minor_ResistAll_Potion</title>
<path fill="none" stroke="black" d="M246.716,-263.869C292.143,-249.352 363,-226.71 412.355,-210.939"/>
<polygon fill="black" stroke="black" points="413.466,-214.258 421.926,-207.88 411.335,-207.59 413.466,-214.258"/>
<text text-anchor="middle" x="378.493" y="-231.8" font-family="Times New Roman,serif" font-size="14.00">Crafting 3</text>
</g>
<!-- Potion_Earth_Res&#45;&gt;Minor_ResistAll_Potion -->
<g id="edge11" class="edge"><title>Potion_Earth_Res&#45;&gt;Minor_ResistAll_Potion</title>
<path fill="none" stroke="black" d="M535.897,-261.207C523.471,-248.633 506.294,-231.252 492.39,-217.182"/>
<polygon fill="black" stroke="black" points="494.572,-214.411 485.054,-209.758 489.593,-219.331 494.572,-214.411"/>
<text text-anchor="middle" x="543.493" y="-231.8" font-family="Times New Roman,serif" font-size="14.00">Crafting 3</text>
</g>
<!-- Herb_Mushroom_Jellyfish -->
<g id="node9" class="node"><title>Herb_Mushroom_Jellyfish</title>
<ellipse fill="none" stroke="black" cx="865.493" cy="-366" rx="107.482" ry="18"/>
<text text-anchor="middle" x="865.493" y="-362.3" font-family="Times New Roman,serif" font-size="14.00">Herb_Mushroom_Jellyfish</text>
</g>
<!-- Herb_Mushroom_Jellyfish&#45;&gt;Potion_Air_Res -->
<g id="edge12" class="edge"><title>Herb_Mushroom_Jellyfish&#45;&gt;Potion_Air_Res</title>
<path fill="none" stroke="black" d="M839.314,-348.358C823.75,-338.534 803.578,-325.923 785.493,-315 777.767,-310.334 769.431,-305.405 761.502,-300.766"/>
<polygon fill="black" stroke="black" points="763.178,-297.692 752.776,-295.68 759.654,-303.74 763.178,-297.692"/>
<text text-anchor="middle" x="837.493" y="-318.8" font-family="Times New Roman,serif" font-size="14.00">Crafting 2</text>
</g>
<!-- Medium_ResistAll_Potion&#45;&gt;Large_ResistAll_Potion -->
<g id="edge13" class="edge"><title>Medium_ResistAll_Potion&#45;&gt;Large_ResistAll_Potion</title>
<path fill="none" stroke="black" d="M433.509,-87.4094C413.686,-74.2458 385.788,-55.7198 364.023,-41.2663"/>
<polygon fill="black" stroke="black" points="365.68,-38.1651 355.413,-35.5488 361.807,-43.9965 365.68,-38.1651"/>
<text text-anchor="middle" x="429.493" y="-57.8" font-family="Times New Roman,serif" font-size="14.00">Crafting 5</text>
</g>
<!-- Minor_ResistAll_Potion&#45;&gt;Medium_ResistAll_Potion -->
<g id="edge14" class="edge"><title>Minor_ResistAll_Potion&#45;&gt;Medium_ResistAll_Potion</title>
<path fill="none" stroke="black" d="M466.469,-173.799C465.1,-162.163 463.263,-146.548 461.697,-133.237"/>
<polygon fill="black" stroke="black" points="465.158,-132.698 460.513,-123.175 458.206,-133.516 465.158,-132.698"/>
<text text-anchor="middle" x="491.493" y="-144.8" font-family="Times New Roman,serif" font-size="14.00">Crafting 4</text>
</g>
<!-- Herb_Mushroom_B -->
<g id="node12" class="node"><title>Herb_Mushroom_B</title>
<ellipse fill="none" stroke="black" cx="84.4925" cy="-366" rx="84.485" ry="18"/>
<text text-anchor="middle" x="84.4925" y="-362.3" font-family="Times New Roman,serif" font-size="14.00">Herb_Mushroom_B</text>
</g>
<!-- Herb_Mushroom_B&#45;&gt;Potion_Water_Res -->
<g id="edge15" class="edge"><title>Herb_Mushroom_B&#45;&gt;Potion_Water_Res</title>
<path fill="none" stroke="black" d="M95.0627,-347.971C102.307,-337.392 112.715,-324.12 124.493,-315 132.502,-308.798 141.784,-303.415 151.092,-298.855"/>
<polygon fill="black" stroke="black" points="152.754,-301.943 160.362,-294.57 149.817,-295.589 152.754,-301.943"/>
<text text-anchor="middle" x="152.493" y="-318.8" font-family="Times New Roman,serif" font-size="14.00">Crafting 2</text>
</g>
<!-- Herb_Mushroom -->
<g id="node13" class="node"><title>Herb_Mushroom</title>
<ellipse fill="none" stroke="black" cx="637.493" cy="-540" rx="73.387" ry="18"/>
<text text-anchor="middle" x="637.493" y="-536.3" font-family="Times New Roman,serif" font-size="14.00">Herb_Mushroom</text>
</g>
<!-- Herb_Mushroom&#45;&gt;Minor_Healing_Potion -->
<g id="edge16" class="edge"><title>Herb_Mushroom&#45;&gt;Minor_Healing_Potion</title>
<path fill="none" stroke="black" d="M622.28,-522.207C610.89,-509.633 595.144,-492.252 582.399,-478.182"/>
<polygon fill="black" stroke="black" points="584.981,-475.82 575.674,-470.758 579.793,-480.519 584.981,-475.82"/>
<text text-anchor="middle" x="631.493" y="-492.8" font-family="Times New Roman,serif" font-size="14.00">Crafting 1</text>
</g>
<!-- Herb_Mushroom_D -->
<g id="node14" class="node"><title>Herb_Mushroom_D</title>
<ellipse fill="none" stroke="black" cx="655.493" cy="-366" rx="85.2851" ry="18"/>
<text text-anchor="middle" x="655.493" y="-362.3" font-family="Times New Roman,serif" font-size="14.00">Herb_Mushroom_D</text>
</g>
<!-- Herb_Mushroom_D&#45;&gt;Potion_Earth_Res -->
<g id="edge17" class="edge"><title>Herb_Mushroom_D&#45;&gt;Potion_Earth_Res</title>
<path fill="none" stroke="black" d="M635.143,-348.207C619.524,-335.317 597.783,-317.375 580.518,-303.128"/>
<polygon fill="black" stroke="black" points="582.39,-300.135 572.449,-296.469 577.934,-305.534 582.39,-300.135"/>
<text text-anchor="middle" x="637.493" y="-318.8" font-family="Times New Roman,serif" font-size="14.00">Crafting 2</text>
</g>
<!-- Herb_Mushroom_E -->
<g id="node15" class="node"><title>Herb_Mushroom_E</title>
<ellipse fill="none" stroke="black" cx="270.493" cy="-366" rx="83.6854" ry="18"/>
<text text-anchor="middle" x="270.493" y="-362.3" font-family="Times New Roman,serif" font-size="14.00">Herb_Mushroom_E</text>
</g>
<!-- Herb_Mushroom_E&#45;&gt;Potion_Fire_Res -->
<g id="edge18" class="edge"><title>Herb_Mushroom_E&#45;&gt;Potion_Fire_Res</title>
<path fill="none" stroke="black" d="M289.863,-348.261C301.656,-338.29 317.163,-325.561 331.493,-315 337.534,-310.547 344.109,-305.988 350.508,-301.694"/>
<polygon fill="black" stroke="black" points="352.648,-304.475 359.056,-296.038 348.785,-298.637 352.648,-304.475"/>
<text text-anchor="middle" x="359.493" y="-318.8" font-family="Times New Roman,serif" font-size="14.00">Crafting 2</text>
</g>
<!-- Minor_Healing_Potion&#45;&gt;Potion_Armor_Boost -->
<g id="edge19" class="edge"><title>Minor_Healing_Potion&#45;&gt;Potion_Armor_Boost</title>
<path fill="none" stroke="black" d="M541.131,-435.207C526.366,-422.401 505.851,-404.607 489.476,-390.404"/>
<polygon fill="black" stroke="black" points="491.662,-387.667 481.814,-383.758 487.075,-392.955 491.662,-387.667"/>
<text text-anchor="middle" x="544.493" y="-405.8" font-family="Times New Roman,serif" font-size="14.00">Crafting 2</text>
</g>
<!-- Potion_Air_Res&#45;&gt;Minor_ResistAll_Potion -->
<g id="edge20" class="edge"><title>Potion_Air_Res&#45;&gt;Minor_ResistAll_Potion</title>
<path fill="none" stroke="black" d="M684.768,-264.356C654.61,-254.27 612.506,-240.222 575.493,-228 558.815,-222.493 540.661,-216.539 524.122,-211.131"/>
<polygon fill="black" stroke="black" points="525.188,-207.797 514.595,-208.018 523.013,-214.451 525.188,-207.797"/>
<text text-anchor="middle" x="644.493" y="-231.8" font-family="Times New Roman,serif" font-size="14.00">Crafting 3</text>
</g>
</g>
</svg>
