<?xml version="1.0" encoding="UTF-8" standalone="no"?>
<!DOCTYPE svg PUBLIC "-//W3C//DTD SVG 1.1//EN"
 "http://www.w3.org/Graphics/SVG/1.1/DTD/svg11.dtd">
<!-- Generated by graphviz version 2.38.0 (20140413.2041)
 -->
<!-- Title: G Pages: 1 -->
<svg width="502pt" height="479pt"
 viewBox="0.00 0.00 501.54 479.00" xmlns="http://www.w3.org/2000/svg" xmlns:xlink="http://www.w3.org/1999/xlink">
<g id="graph0" class="graph" transform="scale(1 1) rotate(0) translate(4 475)">
<title>G</title>
<polygon fill="white" stroke="none" points="-4,4 -4,-475 497.537,-475 497.537,4 -4,4"/>
<!-- Herb_Augmentor -->
<g id="node1" class="node"><title>Herb_Augmentor</title>
<ellipse fill="none" stroke="black" cx="74.0934" cy="-192" rx="74.187" ry="18"/>
<text text-anchor="middle" x="74.0934" y="-188.3" font-family="Times New Roman,serif" font-size="14.00">Herb_Augmentor</text>
</g>
<!-- Medium_Perception_Potion -->
<g id="node6" class="node"><title>Medium_Perception_Potion</title>
<ellipse fill="none" stroke="black" cx="261.093" cy="-105" rx="113.18" ry="18"/>
<text text-anchor="middle" x="261.093" y="-101.3" font-family="Times New Roman,serif" font-size="14.00">Medium_Perception_Potion</text>
</g>
<!-- Herb_Augmentor&#45;&gt;Medium_Perception_Potion -->
<g id="edge1" class="edge"><title>Herb_Augmentor&#45;&gt;Medium_Perception_Potion</title>
<path fill="none" stroke="black" d="M107.525,-175.804C137.87,-162.011 182.852,-141.564 216.298,-126.361"/>
<polygon fill="black" stroke="black" points="217.749,-129.547 225.404,-122.222 214.852,-123.174 217.749,-129.547"/>
<text text-anchor="middle" x="207.093" y="-144.8" font-family="Times New Roman,serif" font-size="14.00">Crafting 4</text>
</g>
<!-- Large_Perception_Potion -->
<g id="node7" class="node"><title>Large_Perception_Potion</title>
<ellipse fill="none" stroke="black" cx="129.093" cy="-18" rx="103.982" ry="18"/>
<text text-anchor="middle" x="129.093" y="-14.3" font-family="Times New Roman,serif" font-size="14.00">Large_Perception_Potion</text>
</g>
<!-- Herb_Augmentor&#45;&gt;Large_Perception_Potion -->
<g id="edge2" class="edge"><title>Herb_Augmentor&#45;&gt;Large_Perception_Potion</title>
<path fill="none" stroke="black" d="M72.9878,-173.878C72.2043,-152.801 72.7427,-116.211 83.0934,-87 88.6245,-71.3907 98.6103,-55.9432 107.868,-43.7258"/>
<polygon fill="black" stroke="black" points="110.656,-45.842 114.097,-35.8214 105.158,-41.5093 110.656,-45.842"/>
<text text-anchor="middle" x="111.093" y="-101.3" font-family="Times New Roman,serif" font-size="14.00">Crafting 5</text>
</g>
<!-- Minor_Perception_Potion -->
<g id="node2" class="node"><title>Minor_Perception_Potion</title>
<ellipse fill="none" stroke="black" cx="271.093" cy="-192" rx="105.082" ry="18"/>
<text text-anchor="middle" x="271.093" y="-188.3" font-family="Times New Roman,serif" font-size="14.00">Minor_Perception_Potion</text>
</g>
<!-- Minor_Perception_Potion&#45;&gt;Medium_Perception_Potion -->
<g id="edge3" class="edge"><title>Minor_Perception_Potion&#45;&gt;Medium_Perception_Potion</title>
<path fill="none" stroke="black" d="M269.07,-173.799C267.701,-162.163 265.864,-146.548 264.298,-133.237"/>
<polygon fill="black" stroke="black" points="267.759,-132.698 263.114,-123.175 260.807,-133.516 267.759,-132.698"/>
<text text-anchor="middle" x="294.093" y="-144.8" font-family="Times New Roman,serif" font-size="14.00">Crafting 4</text>
</g>
<!-- Potion_Empty -->
<g id="node3" class="node"><title>Potion_Empty</title>
<ellipse fill="none" stroke="black" cx="265.093" cy="-453" rx="63.8893" ry="18"/>
<text text-anchor="middle" x="265.093" y="-449.3" font-family="Times New Roman,serif" font-size="14.00">Potion_Empty</text>
</g>
<!-- Minor_Healing_Potion -->
<g id="node10" class="node"><title>Minor_Healing_Potion</title>
<ellipse fill="none" stroke="black" cx="343.093" cy="-366" rx="92.8835" ry="18"/>
<text text-anchor="middle" x="343.093" y="-362.3" font-family="Times New Roman,serif" font-size="14.00">Minor_Healing_Potion</text>
</g>
<!-- Potion_Empty&#45;&gt;Minor_Healing_Potion -->
<g id="edge4" class="edge"><title>Potion_Empty&#45;&gt;Minor_Healing_Potion</title>
<path fill="none" stroke="black" d="M280.504,-435.207C292.042,-422.633 307.992,-405.252 320.902,-391.182"/>
<polygon fill="black" stroke="black" points="323.533,-393.493 327.715,-383.758 318.375,-388.76 323.533,-393.493"/>
<text text-anchor="middle" x="336.093" y="-405.8" font-family="Times New Roman,serif" font-size="14.00">Crafting 1</text>
</g>
<!-- Potion_Reason -->
<g id="node4" class="node"><title>Potion_Reason</title>
<ellipse fill="none" stroke="black" cx="207.093" cy="-279" rx="66.8882" ry="18"/>
<text text-anchor="middle" x="207.093" y="-275.3" font-family="Times New Roman,serif" font-size="14.00">Potion_Reason</text>
</g>
<!-- Potion_Reason&#45;&gt;Minor_Perception_Potion -->
<g id="edge5" class="edge"><title>Potion_Reason&#45;&gt;Minor_Perception_Potion</title>
<path fill="none" stroke="black" d="M213.74,-260.877C218.115,-250.769 224.443,-238.032 232.093,-228 235.041,-224.134 238.458,-220.357 242.019,-216.801"/>
<polygon fill="black" stroke="black" points="244.529,-219.245 249.428,-209.851 239.74,-214.14 244.529,-219.245"/>
<text text-anchor="middle" x="260.093" y="-231.8" font-family="Times New Roman,serif" font-size="14.00">Crafting 5</text>
</g>
<!-- Eye -->
<g id="node5" class="node"><title>Eye</title>
<ellipse fill="none" stroke="black" cx="319.093" cy="-279" rx="27" ry="18"/>
<text text-anchor="middle" x="319.093" y="-275.3" font-family="Times New Roman,serif" font-size="14.00">Eye</text>
</g>
<!-- Eye&#45;&gt;Minor_Perception_Potion -->
<g id="edge8" class="edge"><title>Eye&#45;&gt;Minor_Perception_Potion</title>
<path fill="none" stroke="black" d="M310.065,-262.012C303.204,-249.862 293.624,-232.898 285.68,-218.83"/>
<polygon fill="black" stroke="black" points="288.705,-217.069 280.74,-210.083 282.61,-220.511 288.705,-217.069"/>
<text text-anchor="middle" x="325.093" y="-231.8" font-family="Times New Roman,serif" font-size="14.00">Crafting 5</text>
</g>
<!-- Medium_Perception_Potion&#45;&gt;Large_Perception_Potion -->
<g id="edge6" class="edge"><title>Medium_Perception_Potion&#45;&gt;Large_Perception_Potion</title>
<path fill="none" stroke="black" d="M235.329,-87.4094C214.796,-74.1873 185.861,-55.555 163.373,-41.0738"/>
<polygon fill="black" stroke="black" points="165.095,-38.0202 154.793,-35.5488 161.305,-43.9055 165.095,-38.0202"/>
<text text-anchor="middle" x="231.093" y="-57.8" font-family="Times New Roman,serif" font-size="14.00">Crafting 5</text>
</g>
<!-- Herb_Stardust -->
<g id="node8" class="node"><title>Herb_Stardust</title>
<ellipse fill="none" stroke="black" cx="168.093" cy="-366" rx="63.8893" ry="18"/>
<text text-anchor="middle" x="168.093" y="-362.3" font-family="Times New Roman,serif" font-size="14.00">Herb_Stardust</text>
</g>
<!-- Herb_Stardust&#45;&gt;Potion_Reason -->
<g id="edge7" class="edge"><title>Herb_Stardust&#45;&gt;Potion_Reason</title>
<path fill="none" stroke="black" d="M175.986,-347.799C181.466,-335.854 188.87,-319.717 195.08,-306.183"/>
<polygon fill="black" stroke="black" points="198.357,-307.434 199.346,-296.885 191.995,-304.515 198.357,-307.434"/>
<text text-anchor="middle" x="218.093" y="-318.8" font-family="Times New Roman,serif" font-size="14.00">Crafting 2</text>
</g>
<!-- Herb_Mushroom -->
<g id="node9" class="node"><title>Herb_Mushroom</title>
<ellipse fill="none" stroke="black" cx="420.093" cy="-453" rx="73.387" ry="18"/>
<text text-anchor="middle" x="420.093" y="-449.3" font-family="Times New Roman,serif" font-size="14.00">Herb_Mushroom</text>
</g>
<!-- Herb_Mushroom&#45;&gt;Minor_Healing_Potion -->
<g id="edge9" class="edge"><title>Herb_Mushroom&#45;&gt;Minor_Healing_Potion</title>
<path fill="none" stroke="black" d="M404.881,-435.207C393.491,-422.633 377.745,-405.252 365,-391.182"/>
<polygon fill="black" stroke="black" points="367.582,-388.82 358.275,-383.758 362.394,-393.519 367.582,-388.82"/>
<text text-anchor="middle" x="414.093" y="-405.8" font-family="Times New Roman,serif" font-size="14.00">Crafting 1</text>
</g>
<!-- Minor_Healing_Potion&#45;&gt;Potion_Reason -->
<g id="edge10" class="edge"><title>Minor_Healing_Potion&#45;&gt;Potion_Reason</title>
<path fill="none" stroke="black" d="M316.871,-348.611C295.243,-335.094 264.409,-315.822 240.923,-301.143"/>
<polygon fill="black" stroke="black" points="242.651,-298.096 232.316,-295.764 238.94,-304.032 242.651,-298.096"/>
<text text-anchor="middle" x="311.093" y="-318.8" font-family="Times New Roman,serif" font-size="14.00">Crafting 2</text>
</g>
</g>
</svg>
