<?xml version="1.0" encoding="UTF-8" standalone="no"?>
<!DOCTYPE svg PUBLIC "-//W3C//DTD SVG 1.1//EN"
 "http://www.w3.org/Graphics/SVG/1.1/DTD/svg11.dtd">
<!-- Generated by graphviz version 2.38.0 (20140413.2041)
 -->
<!-- Title: G Pages: 1 -->
<svg width="305pt" height="218pt"
 viewBox="0.00 0.00 305.40 218.00" xmlns="http://www.w3.org/2000/svg" xmlns:xlink="http://www.w3.org/1999/xlink">
<g id="graph0" class="graph" transform="scale(1 1) rotate(0) translate(4 214)">
<title>G</title>
<polygon fill="white" stroke="none" points="-4,4 -4,-214 301.397,-214 301.397,4 -4,4"/>
<!-- Dagger -->
<g id="node1" class="node"><title>Dagger</title>
<ellipse fill="none" stroke="black" cx="36.3968" cy="-192" rx="36.2938" ry="18"/>
<text text-anchor="middle" x="36.3968" y="-188.3" font-family="Times New Roman,serif" font-size="14.00">Dagger</text>
</g>
<!-- Scraps_Leather -->
<g id="node4" class="node"><title>Scraps_Leather</title>
<ellipse fill="none" stroke="black" cx="148.397" cy="-105" rx="67.6881" ry="18"/>
<text text-anchor="middle" x="148.397" y="-101.3" font-family="Times New Roman,serif" font-size="14.00">Scraps_Leather</text>
</g>
<!-- Dagger&#45;&gt;Scraps_Leather -->
<g id="edge1" class="edge"><title>Dagger&#45;&gt;Scraps_Leather</title>
<path fill="none" stroke="black" d="M51.0035,-175.108C60.9794,-164.736 74.8057,-151.266 88.3968,-141 95.2439,-135.828 102.92,-130.827 110.436,-126.302"/>
<polygon fill="black" stroke="black" points="112.255,-129.292 119.125,-121.226 108.725,-123.248 112.255,-129.292"/>
<text text-anchor="middle" x="116.397" y="-144.8" font-family="Times New Roman,serif" font-size="14.00">Crafting 1</text>
</g>
<!-- Anvil -->
<g id="node2" class="node"><title>Anvil</title>
<ellipse fill="none" stroke="black" cx="263.397" cy="-105" rx="29.795" ry="18"/>
<text text-anchor="middle" x="263.397" y="-101.3" font-family="Times New Roman,serif" font-size="14.00">Anvil</text>
</g>
<!-- Leather_Boots -->
<g id="node3" class="node"><title>Leather_Boots</title>
<ellipse fill="none" stroke="black" cx="214.397" cy="-18" rx="64.189" ry="18"/>
<text text-anchor="middle" x="214.397" y="-14.3" font-family="Times New Roman,serif" font-size="14.00">Leather_Boots</text>
</g>
<!-- Anvil&#45;&gt;Leather_Boots -->
<g id="edge2" class="edge"><title>Anvil&#45;&gt;Leather_Boots</title>
<path fill="none" stroke="black" d="M253.949,-87.6111C246.923,-75.4224 237.199,-58.5556 229.152,-44.5958"/>
<polygon fill="black" stroke="black" points="232.177,-42.8359 224.151,-35.9203 226.113,-46.3319 232.177,-42.8359"/>
<text text-anchor="middle" x="269.397" y="-57.8" font-family="Times New Roman,serif" font-size="14.00">Crafting 3</text>
</g>
<!-- Scraps_Leather&#45;&gt;Leather_Boots -->
<g id="edge3" class="edge"><title>Scraps_Leather&#45;&gt;Leather_Boots</title>
<path fill="none" stroke="black" d="M155.813,-86.9073C160.622,-76.8105 167.46,-64.0742 175.397,-54 178.622,-49.9065 182.356,-45.8926 186.21,-42.1275"/>
<polygon fill="black" stroke="black" points="188.697,-44.595 193.668,-35.2385 183.947,-39.4532 188.697,-44.595"/>
<text text-anchor="middle" x="203.397" y="-57.8" font-family="Times New Roman,serif" font-size="14.00">Crafting 3</text>
</g>
<!-- Hide_Animal -->
<g id="node5" class="node"><title>Hide_Animal</title>
<ellipse fill="none" stroke="black" cx="148.397" cy="-192" rx="57.6901" ry="18"/>
<text text-anchor="middle" x="148.397" y="-188.3" font-family="Times New Roman,serif" font-size="14.00">Hide_Animal</text>
</g>
<!-- Hide_Animal&#45;&gt;Scraps_Leather -->
<g id="edge4" class="edge"><title>Hide_Animal&#45;&gt;Scraps_Leather</title>
<path fill="none" stroke="black" d="M148.397,-173.799C148.397,-162.163 148.397,-146.548 148.397,-133.237"/>
<polygon fill="black" stroke="black" points="151.897,-133.175 148.397,-123.175 144.897,-133.175 151.897,-133.175"/>
<text text-anchor="middle" x="176.397" y="-144.8" font-family="Times New Roman,serif" font-size="14.00">Crafting 1</text>
</g>
<!-- Knife -->
<g id="node6" class="node"><title>Knife</title>
<ellipse fill="none" stroke="black" cx="254.397" cy="-192" rx="30.5947" ry="18"/>
<text text-anchor="middle" x="254.397" y="-188.3" font-family="Times New Roman,serif" font-size="14.00">Knife</text>
</g>
<!-- Knife&#45;&gt;Scraps_Leather -->
<g id="edge5" class="edge"><title>Knife&#45;&gt;Scraps_Leather</title>
<path fill="none" stroke="black" d="M242.17,-175.428C233.455,-164.936 221.079,-151.204 208.397,-141 201.989,-135.844 194.736,-130.951 187.544,-126.547"/>
<polygon fill="black" stroke="black" points="188.929,-123.301 178.535,-121.247 185.38,-129.334 188.929,-123.301"/>
<text text-anchor="middle" x="251.397" y="-144.8" font-family="Times New Roman,serif" font-size="14.00">Crafting 1</text>
</g>
</g>
</svg>
