<?xml version="1.0" encoding="UTF-8" standalone="no"?>
<!DOCTYPE svg PUBLIC "-//W3C//DTD SVG 1.1//EN"
 "http://www.w3.org/Graphics/SVG/1.1/DTD/svg11.dtd">
<!-- Generated by graphviz version 2.38.0 (20140413.2041)
 -->
<!-- Title: G Pages: 1 -->
<svg width="473pt" height="305pt"
 viewBox="0.00 0.00 473.24 305.00" xmlns="http://www.w3.org/2000/svg" xmlns:xlink="http://www.w3.org/1999/xlink">
<g id="graph0" class="graph" transform="scale(1 1) rotate(0) translate(4 301)">
<title>G</title>
<polygon fill="white" stroke="none" points="-4,4 -4,-301 469.242,-301 469.242,4 -4,4"/>
<!-- Dagger -->
<g id="node1" class="node"><title>Dagger</title>
<ellipse fill="none" stroke="black" cx="295.397" cy="-192" rx="36.2938" ry="18"/>
<text text-anchor="middle" x="295.397" y="-188.3" font-family="Times New Roman,serif" font-size="14.00">Dagger</text>
</g>
<!-- Scraps_Leather -->
<g id="node7" class="node"><title>Scraps_Leather</title>
<ellipse fill="none" stroke="black" cx="286.397" cy="-105" rx="67.6881" ry="18"/>
<text text-anchor="middle" x="286.397" y="-101.3" font-family="Times New Roman,serif" font-size="14.00">Scraps_Leather</text>
</g>
<!-- Dagger&#45;&gt;Scraps_Leather -->
<g id="edge1" class="edge"><title>Dagger&#45;&gt;Scraps_Leather</title>
<path fill="none" stroke="black" d="M293.575,-173.799C292.343,-162.163 290.69,-146.548 289.281,-133.237"/>
<polygon fill="black" stroke="black" points="292.749,-132.751 288.215,-123.175 285.788,-133.488 292.749,-132.751"/>
<text text-anchor="middle" x="320.397" y="-144.8" font-family="Times New Roman,serif" font-size="14.00">Crafting 1</text>
</g>
<!-- Needle_Thread -->
<g id="node2" class="node"><title>Needle_Thread</title>
<ellipse fill="none" stroke="black" cx="126.397" cy="-105" rx="66.0889" ry="18"/>
<text text-anchor="middle" x="126.397" y="-101.3" font-family="Times New Roman,serif" font-size="14.00">Needle_Thread</text>
</g>
<!-- Leather_C_Torso -->
<g id="node6" class="node"><title>Leather_C_Torso</title>
<ellipse fill="none" stroke="black" cx="215.397" cy="-18" rx="76.0865" ry="18"/>
<text text-anchor="middle" x="215.397" y="-14.3" font-family="Times New Roman,serif" font-size="14.00">Leather_C_Torso</text>
</g>
<!-- Needle_Thread&#45;&gt;Leather_C_Torso -->
<g id="edge2" class="edge"><title>Needle_Thread&#45;&gt;Leather_C_Torso</title>
<path fill="none" stroke="black" d="M143.557,-87.6111C156.891,-74.876 175.573,-57.0337 190.543,-42.7363"/>
<polygon fill="black" stroke="black" points="193.171,-45.0664 197.986,-35.6286 188.337,-40.0042 193.171,-45.0664"/>
<text text-anchor="middle" x="204.397" y="-57.8" font-family="Times New Roman,serif" font-size="14.00">Crafting 3</text>
</g>
<!-- Thread -->
<g id="node3" class="node"><title>Thread</title>
<ellipse fill="none" stroke="black" cx="36.3968" cy="-192" rx="36.2938" ry="18"/>
<text text-anchor="middle" x="36.3968" y="-188.3" font-family="Times New Roman,serif" font-size="14.00">Thread</text>
</g>
<!-- Thread&#45;&gt;Needle_Thread -->
<g id="edge3" class="edge"><title>Thread&#45;&gt;Needle_Thread</title>
<path fill="none" stroke="black" d="M43.7673,-174.251C48.9786,-163.785 56.7458,-150.533 66.3968,-141 72.0071,-135.458 78.6661,-130.464 85.4719,-126.099"/>
<polygon fill="black" stroke="black" points="87.3341,-129.064 94.1033,-120.913 83.7289,-123.064 87.3341,-129.064"/>
<text text-anchor="middle" x="94.3968" y="-144.8" font-family="Times New Roman,serif" font-size="14.00">Crafting 0</text>
</g>
<!-- Needle -->
<g id="node4" class="node"><title>Needle</title>
<ellipse fill="none" stroke="black" cx="126.397" cy="-192" rx="35.9954" ry="18"/>
<text text-anchor="middle" x="126.397" y="-188.3" font-family="Times New Roman,serif" font-size="14.00">Needle</text>
</g>
<!-- Needle&#45;&gt;Needle_Thread -->
<g id="edge4" class="edge"><title>Needle&#45;&gt;Needle_Thread</title>
<path fill="none" stroke="black" d="M126.397,-173.799C126.397,-162.163 126.397,-146.548 126.397,-133.237"/>
<polygon fill="black" stroke="black" points="129.897,-133.175 126.397,-123.175 122.897,-133.175 129.897,-133.175"/>
<text text-anchor="middle" x="154.397" y="-144.8" font-family="Times New Roman,serif" font-size="14.00">Crafting 0</text>
</g>
<!-- Hair -->
<g id="node5" class="node"><title>Hair</title>
<ellipse fill="none" stroke="black" cx="36.3968" cy="-279" rx="27" ry="18"/>
<text text-anchor="middle" x="36.3968" y="-275.3" font-family="Times New Roman,serif" font-size="14.00">Hair</text>
</g>
<!-- Hair&#45;&gt;Thread -->
<g id="edge5" class="edge"><title>Hair&#45;&gt;Thread</title>
<path fill="none" stroke="black" d="M36.3968,-260.799C36.3968,-249.163 36.3968,-233.548 36.3968,-220.237"/>
<polygon fill="black" stroke="black" points="39.8969,-220.175 36.3968,-210.175 32.8969,-220.175 39.8969,-220.175"/>
<text text-anchor="middle" x="64.3968" y="-231.8" font-family="Times New Roman,serif" font-size="14.00">Crafting 0</text>
</g>
<!-- Scraps_Leather&#45;&gt;Leather_C_Torso -->
<g id="edge6" class="edge"><title>Scraps_Leather&#45;&gt;Leather_C_Torso</title>
<path fill="none" stroke="black" d="M272.369,-87.2067C261.964,-74.7499 247.617,-57.5734 235.923,-43.5741"/>
<polygon fill="black" stroke="black" points="238.492,-41.1894 229.395,-35.7584 233.12,-45.677 238.492,-41.1894"/>
<text text-anchor="middle" x="283.397" y="-57.8" font-family="Times New Roman,serif" font-size="14.00">Crafting 3</text>
</g>
<!-- Hide_Animal -->
<g id="node8" class="node"><title>Hide_Animal</title>
<ellipse fill="none" stroke="black" cx="407.397" cy="-192" rx="57.6901" ry="18"/>
<text text-anchor="middle" x="407.397" y="-188.3" font-family="Times New Roman,serif" font-size="14.00">Hide_Animal</text>
</g>
<!-- Hide_Animal&#45;&gt;Scraps_Leather -->
<g id="edge7" class="edge"><title>Hide_Animal&#45;&gt;Scraps_Leather</title>
<path fill="none" stroke="black" d="M391.468,-174.532C380.95,-164.178 366.543,-150.944 352.397,-141 344.683,-135.577 336.027,-130.412 327.586,-125.795"/>
<polygon fill="black" stroke="black" points="329.042,-122.605 318.567,-121.014 325.763,-128.79 329.042,-122.605"/>
<text text-anchor="middle" x="397.397" y="-144.8" font-family="Times New Roman,serif" font-size="14.00">Crafting 1</text>
</g>
<!-- Knife -->
<g id="node9" class="node"><title>Knife</title>
<ellipse fill="none" stroke="black" cx="210.397" cy="-192" rx="30.5947" ry="18"/>
<text text-anchor="middle" x="210.397" y="-188.3" font-family="Times New Roman,serif" font-size="14.00">Knife</text>
</g>
<!-- Knife&#45;&gt;Scraps_Leather -->
<g id="edge8" class="edge"><title>Knife&#45;&gt;Scraps_Leather</title>
<path fill="none" stroke="black" d="M214.357,-173.836C217.411,-163.465 222.481,-150.468 230.397,-141 234.844,-135.681 240.314,-130.922 246.077,-126.756"/>
<polygon fill="black" stroke="black" points="248.241,-129.52 254.643,-121.078 244.374,-123.685 248.241,-129.52"/>
<text text-anchor="middle" x="258.397" y="-144.8" font-family="Times New Roman,serif" font-size="14.00">Crafting 1</text>
</g>
</g>
</svg>
