<?xml version="1.0" encoding="UTF-8" standalone="no"?>
<!DOCTYPE svg PUBLIC "-//W3C//DTD SVG 1.1//EN"
 "http://www.w3.org/Graphics/SVG/1.1/DTD/svg11.dtd">
<!-- Generated by graphviz version 2.38.0 (20140413.2041)
 -->
<!-- Title: G Pages: 1 -->
<svg width="473pt" height="305pt"
 viewBox="0.00 0.00 472.94 305.00" xmlns="http://www.w3.org/2000/svg" xmlns:xlink="http://www.w3.org/1999/xlink">
<g id="graph0" class="graph" transform="scale(1 1) rotate(0) translate(4 301)">
<title>G</title>
<polygon fill="white" stroke="none" points="-4,4 -4,-301 468.944,-301 468.944,4 -4,4"/>
<!-- Leather_H_Torso -->
<g id="node1" class="node"><title>Leather_H_Torso</title>
<ellipse fill="none" stroke="black" cx="226.397" cy="-18" rx="76.0865" ry="18"/>
<text text-anchor="middle" x="226.397" y="-14.3" font-family="Times New Roman,serif" font-size="14.00">Leather_H_Torso</text>
</g>
<!-- Dagger -->
<g id="node2" class="node"><title>Dagger</title>
<ellipse fill="none" stroke="black" cx="216.397" cy="-192" rx="36.2938" ry="18"/>
<text text-anchor="middle" x="216.397" y="-188.3" font-family="Times New Roman,serif" font-size="14.00">Dagger</text>
</g>
<!-- Scraps_Leather -->
<g id="node7" class="node"><title>Scraps_Leather</title>
<ellipse fill="none" stroke="black" cx="303.397" cy="-105" rx="67.6881" ry="18"/>
<text text-anchor="middle" x="303.397" y="-101.3" font-family="Times New Roman,serif" font-size="14.00">Scraps_Leather</text>
</g>
<!-- Dagger&#45;&gt;Scraps_Leather -->
<g id="edge1" class="edge"><title>Dagger&#45;&gt;Scraps_Leather</title>
<path fill="none" stroke="black" d="M227.305,-174.748C234.609,-164.479 244.798,-151.261 255.397,-141 260.065,-136.481 265.343,-132.066 270.647,-127.978"/>
<polygon fill="black" stroke="black" points="272.964,-130.617 278.92,-121.855 268.8,-124.991 272.964,-130.617"/>
<text text-anchor="middle" x="283.397" y="-144.8" font-family="Times New Roman,serif" font-size="14.00">Crafting 1</text>
</g>
<!-- Needle_Thread -->
<g id="node3" class="node"><title>Needle_Thread</title>
<ellipse fill="none" stroke="black" cx="126.397" cy="-105" rx="66.0889" ry="18"/>
<text text-anchor="middle" x="126.397" y="-101.3" font-family="Times New Roman,serif" font-size="14.00">Needle_Thread</text>
</g>
<!-- Needle_Thread&#45;&gt;Leather_H_Torso -->
<g id="edge2" class="edge"><title>Needle_Thread&#45;&gt;Leather_H_Torso</title>
<path fill="none" stroke="black" d="M145.678,-87.6111C160.798,-74.7591 182.037,-56.7059 198.934,-42.3437"/>
<polygon fill="black" stroke="black" points="201.481,-44.7719 206.834,-35.6286 196.948,-39.4383 201.481,-44.7719"/>
<text text-anchor="middle" x="210.397" y="-57.8" font-family="Times New Roman,serif" font-size="14.00">Crafting 4</text>
</g>
<!-- Thread -->
<g id="node4" class="node"><title>Thread</title>
<ellipse fill="none" stroke="black" cx="36.3968" cy="-192" rx="36.2938" ry="18"/>
<text text-anchor="middle" x="36.3968" y="-188.3" font-family="Times New Roman,serif" font-size="14.00">Thread</text>
</g>
<!-- Thread&#45;&gt;Needle_Thread -->
<g id="edge3" class="edge"><title>Thread&#45;&gt;Needle_Thread</title>
<path fill="none" stroke="black" d="M43.7673,-174.251C48.9786,-163.785 56.7458,-150.533 66.3968,-141 72.0071,-135.458 78.6661,-130.464 85.4719,-126.099"/>
<polygon fill="black" stroke="black" points="87.3341,-129.064 94.1033,-120.913 83.7289,-123.064 87.3341,-129.064"/>
<text text-anchor="middle" x="94.3968" y="-144.8" font-family="Times New Roman,serif" font-size="14.00">Crafting 0</text>
</g>
<!-- Needle -->
<g id="node5" class="node"><title>Needle</title>
<ellipse fill="none" stroke="black" cx="126.397" cy="-192" rx="35.9954" ry="18"/>
<text text-anchor="middle" x="126.397" y="-188.3" font-family="Times New Roman,serif" font-size="14.00">Needle</text>
</g>
<!-- Needle&#45;&gt;Needle_Thread -->
<g id="edge4" class="edge"><title>Needle&#45;&gt;Needle_Thread</title>
<path fill="none" stroke="black" d="M126.397,-173.799C126.397,-162.163 126.397,-146.548 126.397,-133.237"/>
<polygon fill="black" stroke="black" points="129.897,-133.175 126.397,-123.175 122.897,-133.175 129.897,-133.175"/>
<text text-anchor="middle" x="154.397" y="-144.8" font-family="Times New Roman,serif" font-size="14.00">Crafting 0</text>
</g>
<!-- Hair -->
<g id="node6" class="node"><title>Hair</title>
<ellipse fill="none" stroke="black" cx="36.3968" cy="-279" rx="27" ry="18"/>
<text text-anchor="middle" x="36.3968" y="-275.3" font-family="Times New Roman,serif" font-size="14.00">Hair</text>
</g>
<!-- Hair&#45;&gt;Thread -->
<g id="edge5" class="edge"><title>Hair&#45;&gt;Thread</title>
<path fill="none" stroke="black" d="M36.3968,-260.799C36.3968,-249.163 36.3968,-233.548 36.3968,-220.237"/>
<polygon fill="black" stroke="black" points="39.8969,-220.175 36.3968,-210.175 32.8969,-220.175 39.8969,-220.175"/>
<text text-anchor="middle" x="64.3968" y="-231.8" font-family="Times New Roman,serif" font-size="14.00">Crafting 0</text>
</g>
<!-- Scraps_Leather&#45;&gt;Leather_H_Torso -->
<g id="edge6" class="edge"><title>Scraps_Leather&#45;&gt;Leather_H_Torso</title>
<path fill="none" stroke="black" d="M288.184,-87.2067C276.794,-74.6335 261.049,-57.252 248.303,-43.1825"/>
<polygon fill="black" stroke="black" points="250.886,-40.8198 241.578,-35.7584 245.698,-45.5194 250.886,-40.8198"/>
<text text-anchor="middle" x="298.397" y="-57.8" font-family="Times New Roman,serif" font-size="14.00">Crafting 4</text>
</g>
<!-- Hide_Animal -->
<g id="node8" class="node"><title>Hide_Animal</title>
<ellipse fill="none" stroke="black" cx="328.397" cy="-192" rx="57.6901" ry="18"/>
<text text-anchor="middle" x="328.397" y="-188.3" font-family="Times New Roman,serif" font-size="14.00">Hide_Animal</text>
</g>
<!-- Hide_Animal&#45;&gt;Scraps_Leather -->
<g id="edge7" class="edge"><title>Hide_Animal&#45;&gt;Scraps_Leather</title>
<path fill="none" stroke="black" d="M323.338,-173.799C319.881,-162.047 315.232,-146.238 311.292,-132.842"/>
<polygon fill="black" stroke="black" points="314.628,-131.781 308.448,-123.175 307.912,-133.757 314.628,-131.781"/>
<text text-anchor="middle" x="345.397" y="-144.8" font-family="Times New Roman,serif" font-size="14.00">Crafting 1</text>
</g>
<!-- Knife -->
<g id="node9" class="node"><title>Knife</title>
<ellipse fill="none" stroke="black" cx="434.397" cy="-192" rx="30.5947" ry="18"/>
<text text-anchor="middle" x="434.397" y="-188.3" font-family="Times New Roman,serif" font-size="14.00">Knife</text>
</g>
<!-- Knife&#45;&gt;Scraps_Leather -->
<g id="edge8" class="edge"><title>Knife&#45;&gt;Scraps_Leather</title>
<path fill="none" stroke="black" d="M419.382,-175.735C408.405,-165.119 392.803,-151.114 377.397,-141 368.394,-135.089 358.236,-129.611 348.397,-124.827"/>
<polygon fill="black" stroke="black" points="349.648,-121.548 339.109,-120.462 346.67,-127.883 349.648,-121.548"/>
<text text-anchor="middle" x="425.397" y="-144.8" font-family="Times New Roman,serif" font-size="14.00">Crafting 1</text>
</g>
</g>
</svg>
