<?xml version="1.0" encoding="UTF-8" standalone="no"?>
<!DOCTYPE svg PUBLIC "-//W3C//DTD SVG 1.1//EN"
 "http://www.w3.org/Graphics/SVG/1.1/DTD/svg11.dtd">
<!-- Generated by graphviz version 2.38.0 (20140413.2041)
 -->
<!-- Title: G Pages: 1 -->
<svg width="427pt" height="218pt"
 viewBox="0.00 0.00 426.99 218.00" xmlns="http://www.w3.org/2000/svg" xmlns:xlink="http://www.w3.org/1999/xlink">
<g id="graph0" class="graph" transform="scale(1 1) rotate(0) translate(4 214)">
<title>G</title>
<polygon fill="white" stroke="none" points="-4,4 -4,-214 422.992,-214 422.992,4 -4,4"/>
<!-- LongSword -->
<g id="node1" class="node"><title>LongSword</title>
<ellipse fill="none" stroke="black" cx="136.097" cy="-18" rx="53.8905" ry="18"/>
<text text-anchor="middle" x="136.097" y="-14.3" font-family="Times New Roman,serif" font-size="14.00">LongSword</text>
</g>
<!-- Sword -->
<g id="node2" class="node"><title>Sword</title>
<ellipse fill="none" stroke="black" cx="35.0969" cy="-192" rx="35.194" ry="18"/>
<text text-anchor="middle" x="35.0969" y="-188.3" font-family="Times New Roman,serif" font-size="14.00">Sword</text>
</g>
<!-- OreBar_A_Iron -->
<g id="node5" class="node"><title>OreBar_A_Iron</title>
<ellipse fill="none" stroke="black" cx="204.097" cy="-105" rx="68.4888" ry="18"/>
<text text-anchor="middle" x="204.097" y="-101.3" font-family="Times New Roman,serif" font-size="14.00">OreBar_A_Iron</text>
</g>
<!-- Sword&#45;&gt;OreBar_A_Iron -->
<g id="edge1" class="edge"><title>Sword&#45;&gt;OreBar_A_Iron</title>
<path fill="none" stroke="black" d="M54.6365,-176.892C70.0279,-166.176 92.2879,-151.534 113.097,-141 125.979,-134.479 140.379,-128.418 153.855,-123.234"/>
<polygon fill="black" stroke="black" points="155.34,-126.415 163.47,-119.621 152.878,-119.863 155.34,-126.415"/>
<text text-anchor="middle" x="141.097" y="-144.8" font-family="Times New Roman,serif" font-size="14.00">Crafting 1</text>
</g>
<!-- Anvil -->
<g id="node3" class="node"><title>Anvil</title>
<ellipse fill="none" stroke="black" cx="88.0969" cy="-105" rx="29.795" ry="18"/>
<text text-anchor="middle" x="88.0969" y="-101.3" font-family="Times New Roman,serif" font-size="14.00">Anvil</text>
</g>
<!-- Anvil&#45;&gt;LongSword -->
<g id="edge2" class="edge"><title>Anvil&#45;&gt;LongSword</title>
<path fill="none" stroke="black" d="M92.9577,-87.1665C96.2151,-77.1615 101.02,-64.4308 107.097,-54 109.139,-50.4949 111.53,-46.9862 114.048,-43.6167"/>
<polygon fill="black" stroke="black" points="116.937,-45.6075 120.441,-35.6088 111.467,-41.2401 116.937,-45.6075"/>
<text text-anchor="middle" x="135.097" y="-57.8" font-family="Times New Roman,serif" font-size="14.00">Crafting 4</text>
</g>
<!-- Bone_A_Iron -->
<g id="node4" class="node"><title>Bone_A_Iron</title>
<ellipse fill="none" stroke="black" cx="149.097" cy="-192" rx="61.1893" ry="18"/>
<text text-anchor="middle" x="149.097" y="-188.3" font-family="Times New Roman,serif" font-size="14.00">Bone_A_Iron</text>
</g>
<!-- Bone_A_Iron&#45;&gt;OreBar_A_Iron -->
<g id="edge3" class="edge"><title>Bone_A_Iron&#45;&gt;OreBar_A_Iron</title>
<path fill="none" stroke="black" d="M160.006,-173.843C166.169,-164.178 174.031,-151.895 181.097,-141 183.055,-137.98 185.116,-134.82 187.167,-131.686"/>
<polygon fill="black" stroke="black" points="190.265,-133.344 192.825,-123.063 184.413,-129.503 190.265,-133.344"/>
<text text-anchor="middle" x="209.097" y="-144.8" font-family="Times New Roman,serif" font-size="14.00">Crafting 0</text>
</g>
<!-- OreBar_A_Iron&#45;&gt;LongSword -->
<g id="edge4" class="edge"><title>OreBar_A_Iron&#45;&gt;LongSword</title>
<path fill="none" stroke="black" d="M190.662,-87.2067C180.632,-74.669 166.777,-57.3502 155.538,-43.3018"/>
<polygon fill="black" stroke="black" points="158.252,-41.0914 149.272,-35.4692 152.786,-45.4643 158.252,-41.0914"/>
<text text-anchor="middle" x="203.097" y="-57.8" font-family="Times New Roman,serif" font-size="14.00">Crafting 4</text>
</g>
<!-- Oven -->
<g id="node6" class="node"><title>Oven</title>
<ellipse fill="none" stroke="black" cx="259.097" cy="-192" rx="30.5947" ry="18"/>
<text text-anchor="middle" x="259.097" y="-188.3" font-family="Times New Roman,serif" font-size="14.00">Oven</text>
</g>
<!-- Oven&#45;&gt;OreBar_A_Iron -->
<g id="edge5" class="edge"><title>Oven&#45;&gt;OreBar_A_Iron</title>
<path fill="none" stroke="black" d="M253.304,-174.055C249.474,-164.01 243.907,-151.277 237.097,-141 234.59,-137.217 231.66,-133.463 228.6,-129.896"/>
<polygon fill="black" stroke="black" points="231.131,-127.477 221.807,-122.447 225.959,-132.194 231.131,-127.477"/>
<text text-anchor="middle" x="274.097" y="-144.8" font-family="Times New Roman,serif" font-size="14.00">Crafting 1</text>
</g>
<!-- Ore_A_Iron -->
<g id="node7" class="node"><title>Ore_A_Iron</title>
<ellipse fill="none" stroke="black" cx="363.097" cy="-192" rx="55.7903" ry="18"/>
<text text-anchor="middle" x="363.097" y="-188.3" font-family="Times New Roman,serif" font-size="14.00">Ore_A_Iron</text>
</g>
<!-- Ore_A_Iron&#45;&gt;OreBar_A_Iron -->
<g id="edge6" class="edge"><title>Ore_A_Iron&#45;&gt;OreBar_A_Iron</title>
<path fill="none" stroke="black" d="M347.475,-174.259C336.704,-163.528 321.586,-149.978 306.097,-141 292.278,-132.99 276.342,-126.432 261.234,-121.248"/>
<polygon fill="black" stroke="black" points="262.049,-117.831 251.456,-118.037 259.866,-124.482 262.049,-117.831"/>
<text text-anchor="middle" x="354.097" y="-144.8" font-family="Times New Roman,serif" font-size="14.00">Crafting 0</text>
</g>
</g>
</svg>
