<?xml version="1.0" encoding="UTF-8" standalone="no"?>
<!DOCTYPE svg PUBLIC "-//W3C//DTD SVG 1.1//EN"
 "http://www.w3.org/Graphics/SVG/1.1/DTD/svg11.dtd">
<!-- Generated by graphviz version 2.38.0 (20140413.2041)
 -->
<!-- Title: G Pages: 1 -->
<svg width="232pt" height="131pt"
 viewBox="0.00 0.00 231.69 131.00" xmlns="http://www.w3.org/2000/svg" xmlns:xlink="http://www.w3.org/1999/xlink">
<g id="graph0" class="graph" transform="scale(1 1) rotate(0) translate(4 127)">
<title>G</title>
<polygon fill="white" stroke="none" points="-4,4 -4,-127 227.691,-127 227.691,4 -4,4"/>
<!-- Scraps_Metal -->
<g id="node1" class="node"><title>Scraps_Metal</title>
<ellipse fill="none" stroke="black" cx="61.0946" cy="-105" rx="61.1893" ry="18"/>
<text text-anchor="middle" x="61.0946" y="-101.3" font-family="Times New Roman,serif" font-size="14.00">Scraps_Metal</text>
</g>
<!-- Metal_F_Torso -->
<g id="node3" class="node"><title>Metal_F_Torso</title>
<ellipse fill="none" stroke="black" cx="121.095" cy="-18" rx="68.4888" ry="18"/>
<text text-anchor="middle" x="121.095" y="-14.3" font-family="Times New Roman,serif" font-size="14.00">Metal_F_Torso</text>
</g>
<!-- Scraps_Metal&#45;&gt;Metal_F_Torso -->
<g id="edge1" class="edge"><title>Scraps_Metal&#45;&gt;Metal_F_Torso</title>
<path fill="none" stroke="black" d="M72.9486,-87.2067C81.6595,-74.8663 93.6399,-57.8941 103.47,-43.9675"/>
<polygon fill="black" stroke="black" points="106.358,-45.9465 109.265,-35.7584 100.639,-41.9097 106.358,-45.9465"/>
<text text-anchor="middle" x="123.095" y="-57.8" font-family="Times New Roman,serif" font-size="14.00">Crafting 3</text>
</g>
<!-- Hammer -->
<g id="node2" class="node"><title>Hammer</title>
<ellipse fill="none" stroke="black" cx="182.095" cy="-105" rx="41.6928" ry="18"/>
<text text-anchor="middle" x="182.095" y="-101.3" font-family="Times New Roman,serif" font-size="14.00">Hammer</text>
</g>
<!-- Hammer&#45;&gt;Metal_F_Torso -->
<g id="edge2" class="edge"><title>Hammer&#45;&gt;Metal_F_Torso</title>
<path fill="none" stroke="black" d="M174.425,-87.1005C169.526,-77.0721 162.682,-64.34 155.095,-54 152.371,-50.2883 149.272,-46.5752 146.079,-43.0286"/>
<polygon fill="black" stroke="black" points="148.463,-40.4562 139.049,-35.5957 143.378,-45.2661 148.463,-40.4562"/>
<text text-anchor="middle" x="193.095" y="-57.8" font-family="Times New Roman,serif" font-size="14.00">Crafting 3</text>
</g>
</g>
</svg>
