<?xml version="1.0" encoding="UTF-8" standalone="no"?>
<!DOCTYPE svg PUBLIC "-//W3C//DTD SVG 1.1//EN"
 "http://www.w3.org/Graphics/SVG/1.1/DTD/svg11.dtd">
<!-- Generated by graphviz version 2.38.0 (20140413.2041)
 -->
<!-- Title: G Pages: 1 -->
<svg width="808pt" height="305pt"
 viewBox="0.00 0.00 807.90 305.00" xmlns="http://www.w3.org/2000/svg" xmlns:xlink="http://www.w3.org/1999/xlink">
<g id="graph0" class="graph" transform="scale(1 1) rotate(0) translate(4 301)">
<title>G</title>
<polygon fill="white" stroke="none" points="-4,4 -4,-301 803.897,-301 803.897,4 -4,4"/>
<!-- Pouch_Dust_Pixie -->
<g id="node1" class="node"><title>Pouch_Dust_Pixie</title>
<ellipse fill="none" stroke="black" cx="391.897" cy="-105" rx="78.7863" ry="18"/>
<text text-anchor="middle" x="391.897" y="-101.3" font-family="Times New Roman,serif" font-size="14.00">Pouch_Dust_Pixie</text>
</g>
<!-- Needle_Thread_A_Magic -->
<g id="node6" class="node"><title>Needle_Thread_A_Magic</title>
<ellipse fill="none" stroke="black" cx="574.897" cy="-18" rx="104.782" ry="18"/>
<text text-anchor="middle" x="574.897" y="-14.3" font-family="Times New Roman,serif" font-size="14.00">Needle_Thread_A_Magic</text>
</g>
<!-- Pouch_Dust_Pixie&#45;&gt;Needle_Thread_A_Magic -->
<g id="edge1" class="edge"><title>Pouch_Dust_Pixie&#45;&gt;Needle_Thread_A_Magic</title>
<path fill="none" stroke="black" d="M425.037,-88.6071C454.755,-74.804 498.567,-54.4538 531.153,-39.3183"/>
<polygon fill="black" stroke="black" points="532.855,-42.3869 540.45,-34.9999 529.907,-36.0383 532.855,-42.3869"/>
<text text-anchor="middle" x="522.897" y="-57.8" font-family="Times New Roman,serif" font-size="14.00">Crafting 1</text>
</g>
<!-- Needle_Thread -->
<g id="node2" class="node"><title>Needle_Thread</title>
<ellipse fill="none" stroke="black" cx="671.897" cy="-105" rx="66.0889" ry="18"/>
<text text-anchor="middle" x="671.897" y="-101.3" font-family="Times New Roman,serif" font-size="14.00">Needle_Thread</text>
</g>
<!-- Needle_Thread&#45;&gt;Needle_Thread_A_Magic -->
<g id="edge2" class="edge"><title>Needle_Thread&#45;&gt;Needle_Thread_A_Magic</title>
<path fill="none" stroke="black" d="M653.195,-87.6111C638.623,-74.842 618.192,-56.9386 601.854,-42.6221"/>
<polygon fill="black" stroke="black" points="604.034,-39.8786 594.206,-35.9203 599.421,-45.1432 604.034,-39.8786"/>
<text text-anchor="middle" x="656.897" y="-57.8" font-family="Times New Roman,serif" font-size="14.00">Crafting 1</text>
</g>
<!-- Thread -->
<g id="node3" class="node"><title>Thread</title>
<ellipse fill="none" stroke="black" cx="671.897" cy="-192" rx="36.2938" ry="18"/>
<text text-anchor="middle" x="671.897" y="-188.3" font-family="Times New Roman,serif" font-size="14.00">Thread</text>
</g>
<!-- Thread&#45;&gt;Needle_Thread -->
<g id="edge3" class="edge"><title>Thread&#45;&gt;Needle_Thread</title>
<path fill="none" stroke="black" d="M671.897,-173.799C671.897,-162.163 671.897,-146.548 671.897,-133.237"/>
<polygon fill="black" stroke="black" points="675.397,-133.175 671.897,-123.175 668.397,-133.175 675.397,-133.175"/>
<text text-anchor="middle" x="699.897" y="-144.8" font-family="Times New Roman,serif" font-size="14.00">Crafting 0</text>
</g>
<!-- Pouch_Dust_Bone -->
<g id="node4" class="node"><title>Pouch_Dust_Bone</title>
<ellipse fill="none" stroke="black" cx="150.897" cy="-192" rx="79.8859" ry="18"/>
<text text-anchor="middle" x="150.897" y="-188.3" font-family="Times New Roman,serif" font-size="14.00">Pouch_Dust_Bone</text>
</g>
<!-- Pouch_Dust_Bone&#45;&gt;Pouch_Dust_Pixie -->
<g id="edge4" class="edge"><title>Pouch_Dust_Bone&#45;&gt;Pouch_Dust_Pixie</title>
<path fill="none" stroke="black" d="M192.053,-176.485C233.385,-161.907 297.137,-139.422 341.48,-123.782"/>
<polygon fill="black" stroke="black" points="342.645,-127.083 350.912,-120.456 340.317,-120.481 342.645,-127.083"/>
<text text-anchor="middle" x="313.897" y="-144.8" font-family="Times New Roman,serif" font-size="14.00">Crafting 0</text>
</g>
<!-- Needle -->
<g id="node5" class="node"><title>Needle</title>
<ellipse fill="none" stroke="black" cx="761.897" cy="-192" rx="35.9954" ry="18"/>
<text text-anchor="middle" x="761.897" y="-188.3" font-family="Times New Roman,serif" font-size="14.00">Needle</text>
</g>
<!-- Needle&#45;&gt;Needle_Thread -->
<g id="edge5" class="edge"><title>Needle&#45;&gt;Needle_Thread</title>
<path fill="none" stroke="black" d="M754.527,-174.251C749.316,-163.785 741.548,-150.533 731.897,-141 726.287,-135.458 719.628,-130.464 712.822,-126.099"/>
<polygon fill="black" stroke="black" points="714.565,-123.064 704.191,-120.913 710.96,-129.064 714.565,-123.064"/>
<text text-anchor="middle" x="771.897" y="-144.8" font-family="Times New Roman,serif" font-size="14.00">Crafting 0</text>
</g>
<!-- Hair -->
<g id="node7" class="node"><title>Hair</title>
<ellipse fill="none" stroke="black" cx="681.897" cy="-279" rx="27" ry="18"/>
<text text-anchor="middle" x="681.897" y="-275.3" font-family="Times New Roman,serif" font-size="14.00">Hair</text>
</g>
<!-- Hair&#45;&gt;Thread -->
<g id="edge6" class="edge"><title>Hair&#45;&gt;Thread</title>
<path fill="none" stroke="black" d="M679.874,-260.799C678.505,-249.163 676.668,-233.548 675.102,-220.237"/>
<polygon fill="black" stroke="black" points="678.563,-219.698 673.918,-210.175 671.61,-220.516 678.563,-219.698"/>
<text text-anchor="middle" x="704.897" y="-231.8" font-family="Times New Roman,serif" font-size="14.00">Crafting 0</text>
</g>
<!-- Moonstone -->
<g id="node8" class="node"><title>Moonstone</title>
<ellipse fill="none" stroke="black" cx="584.897" cy="-279" rx="51.9908" ry="18"/>
<text text-anchor="middle" x="584.897" y="-275.3" font-family="Times New Roman,serif" font-size="14.00">Moonstone</text>
</g>
<!-- Pouch_Dust_Moon -->
<g id="node14" class="node"><title>Pouch_Dust_Moon</title>
<ellipse fill="none" stroke="black" cx="514.897" cy="-192" rx="83.3857" ry="18"/>
<text text-anchor="middle" x="514.897" y="-188.3" font-family="Times New Roman,serif" font-size="14.00">Pouch_Dust_Moon</text>
</g>
<!-- Moonstone&#45;&gt;Pouch_Dust_Moon -->
<g id="edge7" class="edge"><title>Moonstone&#45;&gt;Pouch_Dust_Moon</title>
<path fill="none" stroke="black" d="M579.937,-261.036C576.35,-250.741 570.746,-237.753 562.897,-228 559.341,-223.581 555.097,-219.445 550.626,-215.675"/>
<polygon fill="black" stroke="black" points="552.472,-212.677 542.43,-209.301 548.175,-218.203 552.472,-212.677"/>
<text text-anchor="middle" x="599.897" y="-231.8" font-family="Times New Roman,serif" font-size="14.00">Crafting 0</text>
</g>
<!-- Pouch_Dust_Star -->
<g id="node9" class="node"><title>Pouch_Dust_Star</title>
<ellipse fill="none" stroke="black" cx="337.897" cy="-192" rx="75.2868" ry="18"/>
<text text-anchor="middle" x="337.897" y="-188.3" font-family="Times New Roman,serif" font-size="14.00">Pouch_Dust_Star</text>
</g>
<!-- Pouch_Dust_Star&#45;&gt;Pouch_Dust_Pixie -->
<g id="edge8" class="edge"><title>Pouch_Dust_Star&#45;&gt;Pouch_Dust_Pixie</title>
<path fill="none" stroke="black" d="M348.825,-173.799C356.561,-161.622 367.064,-145.089 375.762,-131.398"/>
<polygon fill="black" stroke="black" points="378.762,-133.203 381.17,-122.885 372.854,-129.449 378.762,-133.203"/>
<text text-anchor="middle" x="396.897" y="-144.8" font-family="Times New Roman,serif" font-size="14.00">Crafting 0</text>
</g>
<!-- MortarPestle -->
<g id="node10" class="node"><title>MortarPestle</title>
<ellipse fill="none" stroke="black" cx="426.897" cy="-279" rx="57.3905" ry="18"/>
<text text-anchor="middle" x="426.897" y="-275.3" font-family="Times New Roman,serif" font-size="14.00">MortarPestle</text>
</g>
<!-- MortarPestle&#45;&gt;Pouch_Dust_Bone -->
<g id="edge12" class="edge"><title>MortarPestle&#45;&gt;Pouch_Dust_Bone</title>
<path fill="none" stroke="black" d="M390.779,-264.99C376.111,-259.098 359.271,-251.535 344.897,-243 335.647,-237.507 335.664,-232.513 325.897,-228 316.19,-223.514 266.056,-213.688 221.923,-205.585"/>
<polygon fill="black" stroke="black" points="222.499,-202.133 212.033,-203.779 221.242,-209.019 222.499,-202.133"/>
<text text-anchor="middle" x="372.897" y="-231.8" font-family="Times New Roman,serif" font-size="14.00">Crafting 0</text>
</g>
<!-- MortarPestle&#45;&gt;Pouch_Dust_Star -->
<g id="edge13" class="edge"><title>MortarPestle&#45;&gt;Pouch_Dust_Star</title>
<path fill="none" stroke="black" d="M422.431,-260.607C419.03,-250.151 413.448,-237.143 404.897,-228 399.351,-222.069 392.571,-216.961 385.479,-212.624"/>
<polygon fill="black" stroke="black" points="386.833,-209.37 376.397,-207.539 383.413,-215.478 386.833,-209.37"/>
<text text-anchor="middle" x="443.897" y="-231.8" font-family="Times New Roman,serif" font-size="14.00">Crafting 0</text>
</g>
<!-- MortarPestle&#45;&gt;Pouch_Dust_Moon -->
<g id="edge14" class="edge"><title>MortarPestle&#45;&gt;Pouch_Dust_Moon</title>
<path fill="none" stroke="black" d="M456.311,-263.465C465.799,-257.897 475.915,-250.948 483.897,-243 490.839,-236.089 496.93,-227.338 501.834,-219.097"/>
<polygon fill="black" stroke="black" points="505.021,-220.569 506.848,-210.133 498.911,-217.152 505.021,-220.569"/>
<text text-anchor="middle" x="524.897" y="-231.8" font-family="Times New Roman,serif" font-size="14.00">Crafting 0</text>
</g>
<!-- Herb_Stardust -->
<g id="node11" class="node"><title>Herb_Stardust</title>
<ellipse fill="none" stroke="black" cx="278.897" cy="-279" rx="63.8893" ry="18"/>
<text text-anchor="middle" x="278.897" y="-275.3" font-family="Times New Roman,serif" font-size="14.00">Herb_Stardust</text>
</g>
<!-- Herb_Stardust&#45;&gt;Pouch_Dust_Star -->
<g id="edge10" class="edge"><title>Herb_Stardust&#45;&gt;Pouch_Dust_Star</title>
<path fill="none" stroke="black" d="M270.163,-260.7C266.341,-250.529 263.926,-237.789 269.897,-228 273.748,-221.688 279.141,-216.465 285.223,-212.158"/>
<polygon fill="black" stroke="black" points="287.186,-215.059 293.864,-206.834 283.514,-209.1 287.186,-215.059"/>
<text text-anchor="middle" x="297.897" y="-231.8" font-family="Times New Roman,serif" font-size="14.00">Crafting 0</text>
</g>
<!-- Skull_Human -->
<g id="node12" class="node"><title>Skull_Human</title>
<ellipse fill="none" stroke="black" cx="137.897" cy="-279" rx="59.5901" ry="18"/>
<text text-anchor="middle" x="137.897" y="-275.3" font-family="Times New Roman,serif" font-size="14.00">Skull_Human</text>
</g>
<!-- Skull_Human&#45;&gt;Pouch_Dust_Bone -->
<g id="edge11" class="edge"><title>Skull_Human&#45;&gt;Pouch_Dust_Bone</title>
<path fill="none" stroke="black" d="M140.528,-260.799C142.308,-249.163 144.696,-233.548 146.732,-220.237"/>
<polygon fill="black" stroke="black" points="150.218,-220.59 148.271,-210.175 143.299,-219.531 150.218,-220.59"/>
<text text-anchor="middle" x="173.897" y="-231.8" font-family="Times New Roman,serif" font-size="14.00">Crafting 0</text>
</g>
<!-- Bone -->
<g id="node13" class="node"><title>Bone</title>
<ellipse fill="none" stroke="black" cx="29.8973" cy="-279" rx="29.795" ry="18"/>
<text text-anchor="middle" x="29.8973" y="-275.3" font-family="Times New Roman,serif" font-size="14.00">Bone</text>
</g>
<!-- Bone&#45;&gt;Pouch_Dust_Bone -->
<g id="edge9" class="edge"><title>Bone&#45;&gt;Pouch_Dust_Bone</title>
<path fill="none" stroke="black" d="M44.1072,-262.855C54.4995,-252.295 69.279,-238.308 83.8973,-228 91.4585,-222.668 99.9365,-217.619 108.253,-213.1"/>
<polygon fill="black" stroke="black" points="109.939,-216.168 117.162,-208.418 106.682,-209.972 109.939,-216.168"/>
<text text-anchor="middle" x="111.897" y="-231.8" font-family="Times New Roman,serif" font-size="14.00">Crafting 0</text>
</g>
<!-- Pouch_Dust_Moon&#45;&gt;Pouch_Dust_Pixie -->
<g id="edge15" class="edge"><title>Pouch_Dust_Moon&#45;&gt;Pouch_Dust_Pixie</title>
<path fill="none" stroke="black" d="M491.182,-174.611C472.039,-161.382 444.921,-142.643 423.863,-128.09"/>
<polygon fill="black" stroke="black" points="425.757,-125.144 415.54,-122.339 421.777,-130.903 425.757,-125.144"/>
<text text-anchor="middle" x="488.897" y="-144.8" font-family="Times New Roman,serif" font-size="14.00">Crafting 0</text>
</g>
</g>
</svg>
