<?xml version="1.0" encoding="UTF-8" standalone="no"?>
<!DOCTYPE svg PUBLIC "-//W3C//DTD SVG 1.1//EN"
 "http://www.w3.org/Graphics/SVG/1.1/DTD/svg11.dtd">
<!-- Generated by graphviz version 2.38.0 (20140413.2041)
 -->
<!-- Title: G Pages: 1 -->
<svg width="637pt" height="392pt"
 viewBox="0.00 0.00 636.54 392.00" xmlns="http://www.w3.org/2000/svg" xmlns:xlink="http://www.w3.org/1999/xlink">
<g id="graph0" class="graph" transform="scale(1 1) rotate(0) translate(4 388)">
<title>G</title>
<polygon fill="white" stroke="none" points="-4,4 -4,-388 632.536,-388 632.536,4 -4,4"/>
<!-- OreBar_A_Steel_A_Large -->
<g id="node1" class="node"><title>OreBar_A_Steel_A_Large</title>
<ellipse fill="none" stroke="black" cx="201.641" cy="-105" rx="107.482" ry="18"/>
<text text-anchor="middle" x="201.641" y="-101.3" font-family="Times New Roman,serif" font-size="14.00">OreBar_A_Steel_A_Large</text>
</g>
<!-- PeasantsBlackBillPolearm -->
<g id="node9" class="node"><title>PeasantsBlackBillPolearm</title>
<ellipse fill="none" stroke="black" cx="104.641" cy="-18" rx="104.782" ry="18"/>
<text text-anchor="middle" x="104.641" y="-14.3" font-family="Times New Roman,serif" font-size="14.00">PeasantsBlackBillPolearm</text>
</g>
<!-- OreBar_A_Steel_A_Large&#45;&gt;PeasantsBlackBillPolearm -->
<g id="edge1" class="edge"><title>OreBar_A_Steel_A_Large&#45;&gt;PeasantsBlackBillPolearm</title>
<path fill="none" stroke="black" d="M182.477,-87.2067C167.863,-74.4006 147.556,-56.6066 131.349,-42.4043"/>
<polygon fill="black" stroke="black" points="133.593,-39.7166 123.765,-35.7584 128.979,-44.9813 133.593,-39.7166"/>
<text text-anchor="middle" x="187.641" y="-57.8" font-family="Times New Roman,serif" font-size="14.00">Crafting 2</text>
</g>
<!-- Sword -->
<g id="node2" class="node"><title>Sword</title>
<ellipse fill="none" stroke="black" cx="323.641" cy="-366" rx="35.194" ry="18"/>
<text text-anchor="middle" x="323.641" y="-362.3" font-family="Times New Roman,serif" font-size="14.00">Sword</text>
</g>
<!-- OreBar_A_Iron -->
<g id="node6" class="node"><title>OreBar_A_Iron</title>
<ellipse fill="none" stroke="black" cx="367.641" cy="-279" rx="68.4888" ry="18"/>
<text text-anchor="middle" x="367.641" y="-275.3" font-family="Times New Roman,serif" font-size="14.00">OreBar_A_Iron</text>
</g>
<!-- Sword&#45;&gt;OreBar_A_Iron -->
<g id="edge7" class="edge"><title>Sword&#45;&gt;OreBar_A_Iron</title>
<path fill="none" stroke="black" d="M332.334,-348.207C338.56,-336.178 347.065,-319.748 354.168,-306.028"/>
<polygon fill="black" stroke="black" points="357.326,-307.539 358.815,-297.049 351.11,-304.321 357.326,-307.539"/>
<text text-anchor="middle" x="375.641" y="-318.8" font-family="Times New Roman,serif" font-size="14.00">Crafting 1</text>
</g>
<!-- TwoHandedSword -->
<g id="node3" class="node"><title>TwoHandedSword</title>
<ellipse fill="none" stroke="black" cx="534.641" cy="-279" rx="80.6858" ry="18"/>
<text text-anchor="middle" x="534.641" y="-275.3" font-family="Times New Roman,serif" font-size="14.00">TwoHandedSword</text>
</g>
<!-- OreBar_A_Iron_A_Large -->
<g id="node10" class="node"><title>OreBar_A_Iron_A_Large</title>
<ellipse fill="none" stroke="black" cx="307.641" cy="-192" rx="104.782" ry="18"/>
<text text-anchor="middle" x="307.641" y="-188.3" font-family="Times New Roman,serif" font-size="14.00">OreBar_A_Iron_A_Large</text>
</g>
<!-- TwoHandedSword&#45;&gt;OreBar_A_Iron_A_Large -->
<g id="edge4" class="edge"><title>TwoHandedSword&#45;&gt;OreBar_A_Iron_A_Large</title>
<path fill="none" stroke="black" d="M495.1,-263.194C457.351,-249.059 400.27,-227.685 359.015,-212.237"/>
<polygon fill="black" stroke="black" points="360.009,-208.872 349.416,-208.643 357.554,-215.427 360.009,-208.872"/>
<text text-anchor="middle" x="462.641" y="-231.8" font-family="Times New Roman,serif" font-size="14.00">Crafting 1</text>
</g>
<!-- Anvil -->
<g id="node4" class="node"><title>Anvil</title>
<ellipse fill="none" stroke="black" cx="46.6407" cy="-105" rx="29.795" ry="18"/>
<text text-anchor="middle" x="46.6407" y="-101.3" font-family="Times New Roman,serif" font-size="14.00">Anvil</text>
</g>
<!-- Anvil&#45;&gt;PeasantsBlackBillPolearm -->
<g id="edge2" class="edge"><title>Anvil&#45;&gt;PeasantsBlackBillPolearm</title>
<path fill="none" stroke="black" d="M57.5501,-88.0122C65.9199,-75.746 77.6371,-58.5742 87.2895,-44.4285"/>
<polygon fill="black" stroke="black" points="90.2389,-46.3158 92.9842,-36.0828 84.4567,-42.3703 90.2389,-46.3158"/>
<text text-anchor="middle" x="107.641" y="-57.8" font-family="Times New Roman,serif" font-size="14.00">Crafting 2</text>
</g>
<!-- Bone_A_Iron -->
<g id="node5" class="node"><title>Bone_A_Iron</title>
<ellipse fill="none" stroke="black" cx="437.641" cy="-366" rx="61.1893" ry="18"/>
<text text-anchor="middle" x="437.641" y="-362.3" font-family="Times New Roman,serif" font-size="14.00">Bone_A_Iron</text>
</g>
<!-- Bone_A_Iron&#45;&gt;OreBar_A_Iron -->
<g id="edge5" class="edge"><title>Bone_A_Iron&#45;&gt;OreBar_A_Iron</title>
<path fill="none" stroke="black" d="M429.126,-347.924C423.685,-337.834 416.08,-325.098 407.641,-315 404.251,-310.944 400.376,-306.951 396.402,-303.196"/>
<polygon fill="black" stroke="black" points="398.518,-300.392 388.739,-296.313 393.84,-305.6 398.518,-300.392"/>
<text text-anchor="middle" x="445.641" y="-318.8" font-family="Times New Roman,serif" font-size="14.00">Crafting 0</text>
</g>
<!-- OreBar_A_Iron&#45;&gt;OreBar_A_Iron_A_Large -->
<g id="edge6" class="edge"><title>OreBar_A_Iron&#45;&gt;OreBar_A_Iron_A_Large</title>
<path fill="none" stroke="black" d="M355.787,-261.207C347.132,-248.946 335.251,-232.114 325.457,-218.239"/>
<polygon fill="black" stroke="black" points="328.302,-216.201 319.676,-210.049 322.583,-220.237 328.302,-216.201"/>
<text text-anchor="middle" x="368.641" y="-231.8" font-family="Times New Roman,serif" font-size="14.00">Crafting 0</text>
</g>
<!-- Oven -->
<g id="node7" class="node"><title>Oven</title>
<ellipse fill="none" stroke="black" cx="225.641" cy="-366" rx="30.5947" ry="18"/>
<text text-anchor="middle" x="225.641" y="-362.3" font-family="Times New Roman,serif" font-size="14.00">Oven</text>
</g>
<!-- Oven&#45;&gt;OreBar_A_Steel_A_Large -->
<g id="edge9" class="edge"><title>Oven&#45;&gt;OreBar_A_Steel_A_Large</title>
<path fill="none" stroke="black" d="M218.524,-348.426C209.027,-325.323 192.705,-281.888 186.641,-243 180.724,-205.057 188.122,-160.842 194.465,-133.132"/>
<polygon fill="black" stroke="black" points="197.878,-133.91 196.814,-123.368 191.072,-132.272 197.878,-133.91"/>
<text text-anchor="middle" x="214.641" y="-231.8" font-family="Times New Roman,serif" font-size="14.00">Crafting 1</text>
</g>
<!-- Oven&#45;&gt;OreBar_A_Iron -->
<g id="edge8" class="edge"><title>Oven&#45;&gt;OreBar_A_Iron</title>
<path fill="none" stroke="black" d="M240.034,-349.948C250.957,-339.161 266.757,-324.855 282.641,-315 293.448,-308.294 305.764,-302.372 317.602,-297.395"/>
<polygon fill="black" stroke="black" points="318.999,-300.605 326.956,-293.609 316.373,-294.116 318.999,-300.605"/>
<text text-anchor="middle" x="310.641" y="-318.8" font-family="Times New Roman,serif" font-size="14.00">Crafting 1</text>
</g>
<!-- Oven&#45;&gt;OreBar_A_Iron_A_Large -->
<g id="edge10" class="edge"><title>Oven&#45;&gt;OreBar_A_Iron_A_Large</title>
<path fill="none" stroke="black" d="M223.5,-347.807C221.614,-326.335 220.982,-289.02 234.641,-261 243.414,-243.003 259.148,-227.395 273.768,-215.687"/>
<polygon fill="black" stroke="black" points="275.913,-218.452 281.724,-209.593 271.657,-212.895 275.913,-218.452"/>
<text text-anchor="middle" x="262.641" y="-275.3" font-family="Times New Roman,serif" font-size="14.00">Crafting 1</text>
</g>
<!-- Ore_A_Iron -->
<g id="node8" class="node"><title>Ore_A_Iron</title>
<ellipse fill="none" stroke="black" cx="572.641" cy="-366" rx="55.7903" ry="18"/>
<text text-anchor="middle" x="572.641" y="-362.3" font-family="Times New Roman,serif" font-size="14.00">Ore_A_Iron</text>
</g>
<!-- Ore_A_Iron&#45;&gt;OreBar_A_Iron -->
<g id="edge11" class="edge"><title>Ore_A_Iron&#45;&gt;OreBar_A_Iron</title>
<path fill="none" stroke="black" d="M547.029,-349.936C528.241,-339.281 501.884,-325.143 477.641,-315 460.092,-307.658 440.434,-300.948 422.643,-295.412"/>
<polygon fill="black" stroke="black" points="423.563,-292.033 412.977,-292.46 421.518,-298.728 423.563,-292.033"/>
<text text-anchor="middle" x="537.641" y="-318.8" font-family="Times New Roman,serif" font-size="14.00">Crafting 0</text>
</g>
<!-- OreBar_A_Iron_A_Large&#45;&gt;OreBar_A_Steel_A_Large -->
<g id="edge3" class="edge"><title>OreBar_A_Iron_A_Large&#45;&gt;OreBar_A_Steel_A_Large</title>
<path fill="none" stroke="black" d="M286.699,-174.207C270.583,-161.284 248.134,-143.283 230.345,-129.018"/>
<polygon fill="black" stroke="black" points="232.531,-126.284 222.539,-122.758 228.151,-131.745 232.531,-126.284"/>
<text text-anchor="middle" x="288.641" y="-144.8" font-family="Times New Roman,serif" font-size="14.00">Crafting 1</text>
</g>
</g>
</svg>
