<?xml version="1.0" encoding="UTF-8" standalone="no"?>
<!DOCTYPE svg PUBLIC "-//W3C//DTD SVG 1.1//EN"
 "http://www.w3.org/Graphics/SVG/1.1/DTD/svg11.dtd">
<!-- Generated by graphviz version 2.38.0 (20140413.2041)
 -->
<!-- Title: G Pages: 1 -->
<svg width="255pt" height="218pt"
 viewBox="0.00 0.00 255.15 218.00" xmlns="http://www.w3.org/2000/svg" xmlns:xlink="http://www.w3.org/1999/xlink">
<g id="graph0" class="graph" transform="scale(1 1) rotate(0) translate(4 214)">
<title>G</title>
<polygon fill="white" stroke="none" points="-4,4 -4,-214 251.146,-214 251.146,4 -4,4"/>
<!-- Pie_Cyseal -->
<g id="node1" class="node"><title>Pie_Cyseal</title>
<ellipse fill="none" stroke="black" cx="168.146" cy="-18" rx="51.1914" ry="18"/>
<text text-anchor="middle" x="168.146" y="-14.3" font-family="Times New Roman,serif" font-size="14.00">Pie_Cyseal</text>
</g>
<!-- FoodFish -->
<g id="node2" class="node"><title>FoodFish</title>
<ellipse fill="none" stroke="black" cx="46.1459" cy="-192" rx="46.2923" ry="18"/>
<text text-anchor="middle" x="46.1459" y="-188.3" font-family="Times New Roman,serif" font-size="14.00">FoodFish</text>
</g>
<!-- Dough_Cyseal -->
<g id="node3" class="node"><title>Dough_Cyseal</title>
<ellipse fill="none" stroke="black" cx="95.1459" cy="-105" rx="64.189" ry="18"/>
<text text-anchor="middle" x="95.1459" y="-101.3" font-family="Times New Roman,serif" font-size="14.00">Dough_Cyseal</text>
</g>
<!-- FoodFish&#45;&gt;Dough_Cyseal -->
<g id="edge1" class="edge"><title>FoodFish&#45;&gt;Dough_Cyseal</title>
<path fill="none" stroke="black" d="M52.0285,-173.77C55.7394,-163.86 60.9894,-151.36 67.1459,-141 69.1895,-137.561 71.5413,-134.092 73.9953,-130.744"/>
<polygon fill="black" stroke="black" points="76.8279,-132.802 80.1882,-122.754 71.2954,-128.514 76.8279,-132.802"/>
<text text-anchor="middle" x="95.1459" y="-144.8" font-family="Times New Roman,serif" font-size="14.00">Crafting 0</text>
</g>
<!-- Dough_Cyseal&#45;&gt;Pie_Cyseal -->
<g id="edge2" class="edge"><title>Dough_Cyseal&#45;&gt;Pie_Cyseal</title>
<path fill="none" stroke="black" d="M103.952,-86.8688C109.578,-76.7584 117.436,-64.0213 126.146,-54 130.055,-49.5025 134.573,-45.1059 139.166,-41.0313"/>
<polygon fill="black" stroke="black" points="141.494,-43.6458 146.872,-34.5169 136.975,-38.3 141.494,-43.6458"/>
<text text-anchor="middle" x="154.146" y="-57.8" font-family="Times New Roman,serif" font-size="14.00">Crafting 0</text>
</g>
<!-- Dough -->
<g id="node4" class="node"><title>Dough</title>
<ellipse fill="none" stroke="black" cx="145.146" cy="-192" rx="35.194" ry="18"/>
<text text-anchor="middle" x="145.146" y="-188.3" font-family="Times New Roman,serif" font-size="14.00">Dough</text>
</g>
<!-- Dough&#45;&gt;Dough_Cyseal -->
<g id="edge3" class="edge"><title>Dough&#45;&gt;Dough_Cyseal</title>
<path fill="none" stroke="black" d="M139.046,-174.249C135.107,-164.274 129.533,-151.545 123.146,-141 121.073,-137.579 118.704,-134.12 116.241,-130.777"/>
<polygon fill="black" stroke="black" points="118.938,-128.544 110.04,-122.792 113.41,-132.837 118.938,-128.544"/>
<text text-anchor="middle" x="159.146" y="-144.8" font-family="Times New Roman,serif" font-size="14.00">Crafting 0</text>
</g>
<!-- Oven -->
<g id="node5" class="node"><title>Oven</title>
<ellipse fill="none" stroke="black" cx="208.146" cy="-105" rx="30.5947" ry="18"/>
<text text-anchor="middle" x="208.146" y="-101.3" font-family="Times New Roman,serif" font-size="14.00">Oven</text>
</g>
<!-- Oven&#45;&gt;Pie_Cyseal -->
<g id="edge4" class="edge"><title>Oven&#45;&gt;Pie_Cyseal</title>
<path fill="none" stroke="black" d="M200.243,-87.2067C194.637,-75.2934 186.999,-59.0634 180.581,-45.4242"/>
<polygon fill="black" stroke="black" points="183.594,-43.6072 176.169,-36.0493 177.26,-46.5878 183.594,-43.6072"/>
<text text-anchor="middle" x="219.146" y="-57.8" font-family="Times New Roman,serif" font-size="14.00">Crafting 0</text>
</g>
</g>
</svg>
