<?xml version="1.0" encoding="UTF-8" standalone="no"?>
<!DOCTYPE svg PUBLIC "-//W3C//DTD SVG 1.1//EN"
 "http://www.w3.org/Graphics/SVG/1.1/DTD/svg11.dtd">
<!-- Generated by graphviz version 2.38.0 (20140413.2041)
 -->
<!-- Title: G Pages: 1 -->
<svg width="233pt" height="218pt"
 viewBox="0.00 0.00 232.55 218.00" xmlns="http://www.w3.org/2000/svg" xmlns:xlink="http://www.w3.org/1999/xlink">
<g id="graph0" class="graph" transform="scale(1 1) rotate(0) translate(4 214)">
<title>G</title>
<polygon fill="white" stroke="none" points="-4,4 -4,-214 228.547,-214 228.547,4 -4,4"/>
<!-- Pie_Apple -->
<g id="node1" class="node"><title>Pie_Apple</title>
<ellipse fill="none" stroke="black" cx="77.5473" cy="-18" rx="48.9926" ry="18"/>
<text text-anchor="middle" x="77.5473" y="-14.3" font-family="Times New Roman,serif" font-size="14.00">Pie_Apple</text>
</g>
<!-- Dough -->
<g id="node2" class="node"><title>Dough</title>
<ellipse fill="none" stroke="black" cx="97.5473" cy="-192" rx="35.194" ry="18"/>
<text text-anchor="middle" x="97.5473" y="-188.3" font-family="Times New Roman,serif" font-size="14.00">Dough</text>
</g>
<!-- Dough_Apple -->
<g id="node5" class="node"><title>Dough_Apple</title>
<ellipse fill="none" stroke="black" cx="140.547" cy="-105" rx="61.99" ry="18"/>
<text text-anchor="middle" x="140.547" y="-101.3" font-family="Times New Roman,serif" font-size="14.00">Dough_Apple</text>
</g>
<!-- Dough&#45;&gt;Dough_Apple -->
<g id="edge2" class="edge"><title>Dough&#45;&gt;Dough_Apple</title>
<path fill="none" stroke="black" d="M97.6771,-173.983C98.3692,-163.913 100.351,-151.179 105.547,-141 107.625,-136.929 110.351,-133.039 113.365,-129.43"/>
<polygon fill="black" stroke="black" points="116.019,-131.717 120.285,-122.019 110.902,-126.94 116.019,-131.717"/>
<text text-anchor="middle" x="133.547" y="-144.8" font-family="Times New Roman,serif" font-size="14.00">Crafting 0</text>
</g>
<!-- Apple -->
<g id="node3" class="node"><title>Apple</title>
<ellipse fill="none" stroke="black" cx="183.547" cy="-192" rx="32.4942" ry="18"/>
<text text-anchor="middle" x="183.547" y="-188.3" font-family="Times New Roman,serif" font-size="14.00">Apple</text>
</g>
<!-- Apple&#45;&gt;Dough_Apple -->
<g id="edge3" class="edge"><title>Apple&#45;&gt;Dough_Apple</title>
<path fill="none" stroke="black" d="M176.731,-174.086C172.626,-164.282 167.126,-151.782 161.547,-141 159.935,-137.885 158.162,-134.665 156.349,-131.499"/>
<polygon fill="black" stroke="black" points="159.338,-129.677 151.239,-122.845 153.31,-133.236 159.338,-129.677"/>
<text text-anchor="middle" x="196.547" y="-144.8" font-family="Times New Roman,serif" font-size="14.00">Crafting 0</text>
</g>
<!-- Oven -->
<g id="node4" class="node"><title>Oven</title>
<ellipse fill="none" stroke="black" cx="30.5473" cy="-105" rx="30.5947" ry="18"/>
<text text-anchor="middle" x="30.5473" y="-101.3" font-family="Times New Roman,serif" font-size="14.00">Oven</text>
</g>
<!-- Oven&#45;&gt;Pie_Apple -->
<g id="edge1" class="edge"><title>Oven&#45;&gt;Pie_Apple</title>
<path fill="none" stroke="black" d="M34.1016,-87.0701C36.6536,-77.031 40.688,-64.2982 46.5473,-54 48.7149,-50.1902 51.3474,-46.4304 54.1522,-42.8689"/>
<polygon fill="black" stroke="black" points="57.0465,-44.8689 60.8717,-34.9888 51.72,-40.327 57.0465,-44.8689"/>
<text text-anchor="middle" x="74.5473" y="-57.8" font-family="Times New Roman,serif" font-size="14.00">Crafting 0</text>
</g>
<!-- Dough_Apple&#45;&gt;Pie_Apple -->
<g id="edge4" class="edge"><title>Dough_Apple&#45;&gt;Pie_Apple</title>
<path fill="none" stroke="black" d="M128.101,-87.2067C118.895,-74.7862 106.211,-57.6735 95.8518,-43.6965"/>
<polygon fill="black" stroke="black" points="98.5203,-41.419 89.7538,-35.4692 92.8965,-45.5872 98.5203,-41.419"/>
<text text-anchor="middle" x="141.547" y="-57.8" font-family="Times New Roman,serif" font-size="14.00">Crafting 0</text>
</g>
</g>
</svg>
