<?xml version="1.0" encoding="UTF-8" standalone="no"?>
<!DOCTYPE svg PUBLIC "-//W3C//DTD SVG 1.1//EN"
 "http://www.w3.org/Graphics/SVG/1.1/DTD/svg11.dtd">
<!-- Generated by graphviz version 2.38.0 (20140413.2041)
 -->
<!-- Title: G Pages: 1 -->
<svg width="309pt" height="305pt"
 viewBox="0.00 0.00 308.65 305.00" xmlns="http://www.w3.org/2000/svg" xmlns:xlink="http://www.w3.org/1999/xlink">
<g id="graph0" class="graph" transform="scale(1 1) rotate(0) translate(4 301)">
<title>G</title>
<polygon fill="white" stroke="none" points="-4,4 -4,-301 304.646,-301 304.646,4 -4,4"/>
<!-- Tomato -->
<g id="node1" class="node"><title>Tomato</title>
<ellipse fill="none" stroke="black" cx="39.6465" cy="-279" rx="39.7935" ry="18"/>
<text text-anchor="middle" x="39.6465" y="-275.3" font-family="Times New Roman,serif" font-size="14.00">Tomato</text>
</g>
<!-- Tomato_Sauce -->
<g id="node2" class="node"><title>Tomato_Sauce</title>
<ellipse fill="none" stroke="black" cx="88.6465" cy="-192" rx="66.0889" ry="18"/>
<text text-anchor="middle" x="88.6465" y="-188.3" font-family="Times New Roman,serif" font-size="14.00">Tomato_Sauce</text>
</g>
<!-- Tomato&#45;&gt;Tomato_Sauce -->
<g id="edge1" class="edge"><title>Tomato&#45;&gt;Tomato_Sauce</title>
<path fill="none" stroke="black" d="M45.5291,-260.77C49.2399,-250.86 54.4899,-238.36 60.6465,-228 62.69,-224.561 65.0419,-221.092 67.4959,-217.744"/>
<polygon fill="black" stroke="black" points="70.3285,-219.802 73.6887,-209.754 64.796,-215.514 70.3285,-219.802"/>
<text text-anchor="middle" x="88.6465" y="-231.8" font-family="Times New Roman,serif" font-size="14.00">Crafting 0</text>
</g>
<!-- Dough_Pizza -->
<g id="node4" class="node"><title>Dough_Pizza</title>
<ellipse fill="none" stroke="black" cx="157.646" cy="-105" rx="59.2899" ry="18"/>
<text text-anchor="middle" x="157.646" y="-101.3" font-family="Times New Roman,serif" font-size="14.00">Dough_Pizza</text>
</g>
<!-- Tomato_Sauce&#45;&gt;Dough_Pizza -->
<g id="edge2" class="edge"><title>Tomato_Sauce&#45;&gt;Dough_Pizza</title>
<path fill="none" stroke="black" d="M97.6355,-174.024C103.325,-163.968 111.187,-151.234 119.646,-141 122.989,-136.956 126.789,-132.932 130.661,-129.131"/>
<polygon fill="black" stroke="black" points="133.204,-131.545 138.098,-122.148 128.412,-126.442 133.204,-131.545"/>
<text text-anchor="middle" x="147.646" y="-144.8" font-family="Times New Roman,serif" font-size="14.00">Crafting 0</text>
</g>
<!-- Dough -->
<g id="node3" class="node"><title>Dough</title>
<ellipse fill="none" stroke="black" cx="207.646" cy="-192" rx="35.194" ry="18"/>
<text text-anchor="middle" x="207.646" y="-188.3" font-family="Times New Roman,serif" font-size="14.00">Dough</text>
</g>
<!-- Dough&#45;&gt;Dough_Pizza -->
<g id="edge3" class="edge"><title>Dough&#45;&gt;Dough_Pizza</title>
<path fill="none" stroke="black" d="M198.006,-174.611C190.836,-162.422 180.914,-145.556 172.703,-131.596"/>
<polygon fill="black" stroke="black" points="175.687,-129.765 167.6,-122.92 169.653,-133.314 175.687,-129.765"/>
<text text-anchor="middle" x="212.646" y="-144.8" font-family="Times New Roman,serif" font-size="14.00">Crafting 0</text>
</g>
<!-- Pizza -->
<g id="node7" class="node"><title>Pizza</title>
<ellipse fill="none" stroke="black" cx="218.646" cy="-18" rx="29.795" ry="18"/>
<text text-anchor="middle" x="218.646" y="-14.3" font-family="Times New Roman,serif" font-size="14.00">Pizza</text>
</g>
<!-- Dough_Pizza&#45;&gt;Pizza -->
<g id="edge4" class="edge"><title>Dough_Pizza&#45;&gt;Pizza</title>
<path fill="none" stroke="black" d="M162.697,-86.8005C166.184,-76.6659 171.487,-63.9273 178.646,-54 182.472,-48.6955 187.245,-43.6454 192.148,-39.1155"/>
<polygon fill="black" stroke="black" points="194.567,-41.6514 199.842,-32.4634 189.988,-36.3562 194.567,-41.6514"/>
<text text-anchor="middle" x="206.646" y="-57.8" font-family="Times New Roman,serif" font-size="14.00">Crafting 0</text>
</g>
<!-- Oven -->
<g id="node5" class="node"><title>Oven</title>
<ellipse fill="none" stroke="black" cx="265.646" cy="-105" rx="30.5947" ry="18"/>
<text text-anchor="middle" x="265.646" y="-101.3" font-family="Times New Roman,serif" font-size="14.00">Oven</text>
</g>
<!-- Oven&#45;&gt;Pizza -->
<g id="edge5" class="edge"><title>Oven&#45;&gt;Pizza</title>
<path fill="none" stroke="black" d="M256.584,-87.6111C249.822,-75.3817 240.456,-58.4429 232.722,-44.456"/>
<polygon fill="black" stroke="black" points="235.583,-42.3962 227.681,-35.3385 229.457,-45.7835 235.583,-42.3962"/>
<text text-anchor="middle" x="272.646" y="-57.8" font-family="Times New Roman,serif" font-size="14.00">Crafting 0</text>
</g>
<!-- Hammer -->
<g id="node6" class="node"><title>Hammer</title>
<ellipse fill="none" stroke="black" cx="138.646" cy="-279" rx="41.6928" ry="18"/>
<text text-anchor="middle" x="138.646" y="-275.3" font-family="Times New Roman,serif" font-size="14.00">Hammer</text>
</g>
<!-- Hammer&#45;&gt;Tomato_Sauce -->
<g id="edge6" class="edge"><title>Hammer&#45;&gt;Tomato_Sauce</title>
<path fill="none" stroke="black" d="M132.363,-260.787C128.436,-250.883 122.936,-238.383 116.646,-228 114.574,-224.579 112.205,-221.12 109.742,-217.777"/>
<polygon fill="black" stroke="black" points="112.439,-215.544 103.541,-209.792 106.91,-219.837 112.439,-215.544"/>
<text text-anchor="middle" x="152.646" y="-231.8" font-family="Times New Roman,serif" font-size="14.00">Crafting 0</text>
</g>
</g>
</svg>
