<?xml version="1.0" encoding="UTF-8" standalone="no"?>
<!DOCTYPE svg PUBLIC "-//W3C//DTD SVG 1.1//EN"
 "http://www.w3.org/Graphics/SVG/1.1/DTD/svg11.dtd">
<!-- Generated by graphviz version 2.38.0 (20140413.2041)
 -->
<!-- Title: G Pages: 1 -->
<svg width="270pt" height="131pt"
 viewBox="0.00 0.00 270.19 131.00" xmlns="http://www.w3.org/2000/svg" xmlns:xlink="http://www.w3.org/1999/xlink">
<g id="graph0" class="graph" transform="scale(1 1) rotate(0) translate(4 127)">
<title>G</title>
<polygon fill="white" stroke="none" points="-4,4 -4,-127 266.189,-127 266.189,4 -4,4"/>
<!-- Cheese -->
<g id="node1" class="node"><title>Cheese</title>
<ellipse fill="none" stroke="black" cx="37.0467" cy="-105" rx="37.0935" ry="18"/>
<text text-anchor="middle" x="37.0467" y="-101.3" font-family="Times New Roman,serif" font-size="14.00">Cheese</text>
</g>
<!-- Poisoned_Cheese -->
<g id="node2" class="node"><title>Poisoned_Cheese</title>
<ellipse fill="none" stroke="black" cx="107.047" cy="-18" rx="76.0865" ry="18"/>
<text text-anchor="middle" x="107.047" y="-14.3" font-family="Times New Roman,serif" font-size="14.00">Poisoned_Cheese</text>
</g>
<!-- Cheese&#45;&gt;Poisoned_Cheese -->
<g id="edge1" class="edge"><title>Cheese&#45;&gt;Poisoned_Cheese</title>
<path fill="none" stroke="black" d="M50.2132,-88.0122C60.4762,-75.5499 74.9094,-58.0238 86.6624,-43.7524"/>
<polygon fill="black" stroke="black" points="89.5655,-45.7328 93.2209,-35.7885 84.162,-41.2828 89.5655,-45.7328"/>
<text text-anchor="middle" x="105.047" y="-57.8" font-family="Times New Roman,serif" font-size="14.00">Crafting 1</text>
</g>
<!-- Herb_Mushroom_C -->
<g id="node3" class="node"><title>Herb_Mushroom_C</title>
<ellipse fill="none" stroke="black" cx="177.047" cy="-105" rx="85.2851" ry="18"/>
<text text-anchor="middle" x="177.047" y="-101.3" font-family="Times New Roman,serif" font-size="14.00">Herb_Mushroom_C</text>
</g>
<!-- Herb_Mushroom_C&#45;&gt;Poisoned_Cheese -->
<g id="edge2" class="edge"><title>Herb_Mushroom_C&#45;&gt;Poisoned_Cheese</title>
<path fill="none" stroke="black" d="M163.49,-86.7597C155.81,-77.0687 145.981,-64.7877 137.047,-54 134.29,-50.6716 131.362,-47.19 128.457,-43.768"/>
<polygon fill="black" stroke="black" points="130.969,-41.3205 121.812,-35.9916 125.647,-45.8679 130.969,-41.3205"/>
<text text-anchor="middle" x="177.047" y="-57.8" font-family="Times New Roman,serif" font-size="14.00">Crafting 1</text>
</g>
</g>
</svg>
