<?xml version="1.0" encoding="UTF-8" standalone="no"?>
<!DOCTYPE svg PUBLIC "-//W3C//DTD SVG 1.1//EN"
 "http://www.w3.org/Graphics/SVG/1.1/DTD/svg11.dtd">
<!-- Generated by graphviz version 2.38.0 (20140413.2041)
 -->
<!-- Title: G Pages: 1 -->
<svg width="443pt" height="479pt"
 viewBox="0.00 0.00 442.54 479.00" xmlns="http://www.w3.org/2000/svg" xmlns:xlink="http://www.w3.org/1999/xlink">
<g id="graph0" class="graph" transform="scale(1 1) rotate(0) translate(4 475)">
<title>G</title>
<polygon fill="white" stroke="none" points="-4,4 -4,-475 438.537,-475 438.537,4 -4,4"/>
<!-- Herb_Augmentor -->
<g id="node1" class="node"><title>Herb_Augmentor</title>
<ellipse fill="none" stroke="black" cx="74.0934" cy="-192" rx="74.187" ry="18"/>
<text text-anchor="middle" x="74.0934" y="-188.3" font-family="Times New Roman,serif" font-size="14.00">Herb_Augmentor</text>
</g>
<!-- Potion_Earth_Res_Large -->
<g id="node3" class="node"><title>Potion_Earth_Res_Large</title>
<ellipse fill="none" stroke="black" cx="120.093" cy="-18" rx="102.882" ry="18"/>
<text text-anchor="middle" x="120.093" y="-14.3" font-family="Times New Roman,serif" font-size="14.00">Potion_Earth_Res_Large</text>
</g>
<!-- Herb_Augmentor&#45;&gt;Potion_Earth_Res_Large -->
<g id="edge2" class="edge"><title>Herb_Augmentor&#45;&gt;Potion_Earth_Res_Large</title>
<path fill="none" stroke="black" d="M71.3614,-173.982C68.6446,-153.008 66.0542,-116.524 75.0934,-87 79.8291,-71.5327 89.3025,-56.3255 98.3408,-44.2278"/>
<polygon fill="black" stroke="black" points="101.366,-46.0417 104.771,-36.0091 95.8525,-41.7282 101.366,-46.0417"/>
<text text-anchor="middle" x="103.093" y="-101.3" font-family="Times New Roman,serif" font-size="14.00">Crafting 4</text>
</g>
<!-- Potion_Earth_Res_Medium -->
<g id="node7" class="node"><title>Potion_Earth_Res_Medium</title>
<ellipse fill="none" stroke="black" cx="252.093" cy="-105" rx="112.38" ry="18"/>
<text text-anchor="middle" x="252.093" y="-101.3" font-family="Times New Roman,serif" font-size="14.00">Potion_Earth_Res_Medium</text>
</g>
<!-- Herb_Augmentor&#45;&gt;Potion_Earth_Res_Medium -->
<g id="edge1" class="edge"><title>Herb_Augmentor&#45;&gt;Potion_Earth_Res_Medium</title>
<path fill="none" stroke="black" d="M106.328,-175.607C135.051,-161.891 177.312,-141.71 208.943,-126.605"/>
<polygon fill="black" stroke="black" points="210.461,-129.759 217.976,-122.292 207.444,-123.443 210.461,-129.759"/>
<text text-anchor="middle" x="202.093" y="-144.8" font-family="Times New Roman,serif" font-size="14.00">Crafting 3</text>
</g>
<!-- Potion_Armor_Boost -->
<g id="node2" class="node"><title>Potion_Armor_Boost</title>
<ellipse fill="none" stroke="black" cx="127.093" cy="-279" rx="90.1842" ry="18"/>
<text text-anchor="middle" x="127.093" y="-275.3" font-family="Times New Roman,serif" font-size="14.00">Potion_Armor_Boost</text>
</g>
<!-- Potion_Earth_Res -->
<g id="node4" class="node"><title>Potion_Earth_Res</title>
<ellipse fill="none" stroke="black" cx="252.093" cy="-192" rx="77.1866" ry="18"/>
<text text-anchor="middle" x="252.093" y="-188.3" font-family="Times New Roman,serif" font-size="14.00">Potion_Earth_Res</text>
</g>
<!-- Potion_Armor_Boost&#45;&gt;Potion_Earth_Res -->
<g id="edge3" class="edge"><title>Potion_Armor_Boost&#45;&gt;Potion_Earth_Res</title>
<path fill="none" stroke="black" d="M151.195,-261.611C170.649,-248.382 198.207,-229.643 219.608,-215.09"/>
<polygon fill="black" stroke="black" points="221.765,-217.856 228.066,-209.339 217.829,-212.067 221.765,-217.856"/>
<text text-anchor="middle" x="225.093" y="-231.8" font-family="Times New Roman,serif" font-size="14.00">Crafting 2</text>
</g>
<!-- Potion_Earth_Res&#45;&gt;Potion_Earth_Res_Medium -->
<g id="edge6" class="edge"><title>Potion_Earth_Res&#45;&gt;Potion_Earth_Res_Medium</title>
<path fill="none" stroke="black" d="M252.093,-173.799C252.093,-162.163 252.093,-146.548 252.093,-133.237"/>
<polygon fill="black" stroke="black" points="255.594,-133.175 252.093,-123.175 248.594,-133.175 255.594,-133.175"/>
<text text-anchor="middle" x="280.093" y="-144.8" font-family="Times New Roman,serif" font-size="14.00">Crafting 3</text>
</g>
<!-- Herb_Whisperwood -->
<g id="node5" class="node"><title>Herb_Whisperwood</title>
<ellipse fill="none" stroke="black" cx="88.0934" cy="-366" rx="85.2851" ry="18"/>
<text text-anchor="middle" x="88.0934" y="-362.3" font-family="Times New Roman,serif" font-size="14.00">Herb_Whisperwood</text>
</g>
<!-- Herb_Whisperwood&#45;&gt;Potion_Armor_Boost -->
<g id="edge5" class="edge"><title>Herb_Whisperwood&#45;&gt;Potion_Armor_Boost</title>
<path fill="none" stroke="black" d="M95.9857,-347.799C101.43,-335.932 108.774,-319.928 114.958,-306.449"/>
<polygon fill="black" stroke="black" points="118.224,-307.724 119.213,-297.175 111.862,-304.805 118.224,-307.724"/>
<text text-anchor="middle" x="138.093" y="-318.8" font-family="Times New Roman,serif" font-size="14.00">Crafting 2</text>
</g>
<!-- Potion_Empty -->
<g id="node6" class="node"><title>Potion_Empty</title>
<ellipse fill="none" stroke="black" cx="206.093" cy="-453" rx="63.8893" ry="18"/>
<text text-anchor="middle" x="206.093" y="-449.3" font-family="Times New Roman,serif" font-size="14.00">Potion_Empty</text>
</g>
<!-- Minor_Healing_Potion -->
<g id="node10" class="node"><title>Minor_Healing_Potion</title>
<ellipse fill="none" stroke="black" cx="284.093" cy="-366" rx="92.8835" ry="18"/>
<text text-anchor="middle" x="284.093" y="-362.3" font-family="Times New Roman,serif" font-size="14.00">Minor_Healing_Potion</text>
</g>
<!-- Potion_Empty&#45;&gt;Minor_Healing_Potion -->
<g id="edge4" class="edge"><title>Potion_Empty&#45;&gt;Minor_Healing_Potion</title>
<path fill="none" stroke="black" d="M221.504,-435.207C233.042,-422.633 248.992,-405.252 261.902,-391.182"/>
<polygon fill="black" stroke="black" points="264.533,-393.493 268.715,-383.758 259.375,-388.76 264.533,-393.493"/>
<text text-anchor="middle" x="278.093" y="-405.8" font-family="Times New Roman,serif" font-size="14.00">Crafting 1</text>
</g>
<!-- Potion_Earth_Res_Medium&#45;&gt;Potion_Earth_Res_Large -->
<g id="edge7" class="edge"><title>Potion_Earth_Res_Medium&#45;&gt;Potion_Earth_Res_Large</title>
<path fill="none" stroke="black" d="M226.329,-87.4094C205.796,-74.1873 176.861,-55.555 154.373,-41.0738"/>
<polygon fill="black" stroke="black" points="156.095,-38.0202 145.793,-35.5488 152.305,-43.9055 156.095,-38.0202"/>
<text text-anchor="middle" x="222.093" y="-57.8" font-family="Times New Roman,serif" font-size="14.00">Crafting 4</text>
</g>
<!-- Herb_Mushroom -->
<g id="node8" class="node"><title>Herb_Mushroom</title>
<ellipse fill="none" stroke="black" cx="361.093" cy="-453" rx="73.387" ry="18"/>
<text text-anchor="middle" x="361.093" y="-449.3" font-family="Times New Roman,serif" font-size="14.00">Herb_Mushroom</text>
</g>
<!-- Herb_Mushroom&#45;&gt;Minor_Healing_Potion -->
<g id="edge8" class="edge"><title>Herb_Mushroom&#45;&gt;Minor_Healing_Potion</title>
<path fill="none" stroke="black" d="M345.881,-435.207C334.491,-422.633 318.745,-405.252 306,-391.182"/>
<polygon fill="black" stroke="black" points="308.582,-388.82 299.275,-383.758 303.394,-393.519 308.582,-388.82"/>
<text text-anchor="middle" x="356.093" y="-405.8" font-family="Times New Roman,serif" font-size="14.00">Crafting 1</text>
</g>
<!-- Herb_Mushroom_D -->
<g id="node9" class="node"><title>Herb_Mushroom_D</title>
<ellipse fill="none" stroke="black" cx="320.093" cy="-279" rx="85.2851" ry="18"/>
<text text-anchor="middle" x="320.093" y="-275.3" font-family="Times New Roman,serif" font-size="14.00">Herb_Mushroom_D</text>
</g>
<!-- Herb_Mushroom_D&#45;&gt;Potion_Earth_Res -->
<g id="edge9" class="edge"><title>Herb_Mushroom_D&#45;&gt;Potion_Earth_Res</title>
<path fill="none" stroke="black" d="M306.659,-261.207C296.693,-248.75 282.952,-231.573 271.753,-217.574"/>
<polygon fill="black" stroke="black" points="274.48,-215.381 265.5,-209.758 269.014,-219.754 274.48,-215.381"/>
<text text-anchor="middle" x="319.093" y="-231.8" font-family="Times New Roman,serif" font-size="14.00">Crafting 2</text>
</g>
<!-- Minor_Healing_Potion&#45;&gt;Potion_Armor_Boost -->
<g id="edge10" class="edge"><title>Minor_Healing_Potion&#45;&gt;Potion_Armor_Boost</title>
<path fill="none" stroke="black" d="M254.193,-348.812C229.094,-335.223 193.067,-315.718 165.775,-300.942"/>
<polygon fill="black" stroke="black" points="167.342,-297.811 156.882,-296.128 164.01,-303.967 167.342,-297.811"/>
<text text-anchor="middle" x="243.093" y="-318.8" font-family="Times New Roman,serif" font-size="14.00">Crafting 2</text>
</g>
</g>
</svg>
