<?xml version="1.0" encoding="UTF-8" standalone="no"?>
<!DOCTYPE svg PUBLIC "-//W3C//DTD SVG 1.1//EN"
 "http://www.w3.org/Graphics/SVG/1.1/DTD/svg11.dtd">
<!-- Generated by graphviz version 2.38.0 (20140413.2041)
 -->
<!-- Title: G Pages: 1 -->
<svg width="636pt" height="566pt"
 viewBox="0.00 0.00 635.63 566.00" xmlns="http://www.w3.org/2000/svg" xmlns:xlink="http://www.w3.org/1999/xlink">
<g id="graph0" class="graph" transform="scale(1 1) rotate(0) translate(4 562)">
<title>G</title>
<polygon fill="white" stroke="none" points="-4,4 -4,-562 631.634,-562 631.634,4 -4,4"/>
<!-- Herb_Augmentor -->
<g id="node1" class="node"><title>Herb_Augmentor</title>
<ellipse fill="none" stroke="black" cx="236.24" cy="-192" rx="74.187" ry="18"/>
<text text-anchor="middle" x="236.24" y="-188.3" font-family="Times New Roman,serif" font-size="14.00">Herb_Augmentor</text>
</g>
<!-- Potion_Invisible_Large -->
<g id="node5" class="node"><title>Potion_Invisible_Large</title>
<ellipse fill="none" stroke="black" cx="281.24" cy="-18" rx="94.7833" ry="18"/>
<text text-anchor="middle" x="281.24" y="-14.3" font-family="Times New Roman,serif" font-size="14.00">Potion_Invisible_Large</text>
</g>
<!-- Herb_Augmentor&#45;&gt;Potion_Invisible_Large -->
<g id="edge2" class="edge"><title>Herb_Augmentor&#45;&gt;Potion_Invisible_Large</title>
<path fill="none" stroke="black" d="M233.559,-173.997C230.893,-153.039 228.353,-116.57 237.24,-87 241.898,-71.5042 251.258,-56.1999 260.153,-44.0458"/>
<polygon fill="black" stroke="black" points="263.17,-45.8618 266.473,-35.7948 257.613,-41.605 263.17,-45.8618"/>
<text text-anchor="middle" x="265.24" y="-101.3" font-family="Times New Roman,serif" font-size="14.00">Crafting 4</text>
</g>
<!-- Potion_Invisible_Medium -->
<g id="node6" class="node"><title>Potion_Invisible_Medium</title>
<ellipse fill="none" stroke="black" cx="407.24" cy="-105" rx="104.782" ry="18"/>
<text text-anchor="middle" x="407.24" y="-101.3" font-family="Times New Roman,serif" font-size="14.00">Potion_Invisible_Medium</text>
</g>
<!-- Herb_Augmentor&#45;&gt;Potion_Invisible_Medium -->
<g id="edge1" class="edge"><title>Herb_Augmentor&#45;&gt;Potion_Invisible_Medium</title>
<path fill="none" stroke="black" d="M267.207,-175.607C294.769,-161.907 335.308,-141.756 365.684,-126.657"/>
<polygon fill="black" stroke="black" points="367.362,-129.731 374.759,-122.146 364.247,-123.463 367.362,-129.731"/>
<text text-anchor="middle" x="360.24" y="-144.8" font-family="Times New Roman,serif" font-size="14.00">Crafting 3</text>
</g>
<!-- Potion_Armor_Boost -->
<g id="node2" class="node"><title>Potion_Armor_Boost</title>
<ellipse fill="none" stroke="black" cx="323.24" cy="-366" rx="90.1842" ry="18"/>
<text text-anchor="middle" x="323.24" y="-362.3" font-family="Times New Roman,serif" font-size="14.00">Potion_Armor_Boost</text>
</g>
<!-- Potion_Invisible -->
<g id="node7" class="node"><title>Potion_Invisible</title>
<ellipse fill="none" stroke="black" cx="407.24" cy="-192" rx="69.5877" ry="18"/>
<text text-anchor="middle" x="407.24" y="-188.3" font-family="Times New Roman,serif" font-size="14.00">Potion_Invisible</text>
</g>
<!-- Potion_Armor_Boost&#45;&gt;Potion_Invisible -->
<g id="edge4" class="edge"><title>Potion_Armor_Boost&#45;&gt;Potion_Invisible</title>
<path fill="none" stroke="black" d="M338.534,-347.916C342.986,-342.434 347.621,-336.176 351.24,-330 367.975,-301.447 366.718,-291.635 379.24,-261 384.844,-247.292 391.118,-232.046 396.304,-219.47"/>
<polygon fill="black" stroke="black" points="399.618,-220.616 400.197,-210.037 393.147,-217.946 399.618,-220.616"/>
<text text-anchor="middle" x="407.24" y="-275.3" font-family="Times New Roman,serif" font-size="14.00">Crafting 4</text>
</g>
<!-- Potion_Air_Res -->
<g id="node10" class="node"><title>Potion_Air_Res</title>
<ellipse fill="none" stroke="black" cx="259.24" cy="-279" rx="69.5877" ry="18"/>
<text text-anchor="middle" x="259.24" y="-275.3" font-family="Times New Roman,serif" font-size="14.00">Potion_Air_Res</text>
</g>
<!-- Potion_Armor_Boost&#45;&gt;Potion_Air_Res -->
<g id="edge3" class="edge"><title>Potion_Armor_Boost&#45;&gt;Potion_Air_Res</title>
<path fill="none" stroke="black" d="M309.394,-348.047C304.825,-342.359 299.758,-335.95 295.24,-330 289.16,-321.992 282.692,-313.123 276.939,-305.106"/>
<polygon fill="black" stroke="black" points="279.687,-302.931 271.031,-296.821 273.988,-306.995 279.687,-302.931"/>
<text text-anchor="middle" x="323.24" y="-318.8" font-family="Times New Roman,serif" font-size="14.00">Crafting 2</text>
</g>
<!-- Potion_Empty -->
<g id="node3" class="node"><title>Potion_Empty</title>
<ellipse fill="none" stroke="black" cx="355.24" cy="-540" rx="63.8893" ry="18"/>
<text text-anchor="middle" x="355.24" y="-536.3" font-family="Times New Roman,serif" font-size="14.00">Potion_Empty</text>
</g>
<!-- Potion_Empty&#45;&gt;Potion_Invisible -->
<g id="edge6" class="edge"><title>Potion_Empty&#45;&gt;Potion_Invisible</title>
<path fill="none" stroke="black" d="M389.443,-524.735C416.319,-510.982 449.24,-487.333 449.24,-454 449.24,-454 449.24,-454 449.24,-278 449.24,-256.195 437.995,-234.197 427.141,-218.044"/>
<polygon fill="black" stroke="black" points="429.868,-215.838 421.226,-209.709 424.16,-219.89 429.868,-215.838"/>
<text text-anchor="middle" x="477.24" y="-362.3" font-family="Times New Roman,serif" font-size="14.00">Crafting 4</text>
</g>
<!-- Minor_Healing_Potion -->
<g id="node12" class="node"><title>Minor_Healing_Potion</title>
<ellipse fill="none" stroke="black" cx="140.24" cy="-453" rx="92.8835" ry="18"/>
<text text-anchor="middle" x="140.24" y="-449.3" font-family="Times New Roman,serif" font-size="14.00">Minor_Healing_Potion</text>
</g>
<!-- Potion_Empty&#45;&gt;Minor_Healing_Potion -->
<g id="edge7" class="edge"><title>Potion_Empty&#45;&gt;Minor_Healing_Potion</title>
<path fill="none" stroke="black" d="M319.738,-524.964C284.038,-510.85 228.732,-488.985 188.946,-473.256"/>
<polygon fill="black" stroke="black" points="190.027,-469.919 179.44,-469.498 187.453,-476.429 190.027,-469.919"/>
<text text-anchor="middle" x="289.24" y="-492.8" font-family="Times New Roman,serif" font-size="14.00">Crafting 1</text>
</g>
<!-- Herb_Whisperwood -->
<g id="node4" class="node"><title>Herb_Whisperwood</title>
<ellipse fill="none" stroke="black" cx="336.24" cy="-453" rx="85.2851" ry="18"/>
<text text-anchor="middle" x="336.24" y="-449.3" font-family="Times New Roman,serif" font-size="14.00">Herb_Whisperwood</text>
</g>
<!-- Herb_Whisperwood&#45;&gt;Potion_Armor_Boost -->
<g id="edge5" class="edge"><title>Herb_Whisperwood&#45;&gt;Potion_Armor_Boost</title>
<path fill="none" stroke="black" d="M333.61,-434.799C331.83,-423.163 329.442,-407.548 327.406,-394.237"/>
<polygon fill="black" stroke="black" points="330.839,-393.531 325.867,-384.175 323.919,-394.59 330.839,-393.531"/>
<text text-anchor="middle" x="359.24" y="-405.8" font-family="Times New Roman,serif" font-size="14.00">Crafting 2</text>
</g>
<!-- Potion_Invisible_Medium&#45;&gt;Potion_Invisible_Large -->
<g id="edge8" class="edge"><title>Potion_Invisible_Medium&#45;&gt;Potion_Invisible_Large</title>
<path fill="none" stroke="black" d="M382.647,-87.4094C363.134,-74.2458 335.672,-55.7198 314.247,-41.2663"/>
<polygon fill="black" stroke="black" points="316.019,-38.2398 305.772,-35.5488 312.104,-44.0428 316.019,-38.2398"/>
<text text-anchor="middle" x="380.24" y="-57.8" font-family="Times New Roman,serif" font-size="14.00">Crafting 4</text>
</g>
<!-- Potion_Invisible&#45;&gt;Potion_Invisible_Medium -->
<g id="edge9" class="edge"><title>Potion_Invisible&#45;&gt;Potion_Invisible_Medium</title>
<path fill="none" stroke="black" d="M407.24,-173.799C407.24,-162.163 407.24,-146.548 407.24,-133.237"/>
<polygon fill="black" stroke="black" points="410.741,-133.175 407.24,-123.175 403.741,-133.175 410.741,-133.175"/>
<text text-anchor="middle" x="435.24" y="-144.8" font-family="Times New Roman,serif" font-size="14.00">Crafting 3</text>
</g>
<!-- Essence_Shadow -->
<g id="node8" class="node"><title>Essence_Shadow</title>
<ellipse fill="none" stroke="black" cx="552.24" cy="-279" rx="75.2868" ry="18"/>
<text text-anchor="middle" x="552.24" y="-275.3" font-family="Times New Roman,serif" font-size="14.00">Essence_Shadow</text>
</g>
<!-- Essence_Shadow&#45;&gt;Potion_Invisible -->
<g id="edge10" class="edge"><title>Essence_Shadow&#45;&gt;Potion_Invisible</title>
<path fill="none" stroke="black" d="M524.967,-262.012C501.733,-248.392 468.18,-228.723 442.834,-213.865"/>
<polygon fill="black" stroke="black" points="444.299,-210.667 433.902,-208.629 440.759,-216.706 444.299,-210.667"/>
<text text-anchor="middle" x="517.24" y="-231.8" font-family="Times New Roman,serif" font-size="14.00">Crafting 4</text>
</g>
<!-- Herb_Mushroom_Jellyfish -->
<g id="node9" class="node"><title>Herb_Mushroom_Jellyfish</title>
<ellipse fill="none" stroke="black" cx="107.24" cy="-366" rx="107.482" ry="18"/>
<text text-anchor="middle" x="107.24" y="-362.3" font-family="Times New Roman,serif" font-size="14.00">Herb_Mushroom_Jellyfish</text>
</g>
<!-- Herb_Mushroom_Jellyfish&#45;&gt;Potion_Air_Res -->
<g id="edge11" class="edge"><title>Herb_Mushroom_Jellyfish&#45;&gt;Potion_Air_Res</title>
<path fill="none" stroke="black" d="M136.548,-348.611C161.01,-334.931 196.011,-315.359 222.373,-300.617"/>
<polygon fill="black" stroke="black" points="224.286,-303.557 231.306,-295.621 220.87,-297.447 224.286,-303.557"/>
<text text-anchor="middle" x="221.24" y="-318.8" font-family="Times New Roman,serif" font-size="14.00">Crafting 2</text>
</g>
<!-- Potion_Air_Res&#45;&gt;Potion_Invisible -->
<g id="edge12" class="edge"><title>Potion_Air_Res&#45;&gt;Potion_Invisible</title>
<path fill="none" stroke="black" d="M267.778,-260.95C274.019,-250.089 283.442,-236.51 295.24,-228 308.923,-218.132 325.474,-210.985 341.605,-205.832"/>
<polygon fill="black" stroke="black" points="342.975,-209.077 351.565,-202.875 340.983,-202.366 342.975,-209.077"/>
<text text-anchor="middle" x="323.24" y="-231.8" font-family="Times New Roman,serif" font-size="14.00">Crafting 4</text>
</g>
<!-- Herb_Mushroom -->
<g id="node11" class="node"><title>Herb_Mushroom</title>
<ellipse fill="none" stroke="black" cx="140.24" cy="-540" rx="73.387" ry="18"/>
<text text-anchor="middle" x="140.24" y="-536.3" font-family="Times New Roman,serif" font-size="14.00">Herb_Mushroom</text>
</g>
<!-- Herb_Mushroom&#45;&gt;Minor_Healing_Potion -->
<g id="edge13" class="edge"><title>Herb_Mushroom&#45;&gt;Minor_Healing_Potion</title>
<path fill="none" stroke="black" d="M140.24,-521.799C140.24,-510.163 140.24,-494.548 140.24,-481.237"/>
<polygon fill="black" stroke="black" points="143.741,-481.175 140.24,-471.175 136.741,-481.175 143.741,-481.175"/>
<text text-anchor="middle" x="168.24" y="-492.8" font-family="Times New Roman,serif" font-size="14.00">Crafting 1</text>
</g>
<!-- Minor_Healing_Potion&#45;&gt;Potion_Armor_Boost -->
<g id="edge14" class="edge"><title>Minor_Healing_Potion&#45;&gt;Potion_Armor_Boost</title>
<path fill="none" stroke="black" d="M174.233,-436.211C204.149,-422.316 247.859,-402.013 280.207,-386.988"/>
<polygon fill="black" stroke="black" points="281.836,-390.091 289.431,-382.704 278.887,-383.742 281.836,-390.091"/>
<text text-anchor="middle" x="271.24" y="-405.8" font-family="Times New Roman,serif" font-size="14.00">Crafting 2</text>
</g>
</g>
</svg>
