<?xml version="1.0" encoding="UTF-8" standalone="no"?>
<!DOCTYPE svg PUBLIC "-//W3C//DTD SVG 1.1//EN"
 "http://www.w3.org/Graphics/SVG/1.1/DTD/svg11.dtd">
<!-- Generated by graphviz version 2.38.0 (20140413.2041)
 -->
<!-- Title: G Pages: 1 -->
<svg width="981pt" height="392pt"
 viewBox="0.00 0.00 980.73 392.00" xmlns="http://www.w3.org/2000/svg" xmlns:xlink="http://www.w3.org/1999/xlink">
<g id="graph0" class="graph" transform="scale(1 1) rotate(0) translate(4 388)">
<title>G</title>
<polygon fill="white" stroke="none" points="-4,4 -4,-388 976.733,-388 976.733,4 -4,4"/>
<!-- Potion_Armor_Boost -->
<g id="node1" class="node"><title>Potion_Armor_Boost</title>
<ellipse fill="none" stroke="black" cx="462.493" cy="-192" rx="90.1842" ry="18"/>
<text text-anchor="middle" x="462.493" y="-188.3" font-family="Times New Roman,serif" font-size="14.00">Potion_Armor_Boost</text>
</g>
<!-- Potion_Fire_Res -->
<g id="node3" class="node"><title>Potion_Fire_Res</title>
<ellipse fill="none" stroke="black" cx="391.493" cy="-105" rx="72.5877" ry="18"/>
<text text-anchor="middle" x="391.493" y="-101.3" font-family="Times New Roman,serif" font-size="14.00">Potion_Fire_Res</text>
</g>
<!-- Potion_Armor_Boost&#45;&gt;Potion_Fire_Res -->
<g id="edge1" class="edge"><title>Potion_Armor_Boost&#45;&gt;Potion_Fire_Res</title>
<path fill="none" stroke="black" d="M438.097,-174.433C431.244,-169.062 424.132,-162.736 418.493,-156 412.575,-148.932 407.381,-140.362 403.17,-132.329"/>
<polygon fill="black" stroke="black" points="406.26,-130.683 398.693,-123.267 399.984,-133.783 406.26,-130.683"/>
<text text-anchor="middle" x="446.493" y="-144.8" font-family="Times New Roman,serif" font-size="14.00">Crafting 2</text>
</g>
<!-- Potion_Water_Res -->
<g id="node5" class="node"><title>Potion_Water_Res</title>
<ellipse fill="none" stroke="black" cx="210.493" cy="-105" rx="80.6858" ry="18"/>
<text text-anchor="middle" x="210.493" y="-101.3" font-family="Times New Roman,serif" font-size="14.00">Potion_Water_Res</text>
</g>
<!-- Potion_Armor_Boost&#45;&gt;Potion_Water_Res -->
<g id="edge3" class="edge"><title>Potion_Armor_Boost&#45;&gt;Potion_Water_Res</title>
<path fill="none" stroke="black" d="M396.704,-179.592C339.678,-169.671 266.022,-156.759 264.493,-156 252.032,-149.812 240.402,-139.841 231.15,-130.426"/>
<polygon fill="black" stroke="black" points="233.659,-127.985 224.27,-123.077 228.549,-132.769 233.659,-127.985"/>
<text text-anchor="middle" x="292.493" y="-144.8" font-family="Times New Roman,serif" font-size="14.00">Crafting 2</text>
</g>
<!-- Potion_Earth_Res -->
<g id="node6" class="node"><title>Potion_Earth_Res</title>
<ellipse fill="none" stroke="black" cx="559.493" cy="-105" rx="77.1866" ry="18"/>
<text text-anchor="middle" x="559.493" y="-101.3" font-family="Times New Roman,serif" font-size="14.00">Potion_Earth_Res</text>
</g>
<!-- Potion_Armor_Boost&#45;&gt;Potion_Earth_Res -->
<g id="edge4" class="edge"><title>Potion_Armor_Boost&#45;&gt;Potion_Earth_Res</title>
<path fill="none" stroke="black" d="M481.657,-174.207C496.366,-161.317 516.841,-143.375 533.099,-129.128"/>
<polygon fill="black" stroke="black" points="535.484,-131.692 540.698,-122.469 530.871,-126.427 535.484,-131.692"/>
<text text-anchor="middle" x="545.493" y="-144.8" font-family="Times New Roman,serif" font-size="14.00">Crafting 2</text>
</g>
<!-- Potion_Air_Res -->
<g id="node9" class="node"><title>Potion_Air_Res</title>
<ellipse fill="none" stroke="black" cx="729.493" cy="-105" rx="69.5877" ry="18"/>
<text text-anchor="middle" x="729.493" y="-101.3" font-family="Times New Roman,serif" font-size="14.00">Potion_Air_Res</text>
</g>
<!-- Potion_Armor_Boost&#45;&gt;Potion_Air_Res -->
<g id="edge2" class="edge"><title>Potion_Armor_Boost&#45;&gt;Potion_Air_Res</title>
<path fill="none" stroke="black" d="M528.243,-179.608C539.338,-177.715 550.741,-175.787 561.493,-174 611.227,-165.734 627.967,-177.661 673.493,-156 686.494,-149.814 698.702,-139.656 708.381,-130.107"/>
<polygon fill="black" stroke="black" points="711.138,-132.29 715.568,-122.666 706.103,-127.427 711.138,-132.29"/>
<text text-anchor="middle" x="724.493" y="-144.8" font-family="Times New Roman,serif" font-size="14.00">Crafting 2</text>
</g>
<!-- Potion_Empty -->
<g id="node2" class="node"><title>Potion_Empty</title>
<ellipse fill="none" stroke="black" cx="511.493" cy="-366" rx="63.8893" ry="18"/>
<text text-anchor="middle" x="511.493" y="-362.3" font-family="Times New Roman,serif" font-size="14.00">Potion_Empty</text>
</g>
<!-- Minor_Healing_Potion -->
<g id="node14" class="node"><title>Minor_Healing_Potion</title>
<ellipse fill="none" stroke="black" cx="589.493" cy="-279" rx="92.8835" ry="18"/>
<text text-anchor="middle" x="589.493" y="-275.3" font-family="Times New Roman,serif" font-size="14.00">Minor_Healing_Potion</text>
</g>
<!-- Potion_Empty&#45;&gt;Minor_Healing_Potion -->
<g id="edge9" class="edge"><title>Potion_Empty&#45;&gt;Minor_Healing_Potion</title>
<path fill="none" stroke="black" d="M526.903,-348.207C538.441,-335.633 554.391,-318.252 567.302,-304.182"/>
<polygon fill="black" stroke="black" points="569.932,-306.493 574.114,-296.758 564.774,-301.76 569.932,-306.493"/>
<text text-anchor="middle" x="583.493" y="-318.8" font-family="Times New Roman,serif" font-size="14.00">Crafting 1</text>
</g>
<!-- Potion_Empty_A_CON_Potion_Empty -->
<g id="node8" class="node"><title>Potion_Empty_A_CON_Potion_Empty</title>
<ellipse fill="none" stroke="black" cx="474.493" cy="-18" rx="156.772" ry="18"/>
<text text-anchor="middle" x="474.493" y="-14.3" font-family="Times New Roman,serif" font-size="14.00">Potion_Empty_A_CON_Potion_Empty</text>
</g>
<!-- Potion_Fire_Res&#45;&gt;Potion_Empty_A_CON_Potion_Empty -->
<g id="edge6" class="edge"><title>Potion_Fire_Res&#45;&gt;Potion_Empty_A_CON_Potion_Empty</title>
<path fill="none" stroke="black" d="M407.891,-87.2067C420.088,-74.7151 436.92,-57.4775 450.611,-43.457"/>
<polygon fill="black" stroke="black" points="453.362,-45.6493 457.844,-36.0493 448.354,-40.7588 453.362,-45.6493"/>
<text text-anchor="middle" x="466.493" y="-57.8" font-family="Times New Roman,serif" font-size="14.00">Crafting 0</text>
</g>
<!-- Herb_Whisperwood -->
<g id="node4" class="node"><title>Herb_Whisperwood</title>
<ellipse fill="none" stroke="black" cx="393.493" cy="-279" rx="85.2851" ry="18"/>
<text text-anchor="middle" x="393.493" y="-275.3" font-family="Times New Roman,serif" font-size="14.00">Herb_Whisperwood</text>
</g>
<!-- Herb_Whisperwood&#45;&gt;Potion_Armor_Boost -->
<g id="edge7" class="edge"><title>Herb_Whisperwood&#45;&gt;Potion_Armor_Boost</title>
<path fill="none" stroke="black" d="M407.125,-261.207C417.171,-248.831 430.999,-231.796 442.322,-217.847"/>
<polygon fill="black" stroke="black" points="445.067,-220.019 448.652,-210.049 439.633,-215.607 445.067,-220.019"/>
<text text-anchor="middle" x="460.493" y="-231.8" font-family="Times New Roman,serif" font-size="14.00">Crafting 2</text>
</g>
<!-- Potion_Water_Res&#45;&gt;Potion_Empty_A_CON_Potion_Empty -->
<g id="edge8" class="edge"><title>Potion_Water_Res&#45;&gt;Potion_Empty_A_CON_Potion_Empty</title>
<path fill="none" stroke="black" d="M254.383,-89.8686C298.14,-75.7801 365.671,-54.0373 414.393,-38.3502"/>
<polygon fill="black" stroke="black" points="415.735,-41.5951 424.181,-35.1987 413.59,-34.9319 415.735,-41.5951"/>
<text text-anchor="middle" x="386.493" y="-57.8" font-family="Times New Roman,serif" font-size="14.00">Crafting 0</text>
</g>
<!-- Potion_Earth_Res&#45;&gt;Potion_Empty_A_CON_Potion_Empty -->
<g id="edge5" class="edge"><title>Potion_Earth_Res&#45;&gt;Potion_Empty_A_CON_Potion_Empty</title>
<path fill="none" stroke="black" d="M542.699,-87.2067C530.208,-74.7151 512.97,-57.4775 498.949,-43.457"/>
<polygon fill="black" stroke="black" points="501.088,-40.6455 491.542,-36.0493 496.138,-45.5953 501.088,-40.6455"/>
<text text-anchor="middle" x="550.493" y="-57.8" font-family="Times New Roman,serif" font-size="14.00">Crafting 0</text>
</g>
<!-- Herb_Mushroom_Jellyfish -->
<g id="node7" class="node"><title>Herb_Mushroom_Jellyfish</title>
<ellipse fill="none" stroke="black" cx="865.493" cy="-192" rx="107.482" ry="18"/>
<text text-anchor="middle" x="865.493" y="-188.3" font-family="Times New Roman,serif" font-size="14.00">Herb_Mushroom_Jellyfish</text>
</g>
<!-- Herb_Mushroom_Jellyfish&#45;&gt;Potion_Air_Res -->
<g id="edge10" class="edge"><title>Herb_Mushroom_Jellyfish&#45;&gt;Potion_Air_Res</title>
<path fill="none" stroke="black" d="M841.065,-174.449C826.268,-164.544 806.943,-151.819 789.493,-141 781.822,-136.245 773.509,-131.278 765.585,-126.631"/>
<polygon fill="black" stroke="black" points="767.26,-123.557 756.857,-121.548 763.737,-129.606 767.26,-123.557"/>
<text text-anchor="middle" x="840.493" y="-144.8" font-family="Times New Roman,serif" font-size="14.00">Crafting 2</text>
</g>
<!-- Potion_Air_Res&#45;&gt;Potion_Empty_A_CON_Potion_Empty -->
<g id="edge11" class="edge"><title>Potion_Air_Res&#45;&gt;Potion_Empty_A_CON_Potion_Empty</title>
<path fill="none" stroke="black" d="M689.302,-90.155C659.785,-80.0293 618.692,-66.0215 582.493,-54 566.925,-48.8301 550.064,-43.3225 534.397,-38.2431"/>
<polygon fill="black" stroke="black" points="535.411,-34.8924 524.819,-35.1427 533.255,-41.5522 535.411,-34.8924"/>
<text text-anchor="middle" x="655.493" y="-57.8" font-family="Times New Roman,serif" font-size="14.00">Crafting 0</text>
</g>
<!-- Herb_Mushroom_B -->
<g id="node10" class="node"><title>Herb_Mushroom_B</title>
<ellipse fill="none" stroke="black" cx="84.4925" cy="-192" rx="84.485" ry="18"/>
<text text-anchor="middle" x="84.4925" y="-188.3" font-family="Times New Roman,serif" font-size="14.00">Herb_Mushroom_B</text>
</g>
<!-- Herb_Mushroom_B&#45;&gt;Potion_Water_Res -->
<g id="edge12" class="edge"><title>Herb_Mushroom_B&#45;&gt;Potion_Water_Res</title>
<path fill="none" stroke="black" d="M97.8254,-174.084C106.778,-163.551 119.311,-150.287 132.493,-141 141.136,-134.91 151.008,-129.5 160.756,-124.862"/>
<polygon fill="black" stroke="black" points="162.363,-127.976 170.021,-120.655 159.468,-121.603 162.363,-127.976"/>
<text text-anchor="middle" x="160.493" y="-144.8" font-family="Times New Roman,serif" font-size="14.00">Crafting 2</text>
</g>
<!-- Herb_Mushroom -->
<g id="node11" class="node"><title>Herb_Mushroom</title>
<ellipse fill="none" stroke="black" cx="666.493" cy="-366" rx="73.387" ry="18"/>
<text text-anchor="middle" x="666.493" y="-362.3" font-family="Times New Roman,serif" font-size="14.00">Herb_Mushroom</text>
</g>
<!-- Herb_Mushroom&#45;&gt;Minor_Healing_Potion -->
<g id="edge13" class="edge"><title>Herb_Mushroom&#45;&gt;Minor_Healing_Potion</title>
<path fill="none" stroke="black" d="M651.28,-348.207C639.89,-335.633 624.144,-318.252 611.399,-304.182"/>
<polygon fill="black" stroke="black" points="613.981,-301.82 604.674,-296.758 608.793,-306.519 613.981,-301.82"/>
<text text-anchor="middle" x="661.493" y="-318.8" font-family="Times New Roman,serif" font-size="14.00">Crafting 1</text>
</g>
<!-- Herb_Mushroom_D -->
<g id="node12" class="node"><title>Herb_Mushroom_D</title>
<ellipse fill="none" stroke="black" cx="655.493" cy="-192" rx="85.2851" ry="18"/>
<text text-anchor="middle" x="655.493" y="-188.3" font-family="Times New Roman,serif" font-size="14.00">Herb_Mushroom_D</text>
</g>
<!-- Herb_Mushroom_D&#45;&gt;Potion_Earth_Res -->
<g id="edge14" class="edge"><title>Herb_Mushroom_D&#45;&gt;Potion_Earth_Res</title>
<path fill="none" stroke="black" d="M636.526,-174.207C622.063,-161.401 601.966,-143.607 585.926,-129.404"/>
<polygon fill="black" stroke="black" points="588.227,-126.767 578.42,-122.758 583.586,-132.008 588.227,-126.767"/>
<text text-anchor="middle" x="641.493" y="-144.8" font-family="Times New Roman,serif" font-size="14.00">Crafting 2</text>
</g>
<!-- Herb_Mushroom_E -->
<g id="node13" class="node"><title>Herb_Mushroom_E</title>
<ellipse fill="none" stroke="black" cx="270.493" cy="-192" rx="83.6854" ry="18"/>
<text text-anchor="middle" x="270.493" y="-188.3" font-family="Times New Roman,serif" font-size="14.00">Herb_Mushroom_E</text>
</g>
<!-- Herb_Mushroom_E&#45;&gt;Potion_Fire_Res -->
<g id="edge15" class="edge"><title>Herb_Mushroom_E&#45;&gt;Potion_Fire_Res</title>
<path fill="none" stroke="black" d="M293.823,-174.611C312.654,-161.382 339.331,-142.643 360.047,-128.09"/>
<polygon fill="black" stroke="black" points="362.063,-130.951 368.234,-122.339 358.039,-125.223 362.063,-130.951"/>
<text text-anchor="middle" x="366.493" y="-144.8" font-family="Times New Roman,serif" font-size="14.00">Crafting 2</text>
</g>
<!-- Minor_Healing_Potion&#45;&gt;Potion_Armor_Boost -->
<g id="edge16" class="edge"><title>Minor_Healing_Potion&#45;&gt;Potion_Armor_Boost</title>
<path fill="none" stroke="black" d="M565.006,-261.611C545.24,-248.382 517.241,-229.643 495.497,-215.09"/>
<polygon fill="black" stroke="black" points="497.161,-211.992 486.904,-209.339 493.268,-217.809 497.161,-211.992"/>
<text text-anchor="middle" x="562.493" y="-231.8" font-family="Times New Roman,serif" font-size="14.00">Crafting 2</text>
</g>
</g>
</svg>
