<?xml version="1.0" encoding="UTF-8" standalone="no"?>
<!DOCTYPE svg PUBLIC "-//W3C//DTD SVG 1.1//EN"
 "http://www.w3.org/Graphics/SVG/1.1/DTD/svg11.dtd">
<!-- Generated by graphviz version 2.38.0 (20140413.2041)
 -->
<!-- Title: G Pages: 1 -->
<svg width="526pt" height="392pt"
 viewBox="0.00 0.00 525.54 392.00" xmlns="http://www.w3.org/2000/svg" xmlns:xlink="http://www.w3.org/1999/xlink">
<g id="graph0" class="graph" transform="scale(1 1) rotate(0) translate(4 388)">
<title>G</title>
<polygon fill="white" stroke="none" points="-4,4 -4,-388 521.537,-388 521.537,4 -4,4"/>
<!-- Herb_Augmentor -->
<g id="node1" class="node"><title>Herb_Augmentor</title>
<ellipse fill="none" stroke="black" cx="74.0934" cy="-192" rx="74.187" ry="18"/>
<text text-anchor="middle" x="74.0934" y="-188.3" font-family="Times New Roman,serif" font-size="14.00">Herb_Augmentor</text>
</g>
<!-- Potion_Intimidate_Medium -->
<g id="node4" class="node"><title>Potion_Intimidate_Medium</title>
<ellipse fill="none" stroke="black" cx="250.093" cy="-105" rx="109.681" ry="18"/>
<text text-anchor="middle" x="250.093" y="-101.3" font-family="Times New Roman,serif" font-size="14.00">Potion_Intimidate_Medium</text>
</g>
<!-- Herb_Augmentor&#45;&gt;Potion_Intimidate_Medium -->
<g id="edge1" class="edge"><title>Herb_Augmentor&#45;&gt;Potion_Intimidate_Medium</title>
<path fill="none" stroke="black" d="M105.966,-175.607C134.244,-161.95 175.794,-141.883 207.025,-126.8"/>
<polygon fill="black" stroke="black" points="208.877,-129.792 216.36,-122.292 205.833,-123.489 208.877,-129.792"/>
<text text-anchor="middle" x="201.093" y="-144.8" font-family="Times New Roman,serif" font-size="14.00">Crafting 3</text>
</g>
<!-- Potion_Intimidate_Large -->
<g id="node5" class="node"><title>Potion_Intimidate_Large</title>
<ellipse fill="none" stroke="black" cx="120.093" cy="-18" rx="100.983" ry="18"/>
<text text-anchor="middle" x="120.093" y="-14.3" font-family="Times New Roman,serif" font-size="14.00">Potion_Intimidate_Large</text>
</g>
<!-- Herb_Augmentor&#45;&gt;Potion_Intimidate_Large -->
<g id="edge2" class="edge"><title>Herb_Augmentor&#45;&gt;Potion_Intimidate_Large</title>
<path fill="none" stroke="black" d="M71.3614,-173.982C68.6446,-153.008 66.0542,-116.524 75.0934,-87 79.8291,-71.5327 89.3025,-56.3255 98.3408,-44.2278"/>
<polygon fill="black" stroke="black" points="101.366,-46.0417 104.771,-36.0091 95.8525,-41.7282 101.366,-46.0417"/>
<text text-anchor="middle" x="103.093" y="-101.3" font-family="Times New Roman,serif" font-size="14.00">Crafting 4</text>
</g>
<!-- Herb_Farhangite -->
<g id="node2" class="node"><title>Herb_Farhangite</title>
<ellipse fill="none" stroke="black" cx="185.093" cy="-279" rx="71.4873" ry="18"/>
<text text-anchor="middle" x="185.093" y="-275.3" font-family="Times New Roman,serif" font-size="14.00">Herb_Farhangite</text>
</g>
<!-- Potion_Intimidate -->
<g id="node3" class="node"><title>Potion_Intimidate</title>
<ellipse fill="none" stroke="black" cx="250.093" cy="-192" rx="75.2868" ry="18"/>
<text text-anchor="middle" x="250.093" y="-188.3" font-family="Times New Roman,serif" font-size="14.00">Potion_Intimidate</text>
</g>
<!-- Herb_Farhangite&#45;&gt;Potion_Intimidate -->
<g id="edge3" class="edge"><title>Herb_Farhangite&#45;&gt;Potion_Intimidate</title>
<path fill="none" stroke="black" d="M197.935,-261.207C207.372,-248.866 220.351,-231.894 231.001,-217.967"/>
<polygon fill="black" stroke="black" points="233.984,-219.828 237.278,-209.758 228.423,-215.576 233.984,-219.828"/>
<text text-anchor="middle" x="250.093" y="-231.8" font-family="Times New Roman,serif" font-size="14.00">Crafting 2</text>
</g>
<!-- Potion_Intimidate&#45;&gt;Potion_Intimidate_Medium -->
<g id="edge4" class="edge"><title>Potion_Intimidate&#45;&gt;Potion_Intimidate_Medium</title>
<path fill="none" stroke="black" d="M250.093,-173.799C250.093,-162.163 250.093,-146.548 250.093,-133.237"/>
<polygon fill="black" stroke="black" points="253.594,-133.175 250.093,-123.175 246.594,-133.175 253.594,-133.175"/>
<text text-anchor="middle" x="278.093" y="-144.8" font-family="Times New Roman,serif" font-size="14.00">Crafting 3</text>
</g>
<!-- Potion_Intimidate_Medium&#45;&gt;Potion_Intimidate_Large -->
<g id="edge5" class="edge"><title>Potion_Intimidate_Medium&#45;&gt;Potion_Intimidate_Large</title>
<path fill="none" stroke="black" d="M224.72,-87.4094C204.498,-74.1873 176.001,-55.555 153.853,-41.0738"/>
<polygon fill="black" stroke="black" points="155.688,-38.0919 145.403,-35.5488 151.858,-43.9507 155.688,-38.0919"/>
<text text-anchor="middle" x="221.093" y="-57.8" font-family="Times New Roman,serif" font-size="14.00">Crafting 4</text>
</g>
<!-- Potion_Empty -->
<g id="node6" class="node"><title>Potion_Empty</title>
<ellipse fill="none" stroke="black" cx="289.093" cy="-366" rx="63.8893" ry="18"/>
<text text-anchor="middle" x="289.093" y="-362.3" font-family="Times New Roman,serif" font-size="14.00">Potion_Empty</text>
</g>
<!-- Minor_Healing_Potion -->
<g id="node8" class="node"><title>Minor_Healing_Potion</title>
<ellipse fill="none" stroke="black" cx="367.093" cy="-279" rx="92.8835" ry="18"/>
<text text-anchor="middle" x="367.093" y="-275.3" font-family="Times New Roman,serif" font-size="14.00">Minor_Healing_Potion</text>
</g>
<!-- Potion_Empty&#45;&gt;Minor_Healing_Potion -->
<g id="edge6" class="edge"><title>Potion_Empty&#45;&gt;Minor_Healing_Potion</title>
<path fill="none" stroke="black" d="M304.504,-348.207C316.042,-335.633 331.992,-318.252 344.902,-304.182"/>
<polygon fill="black" stroke="black" points="347.533,-306.493 351.715,-296.758 342.375,-301.76 347.533,-306.493"/>
<text text-anchor="middle" x="360.093" y="-318.8" font-family="Times New Roman,serif" font-size="14.00">Crafting 1</text>
</g>
<!-- Herb_Mushroom -->
<g id="node7" class="node"><title>Herb_Mushroom</title>
<ellipse fill="none" stroke="black" cx="444.093" cy="-366" rx="73.387" ry="18"/>
<text text-anchor="middle" x="444.093" y="-362.3" font-family="Times New Roman,serif" font-size="14.00">Herb_Mushroom</text>
</g>
<!-- Herb_Mushroom&#45;&gt;Minor_Healing_Potion -->
<g id="edge7" class="edge"><title>Herb_Mushroom&#45;&gt;Minor_Healing_Potion</title>
<path fill="none" stroke="black" d="M428.881,-348.207C417.491,-335.633 401.745,-318.252 389,-304.182"/>
<polygon fill="black" stroke="black" points="391.582,-301.82 382.275,-296.758 386.394,-306.519 391.582,-301.82"/>
<text text-anchor="middle" x="438.093" y="-318.8" font-family="Times New Roman,serif" font-size="14.00">Crafting 1</text>
</g>
<!-- Minor_Healing_Potion&#45;&gt;Potion_Intimidate -->
<g id="edge8" class="edge"><title>Minor_Healing_Potion&#45;&gt;Potion_Intimidate</title>
<path fill="none" stroke="black" d="M344.257,-261.409C326.102,-248.22 300.536,-229.646 280.624,-215.181"/>
<polygon fill="black" stroke="black" points="282.622,-212.306 272.475,-209.26 278.508,-217.969 282.622,-212.306"/>
<text text-anchor="middle" x="343.093" y="-231.8" font-family="Times New Roman,serif" font-size="14.00">Crafting 2</text>
</g>
</g>
</svg>
