<?xml version="1.0" encoding="UTF-8" standalone="no"?>
<!DOCTYPE svg PUBLIC "-//W3C//DTD SVG 1.1//EN"
 "http://www.w3.org/Graphics/SVG/1.1/DTD/svg11.dtd">
<!-- Generated by graphviz version 2.38.0 (20140413.2041)
 -->
<!-- Title: G Pages: 1 -->
<svg width="981pt" height="653pt"
 viewBox="0.00 0.00 980.73 653.00" xmlns="http://www.w3.org/2000/svg" xmlns:xlink="http://www.w3.org/1999/xlink">
<g id="graph0" class="graph" transform="scale(1 1) rotate(0) translate(4 649)">
<title>G</title>
<polygon fill="white" stroke="none" points="-4,4 -4,-649 976.733,-649 976.733,4 -4,4"/>
<!-- Herb_Augmentor -->
<g id="node1" class="node"><title>Herb_Augmentor</title>
<ellipse fill="none" stroke="black" cx="169.493" cy="-192" rx="74.187" ry="18"/>
<text text-anchor="middle" x="169.493" y="-188.3" font-family="Times New Roman,serif" font-size="14.00">Herb_Augmentor</text>
</g>
<!-- Potion_Telekinesis_Large -->
<g id="node3" class="node"><title>Potion_Telekinesis_Large</title>
<ellipse fill="none" stroke="black" cx="216.493" cy="-18" rx="104.782" ry="18"/>
<text text-anchor="middle" x="216.493" y="-14.3" font-family="Times New Roman,serif" font-size="14.00">Potion_Telekinesis_Large</text>
</g>
<!-- Herb_Augmentor&#45;&gt;Potion_Telekinesis_Large -->
<g id="edge1" class="edge"><title>Herb_Augmentor&#45;&gt;Potion_Telekinesis_Large</title>
<path fill="none" stroke="black" d="M166.711,-173.967C163.944,-152.978 161.303,-116.477 170.493,-87 175.387,-71.3007 185.213,-55.9404 194.531,-43.8022"/>
<polygon fill="black" stroke="black" points="197.304,-45.9386 200.834,-35.9491 191.845,-41.5569 197.304,-45.9386"/>
<text text-anchor="middle" x="198.493" y="-101.3" font-family="Times New Roman,serif" font-size="14.00">Crafting 4</text>
</g>
<!-- Potion_Telekinesis_Medium -->
<g id="node12" class="node"><title>Potion_Telekinesis_Medium</title>
<ellipse fill="none" stroke="black" cx="349.493" cy="-105" rx="114.28" ry="18"/>
<text text-anchor="middle" x="349.493" y="-101.3" font-family="Times New Roman,serif" font-size="14.00">Potion_Telekinesis_Medium</text>
</g>
<!-- Herb_Augmentor&#45;&gt;Potion_Telekinesis_Medium -->
<g id="edge2" class="edge"><title>Herb_Augmentor&#45;&gt;Potion_Telekinesis_Medium</title>
<path fill="none" stroke="black" d="M202.089,-175.607C231.135,-161.891 273.871,-141.71 305.857,-126.605"/>
<polygon fill="black" stroke="black" points="307.444,-129.727 314.992,-122.292 304.455,-123.397 307.444,-129.727"/>
<text text-anchor="middle" x="297.493" y="-144.8" font-family="Times New Roman,serif" font-size="14.00">Crafting 3</text>
</g>
<!-- Herb_Drudanae -->
<g id="node2" class="node"><title>Herb_Drudanae</title>
<ellipse fill="none" stroke="black" cx="283.493" cy="-279" rx="68.4888" ry="18"/>
<text text-anchor="middle" x="283.493" y="-275.3" font-family="Times New Roman,serif" font-size="14.00">Herb_Drudanae</text>
</g>
<!-- Potion_Telekinesis -->
<g id="node10" class="node"><title>Potion_Telekinesis</title>
<ellipse fill="none" stroke="black" cx="349.493" cy="-192" rx="79.0865" ry="18"/>
<text text-anchor="middle" x="349.493" y="-188.3" font-family="Times New Roman,serif" font-size="14.00">Potion_Telekinesis</text>
</g>
<!-- Herb_Drudanae&#45;&gt;Potion_Telekinesis -->
<g id="edge3" class="edge"><title>Herb_Drudanae&#45;&gt;Potion_Telekinesis</title>
<path fill="none" stroke="black" d="M296.532,-261.207C306.114,-248.866 319.292,-231.894 330.106,-217.967"/>
<polygon fill="black" stroke="black" points="333.112,-219.803 336.48,-209.758 327.583,-215.51 333.112,-219.803"/>
<text text-anchor="middle" x="347.493" y="-231.8" font-family="Times New Roman,serif" font-size="14.00">Crafting 3</text>
</g>
<!-- Potion_Empty -->
<g id="node4" class="node"><title>Potion_Empty</title>
<ellipse fill="none" stroke="black" cx="482.493" cy="-627" rx="63.8893" ry="18"/>
<text text-anchor="middle" x="482.493" y="-623.3" font-family="Times New Roman,serif" font-size="14.00">Potion_Empty</text>
</g>
<!-- Minor_Healing_Potion -->
<g id="node18" class="node"><title>Minor_Healing_Potion</title>
<ellipse fill="none" stroke="black" cx="560.493" cy="-540" rx="92.8835" ry="18"/>
<text text-anchor="middle" x="560.493" y="-536.3" font-family="Times New Roman,serif" font-size="14.00">Minor_Healing_Potion</text>
</g>
<!-- Potion_Empty&#45;&gt;Minor_Healing_Potion -->
<g id="edge4" class="edge"><title>Potion_Empty&#45;&gt;Minor_Healing_Potion</title>
<path fill="none" stroke="black" d="M497.903,-609.207C509.441,-596.633 525.391,-579.252 538.302,-565.182"/>
<polygon fill="black" stroke="black" points="540.932,-567.493 545.114,-557.758 535.774,-562.76 540.932,-567.493"/>
<text text-anchor="middle" x="553.493" y="-579.8" font-family="Times New Roman,serif" font-size="14.00">Crafting 1</text>
</g>
<!-- Potion_Fire_Res -->
<g id="node5" class="node"><title>Potion_Fire_Res</title>
<ellipse fill="none" stroke="black" cx="384.493" cy="-366" rx="72.5877" ry="18"/>
<text text-anchor="middle" x="384.493" y="-362.3" font-family="Times New Roman,serif" font-size="14.00">Potion_Fire_Res</text>
</g>
<!-- Minor_ResistAll_Potion -->
<g id="node13" class="node"><title>Minor_ResistAll_Potion</title>
<ellipse fill="none" stroke="black" cx="468.493" cy="-279" rx="98.5829" ry="18"/>
<text text-anchor="middle" x="468.493" y="-275.3" font-family="Times New Roman,serif" font-size="14.00">Minor_ResistAll_Potion</text>
</g>
<!-- Potion_Fire_Res&#45;&gt;Minor_ResistAll_Potion -->
<g id="edge5" class="edge"><title>Potion_Fire_Res&#45;&gt;Minor_ResistAll_Potion</title>
<path fill="none" stroke="black" d="M401.088,-348.207C413.514,-335.633 430.691,-318.252 444.595,-304.182"/>
<polygon fill="black" stroke="black" points="447.392,-306.331 451.931,-296.758 442.413,-301.411 447.392,-306.331"/>
<text text-anchor="middle" x="459.493" y="-318.8" font-family="Times New Roman,serif" font-size="14.00">Crafting 3</text>
</g>
<!-- Herb_Whisperwood -->
<g id="node6" class="node"><title>Herb_Whisperwood</title>
<ellipse fill="none" stroke="black" cx="364.493" cy="-540" rx="85.2851" ry="18"/>
<text text-anchor="middle" x="364.493" y="-536.3" font-family="Times New Roman,serif" font-size="14.00">Herb_Whisperwood</text>
</g>
<!-- Potion_Armor_Boost -->
<g id="node11" class="node"><title>Potion_Armor_Boost</title>
<ellipse fill="none" stroke="black" cx="462.493" cy="-453" rx="90.1842" ry="18"/>
<text text-anchor="middle" x="462.493" y="-449.3" font-family="Times New Roman,serif" font-size="14.00">Potion_Armor_Boost</text>
</g>
<!-- Herb_Whisperwood&#45;&gt;Potion_Armor_Boost -->
<g id="edge6" class="edge"><title>Herb_Whisperwood&#45;&gt;Potion_Armor_Boost</title>
<path fill="none" stroke="black" d="M383.854,-522.207C398.619,-509.401 419.134,-491.607 435.509,-477.404"/>
<polygon fill="black" stroke="black" points="437.91,-479.955 443.171,-470.758 433.323,-474.667 437.91,-479.955"/>
<text text-anchor="middle" x="446.493" y="-492.8" font-family="Times New Roman,serif" font-size="14.00">Crafting 2</text>
</g>
<!-- Potion_Water_Res -->
<g id="node7" class="node"><title>Potion_Water_Res</title>
<ellipse fill="none" stroke="black" cx="202.493" cy="-366" rx="80.6858" ry="18"/>
<text text-anchor="middle" x="202.493" y="-362.3" font-family="Times New Roman,serif" font-size="14.00">Potion_Water_Res</text>
</g>
<!-- Potion_Water_Res&#45;&gt;Minor_ResistAll_Potion -->
<g id="edge7" class="edge"><title>Potion_Water_Res&#45;&gt;Minor_ResistAll_Potion</title>
<path fill="none" stroke="black" d="M246.716,-350.869C292.143,-336.352 363,-313.71 412.355,-297.939"/>
<polygon fill="black" stroke="black" points="413.466,-301.258 421.926,-294.88 411.335,-294.59 413.466,-301.258"/>
<text text-anchor="middle" x="378.493" y="-318.8" font-family="Times New Roman,serif" font-size="14.00">Crafting 3</text>
</g>
<!-- Potion_Earth_Res -->
<g id="node8" class="node"><title>Potion_Earth_Res</title>
<ellipse fill="none" stroke="black" cx="552.493" cy="-366" rx="77.1866" ry="18"/>
<text text-anchor="middle" x="552.493" y="-362.3" font-family="Times New Roman,serif" font-size="14.00">Potion_Earth_Res</text>
</g>
<!-- Potion_Earth_Res&#45;&gt;Minor_ResistAll_Potion -->
<g id="edge8" class="edge"><title>Potion_Earth_Res&#45;&gt;Minor_ResistAll_Potion</title>
<path fill="none" stroke="black" d="M535.897,-348.207C523.471,-335.633 506.294,-318.252 492.39,-304.182"/>
<polygon fill="black" stroke="black" points="494.572,-301.411 485.054,-296.758 489.593,-306.331 494.572,-301.411"/>
<text text-anchor="middle" x="543.493" y="-318.8" font-family="Times New Roman,serif" font-size="14.00">Crafting 3</text>
</g>
<!-- Herb_Mushroom_Jellyfish -->
<g id="node9" class="node"><title>Herb_Mushroom_Jellyfish</title>
<ellipse fill="none" stroke="black" cx="865.493" cy="-453" rx="107.482" ry="18"/>
<text text-anchor="middle" x="865.493" y="-449.3" font-family="Times New Roman,serif" font-size="14.00">Herb_Mushroom_Jellyfish</text>
</g>
<!-- Potion_Air_Res -->
<g id="node19" class="node"><title>Potion_Air_Res</title>
<ellipse fill="none" stroke="black" cx="725.493" cy="-366" rx="69.5877" ry="18"/>
<text text-anchor="middle" x="725.493" y="-362.3" font-family="Times New Roman,serif" font-size="14.00">Potion_Air_Res</text>
</g>
<!-- Herb_Mushroom_Jellyfish&#45;&gt;Potion_Air_Res -->
<g id="edge9" class="edge"><title>Herb_Mushroom_Jellyfish&#45;&gt;Potion_Air_Res</title>
<path fill="none" stroke="black" d="M839.314,-435.358C823.75,-425.534 803.578,-412.923 785.493,-402 777.767,-397.334 769.431,-392.405 761.502,-387.766"/>
<polygon fill="black" stroke="black" points="763.178,-384.692 752.776,-382.68 759.654,-390.74 763.178,-384.692"/>
<text text-anchor="middle" x="837.493" y="-405.8" font-family="Times New Roman,serif" font-size="14.00">Crafting 2</text>
</g>
<!-- Potion_Telekinesis&#45;&gt;Potion_Telekinesis_Medium -->
<g id="edge11" class="edge"><title>Potion_Telekinesis&#45;&gt;Potion_Telekinesis_Medium</title>
<path fill="none" stroke="black" d="M349.493,-173.799C349.493,-162.163 349.493,-146.548 349.493,-133.237"/>
<polygon fill="black" stroke="black" points="352.993,-133.175 349.493,-123.175 345.993,-133.175 352.993,-133.175"/>
<text text-anchor="middle" x="377.493" y="-144.8" font-family="Times New Roman,serif" font-size="14.00">Crafting 3</text>
</g>
<!-- Potion_Armor_Boost&#45;&gt;Potion_Fire_Res -->
<g id="edge12" class="edge"><title>Potion_Armor_Boost&#45;&gt;Potion_Fire_Res</title>
<path fill="none" stroke="black" d="M424.692,-436.552C415.764,-431.432 406.97,-424.956 400.493,-417 395.152,-410.44 391.581,-402.065 389.198,-394.052"/>
<polygon fill="black" stroke="black" points="392.574,-393.126 386.771,-384.262 385.78,-394.81 392.574,-393.126"/>
<text text-anchor="middle" x="428.493" y="-405.8" font-family="Times New Roman,serif" font-size="14.00">Crafting 2</text>
</g>
<!-- Potion_Armor_Boost&#45;&gt;Potion_Water_Res -->
<g id="edge14" class="edge"><title>Potion_Armor_Boost&#45;&gt;Potion_Water_Res</title>
<path fill="none" stroke="black" d="M396.74,-440.621C385.645,-438.726 374.243,-436.795 363.493,-435 314.197,-426.771 296.981,-439.771 252.493,-417 240.711,-410.97 229.985,-401.15 221.515,-391.803"/>
<polygon fill="black" stroke="black" points="224.123,-389.469 214.957,-384.156 218.81,-394.026 224.123,-389.469"/>
<text text-anchor="middle" x="280.493" y="-405.8" font-family="Times New Roman,serif" font-size="14.00">Crafting 2</text>
</g>
<!-- Potion_Armor_Boost&#45;&gt;Potion_Earth_Res -->
<g id="edge15" class="edge"><title>Potion_Armor_Boost&#45;&gt;Potion_Earth_Res</title>
<path fill="none" stroke="black" d="M480.274,-435.207C493.71,-422.517 512.332,-404.93 527.3,-390.793"/>
<polygon fill="black" stroke="black" points="529.881,-393.169 534.748,-383.758 525.075,-388.08 529.881,-393.169"/>
<text text-anchor="middle" x="540.493" y="-405.8" font-family="Times New Roman,serif" font-size="14.00">Crafting 2</text>
</g>
<!-- Potion_Armor_Boost&#45;&gt;Potion_Air_Res -->
<g id="edge13" class="edge"><title>Potion_Armor_Boost&#45;&gt;Potion_Air_Res</title>
<path fill="none" stroke="black" d="M528.518,-440.616C539.528,-438.731 550.832,-436.804 561.493,-435 609.473,-426.882 625.612,-438.035 669.493,-417 682.476,-410.776 694.682,-400.613 704.364,-391.07"/>
<polygon fill="black" stroke="black" points="707.117,-393.257 711.554,-383.636 702.086,-388.391 707.117,-393.257"/>
<text text-anchor="middle" x="719.493" y="-405.8" font-family="Times New Roman,serif" font-size="14.00">Crafting 2</text>
</g>
<!-- Potion_Telekinesis_Medium&#45;&gt;Potion_Telekinesis_Large -->
<g id="edge16" class="edge"><title>Potion_Telekinesis_Medium&#45;&gt;Potion_Telekinesis_Large</title>
<path fill="none" stroke="black" d="M323.533,-87.4094C302.844,-74.1873 273.69,-55.555 251.032,-41.0738"/>
<polygon fill="black" stroke="black" points="252.697,-37.9848 242.386,-35.5488 248.928,-43.8831 252.697,-37.9848"/>
<text text-anchor="middle" x="318.493" y="-57.8" font-family="Times New Roman,serif" font-size="14.00">Crafting 4</text>
</g>
<!-- Minor_ResistAll_Potion&#45;&gt;Potion_Telekinesis -->
<g id="edge17" class="edge"><title>Minor_ResistAll_Potion&#45;&gt;Potion_Telekinesis</title>
<path fill="none" stroke="black" d="M445.266,-261.409C426.8,-248.22 400.798,-229.646 380.545,-215.181"/>
<polygon fill="black" stroke="black" points="382.428,-212.224 372.257,-209.26 378.36,-217.921 382.428,-212.224"/>
<text text-anchor="middle" x="443.493" y="-231.8" font-family="Times New Roman,serif" font-size="14.00">Crafting 3</text>
</g>
<!-- Herb_Mushroom_B -->
<g id="node14" class="node"><title>Herb_Mushroom_B</title>
<ellipse fill="none" stroke="black" cx="84.4925" cy="-453" rx="84.485" ry="18"/>
<text text-anchor="middle" x="84.4925" y="-449.3" font-family="Times New Roman,serif" font-size="14.00">Herb_Mushroom_B</text>
</g>
<!-- Herb_Mushroom_B&#45;&gt;Potion_Water_Res -->
<g id="edge20" class="edge"><title>Herb_Mushroom_B&#45;&gt;Potion_Water_Res</title>
<path fill="none" stroke="black" d="M95.0627,-434.971C102.307,-424.392 112.715,-411.12 124.493,-402 132.502,-395.798 141.784,-390.415 151.092,-385.855"/>
<polygon fill="black" stroke="black" points="152.754,-388.943 160.362,-381.57 149.817,-382.589 152.754,-388.943"/>
<text text-anchor="middle" x="152.493" y="-405.8" font-family="Times New Roman,serif" font-size="14.00">Crafting 2</text>
</g>
<!-- Herb_Mushroom -->
<g id="node15" class="node"><title>Herb_Mushroom</title>
<ellipse fill="none" stroke="black" cx="637.493" cy="-627" rx="73.387" ry="18"/>
<text text-anchor="middle" x="637.493" y="-623.3" font-family="Times New Roman,serif" font-size="14.00">Herb_Mushroom</text>
</g>
<!-- Herb_Mushroom&#45;&gt;Minor_Healing_Potion -->
<g id="edge18" class="edge"><title>Herb_Mushroom&#45;&gt;Minor_Healing_Potion</title>
<path fill="none" stroke="black" d="M622.28,-609.207C610.89,-596.633 595.144,-579.252 582.399,-565.182"/>
<polygon fill="black" stroke="black" points="584.981,-562.82 575.674,-557.758 579.793,-567.519 584.981,-562.82"/>
<text text-anchor="middle" x="631.493" y="-579.8" font-family="Times New Roman,serif" font-size="14.00">Crafting 1</text>
</g>
<!-- Herb_Mushroom_D -->
<g id="node16" class="node"><title>Herb_Mushroom_D</title>
<ellipse fill="none" stroke="black" cx="655.493" cy="-453" rx="85.2851" ry="18"/>
<text text-anchor="middle" x="655.493" y="-449.3" font-family="Times New Roman,serif" font-size="14.00">Herb_Mushroom_D</text>
</g>
<!-- Herb_Mushroom_D&#45;&gt;Potion_Earth_Res -->
<g id="edge19" class="edge"><title>Herb_Mushroom_D&#45;&gt;Potion_Earth_Res</title>
<path fill="none" stroke="black" d="M635.143,-435.207C619.524,-422.317 597.783,-404.375 580.518,-390.128"/>
<polygon fill="black" stroke="black" points="582.39,-387.135 572.449,-383.469 577.934,-392.534 582.39,-387.135"/>
<text text-anchor="middle" x="637.493" y="-405.8" font-family="Times New Roman,serif" font-size="14.00">Crafting 2</text>
</g>
<!-- Herb_Mushroom_E -->
<g id="node17" class="node"><title>Herb_Mushroom_E</title>
<ellipse fill="none" stroke="black" cx="270.493" cy="-453" rx="83.6854" ry="18"/>
<text text-anchor="middle" x="270.493" y="-449.3" font-family="Times New Roman,serif" font-size="14.00">Herb_Mushroom_E</text>
</g>
<!-- Herb_Mushroom_E&#45;&gt;Potion_Fire_Res -->
<g id="edge10" class="edge"><title>Herb_Mushroom_E&#45;&gt;Potion_Fire_Res</title>
<path fill="none" stroke="black" d="M289.863,-435.261C301.656,-425.29 317.163,-412.561 331.493,-402 337.534,-397.547 344.109,-392.988 350.508,-388.694"/>
<polygon fill="black" stroke="black" points="352.648,-391.475 359.056,-383.038 348.785,-385.637 352.648,-391.475"/>
<text text-anchor="middle" x="359.493" y="-405.8" font-family="Times New Roman,serif" font-size="14.00">Crafting 2</text>
</g>
<!-- Minor_Healing_Potion&#45;&gt;Potion_Armor_Boost -->
<g id="edge21" class="edge"><title>Minor_Healing_Potion&#45;&gt;Potion_Armor_Boost</title>
<path fill="none" stroke="black" d="M541.131,-522.207C526.366,-509.401 505.851,-491.607 489.476,-477.404"/>
<polygon fill="black" stroke="black" points="491.662,-474.667 481.814,-470.758 487.075,-479.955 491.662,-474.667"/>
<text text-anchor="middle" x="544.493" y="-492.8" font-family="Times New Roman,serif" font-size="14.00">Crafting 2</text>
</g>
<!-- Potion_Air_Res&#45;&gt;Minor_ResistAll_Potion -->
<g id="edge22" class="edge"><title>Potion_Air_Res&#45;&gt;Minor_ResistAll_Potion</title>
<path fill="none" stroke="black" d="M684.768,-351.356C654.61,-341.27 612.506,-327.222 575.493,-315 558.815,-309.493 540.661,-303.539 524.122,-298.131"/>
<polygon fill="black" stroke="black" points="525.188,-294.797 514.595,-295.018 523.013,-301.451 525.188,-294.797"/>
<text text-anchor="middle" x="644.493" y="-318.8" font-family="Times New Roman,serif" font-size="14.00">Crafting 3</text>
</g>
</g>
</svg>
