<?xml version="1.0" encoding="UTF-8" standalone="no"?>
<!DOCTYPE svg PUBLIC "-//W3C//DTD SVG 1.1//EN"
 "http://www.w3.org/Graphics/SVG/1.1/DTD/svg11.dtd">
<!-- Generated by graphviz version 2.38.0 (20140413.2041)
 -->
<!-- Title: G Pages: 1 -->
<svg width="455pt" height="479pt"
 viewBox="0.00 0.00 455.38 479.00" xmlns="http://www.w3.org/2000/svg" xmlns:xlink="http://www.w3.org/1999/xlink">
<g id="graph0" class="graph" transform="scale(1 1) rotate(0) translate(4 475)">
<title>G</title>
<polygon fill="white" stroke="none" points="-4,4 -4,-475 451.383,-475 451.383,4 -4,4"/>
<!-- Herb_Augmentor -->
<g id="node1" class="node"><title>Herb_Augmentor</title>
<ellipse fill="none" stroke="black" cx="95.1424" cy="-192" rx="74.187" ry="18"/>
<text text-anchor="middle" x="95.1424" y="-188.3" font-family="Times New Roman,serif" font-size="14.00">Herb_Augmentor</text>
</g>
<!-- Potion_Air_Res_Medium -->
<g id="node2" class="node"><title>Potion_Air_Res_Medium</title>
<ellipse fill="none" stroke="black" cx="266.142" cy="-105" rx="104.782" ry="18"/>
<text text-anchor="middle" x="266.142" y="-101.3" font-family="Times New Roman,serif" font-size="14.00">Potion_Air_Res_Medium</text>
</g>
<!-- Herb_Augmentor&#45;&gt;Potion_Air_Res_Medium -->
<g id="edge1" class="edge"><title>Herb_Augmentor&#45;&gt;Potion_Air_Res_Medium</title>
<path fill="none" stroke="black" d="M126.109,-175.607C153.671,-161.907 194.21,-141.756 224.586,-126.657"/>
<polygon fill="black" stroke="black" points="226.264,-129.731 233.661,-122.146 223.149,-123.463 226.264,-129.731"/>
<text text-anchor="middle" x="219.142" y="-144.8" font-family="Times New Roman,serif" font-size="14.00">Crafting 3</text>
</g>
<!-- Potion_Air_Res_Large -->
<g id="node6" class="node"><title>Potion_Air_Res_Large</title>
<ellipse fill="none" stroke="black" cx="140.142" cy="-18" rx="94.7833" ry="18"/>
<text text-anchor="middle" x="140.142" y="-14.3" font-family="Times New Roman,serif" font-size="14.00">Potion_Air_Res_Large</text>
</g>
<!-- Herb_Augmentor&#45;&gt;Potion_Air_Res_Large -->
<g id="edge2" class="edge"><title>Herb_Augmentor&#45;&gt;Potion_Air_Res_Large</title>
<path fill="none" stroke="black" d="M92.4607,-173.997C89.7946,-153.039 87.2553,-116.57 96.1424,-87 100.8,-71.5042 110.16,-56.1999 119.055,-44.0458"/>
<polygon fill="black" stroke="black" points="122.072,-45.8618 125.375,-35.7948 116.515,-41.605 122.072,-45.8618"/>
<text text-anchor="middle" x="124.142" y="-101.3" font-family="Times New Roman,serif" font-size="14.00">Crafting 4</text>
</g>
<!-- Potion_Air_Res_Medium&#45;&gt;Potion_Air_Res_Large -->
<g id="edge3" class="edge"><title>Potion_Air_Res_Medium&#45;&gt;Potion_Air_Res_Large</title>
<path fill="none" stroke="black" d="M241.549,-87.4094C222.036,-74.2458 194.574,-55.7198 173.149,-41.2663"/>
<polygon fill="black" stroke="black" points="174.921,-38.2398 164.674,-35.5488 171.006,-44.0428 174.921,-38.2398"/>
<text text-anchor="middle" x="239.142" y="-57.8" font-family="Times New Roman,serif" font-size="14.00">Crafting 4</text>
</g>
<!-- Potion_Armor_Boost -->
<g id="node3" class="node"><title>Potion_Armor_Boost</title>
<ellipse fill="none" stroke="black" cx="124.142" cy="-279" rx="90.1842" ry="18"/>
<text text-anchor="middle" x="124.142" y="-275.3" font-family="Times New Roman,serif" font-size="14.00">Potion_Armor_Boost</text>
</g>
<!-- Potion_Air_Res -->
<g id="node5" class="node"><title>Potion_Air_Res</title>
<ellipse fill="none" stroke="black" cx="266.142" cy="-192" rx="69.5877" ry="18"/>
<text text-anchor="middle" x="266.142" y="-188.3" font-family="Times New Roman,serif" font-size="14.00">Potion_Air_Res</text>
</g>
<!-- Potion_Armor_Boost&#45;&gt;Potion_Air_Res -->
<g id="edge4" class="edge"><title>Potion_Armor_Boost&#45;&gt;Potion_Air_Res</title>
<path fill="none" stroke="black" d="M151.186,-261.812C173.833,-248.256 206.317,-228.811 230.98,-214.048"/>
<polygon fill="black" stroke="black" points="232.898,-216.979 239.68,-208.84 229.303,-210.973 232.898,-216.979"/>
<text text-anchor="middle" x="232.142" y="-231.8" font-family="Times New Roman,serif" font-size="14.00">Crafting 2</text>
</g>
<!-- Potion_Empty -->
<g id="node4" class="node"><title>Potion_Empty</title>
<ellipse fill="none" stroke="black" cx="203.142" cy="-453" rx="63.8893" ry="18"/>
<text text-anchor="middle" x="203.142" y="-449.3" font-family="Times New Roman,serif" font-size="14.00">Potion_Empty</text>
</g>
<!-- Minor_Healing_Potion -->
<g id="node10" class="node"><title>Minor_Healing_Potion</title>
<ellipse fill="none" stroke="black" cx="281.142" cy="-366" rx="92.8835" ry="18"/>
<text text-anchor="middle" x="281.142" y="-362.3" font-family="Times New Roman,serif" font-size="14.00">Minor_Healing_Potion</text>
</g>
<!-- Potion_Empty&#45;&gt;Minor_Healing_Potion -->
<g id="edge5" class="edge"><title>Potion_Empty&#45;&gt;Minor_Healing_Potion</title>
<path fill="none" stroke="black" d="M218.553,-435.207C230.091,-422.633 246.041,-405.252 258.951,-391.182"/>
<polygon fill="black" stroke="black" points="261.582,-393.493 265.764,-383.758 256.424,-388.76 261.582,-393.493"/>
<text text-anchor="middle" x="275.142" y="-405.8" font-family="Times New Roman,serif" font-size="14.00">Crafting 1</text>
</g>
<!-- Potion_Air_Res&#45;&gt;Potion_Air_Res_Medium -->
<g id="edge6" class="edge"><title>Potion_Air_Res&#45;&gt;Potion_Air_Res_Medium</title>
<path fill="none" stroke="black" d="M266.142,-173.799C266.142,-162.163 266.142,-146.548 266.142,-133.237"/>
<polygon fill="black" stroke="black" points="269.643,-133.175 266.142,-123.175 262.643,-133.175 269.643,-133.175"/>
<text text-anchor="middle" x="294.142" y="-144.8" font-family="Times New Roman,serif" font-size="14.00">Crafting 3</text>
</g>
<!-- Herb_Mushroom_Jellyfish -->
<g id="node7" class="node"><title>Herb_Mushroom_Jellyfish</title>
<ellipse fill="none" stroke="black" cx="340.142" cy="-279" rx="107.482" ry="18"/>
<text text-anchor="middle" x="340.142" y="-275.3" font-family="Times New Roman,serif" font-size="14.00">Herb_Mushroom_Jellyfish</text>
</g>
<!-- Herb_Mushroom_Jellyfish&#45;&gt;Potion_Air_Res -->
<g id="edge7" class="edge"><title>Herb_Mushroom_Jellyfish&#45;&gt;Potion_Air_Res</title>
<path fill="none" stroke="black" d="M325.167,-260.799C314.365,-248.39 299.623,-231.458 287.575,-217.618"/>
<polygon fill="black" stroke="black" points="290.049,-215.129 280.843,-209.885 284.769,-219.726 290.049,-215.129"/>
<text text-anchor="middle" x="335.142" y="-231.8" font-family="Times New Roman,serif" font-size="14.00">Crafting 2</text>
</g>
<!-- Herb_Whisperwood -->
<g id="node8" class="node"><title>Herb_Whisperwood</title>
<ellipse fill="none" stroke="black" cx="85.1424" cy="-366" rx="85.2851" ry="18"/>
<text text-anchor="middle" x="85.1424" y="-362.3" font-family="Times New Roman,serif" font-size="14.00">Herb_Whisperwood</text>
</g>
<!-- Herb_Whisperwood&#45;&gt;Potion_Armor_Boost -->
<g id="edge8" class="edge"><title>Herb_Whisperwood&#45;&gt;Potion_Armor_Boost</title>
<path fill="none" stroke="black" d="M93.0347,-347.799C98.4795,-335.932 105.823,-319.928 112.007,-306.449"/>
<polygon fill="black" stroke="black" points="115.273,-307.724 116.262,-297.175 108.911,-304.805 115.273,-307.724"/>
<text text-anchor="middle" x="135.142" y="-318.8" font-family="Times New Roman,serif" font-size="14.00">Crafting 2</text>
</g>
<!-- Herb_Mushroom -->
<g id="node9" class="node"><title>Herb_Mushroom</title>
<ellipse fill="none" stroke="black" cx="358.142" cy="-453" rx="73.387" ry="18"/>
<text text-anchor="middle" x="358.142" y="-449.3" font-family="Times New Roman,serif" font-size="14.00">Herb_Mushroom</text>
</g>
<!-- Herb_Mushroom&#45;&gt;Minor_Healing_Potion -->
<g id="edge9" class="edge"><title>Herb_Mushroom&#45;&gt;Minor_Healing_Potion</title>
<path fill="none" stroke="black" d="M342.93,-435.207C331.54,-422.633 315.794,-405.252 303.049,-391.182"/>
<polygon fill="black" stroke="black" points="305.631,-388.82 296.324,-383.758 300.443,-393.519 305.631,-388.82"/>
<text text-anchor="middle" x="352.142" y="-405.8" font-family="Times New Roman,serif" font-size="14.00">Crafting 1</text>
</g>
<!-- Minor_Healing_Potion&#45;&gt;Potion_Armor_Boost -->
<g id="edge10" class="edge"><title>Minor_Healing_Potion&#45;&gt;Potion_Armor_Boost</title>
<path fill="none" stroke="black" d="M251.242,-348.812C226.143,-335.223 190.116,-315.718 162.824,-300.942"/>
<polygon fill="black" stroke="black" points="164.391,-297.811 153.931,-296.128 161.059,-303.967 164.391,-297.811"/>
<text text-anchor="middle" x="240.142" y="-318.8" font-family="Times New Roman,serif" font-size="14.00">Crafting 2</text>
</g>
</g>
</svg>
