<?xml version="1.0" encoding="UTF-8" standalone="no"?>
<!DOCTYPE svg PUBLIC "-//W3C//DTD SVG 1.1//EN"
 "http://www.w3.org/Graphics/SVG/1.1/DTD/svg11.dtd">
<!-- Generated by graphviz version 2.38.0 (20140413.2041)
 -->
<!-- Title: G Pages: 1 -->
<svg width="158pt" height="131pt"
 viewBox="0.00 0.00 157.55 131.00" xmlns="http://www.w3.org/2000/svg" xmlns:xlink="http://www.w3.org/1999/xlink">
<g id="graph0" class="graph" transform="scale(1 1) rotate(0) translate(4 127)">
<title>G</title>
<polygon fill="white" stroke="none" points="-4,4 -4,-127 153.547,-127 153.547,4 -4,4"/>
<!-- PushDagger -->
<g id="node1" class="node"><title>PushDagger</title>
<ellipse fill="none" stroke="black" cx="69.5473" cy="-18" rx="54.6905" ry="18"/>
<text text-anchor="middle" x="69.5473" y="-14.3" font-family="Times New Roman,serif" font-size="14.00">PushDagger</text>
</g>
<!-- Knife -->
<g id="node2" class="node"><title>Knife</title>
<ellipse fill="none" stroke="black" cx="30.5473" cy="-105" rx="30.5947" ry="18"/>
<text text-anchor="middle" x="30.5473" y="-101.3" font-family="Times New Roman,serif" font-size="14.00">Knife</text>
</g>
<!-- Knife&#45;&gt;PushDagger -->
<g id="edge1" class="edge"><title>Knife&#45;&gt;PushDagger</title>
<path fill="none" stroke="black" d="M27.6666,-87.0649C26.7262,-77.024 26.9116,-64.2911 31.5473,-54 33.5595,-49.5329 36.4432,-45.3786 39.7348,-41.607"/>
<polygon fill="black" stroke="black" points="42.3201,-43.9715 46.9156,-34.4251 37.3699,-39.022 42.3201,-43.9715"/>
<text text-anchor="middle" x="59.5473" y="-57.8" font-family="Times New Roman,serif" font-size="14.00">Crafting 3</text>
</g>
<!-- Anvil -->
<g id="node3" class="node"><title>Anvil</title>
<ellipse fill="none" stroke="black" cx="109.547" cy="-105" rx="29.795" ry="18"/>
<text text-anchor="middle" x="109.547" y="-101.3" font-family="Times New Roman,serif" font-size="14.00">Anvil</text>
</g>
<!-- Anvil&#45;&gt;PushDagger -->
<g id="edge2" class="edge"><title>Anvil&#45;&gt;PushDagger</title>
<path fill="none" stroke="black" d="M102.464,-87.2186C98.27,-77.4582 92.77,-64.9582 87.5473,-54 86.1362,-51.0393 84.6215,-47.9584 83.0915,-44.9064"/>
<polygon fill="black" stroke="black" points="86.2045,-43.3064 78.5447,-35.9866 79.968,-46.4855 86.2045,-43.3064"/>
<text text-anchor="middle" x="121.547" y="-57.8" font-family="Times New Roman,serif" font-size="14.00">Crafting 3</text>
</g>
</g>
</svg>
