<?xml version="1.0" encoding="UTF-8" standalone="no"?>
<!DOCTYPE svg PUBLIC "-//W3C//DTD SVG 1.1//EN"
 "http://www.w3.org/Graphics/SVG/1.1/DTD/svg11.dtd">
<!-- Generated by graphviz version 2.38.0 (20140413.2041)
 -->
<!-- Title: G Pages: 1 -->
<svg width="968pt" height="479pt"
 viewBox="0.00 0.00 968.39 479.00" xmlns="http://www.w3.org/2000/svg" xmlns:xlink="http://www.w3.org/1999/xlink">
<g id="graph0" class="graph" transform="scale(1 1) rotate(0) translate(4 475)">
<title>G</title>
<polygon fill="white" stroke="none" points="-4,4 -4,-475 964.392,-475 964.392,4 -4,4"/>
<!-- Pouch_Dust_Pixie -->
<g id="node1" class="node"><title>Pouch_Dust_Pixie</title>
<ellipse fill="none" stroke="black" cx="533.397" cy="-192" rx="78.7863" ry="18"/>
<text text-anchor="middle" x="533.397" y="-188.3" font-family="Times New Roman,serif" font-size="14.00">Pouch_Dust_Pixie</text>
</g>
<!-- Ink_Pot_A_Quill_A_Magic -->
<g id="node14" class="node"><title>Ink_Pot_A_Quill_A_Magic</title>
<ellipse fill="none" stroke="black" cx="471.397" cy="-105" rx="111.581" ry="18"/>
<text text-anchor="middle" x="471.397" y="-101.3" font-family="Times New Roman,serif" font-size="14.00">Ink_Pot_A_Quill_A_Magic</text>
</g>
<!-- Pouch_Dust_Pixie&#45;&gt;Ink_Pot_A_Quill_A_Magic -->
<g id="edge1" class="edge"><title>Pouch_Dust_Pixie&#45;&gt;Ink_Pot_A_Quill_A_Magic</title>
<path fill="none" stroke="black" d="M521.148,-174.207C512.205,-161.946 499.927,-145.114 489.806,-131.239"/>
<polygon fill="black" stroke="black" points="492.554,-129.066 483.833,-123.049 486.898,-133.191 492.554,-129.066"/>
<text text-anchor="middle" x="533.397" y="-144.8" font-family="Times New Roman,serif" font-size="14.00">Crafting 1</text>
</g>
<!-- Dagger -->
<g id="node2" class="node"><title>Dagger</title>
<ellipse fill="none" stroke="black" cx="36.3968" cy="-453" rx="36.2938" ry="18"/>
<text text-anchor="middle" x="36.3968" y="-449.3" font-family="Times New Roman,serif" font-size="14.00">Dagger</text>
</g>
<!-- Feather_A_Quill -->
<g id="node7" class="node"><title>Feather_A_Quill</title>
<ellipse fill="none" stroke="black" cx="154.397" cy="-279" rx="70.6878" ry="18"/>
<text text-anchor="middle" x="154.397" y="-275.3" font-family="Times New Roman,serif" font-size="14.00">Feather_A_Quill</text>
</g>
<!-- Dagger&#45;&gt;Feather_A_Quill -->
<g id="edge3" class="edge"><title>Dagger&#45;&gt;Feather_A_Quill</title>
<path fill="none" stroke="black" d="M31.9113,-434.793C27.2438,-412.975 22.6055,-374.957 38.3968,-348 52.3029,-324.261 77.9904,-307.967 101.664,-297.295"/>
<polygon fill="black" stroke="black" points="103.125,-300.477 110.953,-293.338 100.382,-294.037 103.125,-300.477"/>
<text text-anchor="middle" x="66.3968" y="-362.3" font-family="Times New Roman,serif" font-size="14.00">Crafting 0</text>
</g>
<!-- Feather -->
<g id="node15" class="node"><title>Feather</title>
<ellipse fill="none" stroke="black" cx="141.397" cy="-366" rx="37.8943" ry="18"/>
<text text-anchor="middle" x="141.397" y="-362.3" font-family="Times New Roman,serif" font-size="14.00">Feather</text>
</g>
<!-- Dagger&#45;&gt;Feather -->
<g id="edge4" class="edge"><title>Dagger&#45;&gt;Feather</title>
<path fill="none" stroke="black" d="M47.2299,-435.764C54.8069,-425.246 65.6436,-411.744 77.3968,-402 85.8192,-395.017 95.8456,-388.762 105.434,-383.537"/>
<polygon fill="black" stroke="black" points="107.174,-386.578 114.426,-378.855 103.94,-380.369 107.174,-386.578"/>
<text text-anchor="middle" x="105.397" y="-405.8" font-family="Times New Roman,serif" font-size="14.00">Crafting 0</text>
</g>
<!-- Quest_CYS_BlossiusWill -->
<g id="node3" class="node"><title>Quest_CYS_BlossiusWill</title>
<ellipse fill="none" stroke="black" cx="144.397" cy="-105" rx="105.082" ry="18"/>
<text text-anchor="middle" x="144.397" y="-101.3" font-family="Times New Roman,serif" font-size="14.00">Quest_CYS_BlossiusWill</text>
</g>
<!-- Quest_CYS_BlossiusWillAltered -->
<g id="node6" class="node"><title>Quest_CYS_BlossiusWillAltered</title>
<ellipse fill="none" stroke="black" cx="285.397" cy="-18" rx="131.877" ry="18"/>
<text text-anchor="middle" x="285.397" y="-14.3" font-family="Times New Roman,serif" font-size="14.00">Quest_CYS_BlossiusWillAltered</text>
</g>
<!-- Quest_CYS_BlossiusWill&#45;&gt;Quest_CYS_BlossiusWillAltered -->
<g id="edge5" class="edge"><title>Quest_CYS_BlossiusWill&#45;&gt;Quest_CYS_BlossiusWillAltered</title>
<path fill="none" stroke="black" d="M166.209,-87.3563C179.971,-77.1822 198.314,-64.2077 215.397,-54 223.448,-49.189 232.248,-44.4276 240.806,-40.0389"/>
<polygon fill="black" stroke="black" points="242.59,-43.0591 249.951,-35.4383 239.445,-36.8057 242.59,-43.0591"/>
<text text-anchor="middle" x="243.397" y="-57.8" font-family="Times New Roman,serif" font-size="14.00">Crafting 0</text>
</g>
<!-- Bone -->
<g id="node4" class="node"><title>Bone</title>
<ellipse fill="none" stroke="black" cx="390.397" cy="-366" rx="29.795" ry="18"/>
<text text-anchor="middle" x="390.397" y="-362.3" font-family="Times New Roman,serif" font-size="14.00">Bone</text>
</g>
<!-- Pouch_Dust_Bone -->
<g id="node5" class="node"><title>Pouch_Dust_Bone</title>
<ellipse fill="none" stroke="black" cx="497.397" cy="-279" rx="79.8859" ry="18"/>
<text text-anchor="middle" x="497.397" y="-275.3" font-family="Times New Roman,serif" font-size="14.00">Pouch_Dust_Bone</text>
</g>
<!-- Bone&#45;&gt;Pouch_Dust_Bone -->
<g id="edge22" class="edge"><title>Bone&#45;&gt;Pouch_Dust_Bone</title>
<path fill="none" stroke="black" d="M402.949,-349.449C411.88,-338.967 424.533,-325.238 437.397,-315 443.7,-309.984 450.798,-305.203 457.848,-300.875"/>
<polygon fill="black" stroke="black" points="459.859,-303.752 466.689,-295.653 456.299,-297.725 459.859,-303.752"/>
<text text-anchor="middle" x="465.397" y="-318.8" font-family="Times New Roman,serif" font-size="14.00">Crafting 0</text>
</g>
<!-- Pouch_Dust_Bone&#45;&gt;Pouch_Dust_Pixie -->
<g id="edge6" class="edge"><title>Pouch_Dust_Bone&#45;&gt;Pouch_Dust_Pixie</title>
<path fill="none" stroke="black" d="M504.682,-260.799C509.708,-248.932 516.486,-232.928 522.195,-219.449"/>
<polygon fill="black" stroke="black" points="525.445,-220.749 526.122,-210.175 519,-218.019 525.445,-220.749"/>
<text text-anchor="middle" x="545.397" y="-231.8" font-family="Times New Roman,serif" font-size="14.00">Crafting 0</text>
</g>
<!-- Ink_Pot_A_Quill -->
<g id="node8" class="node"><title>Ink_Pot_A_Quill</title>
<ellipse fill="none" stroke="black" cx="285.397" cy="-192" rx="73.387" ry="18"/>
<text text-anchor="middle" x="285.397" y="-188.3" font-family="Times New Roman,serif" font-size="14.00">Ink_Pot_A_Quill</text>
</g>
<!-- Feather_A_Quill&#45;&gt;Ink_Pot_A_Quill -->
<g id="edge10" class="edge"><title>Feather_A_Quill&#45;&gt;Ink_Pot_A_Quill</title>
<path fill="none" stroke="black" d="M176.447,-261.74C190.298,-251.71 208.651,-238.753 225.397,-228 232.763,-223.27 240.777,-218.408 248.478,-213.869"/>
<polygon fill="black" stroke="black" points="250.44,-216.777 257.317,-208.717 246.915,-210.729 250.44,-216.777"/>
<text text-anchor="middle" x="253.397" y="-231.8" font-family="Times New Roman,serif" font-size="14.00">Crafting 0</text>
</g>
<!-- Ink_Pot_A_Quill&#45;&gt;Quest_CYS_BlossiusWillAltered -->
<g id="edge12" class="edge"><title>Ink_Pot_A_Quill&#45;&gt;Quest_CYS_BlossiusWillAltered</title>
<path fill="none" stroke="black" d="M285.397,-173.879C285.397,-144.001 285.397,-82.1129 285.397,-46.2736"/>
<polygon fill="black" stroke="black" points="288.897,-46.0516 285.397,-36.0516 281.897,-46.0516 288.897,-46.0516"/>
<text text-anchor="middle" x="313.397" y="-101.3" font-family="Times New Roman,serif" font-size="14.00">Crafting 0</text>
</g>
<!-- Ink_Pot_A_Quill&#45;&gt;Ink_Pot_A_Quill_A_Magic -->
<g id="edge11" class="edge"><title>Ink_Pot_A_Quill&#45;&gt;Ink_Pot_A_Quill_A_Magic</title>
<path fill="none" stroke="black" d="M318.65,-175.804C348.703,-162.07 393.191,-141.739 426.414,-126.557"/>
<polygon fill="black" stroke="black" points="428.258,-129.562 435.898,-122.222 425.348,-123.196 428.258,-129.562"/>
<text text-anchor="middle" x="417.397" y="-144.8" font-family="Times New Roman,serif" font-size="14.00">Crafting 1</text>
</g>
<!-- Moonstone -->
<g id="node9" class="node"><title>Moonstone</title>
<ellipse fill="none" stroke="black" cx="908.397" cy="-366" rx="51.9908" ry="18"/>
<text text-anchor="middle" x="908.397" y="-362.3" font-family="Times New Roman,serif" font-size="14.00">Moonstone</text>
</g>
<!-- Pouch_Dust_Moon -->
<g id="node16" class="node"><title>Pouch_Dust_Moon</title>
<ellipse fill="none" stroke="black" cx="847.397" cy="-279" rx="83.3857" ry="18"/>
<text text-anchor="middle" x="847.397" y="-275.3" font-family="Times New Roman,serif" font-size="14.00">Pouch_Dust_Moon</text>
</g>
<!-- Moonstone&#45;&gt;Pouch_Dust_Moon -->
<g id="edge13" class="edge"><title>Moonstone&#45;&gt;Pouch_Dust_Moon</title>
<path fill="none" stroke="black" d="M902.911,-347.842C899.19,-337.722 893.63,-324.984 886.397,-315 883.545,-311.063 880.184,-307.245 876.651,-303.667"/>
<polygon fill="black" stroke="black" points="878.942,-301.016 869.266,-296.7 874.138,-306.108 878.942,-301.016"/>
<text text-anchor="middle" x="922.397" y="-318.8" font-family="Times New Roman,serif" font-size="14.00">Crafting 0</text>
</g>
<!-- Pouch_Dust_Star -->
<g id="node10" class="node"><title>Pouch_Dust_Star</title>
<ellipse fill="none" stroke="black" cx="670.397" cy="-279" rx="75.2868" ry="18"/>
<text text-anchor="middle" x="670.397" y="-275.3" font-family="Times New Roman,serif" font-size="14.00">Pouch_Dust_Star</text>
</g>
<!-- Pouch_Dust_Star&#45;&gt;Pouch_Dust_Pixie -->
<g id="edge14" class="edge"><title>Pouch_Dust_Star&#45;&gt;Pouch_Dust_Pixie</title>
<path fill="none" stroke="black" d="M644.628,-262.012C623.047,-248.622 592.044,-229.387 568.248,-214.623"/>
<polygon fill="black" stroke="black" points="569.858,-211.503 559.516,-209.205 566.168,-217.451 569.858,-211.503"/>
<text text-anchor="middle" x="637.397" y="-231.8" font-family="Times New Roman,serif" font-size="14.00">Crafting 0</text>
</g>
<!-- MortarPestle -->
<g id="node11" class="node"><title>MortarPestle</title>
<ellipse fill="none" stroke="black" cx="633.397" cy="-366" rx="57.3905" ry="18"/>
<text text-anchor="middle" x="633.397" y="-362.3" font-family="Times New Roman,serif" font-size="14.00">MortarPestle</text>
</g>
<!-- MortarPestle&#45;&gt;Pouch_Dust_Bone -->
<g id="edge15" class="edge"><title>MortarPestle&#45;&gt;Pouch_Dust_Bone</title>
<path fill="none" stroke="black" d="M610.322,-349.355C595.364,-339.329 575.384,-326.152 557.397,-315 549.956,-310.387 541.911,-305.576 534.202,-301.05"/>
<polygon fill="black" stroke="black" points="535.765,-297.91 525.363,-295.897 532.239,-303.957 535.765,-297.91"/>
<text text-anchor="middle" x="608.397" y="-318.8" font-family="Times New Roman,serif" font-size="14.00">Crafting 0</text>
</g>
<!-- MortarPestle&#45;&gt;Pouch_Dust_Star -->
<g id="edge16" class="edge"><title>MortarPestle&#45;&gt;Pouch_Dust_Star</title>
<path fill="none" stroke="black" d="M640.884,-347.799C646.05,-335.932 653.016,-319.928 658.884,-306.449"/>
<polygon fill="black" stroke="black" points="662.138,-307.741 662.92,-297.175 655.72,-304.947 662.138,-307.741"/>
<text text-anchor="middle" x="681.397" y="-318.8" font-family="Times New Roman,serif" font-size="14.00">Crafting 0</text>
</g>
<!-- MortarPestle&#45;&gt;Pouch_Dust_Moon -->
<g id="edge17" class="edge"><title>MortarPestle&#45;&gt;Pouch_Dust_Moon</title>
<path fill="none" stroke="black" d="M675.564,-353.773C683.465,-351.773 691.668,-349.767 699.397,-348 739.163,-338.909 752.745,-347.906 789.397,-330 802.533,-323.583 815.086,-313.452 825.133,-303.983"/>
<polygon fill="black" stroke="black" points="827.617,-306.449 832.295,-296.943 822.71,-301.457 827.617,-306.449"/>
<text text-anchor="middle" x="839.397" y="-318.8" font-family="Times New Roman,serif" font-size="14.00">Crafting 0</text>
</g>
<!-- Skull_Human -->
<g id="node12" class="node"><title>Skull_Human</title>
<ellipse fill="none" stroke="black" cx="498.397" cy="-366" rx="59.5901" ry="18"/>
<text text-anchor="middle" x="498.397" y="-362.3" font-family="Times New Roman,serif" font-size="14.00">Skull_Human</text>
</g>
<!-- Skull_Human&#45;&gt;Pouch_Dust_Bone -->
<g id="edge21" class="edge"><title>Skull_Human&#45;&gt;Pouch_Dust_Bone</title>
<path fill="none" stroke="black" d="M498.194,-347.799C498.058,-336.163 497.874,-320.548 497.717,-307.237"/>
<polygon fill="black" stroke="black" points="501.216,-307.134 497.599,-297.175 494.217,-307.216 501.216,-307.134"/>
<text text-anchor="middle" x="525.397" y="-318.8" font-family="Times New Roman,serif" font-size="14.00">Crafting 0</text>
</g>
<!-- Herb_Stardust -->
<g id="node13" class="node"><title>Herb_Stardust</title>
<ellipse fill="none" stroke="black" cx="772.397" cy="-366" rx="63.8893" ry="18"/>
<text text-anchor="middle" x="772.397" y="-362.3" font-family="Times New Roman,serif" font-size="14.00">Herb_Stardust</text>
</g>
<!-- Herb_Stardust&#45;&gt;Pouch_Dust_Star -->
<g id="edge18" class="edge"><title>Herb_Stardust&#45;&gt;Pouch_Dust_Star</title>
<path fill="none" stroke="black" d="M753.346,-348.691C741.829,-338.872 726.824,-326.152 713.397,-315 708.748,-311.139 703.793,-307.067 698.962,-303.119"/>
<polygon fill="black" stroke="black" points="700.988,-300.255 691.024,-296.652 696.567,-305.682 700.988,-300.255"/>
<text text-anchor="middle" x="757.397" y="-318.8" font-family="Times New Roman,serif" font-size="14.00">Crafting 0</text>
</g>
<!-- Ink_Pot_A_Quill_A_Magic&#45;&gt;Quest_CYS_BlossiusWillAltered -->
<g id="edge2" class="edge"><title>Ink_Pot_A_Quill_A_Magic&#45;&gt;Quest_CYS_BlossiusWillAltered</title>
<path fill="none" stroke="black" d="M435.974,-87.8121C406.043,-74.1339 362.994,-54.461 330.585,-39.6505"/>
<polygon fill="black" stroke="black" points="331.871,-36.3903 321.321,-35.4172 328.962,-42.757 331.871,-36.3903"/>
<text text-anchor="middle" x="417.397" y="-57.8" font-family="Times New Roman,serif" font-size="14.00">Crafting 0</text>
</g>
<!-- Feather&#45;&gt;Feather_A_Quill -->
<g id="edge19" class="edge"><title>Feather&#45;&gt;Feather_A_Quill</title>
<path fill="none" stroke="black" d="M144.028,-347.799C145.807,-336.163 148.195,-320.548 150.231,-307.237"/>
<polygon fill="black" stroke="black" points="153.718,-307.59 151.77,-297.175 146.798,-306.531 153.718,-307.59"/>
<text text-anchor="middle" x="177.397" y="-318.8" font-family="Times New Roman,serif" font-size="14.00">Crafting 0</text>
</g>
<!-- Pouch_Dust_Moon&#45;&gt;Pouch_Dust_Pixie -->
<g id="edge23" class="edge"><title>Pouch_Dust_Moon&#45;&gt;Pouch_Dust_Pixie</title>
<path fill="none" stroke="black" d="M799.502,-264.239C763.716,-254.032 713.566,-239.886 669.397,-228 644.78,-221.376 617.583,-214.324 594.022,-208.299"/>
<polygon fill="black" stroke="black" points="594.719,-204.865 584.164,-205.784 592.989,-211.647 594.719,-204.865"/>
<text text-anchor="middle" x="750.397" y="-231.8" font-family="Times New Roman,serif" font-size="14.00">Crafting 0</text>
</g>
<!-- Pillow -->
<g id="node17" class="node"><title>Pillow</title>
<ellipse fill="none" stroke="black" cx="136.397" cy="-453" rx="33.2948" ry="18"/>
<text text-anchor="middle" x="136.397" y="-449.3" font-family="Times New Roman,serif" font-size="14.00">Pillow</text>
</g>
<!-- Pillow&#45;&gt;Feather -->
<g id="edge9" class="edge"><title>Pillow&#45;&gt;Feather</title>
<path fill="none" stroke="black" d="M136.343,-434.858C136.412,-425.198 136.666,-412.915 137.397,-402 137.568,-399.437 137.792,-396.773 138.044,-394.11"/>
<polygon fill="black" stroke="black" points="141.536,-394.377 139.122,-384.061 134.576,-393.63 141.536,-394.377"/>
<text text-anchor="middle" x="165.397" y="-405.8" font-family="Times New Roman,serif" font-size="14.00">Crafting 0</text>
</g>
<!-- Knife -->
<g id="node18" class="node"><title>Knife</title>
<ellipse fill="none" stroke="black" cx="252.397" cy="-453" rx="30.5947" ry="18"/>
<text text-anchor="middle" x="252.397" y="-449.3" font-family="Times New Roman,serif" font-size="14.00">Knife</text>
</g>
<!-- Knife&#45;&gt;Feather_A_Quill -->
<g id="edge7" class="edge"><title>Knife&#45;&gt;Feather_A_Quill</title>
<path fill="none" stroke="black" d="M264.606,-436.435C270.765,-426.667 276.201,-413.74 272.397,-402 257.68,-356.585 244.152,-347.729 209.397,-315 204.072,-309.986 197.931,-305.272 191.724,-301.028"/>
<polygon fill="black" stroke="black" points="193.583,-298.062 183.291,-295.546 189.768,-303.931 193.583,-298.062"/>
<text text-anchor="middle" x="293.397" y="-362.3" font-family="Times New Roman,serif" font-size="14.00">Crafting 0</text>
</g>
<!-- Knife&#45;&gt;Feather -->
<g id="edge8" class="edge"><title>Knife&#45;&gt;Feather</title>
<path fill="none" stroke="black" d="M236.266,-437.491C224.627,-427.232 208.387,-413.342 193.397,-402 186.411,-396.714 178.677,-391.292 171.355,-386.342"/>
<polygon fill="black" stroke="black" points="173.282,-383.42 163.02,-380.784 169.399,-389.244 173.282,-383.42"/>
<text text-anchor="middle" x="240.397" y="-405.8" font-family="Times New Roman,serif" font-size="14.00">Crafting 0</text>
</g>
<!-- Ink_Pot -->
<g id="node19" class="node"><title>Ink_Pot</title>
<ellipse fill="none" stroke="black" cx="285.397" cy="-279" rx="40.0939" ry="18"/>
<text text-anchor="middle" x="285.397" y="-275.3" font-family="Times New Roman,serif" font-size="14.00">Ink_Pot</text>
</g>
<!-- Ink_Pot&#45;&gt;Ink_Pot_A_Quill -->
<g id="edge20" class="edge"><title>Ink_Pot&#45;&gt;Ink_Pot_A_Quill</title>
<path fill="none" stroke="black" d="M285.397,-260.799C285.397,-249.163 285.397,-233.548 285.397,-220.237"/>
<polygon fill="black" stroke="black" points="288.897,-220.175 285.397,-210.175 281.897,-220.175 288.897,-220.175"/>
<text text-anchor="middle" x="313.397" y="-231.8" font-family="Times New Roman,serif" font-size="14.00">Crafting 0</text>
</g>
</g>
</svg>
