<?xml version="1.0" encoding="UTF-8" standalone="no"?>
<!DOCTYPE svg PUBLIC "-//W3C//DTD SVG 1.1//EN"
 "http://www.w3.org/Graphics/SVG/1.1/DTD/svg11.dtd">
<!-- Generated by graphviz version 2.38.0 (20140413.2041)
 -->
<!-- Title: G Pages: 1 -->
<svg width="284pt" height="131pt"
 viewBox="0.00 0.00 283.69 131.00" xmlns="http://www.w3.org/2000/svg" xmlns:xlink="http://www.w3.org/1999/xlink">
<g id="graph0" class="graph" transform="scale(1 1) rotate(0) translate(4 127)">
<title>G</title>
<polygon fill="white" stroke="none" points="-4,4 -4,-127 279.689,-127 279.689,4 -4,4"/>
<!-- Ring -->
<g id="node1" class="node"><title>Ring</title>
<ellipse fill="none" stroke="black" cx="27.9475" cy="-105" rx="27.8951" ry="18"/>
<text text-anchor="middle" x="27.9475" y="-101.3" font-family="Times New Roman,serif" font-size="14.00">Ring</text>
</g>
<!-- Rabbit_Paw_MagicRing -->
<g id="node2" class="node"><title>Rabbit_Paw_MagicRing</title>
<ellipse fill="none" stroke="black" cx="100.948" cy="-18" rx="100.182" ry="18"/>
<text text-anchor="middle" x="100.948" y="-14.3" font-family="Times New Roman,serif" font-size="14.00">Rabbit_Paw_MagicRing</text>
</g>
<!-- Ring&#45;&gt;Rabbit_Paw_MagicRing -->
<g id="edge1" class="edge"><title>Ring&#45;&gt;Rabbit_Paw_MagicRing</title>
<path fill="none" stroke="black" d="M40.9985,-88.8037C51.7945,-76.233 67.3369,-58.1356 79.8909,-43.518"/>
<polygon fill="black" stroke="black" points="82.6486,-45.6789 86.5087,-35.8123 77.3382,-41.1182 82.6486,-45.6789"/>
<text text-anchor="middle" x="96.9475" y="-57.8" font-family="Times New Roman,serif" font-size="14.00">Crafting 2</text>
</g>
<!-- Paw_A_Rabbit_A_Magi -->
<g id="node3" class="node"><title>Paw_A_Rabbit_A_Magi</title>
<ellipse fill="none" stroke="black" cx="174.948" cy="-105" rx="100.983" ry="18"/>
<text text-anchor="middle" x="174.948" y="-101.3" font-family="Times New Roman,serif" font-size="14.00">Paw_A_Rabbit_A_Magi</text>
</g>
<!-- Paw_A_Rabbit_A_Magi&#45;&gt;Rabbit_Paw_MagicRing -->
<g id="edge2" class="edge"><title>Paw_A_Rabbit_A_Magi&#45;&gt;Rabbit_Paw_MagicRing</title>
<path fill="none" stroke="black" d="M159.973,-86.799C149.17,-74.3902 134.428,-57.4575 122.38,-43.6185"/>
<polygon fill="black" stroke="black" points="124.854,-41.1294 115.648,-35.8854 119.574,-45.7258 124.854,-41.1294"/>
<text text-anchor="middle" x="170.948" y="-57.8" font-family="Times New Roman,serif" font-size="14.00">Crafting 2</text>
</g>
</g>
</svg>
