<?xml version="1.0" encoding="UTF-8" standalone="no"?>
<!DOCTYPE svg PUBLIC "-//W3C//DTD SVG 1.1//EN"
 "http://www.w3.org/Graphics/SVG/1.1/DTD/svg11.dtd">
<!-- Generated by graphviz version 2.38.0 (20140413.2041)
 -->
<!-- Title: G Pages: 1 -->
<svg width="678pt" height="566pt"
 viewBox="0.00 0.00 677.79 566.00" xmlns="http://www.w3.org/2000/svg" xmlns:xlink="http://www.w3.org/1999/xlink">
<g id="graph0" class="graph" transform="scale(1 1) rotate(0) translate(4 562)">
<title>G</title>
<polygon fill="white" stroke="none" points="-4,4 -4,-562 673.79,-562 673.79,4 -4,4"/>
<!-- Pouch_Dust_Pixie -->
<g id="node1" class="node"><title>Pouch_Dust_Pixie</title>
<ellipse fill="none" stroke="black" cx="340.795" cy="-366" rx="78.7863" ry="18"/>
<text text-anchor="middle" x="340.795" y="-362.3" font-family="Times New Roman,serif" font-size="14.00">Pouch_Dust_Pixie</text>
</g>
<!-- Paw_A_Rabbit_A_Magic -->
<g id="node3" class="node"><title>Paw_A_Rabbit_A_Magic</title>
<ellipse fill="none" stroke="black" cx="358.795" cy="-279" rx="105.082" ry="18"/>
<text text-anchor="middle" x="358.795" y="-275.3" font-family="Times New Roman,serif" font-size="14.00">Paw_A_Rabbit_A_Magic</text>
</g>
<!-- Pouch_Dust_Pixie&#45;&gt;Paw_A_Rabbit_A_Magic -->
<g id="edge1" class="edge"><title>Pouch_Dust_Pixie&#45;&gt;Paw_A_Rabbit_A_Magic</title>
<path fill="none" stroke="black" d="M344.437,-347.799C346.901,-336.163 350.208,-320.548 353.027,-307.237"/>
<polygon fill="black" stroke="black" points="356.51,-307.684 355.158,-297.175 349.662,-306.233 356.51,-307.684"/>
<text text-anchor="middle" x="378.795" y="-318.8" font-family="Times New Roman,serif" font-size="14.00">Crafting 1</text>
</g>
<!-- Hair -->
<g id="node2" class="node"><title>Hair</title>
<ellipse fill="none" stroke="black" cx="198.795" cy="-366" rx="27" ry="18"/>
<text text-anchor="middle" x="198.795" y="-362.3" font-family="Times New Roman,serif" font-size="14.00">Hair</text>
</g>
<!-- Thread -->
<g id="node4" class="node"><title>Thread</title>
<ellipse fill="none" stroke="black" cx="198.795" cy="-279" rx="36.2938" ry="18"/>
<text text-anchor="middle" x="198.795" y="-275.3" font-family="Times New Roman,serif" font-size="14.00">Thread</text>
</g>
<!-- Hair&#45;&gt;Thread -->
<g id="edge11" class="edge"><title>Hair&#45;&gt;Thread</title>
<path fill="none" stroke="black" d="M198.795,-347.799C198.795,-336.163 198.795,-320.548 198.795,-307.237"/>
<polygon fill="black" stroke="black" points="202.295,-307.175 198.795,-297.175 195.295,-307.175 202.295,-307.175"/>
<text text-anchor="middle" x="226.795" y="-318.8" font-family="Times New Roman,serif" font-size="14.00">Crafting 0</text>
</g>
<!-- Rabbit_Paw_MagicAmulet -->
<g id="node17" class="node"><title>Rabbit_Paw_MagicAmulet</title>
<ellipse fill="none" stroke="black" cx="266.795" cy="-192" rx="108.581" ry="18"/>
<text text-anchor="middle" x="266.795" y="-188.3" font-family="Times New Roman,serif" font-size="14.00">Rabbit_Paw_MagicAmulet</text>
</g>
<!-- Paw_A_Rabbit_A_Magic&#45;&gt;Rabbit_Paw_MagicAmulet -->
<g id="edge6" class="edge"><title>Paw_A_Rabbit_A_Magic&#45;&gt;Rabbit_Paw_MagicAmulet</title>
<path fill="none" stroke="black" d="M340.618,-261.207C326.884,-248.517 307.848,-230.93 292.547,-216.793"/>
<polygon fill="black" stroke="black" points="294.653,-213.974 284.933,-209.758 289.903,-219.115 294.653,-213.974"/>
<text text-anchor="middle" x="345.795" y="-231.8" font-family="Times New Roman,serif" font-size="14.00">Crafting 1</text>
</g>
<!-- Thread&#45;&gt;Rabbit_Paw_MagicAmulet -->
<g id="edge7" class="edge"><title>Thread&#45;&gt;Rabbit_Paw_MagicAmulet</title>
<path fill="none" stroke="black" d="M208.696,-261.199C214.871,-251.206 223.247,-238.476 231.795,-228 234.747,-224.382 238.023,-220.722 241.352,-217.203"/>
<polygon fill="black" stroke="black" points="244.119,-219.38 248.621,-209.79 239.121,-214.48 244.119,-219.38"/>
<text text-anchor="middle" x="259.795" y="-231.8" font-family="Times New Roman,serif" font-size="14.00">Crafting 1</text>
</g>
<!-- Bone -->
<g id="node5" class="node"><title>Bone</title>
<ellipse fill="none" stroke="black" cx="167.795" cy="-540" rx="29.795" ry="18"/>
<text text-anchor="middle" x="167.795" y="-536.3" font-family="Times New Roman,serif" font-size="14.00">Bone</text>
</g>
<!-- Pouch_Dust_Bone -->
<g id="node6" class="node"><title>Pouch_Dust_Bone</title>
<ellipse fill="none" stroke="black" cx="167.795" cy="-453" rx="79.8859" ry="18"/>
<text text-anchor="middle" x="167.795" y="-449.3" font-family="Times New Roman,serif" font-size="14.00">Pouch_Dust_Bone</text>
</g>
<!-- Bone&#45;&gt;Pouch_Dust_Bone -->
<g id="edge19" class="edge"><title>Bone&#45;&gt;Pouch_Dust_Bone</title>
<path fill="none" stroke="black" d="M167.795,-521.799C167.795,-510.163 167.795,-494.548 167.795,-481.237"/>
<polygon fill="black" stroke="black" points="171.295,-481.175 167.795,-471.175 164.295,-481.175 171.295,-481.175"/>
<text text-anchor="middle" x="195.795" y="-492.8" font-family="Times New Roman,serif" font-size="14.00">Crafting 0</text>
</g>
<!-- Pouch_Dust_Bone&#45;&gt;Pouch_Dust_Pixie -->
<g id="edge8" class="edge"><title>Pouch_Dust_Bone&#45;&gt;Pouch_Dust_Pixie</title>
<path fill="none" stroke="black" d="M199.526,-436.41C227.814,-422.511 269.378,-402.089 300.104,-386.993"/>
<polygon fill="black" stroke="black" points="301.833,-390.043 309.265,-382.491 298.746,-383.76 301.833,-390.043"/>
<text text-anchor="middle" x="291.795" y="-405.8" font-family="Times New Roman,serif" font-size="14.00">Crafting 0</text>
</g>
<!-- Paw_A_Rabbit -->
<g id="node7" class="node"><title>Paw_A_Rabbit</title>
<ellipse fill="none" stroke="black" cx="504.795" cy="-366" rx="66.8882" ry="18"/>
<text text-anchor="middle" x="504.795" y="-362.3" font-family="Times New Roman,serif" font-size="14.00">Paw_A_Rabbit</text>
</g>
<!-- Paw_A_Rabbit&#45;&gt;Paw_A_Rabbit_A_Magic -->
<g id="edge9" class="edge"><title>Paw_A_Rabbit&#45;&gt;Paw_A_Rabbit_A_Magic</title>
<path fill="none" stroke="black" d="M478.016,-349.41C454.893,-335.948 421.26,-316.367 395.607,-301.432"/>
<polygon fill="black" stroke="black" points="397.299,-298.367 386.896,-296.361 393.777,-304.417 397.299,-298.367"/>
<text text-anchor="middle" x="467.795" y="-318.8" font-family="Times New Roman,serif" font-size="14.00">Crafting 1</text>
</g>
<!-- Sinew -->
<g id="node8" class="node"><title>Sinew</title>
<ellipse fill="none" stroke="black" cx="86.7947" cy="-279" rx="32.4942" ry="18"/>
<text text-anchor="middle" x="86.7947" y="-275.3" font-family="Times New Roman,serif" font-size="14.00">Sinew</text>
</g>
<!-- String_Bow -->
<g id="node9" class="node"><title>String_Bow</title>
<ellipse fill="none" stroke="black" cx="86.7947" cy="-192" rx="53.8905" ry="18"/>
<text text-anchor="middle" x="86.7947" y="-188.3" font-family="Times New Roman,serif" font-size="14.00">String_Bow</text>
</g>
<!-- Sinew&#45;&gt;String_Bow -->
<g id="edge10" class="edge"><title>Sinew&#45;&gt;String_Bow</title>
<path fill="none" stroke="black" d="M86.7947,-260.799C86.7947,-249.163 86.7947,-233.548 86.7947,-220.237"/>
<polygon fill="black" stroke="black" points="90.2948,-220.175 86.7947,-210.175 83.2948,-220.175 90.2948,-220.175"/>
<text text-anchor="middle" x="114.795" y="-231.8" font-family="Times New Roman,serif" font-size="14.00">Crafting 0</text>
</g>
<!-- Rabbit_Paw_SuperAmulet -->
<g id="node12" class="node"><title>Rabbit_Paw_SuperAmulet</title>
<ellipse fill="none" stroke="black" cx="188.795" cy="-105" rx="107.781" ry="18"/>
<text text-anchor="middle" x="188.795" y="-101.3" font-family="Times New Roman,serif" font-size="14.00">Rabbit_Paw_SuperAmulet</text>
</g>
<!-- String_Bow&#45;&gt;Rabbit_Paw_SuperAmulet -->
<g id="edge2" class="edge"><title>String_Bow&#45;&gt;Rabbit_Paw_SuperAmulet</title>
<path fill="none" stroke="black" d="M105.98,-175.012C121.354,-162.2 143.15,-144.037 160.523,-129.56"/>
<polygon fill="black" stroke="black" points="163.207,-131.879 168.648,-122.789 158.726,-126.502 163.207,-131.879"/>
<text text-anchor="middle" x="172.795" y="-144.8" font-family="Times New Roman,serif" font-size="14.00">Crafting 3</text>
</g>
<!-- Moonstone -->
<g id="node10" class="node"><title>Moonstone</title>
<ellipse fill="none" stroke="black" cx="617.795" cy="-540" rx="51.9908" ry="18"/>
<text text-anchor="middle" x="617.795" y="-536.3" font-family="Times New Roman,serif" font-size="14.00">Moonstone</text>
</g>
<!-- Pouch_Dust_Moon -->
<g id="node19" class="node"><title>Pouch_Dust_Moon</title>
<ellipse fill="none" stroke="black" cx="517.795" cy="-453" rx="83.3857" ry="18"/>
<text text-anchor="middle" x="517.795" y="-449.3" font-family="Times New Roman,serif" font-size="14.00">Pouch_Dust_Moon</text>
</g>
<!-- Moonstone&#45;&gt;Pouch_Dust_Moon -->
<g id="edge12" class="edge"><title>Moonstone&#45;&gt;Pouch_Dust_Moon</title>
<path fill="none" stroke="black" d="M598.985,-523.012C583.913,-510.2 562.544,-492.037 545.512,-477.56"/>
<polygon fill="black" stroke="black" points="547.432,-474.598 537.546,-470.789 542.899,-479.932 547.432,-474.598"/>
<text text-anchor="middle" x="600.795" y="-492.8" font-family="Times New Roman,serif" font-size="14.00">Crafting 0</text>
</g>
<!-- Pouch_Dust_Star -->
<g id="node11" class="node"><title>Pouch_Dust_Star</title>
<ellipse fill="none" stroke="black" cx="340.795" cy="-453" rx="75.2868" ry="18"/>
<text text-anchor="middle" x="340.795" y="-449.3" font-family="Times New Roman,serif" font-size="14.00">Pouch_Dust_Star</text>
</g>
<!-- Pouch_Dust_Star&#45;&gt;Pouch_Dust_Pixie -->
<g id="edge13" class="edge"><title>Pouch_Dust_Star&#45;&gt;Pouch_Dust_Pixie</title>
<path fill="none" stroke="black" d="M340.795,-434.799C340.795,-423.163 340.795,-407.548 340.795,-394.237"/>
<polygon fill="black" stroke="black" points="344.295,-394.175 340.795,-384.175 337.295,-394.175 344.295,-394.175"/>
<text text-anchor="middle" x="368.795" y="-405.8" font-family="Times New Roman,serif" font-size="14.00">Crafting 0</text>
</g>
<!-- Rabbit_Paw_SuperRing -->
<g id="node14" class="node"><title>Rabbit_Paw_SuperRing</title>
<ellipse fill="none" stroke="black" cx="284.795" cy="-18" rx="98.5829" ry="18"/>
<text text-anchor="middle" x="284.795" y="-14.3" font-family="Times New Roman,serif" font-size="14.00">Rabbit_Paw_SuperRing</text>
</g>
<!-- Rabbit_Paw_SuperAmulet&#45;&gt;Rabbit_Paw_SuperRing -->
<g id="edge14" class="edge"><title>Rabbit_Paw_SuperAmulet&#45;&gt;Rabbit_Paw_SuperRing</title>
<path fill="none" stroke="black" d="M207.761,-87.2067C222.225,-74.4006 242.321,-56.6066 258.362,-42.4043"/>
<polygon fill="black" stroke="black" points="260.701,-45.008 265.868,-35.7584 256.06,-39.7671 260.701,-45.008"/>
<text text-anchor="middle" x="270.795" y="-57.8" font-family="Times New Roman,serif" font-size="14.00">Crafting 2</text>
</g>
<!-- Skull_Human -->
<g id="node13" class="node"><title>Skull_Human</title>
<ellipse fill="none" stroke="black" cx="59.7947" cy="-540" rx="59.5901" ry="18"/>
<text text-anchor="middle" x="59.7947" y="-536.3" font-family="Times New Roman,serif" font-size="14.00">Skull_Human</text>
</g>
<!-- Skull_Human&#45;&gt;Pouch_Dust_Bone -->
<g id="edge18" class="edge"><title>Skull_Human&#45;&gt;Pouch_Dust_Bone</title>
<path fill="none" stroke="black" d="M73.8858,-522.087C82.9428,-511.812 95.3145,-498.825 107.795,-489 114.124,-484.017 121.235,-479.252 128.289,-474.929"/>
<polygon fill="black" stroke="black" points="130.3,-477.807 137.131,-469.709 126.741,-471.779 130.3,-477.807"/>
<text text-anchor="middle" x="135.795" y="-492.8" font-family="Times New Roman,serif" font-size="14.00">Crafting 0</text>
</g>
<!-- Herb_Stardust -->
<g id="node15" class="node"><title>Herb_Stardust</title>
<ellipse fill="none" stroke="black" cx="483.795" cy="-540" rx="63.8893" ry="18"/>
<text text-anchor="middle" x="483.795" y="-536.3" font-family="Times New Roman,serif" font-size="14.00">Herb_Stardust</text>
</g>
<!-- Herb_Stardust&#45;&gt;Pouch_Dust_Star -->
<g id="edge16" class="edge"><title>Herb_Stardust&#45;&gt;Pouch_Dust_Star</title>
<path fill="none" stroke="black" d="M480.222,-521.94C477.103,-511.075 471.5,-497.494 461.795,-489 452.864,-481.184 429.753,-473.703 406.093,-467.679"/>
<polygon fill="black" stroke="black" points="406.864,-464.265 396.317,-465.275 405.192,-471.062 406.864,-464.265"/>
<text text-anchor="middle" x="499.795" y="-492.8" font-family="Times New Roman,serif" font-size="14.00">Crafting 0</text>
</g>
<!-- Ring -->
<g id="node16" class="node"><title>Ring</title>
<ellipse fill="none" stroke="black" cx="342.795" cy="-105" rx="27.8951" ry="18"/>
<text text-anchor="middle" x="342.795" y="-101.3" font-family="Times New Roman,serif" font-size="14.00">Ring</text>
</g>
<!-- Ring&#45;&gt;Rabbit_Paw_SuperRing -->
<g id="edge17" class="edge"><title>Ring&#45;&gt;Rabbit_Paw_SuperRing</title>
<path fill="none" stroke="black" d="M331.885,-88.0122C323.516,-75.746 311.798,-58.5742 302.146,-44.4285"/>
<polygon fill="black" stroke="black" points="304.979,-42.3703 296.451,-36.0828 299.197,-46.3158 304.979,-42.3703"/>
<text text-anchor="middle" x="344.795" y="-57.8" font-family="Times New Roman,serif" font-size="14.00">Crafting 2</text>
</g>
<!-- Rabbit_Paw_MagicAmulet&#45;&gt;Rabbit_Paw_SuperAmulet -->
<g id="edge15" class="edge"><title>Rabbit_Paw_MagicAmulet&#45;&gt;Rabbit_Paw_SuperAmulet</title>
<path fill="none" stroke="black" d="M251.01,-173.799C239.623,-161.39 224.085,-144.458 211.386,-130.618"/>
<polygon fill="black" stroke="black" points="213.629,-127.887 204.289,-122.885 208.472,-132.62 213.629,-127.887"/>
<text text-anchor="middle" x="260.795" y="-144.8" font-family="Times New Roman,serif" font-size="14.00">Crafting 3</text>
</g>
<!-- MortarPestle -->
<g id="node18" class="node"><title>MortarPestle</title>
<ellipse fill="none" stroke="black" cx="325.795" cy="-540" rx="57.3905" ry="18"/>
<text text-anchor="middle" x="325.795" y="-536.3" font-family="Times New Roman,serif" font-size="14.00">MortarPestle</text>
</g>
<!-- MortarPestle&#45;&gt;Pouch_Dust_Bone -->
<g id="edge3" class="edge"><title>MortarPestle&#45;&gt;Pouch_Dust_Bone</title>
<path fill="none" stroke="black" d="M298.273,-524.194C272.744,-510.46 234.51,-489.891 206.022,-474.565"/>
<polygon fill="black" stroke="black" points="207.608,-471.444 197.143,-469.789 204.291,-477.609 207.608,-471.444"/>
<text text-anchor="middle" x="283.795" y="-492.8" font-family="Times New Roman,serif" font-size="14.00">Crafting 0</text>
</g>
<!-- MortarPestle&#45;&gt;Pouch_Dust_Star -->
<g id="edge4" class="edge"><title>MortarPestle&#45;&gt;Pouch_Dust_Star</title>
<path fill="none" stroke="black" d="M324.623,-521.708C324.342,-512.001 324.619,-499.721 326.795,-489 327.349,-486.268 328.107,-483.476 328.984,-480.721"/>
<polygon fill="black" stroke="black" points="332.368,-481.659 332.541,-471.066 325.8,-479.239 332.368,-481.659"/>
<text text-anchor="middle" x="354.795" y="-492.8" font-family="Times New Roman,serif" font-size="14.00">Crafting 0</text>
</g>
<!-- MortarPestle&#45;&gt;Pouch_Dust_Moon -->
<g id="edge5" class="edge"><title>MortarPestle&#45;&gt;Pouch_Dust_Moon</title>
<path fill="none" stroke="black" d="M351.743,-523.948C361.628,-517.986 372.892,-510.913 382.795,-504 391.616,-497.841 392.255,-493.975 401.795,-489 417.309,-480.91 434.987,-474.382 451.785,-469.256"/>
<polygon fill="black" stroke="black" points="452.937,-472.566 461.551,-466.398 450.971,-465.847 452.937,-472.566"/>
<text text-anchor="middle" x="429.795" y="-492.8" font-family="Times New Roman,serif" font-size="14.00">Crafting 0</text>
</g>
<!-- Pouch_Dust_Moon&#45;&gt;Pouch_Dust_Pixie -->
<g id="edge20" class="edge"><title>Pouch_Dust_Moon&#45;&gt;Pouch_Dust_Pixie</title>
<path fill="none" stroke="black" d="M485.33,-436.41C456.388,-422.511 413.862,-402.089 382.426,-386.993"/>
<polygon fill="black" stroke="black" points="383.583,-383.665 373.053,-382.491 380.553,-389.976 383.583,-383.665"/>
<text text-anchor="middle" x="467.795" y="-405.8" font-family="Times New Roman,serif" font-size="14.00">Crafting 0</text>
</g>
</g>
</svg>
