<?xml version="1.0" encoding="UTF-8" standalone="no"?>
<!DOCTYPE svg PUBLIC "-//W3C//DTD SVG 1.1//EN"
 "http://www.w3.org/Graphics/SVG/1.1/DTD/svg11.dtd">
<!-- Generated by graphviz version 2.38.0 (20140413.2041)
 -->
<!-- Title: G Pages: 1 -->
<svg width="678pt" height="479pt"
 viewBox="0.00 0.00 677.79 479.00" xmlns="http://www.w3.org/2000/svg" xmlns:xlink="http://www.w3.org/1999/xlink">
<g id="graph0" class="graph" transform="scale(1 1) rotate(0) translate(4 475)">
<title>G</title>
<polygon fill="white" stroke="none" points="-4,4 -4,-475 673.79,-475 673.79,4 -4,4"/>
<!-- Pouch_Dust_Pixie -->
<g id="node1" class="node"><title>Pouch_Dust_Pixie</title>
<ellipse fill="none" stroke="black" cx="340.795" cy="-279" rx="78.7863" ry="18"/>
<text text-anchor="middle" x="340.795" y="-275.3" font-family="Times New Roman,serif" font-size="14.00">Pouch_Dust_Pixie</text>
</g>
<!-- Paw_A_Rabbit_A_Magic -->
<g id="node3" class="node"><title>Paw_A_Rabbit_A_Magic</title>
<ellipse fill="none" stroke="black" cx="266.795" cy="-192" rx="105.082" ry="18"/>
<text text-anchor="middle" x="266.795" y="-188.3" font-family="Times New Roman,serif" font-size="14.00">Paw_A_Rabbit_A_Magic</text>
</g>
<!-- Pouch_Dust_Pixie&#45;&gt;Paw_A_Rabbit_A_Magic -->
<g id="edge1" class="edge"><title>Pouch_Dust_Pixie&#45;&gt;Paw_A_Rabbit_A_Magic</title>
<path fill="none" stroke="black" d="M326.175,-261.207C315.4,-248.831 300.57,-231.796 288.426,-217.847"/>
<polygon fill="black" stroke="black" points="290.844,-215.293 281.638,-210.049 285.564,-219.89 290.844,-215.293"/>
<text text-anchor="middle" x="335.795" y="-231.8" font-family="Times New Roman,serif" font-size="14.00">Crafting 1</text>
</g>
<!-- Hair -->
<g id="node2" class="node"><title>Hair</title>
<ellipse fill="none" stroke="black" cx="64.7947" cy="-279" rx="27" ry="18"/>
<text text-anchor="middle" x="64.7947" y="-275.3" font-family="Times New Roman,serif" font-size="14.00">Hair</text>
</g>
<!-- Thread -->
<g id="node4" class="node"><title>Thread</title>
<ellipse fill="none" stroke="black" cx="92.7947" cy="-192" rx="36.2938" ry="18"/>
<text text-anchor="middle" x="92.7947" y="-188.3" font-family="Times New Roman,serif" font-size="14.00">Thread</text>
</g>
<!-- Hair&#45;&gt;Thread -->
<g id="edge8" class="edge"><title>Hair&#45;&gt;Thread</title>
<path fill="none" stroke="black" d="M70.3266,-261.207C74.2129,-249.409 79.4937,-233.378 83.9592,-219.822"/>
<polygon fill="black" stroke="black" points="87.3739,-220.642 87.1784,-210.049 80.7254,-218.452 87.3739,-220.642"/>
<text text-anchor="middle" x="108.795" y="-231.8" font-family="Times New Roman,serif" font-size="14.00">Crafting 0</text>
</g>
<!-- Rabbit_Paw_MagicAmulet -->
<g id="node7" class="node"><title>Rabbit_Paw_MagicAmulet</title>
<ellipse fill="none" stroke="black" cx="266.795" cy="-105" rx="108.581" ry="18"/>
<text text-anchor="middle" x="266.795" y="-101.3" font-family="Times New Roman,serif" font-size="14.00">Rabbit_Paw_MagicAmulet</text>
</g>
<!-- Paw_A_Rabbit_A_Magic&#45;&gt;Rabbit_Paw_MagicAmulet -->
<g id="edge3" class="edge"><title>Paw_A_Rabbit_A_Magic&#45;&gt;Rabbit_Paw_MagicAmulet</title>
<path fill="none" stroke="black" d="M266.795,-173.799C266.795,-162.163 266.795,-146.548 266.795,-133.237"/>
<polygon fill="black" stroke="black" points="270.295,-133.175 266.795,-123.175 263.295,-133.175 270.295,-133.175"/>
<text text-anchor="middle" x="294.795" y="-144.8" font-family="Times New Roman,serif" font-size="14.00">Crafting 1</text>
</g>
<!-- Thread&#45;&gt;Rabbit_Paw_MagicAmulet -->
<g id="edge4" class="edge"><title>Thread&#45;&gt;Rabbit_Paw_MagicAmulet</title>
<path fill="none" stroke="black" d="M117.725,-178.822C145.554,-165.227 191.065,-142.994 224.491,-126.666"/>
<polygon fill="black" stroke="black" points="226.125,-129.763 233.574,-122.229 223.052,-123.473 226.125,-129.763"/>
<text text-anchor="middle" x="218.795" y="-144.8" font-family="Times New Roman,serif" font-size="14.00">Crafting 1</text>
</g>
<!-- Pouch_Dust_Bone -->
<g id="node5" class="node"><title>Pouch_Dust_Bone</title>
<ellipse fill="none" stroke="black" cx="167.795" cy="-366" rx="79.8859" ry="18"/>
<text text-anchor="middle" x="167.795" y="-362.3" font-family="Times New Roman,serif" font-size="14.00">Pouch_Dust_Bone</text>
</g>
<!-- Pouch_Dust_Bone&#45;&gt;Pouch_Dust_Pixie -->
<g id="edge5" class="edge"><title>Pouch_Dust_Bone&#45;&gt;Pouch_Dust_Pixie</title>
<path fill="none" stroke="black" d="M199.526,-349.41C227.814,-335.511 269.378,-315.089 300.104,-299.993"/>
<polygon fill="black" stroke="black" points="301.833,-303.043 309.265,-295.491 298.746,-296.76 301.833,-303.043"/>
<text text-anchor="middle" x="291.795" y="-318.8" font-family="Times New Roman,serif" font-size="14.00">Crafting 0</text>
</g>
<!-- Paw_A_Rabbit -->
<g id="node6" class="node"><title>Paw_A_Rabbit</title>
<ellipse fill="none" stroke="black" cx="176.795" cy="-279" rx="66.8882" ry="18"/>
<text text-anchor="middle" x="176.795" y="-275.3" font-family="Times New Roman,serif" font-size="14.00">Paw_A_Rabbit</text>
</g>
<!-- Paw_A_Rabbit&#45;&gt;Paw_A_Rabbit_A_Magic -->
<g id="edge6" class="edge"><title>Paw_A_Rabbit&#45;&gt;Paw_A_Rabbit_A_Magic</title>
<path fill="none" stroke="black" d="M194.148,-261.611C207.545,-248.958 226.28,-231.264 241.369,-217.013"/>
<polygon fill="black" stroke="black" points="244.012,-219.331 248.879,-209.92 239.206,-214.242 244.012,-219.331"/>
<text text-anchor="middle" x="255.795" y="-231.8" font-family="Times New Roman,serif" font-size="14.00">Crafting 1</text>
</g>
<!-- Rabbit_Paw_MagicBelt -->
<g id="node14" class="node"><title>Rabbit_Paw_MagicBelt</title>
<ellipse fill="none" stroke="black" cx="359.795" cy="-18" rx="96.6831" ry="18"/>
<text text-anchor="middle" x="359.795" y="-14.3" font-family="Times New Roman,serif" font-size="14.00">Rabbit_Paw_MagicBelt</text>
</g>
<!-- Rabbit_Paw_MagicAmulet&#45;&gt;Rabbit_Paw_MagicBelt -->
<g id="edge17" class="edge"><title>Rabbit_Paw_MagicAmulet&#45;&gt;Rabbit_Paw_MagicBelt</title>
<path fill="none" stroke="black" d="M285.169,-87.2067C299.053,-74.517 318.295,-56.9297 333.763,-42.7925"/>
<polygon fill="black" stroke="black" points="336.439,-45.0884 341.459,-35.7584 331.716,-39.9214 336.439,-45.0884"/>
<text text-anchor="middle" x="346.795" y="-57.8" font-family="Times New Roman,serif" font-size="14.00">Crafting 1</text>
</g>
<!-- Rope -->
<g id="node8" class="node"><title>Rope</title>
<ellipse fill="none" stroke="black" cx="432.795" cy="-105" rx="30.5947" ry="18"/>
<text text-anchor="middle" x="432.795" y="-101.3" font-family="Times New Roman,serif" font-size="14.00">Rope</text>
</g>
<!-- Rope&#45;&gt;Rabbit_Paw_MagicBelt -->
<g id="edge2" class="edge"><title>Rope&#45;&gt;Rabbit_Paw_MagicBelt</title>
<path fill="none" stroke="black" d="M419.405,-88.4097C408.639,-75.8737 393.316,-58.0314 380.901,-43.5761"/>
<polygon fill="black" stroke="black" points="383.521,-41.2549 374.351,-35.949 378.211,-45.8156 383.521,-41.2549"/>
<text text-anchor="middle" x="427.795" y="-57.8" font-family="Times New Roman,serif" font-size="14.00">Crafting 1</text>
</g>
<!-- Moonstone -->
<g id="node9" class="node"><title>Moonstone</title>
<ellipse fill="none" stroke="black" cx="617.795" cy="-453" rx="51.9908" ry="18"/>
<text text-anchor="middle" x="617.795" y="-449.3" font-family="Times New Roman,serif" font-size="14.00">Moonstone</text>
</g>
<!-- Pouch_Dust_Moon -->
<g id="node18" class="node"><title>Pouch_Dust_Moon</title>
<ellipse fill="none" stroke="black" cx="517.795" cy="-366" rx="83.3857" ry="18"/>
<text text-anchor="middle" x="517.795" y="-362.3" font-family="Times New Roman,serif" font-size="14.00">Pouch_Dust_Moon</text>
</g>
<!-- Moonstone&#45;&gt;Pouch_Dust_Moon -->
<g id="edge9" class="edge"><title>Moonstone&#45;&gt;Pouch_Dust_Moon</title>
<path fill="none" stroke="black" d="M598.985,-436.012C583.913,-423.2 562.544,-405.037 545.512,-390.56"/>
<polygon fill="black" stroke="black" points="547.432,-387.598 537.546,-383.789 542.899,-392.932 547.432,-387.598"/>
<text text-anchor="middle" x="600.795" y="-405.8" font-family="Times New Roman,serif" font-size="14.00">Crafting 0</text>
</g>
<!-- Pouch_Dust_Star -->
<g id="node10" class="node"><title>Pouch_Dust_Star</title>
<ellipse fill="none" stroke="black" cx="340.795" cy="-366" rx="75.2868" ry="18"/>
<text text-anchor="middle" x="340.795" y="-362.3" font-family="Times New Roman,serif" font-size="14.00">Pouch_Dust_Star</text>
</g>
<!-- Pouch_Dust_Star&#45;&gt;Pouch_Dust_Pixie -->
<g id="edge10" class="edge"><title>Pouch_Dust_Star&#45;&gt;Pouch_Dust_Pixie</title>
<path fill="none" stroke="black" d="M340.795,-347.799C340.795,-336.163 340.795,-320.548 340.795,-307.237"/>
<polygon fill="black" stroke="black" points="344.295,-307.175 340.795,-297.175 337.295,-307.175 344.295,-307.175"/>
<text text-anchor="middle" x="368.795" y="-318.8" font-family="Times New Roman,serif" font-size="14.00">Crafting 0</text>
</g>
<!-- Bone -->
<g id="node11" class="node"><title>Bone</title>
<ellipse fill="none" stroke="black" cx="167.795" cy="-453" rx="29.795" ry="18"/>
<text text-anchor="middle" x="167.795" y="-449.3" font-family="Times New Roman,serif" font-size="14.00">Bone</text>
</g>
<!-- Bone&#45;&gt;Pouch_Dust_Bone -->
<g id="edge18" class="edge"><title>Bone&#45;&gt;Pouch_Dust_Bone</title>
<path fill="none" stroke="black" d="M167.795,-434.799C167.795,-423.163 167.795,-407.548 167.795,-394.237"/>
<polygon fill="black" stroke="black" points="171.295,-394.175 167.795,-384.175 164.295,-394.175 171.295,-394.175"/>
<text text-anchor="middle" x="195.795" y="-405.8" font-family="Times New Roman,serif" font-size="14.00">Crafting 0</text>
</g>
<!-- Skull_Human -->
<g id="node12" class="node"><title>Skull_Human</title>
<ellipse fill="none" stroke="black" cx="59.7947" cy="-453" rx="59.5901" ry="18"/>
<text text-anchor="middle" x="59.7947" y="-449.3" font-family="Times New Roman,serif" font-size="14.00">Skull_Human</text>
</g>
<!-- Skull_Human&#45;&gt;Pouch_Dust_Bone -->
<g id="edge14" class="edge"><title>Skull_Human&#45;&gt;Pouch_Dust_Bone</title>
<path fill="none" stroke="black" d="M73.8858,-435.087C82.9428,-424.812 95.3145,-411.825 107.795,-402 114.124,-397.017 121.235,-392.252 128.289,-387.929"/>
<polygon fill="black" stroke="black" points="130.3,-390.807 137.131,-382.709 126.741,-384.779 130.3,-390.807"/>
<text text-anchor="middle" x="135.795" y="-405.8" font-family="Times New Roman,serif" font-size="14.00">Crafting 0</text>
</g>
<!-- Herb_Stardust -->
<g id="node13" class="node"><title>Herb_Stardust</title>
<ellipse fill="none" stroke="black" cx="483.795" cy="-453" rx="63.8893" ry="18"/>
<text text-anchor="middle" x="483.795" y="-449.3" font-family="Times New Roman,serif" font-size="14.00">Herb_Stardust</text>
</g>
<!-- Herb_Stardust&#45;&gt;Pouch_Dust_Star -->
<g id="edge15" class="edge"><title>Herb_Stardust&#45;&gt;Pouch_Dust_Star</title>
<path fill="none" stroke="black" d="M480.222,-434.94C477.103,-424.075 471.5,-410.494 461.795,-402 452.864,-394.184 429.753,-386.703 406.093,-380.679"/>
<polygon fill="black" stroke="black" points="406.864,-377.265 396.317,-378.275 405.192,-384.062 406.864,-377.265"/>
<text text-anchor="middle" x="499.795" y="-405.8" font-family="Times New Roman,serif" font-size="14.00">Crafting 0</text>
</g>
<!-- Wool -->
<g id="node15" class="node"><title>Wool</title>
<ellipse fill="none" stroke="black" cx="468.795" cy="-279" rx="31.3957" ry="18"/>
<text text-anchor="middle" x="468.795" y="-275.3" font-family="Times New Roman,serif" font-size="14.00">Wool</text>
</g>
<!-- Yarn_A_Wool -->
<g id="node16" class="node"><title>Yarn_A_Wool</title>
<ellipse fill="none" stroke="black" cx="461.795" cy="-192" rx="64.9885" ry="18"/>
<text text-anchor="middle" x="461.795" y="-188.3" font-family="Times New Roman,serif" font-size="14.00">Yarn_A_Wool</text>
</g>
<!-- Wool&#45;&gt;Yarn_A_Wool -->
<g id="edge16" class="edge"><title>Wool&#45;&gt;Yarn_A_Wool</title>
<path fill="none" stroke="black" d="M467.378,-260.799C466.42,-249.163 465.134,-233.548 464.038,-220.237"/>
<polygon fill="black" stroke="black" points="467.518,-219.854 463.209,-210.175 460.542,-220.429 467.518,-219.854"/>
<text text-anchor="middle" x="492.795" y="-231.8" font-family="Times New Roman,serif" font-size="14.00">Crafting 0</text>
</g>
<!-- Yarn_A_Wool&#45;&gt;Rope -->
<g id="edge7" class="edge"><title>Yarn_A_Wool&#45;&gt;Rope</title>
<path fill="none" stroke="black" d="M455.926,-173.799C451.89,-161.97 446.452,-146.03 441.862,-132.578"/>
<polygon fill="black" stroke="black" points="445.097,-131.22 438.556,-122.885 438.472,-133.48 445.097,-131.22"/>
<text text-anchor="middle" x="476.795" y="-144.8" font-family="Times New Roman,serif" font-size="14.00">Crafting 0</text>
</g>
<!-- MortarPestle -->
<g id="node17" class="node"><title>MortarPestle</title>
<ellipse fill="none" stroke="black" cx="325.795" cy="-453" rx="57.3905" ry="18"/>
<text text-anchor="middle" x="325.795" y="-449.3" font-family="Times New Roman,serif" font-size="14.00">MortarPestle</text>
</g>
<!-- MortarPestle&#45;&gt;Pouch_Dust_Bone -->
<g id="edge11" class="edge"><title>MortarPestle&#45;&gt;Pouch_Dust_Bone</title>
<path fill="none" stroke="black" d="M298.273,-437.194C272.744,-423.46 234.51,-402.891 206.022,-387.565"/>
<polygon fill="black" stroke="black" points="207.608,-384.444 197.143,-382.789 204.291,-390.609 207.608,-384.444"/>
<text text-anchor="middle" x="284.795" y="-405.8" font-family="Times New Roman,serif" font-size="14.00">Crafting 0</text>
</g>
<!-- MortarPestle&#45;&gt;Pouch_Dust_Star -->
<g id="edge12" class="edge"><title>MortarPestle&#45;&gt;Pouch_Dust_Star</title>
<path fill="none" stroke="black" d="M324.623,-434.708C324.342,-425.001 324.619,-412.721 326.795,-402 327.349,-399.268 328.107,-396.476 328.984,-393.721"/>
<polygon fill="black" stroke="black" points="332.368,-394.659 332.541,-384.066 325.8,-392.239 332.368,-394.659"/>
<text text-anchor="middle" x="354.795" y="-405.8" font-family="Times New Roman,serif" font-size="14.00">Crafting 0</text>
</g>
<!-- MortarPestle&#45;&gt;Pouch_Dust_Moon -->
<g id="edge13" class="edge"><title>MortarPestle&#45;&gt;Pouch_Dust_Moon</title>
<path fill="none" stroke="black" d="M351.743,-436.948C361.628,-430.986 372.892,-423.913 382.795,-417 391.616,-410.841 392.255,-406.975 401.795,-402 417.309,-393.91 434.987,-387.382 451.785,-382.256"/>
<polygon fill="black" stroke="black" points="452.937,-385.566 461.551,-379.398 450.971,-378.847 452.937,-385.566"/>
<text text-anchor="middle" x="429.795" y="-405.8" font-family="Times New Roman,serif" font-size="14.00">Crafting 0</text>
</g>
<!-- Pouch_Dust_Moon&#45;&gt;Pouch_Dust_Pixie -->
<g id="edge19" class="edge"><title>Pouch_Dust_Moon&#45;&gt;Pouch_Dust_Pixie</title>
<path fill="none" stroke="black" d="M485.33,-349.41C456.388,-335.511 413.862,-315.089 382.426,-299.993"/>
<polygon fill="black" stroke="black" points="383.583,-296.665 373.053,-295.491 380.553,-302.976 383.583,-296.665"/>
<text text-anchor="middle" x="467.795" y="-318.8" font-family="Times New Roman,serif" font-size="14.00">Crafting 0</text>
</g>
</g>
</svg>
