<?xml version="1.0" encoding="UTF-8" standalone="no"?>
<!DOCTYPE svg PUBLIC "-//W3C//DTD SVG 1.1//EN"
 "http://www.w3.org/Graphics/SVG/1.1/DTD/svg11.dtd">
<!-- Generated by graphviz version 2.38.0 (20140413.2041)
 -->
<!-- Title: G Pages: 1 -->
<svg width="790pt" height="566pt"
 viewBox="0.00 0.00 789.79 566.00" xmlns="http://www.w3.org/2000/svg" xmlns:xlink="http://www.w3.org/1999/xlink">
<g id="graph0" class="graph" transform="scale(1 1) rotate(0) translate(4 562)">
<title>G</title>
<polygon fill="white" stroke="none" points="-4,4 -4,-562 785.795,-562 785.795,4 -4,4"/>
<!-- Pouch_Dust_Pixie -->
<g id="node1" class="node"><title>Pouch_Dust_Pixie</title>
<ellipse fill="none" stroke="black" cx="340.795" cy="-366" rx="78.7863" ry="18"/>
<text text-anchor="middle" x="340.795" y="-362.3" font-family="Times New Roman,serif" font-size="14.00">Pouch_Dust_Pixie</text>
</g>
<!-- Paw_A_Rabbit_A_Magic -->
<g id="node4" class="node"><title>Paw_A_Rabbit_A_Magic</title>
<ellipse fill="none" stroke="black" cx="480.795" cy="-279" rx="105.082" ry="18"/>
<text text-anchor="middle" x="480.795" y="-275.3" font-family="Times New Roman,serif" font-size="14.00">Paw_A_Rabbit_A_Magic</text>
</g>
<!-- Pouch_Dust_Pixie&#45;&gt;Paw_A_Rabbit_A_Magic -->
<g id="edge1" class="edge"><title>Pouch_Dust_Pixie&#45;&gt;Paw_A_Rabbit_A_Magic</title>
<path fill="none" stroke="black" d="M367.128,-349.012C389.138,-335.649 420.737,-316.463 445.035,-301.711"/>
<polygon fill="black" stroke="black" points="446.893,-304.678 453.625,-296.496 443.261,-298.694 446.893,-304.678"/>
<text text-anchor="middle" x="446.795" y="-318.8" font-family="Times New Roman,serif" font-size="14.00">Crafting 1</text>
</g>
<!-- String_Bow -->
<g id="node2" class="node"><title>String_Bow</title>
<ellipse fill="none" stroke="black" cx="723.795" cy="-192" rx="53.8905" ry="18"/>
<text text-anchor="middle" x="723.795" y="-188.3" font-family="Times New Roman,serif" font-size="14.00">String_Bow</text>
</g>
<!-- Rabbit_Paw_SuperAmulet -->
<g id="node15" class="node"><title>Rabbit_Paw_SuperAmulet</title>
<ellipse fill="none" stroke="black" cx="539.795" cy="-105" rx="107.781" ry="18"/>
<text text-anchor="middle" x="539.795" y="-101.3" font-family="Times New Roman,serif" font-size="14.00">Rabbit_Paw_SuperAmulet</text>
</g>
<!-- String_Bow&#45;&gt;Rabbit_Paw_SuperAmulet -->
<g id="edge9" class="edge"><title>String_Bow&#45;&gt;Rabbit_Paw_SuperAmulet</title>
<path fill="none" stroke="black" d="M693.411,-176.964C663.555,-163.172 617.676,-141.978 583.825,-126.34"/>
<polygon fill="black" stroke="black" points="585.166,-123.104 574.62,-122.088 582.23,-129.459 585.166,-123.104"/>
<text text-anchor="middle" x="670.795" y="-144.8" font-family="Times New Roman,serif" font-size="14.00">Crafting 3</text>
</g>
<!-- Rabbit_Paw_SuperBelt -->
<g id="node3" class="node"><title>Rabbit_Paw_SuperBelt</title>
<ellipse fill="none" stroke="black" cx="466.795" cy="-18" rx="96.3833" ry="18"/>
<text text-anchor="middle" x="466.795" y="-14.3" font-family="Times New Roman,serif" font-size="14.00">Rabbit_Paw_SuperBelt</text>
</g>
<!-- Rabbit_Paw_MagicAmulet -->
<g id="node8" class="node"><title>Rabbit_Paw_MagicAmulet</title>
<ellipse fill="none" stroke="black" cx="539.795" cy="-192" rx="108.581" ry="18"/>
<text text-anchor="middle" x="539.795" y="-188.3" font-family="Times New Roman,serif" font-size="14.00">Rabbit_Paw_MagicAmulet</text>
</g>
<!-- Paw_A_Rabbit_A_Magic&#45;&gt;Rabbit_Paw_MagicAmulet -->
<g id="edge3" class="edge"><title>Paw_A_Rabbit_A_Magic&#45;&gt;Rabbit_Paw_MagicAmulet</title>
<path fill="none" stroke="black" d="M492.734,-260.799C501.131,-248.702 512.512,-232.305 521.979,-218.667"/>
<polygon fill="black" stroke="black" points="525.046,-220.386 527.873,-210.175 519.295,-216.395 525.046,-220.386"/>
<text text-anchor="middle" x="541.795" y="-231.8" font-family="Times New Roman,serif" font-size="14.00">Crafting 1</text>
</g>
<!-- Thread -->
<g id="node5" class="node"><title>Thread</title>
<ellipse fill="none" stroke="black" cx="640.795" cy="-279" rx="36.2938" ry="18"/>
<text text-anchor="middle" x="640.795" y="-275.3" font-family="Times New Roman,serif" font-size="14.00">Thread</text>
</g>
<!-- Thread&#45;&gt;Rabbit_Paw_MagicAmulet -->
<g id="edge4" class="edge"><title>Thread&#45;&gt;Rabbit_Paw_MagicAmulet</title>
<path fill="none" stroke="black" d="M623.202,-263.194C607.91,-250.325 585.489,-231.455 567.743,-216.521"/>
<polygon fill="black" stroke="black" points="569.865,-213.732 559.961,-209.971 565.358,-219.088 569.865,-213.732"/>
<text text-anchor="middle" x="623.795" y="-231.8" font-family="Times New Roman,serif" font-size="14.00">Crafting 1</text>
</g>
<!-- Bone -->
<g id="node6" class="node"><title>Bone</title>
<ellipse fill="none" stroke="black" cx="167.795" cy="-540" rx="29.795" ry="18"/>
<text text-anchor="middle" x="167.795" y="-536.3" font-family="Times New Roman,serif" font-size="14.00">Bone</text>
</g>
<!-- Pouch_Dust_Bone -->
<g id="node7" class="node"><title>Pouch_Dust_Bone</title>
<ellipse fill="none" stroke="black" cx="167.795" cy="-453" rx="79.8859" ry="18"/>
<text text-anchor="middle" x="167.795" y="-449.3" font-family="Times New Roman,serif" font-size="14.00">Pouch_Dust_Bone</text>
</g>
<!-- Bone&#45;&gt;Pouch_Dust_Bone -->
<g id="edge21" class="edge"><title>Bone&#45;&gt;Pouch_Dust_Bone</title>
<path fill="none" stroke="black" d="M167.795,-521.799C167.795,-510.163 167.795,-494.548 167.795,-481.237"/>
<polygon fill="black" stroke="black" points="171.295,-481.175 167.795,-471.175 164.295,-481.175 171.295,-481.175"/>
<text text-anchor="middle" x="195.795" y="-492.8" font-family="Times New Roman,serif" font-size="14.00">Crafting 0</text>
</g>
<!-- Pouch_Dust_Bone&#45;&gt;Pouch_Dust_Pixie -->
<g id="edge5" class="edge"><title>Pouch_Dust_Bone&#45;&gt;Pouch_Dust_Pixie</title>
<path fill="none" stroke="black" d="M199.526,-436.41C227.814,-422.511 269.378,-402.089 300.104,-386.993"/>
<polygon fill="black" stroke="black" points="301.833,-390.043 309.265,-382.491 298.746,-383.76 301.833,-390.043"/>
<text text-anchor="middle" x="292.795" y="-405.8" font-family="Times New Roman,serif" font-size="14.00">Crafting 0</text>
</g>
<!-- Rabbit_Paw_MagicAmulet&#45;&gt;Rabbit_Paw_SuperAmulet -->
<g id="edge20" class="edge"><title>Rabbit_Paw_MagicAmulet&#45;&gt;Rabbit_Paw_SuperAmulet</title>
<path fill="none" stroke="black" d="M539.795,-173.799C539.795,-162.163 539.795,-146.548 539.795,-133.237"/>
<polygon fill="black" stroke="black" points="543.295,-133.175 539.795,-123.175 536.295,-133.175 543.295,-133.175"/>
<text text-anchor="middle" x="567.795" y="-144.8" font-family="Times New Roman,serif" font-size="14.00">Crafting 3</text>
</g>
<!-- Hair -->
<g id="node9" class="node"><title>Hair</title>
<ellipse fill="none" stroke="black" cx="640.795" cy="-366" rx="27" ry="18"/>
<text text-anchor="middle" x="640.795" y="-362.3" font-family="Times New Roman,serif" font-size="14.00">Hair</text>
</g>
<!-- Hair&#45;&gt;Thread -->
<g id="edge2" class="edge"><title>Hair&#45;&gt;Thread</title>
<path fill="none" stroke="black" d="M640.795,-347.799C640.795,-336.163 640.795,-320.548 640.795,-307.237"/>
<polygon fill="black" stroke="black" points="644.295,-307.175 640.795,-297.175 637.295,-307.175 644.295,-307.175"/>
<text text-anchor="middle" x="668.795" y="-318.8" font-family="Times New Roman,serif" font-size="14.00">Crafting 0</text>
</g>
<!-- Paw_A_Rabbit -->
<g id="node10" class="node"><title>Paw_A_Rabbit</title>
<ellipse fill="none" stroke="black" cx="504.795" cy="-366" rx="66.8882" ry="18"/>
<text text-anchor="middle" x="504.795" y="-362.3" font-family="Times New Roman,serif" font-size="14.00">Paw_A_Rabbit</text>
</g>
<!-- Paw_A_Rabbit&#45;&gt;Paw_A_Rabbit_A_Magic -->
<g id="edge6" class="edge"><title>Paw_A_Rabbit&#45;&gt;Paw_A_Rabbit_A_Magic</title>
<path fill="none" stroke="black" d="M499.938,-347.799C496.62,-336.047 492.156,-320.238 488.374,-306.842"/>
<polygon fill="black" stroke="black" points="491.73,-305.848 485.644,-297.175 484.993,-307.75 491.73,-305.848"/>
<text text-anchor="middle" x="521.795" y="-318.8" font-family="Times New Roman,serif" font-size="14.00">Crafting 1</text>
</g>
<!-- Sinew -->
<g id="node11" class="node"><title>Sinew</title>
<ellipse fill="none" stroke="black" cx="727.795" cy="-279" rx="32.4942" ry="18"/>
<text text-anchor="middle" x="727.795" y="-275.3" font-family="Times New Roman,serif" font-size="14.00">Sinew</text>
</g>
<!-- Sinew&#45;&gt;String_Bow -->
<g id="edge8" class="edge"><title>Sinew&#45;&gt;String_Bow</title>
<path fill="none" stroke="black" d="M726.985,-260.799C726.438,-249.163 725.703,-233.548 725.076,-220.237"/>
<polygon fill="black" stroke="black" points="728.569,-220 724.603,-210.175 721.577,-220.329 728.569,-220"/>
<text text-anchor="middle" x="753.795" y="-231.8" font-family="Times New Roman,serif" font-size="14.00">Crafting 0</text>
</g>
<!-- Rope -->
<g id="node12" class="node"><title>Rope</title>
<ellipse fill="none" stroke="black" cx="372.795" cy="-105" rx="30.5947" ry="18"/>
<text text-anchor="middle" x="372.795" y="-101.3" font-family="Times New Roman,serif" font-size="14.00">Rope</text>
</g>
<!-- Rope&#45;&gt;Rabbit_Paw_SuperBelt -->
<g id="edge11" class="edge"><title>Rope&#45;&gt;Rabbit_Paw_SuperBelt</title>
<path fill="none" stroke="black" d="M388.741,-89.5809C402.875,-76.7998 423.792,-57.8857 440.416,-42.8535"/>
<polygon fill="black" stroke="black" points="443.113,-45.1329 448.183,-35.8298 438.418,-39.9408 443.113,-45.1329"/>
<text text-anchor="middle" x="452.795" y="-57.8" font-family="Times New Roman,serif" font-size="14.00">Crafting 3</text>
</g>
<!-- Moonstone -->
<g id="node13" class="node"><title>Moonstone</title>
<ellipse fill="none" stroke="black" cx="617.795" cy="-540" rx="51.9908" ry="18"/>
<text text-anchor="middle" x="617.795" y="-536.3" font-family="Times New Roman,serif" font-size="14.00">Moonstone</text>
</g>
<!-- Pouch_Dust_Moon -->
<g id="node21" class="node"><title>Pouch_Dust_Moon</title>
<ellipse fill="none" stroke="black" cx="517.795" cy="-453" rx="83.3857" ry="18"/>
<text text-anchor="middle" x="517.795" y="-449.3" font-family="Times New Roman,serif" font-size="14.00">Pouch_Dust_Moon</text>
</g>
<!-- Moonstone&#45;&gt;Pouch_Dust_Moon -->
<g id="edge10" class="edge"><title>Moonstone&#45;&gt;Pouch_Dust_Moon</title>
<path fill="none" stroke="black" d="M598.985,-523.012C583.913,-510.2 562.544,-492.037 545.512,-477.56"/>
<polygon fill="black" stroke="black" points="547.432,-474.598 537.546,-470.789 542.899,-479.932 547.432,-474.598"/>
<text text-anchor="middle" x="600.795" y="-492.8" font-family="Times New Roman,serif" font-size="14.00">Crafting 0</text>
</g>
<!-- Pouch_Dust_Star -->
<g id="node14" class="node"><title>Pouch_Dust_Star</title>
<ellipse fill="none" stroke="black" cx="340.795" cy="-453" rx="75.2868" ry="18"/>
<text text-anchor="middle" x="340.795" y="-449.3" font-family="Times New Roman,serif" font-size="14.00">Pouch_Dust_Star</text>
</g>
<!-- Pouch_Dust_Star&#45;&gt;Pouch_Dust_Pixie -->
<g id="edge18" class="edge"><title>Pouch_Dust_Star&#45;&gt;Pouch_Dust_Pixie</title>
<path fill="none" stroke="black" d="M340.795,-434.799C340.795,-423.163 340.795,-407.548 340.795,-394.237"/>
<polygon fill="black" stroke="black" points="344.295,-394.175 340.795,-384.175 337.295,-394.175 344.295,-394.175"/>
<text text-anchor="middle" x="368.795" y="-405.8" font-family="Times New Roman,serif" font-size="14.00">Crafting 0</text>
</g>
<!-- Rabbit_Paw_SuperAmulet&#45;&gt;Rabbit_Paw_SuperBelt -->
<g id="edge12" class="edge"><title>Rabbit_Paw_SuperAmulet&#45;&gt;Rabbit_Paw_SuperBelt</title>
<path fill="none" stroke="black" d="M525.022,-86.799C514.365,-74.3902 499.823,-57.4575 487.938,-43.6185"/>
<polygon fill="black" stroke="black" points="490.467,-41.1913 481.296,-35.8854 485.156,-45.752 490.467,-41.1913"/>
<text text-anchor="middle" x="534.795" y="-57.8" font-family="Times New Roman,serif" font-size="14.00">Crafting 3</text>
</g>
<!-- Skull_Human -->
<g id="node16" class="node"><title>Skull_Human</title>
<ellipse fill="none" stroke="black" cx="59.7947" cy="-540" rx="59.5901" ry="18"/>
<text text-anchor="middle" x="59.7947" y="-536.3" font-family="Times New Roman,serif" font-size="14.00">Skull_Human</text>
</g>
<!-- Skull_Human&#45;&gt;Pouch_Dust_Bone -->
<g id="edge13" class="edge"><title>Skull_Human&#45;&gt;Pouch_Dust_Bone</title>
<path fill="none" stroke="black" d="M73.8858,-522.087C82.9428,-511.812 95.3145,-498.825 107.795,-489 114.124,-484.017 121.235,-479.252 128.289,-474.929"/>
<polygon fill="black" stroke="black" points="130.3,-477.807 137.131,-469.709 126.741,-471.779 130.3,-477.807"/>
<text text-anchor="middle" x="135.795" y="-492.8" font-family="Times New Roman,serif" font-size="14.00">Crafting 0</text>
</g>
<!-- Herb_Stardust -->
<g id="node17" class="node"><title>Herb_Stardust</title>
<ellipse fill="none" stroke="black" cx="483.795" cy="-540" rx="63.8893" ry="18"/>
<text text-anchor="middle" x="483.795" y="-536.3" font-family="Times New Roman,serif" font-size="14.00">Herb_Stardust</text>
</g>
<!-- Herb_Stardust&#45;&gt;Pouch_Dust_Star -->
<g id="edge14" class="edge"><title>Herb_Stardust&#45;&gt;Pouch_Dust_Star</title>
<path fill="none" stroke="black" d="M480.222,-521.94C477.103,-511.075 471.5,-497.494 461.795,-489 452.864,-481.184 429.753,-473.703 406.093,-467.679"/>
<polygon fill="black" stroke="black" points="406.864,-464.265 396.317,-465.275 405.192,-471.062 406.864,-464.265"/>
<text text-anchor="middle" x="499.795" y="-492.8" font-family="Times New Roman,serif" font-size="14.00">Crafting 0</text>
</g>
<!-- Wool -->
<g id="node18" class="node"><title>Wool</title>
<ellipse fill="none" stroke="black" cx="326.795" cy="-279" rx="31.3957" ry="18"/>
<text text-anchor="middle" x="326.795" y="-275.3" font-family="Times New Roman,serif" font-size="14.00">Wool</text>
</g>
<!-- Yarn_A_Wool -->
<g id="node19" class="node"><title>Yarn_A_Wool</title>
<ellipse fill="none" stroke="black" cx="340.795" cy="-192" rx="64.9885" ry="18"/>
<text text-anchor="middle" x="340.795" y="-188.3" font-family="Times New Roman,serif" font-size="14.00">Yarn_A_Wool</text>
</g>
<!-- Wool&#45;&gt;Yarn_A_Wool -->
<g id="edge19" class="edge"><title>Wool&#45;&gt;Yarn_A_Wool</title>
<path fill="none" stroke="black" d="M329.628,-260.799C331.544,-249.163 334.116,-233.548 336.309,-220.237"/>
<polygon fill="black" stroke="black" points="339.794,-220.611 337.966,-210.175 332.887,-219.474 339.794,-220.611"/>
<text text-anchor="middle" x="361.795" y="-231.8" font-family="Times New Roman,serif" font-size="14.00">Crafting 0</text>
</g>
<!-- Yarn_A_Wool&#45;&gt;Rope -->
<g id="edge7" class="edge"><title>Yarn_A_Wool&#45;&gt;Rope</title>
<path fill="none" stroke="black" d="M347.27,-173.799C351.724,-161.97 357.725,-146.03 362.789,-132.578"/>
<polygon fill="black" stroke="black" points="366.19,-133.477 366.438,-122.885 359.639,-131.011 366.19,-133.477"/>
<text text-anchor="middle" x="385.795" y="-144.8" font-family="Times New Roman,serif" font-size="14.00">Crafting 0</text>
</g>
<!-- MortarPestle -->
<g id="node20" class="node"><title>MortarPestle</title>
<ellipse fill="none" stroke="black" cx="325.795" cy="-540" rx="57.3905" ry="18"/>
<text text-anchor="middle" x="325.795" y="-536.3" font-family="Times New Roman,serif" font-size="14.00">MortarPestle</text>
</g>
<!-- MortarPestle&#45;&gt;Pouch_Dust_Bone -->
<g id="edge15" class="edge"><title>MortarPestle&#45;&gt;Pouch_Dust_Bone</title>
<path fill="none" stroke="black" d="M298.273,-524.194C272.744,-510.46 234.51,-489.891 206.022,-474.565"/>
<polygon fill="black" stroke="black" points="207.608,-471.444 197.143,-469.789 204.291,-477.609 207.608,-471.444"/>
<text text-anchor="middle" x="284.795" y="-492.8" font-family="Times New Roman,serif" font-size="14.00">Crafting 0</text>
</g>
<!-- MortarPestle&#45;&gt;Pouch_Dust_Star -->
<g id="edge16" class="edge"><title>MortarPestle&#45;&gt;Pouch_Dust_Star</title>
<path fill="none" stroke="black" d="M324.623,-521.708C324.342,-512.001 324.619,-499.721 326.795,-489 327.349,-486.268 328.107,-483.476 328.984,-480.721"/>
<polygon fill="black" stroke="black" points="332.368,-481.659 332.541,-471.066 325.8,-479.239 332.368,-481.659"/>
<text text-anchor="middle" x="354.795" y="-492.8" font-family="Times New Roman,serif" font-size="14.00">Crafting 0</text>
</g>
<!-- MortarPestle&#45;&gt;Pouch_Dust_Moon -->
<g id="edge17" class="edge"><title>MortarPestle&#45;&gt;Pouch_Dust_Moon</title>
<path fill="none" stroke="black" d="M351.743,-523.948C361.628,-517.986 372.892,-510.913 382.795,-504 391.616,-497.841 392.255,-493.975 401.795,-489 417.309,-480.91 434.987,-474.382 451.785,-469.256"/>
<polygon fill="black" stroke="black" points="452.937,-472.566 461.551,-466.398 450.971,-465.847 452.937,-472.566"/>
<text text-anchor="middle" x="429.795" y="-492.8" font-family="Times New Roman,serif" font-size="14.00">Crafting 0</text>
</g>
<!-- Pouch_Dust_Moon&#45;&gt;Pouch_Dust_Pixie -->
<g id="edge22" class="edge"><title>Pouch_Dust_Moon&#45;&gt;Pouch_Dust_Pixie</title>
<path fill="none" stroke="black" d="M485.33,-436.41C456.388,-422.511 413.862,-402.089 382.426,-386.993"/>
<polygon fill="black" stroke="black" points="383.583,-383.665 373.053,-382.491 380.553,-389.976 383.583,-383.665"/>
<text text-anchor="middle" x="467.795" y="-405.8" font-family="Times New Roman,serif" font-size="14.00">Crafting 0</text>
</g>
</g>
</svg>
