<?xml version="1.0" encoding="UTF-8" standalone="no"?>
<!DOCTYPE svg PUBLIC "-//W3C//DTD SVG 1.1//EN"
 "http://www.w3.org/Graphics/SVG/1.1/DTD/svg11.dtd">
<!-- Generated by graphviz version 2.38.0 (20140413.2041)
 -->
<!-- Title: G Pages: 1 -->
<svg width="689pt" height="392pt"
 viewBox="0.00 0.00 688.99 392.00" xmlns="http://www.w3.org/2000/svg" xmlns:xlink="http://www.w3.org/1999/xlink">
<g id="graph0" class="graph" transform="scale(1 1) rotate(0) translate(4 388)">
<title>G</title>
<polygon fill="white" stroke="none" points="-4,4 -4,-388 684.99,-388 684.99,4 -4,4"/>
<!-- Pouch_Dust_Pixie -->
<g id="node1" class="node"><title>Pouch_Dust_Pixie</title>
<ellipse fill="none" stroke="black" cx="356.994" cy="-192" rx="78.7863" ry="18"/>
<text text-anchor="middle" x="356.994" y="-188.3" font-family="Times New Roman,serif" font-size="14.00">Pouch_Dust_Pixie</text>
</g>
<!-- Tail_A_Rat_A_Magic -->
<g id="node12" class="node"><title>Tail_A_Rat_A_Magic</title>
<ellipse fill="none" stroke="black" cx="205.994" cy="-105" rx="91.784" ry="18"/>
<text text-anchor="middle" x="205.994" y="-101.3" font-family="Times New Roman,serif" font-size="14.00">Tail_A_Rat_A_Magic</text>
</g>
<!-- Pouch_Dust_Pixie&#45;&gt;Tail_A_Rat_A_Magic -->
<g id="edge1" class="edge"><title>Pouch_Dust_Pixie&#45;&gt;Tail_A_Rat_A_Magic</title>
<path fill="none" stroke="black" d="M328.592,-175.012C304.596,-161.504 270.031,-142.047 243.716,-127.234"/>
<polygon fill="black" stroke="black" points="245.213,-124.061 234.782,-122.205 241.78,-130.161 245.213,-124.061"/>
<text text-anchor="middle" x="318.994" y="-144.8" font-family="Times New Roman,serif" font-size="14.00">Crafting 2</text>
</g>
<!-- Tail_A_Rat -->
<g id="node2" class="node"><title>Tail_A_Rat</title>
<ellipse fill="none" stroke="black" cx="205.994" cy="-192" rx="53.0913" ry="18"/>
<text text-anchor="middle" x="205.994" y="-188.3" font-family="Times New Roman,serif" font-size="14.00">Tail_A_Rat</text>
</g>
<!-- Tail_A_Rat&#45;&gt;Tail_A_Rat_A_Magic -->
<g id="edge6" class="edge"><title>Tail_A_Rat&#45;&gt;Tail_A_Rat_A_Magic</title>
<path fill="none" stroke="black" d="M205.994,-173.799C205.994,-162.163 205.994,-146.548 205.994,-133.237"/>
<polygon fill="black" stroke="black" points="209.494,-133.175 205.994,-123.175 202.494,-133.175 209.494,-133.175"/>
<text text-anchor="middle" x="233.994" y="-144.8" font-family="Times New Roman,serif" font-size="14.00">Crafting 2</text>
</g>
<!-- Pouch_Dust_Bone -->
<g id="node3" class="node"><title>Pouch_Dust_Bone</title>
<ellipse fill="none" stroke="black" cx="190.994" cy="-279" rx="79.8859" ry="18"/>
<text text-anchor="middle" x="190.994" y="-275.3" font-family="Times New Roman,serif" font-size="14.00">Pouch_Dust_Bone</text>
</g>
<!-- Pouch_Dust_Bone&#45;&gt;Pouch_Dust_Pixie -->
<g id="edge2" class="edge"><title>Pouch_Dust_Bone&#45;&gt;Pouch_Dust_Pixie</title>
<path fill="none" stroke="black" d="M221.829,-262.211C248.733,-248.435 287.935,-228.361 317.201,-213.376"/>
<polygon fill="black" stroke="black" points="319.019,-216.377 326.325,-208.704 315.829,-210.147 319.019,-216.377"/>
<text text-anchor="middle" x="311.994" y="-231.8" font-family="Times New Roman,serif" font-size="14.00">Crafting 0</text>
</g>
<!-- Rat_Tail_MagicBelt -->
<g id="node4" class="node"><title>Rat_Tail_MagicBelt</title>
<ellipse fill="none" stroke="black" cx="142.994" cy="-18" rx="83.3857" ry="18"/>
<text text-anchor="middle" x="142.994" y="-14.3" font-family="Times New Roman,serif" font-size="14.00">Rat_Tail_MagicBelt</text>
</g>
<!-- Rope -->
<g id="node5" class="node"><title>Rope</title>
<ellipse fill="none" stroke="black" cx="65.9942" cy="-105" rx="30.5947" ry="18"/>
<text text-anchor="middle" x="65.9942" y="-101.3" font-family="Times New Roman,serif" font-size="14.00">Rope</text>
</g>
<!-- Rope&#45;&gt;Rat_Tail_MagicBelt -->
<g id="edge4" class="edge"><title>Rope&#45;&gt;Rat_Tail_MagicBelt</title>
<path fill="none" stroke="black" d="M79.7496,-88.6538C88.6434,-78.7469 100.48,-65.5908 110.994,-54 114.128,-50.545 117.442,-46.905 120.704,-43.3312"/>
<polygon fill="black" stroke="black" points="123.505,-45.4536 127.667,-35.7104 118.338,-40.7316 123.505,-45.4536"/>
<text text-anchor="middle" x="138.994" y="-57.8" font-family="Times New Roman,serif" font-size="14.00">Crafting 2</text>
</g>
<!-- Moonstone -->
<g id="node6" class="node"><title>Moonstone</title>
<ellipse fill="none" stroke="black" cx="628.994" cy="-366" rx="51.9908" ry="18"/>
<text text-anchor="middle" x="628.994" y="-362.3" font-family="Times New Roman,serif" font-size="14.00">Moonstone</text>
</g>
<!-- Pouch_Dust_Moon -->
<g id="node15" class="node"><title>Pouch_Dust_Moon</title>
<ellipse fill="none" stroke="black" cx="549.994" cy="-279" rx="83.3857" ry="18"/>
<text text-anchor="middle" x="549.994" y="-275.3" font-family="Times New Roman,serif" font-size="14.00">Pouch_Dust_Moon</text>
</g>
<!-- Moonstone&#45;&gt;Pouch_Dust_Moon -->
<g id="edge5" class="edge"><title>Moonstone&#45;&gt;Pouch_Dust_Moon</title>
<path fill="none" stroke="black" d="M624.302,-347.811C620.815,-337.432 615.223,-324.434 606.994,-315 602.532,-309.885 597.136,-305.281 591.465,-301.221"/>
<polygon fill="black" stroke="black" points="593.312,-298.247 583.036,-295.667 589.46,-304.092 593.312,-298.247"/>
<text text-anchor="middle" x="643.994" y="-318.8" font-family="Times New Roman,serif" font-size="14.00">Crafting 0</text>
</g>
<!-- Pouch_Dust_Star -->
<g id="node7" class="node"><title>Pouch_Dust_Star</title>
<ellipse fill="none" stroke="black" cx="363.994" cy="-279" rx="75.2868" ry="18"/>
<text text-anchor="middle" x="363.994" y="-275.3" font-family="Times New Roman,serif" font-size="14.00">Pouch_Dust_Star</text>
</g>
<!-- Pouch_Dust_Star&#45;&gt;Pouch_Dust_Pixie -->
<g id="edge11" class="edge"><title>Pouch_Dust_Star&#45;&gt;Pouch_Dust_Pixie</title>
<path fill="none" stroke="black" d="M362.578,-260.799C361.619,-249.163 360.333,-233.548 359.237,-220.237"/>
<polygon fill="black" stroke="black" points="362.718,-219.854 358.409,-210.175 355.741,-220.429 362.718,-219.854"/>
<text text-anchor="middle" x="388.994" y="-231.8" font-family="Times New Roman,serif" font-size="14.00">Crafting 0</text>
</g>
<!-- Bone -->
<g id="node8" class="node"><title>Bone</title>
<ellipse fill="none" stroke="black" cx="73.9942" cy="-366" rx="29.795" ry="18"/>
<text text-anchor="middle" x="73.9942" y="-362.3" font-family="Times New Roman,serif" font-size="14.00">Bone</text>
</g>
<!-- Bone&#45;&gt;Pouch_Dust_Bone -->
<g id="edge15" class="edge"><title>Bone&#45;&gt;Pouch_Dust_Bone</title>
<path fill="none" stroke="black" d="M87.621,-349.867C97.6017,-339.313 111.825,-325.328 125.994,-315 133.218,-309.734 141.331,-304.74 149.312,-300.259"/>
<polygon fill="black" stroke="black" points="151.091,-303.277 158.213,-295.433 147.753,-297.123 151.091,-303.277"/>
<text text-anchor="middle" x="153.994" y="-318.8" font-family="Times New Roman,serif" font-size="14.00">Crafting 0</text>
</g>
<!-- Skull_Human -->
<g id="node9" class="node"><title>Skull_Human</title>
<ellipse fill="none" stroke="black" cx="181.994" cy="-366" rx="59.5901" ry="18"/>
<text text-anchor="middle" x="181.994" y="-362.3" font-family="Times New Roman,serif" font-size="14.00">Skull_Human</text>
</g>
<!-- Skull_Human&#45;&gt;Pouch_Dust_Bone -->
<g id="edge14" class="edge"><title>Skull_Human&#45;&gt;Pouch_Dust_Bone</title>
<path fill="none" stroke="black" d="M183.816,-347.799C185.048,-336.163 186.701,-320.548 188.11,-307.237"/>
<polygon fill="black" stroke="black" points="191.603,-307.488 189.176,-297.175 184.642,-306.751 191.603,-307.488"/>
<text text-anchor="middle" x="215.994" y="-318.8" font-family="Times New Roman,serif" font-size="14.00">Crafting 0</text>
</g>
<!-- Herb_Stardust -->
<g id="node10" class="node"><title>Herb_Stardust</title>
<ellipse fill="none" stroke="black" cx="322.994" cy="-366" rx="63.8893" ry="18"/>
<text text-anchor="middle" x="322.994" y="-362.3" font-family="Times New Roman,serif" font-size="14.00">Herb_Stardust</text>
</g>
<!-- Herb_Stardust&#45;&gt;Pouch_Dust_Star -->
<g id="edge10" class="edge"><title>Herb_Stardust&#45;&gt;Pouch_Dust_Star</title>
<path fill="none" stroke="black" d="M314.751,-347.977C311.103,-337.905 308.699,-325.17 313.994,-315 316.563,-310.066 320.181,-305.683 324.31,-301.834"/>
<polygon fill="black" stroke="black" points="326.6,-304.484 332.178,-295.477 322.2,-299.039 326.6,-304.484"/>
<text text-anchor="middle" x="341.994" y="-318.8" font-family="Times New Roman,serif" font-size="14.00">Crafting 0</text>
</g>
<!-- Wool -->
<g id="node11" class="node"><title>Wool</title>
<ellipse fill="none" stroke="black" cx="61.9942" cy="-279" rx="31.3957" ry="18"/>
<text text-anchor="middle" x="61.9942" y="-275.3" font-family="Times New Roman,serif" font-size="14.00">Wool</text>
</g>
<!-- Yarn_A_Wool -->
<g id="node13" class="node"><title>Yarn_A_Wool</title>
<ellipse fill="none" stroke="black" cx="64.9942" cy="-192" rx="64.9885" ry="18"/>
<text text-anchor="middle" x="64.9942" y="-188.3" font-family="Times New Roman,serif" font-size="14.00">Yarn_A_Wool</text>
</g>
<!-- Wool&#45;&gt;Yarn_A_Wool -->
<g id="edge12" class="edge"><title>Wool&#45;&gt;Yarn_A_Wool</title>
<path fill="none" stroke="black" d="M62.6013,-260.799C63.012,-249.163 63.5631,-233.548 64.0329,-220.237"/>
<polygon fill="black" stroke="black" points="67.533,-220.293 64.388,-210.175 60.5374,-220.046 67.533,-220.293"/>
<text text-anchor="middle" x="91.9942" y="-231.8" font-family="Times New Roman,serif" font-size="14.00">Crafting 0</text>
</g>
<!-- Tail_A_Rat_A_Magic&#45;&gt;Rat_Tail_MagicBelt -->
<g id="edge13" class="edge"><title>Tail_A_Rat_A_Magic&#45;&gt;Rat_Tail_MagicBelt</title>
<path fill="none" stroke="black" d="M193.245,-86.799C184.134,-74.5062 171.732,-57.7736 161.529,-44.0073"/>
<polygon fill="black" stroke="black" points="164.276,-41.8352 155.509,-35.8854 158.652,-46.0034 164.276,-41.8352"/>
<text text-anchor="middle" x="206.994" y="-57.8" font-family="Times New Roman,serif" font-size="14.00">Crafting 2</text>
</g>
<!-- Yarn_A_Wool&#45;&gt;Rope -->
<g id="edge3" class="edge"><title>Yarn_A_Wool&#45;&gt;Rope</title>
<path fill="none" stroke="black" d="M65.1966,-173.799C65.3335,-162.163 65.5172,-146.548 65.6738,-133.237"/>
<polygon fill="black" stroke="black" points="69.1742,-133.216 65.7922,-123.175 62.1747,-133.134 69.1742,-133.216"/>
<text text-anchor="middle" x="93.9942" y="-144.8" font-family="Times New Roman,serif" font-size="14.00">Crafting 0</text>
</g>
<!-- MortarPestle -->
<g id="node14" class="node"><title>MortarPestle</title>
<ellipse fill="none" stroke="black" cx="470.994" cy="-366" rx="57.3905" ry="18"/>
<text text-anchor="middle" x="470.994" y="-362.3" font-family="Times New Roman,serif" font-size="14.00">MortarPestle</text>
</g>
<!-- MortarPestle&#45;&gt;Pouch_Dust_Bone -->
<g id="edge7" class="edge"><title>MortarPestle&#45;&gt;Pouch_Dust_Bone</title>
<path fill="none" stroke="black" d="M434.875,-351.99C420.208,-346.098 403.368,-338.535 388.994,-330 379.743,-324.507 379.771,-319.492 369.994,-315 368.671,-314.392 309.697,-302.913 259.803,-293.265"/>
<polygon fill="black" stroke="black" points="260.448,-289.825 249.965,-291.363 259.119,-296.698 260.448,-289.825"/>
<text text-anchor="middle" x="416.994" y="-318.8" font-family="Times New Roman,serif" font-size="14.00">Crafting 0</text>
</g>
<!-- MortarPestle&#45;&gt;Pouch_Dust_Star -->
<g id="edge8" class="edge"><title>MortarPestle&#45;&gt;Pouch_Dust_Star</title>
<path fill="none" stroke="black" d="M466.962,-347.805C463.688,-337.161 458.087,-323.878 448.994,-315 441.379,-307.565 431.964,-301.628 422.202,-296.914"/>
<polygon fill="black" stroke="black" points="423.347,-293.594 412.785,-292.76 420.522,-299.998 423.347,-293.594"/>
<text text-anchor="middle" x="487.994" y="-318.8" font-family="Times New Roman,serif" font-size="14.00">Crafting 0</text>
</g>
<!-- MortarPestle&#45;&gt;Pouch_Dust_Moon -->
<g id="edge9" class="edge"><title>MortarPestle&#45;&gt;Pouch_Dust_Moon</title>
<path fill="none" stroke="black" d="M501.667,-350.747C511.023,-345.276 520.742,-338.313 527.994,-330 533.845,-323.293 538.362,-314.785 541.738,-306.697"/>
<polygon fill="black" stroke="black" points="545.069,-307.781 545.302,-297.189 538.514,-305.324 545.069,-307.781"/>
<text text-anchor="middle" x="564.994" y="-318.8" font-family="Times New Roman,serif" font-size="14.00">Crafting 0</text>
</g>
<!-- Pouch_Dust_Moon&#45;&gt;Pouch_Dust_Pixie -->
<g id="edge16" class="edge"><title>Pouch_Dust_Moon&#45;&gt;Pouch_Dust_Pixie</title>
<path fill="none" stroke="black" d="M515.043,-262.607C483.071,-248.526 435.629,-227.632 401.068,-212.411"/>
<polygon fill="black" stroke="black" points="402.248,-209.106 391.685,-208.278 399.426,-215.512 402.248,-209.106"/>
<text text-anchor="middle" x="493.994" y="-231.8" font-family="Times New Roman,serif" font-size="14.00">Crafting 0</text>
</g>
</g>
</svg>
