<?xml version="1.0" encoding="UTF-8" standalone="no"?>
<!DOCTYPE svg PUBLIC "-//W3C//DTD SVG 1.1//EN"
 "http://www.w3.org/Graphics/SVG/1.1/DTD/svg11.dtd">
<!-- Generated by graphviz version 2.38.0 (20140413.2041)
 -->
<!-- Title: G Pages: 1 -->
<svg width="240pt" height="131pt"
 viewBox="0.00 0.00 239.58 131.00" xmlns="http://www.w3.org/2000/svg" xmlns:xlink="http://www.w3.org/1999/xlink">
<g id="graph0" class="graph" transform="scale(1 1) rotate(0) translate(4 127)">
<title>G</title>
<polygon fill="white" stroke="none" points="-4,4 -4,-127 235.585,-127 235.585,4 -4,4"/>
<!-- reBar_A_Steel_A_Large -->
<g id="node1" class="node"><title>reBar_A_Steel_A_Large</title>
<ellipse fill="none" stroke="black" cx="100.741" cy="-18" rx="100.983" ry="18"/>
<text text-anchor="middle" x="100.741" y="-14.3" font-family="Times New Roman,serif" font-size="14.00">reBar_A_Steel_A_Large</text>
</g>
<!-- Oven -->
<g id="node2" class="node"><title>Oven</title>
<ellipse fill="none" stroke="black" cx="41.7411" cy="-105" rx="30.5947" ry="18"/>
<text text-anchor="middle" x="41.7411" y="-101.3" font-family="Times New Roman,serif" font-size="14.00">Oven</text>
</g>
<!-- Oven&#45;&gt;reBar_A_Steel_A_Large -->
<g id="edge2" class="edge"><title>Oven&#45;&gt;reBar_A_Steel_A_Large</title>
<path fill="none" stroke="black" d="M52.8385,-88.0122C61.3526,-75.746 73.2719,-58.5742 83.0907,-44.4285"/>
<polygon fill="black" stroke="black" points="86.0566,-46.2936 88.8836,-36.0828 80.3061,-42.302 86.0566,-46.2936"/>
<text text-anchor="middle" x="103.741" y="-57.8" font-family="Times New Roman,serif" font-size="14.00">Crafting 1</text>
</g>
<!-- TwoHandedAxe -->
<g id="node3" class="node"><title>TwoHandedAxe</title>
<ellipse fill="none" stroke="black" cx="160.741" cy="-105" rx="70.6878" ry="18"/>
<text text-anchor="middle" x="160.741" y="-101.3" font-family="Times New Roman,serif" font-size="14.00">TwoHandedAxe</text>
</g>
<!-- TwoHandedAxe&#45;&gt;reBar_A_Steel_A_Large -->
<g id="edge1" class="edge"><title>TwoHandedAxe&#45;&gt;reBar_A_Steel_A_Large</title>
<path fill="none" stroke="black" d="M153.895,-87.0243C149.45,-76.969 143.118,-64.2352 135.741,-54 133.069,-50.2922 129.996,-46.6142 126.804,-43.1138"/>
<polygon fill="black" stroke="black" points="129.201,-40.5567 119.738,-35.7918 124.164,-45.4178 129.201,-40.5567"/>
<text text-anchor="middle" x="171.741" y="-57.8" font-family="Times New Roman,serif" font-size="14.00">Crafting 1</text>
</g>
</g>
</svg>
