<?xml version="1.0" encoding="UTF-8" standalone="no"?>
<!DOCTYPE svg PUBLIC "-//W3C//DTD SVG 1.1//EN"
 "http://www.w3.org/Graphics/SVG/1.1/DTD/svg11.dtd">
<!-- Generated by graphviz version 2.38.0 (20140413.2041)
 -->
<!-- Title: G Pages: 1 -->
<svg width="474pt" height="305pt"
 viewBox="0.00 0.00 473.55 305.00" xmlns="http://www.w3.org/2000/svg" xmlns:xlink="http://www.w3.org/1999/xlink">
<g id="graph0" class="graph" transform="scale(1 1) rotate(0) translate(4 301)">
<title>G</title>
<polygon fill="white" stroke="none" points="-4,4 -4,-301 469.547,-301 469.547,4 -4,4"/>
<!-- Oven -->
<g id="node1" class="node"><title>Oven</title>
<ellipse fill="none" stroke="black" cx="30.5473" cy="-279" rx="30.5947" ry="18"/>
<text text-anchor="middle" x="30.5473" y="-275.3" font-family="Times New Roman,serif" font-size="14.00">Oven</text>
</g>
<!-- OreBar_A_Iron -->
<g id="node4" class="node"><title>OreBar_A_Iron</title>
<ellipse fill="none" stroke="black" cx="197.547" cy="-192" rx="68.4888" ry="18"/>
<text text-anchor="middle" x="197.547" y="-188.3" font-family="Times New Roman,serif" font-size="14.00">OreBar_A_Iron</text>
</g>
<!-- Oven&#45;&gt;OreBar_A_Iron -->
<g id="edge1" class="edge"><title>Oven&#45;&gt;OreBar_A_Iron</title>
<path fill="none" stroke="black" d="M46.3546,-263.463C58.925,-252.515 77.3629,-237.772 95.5473,-228 109.819,-220.33 126.099,-213.846 141.397,-208.623"/>
<polygon fill="black" stroke="black" points="142.872,-211.822 151.278,-205.372 140.685,-205.172 142.872,-211.822"/>
<text text-anchor="middle" x="123.547" y="-231.8" font-family="Times New Roman,serif" font-size="14.00">Crafting 1</text>
</g>
<!-- Branch -->
<g id="node2" class="node"><title>Branch</title>
<ellipse fill="none" stroke="black" cx="320.547" cy="-192" rx="36.2938" ry="18"/>
<text text-anchor="middle" x="320.547" y="-188.3" font-family="Times New Roman,serif" font-size="14.00">Branch</text>
</g>
<!-- CrossbowWithoutString -->
<g id="node9" class="node"><title>CrossbowWithoutString</title>
<ellipse fill="none" stroke="black" cx="238.547" cy="-105" rx="99.3824" ry="18"/>
<text text-anchor="middle" x="238.547" y="-101.3" font-family="Times New Roman,serif" font-size="14.00">CrossbowWithoutString</text>
</g>
<!-- Branch&#45;&gt;CrossbowWithoutString -->
<g id="edge7" class="edge"><title>Branch&#45;&gt;CrossbowWithoutString</title>
<path fill="none" stroke="black" d="M308.714,-174.547C301.133,-164.445 290.819,-151.479 280.547,-141 276.644,-137.018 272.32,-133.02 267.974,-129.223"/>
<polygon fill="black" stroke="black" points="270.108,-126.444 260.215,-122.654 265.585,-131.787 270.108,-126.444"/>
<text text-anchor="middle" x="321.547" y="-144.8" font-family="Times New Roman,serif" font-size="14.00">Crafting 2</text>
</g>
<!-- Bone_A_Iron -->
<g id="node3" class="node"><title>Bone_A_Iron</title>
<ellipse fill="none" stroke="black" cx="140.547" cy="-279" rx="61.1893" ry="18"/>
<text text-anchor="middle" x="140.547" y="-275.3" font-family="Times New Roman,serif" font-size="14.00">Bone_A_Iron</text>
</g>
<!-- Bone_A_Iron&#45;&gt;OreBar_A_Iron -->
<g id="edge3" class="edge"><title>Bone_A_Iron&#45;&gt;OreBar_A_Iron</title>
<path fill="none" stroke="black" d="M146.673,-261.031C150.702,-250.978 156.523,-238.245 163.547,-228 166.151,-224.203 169.181,-220.441 172.339,-216.87"/>
<polygon fill="black" stroke="black" points="175.045,-219.102 179.343,-209.419 169.944,-214.308 175.045,-219.102"/>
<text text-anchor="middle" x="191.547" y="-231.8" font-family="Times New Roman,serif" font-size="14.00">Crafting 0</text>
</g>
<!-- OreBar_A_Iron&#45;&gt;CrossbowWithoutString -->
<g id="edge4" class="edge"><title>OreBar_A_Iron&#45;&gt;CrossbowWithoutString</title>
<path fill="none" stroke="black" d="M205.844,-173.799C211.568,-161.932 219.288,-145.928 225.79,-132.449"/>
<polygon fill="black" stroke="black" points="229.071,-133.703 230.263,-123.175 222.766,-130.662 229.071,-133.703"/>
<text text-anchor="middle" x="248.547" y="-144.8" font-family="Times New Roman,serif" font-size="14.00">Crafting 2</text>
</g>
<!-- Sinew -->
<g id="node5" class="node"><title>Sinew</title>
<ellipse fill="none" stroke="black" cx="409.547" cy="-192" rx="32.4942" ry="18"/>
<text text-anchor="middle" x="409.547" y="-188.3" font-family="Times New Roman,serif" font-size="14.00">Sinew</text>
</g>
<!-- String_Bow -->
<g id="node6" class="node"><title>String_Bow</title>
<ellipse fill="none" stroke="black" cx="409.547" cy="-105" rx="53.8905" ry="18"/>
<text text-anchor="middle" x="409.547" y="-101.3" font-family="Times New Roman,serif" font-size="14.00">String_Bow</text>
</g>
<!-- Sinew&#45;&gt;String_Bow -->
<g id="edge5" class="edge"><title>Sinew&#45;&gt;String_Bow</title>
<path fill="none" stroke="black" d="M409.547,-173.799C409.547,-162.163 409.547,-146.548 409.547,-133.237"/>
<polygon fill="black" stroke="black" points="413.047,-133.175 409.547,-123.175 406.047,-133.175 413.047,-133.175"/>
<text text-anchor="middle" x="437.547" y="-144.8" font-family="Times New Roman,serif" font-size="14.00">Crafting 0</text>
</g>
<!-- Regularcrossbow B -->
<g id="node7" class="node"><title>Regularcrossbow B</title>
<ellipse fill="none" stroke="black" cx="335.547" cy="-18" rx="83.3857" ry="18"/>
<text text-anchor="middle" x="335.547" y="-14.3" font-family="Times New Roman,serif" font-size="14.00">Regularcrossbow B</text>
</g>
<!-- String_Bow&#45;&gt;Regularcrossbow B -->
<g id="edge6" class="edge"><title>String_Bow&#45;&gt;Regularcrossbow B</title>
<path fill="none" stroke="black" d="M395.279,-87.6111C384.466,-75.1903 369.423,-57.9114 357.139,-43.8013"/>
<polygon fill="black" stroke="black" points="359.484,-41.1644 350.278,-35.9203 354.204,-45.7608 359.484,-41.1644"/>
<text text-anchor="middle" x="404.547" y="-57.8" font-family="Times New Roman,serif" font-size="14.00">Crafting 4</text>
</g>
<!-- Sword -->
<g id="node8" class="node"><title>Sword</title>
<ellipse fill="none" stroke="black" cx="254.547" cy="-279" rx="35.194" ry="18"/>
<text text-anchor="middle" x="254.547" y="-275.3" font-family="Times New Roman,serif" font-size="14.00">Sword</text>
</g>
<!-- Sword&#45;&gt;OreBar_A_Iron -->
<g id="edge2" class="edge"><title>Sword&#45;&gt;OreBar_A_Iron</title>
<path fill="none" stroke="black" d="M243.557,-261.611C235.384,-249.422 224.073,-232.556 214.712,-218.596"/>
<polygon fill="black" stroke="black" points="217.37,-216.276 208.894,-209.92 211.557,-220.175 217.37,-216.276"/>
<text text-anchor="middle" x="257.547" y="-231.8" font-family="Times New Roman,serif" font-size="14.00">Crafting 1</text>
</g>
<!-- CrossbowWithoutString&#45;&gt;Regularcrossbow B -->
<g id="edge8" class="edge"><title>CrossbowWithoutString&#45;&gt;Regularcrossbow B</title>
<path fill="none" stroke="black" d="M257.711,-87.2067C272.325,-74.4006 292.632,-56.6066 308.839,-42.4043"/>
<polygon fill="black" stroke="black" points="311.209,-44.9813 316.423,-35.7584 306.595,-39.7166 311.209,-44.9813"/>
<text text-anchor="middle" x="321.547" y="-57.8" font-family="Times New Roman,serif" font-size="14.00">Crafting 4</text>
</g>
<!-- Ore_A_Iron -->
<g id="node10" class="node"><title>Ore_A_Iron</title>
<ellipse fill="none" stroke="black" cx="363.547" cy="-279" rx="55.7903" ry="18"/>
<text text-anchor="middle" x="363.547" y="-275.3" font-family="Times New Roman,serif" font-size="14.00">Ore_A_Iron</text>
</g>
<!-- Ore_A_Iron&#45;&gt;OreBar_A_Iron -->
<g id="edge9" class="edge"><title>Ore_A_Iron&#45;&gt;OreBar_A_Iron</title>
<path fill="none" stroke="black" d="M342.978,-262.208C328.557,-251.618 308.537,-237.859 289.547,-228 276.611,-221.284 262.081,-215.157 248.456,-209.973"/>
<polygon fill="black" stroke="black" points="249.324,-206.563 238.731,-206.37 246.893,-213.127 249.324,-206.563"/>
<text text-anchor="middle" x="343.547" y="-231.8" font-family="Times New Roman,serif" font-size="14.00">Crafting 0</text>
</g>
</g>
</svg>
