<?xml version="1.0" encoding="UTF-8" standalone="no"?>
<!DOCTYPE svg PUBLIC "-//W3C//DTD SVG 1.1//EN"
 "http://www.w3.org/Graphics/SVG/1.1/DTD/svg11.dtd">
<!-- Generated by graphviz version 2.38.0 (20140413.2041)
 -->
<!-- Title: G Pages: 1 -->
<svg width="1583pt" height="479pt"
 viewBox="0.00 0.00 1583.30 479.00" xmlns="http://www.w3.org/2000/svg" xmlns:xlink="http://www.w3.org/1999/xlink">
<g id="graph0" class="graph" transform="scale(1 1) rotate(0) translate(4 475)">
<title>G</title>
<polygon fill="white" stroke="none" points="-4,4 -4,-475 1579.3,-475 1579.3,4 -4,4"/>
<!-- Log -->
<g id="node1" class="node"><title>Log</title>
<ellipse fill="none" stroke="black" cx="477.298" cy="-453" rx="27" ry="18"/>
<text text-anchor="middle" x="477.298" y="-449.3" font-family="Times New Roman,serif" font-size="14.00">Log</text>
</g>
<!-- Scraps_Wood -->
<g id="node26" class="node"><title>Scraps_Wood</title>
<ellipse fill="none" stroke="black" cx="516.298" cy="-366" rx="64.189" ry="18"/>
<text text-anchor="middle" x="516.298" y="-362.3" font-family="Times New Roman,serif" font-size="14.00">Scraps_Wood</text>
</g>
<!-- Log&#45;&gt;Scraps_Wood -->
<g id="edge1" class="edge"><title>Log&#45;&gt;Scraps_Wood</title>
<path fill="none" stroke="black" d="M474.417,-435.065C473.476,-425.024 473.662,-412.291 478.298,-402 480.172,-397.84 482.802,-393.95 485.813,-390.389"/>
<polygon fill="black" stroke="black" points="488.403,-392.746 492.869,-383.138 483.387,-387.864 488.403,-392.746"/>
<text text-anchor="middle" x="506.298" y="-405.8" font-family="Times New Roman,serif" font-size="14.00">Crafting 0</text>
</g>
<!-- Scraps_Wood_A_Mush -->
<g id="node2" class="node"><title>Scraps_Wood_A_Mush</title>
<ellipse fill="none" stroke="black" cx="326.298" cy="-279" rx="100.983" ry="18"/>
<text text-anchor="middle" x="326.298" y="-275.3" font-family="Times New Roman,serif" font-size="14.00">Scraps_Wood_A_Mush</text>
</g>
<!-- BOOK_Paper_Sheet -->
<g id="node10" class="node"><title>BOOK_Paper_Sheet</title>
<ellipse fill="none" stroke="black" cx="326.298" cy="-192" rx="87.1846" ry="18"/>
<text text-anchor="middle" x="326.298" y="-188.3" font-family="Times New Roman,serif" font-size="14.00">BOOK_Paper_Sheet</text>
</g>
<!-- Scraps_Wood_A_Mush&#45;&gt;BOOK_Paper_Sheet -->
<g id="edge2" class="edge"><title>Scraps_Wood_A_Mush&#45;&gt;BOOK_Paper_Sheet</title>
<path fill="none" stroke="black" d="M326.298,-260.799C326.298,-249.163 326.298,-233.548 326.298,-220.237"/>
<polygon fill="black" stroke="black" points="329.798,-220.175 326.298,-210.175 322.798,-220.175 329.798,-220.175"/>
<text text-anchor="middle" x="354.298" y="-231.8" font-family="Times New Roman,serif" font-size="14.00">Crafting 0</text>
</g>
<!-- Pouch_Dust_Bone -->
<g id="node3" class="node"><title>Pouch_Dust_Bone</title>
<ellipse fill="none" stroke="black" cx="766.298" cy="-279" rx="79.8859" ry="18"/>
<text text-anchor="middle" x="766.298" y="-275.3" font-family="Times New Roman,serif" font-size="14.00">Pouch_Dust_Bone</text>
</g>
<!-- Pouch_Dust_Pixie -->
<g id="node15" class="node"><title>Pouch_Dust_Pixie</title>
<ellipse fill="none" stroke="black" cx="947.298" cy="-192" rx="78.7863" ry="18"/>
<text text-anchor="middle" x="947.298" y="-188.3" font-family="Times New Roman,serif" font-size="14.00">Pouch_Dust_Pixie</text>
</g>
<!-- Pouch_Dust_Bone&#45;&gt;Pouch_Dust_Pixie -->
<g id="edge3" class="edge"><title>Pouch_Dust_Bone&#45;&gt;Pouch_Dust_Pixie</title>
<path fill="none" stroke="black" d="M799.496,-262.41C829.22,-248.451 872.954,-227.913 905.14,-212.798"/>
<polygon fill="black" stroke="black" points="906.746,-215.91 914.31,-208.491 903.77,-209.574 906.746,-215.91"/>
<text text-anchor="middle" x="895.298" y="-231.8" font-family="Times New Roman,serif" font-size="14.00">Crafting 0</text>
</g>
<!-- Scroll_Skill_Air_Blank -->
<g id="node4" class="node"><title>Scroll_Skill_Air_Blank</title>
<ellipse fill="none" stroke="black" cx="843.298" cy="-105" rx="94.4839" ry="18"/>
<text text-anchor="middle" x="843.298" y="-101.3" font-family="Times New Roman,serif" font-size="14.00">Scroll_Skill_Air_Blank</text>
</g>
<!-- SCROLL_LightningStorm -->
<g id="node12" class="node"><title>SCROLL_LightningStorm</title>
<ellipse fill="none" stroke="black" cx="972.298" cy="-18" rx="107.482" ry="18"/>
<text text-anchor="middle" x="972.298" y="-14.3" font-family="Times New Roman,serif" font-size="14.00">SCROLL_LightningStorm</text>
</g>
<!-- Scroll_Skill_Air_Blank&#45;&gt;SCROLL_LightningStorm -->
<g id="edge4" class="edge"><title>Scroll_Skill_Air_Blank&#45;&gt;SCROLL_LightningStorm</title>
<path fill="none" stroke="black" d="M868.17,-87.6111C888.207,-74.4086 916.574,-55.7173 938.641,-41.177"/>
<polygon fill="black" stroke="black" points="940.637,-44.0533 947.061,-35.6286 936.785,-38.2081 940.637,-44.0533"/>
<text text-anchor="middle" x="943.298" y="-57.8" font-family="Times New Roman,serif" font-size="14.00">Crafting 5</text>
</g>
<!-- Bucket_A_Water -->
<g id="node5" class="node"><title>Bucket_A_Water</title>
<ellipse fill="none" stroke="black" cx="164.298" cy="-366" rx="74.187" ry="18"/>
<text text-anchor="middle" x="164.298" y="-362.3" font-family="Times New Roman,serif" font-size="14.00">Bucket_A_Water</text>
</g>
<!-- Bucket_A_Water&#45;&gt;Scraps_Wood_A_Mush -->
<g id="edge5" class="edge"><title>Bucket_A_Water&#45;&gt;Scraps_Wood_A_Mush</title>
<path fill="none" stroke="black" d="M174.131,-347.866C181.213,-336.97 191.716,-323.383 204.298,-315 217.084,-306.481 231.955,-300.006 246.828,-295.094"/>
<polygon fill="black" stroke="black" points="248.056,-298.378 256.58,-292.086 245.992,-291.689 248.056,-298.378"/>
<text text-anchor="middle" x="232.298" y="-318.8" font-family="Times New Roman,serif" font-size="14.00">Crafting 0</text>
</g>
<!-- Herb_Stardust -->
<g id="node6" class="node"><title>Herb_Stardust</title>
<ellipse fill="none" stroke="black" cx="1181.3" cy="-366" rx="63.8893" ry="18"/>
<text text-anchor="middle" x="1181.3" y="-362.3" font-family="Times New Roman,serif" font-size="14.00">Herb_Stardust</text>
</g>
<!-- Pouch_Dust_Star -->
<g id="node20" class="node"><title>Pouch_Dust_Star</title>
<ellipse fill="none" stroke="black" cx="1124.3" cy="-279" rx="75.2868" ry="18"/>
<text text-anchor="middle" x="1124.3" y="-275.3" font-family="Times New Roman,serif" font-size="14.00">Pouch_Dust_Star</text>
</g>
<!-- Herb_Stardust&#45;&gt;Pouch_Dust_Star -->
<g id="edge6" class="edge"><title>Herb_Stardust&#45;&gt;Pouch_Dust_Star</title>
<path fill="none" stroke="black" d="M1175.61,-347.981C1171.82,-337.91 1166.26,-325.176 1159.3,-315 1156.72,-311.228 1153.7,-307.512 1150.53,-303.992"/>
<polygon fill="black" stroke="black" points="1152.94,-301.445 1143.49,-296.654 1147.89,-306.292 1152.94,-301.445"/>
<text text-anchor="middle" x="1195.3" y="-318.8" font-family="Times New Roman,serif" font-size="14.00">Crafting 0</text>
</g>
<!-- Feather -->
<g id="node7" class="node"><title>Feather</title>
<ellipse fill="none" stroke="black" cx="1393.3" cy="-366" rx="37.8943" ry="18"/>
<text text-anchor="middle" x="1393.3" y="-362.3" font-family="Times New Roman,serif" font-size="14.00">Feather</text>
</g>
<!-- Feather_A_Quill -->
<g id="node18" class="node"><title>Feather_A_Quill</title>
<ellipse fill="none" stroke="black" cx="1390.3" cy="-279" rx="70.6878" ry="18"/>
<text text-anchor="middle" x="1390.3" y="-275.3" font-family="Times New Roman,serif" font-size="14.00">Feather_A_Quill</text>
</g>
<!-- Feather&#45;&gt;Feather_A_Quill -->
<g id="edge7" class="edge"><title>Feather&#45;&gt;Feather_A_Quill</title>
<path fill="none" stroke="black" d="M1392.69,-347.799C1392.28,-336.163 1391.73,-320.548 1391.26,-307.237"/>
<polygon fill="black" stroke="black" points="1394.75,-307.046 1390.9,-297.175 1387.76,-307.293 1394.75,-307.046"/>
<text text-anchor="middle" x="1419.3" y="-318.8" font-family="Times New Roman,serif" font-size="14.00">Crafting 0</text>
</g>
<!-- Knife -->
<g id="node8" class="node"><title>Knife</title>
<ellipse fill="none" stroke="black" cx="1296.3" cy="-453" rx="30.5947" ry="18"/>
<text text-anchor="middle" x="1296.3" y="-449.3" font-family="Times New Roman,serif" font-size="14.00">Knife</text>
</g>
<!-- Knife&#45;&gt;Feather -->
<g id="edge13" class="edge"><title>Knife&#45;&gt;Feather</title>
<path fill="none" stroke="black" d="M1305.86,-435.803C1312.6,-425.302 1322.36,-411.804 1333.3,-402 1340.76,-395.308 1349.7,-389.272 1358.38,-384.171"/>
<polygon fill="black" stroke="black" points="1360.23,-387.145 1367.25,-379.206 1356.81,-381.037 1360.23,-387.145"/>
<text text-anchor="middle" x="1361.3" y="-405.8" font-family="Times New Roman,serif" font-size="14.00">Crafting 0</text>
</g>
<!-- Knife&#45;&gt;Feather_A_Quill -->
<g id="edge12" class="edge"><title>Knife&#45;&gt;Feather_A_Quill</title>
<path fill="none" stroke="black" d="M1290.2,-435.013C1283.55,-413.426 1275.66,-375.653 1290.3,-348 1301.85,-326.179 1323.89,-310.056 1344.34,-299.002"/>
<polygon fill="black" stroke="black" points="1345.98,-302.098 1353.28,-294.425 1342.79,-295.867 1345.98,-302.098"/>
<text text-anchor="middle" x="1318.3" y="-362.3" font-family="Times New Roman,serif" font-size="14.00">Crafting 0</text>
</g>
<!-- Pouch_Dust_Moon -->
<g id="node9" class="node"><title>Pouch_Dust_Moon</title>
<ellipse fill="none" stroke="black" cx="947.298" cy="-279" rx="83.3857" ry="18"/>
<text text-anchor="middle" x="947.298" y="-275.3" font-family="Times New Roman,serif" font-size="14.00">Pouch_Dust_Moon</text>
</g>
<!-- Pouch_Dust_Moon&#45;&gt;Pouch_Dust_Pixie -->
<g id="edge8" class="edge"><title>Pouch_Dust_Moon&#45;&gt;Pouch_Dust_Pixie</title>
<path fill="none" stroke="black" d="M947.298,-260.799C947.298,-249.163 947.298,-233.548 947.298,-220.237"/>
<polygon fill="black" stroke="black" points="950.798,-220.175 947.298,-210.175 943.798,-220.175 950.798,-220.175"/>
<text text-anchor="middle" x="975.298" y="-231.8" font-family="Times New Roman,serif" font-size="14.00">Crafting 0</text>
</g>
<!-- BOOK_Paper_Sheet&#45;&gt;Scroll_Skill_Air_Blank -->
<g id="edge9" class="edge"><title>BOOK_Paper_Sheet&#45;&gt;Scroll_Skill_Air_Blank</title>
<path fill="none" stroke="black" d="M392.038,-180.192C487.055,-164.57 662.512,-135.723 764.391,-118.973"/>
<polygon fill="black" stroke="black" points="765.018,-122.417 774.318,-117.341 763.882,-115.51 765.018,-122.417"/>
<text text-anchor="middle" x="644.298" y="-144.8" font-family="Times New Roman,serif" font-size="14.00">Crafting 1</text>
</g>
<!-- Well_A_Snow -->
<g id="node11" class="node"><title>Well_A_Snow</title>
<ellipse fill="none" stroke="black" cx="248.298" cy="-453" rx="64.189" ry="18"/>
<text text-anchor="middle" x="248.298" y="-449.3" font-family="Times New Roman,serif" font-size="14.00">Well_A_Snow</text>
</g>
<!-- Well_A_Snow&#45;&gt;Scraps_Wood_A_Mush -->
<g id="edge10" class="edge"><title>Well_A_Snow&#45;&gt;Scraps_Wood_A_Mush</title>
<path fill="none" stroke="black" d="M254.229,-434.731C263.68,-407.306 281.484,-356.054 285.298,-348 292.181,-333.462 301.306,-318.051 309.201,-305.582"/>
<polygon fill="black" stroke="black" points="312.207,-307.378 314.682,-297.077 306.323,-303.586 312.207,-307.378"/>
<text text-anchor="middle" x="313.298" y="-362.3" font-family="Times New Roman,serif" font-size="14.00">Crafting 0</text>
</g>
<!-- Well_A_Snow&#45;&gt;Bucket_A_Water -->
<g id="edge11" class="edge"><title>Well_A_Snow&#45;&gt;Bucket_A_Water</title>
<path fill="none" stroke="black" d="M225.995,-435.828C218.779,-430.193 210.933,-423.617 204.298,-417 196.623,-409.347 188.992,-400.27 182.485,-391.965"/>
<polygon fill="black" stroke="black" points="185.247,-389.815 176.392,-383.998 179.687,-394.068 185.247,-389.815"/>
<text text-anchor="middle" x="232.298" y="-405.8" font-family="Times New Roman,serif" font-size="14.00">Crafting 0</text>
</g>
<!-- Ink_Pot_A_Quill_A_Magic -->
<g id="node13" class="node"><title>Ink_Pot_A_Quill_A_Magic</title>
<ellipse fill="none" stroke="black" cx="1067.3" cy="-105" rx="111.581" ry="18"/>
<text text-anchor="middle" x="1067.3" y="-101.3" font-family="Times New Roman,serif" font-size="14.00">Ink_Pot_A_Quill_A_Magic</text>
</g>
<!-- Ink_Pot_A_Quill_A_Magic&#45;&gt;SCROLL_LightningStorm -->
<g id="edge14" class="edge"><title>Ink_Pot_A_Quill_A_Magic&#45;&gt;SCROLL_LightningStorm</title>
<path fill="none" stroke="black" d="M1048.53,-87.2067C1034.35,-74.517 1014.69,-56.9297 998.889,-42.7925"/>
<polygon fill="black" stroke="black" points="1000.81,-39.818 991.028,-35.7584 996.146,-45.0347 1000.81,-39.818"/>
<text text-anchor="middle" x="1053.3" y="-57.8" font-family="Times New Roman,serif" font-size="14.00">Crafting 5</text>
</g>
<!-- Skull_Human -->
<g id="node14" class="node"><title>Skull_Human</title>
<ellipse fill="none" stroke="black" cx="658.298" cy="-366" rx="59.5901" ry="18"/>
<text text-anchor="middle" x="658.298" y="-362.3" font-family="Times New Roman,serif" font-size="14.00">Skull_Human</text>
</g>
<!-- Skull_Human&#45;&gt;Pouch_Dust_Bone -->
<g id="edge15" class="edge"><title>Skull_Human&#45;&gt;Pouch_Dust_Bone</title>
<path fill="none" stroke="black" d="M672.389,-348.087C681.446,-337.812 693.817,-324.825 706.298,-315 712.627,-310.017 719.738,-305.252 726.792,-300.929"/>
<polygon fill="black" stroke="black" points="728.803,-303.807 735.634,-295.709 725.243,-297.779 728.803,-303.807"/>
<text text-anchor="middle" x="734.298" y="-318.8" font-family="Times New Roman,serif" font-size="14.00">Crafting 0</text>
</g>
<!-- Pouch_Dust_Pixie&#45;&gt;Scroll_Skill_Air_Blank -->
<g id="edge17" class="edge"><title>Pouch_Dust_Pixie&#45;&gt;Scroll_Skill_Air_Blank</title>
<path fill="none" stroke="black" d="M926.751,-174.207C911.082,-161.401 889.31,-143.607 871.933,-129.404"/>
<polygon fill="black" stroke="black" points="873.76,-126.377 863.802,-122.758 869.33,-131.797 873.76,-126.377"/>
<text text-anchor="middle" x="929.298" y="-144.8" font-family="Times New Roman,serif" font-size="14.00">Crafting 1</text>
</g>
<!-- Pouch_Dust_Pixie&#45;&gt;Ink_Pot_A_Quill_A_Magic -->
<g id="edge16" class="edge"><title>Pouch_Dust_Pixie&#45;&gt;Ink_Pot_A_Quill_A_Magic</title>
<path fill="none" stroke="black" d="M970.435,-174.611C988.909,-161.525 1014.99,-143.048 1035.44,-128.564"/>
<polygon fill="black" stroke="black" points="1037.68,-131.265 1043.82,-122.629 1033.64,-125.553 1037.68,-131.265"/>
<text text-anchor="middle" x="1042.3" y="-144.8" font-family="Times New Roman,serif" font-size="14.00">Crafting 1</text>
</g>
<!-- Bucket -->
<g id="node16" class="node"><title>Bucket</title>
<ellipse fill="none" stroke="black" cx="124.298" cy="-453" rx="36.2938" ry="18"/>
<text text-anchor="middle" x="124.298" y="-449.3" font-family="Times New Roman,serif" font-size="14.00">Bucket</text>
</g>
<!-- Bucket&#45;&gt;Bucket_A_Water -->
<g id="edge18" class="edge"><title>Bucket&#45;&gt;Bucket_A_Water</title>
<path fill="none" stroke="black" d="M121.369,-435.043C120.411,-424.994 120.595,-412.261 125.298,-402 127.226,-397.792 129.928,-393.875 133.02,-390.298"/>
<polygon fill="black" stroke="black" points="135.682,-392.586 140.264,-383.033 130.725,-387.643 135.682,-392.586"/>
<text text-anchor="middle" x="153.298" y="-405.8" font-family="Times New Roman,serif" font-size="14.00">Crafting 0</text>
</g>
<!-- Well -->
<g id="node17" class="node"><title>Well</title>
<ellipse fill="none" stroke="black" cx="27.2976" cy="-453" rx="27.0966" ry="18"/>
<text text-anchor="middle" x="27.2976" y="-449.3" font-family="Times New Roman,serif" font-size="14.00">Well</text>
</g>
<!-- Well&#45;&gt;Scraps_Wood_A_Mush -->
<g id="edge19" class="edge"><title>Well&#45;&gt;Scraps_Wood_A_Mush</title>
<path fill="none" stroke="black" d="M21.02,-435.153C13.8402,-412.673 5.45328,-372.827 25.2976,-348 39.0586,-330.783 159.504,-307.603 243.792,-293.239"/>
<polygon fill="black" stroke="black" points="244.606,-296.652 253.882,-291.533 243.438,-289.75 244.606,-296.652"/>
<text text-anchor="middle" x="53.2976" y="-362.3" font-family="Times New Roman,serif" font-size="14.00">Crafting 0</text>
</g>
<!-- Well&#45;&gt;Bucket_A_Water -->
<g id="edge20" class="edge"><title>Well&#45;&gt;Bucket_A_Water</title>
<path fill="none" stroke="black" d="M35.3049,-435.529C41.3576,-424.637 50.6155,-410.795 62.2976,-402 73.6714,-393.437 87.2882,-386.874 100.812,-381.876"/>
<polygon fill="black" stroke="black" points="102.29,-385.069 110.609,-378.509 100.014,-378.45 102.29,-385.069"/>
<text text-anchor="middle" x="90.2976" y="-405.8" font-family="Times New Roman,serif" font-size="14.00">Crafting 0</text>
</g>
<!-- Ink_Pot_A_Quill -->
<g id="node28" class="node"><title>Ink_Pot_A_Quill</title>
<ellipse fill="none" stroke="black" cx="1259.3" cy="-192" rx="73.387" ry="18"/>
<text text-anchor="middle" x="1259.3" y="-188.3" font-family="Times New Roman,serif" font-size="14.00">Ink_Pot_A_Quill</text>
</g>
<!-- Feather_A_Quill&#45;&gt;Ink_Pot_A_Quill -->
<g id="edge21" class="edge"><title>Feather_A_Quill&#45;&gt;Ink_Pot_A_Quill</title>
<path fill="none" stroke="black" d="M1368.25,-261.74C1354.4,-251.71 1336.04,-238.753 1319.3,-228 1311.93,-223.27 1303.92,-218.408 1296.22,-213.869"/>
<polygon fill="black" stroke="black" points="1297.78,-210.729 1287.38,-208.717 1294.25,-216.777 1297.78,-210.729"/>
<text text-anchor="middle" x="1368.3" y="-231.8" font-family="Times New Roman,serif" font-size="14.00">Crafting 0</text>
</g>
<!-- Moonstone -->
<g id="node19" class="node"><title>Moonstone</title>
<ellipse fill="none" stroke="black" cx="866.298" cy="-366" rx="51.9908" ry="18"/>
<text text-anchor="middle" x="866.298" y="-362.3" font-family="Times New Roman,serif" font-size="14.00">Moonstone</text>
</g>
<!-- Moonstone&#45;&gt;Pouch_Dust_Moon -->
<g id="edge22" class="edge"><title>Moonstone&#45;&gt;Pouch_Dust_Moon</title>
<path fill="none" stroke="black" d="M861.868,-347.911C860.201,-337.569 860.004,-324.575 866.298,-315 870.853,-308.069 877.104,-302.504 884.131,-298.038"/>
<polygon fill="black" stroke="black" points="886.304,-300.837 893.376,-292.948 882.928,-294.705 886.304,-300.837"/>
<text text-anchor="middle" x="894.298" y="-318.8" font-family="Times New Roman,serif" font-size="14.00">Crafting 0</text>
</g>
<!-- Pouch_Dust_Star&#45;&gt;Pouch_Dust_Pixie -->
<g id="edge23" class="edge"><title>Pouch_Dust_Star&#45;&gt;Pouch_Dust_Pixie</title>
<path fill="none" stroke="black" d="M1092.24,-262.607C1063.35,-248.733 1020.69,-228.245 989.123,-213.086"/>
<polygon fill="black" stroke="black" points="990.24,-209.74 979.711,-208.566 987.21,-216.05 990.24,-209.74"/>
<text text-anchor="middle" x="1074.3" y="-231.8" font-family="Times New Roman,serif" font-size="14.00">Crafting 0</text>
</g>
<!-- Axe -->
<g id="node21" class="node"><title>Axe</title>
<ellipse fill="none" stroke="black" cx="556.298" cy="-453" rx="27" ry="18"/>
<text text-anchor="middle" x="556.298" y="-449.3" font-family="Times New Roman,serif" font-size="14.00">Axe</text>
</g>
<!-- Axe&#45;&gt;Scraps_Wood -->
<g id="edge24" class="edge"><title>Axe&#45;&gt;Scraps_Wood</title>
<path fill="none" stroke="black" d="M549.215,-435.219C545.02,-425.458 539.52,-412.958 534.298,-402 532.886,-399.039 531.372,-395.958 529.842,-392.906"/>
<polygon fill="black" stroke="black" points="532.955,-391.306 525.295,-383.987 526.718,-394.485 532.955,-391.306"/>
<text text-anchor="middle" x="569.298" y="-405.8" font-family="Times New Roman,serif" font-size="14.00">Crafting 0</text>
</g>
<!-- Barrel -->
<g id="node22" class="node"><title>Barrel</title>
<ellipse fill="none" stroke="black" cx="373.298" cy="-453" rx="32.4942" ry="18"/>
<text text-anchor="middle" x="373.298" y="-449.3" font-family="Times New Roman,serif" font-size="14.00">Barrel</text>
</g>
<!-- Barrel&#45;&gt;Scraps_Wood_A_Mush -->
<g id="edge25" class="edge"><title>Barrel&#45;&gt;Scraps_Wood_A_Mush</title>
<path fill="none" stroke="black" d="M368.619,-434.879C360.42,-404.872 343.398,-342.579 333.624,-306.812"/>
<polygon fill="black" stroke="black" points="336.969,-305.775 330.957,-297.052 330.217,-307.621 336.969,-305.775"/>
<text text-anchor="middle" x="383.298" y="-362.3" font-family="Times New Roman,serif" font-size="14.00">Crafting 0</text>
</g>
<!-- Barrel&#45;&gt;Bucket_A_Water -->
<g id="edge26" class="edge"><title>Barrel&#45;&gt;Bucket_A_Water</title>
<path fill="none" stroke="black" d="M349.761,-440.429C327.871,-429.854 294.225,-414.071 264.298,-402 249.045,-395.848 232.248,-389.724 216.846,-384.358"/>
<polygon fill="black" stroke="black" points="217.551,-380.899 206.956,-380.95 215.27,-387.517 217.551,-380.899"/>
<text text-anchor="middle" x="326.298" y="-405.8" font-family="Times New Roman,serif" font-size="14.00">Crafting 0</text>
</g>
<!-- Pillow -->
<g id="node23" class="node"><title>Pillow</title>
<ellipse fill="none" stroke="black" cx="1393.3" cy="-453" rx="33.2948" ry="18"/>
<text text-anchor="middle" x="1393.3" y="-449.3" font-family="Times New Roman,serif" font-size="14.00">Pillow</text>
</g>
<!-- Pillow&#45;&gt;Feather -->
<g id="edge27" class="edge"><title>Pillow&#45;&gt;Feather</title>
<path fill="none" stroke="black" d="M1393.3,-434.799C1393.3,-423.163 1393.3,-407.548 1393.3,-394.237"/>
<polygon fill="black" stroke="black" points="1396.8,-394.175 1393.3,-384.175 1389.8,-394.175 1396.8,-394.175"/>
<text text-anchor="middle" x="1421.3" y="-405.8" font-family="Times New Roman,serif" font-size="14.00">Crafting 0</text>
</g>
<!-- Bone -->
<g id="node24" class="node"><title>Bone</title>
<ellipse fill="none" stroke="black" cx="766.298" cy="-366" rx="29.795" ry="18"/>
<text text-anchor="middle" x="766.298" y="-362.3" font-family="Times New Roman,serif" font-size="14.00">Bone</text>
</g>
<!-- Bone&#45;&gt;Pouch_Dust_Bone -->
<g id="edge28" class="edge"><title>Bone&#45;&gt;Pouch_Dust_Bone</title>
<path fill="none" stroke="black" d="M766.298,-347.799C766.298,-336.163 766.298,-320.548 766.298,-307.237"/>
<polygon fill="black" stroke="black" points="769.798,-307.175 766.298,-297.175 762.798,-307.175 769.798,-307.175"/>
<text text-anchor="middle" x="794.298" y="-318.8" font-family="Times New Roman,serif" font-size="14.00">Crafting 0</text>
</g>
<!-- Ink_Pot -->
<g id="node25" class="node"><title>Ink_Pot</title>
<ellipse fill="none" stroke="black" cx="1259.3" cy="-279" rx="40.0939" ry="18"/>
<text text-anchor="middle" x="1259.3" y="-275.3" font-family="Times New Roman,serif" font-size="14.00">Ink_Pot</text>
</g>
<!-- Ink_Pot&#45;&gt;Ink_Pot_A_Quill -->
<g id="edge29" class="edge"><title>Ink_Pot&#45;&gt;Ink_Pot_A_Quill</title>
<path fill="none" stroke="black" d="M1259.3,-260.799C1259.3,-249.163 1259.3,-233.548 1259.3,-220.237"/>
<polygon fill="black" stroke="black" points="1262.8,-220.175 1259.3,-210.175 1255.8,-220.175 1262.8,-220.175"/>
<text text-anchor="middle" x="1287.3" y="-231.8" font-family="Times New Roman,serif" font-size="14.00">Crafting 0</text>
</g>
<!-- Scraps_Wood&#45;&gt;Scraps_Wood_A_Mush -->
<g id="edge30" class="edge"><title>Scraps_Wood&#45;&gt;Scraps_Wood_A_Mush</title>
<path fill="none" stroke="black" d="M483.635,-350.388C452.601,-336.504 405.675,-315.511 371.144,-300.063"/>
<polygon fill="black" stroke="black" points="372.314,-296.752 361.757,-295.863 369.455,-303.142 372.314,-296.752"/>
<text text-anchor="middle" x="461.298" y="-318.8" font-family="Times New Roman,serif" font-size="14.00">Crafting 0</text>
</g>
<!-- Dagger -->
<g id="node27" class="node"><title>Dagger</title>
<ellipse fill="none" stroke="black" cx="1512.3" cy="-453" rx="36.2938" ry="18"/>
<text text-anchor="middle" x="1512.3" y="-449.3" font-family="Times New Roman,serif" font-size="14.00">Dagger</text>
</g>
<!-- Dagger&#45;&gt;Feather -->
<g id="edge32" class="edge"><title>Dagger&#45;&gt;Feather</title>
<path fill="none" stroke="black" d="M1494.86,-436.938C1482.69,-426.674 1465.89,-413.005 1450.3,-402 1442.36,-396.394 1433.51,-390.711 1425.21,-385.601"/>
<polygon fill="black" stroke="black" points="1426.84,-382.499 1416.47,-380.313 1423.21,-388.487 1426.84,-382.499"/>
<text text-anchor="middle" x="1497.3" y="-405.8" font-family="Times New Roman,serif" font-size="14.00">Crafting 0</text>
</g>
<!-- Dagger&#45;&gt;Feather_A_Quill -->
<g id="edge31" class="edge"><title>Dagger&#45;&gt;Feather_A_Quill</title>
<path fill="none" stroke="black" d="M1523.69,-435.676C1529.11,-425.852 1533.56,-413.132 1529.3,-402 1511.55,-355.615 1464.5,-320.744 1430.04,-300.407"/>
<polygon fill="black" stroke="black" points="1431.55,-297.239 1421.14,-295.305 1428.07,-303.313 1431.55,-297.239"/>
<text text-anchor="middle" x="1547.3" y="-362.3" font-family="Times New Roman,serif" font-size="14.00">Crafting 0</text>
</g>
<!-- Ink_Pot_A_Quill&#45;&gt;Ink_Pot_A_Quill_A_Magic -->
<g id="edge33" class="edge"><title>Ink_Pot_A_Quill&#45;&gt;Ink_Pot_A_Quill_A_Magic</title>
<path fill="none" stroke="black" d="M1225.41,-175.999C1194.22,-162.19 1147.69,-141.591 1113.18,-126.311"/>
<polygon fill="black" stroke="black" points="1114.34,-123 1103.78,-122.152 1111.51,-129.401 1114.34,-123"/>
<text text-anchor="middle" x="1202.3" y="-144.8" font-family="Times New Roman,serif" font-size="14.00">Crafting 1</text>
</g>
<!-- Oven -->
<g id="node29" class="node"><title>Oven</title>
<ellipse fill="none" stroke="black" cx="177.298" cy="-279" rx="30.5947" ry="18"/>
<text text-anchor="middle" x="177.298" y="-275.3" font-family="Times New Roman,serif" font-size="14.00">Oven</text>
</g>
<!-- Oven&#45;&gt;BOOK_Paper_Sheet -->
<g id="edge34" class="edge"><title>Oven&#45;&gt;BOOK_Paper_Sheet</title>
<path fill="none" stroke="black" d="M198.646,-265.822C222.244,-252.359 260.688,-230.428 289.23,-214.146"/>
<polygon fill="black" stroke="black" points="291.165,-217.071 298.117,-209.076 287.697,-210.991 291.165,-217.071"/>
<text text-anchor="middle" x="289.298" y="-231.8" font-family="Times New Roman,serif" font-size="14.00">Crafting 0</text>
</g>
<!-- MortarPestle -->
<g id="node30" class="node"><title>MortarPestle</title>
<ellipse fill="none" stroke="black" cx="1023.3" cy="-366" rx="57.3905" ry="18"/>
<text text-anchor="middle" x="1023.3" y="-362.3" font-family="Times New Roman,serif" font-size="14.00">MortarPestle</text>
</g>
<!-- MortarPestle&#45;&gt;Pouch_Dust_Bone -->
<g id="edge35" class="edge"><title>MortarPestle&#45;&gt;Pouch_Dust_Bone</title>
<path fill="none" stroke="black" d="M987.179,-351.99C972.512,-346.098 955.671,-338.535 941.298,-330 932.047,-324.507 932.011,-319.626 922.298,-315 913.959,-311.028 872.118,-301.725 833.868,-293.708"/>
<polygon fill="black" stroke="black" points="834.23,-290.208 823.726,-291.594 832.802,-297.061 834.23,-290.208"/>
<text text-anchor="middle" x="969.298" y="-318.8" font-family="Times New Roman,serif" font-size="14.00">Crafting 0</text>
</g>
<!-- MortarPestle&#45;&gt;Pouch_Dust_Moon -->
<g id="edge37" class="edge"><title>MortarPestle&#45;&gt;Pouch_Dust_Moon</title>
<path fill="none" stroke="black" d="M1018.52,-347.882C1015.01,-337.529 1009.41,-324.533 1001.3,-315 997.116,-310.087 992.073,-305.609 986.77,-301.62"/>
<polygon fill="black" stroke="black" points="988.524,-298.578 978.309,-295.763 984.539,-304.333 988.524,-298.578"/>
<text text-anchor="middle" x="1038.3" y="-318.8" font-family="Times New Roman,serif" font-size="14.00">Crafting 0</text>
</g>
<!-- MortarPestle&#45;&gt;Pouch_Dust_Star -->
<g id="edge36" class="edge"><title>MortarPestle&#45;&gt;Pouch_Dust_Star</title>
<path fill="none" stroke="black" d="M1045.67,-349.094C1053.59,-343.267 1062.47,-336.504 1070.3,-330 1080.28,-321.705 1090.84,-312.122 1099.95,-303.579"/>
<polygon fill="black" stroke="black" points="1102.36,-306.115 1107.21,-296.698 1097.55,-301.032 1102.36,-306.115"/>
<text text-anchor="middle" x="1114.3" y="-318.8" font-family="Times New Roman,serif" font-size="14.00">Crafting 0</text>
</g>
</g>
</svg>
