<?xml version="1.0" encoding="UTF-8" standalone="no"?>
<!DOCTYPE svg PUBLIC "-//W3C//DTD SVG 1.1//EN"
 "http://www.w3.org/Graphics/SVG/1.1/DTD/svg11.dtd">
<!-- Generated by graphviz version 2.38.0 (20140413.2041)
 -->
<!-- Title: G Pages: 1 -->
<svg width="1585pt" height="479pt"
 viewBox="0.00 0.00 1584.74 479.00" xmlns="http://www.w3.org/2000/svg" xmlns:xlink="http://www.w3.org/1999/xlink">
<g id="graph0" class="graph" transform="scale(1 1) rotate(0) translate(4 475)">
<title>G</title>
<polygon fill="white" stroke="none" points="-4,4 -4,-475 1580.74,-475 1580.74,4 -4,4"/>
<!-- Log -->
<g id="node1" class="node"><title>Log</title>
<ellipse fill="none" stroke="black" cx="1444.4" cy="-453" rx="27" ry="18"/>
<text text-anchor="middle" x="1444.4" y="-449.3" font-family="Times New Roman,serif" font-size="14.00">Log</text>
</g>
<!-- Scraps_Wood -->
<g id="node26" class="node"><title>Scraps_Wood</title>
<ellipse fill="none" stroke="black" cx="1512.4" cy="-366" rx="64.189" ry="18"/>
<text text-anchor="middle" x="1512.4" y="-362.3" font-family="Times New Roman,serif" font-size="14.00">Scraps_Wood</text>
</g>
<!-- Log&#45;&gt;Scraps_Wood -->
<g id="edge1" class="edge"><title>Log&#45;&gt;Scraps_Wood</title>
<path fill="none" stroke="black" d="M1445.69,-434.909C1447.19,-424.566 1450.43,-411.572 1457.4,-402 1461.42,-396.467 1466.62,-391.595 1472.2,-387.38"/>
<polygon fill="black" stroke="black" points="1474.28,-390.2 1480.57,-381.676 1470.34,-384.415 1474.28,-390.2"/>
<text text-anchor="middle" x="1485.4" y="-405.8" font-family="Times New Roman,serif" font-size="14.00">Crafting 0</text>
</g>
<!-- Scraps_Wood_A_Mush -->
<g id="node2" class="node"><title>Scraps_Wood_A_Mush</title>
<ellipse fill="none" stroke="black" cx="1188.4" cy="-279" rx="100.983" ry="18"/>
<text text-anchor="middle" x="1188.4" y="-275.3" font-family="Times New Roman,serif" font-size="14.00">Scraps_Wood_A_Mush</text>
</g>
<!-- BOOK_Paper_Sheet -->
<g id="node9" class="node"><title>BOOK_Paper_Sheet</title>
<ellipse fill="none" stroke="black" cx="1024.4" cy="-192" rx="87.1846" ry="18"/>
<text text-anchor="middle" x="1024.4" y="-188.3" font-family="Times New Roman,serif" font-size="14.00">BOOK_Paper_Sheet</text>
</g>
<!-- Scraps_Wood_A_Mush&#45;&gt;BOOK_Paper_Sheet -->
<g id="edge2" class="edge"><title>Scraps_Wood_A_Mush&#45;&gt;BOOK_Paper_Sheet</title>
<path fill="none" stroke="black" d="M1157.16,-261.812C1130.75,-248.121 1092.74,-228.424 1064.16,-213.608"/>
<polygon fill="black" stroke="black" points="1065.72,-210.478 1055.24,-208.984 1062.5,-216.693 1065.72,-210.478"/>
<text text-anchor="middle" x="1144.4" y="-231.8" font-family="Times New Roman,serif" font-size="14.00">Crafting 0</text>
</g>
<!-- Pouch_Dust_Bone -->
<g id="node3" class="node"><title>Pouch_Dust_Bone</title>
<ellipse fill="none" stroke="black" cx="513.397" cy="-279" rx="79.8859" ry="18"/>
<text text-anchor="middle" x="513.397" y="-275.3" font-family="Times New Roman,serif" font-size="14.00">Pouch_Dust_Bone</text>
</g>
<!-- Pouch_Dust_Pixie -->
<g id="node14" class="node"><title>Pouch_Dust_Pixie</title>
<ellipse fill="none" stroke="black" cx="694.397" cy="-192" rx="78.7863" ry="18"/>
<text text-anchor="middle" x="694.397" y="-188.3" font-family="Times New Roman,serif" font-size="14.00">Pouch_Dust_Pixie</text>
</g>
<!-- Pouch_Dust_Bone&#45;&gt;Pouch_Dust_Pixie -->
<g id="edge3" class="edge"><title>Pouch_Dust_Bone&#45;&gt;Pouch_Dust_Pixie</title>
<path fill="none" stroke="black" d="M546.595,-262.41C576.319,-248.451 620.053,-227.913 652.24,-212.798"/>
<polygon fill="black" stroke="black" points="653.845,-215.91 661.409,-208.491 650.87,-209.574 653.845,-215.91"/>
<text text-anchor="middle" x="643.397" y="-231.8" font-family="Times New Roman,serif" font-size="14.00">Crafting 0</text>
</g>
<!-- Bucket_A_Water -->
<g id="node4" class="node"><title>Bucket_A_Water</title>
<ellipse fill="none" stroke="black" cx="1260.4" cy="-366" rx="74.187" ry="18"/>
<text text-anchor="middle" x="1260.4" y="-362.3" font-family="Times New Roman,serif" font-size="14.00">Bucket_A_Water</text>
</g>
<!-- Bucket_A_Water&#45;&gt;Scraps_Wood_A_Mush -->
<g id="edge4" class="edge"><title>Bucket_A_Water&#45;&gt;Scraps_Wood_A_Mush</title>
<path fill="none" stroke="black" d="M1246.17,-348.207C1235.69,-335.831 1221.26,-318.796 1209.44,-304.847"/>
<polygon fill="black" stroke="black" points="1211.97,-302.418 1202.84,-297.049 1206.63,-306.942 1211.97,-302.418"/>
<text text-anchor="middle" x="1257.4" y="-318.8" font-family="Times New Roman,serif" font-size="14.00">Crafting 0</text>
</g>
<!-- Herb_Stardust -->
<g id="node5" class="node"><title>Herb_Stardust</title>
<ellipse fill="none" stroke="black" cx="908.397" cy="-366" rx="63.8893" ry="18"/>
<text text-anchor="middle" x="908.397" y="-362.3" font-family="Times New Roman,serif" font-size="14.00">Herb_Stardust</text>
</g>
<!-- Pouch_Dust_Star -->
<g id="node19" class="node"><title>Pouch_Dust_Star</title>
<ellipse fill="none" stroke="black" cx="871.397" cy="-279" rx="75.2868" ry="18"/>
<text text-anchor="middle" x="871.397" y="-275.3" font-family="Times New Roman,serif" font-size="14.00">Pouch_Dust_Star</text>
</g>
<!-- Herb_Stardust&#45;&gt;Pouch_Dust_Star -->
<g id="edge5" class="edge"><title>Herb_Stardust&#45;&gt;Pouch_Dust_Star</title>
<path fill="none" stroke="black" d="M900.909,-347.799C895.744,-335.932 888.777,-319.928 882.91,-306.449"/>
<polygon fill="black" stroke="black" points="886.074,-304.947 878.873,-297.175 879.655,-307.741 886.074,-304.947"/>
<text text-anchor="middle" x="920.397" y="-318.8" font-family="Times New Roman,serif" font-size="14.00">Crafting 0</text>
</g>
<!-- Feather -->
<g id="node6" class="node"><title>Feather</title>
<ellipse fill="none" stroke="black" cx="174.397" cy="-366" rx="37.8943" ry="18"/>
<text text-anchor="middle" x="174.397" y="-362.3" font-family="Times New Roman,serif" font-size="14.00">Feather</text>
</g>
<!-- Feather_A_Quill -->
<g id="node17" class="node"><title>Feather_A_Quill</title>
<ellipse fill="none" stroke="black" cx="208.397" cy="-279" rx="70.6878" ry="18"/>
<text text-anchor="middle" x="208.397" y="-275.3" font-family="Times New Roman,serif" font-size="14.00">Feather_A_Quill</text>
</g>
<!-- Feather&#45;&gt;Feather_A_Quill -->
<g id="edge6" class="edge"><title>Feather&#45;&gt;Feather_A_Quill</title>
<path fill="none" stroke="black" d="M181.114,-348.207C185.879,-336.293 192.371,-320.063 197.827,-306.424"/>
<polygon fill="black" stroke="black" points="201.113,-307.634 201.577,-297.049 194.613,-305.034 201.113,-307.634"/>
<text text-anchor="middle" x="222.397" y="-318.8" font-family="Times New Roman,serif" font-size="14.00">Crafting 0</text>
</g>
<!-- Knife -->
<g id="node7" class="node"><title>Knife</title>
<ellipse fill="none" stroke="black" cx="252.397" cy="-453" rx="30.5947" ry="18"/>
<text text-anchor="middle" x="252.397" y="-449.3" font-family="Times New Roman,serif" font-size="14.00">Knife</text>
</g>
<!-- Knife&#45;&gt;Feather -->
<g id="edge8" class="edge"><title>Knife&#45;&gt;Feather</title>
<path fill="none" stroke="black" d="M236.64,-437.345C230.216,-431.201 222.808,-423.894 216.397,-417 208.754,-408.781 200.741,-399.441 193.788,-391.077"/>
<polygon fill="black" stroke="black" points="196.295,-388.616 187.24,-383.115 190.889,-393.062 196.295,-388.616"/>
<text text-anchor="middle" x="244.397" y="-405.8" font-family="Times New Roman,serif" font-size="14.00">Crafting 0</text>
</g>
<!-- Knife&#45;&gt;Feather_A_Quill -->
<g id="edge7" class="edge"><title>Knife&#45;&gt;Feather_A_Quill</title>
<path fill="none" stroke="black" d="M263.836,-436.035C267.293,-430.311 270.636,-423.629 272.397,-417 280.914,-384.927 279.493,-354.834 254.397,-315 251.455,-310.33 247.654,-306.052 243.498,-302.211"/>
<polygon fill="black" stroke="black" points="245.677,-299.471 235.745,-295.783 241.209,-304.86 245.677,-299.471"/>
<text text-anchor="middle" x="305.397" y="-362.3" font-family="Times New Roman,serif" font-size="14.00">Crafting 0</text>
</g>
<!-- Pouch_Dust_Moon -->
<g id="node8" class="node"><title>Pouch_Dust_Moon</title>
<ellipse fill="none" stroke="black" cx="694.397" cy="-279" rx="83.3857" ry="18"/>
<text text-anchor="middle" x="694.397" y="-275.3" font-family="Times New Roman,serif" font-size="14.00">Pouch_Dust_Moon</text>
</g>
<!-- Pouch_Dust_Moon&#45;&gt;Pouch_Dust_Pixie -->
<g id="edge9" class="edge"><title>Pouch_Dust_Moon&#45;&gt;Pouch_Dust_Pixie</title>
<path fill="none" stroke="black" d="M694.397,-260.799C694.397,-249.163 694.397,-233.548 694.397,-220.237"/>
<polygon fill="black" stroke="black" points="697.897,-220.175 694.397,-210.175 690.897,-220.175 697.897,-220.175"/>
<text text-anchor="middle" x="722.397" y="-231.8" font-family="Times New Roman,serif" font-size="14.00">Crafting 0</text>
</g>
<!-- Scroll_Skill_Water_Blank -->
<g id="node20" class="node"><title>Scroll_Skill_Water_Blank</title>
<ellipse fill="none" stroke="black" cx="820.397" cy="-105" rx="104.782" ry="18"/>
<text text-anchor="middle" x="820.397" y="-101.3" font-family="Times New Roman,serif" font-size="14.00">Scroll_Skill_Water_Blank</text>
</g>
<!-- BOOK_Paper_Sheet&#45;&gt;Scroll_Skill_Water_Blank -->
<g id="edge10" class="edge"><title>BOOK_Paper_Sheet&#45;&gt;Scroll_Skill_Water_Blank</title>
<path fill="none" stroke="black" d="M987.454,-175.607C953.937,-161.642 904.334,-140.974 867.884,-125.786"/>
<polygon fill="black" stroke="black" points="869.025,-122.47 858.448,-121.855 866.333,-128.932 869.025,-122.47"/>
<text text-anchor="middle" x="963.397" y="-144.8" font-family="Times New Roman,serif" font-size="14.00">Crafting 1</text>
</g>
<!-- SCROLL_Winterbreath -->
<g id="node10" class="node"><title>SCROLL_Winterbreath</title>
<ellipse fill="none" stroke="black" cx="722.397" cy="-18" rx="98.2828" ry="18"/>
<text text-anchor="middle" x="722.397" y="-14.3" font-family="Times New Roman,serif" font-size="14.00">SCROLL_Winterbreath</text>
</g>
<!-- Well_A_Snow -->
<g id="node11" class="node"><title>Well_A_Snow</title>
<ellipse fill="none" stroke="black" cx="1240.4" cy="-453" rx="64.189" ry="18"/>
<text text-anchor="middle" x="1240.4" y="-449.3" font-family="Times New Roman,serif" font-size="14.00">Well_A_Snow</text>
</g>
<!-- Well_A_Snow&#45;&gt;Scraps_Wood_A_Mush -->
<g id="edge11" class="edge"><title>Well_A_Snow&#45;&gt;Scraps_Wood_A_Mush</title>
<path fill="none" stroke="black" d="M1192.56,-440.901C1176.18,-435.526 1158.46,-427.818 1144.4,-417 1130.23,-406.098 1126.75,-401.056 1121.4,-384 1116.6,-368.735 1115.33,-362.805 1121.4,-348 1128.65,-330.31 1142.97,-314.754 1156.52,-303.002"/>
<polygon fill="black" stroke="black" points="1158.86,-305.603 1164.34,-296.535 1154.4,-300.206 1158.86,-305.603"/>
<text text-anchor="middle" x="1149.4" y="-362.3" font-family="Times New Roman,serif" font-size="14.00">Crafting 0</text>
</g>
<!-- Well_A_Snow&#45;&gt;Bucket_A_Water -->
<g id="edge12" class="edge"><title>Well_A_Snow&#45;&gt;Bucket_A_Water</title>
<path fill="none" stroke="black" d="M1229.57,-435.038C1224.71,-425.217 1220.96,-412.717 1225.4,-402 1227.02,-398.07 1229.33,-394.351 1231.99,-390.909"/>
<polygon fill="black" stroke="black" points="1234.64,-393.197 1238.7,-383.41 1229.42,-388.531 1234.64,-393.197"/>
<text text-anchor="middle" x="1253.4" y="-405.8" font-family="Times New Roman,serif" font-size="14.00">Crafting 0</text>
</g>
<!-- Ink_Pot_A_Quill_A_Magic -->
<g id="node12" class="node"><title>Ink_Pot_A_Quill_A_Magic</title>
<ellipse fill="none" stroke="black" cx="586.397" cy="-105" rx="111.581" ry="18"/>
<text text-anchor="middle" x="586.397" y="-101.3" font-family="Times New Roman,serif" font-size="14.00">Ink_Pot_A_Quill_A_Magic</text>
</g>
<!-- Ink_Pot_A_Quill_A_Magic&#45;&gt;SCROLL_Winterbreath -->
<g id="edge13" class="edge"><title>Ink_Pot_A_Quill_A_Magic&#45;&gt;SCROLL_Winterbreath</title>
<path fill="none" stroke="black" d="M612.942,-87.4094C634.191,-74.1288 664.173,-55.39 687.386,-40.8818"/>
<polygon fill="black" stroke="black" points="689.294,-43.8168 695.919,-35.5488 685.584,-37.8808 689.294,-43.8168"/>
<text text-anchor="middle" x="691.397" y="-57.8" font-family="Times New Roman,serif" font-size="14.00">Crafting 5</text>
</g>
<!-- Skull_Human -->
<g id="node13" class="node"><title>Skull_Human</title>
<ellipse fill="none" stroke="black" cx="420.397" cy="-366" rx="59.5901" ry="18"/>
<text text-anchor="middle" x="420.397" y="-362.3" font-family="Times New Roman,serif" font-size="14.00">Skull_Human</text>
</g>
<!-- Skull_Human&#45;&gt;Pouch_Dust_Bone -->
<g id="edge14" class="edge"><title>Skull_Human&#45;&gt;Pouch_Dust_Bone</title>
<path fill="none" stroke="black" d="M429.104,-347.813C434.962,-337.434 443.424,-324.436 453.397,-315 458.877,-309.815 465.262,-305.073 471.783,-300.869"/>
<polygon fill="black" stroke="black" points="473.945,-303.651 480.686,-295.477 470.319,-297.664 473.945,-303.651"/>
<text text-anchor="middle" x="481.397" y="-318.8" font-family="Times New Roman,serif" font-size="14.00">Crafting 0</text>
</g>
<!-- Pouch_Dust_Pixie&#45;&gt;Ink_Pot_A_Quill_A_Magic -->
<g id="edge15" class="edge"><title>Pouch_Dust_Pixie&#45;&gt;Ink_Pot_A_Quill_A_Magic</title>
<path fill="none" stroke="black" d="M673.573,-174.611C657.202,-161.726 634.187,-143.613 615.916,-129.233"/>
<polygon fill="black" stroke="black" points="617.918,-126.355 607.896,-122.92 613.589,-131.855 617.918,-126.355"/>
<text text-anchor="middle" x="675.397" y="-144.8" font-family="Times New Roman,serif" font-size="14.00">Crafting 1</text>
</g>
<!-- Pouch_Dust_Pixie&#45;&gt;Scroll_Skill_Water_Blank -->
<g id="edge16" class="edge"><title>Pouch_Dust_Pixie&#45;&gt;Scroll_Skill_Water_Blank</title>
<path fill="none" stroke="black" d="M718.393,-174.812C737.847,-161.688 765.482,-143.046 787.082,-128.474"/>
<polygon fill="black" stroke="black" points="789.296,-131.202 795.629,-122.708 785.382,-125.399 789.296,-131.202"/>
<text text-anchor="middle" x="793.397" y="-144.8" font-family="Times New Roman,serif" font-size="14.00">Crafting 1</text>
</g>
<!-- Bucket -->
<g id="node15" class="node"><title>Bucket</title>
<ellipse fill="none" stroke="black" cx="1121.4" cy="-453" rx="36.2938" ry="18"/>
<text text-anchor="middle" x="1121.4" y="-449.3" font-family="Times New Roman,serif" font-size="14.00">Bucket</text>
</g>
<!-- Bucket&#45;&gt;Bucket_A_Water -->
<g id="edge17" class="edge"><title>Bucket&#45;&gt;Bucket_A_Water</title>
<path fill="none" stroke="black" d="M1132.1,-435.652C1139.92,-424.814 1151.4,-410.987 1164.4,-402 1175.56,-394.281 1188.62,-388.049 1201.45,-383.106"/>
<polygon fill="black" stroke="black" points="1202.98,-386.276 1211.19,-379.574 1200.59,-379.696 1202.98,-386.276"/>
<text text-anchor="middle" x="1192.4" y="-405.8" font-family="Times New Roman,serif" font-size="14.00">Crafting 0</text>
</g>
<!-- Well -->
<g id="node16" class="node"><title>Well</title>
<ellipse fill="none" stroke="black" cx="1029.4" cy="-453" rx="27.0966" ry="18"/>
<text text-anchor="middle" x="1029.4" y="-449.3" font-family="Times New Roman,serif" font-size="14.00">Well</text>
</g>
<!-- Well&#45;&gt;Scraps_Wood_A_Mush -->
<g id="edge18" class="edge"><title>Well&#45;&gt;Scraps_Wood_A_Mush</title>
<path fill="none" stroke="black" d="M1029.9,-434.627C1031.4,-412.285 1037,-373.35 1057.4,-348 1075.7,-325.251 1103.66,-309.281 1129.06,-298.563"/>
<polygon fill="black" stroke="black" points="1130.67,-301.688 1138.64,-294.709 1128.06,-295.194 1130.67,-301.688"/>
<text text-anchor="middle" x="1085.4" y="-362.3" font-family="Times New Roman,serif" font-size="14.00">Crafting 0</text>
</g>
<!-- Well&#45;&gt;Bucket_A_Water -->
<g id="edge19" class="edge"><title>Well&#45;&gt;Bucket_A_Water</title>
<path fill="none" stroke="black" d="M1042.95,-436.98C1054.05,-425.619 1070.76,-410.56 1088.4,-402 1090.92,-400.777 1147.29,-389.412 1194.81,-379.959"/>
<polygon fill="black" stroke="black" points="1195.67,-383.357 1204.8,-377.976 1194.31,-376.491 1195.67,-383.357"/>
<text text-anchor="middle" x="1116.4" y="-405.8" font-family="Times New Roman,serif" font-size="14.00">Crafting 0</text>
</g>
<!-- Ink_Pot_A_Quill -->
<g id="node28" class="node"><title>Ink_Pot_A_Quill</title>
<ellipse fill="none" stroke="black" cx="362.397" cy="-192" rx="73.387" ry="18"/>
<text text-anchor="middle" x="362.397" y="-188.3" font-family="Times New Roman,serif" font-size="14.00">Ink_Pot_A_Quill</text>
</g>
<!-- Feather_A_Quill&#45;&gt;Ink_Pot_A_Quill -->
<g id="edge20" class="edge"><title>Feather_A_Quill&#45;&gt;Ink_Pot_A_Quill</title>
<path fill="none" stroke="black" d="M236.643,-262.41C261.529,-248.674 297.958,-228.567 325.21,-213.525"/>
<polygon fill="black" stroke="black" points="327.006,-216.532 334.07,-208.635 323.623,-210.403 327.006,-216.532"/>
<text text-anchor="middle" x="323.397" y="-231.8" font-family="Times New Roman,serif" font-size="14.00">Crafting 0</text>
</g>
<!-- Moonstone -->
<g id="node18" class="node"><title>Moonstone</title>
<ellipse fill="none" stroke="black" cx="642.397" cy="-366" rx="51.9908" ry="18"/>
<text text-anchor="middle" x="642.397" y="-362.3" font-family="Times New Roman,serif" font-size="14.00">Moonstone</text>
</g>
<!-- Moonstone&#45;&gt;Pouch_Dust_Moon -->
<g id="edge21" class="edge"><title>Moonstone&#45;&gt;Pouch_Dust_Moon</title>
<path fill="none" stroke="black" d="M652.311,-348.281C658.115,-338.541 665.615,-326.041 672.397,-315 674.256,-311.973 676.219,-308.808 678.176,-305.671"/>
<polygon fill="black" stroke="black" points="681.237,-307.377 683.583,-297.046 675.306,-303.659 681.237,-307.377"/>
<text text-anchor="middle" x="700.397" y="-318.8" font-family="Times New Roman,serif" font-size="14.00">Crafting 0</text>
</g>
<!-- Pouch_Dust_Star&#45;&gt;Pouch_Dust_Pixie -->
<g id="edge22" class="edge"><title>Pouch_Dust_Star&#45;&gt;Pouch_Dust_Pixie</title>
<path fill="none" stroke="black" d="M839.343,-262.607C810.453,-248.733 767.789,-228.245 736.222,-213.086"/>
<polygon fill="black" stroke="black" points="737.339,-209.74 726.81,-208.566 734.309,-216.05 737.339,-209.74"/>
<text text-anchor="middle" x="822.397" y="-231.8" font-family="Times New Roman,serif" font-size="14.00">Crafting 0</text>
</g>
<!-- Scroll_Skill_Water_Blank&#45;&gt;SCROLL_Winterbreath -->
<g id="edge23" class="edge"><title>Scroll_Skill_Water_Blank&#45;&gt;SCROLL_Winterbreath</title>
<path fill="none" stroke="black" d="M801.035,-87.2067C786.27,-74.4006 765.755,-56.6066 749.381,-42.4043"/>
<polygon fill="black" stroke="black" points="751.566,-39.6666 741.718,-35.7584 746.979,-44.9547 751.566,-39.6666"/>
<text text-anchor="middle" x="805.397" y="-57.8" font-family="Times New Roman,serif" font-size="14.00">Crafting 5</text>
</g>
<!-- Axe -->
<g id="node21" class="node"><title>Axe</title>
<ellipse fill="none" stroke="black" cx="1523.4" cy="-453" rx="27" ry="18"/>
<text text-anchor="middle" x="1523.4" y="-449.3" font-family="Times New Roman,serif" font-size="14.00">Axe</text>
</g>
<!-- Axe&#45;&gt;Scraps_Wood -->
<g id="edge24" class="edge"><title>Axe&#45;&gt;Scraps_Wood</title>
<path fill="none" stroke="black" d="M1521.17,-434.799C1519.66,-423.163 1517.64,-407.548 1515.92,-394.237"/>
<polygon fill="black" stroke="black" points="1519.37,-393.644 1514.62,-384.175 1512.43,-394.542 1519.37,-393.644"/>
<text text-anchor="middle" x="1547.4" y="-405.8" font-family="Times New Roman,serif" font-size="14.00">Crafting 0</text>
</g>
<!-- Barrel -->
<g id="node22" class="node"><title>Barrel</title>
<ellipse fill="none" stroke="black" cx="1359.4" cy="-453" rx="32.4942" ry="18"/>
<text text-anchor="middle" x="1359.4" y="-449.3" font-family="Times New Roman,serif" font-size="14.00">Barrel</text>
</g>
<!-- Barrel&#45;&gt;Scraps_Wood_A_Mush -->
<g id="edge25" class="edge"><title>Barrel&#45;&gt;Scraps_Wood_A_Mush</title>
<path fill="none" stroke="black" d="M1361.52,-434.917C1363.33,-412.536 1363.09,-373.184 1343.4,-348 1323.39,-322.419 1291.78,-306.252 1262.3,-296.138"/>
<polygon fill="black" stroke="black" points="1263,-292.685 1252.41,-292.935 1260.84,-299.345 1263,-292.685"/>
<text text-anchor="middle" x="1387.4" y="-362.3" font-family="Times New Roman,serif" font-size="14.00">Crafting 0</text>
</g>
<!-- Barrel&#45;&gt;Bucket_A_Water -->
<g id="edge26" class="edge"><title>Barrel&#45;&gt;Bucket_A_Water</title>
<path fill="none" stroke="black" d="M1336.99,-439.706C1326.6,-433.524 1314.37,-425.537 1304.4,-417 1295.61,-409.479 1286.97,-400.201 1279.71,-391.688"/>
<polygon fill="black" stroke="black" points="1282.28,-389.308 1273.2,-383.843 1276.89,-393.775 1282.28,-389.308"/>
<text text-anchor="middle" x="1332.4" y="-405.8" font-family="Times New Roman,serif" font-size="14.00">Crafting 0</text>
</g>
<!-- Pillow -->
<g id="node23" class="node"><title>Pillow</title>
<ellipse fill="none" stroke="black" cx="136.397" cy="-453" rx="33.2948" ry="18"/>
<text text-anchor="middle" x="136.397" y="-449.3" font-family="Times New Roman,serif" font-size="14.00">Pillow</text>
</g>
<!-- Pillow&#45;&gt;Feather -->
<g id="edge27" class="edge"><title>Pillow&#45;&gt;Feather</title>
<path fill="none" stroke="black" d="M133.524,-434.622C132.65,-424.663 132.9,-412.163 137.397,-402 139.577,-397.073 142.816,-392.508 146.486,-388.412"/>
<polygon fill="black" stroke="black" points="149.213,-390.64 153.909,-381.143 144.316,-385.639 149.213,-390.64"/>
<text text-anchor="middle" x="165.397" y="-405.8" font-family="Times New Roman,serif" font-size="14.00">Crafting 0</text>
</g>
<!-- Bone -->
<g id="node24" class="node"><title>Bone</title>
<ellipse fill="none" stroke="black" cx="528.397" cy="-366" rx="29.795" ry="18"/>
<text text-anchor="middle" x="528.397" y="-362.3" font-family="Times New Roman,serif" font-size="14.00">Bone</text>
</g>
<!-- Bone&#45;&gt;Pouch_Dust_Bone -->
<g id="edge28" class="edge"><title>Bone&#45;&gt;Pouch_Dust_Bone</title>
<path fill="none" stroke="black" d="M520.439,-348.643C518.023,-342.888 515.673,-336.285 514.397,-330 512.935,-322.797 512.33,-314.89 512.176,-307.532"/>
<polygon fill="black" stroke="black" points="515.677,-307.308 512.225,-297.292 508.677,-307.275 515.677,-307.308"/>
<text text-anchor="middle" x="542.397" y="-318.8" font-family="Times New Roman,serif" font-size="14.00">Crafting 0</text>
</g>
<!-- Ink_Pot -->
<g id="node25" class="node"><title>Ink_Pot</title>
<ellipse fill="none" stroke="black" cx="362.397" cy="-279" rx="40.0939" ry="18"/>
<text text-anchor="middle" x="362.397" y="-275.3" font-family="Times New Roman,serif" font-size="14.00">Ink_Pot</text>
</g>
<!-- Ink_Pot&#45;&gt;Ink_Pot_A_Quill -->
<g id="edge29" class="edge"><title>Ink_Pot&#45;&gt;Ink_Pot_A_Quill</title>
<path fill="none" stroke="black" d="M362.397,-260.799C362.397,-249.163 362.397,-233.548 362.397,-220.237"/>
<polygon fill="black" stroke="black" points="365.897,-220.175 362.397,-210.175 358.897,-220.175 365.897,-220.175"/>
<text text-anchor="middle" x="390.397" y="-231.8" font-family="Times New Roman,serif" font-size="14.00">Crafting 0</text>
</g>
<!-- Scraps_Wood&#45;&gt;Scraps_Wood_A_Mush -->
<g id="edge30" class="edge"><title>Scraps_Wood&#45;&gt;Scraps_Wood_A_Mush</title>
<path fill="none" stroke="black" d="M1480.93,-350.166C1456.24,-339.058 1420.76,-324.245 1388.4,-315 1352.92,-304.865 1313.02,-297.167 1278.25,-291.607"/>
<polygon fill="black" stroke="black" points="1278.53,-288.109 1268.11,-290.023 1277.45,-295.025 1278.53,-288.109"/>
<text text-anchor="middle" x="1458.4" y="-318.8" font-family="Times New Roman,serif" font-size="14.00">Crafting 0</text>
</g>
<!-- Dagger -->
<g id="node27" class="node"><title>Dagger</title>
<ellipse fill="none" stroke="black" cx="36.3968" cy="-453" rx="36.2938" ry="18"/>
<text text-anchor="middle" x="36.3968" y="-449.3" font-family="Times New Roman,serif" font-size="14.00">Dagger</text>
</g>
<!-- Dagger&#45;&gt;Feather -->
<g id="edge32" class="edge"><title>Dagger&#45;&gt;Feather</title>
<path fill="none" stroke="black" d="M45.713,-435.09C52.4297,-424.288 62.4048,-410.722 74.3968,-402 90.9151,-389.987 111.918,-381.81 130.408,-376.402"/>
<polygon fill="black" stroke="black" points="131.373,-379.766 140.093,-373.748 129.523,-373.015 131.373,-379.766"/>
<text text-anchor="middle" x="102.397" y="-405.8" font-family="Times New Roman,serif" font-size="14.00">Crafting 0</text>
</g>
<!-- Dagger&#45;&gt;Feather_A_Quill -->
<g id="edge31" class="edge"><title>Dagger&#45;&gt;Feather_A_Quill</title>
<path fill="none" stroke="black" d="M38.1089,-434.899C41.1722,-412.497 49.4803,-373.122 71.3968,-348 92.7112,-323.568 124.86,-306.973 152.659,-296.297"/>
<polygon fill="black" stroke="black" points="154.104,-299.495 162.286,-292.764 151.692,-292.923 154.104,-299.495"/>
<text text-anchor="middle" x="99.3968" y="-362.3" font-family="Times New Roman,serif" font-size="14.00">Crafting 0</text>
</g>
<!-- Ink_Pot_A_Quill&#45;&gt;Ink_Pot_A_Quill_A_Magic -->
<g id="edge33" class="edge"><title>Ink_Pot_A_Quill&#45;&gt;Ink_Pot_A_Quill_A_Magic</title>
<path fill="none" stroke="black" d="M400.395,-176.581C437.489,-162.505 494.185,-140.991 535.231,-125.416"/>
<polygon fill="black" stroke="black" points="536.675,-128.611 544.783,-121.791 534.192,-122.067 536.675,-128.611"/>
<text text-anchor="middle" x="516.397" y="-144.8" font-family="Times New Roman,serif" font-size="14.00">Crafting 1</text>
</g>
<!-- Oven -->
<g id="node29" class="node"><title>Oven</title>
<ellipse fill="none" stroke="black" cx="1024.4" cy="-279" rx="30.5947" ry="18"/>
<text text-anchor="middle" x="1024.4" y="-275.3" font-family="Times New Roman,serif" font-size="14.00">Oven</text>
</g>
<!-- Oven&#45;&gt;BOOK_Paper_Sheet -->
<g id="edge34" class="edge"><title>Oven&#45;&gt;BOOK_Paper_Sheet</title>
<path fill="none" stroke="black" d="M1024.4,-260.799C1024.4,-249.163 1024.4,-233.548 1024.4,-220.237"/>
<polygon fill="black" stroke="black" points="1027.9,-220.175 1024.4,-210.175 1020.9,-220.175 1027.9,-220.175"/>
<text text-anchor="middle" x="1052.4" y="-231.8" font-family="Times New Roman,serif" font-size="14.00">Crafting 0</text>
</g>
<!-- MortarPestle -->
<g id="node30" class="node"><title>MortarPestle</title>
<ellipse fill="none" stroke="black" cx="769.397" cy="-366" rx="57.3905" ry="18"/>
<text text-anchor="middle" x="769.397" y="-362.3" font-family="Times New Roman,serif" font-size="14.00">MortarPestle</text>
</g>
<!-- MortarPestle&#45;&gt;Pouch_Dust_Bone -->
<g id="edge35" class="edge"><title>MortarPestle&#45;&gt;Pouch_Dust_Bone</title>
<path fill="none" stroke="black" d="M727.255,-353.662C719.351,-351.673 711.14,-349.699 703.397,-348 659.714,-338.416 646.541,-344.962 604.397,-330 584.33,-322.876 563.407,-311.681 546.69,-301.688"/>
<polygon fill="black" stroke="black" points="548.225,-298.524 537.868,-296.294 544.574,-304.497 548.225,-298.524"/>
<text text-anchor="middle" x="632.397" y="-318.8" font-family="Times New Roman,serif" font-size="14.00">Crafting 0</text>
</g>
<!-- MortarPestle&#45;&gt;Pouch_Dust_Moon -->
<g id="edge37" class="edge"><title>MortarPestle&#45;&gt;Pouch_Dust_Moon</title>
<path fill="none" stroke="black" d="M756.074,-348.039C748.217,-338.218 737.967,-325.718 728.397,-315 725.181,-311.398 721.711,-307.665 718.261,-304.038"/>
<polygon fill="black" stroke="black" points="720.754,-301.582 711.292,-296.817 715.718,-306.443 720.754,-301.582"/>
<text text-anchor="middle" x="769.397" y="-318.8" font-family="Times New Roman,serif" font-size="14.00">Crafting 0</text>
</g>
<!-- MortarPestle&#45;&gt;Pouch_Dust_Star -->
<g id="edge36" class="edge"><title>MortarPestle&#45;&gt;Pouch_Dust_Star</title>
<path fill="none" stroke="black" d="M788.182,-348.917C799.734,-339.067 814.866,-326.238 828.397,-315 833.046,-311.139 838,-307.067 842.831,-303.119"/>
<polygon fill="black" stroke="black" points="845.227,-305.682 850.769,-296.652 840.806,-300.255 845.227,-305.682"/>
<text text-anchor="middle" x="856.397" y="-318.8" font-family="Times New Roman,serif" font-size="14.00">Crafting 0</text>
</g>
</g>
</svg>
