<?xml version="1.0" encoding="UTF-8" standalone="no"?>
<!DOCTYPE svg PUBLIC "-//W3C//DTD SVG 1.1//EN"
 "http://www.w3.org/Graphics/SVG/1.1/DTD/svg11.dtd">
<!-- Generated by graphviz version 2.38.0 (20140413.2041)
 -->
<!-- Title: G Pages: 1 -->
<svg width="1573pt" height="479pt"
 viewBox="0.00 0.00 1573.40 479.00" xmlns="http://www.w3.org/2000/svg" xmlns:xlink="http://www.w3.org/1999/xlink">
<g id="graph0" class="graph" transform="scale(1 1) rotate(0) translate(4 475)">
<title>G</title>
<polygon fill="white" stroke="none" points="-4,4 -4,-475 1569.4,-475 1569.4,4 -4,4"/>
<!-- Log -->
<g id="node1" class="node"><title>Log</title>
<ellipse fill="none" stroke="black" cx="1065.4" cy="-453" rx="27" ry="18"/>
<text text-anchor="middle" x="1065.4" y="-449.3" font-family="Times New Roman,serif" font-size="14.00">Log</text>
</g>
<!-- Scraps_Wood -->
<g id="node25" class="node"><title>Scraps_Wood</title>
<ellipse fill="none" stroke="black" cx="1070.4" cy="-366" rx="64.189" ry="18"/>
<text text-anchor="middle" x="1070.4" y="-362.3" font-family="Times New Roman,serif" font-size="14.00">Scraps_Wood</text>
</g>
<!-- Log&#45;&gt;Scraps_Wood -->
<g id="edge1" class="edge"><title>Log&#45;&gt;Scraps_Wood</title>
<path fill="none" stroke="black" d="M1066.41,-434.799C1067.09,-423.163 1068.01,-407.548 1068.79,-394.237"/>
<polygon fill="black" stroke="black" points="1072.29,-394.364 1069.39,-384.175 1065.31,-393.953 1072.29,-394.364"/>
<text text-anchor="middle" x="1096.4" y="-405.8" font-family="Times New Roman,serif" font-size="14.00">Crafting 0</text>
</g>
<!-- Scraps_Wood_A_Mush -->
<g id="node2" class="node"><title>Scraps_Wood_A_Mush</title>
<ellipse fill="none" stroke="black" cx="1245.4" cy="-279" rx="100.983" ry="18"/>
<text text-anchor="middle" x="1245.4" y="-275.3" font-family="Times New Roman,serif" font-size="14.00">Scraps_Wood_A_Mush</text>
</g>
<!-- BOOK_Paper_Sheet -->
<g id="node10" class="node"><title>BOOK_Paper_Sheet</title>
<ellipse fill="none" stroke="black" cx="1245.4" cy="-192" rx="87.1846" ry="18"/>
<text text-anchor="middle" x="1245.4" y="-188.3" font-family="Times New Roman,serif" font-size="14.00">BOOK_Paper_Sheet</text>
</g>
<!-- Scraps_Wood_A_Mush&#45;&gt;BOOK_Paper_Sheet -->
<g id="edge2" class="edge"><title>Scraps_Wood_A_Mush&#45;&gt;BOOK_Paper_Sheet</title>
<path fill="none" stroke="black" d="M1245.4,-260.799C1245.4,-249.163 1245.4,-233.548 1245.4,-220.237"/>
<polygon fill="black" stroke="black" points="1248.9,-220.175 1245.4,-210.175 1241.9,-220.175 1248.9,-220.175"/>
<text text-anchor="middle" x="1273.4" y="-231.8" font-family="Times New Roman,serif" font-size="14.00">Crafting 0</text>
</g>
<!-- Pouch_Dust_Bone -->
<g id="node3" class="node"><title>Pouch_Dust_Bone</title>
<ellipse fill="none" stroke="black" cx="850.397" cy="-279" rx="79.8859" ry="18"/>
<text text-anchor="middle" x="850.397" y="-275.3" font-family="Times New Roman,serif" font-size="14.00">Pouch_Dust_Bone</text>
</g>
<!-- Pouch_Dust_Pixie -->
<g id="node14" class="node"><title>Pouch_Dust_Pixie</title>
<ellipse fill="none" stroke="black" cx="669.397" cy="-192" rx="78.7863" ry="18"/>
<text text-anchor="middle" x="669.397" y="-188.3" font-family="Times New Roman,serif" font-size="14.00">Pouch_Dust_Pixie</text>
</g>
<!-- Pouch_Dust_Bone&#45;&gt;Pouch_Dust_Pixie -->
<g id="edge3" class="edge"><title>Pouch_Dust_Bone&#45;&gt;Pouch_Dust_Pixie</title>
<path fill="none" stroke="black" d="M817.199,-262.41C787.474,-248.451 743.741,-227.913 711.554,-212.798"/>
<polygon fill="black" stroke="black" points="712.924,-209.574 702.384,-208.491 709.948,-215.91 712.924,-209.574"/>
<text text-anchor="middle" x="799.397" y="-231.8" font-family="Times New Roman,serif" font-size="14.00">Crafting 0</text>
</g>
<!-- Bucket_A_Water -->
<g id="node4" class="node"><title>Bucket_A_Water</title>
<ellipse fill="none" stroke="black" cx="1319.4" cy="-366" rx="74.187" ry="18"/>
<text text-anchor="middle" x="1319.4" y="-362.3" font-family="Times New Roman,serif" font-size="14.00">Bucket_A_Water</text>
</g>
<!-- Bucket_A_Water&#45;&gt;Scraps_Wood_A_Mush -->
<g id="edge4" class="edge"><title>Bucket_A_Water&#45;&gt;Scraps_Wood_A_Mush</title>
<path fill="none" stroke="black" d="M1304.78,-348.207C1294,-335.831 1279.17,-318.796 1267.03,-304.847"/>
<polygon fill="black" stroke="black" points="1269.45,-302.293 1260.24,-297.049 1264.17,-306.89 1269.45,-302.293"/>
<text text-anchor="middle" x="1315.4" y="-318.8" font-family="Times New Roman,serif" font-size="14.00">Crafting 0</text>
</g>
<!-- Scroll_Skill_Earth_Blan -->
<g id="node5" class="node"><title>Scroll_Skill_Earth_Blan</title>
<ellipse fill="none" stroke="black" cx="563.397" cy="-105" rx="97.4827" ry="18"/>
<text text-anchor="middle" x="563.397" y="-101.3" font-family="Times New Roman,serif" font-size="14.00">Scroll_Skill_Earth_Blan</text>
</g>
<!-- SCROLL_EarthSummon -->
<g id="node27" class="node"><title>SCROLL_EarthSummon</title>
<ellipse fill="none" stroke="black" cx="563.397" cy="-18" rx="102.882" ry="18"/>
<text text-anchor="middle" x="563.397" y="-14.3" font-family="Times New Roman,serif" font-size="14.00">SCROLL_EarthSummon</text>
</g>
<!-- Scroll_Skill_Earth_Blan&#45;&gt;SCROLL_EarthSummon -->
<g id="edge5" class="edge"><title>Scroll_Skill_Earth_Blan&#45;&gt;SCROLL_EarthSummon</title>
<path fill="none" stroke="black" d="M563.397,-86.799C563.397,-75.1626 563.397,-59.5479 563.397,-46.2368"/>
<polygon fill="black" stroke="black" points="566.897,-46.1754 563.397,-36.1754 559.897,-46.1755 566.897,-46.1754"/>
<text text-anchor="middle" x="591.397" y="-57.8" font-family="Times New Roman,serif" font-size="14.00">Crafting 4</text>
</g>
<!-- Herb_Stardust -->
<g id="node6" class="node"><title>Herb_Stardust</title>
<ellipse fill="none" stroke="black" cx="424.397" cy="-366" rx="63.8893" ry="18"/>
<text text-anchor="middle" x="424.397" y="-362.3" font-family="Times New Roman,serif" font-size="14.00">Herb_Stardust</text>
</g>
<!-- Pouch_Dust_Star -->
<g id="node19" class="node"><title>Pouch_Dust_Star</title>
<ellipse fill="none" stroke="black" cx="492.397" cy="-279" rx="75.2868" ry="18"/>
<text text-anchor="middle" x="492.397" y="-275.3" font-family="Times New Roman,serif" font-size="14.00">Pouch_Dust_Star</text>
</g>
<!-- Herb_Stardust&#45;&gt;Pouch_Dust_Star -->
<g id="edge6" class="edge"><title>Herb_Stardust&#45;&gt;Pouch_Dust_Star</title>
<path fill="none" stroke="black" d="M420.625,-348.029C419.283,-337.731 419.361,-324.742 425.397,-315 429.293,-308.711 434.723,-303.495 440.821,-299.183"/>
<polygon fill="black" stroke="black" points="442.796,-302.077 449.471,-293.849 439.122,-296.119 442.796,-302.077"/>
<text text-anchor="middle" x="453.397" y="-318.8" font-family="Times New Roman,serif" font-size="14.00">Crafting 0</text>
</g>
<!-- Feather -->
<g id="node7" class="node"><title>Feather</title>
<ellipse fill="none" stroke="black" cx="146.397" cy="-366" rx="37.8943" ry="18"/>
<text text-anchor="middle" x="146.397" y="-362.3" font-family="Times New Roman,serif" font-size="14.00">Feather</text>
</g>
<!-- Feather_A_Quill -->
<g id="node17" class="node"><title>Feather_A_Quill</title>
<ellipse fill="none" stroke="black" cx="174.397" cy="-279" rx="70.6878" ry="18"/>
<text text-anchor="middle" x="174.397" y="-275.3" font-family="Times New Roman,serif" font-size="14.00">Feather_A_Quill</text>
</g>
<!-- Feather&#45;&gt;Feather_A_Quill -->
<g id="edge7" class="edge"><title>Feather&#45;&gt;Feather_A_Quill</title>
<path fill="none" stroke="black" d="M152.063,-347.799C155.934,-336.047 161.142,-320.238 165.555,-306.842"/>
<polygon fill="black" stroke="black" points="168.934,-307.768 168.739,-297.175 162.286,-305.578 168.934,-307.768"/>
<text text-anchor="middle" x="190.397" y="-318.8" font-family="Times New Roman,serif" font-size="14.00">Crafting 0</text>
</g>
<!-- Knife -->
<g id="node8" class="node"><title>Knife</title>
<ellipse fill="none" stroke="black" cx="252.397" cy="-453" rx="30.5947" ry="18"/>
<text text-anchor="middle" x="252.397" y="-449.3" font-family="Times New Roman,serif" font-size="14.00">Knife</text>
</g>
<!-- Knife&#45;&gt;Feather -->
<g id="edge9" class="edge"><title>Knife&#45;&gt;Feather</title>
<path fill="none" stroke="black" d="M236.097,-437.709C224.378,-427.553 208.112,-413.696 193.397,-402 187.374,-397.213 180.807,-392.2 174.545,-387.512"/>
<polygon fill="black" stroke="black" points="176.389,-384.522 166.272,-381.373 172.217,-390.143 176.389,-384.522"/>
<text text-anchor="middle" x="240.397" y="-405.8" font-family="Times New Roman,serif" font-size="14.00">Crafting 0</text>
</g>
<!-- Knife&#45;&gt;Feather_A_Quill -->
<g id="edge8" class="edge"><title>Knife&#45;&gt;Feather_A_Quill</title>
<path fill="none" stroke="black" d="M264.44,-436.12C270.324,-426.453 275.531,-413.743 272.397,-402 260.897,-358.911 252.177,-348.198 222.397,-315 218.338,-310.475 213.604,-306.179 208.72,-302.245"/>
<polygon fill="black" stroke="black" points="210.541,-299.234 200.454,-295.992 206.318,-304.817 210.541,-299.234"/>
<text text-anchor="middle" x="295.397" y="-362.3" font-family="Times New Roman,serif" font-size="14.00">Crafting 0</text>
</g>
<!-- Pouch_Dust_Moon -->
<g id="node9" class="node"><title>Pouch_Dust_Moon</title>
<ellipse fill="none" stroke="black" cx="669.397" cy="-279" rx="83.3857" ry="18"/>
<text text-anchor="middle" x="669.397" y="-275.3" font-family="Times New Roman,serif" font-size="14.00">Pouch_Dust_Moon</text>
</g>
<!-- Pouch_Dust_Moon&#45;&gt;Pouch_Dust_Pixie -->
<g id="edge10" class="edge"><title>Pouch_Dust_Moon&#45;&gt;Pouch_Dust_Pixie</title>
<path fill="none" stroke="black" d="M669.397,-260.799C669.397,-249.163 669.397,-233.548 669.397,-220.237"/>
<polygon fill="black" stroke="black" points="672.897,-220.175 669.397,-210.175 665.897,-220.175 672.897,-220.175"/>
<text text-anchor="middle" x="697.397" y="-231.8" font-family="Times New Roman,serif" font-size="14.00">Crafting 0</text>
</g>
<!-- Scroll_Skill_Earth_Blank -->
<g id="node29" class="node"><title>Scroll_Skill_Earth_Blank</title>
<ellipse fill="none" stroke="black" cx="781.397" cy="-105" rx="102.082" ry="18"/>
<text text-anchor="middle" x="781.397" y="-101.3" font-family="Times New Roman,serif" font-size="14.00">Scroll_Skill_Earth_Blank</text>
</g>
<!-- BOOK_Paper_Sheet&#45;&gt;Scroll_Skill_Earth_Blank -->
<g id="edge11" class="edge"><title>BOOK_Paper_Sheet&#45;&gt;Scroll_Skill_Earth_Blank</title>
<path fill="none" stroke="black" d="M1182.34,-179.448C1098.51,-164.091 950.402,-136.96 859.567,-120.32"/>
<polygon fill="black" stroke="black" points="860.067,-116.853 849.6,-118.494 858.805,-123.739 860.067,-116.853"/>
<text text-anchor="middle" x="1069.4" y="-144.8" font-family="Times New Roman,serif" font-size="14.00">Crafting 1</text>
</g>
<!-- Well_A_Snow -->
<g id="node11" class="node"><title>Well_A_Snow</title>
<ellipse fill="none" stroke="black" cx="1174.4" cy="-453" rx="64.189" ry="18"/>
<text text-anchor="middle" x="1174.4" y="-449.3" font-family="Times New Roman,serif" font-size="14.00">Well_A_Snow</text>
</g>
<!-- Well_A_Snow&#45;&gt;Scraps_Wood_A_Mush -->
<g id="edge12" class="edge"><title>Well_A_Snow&#45;&gt;Scraps_Wood_A_Mush</title>
<path fill="none" stroke="black" d="M1171.9,-434.97C1169.55,-413.668 1167.99,-376.526 1180.4,-348 1187.89,-330.761 1201.79,-315.276 1214.82,-303.454"/>
<polygon fill="black" stroke="black" points="1217.48,-305.776 1222.75,-296.583 1212.9,-300.485 1217.48,-305.776"/>
<text text-anchor="middle" x="1208.4" y="-362.3" font-family="Times New Roman,serif" font-size="14.00">Crafting 0</text>
</g>
<!-- Well_A_Snow&#45;&gt;Bucket_A_Water -->
<g id="edge13" class="edge"><title>Well_A_Snow&#45;&gt;Bucket_A_Water</title>
<path fill="none" stroke="black" d="M1187.1,-435.217C1195.98,-424.468 1208.67,-410.914 1222.4,-402 1234.12,-394.388 1247.71,-388.164 1260.94,-383.19"/>
<polygon fill="black" stroke="black" points="1262.23,-386.443 1270.48,-379.786 1259.88,-379.85 1262.23,-386.443"/>
<text text-anchor="middle" x="1250.4" y="-405.8" font-family="Times New Roman,serif" font-size="14.00">Crafting 0</text>
</g>
<!-- Ink_Pot_A_Quill_A_Magic -->
<g id="node12" class="node"><title>Ink_Pot_A_Quill_A_Magic</title>
<ellipse fill="none" stroke="black" cx="336.397" cy="-105" rx="111.581" ry="18"/>
<text text-anchor="middle" x="336.397" y="-101.3" font-family="Times New Roman,serif" font-size="14.00">Ink_Pot_A_Quill_A_Magic</text>
</g>
<!-- Ink_Pot_A_Quill_A_Magic&#45;&gt;SCROLL_EarthSummon -->
<g id="edge14" class="edge"><title>Ink_Pot_A_Quill_A_Magic&#45;&gt;SCROLL_EarthSummon</title>
<path fill="none" stroke="black" d="M378.297,-88.3106C416.129,-74.1441 471.902,-53.2603 512.331,-38.1216"/>
<polygon fill="black" stroke="black" points="513.604,-41.3824 521.741,-34.5978 511.149,-34.8269 513.604,-41.3824"/>
<text text-anchor="middle" x="492.397" y="-57.8" font-family="Times New Roman,serif" font-size="14.00">Crafting 5</text>
</g>
<!-- Skull_Human -->
<g id="node13" class="node"><title>Skull_Human</title>
<ellipse fill="none" stroke="black" cx="850.397" cy="-366" rx="59.5901" ry="18"/>
<text text-anchor="middle" x="850.397" y="-362.3" font-family="Times New Roman,serif" font-size="14.00">Skull_Human</text>
</g>
<!-- Skull_Human&#45;&gt;Pouch_Dust_Bone -->
<g id="edge15" class="edge"><title>Skull_Human&#45;&gt;Pouch_Dust_Bone</title>
<path fill="none" stroke="black" d="M850.397,-347.799C850.397,-336.163 850.397,-320.548 850.397,-307.237"/>
<polygon fill="black" stroke="black" points="853.897,-307.175 850.397,-297.175 846.897,-307.175 853.897,-307.175"/>
<text text-anchor="middle" x="878.397" y="-318.8" font-family="Times New Roman,serif" font-size="14.00">Crafting 0</text>
</g>
<!-- Pouch_Dust_Pixie&#45;&gt;Ink_Pot_A_Quill_A_Magic -->
<g id="edge16" class="edge"><title>Pouch_Dust_Pixie&#45;&gt;Ink_Pot_A_Quill_A_Magic</title>
<path fill="none" stroke="black" d="M618.821,-178.09C561.224,-163.388 466.884,-139.308 403.256,-123.066"/>
<polygon fill="black" stroke="black" points="403.873,-119.611 393.318,-120.529 402.141,-126.394 403.873,-119.611"/>
<text text-anchor="middle" x="551.397" y="-144.8" font-family="Times New Roman,serif" font-size="14.00">Crafting 1</text>
</g>
<!-- Pouch_Dust_Pixie&#45;&gt;Scroll_Skill_Earth_Blank -->
<g id="edge17" class="edge"><title>Pouch_Dust_Pixie&#45;&gt;Scroll_Skill_Earth_Blank</title>
<path fill="none" stroke="black" d="M684.143,-174.071C693.603,-163.789 706.493,-150.802 719.397,-141 725.764,-136.163 732.872,-131.536 739.94,-127.321"/>
<polygon fill="black" stroke="black" points="741.888,-130.238 748.812,-122.219 738.399,-124.17 741.888,-130.238"/>
<text text-anchor="middle" x="747.397" y="-144.8" font-family="Times New Roman,serif" font-size="14.00">Crafting 1</text>
</g>
<!-- Bucket -->
<g id="node15" class="node"><title>Bucket</title>
<ellipse fill="none" stroke="black" cx="1293.4" cy="-453" rx="36.2938" ry="18"/>
<text text-anchor="middle" x="1293.4" y="-449.3" font-family="Times New Roman,serif" font-size="14.00">Bucket</text>
</g>
<!-- Bucket&#45;&gt;Bucket_A_Water -->
<g id="edge18" class="edge"><title>Bucket&#45;&gt;Bucket_A_Water</title>
<path fill="none" stroke="black" d="M1285.81,-435.285C1282.4,-425.321 1280.01,-412.593 1284.4,-402 1286.02,-398.07 1288.33,-394.351 1290.99,-390.909"/>
<polygon fill="black" stroke="black" points="1293.64,-393.197 1297.7,-383.41 1288.42,-388.531 1293.64,-393.197"/>
<text text-anchor="middle" x="1312.4" y="-405.8" font-family="Times New Roman,serif" font-size="14.00">Crafting 0</text>
</g>
<!-- Well -->
<g id="node16" class="node"><title>Well</title>
<ellipse fill="none" stroke="black" cx="1406.4" cy="-453" rx="27.0966" ry="18"/>
<text text-anchor="middle" x="1406.4" y="-449.3" font-family="Times New Roman,serif" font-size="14.00">Well</text>
</g>
<!-- Well&#45;&gt;Scraps_Wood_A_Mush -->
<g id="edge19" class="edge"><title>Well&#45;&gt;Scraps_Wood_A_Mush</title>
<path fill="none" stroke="black" d="M1413.86,-435.605C1416.1,-429.847 1418.27,-423.252 1419.4,-417 1424.98,-385.914 1421.95,-372.801 1402.4,-348 1382.07,-322.217 1350.02,-306.022 1320.17,-295.941"/>
<polygon fill="black" stroke="black" points="1321.16,-292.584 1310.57,-292.879 1319.04,-299.253 1321.16,-292.584"/>
<text text-anchor="middle" x="1449.4" y="-362.3" font-family="Times New Roman,serif" font-size="14.00">Crafting 0</text>
</g>
<!-- Well&#45;&gt;Bucket_A_Water -->
<g id="edge20" class="edge"><title>Well&#45;&gt;Bucket_A_Water</title>
<path fill="none" stroke="black" d="M1389.1,-438.993C1381.03,-432.654 1371.44,-424.742 1363.4,-417 1355.19,-409.101 1346.78,-399.877 1339.54,-391.518"/>
<polygon fill="black" stroke="black" points="1342.16,-389.186 1333.01,-383.839 1336.83,-393.723 1342.16,-389.186"/>
<text text-anchor="middle" x="1391.4" y="-405.8" font-family="Times New Roman,serif" font-size="14.00">Crafting 0</text>
</g>
<!-- Ink_Pot_A_Quill -->
<g id="node28" class="node"><title>Ink_Pot_A_Quill</title>
<ellipse fill="none" stroke="black" cx="312.397" cy="-192" rx="73.387" ry="18"/>
<text text-anchor="middle" x="312.397" y="-188.3" font-family="Times New Roman,serif" font-size="14.00">Ink_Pot_A_Quill</text>
</g>
<!-- Feather_A_Quill&#45;&gt;Ink_Pot_A_Quill -->
<g id="edge21" class="edge"><title>Feather_A_Quill&#45;&gt;Ink_Pot_A_Quill</title>
<path fill="none" stroke="black" d="M198.821,-261.971C214.113,-252.028 234.285,-239.081 252.397,-228 260.02,-223.336 268.258,-218.439 276.116,-213.835"/>
<polygon fill="black" stroke="black" points="277.896,-216.849 284.773,-208.79 274.371,-210.801 277.896,-216.849"/>
<text text-anchor="middle" x="280.397" y="-231.8" font-family="Times New Roman,serif" font-size="14.00">Crafting 0</text>
</g>
<!-- Moonstone -->
<g id="node18" class="node"><title>Moonstone</title>
<ellipse fill="none" stroke="black" cx="720.397" cy="-366" rx="51.9908" ry="18"/>
<text text-anchor="middle" x="720.397" y="-362.3" font-family="Times New Roman,serif" font-size="14.00">Moonstone</text>
</g>
<!-- Moonstone&#45;&gt;Pouch_Dust_Moon -->
<g id="edge22" class="edge"><title>Moonstone&#45;&gt;Pouch_Dust_Moon</title>
<path fill="none" stroke="black" d="M723.321,-347.807C724.196,-337.675 723.764,-324.937 718.397,-315 715.884,-310.348 712.451,-306.168 708.56,-302.455"/>
<polygon fill="black" stroke="black" points="710.568,-299.573 700.635,-295.889 706.103,-304.964 710.568,-299.573"/>
<text text-anchor="middle" x="751.397" y="-318.8" font-family="Times New Roman,serif" font-size="14.00">Crafting 0</text>
</g>
<!-- Pouch_Dust_Star&#45;&gt;Pouch_Dust_Pixie -->
<g id="edge23" class="edge"><title>Pouch_Dust_Star&#45;&gt;Pouch_Dust_Pixie</title>
<path fill="none" stroke="black" d="M524.45,-262.607C553.341,-248.733 596.005,-228.245 627.571,-213.086"/>
<polygon fill="black" stroke="black" points="629.484,-216.05 636.984,-208.566 626.454,-209.74 629.484,-216.05"/>
<text text-anchor="middle" x="620.397" y="-231.8" font-family="Times New Roman,serif" font-size="14.00">Crafting 0</text>
</g>
<!-- Axe -->
<g id="node20" class="node"><title>Axe</title>
<ellipse fill="none" stroke="black" cx="989.397" cy="-453" rx="27" ry="18"/>
<text text-anchor="middle" x="989.397" y="-449.3" font-family="Times New Roman,serif" font-size="14.00">Axe</text>
</g>
<!-- Axe&#45;&gt;Scraps_Wood -->
<g id="edge24" class="edge"><title>Axe&#45;&gt;Scraps_Wood</title>
<path fill="none" stroke="black" d="M992.828,-434.714C995.605,-424.299 1000.41,-411.296 1008.4,-402 1013.55,-396.002 1020,-390.816 1026.78,-386.411"/>
<polygon fill="black" stroke="black" points="1028.66,-389.365 1035.47,-381.246 1025.08,-383.348 1028.66,-389.365"/>
<text text-anchor="middle" x="1036.4" y="-405.8" font-family="Times New Roman,serif" font-size="14.00">Crafting 0</text>
</g>
<!-- Barrel -->
<g id="node21" class="node"><title>Barrel</title>
<ellipse fill="none" stroke="black" cx="1492.4" cy="-453" rx="32.4942" ry="18"/>
<text text-anchor="middle" x="1492.4" y="-449.3" font-family="Times New Roman,serif" font-size="14.00">Barrel</text>
</g>
<!-- Barrel&#45;&gt;Scraps_Wood_A_Mush -->
<g id="edge25" class="edge"><title>Barrel&#45;&gt;Scraps_Wood_A_Mush</title>
<path fill="none" stroke="black" d="M1501.74,-435.419C1504.44,-429.756 1507.03,-423.267 1508.4,-417 1515.4,-384.823 1506.07,-369.815 1481.4,-348 1457.62,-326.973 1381.67,-307.403 1322.28,-294.708"/>
<polygon fill="black" stroke="black" points="1322.66,-291.211 1312.15,-292.575 1321.22,-298.061 1322.66,-291.211"/>
<text text-anchor="middle" x="1537.4" y="-362.3" font-family="Times New Roman,serif" font-size="14.00">Crafting 0</text>
</g>
<!-- Barrel&#45;&gt;Bucket_A_Water -->
<g id="edge26" class="edge"><title>Barrel&#45;&gt;Bucket_A_Water</title>
<path fill="none" stroke="black" d="M1475.48,-437.493C1462.07,-426.562 1442.46,-411.827 1423.4,-402 1408.81,-394.484 1392.27,-388.064 1376.74,-382.853"/>
<polygon fill="black" stroke="black" points="1377.82,-379.523 1367.22,-379.765 1375.66,-386.181 1377.82,-379.523"/>
<text text-anchor="middle" x="1476.4" y="-405.8" font-family="Times New Roman,serif" font-size="14.00">Crafting 0</text>
</g>
<!-- Pillow -->
<g id="node22" class="node"><title>Pillow</title>
<ellipse fill="none" stroke="black" cx="136.397" cy="-453" rx="33.2948" ry="18"/>
<text text-anchor="middle" x="136.397" y="-449.3" font-family="Times New Roman,serif" font-size="14.00">Pillow</text>
</g>
<!-- Pillow&#45;&gt;Feather -->
<g id="edge27" class="edge"><title>Pillow&#45;&gt;Feather</title>
<path fill="none" stroke="black" d="M135.762,-434.799C135.65,-425.121 135.915,-412.839 137.397,-402 137.766,-399.296 138.27,-396.5 138.852,-393.722"/>
<polygon fill="black" stroke="black" points="142.271,-394.473 141.2,-383.932 135.464,-392.84 142.271,-394.473"/>
<text text-anchor="middle" x="165.397" y="-405.8" font-family="Times New Roman,serif" font-size="14.00">Crafting 0</text>
</g>
<!-- Bone -->
<g id="node23" class="node"><title>Bone</title>
<ellipse fill="none" stroke="black" cx="958.397" cy="-366" rx="29.795" ry="18"/>
<text text-anchor="middle" x="958.397" y="-362.3" font-family="Times New Roman,serif" font-size="14.00">Bone</text>
</g>
<!-- Bone&#45;&gt;Pouch_Dust_Bone -->
<g id="edge28" class="edge"><title>Bone&#45;&gt;Pouch_Dust_Bone</title>
<path fill="none" stroke="black" d="M945.52,-349.471C936.373,-338.999 923.444,-325.272 910.397,-315 904.068,-310.017 896.956,-305.252 889.902,-300.929"/>
<polygon fill="black" stroke="black" points="891.451,-297.779 881.06,-295.709 887.892,-303.807 891.451,-297.779"/>
<text text-anchor="middle" x="954.397" y="-318.8" font-family="Times New Roman,serif" font-size="14.00">Crafting 0</text>
</g>
<!-- Ink_Pot -->
<g id="node24" class="node"><title>Ink_Pot</title>
<ellipse fill="none" stroke="black" cx="312.397" cy="-279" rx="40.0939" ry="18"/>
<text text-anchor="middle" x="312.397" y="-275.3" font-family="Times New Roman,serif" font-size="14.00">Ink_Pot</text>
</g>
<!-- Ink_Pot&#45;&gt;Ink_Pot_A_Quill -->
<g id="edge29" class="edge"><title>Ink_Pot&#45;&gt;Ink_Pot_A_Quill</title>
<path fill="none" stroke="black" d="M312.397,-260.799C312.397,-249.163 312.397,-233.548 312.397,-220.237"/>
<polygon fill="black" stroke="black" points="315.897,-220.175 312.397,-210.175 308.897,-220.175 315.897,-220.175"/>
<text text-anchor="middle" x="340.397" y="-231.8" font-family="Times New Roman,serif" font-size="14.00">Crafting 0</text>
</g>
<!-- Scraps_Wood&#45;&gt;Scraps_Wood_A_Mush -->
<g id="edge30" class="edge"><title>Scraps_Wood&#45;&gt;Scraps_Wood_A_Mush</title>
<path fill="none" stroke="black" d="M1077.03,-347.714C1082.1,-336.753 1090.15,-323.151 1101.4,-315 1116.16,-304.3 1133.79,-296.842 1151.56,-291.651"/>
<polygon fill="black" stroke="black" points="1152.69,-294.972 1161.43,-288.994 1150.87,-288.213 1152.69,-294.972"/>
<text text-anchor="middle" x="1129.4" y="-318.8" font-family="Times New Roman,serif" font-size="14.00">Crafting 0</text>
</g>
<!-- Dagger -->
<g id="node26" class="node"><title>Dagger</title>
<ellipse fill="none" stroke="black" cx="36.3968" cy="-453" rx="36.2938" ry="18"/>
<text text-anchor="middle" x="36.3968" y="-449.3" font-family="Times New Roman,serif" font-size="14.00">Dagger</text>
</g>
<!-- Dagger&#45;&gt;Feather -->
<g id="edge32" class="edge"><title>Dagger&#45;&gt;Feather</title>
<path fill="none" stroke="black" d="M46.7741,-435.606C54.0854,-425.022 64.6396,-411.505 76.3968,-402 85.9585,-394.27 97.5069,-387.632 108.443,-382.279"/>
<polygon fill="black" stroke="black" points="110.24,-385.303 117.83,-377.911 107.287,-378.957 110.24,-385.303"/>
<text text-anchor="middle" x="104.397" y="-405.8" font-family="Times New Roman,serif" font-size="14.00">Crafting 0</text>
</g>
<!-- Dagger&#45;&gt;Feather_A_Quill -->
<g id="edge31" class="edge"><title>Dagger&#45;&gt;Feather_A_Quill</title>
<path fill="none" stroke="black" d="M32.7831,-434.934C29.115,-412.923 26.1512,-374.345 43.3968,-348 60.0834,-322.509 89.528,-306.028 116.28,-295.686"/>
<polygon fill="black" stroke="black" points="117.789,-298.862 125.986,-292.149 115.392,-292.285 117.789,-298.862"/>
<text text-anchor="middle" x="71.3968" y="-362.3" font-family="Times New Roman,serif" font-size="14.00">Crafting 0</text>
</g>
<!-- Ink_Pot_A_Quill&#45;&gt;Ink_Pot_A_Quill_A_Magic -->
<g id="edge33" class="edge"><title>Ink_Pot_A_Quill&#45;&gt;Ink_Pot_A_Quill_A_Magic</title>
<path fill="none" stroke="black" d="M317.254,-173.799C320.572,-162.047 325.035,-146.238 328.818,-132.842"/>
<polygon fill="black" stroke="black" points="332.198,-133.75 331.547,-123.175 325.462,-131.848 332.198,-133.75"/>
<text text-anchor="middle" x="354.397" y="-144.8" font-family="Times New Roman,serif" font-size="14.00">Crafting 1</text>
</g>
<!-- Scroll_Skill_Earth_Blank&#45;&gt;SCROLL_EarthSummon -->
<g id="edge34" class="edge"><title>Scroll_Skill_Earth_Blank&#45;&gt;SCROLL_EarthSummon</title>
<path fill="none" stroke="black" d="M741.412,-88.4097C705.264,-74.3153 651.913,-53.5133 613.046,-38.3588"/>
<polygon fill="black" stroke="black" points="614.085,-35.007 603.496,-34.6352 611.542,-41.5288 614.085,-35.007"/>
<text text-anchor="middle" x="714.397" y="-57.8" font-family="Times New Roman,serif" font-size="14.00">Crafting 5</text>
</g>
<!-- Oven -->
<g id="node30" class="node"><title>Oven</title>
<ellipse fill="none" stroke="black" cx="1394.4" cy="-279" rx="30.5947" ry="18"/>
<text text-anchor="middle" x="1394.4" y="-275.3" font-family="Times New Roman,serif" font-size="14.00">Oven</text>
</g>
<!-- Oven&#45;&gt;BOOK_Paper_Sheet -->
<g id="edge35" class="edge"><title>Oven&#45;&gt;BOOK_Paper_Sheet</title>
<path fill="none" stroke="black" d="M1373.05,-265.822C1349.45,-252.359 1311.01,-230.428 1282.46,-214.146"/>
<polygon fill="black" stroke="black" points="1284,-210.991 1273.58,-209.076 1280.53,-217.071 1284,-210.991"/>
<text text-anchor="middle" x="1357.4" y="-231.8" font-family="Times New Roman,serif" font-size="14.00">Crafting 0</text>
</g>
<!-- MortarPestle -->
<g id="node31" class="node"><title>MortarPestle</title>
<ellipse fill="none" stroke="black" cx="582.397" cy="-366" rx="57.3905" ry="18"/>
<text text-anchor="middle" x="582.397" y="-362.3" font-family="Times New Roman,serif" font-size="14.00">MortarPestle</text>
</g>
<!-- MortarPestle&#45;&gt;Pouch_Dust_Bone -->
<g id="edge36" class="edge"><title>MortarPestle&#45;&gt;Pouch_Dust_Bone</title>
<path fill="none" stroke="black" d="M608.345,-349.948C618.23,-343.986 629.494,-336.913 639.397,-330 648.218,-323.841 648.576,-319.393 658.397,-315 700.817,-296.023 715.683,-305.36 761.397,-297 767.947,-295.802 774.764,-294.536 781.581,-293.256"/>
<polygon fill="black" stroke="black" points="782.359,-296.671 791.537,-291.378 781.061,-289.792 782.359,-296.671"/>
<text text-anchor="middle" x="686.397" y="-318.8" font-family="Times New Roman,serif" font-size="14.00">Crafting 0</text>
</g>
<!-- MortarPestle&#45;&gt;Pouch_Dust_Moon -->
<g id="edge38" class="edge"><title>MortarPestle&#45;&gt;Pouch_Dust_Moon</title>
<path fill="none" stroke="black" d="M578.304,-347.819C576.842,-337.443 576.905,-324.445 583.397,-315 588.627,-307.39 595.822,-301.434 603.841,-296.772"/>
<polygon fill="black" stroke="black" points="605.489,-299.86 612.812,-292.204 602.313,-293.622 605.489,-299.86"/>
<text text-anchor="middle" x="611.397" y="-318.8" font-family="Times New Roman,serif" font-size="14.00">Crafting 0</text>
</g>
<!-- MortarPestle&#45;&gt;Pouch_Dust_Star -->
<g id="edge37" class="edge"><title>MortarPestle&#45;&gt;Pouch_Dust_Star</title>
<path fill="none" stroke="black" d="M548.615,-351.253C538.03,-345.78 526.903,-338.686 518.397,-330 511.902,-323.368 506.65,-314.784 502.612,-306.606"/>
<polygon fill="black" stroke="black" points="505.731,-305.009 498.427,-297.334 499.351,-307.888 505.731,-305.009"/>
<text text-anchor="middle" x="546.397" y="-318.8" font-family="Times New Roman,serif" font-size="14.00">Crafting 0</text>
</g>
</g>
</svg>
