<?xml version="1.0" encoding="UTF-8" standalone="no"?>
<!DOCTYPE svg PUBLIC "-//W3C//DTD SVG 1.1//EN"
 "http://www.w3.org/Graphics/SVG/1.1/DTD/svg11.dtd">
<!-- Generated by graphviz version 2.38.0 (20140413.2041)
 -->
<!-- Title: G Pages: 1 -->
<svg width="463pt" height="131pt"
 viewBox="0.00 0.00 462.99 131.00" xmlns="http://www.w3.org/2000/svg" xmlns:xlink="http://www.w3.org/1999/xlink">
<g id="graph0" class="graph" transform="scale(1 1) rotate(0) translate(4 127)">
<title>G</title>
<polygon fill="white" stroke="none" points="-4,4 -4,-127 458.992,-127 458.992,4 -4,4"/>
<!-- Scraps_Metal -->
<g id="node1" class="node"><title>Scraps_Metal</title>
<ellipse fill="none" stroke="black" cx="61.0946" cy="-105" rx="61.1893" ry="18"/>
<text text-anchor="middle" x="61.0946" y="-101.3" font-family="Times New Roman,serif" font-size="14.00">Scraps_Metal</text>
</g>
<!-- Shield_Small_Durability -->
<g id="node3" class="node"><title>Shield_Small_Durability</title>
<ellipse fill="none" stroke="black" cx="257.095" cy="-18" rx="98.2828" ry="18"/>
<text text-anchor="middle" x="257.095" y="-14.3" font-family="Times New Roman,serif" font-size="14.00">Shield_Small_Durability</text>
</g>
<!-- Scraps_Metal&#45;&gt;Shield_Small_Durability -->
<g id="edge1" class="edge"><title>Scraps_Metal&#45;&gt;Shield_Small_Durability</title>
<path fill="none" stroke="black" d="M89.4463,-88.9506C109.483,-78.5662 137.113,-64.7492 162.095,-54 175.217,-48.3538 189.582,-42.765 203.078,-37.7663"/>
<polygon fill="black" stroke="black" points="204.533,-40.9609 212.722,-34.2383 202.129,-34.387 204.533,-40.9609"/>
<text text-anchor="middle" x="190.095" y="-57.8" font-family="Times New Roman,serif" font-size="14.00">Crafting 2</text>
</g>
<!-- ShieldMetal -->
<g id="node2" class="node"><title>ShieldMetal</title>
<ellipse fill="none" stroke="black" cx="193.095" cy="-105" rx="53.0913" ry="18"/>
<text text-anchor="middle" x="193.095" y="-101.3" font-family="Times New Roman,serif" font-size="14.00">ShieldMetal</text>
</g>
<!-- ShieldMetal&#45;&gt;Shield_Small_Durability -->
<g id="edge2" class="edge"><title>ShieldMetal&#45;&gt;Shield_Small_Durability</title>
<path fill="none" stroke="black" d="M205.739,-87.2067C214.97,-74.9464 227.644,-58.1143 238.091,-44.2391"/>
<polygon fill="black" stroke="black" points="241.038,-46.1433 244.257,-36.0493 235.446,-41.9328 241.038,-46.1433"/>
<text text-anchor="middle" x="257.095" y="-57.8" font-family="Times New Roman,serif" font-size="14.00">Crafting 2</text>
</g>
<!-- ShieldWood -->
<g id="node4" class="node"><title>ShieldWood</title>
<ellipse fill="none" stroke="black" cx="321.095" cy="-105" rx="56.59" ry="18"/>
<text text-anchor="middle" x="321.095" y="-101.3" font-family="Times New Roman,serif" font-size="14.00">ShieldWood</text>
</g>
<!-- ShieldWood&#45;&gt;Shield_Small_Durability -->
<g id="edge3" class="edge"><title>ShieldWood&#45;&gt;Shield_Small_Durability</title>
<path fill="none" stroke="black" d="M311.121,-86.8464C305.13,-76.9619 297.13,-64.4619 289.095,-54 286.443,-50.5475 283.521,-47.0282 280.555,-43.6168"/>
<polygon fill="black" stroke="black" points="282.942,-41.0367 273.656,-35.9351 277.734,-45.7139 282.942,-41.0367"/>
<text text-anchor="middle" x="328.095" y="-57.8" font-family="Times New Roman,serif" font-size="14.00">Crafting 2</text>
</g>
<!-- Anvil -->
<g id="node5" class="node"><title>Anvil</title>
<ellipse fill="none" stroke="black" cx="425.095" cy="-105" rx="29.795" ry="18"/>
<text text-anchor="middle" x="425.095" y="-101.3" font-family="Times New Roman,serif" font-size="14.00">Anvil</text>
</g>
<!-- Anvil&#45;&gt;Shield_Small_Durability -->
<g id="edge4" class="edge"><title>Anvil&#45;&gt;Shield_Small_Durability</title>
<path fill="none" stroke="black" d="M409.296,-89.4476C396.73,-78.4917 378.294,-63.7452 360.095,-54 347.501,-47.2563 333.357,-41.4421 319.679,-36.5969"/>
<polygon fill="black" stroke="black" points="320.424,-33.1534 309.83,-33.2407 318.166,-39.7792 320.424,-33.1534"/>
<text text-anchor="middle" x="411.095" y="-57.8" font-family="Times New Roman,serif" font-size="14.00">Crafting 2</text>
</g>
</g>
</svg>
