<?xml version="1.0" encoding="UTF-8" standalone="no"?>
<!DOCTYPE svg PUBLIC "-//W3C//DTD SVG 1.1//EN"
 "http://www.w3.org/Graphics/SVG/1.1/DTD/svg11.dtd">
<!-- Generated by graphviz version 2.38.0 (20140413.2041)
 -->
<!-- Title: G Pages: 1 -->
<svg width="415pt" height="131pt"
 viewBox="0.00 0.00 414.69 131.00" xmlns="http://www.w3.org/2000/svg" xmlns:xlink="http://www.w3.org/1999/xlink">
<g id="graph0" class="graph" transform="scale(1 1) rotate(0) translate(4 127)">
<title>G</title>
<polygon fill="white" stroke="none" points="-4,4 -4,-127 410.689,-127 410.689,4 -4,4"/>
<!-- Essence_Shadow -->
<g id="node1" class="node"><title>Essence_Shadow</title>
<ellipse fill="none" stroke="black" cx="75.3933" cy="-105" rx="75.2868" ry="18"/>
<text text-anchor="middle" x="75.3933" y="-101.3" font-family="Times New Roman,serif" font-size="14.00">Essence_Shadow</text>
</g>
<!-- Shield_Small_ShadowResistance -->
<g id="node2" class="node"><title>Shield_Small_ShadowResistance</title>
<ellipse fill="none" stroke="black" cx="225.393" cy="-18" rx="131.877" ry="18"/>
<text text-anchor="middle" x="225.393" y="-14.3" font-family="Times New Roman,serif" font-size="14.00">Shield_Small_ShadowResistance</text>
</g>
<!-- Essence_Shadow&#45;&gt;Shield_Small_ShadowResistance -->
<g id="edge1" class="edge"><title>Essence_Shadow&#45;&gt;Shield_Small_ShadowResistance</title>
<path fill="none" stroke="black" d="M103.256,-88.2114C126.902,-74.8119 161.06,-55.4553 187.245,-40.6175"/>
<polygon fill="black" stroke="black" points="189.169,-43.5501 196.144,-35.5748 185.718,-37.4599 189.169,-43.5501"/>
<text text-anchor="middle" x="187.393" y="-57.8" font-family="Times New Roman,serif" font-size="14.00">Crafting 4</text>
</g>
<!-- ShieldWood -->
<g id="node3" class="node"><title>ShieldWood</title>
<ellipse fill="none" stroke="black" cx="225.393" cy="-105" rx="56.59" ry="18"/>
<text text-anchor="middle" x="225.393" y="-101.3" font-family="Times New Roman,serif" font-size="14.00">ShieldWood</text>
</g>
<!-- ShieldWood&#45;&gt;Shield_Small_ShadowResistance -->
<g id="edge2" class="edge"><title>ShieldWood&#45;&gt;Shield_Small_ShadowResistance</title>
<path fill="none" stroke="black" d="M225.393,-86.799C225.393,-75.1626 225.393,-59.5479 225.393,-46.2368"/>
<polygon fill="black" stroke="black" points="228.893,-46.1754 225.393,-36.1754 221.893,-46.1755 228.893,-46.1754"/>
<text text-anchor="middle" x="253.393" y="-57.8" font-family="Times New Roman,serif" font-size="14.00">Crafting 4</text>
</g>
<!-- ShieldMetal -->
<g id="node4" class="node"><title>ShieldMetal</title>
<ellipse fill="none" stroke="black" cx="353.393" cy="-105" rx="53.0913" ry="18"/>
<text text-anchor="middle" x="353.393" y="-101.3" font-family="Times New Roman,serif" font-size="14.00">ShieldMetal</text>
</g>
<!-- ShieldMetal&#45;&gt;Shield_Small_ShadowResistance -->
<g id="edge3" class="edge"><title>ShieldMetal&#45;&gt;Shield_Small_ShadowResistance</title>
<path fill="none" stroke="black" d="M333.262,-88.3262C319.935,-78.1692 301.929,-64.8584 285.393,-54 278.66,-49.5784 271.356,-45.0814 264.236,-40.8493"/>
<polygon fill="black" stroke="black" points="265.772,-37.6926 255.375,-35.656 262.233,-43.7319 265.772,-37.6926"/>
<text text-anchor="middle" x="335.393" y="-57.8" font-family="Times New Roman,serif" font-size="14.00">Crafting 4</text>
</g>
</g>
</svg>
