<?xml version="1.0" encoding="UTF-8" standalone="no"?>
<!DOCTYPE svg PUBLIC "-//W3C//DTD SVG 1.1//EN"
 "http://www.w3.org/Graphics/SVG/1.1/DTD/svg11.dtd">
<!-- Generated by graphviz version 2.38.0 (20140413.2041)
 -->
<!-- Title: G Pages: 1 -->
<svg width="377pt" height="131pt"
 viewBox="0.00 0.00 377.09 131.00" xmlns="http://www.w3.org/2000/svg" xmlns:xlink="http://www.w3.org/1999/xlink">
<g id="graph0" class="graph" transform="scale(1 1) rotate(0) translate(4 127)">
<title>G</title>
<polygon fill="white" stroke="none" points="-4,4 -4,-127 373.09,-127 373.09,4 -4,4"/>
<!-- Essence_Air -->
<g id="node1" class="node"><title>Essence_Air</title>
<ellipse fill="none" stroke="black" cx="56.545" cy="-105" rx="56.59" ry="18"/>
<text text-anchor="middle" x="56.545" y="-101.3" font-family="Times New Roman,serif" font-size="14.00">Essence_Air</text>
</g>
<!-- Shield_Small_AirResistance -->
<g id="node4" class="node"><title>Shield_Small_AirResistance</title>
<ellipse fill="none" stroke="black" cx="184.545" cy="-18" rx="113.18" ry="18"/>
<text text-anchor="middle" x="184.545" y="-14.3" font-family="Times New Roman,serif" font-size="14.00">Shield_Small_AirResistance</text>
</g>
<!-- Essence_Air&#45;&gt;Shield_Small_AirResistance -->
<g id="edge1" class="edge"><title>Essence_Air&#45;&gt;Shield_Small_AirResistance</title>
<path fill="none" stroke="black" d="M76.9732,-88.1C90.2701,-77.9721 108.132,-64.778 124.545,-54 131.349,-49.5319 138.737,-44.9867 145.927,-40.7157"/>
<polygon fill="black" stroke="black" points="148.009,-43.5524 154.87,-35.4789 144.472,-37.5118 148.009,-43.5524"/>
<text text-anchor="middle" x="152.545" y="-57.8" font-family="Times New Roman,serif" font-size="14.00">Crafting 4</text>
</g>
<!-- ShieldMetal -->
<g id="node2" class="node"><title>ShieldMetal</title>
<ellipse fill="none" stroke="black" cx="184.545" cy="-105" rx="53.0913" ry="18"/>
<text text-anchor="middle" x="184.545" y="-101.3" font-family="Times New Roman,serif" font-size="14.00">ShieldMetal</text>
</g>
<!-- ShieldMetal&#45;&gt;Shield_Small_AirResistance -->
<g id="edge2" class="edge"><title>ShieldMetal&#45;&gt;Shield_Small_AirResistance</title>
<path fill="none" stroke="black" d="M184.545,-86.799C184.545,-75.1626 184.545,-59.5479 184.545,-46.2368"/>
<polygon fill="black" stroke="black" points="188.045,-46.1754 184.545,-36.1754 181.045,-46.1755 188.045,-46.1754"/>
<text text-anchor="middle" x="212.545" y="-57.8" font-family="Times New Roman,serif" font-size="14.00">Crafting 4</text>
</g>
<!-- ShieldWood -->
<g id="node3" class="node"><title>ShieldWood</title>
<ellipse fill="none" stroke="black" cx="312.545" cy="-105" rx="56.59" ry="18"/>
<text text-anchor="middle" x="312.545" y="-101.3" font-family="Times New Roman,serif" font-size="14.00">ShieldWood</text>
</g>
<!-- ShieldWood&#45;&gt;Shield_Small_AirResistance -->
<g id="edge3" class="edge"><title>ShieldWood&#45;&gt;Shield_Small_AirResistance</title>
<path fill="none" stroke="black" d="M292.117,-88.1C278.82,-77.9721 260.958,-64.778 244.545,-54 237.741,-49.5319 230.353,-44.9867 223.163,-40.7157"/>
<polygon fill="black" stroke="black" points="224.618,-37.5118 214.22,-35.4789 221.081,-43.5524 224.618,-37.5118"/>
<text text-anchor="middle" x="294.545" y="-57.8" font-family="Times New Roman,serif" font-size="14.00">Crafting 4</text>
</g>
</g>
</svg>
