<?xml version="1.0" encoding="UTF-8" standalone="no"?>
<!DOCTYPE svg PUBLIC "-//W3C//DTD SVG 1.1//EN"
 "http://www.w3.org/Graphics/SVG/1.1/DTD/svg11.dtd">
<!-- Generated by graphviz version 2.38.0 (20140413.2041)
 -->
<!-- Title: G Pages: 1 -->
<svg width="208pt" height="218pt"
 viewBox="0.00 0.00 208.40 218.00" xmlns="http://www.w3.org/2000/svg" xmlns:xlink="http://www.w3.org/1999/xlink">
<g id="graph0" class="graph" transform="scale(1 1) rotate(0) translate(4 214)">
<title>G</title>
<polygon fill="white" stroke="none" points="-4,4 -4,-214 204.397,-214 204.397,4 -4,4"/>
<!-- String_Bow -->
<g id="node1" class="node"><title>String_Bow</title>
<ellipse fill="none" stroke="black" cx="144.397" cy="-105" rx="53.8905" ry="18"/>
<text text-anchor="middle" x="144.397" y="-101.3" font-family="Times New Roman,serif" font-size="14.00">String_Bow</text>
</g>
<!-- ShortBow_C -->
<g id="node2" class="node"><title>ShortBow_C</title>
<ellipse fill="none" stroke="black" cx="82.3968" cy="-18" rx="59.2899" ry="18"/>
<text text-anchor="middle" x="82.3968" y="-14.3" font-family="Times New Roman,serif" font-size="14.00">ShortBow_C</text>
</g>
<!-- String_Bow&#45;&gt;ShortBow_C -->
<g id="edge1" class="edge"><title>String_Bow&#45;&gt;ShortBow_C</title>
<path fill="none" stroke="black" d="M132.148,-87.2067C123.146,-74.8663 110.767,-57.8941 100.608,-43.9675"/>
<polygon fill="black" stroke="black" points="103.341,-41.775 94.6205,-35.7584 97.6859,-45.9001 103.341,-41.775"/>
<text text-anchor="middle" x="144.397" y="-57.8" font-family="Times New Roman,serif" font-size="14.00">Crafting 3</text>
</g>
<!-- Branch -->
<g id="node3" class="node"><title>Branch</title>
<ellipse fill="none" stroke="black" cx="36.3968" cy="-105" rx="36.2938" ry="18"/>
<text text-anchor="middle" x="36.3968" y="-101.3" font-family="Times New Roman,serif" font-size="14.00">Branch</text>
</g>
<!-- Branch&#45;&gt;ShortBow_C -->
<g id="edge2" class="edge"><title>Branch&#45;&gt;ShortBow_C</title>
<path fill="none" stroke="black" d="M39.5549,-87.0662C41.8856,-77.0257 45.6642,-64.2929 51.3968,-54 53.4851,-50.2504 56.0332,-46.5566 58.7621,-43.0555"/>
<polygon fill="black" stroke="black" points="61.5371,-45.1945 65.3264,-35.3005 56.1941,-40.672 61.5371,-45.1945"/>
<text text-anchor="middle" x="79.3968" y="-57.8" font-family="Times New Roman,serif" font-size="14.00">Crafting 3</text>
</g>
<!-- Sinew -->
<g id="node4" class="node"><title>Sinew</title>
<ellipse fill="none" stroke="black" cx="144.397" cy="-192" rx="32.4942" ry="18"/>
<text text-anchor="middle" x="144.397" y="-188.3" font-family="Times New Roman,serif" font-size="14.00">Sinew</text>
</g>
<!-- Sinew&#45;&gt;String_Bow -->
<g id="edge3" class="edge"><title>Sinew&#45;&gt;String_Bow</title>
<path fill="none" stroke="black" d="M144.397,-173.799C144.397,-162.163 144.397,-146.548 144.397,-133.237"/>
<polygon fill="black" stroke="black" points="147.897,-133.175 144.397,-123.175 140.897,-133.175 147.897,-133.175"/>
<text text-anchor="middle" x="172.397" y="-144.8" font-family="Times New Roman,serif" font-size="14.00">Crafting 0</text>
</g>
</g>
</svg>
