<?xml version="1.0" encoding="UTF-8" standalone="no"?>
<!DOCTYPE svg PUBLIC "-//W3C//DTD SVG 1.1//EN"
 "http://www.w3.org/Graphics/SVG/1.1/DTD/svg11.dtd">
<!-- Generated by graphviz version 2.38.0 (20140413.2041)
 -->
<!-- Title: G Pages: 1 -->
<svg width="1289pt" height="566pt"
 viewBox="0.00 0.00 1289.00 566.00" xmlns="http://www.w3.org/2000/svg" xmlns:xlink="http://www.w3.org/1999/xlink">
<g id="graph0" class="graph" transform="scale(1 1) rotate(0) translate(4 562)">
<title>G</title>
<polygon fill="white" stroke="none" points="-4,4 -4,-562 1285,-562 1285,4 -4,4"/>
<!-- Log -->
<g id="node1" class="node"><title>Log</title>
<ellipse fill="none" stroke="black" cx="27" cy="-540" rx="27" ry="18"/>
<text text-anchor="middle" x="27" y="-536.3" font-family="Times New Roman,serif" font-size="14.00">Log</text>
</g>
<!-- Scraps_Wood -->
<g id="node20" class="node"><title>Scraps_Wood</title>
<ellipse fill="none" stroke="black" cx="104" cy="-453" rx="64.189" ry="18"/>
<text text-anchor="middle" x="104" y="-449.3" font-family="Times New Roman,serif" font-size="14.00">Scraps_Wood</text>
</g>
<!-- Log&#45;&gt;Scraps_Wood -->
<g id="edge1" class="edge"><title>Log&#45;&gt;Scraps_Wood</title>
<path fill="none" stroke="black" d="M30.119,-521.78C32.7005,-511.389 37.2437,-498.389 45,-489 49.7455,-483.256 55.6953,-478.229 61.9773,-473.911"/>
<polygon fill="black" stroke="black" points="64.0539,-476.74 70.6677,-468.463 60.3359,-470.809 64.0539,-476.74"/>
<text text-anchor="middle" x="73" y="-492.8" font-family="Times New Roman,serif" font-size="14.00">Crafting 0</text>
</g>
<!-- Scraps_Wood_A_Mush -->
<g id="node2" class="node"><title>Scraps_Wood_A_Mush</title>
<ellipse fill="none" stroke="black" cx="365" cy="-366" rx="100.983" ry="18"/>
<text text-anchor="middle" x="365" y="-362.3" font-family="Times New Roman,serif" font-size="14.00">Scraps_Wood_A_Mush</text>
</g>
<!-- BOOK_Paper_Sheet -->
<g id="node8" class="node"><title>BOOK_Paper_Sheet</title>
<ellipse fill="none" stroke="black" cx="584" cy="-279" rx="87.1846" ry="18"/>
<text text-anchor="middle" x="584" y="-275.3" font-family="Times New Roman,serif" font-size="14.00">BOOK_Paper_Sheet</text>
</g>
<!-- Scraps_Wood_A_Mush&#45;&gt;BOOK_Paper_Sheet -->
<g id="edge2" class="edge"><title>Scraps_Wood_A_Mush&#45;&gt;BOOK_Paper_Sheet</title>
<path fill="none" stroke="black" d="M405.168,-349.41C441.823,-335.183 496.087,-314.121 535.22,-298.933"/>
<polygon fill="black" stroke="black" points="536.767,-302.087 544.824,-295.205 534.235,-295.561 536.767,-302.087"/>
<text text-anchor="middle" x="516" y="-318.8" font-family="Times New Roman,serif" font-size="14.00">Crafting 0</text>
</g>
<!-- Pouch_Dust_Bone -->
<g id="node3" class="node"><title>Pouch_Dust_Bone</title>
<ellipse fill="none" stroke="black" cx="782" cy="-366" rx="79.8859" ry="18"/>
<text text-anchor="middle" x="782" y="-362.3" font-family="Times New Roman,serif" font-size="14.00">Pouch_Dust_Bone</text>
</g>
<!-- Pouch_Dust_Pixie -->
<g id="node12" class="node"><title>Pouch_Dust_Pixie</title>
<ellipse fill="none" stroke="black" cx="824" cy="-279" rx="78.7863" ry="18"/>
<text text-anchor="middle" x="824" y="-275.3" font-family="Times New Roman,serif" font-size="14.00">Pouch_Dust_Pixie</text>
</g>
<!-- Pouch_Dust_Bone&#45;&gt;Pouch_Dust_Pixie -->
<g id="edge3" class="edge"><title>Pouch_Dust_Bone&#45;&gt;Pouch_Dust_Pixie</title>
<path fill="none" stroke="black" d="M790.499,-347.799C796.363,-335.932 804.271,-319.928 810.931,-306.449"/>
<polygon fill="black" stroke="black" points="814.221,-307.691 815.513,-297.175 807.946,-304.59 814.221,-307.691"/>
<text text-anchor="middle" x="833" y="-318.8" font-family="Times New Roman,serif" font-size="14.00">Crafting 0</text>
</g>
<!-- Bucket_A_Water -->
<g id="node4" class="node"><title>Bucket_A_Water</title>
<ellipse fill="none" stroke="black" cx="456" cy="-453" rx="74.187" ry="18"/>
<text text-anchor="middle" x="456" y="-449.3" font-family="Times New Roman,serif" font-size="14.00">Bucket_A_Water</text>
</g>
<!-- Bucket_A_Water&#45;&gt;Scraps_Wood_A_Mush -->
<g id="edge4" class="edge"><title>Bucket_A_Water&#45;&gt;Scraps_Wood_A_Mush</title>
<path fill="none" stroke="black" d="M438.021,-435.207C424.436,-422.517 405.607,-404.93 390.472,-390.793"/>
<polygon fill="black" stroke="black" points="392.638,-388.027 382.941,-383.758 387.86,-393.142 392.638,-388.027"/>
<text text-anchor="middle" x="444" y="-405.8" font-family="Times New Roman,serif" font-size="14.00">Crafting 0</text>
</g>
<!-- BOOK_Skill_Earth_Blank -->
<g id="node5" class="node"><title>BOOK_Skill_Earth_Blank</title>
<ellipse fill="none" stroke="black" cx="723" cy="-105" rx="106.681" ry="18"/>
<text text-anchor="middle" x="723" y="-101.3" font-family="Times New Roman,serif" font-size="14.00">BOOK_Skill_Earth_Blank</text>
</g>
<!-- SKILLBOOK_Cone_OozeSpray -->
<g id="node21" class="node"><title>SKILLBOOK_Cone_OozeSpray</title>
<ellipse fill="none" stroke="black" cx="873" cy="-18" rx="131.877" ry="18"/>
<text text-anchor="middle" x="873" y="-14.3" font-family="Times New Roman,serif" font-size="14.00">SKILLBOOK_Cone_OozeSpray</text>
</g>
<!-- BOOK_Skill_Earth_Blank&#45;&gt;SKILLBOOK_Cone_OozeSpray -->
<g id="edge6" class="edge"><title>BOOK_Skill_Earth_Blank&#45;&gt;SKILLBOOK_Cone_OozeSpray</title>
<path fill="none" stroke="black" d="M751.922,-87.6111C775.529,-74.2334 809.082,-55.2201 834.882,-40.6002"/>
<polygon fill="black" stroke="black" points="836.681,-43.6038 843.655,-35.6286 833.23,-37.5137 836.681,-43.6038"/>
<text text-anchor="middle" x="834" y="-57.8" font-family="Times New Roman,serif" font-size="14.00">Crafting 4</text>
</g>
<!-- Herb_Stardust -->
<g id="node6" class="node"><title>Herb_Stardust</title>
<ellipse fill="none" stroke="black" cx="923" cy="-453" rx="63.8893" ry="18"/>
<text text-anchor="middle" x="923" y="-449.3" font-family="Times New Roman,serif" font-size="14.00">Herb_Stardust</text>
</g>
<!-- Pouch_Dust_Star -->
<g id="node16" class="node"><title>Pouch_Dust_Star</title>
<ellipse fill="none" stroke="black" cx="955" cy="-366" rx="75.2868" ry="18"/>
<text text-anchor="middle" x="955" y="-362.3" font-family="Times New Roman,serif" font-size="14.00">Pouch_Dust_Star</text>
</g>
<!-- Herb_Stardust&#45;&gt;Pouch_Dust_Star -->
<g id="edge5" class="edge"><title>Herb_Stardust&#45;&gt;Pouch_Dust_Star</title>
<path fill="none" stroke="black" d="M914.954,-434.689C911.522,-424.752 909.272,-412.252 914,-402 915.949,-397.775 918.687,-393.87 921.834,-390.322"/>
<polygon fill="black" stroke="black" points="924.498,-392.614 929.231,-383.135 919.62,-387.593 924.498,-392.614"/>
<text text-anchor="middle" x="942" y="-405.8" font-family="Times New Roman,serif" font-size="14.00">Crafting 0</text>
</g>
<!-- Pouch_Dust_Moon -->
<g id="node7" class="node"><title>Pouch_Dust_Moon</title>
<ellipse fill="none" stroke="black" cx="1150" cy="-366" rx="83.3857" ry="18"/>
<text text-anchor="middle" x="1150" y="-362.3" font-family="Times New Roman,serif" font-size="14.00">Pouch_Dust_Moon</text>
</g>
<!-- Pouch_Dust_Moon&#45;&gt;Pouch_Dust_Pixie -->
<g id="edge7" class="edge"><title>Pouch_Dust_Moon&#45;&gt;Pouch_Dust_Pixie</title>
<path fill="none" stroke="black" d="M1099.06,-351.719C1040.79,-336.526 945.493,-311.678 883.764,-295.583"/>
<polygon fill="black" stroke="black" points="884.338,-292.115 873.778,-292.979 882.572,-298.889 884.338,-292.115"/>
<text text-anchor="middle" x="1034" y="-318.8" font-family="Times New Roman,serif" font-size="14.00">Crafting 0</text>
</g>
<!-- Scroll_Skill_Earth_Blank -->
<g id="node22" class="node"><title>Scroll_Skill_Earth_Blank</title>
<ellipse fill="none" stroke="black" cx="723" cy="-192" rx="102.082" ry="18"/>
<text text-anchor="middle" x="723" y="-188.3" font-family="Times New Roman,serif" font-size="14.00">Scroll_Skill_Earth_Blank</text>
</g>
<!-- BOOK_Paper_Sheet&#45;&gt;Scroll_Skill_Earth_Blank -->
<g id="edge8" class="edge"><title>BOOK_Paper_Sheet&#45;&gt;Scroll_Skill_Earth_Blank</title>
<path fill="none" stroke="black" d="M610.472,-261.812C632.264,-248.486 663.361,-229.47 687.344,-214.804"/>
<polygon fill="black" stroke="black" points="689.448,-217.62 696.153,-209.417 685.796,-211.648 689.448,-217.62"/>
<text text-anchor="middle" x="690" y="-231.8" font-family="Times New Roman,serif" font-size="14.00">Crafting 1</text>
</g>
<!-- SCROLL_OozeSpray_1 -->
<g id="node9" class="node"><title>SCROLL_OozeSpray_1</title>
<ellipse fill="none" stroke="black" cx="949" cy="-105" rx="101.282" ry="18"/>
<text text-anchor="middle" x="949" y="-101.3" font-family="Times New Roman,serif" font-size="14.00">SCROLL_OozeSpray_1</text>
</g>
<!-- SCROLL_OozeSpray_1&#45;&gt;SKILLBOOK_Cone_OozeSpray -->
<g id="edge9" class="edge"><title>SCROLL_OozeSpray_1&#45;&gt;SKILLBOOK_Cone_OozeSpray</title>
<path fill="none" stroke="black" d="M933.62,-86.799C922.525,-74.3902 907.386,-57.4575 895.012,-43.6185"/>
<polygon fill="black" stroke="black" points="897.372,-41.0072 888.097,-35.8854 892.154,-45.673 897.372,-41.0072"/>
<text text-anchor="middle" x="943" y="-57.8" font-family="Times New Roman,serif" font-size="14.00">Crafting 4</text>
</g>
<!-- Well_A_Snow -->
<g id="node10" class="node"><title>Well_A_Snow</title>
<ellipse fill="none" stroke="black" cx="222" cy="-540" rx="64.189" ry="18"/>
<text text-anchor="middle" x="222" y="-536.3" font-family="Times New Roman,serif" font-size="14.00">Well_A_Snow</text>
</g>
<!-- Well_A_Snow&#45;&gt;Scraps_Wood_A_Mush -->
<g id="edge10" class="edge"><title>Well_A_Snow&#45;&gt;Scraps_Wood_A_Mush</title>
<path fill="none" stroke="black" d="M223.545,-521.818C226.309,-499.683 233.851,-460.971 254,-435 270.121,-414.22 294.524,-398.281 316.347,-387.075"/>
<polygon fill="black" stroke="black" points="318.086,-390.12 325.51,-382.562 314.993,-383.841 318.086,-390.12"/>
<text text-anchor="middle" x="282" y="-449.3" font-family="Times New Roman,serif" font-size="14.00">Crafting 0</text>
</g>
<!-- Well_A_Snow&#45;&gt;Bucket_A_Water -->
<g id="edge11" class="edge"><title>Well_A_Snow&#45;&gt;Bucket_A_Water</title>
<path fill="none" stroke="black" d="M239.089,-522.638C251.659,-511.505 269.681,-497.332 288,-489 292.869,-486.785 345.163,-476.037 390.13,-467.029"/>
<polygon fill="black" stroke="black" points="391.063,-470.412 400.183,-465.02 389.691,-463.548 391.063,-470.412"/>
<text text-anchor="middle" x="316" y="-492.8" font-family="Times New Roman,serif" font-size="14.00">Crafting 0</text>
</g>
<!-- Skull_Human -->
<g id="node11" class="node"><title>Skull_Human</title>
<ellipse fill="none" stroke="black" cx="782" cy="-453" rx="59.5901" ry="18"/>
<text text-anchor="middle" x="782" y="-449.3" font-family="Times New Roman,serif" font-size="14.00">Skull_Human</text>
</g>
<!-- Skull_Human&#45;&gt;Pouch_Dust_Bone -->
<g id="edge12" class="edge"><title>Skull_Human&#45;&gt;Pouch_Dust_Bone</title>
<path fill="none" stroke="black" d="M782,-434.799C782,-423.163 782,-407.548 782,-394.237"/>
<polygon fill="black" stroke="black" points="785.5,-394.175 782,-384.175 778.5,-394.175 785.5,-394.175"/>
<text text-anchor="middle" x="810" y="-405.8" font-family="Times New Roman,serif" font-size="14.00">Crafting 0</text>
</g>
<!-- Pouch_Dust_Pixie&#45;&gt;Scroll_Skill_Earth_Blank -->
<g id="edge13" class="edge"><title>Pouch_Dust_Pixie&#45;&gt;Scroll_Skill_Earth_Blank</title>
<path fill="none" stroke="black" d="M804.046,-261.207C788.829,-248.401 767.685,-230.607 750.81,-216.404"/>
<polygon fill="black" stroke="black" points="752.818,-213.52 742.913,-209.758 748.31,-218.875 752.818,-213.52"/>
<text text-anchor="middle" x="807" y="-231.8" font-family="Times New Roman,serif" font-size="14.00">Crafting 1</text>
</g>
<!-- Well -->
<g id="node13" class="node"><title>Well</title>
<ellipse fill="none" stroke="black" cx="336" cy="-540" rx="27.0966" ry="18"/>
<text text-anchor="middle" x="336" y="-536.3" font-family="Times New Roman,serif" font-size="14.00">Well</text>
</g>
<!-- Well&#45;&gt;Scraps_Wood_A_Mush -->
<g id="edge14" class="edge"><title>Well&#45;&gt;Scraps_Wood_A_Mush</title>
<path fill="none" stroke="black" d="M328.121,-522.476C319.31,-501.694 307.45,-465.09 317,-435 322.044,-419.109 332.291,-403.73 342.026,-391.629"/>
<polygon fill="black" stroke="black" points="344.848,-393.712 348.615,-383.809 339.495,-389.201 344.848,-393.712"/>
<text text-anchor="middle" x="345" y="-449.3" font-family="Times New Roman,serif" font-size="14.00">Crafting 0</text>
</g>
<!-- Well&#45;&gt;Bucket_A_Water -->
<g id="edge15" class="edge"><title>Well&#45;&gt;Bucket_A_Water</title>
<path fill="none" stroke="black" d="M339.747,-522.134C342.941,-511.35 348.56,-497.788 358,-489 367.391,-480.258 379.113,-473.673 391.15,-468.72"/>
<polygon fill="black" stroke="black" points="392.699,-471.877 400.833,-465.089 390.24,-465.323 392.699,-471.877"/>
<text text-anchor="middle" x="386" y="-492.8" font-family="Times New Roman,serif" font-size="14.00">Crafting 0</text>
</g>
<!-- Bucket -->
<g id="node14" class="node"><title>Bucket</title>
<ellipse fill="none" stroke="black" cx="420" cy="-540" rx="36.2938" ry="18"/>
<text text-anchor="middle" x="420" y="-536.3" font-family="Times New Roman,serif" font-size="14.00">Bucket</text>
</g>
<!-- Bucket&#45;&gt;Bucket_A_Water -->
<g id="edge16" class="edge"><title>Bucket&#45;&gt;Bucket_A_Water</title>
<path fill="none" stroke="black" d="M417.233,-521.668C416.395,-511.724 416.645,-499.224 421,-489 422.667,-485.087 424.998,-481.378 427.674,-477.941"/>
<polygon fill="black" stroke="black" points="430.323,-480.229 434.393,-470.447 425.111,-475.556 430.323,-480.229"/>
<text text-anchor="middle" x="449" y="-492.8" font-family="Times New Roman,serif" font-size="14.00">Crafting 0</text>
</g>
<!-- Moonstone -->
<g id="node15" class="node"><title>Moonstone</title>
<ellipse fill="none" stroke="black" cx="1229" cy="-453" rx="51.9908" ry="18"/>
<text text-anchor="middle" x="1229" y="-449.3" font-family="Times New Roman,serif" font-size="14.00">Moonstone</text>
</g>
<!-- Moonstone&#45;&gt;Pouch_Dust_Moon -->
<g id="edge17" class="edge"><title>Moonstone&#45;&gt;Pouch_Dust_Moon</title>
<path fill="none" stroke="black" d="M1224.31,-434.811C1220.82,-424.432 1215.23,-411.434 1207,-402 1202.54,-396.885 1197.14,-392.281 1191.47,-388.221"/>
<polygon fill="black" stroke="black" points="1193.32,-385.247 1183.04,-382.667 1189.47,-391.092 1193.32,-385.247"/>
<text text-anchor="middle" x="1244" y="-405.8" font-family="Times New Roman,serif" font-size="14.00">Crafting 0</text>
</g>
<!-- Pouch_Dust_Star&#45;&gt;Pouch_Dust_Pixie -->
<g id="edge18" class="edge"><title>Pouch_Dust_Star&#45;&gt;Pouch_Dust_Pixie</title>
<path fill="none" stroke="black" d="M930.052,-348.812C909.473,-335.46 880.091,-316.395 857.47,-301.717"/>
<polygon fill="black" stroke="black" points="859.15,-298.635 848.856,-296.128 855.339,-304.507 859.15,-298.635"/>
<text text-anchor="middle" x="925" y="-318.8" font-family="Times New Roman,serif" font-size="14.00">Crafting 0</text>
</g>
<!-- Axe -->
<g id="node17" class="node"><title>Axe</title>
<ellipse fill="none" stroke="black" cx="106" cy="-540" rx="27" ry="18"/>
<text text-anchor="middle" x="106" y="-536.3" font-family="Times New Roman,serif" font-size="14.00">Axe</text>
</g>
<!-- Axe&#45;&gt;Scraps_Wood -->
<g id="edge19" class="edge"><title>Axe&#45;&gt;Scraps_Wood</title>
<path fill="none" stroke="black" d="M105.595,-521.799C105.321,-510.163 104.954,-494.548 104.641,-481.237"/>
<polygon fill="black" stroke="black" points="108.138,-481.09 104.404,-471.175 101.14,-481.255 108.138,-481.09"/>
<text text-anchor="middle" x="134" y="-492.8" font-family="Times New Roman,serif" font-size="14.00">Crafting 0</text>
</g>
<!-- Barrel -->
<g id="node18" class="node"><title>Barrel</title>
<ellipse fill="none" stroke="black" cx="538" cy="-540" rx="32.4942" ry="18"/>
<text text-anchor="middle" x="538" y="-536.3" font-family="Times New Roman,serif" font-size="14.00">Barrel</text>
</g>
<!-- Barrel&#45;&gt;Scraps_Wood_A_Mush -->
<g id="edge20" class="edge"><title>Barrel&#45;&gt;Scraps_Wood_A_Mush</title>
<path fill="none" stroke="black" d="M548.306,-522.898C551.417,-517.163 554.425,-510.508 556,-504 563.431,-473.303 559.265,-459.225 539,-435 515.987,-407.491 480.388,-391.059 447.37,-381.268"/>
<polygon fill="black" stroke="black" points="448.256,-377.881 437.683,-378.558 446.37,-384.623 448.256,-377.881"/>
<text text-anchor="middle" x="587" y="-449.3" font-family="Times New Roman,serif" font-size="14.00">Crafting 0</text>
</g>
<!-- Barrel&#45;&gt;Bucket_A_Water -->
<g id="edge21" class="edge"><title>Barrel&#45;&gt;Bucket_A_Water</title>
<path fill="none" stroke="black" d="M521.373,-524.377C514.593,-518.238 506.771,-510.927 500,-504 492.24,-496.062 484.113,-487.047 476.985,-478.878"/>
<polygon fill="black" stroke="black" points="479.423,-476.346 470.24,-471.062 474.124,-480.92 479.423,-476.346"/>
<text text-anchor="middle" x="528" y="-492.8" font-family="Times New Roman,serif" font-size="14.00">Crafting 0</text>
</g>
<!-- Bone -->
<g id="node19" class="node"><title>Bone</title>
<ellipse fill="none" stroke="black" cx="674" cy="-453" rx="29.795" ry="18"/>
<text text-anchor="middle" x="674" y="-449.3" font-family="Times New Roman,serif" font-size="14.00">Bone</text>
</g>
<!-- Bone&#45;&gt;Pouch_Dust_Bone -->
<g id="edge22" class="edge"><title>Bone&#45;&gt;Pouch_Dust_Bone</title>
<path fill="none" stroke="black" d="M686.877,-436.471C696.024,-425.999 708.953,-412.272 722,-402 728.329,-397.017 735.44,-392.252 742.495,-387.929"/>
<polygon fill="black" stroke="black" points="744.505,-390.807 751.336,-382.709 740.946,-384.779 744.505,-390.807"/>
<text text-anchor="middle" x="750" y="-405.8" font-family="Times New Roman,serif" font-size="14.00">Crafting 0</text>
</g>
<!-- Scraps_Wood&#45;&gt;Scraps_Wood_A_Mush -->
<g id="edge23" class="edge"><title>Scraps_Wood&#45;&gt;Scraps_Wood_A_Mush</title>
<path fill="none" stroke="black" d="M109.849,-434.881C114.584,-423.699 122.395,-409.777 134,-402 155.047,-387.897 210.559,-379.223 261.888,-374.039"/>
<polygon fill="black" stroke="black" points="262.472,-377.499 272.087,-373.048 261.795,-370.531 262.472,-377.499"/>
<text text-anchor="middle" x="162" y="-405.8" font-family="Times New Roman,serif" font-size="14.00">Crafting 0</text>
</g>
<!-- Scroll_Skill_Earth_Blank&#45;&gt;BOOK_Skill_Earth_Blank -->
<g id="edge24" class="edge"><title>Scroll_Skill_Earth_Blank&#45;&gt;BOOK_Skill_Earth_Blank</title>
<path fill="none" stroke="black" d="M723,-173.799C723,-162.163 723,-146.548 723,-133.237"/>
<polygon fill="black" stroke="black" points="726.5,-133.175 723,-123.175 719.5,-133.175 726.5,-133.175"/>
<text text-anchor="middle" x="751" y="-144.8" font-family="Times New Roman,serif" font-size="14.00">Crafting 5</text>
</g>
<!-- Oven -->
<g id="node23" class="node"><title>Oven</title>
<ellipse fill="none" stroke="black" cx="584" cy="-366" rx="30.5947" ry="18"/>
<text text-anchor="middle" x="584" y="-362.3" font-family="Times New Roman,serif" font-size="14.00">Oven</text>
</g>
<!-- Oven&#45;&gt;BOOK_Paper_Sheet -->
<g id="edge25" class="edge"><title>Oven&#45;&gt;BOOK_Paper_Sheet</title>
<path fill="none" stroke="black" d="M584,-347.799C584,-336.163 584,-320.548 584,-307.237"/>
<polygon fill="black" stroke="black" points="587.5,-307.175 584,-297.175 580.5,-307.175 587.5,-307.175"/>
<text text-anchor="middle" x="612" y="-318.8" font-family="Times New Roman,serif" font-size="14.00">Crafting 0</text>
</g>
<!-- MortarPestle -->
<g id="node24" class="node"><title>MortarPestle</title>
<ellipse fill="none" stroke="black" cx="1071" cy="-453" rx="57.3905" ry="18"/>
<text text-anchor="middle" x="1071" y="-449.3" font-family="Times New Roman,serif" font-size="14.00">MortarPestle</text>
</g>
<!-- MortarPestle&#45;&gt;Pouch_Dust_Bone -->
<g id="edge26" class="edge"><title>MortarPestle&#45;&gt;Pouch_Dust_Bone</title>
<path fill="none" stroke="black" d="M1034.88,-438.99C1020.21,-433.098 1003.37,-425.535 989,-417 979.749,-411.507 979.806,-406.427 970,-402 929.24,-383.598 914.964,-392.195 871,-384 864.454,-382.78 857.64,-381.498 850.825,-380.209"/>
<polygon fill="black" stroke="black" points="851.348,-376.746 840.871,-378.321 850.043,-383.623 851.348,-376.746"/>
<text text-anchor="middle" x="1017" y="-405.8" font-family="Times New Roman,serif" font-size="14.00">Crafting 0</text>
</g>
<!-- MortarPestle&#45;&gt;Pouch_Dust_Moon -->
<g id="edge28" class="edge"><title>MortarPestle&#45;&gt;Pouch_Dust_Moon</title>
<path fill="none" stroke="black" d="M1101.67,-437.747C1111.03,-432.276 1120.75,-425.313 1128,-417 1133.85,-410.293 1138.37,-401.785 1141.74,-393.697"/>
<polygon fill="black" stroke="black" points="1145.07,-394.781 1145.31,-384.189 1138.52,-392.324 1145.07,-394.781"/>
<text text-anchor="middle" x="1165" y="-405.8" font-family="Times New Roman,serif" font-size="14.00">Crafting 0</text>
</g>
<!-- MortarPestle&#45;&gt;Pouch_Dust_Star -->
<g id="edge27" class="edge"><title>MortarPestle&#45;&gt;Pouch_Dust_Star</title>
<path fill="none" stroke="black" d="M1067.07,-434.699C1063.84,-424.012 1058.24,-410.721 1049,-402 1040.29,-393.784 1029.48,-387.456 1018.33,-382.596"/>
<polygon fill="black" stroke="black" points="1019.5,-379.295 1008.91,-378.849 1016.91,-385.799 1019.5,-379.295"/>
<text text-anchor="middle" x="1087" y="-405.8" font-family="Times New Roman,serif" font-size="14.00">Crafting 0</text>
</g>
</g>
</svg>
