<?xml version="1.0" encoding="UTF-8" standalone="no"?>
<!DOCTYPE svg PUBLIC "-//W3C//DTD SVG 1.1//EN"
 "http://www.w3.org/Graphics/SVG/1.1/DTD/svg11.dtd">
<!-- Generated by graphviz version 2.38.0 (20140413.2041)
 -->
<!-- Title: G Pages: 1 -->
<svg width="1621pt" height="566pt"
 viewBox="0.00 0.00 1621.34 566.00" xmlns="http://www.w3.org/2000/svg" xmlns:xlink="http://www.w3.org/1999/xlink">
<g id="graph0" class="graph" transform="scale(1 1) rotate(0) translate(4 562)">
<title>G</title>
<polygon fill="white" stroke="none" points="-4,4 -4,-562 1617.34,-562 1617.34,4 -4,4"/>
<!-- Pouch_Dust_Pixie -->
<g id="node1" class="node"><title>Pouch_Dust_Pixie</title>
<ellipse fill="none" stroke="black" cx="966.344" cy="-279" rx="78.7863" ry="18"/>
<text text-anchor="middle" x="966.344" y="-275.3" font-family="Times New Roman,serif" font-size="14.00">Pouch_Dust_Pixie</text>
</g>
<!-- Ink_Pot_A_Quill_A_Magic -->
<g id="node13" class="node"><title>Ink_Pot_A_Quill_A_Magic</title>
<ellipse fill="none" stroke="black" cx="1088.34" cy="-192" rx="111.581" ry="18"/>
<text text-anchor="middle" x="1088.34" y="-188.3" font-family="Times New Roman,serif" font-size="14.00">Ink_Pot_A_Quill_A_Magic</text>
</g>
<!-- Pouch_Dust_Pixie&#45;&gt;Ink_Pot_A_Quill_A_Magic -->
<g id="edge17" class="edge"><title>Pouch_Dust_Pixie&#45;&gt;Ink_Pot_A_Quill_A_Magic</title>
<path fill="none" stroke="black" d="M989.867,-261.611C1008.73,-248.467 1035.41,-229.883 1056.24,-215.37"/>
<polygon fill="black" stroke="black" points="1058.27,-218.217 1064.48,-209.629 1054.27,-212.473 1058.27,-218.217"/>
<text text-anchor="middle" x="1063.34" y="-231.8" font-family="Times New Roman,serif" font-size="14.00">Crafting 1</text>
</g>
<!-- Scroll_Skill_Fire_Blank -->
<g id="node21" class="node"><title>Scroll_Skill_Fire_Blank</title>
<ellipse fill="none" stroke="black" cx="861.344" cy="-192" rx="96.6831" ry="18"/>
<text text-anchor="middle" x="861.344" y="-188.3" font-family="Times New Roman,serif" font-size="14.00">Scroll_Skill_Fire_Blank</text>
</g>
<!-- Pouch_Dust_Pixie&#45;&gt;Scroll_Skill_Fire_Blank -->
<g id="edge18" class="edge"><title>Pouch_Dust_Pixie&#45;&gt;Scroll_Skill_Fire_Blank</title>
<path fill="none" stroke="black" d="M945.85,-261.409C930.053,-248.621 908.004,-230.773 890.39,-216.513"/>
<polygon fill="black" stroke="black" points="892.12,-213.411 882.146,-209.839 887.716,-218.852 892.12,-213.411"/>
<text text-anchor="middle" x="948.344" y="-231.8" font-family="Times New Roman,serif" font-size="14.00">Crafting 1</text>
</g>
<!-- Log -->
<g id="node2" class="node"><title>Log</title>
<ellipse fill="none" stroke="black" cx="535.344" cy="-540" rx="27" ry="18"/>
<text text-anchor="middle" x="535.344" y="-536.3" font-family="Times New Roman,serif" font-size="14.00">Log</text>
</g>
<!-- Scraps_Wood -->
<g id="node27" class="node"><title>Scraps_Wood</title>
<ellipse fill="none" stroke="black" cx="574.344" cy="-453" rx="64.189" ry="18"/>
<text text-anchor="middle" x="574.344" y="-449.3" font-family="Times New Roman,serif" font-size="14.00">Scraps_Wood</text>
</g>
<!-- Log&#45;&gt;Scraps_Wood -->
<g id="edge2" class="edge"><title>Log&#45;&gt;Scraps_Wood</title>
<path fill="none" stroke="black" d="M532.464,-522.065C531.523,-512.024 531.709,-499.291 536.344,-489 538.218,-484.84 540.848,-480.95 543.86,-477.389"/>
<polygon fill="black" stroke="black" points="546.45,-479.746 550.916,-470.138 541.434,-474.864 546.45,-479.746"/>
<text text-anchor="middle" x="564.344" y="-492.8" font-family="Times New Roman,serif" font-size="14.00">Crafting 0</text>
</g>
<!-- Scraps_Wood_A_Mush -->
<g id="node3" class="node"><title>Scraps_Wood_A_Mush</title>
<ellipse fill="none" stroke="black" cx="384.344" cy="-366" rx="100.983" ry="18"/>
<text text-anchor="middle" x="384.344" y="-362.3" font-family="Times New Roman,serif" font-size="14.00">Scraps_Wood_A_Mush</text>
</g>
<!-- BOOK_Paper_Sheet -->
<g id="node11" class="node"><title>BOOK_Paper_Sheet</title>
<ellipse fill="none" stroke="black" cx="384.344" cy="-279" rx="87.1846" ry="18"/>
<text text-anchor="middle" x="384.344" y="-275.3" font-family="Times New Roman,serif" font-size="14.00">BOOK_Paper_Sheet</text>
</g>
<!-- Scraps_Wood_A_Mush&#45;&gt;BOOK_Paper_Sheet -->
<g id="edge3" class="edge"><title>Scraps_Wood_A_Mush&#45;&gt;BOOK_Paper_Sheet</title>
<path fill="none" stroke="black" d="M384.344,-347.799C384.344,-336.163 384.344,-320.548 384.344,-307.237"/>
<polygon fill="black" stroke="black" points="387.844,-307.175 384.344,-297.175 380.844,-307.175 387.844,-307.175"/>
<text text-anchor="middle" x="412.344" y="-318.8" font-family="Times New Roman,serif" font-size="14.00">Crafting 0</text>
</g>
<!-- Pouch_Dust_Bone -->
<g id="node4" class="node"><title>Pouch_Dust_Bone</title>
<ellipse fill="none" stroke="black" cx="1143.34" cy="-366" rx="79.8859" ry="18"/>
<text text-anchor="middle" x="1143.34" y="-362.3" font-family="Times New Roman,serif" font-size="14.00">Pouch_Dust_Bone</text>
</g>
<!-- Pouch_Dust_Bone&#45;&gt;Pouch_Dust_Pixie -->
<g id="edge4" class="edge"><title>Pouch_Dust_Bone&#45;&gt;Pouch_Dust_Pixie</title>
<path fill="none" stroke="black" d="M1110.88,-349.41C1081.94,-335.511 1039.41,-315.089 1007.98,-299.993"/>
<polygon fill="black" stroke="black" points="1009.13,-296.665 998.603,-295.491 1006.1,-302.976 1009.13,-296.665"/>
<text text-anchor="middle" x="1094.34" y="-318.8" font-family="Times New Roman,serif" font-size="14.00">Crafting 0</text>
</g>
<!-- Bucket_A_Water -->
<g id="node5" class="node"><title>Bucket_A_Water</title>
<ellipse fill="none" stroke="black" cx="222.344" cy="-453" rx="74.187" ry="18"/>
<text text-anchor="middle" x="222.344" y="-449.3" font-family="Times New Roman,serif" font-size="14.00">Bucket_A_Water</text>
</g>
<!-- Bucket_A_Water&#45;&gt;Scraps_Wood_A_Mush -->
<g id="edge5" class="edge"><title>Bucket_A_Water&#45;&gt;Scraps_Wood_A_Mush</title>
<path fill="none" stroke="black" d="M232.178,-434.866C239.26,-423.97 249.763,-410.383 262.344,-402 275.131,-393.481 290.002,-387.006 304.875,-382.094"/>
<polygon fill="black" stroke="black" points="306.102,-385.378 314.626,-379.086 304.039,-378.689 306.102,-385.378"/>
<text text-anchor="middle" x="290.344" y="-405.8" font-family="Times New Roman,serif" font-size="14.00">Crafting 0</text>
</g>
<!-- Herb_Stardust -->
<g id="node6" class="node"><title>Herb_Stardust</title>
<ellipse fill="none" stroke="black" cx="1003.34" cy="-453" rx="63.8893" ry="18"/>
<text text-anchor="middle" x="1003.34" y="-449.3" font-family="Times New Roman,serif" font-size="14.00">Herb_Stardust</text>
</g>
<!-- Pouch_Dust_Star -->
<g id="node31" class="node"><title>Pouch_Dust_Star</title>
<ellipse fill="none" stroke="black" cx="966.344" cy="-366" rx="75.2868" ry="18"/>
<text text-anchor="middle" x="966.344" y="-362.3" font-family="Times New Roman,serif" font-size="14.00">Pouch_Dust_Star</text>
</g>
<!-- Herb_Stardust&#45;&gt;Pouch_Dust_Star -->
<g id="edge6" class="edge"><title>Herb_Stardust&#45;&gt;Pouch_Dust_Star</title>
<path fill="none" stroke="black" d="M1006.16,-434.645C1007.02,-424.693 1006.77,-412.193 1002.34,-402 1000.63,-398.042 998.225,-394.307 995.472,-390.855"/>
<polygon fill="black" stroke="black" points="997.907,-388.333 988.559,-383.346 992.757,-393.073 997.907,-388.333"/>
<text text-anchor="middle" x="1034.34" y="-405.8" font-family="Times New Roman,serif" font-size="14.00">Crafting 0</text>
</g>
<!-- Feather -->
<g id="node7" class="node"><title>Feather</title>
<ellipse fill="none" stroke="black" cx="1432.34" cy="-453" rx="37.8943" ry="18"/>
<text text-anchor="middle" x="1432.34" y="-449.3" font-family="Times New Roman,serif" font-size="14.00">Feather</text>
</g>
<!-- Feather_A_Quill -->
<g id="node19" class="node"><title>Feather_A_Quill</title>
<ellipse fill="none" stroke="black" cx="1421.34" cy="-366" rx="70.6878" ry="18"/>
<text text-anchor="middle" x="1421.34" y="-362.3" font-family="Times New Roman,serif" font-size="14.00">Feather_A_Quill</text>
</g>
<!-- Feather&#45;&gt;Feather_A_Quill -->
<g id="edge7" class="edge"><title>Feather&#45;&gt;Feather_A_Quill</title>
<path fill="none" stroke="black" d="M1430.12,-434.799C1428.61,-423.163 1426.59,-407.548 1424.87,-394.237"/>
<polygon fill="black" stroke="black" points="1428.32,-393.644 1423.57,-384.175 1421.38,-394.542 1428.32,-393.644"/>
<text text-anchor="middle" x="1455.34" y="-405.8" font-family="Times New Roman,serif" font-size="14.00">Crafting 0</text>
</g>
<!-- BOOK_Skill_Fire_Blank -->
<g id="node8" class="node"><title>BOOK_Skill_Fire_Blank</title>
<ellipse fill="none" stroke="black" cx="861.344" cy="-105" rx="101.282" ry="18"/>
<text text-anchor="middle" x="861.344" y="-101.3" font-family="Times New Roman,serif" font-size="14.00">BOOK_Skill_Fire_Blank</text>
</g>
<!-- SKILLBOOK_Projectile_Flare -->
<g id="node18" class="node"><title>SKILLBOOK_Projectile_Flare</title>
<ellipse fill="none" stroke="black" cx="974.344" cy="-18" rx="123.478" ry="18"/>
<text text-anchor="middle" x="974.344" y="-14.3" font-family="Times New Roman,serif" font-size="14.00">SKILLBOOK_Projectile_Flare</text>
</g>
<!-- BOOK_Skill_Fire_Blank&#45;&gt;SKILLBOOK_Projectile_Flare -->
<g id="edge8" class="edge"><title>BOOK_Skill_Fire_Blank&#45;&gt;SKILLBOOK_Projectile_Flare</title>
<path fill="none" stroke="black" d="M883.4,-87.4094C900.632,-74.447 924.777,-56.2848 943.858,-41.9318"/>
<polygon fill="black" stroke="black" points="946.07,-44.6477 951.958,-35.8393 941.862,-39.0536 946.07,-44.6477"/>
<text text-anchor="middle" x="953.344" y="-57.8" font-family="Times New Roman,serif" font-size="14.00">Crafting 4</text>
</g>
<!-- Knife -->
<g id="node9" class="node"><title>Knife</title>
<ellipse fill="none" stroke="black" cx="1335.34" cy="-540" rx="30.5947" ry="18"/>
<text text-anchor="middle" x="1335.34" y="-536.3" font-family="Times New Roman,serif" font-size="14.00">Knife</text>
</g>
<!-- Knife&#45;&gt;Feather -->
<g id="edge10" class="edge"><title>Knife&#45;&gt;Feather</title>
<path fill="none" stroke="black" d="M1344.9,-522.803C1351.65,-512.302 1361.41,-498.804 1372.34,-489 1379.81,-482.308 1388.75,-476.272 1397.43,-471.171"/>
<polygon fill="black" stroke="black" points="1399.28,-474.145 1406.29,-466.206 1395.86,-468.037 1399.28,-474.145"/>
<text text-anchor="middle" x="1400.34" y="-492.8" font-family="Times New Roman,serif" font-size="14.00">Crafting 0</text>
</g>
<!-- Knife&#45;&gt;Feather_A_Quill -->
<g id="edge9" class="edge"><title>Knife&#45;&gt;Feather_A_Quill</title>
<path fill="none" stroke="black" d="M1329.42,-522.102C1322.95,-500.609 1315.25,-462.936 1329.34,-435 1339.85,-414.18 1360.07,-398.154 1378.88,-386.904"/>
<polygon fill="black" stroke="black" points="1380.7,-389.897 1387.67,-381.919 1377.24,-383.808 1380.7,-389.897"/>
<text text-anchor="middle" x="1357.34" y="-449.3" font-family="Times New Roman,serif" font-size="14.00">Crafting 0</text>
</g>
<!-- Pouch_Dust_Moon -->
<g id="node10" class="node"><title>Pouch_Dust_Moon</title>
<ellipse fill="none" stroke="black" cx="787.344" cy="-366" rx="83.3857" ry="18"/>
<text text-anchor="middle" x="787.344" y="-362.3" font-family="Times New Roman,serif" font-size="14.00">Pouch_Dust_Moon</text>
</g>
<!-- Pouch_Dust_Moon&#45;&gt;Pouch_Dust_Pixie -->
<g id="edge11" class="edge"><title>Pouch_Dust_Moon&#45;&gt;Pouch_Dust_Pixie</title>
<path fill="none" stroke="black" d="M820.176,-349.41C849.571,-335.451 892.822,-314.913 924.653,-299.798"/>
<polygon fill="black" stroke="black" points="926.189,-302.943 933.721,-295.491 923.186,-296.619 926.189,-302.943"/>
<text text-anchor="middle" x="916.344" y="-318.8" font-family="Times New Roman,serif" font-size="14.00">Crafting 0</text>
</g>
<!-- BOOK_Paper_Sheet&#45;&gt;Scroll_Skill_Fire_Blank -->
<g id="edge12" class="edge"><title>BOOK_Paper_Sheet&#45;&gt;Scroll_Skill_Fire_Blank</title>
<path fill="none" stroke="black" d="M448.18,-266.625C535.133,-251.13 690.653,-223.417 784.085,-206.767"/>
<polygon fill="black" stroke="black" points="784.813,-210.193 794.044,-204.993 783.585,-203.301 784.813,-210.193"/>
<text text-anchor="middle" x="680.344" y="-231.8" font-family="Times New Roman,serif" font-size="14.00">Crafting 1</text>
</g>
<!-- Well_A_Snow -->
<g id="node12" class="node"><title>Well_A_Snow</title>
<ellipse fill="none" stroke="black" cx="64.3443" cy="-540" rx="64.189" ry="18"/>
<text text-anchor="middle" x="64.3443" y="-536.3" font-family="Times New Roman,serif" font-size="14.00">Well_A_Snow</text>
</g>
<!-- Well_A_Snow&#45;&gt;Scraps_Wood_A_Mush -->
<g id="edge13" class="edge"><title>Well_A_Snow&#45;&gt;Scraps_Wood_A_Mush</title>
<path fill="none" stroke="black" d="M62.1992,-521.708C60.3866,-498.726 60.9808,-458.311 83.3443,-435 98.6471,-419.049 219.323,-395.402 303.145,-380.612"/>
<polygon fill="black" stroke="black" points="303.929,-384.028 313.175,-378.854 302.72,-377.133 303.929,-384.028"/>
<text text-anchor="middle" x="111.344" y="-449.3" font-family="Times New Roman,serif" font-size="14.00">Crafting 0</text>
</g>
<!-- Well_A_Snow&#45;&gt;Bucket_A_Water -->
<g id="edge14" class="edge"><title>Well_A_Snow&#45;&gt;Bucket_A_Water</title>
<path fill="none" stroke="black" d="M79.6396,-522.245C90.1992,-511.508 105.048,-497.956 120.344,-489 133.664,-481.201 148.983,-474.796 163.632,-469.695"/>
<polygon fill="black" stroke="black" points="164.753,-473.011 173.134,-466.53 162.54,-466.369 164.753,-473.011"/>
<text text-anchor="middle" x="148.344" y="-492.8" font-family="Times New Roman,serif" font-size="14.00">Crafting 0</text>
</g>
<!-- SCROLL_Flare_1 -->
<g id="node15" class="node"><title>SCROLL_Flare_1</title>
<ellipse fill="none" stroke="black" cx="1059.34" cy="-105" rx="78.7863" ry="18"/>
<text text-anchor="middle" x="1059.34" y="-101.3" font-family="Times New Roman,serif" font-size="14.00">SCROLL_Flare_1</text>
</g>
<!-- Ink_Pot_A_Quill_A_Magic&#45;&gt;SCROLL_Flare_1 -->
<g id="edge15" class="edge"><title>Ink_Pot_A_Quill_A_Magic&#45;&gt;SCROLL_Flare_1</title>
<path fill="none" stroke="black" d="M1082.48,-173.799C1078.47,-162.047 1073.07,-146.238 1068.5,-132.842"/>
<polygon fill="black" stroke="black" points="1071.75,-131.51 1065.2,-123.175 1065.12,-133.77 1071.75,-131.51"/>
<text text-anchor="middle" x="1104.34" y="-144.8" font-family="Times New Roman,serif" font-size="14.00">Crafting 5</text>
</g>
<!-- Skull_Human -->
<g id="node14" class="node"><title>Skull_Human</title>
<ellipse fill="none" stroke="black" cx="1144.34" cy="-453" rx="59.5901" ry="18"/>
<text text-anchor="middle" x="1144.34" y="-449.3" font-family="Times New Roman,serif" font-size="14.00">Skull_Human</text>
</g>
<!-- Skull_Human&#45;&gt;Pouch_Dust_Bone -->
<g id="edge16" class="edge"><title>Skull_Human&#45;&gt;Pouch_Dust_Bone</title>
<path fill="none" stroke="black" d="M1144.14,-434.799C1144.01,-423.163 1143.82,-407.548 1143.66,-394.237"/>
<polygon fill="black" stroke="black" points="1147.16,-394.134 1143.55,-384.175 1140.16,-394.216 1147.16,-394.134"/>
<text text-anchor="middle" x="1172.34" y="-405.8" font-family="Times New Roman,serif" font-size="14.00">Crafting 0</text>
</g>
<!-- SCROLL_Flare_1&#45;&gt;SKILLBOOK_Projectile_Flare -->
<g id="edge1" class="edge"><title>SCROLL_Flare_1&#45;&gt;SKILLBOOK_Projectile_Flare</title>
<path fill="none" stroke="black" d="M1042.55,-87.2067C1030.06,-74.7151 1012.82,-57.4775 998.801,-43.457"/>
<polygon fill="black" stroke="black" points="1000.94,-40.6455 991.394,-36.0493 995.99,-45.5953 1000.94,-40.6455"/>
<text text-anchor="middle" x="1050.34" y="-57.8" font-family="Times New Roman,serif" font-size="14.00">Crafting 4</text>
</g>
<!-- Bucket -->
<g id="node16" class="node"><title>Bucket</title>
<ellipse fill="none" stroke="black" cx="183.344" cy="-540" rx="36.2938" ry="18"/>
<text text-anchor="middle" x="183.344" y="-536.3" font-family="Times New Roman,serif" font-size="14.00">Bucket</text>
</g>
<!-- Bucket&#45;&gt;Bucket_A_Water -->
<g id="edge19" class="edge"><title>Bucket&#45;&gt;Bucket_A_Water</title>
<path fill="none" stroke="black" d="M180.002,-522.075C178.818,-512.038 178.746,-499.305 183.344,-489 185.187,-484.869 187.786,-481.023 190.776,-477.506"/>
<polygon fill="black" stroke="black" points="193.295,-479.937 197.809,-470.352 188.303,-475.03 193.295,-479.937"/>
<text text-anchor="middle" x="211.344" y="-492.8" font-family="Times New Roman,serif" font-size="14.00">Crafting 0</text>
</g>
<!-- Well -->
<g id="node17" class="node"><title>Well</title>
<ellipse fill="none" stroke="black" cx="304.344" cy="-540" rx="27.0966" ry="18"/>
<text text-anchor="middle" x="304.344" y="-536.3" font-family="Times New Roman,serif" font-size="14.00">Well</text>
</g>
<!-- Well&#45;&gt;Scraps_Wood_A_Mush -->
<g id="edge20" class="edge"><title>Well&#45;&gt;Scraps_Wood_A_Mush</title>
<path fill="none" stroke="black" d="M311.061,-522.21C322.412,-493.858 344.357,-439.149 346.344,-435 353.141,-420.81 361.609,-405.473 368.825,-392.962"/>
<polygon fill="black" stroke="black" points="372.031,-394.413 374.05,-384.012 365.986,-390.883 372.031,-394.413"/>
<text text-anchor="middle" x="374.344" y="-449.3" font-family="Times New Roman,serif" font-size="14.00">Crafting 0</text>
</g>
<!-- Well&#45;&gt;Bucket_A_Water -->
<g id="edge21" class="edge"><title>Well&#45;&gt;Bucket_A_Water</title>
<path fill="none" stroke="black" d="M286.904,-525.773C279.076,-519.513 269.919,-511.727 262.344,-504 254.757,-496.26 247.147,-487.163 240.632,-478.865"/>
<polygon fill="black" stroke="black" points="243.392,-476.712 234.524,-470.914 237.841,-480.976 243.392,-476.712"/>
<text text-anchor="middle" x="290.344" y="-492.8" font-family="Times New Roman,serif" font-size="14.00">Crafting 0</text>
</g>
<!-- Ink_Pot_A_Quill -->
<g id="node29" class="node"><title>Ink_Pot_A_Quill</title>
<ellipse fill="none" stroke="black" cx="1283.34" cy="-279" rx="73.387" ry="18"/>
<text text-anchor="middle" x="1283.34" y="-275.3" font-family="Times New Roman,serif" font-size="14.00">Ink_Pot_A_Quill</text>
</g>
<!-- Feather_A_Quill&#45;&gt;Ink_Pot_A_Quill -->
<g id="edge22" class="edge"><title>Feather_A_Quill&#45;&gt;Ink_Pot_A_Quill</title>
<path fill="none" stroke="black" d="M1396.92,-348.971C1381.63,-339.028 1361.46,-326.081 1343.34,-315 1335.72,-310.336 1327.48,-305.439 1319.63,-300.835"/>
<polygon fill="black" stroke="black" points="1321.37,-297.801 1310.97,-295.79 1317.85,-303.849 1321.37,-297.801"/>
<text text-anchor="middle" x="1394.34" y="-318.8" font-family="Times New Roman,serif" font-size="14.00">Crafting 0</text>
</g>
<!-- Moonstone -->
<g id="node20" class="node"><title>Moonstone</title>
<ellipse fill="none" stroke="black" cx="708.344" cy="-453" rx="51.9908" ry="18"/>
<text text-anchor="middle" x="708.344" y="-449.3" font-family="Times New Roman,serif" font-size="14.00">Moonstone</text>
</g>
<!-- Moonstone&#45;&gt;Pouch_Dust_Moon -->
<g id="edge23" class="edge"><title>Moonstone&#45;&gt;Pouch_Dust_Moon</title>
<path fill="none" stroke="black" d="M710.192,-434.714C712.061,-424.298 715.814,-411.295 723.344,-402 727.948,-396.317 733.732,-391.417 739.929,-387.236"/>
<polygon fill="black" stroke="black" points="741.845,-390.167 748.563,-381.974 738.202,-384.19 741.845,-390.167"/>
<text text-anchor="middle" x="751.344" y="-405.8" font-family="Times New Roman,serif" font-size="14.00">Crafting 0</text>
</g>
<!-- Scroll_Skill_Fire_Blank&#45;&gt;BOOK_Skill_Fire_Blank -->
<g id="edge25" class="edge"><title>Scroll_Skill_Fire_Blank&#45;&gt;BOOK_Skill_Fire_Blank</title>
<path fill="none" stroke="black" d="M861.344,-173.799C861.344,-162.163 861.344,-146.548 861.344,-133.237"/>
<polygon fill="black" stroke="black" points="864.844,-133.175 861.344,-123.175 857.844,-133.175 864.844,-133.175"/>
<text text-anchor="middle" x="889.344" y="-144.8" font-family="Times New Roman,serif" font-size="14.00">Crafting 5</text>
</g>
<!-- Scroll_Skill_Fire_Blank&#45;&gt;SCROLL_Flare_1 -->
<g id="edge24" class="edge"><title>Scroll_Skill_Fire_Blank&#45;&gt;SCROLL_Flare_1</title>
<path fill="none" stroke="black" d="M898.123,-175.211C931.039,-161.081 979.389,-140.324 1014.55,-125.23"/>
<polygon fill="black" stroke="black" points="1016.29,-128.294 1024.09,-121.133 1013.52,-121.861 1016.29,-128.294"/>
<text text-anchor="middle" x="1000.34" y="-144.8" font-family="Times New Roman,serif" font-size="14.00">Crafting 5</text>
</g>
<!-- Axe -->
<g id="node22" class="node"><title>Axe</title>
<ellipse fill="none" stroke="black" cx="614.344" cy="-540" rx="27" ry="18"/>
<text text-anchor="middle" x="614.344" y="-536.3" font-family="Times New Roman,serif" font-size="14.00">Axe</text>
</g>
<!-- Axe&#45;&gt;Scraps_Wood -->
<g id="edge26" class="edge"><title>Axe&#45;&gt;Scraps_Wood</title>
<path fill="none" stroke="black" d="M607.261,-522.219C603.067,-512.458 597.567,-499.958 592.344,-489 590.933,-486.039 589.418,-482.958 587.889,-479.906"/>
<polygon fill="black" stroke="black" points="591.001,-478.306 583.342,-470.987 584.765,-481.485 591.001,-478.306"/>
<text text-anchor="middle" x="627.344" y="-492.8" font-family="Times New Roman,serif" font-size="14.00">Crafting 0</text>
</g>
<!-- Barrel -->
<g id="node23" class="node"><title>Barrel</title>
<ellipse fill="none" stroke="black" cx="393.344" cy="-540" rx="32.4942" ry="18"/>
<text text-anchor="middle" x="393.344" y="-536.3" font-family="Times New Roman,serif" font-size="14.00">Barrel</text>
</g>
<!-- Barrel&#45;&gt;Scraps_Wood_A_Mush -->
<g id="edge27" class="edge"><title>Barrel&#45;&gt;Scraps_Wood_A_Mush</title>
<path fill="none" stroke="black" d="M401.522,-522.304C403.89,-516.634 406.156,-510.169 407.344,-504 414.664,-465.991 403.766,-421.792 394.615,-394.105"/>
<polygon fill="black" stroke="black" points="397.816,-392.652 391.236,-384.349 391.202,-394.944 397.816,-392.652"/>
<text text-anchor="middle" x="438.344" y="-449.3" font-family="Times New Roman,serif" font-size="14.00">Crafting 0</text>
</g>
<!-- Barrel&#45;&gt;Bucket_A_Water -->
<g id="edge28" class="edge"><title>Barrel&#45;&gt;Bucket_A_Water</title>
<path fill="none" stroke="black" d="M375.839,-524.591C361.98,-513.713 341.784,-499 322.344,-489 308.457,-481.856 292.782,-475.601 278.033,-470.431"/>
<polygon fill="black" stroke="black" points="279.097,-467.096 268.502,-467.192 276.844,-473.724 279.097,-467.096"/>
<text text-anchor="middle" x="375.344" y="-492.8" font-family="Times New Roman,serif" font-size="14.00">Crafting 0</text>
</g>
<!-- Pillow -->
<g id="node24" class="node"><title>Pillow</title>
<ellipse fill="none" stroke="black" cx="1432.34" cy="-540" rx="33.2948" ry="18"/>
<text text-anchor="middle" x="1432.34" y="-536.3" font-family="Times New Roman,serif" font-size="14.00">Pillow</text>
</g>
<!-- Pillow&#45;&gt;Feather -->
<g id="edge29" class="edge"><title>Pillow&#45;&gt;Feather</title>
<path fill="none" stroke="black" d="M1432.34,-521.799C1432.34,-510.163 1432.34,-494.548 1432.34,-481.237"/>
<polygon fill="black" stroke="black" points="1435.84,-481.175 1432.34,-471.175 1428.84,-481.175 1435.84,-481.175"/>
<text text-anchor="middle" x="1460.34" y="-492.8" font-family="Times New Roman,serif" font-size="14.00">Crafting 0</text>
</g>
<!-- Bone -->
<g id="node25" class="node"><title>Bone</title>
<ellipse fill="none" stroke="black" cx="1252.34" cy="-453" rx="29.795" ry="18"/>
<text text-anchor="middle" x="1252.34" y="-449.3" font-family="Times New Roman,serif" font-size="14.00">Bone</text>
</g>
<!-- Bone&#45;&gt;Pouch_Dust_Bone -->
<g id="edge30" class="edge"><title>Bone&#45;&gt;Pouch_Dust_Bone</title>
<path fill="none" stroke="black" d="M1239.49,-436.441C1230.35,-425.956 1217.43,-412.225 1204.34,-402 1197.92,-396.978 1190.69,-392.194 1183.52,-387.865"/>
<polygon fill="black" stroke="black" points="1184.94,-384.64 1174.53,-382.643 1181.42,-390.693 1184.94,-384.64"/>
<text text-anchor="middle" x="1248.34" y="-405.8" font-family="Times New Roman,serif" font-size="14.00">Crafting 0</text>
</g>
<!-- Ink_Pot -->
<g id="node26" class="node"><title>Ink_Pot</title>
<ellipse fill="none" stroke="black" cx="1283.34" cy="-366" rx="40.0939" ry="18"/>
<text text-anchor="middle" x="1283.34" y="-362.3" font-family="Times New Roman,serif" font-size="14.00">Ink_Pot</text>
</g>
<!-- Ink_Pot&#45;&gt;Ink_Pot_A_Quill -->
<g id="edge31" class="edge"><title>Ink_Pot&#45;&gt;Ink_Pot_A_Quill</title>
<path fill="none" stroke="black" d="M1283.34,-347.799C1283.34,-336.163 1283.34,-320.548 1283.34,-307.237"/>
<polygon fill="black" stroke="black" points="1286.84,-307.175 1283.34,-297.175 1279.84,-307.175 1286.84,-307.175"/>
<text text-anchor="middle" x="1311.34" y="-318.8" font-family="Times New Roman,serif" font-size="14.00">Crafting 0</text>
</g>
<!-- Scraps_Wood&#45;&gt;Scraps_Wood_A_Mush -->
<g id="edge32" class="edge"><title>Scraps_Wood&#45;&gt;Scraps_Wood_A_Mush</title>
<path fill="none" stroke="black" d="M541.682,-437.388C510.648,-423.504 463.722,-402.511 429.191,-387.063"/>
<polygon fill="black" stroke="black" points="430.361,-383.752 419.803,-382.863 427.502,-390.142 430.361,-383.752"/>
<text text-anchor="middle" x="519.344" y="-405.8" font-family="Times New Roman,serif" font-size="14.00">Crafting 0</text>
</g>
<!-- Dagger -->
<g id="node28" class="node"><title>Dagger</title>
<ellipse fill="none" stroke="black" cx="1551.34" cy="-540" rx="36.2938" ry="18"/>
<text text-anchor="middle" x="1551.34" y="-536.3" font-family="Times New Roman,serif" font-size="14.00">Dagger</text>
</g>
<!-- Dagger&#45;&gt;Feather -->
<g id="edge34" class="edge"><title>Dagger&#45;&gt;Feather</title>
<path fill="none" stroke="black" d="M1533.91,-523.938C1521.73,-513.674 1504.93,-500.005 1489.34,-489 1481.4,-483.394 1472.56,-477.711 1464.25,-472.601"/>
<polygon fill="black" stroke="black" points="1465.89,-469.499 1455.52,-467.313 1462.26,-475.487 1465.89,-469.499"/>
<text text-anchor="middle" x="1536.34" y="-492.8" font-family="Times New Roman,serif" font-size="14.00">Crafting 0</text>
</g>
<!-- Dagger&#45;&gt;Feather_A_Quill -->
<g id="edge33" class="edge"><title>Dagger&#45;&gt;Feather_A_Quill</title>
<path fill="none" stroke="black" d="M1562.82,-522.647C1568.26,-512.812 1572.71,-500.092 1568.34,-489 1549.54,-441.202 1499.68,-406.586 1463.23,-386.696"/>
<polygon fill="black" stroke="black" points="1464.76,-383.542 1454.28,-381.957 1461.48,-389.729 1464.76,-383.542"/>
<text text-anchor="middle" x="1585.34" y="-449.3" font-family="Times New Roman,serif" font-size="14.00">Crafting 0</text>
</g>
<!-- Ink_Pot_A_Quill&#45;&gt;Ink_Pot_A_Quill_A_Magic -->
<g id="edge35" class="edge"><title>Ink_Pot_A_Quill&#45;&gt;Ink_Pot_A_Quill_A_Magic</title>
<path fill="none" stroke="black" d="M1248.93,-262.999C1217.15,-249.146 1169.7,-228.461 1134.61,-213.167"/>
<polygon fill="black" stroke="black" points="1135.63,-209.793 1125.06,-209.006 1132.83,-216.21 1135.63,-209.793"/>
<text text-anchor="middle" x="1226.34" y="-231.8" font-family="Times New Roman,serif" font-size="14.00">Crafting 1</text>
</g>
<!-- Oven -->
<g id="node30" class="node"><title>Oven</title>
<ellipse fill="none" stroke="black" cx="235.344" cy="-366" rx="30.5947" ry="18"/>
<text text-anchor="middle" x="235.344" y="-362.3" font-family="Times New Roman,serif" font-size="14.00">Oven</text>
</g>
<!-- Oven&#45;&gt;BOOK_Paper_Sheet -->
<g id="edge36" class="edge"><title>Oven&#45;&gt;BOOK_Paper_Sheet</title>
<path fill="none" stroke="black" d="M256.692,-352.822C280.291,-339.359 318.735,-317.428 347.277,-301.146"/>
<polygon fill="black" stroke="black" points="349.212,-304.071 356.164,-296.076 345.744,-297.991 349.212,-304.071"/>
<text text-anchor="middle" x="347.344" y="-318.8" font-family="Times New Roman,serif" font-size="14.00">Crafting 0</text>
</g>
<!-- Pouch_Dust_Star&#45;&gt;Pouch_Dust_Pixie -->
<g id="edge37" class="edge"><title>Pouch_Dust_Star&#45;&gt;Pouch_Dust_Pixie</title>
<path fill="none" stroke="black" d="M966.344,-347.799C966.344,-336.163 966.344,-320.548 966.344,-307.237"/>
<polygon fill="black" stroke="black" points="969.844,-307.175 966.344,-297.175 962.844,-307.175 969.844,-307.175"/>
<text text-anchor="middle" x="994.344" y="-318.8" font-family="Times New Roman,serif" font-size="14.00">Crafting 0</text>
</g>
<!-- MortarPestle -->
<g id="node32" class="node"><title>MortarPestle</title>
<ellipse fill="none" stroke="black" cx="864.344" cy="-453" rx="57.3905" ry="18"/>
<text text-anchor="middle" x="864.344" y="-449.3" font-family="Times New Roman,serif" font-size="14.00">MortarPestle</text>
</g>
<!-- MortarPestle&#45;&gt;Pouch_Dust_Bone -->
<g id="edge38" class="edge"><title>MortarPestle&#45;&gt;Pouch_Dust_Bone</title>
<path fill="none" stroke="black" d="M891.246,-437.053C901.483,-431.104 913.135,-424.013 923.344,-417 932.213,-410.909 932.506,-406.355 942.344,-402 986.842,-382.303 1002.41,-392.375 1050.34,-384 1057.96,-382.669 1065.92,-381.252 1073.85,-379.827"/>
<polygon fill="black" stroke="black" points="1074.62,-383.244 1083.83,-378.021 1073.37,-376.356 1074.62,-383.244"/>
<text text-anchor="middle" x="970.344" y="-405.8" font-family="Times New Roman,serif" font-size="14.00">Crafting 0</text>
</g>
<!-- MortarPestle&#45;&gt;Pouch_Dust_Moon -->
<g id="edge40" class="edge"><title>MortarPestle&#45;&gt;Pouch_Dust_Moon</title>
<path fill="none" stroke="black" d="M820.544,-441.416C808.056,-436.178 795.823,-428.425 788.344,-417 783.98,-410.333 782.616,-402.019 782.663,-394.097"/>
<polygon fill="black" stroke="black" points="786.157,-394.31 783.403,-384.079 779.176,-393.794 786.157,-394.31"/>
<text text-anchor="middle" x="816.344" y="-405.8" font-family="Times New Roman,serif" font-size="14.00">Crafting 0</text>
</g>
<!-- MortarPestle&#45;&gt;Pouch_Dust_Star -->
<g id="edge39" class="edge"><title>MortarPestle&#45;&gt;Pouch_Dust_Star</title>
<path fill="none" stroke="black" d="M860.914,-434.626C859.857,-424.177 860.439,-411.17 867.344,-402 874.584,-392.386 884.673,-385.404 895.661,-380.334"/>
<polygon fill="black" stroke="black" points="897.115,-383.521 905.059,-376.51 894.477,-377.037 897.115,-383.521"/>
<text text-anchor="middle" x="895.344" y="-405.8" font-family="Times New Roman,serif" font-size="14.00">Crafting 0</text>
</g>
</g>
</svg>
