<?xml version="1.0" encoding="UTF-8" standalone="no"?>
<!DOCTYPE svg PUBLIC "-//W3C//DTD SVG 1.1//EN"
 "http://www.w3.org/Graphics/SVG/1.1/DTD/svg11.dtd">
<!-- Generated by graphviz version 2.38.0 (20140413.2041)
 -->
<!-- Title: G Pages: 1 -->
<svg width="1583pt" height="566pt"
 viewBox="0.00 0.00 1583.30 566.00" xmlns="http://www.w3.org/2000/svg" xmlns:xlink="http://www.w3.org/1999/xlink">
<g id="graph0" class="graph" transform="scale(1 1) rotate(0) translate(4 562)">
<title>G</title>
<polygon fill="white" stroke="none" points="-4,4 -4,-562 1579.3,-562 1579.3,4 -4,4"/>
<!-- Log -->
<g id="node1" class="node"><title>Log</title>
<ellipse fill="none" stroke="black" cx="477.298" cy="-540" rx="27" ry="18"/>
<text text-anchor="middle" x="477.298" y="-536.3" font-family="Times New Roman,serif" font-size="14.00">Log</text>
</g>
<!-- Scraps_Wood -->
<g id="node27" class="node"><title>Scraps_Wood</title>
<ellipse fill="none" stroke="black" cx="516.298" cy="-453" rx="64.189" ry="18"/>
<text text-anchor="middle" x="516.298" y="-449.3" font-family="Times New Roman,serif" font-size="14.00">Scraps_Wood</text>
</g>
<!-- Log&#45;&gt;Scraps_Wood -->
<g id="edge1" class="edge"><title>Log&#45;&gt;Scraps_Wood</title>
<path fill="none" stroke="black" d="M474.417,-522.065C473.476,-512.024 473.662,-499.291 478.298,-489 480.172,-484.84 482.802,-480.95 485.813,-477.389"/>
<polygon fill="black" stroke="black" points="488.403,-479.746 492.869,-470.138 483.387,-474.864 488.403,-479.746"/>
<text text-anchor="middle" x="506.298" y="-492.8" font-family="Times New Roman,serif" font-size="14.00">Crafting 0</text>
</g>
<!-- Scraps_Wood_A_Mush -->
<g id="node2" class="node"><title>Scraps_Wood_A_Mush</title>
<ellipse fill="none" stroke="black" cx="326.298" cy="-366" rx="100.983" ry="18"/>
<text text-anchor="middle" x="326.298" y="-362.3" font-family="Times New Roman,serif" font-size="14.00">Scraps_Wood_A_Mush</text>
</g>
<!-- BOOK_Paper_Sheet -->
<g id="node10" class="node"><title>BOOK_Paper_Sheet</title>
<ellipse fill="none" stroke="black" cx="326.298" cy="-279" rx="87.1846" ry="18"/>
<text text-anchor="middle" x="326.298" y="-275.3" font-family="Times New Roman,serif" font-size="14.00">BOOK_Paper_Sheet</text>
</g>
<!-- Scraps_Wood_A_Mush&#45;&gt;BOOK_Paper_Sheet -->
<g id="edge2" class="edge"><title>Scraps_Wood_A_Mush&#45;&gt;BOOK_Paper_Sheet</title>
<path fill="none" stroke="black" d="M326.298,-347.799C326.298,-336.163 326.298,-320.548 326.298,-307.237"/>
<polygon fill="black" stroke="black" points="329.798,-307.175 326.298,-297.175 322.798,-307.175 329.798,-307.175"/>
<text text-anchor="middle" x="354.298" y="-318.8" font-family="Times New Roman,serif" font-size="14.00">Crafting 0</text>
</g>
<!-- Pouch_Dust_Bone -->
<g id="node3" class="node"><title>Pouch_Dust_Bone</title>
<ellipse fill="none" stroke="black" cx="766.298" cy="-366" rx="79.8859" ry="18"/>
<text text-anchor="middle" x="766.298" y="-362.3" font-family="Times New Roman,serif" font-size="14.00">Pouch_Dust_Bone</text>
</g>
<!-- Pouch_Dust_Pixie -->
<g id="node16" class="node"><title>Pouch_Dust_Pixie</title>
<ellipse fill="none" stroke="black" cx="947.298" cy="-279" rx="78.7863" ry="18"/>
<text text-anchor="middle" x="947.298" y="-275.3" font-family="Times New Roman,serif" font-size="14.00">Pouch_Dust_Pixie</text>
</g>
<!-- Pouch_Dust_Bone&#45;&gt;Pouch_Dust_Pixie -->
<g id="edge3" class="edge"><title>Pouch_Dust_Bone&#45;&gt;Pouch_Dust_Pixie</title>
<path fill="none" stroke="black" d="M799.496,-349.41C829.22,-335.451 872.954,-314.913 905.14,-299.798"/>
<polygon fill="black" stroke="black" points="906.746,-302.91 914.31,-295.491 903.77,-296.574 906.746,-302.91"/>
<text text-anchor="middle" x="895.298" y="-318.8" font-family="Times New Roman,serif" font-size="14.00">Crafting 0</text>
</g>
<!-- Bucket_A_Water -->
<g id="node4" class="node"><title>Bucket_A_Water</title>
<ellipse fill="none" stroke="black" cx="164.298" cy="-453" rx="74.187" ry="18"/>
<text text-anchor="middle" x="164.298" y="-449.3" font-family="Times New Roman,serif" font-size="14.00">Bucket_A_Water</text>
</g>
<!-- Bucket_A_Water&#45;&gt;Scraps_Wood_A_Mush -->
<g id="edge4" class="edge"><title>Bucket_A_Water&#45;&gt;Scraps_Wood_A_Mush</title>
<path fill="none" stroke="black" d="M174.131,-434.866C181.213,-423.97 191.716,-410.383 204.298,-402 217.084,-393.481 231.955,-387.006 246.828,-382.094"/>
<polygon fill="black" stroke="black" points="248.056,-385.378 256.58,-379.086 245.992,-378.689 248.056,-385.378"/>
<text text-anchor="middle" x="232.298" y="-405.8" font-family="Times New Roman,serif" font-size="14.00">Crafting 0</text>
</g>
<!-- Herb_Stardust -->
<g id="node5" class="node"><title>Herb_Stardust</title>
<ellipse fill="none" stroke="black" cx="1181.3" cy="-453" rx="63.8893" ry="18"/>
<text text-anchor="middle" x="1181.3" y="-449.3" font-family="Times New Roman,serif" font-size="14.00">Herb_Stardust</text>
</g>
<!-- Pouch_Dust_Star -->
<g id="node31" class="node"><title>Pouch_Dust_Star</title>
<ellipse fill="none" stroke="black" cx="1124.3" cy="-366" rx="75.2868" ry="18"/>
<text text-anchor="middle" x="1124.3" y="-362.3" font-family="Times New Roman,serif" font-size="14.00">Pouch_Dust_Star</text>
</g>
<!-- Herb_Stardust&#45;&gt;Pouch_Dust_Star -->
<g id="edge5" class="edge"><title>Herb_Stardust&#45;&gt;Pouch_Dust_Star</title>
<path fill="none" stroke="black" d="M1175.61,-434.981C1171.82,-424.91 1166.26,-412.176 1159.3,-402 1156.72,-398.228 1153.7,-394.512 1150.53,-390.992"/>
<polygon fill="black" stroke="black" points="1152.94,-388.445 1143.49,-383.654 1147.89,-393.292 1152.94,-388.445"/>
<text text-anchor="middle" x="1195.3" y="-405.8" font-family="Times New Roman,serif" font-size="14.00">Crafting 0</text>
</g>
<!-- Feather -->
<g id="node6" class="node"><title>Feather</title>
<ellipse fill="none" stroke="black" cx="1393.3" cy="-453" rx="37.8943" ry="18"/>
<text text-anchor="middle" x="1393.3" y="-449.3" font-family="Times New Roman,serif" font-size="14.00">Feather</text>
</g>
<!-- Feather_A_Quill -->
<g id="node19" class="node"><title>Feather_A_Quill</title>
<ellipse fill="none" stroke="black" cx="1388.3" cy="-366" rx="70.6878" ry="18"/>
<text text-anchor="middle" x="1388.3" y="-362.3" font-family="Times New Roman,serif" font-size="14.00">Feather_A_Quill</text>
</g>
<!-- Feather&#45;&gt;Feather_A_Quill -->
<g id="edge6" class="edge"><title>Feather&#45;&gt;Feather_A_Quill</title>
<path fill="none" stroke="black" d="M1392.29,-434.799C1391.6,-423.163 1390.68,-407.548 1389.9,-394.237"/>
<polygon fill="black" stroke="black" points="1393.39,-393.953 1389.31,-384.175 1386.4,-394.364 1393.39,-393.953"/>
<text text-anchor="middle" x="1418.3" y="-405.8" font-family="Times New Roman,serif" font-size="14.00">Crafting 0</text>
</g>
<!-- BOOK_Skill_Fire_Blank -->
<g id="node7" class="node"><title>BOOK_Skill_Fire_Blank</title>
<ellipse fill="none" stroke="black" cx="842.298" cy="-105" rx="101.282" ry="18"/>
<text text-anchor="middle" x="842.298" y="-101.3" font-family="Times New Roman,serif" font-size="14.00">BOOK_Skill_Fire_Blank</text>
</g>
<!-- SKILLBOOK_Path_FireFly -->
<g id="node14" class="node"><title>SKILLBOOK_Path_FireFly</title>
<ellipse fill="none" stroke="black" cx="960.298" cy="-18" rx="113.98" ry="18"/>
<text text-anchor="middle" x="960.298" y="-14.3" font-family="Times New Roman,serif" font-size="14.00">SKILLBOOK_Path_FireFly</text>
</g>
<!-- BOOK_Skill_Fire_Blank&#45;&gt;SKILLBOOK_Path_FireFly -->
<g id="edge7" class="edge"><title>BOOK_Skill_Fire_Blank&#45;&gt;SKILLBOOK_Path_FireFly</title>
<path fill="none" stroke="black" d="M865.329,-87.4094C883.405,-74.3889 908.764,-56.1218 928.731,-41.7389"/>
<polygon fill="black" stroke="black" points="930.852,-44.5241 936.921,-35.8393 926.761,-38.8443 930.852,-44.5241"/>
<text text-anchor="middle" x="936.298" y="-57.8" font-family="Times New Roman,serif" font-size="14.00">Crafting 4</text>
</g>
<!-- Knife -->
<g id="node8" class="node"><title>Knife</title>
<ellipse fill="none" stroke="black" cx="1296.3" cy="-540" rx="30.5947" ry="18"/>
<text text-anchor="middle" x="1296.3" y="-536.3" font-family="Times New Roman,serif" font-size="14.00">Knife</text>
</g>
<!-- Knife&#45;&gt;Feather -->
<g id="edge9" class="edge"><title>Knife&#45;&gt;Feather</title>
<path fill="none" stroke="black" d="M1305.86,-522.803C1312.6,-512.302 1322.36,-498.804 1333.3,-489 1340.76,-482.308 1349.7,-476.272 1358.38,-471.171"/>
<polygon fill="black" stroke="black" points="1360.23,-474.145 1367.25,-466.206 1356.81,-468.037 1360.23,-474.145"/>
<text text-anchor="middle" x="1361.3" y="-492.8" font-family="Times New Roman,serif" font-size="14.00">Crafting 0</text>
</g>
<!-- Knife&#45;&gt;Feather_A_Quill -->
<g id="edge8" class="edge"><title>Knife&#45;&gt;Feather_A_Quill</title>
<path fill="none" stroke="black" d="M1290.24,-522.034C1283.63,-500.471 1275.79,-462.722 1290.3,-435 1301.54,-413.52 1322.99,-397.465 1342.97,-386.365"/>
<polygon fill="black" stroke="black" points="1344.78,-389.367 1352,-381.612 1341.52,-383.172 1344.78,-389.367"/>
<text text-anchor="middle" x="1318.3" y="-449.3" font-family="Times New Roman,serif" font-size="14.00">Crafting 0</text>
</g>
<!-- Pouch_Dust_Moon -->
<g id="node9" class="node"><title>Pouch_Dust_Moon</title>
<ellipse fill="none" stroke="black" cx="947.298" cy="-366" rx="83.3857" ry="18"/>
<text text-anchor="middle" x="947.298" y="-362.3" font-family="Times New Roman,serif" font-size="14.00">Pouch_Dust_Moon</text>
</g>
<!-- Pouch_Dust_Moon&#45;&gt;Pouch_Dust_Pixie -->
<g id="edge10" class="edge"><title>Pouch_Dust_Moon&#45;&gt;Pouch_Dust_Pixie</title>
<path fill="none" stroke="black" d="M947.298,-347.799C947.298,-336.163 947.298,-320.548 947.298,-307.237"/>
<polygon fill="black" stroke="black" points="950.798,-307.175 947.298,-297.175 943.798,-307.175 950.798,-307.175"/>
<text text-anchor="middle" x="975.298" y="-318.8" font-family="Times New Roman,serif" font-size="14.00">Crafting 0</text>
</g>
<!-- Scroll_Skill_Fire_Blank -->
<g id="node21" class="node"><title>Scroll_Skill_Fire_Blank</title>
<ellipse fill="none" stroke="black" cx="842.298" cy="-192" rx="96.6831" ry="18"/>
<text text-anchor="middle" x="842.298" y="-188.3" font-family="Times New Roman,serif" font-size="14.00">Scroll_Skill_Fire_Blank</text>
</g>
<!-- BOOK_Paper_Sheet&#45;&gt;Scroll_Skill_Fire_Blank -->
<g id="edge11" class="edge"><title>BOOK_Paper_Sheet&#45;&gt;Scroll_Skill_Fire_Blank</title>
<path fill="none" stroke="black" d="M392.173,-267.148C486.7,-251.577 660.605,-222.93 762.362,-206.168"/>
<polygon fill="black" stroke="black" points="762.984,-209.612 772.282,-204.534 761.846,-202.706 762.984,-209.612"/>
<text text-anchor="middle" x="643.298" y="-231.8" font-family="Times New Roman,serif" font-size="14.00">Crafting 1</text>
</g>
<!-- Well_A_Snow -->
<g id="node11" class="node"><title>Well_A_Snow</title>
<ellipse fill="none" stroke="black" cx="248.298" cy="-540" rx="64.189" ry="18"/>
<text text-anchor="middle" x="248.298" y="-536.3" font-family="Times New Roman,serif" font-size="14.00">Well_A_Snow</text>
</g>
<!-- Well_A_Snow&#45;&gt;Scraps_Wood_A_Mush -->
<g id="edge12" class="edge"><title>Well_A_Snow&#45;&gt;Scraps_Wood_A_Mush</title>
<path fill="none" stroke="black" d="M254.229,-521.731C263.68,-494.306 281.484,-443.054 285.298,-435 292.181,-420.462 301.306,-405.051 309.201,-392.582"/>
<polygon fill="black" stroke="black" points="312.207,-394.378 314.682,-384.077 306.323,-390.586 312.207,-394.378"/>
<text text-anchor="middle" x="313.298" y="-449.3" font-family="Times New Roman,serif" font-size="14.00">Crafting 0</text>
</g>
<!-- Well_A_Snow&#45;&gt;Bucket_A_Water -->
<g id="edge13" class="edge"><title>Well_A_Snow&#45;&gt;Bucket_A_Water</title>
<path fill="none" stroke="black" d="M225.995,-522.828C218.779,-517.193 210.933,-510.617 204.298,-504 196.623,-496.347 188.992,-487.27 182.485,-478.965"/>
<polygon fill="black" stroke="black" points="185.247,-476.815 176.392,-470.998 179.687,-481.068 185.247,-476.815"/>
<text text-anchor="middle" x="232.298" y="-492.8" font-family="Times New Roman,serif" font-size="14.00">Crafting 0</text>
</g>
<!-- SCROLL_FireFly_1 -->
<g id="node12" class="node"><title>SCROLL_FireFly_1</title>
<ellipse fill="none" stroke="black" cx="1048.3" cy="-105" rx="86.3847" ry="18"/>
<text text-anchor="middle" x="1048.3" y="-101.3" font-family="Times New Roman,serif" font-size="14.00">SCROLL_FireFly_1</text>
</g>
<!-- SCROLL_FireFly_1&#45;&gt;SKILLBOOK_Path_FireFly -->
<g id="edge14" class="edge"><title>SCROLL_FireFly_1&#45;&gt;SKILLBOOK_Path_FireFly</title>
<path fill="none" stroke="black" d="M1030.91,-87.2067C1017.86,-74.5994 999.802,-57.1579 985.215,-43.0683"/>
<polygon fill="black" stroke="black" points="987.573,-40.4793 977.949,-36.0493 982.71,-45.5142 987.573,-40.4793"/>
<text text-anchor="middle" x="1037.3" y="-57.8" font-family="Times New Roman,serif" font-size="14.00">Crafting 4</text>
</g>
<!-- Ink_Pot_A_Quill_A_Magic -->
<g id="node13" class="node"><title>Ink_Pot_A_Quill_A_Magic</title>
<ellipse fill="none" stroke="black" cx="1069.3" cy="-192" rx="111.581" ry="18"/>
<text text-anchor="middle" x="1069.3" y="-188.3" font-family="Times New Roman,serif" font-size="14.00">Ink_Pot_A_Quill_A_Magic</text>
</g>
<!-- Ink_Pot_A_Quill_A_Magic&#45;&gt;SCROLL_FireFly_1 -->
<g id="edge15" class="edge"><title>Ink_Pot_A_Quill_A_Magic&#45;&gt;SCROLL_FireFly_1</title>
<path fill="none" stroke="black" d="M1065.05,-173.799C1062.17,-162.163 1058.32,-146.548 1055.03,-133.237"/>
<polygon fill="black" stroke="black" points="1058.34,-132.044 1052.54,-123.175 1051.54,-133.723 1058.34,-132.044"/>
<text text-anchor="middle" x="1087.3" y="-144.8" font-family="Times New Roman,serif" font-size="14.00">Crafting 5</text>
</g>
<!-- Skull_Human -->
<g id="node15" class="node"><title>Skull_Human</title>
<ellipse fill="none" stroke="black" cx="658.298" cy="-453" rx="59.5901" ry="18"/>
<text text-anchor="middle" x="658.298" y="-449.3" font-family="Times New Roman,serif" font-size="14.00">Skull_Human</text>
</g>
<!-- Skull_Human&#45;&gt;Pouch_Dust_Bone -->
<g id="edge16" class="edge"><title>Skull_Human&#45;&gt;Pouch_Dust_Bone</title>
<path fill="none" stroke="black" d="M672.389,-435.087C681.446,-424.812 693.817,-411.825 706.298,-402 712.627,-397.017 719.738,-392.252 726.792,-387.929"/>
<polygon fill="black" stroke="black" points="728.803,-390.807 735.634,-382.709 725.243,-384.779 728.803,-390.807"/>
<text text-anchor="middle" x="734.298" y="-405.8" font-family="Times New Roman,serif" font-size="14.00">Crafting 0</text>
</g>
<!-- Pouch_Dust_Pixie&#45;&gt;Ink_Pot_A_Quill_A_Magic -->
<g id="edge17" class="edge"><title>Pouch_Dust_Pixie&#45;&gt;Ink_Pot_A_Quill_A_Magic</title>
<path fill="none" stroke="black" d="M970.82,-261.611C989.686,-248.467 1016.36,-229.883 1037.19,-215.37"/>
<polygon fill="black" stroke="black" points="1039.23,-218.217 1045.43,-209.629 1035.22,-212.473 1039.23,-218.217"/>
<text text-anchor="middle" x="1043.3" y="-231.8" font-family="Times New Roman,serif" font-size="14.00">Crafting 1</text>
</g>
<!-- Pouch_Dust_Pixie&#45;&gt;Scroll_Skill_Fire_Blank -->
<g id="edge18" class="edge"><title>Pouch_Dust_Pixie&#45;&gt;Scroll_Skill_Fire_Blank</title>
<path fill="none" stroke="black" d="M926.803,-261.409C911.006,-248.621 888.958,-230.773 871.343,-216.513"/>
<polygon fill="black" stroke="black" points="873.074,-213.411 863.099,-209.839 868.669,-218.852 873.074,-213.411"/>
<text text-anchor="middle" x="928.298" y="-231.8" font-family="Times New Roman,serif" font-size="14.00">Crafting 1</text>
</g>
<!-- Bucket -->
<g id="node17" class="node"><title>Bucket</title>
<ellipse fill="none" stroke="black" cx="124.298" cy="-540" rx="36.2938" ry="18"/>
<text text-anchor="middle" x="124.298" y="-536.3" font-family="Times New Roman,serif" font-size="14.00">Bucket</text>
</g>
<!-- Bucket&#45;&gt;Bucket_A_Water -->
<g id="edge19" class="edge"><title>Bucket&#45;&gt;Bucket_A_Water</title>
<path fill="none" stroke="black" d="M121.369,-522.043C120.411,-511.994 120.595,-499.261 125.298,-489 127.226,-484.792 129.928,-480.875 133.02,-477.298"/>
<polygon fill="black" stroke="black" points="135.682,-479.586 140.264,-470.033 130.725,-474.643 135.682,-479.586"/>
<text text-anchor="middle" x="153.298" y="-492.8" font-family="Times New Roman,serif" font-size="14.00">Crafting 0</text>
</g>
<!-- Well -->
<g id="node18" class="node"><title>Well</title>
<ellipse fill="none" stroke="black" cx="27.2976" cy="-540" rx="27.0966" ry="18"/>
<text text-anchor="middle" x="27.2976" y="-536.3" font-family="Times New Roman,serif" font-size="14.00">Well</text>
</g>
<!-- Well&#45;&gt;Scraps_Wood_A_Mush -->
<g id="edge20" class="edge"><title>Well&#45;&gt;Scraps_Wood_A_Mush</title>
<path fill="none" stroke="black" d="M21.02,-522.153C13.8402,-499.673 5.45328,-459.827 25.2976,-435 39.0586,-417.783 159.504,-394.603 243.792,-380.239"/>
<polygon fill="black" stroke="black" points="244.606,-383.652 253.882,-378.533 243.438,-376.75 244.606,-383.652"/>
<text text-anchor="middle" x="53.2976" y="-449.3" font-family="Times New Roman,serif" font-size="14.00">Crafting 0</text>
</g>
<!-- Well&#45;&gt;Bucket_A_Water -->
<g id="edge21" class="edge"><title>Well&#45;&gt;Bucket_A_Water</title>
<path fill="none" stroke="black" d="M35.3049,-522.529C41.3576,-511.637 50.6155,-497.795 62.2976,-489 73.6714,-480.437 87.2882,-473.874 100.812,-468.876"/>
<polygon fill="black" stroke="black" points="102.29,-472.069 110.609,-465.509 100.014,-465.45 102.29,-472.069"/>
<text text-anchor="middle" x="90.2976" y="-492.8" font-family="Times New Roman,serif" font-size="14.00">Crafting 0</text>
</g>
<!-- Ink_Pot_A_Quill -->
<g id="node29" class="node"><title>Ink_Pot_A_Quill</title>
<ellipse fill="none" stroke="black" cx="1259.3" cy="-279" rx="73.387" ry="18"/>
<text text-anchor="middle" x="1259.3" y="-275.3" font-family="Times New Roman,serif" font-size="14.00">Ink_Pot_A_Quill</text>
</g>
<!-- Feather_A_Quill&#45;&gt;Ink_Pot_A_Quill -->
<g id="edge22" class="edge"><title>Feather_A_Quill&#45;&gt;Ink_Pot_A_Quill</title>
<path fill="none" stroke="black" d="M1366.93,-348.676C1353.49,-338.622 1335.66,-325.662 1319.3,-315 1311.96,-310.22 1303.96,-305.337 1296.27,-300.793"/>
<polygon fill="black" stroke="black" points="1297.83,-297.653 1287.43,-295.641 1294.3,-303.7 1297.83,-297.653"/>
<text text-anchor="middle" x="1368.3" y="-318.8" font-family="Times New Roman,serif" font-size="14.00">Crafting 0</text>
</g>
<!-- Moonstone -->
<g id="node20" class="node"><title>Moonstone</title>
<ellipse fill="none" stroke="black" cx="866.298" cy="-453" rx="51.9908" ry="18"/>
<text text-anchor="middle" x="866.298" y="-449.3" font-family="Times New Roman,serif" font-size="14.00">Moonstone</text>
</g>
<!-- Moonstone&#45;&gt;Pouch_Dust_Moon -->
<g id="edge23" class="edge"><title>Moonstone&#45;&gt;Pouch_Dust_Moon</title>
<path fill="none" stroke="black" d="M861.868,-434.911C860.201,-424.569 860.004,-411.575 866.298,-402 870.853,-395.069 877.104,-389.504 884.131,-385.038"/>
<polygon fill="black" stroke="black" points="886.304,-387.837 893.376,-379.948 882.928,-381.705 886.304,-387.837"/>
<text text-anchor="middle" x="894.298" y="-405.8" font-family="Times New Roman,serif" font-size="14.00">Crafting 0</text>
</g>
<!-- Scroll_Skill_Fire_Blank&#45;&gt;BOOK_Skill_Fire_Blank -->
<g id="edge25" class="edge"><title>Scroll_Skill_Fire_Blank&#45;&gt;BOOK_Skill_Fire_Blank</title>
<path fill="none" stroke="black" d="M842.298,-173.799C842.298,-162.163 842.298,-146.548 842.298,-133.237"/>
<polygon fill="black" stroke="black" points="845.798,-133.175 842.298,-123.175 838.798,-133.175 845.798,-133.175"/>
<text text-anchor="middle" x="870.298" y="-144.8" font-family="Times New Roman,serif" font-size="14.00">Crafting 5</text>
</g>
<!-- Scroll_Skill_Fire_Blank&#45;&gt;SCROLL_FireFly_1 -->
<g id="edge24" class="edge"><title>Scroll_Skill_Fire_Blank&#45;&gt;SCROLL_FireFly_1</title>
<path fill="none" stroke="black" d="M880.081,-175.41C914.308,-161.287 964.856,-140.43 1001.6,-125.268"/>
<polygon fill="black" stroke="black" points="1003.19,-128.398 1011.1,-121.348 1000.52,-121.927 1003.19,-128.398"/>
<text text-anchor="middle" x="985.298" y="-144.8" font-family="Times New Roman,serif" font-size="14.00">Crafting 5</text>
</g>
<!-- Axe -->
<g id="node22" class="node"><title>Axe</title>
<ellipse fill="none" stroke="black" cx="556.298" cy="-540" rx="27" ry="18"/>
<text text-anchor="middle" x="556.298" y="-536.3" font-family="Times New Roman,serif" font-size="14.00">Axe</text>
</g>
<!-- Axe&#45;&gt;Scraps_Wood -->
<g id="edge26" class="edge"><title>Axe&#45;&gt;Scraps_Wood</title>
<path fill="none" stroke="black" d="M549.215,-522.219C545.02,-512.458 539.52,-499.958 534.298,-489 532.886,-486.039 531.372,-482.958 529.842,-479.906"/>
<polygon fill="black" stroke="black" points="532.955,-478.306 525.295,-470.987 526.718,-481.485 532.955,-478.306"/>
<text text-anchor="middle" x="569.298" y="-492.8" font-family="Times New Roman,serif" font-size="14.00">Crafting 0</text>
</g>
<!-- Barrel -->
<g id="node23" class="node"><title>Barrel</title>
<ellipse fill="none" stroke="black" cx="373.298" cy="-540" rx="32.4942" ry="18"/>
<text text-anchor="middle" x="373.298" y="-536.3" font-family="Times New Roman,serif" font-size="14.00">Barrel</text>
</g>
<!-- Barrel&#45;&gt;Scraps_Wood_A_Mush -->
<g id="edge27" class="edge"><title>Barrel&#45;&gt;Scraps_Wood_A_Mush</title>
<path fill="none" stroke="black" d="M368.619,-521.879C360.42,-491.872 343.398,-429.579 333.624,-393.812"/>
<polygon fill="black" stroke="black" points="336.969,-392.775 330.957,-384.052 330.217,-394.621 336.969,-392.775"/>
<text text-anchor="middle" x="383.298" y="-449.3" font-family="Times New Roman,serif" font-size="14.00">Crafting 0</text>
</g>
<!-- Barrel&#45;&gt;Bucket_A_Water -->
<g id="edge28" class="edge"><title>Barrel&#45;&gt;Bucket_A_Water</title>
<path fill="none" stroke="black" d="M349.761,-527.429C327.871,-516.854 294.225,-501.071 264.298,-489 249.045,-482.848 232.248,-476.724 216.846,-471.358"/>
<polygon fill="black" stroke="black" points="217.551,-467.899 206.956,-467.95 215.27,-474.517 217.551,-467.899"/>
<text text-anchor="middle" x="326.298" y="-492.8" font-family="Times New Roman,serif" font-size="14.00">Crafting 0</text>
</g>
<!-- Pillow -->
<g id="node24" class="node"><title>Pillow</title>
<ellipse fill="none" stroke="black" cx="1393.3" cy="-540" rx="33.2948" ry="18"/>
<text text-anchor="middle" x="1393.3" y="-536.3" font-family="Times New Roman,serif" font-size="14.00">Pillow</text>
</g>
<!-- Pillow&#45;&gt;Feather -->
<g id="edge29" class="edge"><title>Pillow&#45;&gt;Feather</title>
<path fill="none" stroke="black" d="M1393.3,-521.799C1393.3,-510.163 1393.3,-494.548 1393.3,-481.237"/>
<polygon fill="black" stroke="black" points="1396.8,-481.175 1393.3,-471.175 1389.8,-481.175 1396.8,-481.175"/>
<text text-anchor="middle" x="1421.3" y="-492.8" font-family="Times New Roman,serif" font-size="14.00">Crafting 0</text>
</g>
<!-- Bone -->
<g id="node25" class="node"><title>Bone</title>
<ellipse fill="none" stroke="black" cx="766.298" cy="-453" rx="29.795" ry="18"/>
<text text-anchor="middle" x="766.298" y="-449.3" font-family="Times New Roman,serif" font-size="14.00">Bone</text>
</g>
<!-- Bone&#45;&gt;Pouch_Dust_Bone -->
<g id="edge30" class="edge"><title>Bone&#45;&gt;Pouch_Dust_Bone</title>
<path fill="none" stroke="black" d="M766.298,-434.799C766.298,-423.163 766.298,-407.548 766.298,-394.237"/>
<polygon fill="black" stroke="black" points="769.798,-394.175 766.298,-384.175 762.798,-394.175 769.798,-394.175"/>
<text text-anchor="middle" x="794.298" y="-405.8" font-family="Times New Roman,serif" font-size="14.00">Crafting 0</text>
</g>
<!-- Ink_Pot -->
<g id="node26" class="node"><title>Ink_Pot</title>
<ellipse fill="none" stroke="black" cx="1259.3" cy="-366" rx="40.0939" ry="18"/>
<text text-anchor="middle" x="1259.3" y="-362.3" font-family="Times New Roman,serif" font-size="14.00">Ink_Pot</text>
</g>
<!-- Ink_Pot&#45;&gt;Ink_Pot_A_Quill -->
<g id="edge31" class="edge"><title>Ink_Pot&#45;&gt;Ink_Pot_A_Quill</title>
<path fill="none" stroke="black" d="M1259.3,-347.799C1259.3,-336.163 1259.3,-320.548 1259.3,-307.237"/>
<polygon fill="black" stroke="black" points="1262.8,-307.175 1259.3,-297.175 1255.8,-307.175 1262.8,-307.175"/>
<text text-anchor="middle" x="1287.3" y="-318.8" font-family="Times New Roman,serif" font-size="14.00">Crafting 0</text>
</g>
<!-- Scraps_Wood&#45;&gt;Scraps_Wood_A_Mush -->
<g id="edge32" class="edge"><title>Scraps_Wood&#45;&gt;Scraps_Wood_A_Mush</title>
<path fill="none" stroke="black" d="M483.635,-437.388C452.601,-423.504 405.675,-402.511 371.144,-387.063"/>
<polygon fill="black" stroke="black" points="372.314,-383.752 361.757,-382.863 369.455,-390.142 372.314,-383.752"/>
<text text-anchor="middle" x="461.298" y="-405.8" font-family="Times New Roman,serif" font-size="14.00">Crafting 0</text>
</g>
<!-- Dagger -->
<g id="node28" class="node"><title>Dagger</title>
<ellipse fill="none" stroke="black" cx="1512.3" cy="-540" rx="36.2938" ry="18"/>
<text text-anchor="middle" x="1512.3" y="-536.3" font-family="Times New Roman,serif" font-size="14.00">Dagger</text>
</g>
<!-- Dagger&#45;&gt;Feather -->
<g id="edge34" class="edge"><title>Dagger&#45;&gt;Feather</title>
<path fill="none" stroke="black" d="M1494.86,-523.938C1482.69,-513.674 1465.89,-500.005 1450.3,-489 1442.36,-483.394 1433.51,-477.711 1425.21,-472.601"/>
<polygon fill="black" stroke="black" points="1426.84,-469.499 1416.47,-467.313 1423.21,-475.487 1426.84,-469.499"/>
<text text-anchor="middle" x="1497.3" y="-492.8" font-family="Times New Roman,serif" font-size="14.00">Crafting 0</text>
</g>
<!-- Dagger&#45;&gt;Feather_A_Quill -->
<g id="edge33" class="edge"><title>Dagger&#45;&gt;Feather_A_Quill</title>
<path fill="none" stroke="black" d="M1523.72,-522.666C1529.14,-512.838 1533.59,-500.118 1529.3,-489 1511.26,-442.294 1463.54,-407.49 1428.6,-387.256"/>
<polygon fill="black" stroke="black" points="1430,-384.029 1419.57,-382.183 1426.57,-390.132 1430,-384.029"/>
<text text-anchor="middle" x="1547.3" y="-449.3" font-family="Times New Roman,serif" font-size="14.00">Crafting 0</text>
</g>
<!-- Ink_Pot_A_Quill&#45;&gt;Ink_Pot_A_Quill_A_Magic -->
<g id="edge35" class="edge"><title>Ink_Pot_A_Quill&#45;&gt;Ink_Pot_A_Quill_A_Magic</title>
<path fill="none" stroke="black" d="M1225.33,-262.804C1194.4,-248.967 1148.51,-228.435 1114.49,-213.217"/>
<polygon fill="black" stroke="black" points="1115.79,-209.965 1105.23,-209.076 1112.93,-216.355 1115.79,-209.965"/>
<text text-anchor="middle" x="1203.3" y="-231.8" font-family="Times New Roman,serif" font-size="14.00">Crafting 1</text>
</g>
<!-- Oven -->
<g id="node30" class="node"><title>Oven</title>
<ellipse fill="none" stroke="black" cx="177.298" cy="-366" rx="30.5947" ry="18"/>
<text text-anchor="middle" x="177.298" y="-362.3" font-family="Times New Roman,serif" font-size="14.00">Oven</text>
</g>
<!-- Oven&#45;&gt;BOOK_Paper_Sheet -->
<g id="edge36" class="edge"><title>Oven&#45;&gt;BOOK_Paper_Sheet</title>
<path fill="none" stroke="black" d="M198.646,-352.822C222.244,-339.359 260.688,-317.428 289.23,-301.146"/>
<polygon fill="black" stroke="black" points="291.165,-304.071 298.117,-296.076 287.697,-297.991 291.165,-304.071"/>
<text text-anchor="middle" x="289.298" y="-318.8" font-family="Times New Roman,serif" font-size="14.00">Crafting 0</text>
</g>
<!-- Pouch_Dust_Star&#45;&gt;Pouch_Dust_Pixie -->
<g id="edge37" class="edge"><title>Pouch_Dust_Star&#45;&gt;Pouch_Dust_Pixie</title>
<path fill="none" stroke="black" d="M1092.24,-349.607C1063.35,-335.733 1020.69,-315.245 989.123,-300.086"/>
<polygon fill="black" stroke="black" points="990.24,-296.74 979.711,-295.566 987.21,-303.05 990.24,-296.74"/>
<text text-anchor="middle" x="1074.3" y="-318.8" font-family="Times New Roman,serif" font-size="14.00">Crafting 0</text>
</g>
<!-- MortarPestle -->
<g id="node32" class="node"><title>MortarPestle</title>
<ellipse fill="none" stroke="black" cx="1023.3" cy="-453" rx="57.3905" ry="18"/>
<text text-anchor="middle" x="1023.3" y="-449.3" font-family="Times New Roman,serif" font-size="14.00">MortarPestle</text>
</g>
<!-- MortarPestle&#45;&gt;Pouch_Dust_Bone -->
<g id="edge38" class="edge"><title>MortarPestle&#45;&gt;Pouch_Dust_Bone</title>
<path fill="none" stroke="black" d="M987.179,-438.99C972.512,-433.098 955.671,-425.535 941.298,-417 932.047,-411.507 932.011,-406.626 922.298,-402 913.959,-398.028 872.118,-388.725 833.868,-380.708"/>
<polygon fill="black" stroke="black" points="834.23,-377.208 823.726,-378.594 832.802,-384.061 834.23,-377.208"/>
<text text-anchor="middle" x="969.298" y="-405.8" font-family="Times New Roman,serif" font-size="14.00">Crafting 0</text>
</g>
<!-- MortarPestle&#45;&gt;Pouch_Dust_Moon -->
<g id="edge40" class="edge"><title>MortarPestle&#45;&gt;Pouch_Dust_Moon</title>
<path fill="none" stroke="black" d="M1018.52,-434.882C1015.01,-424.529 1009.41,-411.533 1001.3,-402 997.116,-397.087 992.073,-392.609 986.77,-388.62"/>
<polygon fill="black" stroke="black" points="988.524,-385.578 978.309,-382.763 984.539,-391.333 988.524,-385.578"/>
<text text-anchor="middle" x="1038.3" y="-405.8" font-family="Times New Roman,serif" font-size="14.00">Crafting 0</text>
</g>
<!-- MortarPestle&#45;&gt;Pouch_Dust_Star -->
<g id="edge39" class="edge"><title>MortarPestle&#45;&gt;Pouch_Dust_Star</title>
<path fill="none" stroke="black" d="M1045.67,-436.094C1053.59,-430.267 1062.47,-423.504 1070.3,-417 1080.28,-408.705 1090.84,-399.122 1099.95,-390.579"/>
<polygon fill="black" stroke="black" points="1102.36,-393.115 1107.21,-383.698 1097.55,-388.032 1102.36,-393.115"/>
<text text-anchor="middle" x="1114.3" y="-405.8" font-family="Times New Roman,serif" font-size="14.00">Crafting 0</text>
</g>
</g>
</svg>
