<?xml version="1.0" encoding="UTF-8" standalone="no"?>
<!DOCTYPE svg PUBLIC "-//W3C//DTD SVG 1.1//EN"
 "http://www.w3.org/Graphics/SVG/1.1/DTD/svg11.dtd">
<!-- Generated by graphviz version 2.38.0 (20140413.2041)
 -->
<!-- Title: G Pages: 1 -->
<svg width="1585pt" height="566pt"
 viewBox="0.00 0.00 1584.74 566.00" xmlns="http://www.w3.org/2000/svg" xmlns:xlink="http://www.w3.org/1999/xlink">
<g id="graph0" class="graph" transform="scale(1 1) rotate(0) translate(4 562)">
<title>G</title>
<polygon fill="white" stroke="none" points="-4,4 -4,-562 1580.74,-562 1580.74,4 -4,4"/>
<!-- Log -->
<g id="node1" class="node"><title>Log</title>
<ellipse fill="none" stroke="black" cx="1444.4" cy="-540" rx="27" ry="18"/>
<text text-anchor="middle" x="1444.4" y="-536.3" font-family="Times New Roman,serif" font-size="14.00">Log</text>
</g>
<!-- Scraps_Wood -->
<g id="node28" class="node"><title>Scraps_Wood</title>
<ellipse fill="none" stroke="black" cx="1512.4" cy="-453" rx="64.189" ry="18"/>
<text text-anchor="middle" x="1512.4" y="-449.3" font-family="Times New Roman,serif" font-size="14.00">Scraps_Wood</text>
</g>
<!-- Log&#45;&gt;Scraps_Wood -->
<g id="edge1" class="edge"><title>Log&#45;&gt;Scraps_Wood</title>
<path fill="none" stroke="black" d="M1445.69,-521.909C1447.19,-511.566 1450.43,-498.572 1457.4,-489 1461.42,-483.467 1466.62,-478.595 1472.2,-474.38"/>
<polygon fill="black" stroke="black" points="1474.28,-477.2 1480.57,-468.676 1470.34,-471.415 1474.28,-477.2"/>
<text text-anchor="middle" x="1485.4" y="-492.8" font-family="Times New Roman,serif" font-size="14.00">Crafting 0</text>
</g>
<!-- Scraps_Wood_A_Mush -->
<g id="node2" class="node"><title>Scraps_Wood_A_Mush</title>
<ellipse fill="none" stroke="black" cx="1187.4" cy="-366" rx="100.983" ry="18"/>
<text text-anchor="middle" x="1187.4" y="-362.3" font-family="Times New Roman,serif" font-size="14.00">Scraps_Wood_A_Mush</text>
</g>
<!-- BOOK_Paper_Sheet -->
<g id="node9" class="node"><title>BOOK_Paper_Sheet</title>
<ellipse fill="none" stroke="black" cx="1024.4" cy="-279" rx="87.1846" ry="18"/>
<text text-anchor="middle" x="1024.4" y="-275.3" font-family="Times New Roman,serif" font-size="14.00">BOOK_Paper_Sheet</text>
</g>
<!-- Scraps_Wood_A_Mush&#45;&gt;BOOK_Paper_Sheet -->
<g id="edge2" class="edge"><title>Scraps_Wood_A_Mush&#45;&gt;BOOK_Paper_Sheet</title>
<path fill="none" stroke="black" d="M1156.35,-348.812C1130.1,-335.121 1092.33,-315.424 1063.92,-300.608"/>
<polygon fill="black" stroke="black" points="1065.53,-297.504 1055.05,-295.984 1062.3,-303.711 1065.53,-297.504"/>
<text text-anchor="middle" x="1144.4" y="-318.8" font-family="Times New Roman,serif" font-size="14.00">Crafting 0</text>
</g>
<!-- Pouch_Dust_Bone -->
<g id="node3" class="node"><title>Pouch_Dust_Bone</title>
<ellipse fill="none" stroke="black" cx="513.397" cy="-366" rx="79.8859" ry="18"/>
<text text-anchor="middle" x="513.397" y="-362.3" font-family="Times New Roman,serif" font-size="14.00">Pouch_Dust_Bone</text>
</g>
<!-- Pouch_Dust_Pixie -->
<g id="node15" class="node"><title>Pouch_Dust_Pixie</title>
<ellipse fill="none" stroke="black" cx="694.397" cy="-279" rx="78.7863" ry="18"/>
<text text-anchor="middle" x="694.397" y="-275.3" font-family="Times New Roman,serif" font-size="14.00">Pouch_Dust_Pixie</text>
</g>
<!-- Pouch_Dust_Bone&#45;&gt;Pouch_Dust_Pixie -->
<g id="edge3" class="edge"><title>Pouch_Dust_Bone&#45;&gt;Pouch_Dust_Pixie</title>
<path fill="none" stroke="black" d="M546.595,-349.41C576.319,-335.451 620.053,-314.913 652.24,-299.798"/>
<polygon fill="black" stroke="black" points="653.845,-302.91 661.409,-295.491 650.87,-296.574 653.845,-302.91"/>
<text text-anchor="middle" x="643.397" y="-318.8" font-family="Times New Roman,serif" font-size="14.00">Crafting 0</text>
</g>
<!-- Bucket_A_Water -->
<g id="node4" class="node"><title>Bucket_A_Water</title>
<ellipse fill="none" stroke="black" cx="1260.4" cy="-453" rx="74.187" ry="18"/>
<text text-anchor="middle" x="1260.4" y="-449.3" font-family="Times New Roman,serif" font-size="14.00">Bucket_A_Water</text>
</g>
<!-- Bucket_A_Water&#45;&gt;Scraps_Wood_A_Mush -->
<g id="edge4" class="edge"><title>Bucket_A_Water&#45;&gt;Scraps_Wood_A_Mush</title>
<path fill="none" stroke="black" d="M1245.97,-435.207C1235.35,-422.831 1220.72,-405.796 1208.74,-391.847"/>
<polygon fill="black" stroke="black" points="1211.21,-389.355 1202.04,-384.049 1205.9,-393.916 1211.21,-389.355"/>
<text text-anchor="middle" x="1256.4" y="-405.8" font-family="Times New Roman,serif" font-size="14.00">Crafting 0</text>
</g>
<!-- Herb_Stardust -->
<g id="node5" class="node"><title>Herb_Stardust</title>
<ellipse fill="none" stroke="black" cx="908.397" cy="-453" rx="63.8893" ry="18"/>
<text text-anchor="middle" x="908.397" y="-449.3" font-family="Times New Roman,serif" font-size="14.00">Herb_Stardust</text>
</g>
<!-- Pouch_Dust_Star -->
<g id="node20" class="node"><title>Pouch_Dust_Star</title>
<ellipse fill="none" stroke="black" cx="871.397" cy="-366" rx="75.2868" ry="18"/>
<text text-anchor="middle" x="871.397" y="-362.3" font-family="Times New Roman,serif" font-size="14.00">Pouch_Dust_Star</text>
</g>
<!-- Herb_Stardust&#45;&gt;Pouch_Dust_Star -->
<g id="edge5" class="edge"><title>Herb_Stardust&#45;&gt;Pouch_Dust_Star</title>
<path fill="none" stroke="black" d="M900.909,-434.799C895.744,-422.932 888.777,-406.928 882.91,-393.449"/>
<polygon fill="black" stroke="black" points="886.074,-391.947 878.873,-384.175 879.655,-394.741 886.074,-391.947"/>
<text text-anchor="middle" x="920.397" y="-405.8" font-family="Times New Roman,serif" font-size="14.00">Crafting 0</text>
</g>
<!-- Feather -->
<g id="node6" class="node"><title>Feather</title>
<ellipse fill="none" stroke="black" cx="174.397" cy="-453" rx="37.8943" ry="18"/>
<text text-anchor="middle" x="174.397" y="-449.3" font-family="Times New Roman,serif" font-size="14.00">Feather</text>
</g>
<!-- Feather_A_Quill -->
<g id="node18" class="node"><title>Feather_A_Quill</title>
<ellipse fill="none" stroke="black" cx="207.397" cy="-366" rx="70.6878" ry="18"/>
<text text-anchor="middle" x="207.397" y="-362.3" font-family="Times New Roman,serif" font-size="14.00">Feather_A_Quill</text>
</g>
<!-- Feather&#45;&gt;Feather_A_Quill -->
<g id="edge6" class="edge"><title>Feather&#45;&gt;Feather_A_Quill</title>
<path fill="none" stroke="black" d="M180.917,-435.207C185.542,-423.293 191.843,-407.063 197.138,-393.424"/>
<polygon fill="black" stroke="black" points="200.421,-394.638 200.778,-384.049 193.896,-392.105 200.421,-394.638"/>
<text text-anchor="middle" x="221.397" y="-405.8" font-family="Times New Roman,serif" font-size="14.00">Crafting 0</text>
</g>
<!-- Knife -->
<g id="node7" class="node"><title>Knife</title>
<ellipse fill="none" stroke="black" cx="252.397" cy="-540" rx="30.5947" ry="18"/>
<text text-anchor="middle" x="252.397" y="-536.3" font-family="Times New Roman,serif" font-size="14.00">Knife</text>
</g>
<!-- Knife&#45;&gt;Feather -->
<g id="edge8" class="edge"><title>Knife&#45;&gt;Feather</title>
<path fill="none" stroke="black" d="M236.64,-524.345C230.216,-518.201 222.808,-510.894 216.397,-504 208.754,-495.781 200.741,-486.441 193.788,-478.077"/>
<polygon fill="black" stroke="black" points="196.295,-475.616 187.24,-470.115 190.889,-480.062 196.295,-475.616"/>
<text text-anchor="middle" x="244.397" y="-492.8" font-family="Times New Roman,serif" font-size="14.00">Crafting 0</text>
</g>
<!-- Knife&#45;&gt;Feather_A_Quill -->
<g id="edge7" class="edge"><title>Knife&#45;&gt;Feather_A_Quill</title>
<path fill="none" stroke="black" d="M263.836,-523.035C267.293,-517.311 270.636,-510.629 272.397,-504 281.023,-471.518 277.852,-440.347 253.397,-402 250.429,-397.347 246.613,-393.077 242.451,-389.241"/>
<polygon fill="black" stroke="black" points="244.627,-386.499 234.692,-382.816 240.162,-391.89 244.627,-386.499"/>
<text text-anchor="middle" x="305.397" y="-449.3" font-family="Times New Roman,serif" font-size="14.00">Crafting 0</text>
</g>
<!-- Pouch_Dust_Moon -->
<g id="node8" class="node"><title>Pouch_Dust_Moon</title>
<ellipse fill="none" stroke="black" cx="694.397" cy="-366" rx="83.3857" ry="18"/>
<text text-anchor="middle" x="694.397" y="-362.3" font-family="Times New Roman,serif" font-size="14.00">Pouch_Dust_Moon</text>
</g>
<!-- Pouch_Dust_Moon&#45;&gt;Pouch_Dust_Pixie -->
<g id="edge9" class="edge"><title>Pouch_Dust_Moon&#45;&gt;Pouch_Dust_Pixie</title>
<path fill="none" stroke="black" d="M694.397,-347.799C694.397,-336.163 694.397,-320.548 694.397,-307.237"/>
<polygon fill="black" stroke="black" points="697.897,-307.175 694.397,-297.175 690.897,-307.175 697.897,-307.175"/>
<text text-anchor="middle" x="722.397" y="-318.8" font-family="Times New Roman,serif" font-size="14.00">Crafting 0</text>
</g>
<!-- Scroll_Skill_Water_Blank -->
<g id="node21" class="node"><title>Scroll_Skill_Water_Blank</title>
<ellipse fill="none" stroke="black" cx="820.397" cy="-192" rx="104.782" ry="18"/>
<text text-anchor="middle" x="820.397" y="-188.3" font-family="Times New Roman,serif" font-size="14.00">Scroll_Skill_Water_Blank</text>
</g>
<!-- BOOK_Paper_Sheet&#45;&gt;Scroll_Skill_Water_Blank -->
<g id="edge10" class="edge"><title>BOOK_Paper_Sheet&#45;&gt;Scroll_Skill_Water_Blank</title>
<path fill="none" stroke="black" d="M987.454,-262.607C953.937,-248.642 904.334,-227.974 867.884,-212.786"/>
<polygon fill="black" stroke="black" points="869.025,-209.47 858.448,-208.855 866.333,-215.932 869.025,-209.47"/>
<text text-anchor="middle" x="963.397" y="-231.8" font-family="Times New Roman,serif" font-size="14.00">Crafting 1</text>
</g>
<!-- SKILLBOOK_Wall_Ice -->
<g id="node10" class="node"><title>SKILLBOOK_Wall_Ice</title>
<ellipse fill="none" stroke="black" cx="728.397" cy="-18" rx="99.3824" ry="18"/>
<text text-anchor="middle" x="728.397" y="-14.3" font-family="Times New Roman,serif" font-size="14.00">SKILLBOOK_Wall_Ice</text>
</g>
<!-- Well_A_Snow -->
<g id="node11" class="node"><title>Well_A_Snow</title>
<ellipse fill="none" stroke="black" cx="1240.4" cy="-540" rx="64.189" ry="18"/>
<text text-anchor="middle" x="1240.4" y="-536.3" font-family="Times New Roman,serif" font-size="14.00">Well_A_Snow</text>
</g>
<!-- Well_A_Snow&#45;&gt;Scraps_Wood_A_Mush -->
<g id="edge12" class="edge"><title>Well_A_Snow&#45;&gt;Scraps_Wood_A_Mush</title>
<path fill="none" stroke="black" d="M1192.56,-527.901C1176.18,-522.526 1158.46,-514.818 1144.4,-504 1130.23,-493.098 1126.75,-488.056 1121.4,-471 1116.6,-455.735 1115.38,-449.827 1121.4,-435 1128.53,-417.412 1142.63,-401.867 1155.98,-390.095"/>
<polygon fill="black" stroke="black" points="1158.29,-392.727 1163.69,-383.613 1153.79,-387.368 1158.29,-392.727"/>
<text text-anchor="middle" x="1149.4" y="-449.3" font-family="Times New Roman,serif" font-size="14.00">Crafting 0</text>
</g>
<!-- Well_A_Snow&#45;&gt;Bucket_A_Water -->
<g id="edge13" class="edge"><title>Well_A_Snow&#45;&gt;Bucket_A_Water</title>
<path fill="none" stroke="black" d="M1229.57,-522.038C1224.71,-512.217 1220.96,-499.717 1225.4,-489 1227.02,-485.07 1229.33,-481.351 1231.99,-477.909"/>
<polygon fill="black" stroke="black" points="1234.64,-480.197 1238.7,-470.41 1229.42,-475.531 1234.64,-480.197"/>
<text text-anchor="middle" x="1253.4" y="-492.8" font-family="Times New Roman,serif" font-size="14.00">Crafting 0</text>
</g>
<!-- SCROLL_IceWall_1 -->
<g id="node12" class="node"><title>SCROLL_IceWall_1</title>
<ellipse fill="none" stroke="black" cx="604.397" cy="-105" rx="88.2844" ry="18"/>
<text text-anchor="middle" x="604.397" y="-101.3" font-family="Times New Roman,serif" font-size="14.00">SCROLL_IceWall_1</text>
</g>
<!-- SCROLL_IceWall_1&#45;&gt;SKILLBOOK_Wall_Ice -->
<g id="edge14" class="edge"><title>SCROLL_IceWall_1&#45;&gt;SKILLBOOK_Wall_Ice</title>
<path fill="none" stroke="black" d="M628.305,-87.6111C647.48,-74.467 674.592,-55.8826 695.763,-41.3702"/>
<polygon fill="black" stroke="black" points="697.869,-44.1695 704.139,-35.6286 693.912,-38.3957 697.869,-44.1695"/>
<text text-anchor="middle" x="702.397" y="-57.8" font-family="Times New Roman,serif" font-size="14.00">Crafting 4</text>
</g>
<!-- Ink_Pot_A_Quill_A_Magic -->
<g id="node13" class="node"><title>Ink_Pot_A_Quill_A_Magic</title>
<ellipse fill="none" stroke="black" cx="586.397" cy="-192" rx="111.581" ry="18"/>
<text text-anchor="middle" x="586.397" y="-188.3" font-family="Times New Roman,serif" font-size="14.00">Ink_Pot_A_Quill_A_Magic</text>
</g>
<!-- Ink_Pot_A_Quill_A_Magic&#45;&gt;SCROLL_IceWall_1 -->
<g id="edge15" class="edge"><title>Ink_Pot_A_Quill_A_Magic&#45;&gt;SCROLL_IceWall_1</title>
<path fill="none" stroke="black" d="M590.039,-173.799C592.504,-162.163 595.81,-146.548 598.629,-133.237"/>
<polygon fill="black" stroke="black" points="602.112,-133.684 600.76,-123.175 595.264,-132.233 602.112,-133.684"/>
<text text-anchor="middle" x="625.397" y="-144.8" font-family="Times New Roman,serif" font-size="14.00">Crafting 5</text>
</g>
<!-- Skull_Human -->
<g id="node14" class="node"><title>Skull_Human</title>
<ellipse fill="none" stroke="black" cx="420.397" cy="-453" rx="59.5901" ry="18"/>
<text text-anchor="middle" x="420.397" y="-449.3" font-family="Times New Roman,serif" font-size="14.00">Skull_Human</text>
</g>
<!-- Skull_Human&#45;&gt;Pouch_Dust_Bone -->
<g id="edge16" class="edge"><title>Skull_Human&#45;&gt;Pouch_Dust_Bone</title>
<path fill="none" stroke="black" d="M429.104,-434.813C434.962,-424.434 443.424,-411.436 453.397,-402 458.877,-396.815 465.262,-392.073 471.783,-387.869"/>
<polygon fill="black" stroke="black" points="473.945,-390.651 480.686,-382.477 470.319,-384.664 473.945,-390.651"/>
<text text-anchor="middle" x="481.397" y="-405.8" font-family="Times New Roman,serif" font-size="14.00">Crafting 0</text>
</g>
<!-- Pouch_Dust_Pixie&#45;&gt;Ink_Pot_A_Quill_A_Magic -->
<g id="edge17" class="edge"><title>Pouch_Dust_Pixie&#45;&gt;Ink_Pot_A_Quill_A_Magic</title>
<path fill="none" stroke="black" d="M673.573,-261.611C657.202,-248.726 634.187,-230.613 615.916,-216.233"/>
<polygon fill="black" stroke="black" points="617.918,-213.355 607.896,-209.92 613.589,-218.855 617.918,-213.355"/>
<text text-anchor="middle" x="675.397" y="-231.8" font-family="Times New Roman,serif" font-size="14.00">Crafting 1</text>
</g>
<!-- Pouch_Dust_Pixie&#45;&gt;Scroll_Skill_Water_Blank -->
<g id="edge18" class="edge"><title>Pouch_Dust_Pixie&#45;&gt;Scroll_Skill_Water_Blank</title>
<path fill="none" stroke="black" d="M718.393,-261.812C737.847,-248.688 765.482,-230.046 787.082,-215.474"/>
<polygon fill="black" stroke="black" points="789.296,-218.202 795.629,-209.708 785.382,-212.399 789.296,-218.202"/>
<text text-anchor="middle" x="793.397" y="-231.8" font-family="Times New Roman,serif" font-size="14.00">Crafting 1</text>
</g>
<!-- Bucket -->
<g id="node16" class="node"><title>Bucket</title>
<ellipse fill="none" stroke="black" cx="1121.4" cy="-540" rx="36.2938" ry="18"/>
<text text-anchor="middle" x="1121.4" y="-536.3" font-family="Times New Roman,serif" font-size="14.00">Bucket</text>
</g>
<!-- Bucket&#45;&gt;Bucket_A_Water -->
<g id="edge19" class="edge"><title>Bucket&#45;&gt;Bucket_A_Water</title>
<path fill="none" stroke="black" d="M1132.1,-522.652C1139.92,-511.814 1151.4,-497.987 1164.4,-489 1175.56,-481.281 1188.62,-475.049 1201.45,-470.106"/>
<polygon fill="black" stroke="black" points="1202.98,-473.276 1211.19,-466.574 1200.59,-466.696 1202.98,-473.276"/>
<text text-anchor="middle" x="1192.4" y="-492.8" font-family="Times New Roman,serif" font-size="14.00">Crafting 0</text>
</g>
<!-- Well -->
<g id="node17" class="node"><title>Well</title>
<ellipse fill="none" stroke="black" cx="1029.4" cy="-540" rx="27.0966" ry="18"/>
<text text-anchor="middle" x="1029.4" y="-536.3" font-family="Times New Roman,serif" font-size="14.00">Well</text>
</g>
<!-- Well&#45;&gt;Scraps_Wood_A_Mush -->
<g id="edge20" class="edge"><title>Well&#45;&gt;Scraps_Wood_A_Mush</title>
<path fill="none" stroke="black" d="M1029.91,-521.637C1031.42,-499.306 1037.04,-460.382 1057.4,-435 1075.55,-412.359 1103.3,-396.402 1128.51,-385.663"/>
<polygon fill="black" stroke="black" points="1130.07,-388.806 1138.02,-381.8 1127.43,-382.321 1130.07,-388.806"/>
<text text-anchor="middle" x="1085.4" y="-449.3" font-family="Times New Roman,serif" font-size="14.00">Crafting 0</text>
</g>
<!-- Well&#45;&gt;Bucket_A_Water -->
<g id="edge21" class="edge"><title>Well&#45;&gt;Bucket_A_Water</title>
<path fill="none" stroke="black" d="M1042.95,-523.98C1054.05,-512.619 1070.76,-497.56 1088.4,-489 1090.92,-487.777 1147.29,-476.412 1194.81,-466.959"/>
<polygon fill="black" stroke="black" points="1195.67,-470.357 1204.8,-464.976 1194.31,-463.491 1195.67,-470.357"/>
<text text-anchor="middle" x="1116.4" y="-492.8" font-family="Times New Roman,serif" font-size="14.00">Crafting 0</text>
</g>
<!-- Ink_Pot_A_Quill -->
<g id="node30" class="node"><title>Ink_Pot_A_Quill</title>
<ellipse fill="none" stroke="black" cx="362.397" cy="-279" rx="73.387" ry="18"/>
<text text-anchor="middle" x="362.397" y="-275.3" font-family="Times New Roman,serif" font-size="14.00">Ink_Pot_A_Quill</text>
</g>
<!-- Feather_A_Quill&#45;&gt;Ink_Pot_A_Quill -->
<g id="edge22" class="edge"><title>Feather_A_Quill&#45;&gt;Ink_Pot_A_Quill</title>
<path fill="none" stroke="black" d="M235.826,-349.41C260.874,-335.674 297.54,-315.567 324.968,-300.525"/>
<polygon fill="black" stroke="black" points="326.8,-303.512 333.886,-295.635 323.435,-297.375 326.8,-303.512"/>
<text text-anchor="middle" x="322.397" y="-318.8" font-family="Times New Roman,serif" font-size="14.00">Crafting 0</text>
</g>
<!-- Moonstone -->
<g id="node19" class="node"><title>Moonstone</title>
<ellipse fill="none" stroke="black" cx="642.397" cy="-453" rx="51.9908" ry="18"/>
<text text-anchor="middle" x="642.397" y="-449.3" font-family="Times New Roman,serif" font-size="14.00">Moonstone</text>
</g>
<!-- Moonstone&#45;&gt;Pouch_Dust_Moon -->
<g id="edge23" class="edge"><title>Moonstone&#45;&gt;Pouch_Dust_Moon</title>
<path fill="none" stroke="black" d="M652.311,-435.281C658.115,-425.541 665.615,-413.041 672.397,-402 674.256,-398.973 676.219,-395.808 678.176,-392.671"/>
<polygon fill="black" stroke="black" points="681.237,-394.377 683.583,-384.046 675.306,-390.659 681.237,-394.377"/>
<text text-anchor="middle" x="700.397" y="-405.8" font-family="Times New Roman,serif" font-size="14.00">Crafting 0</text>
</g>
<!-- Pouch_Dust_Star&#45;&gt;Pouch_Dust_Pixie -->
<g id="edge24" class="edge"><title>Pouch_Dust_Star&#45;&gt;Pouch_Dust_Pixie</title>
<path fill="none" stroke="black" d="M839.343,-349.607C810.453,-335.733 767.789,-315.245 736.222,-300.086"/>
<polygon fill="black" stroke="black" points="737.339,-296.74 726.81,-295.566 734.309,-303.05 737.339,-296.74"/>
<text text-anchor="middle" x="822.397" y="-318.8" font-family="Times New Roman,serif" font-size="14.00">Crafting 0</text>
</g>
<!-- Scroll_Skill_Water_Blank&#45;&gt;SCROLL_IceWall_1 -->
<g id="edge25" class="edge"><title>Scroll_Skill_Water_Blank&#45;&gt;SCROLL_IceWall_1</title>
<path fill="none" stroke="black" d="M780.527,-175.311C744.455,-161.115 691.243,-140.176 652.755,-125.03"/>
<polygon fill="black" stroke="black" points="653.893,-121.717 643.306,-121.312 651.33,-128.23 653.893,-121.717"/>
<text text-anchor="middle" x="753.397" y="-144.8" font-family="Times New Roman,serif" font-size="14.00">Crafting 5</text>
</g>
<!-- BOOK_Skill_Water_Blank -->
<g id="node24" class="node"><title>BOOK_Skill_Water_Blank</title>
<ellipse fill="none" stroke="black" cx="820.397" cy="-105" rx="109.381" ry="18"/>
<text text-anchor="middle" x="820.397" y="-101.3" font-family="Times New Roman,serif" font-size="14.00">BOOK_Skill_Water_Blank</text>
</g>
<!-- Scroll_Skill_Water_Blank&#45;&gt;BOOK_Skill_Water_Blank -->
<g id="edge26" class="edge"><title>Scroll_Skill_Water_Blank&#45;&gt;BOOK_Skill_Water_Blank</title>
<path fill="none" stroke="black" d="M820.397,-173.799C820.397,-162.163 820.397,-146.548 820.397,-133.237"/>
<polygon fill="black" stroke="black" points="823.897,-133.175 820.397,-123.175 816.897,-133.175 823.897,-133.175"/>
<text text-anchor="middle" x="848.397" y="-144.8" font-family="Times New Roman,serif" font-size="14.00">Crafting 5</text>
</g>
<!-- Axe -->
<g id="node22" class="node"><title>Axe</title>
<ellipse fill="none" stroke="black" cx="1523.4" cy="-540" rx="27" ry="18"/>
<text text-anchor="middle" x="1523.4" y="-536.3" font-family="Times New Roman,serif" font-size="14.00">Axe</text>
</g>
<!-- Axe&#45;&gt;Scraps_Wood -->
<g id="edge27" class="edge"><title>Axe&#45;&gt;Scraps_Wood</title>
<path fill="none" stroke="black" d="M1521.17,-521.799C1519.66,-510.163 1517.64,-494.548 1515.92,-481.237"/>
<polygon fill="black" stroke="black" points="1519.37,-480.644 1514.62,-471.175 1512.43,-481.542 1519.37,-480.644"/>
<text text-anchor="middle" x="1547.4" y="-492.8" font-family="Times New Roman,serif" font-size="14.00">Crafting 0</text>
</g>
<!-- Barrel -->
<g id="node23" class="node"><title>Barrel</title>
<ellipse fill="none" stroke="black" cx="1359.4" cy="-540" rx="32.4942" ry="18"/>
<text text-anchor="middle" x="1359.4" y="-536.3" font-family="Times New Roman,serif" font-size="14.00">Barrel</text>
</g>
<!-- Barrel&#45;&gt;Scraps_Wood_A_Mush -->
<g id="edge28" class="edge"><title>Barrel&#45;&gt;Scraps_Wood_A_Mush</title>
<path fill="none" stroke="black" d="M1361.55,-521.893C1363.4,-499.485 1363.19,-460.104 1343.4,-435 1323.09,-409.251 1291.07,-393.047 1261.31,-382.952"/>
<polygon fill="black" stroke="black" points="1262.34,-379.605 1251.75,-379.884 1260.2,-386.271 1262.34,-379.605"/>
<text text-anchor="middle" x="1387.4" y="-449.3" font-family="Times New Roman,serif" font-size="14.00">Crafting 0</text>
</g>
<!-- Barrel&#45;&gt;Bucket_A_Water -->
<g id="edge29" class="edge"><title>Barrel&#45;&gt;Bucket_A_Water</title>
<path fill="none" stroke="black" d="M1336.99,-526.706C1326.6,-520.524 1314.37,-512.537 1304.4,-504 1295.61,-496.479 1286.97,-487.201 1279.71,-478.688"/>
<polygon fill="black" stroke="black" points="1282.28,-476.308 1273.2,-470.843 1276.89,-480.775 1282.28,-476.308"/>
<text text-anchor="middle" x="1332.4" y="-492.8" font-family="Times New Roman,serif" font-size="14.00">Crafting 0</text>
</g>
<!-- BOOK_Skill_Water_Blank&#45;&gt;SKILLBOOK_Wall_Ice -->
<g id="edge30" class="edge"><title>BOOK_Skill_Water_Blank&#45;&gt;SKILLBOOK_Wall_Ice</title>
<path fill="none" stroke="black" d="M802.221,-87.2067C788.486,-74.517 769.45,-56.9297 754.149,-42.7925"/>
<polygon fill="black" stroke="black" points="756.255,-39.9738 746.535,-35.7584 751.505,-45.1153 756.255,-39.9738"/>
<text text-anchor="middle" x="808.397" y="-57.8" font-family="Times New Roman,serif" font-size="14.00">Crafting 4</text>
</g>
<!-- Pillow -->
<g id="node25" class="node"><title>Pillow</title>
<ellipse fill="none" stroke="black" cx="136.397" cy="-540" rx="33.2948" ry="18"/>
<text text-anchor="middle" x="136.397" y="-536.3" font-family="Times New Roman,serif" font-size="14.00">Pillow</text>
</g>
<!-- Pillow&#45;&gt;Feather -->
<g id="edge11" class="edge"><title>Pillow&#45;&gt;Feather</title>
<path fill="none" stroke="black" d="M133.524,-521.622C132.65,-511.663 132.9,-499.163 137.397,-489 139.577,-484.073 142.816,-479.508 146.486,-475.412"/>
<polygon fill="black" stroke="black" points="149.213,-477.64 153.909,-468.143 144.316,-472.639 149.213,-477.64"/>
<text text-anchor="middle" x="165.397" y="-492.8" font-family="Times New Roman,serif" font-size="14.00">Crafting 0</text>
</g>
<!-- Bone -->
<g id="node26" class="node"><title>Bone</title>
<ellipse fill="none" stroke="black" cx="528.397" cy="-453" rx="29.795" ry="18"/>
<text text-anchor="middle" x="528.397" y="-449.3" font-family="Times New Roman,serif" font-size="14.00">Bone</text>
</g>
<!-- Bone&#45;&gt;Pouch_Dust_Bone -->
<g id="edge31" class="edge"><title>Bone&#45;&gt;Pouch_Dust_Bone</title>
<path fill="none" stroke="black" d="M520.439,-435.643C518.023,-429.888 515.673,-423.285 514.397,-417 512.935,-409.797 512.33,-401.89 512.176,-394.532"/>
<polygon fill="black" stroke="black" points="515.677,-394.308 512.225,-384.292 508.677,-394.275 515.677,-394.308"/>
<text text-anchor="middle" x="542.397" y="-405.8" font-family="Times New Roman,serif" font-size="14.00">Crafting 0</text>
</g>
<!-- Ink_Pot -->
<g id="node27" class="node"><title>Ink_Pot</title>
<ellipse fill="none" stroke="black" cx="362.397" cy="-366" rx="40.0939" ry="18"/>
<text text-anchor="middle" x="362.397" y="-362.3" font-family="Times New Roman,serif" font-size="14.00">Ink_Pot</text>
</g>
<!-- Ink_Pot&#45;&gt;Ink_Pot_A_Quill -->
<g id="edge32" class="edge"><title>Ink_Pot&#45;&gt;Ink_Pot_A_Quill</title>
<path fill="none" stroke="black" d="M362.397,-347.799C362.397,-336.163 362.397,-320.548 362.397,-307.237"/>
<polygon fill="black" stroke="black" points="365.897,-307.175 362.397,-297.175 358.897,-307.175 365.897,-307.175"/>
<text text-anchor="middle" x="390.397" y="-318.8" font-family="Times New Roman,serif" font-size="14.00">Crafting 0</text>
</g>
<!-- Scraps_Wood&#45;&gt;Scraps_Wood_A_Mush -->
<g id="edge33" class="edge"><title>Scraps_Wood&#45;&gt;Scraps_Wood_A_Mush</title>
<path fill="none" stroke="black" d="M1480.93,-437.158C1456.25,-426.046 1420.76,-411.232 1388.4,-402 1352.74,-391.831 1312.65,-384.127 1277.7,-378.572"/>
<polygon fill="black" stroke="black" points="1277.92,-375.065 1267.51,-376.989 1276.85,-381.982 1277.92,-375.065"/>
<text text-anchor="middle" x="1458.4" y="-405.8" font-family="Times New Roman,serif" font-size="14.00">Crafting 0</text>
</g>
<!-- Dagger -->
<g id="node29" class="node"><title>Dagger</title>
<ellipse fill="none" stroke="black" cx="36.3968" cy="-540" rx="36.2938" ry="18"/>
<text text-anchor="middle" x="36.3968" y="-536.3" font-family="Times New Roman,serif" font-size="14.00">Dagger</text>
</g>
<!-- Dagger&#45;&gt;Feather -->
<g id="edge35" class="edge"><title>Dagger&#45;&gt;Feather</title>
<path fill="none" stroke="black" d="M45.713,-522.09C52.4297,-511.288 62.4048,-497.722 74.3968,-489 90.9151,-476.987 111.918,-468.81 130.408,-463.402"/>
<polygon fill="black" stroke="black" points="131.373,-466.766 140.093,-460.748 129.523,-460.015 131.373,-466.766"/>
<text text-anchor="middle" x="102.397" y="-492.8" font-family="Times New Roman,serif" font-size="14.00">Crafting 0</text>
</g>
<!-- Dagger&#45;&gt;Feather_A_Quill -->
<g id="edge34" class="edge"><title>Dagger&#45;&gt;Feather_A_Quill</title>
<path fill="none" stroke="black" d="M38.1199,-521.908C41.1955,-499.517 49.517,-460.154 71.3968,-435 92.5509,-410.68 124.465,-394.09 152.062,-383.388"/>
<polygon fill="black" stroke="black" points="153.459,-386.604 161.619,-379.846 151.026,-380.04 153.459,-386.604"/>
<text text-anchor="middle" x="99.3968" y="-449.3" font-family="Times New Roman,serif" font-size="14.00">Crafting 0</text>
</g>
<!-- Ink_Pot_A_Quill&#45;&gt;Ink_Pot_A_Quill_A_Magic -->
<g id="edge36" class="edge"><title>Ink_Pot_A_Quill&#45;&gt;Ink_Pot_A_Quill_A_Magic</title>
<path fill="none" stroke="black" d="M400.395,-263.581C437.489,-249.505 494.185,-227.991 535.231,-212.416"/>
<polygon fill="black" stroke="black" points="536.675,-215.611 544.783,-208.791 534.192,-209.067 536.675,-215.611"/>
<text text-anchor="middle" x="516.397" y="-231.8" font-family="Times New Roman,serif" font-size="14.00">Crafting 1</text>
</g>
<!-- Oven -->
<g id="node31" class="node"><title>Oven</title>
<ellipse fill="none" stroke="black" cx="1024.4" cy="-366" rx="30.5947" ry="18"/>
<text text-anchor="middle" x="1024.4" y="-362.3" font-family="Times New Roman,serif" font-size="14.00">Oven</text>
</g>
<!-- Oven&#45;&gt;BOOK_Paper_Sheet -->
<g id="edge37" class="edge"><title>Oven&#45;&gt;BOOK_Paper_Sheet</title>
<path fill="none" stroke="black" d="M1024.4,-347.799C1024.4,-336.163 1024.4,-320.548 1024.4,-307.237"/>
<polygon fill="black" stroke="black" points="1027.9,-307.175 1024.4,-297.175 1020.9,-307.175 1027.9,-307.175"/>
<text text-anchor="middle" x="1052.4" y="-318.8" font-family="Times New Roman,serif" font-size="14.00">Crafting 0</text>
</g>
<!-- MortarPestle -->
<g id="node32" class="node"><title>MortarPestle</title>
<ellipse fill="none" stroke="black" cx="769.397" cy="-453" rx="57.3905" ry="18"/>
<text text-anchor="middle" x="769.397" y="-449.3" font-family="Times New Roman,serif" font-size="14.00">MortarPestle</text>
</g>
<!-- MortarPestle&#45;&gt;Pouch_Dust_Bone -->
<g id="edge38" class="edge"><title>MortarPestle&#45;&gt;Pouch_Dust_Bone</title>
<path fill="none" stroke="black" d="M727.255,-440.662C719.351,-438.673 711.14,-436.699 703.397,-435 659.714,-425.416 646.541,-431.962 604.397,-417 584.33,-409.876 563.407,-398.681 546.69,-388.688"/>
<polygon fill="black" stroke="black" points="548.225,-385.524 537.868,-383.294 544.574,-391.497 548.225,-385.524"/>
<text text-anchor="middle" x="632.397" y="-405.8" font-family="Times New Roman,serif" font-size="14.00">Crafting 0</text>
</g>
<!-- MortarPestle&#45;&gt;Pouch_Dust_Moon -->
<g id="edge40" class="edge"><title>MortarPestle&#45;&gt;Pouch_Dust_Moon</title>
<path fill="none" stroke="black" d="M756.074,-435.039C748.217,-425.218 737.967,-412.718 728.397,-402 725.181,-398.398 721.711,-394.665 718.261,-391.038"/>
<polygon fill="black" stroke="black" points="720.754,-388.582 711.292,-383.817 715.718,-393.443 720.754,-388.582"/>
<text text-anchor="middle" x="769.397" y="-405.8" font-family="Times New Roman,serif" font-size="14.00">Crafting 0</text>
</g>
<!-- MortarPestle&#45;&gt;Pouch_Dust_Star -->
<g id="edge39" class="edge"><title>MortarPestle&#45;&gt;Pouch_Dust_Star</title>
<path fill="none" stroke="black" d="M788.182,-435.917C799.734,-426.067 814.866,-413.238 828.397,-402 833.046,-398.139 838,-394.067 842.831,-390.119"/>
<polygon fill="black" stroke="black" points="845.227,-392.682 850.769,-383.652 840.806,-387.255 845.227,-392.682"/>
<text text-anchor="middle" x="856.397" y="-405.8" font-family="Times New Roman,serif" font-size="14.00">Crafting 0</text>
</g>
</g>
</svg>
