<?xml version="1.0" encoding="UTF-8" standalone="no"?>
<!DOCTYPE svg PUBLIC "-//W3C//DTD SVG 1.1//EN"
 "http://www.w3.org/Graphics/SVG/1.1/DTD/svg11.dtd">
<!-- Generated by graphviz version 2.38.0 (20140413.2041)
 -->
<!-- Title: G Pages: 1 -->
<svg width="1623pt" height="566pt"
 viewBox="0.00 0.00 1623.34 566.00" xmlns="http://www.w3.org/2000/svg" xmlns:xlink="http://www.w3.org/1999/xlink">
<g id="graph0" class="graph" transform="scale(1 1) rotate(0) translate(4 562)">
<title>G</title>
<polygon fill="white" stroke="none" points="-4,4 -4,-562 1619.34,-562 1619.34,4 -4,4"/>
<!-- Log -->
<g id="node1" class="node"><title>Log</title>
<ellipse fill="none" stroke="black" cx="544.344" cy="-540" rx="27" ry="18"/>
<text text-anchor="middle" x="544.344" y="-536.3" font-family="Times New Roman,serif" font-size="14.00">Log</text>
</g>
<!-- Scraps_Wood -->
<g id="node26" class="node"><title>Scraps_Wood</title>
<ellipse fill="none" stroke="black" cx="574.344" cy="-453" rx="64.189" ry="18"/>
<text text-anchor="middle" x="574.344" y="-449.3" font-family="Times New Roman,serif" font-size="14.00">Scraps_Wood</text>
</g>
<!-- Log&#45;&gt;Scraps_Wood -->
<g id="edge1" class="edge"><title>Log&#45;&gt;Scraps_Wood</title>
<path fill="none" stroke="black" d="M541.94,-521.813C541.221,-511.917 541.471,-499.417 545.344,-489 546.659,-485.464 548.494,-482.027 550.61,-478.777"/>
<polygon fill="black" stroke="black" points="553.494,-480.765 556.699,-470.667 547.896,-476.562 553.494,-480.765"/>
<text text-anchor="middle" x="573.344" y="-492.8" font-family="Times New Roman,serif" font-size="14.00">Crafting 0</text>
</g>
<!-- SKILLBOOK_Shield_Fire -->
<g id="node2" class="node"><title>SKILLBOOK_Shield_Fire</title>
<ellipse fill="none" stroke="black" cx="984.344" cy="-18" rx="108.581" ry="18"/>
<text text-anchor="middle" x="984.344" y="-14.3" font-family="Times New Roman,serif" font-size="14.00">SKILLBOOK_Shield_Fire</text>
</g>
<!-- Scraps_Wood_A_Mush -->
<g id="node3" class="node"><title>Scraps_Wood_A_Mush</title>
<ellipse fill="none" stroke="black" cx="384.344" cy="-366" rx="100.983" ry="18"/>
<text text-anchor="middle" x="384.344" y="-362.3" font-family="Times New Roman,serif" font-size="14.00">Scraps_Wood_A_Mush</text>
</g>
<!-- BOOK_Paper_Sheet -->
<g id="node11" class="node"><title>BOOK_Paper_Sheet</title>
<ellipse fill="none" stroke="black" cx="384.344" cy="-279" rx="87.1846" ry="18"/>
<text text-anchor="middle" x="384.344" y="-275.3" font-family="Times New Roman,serif" font-size="14.00">BOOK_Paper_Sheet</text>
</g>
<!-- Scraps_Wood_A_Mush&#45;&gt;BOOK_Paper_Sheet -->
<g id="edge2" class="edge"><title>Scraps_Wood_A_Mush&#45;&gt;BOOK_Paper_Sheet</title>
<path fill="none" stroke="black" d="M384.344,-347.799C384.344,-336.163 384.344,-320.548 384.344,-307.237"/>
<polygon fill="black" stroke="black" points="387.844,-307.175 384.344,-297.175 380.844,-307.175 387.844,-307.175"/>
<text text-anchor="middle" x="412.344" y="-318.8" font-family="Times New Roman,serif" font-size="14.00">Crafting 0</text>
</g>
<!-- Pouch_Dust_Bone -->
<g id="node4" class="node"><title>Pouch_Dust_Bone</title>
<ellipse fill="none" stroke="black" cx="1142.34" cy="-366" rx="79.8859" ry="18"/>
<text text-anchor="middle" x="1142.34" y="-362.3" font-family="Times New Roman,serif" font-size="14.00">Pouch_Dust_Bone</text>
</g>
<!-- Pouch_Dust_Pixie -->
<g id="node15" class="node"><title>Pouch_Dust_Pixie</title>
<ellipse fill="none" stroke="black" cx="965.344" cy="-279" rx="78.7863" ry="18"/>
<text text-anchor="middle" x="965.344" y="-275.3" font-family="Times New Roman,serif" font-size="14.00">Pouch_Dust_Pixie</text>
</g>
<!-- Pouch_Dust_Bone&#45;&gt;Pouch_Dust_Pixie -->
<g id="edge3" class="edge"><title>Pouch_Dust_Bone&#45;&gt;Pouch_Dust_Pixie</title>
<path fill="none" stroke="black" d="M1109.88,-349.41C1080.94,-335.511 1038.41,-315.089 1006.98,-299.993"/>
<polygon fill="black" stroke="black" points="1008.13,-296.665 997.603,-295.491 1005.1,-302.976 1008.13,-296.665"/>
<text text-anchor="middle" x="1092.34" y="-318.8" font-family="Times New Roman,serif" font-size="14.00">Crafting 0</text>
</g>
<!-- Bucket_A_Water -->
<g id="node5" class="node"><title>Bucket_A_Water</title>
<ellipse fill="none" stroke="black" cx="222.344" cy="-453" rx="74.187" ry="18"/>
<text text-anchor="middle" x="222.344" y="-449.3" font-family="Times New Roman,serif" font-size="14.00">Bucket_A_Water</text>
</g>
<!-- Bucket_A_Water&#45;&gt;Scraps_Wood_A_Mush -->
<g id="edge4" class="edge"><title>Bucket_A_Water&#45;&gt;Scraps_Wood_A_Mush</title>
<path fill="none" stroke="black" d="M232.178,-434.866C239.26,-423.97 249.763,-410.383 262.344,-402 275.131,-393.481 290.002,-387.006 304.875,-382.094"/>
<polygon fill="black" stroke="black" points="306.102,-385.378 314.626,-379.086 304.039,-378.689 306.102,-385.378"/>
<text text-anchor="middle" x="290.344" y="-405.8" font-family="Times New Roman,serif" font-size="14.00">Crafting 0</text>
</g>
<!-- Herb_Stardust -->
<g id="node6" class="node"><title>Herb_Stardust</title>
<ellipse fill="none" stroke="black" cx="1004.34" cy="-453" rx="63.8893" ry="18"/>
<text text-anchor="middle" x="1004.34" y="-449.3" font-family="Times New Roman,serif" font-size="14.00">Herb_Stardust</text>
</g>
<!-- Pouch_Dust_Star -->
<g id="node20" class="node"><title>Pouch_Dust_Star</title>
<ellipse fill="none" stroke="black" cx="965.344" cy="-366" rx="75.2868" ry="18"/>
<text text-anchor="middle" x="965.344" y="-362.3" font-family="Times New Roman,serif" font-size="14.00">Pouch_Dust_Star</text>
</g>
<!-- Herb_Stardust&#45;&gt;Pouch_Dust_Star -->
<g id="edge5" class="edge"><title>Herb_Stardust&#45;&gt;Pouch_Dust_Star</title>
<path fill="none" stroke="black" d="M1006.79,-434.593C1007.45,-424.624 1006.95,-412.124 1002.34,-402 1000.53,-398.015 998.039,-394.263 995.194,-390.802"/>
<polygon fill="black" stroke="black" points="997.492,-388.138 988.074,-383.284 992.409,-392.951 997.492,-388.138"/>
<text text-anchor="middle" x="1033.34" y="-405.8" font-family="Times New Roman,serif" font-size="14.00">Crafting 0</text>
</g>
<!-- BOOK_Skill_Fire_Blank -->
<g id="node7" class="node"><title>BOOK_Skill_Fire_Blank</title>
<ellipse fill="none" stroke="black" cx="860.344" cy="-105" rx="101.282" ry="18"/>
<text text-anchor="middle" x="860.344" y="-101.3" font-family="Times New Roman,serif" font-size="14.00">BOOK_Skill_Fire_Blank</text>
</g>
<!-- BOOK_Skill_Fire_Blank&#45;&gt;SKILLBOOK_Shield_Fire -->
<g id="edge6" class="edge"><title>BOOK_Skill_Fire_Blank&#45;&gt;SKILLBOOK_Shield_Fire</title>
<path fill="none" stroke="black" d="M884.547,-87.4094C903.627,-74.3307 930.428,-55.9586 951.453,-41.5466"/>
<polygon fill="black" stroke="black" points="953.509,-44.3802 959.779,-35.8393 949.552,-38.6065 953.509,-44.3802"/>
<text text-anchor="middle" x="957.344" y="-57.8" font-family="Times New Roman,serif" font-size="14.00">Crafting 4</text>
</g>
<!-- Feather -->
<g id="node8" class="node"><title>Feather</title>
<ellipse fill="none" stroke="black" cx="1433.34" cy="-453" rx="37.8943" ry="18"/>
<text text-anchor="middle" x="1433.34" y="-449.3" font-family="Times New Roman,serif" font-size="14.00">Feather</text>
</g>
<!-- Feather_A_Quill -->
<g id="node18" class="node"><title>Feather_A_Quill</title>
<ellipse fill="none" stroke="black" cx="1417.34" cy="-366" rx="70.6878" ry="18"/>
<text text-anchor="middle" x="1417.34" y="-362.3" font-family="Times New Roman,serif" font-size="14.00">Feather_A_Quill</text>
</g>
<!-- Feather&#45;&gt;Feather_A_Quill -->
<g id="edge7" class="edge"><title>Feather&#45;&gt;Feather_A_Quill</title>
<path fill="none" stroke="black" d="M1430.11,-434.799C1427.92,-423.163 1424.98,-407.548 1422.47,-394.237"/>
<polygon fill="black" stroke="black" points="1425.87,-393.355 1420.58,-384.175 1418.99,-394.65 1425.87,-393.355"/>
<text text-anchor="middle" x="1453.34" y="-405.8" font-family="Times New Roman,serif" font-size="14.00">Crafting 0</text>
</g>
<!-- Knife -->
<g id="node9" class="node"><title>Knife</title>
<ellipse fill="none" stroke="black" cx="1336.34" cy="-540" rx="30.5947" ry="18"/>
<text text-anchor="middle" x="1336.34" y="-536.3" font-family="Times New Roman,serif" font-size="14.00">Knife</text>
</g>
<!-- Knife&#45;&gt;Feather -->
<g id="edge9" class="edge"><title>Knife&#45;&gt;Feather</title>
<path fill="none" stroke="black" d="M1345.9,-522.803C1352.65,-512.302 1362.41,-498.804 1373.34,-489 1380.81,-482.308 1389.75,-476.272 1398.43,-471.171"/>
<polygon fill="black" stroke="black" points="1400.28,-474.145 1407.29,-466.206 1396.86,-468.037 1400.28,-474.145"/>
<text text-anchor="middle" x="1401.34" y="-492.8" font-family="Times New Roman,serif" font-size="14.00">Crafting 0</text>
</g>
<!-- Knife&#45;&gt;Feather_A_Quill -->
<g id="edge8" class="edge"><title>Knife&#45;&gt;Feather_A_Quill</title>
<path fill="none" stroke="black" d="M1330.54,-522.161C1324.19,-500.731 1316.63,-463.123 1330.34,-435 1340.16,-414.861 1359.15,-398.937 1376.89,-387.578"/>
<polygon fill="black" stroke="black" points="1378.73,-390.557 1385.45,-382.369 1375.09,-384.577 1378.73,-390.557"/>
<text text-anchor="middle" x="1358.34" y="-449.3" font-family="Times New Roman,serif" font-size="14.00">Crafting 0</text>
</g>
<!-- Pouch_Dust_Moon -->
<g id="node10" class="node"><title>Pouch_Dust_Moon</title>
<ellipse fill="none" stroke="black" cx="787.344" cy="-366" rx="83.3857" ry="18"/>
<text text-anchor="middle" x="787.344" y="-362.3" font-family="Times New Roman,serif" font-size="14.00">Pouch_Dust_Moon</text>
</g>
<!-- Pouch_Dust_Moon&#45;&gt;Pouch_Dust_Pixie -->
<g id="edge10" class="edge"><title>Pouch_Dust_Moon&#45;&gt;Pouch_Dust_Pixie</title>
<path fill="none" stroke="black" d="M819.992,-349.41C849.098,-335.511 891.864,-315.089 923.478,-299.993"/>
<polygon fill="black" stroke="black" points="925.388,-302.959 932.903,-295.491 922.371,-296.642 925.388,-302.959"/>
<text text-anchor="middle" x="914.344" y="-318.8" font-family="Times New Roman,serif" font-size="14.00">Crafting 0</text>
</g>
<!-- Scroll_Skill_Fire_Blank -->
<g id="node31" class="node"><title>Scroll_Skill_Fire_Blank</title>
<ellipse fill="none" stroke="black" cx="860.344" cy="-192" rx="96.6831" ry="18"/>
<text text-anchor="middle" x="860.344" y="-188.3" font-family="Times New Roman,serif" font-size="14.00">Scroll_Skill_Fire_Blank</text>
</g>
<!-- BOOK_Paper_Sheet&#45;&gt;Scroll_Skill_Fire_Blank -->
<g id="edge11" class="edge"><title>BOOK_Paper_Sheet&#45;&gt;Scroll_Skill_Fire_Blank</title>
<path fill="none" stroke="black" d="M448.046,-266.625C534.817,-251.13 690.011,-223.417 783.246,-206.767"/>
<polygon fill="black" stroke="black" points="783.956,-210.196 793.185,-204.993 782.726,-203.305 783.956,-210.196"/>
<text text-anchor="middle" x="679.344" y="-231.8" font-family="Times New Roman,serif" font-size="14.00">Crafting 1</text>
</g>
<!-- Well_A_Snow -->
<g id="node12" class="node"><title>Well_A_Snow</title>
<ellipse fill="none" stroke="black" cx="64.3443" cy="-540" rx="64.189" ry="18"/>
<text text-anchor="middle" x="64.3443" y="-536.3" font-family="Times New Roman,serif" font-size="14.00">Well_A_Snow</text>
</g>
<!-- Well_A_Snow&#45;&gt;Scraps_Wood_A_Mush -->
<g id="edge12" class="edge"><title>Well_A_Snow&#45;&gt;Scraps_Wood_A_Mush</title>
<path fill="none" stroke="black" d="M62.1992,-521.708C60.3866,-498.726 60.9808,-458.311 83.3443,-435 98.6471,-419.049 219.323,-395.402 303.145,-380.612"/>
<polygon fill="black" stroke="black" points="303.929,-384.028 313.175,-378.854 302.72,-377.133 303.929,-384.028"/>
<text text-anchor="middle" x="111.344" y="-449.3" font-family="Times New Roman,serif" font-size="14.00">Crafting 0</text>
</g>
<!-- Well_A_Snow&#45;&gt;Bucket_A_Water -->
<g id="edge13" class="edge"><title>Well_A_Snow&#45;&gt;Bucket_A_Water</title>
<path fill="none" stroke="black" d="M79.6396,-522.245C90.1992,-511.508 105.048,-497.956 120.344,-489 133.664,-481.201 148.983,-474.796 163.632,-469.695"/>
<polygon fill="black" stroke="black" points="164.753,-473.011 173.134,-466.53 162.54,-466.369 164.753,-473.011"/>
<text text-anchor="middle" x="148.344" y="-492.8" font-family="Times New Roman,serif" font-size="14.00">Crafting 0</text>
</g>
<!-- Ink_Pot_A_Quill_A_Magic -->
<g id="node13" class="node"><title>Ink_Pot_A_Quill_A_Magic</title>
<ellipse fill="none" stroke="black" cx="1087.34" cy="-192" rx="111.581" ry="18"/>
<text text-anchor="middle" x="1087.34" y="-188.3" font-family="Times New Roman,serif" font-size="14.00">Ink_Pot_A_Quill_A_Magic</text>
</g>
<!-- SCROLL_FireShield_1 -->
<g id="node28" class="node"><title>SCROLL_FireShield_1</title>
<ellipse fill="none" stroke="black" cx="1076.34" cy="-105" rx="96.6831" ry="18"/>
<text text-anchor="middle" x="1076.34" y="-101.3" font-family="Times New Roman,serif" font-size="14.00">SCROLL_FireShield_1</text>
</g>
<!-- Ink_Pot_A_Quill_A_Magic&#45;&gt;SCROLL_FireShield_1 -->
<g id="edge14" class="edge"><title>Ink_Pot_A_Quill_A_Magic&#45;&gt;SCROLL_FireShield_1</title>
<path fill="none" stroke="black" d="M1085.12,-173.799C1083.61,-162.163 1081.59,-146.548 1079.87,-133.237"/>
<polygon fill="black" stroke="black" points="1083.32,-132.644 1078.57,-123.175 1076.38,-133.542 1083.32,-132.644"/>
<text text-anchor="middle" x="1110.34" y="-144.8" font-family="Times New Roman,serif" font-size="14.00">Crafting 5</text>
</g>
<!-- Skull_Human -->
<g id="node14" class="node"><title>Skull_Human</title>
<ellipse fill="none" stroke="black" cx="1145.34" cy="-453" rx="59.5901" ry="18"/>
<text text-anchor="middle" x="1145.34" y="-449.3" font-family="Times New Roman,serif" font-size="14.00">Skull_Human</text>
</g>
<!-- Skull_Human&#45;&gt;Pouch_Dust_Bone -->
<g id="edge15" class="edge"><title>Skull_Human&#45;&gt;Pouch_Dust_Bone</title>
<path fill="none" stroke="black" d="M1144.74,-434.799C1144.33,-423.163 1143.78,-407.548 1143.31,-394.237"/>
<polygon fill="black" stroke="black" points="1146.8,-394.046 1142.95,-384.175 1139.81,-394.293 1146.8,-394.046"/>
<text text-anchor="middle" x="1171.34" y="-405.8" font-family="Times New Roman,serif" font-size="14.00">Crafting 0</text>
</g>
<!-- Pouch_Dust_Pixie&#45;&gt;Ink_Pot_A_Quill_A_Magic -->
<g id="edge16" class="edge"><title>Pouch_Dust_Pixie&#45;&gt;Ink_Pot_A_Quill_A_Magic</title>
<path fill="none" stroke="black" d="M988.867,-261.611C1007.73,-248.467 1034.41,-229.883 1055.24,-215.37"/>
<polygon fill="black" stroke="black" points="1057.27,-218.217 1063.48,-209.629 1053.27,-212.473 1057.27,-218.217"/>
<text text-anchor="middle" x="1061.34" y="-231.8" font-family="Times New Roman,serif" font-size="14.00">Crafting 1</text>
</g>
<!-- Pouch_Dust_Pixie&#45;&gt;Scroll_Skill_Fire_Blank -->
<g id="edge17" class="edge"><title>Pouch_Dust_Pixie&#45;&gt;Scroll_Skill_Fire_Blank</title>
<path fill="none" stroke="black" d="M944.85,-261.409C929.053,-248.621 907.004,-230.773 889.39,-216.513"/>
<polygon fill="black" stroke="black" points="891.12,-213.411 881.146,-209.839 886.716,-218.852 891.12,-213.411"/>
<text text-anchor="middle" x="946.344" y="-231.8" font-family="Times New Roman,serif" font-size="14.00">Crafting 1</text>
</g>
<!-- Well -->
<g id="node16" class="node"><title>Well</title>
<ellipse fill="none" stroke="black" cx="295.344" cy="-540" rx="27.0966" ry="18"/>
<text text-anchor="middle" x="295.344" y="-536.3" font-family="Times New Roman,serif" font-size="14.00">Well</text>
</g>
<!-- Well&#45;&gt;Scraps_Wood_A_Mush -->
<g id="edge18" class="edge"><title>Well&#45;&gt;Scraps_Wood_A_Mush</title>
<path fill="none" stroke="black" d="M306.557,-523.37C310.545,-517.457 314.897,-510.566 318.344,-504 333.728,-474.697 332.022,-464.836 346.344,-435 353.153,-420.815 361.622,-405.479 368.835,-392.967"/>
<polygon fill="black" stroke="black" points="372.042,-394.417 374.058,-384.016 365.996,-390.889 372.042,-394.417"/>
<text text-anchor="middle" x="374.344" y="-449.3" font-family="Times New Roman,serif" font-size="14.00">Crafting 0</text>
</g>
<!-- Well&#45;&gt;Bucket_A_Water -->
<g id="edge19" class="edge"><title>Well&#45;&gt;Bucket_A_Water</title>
<path fill="none" stroke="black" d="M280.94,-524.258C275.058,-518.101 268.26,-510.808 262.344,-504 255.418,-496.028 248.123,-487.087 241.688,-478.995"/>
<polygon fill="black" stroke="black" points="244.283,-476.633 235.345,-470.944 238.785,-480.965 244.283,-476.633"/>
<text text-anchor="middle" x="290.344" y="-492.8" font-family="Times New Roman,serif" font-size="14.00">Crafting 0</text>
</g>
<!-- Bucket -->
<g id="node17" class="node"><title>Bucket</title>
<ellipse fill="none" stroke="black" cx="183.344" cy="-540" rx="36.2938" ry="18"/>
<text text-anchor="middle" x="183.344" y="-536.3" font-family="Times New Roman,serif" font-size="14.00">Bucket</text>
</g>
<!-- Bucket&#45;&gt;Bucket_A_Water -->
<g id="edge20" class="edge"><title>Bucket&#45;&gt;Bucket_A_Water</title>
<path fill="none" stroke="black" d="M180.002,-522.075C178.818,-512.038 178.746,-499.305 183.344,-489 185.187,-484.869 187.786,-481.023 190.776,-477.506"/>
<polygon fill="black" stroke="black" points="193.295,-479.937 197.809,-470.352 188.303,-475.03 193.295,-479.937"/>
<text text-anchor="middle" x="211.344" y="-492.8" font-family="Times New Roman,serif" font-size="14.00">Crafting 0</text>
</g>
<!-- Ink_Pot_A_Quill -->
<g id="node29" class="node"><title>Ink_Pot_A_Quill</title>
<ellipse fill="none" stroke="black" cx="1285.34" cy="-279" rx="73.387" ry="18"/>
<text text-anchor="middle" x="1285.34" y="-275.3" font-family="Times New Roman,serif" font-size="14.00">Ink_Pot_A_Quill</text>
</g>
<!-- Feather_A_Quill&#45;&gt;Ink_Pot_A_Quill -->
<g id="edge21" class="edge"><title>Feather_A_Quill&#45;&gt;Ink_Pot_A_Quill</title>
<path fill="none" stroke="black" d="M1394.95,-348.772C1380.9,-338.755 1362.28,-325.799 1345.34,-315 1337.96,-310.294 1329.94,-305.443 1322.24,-300.907"/>
<polygon fill="black" stroke="black" points="1323.8,-297.766 1313.4,-295.754 1320.28,-303.814 1323.8,-297.766"/>
<text text-anchor="middle" x="1395.34" y="-318.8" font-family="Times New Roman,serif" font-size="14.00">Crafting 0</text>
</g>
<!-- Moonstone -->
<g id="node19" class="node"><title>Moonstone</title>
<ellipse fill="none" stroke="black" cx="708.344" cy="-453" rx="51.9908" ry="18"/>
<text text-anchor="middle" x="708.344" y="-449.3" font-family="Times New Roman,serif" font-size="14.00">Moonstone</text>
</g>
<!-- Moonstone&#45;&gt;Pouch_Dust_Moon -->
<g id="edge22" class="edge"><title>Moonstone&#45;&gt;Pouch_Dust_Moon</title>
<path fill="none" stroke="black" d="M709.783,-434.71C711.419,-424.293 714.909,-411.29 722.344,-402 726.914,-396.29 732.676,-391.387 738.872,-387.214"/>
<polygon fill="black" stroke="black" points="740.783,-390.148 747.518,-381.969 737.153,-384.163 740.783,-390.148"/>
<text text-anchor="middle" x="750.344" y="-405.8" font-family="Times New Roman,serif" font-size="14.00">Crafting 0</text>
</g>
<!-- Pouch_Dust_Star&#45;&gt;Pouch_Dust_Pixie -->
<g id="edge23" class="edge"><title>Pouch_Dust_Star&#45;&gt;Pouch_Dust_Pixie</title>
<path fill="none" stroke="black" d="M965.344,-347.799C965.344,-336.163 965.344,-320.548 965.344,-307.237"/>
<polygon fill="black" stroke="black" points="968.844,-307.175 965.344,-297.175 961.844,-307.175 968.844,-307.175"/>
<text text-anchor="middle" x="993.344" y="-318.8" font-family="Times New Roman,serif" font-size="14.00">Crafting 0</text>
</g>
<!-- Axe -->
<g id="node21" class="node"><title>Axe</title>
<ellipse fill="none" stroke="black" cx="623.344" cy="-540" rx="27" ry="18"/>
<text text-anchor="middle" x="623.344" y="-536.3" font-family="Times New Roman,serif" font-size="14.00">Axe</text>
</g>
<!-- Axe&#45;&gt;Scraps_Wood -->
<g id="edge24" class="edge"><title>Axe&#45;&gt;Scraps_Wood</title>
<path fill="none" stroke="black" d="M617.176,-522.29C613.213,-512.329 607.638,-499.601 601.344,-489 599.388,-485.705 597.167,-482.363 594.86,-479.119"/>
<polygon fill="black" stroke="black" points="597.468,-476.763 588.672,-470.857 591.865,-480.959 597.468,-476.763"/>
<text text-anchor="middle" x="637.344" y="-492.8" font-family="Times New Roman,serif" font-size="14.00">Crafting 0</text>
</g>
<!-- Barrel -->
<g id="node22" class="node"><title>Barrel</title>
<ellipse fill="none" stroke="black" cx="405.344" cy="-540" rx="32.4942" ry="18"/>
<text text-anchor="middle" x="405.344" y="-536.3" font-family="Times New Roman,serif" font-size="14.00">Barrel</text>
</g>
<!-- Barrel&#45;&gt;Scraps_Wood_A_Mush -->
<g id="edge25" class="edge"><title>Barrel&#45;&gt;Scraps_Wood_A_Mush</title>
<path fill="none" stroke="black" d="M408.858,-521.985C409.873,-516.293 410.842,-509.897 411.344,-504 414.643,-465.232 403.193,-421.226 394.191,-393.788"/>
<polygon fill="black" stroke="black" points="397.437,-392.464 390.897,-384.129 390.812,-394.723 397.437,-392.464"/>
<text text-anchor="middle" x="439.344" y="-449.3" font-family="Times New Roman,serif" font-size="14.00">Crafting 0</text>
</g>
<!-- Barrel&#45;&gt;Bucket_A_Water -->
<g id="edge26" class="edge"><title>Barrel&#45;&gt;Bucket_A_Water</title>
<path fill="none" stroke="black" d="M385.522,-525.467C369.096,-514.648 344.876,-499.592 322.344,-489 307.87,-482.196 291.691,-475.976 276.636,-470.728"/>
<polygon fill="black" stroke="black" points="277.529,-467.335 266.934,-467.424 275.272,-473.961 277.529,-467.335"/>
<text text-anchor="middle" x="379.344" y="-492.8" font-family="Times New Roman,serif" font-size="14.00">Crafting 0</text>
</g>
<!-- Pillow -->
<g id="node23" class="node"><title>Pillow</title>
<ellipse fill="none" stroke="black" cx="1433.34" cy="-540" rx="33.2948" ry="18"/>
<text text-anchor="middle" x="1433.34" y="-536.3" font-family="Times New Roman,serif" font-size="14.00">Pillow</text>
</g>
<!-- Pillow&#45;&gt;Feather -->
<g id="edge27" class="edge"><title>Pillow&#45;&gt;Feather</title>
<path fill="none" stroke="black" d="M1433.34,-521.799C1433.34,-510.163 1433.34,-494.548 1433.34,-481.237"/>
<polygon fill="black" stroke="black" points="1436.84,-481.175 1433.34,-471.175 1429.84,-481.175 1436.84,-481.175"/>
<text text-anchor="middle" x="1461.34" y="-492.8" font-family="Times New Roman,serif" font-size="14.00">Crafting 0</text>
</g>
<!-- Bone -->
<g id="node24" class="node"><title>Bone</title>
<ellipse fill="none" stroke="black" cx="1253.34" cy="-453" rx="29.795" ry="18"/>
<text text-anchor="middle" x="1253.34" y="-449.3" font-family="Times New Roman,serif" font-size="14.00">Bone</text>
</g>
<!-- Bone&#45;&gt;Pouch_Dust_Bone -->
<g id="edge28" class="edge"><title>Bone&#45;&gt;Pouch_Dust_Bone</title>
<path fill="none" stroke="black" d="M1239.84,-436.486C1230.28,-426.02 1216.8,-412.295 1203.34,-402 1196.87,-397.044 1189.62,-392.291 1182.44,-387.973"/>
<polygon fill="black" stroke="black" points="1183.85,-384.747 1173.45,-382.754 1180.34,-390.801 1183.85,-384.747"/>
<text text-anchor="middle" x="1247.34" y="-405.8" font-family="Times New Roman,serif" font-size="14.00">Crafting 0</text>
</g>
<!-- Ink_Pot -->
<g id="node25" class="node"><title>Ink_Pot</title>
<ellipse fill="none" stroke="black" cx="1285.34" cy="-366" rx="40.0939" ry="18"/>
<text text-anchor="middle" x="1285.34" y="-362.3" font-family="Times New Roman,serif" font-size="14.00">Ink_Pot</text>
</g>
<!-- Ink_Pot&#45;&gt;Ink_Pot_A_Quill -->
<g id="edge29" class="edge"><title>Ink_Pot&#45;&gt;Ink_Pot_A_Quill</title>
<path fill="none" stroke="black" d="M1285.34,-347.799C1285.34,-336.163 1285.34,-320.548 1285.34,-307.237"/>
<polygon fill="black" stroke="black" points="1288.84,-307.175 1285.34,-297.175 1281.84,-307.175 1288.84,-307.175"/>
<text text-anchor="middle" x="1313.34" y="-318.8" font-family="Times New Roman,serif" font-size="14.00">Crafting 0</text>
</g>
<!-- Scraps_Wood&#45;&gt;Scraps_Wood_A_Mush -->
<g id="edge30" class="edge"><title>Scraps_Wood&#45;&gt;Scraps_Wood_A_Mush</title>
<path fill="none" stroke="black" d="M541.682,-437.388C510.648,-423.504 463.722,-402.511 429.191,-387.063"/>
<polygon fill="black" stroke="black" points="430.361,-383.752 419.803,-382.863 427.502,-390.142 430.361,-383.752"/>
<text text-anchor="middle" x="519.344" y="-405.8" font-family="Times New Roman,serif" font-size="14.00">Crafting 0</text>
</g>
<!-- Dagger -->
<g id="node27" class="node"><title>Dagger</title>
<ellipse fill="none" stroke="black" cx="1552.34" cy="-540" rx="36.2938" ry="18"/>
<text text-anchor="middle" x="1552.34" y="-536.3" font-family="Times New Roman,serif" font-size="14.00">Dagger</text>
</g>
<!-- Dagger&#45;&gt;Feather -->
<g id="edge32" class="edge"><title>Dagger&#45;&gt;Feather</title>
<path fill="none" stroke="black" d="M1534.91,-523.938C1522.73,-513.674 1505.93,-500.005 1490.34,-489 1482.4,-483.394 1473.56,-477.711 1465.25,-472.601"/>
<polygon fill="black" stroke="black" points="1466.89,-469.499 1456.52,-467.313 1463.26,-475.487 1466.89,-469.499"/>
<text text-anchor="middle" x="1537.34" y="-492.8" font-family="Times New Roman,serif" font-size="14.00">Crafting 0</text>
</g>
<!-- Dagger&#45;&gt;Feather_A_Quill -->
<g id="edge31" class="edge"><title>Dagger&#45;&gt;Feather_A_Quill</title>
<path fill="none" stroke="black" d="M1563.89,-522.617C1569.36,-512.772 1573.81,-500.051 1569.34,-489 1549.77,-440.554 1498.51,-406.164 1460.91,-386.5"/>
<polygon fill="black" stroke="black" points="1462.17,-383.217 1451.67,-381.818 1459.01,-389.461 1462.17,-383.217"/>
<text text-anchor="middle" x="1587.34" y="-449.3" font-family="Times New Roman,serif" font-size="14.00">Crafting 0</text>
</g>
<!-- SCROLL_FireShield_1&#45;&gt;SKILLBOOK_Shield_Fire -->
<g id="edge33" class="edge"><title>SCROLL_FireShield_1&#45;&gt;SKILLBOOK_Shield_Fire</title>
<path fill="none" stroke="black" d="M1058.17,-87.2067C1044.43,-74.517 1025.4,-56.9297 1010.1,-42.7925"/>
<polygon fill="black" stroke="black" points="1012.2,-39.9738 1002.48,-35.7584 1007.45,-45.1153 1012.2,-39.9738"/>
<text text-anchor="middle" x="1063.34" y="-57.8" font-family="Times New Roman,serif" font-size="14.00">Crafting 4</text>
</g>
<!-- Ink_Pot_A_Quill&#45;&gt;Ink_Pot_A_Quill_A_Magic -->
<g id="edge34" class="edge"><title>Ink_Pot_A_Quill&#45;&gt;Ink_Pot_A_Quill_A_Magic</title>
<path fill="none" stroke="black" d="M1250.4,-262.999C1217.99,-249.087 1169.54,-228.284 1133.86,-212.971"/>
<polygon fill="black" stroke="black" points="1135.2,-209.734 1124.63,-209.006 1132.44,-216.167 1135.2,-209.734"/>
<text text-anchor="middle" x="1225.34" y="-231.8" font-family="Times New Roman,serif" font-size="14.00">Crafting 1</text>
</g>
<!-- Oven -->
<g id="node30" class="node"><title>Oven</title>
<ellipse fill="none" stroke="black" cx="235.344" cy="-366" rx="30.5947" ry="18"/>
<text text-anchor="middle" x="235.344" y="-362.3" font-family="Times New Roman,serif" font-size="14.00">Oven</text>
</g>
<!-- Oven&#45;&gt;BOOK_Paper_Sheet -->
<g id="edge35" class="edge"><title>Oven&#45;&gt;BOOK_Paper_Sheet</title>
<path fill="none" stroke="black" d="M256.692,-352.822C280.291,-339.359 318.735,-317.428 347.277,-301.146"/>
<polygon fill="black" stroke="black" points="349.212,-304.071 356.164,-296.076 345.744,-297.991 349.212,-304.071"/>
<text text-anchor="middle" x="347.344" y="-318.8" font-family="Times New Roman,serif" font-size="14.00">Crafting 0</text>
</g>
<!-- Scroll_Skill_Fire_Blank&#45;&gt;BOOK_Skill_Fire_Blank -->
<g id="edge36" class="edge"><title>Scroll_Skill_Fire_Blank&#45;&gt;BOOK_Skill_Fire_Blank</title>
<path fill="none" stroke="black" d="M860.344,-173.799C860.344,-162.163 860.344,-146.548 860.344,-133.237"/>
<polygon fill="black" stroke="black" points="863.844,-133.175 860.344,-123.175 856.844,-133.175 863.844,-133.175"/>
<text text-anchor="middle" x="888.344" y="-144.8" font-family="Times New Roman,serif" font-size="14.00">Crafting 5</text>
</g>
<!-- Scroll_Skill_Fire_Blank&#45;&gt;SCROLL_FireShield_1 -->
<g id="edge37" class="edge"><title>Scroll_Skill_Fire_Blank&#45;&gt;SCROLL_FireShield_1</title>
<path fill="none" stroke="black" d="M899.962,-175.41C935.891,-161.271 988.971,-140.383 1027.51,-125.216"/>
<polygon fill="black" stroke="black" points="1028.95,-128.41 1036.98,-121.491 1026.39,-121.896 1028.95,-128.41"/>
<text text-anchor="middle" x="1008.34" y="-144.8" font-family="Times New Roman,serif" font-size="14.00">Crafting 5</text>
</g>
<!-- MortarPestle -->
<g id="node32" class="node"><title>MortarPestle</title>
<ellipse fill="none" stroke="black" cx="865.344" cy="-453" rx="57.3905" ry="18"/>
<text text-anchor="middle" x="865.344" y="-449.3" font-family="Times New Roman,serif" font-size="14.00">MortarPestle</text>
</g>
<!-- MortarPestle&#45;&gt;Pouch_Dust_Bone -->
<g id="edge38" class="edge"><title>MortarPestle&#45;&gt;Pouch_Dust_Bone</title>
<path fill="none" stroke="black" d="M891.77,-437C901.831,-431.045 913.288,-423.963 923.344,-417 932.19,-410.875 932.509,-406.362 942.344,-402 986.426,-382.447 1001.85,-392.336 1049.34,-384 1056.85,-382.683 1064.68,-381.285 1072.49,-379.879"/>
<polygon fill="black" stroke="black" points="1073.12,-383.323 1082.33,-378.098 1071.87,-376.435 1073.12,-383.323"/>
<text text-anchor="middle" x="970.344" y="-405.8" font-family="Times New Roman,serif" font-size="14.00">Crafting 0</text>
</g>
<!-- MortarPestle&#45;&gt;Pouch_Dust_Moon -->
<g id="edge40" class="edge"><title>MortarPestle&#45;&gt;Pouch_Dust_Moon</title>
<path fill="none" stroke="black" d="M820.982,-441.543C808.33,-436.312 795.933,-428.53 788.344,-417 783.963,-410.344 782.595,-402.033 782.643,-394.11"/>
<polygon fill="black" stroke="black" points="786.136,-394.322 783.386,-384.09 779.156,-393.804 786.136,-394.322"/>
<text text-anchor="middle" x="816.344" y="-405.8" font-family="Times New Roman,serif" font-size="14.00">Crafting 0</text>
</g>
<!-- MortarPestle&#45;&gt;Pouch_Dust_Star -->
<g id="edge39" class="edge"><title>MortarPestle&#45;&gt;Pouch_Dust_Star</title>
<path fill="none" stroke="black" d="M861.517,-434.675C860.233,-424.245 860.552,-411.24 867.344,-402 874.296,-392.543 884.031,-385.631 894.689,-380.583"/>
<polygon fill="black" stroke="black" points="896.356,-383.68 904.246,-376.609 893.669,-377.217 896.356,-383.68"/>
<text text-anchor="middle" x="895.344" y="-405.8" font-family="Times New Roman,serif" font-size="14.00">Crafting 0</text>
</g>
</g>
</svg>
