<?xml version="1.0" encoding="UTF-8" standalone="no"?>
<!DOCTYPE svg PUBLIC "-//W3C//DTD SVG 1.1//EN"
 "http://www.w3.org/Graphics/SVG/1.1/DTD/svg11.dtd">
<!-- Generated by graphviz version 2.38.0 (20140413.2041)
 -->
<!-- Title: G Pages: 1 -->
<svg width="1584pt" height="566pt"
 viewBox="0.00 0.00 1584.40 566.00" xmlns="http://www.w3.org/2000/svg" xmlns:xlink="http://www.w3.org/1999/xlink">
<g id="graph0" class="graph" transform="scale(1 1) rotate(0) translate(4 562)">
<title>G</title>
<polygon fill="white" stroke="none" points="-4,4 -4,-562 1580.4,-562 1580.4,4 -4,4"/>
<!-- Log -->
<g id="node1" class="node"><title>Log</title>
<ellipse fill="none" stroke="black" cx="1000.4" cy="-540" rx="27" ry="18"/>
<text text-anchor="middle" x="1000.4" y="-536.3" font-family="Times New Roman,serif" font-size="14.00">Log</text>
</g>
<!-- Scraps_Wood -->
<g id="node27" class="node"><title>Scraps_Wood</title>
<ellipse fill="none" stroke="black" cx="1081.4" cy="-453" rx="64.189" ry="18"/>
<text text-anchor="middle" x="1081.4" y="-449.3" font-family="Times New Roman,serif" font-size="14.00">Scraps_Wood</text>
</g>
<!-- Log&#45;&gt;Scraps_Wood -->
<g id="edge1" class="edge"><title>Log&#45;&gt;Scraps_Wood</title>
<path fill="none" stroke="black" d="M1003.83,-521.714C1006.6,-511.299 1011.41,-498.296 1019.4,-489 1024.55,-483.002 1031,-477.816 1037.78,-473.411"/>
<polygon fill="black" stroke="black" points="1039.66,-476.365 1046.47,-468.246 1036.08,-470.348 1039.66,-476.365"/>
<text text-anchor="middle" x="1047.4" y="-492.8" font-family="Times New Roman,serif" font-size="14.00">Crafting 0</text>
</g>
<!-- Scraps_Wood_A_Mush -->
<g id="node2" class="node"><title>Scraps_Wood_A_Mush</title>
<ellipse fill="none" stroke="black" cx="1227.4" cy="-366" rx="100.983" ry="18"/>
<text text-anchor="middle" x="1227.4" y="-362.3" font-family="Times New Roman,serif" font-size="14.00">Scraps_Wood_A_Mush</text>
</g>
<!-- BOOK_Paper_Sheet -->
<g id="node10" class="node"><title>BOOK_Paper_Sheet</title>
<ellipse fill="none" stroke="black" cx="1044.4" cy="-279" rx="87.1846" ry="18"/>
<text text-anchor="middle" x="1044.4" y="-275.3" font-family="Times New Roman,serif" font-size="14.00">BOOK_Paper_Sheet</text>
</g>
<!-- Scraps_Wood_A_Mush&#45;&gt;BOOK_Paper_Sheet -->
<g id="edge2" class="edge"><title>Scraps_Wood_A_Mush&#45;&gt;BOOK_Paper_Sheet</title>
<path fill="none" stroke="black" d="M1192.98,-349.012C1163.01,-335.093 1119.44,-314.858 1087.23,-299.895"/>
<polygon fill="black" stroke="black" points="1088.59,-296.667 1078.05,-295.629 1085.64,-303.016 1088.59,-296.667"/>
<text text-anchor="middle" x="1175.4" y="-318.8" font-family="Times New Roman,serif" font-size="14.00">Crafting 0</text>
</g>
<!-- Pouch_Dust_Bone -->
<g id="node3" class="node"><title>Pouch_Dust_Bone</title>
<ellipse fill="none" stroke="black" cx="528.397" cy="-366" rx="79.8859" ry="18"/>
<text text-anchor="middle" x="528.397" y="-362.3" font-family="Times New Roman,serif" font-size="14.00">Pouch_Dust_Bone</text>
</g>
<!-- Pouch_Dust_Pixie -->
<g id="node15" class="node"><title>Pouch_Dust_Pixie</title>
<ellipse fill="none" stroke="black" cx="701.397" cy="-279" rx="78.7863" ry="18"/>
<text text-anchor="middle" x="701.397" y="-275.3" font-family="Times New Roman,serif" font-size="14.00">Pouch_Dust_Pixie</text>
</g>
<!-- Pouch_Dust_Bone&#45;&gt;Pouch_Dust_Pixie -->
<g id="edge3" class="edge"><title>Pouch_Dust_Bone&#45;&gt;Pouch_Dust_Pixie</title>
<path fill="none" stroke="black" d="M560.128,-349.41C588.416,-335.511 629.98,-315.089 660.706,-299.993"/>
<polygon fill="black" stroke="black" points="662.435,-303.043 669.867,-295.491 659.348,-296.76 662.435,-303.043"/>
<text text-anchor="middle" x="653.397" y="-318.8" font-family="Times New Roman,serif" font-size="14.00">Crafting 0</text>
</g>
<!-- Scroll_Skill_Air_Blank -->
<g id="node4" class="node"><title>Scroll_Skill_Air_Blank</title>
<ellipse fill="none" stroke="black" cx="821.397" cy="-192" rx="94.4839" ry="18"/>
<text text-anchor="middle" x="821.397" y="-188.3" font-family="Times New Roman,serif" font-size="14.00">Scroll_Skill_Air_Blank</text>
</g>
<!-- SCROLL_AirShield_1 -->
<g id="node12" class="node"><title>SCROLL_AirShield_1</title>
<ellipse fill="none" stroke="black" cx="610.397" cy="-105" rx="94.4839" ry="18"/>
<text text-anchor="middle" x="610.397" y="-101.3" font-family="Times New Roman,serif" font-size="14.00">SCROLL_AirShield_1</text>
</g>
<!-- Scroll_Skill_Air_Blank&#45;&gt;SCROLL_AirShield_1 -->
<g id="edge5" class="edge"><title>Scroll_Skill_Air_Blank&#45;&gt;SCROLL_AirShield_1</title>
<path fill="none" stroke="black" d="M782.696,-175.41C747.748,-161.331 696.186,-140.56 658.578,-125.41"/>
<polygon fill="black" stroke="black" points="659.436,-121.982 648.852,-121.491 656.82,-128.475 659.436,-121.982"/>
<text text-anchor="middle" x="757.397" y="-144.8" font-family="Times New Roman,serif" font-size="14.00">Crafting 5</text>
</g>
<!-- BOOK_Skill_Air_Blank -->
<g id="node17" class="node"><title>BOOK_Skill_Air_Blank</title>
<ellipse fill="none" stroke="black" cx="821.397" cy="-105" rx="98.5829" ry="18"/>
<text text-anchor="middle" x="821.397" y="-101.3" font-family="Times New Roman,serif" font-size="14.00">BOOK_Skill_Air_Blank</text>
</g>
<!-- Scroll_Skill_Air_Blank&#45;&gt;BOOK_Skill_Air_Blank -->
<g id="edge4" class="edge"><title>Scroll_Skill_Air_Blank&#45;&gt;BOOK_Skill_Air_Blank</title>
<path fill="none" stroke="black" d="M821.397,-173.799C821.397,-162.163 821.397,-146.548 821.397,-133.237"/>
<polygon fill="black" stroke="black" points="824.897,-133.175 821.397,-123.175 817.897,-133.175 824.897,-133.175"/>
<text text-anchor="middle" x="849.397" y="-144.8" font-family="Times New Roman,serif" font-size="14.00">Crafting 5</text>
</g>
<!-- Bucket_A_Water -->
<g id="node5" class="node"><title>Bucket_A_Water</title>
<ellipse fill="none" stroke="black" cx="1330.4" cy="-453" rx="74.187" ry="18"/>
<text text-anchor="middle" x="1330.4" y="-449.3" font-family="Times New Roman,serif" font-size="14.00">Bucket_A_Water</text>
</g>
<!-- Bucket_A_Water&#45;&gt;Scraps_Wood_A_Mush -->
<g id="edge6" class="edge"><title>Bucket_A_Water&#45;&gt;Scraps_Wood_A_Mush</title>
<path fill="none" stroke="black" d="M1310.54,-435.611C1295.06,-422.842 1273.37,-404.939 1256.02,-390.622"/>
<polygon fill="black" stroke="black" points="1257.84,-387.586 1247.9,-383.92 1253.39,-392.985 1257.84,-387.586"/>
<text text-anchor="middle" x="1313.4" y="-405.8" font-family="Times New Roman,serif" font-size="14.00">Crafting 0</text>
</g>
<!-- Herb_Stardust -->
<g id="node6" class="node"><title>Herb_Stardust</title>
<ellipse fill="none" stroke="black" cx="640.397" cy="-453" rx="63.8893" ry="18"/>
<text text-anchor="middle" x="640.397" y="-449.3" font-family="Times New Roman,serif" font-size="14.00">Herb_Stardust</text>
</g>
<!-- Pouch_Dust_Star -->
<g id="node21" class="node"><title>Pouch_Dust_Star</title>
<ellipse fill="none" stroke="black" cx="701.397" cy="-366" rx="75.2868" ry="18"/>
<text text-anchor="middle" x="701.397" y="-362.3" font-family="Times New Roman,serif" font-size="14.00">Pouch_Dust_Star</text>
</g>
<!-- Herb_Stardust&#45;&gt;Pouch_Dust_Star -->
<g id="edge7" class="edge"><title>Herb_Stardust&#45;&gt;Pouch_Dust_Star</title>
<path fill="none" stroke="black" d="M632.31,-435.132C628.641,-424.873 626.325,-411.889 632.397,-402 636.311,-395.626 641.787,-390.369 647.961,-386.044"/>
<polygon fill="black" stroke="black" points="650.007,-388.896 656.73,-380.708 646.368,-382.916 650.007,-388.896"/>
<text text-anchor="middle" x="660.397" y="-405.8" font-family="Times New Roman,serif" font-size="14.00">Crafting 0</text>
</g>
<!-- Feather -->
<g id="node7" class="node"><title>Feather</title>
<ellipse fill="none" stroke="black" cx="174.397" cy="-453" rx="37.8943" ry="18"/>
<text text-anchor="middle" x="174.397" y="-449.3" font-family="Times New Roman,serif" font-size="14.00">Feather</text>
</g>
<!-- Feather_A_Quill -->
<g id="node19" class="node"><title>Feather_A_Quill</title>
<ellipse fill="none" stroke="black" cx="241.397" cy="-366" rx="70.6878" ry="18"/>
<text text-anchor="middle" x="241.397" y="-362.3" font-family="Times New Roman,serif" font-size="14.00">Feather_A_Quill</text>
</g>
<!-- Feather&#45;&gt;Feather_A_Quill -->
<g id="edge8" class="edge"><title>Feather&#45;&gt;Feather_A_Quill</title>
<path fill="none" stroke="black" d="M186.999,-436.012C196.822,-423.55 210.637,-406.024 221.886,-391.752"/>
<polygon fill="black" stroke="black" points="224.722,-393.809 228.163,-383.789 219.224,-389.475 224.722,-393.809"/>
<text text-anchor="middle" x="240.397" y="-405.8" font-family="Times New Roman,serif" font-size="14.00">Crafting 0</text>
</g>
<!-- Knife -->
<g id="node8" class="node"><title>Knife</title>
<ellipse fill="none" stroke="black" cx="252.397" cy="-540" rx="30.5947" ry="18"/>
<text text-anchor="middle" x="252.397" y="-536.3" font-family="Times New Roman,serif" font-size="14.00">Knife</text>
</g>
<!-- Knife&#45;&gt;Feather -->
<g id="edge10" class="edge"><title>Knife&#45;&gt;Feather</title>
<path fill="none" stroke="black" d="M236.64,-524.345C230.216,-518.201 222.808,-510.894 216.397,-504 208.754,-495.781 200.741,-486.441 193.788,-478.077"/>
<polygon fill="black" stroke="black" points="196.295,-475.616 187.24,-470.115 190.889,-480.062 196.295,-475.616"/>
<text text-anchor="middle" x="244.397" y="-492.8" font-family="Times New Roman,serif" font-size="14.00">Crafting 0</text>
</g>
<!-- Knife&#45;&gt;Feather_A_Quill -->
<g id="edge9" class="edge"><title>Knife&#45;&gt;Feather_A_Quill</title>
<path fill="none" stroke="black" d="M263.836,-523.035C267.293,-517.311 270.636,-510.629 272.397,-504 284.032,-460.185 288.47,-444.388 272.397,-402 270.98,-398.264 268.963,-394.671 266.627,-391.304"/>
<polygon fill="black" stroke="black" points="269.315,-389.061 260.329,-383.448 263.853,-393.439 269.315,-389.061"/>
<text text-anchor="middle" x="311.397" y="-449.3" font-family="Times New Roman,serif" font-size="14.00">Crafting 0</text>
</g>
<!-- Pouch_Dust_Moon -->
<g id="node9" class="node"><title>Pouch_Dust_Moon</title>
<ellipse fill="none" stroke="black" cx="878.397" cy="-366" rx="83.3857" ry="18"/>
<text text-anchor="middle" x="878.397" y="-362.3" font-family="Times New Roman,serif" font-size="14.00">Pouch_Dust_Moon</text>
</g>
<!-- Pouch_Dust_Moon&#45;&gt;Pouch_Dust_Pixie -->
<g id="edge11" class="edge"><title>Pouch_Dust_Moon&#45;&gt;Pouch_Dust_Pixie</title>
<path fill="none" stroke="black" d="M845.932,-349.41C816.99,-335.511 774.464,-315.089 743.028,-299.993"/>
<polygon fill="black" stroke="black" points="744.185,-296.665 733.655,-295.491 741.155,-302.976 744.185,-296.665"/>
<text text-anchor="middle" x="829.397" y="-318.8" font-family="Times New Roman,serif" font-size="14.00">Crafting 0</text>
</g>
<!-- BOOK_Paper_Sheet&#45;&gt;Scroll_Skill_Air_Blank -->
<g id="edge12" class="edge"><title>BOOK_Paper_Sheet&#45;&gt;Scroll_Skill_Air_Blank</title>
<path fill="none" stroke="black" d="M1004.79,-262.902C967.476,-248.68 911.444,-227.323 871.14,-211.96"/>
<polygon fill="black" stroke="black" points="872.358,-208.679 861.767,-208.388 869.865,-215.22 872.358,-208.679"/>
<text text-anchor="middle" x="974.397" y="-231.8" font-family="Times New Roman,serif" font-size="14.00">Crafting 1</text>
</g>
<!-- Well_A_Snow -->
<g id="node11" class="node"><title>Well_A_Snow</title>
<ellipse fill="none" stroke="black" cx="1186.4" cy="-540" rx="64.189" ry="18"/>
<text text-anchor="middle" x="1186.4" y="-536.3" font-family="Times New Roman,serif" font-size="14.00">Well_A_Snow</text>
</g>
<!-- Well_A_Snow&#45;&gt;Scraps_Wood_A_Mush -->
<g id="edge13" class="edge"><title>Well_A_Snow&#45;&gt;Scraps_Wood_A_Mush</title>
<path fill="none" stroke="black" d="M1184.96,-521.709C1183.74,-500.774 1183.28,-464.637 1191.4,-435 1195.45,-420.217 1203.1,-405.024 1210.31,-392.759"/>
<polygon fill="black" stroke="black" points="1213.43,-394.361 1215.67,-384.006 1207.47,-390.705 1213.43,-394.361"/>
<text text-anchor="middle" x="1219.4" y="-449.3" font-family="Times New Roman,serif" font-size="14.00">Crafting 0</text>
</g>
<!-- Well_A_Snow&#45;&gt;Bucket_A_Water -->
<g id="edge14" class="edge"><title>Well_A_Snow&#45;&gt;Bucket_A_Water</title>
<path fill="none" stroke="black" d="M1198.77,-522.205C1207.44,-511.452 1219.86,-497.897 1233.4,-489 1245.08,-481.327 1258.65,-475.079 1271.88,-470.1"/>
<polygon fill="black" stroke="black" points="1273.18,-473.354 1281.42,-466.698 1270.82,-466.761 1273.18,-473.354"/>
<text text-anchor="middle" x="1261.4" y="-492.8" font-family="Times New Roman,serif" font-size="14.00">Crafting 0</text>
</g>
<!-- SKILLBOOK_Shield_Air -->
<g id="node29" class="node"><title>SKILLBOOK_Shield_Air</title>
<ellipse fill="none" stroke="black" cx="732.397" cy="-18" rx="105.082" ry="18"/>
<text text-anchor="middle" x="732.397" y="-14.3" font-family="Times New Roman,serif" font-size="14.00">SKILLBOOK_Shield_Air</text>
</g>
<!-- SCROLL_AirShield_1&#45;&gt;SKILLBOOK_Shield_Air -->
<g id="edge15" class="edge"><title>SCROLL_AirShield_1&#45;&gt;SKILLBOOK_Shield_Air</title>
<path fill="none" stroke="black" d="M634.209,-87.4094C653.103,-74.2458 679.693,-55.7198 700.438,-41.2663"/>
<polygon fill="black" stroke="black" points="702.44,-44.1371 708.644,-35.5488 698.439,-38.3937 702.44,-44.1371"/>
<text text-anchor="middle" x="707.397" y="-57.8" font-family="Times New Roman,serif" font-size="14.00">Crafting 4</text>
</g>
<!-- Ink_Pot_A_Quill_A_Magic -->
<g id="node13" class="node"><title>Ink_Pot_A_Quill_A_Magic</title>
<ellipse fill="none" stroke="black" cx="597.397" cy="-192" rx="111.581" ry="18"/>
<text text-anchor="middle" x="597.397" y="-188.3" font-family="Times New Roman,serif" font-size="14.00">Ink_Pot_A_Quill_A_Magic</text>
</g>
<!-- Ink_Pot_A_Quill_A_Magic&#45;&gt;SCROLL_AirShield_1 -->
<g id="edge16" class="edge"><title>Ink_Pot_A_Quill_A_Magic&#45;&gt;SCROLL_AirShield_1</title>
<path fill="none" stroke="black" d="M600.028,-173.799C601.807,-162.163 604.195,-146.548 606.231,-133.237"/>
<polygon fill="black" stroke="black" points="609.718,-133.59 607.77,-123.175 602.798,-132.531 609.718,-133.59"/>
<text text-anchor="middle" x="633.397" y="-144.8" font-family="Times New Roman,serif" font-size="14.00">Crafting 5</text>
</g>
<!-- Skull_Human -->
<g id="node14" class="node"><title>Skull_Human</title>
<ellipse fill="none" stroke="black" cx="420.397" cy="-453" rx="59.5901" ry="18"/>
<text text-anchor="middle" x="420.397" y="-449.3" font-family="Times New Roman,serif" font-size="14.00">Skull_Human</text>
</g>
<!-- Skull_Human&#45;&gt;Pouch_Dust_Bone -->
<g id="edge17" class="edge"><title>Skull_Human&#45;&gt;Pouch_Dust_Bone</title>
<path fill="none" stroke="black" d="M434.488,-435.087C443.545,-424.812 455.917,-411.825 468.397,-402 474.726,-397.017 481.837,-392.252 488.891,-387.929"/>
<polygon fill="black" stroke="black" points="490.902,-390.807 497.733,-382.709 487.343,-384.779 490.902,-390.807"/>
<text text-anchor="middle" x="496.397" y="-405.8" font-family="Times New Roman,serif" font-size="14.00">Crafting 0</text>
</g>
<!-- Pouch_Dust_Pixie&#45;&gt;Scroll_Skill_Air_Blank -->
<g id="edge19" class="edge"><title>Pouch_Dust_Pixie&#45;&gt;Scroll_Skill_Air_Blank</title>
<path fill="none" stroke="black" d="M724.534,-261.611C743.008,-248.525 769.094,-230.048 789.542,-215.564"/>
<polygon fill="black" stroke="black" points="791.784,-218.265 797.921,-209.629 787.738,-212.553 791.784,-218.265"/>
<text text-anchor="middle" x="797.397" y="-231.8" font-family="Times New Roman,serif" font-size="14.00">Crafting 1</text>
</g>
<!-- Pouch_Dust_Pixie&#45;&gt;Ink_Pot_A_Quill_A_Magic -->
<g id="edge18" class="edge"><title>Pouch_Dust_Pixie&#45;&gt;Ink_Pot_A_Quill_A_Magic</title>
<path fill="none" stroke="black" d="M680.85,-261.207C665.181,-248.401 643.41,-230.607 626.033,-216.404"/>
<polygon fill="black" stroke="black" points="627.859,-213.377 617.901,-209.758 623.429,-218.797 627.859,-213.377"/>
<text text-anchor="middle" x="684.397" y="-231.8" font-family="Times New Roman,serif" font-size="14.00">Crafting 1</text>
</g>
<!-- Well -->
<g id="node16" class="node"><title>Well</title>
<ellipse fill="none" stroke="black" cx="1417.4" cy="-540" rx="27.0966" ry="18"/>
<text text-anchor="middle" x="1417.4" y="-536.3" font-family="Times New Roman,serif" font-size="14.00">Well</text>
</g>
<!-- Well&#45;&gt;Scraps_Wood_A_Mush -->
<g id="edge20" class="edge"><title>Well&#45;&gt;Scraps_Wood_A_Mush</title>
<path fill="none" stroke="black" d="M1424.86,-522.605C1427.1,-516.847 1429.27,-510.252 1430.4,-504 1435.98,-472.914 1434.03,-458.911 1413.4,-435 1388.55,-406.211 1350.46,-389.605 1315.2,-380.029"/>
<polygon fill="black" stroke="black" points="1315.9,-376.595 1305.34,-377.51 1314.16,-383.377 1315.9,-376.595"/>
<text text-anchor="middle" x="1461.4" y="-449.3" font-family="Times New Roman,serif" font-size="14.00">Crafting 0</text>
</g>
<!-- Well&#45;&gt;Bucket_A_Water -->
<g id="edge21" class="edge"><title>Well&#45;&gt;Bucket_A_Water</title>
<path fill="none" stroke="black" d="M1400.1,-525.993C1392.03,-519.654 1382.44,-511.742 1374.4,-504 1366.19,-496.101 1357.78,-486.877 1350.54,-478.518"/>
<polygon fill="black" stroke="black" points="1353.16,-476.186 1344.01,-470.839 1347.83,-480.723 1353.16,-476.186"/>
<text text-anchor="middle" x="1402.4" y="-492.8" font-family="Times New Roman,serif" font-size="14.00">Crafting 0</text>
</g>
<!-- BOOK_Skill_Air_Blank&#45;&gt;SKILLBOOK_Shield_Air -->
<g id="edge22" class="edge"><title>BOOK_Skill_Air_Blank&#45;&gt;SKILLBOOK_Shield_Air</title>
<path fill="none" stroke="black" d="M803.813,-87.2067C790.526,-74.517 772.111,-56.9297 757.309,-42.7925"/>
<polygon fill="black" stroke="black" points="759.593,-40.134 749.944,-35.7584 754.758,-45.1962 759.593,-40.134"/>
<text text-anchor="middle" x="810.397" y="-57.8" font-family="Times New Roman,serif" font-size="14.00">Crafting 4</text>
</g>
<!-- Bucket -->
<g id="node18" class="node"><title>Bucket</title>
<ellipse fill="none" stroke="black" cx="1305.4" cy="-540" rx="36.2938" ry="18"/>
<text text-anchor="middle" x="1305.4" y="-536.3" font-family="Times New Roman,serif" font-size="14.00">Bucket</text>
</g>
<!-- Bucket&#45;&gt;Bucket_A_Water -->
<g id="edge23" class="edge"><title>Bucket&#45;&gt;Bucket_A_Water</title>
<path fill="none" stroke="black" d="M1297.31,-522.313C1293.64,-512.36 1290.99,-499.632 1295.4,-489 1297.02,-485.07 1299.33,-481.351 1301.99,-477.909"/>
<polygon fill="black" stroke="black" points="1304.64,-480.197 1308.7,-470.41 1299.42,-475.531 1304.64,-480.197"/>
<text text-anchor="middle" x="1323.4" y="-492.8" font-family="Times New Roman,serif" font-size="14.00">Crafting 0</text>
</g>
<!-- Ink_Pot_A_Quill -->
<g id="node30" class="node"><title>Ink_Pot_A_Quill</title>
<ellipse fill="none" stroke="black" cx="241.397" cy="-279" rx="73.387" ry="18"/>
<text text-anchor="middle" x="241.397" y="-275.3" font-family="Times New Roman,serif" font-size="14.00">Ink_Pot_A_Quill</text>
</g>
<!-- Feather_A_Quill&#45;&gt;Ink_Pot_A_Quill -->
<g id="edge24" class="edge"><title>Feather_A_Quill&#45;&gt;Ink_Pot_A_Quill</title>
<path fill="none" stroke="black" d="M241.397,-347.799C241.397,-336.163 241.397,-320.548 241.397,-307.237"/>
<polygon fill="black" stroke="black" points="244.897,-307.175 241.397,-297.175 237.897,-307.175 244.897,-307.175"/>
<text text-anchor="middle" x="269.397" y="-318.8" font-family="Times New Roman,serif" font-size="14.00">Crafting 0</text>
</g>
<!-- Moonstone -->
<g id="node20" class="node"><title>Moonstone</title>
<ellipse fill="none" stroke="black" cx="947.397" cy="-453" rx="51.9908" ry="18"/>
<text text-anchor="middle" x="947.397" y="-449.3" font-family="Times New Roman,serif" font-size="14.00">Moonstone</text>
</g>
<!-- Moonstone&#45;&gt;Pouch_Dust_Moon -->
<g id="edge25" class="edge"><title>Moonstone&#45;&gt;Pouch_Dust_Moon</title>
<path fill="none" stroke="black" d="M942.402,-435.064C938.802,-424.779 933.196,-411.792 925.397,-402 921.911,-397.623 917.753,-393.512 913.373,-389.753"/>
<polygon fill="black" stroke="black" points="915.357,-386.859 905.347,-383.388 911.008,-392.344 915.357,-386.859"/>
<text text-anchor="middle" x="962.397" y="-405.8" font-family="Times New Roman,serif" font-size="14.00">Crafting 0</text>
</g>
<!-- Pouch_Dust_Star&#45;&gt;Pouch_Dust_Pixie -->
<g id="edge26" class="edge"><title>Pouch_Dust_Star&#45;&gt;Pouch_Dust_Pixie</title>
<path fill="none" stroke="black" d="M701.397,-347.799C701.397,-336.163 701.397,-320.548 701.397,-307.237"/>
<polygon fill="black" stroke="black" points="704.897,-307.175 701.397,-297.175 697.897,-307.175 704.897,-307.175"/>
<text text-anchor="middle" x="729.397" y="-318.8" font-family="Times New Roman,serif" font-size="14.00">Crafting 0</text>
</g>
<!-- Axe -->
<g id="node22" class="node"><title>Axe</title>
<ellipse fill="none" stroke="black" cx="1077.4" cy="-540" rx="27" ry="18"/>
<text text-anchor="middle" x="1077.4" y="-536.3" font-family="Times New Roman,serif" font-size="14.00">Axe</text>
</g>
<!-- Axe&#45;&gt;Scraps_Wood -->
<g id="edge27" class="edge"><title>Axe&#45;&gt;Scraps_Wood</title>
<path fill="none" stroke="black" d="M1078.21,-521.799C1078.75,-510.163 1079.49,-494.548 1080.12,-481.237"/>
<polygon fill="black" stroke="black" points="1083.61,-481.329 1080.59,-471.175 1076.62,-481 1083.61,-481.329"/>
<text text-anchor="middle" x="1108.4" y="-492.8" font-family="Times New Roman,serif" font-size="14.00">Crafting 0</text>
</g>
<!-- Barrel -->
<g id="node23" class="node"><title>Barrel</title>
<ellipse fill="none" stroke="black" cx="1503.4" cy="-540" rx="32.4942" ry="18"/>
<text text-anchor="middle" x="1503.4" y="-536.3" font-family="Times New Roman,serif" font-size="14.00">Barrel</text>
</g>
<!-- Barrel&#45;&gt;Scraps_Wood_A_Mush -->
<g id="edge28" class="edge"><title>Barrel&#45;&gt;Scraps_Wood_A_Mush</title>
<path fill="none" stroke="black" d="M1512.74,-522.419C1515.44,-516.756 1518.03,-510.267 1519.4,-504 1526.37,-471.979 1517.89,-456.771 1493.4,-435 1450.3,-396.699 1388.55,-379.411 1335.39,-371.83"/>
<polygon fill="black" stroke="black" points="1335.6,-368.327 1325.23,-370.482 1334.68,-375.266 1335.6,-368.327"/>
<text text-anchor="middle" x="1548.4" y="-449.3" font-family="Times New Roman,serif" font-size="14.00">Crafting 0</text>
</g>
<!-- Barrel&#45;&gt;Bucket_A_Water -->
<g id="edge29" class="edge"><title>Barrel&#45;&gt;Bucket_A_Water</title>
<path fill="none" stroke="black" d="M1486.48,-524.493C1473.07,-513.562 1453.46,-498.827 1434.4,-489 1419.81,-481.484 1403.27,-475.064 1387.74,-469.853"/>
<polygon fill="black" stroke="black" points="1388.82,-466.523 1378.22,-466.765 1386.66,-473.181 1388.82,-466.523"/>
<text text-anchor="middle" x="1487.4" y="-492.8" font-family="Times New Roman,serif" font-size="14.00">Crafting 0</text>
</g>
<!-- Pillow -->
<g id="node24" class="node"><title>Pillow</title>
<ellipse fill="none" stroke="black" cx="136.397" cy="-540" rx="33.2948" ry="18"/>
<text text-anchor="middle" x="136.397" y="-536.3" font-family="Times New Roman,serif" font-size="14.00">Pillow</text>
</g>
<!-- Pillow&#45;&gt;Feather -->
<g id="edge30" class="edge"><title>Pillow&#45;&gt;Feather</title>
<path fill="none" stroke="black" d="M133.524,-521.622C132.65,-511.663 132.9,-499.163 137.397,-489 139.577,-484.073 142.816,-479.508 146.486,-475.412"/>
<polygon fill="black" stroke="black" points="149.213,-477.64 153.909,-468.143 144.316,-472.639 149.213,-477.64"/>
<text text-anchor="middle" x="165.397" y="-492.8" font-family="Times New Roman,serif" font-size="14.00">Crafting 0</text>
</g>
<!-- Bone -->
<g id="node25" class="node"><title>Bone</title>
<ellipse fill="none" stroke="black" cx="528.397" cy="-453" rx="29.795" ry="18"/>
<text text-anchor="middle" x="528.397" y="-449.3" font-family="Times New Roman,serif" font-size="14.00">Bone</text>
</g>
<!-- Bone&#45;&gt;Pouch_Dust_Bone -->
<g id="edge31" class="edge"><title>Bone&#45;&gt;Pouch_Dust_Bone</title>
<path fill="none" stroke="black" d="M528.397,-434.799C528.397,-423.163 528.397,-407.548 528.397,-394.237"/>
<polygon fill="black" stroke="black" points="531.897,-394.175 528.397,-384.175 524.897,-394.175 531.897,-394.175"/>
<text text-anchor="middle" x="556.397" y="-405.8" font-family="Times New Roman,serif" font-size="14.00">Crafting 0</text>
</g>
<!-- Ink_Pot -->
<g id="node26" class="node"><title>Ink_Pot</title>
<ellipse fill="none" stroke="black" cx="112.397" cy="-366" rx="40.0939" ry="18"/>
<text text-anchor="middle" x="112.397" y="-362.3" font-family="Times New Roman,serif" font-size="14.00">Ink_Pot</text>
</g>
<!-- Ink_Pot&#45;&gt;Ink_Pot_A_Quill -->
<g id="edge32" class="edge"><title>Ink_Pot&#45;&gt;Ink_Pot_A_Quill</title>
<path fill="none" stroke="black" d="M131.96,-350.028C145.579,-339.805 164.293,-326.147 181.397,-315 188.731,-310.22 196.731,-305.337 204.428,-300.793"/>
<polygon fill="black" stroke="black" points="206.39,-303.7 213.268,-295.641 202.866,-297.653 206.39,-303.7"/>
<text text-anchor="middle" x="209.397" y="-318.8" font-family="Times New Roman,serif" font-size="14.00">Crafting 0</text>
</g>
<!-- Scraps_Wood&#45;&gt;Scraps_Wood_A_Mush -->
<g id="edge33" class="edge"><title>Scraps_Wood&#45;&gt;Scraps_Wood_A_Mush</title>
<path fill="none" stroke="black" d="M1088.19,-434.923C1093.33,-424.05 1101.39,-410.468 1112.4,-402 1123.18,-393.707 1135.93,-387.368 1148.94,-382.526"/>
<polygon fill="black" stroke="black" points="1150.12,-385.821 1158.43,-379.258 1147.84,-379.202 1150.12,-385.821"/>
<text text-anchor="middle" x="1140.4" y="-405.8" font-family="Times New Roman,serif" font-size="14.00">Crafting 0</text>
</g>
<!-- Dagger -->
<g id="node28" class="node"><title>Dagger</title>
<ellipse fill="none" stroke="black" cx="36.3968" cy="-540" rx="36.2938" ry="18"/>
<text text-anchor="middle" x="36.3968" y="-536.3" font-family="Times New Roman,serif" font-size="14.00">Dagger</text>
</g>
<!-- Dagger&#45;&gt;Feather -->
<g id="edge35" class="edge"><title>Dagger&#45;&gt;Feather</title>
<path fill="none" stroke="black" d="M45.713,-522.09C52.4297,-511.288 62.4048,-497.722 74.3968,-489 90.9151,-476.987 111.918,-468.81 130.408,-463.402"/>
<polygon fill="black" stroke="black" points="131.373,-466.766 140.093,-460.748 129.523,-460.015 131.373,-466.766"/>
<text text-anchor="middle" x="102.397" y="-492.8" font-family="Times New Roman,serif" font-size="14.00">Crafting 0</text>
</g>
<!-- Dagger&#45;&gt;Feather_A_Quill -->
<g id="edge34" class="edge"><title>Dagger&#45;&gt;Feather_A_Quill</title>
<path fill="none" stroke="black" d="M37.8117,-521.629C40.5459,-498.928 48.4905,-459.223 71.3968,-435 87.8944,-417.554 144.124,-397.017 187.446,-383.114"/>
<polygon fill="black" stroke="black" points="188.555,-386.434 197.031,-380.077 186.441,-379.761 188.555,-386.434"/>
<text text-anchor="middle" x="99.3968" y="-449.3" font-family="Times New Roman,serif" font-size="14.00">Crafting 0</text>
</g>
<!-- Ink_Pot_A_Quill&#45;&gt;Ink_Pot_A_Quill_A_Magic -->
<g id="edge36" class="edge"><title>Ink_Pot_A_Quill&#45;&gt;Ink_Pot_A_Quill_A_Magic</title>
<path fill="none" stroke="black" d="M292.025,-265.912C353.776,-251.168 458.474,-226.17 527.779,-209.622"/>
<polygon fill="black" stroke="black" points="528.824,-212.971 537.738,-207.244 527.198,-206.163 528.824,-212.971"/>
<text text-anchor="middle" x="469.397" y="-231.8" font-family="Times New Roman,serif" font-size="14.00">Crafting 1</text>
</g>
<!-- Oven -->
<g id="node31" class="node"><title>Oven</title>
<ellipse fill="none" stroke="black" cx="1044.4" cy="-366" rx="30.5947" ry="18"/>
<text text-anchor="middle" x="1044.4" y="-362.3" font-family="Times New Roman,serif" font-size="14.00">Oven</text>
</g>
<!-- Oven&#45;&gt;BOOK_Paper_Sheet -->
<g id="edge37" class="edge"><title>Oven&#45;&gt;BOOK_Paper_Sheet</title>
<path fill="none" stroke="black" d="M1044.4,-347.799C1044.4,-336.163 1044.4,-320.548 1044.4,-307.237"/>
<polygon fill="black" stroke="black" points="1047.9,-307.175 1044.4,-297.175 1040.9,-307.175 1047.9,-307.175"/>
<text text-anchor="middle" x="1072.4" y="-318.8" font-family="Times New Roman,serif" font-size="14.00">Crafting 0</text>
</g>
<!-- MortarPestle -->
<g id="node32" class="node"><title>MortarPestle</title>
<ellipse fill="none" stroke="black" cx="789.397" cy="-453" rx="57.3905" ry="18"/>
<text text-anchor="middle" x="789.397" y="-449.3" font-family="Times New Roman,serif" font-size="14.00">MortarPestle</text>
</g>
<!-- MortarPestle&#45;&gt;Pouch_Dust_Bone -->
<g id="edge38" class="edge"><title>MortarPestle&#45;&gt;Pouch_Dust_Bone</title>
<path fill="none" stroke="black" d="M753.278,-438.99C738.611,-433.098 721.771,-425.535 707.397,-417 698.146,-411.507 698.122,-406.6 688.397,-402 679.777,-397.923 636.265,-388.51 596.792,-380.471"/>
<polygon fill="black" stroke="black" points="597.362,-377.016 586.867,-378.462 595.973,-383.877 597.362,-377.016"/>
<text text-anchor="middle" x="735.397" y="-405.8" font-family="Times New Roman,serif" font-size="14.00">Crafting 0</text>
</g>
<!-- MortarPestle&#45;&gt;Pouch_Dust_Moon -->
<g id="edge40" class="edge"><title>MortarPestle&#45;&gt;Pouch_Dust_Moon</title>
<path fill="none" stroke="black" d="M813.601,-436.684C821.851,-430.963 830.882,-424.116 838.397,-417 846.267,-409.548 853.944,-400.519 860.434,-392.196"/>
<polygon fill="black" stroke="black" points="863.247,-394.279 866.491,-384.193 857.666,-390.054 863.247,-394.279"/>
<text text-anchor="middle" x="880.397" y="-405.8" font-family="Times New Roman,serif" font-size="14.00">Crafting 0</text>
</g>
<!-- MortarPestle&#45;&gt;Pouch_Dust_Star -->
<g id="edge39" class="edge"><title>MortarPestle&#45;&gt;Pouch_Dust_Star</title>
<path fill="none" stroke="black" d="M784.911,-434.625C781.502,-424.176 775.919,-411.169 767.397,-402 761.933,-396.122 755.255,-391.041 748.269,-386.714"/>
<polygon fill="black" stroke="black" points="749.747,-383.529 739.323,-381.635 746.291,-389.616 749.747,-383.529"/>
<text text-anchor="middle" x="806.397" y="-405.8" font-family="Times New Roman,serif" font-size="14.00">Crafting 0</text>
</g>
</g>
</svg>
