<?xml version="1.0" encoding="UTF-8" standalone="no"?>
<!DOCTYPE svg PUBLIC "-//W3C//DTD SVG 1.1//EN"
 "http://www.w3.org/Graphics/SVG/1.1/DTD/svg11.dtd">
<!-- Generated by graphviz version 2.38.0 (20140413.2041)
 -->
<!-- Title: G Pages: 1 -->
<svg width="383pt" height="305pt"
 viewBox="0.00 0.00 382.63 305.00" xmlns="http://www.w3.org/2000/svg" xmlns:xlink="http://www.w3.org/1999/xlink">
<g id="graph0" class="graph" transform="scale(1 1) rotate(0) translate(4 301)">
<title>G</title>
<polygon fill="white" stroke="none" points="-4,4 -4,-301 378.633,-301 378.633,4 -4,4"/>
<!-- Rope -->
<g id="node1" class="node"><title>Rope</title>
<ellipse fill="none" stroke="black" cx="309.638" cy="-105" rx="30.5947" ry="18"/>
<text text-anchor="middle" x="309.638" y="-101.3" font-family="Times New Roman,serif" font-size="14.00">Rope</text>
</g>
<!-- Skull_MagicBelt -->
<g id="node4" class="node"><title>Skull_MagicBelt</title>
<ellipse fill="none" stroke="black" cx="194.638" cy="-18" rx="70.3881" ry="18"/>
<text text-anchor="middle" x="194.638" y="-14.3" font-family="Times New Roman,serif" font-size="14.00">Skull_MagicBelt</text>
</g>
<!-- Rope&#45;&gt;Skull_MagicBelt -->
<g id="edge1" class="edge"><title>Rope&#45;&gt;Skull_MagicBelt</title>
<path fill="none" stroke="black" d="M291.416,-90.5315C273.525,-77.3071 245.914,-56.8992 224.756,-41.261"/>
<polygon fill="black" stroke="black" points="226.832,-38.4427 216.709,-35.3134 222.671,-44.072 226.832,-38.4427"/>
<text text-anchor="middle" x="286.638" y="-57.8" font-family="Times New Roman,serif" font-size="14.00">Crafting 1</text>
</g>
<!-- Wool -->
<g id="node2" class="node"><title>Wool</title>
<ellipse fill="none" stroke="black" cx="309.638" cy="-279" rx="31.3957" ry="18"/>
<text text-anchor="middle" x="309.638" y="-275.3" font-family="Times New Roman,serif" font-size="14.00">Wool</text>
</g>
<!-- Yarn_A_Wool -->
<g id="node3" class="node"><title>Yarn_A_Wool</title>
<ellipse fill="none" stroke="black" cx="309.638" cy="-192" rx="64.9885" ry="18"/>
<text text-anchor="middle" x="309.638" y="-188.3" font-family="Times New Roman,serif" font-size="14.00">Yarn_A_Wool</text>
</g>
<!-- Wool&#45;&gt;Yarn_A_Wool -->
<g id="edge2" class="edge"><title>Wool&#45;&gt;Yarn_A_Wool</title>
<path fill="none" stroke="black" d="M309.638,-260.799C309.638,-249.163 309.638,-233.548 309.638,-220.237"/>
<polygon fill="black" stroke="black" points="313.139,-220.175 309.638,-210.175 306.139,-220.175 313.139,-220.175"/>
<text text-anchor="middle" x="337.638" y="-231.8" font-family="Times New Roman,serif" font-size="14.00">Crafting 0</text>
</g>
<!-- Yarn_A_Wool&#45;&gt;Rope -->
<g id="edge3" class="edge"><title>Yarn_A_Wool&#45;&gt;Rope</title>
<path fill="none" stroke="black" d="M309.638,-173.799C309.638,-162.163 309.638,-146.548 309.638,-133.237"/>
<polygon fill="black" stroke="black" points="313.139,-133.175 309.638,-123.175 306.139,-133.175 313.139,-133.175"/>
<text text-anchor="middle" x="337.638" y="-144.8" font-family="Times New Roman,serif" font-size="14.00">Crafting 0</text>
</g>
<!-- Skull_Human_A_Magic_Ancient -->
<g id="node5" class="node"><title>Skull_Human_A_Magic_Ancient</title>
<ellipse fill="none" stroke="black" cx="130.638" cy="-105" rx="130.777" ry="18"/>
<text text-anchor="middle" x="130.638" y="-101.3" font-family="Times New Roman,serif" font-size="14.00">Skull_Human_A_Magic_Ancient</text>
</g>
<!-- Skull_Human_A_Magic_Ancient&#45;&gt;Skull_MagicBelt -->
<g id="edge4" class="edge"><title>Skull_Human_A_Magic_Ancient&#45;&gt;Skull_MagicBelt</title>
<path fill="none" stroke="black" d="M143.59,-86.799C152.846,-74.5062 165.444,-57.7736 175.809,-44.0073"/>
<polygon fill="black" stroke="black" points="178.706,-45.9794 181.925,-35.8854 173.114,-41.7688 178.706,-45.9794"/>
<text text-anchor="middle" x="193.638" y="-57.8" font-family="Times New Roman,serif" font-size="14.00">Crafting 1</text>
</g>
</g>
</svg>
