<?xml version="1.0" encoding="UTF-8" standalone="no"?>
<!DOCTYPE svg PUBLIC "-//W3C//DTD SVG 1.1//EN"
 "http://www.w3.org/Graphics/SVG/1.1/DTD/svg11.dtd">
<!-- Generated by graphviz version 2.38.0 (20140413.2041)
 -->
<!-- Title: G Pages: 1 -->
<svg width="650pt" height="392pt"
 viewBox="0.00 0.00 649.79 392.00" xmlns="http://www.w3.org/2000/svg" xmlns:xlink="http://www.w3.org/1999/xlink">
<g id="graph0" class="graph" transform="scale(1 1) rotate(0) translate(4 388)">
<title>G</title>
<polygon fill="white" stroke="none" points="-4,4 -4,-388 645.79,-388 645.79,4 -4,4"/>
<!-- Pouch_Dust_Pixie -->
<g id="node1" class="node"><title>Pouch_Dust_Pixie</title>
<ellipse fill="none" stroke="black" cx="229.795" cy="-192" rx="78.7863" ry="18"/>
<text text-anchor="middle" x="229.795" y="-188.3" font-family="Times New Roman,serif" font-size="14.00">Pouch_Dust_Pixie</text>
</g>
<!-- Skull_Human_A_Magic -->
<g id="node4" class="node"><title>Skull_Human_A_Magic</title>
<ellipse fill="none" stroke="black" cx="108.795" cy="-105" rx="98.2828" ry="18"/>
<text text-anchor="middle" x="108.795" y="-101.3" font-family="Times New Roman,serif" font-size="14.00">Skull_Human_A_Magic</text>
</g>
<!-- Pouch_Dust_Pixie&#45;&gt;Skull_Human_A_Magic -->
<g id="edge1" class="edge"><title>Pouch_Dust_Pixie&#45;&gt;Skull_Human_A_Magic</title>
<path fill="none" stroke="black" d="M206.465,-174.611C187.837,-161.525 161.533,-143.048 140.915,-128.564"/>
<polygon fill="black" stroke="black" points="142.661,-125.513 132.466,-122.629 138.637,-131.241 142.661,-125.513"/>
<text text-anchor="middle" x="204.795" y="-144.8" font-family="Times New Roman,serif" font-size="14.00">Crafting 1</text>
</g>
<!-- Skull_MagicRing -->
<g id="node2" class="node"><title>Skull_MagicRing</title>
<ellipse fill="none" stroke="black" cx="196.795" cy="-18" rx="73.387" ry="18"/>
<text text-anchor="middle" x="196.795" y="-14.3" font-family="Times New Roman,serif" font-size="14.00">Skull_MagicRing</text>
</g>
<!-- Pouch_Dust_Bone -->
<g id="node3" class="node"><title>Pouch_Dust_Bone</title>
<ellipse fill="none" stroke="black" cx="167.795" cy="-279" rx="79.8859" ry="18"/>
<text text-anchor="middle" x="167.795" y="-275.3" font-family="Times New Roman,serif" font-size="14.00">Pouch_Dust_Bone</text>
</g>
<!-- Pouch_Dust_Bone&#45;&gt;Pouch_Dust_Pixie -->
<g id="edge2" class="edge"><title>Pouch_Dust_Bone&#45;&gt;Pouch_Dust_Pixie</title>
<path fill="none" stroke="black" d="M180.044,-261.207C188.987,-248.946 201.264,-232.114 211.385,-218.239"/>
<polygon fill="black" stroke="black" points="214.293,-220.191 217.359,-210.049 208.638,-216.066 214.293,-220.191"/>
<text text-anchor="middle" x="230.795" y="-231.8" font-family="Times New Roman,serif" font-size="14.00">Crafting 0</text>
</g>
<!-- Skull_Human_A_Magic&#45;&gt;Skull_MagicRing -->
<g id="edge3" class="edge"><title>Skull_Human_A_Magic&#45;&gt;Skull_MagicRing</title>
<path fill="none" stroke="black" d="M126.181,-87.2067C139.318,-74.517 157.526,-56.9297 172.162,-42.7925"/>
<polygon fill="black" stroke="black" points="174.684,-45.2232 179.445,-35.7584 169.821,-40.1884 174.684,-45.2232"/>
<text text-anchor="middle" x="186.795" y="-57.8" font-family="Times New Roman,serif" font-size="14.00">Crafting 2</text>
</g>
<!-- Moonstone -->
<g id="node5" class="node"><title>Moonstone</title>
<ellipse fill="none" stroke="black" cx="589.795" cy="-366" rx="51.9908" ry="18"/>
<text text-anchor="middle" x="589.795" y="-362.3" font-family="Times New Roman,serif" font-size="14.00">Moonstone</text>
</g>
<!-- Pouch_Dust_Moon -->
<g id="node12" class="node"><title>Pouch_Dust_Moon</title>
<ellipse fill="none" stroke="black" cx="517.795" cy="-279" rx="83.3857" ry="18"/>
<text text-anchor="middle" x="517.795" y="-275.3" font-family="Times New Roman,serif" font-size="14.00">Pouch_Dust_Moon</text>
</g>
<!-- Moonstone&#45;&gt;Pouch_Dust_Moon -->
<g id="edge4" class="edge"><title>Moonstone&#45;&gt;Pouch_Dust_Moon</title>
<path fill="none" stroke="black" d="M578.817,-348.238C572.019,-338.259 562.877,-325.529 553.795,-315 550.617,-311.316 547.114,-307.575 543.578,-303.976"/>
<polygon fill="black" stroke="black" points="545.942,-301.392 536.368,-296.855 541.023,-306.372 545.942,-301.392"/>
<text text-anchor="middle" x="593.795" y="-318.8" font-family="Times New Roman,serif" font-size="14.00">Crafting 0</text>
</g>
<!-- Pouch_Dust_Star -->
<g id="node6" class="node"><title>Pouch_Dust_Star</title>
<ellipse fill="none" stroke="black" cx="340.795" cy="-279" rx="75.2868" ry="18"/>
<text text-anchor="middle" x="340.795" y="-275.3" font-family="Times New Roman,serif" font-size="14.00">Pouch_Dust_Star</text>
</g>
<!-- Pouch_Dust_Star&#45;&gt;Pouch_Dust_Pixie -->
<g id="edge5" class="edge"><title>Pouch_Dust_Star&#45;&gt;Pouch_Dust_Pixie</title>
<path fill="none" stroke="black" d="M319.393,-261.611C302.271,-248.5 278.08,-229.975 259.15,-215.479"/>
<polygon fill="black" stroke="black" points="261.198,-212.64 251.131,-209.339 256.942,-218.197 261.198,-212.64"/>
<text text-anchor="middle" x="320.795" y="-231.8" font-family="Times New Roman,serif" font-size="14.00">Crafting 0</text>
</g>
<!-- Bone -->
<g id="node7" class="node"><title>Bone</title>
<ellipse fill="none" stroke="black" cx="169.795" cy="-366" rx="29.795" ry="18"/>
<text text-anchor="middle" x="169.795" y="-362.3" font-family="Times New Roman,serif" font-size="14.00">Bone</text>
</g>
<!-- Bone&#45;&gt;Pouch_Dust_Bone -->
<g id="edge13" class="edge"><title>Bone&#45;&gt;Pouch_Dust_Bone</title>
<path fill="none" stroke="black" d="M169.39,-347.799C169.116,-336.163 168.749,-320.548 168.436,-307.237"/>
<polygon fill="black" stroke="black" points="171.933,-307.09 168.199,-297.175 164.935,-307.255 171.933,-307.09"/>
<text text-anchor="middle" x="197.795" y="-318.8" font-family="Times New Roman,serif" font-size="14.00">Crafting 0</text>
</g>
<!-- Herb_Stardust -->
<g id="node8" class="node"><title>Herb_Stardust</title>
<ellipse fill="none" stroke="black" cx="323.795" cy="-366" rx="63.8893" ry="18"/>
<text text-anchor="middle" x="323.795" y="-362.3" font-family="Times New Roman,serif" font-size="14.00">Herb_Stardust</text>
</g>
<!-- Herb_Stardust&#45;&gt;Pouch_Dust_Star -->
<g id="edge11" class="edge"><title>Herb_Stardust&#45;&gt;Pouch_Dust_Star</title>
<path fill="none" stroke="black" d="M327.235,-347.799C329.562,-336.163 332.685,-320.548 335.347,-307.237"/>
<polygon fill="black" stroke="black" points="338.83,-307.668 337.36,-297.175 331.966,-306.295 338.83,-307.668"/>
<text text-anchor="middle" x="361.795" y="-318.8" font-family="Times New Roman,serif" font-size="14.00">Crafting 0</text>
</g>
<!-- Ring -->
<g id="node9" class="node"><title>Ring</title>
<ellipse fill="none" stroke="black" cx="252.795" cy="-105" rx="27.8951" ry="18"/>
<text text-anchor="middle" x="252.795" y="-101.3" font-family="Times New Roman,serif" font-size="14.00">Ring</text>
</g>
<!-- Ring&#45;&gt;Skull_MagicRing -->
<g id="edge12" class="edge"><title>Ring&#45;&gt;Skull_MagicRing</title>
<path fill="none" stroke="black" d="M242.262,-88.0122C234.257,-75.8617 223.08,-58.8978 213.812,-44.8297"/>
<polygon fill="black" stroke="black" points="216.474,-42.5079 208.049,-36.0828 210.628,-46.359 216.474,-42.5079"/>
<text text-anchor="middle" x="256.795" y="-57.8" font-family="Times New Roman,serif" font-size="14.00">Crafting 2</text>
</g>
<!-- Skull_Human -->
<g id="node10" class="node"><title>Skull_Human</title>
<ellipse fill="none" stroke="black" cx="59.7947" cy="-366" rx="59.5901" ry="18"/>
<text text-anchor="middle" x="59.7947" y="-362.3" font-family="Times New Roman,serif" font-size="14.00">Skull_Human</text>
</g>
<!-- Skull_Human&#45;&gt;Pouch_Dust_Bone -->
<g id="edge9" class="edge"><title>Skull_Human&#45;&gt;Pouch_Dust_Bone</title>
<path fill="none" stroke="black" d="M74.2638,-348.144C83.5413,-337.889 96.1745,-324.905 108.795,-315 115.053,-310.088 122.062,-305.357 129.004,-301.046"/>
<polygon fill="black" stroke="black" points="130.926,-303.975 137.7,-295.829 127.324,-297.972 130.926,-303.975"/>
<text text-anchor="middle" x="136.795" y="-318.8" font-family="Times New Roman,serif" font-size="14.00">Crafting 0</text>
</g>
<!-- Skull_Human&#45;&gt;Skull_Human_A_Magic -->
<g id="edge10" class="edge"><title>Skull_Human&#45;&gt;Skull_Human_A_Magic</title>
<path fill="none" stroke="black" d="M62.8994,-347.692C66.6167,-327.044 73.0602,-291.484 78.7947,-261 87.2256,-216.182 97.3699,-164.147 103.439,-133.209"/>
<polygon fill="black" stroke="black" points="106.914,-133.678 105.406,-123.191 100.045,-132.329 106.914,-133.678"/>
<text text-anchor="middle" x="113.795" y="-231.8" font-family="Times New Roman,serif" font-size="14.00">Crafting 1</text>
</g>
<!-- MortarPestle -->
<g id="node11" class="node"><title>MortarPestle</title>
<ellipse fill="none" stroke="black" cx="462.795" cy="-366" rx="57.3905" ry="18"/>
<text text-anchor="middle" x="462.795" y="-362.3" font-family="Times New Roman,serif" font-size="14.00">MortarPestle</text>
</g>
<!-- MortarPestle&#45;&gt;Pouch_Dust_Bone -->
<g id="edge6" class="edge"><title>MortarPestle&#45;&gt;Pouch_Dust_Bone</title>
<path fill="none" stroke="black" d="M421.056,-353.516C413.039,-351.519 404.684,-349.579 396.795,-348 341.758,-336.983 325.489,-346.35 271.795,-330 248.301,-322.846 223.46,-311.079 203.95,-300.756"/>
<polygon fill="black" stroke="black" points="205.57,-297.654 195.107,-295.985 202.246,-303.814 205.57,-297.654"/>
<text text-anchor="middle" x="299.795" y="-318.8" font-family="Times New Roman,serif" font-size="14.00">Crafting 0</text>
</g>
<!-- MortarPestle&#45;&gt;Pouch_Dust_Star -->
<g id="edge7" class="edge"><title>MortarPestle&#45;&gt;Pouch_Dust_Star</title>
<path fill="none" stroke="black" d="M441.52,-349.218C427.966,-339.255 409.974,-326.196 393.795,-315 387.561,-310.686 380.853,-306.165 374.375,-301.859"/>
<polygon fill="black" stroke="black" points="376.023,-298.753 365.75,-296.16 372.164,-304.593 376.023,-298.753"/>
<text text-anchor="middle" x="443.795" y="-318.8" font-family="Times New Roman,serif" font-size="14.00">Crafting 0</text>
</g>
<!-- MortarPestle&#45;&gt;Pouch_Dust_Moon -->
<g id="edge8" class="edge"><title>MortarPestle&#45;&gt;Pouch_Dust_Moon</title>
<path fill="none" stroke="black" d="M473.661,-348.207C481.519,-336.062 492.28,-319.431 501.209,-305.633"/>
<polygon fill="black" stroke="black" points="504.269,-307.346 506.763,-297.049 498.392,-303.544 504.269,-307.346"/>
<text text-anchor="middle" x="521.795" y="-318.8" font-family="Times New Roman,serif" font-size="14.00">Crafting 0</text>
</g>
<!-- Pouch_Dust_Moon&#45;&gt;Pouch_Dust_Pixie -->
<g id="edge14" class="edge"><title>Pouch_Dust_Moon&#45;&gt;Pouch_Dust_Pixie</title>
<path fill="none" stroke="black" d="M471.981,-263.889C438.904,-253.757 393.144,-239.853 352.795,-228 331.468,-221.735 308.01,-215.017 287.35,-209.159"/>
<polygon fill="black" stroke="black" points="288.029,-205.714 277.453,-206.358 286.122,-212.449 288.029,-205.714"/>
<text text-anchor="middle" x="430.795" y="-231.8" font-family="Times New Roman,serif" font-size="14.00">Crafting 0</text>
</g>
</g>
</svg>
