<?xml version="1.0" encoding="UTF-8" standalone="no"?>
<!DOCTYPE svg PUBLIC "-//W3C//DTD SVG 1.1//EN"
 "http://www.w3.org/Graphics/SVG/1.1/DTD/svg11.dtd">
<!-- Generated by graphviz version 2.38.0 (20140413.2041)
 -->
<!-- Title: G Pages: 1 -->
<svg width="710pt" height="392pt"
 viewBox="0.00 0.00 709.59 392.00" xmlns="http://www.w3.org/2000/svg" xmlns:xlink="http://www.w3.org/1999/xlink">
<g id="graph0" class="graph" transform="scale(1 1) rotate(0) translate(4 388)">
<title>G</title>
<polygon fill="white" stroke="none" points="-4,4 -4,-388 705.589,-388 705.589,4 -4,4"/>
<!-- Pouch_Dust_Pixie -->
<g id="node1" class="node"><title>Pouch_Dust_Pixie</title>
<ellipse fill="none" stroke="black" cx="354.397" cy="-192" rx="78.7863" ry="18"/>
<text text-anchor="middle" x="354.397" y="-188.3" font-family="Times New Roman,serif" font-size="14.00">Pouch_Dust_Pixie</text>
</g>
<!-- Skull_Human_A_Magic -->
<g id="node5" class="node"><title>Skull_Human_A_Magic</title>
<ellipse fill="none" stroke="black" cx="189.397" cy="-105" rx="98.2828" ry="18"/>
<text text-anchor="middle" x="189.397" y="-101.3" font-family="Times New Roman,serif" font-size="14.00">Skull_Human_A_Magic</text>
</g>
<!-- Pouch_Dust_Pixie&#45;&gt;Skull_Human_A_Magic -->
<g id="edge1" class="edge"><title>Pouch_Dust_Pixie&#45;&gt;Skull_Human_A_Magic</title>
<path fill="none" stroke="black" d="M323.748,-175.211C297.258,-161.565 258.774,-141.74 229.776,-126.802"/>
<polygon fill="black" stroke="black" points="231.215,-123.606 220.722,-122.137 228.009,-129.828 231.215,-123.606"/>
<text text-anchor="middle" x="310.397" y="-144.8" font-family="Times New Roman,serif" font-size="14.00">Crafting 1</text>
</g>
<!-- Thread -->
<g id="node2" class="node"><title>Thread</title>
<ellipse fill="none" stroke="black" cx="36.3968" cy="-105" rx="36.2938" ry="18"/>
<text text-anchor="middle" x="36.3968" y="-101.3" font-family="Times New Roman,serif" font-size="14.00">Thread</text>
</g>
<!-- Skull_MagicAmulet -->
<g id="node10" class="node"><title>Skull_MagicAmulet</title>
<ellipse fill="none" stroke="black" cx="121.397" cy="-18" rx="81.7856" ry="18"/>
<text text-anchor="middle" x="121.397" y="-14.3" font-family="Times New Roman,serif" font-size="14.00">Skull_MagicAmulet</text>
</g>
<!-- Thread&#45;&gt;Skull_MagicAmulet -->
<g id="edge2" class="edge"><title>Thread&#45;&gt;Skull_MagicAmulet</title>
<path fill="none" stroke="black" d="M51.9871,-88.4097C64.7208,-75.676 82.9295,-57.4673 97.5021,-42.8947"/>
<polygon fill="black" stroke="black" points="100.147,-45.1998 104.743,-35.6539 95.1969,-40.2501 100.147,-45.1998"/>
<text text-anchor="middle" x="112.397" y="-57.8" font-family="Times New Roman,serif" font-size="14.00">Crafting 1</text>
</g>
<!-- Pouch_Dust_Bone -->
<g id="node3" class="node"><title>Pouch_Dust_Bone</title>
<ellipse fill="none" stroke="black" cx="268.397" cy="-279" rx="79.8859" ry="18"/>
<text text-anchor="middle" x="268.397" y="-275.3" font-family="Times New Roman,serif" font-size="14.00">Pouch_Dust_Bone</text>
</g>
<!-- Pouch_Dust_Bone&#45;&gt;Pouch_Dust_Pixie -->
<g id="edge3" class="edge"><title>Pouch_Dust_Bone&#45;&gt;Pouch_Dust_Pixie</title>
<path fill="none" stroke="black" d="M285.388,-261.207C298.227,-248.517 316.021,-230.93 330.324,-216.793"/>
<polygon fill="black" stroke="black" points="332.789,-219.277 337.441,-209.758 327.869,-214.299 332.789,-219.277"/>
<text text-anchor="middle" x="345.397" y="-231.8" font-family="Times New Roman,serif" font-size="14.00">Crafting 0</text>
</g>
<!-- Hair -->
<g id="node4" class="node"><title>Hair</title>
<ellipse fill="none" stroke="black" cx="36.3968" cy="-192" rx="27" ry="18"/>
<text text-anchor="middle" x="36.3968" y="-188.3" font-family="Times New Roman,serif" font-size="14.00">Hair</text>
</g>
<!-- Hair&#45;&gt;Thread -->
<g id="edge4" class="edge"><title>Hair&#45;&gt;Thread</title>
<path fill="none" stroke="black" d="M36.3968,-173.799C36.3968,-162.163 36.3968,-146.548 36.3968,-133.237"/>
<polygon fill="black" stroke="black" points="39.8969,-133.175 36.3968,-123.175 32.8969,-133.175 39.8969,-133.175"/>
<text text-anchor="middle" x="64.3968" y="-144.8" font-family="Times New Roman,serif" font-size="14.00">Crafting 0</text>
</g>
<!-- Skull_Human_A_Magic&#45;&gt;Skull_MagicAmulet -->
<g id="edge5" class="edge"><title>Skull_Human_A_Magic&#45;&gt;Skull_MagicAmulet</title>
<path fill="none" stroke="black" d="M175.636,-86.799C165.802,-74.5062 152.416,-57.7736 141.403,-44.0073"/>
<polygon fill="black" stroke="black" points="143.885,-41.5076 134.905,-35.8854 138.419,-45.8805 143.885,-41.5076"/>
<text text-anchor="middle" x="188.397" y="-57.8" font-family="Times New Roman,serif" font-size="14.00">Crafting 1</text>
</g>
<!-- Moonstone -->
<g id="node6" class="node"><title>Moonstone</title>
<ellipse fill="none" stroke="black" cx="636.397" cy="-366" rx="51.9908" ry="18"/>
<text text-anchor="middle" x="636.397" y="-362.3" font-family="Times New Roman,serif" font-size="14.00">Moonstone</text>
</g>
<!-- Pouch_Dust_Moon -->
<g id="node13" class="node"><title>Pouch_Dust_Moon</title>
<ellipse fill="none" stroke="black" cx="618.397" cy="-279" rx="83.3857" ry="18"/>
<text text-anchor="middle" x="618.397" y="-275.3" font-family="Times New Roman,serif" font-size="14.00">Pouch_Dust_Moon</text>
</g>
<!-- Moonstone&#45;&gt;Pouch_Dust_Moon -->
<g id="edge6" class="edge"><title>Moonstone&#45;&gt;Pouch_Dust_Moon</title>
<path fill="none" stroke="black" d="M632.754,-347.799C630.29,-336.163 626.983,-320.548 624.165,-307.237"/>
<polygon fill="black" stroke="black" points="627.53,-306.233 622.034,-297.175 620.682,-307.684 627.53,-306.233"/>
<text text-anchor="middle" x="656.397" y="-318.8" font-family="Times New Roman,serif" font-size="14.00">Crafting 0</text>
</g>
<!-- Pouch_Dust_Star -->
<g id="node7" class="node"><title>Pouch_Dust_Star</title>
<ellipse fill="none" stroke="black" cx="441.397" cy="-279" rx="75.2868" ry="18"/>
<text text-anchor="middle" x="441.397" y="-275.3" font-family="Times New Roman,serif" font-size="14.00">Pouch_Dust_Star</text>
</g>
<!-- Pouch_Dust_Star&#45;&gt;Pouch_Dust_Pixie -->
<g id="edge7" class="edge"><title>Pouch_Dust_Star&#45;&gt;Pouch_Dust_Pixie</title>
<path fill="none" stroke="black" d="M424.208,-261.207C411.22,-248.517 393.219,-230.93 378.749,-216.793"/>
<polygon fill="black" stroke="black" points="381.148,-214.243 371.549,-209.758 376.256,-219.25 381.148,-214.243"/>
<text text-anchor="middle" x="430.397" y="-231.8" font-family="Times New Roman,serif" font-size="14.00">Crafting 0</text>
</g>
<!-- Bone -->
<g id="node8" class="node"><title>Bone</title>
<ellipse fill="none" stroke="black" cx="71.3968" cy="-366" rx="29.795" ry="18"/>
<text text-anchor="middle" x="71.3968" y="-362.3" font-family="Times New Roman,serif" font-size="14.00">Bone</text>
</g>
<!-- Bone&#45;&gt;Pouch_Dust_Bone -->
<g id="edge14" class="edge"><title>Bone&#45;&gt;Pouch_Dust_Bone</title>
<path fill="none" stroke="black" d="M91.0583,-352.265C108.503,-341.351 134.941,-325.737 159.397,-315 175.446,-307.954 193.374,-301.608 209.981,-296.318"/>
<polygon fill="black" stroke="black" points="211.075,-299.643 219.582,-293.327 208.993,-292.959 211.075,-299.643"/>
<text text-anchor="middle" x="187.397" y="-318.8" font-family="Times New Roman,serif" font-size="14.00">Crafting 0</text>
</g>
<!-- Herb_Stardust -->
<g id="node9" class="node"><title>Herb_Stardust</title>
<ellipse fill="none" stroke="black" cx="320.397" cy="-366" rx="63.8893" ry="18"/>
<text text-anchor="middle" x="320.397" y="-362.3" font-family="Times New Roman,serif" font-size="14.00">Herb_Stardust</text>
</g>
<!-- Herb_Stardust&#45;&gt;Pouch_Dust_Star -->
<g id="edge11" class="edge"><title>Herb_Stardust&#45;&gt;Pouch_Dust_Star</title>
<path fill="none" stroke="black" d="M315.969,-347.576C314.381,-337.108 314.429,-324.099 321.397,-315 325.363,-309.821 352.074,-301.786 379.29,-294.721"/>
<polygon fill="black" stroke="black" points="380.473,-298.031 389.298,-292.169 378.743,-291.248 380.473,-298.031"/>
<text text-anchor="middle" x="349.397" y="-318.8" font-family="Times New Roman,serif" font-size="14.00">Crafting 0</text>
</g>
<!-- Skull_Human -->
<g id="node11" class="node"><title>Skull_Human</title>
<ellipse fill="none" stroke="black" cx="179.397" cy="-366" rx="59.5901" ry="18"/>
<text text-anchor="middle" x="179.397" y="-362.3" font-family="Times New Roman,serif" font-size="14.00">Skull_Human</text>
</g>
<!-- Skull_Human&#45;&gt;Pouch_Dust_Bone -->
<g id="edge12" class="edge"><title>Skull_Human&#45;&gt;Pouch_Dust_Bone</title>
<path fill="none" stroke="black" d="M196.557,-348.611C209.891,-335.876 228.573,-318.034 243.543,-303.736"/>
<polygon fill="black" stroke="black" points="246.171,-306.066 250.986,-296.629 241.337,-301.004 246.171,-306.066"/>
<text text-anchor="middle" x="257.397" y="-318.8" font-family="Times New Roman,serif" font-size="14.00">Crafting 0</text>
</g>
<!-- Skull_Human&#45;&gt;Skull_Human_A_Magic -->
<g id="edge13" class="edge"><title>Skull_Human&#45;&gt;Skull_Human_A_Magic</title>
<path fill="none" stroke="black" d="M179.056,-347.697C178.729,-327.053 178.414,-291.498 179.397,-261 180.842,-216.157 184.633,-164.13 187.11,-133.199"/>
<polygon fill="black" stroke="black" points="190.602,-133.436 187.925,-123.185 183.625,-132.868 190.602,-133.436"/>
<text text-anchor="middle" x="209.397" y="-231.8" font-family="Times New Roman,serif" font-size="14.00">Crafting 1</text>
</g>
<!-- MortarPestle -->
<g id="node12" class="node"><title>MortarPestle</title>
<ellipse fill="none" stroke="black" cx="478.397" cy="-366" rx="57.3905" ry="18"/>
<text text-anchor="middle" x="478.397" y="-362.3" font-family="Times New Roman,serif" font-size="14.00">MortarPestle</text>
</g>
<!-- MortarPestle&#45;&gt;Pouch_Dust_Bone -->
<g id="edge8" class="edge"><title>MortarPestle&#45;&gt;Pouch_Dust_Bone</title>
<path fill="none" stroke="black" d="M442.831,-351.756C428.36,-345.829 411.708,-338.302 397.397,-330 387.786,-324.424 387.267,-320.102 377.397,-315 362.629,-307.366 345.876,-300.985 330.011,-295.852"/>
<polygon fill="black" stroke="black" points="330.862,-292.451 320.274,-292.817 328.779,-299.134 330.862,-292.451"/>
<text text-anchor="middle" x="425.397" y="-318.8" font-family="Times New Roman,serif" font-size="14.00">Crafting 0</text>
</g>
<!-- MortarPestle&#45;&gt;Pouch_Dust_Star -->
<g id="edge9" class="edge"><title>MortarPestle&#45;&gt;Pouch_Dust_Star</title>
<path fill="none" stroke="black" d="M470.909,-347.799C465.744,-335.932 458.777,-319.928 452.91,-306.449"/>
<polygon fill="black" stroke="black" points="456.074,-304.947 448.873,-297.175 449.655,-307.741 456.074,-304.947"/>
<text text-anchor="middle" x="489.397" y="-318.8" font-family="Times New Roman,serif" font-size="14.00">Crafting 0</text>
</g>
<!-- MortarPestle&#45;&gt;Pouch_Dust_Moon -->
<g id="edge10" class="edge"><title>MortarPestle&#45;&gt;Pouch_Dust_Moon</title>
<path fill="none" stroke="black" d="M503.426,-349.804C525.561,-336.365 558.1,-316.609 582.917,-301.541"/>
<polygon fill="black" stroke="black" points="584.946,-304.404 591.678,-296.222 581.313,-298.42 584.946,-304.404"/>
<text text-anchor="middle" x="584.397" y="-318.8" font-family="Times New Roman,serif" font-size="14.00">Crafting 0</text>
</g>
<!-- Pouch_Dust_Moon&#45;&gt;Pouch_Dust_Pixie -->
<g id="edge15" class="edge"><title>Pouch_Dust_Moon&#45;&gt;Pouch_Dust_Pixie</title>
<path fill="none" stroke="black" d="M573.911,-263.677C528.131,-248.937 456.79,-225.968 407.944,-210.241"/>
<polygon fill="black" stroke="black" points="408.776,-206.832 398.185,-207.098 406.631,-213.495 408.776,-206.832"/>
<text text-anchor="middle" x="529.397" y="-231.8" font-family="Times New Roman,serif" font-size="14.00">Crafting 0</text>
</g>
</g>
</svg>
