<?xml version="1.0" encoding="UTF-8" standalone="no"?>
<!DOCTYPE svg PUBLIC "-//W3C//DTD SVG 1.1//EN"
 "http://www.w3.org/Graphics/SVG/1.1/DTD/svg11.dtd">
<!-- Generated by graphviz version 2.38.0 (20140413.2041)
 -->
<!-- Title: G Pages: 1 -->
<svg width="573pt" height="218pt"
 viewBox="0.00 0.00 572.65 218.00" xmlns="http://www.w3.org/2000/svg" xmlns:xlink="http://www.w3.org/1999/xlink">
<g id="graph0" class="graph" transform="scale(1 1) rotate(0) translate(4 214)">
<title>G</title>
<polygon fill="white" stroke="none" points="-4,4 -4,-214 568.646,-214 568.646,4 -4,4"/>
<!-- Tomato -->
<g id="node1" class="node"><title>Tomato</title>
<ellipse fill="none" stroke="black" cx="39.6465" cy="-192" rx="39.7935" ry="18"/>
<text text-anchor="middle" x="39.6465" y="-188.3" font-family="Times New Roman,serif" font-size="14.00">Tomato</text>
</g>
<!-- Tomato_Sauce -->
<g id="node3" class="node"><title>Tomato_Sauce</title>
<ellipse fill="none" stroke="black" cx="138.646" cy="-105" rx="66.0889" ry="18"/>
<text text-anchor="middle" x="138.646" y="-101.3" font-family="Times New Roman,serif" font-size="14.00">Tomato_Sauce</text>
</g>
<!-- Tomato&#45;&gt;Tomato_Sauce -->
<g id="edge1" class="edge"><title>Tomato&#45;&gt;Tomato_Sauce</title>
<path fill="none" stroke="black" d="M50.2082,-174.371C57.3738,-163.952 67.5386,-150.707 78.6465,-141 84.7758,-135.643 91.8442,-130.678 98.9304,-126.271"/>
<polygon fill="black" stroke="black" points="101.02,-129.101 107.846,-120.998 97.4572,-123.076 101.02,-129.101"/>
<text text-anchor="middle" x="106.646" y="-144.8" font-family="Times New Roman,serif" font-size="14.00">Crafting 0</text>
</g>
<!-- Meat_Raw -->
<g id="node2" class="node"><title>Meat_Raw</title>
<ellipse fill="none" stroke="black" cx="442.646" cy="-192" rx="50.0912" ry="18"/>
<text text-anchor="middle" x="442.646" y="-188.3" font-family="Times New Roman,serif" font-size="14.00">Meat_Raw</text>
</g>
<!-- Dinner -->
<g id="node5" class="node"><title>Dinner</title>
<ellipse fill="none" stroke="black" cx="343.646" cy="-105" rx="34.394" ry="18"/>
<text text-anchor="middle" x="343.646" y="-101.3" font-family="Times New Roman,serif" font-size="14.00">Dinner</text>
</g>
<!-- Meat_Raw&#45;&gt;Dinner -->
<g id="edge2" class="edge"><title>Meat_Raw&#45;&gt;Dinner</title>
<path fill="none" stroke="black" d="M432.085,-174.371C424.919,-163.952 414.754,-150.707 403.646,-141 395.746,-134.096 386.286,-127.842 377.239,-122.594"/>
<polygon fill="black" stroke="black" points="378.845,-119.483 368.402,-117.695 375.451,-125.605 378.845,-119.483"/>
<text text-anchor="middle" x="446.646" y="-144.8" font-family="Times New Roman,serif" font-size="14.00">Crafting 0</text>
</g>
<!-- Stew_Elven -->
<g id="node8" class="node"><title>Stew_Elven</title>
<ellipse fill="none" stroke="black" cx="256.646" cy="-18" rx="53.8905" ry="18"/>
<text text-anchor="middle" x="256.646" y="-14.3" font-family="Times New Roman,serif" font-size="14.00">Stew_Elven</text>
</g>
<!-- Tomato_Sauce&#45;&gt;Stew_Elven -->
<g id="edge3" class="edge"><title>Tomato_Sauce&#45;&gt;Stew_Elven</title>
<path fill="none" stroke="black" d="M160.841,-88.0122C179.418,-74.6309 206.099,-55.4115 226.589,-40.6516"/>
<polygon fill="black" stroke="black" points="228.881,-43.3138 234.95,-34.629 224.79,-37.634 228.881,-43.3138"/>
<text text-anchor="middle" x="233.646" y="-57.8" font-family="Times New Roman,serif" font-size="14.00">Crafting 0</text>
</g>
<!-- Fish -->
<g id="node4" class="node"><title>Fish</title>
<ellipse fill="none" stroke="black" cx="537.646" cy="-192" rx="27" ry="18"/>
<text text-anchor="middle" x="537.646" y="-188.3" font-family="Times New Roman,serif" font-size="14.00">Fish</text>
</g>
<!-- Fish&#45;&gt;Dinner -->
<g id="edge4" class="edge"><title>Fish&#45;&gt;Dinner</title>
<path fill="none" stroke="black" d="M523.967,-176.237C512.792,-165.017 496.049,-150.023 478.646,-141 449.866,-126.077 414.262,-117.19 386.844,-112.107"/>
<polygon fill="black" stroke="black" points="387.223,-108.62 376.768,-110.34 386.014,-115.515 387.223,-108.62"/>
<text text-anchor="middle" x="527.646" y="-144.8" font-family="Times New Roman,serif" font-size="14.00">Crafting 0</text>
</g>
<!-- Dinner&#45;&gt;Stew_Elven -->
<g id="edge5" class="edge"><title>Dinner&#45;&gt;Stew_Elven</title>
<path fill="none" stroke="black" d="M328.093,-88.8037C314.941,-75.9539 295.878,-57.3295 280.75,-42.5498"/>
<polygon fill="black" stroke="black" points="282.849,-39.7073 273.251,-35.2224 277.957,-44.7143 282.849,-39.7073"/>
<text text-anchor="middle" x="333.646" y="-57.8" font-family="Times New Roman,serif" font-size="14.00">Crafting 0</text>
</g>
<!-- BoilingPot -->
<g id="node6" class="node"><title>BoilingPot</title>
<ellipse fill="none" stroke="black" cx="246.646" cy="-192" rx="48.9926" ry="18"/>
<text text-anchor="middle" x="246.646" y="-188.3" font-family="Times New Roman,serif" font-size="14.00">BoilingPot</text>
</g>
<!-- BoilingPot&#45;&gt;Dinner -->
<g id="edge6" class="edge"><title>BoilingPot&#45;&gt;Dinner</title>
<path fill="none" stroke="black" d="M256.506,-174.338C263.24,-163.906 272.872,-150.66 283.646,-141 291.458,-133.996 300.89,-127.711 309.939,-122.464"/>
<polygon fill="black" stroke="black" points="311.726,-125.475 318.785,-117.575 308.34,-119.349 311.726,-125.475"/>
<text text-anchor="middle" x="311.646" y="-144.8" font-family="Times New Roman,serif" font-size="14.00">Crafting 0</text>
</g>
<!-- Oven -->
<g id="node7" class="node"><title>Oven</title>
<ellipse fill="none" stroke="black" cx="343.646" cy="-192" rx="30.5947" ry="18"/>
<text text-anchor="middle" x="343.646" y="-188.3" font-family="Times New Roman,serif" font-size="14.00">Oven</text>
</g>
<!-- Oven&#45;&gt;Dinner -->
<g id="edge7" class="edge"><title>Oven&#45;&gt;Dinner</title>
<path fill="none" stroke="black" d="M343.646,-173.799C343.646,-162.163 343.646,-146.548 343.646,-133.237"/>
<polygon fill="black" stroke="black" points="347.147,-133.175 343.646,-123.175 340.147,-133.175 347.147,-133.175"/>
<text text-anchor="middle" x="371.646" y="-144.8" font-family="Times New Roman,serif" font-size="14.00">Crafting 0</text>
</g>
<!-- Hammer -->
<g id="node9" class="node"><title>Hammer</title>
<ellipse fill="none" stroke="black" cx="138.646" cy="-192" rx="41.6928" ry="18"/>
<text text-anchor="middle" x="138.646" y="-188.3" font-family="Times New Roman,serif" font-size="14.00">Hammer</text>
</g>
<!-- Hammer&#45;&gt;Tomato_Sauce -->
<g id="edge8" class="edge"><title>Hammer&#45;&gt;Tomato_Sauce</title>
<path fill="none" stroke="black" d="M138.646,-173.799C138.646,-162.163 138.646,-146.548 138.646,-133.237"/>
<polygon fill="black" stroke="black" points="142.147,-133.175 138.646,-123.175 135.147,-133.175 142.147,-133.175"/>
<text text-anchor="middle" x="166.646" y="-144.8" font-family="Times New Roman,serif" font-size="14.00">Crafting 0</text>
</g>
</g>
</svg>
