<?xml version="1.0" encoding="UTF-8" standalone="no"?>
<!DOCTYPE svg PUBLIC "-//W3C//DTD SVG 1.1//EN"
 "http://www.w3.org/Graphics/SVG/1.1/DTD/svg11.dtd">
<!-- Generated by graphviz version 2.38.0 (20140413.2041)
 -->
<!-- Title: G Pages: 1 -->
<svg width="679pt" height="392pt"
 viewBox="0.00 0.00 678.99 392.00" xmlns="http://www.w3.org/2000/svg" xmlns:xlink="http://www.w3.org/1999/xlink">
<g id="graph0" class="graph" transform="scale(1 1) rotate(0) translate(4 388)">
<title>G</title>
<polygon fill="white" stroke="none" points="-4,4 -4,-388 674.99,-388 674.99,4 -4,4"/>
<!-- Pouch_Dust_Pixie -->
<g id="node1" class="node"><title>Pouch_Dust_Pixie</title>
<ellipse fill="none" stroke="black" cx="326.994" cy="-192" rx="78.7863" ry="18"/>
<text text-anchor="middle" x="326.994" y="-188.3" font-family="Times New Roman,serif" font-size="14.00">Pouch_Dust_Pixie</text>
</g>
<!-- Tooth_A_Magic -->
<g id="node10" class="node"><title>Tooth_A_Magic</title>
<ellipse fill="none" stroke="black" cx="190.994" cy="-105" rx="71.4873" ry="18"/>
<text text-anchor="middle" x="190.994" y="-101.3" font-family="Times New Roman,serif" font-size="14.00">Tooth_A_Magic</text>
</g>
<!-- Pouch_Dust_Pixie&#45;&gt;Tooth_A_Magic -->
<g id="edge1" class="edge"><title>Pouch_Dust_Pixie&#45;&gt;Tooth_A_Magic</title>
<path fill="none" stroke="black" d="M302.907,-174.677C288.068,-164.74 268.579,-151.902 250.994,-141 243.398,-136.291 235.172,-131.375 227.317,-126.767"/>
<polygon fill="black" stroke="black" points="229.062,-123.733 218.66,-121.722 225.538,-129.781 229.062,-123.733"/>
<text text-anchor="middle" x="302.994" y="-144.8" font-family="Times New Roman,serif" font-size="14.00">Crafting 2</text>
</g>
<!-- Pouch_Dust_Bone -->
<g id="node2" class="node"><title>Pouch_Dust_Bone</title>
<ellipse fill="none" stroke="black" cx="180.994" cy="-279" rx="79.8859" ry="18"/>
<text text-anchor="middle" x="180.994" y="-275.3" font-family="Times New Roman,serif" font-size="14.00">Pouch_Dust_Bone</text>
</g>
<!-- Pouch_Dust_Bone&#45;&gt;Pouch_Dust_Pixie -->
<g id="edge3" class="edge"><title>Pouch_Dust_Bone&#45;&gt;Pouch_Dust_Pixie</title>
<path fill="none" stroke="black" d="M208.456,-262.012C231.805,-248.418 265.504,-228.799 291.007,-213.951"/>
<polygon fill="black" stroke="black" points="292.775,-216.972 299.656,-208.916 289.253,-210.923 292.775,-216.972"/>
<text text-anchor="middle" x="290.994" y="-231.8" font-family="Times New Roman,serif" font-size="14.00">Crafting 0</text>
</g>
<!-- Tooth_MagicBelt -->
<g id="node3" class="node"><title>Tooth_MagicBelt</title>
<ellipse fill="none" stroke="black" cx="134.994" cy="-18" rx="74.9875" ry="18"/>
<text text-anchor="middle" x="134.994" y="-14.3" font-family="Times New Roman,serif" font-size="14.00">Tooth_MagicBelt</text>
</g>
<!-- Tooth -->
<g id="node4" class="node"><title>Tooth</title>
<ellipse fill="none" stroke="black" cx="190.994" cy="-192" rx="33.2948" ry="18"/>
<text text-anchor="middle" x="190.994" y="-188.3" font-family="Times New Roman,serif" font-size="14.00">Tooth</text>
</g>
<!-- Tooth&#45;&gt;Tooth_A_Magic -->
<g id="edge4" class="edge"><title>Tooth&#45;&gt;Tooth_A_Magic</title>
<path fill="none" stroke="black" d="M190.994,-173.799C190.994,-162.163 190.994,-146.548 190.994,-133.237"/>
<polygon fill="black" stroke="black" points="194.494,-133.175 190.994,-123.175 187.494,-133.175 194.494,-133.175"/>
<text text-anchor="middle" x="218.994" y="-144.8" font-family="Times New Roman,serif" font-size="14.00">Crafting 2</text>
</g>
<!-- Rope -->
<g id="node5" class="node"><title>Rope</title>
<ellipse fill="none" stroke="black" cx="69.9942" cy="-105" rx="30.5947" ry="18"/>
<text text-anchor="middle" x="69.9942" y="-101.3" font-family="Times New Roman,serif" font-size="14.00">Rope</text>
</g>
<!-- Rope&#45;&gt;Tooth_MagicBelt -->
<g id="edge5" class="edge"><title>Rope&#45;&gt;Tooth_MagicBelt</title>
<path fill="none" stroke="black" d="M78.5032,-87.5849C84.0516,-77.4968 91.7707,-64.5325 99.9942,-54 102.868,-50.3191 106.099,-46.6238 109.406,-43.0861"/>
<polygon fill="black" stroke="black" points="112.175,-45.2598 116.658,-35.6598 107.167,-40.3693 112.175,-45.2598"/>
<text text-anchor="middle" x="127.994" y="-57.8" font-family="Times New Roman,serif" font-size="14.00">Crafting 2</text>
</g>
<!-- Moonstone -->
<g id="node6" class="node"><title>Moonstone</title>
<ellipse fill="none" stroke="black" cx="618.994" cy="-366" rx="51.9908" ry="18"/>
<text text-anchor="middle" x="618.994" y="-362.3" font-family="Times New Roman,serif" font-size="14.00">Moonstone</text>
</g>
<!-- Pouch_Dust_Moon -->
<g id="node15" class="node"><title>Pouch_Dust_Moon</title>
<ellipse fill="none" stroke="black" cx="539.994" cy="-279" rx="83.3857" ry="18"/>
<text text-anchor="middle" x="539.994" y="-275.3" font-family="Times New Roman,serif" font-size="14.00">Pouch_Dust_Moon</text>
</g>
<!-- Moonstone&#45;&gt;Pouch_Dust_Moon -->
<g id="edge6" class="edge"><title>Moonstone&#45;&gt;Pouch_Dust_Moon</title>
<path fill="none" stroke="black" d="M614.302,-347.811C610.815,-337.432 605.223,-324.434 596.994,-315 592.532,-309.885 587.136,-305.281 581.465,-301.221"/>
<polygon fill="black" stroke="black" points="583.312,-298.247 573.036,-295.667 579.46,-304.092 583.312,-298.247"/>
<text text-anchor="middle" x="633.994" y="-318.8" font-family="Times New Roman,serif" font-size="14.00">Crafting 0</text>
</g>
<!-- Pouch_Dust_Star -->
<g id="node7" class="node"><title>Pouch_Dust_Star</title>
<ellipse fill="none" stroke="black" cx="353.994" cy="-279" rx="75.2868" ry="18"/>
<text text-anchor="middle" x="353.994" y="-275.3" font-family="Times New Roman,serif" font-size="14.00">Pouch_Dust_Star</text>
</g>
<!-- Pouch_Dust_Star&#45;&gt;Pouch_Dust_Pixie -->
<g id="edge7" class="edge"><title>Pouch_Dust_Star&#45;&gt;Pouch_Dust_Pixie</title>
<path fill="none" stroke="black" d="M348.53,-260.799C344.798,-249.047 339.776,-233.238 335.521,-219.842"/>
<polygon fill="black" stroke="black" points="338.813,-218.647 332.45,-210.175 332.142,-220.766 338.813,-218.647"/>
<text text-anchor="middle" x="370.994" y="-231.8" font-family="Times New Roman,serif" font-size="14.00">Crafting 0</text>
</g>
<!-- Bone -->
<g id="node8" class="node"><title>Bone</title>
<ellipse fill="none" stroke="black" cx="63.9942" cy="-366" rx="29.795" ry="18"/>
<text text-anchor="middle" x="63.9942" y="-362.3" font-family="Times New Roman,serif" font-size="14.00">Bone</text>
</g>
<!-- Bone&#45;&gt;Pouch_Dust_Bone -->
<g id="edge15" class="edge"><title>Bone&#45;&gt;Pouch_Dust_Bone</title>
<path fill="none" stroke="black" d="M77.621,-349.867C87.6017,-339.313 101.825,-325.328 115.994,-315 123.218,-309.734 131.331,-304.74 139.312,-300.259"/>
<polygon fill="black" stroke="black" points="141.091,-303.277 148.213,-295.433 137.753,-297.123 141.091,-303.277"/>
<text text-anchor="middle" x="143.994" y="-318.8" font-family="Times New Roman,serif" font-size="14.00">Crafting 0</text>
</g>
<!-- Skull_Human -->
<g id="node9" class="node"><title>Skull_Human</title>
<ellipse fill="none" stroke="black" cx="171.994" cy="-366" rx="59.5901" ry="18"/>
<text text-anchor="middle" x="171.994" y="-362.3" font-family="Times New Roman,serif" font-size="14.00">Skull_Human</text>
</g>
<!-- Skull_Human&#45;&gt;Pouch_Dust_Bone -->
<g id="edge14" class="edge"><title>Skull_Human&#45;&gt;Pouch_Dust_Bone</title>
<path fill="none" stroke="black" d="M173.816,-347.799C175.048,-336.163 176.701,-320.548 178.11,-307.237"/>
<polygon fill="black" stroke="black" points="181.603,-307.488 179.176,-297.175 174.642,-306.751 181.603,-307.488"/>
<text text-anchor="middle" x="205.994" y="-318.8" font-family="Times New Roman,serif" font-size="14.00">Crafting 0</text>
</g>
<!-- Tooth_A_Magic&#45;&gt;Tooth_MagicBelt -->
<g id="edge11" class="edge"><title>Tooth_A_Magic&#45;&gt;Tooth_MagicBelt</title>
<path fill="none" stroke="black" d="M179.93,-87.2067C171.929,-75.0621 160.973,-58.4315 151.882,-44.6326"/>
<polygon fill="black" stroke="black" points="154.651,-42.4744 146.227,-36.0493 148.806,-46.3255 154.651,-42.4744"/>
<text text-anchor="middle" x="194.994" y="-57.8" font-family="Times New Roman,serif" font-size="14.00">Crafting 2</text>
</g>
<!-- Herb_Stardust -->
<g id="node11" class="node"><title>Herb_Stardust</title>
<ellipse fill="none" stroke="black" cx="312.994" cy="-366" rx="63.8893" ry="18"/>
<text text-anchor="middle" x="312.994" y="-362.3" font-family="Times New Roman,serif" font-size="14.00">Herb_Stardust</text>
</g>
<!-- Herb_Stardust&#45;&gt;Pouch_Dust_Star -->
<g id="edge12" class="edge"><title>Herb_Stardust&#45;&gt;Pouch_Dust_Star</title>
<path fill="none" stroke="black" d="M304.751,-347.977C301.103,-337.905 298.699,-325.17 303.994,-315 306.563,-310.066 310.181,-305.683 314.31,-301.834"/>
<polygon fill="black" stroke="black" points="316.6,-304.484 322.178,-295.477 312.2,-299.039 316.6,-304.484"/>
<text text-anchor="middle" x="331.994" y="-318.8" font-family="Times New Roman,serif" font-size="14.00">Crafting 0</text>
</g>
<!-- Wool -->
<g id="node12" class="node"><title>Wool</title>
<ellipse fill="none" stroke="black" cx="51.9942" cy="-279" rx="31.3957" ry="18"/>
<text text-anchor="middle" x="51.9942" y="-275.3" font-family="Times New Roman,serif" font-size="14.00">Wool</text>
</g>
<!-- Yarn_A_Wool -->
<g id="node13" class="node"><title>Yarn_A_Wool</title>
<ellipse fill="none" stroke="black" cx="64.9942" cy="-192" rx="64.9885" ry="18"/>
<text text-anchor="middle" x="64.9942" y="-188.3" font-family="Times New Roman,serif" font-size="14.00">Yarn_A_Wool</text>
</g>
<!-- Wool&#45;&gt;Yarn_A_Wool -->
<g id="edge13" class="edge"><title>Wool&#45;&gt;Yarn_A_Wool</title>
<path fill="none" stroke="black" d="M54.625,-260.799C56.4047,-249.163 58.7928,-233.548 60.8286,-220.237"/>
<polygon fill="black" stroke="black" points="64.3153,-220.59 62.3674,-210.175 57.3957,-219.531 64.3153,-220.59"/>
<text text-anchor="middle" x="87.9942" y="-231.8" font-family="Times New Roman,serif" font-size="14.00">Crafting 0</text>
</g>
<!-- Yarn_A_Wool&#45;&gt;Rope -->
<g id="edge16" class="edge"><title>Yarn_A_Wool&#45;&gt;Rope</title>
<path fill="none" stroke="black" d="M66.0061,-173.799C66.6906,-162.163 67.6091,-146.548 68.3921,-133.237"/>
<polygon fill="black" stroke="black" points="71.8906,-133.364 68.9839,-123.175 64.9026,-132.953 71.8906,-133.364"/>
<text text-anchor="middle" x="95.9942" y="-144.8" font-family="Times New Roman,serif" font-size="14.00">Crafting 0</text>
</g>
<!-- MortarPestle -->
<g id="node14" class="node"><title>MortarPestle</title>
<ellipse fill="none" stroke="black" cx="460.994" cy="-366" rx="57.3905" ry="18"/>
<text text-anchor="middle" x="460.994" y="-362.3" font-family="Times New Roman,serif" font-size="14.00">MortarPestle</text>
</g>
<!-- MortarPestle&#45;&gt;Pouch_Dust_Bone -->
<g id="edge8" class="edge"><title>MortarPestle&#45;&gt;Pouch_Dust_Bone</title>
<path fill="none" stroke="black" d="M424.875,-351.99C410.208,-346.098 393.368,-338.535 378.994,-330 369.743,-324.507 369.771,-319.492 359.994,-315 358.671,-314.392 299.697,-302.913 249.803,-293.265"/>
<polygon fill="black" stroke="black" points="250.448,-289.825 239.965,-291.363 249.119,-296.698 250.448,-289.825"/>
<text text-anchor="middle" x="406.994" y="-318.8" font-family="Times New Roman,serif" font-size="14.00">Crafting 0</text>
</g>
<!-- MortarPestle&#45;&gt;Pouch_Dust_Star -->
<g id="edge9" class="edge"><title>MortarPestle&#45;&gt;Pouch_Dust_Star</title>
<path fill="none" stroke="black" d="M456.962,-347.805C453.688,-337.161 448.087,-323.878 438.994,-315 431.379,-307.565 421.964,-301.628 412.202,-296.914"/>
<polygon fill="black" stroke="black" points="413.347,-293.594 402.785,-292.76 410.522,-299.998 413.347,-293.594"/>
<text text-anchor="middle" x="477.994" y="-318.8" font-family="Times New Roman,serif" font-size="14.00">Crafting 0</text>
</g>
<!-- MortarPestle&#45;&gt;Pouch_Dust_Moon -->
<g id="edge10" class="edge"><title>MortarPestle&#45;&gt;Pouch_Dust_Moon</title>
<path fill="none" stroke="black" d="M491.667,-350.747C501.023,-345.276 510.742,-338.313 517.994,-330 523.845,-323.293 528.362,-314.785 531.738,-306.697"/>
<polygon fill="black" stroke="black" points="535.069,-307.781 535.302,-297.189 528.514,-305.324 535.069,-307.781"/>
<text text-anchor="middle" x="554.994" y="-318.8" font-family="Times New Roman,serif" font-size="14.00">Crafting 0</text>
</g>
<!-- Pouch_Dust_Moon&#45;&gt;Pouch_Dust_Pixie -->
<g id="edge2" class="edge"><title>Pouch_Dust_Moon&#45;&gt;Pouch_Dust_Pixie</title>
<path fill="none" stroke="black" d="M501.914,-262.804C466.063,-248.497 412.272,-227.031 373.814,-211.684"/>
<polygon fill="black" stroke="black" points="374.972,-208.378 364.387,-207.922 372.378,-214.879 374.972,-208.378"/>
<text text-anchor="middle" x="474.994" y="-231.8" font-family="Times New Roman,serif" font-size="14.00">Crafting 0</text>
</g>
</g>
</svg>
