<?xml version="1.0" encoding="UTF-8" standalone="no"?>
<!DOCTYPE svg PUBLIC "-//W3C//DTD SVG 1.1//EN"
 "http://www.w3.org/Graphics/SVG/1.1/DTD/svg11.dtd">
<!-- Generated by graphviz version 2.38.0 (20140413.2041)
 -->
<!-- Title: G Pages: 1 -->
<svg width="678pt" height="392pt"
 viewBox="0.00 0.00 677.79 392.00" xmlns="http://www.w3.org/2000/svg" xmlns:xlink="http://www.w3.org/1999/xlink">
<g id="graph0" class="graph" transform="scale(1 1) rotate(0) translate(4 388)">
<title>G</title>
<polygon fill="white" stroke="none" points="-4,4 -4,-388 673.79,-388 673.79,4 -4,4"/>
<!-- Pouch_Dust_Pixie -->
<g id="node1" class="node"><title>Pouch_Dust_Pixie</title>
<ellipse fill="none" stroke="black" cx="340.795" cy="-192" rx="78.7863" ry="18"/>
<text text-anchor="middle" x="340.795" y="-188.3" font-family="Times New Roman,serif" font-size="14.00">Pouch_Dust_Pixie</text>
</g>
<!-- Tooth_A_Magic -->
<g id="node10" class="node"><title>Tooth_A_Magic</title>
<ellipse fill="none" stroke="black" cx="234.795" cy="-105" rx="71.4873" ry="18"/>
<text text-anchor="middle" x="234.795" y="-101.3" font-family="Times New Roman,serif" font-size="14.00">Tooth_A_Magic</text>
</g>
<!-- Pouch_Dust_Pixie&#45;&gt;Tooth_A_Magic -->
<g id="edge1" class="edge"><title>Pouch_Dust_Pixie&#45;&gt;Tooth_A_Magic</title>
<path fill="none" stroke="black" d="M323.104,-174.231C312.311,-164.248 298.078,-151.519 284.795,-141 279.269,-136.624 273.24,-132.16 267.341,-127.948"/>
<polygon fill="black" stroke="black" points="269.062,-124.879 258.866,-121.997 265.039,-130.608 269.062,-124.879"/>
<text text-anchor="middle" x="329.795" y="-144.8" font-family="Times New Roman,serif" font-size="14.00">Crafting 2</text>
</g>
<!-- Thread -->
<g id="node2" class="node"><title>Thread</title>
<ellipse fill="none" stroke="black" cx="108.795" cy="-105" rx="36.2938" ry="18"/>
<text text-anchor="middle" x="108.795" y="-101.3" font-family="Times New Roman,serif" font-size="14.00">Thread</text>
</g>
<!-- Tooth_MagicAmulet -->
<g id="node3" class="node"><title>Tooth_MagicAmulet</title>
<ellipse fill="none" stroke="black" cx="176.795" cy="-18" rx="86.3847" ry="18"/>
<text text-anchor="middle" x="176.795" y="-14.3" font-family="Times New Roman,serif" font-size="14.00">Tooth_MagicAmulet</text>
</g>
<!-- Thread&#45;&gt;Tooth_MagicAmulet -->
<g id="edge2" class="edge"><title>Thread&#45;&gt;Tooth_MagicAmulet</title>
<path fill="none" stroke="black" d="M119.129,-87.2723C125.538,-77.3049 134.171,-64.5764 142.795,-54 145.704,-50.432 148.91,-46.8017 152.156,-43.2962"/>
<polygon fill="black" stroke="black" points="154.85,-45.5432 159.226,-35.8943 149.788,-40.7083 154.85,-45.5432"/>
<text text-anchor="middle" x="170.795" y="-57.8" font-family="Times New Roman,serif" font-size="14.00">Crafting 2</text>
</g>
<!-- Pouch_Dust_Bone -->
<g id="node4" class="node"><title>Pouch_Dust_Bone</title>
<ellipse fill="none" stroke="black" cx="167.795" cy="-279" rx="79.8859" ry="18"/>
<text text-anchor="middle" x="167.795" y="-275.3" font-family="Times New Roman,serif" font-size="14.00">Pouch_Dust_Bone</text>
</g>
<!-- Pouch_Dust_Bone&#45;&gt;Pouch_Dust_Pixie -->
<g id="edge3" class="edge"><title>Pouch_Dust_Bone&#45;&gt;Pouch_Dust_Pixie</title>
<path fill="none" stroke="black" d="M199.526,-262.41C227.814,-248.511 269.378,-228.089 300.104,-212.993"/>
<polygon fill="black" stroke="black" points="301.833,-216.043 309.265,-208.491 298.746,-209.76 301.833,-216.043"/>
<text text-anchor="middle" x="291.795" y="-231.8" font-family="Times New Roman,serif" font-size="14.00">Crafting 0</text>
</g>
<!-- Tooth -->
<g id="node5" class="node"><title>Tooth</title>
<ellipse fill="none" stroke="black" cx="210.795" cy="-192" rx="33.2948" ry="18"/>
<text text-anchor="middle" x="210.795" y="-188.3" font-family="Times New Roman,serif" font-size="14.00">Tooth</text>
</g>
<!-- Tooth&#45;&gt;Tooth_A_Magic -->
<g id="edge4" class="edge"><title>Tooth&#45;&gt;Tooth_A_Magic</title>
<path fill="none" stroke="black" d="M215.651,-173.799C218.97,-162.047 223.433,-146.238 227.216,-132.842"/>
<polygon fill="black" stroke="black" points="230.596,-133.75 229.945,-123.175 223.859,-131.848 230.596,-133.75"/>
<text text-anchor="middle" x="252.795" y="-144.8" font-family="Times New Roman,serif" font-size="14.00">Crafting 2</text>
</g>
<!-- Hair -->
<g id="node6" class="node"><title>Hair</title>
<ellipse fill="none" stroke="black" cx="108.795" cy="-192" rx="27" ry="18"/>
<text text-anchor="middle" x="108.795" y="-188.3" font-family="Times New Roman,serif" font-size="14.00">Hair</text>
</g>
<!-- Hair&#45;&gt;Thread -->
<g id="edge5" class="edge"><title>Hair&#45;&gt;Thread</title>
<path fill="none" stroke="black" d="M108.795,-173.799C108.795,-162.163 108.795,-146.548 108.795,-133.237"/>
<polygon fill="black" stroke="black" points="112.295,-133.175 108.795,-123.175 105.295,-133.175 112.295,-133.175"/>
<text text-anchor="middle" x="136.795" y="-144.8" font-family="Times New Roman,serif" font-size="14.00">Crafting 0</text>
</g>
<!-- Moonstone -->
<g id="node7" class="node"><title>Moonstone</title>
<ellipse fill="none" stroke="black" cx="617.795" cy="-366" rx="51.9908" ry="18"/>
<text text-anchor="middle" x="617.795" y="-362.3" font-family="Times New Roman,serif" font-size="14.00">Moonstone</text>
</g>
<!-- Pouch_Dust_Moon -->
<g id="node14" class="node"><title>Pouch_Dust_Moon</title>
<ellipse fill="none" stroke="black" cx="517.795" cy="-279" rx="83.3857" ry="18"/>
<text text-anchor="middle" x="517.795" y="-275.3" font-family="Times New Roman,serif" font-size="14.00">Pouch_Dust_Moon</text>
</g>
<!-- Moonstone&#45;&gt;Pouch_Dust_Moon -->
<g id="edge6" class="edge"><title>Moonstone&#45;&gt;Pouch_Dust_Moon</title>
<path fill="none" stroke="black" d="M598.985,-349.012C583.913,-336.2 562.544,-318.037 545.512,-303.56"/>
<polygon fill="black" stroke="black" points="547.432,-300.598 537.546,-296.789 542.899,-305.932 547.432,-300.598"/>
<text text-anchor="middle" x="600.795" y="-318.8" font-family="Times New Roman,serif" font-size="14.00">Crafting 0</text>
</g>
<!-- Pouch_Dust_Star -->
<g id="node8" class="node"><title>Pouch_Dust_Star</title>
<ellipse fill="none" stroke="black" cx="340.795" cy="-279" rx="75.2868" ry="18"/>
<text text-anchor="middle" x="340.795" y="-275.3" font-family="Times New Roman,serif" font-size="14.00">Pouch_Dust_Star</text>
</g>
<!-- Pouch_Dust_Star&#45;&gt;Pouch_Dust_Pixie -->
<g id="edge7" class="edge"><title>Pouch_Dust_Star&#45;&gt;Pouch_Dust_Pixie</title>
<path fill="none" stroke="black" d="M340.795,-260.799C340.795,-249.163 340.795,-233.548 340.795,-220.237"/>
<polygon fill="black" stroke="black" points="344.295,-220.175 340.795,-210.175 337.295,-220.175 344.295,-220.175"/>
<text text-anchor="middle" x="368.795" y="-231.8" font-family="Times New Roman,serif" font-size="14.00">Crafting 0</text>
</g>
<!-- Bone -->
<g id="node9" class="node"><title>Bone</title>
<ellipse fill="none" stroke="black" cx="167.795" cy="-366" rx="29.795" ry="18"/>
<text text-anchor="middle" x="167.795" y="-362.3" font-family="Times New Roman,serif" font-size="14.00">Bone</text>
</g>
<!-- Bone&#45;&gt;Pouch_Dust_Bone -->
<g id="edge14" class="edge"><title>Bone&#45;&gt;Pouch_Dust_Bone</title>
<path fill="none" stroke="black" d="M167.795,-347.799C167.795,-336.163 167.795,-320.548 167.795,-307.237"/>
<polygon fill="black" stroke="black" points="171.295,-307.175 167.795,-297.175 164.295,-307.175 171.295,-307.175"/>
<text text-anchor="middle" x="195.795" y="-318.8" font-family="Times New Roman,serif" font-size="14.00">Crafting 0</text>
</g>
<!-- Tooth_A_Magic&#45;&gt;Tooth_MagicAmulet -->
<g id="edge11" class="edge"><title>Tooth_A_Magic&#45;&gt;Tooth_MagicAmulet</title>
<path fill="none" stroke="black" d="M223.336,-87.2067C215.049,-75.0621 203.701,-58.4315 194.285,-44.6326"/>
<polygon fill="black" stroke="black" points="196.956,-42.3368 188.428,-36.0493 191.174,-46.2823 196.956,-42.3368"/>
<text text-anchor="middle" x="237.795" y="-57.8" font-family="Times New Roman,serif" font-size="14.00">Crafting 2</text>
</g>
<!-- Herb_Stardust -->
<g id="node11" class="node"><title>Herb_Stardust</title>
<ellipse fill="none" stroke="black" cx="483.795" cy="-366" rx="63.8893" ry="18"/>
<text text-anchor="middle" x="483.795" y="-362.3" font-family="Times New Roman,serif" font-size="14.00">Herb_Stardust</text>
</g>
<!-- Herb_Stardust&#45;&gt;Pouch_Dust_Star -->
<g id="edge12" class="edge"><title>Herb_Stardust&#45;&gt;Pouch_Dust_Star</title>
<path fill="none" stroke="black" d="M480.222,-347.94C477.103,-337.075 471.5,-323.494 461.795,-315 452.864,-307.184 429.753,-299.703 406.093,-293.679"/>
<polygon fill="black" stroke="black" points="406.864,-290.265 396.317,-291.275 405.192,-297.062 406.864,-290.265"/>
<text text-anchor="middle" x="499.795" y="-318.8" font-family="Times New Roman,serif" font-size="14.00">Crafting 0</text>
</g>
<!-- Skull_Human -->
<g id="node12" class="node"><title>Skull_Human</title>
<ellipse fill="none" stroke="black" cx="59.7947" cy="-366" rx="59.5901" ry="18"/>
<text text-anchor="middle" x="59.7947" y="-362.3" font-family="Times New Roman,serif" font-size="14.00">Skull_Human</text>
</g>
<!-- Skull_Human&#45;&gt;Pouch_Dust_Bone -->
<g id="edge13" class="edge"><title>Skull_Human&#45;&gt;Pouch_Dust_Bone</title>
<path fill="none" stroke="black" d="M73.8858,-348.087C82.9428,-337.812 95.3145,-324.825 107.795,-315 114.124,-310.017 121.235,-305.252 128.289,-300.929"/>
<polygon fill="black" stroke="black" points="130.3,-303.807 137.131,-295.709 126.741,-297.779 130.3,-303.807"/>
<text text-anchor="middle" x="135.795" y="-318.8" font-family="Times New Roman,serif" font-size="14.00">Crafting 0</text>
</g>
<!-- MortarPestle -->
<g id="node13" class="node"><title>MortarPestle</title>
<ellipse fill="none" stroke="black" cx="325.795" cy="-366" rx="57.3905" ry="18"/>
<text text-anchor="middle" x="325.795" y="-362.3" font-family="Times New Roman,serif" font-size="14.00">MortarPestle</text>
</g>
<!-- MortarPestle&#45;&gt;Pouch_Dust_Bone -->
<g id="edge8" class="edge"><title>MortarPestle&#45;&gt;Pouch_Dust_Bone</title>
<path fill="none" stroke="black" d="M298.273,-350.194C272.744,-336.46 234.51,-315.891 206.022,-300.565"/>
<polygon fill="black" stroke="black" points="207.608,-297.444 197.143,-295.789 204.291,-303.609 207.608,-297.444"/>
<text text-anchor="middle" x="283.795" y="-318.8" font-family="Times New Roman,serif" font-size="14.00">Crafting 0</text>
</g>
<!-- MortarPestle&#45;&gt;Pouch_Dust_Star -->
<g id="edge9" class="edge"><title>MortarPestle&#45;&gt;Pouch_Dust_Star</title>
<path fill="none" stroke="black" d="M324.623,-347.708C324.342,-338.001 324.619,-325.721 326.795,-315 327.349,-312.268 328.107,-309.476 328.984,-306.721"/>
<polygon fill="black" stroke="black" points="332.368,-307.659 332.541,-297.066 325.8,-305.239 332.368,-307.659"/>
<text text-anchor="middle" x="354.795" y="-318.8" font-family="Times New Roman,serif" font-size="14.00">Crafting 0</text>
</g>
<!-- MortarPestle&#45;&gt;Pouch_Dust_Moon -->
<g id="edge10" class="edge"><title>MortarPestle&#45;&gt;Pouch_Dust_Moon</title>
<path fill="none" stroke="black" d="M351.743,-349.948C361.628,-343.986 372.892,-336.913 382.795,-330 391.616,-323.841 392.255,-319.975 401.795,-315 417.309,-306.91 434.987,-300.382 451.785,-295.256"/>
<polygon fill="black" stroke="black" points="452.937,-298.566 461.551,-292.398 450.971,-291.847 452.937,-298.566"/>
<text text-anchor="middle" x="429.795" y="-318.8" font-family="Times New Roman,serif" font-size="14.00">Crafting 0</text>
</g>
<!-- Pouch_Dust_Moon&#45;&gt;Pouch_Dust_Pixie -->
<g id="edge15" class="edge"><title>Pouch_Dust_Moon&#45;&gt;Pouch_Dust_Pixie</title>
<path fill="none" stroke="black" d="M485.33,-262.41C456.388,-248.511 413.862,-228.089 382.426,-212.993"/>
<polygon fill="black" stroke="black" points="383.583,-209.665 373.053,-208.491 380.553,-215.976 383.583,-209.665"/>
<text text-anchor="middle" x="467.795" y="-231.8" font-family="Times New Roman,serif" font-size="14.00">Crafting 0</text>
</g>
</g>
</svg>
