<?xml version="1.0" encoding="UTF-8" standalone="no"?>
<!DOCTYPE svg PUBLIC "-//W3C//DTD SVG 1.1//EN"
 "http://www.w3.org/Graphics/SVG/1.1/DTD/svg11.dtd">
<!-- Generated by graphviz version 2.38.0 (20140413.2041)
 -->
<!-- Title: G Pages: 1 -->
<svg width="177pt" height="131pt"
 viewBox="0.00 0.00 177.40 131.00" xmlns="http://www.w3.org/2000/svg" xmlns:xlink="http://www.w3.org/1999/xlink">
<g id="graph0" class="graph" transform="scale(1 1) rotate(0) translate(4 127)">
<title>G</title>
<polygon fill="white" stroke="none" points="-4,4 -4,-127 173.397,-127 173.397,4 -4,4"/>
<!-- Trident -->
<g id="node1" class="node"><title>Trident</title>
<ellipse fill="none" stroke="black" cx="81.3968" cy="-18" rx="37.0935" ry="18"/>
<text text-anchor="middle" x="81.3968" y="-14.3" font-family="Times New Roman,serif" font-size="14.00">Trident</text>
</g>
<!-- Dagger -->
<g id="node2" class="node"><title>Dagger</title>
<ellipse fill="none" stroke="black" cx="36.3968" cy="-105" rx="36.2938" ry="18"/>
<text text-anchor="middle" x="36.3968" y="-101.3" font-family="Times New Roman,serif" font-size="14.00">Dagger</text>
</g>
<!-- Dagger&#45;&gt;Trident -->
<g id="edge1" class="edge"><title>Dagger&#45;&gt;Trident</title>
<path fill="none" stroke="black" d="M38.7004,-87.0324C40.5668,-76.98 43.8322,-64.2464 49.3968,-54 51.7298,-49.7041 54.7019,-45.5182 57.8913,-41.6223"/>
<polygon fill="black" stroke="black" points="60.5644,-43.8835 64.6077,-34.0905 55.3399,-39.2246 60.5644,-43.8835"/>
<text text-anchor="middle" x="77.3968" y="-57.8" font-family="Times New Roman,serif" font-size="14.00">Crafting 4</text>
</g>
<!-- Branch -->
<g id="node3" class="node"><title>Branch</title>
<ellipse fill="none" stroke="black" cx="127.397" cy="-105" rx="36.2938" ry="18"/>
<text text-anchor="middle" x="127.397" y="-101.3" font-family="Times New Roman,serif" font-size="14.00">Branch</text>
</g>
<!-- Branch&#45;&gt;Trident -->
<g id="edge2" class="edge"><title>Branch&#45;&gt;Trident</title>
<path fill="none" stroke="black" d="M120.824,-86.9556C116.799,-77.1074 111.299,-64.6074 105.397,-54 103.532,-50.6482 101.432,-47.2121 99.2716,-43.8647"/>
<polygon fill="black" stroke="black" points="102.014,-41.6707 93.5262,-35.3296 96.207,-45.5797 102.014,-41.6707"/>
<text text-anchor="middle" x="141.397" y="-57.8" font-family="Times New Roman,serif" font-size="14.00">Crafting 4</text>
</g>
</g>
</svg>
