<?xml version="1.0" encoding="UTF-8" standalone="no"?>
<!DOCTYPE svg PUBLIC "-//W3C//DTD SVG 1.1//EN"
 "http://www.w3.org/Graphics/SVG/1.1/DTD/svg11.dtd">
<!-- Generated by graphviz version 2.38.0 (20140413.2041)
 -->
<!-- Title: G Pages: 1 -->
<svg width="690pt" height="392pt"
 viewBox="0.00 0.00 689.69 392.00" xmlns="http://www.w3.org/2000/svg" xmlns:xlink="http://www.w3.org/1999/xlink">
<g id="graph0" class="graph" transform="scale(1 1) rotate(0) translate(4 388)">
<title>G</title>
<polygon fill="white" stroke="none" points="-4,4 -4,-388 685.689,-388 685.689,4 -4,4"/>
<!-- Pouch_Dust_Pixie -->
<g id="node1" class="node"><title>Pouch_Dust_Pixie</title>
<ellipse fill="none" stroke="black" cx="321.994" cy="-192" rx="78.7863" ry="18"/>
<text text-anchor="middle" x="321.994" y="-188.3" font-family="Times New Roman,serif" font-size="14.00">Pouch_Dust_Pixie</text>
</g>
<!-- Tusk_A_Magic -->
<g id="node15" class="node"><title>Tusk_A_Magic</title>
<ellipse fill="none" stroke="black" cx="187.994" cy="-105" rx="67.6881" ry="18"/>
<text text-anchor="middle" x="187.994" y="-101.3" font-family="Times New Roman,serif" font-size="14.00">Tusk_A_Magic</text>
</g>
<!-- Pouch_Dust_Pixie&#45;&gt;Tusk_A_Magic -->
<g id="edge1" class="edge"><title>Pouch_Dust_Pixie&#45;&gt;Tusk_A_Magic</title>
<path fill="none" stroke="black" d="M298.595,-174.61C284.165,-164.648 265.191,-151.809 247.994,-141 240.353,-136.197 232.053,-131.212 224.13,-126.56"/>
<polygon fill="black" stroke="black" points="225.805,-123.486 215.402,-121.479 222.283,-129.535 225.805,-123.486"/>
<text text-anchor="middle" x="298.994" y="-144.8" font-family="Times New Roman,serif" font-size="14.00">Crafting 1</text>
</g>
<!-- Pouch_Dust_Moon -->
<g id="node2" class="node"><title>Pouch_Dust_Moon</title>
<ellipse fill="none" stroke="black" cx="357.994" cy="-279" rx="83.3857" ry="18"/>
<text text-anchor="middle" x="357.994" y="-275.3" font-family="Times New Roman,serif" font-size="14.00">Pouch_Dust_Moon</text>
</g>
<!-- Pouch_Dust_Moon&#45;&gt;Pouch_Dust_Pixie -->
<g id="edge16" class="edge"><title>Pouch_Dust_Moon&#45;&gt;Pouch_Dust_Pixie</title>
<path fill="none" stroke="black" d="M350.709,-260.799C345.683,-248.932 338.905,-232.928 333.196,-219.449"/>
<polygon fill="black" stroke="black" points="336.391,-218.019 329.269,-210.175 329.946,-220.749 336.391,-218.019"/>
<text text-anchor="middle" x="370.994" y="-231.8" font-family="Times New Roman,serif" font-size="14.00">Crafting 0</text>
</g>
<!-- Pouch_Dust_Bone -->
<g id="node3" class="node"><title>Pouch_Dust_Bone</title>
<ellipse fill="none" stroke="black" cx="176.994" cy="-279" rx="79.8859" ry="18"/>
<text text-anchor="middle" x="176.994" y="-275.3" font-family="Times New Roman,serif" font-size="14.00">Pouch_Dust_Bone</text>
</g>
<!-- Pouch_Dust_Bone&#45;&gt;Pouch_Dust_Pixie -->
<g id="edge3" class="edge"><title>Pouch_Dust_Bone&#45;&gt;Pouch_Dust_Pixie</title>
<path fill="none" stroke="black" d="M204.268,-262.012C227.356,-248.478 260.633,-228.97 285.921,-214.146"/>
<polygon fill="black" stroke="black" points="287.986,-216.993 294.843,-208.916 284.446,-210.954 287.986,-216.993"/>
<text text-anchor="middle" x="286.994" y="-231.8" font-family="Times New Roman,serif" font-size="14.00">Crafting 0</text>
</g>
<!-- Tusk_MagicBelt -->
<g id="node4" class="node"><title>Tusk_MagicBelt</title>
<ellipse fill="none" stroke="black" cx="133.994" cy="-18" rx="70.6878" ry="18"/>
<text text-anchor="middle" x="133.994" y="-14.3" font-family="Times New Roman,serif" font-size="14.00">Tusk_MagicBelt</text>
</g>
<!-- Rope -->
<g id="node5" class="node"><title>Rope</title>
<ellipse fill="none" stroke="black" cx="70.9942" cy="-105" rx="30.5947" ry="18"/>
<text text-anchor="middle" x="70.9942" y="-101.3" font-family="Times New Roman,serif" font-size="14.00">Rope</text>
</g>
<!-- Rope&#45;&gt;Tusk_MagicBelt -->
<g id="edge5" class="edge"><title>Rope&#45;&gt;Tusk_MagicBelt</title>
<path fill="none" stroke="black" d="M78.3343,-87.4831C83.2082,-77.3568 90.1413,-64.388 97.9942,-54 100.928,-50.119 104.294,-46.2667 107.764,-42.615"/>
<polygon fill="black" stroke="black" points="110.328,-45.0006 114.927,-35.4562 105.38,-40.0492 110.328,-45.0006"/>
<text text-anchor="middle" x="125.994" y="-57.8" font-family="Times New Roman,serif" font-size="14.00">Crafting 1</text>
</g>
<!-- Moonstone -->
<g id="node6" class="node"><title>Moonstone</title>
<ellipse fill="none" stroke="black" cx="304.994" cy="-366" rx="51.9908" ry="18"/>
<text text-anchor="middle" x="304.994" y="-362.3" font-family="Times New Roman,serif" font-size="14.00">Moonstone</text>
</g>
<!-- Moonstone&#45;&gt;Pouch_Dust_Moon -->
<g id="edge6" class="edge"><title>Moonstone&#45;&gt;Pouch_Dust_Moon</title>
<path fill="none" stroke="black" d="M300.068,-347.781C298.16,-337.639 297.56,-324.9 302.994,-315 305.751,-309.977 309.569,-305.572 313.92,-301.737"/>
<polygon fill="black" stroke="black" points="316.366,-304.275 322.213,-295.439 312.132,-298.7 316.366,-304.275"/>
<text text-anchor="middle" x="330.994" y="-318.8" font-family="Times New Roman,serif" font-size="14.00">Crafting 0</text>
</g>
<!-- Pouch_Dust_Star -->
<g id="node7" class="node"><title>Pouch_Dust_Star</title>
<ellipse fill="none" stroke="black" cx="538.994" cy="-279" rx="75.2868" ry="18"/>
<text text-anchor="middle" x="538.994" y="-275.3" font-family="Times New Roman,serif" font-size="14.00">Pouch_Dust_Star</text>
</g>
<!-- Pouch_Dust_Star&#45;&gt;Pouch_Dust_Pixie -->
<g id="edge7" class="edge"><title>Pouch_Dust_Star&#45;&gt;Pouch_Dust_Pixie</title>
<path fill="none" stroke="black" d="M501.196,-263.194C464.702,-248.899 409.308,-227.201 369.776,-211.716"/>
<polygon fill="black" stroke="black" points="370.675,-208.31 360.088,-207.921 368.122,-214.828 370.675,-208.31"/>
<text text-anchor="middle" x="471.994" y="-231.8" font-family="Times New Roman,serif" font-size="14.00">Crafting 0</text>
</g>
<!-- Bone -->
<g id="node8" class="node"><title>Bone</title>
<ellipse fill="none" stroke="black" cx="66.9942" cy="-366" rx="29.795" ry="18"/>
<text text-anchor="middle" x="66.9942" y="-362.3" font-family="Times New Roman,serif" font-size="14.00">Bone</text>
</g>
<!-- Bone&#45;&gt;Pouch_Dust_Bone -->
<g id="edge15" class="edge"><title>Bone&#45;&gt;Pouch_Dust_Bone</title>
<path fill="none" stroke="black" d="M80.1717,-349.463C89.5234,-338.988 102.726,-325.26 115.994,-315 122.446,-310.011 129.684,-305.243 136.859,-300.92"/>
<polygon fill="black" stroke="black" points="138.959,-303.747 145.849,-295.699 135.443,-297.694 138.959,-303.747"/>
<text text-anchor="middle" x="143.994" y="-318.8" font-family="Times New Roman,serif" font-size="14.00">Crafting 0</text>
</g>
<!-- Skull_Human -->
<g id="node9" class="node"><title>Skull_Human</title>
<ellipse fill="none" stroke="black" cx="174.994" cy="-366" rx="59.5901" ry="18"/>
<text text-anchor="middle" x="174.994" y="-362.3" font-family="Times New Roman,serif" font-size="14.00">Skull_Human</text>
</g>
<!-- Skull_Human&#45;&gt;Pouch_Dust_Bone -->
<g id="edge11" class="edge"><title>Skull_Human&#45;&gt;Pouch_Dust_Bone</title>
<path fill="none" stroke="black" d="M175.399,-347.799C175.673,-336.163 176.04,-320.548 176.353,-307.237"/>
<polygon fill="black" stroke="black" points="179.854,-307.255 176.59,-297.175 172.856,-307.09 179.854,-307.255"/>
<text text-anchor="middle" x="204.994" y="-318.8" font-family="Times New Roman,serif" font-size="14.00">Crafting 0</text>
</g>
<!-- Tusk -->
<g id="node10" class="node"><title>Tusk</title>
<ellipse fill="none" stroke="black" cx="187.994" cy="-192" rx="29.4969" ry="18"/>
<text text-anchor="middle" x="187.994" y="-188.3" font-family="Times New Roman,serif" font-size="14.00">Tusk</text>
</g>
<!-- Tusk&#45;&gt;Tusk_A_Magic -->
<g id="edge12" class="edge"><title>Tusk&#45;&gt;Tusk_A_Magic</title>
<path fill="none" stroke="black" d="M187.994,-173.799C187.994,-162.163 187.994,-146.548 187.994,-133.237"/>
<polygon fill="black" stroke="black" points="191.494,-133.175 187.994,-123.175 184.494,-133.175 191.494,-133.175"/>
<text text-anchor="middle" x="215.994" y="-144.8" font-family="Times New Roman,serif" font-size="14.00">Crafting 1</text>
</g>
<!-- Herb_Stardust -->
<g id="node11" class="node"><title>Herb_Stardust</title>
<ellipse fill="none" stroke="black" cx="617.994" cy="-366" rx="63.8893" ry="18"/>
<text text-anchor="middle" x="617.994" y="-362.3" font-family="Times New Roman,serif" font-size="14.00">Herb_Stardust</text>
</g>
<!-- Herb_Stardust&#45;&gt;Pouch_Dust_Star -->
<g id="edge13" class="edge"><title>Herb_Stardust&#45;&gt;Pouch_Dust_Star</title>
<path fill="none" stroke="black" d="M609.006,-347.71C603.236,-337.544 595.127,-324.803 585.994,-315 581.907,-310.613 577.211,-306.391 572.402,-302.49"/>
<polygon fill="black" stroke="black" points="574.353,-299.575 564.292,-296.256 570.088,-305.125 574.353,-299.575"/>
<text text-anchor="middle" x="624.994" y="-318.8" font-family="Times New Roman,serif" font-size="14.00">Crafting 0</text>
</g>
<!-- Wool -->
<g id="node12" class="node"><title>Wool</title>
<ellipse fill="none" stroke="black" cx="47.9942" cy="-279" rx="31.3957" ry="18"/>
<text text-anchor="middle" x="47.9942" y="-275.3" font-family="Times New Roman,serif" font-size="14.00">Wool</text>
</g>
<!-- Yarn_A_Wool -->
<g id="node13" class="node"><title>Yarn_A_Wool</title>
<ellipse fill="none" stroke="black" cx="64.9942" cy="-192" rx="64.9885" ry="18"/>
<text text-anchor="middle" x="64.9942" y="-188.3" font-family="Times New Roman,serif" font-size="14.00">Yarn_A_Wool</text>
</g>
<!-- Wool&#45;&gt;Yarn_A_Wool -->
<g id="edge14" class="edge"><title>Wool&#45;&gt;Yarn_A_Wool</title>
<path fill="none" stroke="black" d="M51.4344,-260.799C53.7617,-249.163 56.8847,-233.548 59.5469,-220.237"/>
<polygon fill="black" stroke="black" points="63.0299,-220.668 61.5591,-210.175 56.1659,-219.295 63.0299,-220.668"/>
<text text-anchor="middle" x="85.9942" y="-231.8" font-family="Times New Roman,serif" font-size="14.00">Crafting 0</text>
</g>
<!-- Yarn_A_Wool&#45;&gt;Rope -->
<g id="edge4" class="edge"><title>Yarn_A_Wool&#45;&gt;Rope</title>
<path fill="none" stroke="black" d="M66.2084,-173.799C67.0298,-162.163 68.132,-146.548 69.0716,-133.237"/>
<polygon fill="black" stroke="black" points="72.5689,-133.397 69.7818,-123.175 65.5863,-132.904 72.5689,-133.397"/>
<text text-anchor="middle" x="96.9942" y="-144.8" font-family="Times New Roman,serif" font-size="14.00">Crafting 0</text>
</g>
<!-- MortarPestle -->
<g id="node14" class="node"><title>MortarPestle</title>
<ellipse fill="none" stroke="black" cx="459.994" cy="-366" rx="57.3905" ry="18"/>
<text text-anchor="middle" x="459.994" y="-362.3" font-family="Times New Roman,serif" font-size="14.00">MortarPestle</text>
</g>
<!-- MortarPestle&#45;&gt;Pouch_Dust_Moon -->
<g id="edge10" class="edge"><title>MortarPestle&#45;&gt;Pouch_Dust_Moon</title>
<path fill="none" stroke="black" d="M455.896,-347.873C452.596,-337.255 446.99,-323.977 437.994,-315 431.375,-308.394 423.3,-302.94 414.856,-298.465"/>
<polygon fill="black" stroke="black" points="416.126,-295.191 405.6,-293.986 413.077,-301.493 416.126,-295.191"/>
<text text-anchor="middle" x="476.994" y="-318.8" font-family="Times New Roman,serif" font-size="14.00">Crafting 0</text>
</g>
<!-- MortarPestle&#45;&gt;Pouch_Dust_Bone -->
<g id="edge8" class="edge"><title>MortarPestle&#45;&gt;Pouch_Dust_Bone</title>
<path fill="none" stroke="black" d="M423.875,-351.99C409.208,-346.098 392.368,-338.535 377.994,-330 368.743,-324.507 368.778,-319.477 358.994,-315 358.315,-314.689 297.106,-302.947 245.864,-293.149"/>
<polygon fill="black" stroke="black" points="246.248,-289.659 235.769,-291.219 244.934,-296.535 246.248,-289.659"/>
<text text-anchor="middle" x="405.994" y="-318.8" font-family="Times New Roman,serif" font-size="14.00">Crafting 0</text>
</g>
<!-- MortarPestle&#45;&gt;Pouch_Dust_Star -->
<g id="edge9" class="edge"><title>MortarPestle&#45;&gt;Pouch_Dust_Star</title>
<path fill="none" stroke="black" d="M490.667,-350.747C500.023,-345.276 509.742,-338.313 516.994,-330 522.845,-323.293 527.362,-314.785 530.738,-306.697"/>
<polygon fill="black" stroke="black" points="534.069,-307.781 534.302,-297.189 527.514,-305.324 534.069,-307.781"/>
<text text-anchor="middle" x="553.994" y="-318.8" font-family="Times New Roman,serif" font-size="14.00">Crafting 0</text>
</g>
<!-- Tusk_A_Magic&#45;&gt;Tusk_MagicBelt -->
<g id="edge2" class="edge"><title>Tusk_A_Magic&#45;&gt;Tusk_MagicBelt</title>
<path fill="none" stroke="black" d="M177.326,-87.2067C169.61,-75.0621 159.045,-58.4315 150.278,-44.6326"/>
<polygon fill="black" stroke="black" points="153.142,-42.6132 144.826,-36.0493 147.234,-46.3669 153.142,-42.6132"/>
<text text-anchor="middle" x="192.994" y="-57.8" font-family="Times New Roman,serif" font-size="14.00">Crafting 1</text>
</g>
</g>
</svg>
