<?xml version="1.0" encoding="UTF-8" standalone="no"?>
<!DOCTYPE svg PUBLIC "-//W3C//DTD SVG 1.1//EN"
 "http://www.w3.org/Graphics/SVG/1.1/DTD/svg11.dtd">
<!-- Generated by graphviz version 2.38.0 (20140413.2041)
 -->
<!-- Title: G Pages: 1 -->
<svg width="891pt" height="392pt"
 viewBox="0.00 0.00 891.09 392.00" xmlns="http://www.w3.org/2000/svg" xmlns:xlink="http://www.w3.org/1999/xlink">
<g id="graph0" class="graph" transform="scale(1 1) rotate(0) translate(4 388)">
<title>G</title>
<polygon fill="white" stroke="none" points="-4,4 -4,-388 887.09,-388 887.09,4 -4,4"/>
<!-- Pouch_Dust_Pixie -->
<g id="node1" class="node"><title>Pouch_Dust_Pixie</title>
<ellipse fill="none" stroke="black" cx="360.995" cy="-105" rx="78.7863" ry="18"/>
<text text-anchor="middle" x="360.995" y="-101.3" font-family="Times New Roman,serif" font-size="14.00">Pouch_Dust_Pixie</text>
</g>
<!-- VoodooDoll 1 -->
<g id="node2" class="node"><title>VoodooDoll 1</title>
<ellipse fill="none" stroke="black" cx="527.995" cy="-18" rx="63.8893" ry="18"/>
<text text-anchor="middle" x="527.995" y="-14.3" font-family="Times New Roman,serif" font-size="14.00">VoodooDoll 1</text>
</g>
<!-- Pouch_Dust_Pixie&#45;&gt;VoodooDoll 1 -->
<g id="edge1" class="edge"><title>Pouch_Dust_Pixie&#45;&gt;VoodooDoll 1</title>
<path fill="none" stroke="black" d="M391.626,-88.4097C419.07,-74.4409 459.459,-53.8836 489.162,-38.7654"/>
<polygon fill="black" stroke="black" points="491.076,-41.7185 498.401,-34.0632 487.901,-35.4801 491.076,-41.7185"/>
<text text-anchor="middle" x="482.995" y="-57.8" font-family="Times New Roman,serif" font-size="14.00">Crafting 1</text>
</g>
<!-- Thread -->
<g id="node3" class="node"><title>Thread</title>
<ellipse fill="none" stroke="black" cx="706.995" cy="-279" rx="36.2938" ry="18"/>
<text text-anchor="middle" x="706.995" y="-275.3" font-family="Times New Roman,serif" font-size="14.00">Thread</text>
</g>
<!-- Figurine_Wood -->
<g id="node13" class="node"><title>Figurine_Wood</title>
<ellipse fill="none" stroke="black" cx="740.995" cy="-192" rx="68.4888" ry="18"/>
<text text-anchor="middle" x="740.995" y="-188.3" font-family="Times New Roman,serif" font-size="14.00">Figurine_Wood</text>
</g>
<!-- Thread&#45;&gt;Figurine_Wood -->
<g id="edge2" class="edge"><title>Thread&#45;&gt;Figurine_Wood</title>
<path fill="none" stroke="black" d="M713.713,-261.207C718.478,-249.293 724.97,-233.063 730.426,-219.424"/>
<polygon fill="black" stroke="black" points="733.711,-220.634 734.176,-210.049 727.212,-218.034 733.711,-220.634"/>
<text text-anchor="middle" x="754.995" y="-231.8" font-family="Times New Roman,serif" font-size="14.00">Crafting 0</text>
</g>
<!-- Pouch_Dust_Bone -->
<g id="node4" class="node"><title>Pouch_Dust_Bone</title>
<ellipse fill="none" stroke="black" cx="484.995" cy="-192" rx="79.8859" ry="18"/>
<text text-anchor="middle" x="484.995" y="-188.3" font-family="Times New Roman,serif" font-size="14.00">Pouch_Dust_Bone</text>
</g>
<!-- Pouch_Dust_Bone&#45;&gt;Pouch_Dust_Pixie -->
<g id="edge3" class="edge"><title>Pouch_Dust_Bone&#45;&gt;Pouch_Dust_Pixie</title>
<path fill="none" stroke="black" d="M461.087,-174.611C441.788,-161.382 414.45,-142.643 393.221,-128.09"/>
<polygon fill="black" stroke="black" points="395.058,-125.106 384.83,-122.339 391.1,-130.879 395.058,-125.106"/>
<text text-anchor="middle" x="458.995" y="-144.8" font-family="Times New Roman,serif" font-size="14.00">Crafting 0</text>
</g>
<!-- Needle -->
<g id="node5" class="node"><title>Needle</title>
<ellipse fill="none" stroke="black" cx="618.995" cy="-192" rx="35.9954" ry="18"/>
<text text-anchor="middle" x="618.995" y="-188.3" font-family="Times New Roman,serif" font-size="14.00">Needle</text>
</g>
<!-- VoodooDoll -->
<g id="node12" class="node"><title>VoodooDoll</title>
<ellipse fill="none" stroke="black" cx="618.995" cy="-105" rx="56.59" ry="18"/>
<text text-anchor="middle" x="618.995" y="-101.3" font-family="Times New Roman,serif" font-size="14.00">VoodooDoll</text>
</g>
<!-- Needle&#45;&gt;VoodooDoll -->
<g id="edge4" class="edge"><title>Needle&#45;&gt;VoodooDoll</title>
<path fill="none" stroke="black" d="M618.995,-173.799C618.995,-162.163 618.995,-146.548 618.995,-133.237"/>
<polygon fill="black" stroke="black" points="622.495,-133.175 618.995,-123.175 615.495,-133.175 622.495,-133.175"/>
<text text-anchor="middle" x="646.995" y="-144.8" font-family="Times New Roman,serif" font-size="14.00">Crafting 0</text>
</g>
<!-- Hair -->
<g id="node6" class="node"><title>Hair</title>
<ellipse fill="none" stroke="black" cx="706.995" cy="-366" rx="27" ry="18"/>
<text text-anchor="middle" x="706.995" y="-362.3" font-family="Times New Roman,serif" font-size="14.00">Hair</text>
</g>
<!-- Hair&#45;&gt;Thread -->
<g id="edge5" class="edge"><title>Hair&#45;&gt;Thread</title>
<path fill="none" stroke="black" d="M706.995,-347.799C706.995,-336.163 706.995,-320.548 706.995,-307.237"/>
<polygon fill="black" stroke="black" points="710.495,-307.175 706.995,-297.175 703.495,-307.175 710.495,-307.175"/>
<text text-anchor="middle" x="734.995" y="-318.8" font-family="Times New Roman,serif" font-size="14.00">Crafting 0</text>
</g>
<!-- Moonstone -->
<g id="node7" class="node"><title>Moonstone</title>
<ellipse fill="none" stroke="black" cx="51.9954" cy="-279" rx="51.9908" ry="18"/>
<text text-anchor="middle" x="51.9954" y="-275.3" font-family="Times New Roman,serif" font-size="14.00">Moonstone</text>
</g>
<!-- Pouch_Dust_Moon -->
<g id="node16" class="node"><title>Pouch_Dust_Moon</title>
<ellipse fill="none" stroke="black" cx="130.995" cy="-192" rx="83.3857" ry="18"/>
<text text-anchor="middle" x="130.995" y="-188.3" font-family="Times New Roman,serif" font-size="14.00">Pouch_Dust_Moon</text>
</g>
<!-- Moonstone&#45;&gt;Pouch_Dust_Moon -->
<g id="edge6" class="edge"><title>Moonstone&#45;&gt;Pouch_Dust_Moon</title>
<path fill="none" stroke="black" d="M48.0209,-260.899C46.6033,-250.553 46.6716,-237.558 52.9954,-228 57.487,-221.211 63.634,-215.725 70.521,-211.294"/>
<polygon fill="black" stroke="black" points="72.5547,-214.167 79.5713,-206.229 69.1357,-208.059 72.5547,-214.167"/>
<text text-anchor="middle" x="80.9954" y="-231.8" font-family="Times New Roman,serif" font-size="14.00">Crafting 0</text>
</g>
<!-- Pouch_Dust_Star -->
<g id="node8" class="node"><title>Pouch_Dust_Star</title>
<ellipse fill="none" stroke="black" cx="311.995" cy="-192" rx="75.2868" ry="18"/>
<text text-anchor="middle" x="311.995" y="-188.3" font-family="Times New Roman,serif" font-size="14.00">Pouch_Dust_Star</text>
</g>
<!-- Pouch_Dust_Star&#45;&gt;Pouch_Dust_Pixie -->
<g id="edge7" class="edge"><title>Pouch_Dust_Star&#45;&gt;Pouch_Dust_Pixie</title>
<path fill="none" stroke="black" d="M321.911,-173.799C328.864,-161.738 338.28,-145.403 346.128,-131.79"/>
<polygon fill="black" stroke="black" points="349.299,-133.297 351.261,-122.885 343.235,-129.801 349.299,-133.297"/>
<text text-anchor="middle" x="367.995" y="-144.8" font-family="Times New Roman,serif" font-size="14.00">Crafting 0</text>
</g>
<!-- MortarPestle -->
<g id="node9" class="node"><title>MortarPestle</title>
<ellipse fill="none" stroke="black" cx="209.995" cy="-279" rx="57.3905" ry="18"/>
<text text-anchor="middle" x="209.995" y="-275.3" font-family="Times New Roman,serif" font-size="14.00">MortarPestle</text>
</g>
<!-- MortarPestle&#45;&gt;Pouch_Dust_Bone -->
<g id="edge14" class="edge"><title>MortarPestle&#45;&gt;Pouch_Dust_Bone</title>
<path fill="none" stroke="black" d="M235.944,-262.948C245.829,-256.986 257.093,-249.913 266.995,-243 275.817,-236.841 276.151,-232.34 285.995,-228 331.325,-208.015 347.217,-218.648 395.995,-210 402.656,-208.819 409.59,-207.555 416.517,-206.27"/>
<polygon fill="black" stroke="black" points="417.444,-209.657 426.63,-204.378 416.157,-202.777 417.444,-209.657"/>
<text text-anchor="middle" x="313.995" y="-231.8" font-family="Times New Roman,serif" font-size="14.00">Crafting 0</text>
</g>
<!-- MortarPestle&#45;&gt;Pouch_Dust_Star -->
<g id="edge15" class="edge"><title>MortarPestle&#45;&gt;Pouch_Dust_Star</title>
<path fill="none" stroke="black" d="M205.729,-260.696C204.201,-250.274 204.256,-237.27 210.995,-228 218.199,-218.091 228.404,-210.965 239.583,-205.845"/>
<polygon fill="black" stroke="black" points="241.183,-208.975 249.158,-202 238.574,-202.479 241.183,-208.975"/>
<text text-anchor="middle" x="238.995" y="-231.8" font-family="Times New Roman,serif" font-size="14.00">Crafting 0</text>
</g>
<!-- MortarPestle&#45;&gt;Pouch_Dust_Moon -->
<g id="edge16" class="edge"><title>MortarPestle&#45;&gt;Pouch_Dust_Moon</title>
<path fill="none" stroke="black" d="M165.07,-267.67C152.255,-262.445 139.694,-254.636 131.995,-243 127.598,-236.354 126.226,-228.047 126.274,-220.124"/>
<polygon fill="black" stroke="black" points="129.768,-220.334 127.021,-210.101 122.787,-219.813 129.768,-220.334"/>
<text text-anchor="middle" x="159.995" y="-231.8" font-family="Times New Roman,serif" font-size="14.00">Crafting 0</text>
</g>
<!-- Scraps_Cloth -->
<g id="node10" class="node"><title>Scraps_Cloth</title>
<ellipse fill="none" stroke="black" cx="821.995" cy="-279" rx="61.1893" ry="18"/>
<text text-anchor="middle" x="821.995" y="-275.3" font-family="Times New Roman,serif" font-size="14.00">Scraps_Cloth</text>
</g>
<!-- Scraps_Cloth&#45;&gt;Figurine_Wood -->
<g id="edge9" class="edge"><title>Scraps_Cloth&#45;&gt;Figurine_Wood</title>
<path fill="none" stroke="black" d="M811.842,-260.804C805.417,-250.67 796.54,-237.932 786.995,-228 782.808,-223.643 778.045,-219.399 773.21,-215.456"/>
<polygon fill="black" stroke="black" points="775.133,-212.518 765.091,-209.138 770.833,-218.042 775.133,-212.518"/>
<text text-anchor="middle" x="825.995" y="-231.8" font-family="Times New Roman,serif" font-size="14.00">Crafting 0</text>
</g>
<!-- Herb_Stardust -->
<g id="node11" class="node"><title>Herb_Stardust</title>
<ellipse fill="none" stroke="black" cx="357.995" cy="-279" rx="63.8893" ry="18"/>
<text text-anchor="middle" x="357.995" y="-275.3" font-family="Times New Roman,serif" font-size="14.00">Herb_Stardust</text>
</g>
<!-- Herb_Stardust&#45;&gt;Pouch_Dust_Star -->
<g id="edge10" class="edge"><title>Herb_Stardust&#45;&gt;Pouch_Dust_Star</title>
<path fill="none" stroke="black" d="M356.203,-260.974C354.599,-250.901 351.592,-238.166 345.995,-228 343.927,-224.243 341.347,-220.603 338.539,-217.181"/>
<polygon fill="black" stroke="black" points="341.013,-214.699 331.705,-209.639 335.826,-219.4 341.013,-214.699"/>
<text text-anchor="middle" x="379.995" y="-231.8" font-family="Times New Roman,serif" font-size="14.00">Crafting 0</text>
</g>
<!-- VoodooDoll&#45;&gt;VoodooDoll 1 -->
<g id="edge17" class="edge"><title>VoodooDoll&#45;&gt;VoodooDoll 1</title>
<path fill="none" stroke="black" d="M601.45,-87.6111C587.728,-74.7938 568.467,-56.8033 553.111,-42.46"/>
<polygon fill="black" stroke="black" points="555.184,-39.6068 545.487,-35.3385 550.406,-44.7224 555.184,-39.6068"/>
<text text-anchor="middle" x="606.995" y="-57.8" font-family="Times New Roman,serif" font-size="14.00">Crafting 1</text>
</g>
<!-- Figurine_Wood&#45;&gt;VoodooDoll -->
<g id="edge12" class="edge"><title>Figurine_Wood&#45;&gt;VoodooDoll</title>
<path fill="none" stroke="black" d="M722.027,-174.461C710.04,-164.327 694.025,-151.357 678.995,-141 671.492,-135.829 663.191,-130.662 655.216,-125.946"/>
<polygon fill="black" stroke="black" points="656.818,-122.829 646.412,-120.838 653.305,-128.884 656.818,-122.829"/>
<text text-anchor="middle" x="726.995" y="-144.8" font-family="Times New Roman,serif" font-size="14.00">Crafting 0</text>
</g>
<!-- Skull_Human -->
<g id="node14" class="node"><title>Skull_Human</title>
<ellipse fill="none" stroke="black" cx="498.995" cy="-279" rx="59.5901" ry="18"/>
<text text-anchor="middle" x="498.995" y="-275.3" font-family="Times New Roman,serif" font-size="14.00">Skull_Human</text>
</g>
<!-- Skull_Human&#45;&gt;Pouch_Dust_Bone -->
<g id="edge13" class="edge"><title>Skull_Human&#45;&gt;Pouch_Dust_Bone</title>
<path fill="none" stroke="black" d="M496.162,-260.799C494.246,-249.163 491.674,-233.548 489.481,-220.237"/>
<polygon fill="black" stroke="black" points="492.903,-219.474 487.824,-210.175 485.996,-220.611 492.903,-219.474"/>
<text text-anchor="middle" x="520.995" y="-231.8" font-family="Times New Roman,serif" font-size="14.00">Crafting 0</text>
</g>
<!-- Bone -->
<g id="node15" class="node"><title>Bone</title>
<ellipse fill="none" stroke="black" cx="606.995" cy="-279" rx="29.795" ry="18"/>
<text text-anchor="middle" x="606.995" y="-275.3" font-family="Times New Roman,serif" font-size="14.00">Bone</text>
</g>
<!-- Bone&#45;&gt;Pouch_Dust_Bone -->
<g id="edge8" class="edge"><title>Bone&#45;&gt;Pouch_Dust_Bone</title>
<path fill="none" stroke="black" d="M592.805,-262.828C582.421,-252.255 567.645,-238.264 552.995,-228 545.329,-222.629 536.728,-217.561 528.289,-213.038"/>
<polygon fill="black" stroke="black" points="529.736,-209.846 519.246,-208.355 526.516,-216.062 529.736,-209.846"/>
<text text-anchor="middle" x="598.995" y="-231.8" font-family="Times New Roman,serif" font-size="14.00">Crafting 0</text>
</g>
<!-- Pouch_Dust_Moon&#45;&gt;Pouch_Dust_Pixie -->
<g id="edge11" class="edge"><title>Pouch_Dust_Moon&#45;&gt;Pouch_Dust_Pixie</title>
<path fill="none" stroke="black" d="M171.058,-176.194C210.223,-161.72 269.925,-139.656 311.919,-124.137"/>
<polygon fill="black" stroke="black" points="313.225,-127.386 321.392,-120.636 310.798,-120.82 313.225,-127.386"/>
<text text-anchor="middle" x="287.995" y="-144.8" font-family="Times New Roman,serif" font-size="14.00">Crafting 0</text>
</g>
</g>
</svg>
