<?xml version="1.0" encoding="UTF-8" standalone="no"?>
<!DOCTYPE svg PUBLIC "-//W3C//DTD SVG 1.1//EN"
 "http://www.w3.org/Graphics/SVG/1.1/DTD/svg11.dtd">
<!-- Generated by graphviz version 2.38.0 (20140413.2041)
 -->
<!-- Title: G Pages: 1 -->
<svg width="228pt" height="131pt"
 viewBox="0.00 0.00 227.74 131.00" xmlns="http://www.w3.org/2000/svg" xmlns:xlink="http://www.w3.org/1999/xlink">
<g id="graph0" class="graph" transform="scale(1 1) rotate(0) translate(4 127)">
<title>G</title>
<polygon fill="white" stroke="none" points="-4,4 -4,-127 223.741,-127 223.741,4 -4,4"/>
<!-- WashTub -->
<g id="node1" class="node"><title>WashTub</title>
<ellipse fill="none" stroke="black" cx="46.7958" cy="-105" rx="46.5926" ry="18"/>
<text text-anchor="middle" x="46.7958" y="-101.3" font-family="Times New Roman,serif" font-size="14.00">WashTub</text>
</g>
<!-- WashTubBoard -->
<g id="node2" class="node"><title>WashTubBoard</title>
<ellipse fill="none" stroke="black" cx="105.796" cy="-18" rx="69.5877" ry="18"/>
<text text-anchor="middle" x="105.796" y="-14.3" font-family="Times New Roman,serif" font-size="14.00">WashTubBoard</text>
</g>
<!-- WashTub&#45;&gt;WashTubBoard -->
<g id="edge1" class="edge"><title>WashTub&#45;&gt;WashTubBoard</title>
<path fill="none" stroke="black" d="M58.4523,-87.2067C66.9373,-74.9827 78.5768,-58.2139 88.1913,-44.3624"/>
<polygon fill="black" stroke="black" points="91.3366,-45.9691 94.1636,-35.7584 85.5861,-41.9776 91.3366,-45.9691"/>
<text text-anchor="middle" x="108.796" y="-57.8" font-family="Times New Roman,serif" font-size="14.00">Crafting 0</text>
</g>
<!-- WashBoard -->
<g id="node3" class="node"><title>WashBoard</title>
<ellipse fill="none" stroke="black" cx="165.796" cy="-105" rx="53.8905" ry="18"/>
<text text-anchor="middle" x="165.796" y="-101.3" font-family="Times New Roman,serif" font-size="14.00">WashBoard</text>
</g>
<!-- WashBoard&#45;&gt;WashTubBoard -->
<g id="edge2" class="edge"><title>WashBoard&#45;&gt;WashTubBoard</title>
<path fill="none" stroke="black" d="M158.95,-87.0243C154.505,-76.969 148.173,-64.2352 140.796,-54 138.065,-50.2116 134.917,-46.4543 131.651,-42.8858"/>
<polygon fill="black" stroke="black" points="133.903,-40.1809 124.43,-35.4362 128.877,-45.0528 133.903,-40.1809"/>
<text text-anchor="middle" x="177.796" y="-57.8" font-family="Times New Roman,serif" font-size="14.00">Crafting 0</text>
</g>
</g>
</svg>
