<?xml version="1.0" encoding="UTF-8" standalone="no"?>
<!DOCTYPE svg PUBLIC "-//W3C//DTD SVG 1.1//EN"
 "http://www.w3.org/Graphics/SVG/1.1/DTD/svg11.dtd">
<!-- Generated by graphviz version 2.38.0 (20140413.2041)
 -->
<!-- Title: G Pages: 1 -->
<svg width="242pt" height="305pt"
 viewBox="0.00 0.00 242.44 305.00" xmlns="http://www.w3.org/2000/svg" xmlns:xlink="http://www.w3.org/1999/xlink">
<g id="graph0" class="graph" transform="scale(1 1) rotate(0) translate(4 301)">
<title>G</title>
<polygon fill="white" stroke="none" points="-4,4 -4,-301 238.439,-301 238.439,4 -4,4"/>
<!-- Rope -->
<g id="node1" class="node"><title>Rope</title>
<ellipse fill="none" stroke="black" cx="169.445" cy="-105" rx="30.5947" ry="18"/>
<text text-anchor="middle" x="169.445" y="-101.3" font-family="Times New Roman,serif" font-size="14.00">Rope</text>
</g>
<!-- Wood_Shield -->
<g id="node2" class="node"><title>Wood_Shield</title>
<ellipse fill="none" stroke="black" cx="107.445" cy="-18" rx="61.99" ry="18"/>
<text text-anchor="middle" x="107.445" y="-14.3" font-family="Times New Roman,serif" font-size="14.00">Wood_Shield</text>
</g>
<!-- Rope&#45;&gt;Wood_Shield -->
<g id="edge1" class="edge"><title>Rope&#45;&gt;Wood_Shield</title>
<path fill="none" stroke="black" d="M157.783,-88.0122C148.778,-75.6664 136.148,-58.351 125.792,-44.1533"/>
<polygon fill="black" stroke="black" points="128.411,-41.8051 119.69,-35.7885 122.756,-45.9302 128.411,-41.8051"/>
<text text-anchor="middle" x="169.445" y="-57.8" font-family="Times New Roman,serif" font-size="14.00">Crafting 3</text>
</g>
<!-- Wool -->
<g id="node3" class="node"><title>Wool</title>
<ellipse fill="none" stroke="black" cx="169.445" cy="-279" rx="31.3957" ry="18"/>
<text text-anchor="middle" x="169.445" y="-275.3" font-family="Times New Roman,serif" font-size="14.00">Wool</text>
</g>
<!-- Yarn_A_Wool -->
<g id="node4" class="node"><title>Yarn_A_Wool</title>
<ellipse fill="none" stroke="black" cx="169.445" cy="-192" rx="64.9885" ry="18"/>
<text text-anchor="middle" x="169.445" y="-188.3" font-family="Times New Roman,serif" font-size="14.00">Yarn_A_Wool</text>
</g>
<!-- Wool&#45;&gt;Yarn_A_Wool -->
<g id="edge2" class="edge"><title>Wool&#45;&gt;Yarn_A_Wool</title>
<path fill="none" stroke="black" d="M169.445,-260.799C169.445,-249.163 169.445,-233.548 169.445,-220.237"/>
<polygon fill="black" stroke="black" points="172.945,-220.175 169.445,-210.175 165.945,-220.175 172.945,-220.175"/>
<text text-anchor="middle" x="197.445" y="-231.8" font-family="Times New Roman,serif" font-size="14.00">Crafting 0</text>
</g>
<!-- Yarn_A_Wool&#45;&gt;Rope -->
<g id="edge3" class="edge"><title>Yarn_A_Wool&#45;&gt;Rope</title>
<path fill="none" stroke="black" d="M169.445,-173.799C169.445,-162.163 169.445,-146.548 169.445,-133.237"/>
<polygon fill="black" stroke="black" points="172.945,-133.175 169.445,-123.175 165.945,-133.175 172.945,-133.175"/>
<text text-anchor="middle" x="197.445" y="-144.8" font-family="Times New Roman,serif" font-size="14.00">Crafting 0</text>
</g>
<!-- Barrel_A_Lid -->
<g id="node5" class="node"><title>Barrel_A_Lid</title>
<ellipse fill="none" stroke="black" cx="60.4446" cy="-105" rx="60.3893" ry="18"/>
<text text-anchor="middle" x="60.4446" y="-101.3" font-family="Times New Roman,serif" font-size="14.00">Barrel_A_Lid</text>
</g>
<!-- Barrel_A_Lid&#45;&gt;Wood_Shield -->
<g id="edge4" class="edge"><title>Barrel_A_Lid&#45;&gt;Wood_Shield</title>
<path fill="none" stroke="black" d="M64.1178,-86.6049C66.6755,-76.6398 70.6755,-64.1398 76.4446,-54 78.5671,-50.2696 81.1352,-46.5871 83.8745,-43.0918"/>
<polygon fill="black" stroke="black" points="86.6486,-45.232 90.4471,-35.3415 81.3099,-40.7045 86.6486,-45.232"/>
<text text-anchor="middle" x="104.445" y="-57.8" font-family="Times New Roman,serif" font-size="14.00">Crafting 3</text>
</g>
</g>
</svg>
